<?xml version="1.0" encoding="UTF-8" standalone="no"?>
<svg
   xmlns:dc="http://purl.org/dc/elements/1.1/"
   xmlns:cc="http://creativecommons.org/ns#"
   xmlns:rdf="http://www.w3.org/1999/02/22-rdf-syntax-ns#"
   xmlns:svg="http://www.w3.org/2000/svg"
   xmlns="http://www.w3.org/2000/svg"
   xmlns:sodipodi="http://sodipodi.sourceforge.net/DTD/sodipodi-0.dtd"
   xmlns:inkscape="http://www.inkscape.org/namespaces/inkscape"
   height="480"
   id="svg2103"
   inkscape:version="0.91 r13725"
   sodipodi:docname="bus_old2.svg"
   sodipodi:version="0.32"
   width="395.39337"
   version="1.1">
  <metadata
     id="metadata3">
    <rdf:RDF>
      <cc:Work
         rdf:about="">
        <dc:title></dc:title>
        <dc:description>EPS converted from  http://aiga.org</dc:description>
        <dc:subject>
          <rdf:Bag>
            <rdf:li>symbol</rdf:li>
            <rdf:li>mapsym</rdf:li>
          </rdf:Bag>
        </dc:subject>
        <dc:publisher>
          <cc:Agent
             rdf:about="http://www.openclipart.org/">
            <dc:title>Open Clip Art Library</dc:title>
          </cc:Agent>
        </dc:publisher>
        <dc:creator>
          <cc:Agent>
            <dc:title>Jean-Victor Balin</dc:title>
          </cc:Agent>
        </dc:creator>
        <dc:rights>
          <cc:Agent>
            <dc:title>Jean-Victor Balin</dc:title>
          </cc:Agent>
        </dc:rights>
        <dc:date />
        <dc:format>image/svg+xml</dc:format>
        <dc:type
           rdf:resource="http://purl.org/dc/dcmitype/StillImage" />
        <cc:license
           rdf:resource="http://web.resource.org/cc/PublicDomain" />
        <dc:language>en</dc:language>
      </cc:Work>
      <cc:License
         rdf:about="http://web.resource.org/cc/PublicDomain">
        <cc:permits
           rdf:resource="http://web.resource.org/cc/Reproduction" />
        <cc:permits
           rdf:resource="http://web.resource.org/cc/Distribution" />
        <cc:permits
           rdf:resource="http://web.resource.org/cc/DerivativeWorks" />
      </cc:License>
    </rdf:RDF>
  </metadata>
  <sodipodi:namedview
     bordercolor="#666666"
     borderopacity="1.0"
     id="base"
     inkscape:current-layer="svg2103"
     inkscape:cx="233.70271"
     inkscape:cy="305.95955"
     inkscape:pageopacity="0.0"
     inkscape:pageshadow="2"
     inkscape:window-height="988"
     inkscape:window-width="1680"
     inkscape:window-x="-8"
     inkscape:window-y="-8"
     inkscape:zoom="0.86831672"
     pagecolor="#ffffff"
     showgrid="false"
     fit-margin-top="0"
     fit-margin-left="0"
     fit-margin-right="0"
     fit-margin-bottom="0"
     inkscape:window-maximized="1">
    <inkscape:grid
       type="xygrid"
       id="grid4161"
       originx="20"
       originy="20" />
  </sodipodi:namedview>
  <defs
     id="defs2105">
    <marker
       id="ArrowEnd"
       markerHeight="3"
       markerUnits="strokeWidth"
       markerWidth="4"
       orient="auto"
       refX="0"
       refY="5"
       viewBox="0 0 10 10">
      <path
         d="M 0,0 10,5 0,10 Z"
         id="path2108"
         inkscape:connector-curvature="0" />
    </marker>
    <marker
       id="ArrowStart"
       markerHeight="3"
       markerUnits="strokeWidth"
       markerWidth="4"
       orient="auto"
       refX="10"
       refY="5"
       viewBox="0 0 10 10">
      <path
         d="M 10,0 0,5 10,10 Z"
         id="path2111"
         inkscape:connector-curvature="0" />
    </marker>
  </defs>
  <rect
     style="opacity:1;fill:#ffffff;fill-opacity:1;stroke:none;stroke-width:30;stroke-linecap:square;stroke-linejoin:miter;stroke-miterlimit:4;stroke-dasharray:none;stroke-dashoffset:0.60000002;stroke-opacity:1"
     id="rect4163"
     width="395.39337"
     height="480"
     x="0"
     y="0" />
  <g
     id="g2113"
     transform="translate(20,24.940002)">
    <path
       d="M 179.237,0 C 138.982,0 83.388,11.502 60.384,21.087 37.38,30.672 22.044,40.257 17.252,64.219 L 0,197.06 l 0,183.045 29.712,0 0,28.705 c 0,35 51.218,35 51.218,0 l 0,-28.705 94.557,0 0.3,0 98.307,0 0,28.705 c 0,35 51.218,35 51.218,0 l 0,-28.705 29.712,0 0,-183.045 L 337.772,64.219 C 332.98,40.257 317.644,30.672 294.64,21.087 271.636,11.502 216.042,0 175.787,0"
       id="path2115"
       style="fill:#000000;stroke:none"
       inkscape:connector-curvature="0" />
    <g
       id="g2117">
      <g
         id="g2119">
        <g
           id="g2121">
          <path
             d="m 299.682,322.723 c 13.568,0 24.568,-11.002 24.568,-24.57 0,-13.568 -11,-24.57 -24.568,-24.57 -13.568,0 -24.569,11.002 -24.569,24.57 0,13.568 11.001,24.57 24.569,24.57 z"
             id="path2123"
             style="fill:#ffffff;stroke:none"
             inkscape:connector-curvature="0" />
          <path
             d="M 299.682,298.153"
             id="path2125"
             style="fill:#ffffff;stroke:none"
             inkscape:connector-curvature="0" />
        </g>
        <g
           id="g2127">
          <path
             d="m 55.342,322.723 c -13.568,0 -24.568,-11.002 -24.568,-24.57 0,-13.568 11,-24.57 24.568,-24.57 13.568,0 24.569,11.002 24.569,24.57 0,13.568 -11.001,24.57 -24.569,24.57 z"
             id="path2129"
             style="fill:#ffffff;stroke:none"
             inkscape:connector-curvature="0" />
          <path
             d="M 55.342,298.153"
             id="path2131"
             style="fill:#ffffff;stroke:none"
             inkscape:connector-curvature="0" />
        </g>
      </g>
      <path
         d="m 175.612,55.113 -71.136,0 c -14.378,0 -14.378,-21.566 0,-21.566 l 71.311,0 74.761,0 c 14.378,0 14.378,21.566 0,21.566 l -74.936,0 z"
         id="path2133"
         style="fill:#ffffff;stroke:none"
         inkscape:connector-curvature="0" />
      <path
         d="m 175.612,76.887 -109.897,0 c -15.188,0 -19.156,7.717 -21,19.423 l -13.428,96.348 c -1.252,9.235 1.419,18.402 14.178,18.402 l 130.322,0 133.772,0 c 12.759,0 15.43,-9.167 14.178,-18.402 L 310.309,96.31 c -1.844,-11.706 -5.812,-19.423 -21,-19.423 l -113.697,0 z"
         id="path2135"
         style="fill:#ffffff;stroke:none"
         inkscape:connector-curvature="0" />
    </g>
  </g>
</svg>
