<?xml version="1.0" encoding="UTF-8" standalone="no"?>
<!--
   ***************************************************************************
   Bundesanstalt fuer Strassenwesen
   RWB-Symbol
   Bezeichnung:
   Bahnhof
   Ausdehnung in cm:
         X_min     X_max     Y_min     Y_max
         0.00000  15.00000   0.00000  15.00000
-->

<svg
   xmlns:dc="http://purl.org/dc/elements/1.1/"
   xmlns:cc="http://creativecommons.org/ns#"
   xmlns:rdf="http://www.w3.org/1999/02/22-rdf-syntax-ns#"
   xmlns:svg="http://www.w3.org/2000/svg"
   xmlns="http://www.w3.org/2000/svg"
   xmlns:sodipodi="http://sodipodi.sourceforge.net/DTD/sodipodi-0.dtd"
   xmlns:inkscape="http://www.inkscape.org/namespaces/inkscape"
   width="16"
   height="16"
   version="1.1"
   id="svg2"
   inkscape:version="0.91 r13725"
   sodipodi:docname="station3.svg">
  <path
     d="M 0,16 16,16 16,0 0,0 0,16 Z"
     id="path4"
     style="fill:#ffffff;fill-rule:evenodd;stroke:none;stroke-width:0.25"
     inkscape:connector-curvature="0" />
  <metadata
     id="metadata26">
    <rdf:RDF>
      <cc:Work
         rdf:about="">
        <dc:format>image/svg+xml</dc:format>
        <dc:type
           rdf:resource="http://purl.org/dc/dcmitype/StillImage" />
        <dc:title></dc:title>
        <cc:license
           rdf:resource="http://creativecommons.org/publicdomain/zero/1.0/" />
      </cc:Work>
      <cc:License
         rdf:about="http://creativecommons.org/publicdomain/zero/1.0/">
        <cc:permits
           rdf:resource="http://creativecommons.org/ns#Reproduction" />
        <cc:permits
           rdf:resource="http://creativecommons.org/ns#Distribution" />
        <cc:permits
           rdf:resource="http://creativecommons.org/ns#DerivativeWorks" />
      </cc:License>
    </rdf:RDF>
  </metadata>
  <defs
     id="defs24" />
  <sodipodi:namedview
     pagecolor="#ffffff"
     bordercolor="#666666"
     borderopacity="1"
     objecttolerance="10"
     gridtolerance="10"
     guidetolerance="10"
     inkscape:pageopacity="0"
     inkscape:pageshadow="2"
     inkscape:window-width="1680"
     inkscape:window-height="988"
     id="namedview22"
     showgrid="true"
     inkscape:zoom="45.254834"
     inkscape:cx="8.6012633"
     inkscape:cy="5.9623606"
     inkscape:window-x="-8"
     inkscape:window-y="-8"
     inkscape:window-maximized="1"
     inkscape:current-layer="svg2">
    <inkscape:grid
       type="xygrid"
       id="grid4151" />
  </sodipodi:namedview>
  <!--
   ***************************************************************************
-->
  <!--
      INHALT
      Dach
-->
  <!--
      ****       GLEIS     ******
-->
  <!--
      ****      LOKOMOTIVE   ****
-->
  <!--
      ****   SCHEINWERFER  ****
-->
  <!--
      ****   FRONTSCHEIBE  ****
-->
  <!--
      *****  INLAY STROMABNEHMER ****
-->
  <g
     id="g4142"
     transform="matrix(1.0308709,0,0,1.0490975,-0.9384079,-1.0939817)">
    <path
       style="fill:#000000;fill-rule:evenodd;stroke:none"
       inkscape:connector-curvature="0"
       id="path8"
       d="m 1.866667,15.36 0,-0.74667 1.013333,0 0,-0.53333 1.493333,0 0,0.53333 3.093334,0 0,-0.53333 1.493333,0 0,0.53333 1.813333,0 0,-2.142652 4.693334,0 0,2.889322 z"
       sodipodi:nodetypes="ccccccccccccccc" />
    <path
       style="fill:#000000;fill-rule:evenodd;stroke:none"
       inkscape:connector-curvature="0"
       id="path10"
       d="M 3.36,13.81333 A 1.4933333,1.4933333 0 0 1 1.866795,12.30045 L 1.899715,9.78541 A 2.1333333,2.1333333 0 0 1 1.931945,9.44288 L 2.063603,8.69622 A 2.1333333,2.1333333 0 0 1 2.186534,8.26751 L 2.932849,6.42032 A 0.8,0.8 0 0 1 3.160366,6.10716 l 1e-6,10e-6 C 3.487211,5.83291 4.32,5.49333 5.644587,5.43299 l 5e-6,0 A 1.401056,1.401056 0 0 0 4.555639,4.41404 l -0.673527,0 A 0.15284267,0.15284267 0 0 1 3.749746,4.18477 0.15284267,0.15284267 0 0 1 3.882112,4.10837 l 4.075776,0 a 0.15284267,0.15284267 0 0 1 0.132366,0.22927 0.15284267,0.15284267 0 0 1 -0.132366,0.0764 l -0.673527,0 A 1.401056,1.401056 0 0 0 6.195408,5.43299 l 5e-6,0 C 7.52,5.49329 8.352789,5.83291 8.679637,6.10717 l 1e-6,-10e-6 A 0.8,0.8 0 0 1 8.907155,6.42032 L 9.65347,8.26751 a 2.1333333,2.1333333 0 0 1 0.122931,0.42871 l 0.131658,0.74666 a 2.1333333,2.1333333 0 0 1 0.03223,0.34253 l 0.03292,2.51504 A 1.4933333,1.4933333 0 0 1 8.48,13.81333 l -5.12,0 z" />
    <path
       style="fill:#ffffff;fill-rule:evenodd;stroke:none"
       inkscape:connector-curvature="0"
       id="path12"
       d="m 3.893333,12.26667 a 0.50666667,0.50666667 0 0 0 -0.76,-0.43879 0.50666667,0.50666667 0 0 0 0,0.87757 0.50666667,0.50666667 0 0 0 0.76,-0.43878 z" />
    <path
       style="fill:#ffffff;fill-rule:evenodd;stroke:none"
       inkscape:connector-curvature="0"
       id="path14"
       d="m 8.96,12.26667 a 0.50666667,0.50666667 0 0 0 -0.76,-0.43879 0.50666667,0.50666667 0 0 0 0,0.87757 0.50666667,0.50666667 0 0 0 0.76,-0.43878 z" />
    <path
       style="fill:#ffffff;fill-rule:evenodd;stroke:none"
       inkscape:connector-curvature="0"
       id="path16"
       d="m 6.426667,10.34667 a 0.50666667,0.50666667 0 0 0 -0.76,-0.43879 0.50666667,0.50666667 0 0 0 0,0.87757 0.50666667,0.50666667 0 0 0 0.76,-0.43878 z" />
    <path
       style="fill:#ffffff;fill-rule:evenodd;stroke:none"
       inkscape:connector-curvature="0"
       id="path18"
       d="M 4.266667,8.5919 3.121223,8.69212 A 0.32,0.32 0 0 1 2.796634,8.25346 L 3.278701,7.06031 A 0.8,0.8 0 0 1 3.695059,6.62916 l 2e-6,0 C 4.084843,6.45563 4.96,6.24 5.92,6.24 c 0.96,0 1.835157,0.21563 2.224939,0.38916 l 2e-6,0 A 0.8,0.8 0 0 1 8.561299,7.06031 L 9.043366,8.25346 A 0.32,0.32 0 0 1 8.718777,8.69212 L 7.573333,8.5919 C 7.148288,8.5547 6.453333,8.5333 5.92,8.5333 c -0.533333,0 -1.228288,0.0214 -1.653333,0.0586 z" />
    <path
       style="fill:#ffffff;fill-rule:evenodd;stroke:none"
       inkscape:connector-curvature="0"
       id="path20"
       d="m 5.3,4.41404 1.239999,0 A 1.7067413,1.7067413 0 0 0 5.919994,5.28462 l 1.1e-5,0 A 1.7067413,1.7067413 0 0 0 5.300001,4.41404 Z" />
  </g>
</svg>
