<?xml version="1.0" encoding="UTF-8" standalone="no"?>
<!-- Created with Inkscape (http://www.inkscape.org/) -->

<svg
   xmlns:dc="http://purl.org/dc/elements/1.1/"
   xmlns:cc="http://creativecommons.org/ns#"
   xmlns:rdf="http://www.w3.org/1999/02/22-rdf-syntax-ns#"
   xmlns:svg="http://www.w3.org/2000/svg"
   xmlns="http://www.w3.org/2000/svg"
   xmlns:sodipodi="http://sodipodi.sourceforge.net/DTD/sodipodi-0.dtd"
   xmlns:inkscape="http://www.inkscape.org/namespaces/inkscape"
   width="15.9375"
   height="15.90625"
   id="svg2991"
   version="1.1"
   inkscape:version="0.48.4 r9939"
   sodipodi:docname="New document 1">
  <defs
     id="defs2993" />
  <sodipodi:namedview
     id="base"
     pagecolor="#ffffff"
     bordercolor="#666666"
     borderopacity="1.0"
     inkscape:pageopacity="0.0"
     inkscape:pageshadow="2"
     inkscape:zoom="15.839192"
     inkscape:cx="8.7345822"
     inkscape:cy="0.77463682"
     inkscape:document-units="px"
     inkscape:current-layer="layer1"
     showgrid="false"
     fit-margin-top="0"
     fit-margin-left="0"
     fit-margin-right="0"
     fit-margin-bottom="0"
     inkscape:window-width="1680"
     inkscape:window-height="988"
     inkscape:window-x="-8"
     inkscape:window-y="-8"
     inkscape:window-maximized="1" />
  <metadata
     id="metadata2996">
    <rdf:RDF>
      <cc:Work
         rdf:about="">
        <dc:format>image/svg+xml</dc:format>
        <dc:type
           rdf:resource="http://purl.org/dc/dcmitype/StillImage" />
        <dc:title></dc:title>
      </cc:Work>
    </rdf:RDF>
  </metadata>
  <g
     inkscape:label="Layer 1"
     inkscape:groupmode="layer"
     id="layer1"
     transform="translate(-520.5625,-261.5625)">
    <path
       style="fill:#636363;fill-opacity:1;stroke:#a1a1a1;stroke-width:0.61757529;stroke-linecap:butt;stroke-linejoin:miter;stroke-miterlimit:4;stroke-opacity:1;stroke-dasharray:none"
       d="m 520.93727,277.14901 0.43342,-2.75321 c 0.59954,-1.65335 0.5523,-1.69959 -0.29402,-3.35297 l 0.15463,-3.30654 c -0.77624,-1.91374 0.41183,-2.13154 1.17607,-3.52857 0.39414,-0.41334 1.66547,-0.98756 2.51754,-1.5393 1.23749,-0.94198 1.39145,-0.57462 2.8292,-0.57462 l 2.09934,0.1 1.76851,-0.33291 c 1.56613,0.0583 1.27751,0.62457 2.84366,1.26694 0.9367,0.52299 0.93856,1.72359 1.37687,2.37878 0.30036,1.40567 -0.60684,1.78242 -0.68934,2.28294 -0.12421,0.44912 0.34135,1.34055 0.47351,1.71589 l 0.35345,0.99621 c 0.31379,0.46992 0.24136,0.95749 0.13192,1.2814 -0.3595,1.30679 0.076,1.25952 0.076,2.49956 -0.47777,0.94042 -0.19272,0.37822 -0.50557,1.49328 l 0.25726,1.37325 z"
       id="path2998-7"
       inkscape:connector-curvature="0"
       sodipodi:nodetypes="ccccccccccccccccccc"
       inkscape:export-xdpi="90"
       inkscape:export-ydpi="90" />
    <path
       style="fill:#636363;fill-opacity:1;stroke:none"
       d="m 521.31863,276.70969 -0.11161,0.74777 14.48996,5.2e-4 -0.13672,-0.63728 z"
       id="path3796"
       inkscape:connector-curvature="0"
       sodipodi:nodetypes="ccccc"
       inkscape:export-xdpi="90"
       inkscape:export-ydpi="90" />
    <path
       style="fill:#757575;fill-opacity:1;stroke:none"
       d="m 527.84111,264.44981 c -1.76883,0.20851 -2.49432,0.83814 -3.24732,1.36222 -1.06232,1.07184 -0.93912,1.28632 -1.27453,2.43794 0.19654,1.52154 0.0224,3.33515 0.71142,5.2642 0.0279,1.38016 -0.32493,2.70954 -0.84349,3.9438 l 10.07172,-0.006 c -0.35262,-1.57014 0.8333,-2.95204 0.74312,-4.7397 -0.11859,-1.26013 -0.97632,-2.10065 -0.77067,-4.81984 0.21686,-0.87139 1.29168,-1.85288 0.13081,-3.1302 -1.2011,-1.03943 -4.22603,-0.14496 -5.52094,-0.31263 z"
       id="path3768-7"
       inkscape:connector-curvature="0"
       sodipodi:nodetypes="ccccccccccc"
       inkscape:export-xdpi="90"
       inkscape:export-ydpi="90" />
    <path
       style="fill:#828282;fill-opacity:1;stroke:none"
       d="m 526.68506,271.90563 c 0.42328,1.23632 1.16173,2.27527 2.48108,2.2234 1.0884,-0.65293 1.2408,-1.91124 1.48473,-3.11035 0.47943,-1.30027 0.34598,-2.67871 -0.28479,-4.12057 -0.84116,-0.25535 -1.34969,0.77276 -2.49872,1.38847 -0.84256,0.45148 -1.46729,2.96948 -1.18233,3.61905 z"
       id="path3770-7"
       inkscape:connector-curvature="0"
       sodipodi:nodetypes="ccccscc"
       inkscape:export-xdpi="90"
       inkscape:export-ydpi="90" />
  </g>
</svg>
