<?xml version="1.0" encoding="UTF-8" standalone="no"?>
<!-- Created with Inkscape (http://www.inkscape.org/) -->

<svg
   xmlns:dc="http://purl.org/dc/elements/1.1/"
   xmlns:cc="http://creativecommons.org/ns#"
   xmlns:rdf="http://www.w3.org/1999/02/22-rdf-syntax-ns#"
   xmlns:svg="http://www.w3.org/2000/svg"
   xmlns="http://www.w3.org/2000/svg"
   xmlns:sodipodi="http://sodipodi.sourceforge.net/DTD/sodipodi-0.dtd"
   xmlns:inkscape="http://www.inkscape.org/namespaces/inkscape"
   version="1.1"
   width="16"
   height="16"
   viewBox="0 0 16 16"
   id="svg2"
   inkscape:version="0.91 r13725"
   sodipodi:docname="hairdresser11.svg">
  <sodipodi:namedview
     pagecolor="#ffffff"
     bordercolor="#666666"
     borderopacity="1"
     objecttolerance="10"
     gridtolerance="10"
     guidetolerance="10"
     inkscape:pageopacity="0"
     inkscape:pageshadow="2"
     inkscape:window-width="1680"
     inkscape:window-height="988"
     id="namedview7"
     showgrid="true"
     inkscape:zoom="20.85965"
     inkscape:cx="-9.11251"
     inkscape:cy="8.2639056"
     inkscape:window-x="-8"
     inkscape:window-y="-8"
     inkscape:window-maximized="1"
     inkscape:current-layer="svg2">
    <inkscape:grid
       type="xygrid"
       id="grid4137" />
  </sodipodi:namedview>
  <metadata
     id="metadata8">
    <rdf:RDF>
      <cc:Work
         rdf:about="">
        <dc:format>image/svg+xml</dc:format>
        <dc:type
           rdf:resource="http://purl.org/dc/dcmitype/StillImage" />
        <dc:title></dc:title>
        <cc:license
           rdf:resource="http://creativecommons.org/publicdomain/zero/1.0/" />
      </cc:Work>
      <cc:License
         rdf:about="http://creativecommons.org/publicdomain/zero/1.0/">
        <cc:permits
           rdf:resource="http://creativecommons.org/ns#Reproduction" />
        <cc:permits
           rdf:resource="http://creativecommons.org/ns#Distribution" />
        <cc:permits
           rdf:resource="http://creativecommons.org/ns#DerivativeWorks" />
      </cc:License>
    </rdf:RDF>
  </metadata>
  <defs
     id="defs6" />
  <path
     d="M 5,1.0000003 5,10.53125 C 4.580263,10.212414 4.064535,10 3.5,10 2.12521,10 1,11.12521 1,12.5 1,13.87479 2.12521,15 3.5,15 4.702941,15 5.703332,14.136374 5.9375,13 l 0.125,0 C 6.296668,14.136374 7.297059,15 8.5,15 9.87479,15 11,13.87479 11,12.5 11,11.12521 9.87479,10 8.5,10 7.935465,10 7.419737,10.212414 7,10.53125 L 7,1.0000003 Z m 4,0 0,2 4,0 L 13,4 9,4 l 0,1 4,0 0,1 -4,0 0,1 4,0 0,1 -4,0 0,1 4,0 0,6 2,0 0,-11.9999997 c 0,-1 -1,-2 -2,-2 z M 3.5,11 C 4.334349,11 5,11.665651 5,12.5 5,13.334349 4.334349,14 3.5,14 2.665651,14 2,13.334349 2,12.5 2,11.665651 2.665651,11 3.5,11 Z m 5,0 C 9.334349,11 10,11.665651 10,12.5 10,13.334349 9.334349,14 8.5,14 7.665651,14 7,13.334349 7,12.5 7,11.665651 7.665651,11 8.5,11 Z"
     id="hairdresser"
     style="fill:#ac39ac;fill-opacity:1;stroke:none"
     inkscape:connector-curvature="0" />
</svg>
