<?xml version="1.0" encoding="UTF-8" standalone="no"?>
<!-- Created with Inkscape (http://www.inkscape.org/) -->

<svg
   xmlns:dc="http://purl.org/dc/elements/1.1/"
   xmlns:cc="http://creativecommons.org/ns#"
   xmlns:rdf="http://www.w3.org/1999/02/22-rdf-syntax-ns#"
   xmlns:svg="http://www.w3.org/2000/svg"
   xmlns="http://www.w3.org/2000/svg"
   xmlns:sodipodi="http://sodipodi.sourceforge.net/DTD/sodipodi-0.dtd"
   xmlns:inkscape="http://www.inkscape.org/namespaces/inkscape"
   id="svg2380"
   sodipodi:docname="kitchen4.svg"
   viewBox="0 0 16 16"
   sodipodi:version="0.32"
   version="1.0"
   inkscape:output_extension="org.inkscape.output.svg.inkscape"
   inkscape:version="0.91 r13725"
   width="16"
   height="16">
  <defs
     id="defs8" />
  <sodipodi:namedview
     id="base"
     bordercolor="#666666"
     inkscape:pageshadow="2"
     inkscape:window-y="-8"
     pagecolor="#ffffff"
     inkscape:window-height="988"
     inkscape:zoom="43.85808"
     inkscape:window-x="-8"
     showgrid="false"
     borderopacity="1.0"
     inkscape:current-layer="layer1"
     inkscape:cx="4.3702499"
     inkscape:cy="4.2052563"
     inkscape:window-width="1680"
     inkscape:pageopacity="0.0"
     inkscape:document-units="px"
     inkscape:window-maximized="1" />
  <g
     id="layer1"
     inkscape:label="Calque 1"
     inkscape:groupmode="layer"
     transform="translate(0,-146)">
    <path
       sodipodi:nodetypes="ccccccccccccccccc"
       style="fill:#ffffff"
       d="m 11.637686,147.84089 c -0.471062,-1.19032 -2.2445493,-0.70114 -3.2984803,-0.86197 -0.871987,-0.13302 -1.656705,-0.68741 -2.526724,-0.88115 -1.644784,-0.36622 -4.016301,0.32743 -4.94488504,1.56172 -0.945922,1.25768 -1.041755,3.05217 -0.653493,4.47179 0.142778,0.52206 0.474119,0.98832 0.622255,1.51069 0.27382904,0.9658 0.38401404,2.20924 0.32452404,3.20314 -0.05521,0.92077 -1.35311904,2.39658 -0.71884004,3.26254 0.372256,0.50921 1.18633804,0.77129 1.79096404,1.01444 1.639692,0.65968 3.39767,0.87891 5.182037,0.87791 0.663654,0 1.912607,-0.18236 2.446054,-0.56202 0.2782393,-0.19831 0.2127303,-0.62979 0.2527763,-0.90682 0.106134,-0.73442 0.110995,-1.64621 0.547799,-2.29693 1.088304,-1.61931 2.465613,-3.09871 3.676255,-4.65265 0.549766,-0.70662 1.311337,-1.51139 1.543975,-2.35672 0.241897,-0.88041 0.148147,-2.27002 -0.620368,-2.94057 -0.903931,-0.78833 -2.327536,-0.75923 -3.460632,-0.47025"
       id="path4138"
       inkscape:connector-curvature="0" />
    <path
       id="path3"
       d="M 11.637686,147.84089 C 11.166623,146.65057 9.3931357,147.13975 8.3392054,146.97892 7.4672186,146.8459 6.6825,146.29151 5.8124808,146.09777 c -1.6447841,-0.36622 -4.016301,0.32743 -4.94488467,1.56172 -0.94592158,1.25768 -1.04175448,3.05217 -0.65349237,4.47179 0.14277712,0.52206 0.47411819,0.98832 0.62225409,1.51069 0.27382975,0.9658 0.38401445,2.20924 0.32452395,3.20314 -0.055208,0.92077 -1.35311877,2.39658 -0.71883927,3.26254 0.37225523,0.50921 1.18633717,0.77129 1.79096397,1.01444 1.6396916,0.65968 3.3976696,0.87891 5.1820364,0.87791 0.6636544,0 1.912607,-0.18236 2.4460536,-0.56202 0.2782395,-0.19831 0.2127305,-0.62979 0.2527765,-0.90682 0.106134,-0.73442 0.110995,-1.64621 0.547799,-2.29693 1.088305,-1.61931 2.465614,-3.09871 3.676256,-4.65265 0.549766,-0.70662 1.311337,-1.51139 1.543975,-2.35672 0.241897,-0.88041 0.148147,-2.27002 -0.620368,-2.94057 -0.903931,-0.78833 -2.327535,-0.75923 -3.460632,-0.47025 M 7.6372641,147.1157 c -1.3680492,0.36631 -2.64449,2.08071 -2.6466891,3.24372 -0.016319,0.37349 0.1619783,1.13549 0.6112818,1.34884 -0.1962954,-1.338 0.1995477,-3.14486 1.6445642,-3.96617 0.9957131,-0.56591 2.960635,-0.5962 3.803686,0.24215 0.522684,0.52017 0.565901,1.02404 0.474466,1.67286 -0.149305,1.05828 -1.019382,1.81084 -1.500861,2.71596 0.878236,-0.21286 1.999991,-1.88674 2.046287,-2.64756 0.0463,-0.76481 -0.361179,-1.44194 0.749927,-1.69964 2.222212,-0.51519 2.65339,1.11266 2.566585,2.62893 -0.09491,0.56342 -0.36391,1.19986 -0.722705,1.85116 -0.803237,1.09754 -1.592585,1.93376 -2.574142,3.15027 -0.318286,0.31121 -1.152646,1.82369 -1.741764,1.21184 -0.20162,-0.20926 0.05972,-0.50223 0.188772,-0.68758 0.445137,-0.63985 0.950574,-1.2236 1.382286,-1.87372 -0.862612,0.36512 -1.224474,1.42911 -2.1365069,1.89447 -0.4777756,0.24415 -1.0740114,0.0762 -1.1683397,-0.41086 -0.096412,-0.49755 -0.02691,-1.25824 0.2541077,-1.67288 -0.6299739,0.40049 -0.4708311,1.16241 -1.009949,1.52623 -0.2825219,0.19034 -0.6950779,0.1164 -1.0005163,0.051 -0.3282392,-0.0702 -0.8352971,-0.10263 -1.0731432,-0.33123 -0.1767353,-0.1698 -0.00943,-0.5188 -0.0099,-0.72836 -9.259e-4,-0.47085 -0.1737837,-0.90201 -0.3131351,-1.35562 0,0 0.077488,1.51424 -0.2803807,1.90307 -0.3392346,0.36851 -1.6010922,0.20791 -1.7074575,-0.20882 l -0.187962,-1.33172 c -0.1847214,0.43626 -0.1155083,0.91751 -0.2996515,1.33973 -0.1111106,0.2548 -0.5276017,0.55545 -0.7257489,0.17598 -0.1791659,-0.34289 -0.08964,-0.95349 -0.1313073,-1.33096 -0.058102,-0.52675 -0.372915,-1.05928 -0.5277754,-1.57457 0,0 0.1997676,1.59858 0.2103,2.35672 0.00451,0.32974 -0.06228,0.96872 -0.3255888,0.62901 -0.2917811,-0.65241 -0.1684482,-0.97904 -0.3584473,-1.64899 -0.14253415,-0.50263 -0.40786858,-1.14403 -0.5568841,-1.64298 -0.39065793,-1.308 -0.13693224,-2.68549 0.6483651,-3.87142 1.0115579,-1.52754 3.3837114,-2.0489 5.1663421,-1.32465 0.3707159,0.15067 0.584407,0.21377 0.8165818,0.51902 m -3.9864285,2.26395 0.054745,0.0802 c 0.1981589,-0.89689 0.8913963,-2.00331 1.840385,-2.31606 -1.3056885,-0.51549 -2.2545035,1.48787 -1.8951302,2.23585 M 13.462944,148.8682 c 0.232638,0.48789 0.277082,0.90221 0.159027,1.4458 -0.04514,0.43348 -0.186805,0.96662 -0.299073,1.39432 0.736108,-0.52725 1.082171,-2.29792 0.140046,-2.84012 m -3.5796138,11.9649 c -2.6233676,-1.18882 -6.3161978,-1.91037 -9.23805944,-1.24471 0.0500114,-0.94268 0.81367684,-1.75863 0.90013474,-2.70331 0.029282,-0.31988 -0.08765,-0.62771 0.1953347,-0.8851 0.4336786,-0.39432 1.3128181,-0.30787 1.8845748,-0.30199 1.8832089,0.0192 3.8875978,0.33307 5.5465023,1.13366 0.4219888,0.20329 1.0678187,0.30883 1.3374937,0.67354 0.240045,0.32486 -0.2567,0.62259 -0.378806,0.92652 -0.2813644,0.70154 -0.3433318,1.52902 -0.3439105,2.27241 m -0.7714894,0.26068 c 0.339929,0.18535 0.6111662,0.22082 0.314987,0.37528 -2.0295045,0.3541 -3.5897405,0.33937 -5.3424524,-0.13333 -0.4543961,-0.13951 -1.7633021,-0.42052 -1.7163116,-0.97557 0.049537,-0.58595 0.9149843,-0.43527 1.3460008,-0.43527 1.8760331,0.0668 3.6865572,0.37069 5.3977762,1.16889 z"
       style="fill:#000000"
       sodipodi:nodetypes="ccccccccccccccccccccccccccccccccccccccccccccccccccccccccccccccccccccccccccccc"
       inkscape:connector-curvature="0" />
  </g>
  <metadata
     id="metadata6">
    <rdf:RDF>
      <cc:Work>
        <dc:format>image/svg+xml</dc:format>
        <dc:type
           rdf:resource="http://purl.org/dc/dcmitype/StillImage" />
        <cc:license
           rdf:resource="http://creativecommons.org/publicdomain/zero/1.0/" />
        <dc:publisher>
          <cc:Agent
             rdf:about="http://openclipart.org/">
            <dc:title>Openclipart</dc:title>
          </cc:Agent>
        </dc:publisher>
        <dc:title></dc:title>
        <dc:date>2008-05-26T12:09:59</dc:date>
        <dc:description />
        <dc:source>https://openclipart.org/detail/17057/toque-by-jean_victor_balin</dc:source>
        <dc:creator>
          <cc:Agent>
            <dc:title>jean_victor_balin</dc:title>
          </cc:Agent>
        </dc:creator>
        <dc:subject>
          <rdf:Bag>
            <rdf:li>hat</rdf:li>
            <rdf:li>kitchen</rdf:li>
            <rdf:li>outline</rdf:li>
            <rdf:li>toque</rdf:li>
          </rdf:Bag>
        </dc:subject>
      </cc:Work>
      <cc:License
         rdf:about="http://creativecommons.org/publicdomain/zero/1.0/">
        <cc:permits
           rdf:resource="http://creativecommons.org/ns#Reproduction" />
        <cc:permits
           rdf:resource="http://creativecommons.org/ns#Distribution" />
        <cc:permits
           rdf:resource="http://creativecommons.org/ns#DerivativeWorks" />
      </cc:License>
    </rdf:RDF>
  </metadata>
</svg>
