<?xml version="1.0" encoding="UTF-8" standalone="no"?>
<svg
   xmlns:dc="http://purl.org/dc/elements/1.1/"
   xmlns:cc="http://creativecommons.org/ns#"
   xmlns:rdf="http://www.w3.org/1999/02/22-rdf-syntax-ns#"
   xmlns:svg="http://www.w3.org/2000/svg"
   xmlns="http://www.w3.org/2000/svg"
   xmlns:sodipodi="http://sodipodi.sourceforge.net/DTD/sodipodi-0.dtd"
   xmlns:inkscape="http://www.inkscape.org/namespaces/inkscape"
   inkscape:version="1.0 (4035a4fb49, 2020-05-01)"
   sodipodi:docname="news.svg"
   id="svg2"
   viewBox="0 0 16 16"
   height="100%"
   width="100%"
   version="1.1">
  <sodipodi:namedview
     inkscape:current-layer="svg2"
     inkscape:window-maximized="1"
     inkscape:window-y="-8"
     inkscape:window-x="-8"
     inkscape:cy="8"
     inkscape:cx="8"
     inkscape:zoom="50.089204"
     showgrid="false"
     id="namedview8"
     inkscape:window-height="987"
     inkscape:window-width="1680"
     inkscape:pageshadow="2"
     inkscape:pageopacity="0"
     guidetolerance="10"
     gridtolerance="10"
     objecttolerance="10"
     borderopacity="1"
     bordercolor="#666666"
     pagecolor="#ffffff">
    <inkscape:grid
       id="grid833"
       type="xygrid" />
  </sodipodi:namedview>
  <metadata
     id="metadata8">
    <rdf:RDF>
      <cc:Work
         rdf:about="">
        <dc:format>image/svg+xml</dc:format>
        <dc:type
           rdf:resource="http://purl.org/dc/dcmitype/StillImage" />
        <dc:title></dc:title>
      </cc:Work>
    </rdf:RDF>
  </metadata>
  <defs
     id="defs6" />
  <rect
     style="fill:none;stroke:none;visibility:hidden"
     id="canvas"
     y="0"
     x="0"
     height="16"
     width="16" />
  <rect
     style="fill:#ffffff;stroke:none"
     id="shield"
     ry="2"
     rx="2"
     height="13"
     width="12"
     y="2"
     x="2" />
  <path
     transform="translate(1,1)"
     style="fill:#ac39ac;fill-opacity:1"
     id="news"
     d="m 1,1 0,13 12,0 0,-13 z m 1,1 10,0 0,11 -10,0 z m 1,1 0,2 8,0 0,-2 z M 3,6 3,6.5 6,6.5 6,6 z m 5,4 0,0.5 3,0 0,-0.5 z M 3,7 3,7.5 6,7.5 6,7 z m 5,4 0,0.5 3,0 0,-0.5 z M 3,8 3,8.5 6,8.5 6,8 z M 3,9 3,9.5 6,9.5 6,9 z m 5,-3 0,3 3,0 0,-3 z m -5,4 0,0.5 3,0 0,-0.5 z m 0,1 0,0.5 3,0 0,-0.5 z" />
</svg>
