<?xml version="1.0" encoding="UTF-8" standalone="no"?>
<!-- Generator: Adobe Illustrator 12.0.0, SVG Export Plug-In . SVG Version: 6.00 Build 51448)  -->

<svg
   xmlns:dc="http://purl.org/dc/elements/1.1/"
   xmlns:cc="http://creativecommons.org/ns#"
   xmlns:rdf="http://www.w3.org/1999/02/22-rdf-syntax-ns#"
   xmlns:svg="http://www.w3.org/2000/svg"
   xmlns="http://www.w3.org/2000/svg"
   xmlns:sodipodi="http://sodipodi.sourceforge.net/DTD/sodipodi-0.dtd"
   xmlns:inkscape="http://www.inkscape.org/namespaces/inkscape"
   height="160"
   id="Layer_1"
   inkscape:version="0.92.2 (5c3e80d, 2017-08-06)"
   sodipodi:docname="14.svg"
   sodipodi:version="0.32"
   style="overflow:visible"
   version="1.0"
   viewBox="0 0 160 160"
   width="160"
   xml:space="preserve"
   inkscape:output_extension="org.inkscape.output.svg.inkscape"><metadata
     id="metadata3016"><rdf:RDF><cc:Work
         rdf:about=""><dc:title></dc:title><dc:description /><dc:subject><rdf:Bag><rdf:li>clothing</rdf:li></rdf:Bag></dc:subject><dc:publisher><cc:Agent
             rdf:about="http://www.openclipart.org"><dc:title>Architetto Francesco Rollandin</dc:title></cc:Agent></dc:publisher><dc:creator><cc:Agent><dc:title>Architetto Francesco Rollandin</dc:title></cc:Agent></dc:creator><dc:rights><cc:Agent><dc:title>Architetto Francesco Rollandin</dc:title></cc:Agent></dc:rights><dc:date /><dc:format>image/svg+xml</dc:format><dc:type
           rdf:resource="http://purl.org/dc/dcmitype/StillImage" /><cc:license
           rdf:resource="http://web.resource.org/cc/PublicDomain" /><dc:language>en</dc:language></cc:Work><cc:License
         rdf:about="http://web.resource.org/cc/PublicDomain"><cc:permits
           rdf:resource="http://web.resource.org/cc/Reproduction" /><cc:permits
           rdf:resource="http://web.resource.org/cc/Distribution" /><cc:permits
           rdf:resource="http://web.resource.org/cc/DerivativeWorks" /></cc:License></rdf:RDF></metadata><defs
     id="defs205" /><sodipodi:namedview
     bordercolor="#666666"
     borderopacity="1.0"
     id="base"
     inkscape:current-layer="Layer_1"
     inkscape:cx="89.270961"
     inkscape:cy="84.7385"
     inkscape:pageopacity="0.0"
     inkscape:pageshadow="2"
     inkscape:window-height="987"
     inkscape:window-width="1680"
     inkscape:window-x="-8"
     inkscape:window-y="-8"
     inkscape:zoom="2.7270638"
     pagecolor="#ffffff"
     height="220px"
     width="220px"
     showgrid="true"
     inkscape:window-maximized="1"><inkscape:grid
       type="xygrid"
       id="grid938" /></sodipodi:namedview><g
     id="XMLID_1_"
     transform="matrix(0.65082175,0,0,0.60298643,24.753818,-0.15002165)"><g
       id="g4"><path
         d="m 213.122,217.444 c -6.4,0.89 -13.2,3.399 -19.97,4.75 -5.4,1.069 -10.79,1.409 -15.94,-0.391 6.28,-0.12 12.49,-0.74 18.65,-2.02 1.689,-0.351 5.239,-1.521 8.699,-2.36 3.791,-0.9 7.471,-1.4 8.561,0.021 z"
         id="path6"
         style="fill:#047391"
         inkscape:connector-curvature="0" /><path
         d="m 195.342,209.983 c 0.22,2.461 -0.79,2.11 -2.41,2.641 0.67,-0.951 1.62,-1.771 2.41,-2.641 z"
         id="path8"
         inkscape:connector-curvature="0" /><path
         d="m 191.432,147.793 c 1.641,4.7 3.82,9.88 4.94,14.47 -9.15,1.48 -18.101,3.99 -27.07,6.3 -0.189,0.051 -0.38,0.101 -0.57,0.15 -4.97,1.35 -7.029,2.72 -9.189,-2.32 -1.36,-3.18 -2.93,-6.52 -3.61,-9.93 -0.84,-4.21 6.17,-4.5 9.92,-5.45 3.29,-0.83 6.63,-1.58 9.96,-2.3 1.431,-0.31 2.851,-0.61 4.271,-0.91 3.308,-0.689 10.088,-3.59 11.348,-0.01 z m -16.4,9.19 c 2.59,-1.109 9.449,6.4 9.29,-1.489 -0.85,-5.651 -8.43,-3.071 -9.29,1.489 z"
         id="path10"
         style="fill:#023f4f"
         inkscape:connector-curvature="0" /><path
         d="m 182.032,143.603 c 2.489,-0.569 4.96,-1.029 7.34,-1.3 -4.66,1.101 -9.29,3.21 -14.04,4.2 -1.92,0.39 -3.851,0.61 -5.811,0.5 4.101,-1.179 8.341,-2.44 12.511,-3.4 z"
         id="path12"
         style="fill:#047391"
         inkscape:connector-curvature="0" /><path
         d="m 179.742,156.063 c 0.81,-2.989 2.149,-2.109 1.83,0.23 -0.61,-0.07 -1.22,-0.15 -1.83,-0.23 z"
         id="path14"
         style="fill:#8c8c8c"
         inkscape:connector-curvature="0" /><path
         d="m 181.572,156.293 c 0.319,-2.34 -1.021,-3.22 -1.83,-0.23 0.61,0.08 1.22,0.16 1.83,0.23 z m 2.75,-0.799 c 0.159,7.89 -6.7,0.38 -9.29,1.489 0.86,-4.56 8.44,-7.14 9.29,-1.489 z"
         id="path16"
         inkscape:connector-curvature="0" /><path
         d="m 171.252,206.543 c 0.6,1.39 5.46,10.63 2.29,10.04 -1.75,-0.33 -3.5,-4.68 -4.95,-9.38 -1.45,-4.71 -2.6,-9.78 -3.11,-11.57 -2.14,-7.38 -4.5,-14.86 -7.31,-22.02 5.08,2.08 3.72,10.17 7,14 l 0.61,-0.12 c 1.26,6.52 2.82,12.93 5.47,19.05 z"
         id="path18"
         style="fill:#047391"
         inkscape:connector-curvature="0" /><path
         d="m 165.172,187.614 c 3.28,-8.761 -8.11,-13.761 4.09,-16.91 0.46,-0.12 0.96,-0.24 1.5,-0.351 8.641,-1.85 17.05,-3.729 25.84,-4.88 5.721,15.01 12.12,29.931 15.431,45.71 0.79,3.8 -3.23,3.471 -6.601,4.311 -0.42,0.1 -0.84,0.21 -1.26,0.31 -2.86,0.7 -5.74,1.38 -8.6,2.101 -2.33,0.579 -4.75,-1.271 -7.801,-0.181 -2.899,1.04 -6.01,1.95 -8.38,-0.63 0.94,-0.53 2.311,-0.86 1.261,-2.06 -0.311,-0.36 -1.721,0.199 -1.721,0.33 -0.399,-0.631 -2.83,-2.851 -3.63,-4.32 -4.08,-7.54 -4.38,-16.771 -9.56,-23.771 0.01,0.07 0.029,0.15 0.04,0.221 z m 27.76,25.01 c 1.62,-0.53 2.63,-0.18 2.41,-2.641 -0.79,0.87 -1.74,1.69 -2.41,2.641 z"
         id="path20"
         style="fill:#047391"
         inkscape:connector-curvature="0" /><path
         d="m 165.402,85.053 c 0.68,0.88 0.159,1.34 0.109,2.41 -0.039,-0.799 -0.079,-1.609 -0.109,-2.41 z"
         id="path22"
         style="fill:#ffffff"
         inkscape:connector-curvature="0" /><path
         d="m 165.402,109.723 c 0,0.15 0.63,1.15 0.109,2.18 -0.699,-0.56 -0.229,-1.15 -0.109,-2.18 z"
         id="path24"
         style="fill:#ffffff"
         inkscape:connector-curvature="0" /><path
         d="m 153.922,149.983 c 3.83,-0.8 7.65,-1.6 11.48,-2.409 -3.39,2.399 -7.44,2.819 -11.48,2.409 z"
         id="path26"
         style="fill:#047391"
         inkscape:connector-curvature="0" /><path
         d="m 183.412,227.423 c -4.9,1.63 -22.16,1.18 -24.23,6.18 l -0.439,-0.08 c 0.37,-0.949 0.609,-2.22 -0.92,-1.46 -0.92,0.46 -1.29,-1.58 -1.141,-2.229 0.48,-2.101 8.7,-4.54 11.42,-5.7 7.75,-3.321 8.8,4.23 15.31,3.289 z"
         id="path28"
         style="fill:#047391"
         inkscape:connector-curvature="0" /><path
         d="m 159.092,233.843 c 5.76,-0.41 11.561,-0.88 17.26,-1.87 4.03,-0.689 13.38,-1.22 15.771,-4.21 -2.04,-0.47 -4.19,-0.28 -6.311,-0.46 1.521,-1.479 4.431,-2.54 7.721,-3.35 4.81,-1.2 10.439,-1.86 13.739,-2.5 2.4,-0.46 6.631,-2.141 5.5,1.779 -0.47,1.65 -1.529,3.23 -2.75,3.961 -4.899,-0.37 -10.29,-1.921 -15.029,0.109 -2.95,1.271 -1.88,2.13 -6.08,3.33 -9.681,2.771 -22.79,1.71 -31.2,8.03 -0.44,-1.771 0.62,-3.72 0.57,-4.23 0.04,0 0.26,-0.42 0.46,-0.91 l 0.439,0.08 c -0.04,0.081 -0.07,0.161 -0.09,0.241 z"
         id="path30"
         style="fill:#047391"
         inkscape:connector-curvature="0" /><path
         d="m 152.092,154.694 c 2.73,5.039 4.51,10.529 6.65,15.829 -3.87,-0.199 -5.94,-12.18 -6.65,-15.829 z"
         id="path32"
         style="fill:#047391"
         inkscape:connector-curvature="0" /><path
         d="m 153.922,149.983 c 4.04,0.41 8.09,-0.01 11.48,-2.409 -3.83,0.809 -7.65,1.609 -11.48,2.409 z m 4.82,20.54 c -2.141,-5.3 -3.92,-10.79 -6.65,-15.829 0.71,3.649 2.78,15.63 6.65,15.829 z m 8.1,37.24 c -5.1,-16.109 -11.61,-31.91 -16.82,-48.02 -0.949,-2.95 -4.38,-9.99 -2.29,-12.4 0.591,-0.68 8.65,-1.149 9.94,-1.479 7.87,-1.96 15.91,-2.95 23.79,-4.74 l 0.57,2.479 c -4.17,0.96 -8.41,2.221 -12.511,3.4 1.96,0.11 3.891,-0.11 5.811,-0.5 l 0.479,2.21 c -3.33,0.72 -6.67,1.47 -9.96,2.3 -3.75,0.95 -10.76,1.24 -9.92,5.45 0.681,3.41 2.25,6.75 3.61,9.93 2.16,5.04 4.22,3.67 9.189,2.32 l 0.53,1.99 c -12.2,3.149 -0.81,8.149 -4.09,16.91 -3.28,-3.83 -1.92,-11.92 -7,-14 2.81,7.159 5.17,14.64 7.31,22.02 0.511,1.79 1.66,6.86 3.11,11.57 z"
         id="path34"
         inkscape:connector-curvature="0" /><path
         d="m 136.942,42.033 c 3.26,0.67 19.569,-0.58 19.39,2.18 -1.59,0.12 -3.19,0.22 -4.79,0.28 -4.99,0.2 -10,0.08 -14.94,-0.62 0.11,-0.62 0.23,-1.229 0.34,-1.84 z"
         id="path36"
         style="fill:#047391"
         inkscape:connector-curvature="0" /><path
         d="m 155.872,35.383 c 1.79,6.65 -6.04,4.41 -9.63,4.01 -3.03,-0.34 -6.44,0.55 -9.49,0.81 -0.01,0 -0.021,0 -0.03,0 -0.779,-3.81 2.2,-9.25 -1.84,-11.82 2.85,-0.65 5.91,-0.33 8.85,0.23 1.07,0.21 2.12,0.45 3.141,0.69 5.739,1.35 6.469,0.841 8.999,6.08 z"
         id="path38"
         style="fill:#047391"
         inkscape:connector-curvature="0" /><path
         d="m 153.122,236.023 c 0.33,2.62 -0.561,5.82 -1.03,7.921 -0.29,-2.7 0.38,-5.311 1.03,-7.921 z"
         id="path40"
         style="fill:#047391"
         inkscape:connector-curvature="0" /><path
         d="m 153.122,231.433 c -0.5,1.21 0.12,2.25 -1.61,1.61 0.01,-0.99 0.34,-2.13 0.58,-3.1 1.13,0.181 0.83,0.751 1.03,1.49 z"
         id="path42"
         style="fill:#047391"
         inkscape:connector-curvature="0" /><path
         d="m 150.481,232.813 c -0.89,1.71 -2.47,2.45 -4.359,1.841 0.66,-2.2 2.44,-3.46 4.359,-1.841 z"
         id="path44"
         style="fill:#047391"
         inkscape:connector-curvature="0" /><path
         d="m 149.912,235.914 c 1.229,6.95 -3.28,9.64 -8.82,10.83 -2.229,0.47 -4.63,0.7 -6.899,0.87 0.029,-0.66 0.1,-1.28 0.199,-1.86 1.35,-7.831 8.69,-7.93 15.52,-9.84 z"
         id="path46"
         style="fill:#047391"
         inkscape:connector-curvature="0" /><path
         d="m 165.512,111.903 c 0.521,-1.03 -0.109,-2.03 -0.109,-2.18 -0.121,1.03 -0.591,1.62 0.109,2.18 z m 0,-24.44 c 0.05,-1.07 0.57,-1.53 -0.109,-2.41 0.029,0.801 0.069,1.611 0.109,2.41 z m -9.18,-43.25 c 0.18,-2.76 -16.13,-1.51 -19.39,-2.18 l -0.19,-1.83 c 3.05,-0.26 6.46,-1.15 9.49,-0.81 3.59,0.4 11.42,2.64 9.63,-4.01 -2.53,-5.24 -3.26,-4.73 -9,-6.08 -1.021,-0.24 -2.07,-0.48 -3.141,-0.69 l 0.57,-2.79 c 1.47,0.3 2.95,0.6 4.42,0.9 5.931,1.2 7.62,0.37 9.91,5.33 3.53,7.67 5.09,17.39 7.13,25.57 4.71,18.8 12.141,37.36 18.05,55.86 6.261,19.63 13.141,39.02 20.03,58.44 3.74,10.521 7.54,21.021 11.101,31.61 3.09,9.16 5.02,14.14 -0.561,22.51 -1.11,1.66 -2.05,2.6 -3.09,3.2 l -1.271,-2.05 c 1.221,-0.73 2.28,-2.311 2.75,-3.961 1.131,-3.92 -3.1,-2.239 -5.5,-1.779 -3.3,0.64 -8.93,1.3 -13.739,2.5 l -0.38,-1.76 c 6.77,-1.351 13.569,-3.86 19.97,-4.75 -1.09,-1.421 -4.771,-0.921 -8.561,-0.021 l -0.39,-1.62 c 0.42,-0.1 0.84,-0.21 1.26,-0.31 3.37,-0.84 7.391,-0.511 6.601,-4.311 -3.311,-15.779 -9.71,-30.7 -15.431,-45.71 -8.79,1.15 -17.199,3.03 -25.84,4.88 -0.54,0.11 -1.04,0.23 -1.5,0.351 l -0.53,-1.99 c 0.19,-0.05 0.381,-0.1 0.57,-0.15 8.97,-2.31 17.92,-4.819 27.07,-6.3 -1.12,-4.59 -3.3,-9.77 -4.94,-14.47 -1.26,-3.58 -8.04,-0.68 -11.35,0.01 -1.42,0.3 -2.84,0.601 -4.271,0.91 l -0.479,-2.21 c 4.75,-0.99 9.38,-3.1 14.04,-4.2 -2.38,0.271 -4.851,0.73 -7.34,1.3 l -0.57,-2.479 v -0.01 c 2.16,-0.48 4.3,-1.03 6.42,-1.681 -6.14,-18.05 -13.939,-35.52 -19.39,-53.81 -0.601,7.59 -1.9,15.56 -1.061,23.18 0.721,6.37 1.8,13.82 -1,19.84 -1.46,-1.39 -1.729,-3.44 -1.609,-5.39 -0.511,3.04 1.63,5.88 0.229,8.84 -5.42,-24.8 -3.729,-50.19 -6.77,-75.26 -0.311,-2.59 -0.71,-8.18 -3.21,-9.41 -0.75,-0.36 -2.08,-0.4 -3.45,-0.34 l -0.08,-2.59 c 1.603,-0.058 3.203,-0.159 4.793,-0.279 z"
         id="path48"
         inkscape:connector-curvature="0" /><path
         d="m 147.842,73.693 c 0.4,3.12 0.811,6.23 0.811,9.38 0,2.45 0.739,4.78 0.8,6.11 0.109,2.55 0.26,4.95 -1.95,6.66 -4.29,-13.62 -0.94,-28.12 -4.59,-41.76 l 1.67,-0.78 c 2.409,5.17 2.969,18.111 3.259,20.39 z"
         id="path50"
         inkscape:connector-curvature="0" /><path
         d="m 137.172,235.454 c 0.91,-0.471 0.76,-1.28 2.07,-0.69 -0.53,0.209 -1.58,0.44 -2.07,0.69 z"
         id="path52"
         style="fill:#ffffff"
         inkscape:connector-curvature="0" /><path
         d="m 136.492,58.783 c 0.46,1.31 0.359,2.78 -0.23,4.13 -0.84,-1.51 -0.87,-2.99 0.23,-4.13 z"
         id="path54"
         inkscape:connector-curvature="0" /><path
         d="m 136.262,62.914 c 0.59,-1.35 0.69,-2.82 0.23,-4.13 -1.1,1.139 -1.07,2.619 -0.23,4.13 z m 1.37,-10.321 c 1.01,-1.47 1.36,-3.26 1.49,-5.05 -0.19,2.33 -0.38,4.66 -0.57,7 -0.17,-0.39 -0.31,-0.98 -0.46,-1.38 -1.77,2.02 0.75,4.61 0.521,7.17 -0.37,4.07 -2.28,8.94 1.779,11.87 1.98,-3.04 1.021,-6.8 1.03,-10.21 0.34,1.82 0.44,3.64 1.26,5.28 0.971,-4.35 0.971,-8.81 0.23,-13.19 3.649,13.64 0.3,28.14 4.59,41.76 2.21,-1.71 2.06,-4.11 1.95,-6.66 -0.061,-1.33 -0.8,-3.66 -0.8,-6.11 0,-3.15 -0.41,-6.26 -0.811,-9.38 -0.29,-2.28 -0.85,-15.22 -3.26,-20.39 -0.91,-1.95 -2.09,-2.79 -3.62,-1.52 -0.65,-5.07 3.08,-4.47 6.83,-4.47 0.89,0 2.38,-0.17 3.83,-0.23 1.37,-0.06 2.7,-0.02 3.45,0.34 2.5,1.23 2.899,6.82 3.21,9.41 3.04,25.07 1.35,50.46 6.77,75.26 1.4,-2.96 -0.74,-5.8 -0.229,-8.84 -0.12,1.95 0.149,4 1.609,5.39 2.8,-6.02 1.721,-13.47 1,-19.84 -0.84,-7.62 0.46,-15.59 1.061,-23.18 5.45,18.29 13.25,35.76 19.39,53.81 -2.12,0.65 -4.26,1.2 -6.42,1.681 v 0.01 c -7.88,1.79 -15.92,2.78 -23.79,4.74 -1.29,0.33 -9.35,0.8 -9.94,1.479 -2.09,2.41 1.341,9.45 2.29,12.4 5.21,16.109 11.721,31.91 16.82,48.02 0.37,1.16 0.73,2.32 1.08,3.48 0.98,3.239 2.12,6.93 0.23,9.069 -1.271,1.431 -5.94,2.721 -7.801,3.091 -4.649,0.93 -4.77,1.399 -6.43,-3.9 -1.12,-3.61 -2.37,-7.17 -3.61,-10.73 -0.449,-1.29 -0.899,-2.59 -1.34,-3.88 -6.7,-19.64 -13.09,-39.55 -19.01,-59.449 -3.46,-11.621 -6.66,-23.311 -9.99,-34.971 -1.569,-5.51 -3.08,-11.03 -4.72,-16.52 -1.33,-4.47 -5.13,-10.58 -3.43,-15.09 5.26,2.19 9.779,4.95 14.68,7.8 6.96,4.04 7.75,1.67 7.06,-6.16 -0.96,-10.84 1.7,-22.02 2.24,-32.85 1.861,1.37 0.291,3.13 1.831,4.94 z"
         id="path56"
         style="fill:#047391"
         inkscape:connector-curvature="0" /><path
         d="m 133.622,240.614 c -0.28,1.54 -0.36,3.31 -0.811,4.84 -0.34,1.18 -0.899,2.21 -1.949,2.85 -0.17,-0.34 -0.45,-1.46 -0.301,-2.25 0.101,-0.49 0.351,-0.85 0.881,-0.85 1.88,0 1.43,-3.271 2.18,-4.59 z"
         id="path58"
         style="fill:#047391"
         inkscape:connector-curvature="0" /><path
         d="m 129.432,173.733 c 0.011,-0.069 0,-0.159 -0.04,-0.25 l 2.771,-0.899 c 5.03,15.61 9.93,31.25 14.54,46.92 1.95,6.64 3.34,8.7 -3.391,6.77 -3.43,-0.979 -5.77,8.07 -7.08,2.921 -1.81,-7.091 -4.05,-14.04 -6.38,-20.971 -3.409,-10.17 -6.989,-20.279 -9.649,-30.7 4.859,1.939 8.099,3.019 9.229,-3.791 z"
         id="path60"
         style="fill:#047391"
         inkscape:connector-curvature="0" /><path
         d="m 128.892,162.543 c 1.101,3.34 2.181,6.689 3.271,10.04 l -2.771,0.899 c -0.479,-1.21 -4.699,-4.18 -6.439,-3.649 -1.88,0.57 -2.4,3.729 -4.021,4.82 -6.72,-17.78 -12.97,-35.78 -18.68,-53.92 l 1.82,-0.57 c 0.31,0.88 5.98,3.43 7,2.58 2.06,-1.72 3.63,-3.99 4.59,-6.48 5.06,15.401 10.2,30.82 15.23,46.28 z"
         id="path62"
         style="fill:#047391"
         inkscape:connector-curvature="0" /><path
         d="m 129.262,244.404 c -0.09,0.449 -0.18,0.899 -0.28,1.359 -0.319,1.351 -0.76,2.681 -1.56,3.8 -0.24,-1.21 -0.14,-2.42 0.35,-3.439 0.33,-0.67 0.82,-1.26 1.49,-1.72 z"
         id="path64"
         style="fill:#047391"
         inkscape:connector-curvature="0" /><path
         d="m 123.642,173.614 c 2.021,-1.33 2.73,1.31 2.641,2.3 -1.981,1.879 -4.841,-0.84 -2.641,-2.3 z"
         id="path66"
         style="fill:#8c8c8c"
         inkscape:connector-curvature="0" /><path
         d="m 127.312,76.684 c 0.42,-1.92 0.58,-3.88 0.58,-5.86 h 1.25 c 0,3.6 0,7.19 0,10.79 -8.16,-9.72 -18.489,-18.77 -29.02,-25.81 5.03,-4.691 22.94,17.38 27.19,20.88 z"
         id="path68"
         inkscape:connector-curvature="0" /><path
         d="m 115.082,3.684 c 0.63,0.12 1.27,0.26 1.899,0.38 -0.289,-0.021 -1.319,-0.251 -1.899,-0.38 z"
         id="path70"
         style="fill:#ffffff"
         inkscape:connector-curvature="0" /><path
         d="m 114.832,3.633 c 0.08,0.01 0.17,0.03 0.25,0.05 -0.101,-0.019 -0.18,-0.039 -0.25,-0.05 z"
         id="path72"
         style="fill:#ffffff"
         inkscape:connector-curvature="0" /><path
         d="m 110.332,92.164 c 7.54,24.23 14.91,48.51 22.83,72.62 3.97,12.09 8.1,24.12 12.27,36.14 0.891,2.55 2.021,5.44 3.08,8.47 1.87,5.311 3.53,11.021 3.351,15.96 -2.65,-2.18 -3.471,-9.359 -4.591,-12.62 -2.199,-6.43 -4.85,-12.72 -7,-19.159 -3.479,-10.45 -7.14,-20.83 -10.54,-31.301 -1.14,-3.489 -2.239,-6.989 -3.3,-10.51 -4,-13.25 -6.729,-27.07 -11.399,-40.09 -4.42,-12.37 -9.391,-24.35 -11.47,-37.4 3.319,5.37 4.999,12.43 6.769,17.89 z"
         id="path74"
         style="fill:#047391"
         inkscape:connector-curvature="0" /><path
         d="m 106.662,117.293 c 0.24,-3.23 3.399,-0.39 3.33,1.37 -1.37,1.59 -3.52,1.18 -3.33,-1.37 z"
         id="path76"
         style="fill:#8c8c8c"
         inkscape:connector-curvature="0" /><path
         d="m 104.942,237.173 c 0.529,-1.76 1.069,-3.52 1.6,-5.28 -0.35,1.91 -0.45,4.231 -1.6,5.28 z"
         id="path78"
         style="fill:#047391"
         inkscape:connector-curvature="0" /><path
         d="m 106.542,3.263 c -0.89,0.15 -1.78,0.29 -2.67,0.43 0.89,-0.21 1.79,-0.37 2.67,-0.43 z"
         id="path80"
         style="fill:#ffffff"
         inkscape:connector-curvature="0" /><path
         d="m 100.252,120.733 c -1.49,-4.74 -2.95,-9.48 -4.36,-14.24 -1.76,-5.91 -3.52,-11.83 -5.18,-17.77 -1.03,-3.7 -3.73,-8.58 -1.95,-12.39 1.66,-3.54 8.21,-4.9 11.82,-3.21 2.86,14.26 8.7,27.72 12.04,41.87 -1.93,-1.3 -4.86,-3.44 -6.99,-1.66 -1.76,1.46 -4.38,4.48 -3.56,6.83 z"
         id="path82"
         style="fill:#047391"
         inkscape:connector-curvature="0" /><path
         d="m 100.122,55.803 c 10.53,7.04 20.859,16.09 29.02,25.81 0,-3.6 0,-7.19 0,-10.79 0.011,-14.73 0.141,-29.44 1.04,-44.16 2.84,12.99 -0.2,27.97 0.261,41.24 0.109,3.36 0.14,6.74 0.369,10.1 0.28,4.01 1.591,7.71 -2.899,4.22 -6.03,-4.69 -11.19,-10.36 -16.78,-15.52 -2.49,-2.31 -5.46,-5.78 -8.49,-7.35 -1.06,-0.55 -2.48,1.77 -3.67,0.35 -2.64,-3.17 4.08,-11.09 5.51,-13.77 3.45,-6.48 5.7,-13.64 8.591,-20.39 1.399,-3.27 3,-6.44 4.729,-9.55 2.5,-4.49 1.78,-5.63 0.33,-10.67 3.14,6.86 9.5,13.81 9.521,21.68 -0.641,8.74 -1.15,17.33 -1.15,26.04 0,5.78 1.39,11.88 1.39,17.78 0,1.98 -0.16,3.94 -0.58,5.86 -4.252,-3.499 -22.162,-25.57 -27.192,-20.88 z"
         id="path84"
         style="fill:#047391"
         inkscape:connector-curvature="0" /><path
         d="m 52.742,13.813 c 16.83,-4.53 33.91,-7.29 51.09,-10.11 -2.68,0.65 -5.34,1.84 -7.5,2.88 2.33,0.08 9.04,2.86 8.6,5.59 -1.43,8.78 -6.87,11.57 -14.61,12.78 -0.8,0.12 -1.63,0.23 -2.48,0.33 -3.65,0.42 -7.31,0.56 -10.95,1.15 -1.86,0.3 -3.44,0.8 -5.22,1.41 -1.43,0.49 -0.71,-1.37 -1.72,-1.64 -6.28,-1.69 -11.67,-7.69 -17.21,-12.39 z"
         id="path86"
         style="fill:#023f4f"
         inkscape:connector-curvature="0" /><path
         d="m 98.512,64.523 c 1.53,0.61 3.12,1.98 3.56,2.98 -1.11,0.83 -2.78,1.46 -4.02,1.95 0.16,-1.64 0.31,-3.289 0.46,-4.93 z"
         id="path88"
         style="fill:#047391"
         inkscape:connector-curvature="0" /><path
         d="m 96.562,240.733 c 0.92,-1.039 2.53,-1.63 4.13,-1.609 -1.35,0.57 -2.75,1.12 -4.13,1.609 z"
         id="path90"
         style="fill:#047391"
         inkscape:connector-curvature="0" /><path
         d="m 90.372,31.763 c 7.36,-0.36 7.91,5.6 9.75,11.76 -2.37,1.12 -7.87,3.13 -12.73,4.07 -3.12,0.6 -5.98,0.76 -7.58,-0.05 -3.43,-1.73 -4.27,-9.49 -5.96,-12.62 3.8,-0.82 7.49,-1.87 11.28,-2.54 1.72,-0.3 3.46,-0.529 5.24,-0.62 z"
         id="path92"
         style="fill:#022d38"
         inkscape:connector-curvature="0" /><path
         d="m 98.402,47.193 c -0.62,4.14 -4.21,6.87 -4.7,11.13 -3.49,-1.04 -6.45,-3.29 -9.24,-5.63 -0.87,-0.72 -1.73,-1.46 -2.58,-2.17 1.91,-0.69 3.84,-1.16 5.78,-1.53 3.55,-0.68 7.15,-1.039 10.74,-1.8 z"
         id="path94"
         style="fill:#023f4f"
         inkscape:connector-curvature="0" /><path
         d="m 94.612,63.833 c 0.2,0.24 1.37,2.05 1.38,2.06 -1.71,3.07 -5.69,0.39 -1.38,-2.06 z"
         id="path96"
         style="fill:#8c8c8c"
         inkscape:connector-curvature="0" /><path
         d="m 90.662,27.083 c 2.66,-0.42 5.35,-0.74 8.08,-0.94 4.78,-0.35 6.581,-0.45 5.85,4.65 -0.36,2.57 -2.16,5.75 -2.75,7.91 -1.35,-2.87 -2.7,-5.75 -4.05,-8.63 -1.64,-3.5 -3.22,-1.76 -6.73,-1.12 -2,0.37 -4.14,0.83 -6.31,1.21 -3.41,0.6 -6.9,0.97 -10.1,0.4 5.35,-1.41 10.63,-2.64 16.01,-3.48 z"
         id="path98"
         style="fill:#023f4f"
         inkscape:connector-curvature="0" /><path
         d="m 82.452,244.513 c 3.02,-2.84 7.63,-2.03 11.36,-2.979 -3.73,1.299 -7.38,2.699 -11.36,2.979 z"
         id="path100"
         style="fill:#047391"
         inkscape:connector-curvature="0" /><path
         d="m 104.702,147.253 c -4.33,-13.76 -8.58,-27.54 -12.95,-41.29 -1.78,-5.63 -3.23,-11.46 -5.17,-17.01 -0.77,-2.23 -2.36,-4.41 -1.72,-6.77 11.49,32.93 21.01,67.299 33.5,99.47 1.26,3.31 6.1,15.6 9.96,27.079 3.62,10.79 6.38,20.881 4.489,22.131 -2.659,-7.32 -5.26,-14.65 -7.81,-22 -7.099,-20.419 -13.809,-40.97 -20.299,-61.61 z"
         id="path102"
         style="fill:#047391"
         inkscape:connector-curvature="0" /><path
         d="m 107.002,229.253 c -3.1,-10.1 -7.37,-19.91 -10.77,-29.95 -1.79,-5.26 -3.34,-10.59 -4.37,-16.05 4.99,15.371 11.3,30.661 15.14,46 z"
         id="path104"
         style="fill:#047391"
         inkscape:connector-curvature="0" /><path
         d="m 86.012,166.733 c 1.49,4.521 2.98,9.03 4.47,13.54 -3.23,-3.72 -3.39,-8.949 -4.47,-13.54 z"
         id="path106"
         style="fill:#047391"
         inkscape:connector-curvature="0" /><path
         d="m 51.712,172.704 c 7.03,-2.05 14.01,-2.601 21.22,-3.9 2.22,-0.399 8.32,-2.689 10.33,-1.27 1.44,1.029 4.32,12.239 4.24,14.12 -7.73,2.399 -15.9,2.529 -23.66,4.79 -4.42,1.289 -8.37,2.149 -10.99,-2.61 -1.05,1.12 0.14,8.43 -3.09,2.52 -4.49,9.591 -8.07,-6.13 -8.95,-10.67 3.65,-0.681 7.34,-1.951 10.9,-2.98 z m 9.75,6.189 c -0.19,-8.08 -14.02,-3.42 -9.91,1.891 -0.3,-0.681 5.13,0.63 4.98,0.64 1.96,-0.111 3.9,-0.861 4.93,-2.531 z"
         id="path108"
         style="fill:#023f4f"
         inkscape:connector-curvature="0" /><path
         d="m 72.592,31.593 c -2.27,-0.32 -4.65,0.29 -6.66,1.38 0.69,1.21 1.59,2.63 2.53,3.67 1.24,-0.8 0.43,-0.54 2.06,-0.92 0.44,-1.11 0.17,-1.87 -0.34,-2.75 0.83,-0.39 1.61,-0.92 2.41,-1.38 z m -19.85,-17.78 c 5.54,4.7 10.93,10.7 17.21,12.39 1.01,0.27 0.29,2.13 1.72,1.64 1.78,-0.61 3.36,-1.11 5.22,-1.41 3.64,-0.59 7.3,-0.73 10.95,-1.15 0.85,-0.1 1.68,-0.21 2.48,-0.33 l 0.34,2.13 c -5.38,0.84 -10.66,2.07 -16.01,3.48 3.2,0.57 6.69,0.2 10.1,-0.4 l 0.38,2.22 c -3.79,0.67 -7.48,1.72 -11.28,2.54 1.69,3.13 2.53,10.89 5.96,12.62 1.6,0.81 4.46,0.65 7.58,0.05 l 0.27,1.4 c -1.94,0.37 -3.87,0.84 -5.78,1.53 0.85,0.71 1.71,1.45 2.58,2.17 l -1.2,1.43 c -4.76,-3.97 -12.83,-8.9 -14.92,-10.6 -6.21,-5.04 -12.4,-10.14 -18.24,-15.6 -4.18,-2.08 -9.3,-5.87 -8.83,-11.13 -1.32,1.9 0.16,7.14 -1.15,7.92 -1.29,0.78 -2.48,4.65 -3.05,8.17 l -2.95,-0.42 c 0.26,-1.97 0.41,-4.2 0.77,-6.77 0.35,-2.49 0.06,-9.92 2.13,-11.99 3.11,-3.11 12.01,-3.87 16.29,-4.94 6.29,-1.57 12.58,-2.94 18.95,-4.14 11.17,-2.1 22.74,-3.77 34.17,-4.25 l 0.11,2.89 c -0.88,0.06 -1.78,0.22 -2.67,0.43 -0.021,0.01 -0.03,0.01 -0.04,0.01 -17.18,2.82 -34.26,5.58 -51.09,10.11 z m -5.83,4.22 c -0.17,0.44 -0.29,1.05 -0.37,1.86 0.17,-0.63 0.32,-1.269 0.37,-1.86 z m 0,-0.01 c 1.02,-2.74 3.39,0.96 3.42,1.18 0.23,-1.4 0.35,-3.33 0.46,-4.93 -1.76,0.46 -3.52,0.92 -5.28,1.38 1.22,0.261 1.5,1.221 1.4,2.37 z m 12.14,6 c 2.08,2.57 5.39,8.34 8.14,4.7 -2.65,-0.86 -5.44,-3.17 -8.14,-4.7 z"
         id="path110"
         inkscape:connector-curvature="0" /><path
         d="m 75.112,246.353 c 1.76,-1.29 3.84,-2.93 5.28,-1.489 -1.31,1.399 -3.22,1.429 -5.28,1.489 z"
         id="path112"
         style="fill:#047391"
         inkscape:connector-curvature="0" /><path
         d="m 81.192,163.983 c -6.56,2.57 -13.88,3.591 -20.88,3.9 6.85,-1.969 14,-2.189 20.88,-3.9 z"
         id="path114"
         style="fill:#047391"
         inkscape:connector-curvature="0" /><path
         d="m 74.422,229.713 c -1.44,0.13 -1.7,-1.6 -1.95,-3.55 0.28,1.541 1.01,2.36 1.95,3.55 z"
         id="path116"
         inkscape:connector-curvature="0" /><path
         d="m 106.662,117.293 c -0.19,2.55 1.96,2.96 3.33,1.37 0.07,-1.76 -3.09,-4.6 -3.33,-1.37 z M 116.981,4.063 c -0.63,-0.12 -1.27,-0.26 -1.899,-0.38 -0.08,-0.02 -0.17,-0.04 -0.25,-0.05 0.07,0.01 0.149,0.03 0.25,0.05 0.58,0.13 1.61,0.36 1.899,0.38 z m 10.671,22.94 c -0.021,-7.87 -6.381,-14.82 -9.521,-21.68 1.45,5.04 2.17,6.18 -0.33,10.67 -1.729,3.11 -3.33,6.28 -4.729,9.55 -2.891,6.75 -5.141,13.91 -8.591,20.39 -1.43,2.68 -8.149,10.6 -5.51,13.77 1.19,1.42 2.61,-0.9 3.67,-0.35 3.03,1.57 6,5.04 8.49,7.35 5.59,5.16 10.75,10.83 16.78,15.52 4.49,3.49 3.18,-0.21 2.899,-4.22 -0.229,-3.36 -0.26,-6.74 -0.369,-10.1 -0.461,-13.27 2.579,-28.25 -0.261,-41.24 -0.899,14.72 -1.029,29.43 -1.04,44.16 h -1.25 c 0,-5.9 -1.39,-12 -1.39,-17.78 0.002,-8.71 0.512,-17.3 1.152,-26.04 z m -1.37,148.911 c 0.09,-0.99 -0.62,-3.63 -2.641,-2.3 -2.199,1.46 0.661,4.179 2.641,2.3 z M 95.992,65.894 c -0.01,-0.01 -1.18,-1.82 -1.38,-2.06 -4.31,2.449 -0.33,5.129 1.38,2.06 z m 2.52,-1.371 c -0.15,1.64 -0.3,3.29 -0.46,4.93 1.24,-0.49 2.91,-1.12 4.02,-1.95 -0.44,-1 -2.03,-2.37 -3.56,-2.98 z m -11.7,-6.2 c -0.12,-1.02 -1.54,-2.52 -3.55,-4.2 l 1.2,-1.43 c 2.79,2.34 5.75,4.59 9.24,5.63 0.49,-4.26 4.08,-6.99 4.7,-11.13 -3.59,0.76 -7.19,1.12 -10.74,1.8 l -0.27,-1.4 c 4.86,-0.94 10.36,-2.95 12.73,-4.07 -1.84,-6.16 -2.39,-12.12 -9.75,-11.76 -1.78,0.09 -3.52,0.32 -5.24,0.62 l -0.38,-2.22 c 2.17,-0.38 4.31,-0.84 6.31,-1.21 3.51,-0.64 5.09,-2.38 6.73,1.12 1.35,2.88 2.7,5.76 4.05,8.63 0.59,-2.16 2.39,-5.34 2.75,-7.91 0.73,-5.1 -1.07,-5 -5.85,-4.65 -2.73,0.2 -5.42,0.52 -8.08,0.94 l -0.34,-2.13 c 7.74,-1.21 13.18,-4 14.61,-12.78 0.44,-2.73 -6.27,-5.51 -8.6,-5.59 2.16,-1.04 4.82,-2.23 7.5,-2.88 0.01,0 0.02,0 0.04,-0.01 0.89,-0.14 1.78,-0.28 2.67,-0.43 l -0.11,-2.89 c 1.45,-0.06 2.891,-0.1 4.34,-0.12 7.421,-0.11 10.2,1.92 13.54,8.59 2.5,5.01 4.551,10.33 8.28,14.61 3.9,0.79 7.8,1.58 11.71,2.37 l -0.57,2.79 c -2.939,-0.56 -6,-0.88 -8.85,-0.23 4.04,2.57 1.061,8.01 1.84,11.82 0.01,0 0.021,0 0.03,0 l 0.19,1.83 c -0.11,0.61 -0.23,1.22 -0.341,1.84 4.94,0.7 9.95,0.82 14.94,0.62 l 0.08,2.59 c -1.45,0.06 -2.94,0.23 -3.83,0.23 -3.75,0 -7.48,-0.6 -6.83,4.47 1.53,-1.27 2.71,-0.43 3.62,1.52 l -1.67,0.78 c 0.74,4.38 0.74,8.84 -0.23,13.19 -0.819,-1.64 -0.92,-3.46 -1.26,-5.28 -0.01,3.41 0.95,7.17 -1.03,10.21 -4.06,-2.93 -2.149,-7.8 -1.779,-11.87 0.229,-2.56 -2.29,-5.15 -0.521,-7.17 0.15,0.4 0.29,0.99 0.46,1.38 0.19,-2.34 0.38,-4.67 0.57,-7 -0.13,1.79 -0.48,3.58 -1.49,5.05 -1.54,-1.81 0.03,-3.57 -1.83,-4.94 -0.54,10.83 -3.2,22.01 -2.24,32.85 0.69,7.83 -0.1,10.2 -7.06,6.16 -4.9,-2.85 -9.42,-5.61 -14.68,-7.8 -1.7,4.51 2.1,10.62 3.43,15.09 1.64,5.49 3.15,11.01 4.72,16.52 3.33,11.66 6.53,23.35 9.99,34.971 5.92,19.899 12.31,39.81 19.01,59.449 0.44,1.29 0.891,2.59 1.34,3.88 l -1.8,0.62 c -1.06,-3.029 -2.189,-5.92 -3.08,-8.47 -4.17,-12.02 -8.3,-24.05 -12.27,-36.14 -7.92,-24.11 -15.29,-48.39 -22.83,-72.62 -1.771,-5.46 -3.45,-12.52 -6.77,-17.89 2.08,13.05 7.05,25.03 11.47,37.4 4.67,13.02 7.399,26.84 11.399,40.09 1.061,3.521 2.16,7.021 3.3,10.51 l -0.84,0.271 c -5.029,-15.46 -10.17,-30.88 -15.229,-46.28 -0.96,2.49 -2.53,4.76 -4.59,6.48 -1.021,0.85 -6.69,-1.7 -7,-2.58 -0.82,-2.35 1.8,-5.37 3.56,-6.83 2.13,-1.78 5.061,0.36 6.99,1.66 -3.34,-14.15 -9.18,-27.61 -12.04,-41.87 -3.61,-1.69 -10.16,-0.33 -11.82,3.21 -1.78,3.81 0.92,8.69 1.95,12.39 1.66,5.94 3.42,11.86 5.18,17.77 1.41,4.76 2.87,9.5 4.36,14.24 5.71,18.14 11.96,36.14 18.68,53.92 1.62,-1.091 2.141,-4.25 4.021,-4.82 1.74,-0.53 5.96,2.439 6.439,3.649 0.04,0.091 0.051,0.181 0.04,0.25 -1.13,6.811 -4.37,5.73 -9.229,3.79 2.66,10.421 6.24,20.53 9.649,30.7 l -1.529,0.51 c -3.86,-11.479 -8.7,-23.77 -9.96,-27.079 -12.49,-32.171 -22.01,-66.541 -33.5,-99.47 -0.64,2.36 0.95,4.54 1.72,6.77 1.94,5.55 3.39,11.38 5.17,17.01 4.37,13.75 8.62,27.53 12.95,41.29 6.49,20.64 13.2,41.19 20.3,61.61 l -2.19,0.76 c -3.1,-8.82 -6.949,-17.5 -10.3,-25.91 -6.67,-16.75 -12.6,-33.63 -17.98,-50.83 -4.76,-15.23 -7.74,-30.9 -13,-45.99 -3.97,5.24 -7.95,10.47 -11.93,15.71 -1.59,-2.19 -2.78,-4.63 -4.17,-6.95 l 2.64,-0.74 c 0.84,1.65 1.47,1.68 3.71,-1.14 2.04,-2.55 3.54,-5.9 4.94,-8.83 4.02,-8.47 7.66,-17.49 13.99,-24.55 -3.74,-1.43 -12.46,16.19 -18.03,26.18 l -0.22,-0.12 c 1.45,-2.65 2.96,-6.49 3.35,-7.36 1.61,-3.63 3.05,-7.33 4.76,-10.9 0.85,-1.751 6.42,-8.451 6.24,-9.871 z"
         id="path118"
         inkscape:connector-curvature="0" /><path
         d="m 62.612,224.893 c 0.78,1.21 1.76,2.391 2.41,3.681 -0.92,-4.94 -4.45,-9.771 -5.63,-14.92 -0.4,1.09 -0.58,2.51 -0.68,3.67 0.68,0 1.62,6.79 2.17,9.409 0.44,-0.97 1.1,-1.029 1.73,-1.84 z m -5.74,-28.449 c 4.27,-4.381 -5.01,-5.311 5.02,-7.82 8.92,-2.23 18.27,-3 27.33,-4.57 1.8,5.271 3.61,10.53 5.42,15.79 2.92,8.51 5.84,17 8.75,25.51 1.03,3.021 -0.26,5.341 -1.55,7.57 -1.9,3.31 -1.43,4.271 -5.74,5.51 -3.17,0.92 -6.55,0.74 -9.75,1.721 0.79,-4.841 6.18,-2.87 8.38,-5.62 2.54,-3.181 -2.69,-3.061 -5.03,-1.86 -4.77,2.46 -11.27,4.521 -15.39,7.94 -1.16,0.96 -0.54,2.399 -2.41,3.33 3.5,-3.87 -2.43,-0.61 -4.25,0 -1.64,0.55 -2.42,-0.761 -2.63,-0.69 -1.73,0.57 -1.76,2.26 -3.91,2.64 0.42,-7.5 -2.67,-14.18 -5.52,-20.91 -2.79,-6.609 -4.15,-13.619 -6.52,-20.39 -0.32,-0.91 -5.72,-15.31 -0.8,-13.42 3.06,1.18 0.91,8.49 5.96,9.86 0.61,-2.13 -4.18,-9.181 -2.06,-10.44 2.21,-1.311 4.15,4.769 4.7,5.849 z m 1.15,1.039 c 0.79,2 0.8,4.271 2.75,5.5 -0.92,-1.829 -1.83,-3.67 -2.75,-5.5 z m 14.45,28.681 c 0.25,1.95 0.51,3.68 1.95,3.55 -0.94,-1.191 -1.67,-2.01 -1.95,-3.55 z m -5.85,-10.67 c -0.08,-0.601 -0.68,-2.79 -1.03,-3.9 -0.88,1.949 -0.13,2.669 1.03,3.9 z"
         id="path120"
         style="fill:#047391"
         inkscape:connector-curvature="0" /><path
         d="m 146.122,234.654 c 1.89,0.609 3.47,-0.131 4.359,-1.841 -1.919,-1.619 -3.699,-0.359 -4.359,1.841 z m 5.39,-1.611 c 1.73,0.64 1.11,-0.4 1.61,-1.61 -0.2,-0.739 0.1,-1.31 -1.03,-1.489 -0.24,0.97 -0.571,2.109 -0.58,3.099 z m 0.58,10.901 c 0.47,-2.101 1.36,-5.301 1.03,-7.921 -0.65,2.61 -1.32,5.221 -1.03,7.921 z m -45.55,-12.051 c -0.53,1.761 -1.07,3.521 -1.6,5.28 1.15,-1.049 1.25,-3.37 1.6,-5.28 z m -12.73,9.641 c -3.73,0.949 -8.34,0.14 -11.36,2.979 3.98,-0.28 7.63,-1.68 11.36,-2.979 z m 6.88,-2.41 c -1.6,-0.021 -3.21,0.57 -4.13,1.609 1.38,-0.489 2.78,-1.039 4.13,-1.609 z m -28.79,4.82 c 1.87,-0.931 1.25,-2.37 2.41,-3.33 4.12,-3.42 10.62,-5.48 15.39,-7.94 2.34,-1.2 7.57,-1.32 5.03,1.86 -2.2,2.75 -7.59,0.779 -8.38,5.62 3.2,-0.98 6.58,-0.801 9.75,-1.721 4.31,-1.239 3.84,-2.2 5.74,-5.51 1.29,-2.229 2.58,-4.55 1.55,-7.57 -2.91,-8.51 -5.83,-17 -8.75,-25.51 l 1.59,-0.54 c 3.4,10.04 7.67,19.851 10.77,29.95 -3.84,-15.34 -10.15,-30.63 -15.14,-46 l 2.14,-0.71 c 0.63,1.89 1.29,3.77 1.99,5.64 4.42,11.9 10,23.4 13.13,35.74 1.979,7.771 2.79,0.57 6.26,2.47 2.88,1.57 -2.27,3.73 -3.9,3.21 -0.539,2.83 -1.069,5.66 -1.609,8.49 3.31,-0.45 7.399,-2.28 11.47,-3.439 4.38,-1.261 7.19,-1.82 6.37,-6.771 -1.02,-6.13 -2.78,-12.229 -4.9,-18.26 l 2.19,-0.76 c 2.55,7.35 5.15,14.68 7.81,22 1.891,-1.25 -0.869,-11.341 -4.489,-22.131 l 1.529,-0.51 c 2.33,6.931 4.57,13.88 6.38,20.971 1.311,5.149 3.65,-3.9 7.08,-2.921 6.73,1.931 5.341,-0.13 3.391,-6.77 -4.61,-15.67 -9.51,-31.31 -14.54,-46.92 -1.09,-3.351 -2.17,-6.7 -3.271,-10.04 l 0.84,-0.271 c 3.4,10.471 7.061,20.851 10.54,31.301 2.15,6.439 4.801,12.729 7,19.159 1.12,3.261 1.94,10.44 4.591,12.62 0.18,-4.939 -1.48,-10.649 -3.351,-15.96 l 1.8,-0.62 c 1.24,3.561 2.49,7.12 3.61,10.73 1.66,5.3 1.78,4.83 6.43,3.9 1.86,-0.37 6.53,-1.66 7.801,-3.091 1.89,-2.14 0.75,-5.83 -0.23,-9.069 -0.35,-1.16 -0.71,-2.32 -1.08,-3.48 l 1.75,-0.56 c 1.45,4.7 3.2,9.05 4.95,9.38 3.17,0.59 -1.69,-8.65 -2.29,-10.04 -2.65,-6.12 -4.21,-12.53 -5.47,-19.05 -0.011,-0.07 -0.03,-0.15 -0.04,-0.221 5.18,7 5.479,16.23 9.56,23.771 0.8,1.47 3.23,3.689 3.63,4.32 0,-0.131 1.41,-0.69 1.721,-0.33 1.05,1.199 -0.32,1.529 -1.261,2.06 2.37,2.58 5.48,1.67 8.38,0.63 3.051,-1.09 5.471,0.76 7.801,0.181 2.859,-0.721 5.739,-1.4 8.6,-2.101 l 0.39,1.62 c -3.46,0.84 -7.01,2.01 -8.699,2.36 -6.16,1.279 -12.37,1.899 -18.65,2.02 5.15,1.8 10.54,1.46 15.94,0.391 l 0.38,1.76 c -3.29,0.81 -6.2,1.87 -7.721,3.35 2.12,0.18 4.271,-0.01 6.311,0.46 -2.391,2.99 -11.74,3.521 -15.771,4.21 -5.699,0.99 -11.5,1.46 -17.26,1.87 0.021,-0.08 0.05,-0.16 0.09,-0.24 2.07,-5 19.33,-4.55 24.23,-6.18 -6.51,0.94 -7.561,-6.61 -15.311,-3.29 -2.72,1.16 -10.939,3.6 -11.42,5.7 -0.149,0.649 0.221,2.689 1.141,2.229 1.529,-0.76 1.29,0.511 0.92,1.46 -0.2,0.49 -0.42,0.91 -0.46,0.91 0.05,0.511 -1.011,2.46 -0.57,4.23 8.41,-6.32 21.52,-5.26 31.2,-8.03 4.2,-1.2 3.13,-2.06 6.08,-3.33 4.739,-2.03 10.13,-0.479 15.029,-0.109 l 1.271,2.05 c -1.53,0.88 -3.3,1.04 -6.18,1.68 -4.551,1.01 -9.12,1.84 -13.67,2.81 -8.58,1.83 -17.141,3.74 -25.7,5.62 -4.891,1.07 -6.12,3.48 -10.32,5.49 -4.08,1.95 -8.53,2.57 -12.97,3.23 -0.351,0.05 -0.69,0.109 -1.04,0.18 l -0.32,-1.51 c 5.54,-1.19 10.05,-3.88 8.82,-10.83 -6.83,1.91 -14.17,2.01 -15.521,9.84 l -1.58,-0.3 c 0.45,-1.53 0.53,-3.3 0.811,-4.84 -0.75,1.319 -0.3,4.59 -2.18,4.59 -0.53,0 -0.78,0.359 -0.881,0.85 l -1.58,-0.29 c 0.101,-0.46 0.19,-0.91 0.28,-1.359 -0.67,0.46 -1.16,1.05 -1.49,1.72 l -1.489,-0.46 c 0.399,-1.101 0.34,-2.72 0.22,-3.67 -2.64,-0.46 -7.75,3.649 -7.91,0.92 -7.2,-0.25 -14.75,6.08 -20.76,4.47 0.22,0.311 0.45,0.61 0.68,0.92 -5.26,-1.37 -12.74,0.01 -17.32,2.641 3.16,1.8 -3.53,2.539 -5.39,3.21 -3.57,1.27 -6.97,3 -10.6,3.949 -1.21,0.311 -2.45,0.54 -3.74,0.641 4.99,-3.41 11.13,-4.41 16.06,-7.92 -5.37,3.02 -11.75,2.68 -17.55,1.26 0.53,-0.67 3.09,-3.83 1.66,-4.24 -0.2,-0.06 -0.38,-0.08 -0.53,-0.08 l 0.01,-1.87 c 2.15,-0.38 2.18,-2.069 3.91,-2.64 0.21,-0.07 0.99,1.24 2.63,0.69 1.817,-0.611 7.747,-3.87 4.247,0 z m 0.8,1.489 c -2.5,0.55 -5.01,1.11 -7.51,1.66 2.76,-0.49 6.09,1.74 7.51,-1.66 z m 7.69,-0.569 c -1.44,-1.44 -3.52,0.199 -5.28,1.489 2.06,-0.06 3.97,-0.09 5.28,-1.489 z m 58.85,-10.101 c -1.311,-0.59 -1.16,0.22 -2.07,0.69 0.49,-0.249 1.54,-0.48 2.07,-0.69 z"
         id="path122"
         inkscape:connector-curvature="0" /><path
         d="m 65.192,247.093 c 2.5,-0.55 5.01,-1.11 7.51,-1.66 -1.42,3.4 -4.75,1.17 -7.51,1.66 z"
         id="path124"
         style="fill:#047391"
         inkscape:connector-curvature="0" /><path
         d="m 65.932,32.973 c 2.01,-1.09 4.39,-1.7 6.66,-1.38 -0.8,0.46 -1.58,0.99 -2.41,1.38 0.51,0.88 0.78,1.64 0.34,2.75 -1.63,0.38 -0.82,0.12 -2.06,0.92 -0.94,-1.039 -1.84,-2.459 -2.53,-3.67 z"
         id="path126"
         style="fill:#023f4f"
         inkscape:connector-curvature="0" /><path
         d="m 78.092,255.994 c -4.3,1.04 -8.43,2.189 -12.56,3.319 l -0.33,-1.21 c 3.63,-0.949 7.03,-2.68 10.6,-3.949 1.86,-0.671 8.55,-1.41 5.39,-3.21 4.58,-2.631 12.06,-4.011 17.32,-2.641 -0.23,-0.31 -0.46,-0.609 -0.68,-0.92 6.01,1.61 13.56,-4.72 20.76,-4.47 0.16,2.729 5.271,-1.38 7.91,-0.92 0.12,0.95 0.18,2.569 -0.22,3.67 -4.561,0.689 -9.101,1.38 -13.66,2.06 0.689,-0.52 1.43,-1.069 2.18,-1.49 -0.229,-0.3 -0.46,-0.609 -0.68,-0.909 -11.47,6 -23.6,7.659 -36.03,10.67 z"
         id="path128"
         style="fill:#047391"
         inkscape:connector-curvature="0" /><path
         d="m 65.592,211.593 c 0.35,1.11 0.95,3.3 1.03,3.9 -1.16,-1.23 -1.91,-1.95 -1.03,-3.9 z"
         id="path130"
         inkscape:connector-curvature="0" /><path
         d="m 67.192,28.723 c -2.75,3.64 -6.06,-2.13 -8.14,-4.7 2.7,1.53 5.49,3.84 8.14,4.7 z"
         id="path132"
         style="fill:#023f4f"
         inkscape:connector-curvature="0" /><path
         d="m 63.412,70.023 c 0.79,1.36 1.29,2.87 1.26,4.25 -0.36,-1.43 -0.84,-2.83 -1.26,-4.25 z"
         id="path134"
         inkscape:connector-curvature="0" /><path
         d="m 65.022,228.574 c -0.65,-1.29 -1.63,-2.471 -2.41,-3.681 -0.63,0.811 -1.29,0.87 -1.73,1.84 -0.55,-2.619 -1.49,-9.409 -2.17,-9.409 0.1,-1.16 0.28,-2.58 0.68,-3.67 1.18,5.149 4.71,9.979 5.63,14.92 z"
         id="path136"
         inkscape:connector-curvature="0" /><path
         d="m 57.672,113.164 c 1.38,2.37 2.76,4.74 4.13,7.11 -0.71,-2.371 -1.49,-5.751 -4.13,-7.11 z m -1.03,-2.181 c 1.47,-3.92 -10.8,-19.28 -15.95,-16.98 0.78,2.44 11.35,10.65 8.04,11.13 0.41,0.81 0.66,1.17 0.91,1.95 0.14,-0.46 0.6,-1.76 0.46,-2.53 2.43,1.91 3.26,5.881 6.54,6.43 z M 45.092,73.104 c 3.06,6.41 7.22,12.31 11.32,18.09 2.15,3.03 8.88,15.78 11.93,15.66 -3.25,-5.55 -6.5,-11.09 -9.75,-16.64 1.34,1.99 2.68,3.98 4.02,5.97 0.9,-1.42 0.66,-2.81 0,-4.47 1.09,1.21 1.99,2.55 2.82,3.94 1.39,2.32 2.58,4.76 4.17,6.95 3.98,-5.24 7.96,-10.47 11.93,-15.71 5.26,15.09 8.24,30.76 13,45.99 5.38,17.2 11.31,34.08 17.98,50.83 3.351,8.41 7.2,17.09 10.3,25.91 2.12,6.03 3.881,12.13 4.9,18.26 0.82,4.95 -1.99,5.51 -6.37,6.771 -4.07,1.159 -8.16,2.989 -11.47,3.439 0.54,-2.83 1.07,-5.66 1.609,-8.49 1.631,0.521 6.78,-1.64 3.9,-3.21 -3.47,-1.899 -4.28,5.301 -6.26,-2.47 -3.13,-12.34 -8.71,-23.84 -13.13,-35.74 -0.7,-1.87 -1.36,-3.75 -1.99,-5.64 -1.36,-4.07 -2.57,-8.2 -3.65,-12.36 -0.52,-2.04 -0.23,-7.229 -1.47,-8.5 -1.27,-1.29 -7.58,-1.109 -9.27,-0.979 -5.7,0.47 -11.24,1.51 -16.85,2.6 -4.9,0.95 -14.04,-0.25 -17.94,2.28 -0.78,-7.58 -5.93,-14.18 -5.04,-22.021 -1.02,0.141 -2.1,0.7 -2.87,1.37 1.31,2.271 3.25,7.511 2.64,10.271 -0.63,2.84 2.41,7.88 2.41,11.189 -0.69,0.301 -2.45,0.761 -3.45,1.141 -3.77,-17.23 -8.53,-34.15 -13.56,-51.061 -2.64,-8.88 -5.26,-17.76 -7.79,-26.68 -1.33,-4.69 -1.07,-8.74 -3.42,-12.88 5.43,-1.87 13.03,-7.35 19.3,-9.34 5.84,-1.84 10.51,-0.68 11.21,9.22 -1.42,1.99 -0.4,6.69 2.29,5.51 1.06,1.78 5.44,7.91 8.57,13.18 2.25,3.78 3.86,7.11 3.15,8.06 -2.59,3.45 8.16,14.82 10.72,18.41 4.86,6.79 9.78,13.5 15.01,20.01 2.69,3.35 11.12,15.63 15.21,15.25 -14.01,-21.15 -30.14,-40.69 -42.96,-62.39 -4.119,-6.97 -7.899,-14.171 -11.149,-21.72 z m -12.77,-0.551 c 0.08,2.23 0.7,4.56 3.1,5.04 -1.04,-1.679 -2.07,-3.36 -3.1,-5.04 z m 2.64,7.68 c 1.64,2.41 3.29,4.82 4.93,7.23 -0.89,-2.18 -2.8,-5.259 -4.93,-7.23 z m 4.93,59.66 c 0.02,-1.479 -0.72,-3.13 -1.83,-4.36 0.61,1.45 1.22,2.9 1.83,4.36 z"
         id="path138"
         style="fill:#047391"
         inkscape:connector-curvature="0" /><path
         d="m 59.972,252.083 c 5.8,1.42 12.18,1.76 17.55,-1.26 -4.93,3.51 -11.07,4.51 -16.06,7.92 1.29,-0.101 2.53,-0.33 3.74,-0.641 l 0.33,1.21 c -3.95,1.091 -7.9,2.16 -11.99,3.101 -0.2,-2.94 1.95,-3.78 3.96,-5.34 2.73,-2.12 0.65,-3.86 1.84,-5.851 0.66,-1.1 0.29,-3.46 1.76,-3.46 0.15,0 0.33,0.021 0.53,0.08 1.43,0.411 -1.13,3.572 -1.66,4.241 z"
         id="path140"
         style="fill:#047391"
         inkscape:connector-curvature="0" /><path
         d="m 61.802,120.273 c -1.37,-2.37 -2.75,-4.74 -4.13,-7.11 2.64,1.36 3.42,4.74 4.13,7.11 z"
         id="path142"
         inkscape:connector-curvature="0" /><path
         d="m 58.022,197.483 c 0.92,1.83 1.83,3.671 2.75,5.5 -1.95,-1.23 -1.96,-3.5 -2.75,-5.5 z"
         id="path144"
         inkscape:connector-curvature="0" /><path
         d="m 56.242,94.823 c 12.82,21.7 28.95,41.24 42.96,62.39 -4.09,0.38 -12.52,-11.9 -15.21,-15.25 -5.23,-6.51 -10.15,-13.22 -15.01,-20.01 -2.56,-3.59 -13.31,-14.96 -10.72,-18.41 0.71,-0.95 -0.9,-4.28 -3.15,-8.06 z"
         id="path146"
         inkscape:connector-curvature="0" /><path
         d="m 59.052,177.173 c -0.05,3.12 -4.23,2.51 -3.44,0.23 0.66,-1.9 2.97,-0.73 3.44,-0.23 z"
         id="path148"
         style="fill:#8c8c8c"
         inkscape:connector-curvature="0" /><path
         d="m 55.612,177.404 c -0.79,2.279 3.39,2.89 3.44,-0.23 -0.47,-0.501 -2.78,-1.671 -3.44,0.23 z m 5.85,1.489 c -1.03,1.67 -2.97,2.42 -4.93,2.53 0.15,-0.01 -5.28,-1.32 -4.98,-0.64 -4.11,-5.31 9.72,-9.97 9.91,-1.89 z"
         id="path150"
         inkscape:connector-curvature="0" /><path
         d="m 56.312,61.293 c 0.08,0.35 0.15,0.7 0.22,1.05 -0.08,-0.34 -0.16,-0.69 -0.22,-1.05 z"
         id="path152"
         inkscape:connector-curvature="0" /><path
         d="m 47.582,170.523 c 1.95,-2.27 5.3,-1.55 8.03,-1.72 -2.49,1.04 -5.54,1.021 -8.03,1.72 z"
         id="path154"
         style="fill:#047391"
         inkscape:connector-curvature="0" /><path
         d="m 53.542,262.414 c 4.09,-0.94 8.04,-2.01 11.99,-3.101 4.13,-1.13 8.26,-2.279 12.56,-3.319 12.43,-3.011 24.56,-4.67 36.03,-10.67 0.22,0.3 0.45,0.609 0.68,0.909 -0.75,0.421 -1.49,0.971 -2.18,1.49 4.56,-0.68 9.1,-1.37 13.66,-2.06 l 1.489,0.46 c -0.489,1.02 -0.59,2.229 -0.35,3.439 0.8,-1.119 1.24,-2.449 1.56,-3.8 l 1.58,0.29 c -0.149,0.79 0.131,1.91 0.301,2.25 1.05,-0.64 1.609,-1.67 1.949,-2.85 l 1.58,0.3 c -0.1,0.58 -0.17,1.2 -0.199,1.86 2.27,-0.17 4.67,-0.4 6.899,-0.87 l 0.32,1.51 c -5.2,1.03 -10.32,3.88 -15.71,3.2 -2.36,-0.29 -2.17,-2.87 -4.24,-2.521 -3.36,0.55 -6.5,1.58 -9.79,2.49 -9.41,2.59 -18.86,5.06 -28.36,7.271 -9.59,2.239 -19.17,4.46 -28.85,6.3 -0.22,0.04 -0.43,0.08 -0.63,0.109 z"
         id="path156"
         inkscape:connector-curvature="0" /><path
         d="m 48.952,73.233 c 2.56,3.69 5.77,8.22 7.92,11.48 -4.15,-2.7 -5.22,-7.62 -7.92,-11.48 z"
         id="path158"
         style="fill:#047391"
         inkscape:connector-curvature="0" /><path
         d="m 53.432,49.033 c -0.33,-0.03 -0.65,-0.13 -0.93,-0.28 0.07,-0.14 0.15,-0.27 0.24,-0.41 0.23,0.23 0.46,0.46 0.69,0.69 z"
         id="path160"
         inkscape:connector-curvature="0" /><path
         d="m 51.482,66.813 c -5.4,-7.86 -12.59,-15.11 -15.49,-24.2 11.5,16.48 23.18,32.88 32.81,50.13 0.88,-0.94 2.25,-3.22 3.88,-6.17 5.57,-9.99 14.29,-27.61 18.03,-26.18 -6.33,7.06 -9.97,16.08 -13.99,24.55 -1.4,2.93 -2.9,6.28 -4.94,8.83 -2.24,2.82 -2.87,2.79 -3.71,1.14 -0.48,-0.92 -1.02,-2.35 -1.96,-4.07 -4.5,-8.26 -9.31,-16.28 -14.63,-24.03 z"
         id="path162"
         style="fill:#047391"
         inkscape:connector-curvature="0" /><path
         d="m 52.112,51.533 c 0.31,0.83 0.63,1.67 0.97,2.55 -0.46,-0.82 -0.83,-1.68 -0.97,-2.55 z"
         id="path164"
         inkscape:connector-curvature="0" /><path
         d="m 45.512,15.653 c 1.76,-0.46 3.52,-0.92 5.28,-1.38 -0.11,1.6 -0.23,3.53 -0.46,4.93 -0.03,-0.22 -2.4,-3.92 -3.42,-1.18 0.1,-1.149 -0.18,-2.109 -1.4,-2.37 z"
         id="path166"
         style="fill:#023f4f"
         inkscape:connector-curvature="0" /><path
         d="m 50.102,104.553 c 0.14,0.77 -0.32,2.07 -0.46,2.53 -0.25,-0.78 -0.5,-1.14 -0.91,-1.95 3.31,-0.48 -7.26,-8.69 -8.04,-11.13 5.15,-2.3 17.42,13.06 15.95,16.98 -3.28,-0.549 -4.11,-4.52 -6.54,-6.43 z"
         id="path168"
         inkscape:connector-curvature="0" /><path
         d="m 48.502,36.644 c 0.46,0.99 0.91,1.99 1.37,2.98 -0.5,-0.971 -0.93,-2 -1.37,-2.98 z"
         id="path170"
         style="fill:#ffffff"
         inkscape:connector-curvature="0" /><path
         d="m 46.912,18.033 c -0.05,0.59 -0.2,1.23 -0.37,1.86 0.08,-0.81 0.2,-1.42 0.37,-1.86 z"
         id="path172"
         style="fill:#ffffff"
         inkscape:connector-curvature="0" /><path
         d="m 64.672,74.273 c 0.03,-1.38 -0.47,-2.89 -1.26,-4.25 0.42,1.42 0.9,2.82 1.26,4.25 z m -12.56,-22.74 c -0.17,-0.95 -0.09,-1.89 0.39,-2.78 0.28,0.15 0.6,0.25 0.93,0.28 -0.23,-0.23 -0.46,-0.46 -0.69,-0.69 -0.09,0.14 -0.17,0.27 -0.24,0.41 -1.45,-0.72 -2.23,-2.69 -0.79,-4.54 0.11,0.27 0.23,0.54 0.34,0.8 0.08,-1 0.54,-1.98 0.58,-2.98 1.48,2.95 2.64,6.54 1.37,9.75 -0.11,-0.27 -0.23,-0.53 -0.34,-0.8 0.86,3.44 1.92,6.84 2.65,10.31 0.06,0.36 0.14,0.71 0.22,1.05 -0.07,-0.35 -0.14,-0.7 -0.22,-1.05 -0.28,-1.57 -0.32,-3.2 0.79,-4.35 2.08,3.95 1.09,8.64 3.21,12.51 -0.39,-1.27 -0.33,-6.83 0.57,-8.72 0.54,2.48 1.29,5 2.3,7.34 -0.41,-3.86 -9.32,-29.91 -11.01,-29.37 -1.04,-1.68 -2.07,-3.36 -3.1,-5.04 -0.2,1.01 -0.88,1.96 -1.03,2.98 -0.12,-0.49 -0.46,-0.89 -0.58,-1.49 0.21,1.37 -0.74,1.66 -1.03,2.52 -1.3,-3.44 -2.6,-6.88 -3.9,-10.32 0.96,3.67 0.51,6.6 1.26,10.21 0.6,2.87 2.3,5.49 2.98,8.37 -0.37,-2.71 -2.32,-5.3 -0.34,-7.8 2.44,4.79 3.92,8.77 5.68,13.4 0.14,0.87 0.51,1.73 0.97,2.55 -0.34,-0.879 -0.66,-1.72 -0.97,-2.55 z m -11.99,-26.82 c 1.31,-0.78 -0.17,-6.02 1.15,-7.92 -0.47,5.26 4.65,9.05 8.83,11.13 5.84,5.46 12.03,10.56 18.24,15.6 2.09,1.7 10.16,6.63 14.92,10.6 2.01,1.68 3.43,3.18 3.55,4.2 0.18,1.42 -5.39,8.12 -6.24,9.87 -1.71,3.57 -3.15,7.27 -4.76,10.9 -0.39,0.87 -1.9,4.71 -3.35,7.36 -0.82,1.48 -1.61,2.6 -2.17,2.62 -2.31,0.08 -5.35,-8.7 -6.47,-10.8 -7.47,-14.06 -18.98,-25.65 -26.79,-39.6 -0.46,-0.82 -0.38,-3.21 0.04,-5.79 0.57,-3.52 1.76,-7.39 3.05,-8.17 z"
         id="path174"
         style="fill:#047391"
         inkscape:connector-curvature="0" /><path
         d="m 49.872,39.624 c -0.46,-0.99 -0.91,-1.99 -1.37,-2.98 0.44,0.98 0.87,2.009 1.37,2.98 z m -6.08,-2.061 c -0.75,-3.61 -0.3,-6.54 -1.26,-10.21 1.3,3.44 2.6,6.88 3.9,10.32 0.29,-0.86 1.24,-1.15 1.03,-2.52 0.12,0.6 0.46,1 0.58,1.49 0.15,-1.02 0.83,-1.97 1.03,-2.98 1.03,1.68 2.06,3.36 3.1,5.04 1.69,-0.54 10.6,25.51 11.01,29.37 -1.01,-2.34 -1.76,-4.86 -2.3,-7.34 -0.9,1.89 -0.96,7.45 -0.57,8.72 -2.12,-3.87 -1.13,-8.56 -3.21,-12.51 -1.11,1.15 -1.07,2.78 -0.79,4.35 -0.73,-3.47 -1.79,-6.87 -2.65,-10.31 0.11,0.27 0.23,0.53 0.34,0.8 1.27,-3.21 0.11,-6.8 -1.37,-9.75 -0.04,1 -0.5,1.98 -0.58,2.98 -0.11,-0.26 -0.23,-0.53 -0.34,-0.8 -1.44,1.85 -0.66,3.82 0.79,4.54 -0.48,0.89 -0.56,1.83 -0.39,2.78 -1.76,-4.63 -3.24,-8.61 -5.68,-13.4 -1.98,2.5 -0.03,5.09 0.34,7.8 -0.68,-2.88 -2.38,-5.499 -2.98,-8.37 z"
         id="path176"
         inkscape:connector-curvature="0" /><path
         d="m 39.552,172.244 c 1.2,-1.53 2.86,-1.59 4.01,-0.57 -1.19,1.039 -2.4,1.4 -4.01,0.57 z"
         id="path178"
         style="fill:#047391"
         inkscape:connector-curvature="0" /><path
         d="m 86.012,166.733 c 1.08,4.591 1.24,9.82 4.47,13.54 -1.49,-4.51 -2.98,-9.02 -4.47,-13.54 z m -25.7,1.15 c 7,-0.31 14.32,-1.33 20.88,-3.9 -6.88,1.711 -14.03,1.931 -20.88,3.9 z m -20.76,4.361 c 1.61,0.83 2.82,0.47 4.01,-0.57 -1.15,-1.02 -2.81,-0.961 -4.01,0.57 z m 1.26,3.439 c 0.88,4.54 4.46,20.261 8.95,10.67 3.23,5.91 2.04,-1.399 3.09,-2.52 2.62,4.76 6.57,3.899 10.99,2.61 7.76,-2.261 15.93,-2.391 23.66,-4.79 0.08,-1.881 -2.8,-13.091 -4.24,-14.12 -2.01,-1.42 -8.11,0.87 -10.33,1.27 -7.21,1.3 -14.19,1.851 -21.22,3.9 -3.56,1.03 -7.25,2.3 -10.9,2.98 z m 6.77,-5.16 c 2.49,-0.699 5.54,-0.68 8.03,-1.72 -2.73,0.17 -6.08,-0.55 -8.03,1.72 z m -5.62,-4.13 c 0,-3.31 -3.04,-8.35 -2.41,-11.189 0.61,-2.76 -1.33,-8 -2.64,-10.271 0.77,-0.67 1.85,-1.229 2.87,-1.37 -0.89,7.841 4.26,14.44 5.04,22.021 3.9,-2.53 13.04,-1.33 17.94,-2.28 5.61,-1.09 11.15,-2.13 16.85,-2.6 1.69,-0.13 8,-0.311 9.27,0.979 1.24,1.271 0.95,6.46 1.47,8.5 1.08,4.16 2.29,8.29 3.65,12.36 l -2.14,0.71 c 1.03,5.46 2.58,10.79 4.37,16.05 l -1.59,0.54 c -1.81,-5.26 -3.62,-10.52 -5.42,-15.79 -9.06,1.57 -18.41,2.34 -27.33,4.57 -10.03,2.51 -0.75,3.439 -5.02,7.82 -0.55,-1.08 -2.49,-7.16 -4.7,-5.851 -2.12,1.26 2.67,8.311 2.06,10.44 -5.05,-1.37 -2.9,-8.681 -5.96,-9.86 -4.92,-1.89 0.48,12.51 0.8,13.42 2.37,6.771 3.73,13.78 6.52,20.39 2.85,6.73 5.94,13.41 5.52,20.91 l -0.01,1.87 c -1.47,0 -1.1,2.36 -1.76,3.46 -1.19,1.99 0.89,3.73 -1.84,5.851 -2.01,1.56 -4.16,2.399 -3.96,5.34 l 0.29,2.689 c -8.4,1.25 -6.18,-6.38 -7.63,-12.75 -0.93,-4.06 -1.86,-8.13 -2.79,-12.189 l 2.06,-0.47 c 0.63,2.689 1.29,5.359 1.99,8.029 -0.25,-3.99 -0.53,-8.22 -0.92,-12.16 -0.46,-4.75 -0.28,-11.92 -2.06,-16.399 -1.89,3.979 -1.83,-1.021 -2.06,-2.98 0.83,0.17 1.8,-0.31 2.63,-0.12 -0.07,-0.8 -0.39,-2.069 -0.8,-2.75 -0.43,0.83 -1.31,1.45 -1.72,2.29 -2.36,-17.08 -6.27,-33.6 -10.94,-50.18 -2.2,-7.83 -5.55,-16.02 -6.84,-24.04 -0.86,-5.36 -4.67,-13.06 -3.56,-18.47 -0.27,0.57 -0.53,1.15 -0.8,1.72 -2.78,-2.7 -2.78,-7.15 -2.41,-10.67 0.3,0.23 0.68,0.54 1.03,0.8 -3.3,-12.78 -6.3,-23.62 -11.58,-35.9 -0.56,-1.39 -1.8,-3.12 -3.45,-3.79 4.26,18.26 8.69,36.64 13.72,54.78 l -1.63,0.46 c -5.5,-19.93 -11.26,-39.34 -15.72,-59.56 -0.56,-2.53 1.32,-4.13 3.35,-5.26 2.39,-1.33 2.37,-3.94 2.06,-6.5 l 2.02,-0.25 c 0.3,2.84 2.38,6.16 2.97,9.91 5.99,-1.06 11.23,-3.95 16.78,-6.12 l 0.77,2.05 c -5.47,2.09 -10.67,5.23 -16.29,7.39 1.24,2.37 9.45,-2.37 12.28,-3.55 1.68,-0.7 4.17,-1.32 6.45,-2.18 l 2.3,1.33 c -6.27,1.99 -13.87,7.47 -19.3,9.34 2.35,4.14 2.09,8.19 3.42,12.88 2.53,8.92 5.15,17.8 7.79,26.68 5.03,16.91 9.79,33.83 13.56,51.061 1,-0.38 2.76,-0.84 3.45,-1.141 z M 7.202,70.604 c 0.3,-1.04 0.59,-1.69 0,-2.64 -2.05,1.559 -2.02,2.279 0,2.64 z"
         id="path180"
         inkscape:connector-curvature="0" /><path
         d="m 38.062,135.533 c 1.11,1.23 1.85,2.88 1.83,4.36 -0.61,-1.46 -1.22,-2.91 -1.83,-4.36 z"
         id="path182"
         inkscape:connector-curvature="0" /><path
         d="m 39.892,87.463 c -1.64,-2.41 -3.29,-4.82 -4.93,-7.23 2.13,1.971 4.04,5.05 4.93,7.23 z"
         id="path184"
         inkscape:connector-curvature="0" /><path
         d="m 32.322,72.553 c 1.03,1.68 2.06,3.36 3.1,5.04 -2.4,-0.48 -3.02,-2.81 -3.1,-5.04 z"
         id="path186"
         inkscape:connector-curvature="0" /><path
         d="m 35.992,62.573 c -0.88,1.7 -2.97,2.81 -5.25,3.67 -2.28,0.86 -4.77,1.48 -6.45,2.18 -2.83,1.18 -11.04,5.92 -12.28,3.55 5.62,-2.16 10.82,-5.3 16.29,-7.39 2.48,-0.95 5.02,-1.68 7.69,-2.01 z"
         id="path188"
         style="fill:#047391"
         inkscape:connector-curvature="0" /><path
         d="m 28.902,52.954 c -1.64,2.94 5.25,4.3 4.22,7.78 -1.92,0.46 -3.77,1.09 -5.59,1.8 -5.55,2.17 -10.79,5.06 -16.78,6.12 -0.59,-3.75 -2.67,-7.07 -2.97,-9.91 -0.26,-2.41 0.76,-4.46 5.04,-6.15 4.9,-1.93 12.41,3.419 16.08,0.36 z"
         id="path190"
         style="fill:#047391"
         inkscape:connector-curvature="0" /><path
         d="m 29.802,51.903 c -0.26,0.43 -0.57,0.77 -0.9,1.05 0.19,-0.329 0.48,-0.68 0.9,-1.05 z"
         id="path192"
         style="fill:#ffffff"
         inkscape:connector-curvature="0" /><path
         d="m 27.402,161.824 c 8.4,25.239 11.95,51.92 18.07,77.87 l -2.06,0.47 c -8.46,-36.78 -17.29,-73.45 -27.34,-109.85 l 1.63,-0.46 c 2.99,10.76 6.19,21.439 9.7,31.97 z"
         id="path194"
         inkscape:connector-curvature="0" /><path
         d="m 37.032,38.673 c 7.81,13.95 19.32,25.54 26.79,39.6 1.12,2.1 4.16,10.88 6.47,10.8 0.56,-0.02 1.35,-1.14 2.17,-2.62 l 0.22,0.12 c -1.63,2.95 -3,5.23 -3.88,6.17 -9.63,-17.25 -21.31,-33.65 -32.81,-50.13 2.9,9.09 10.09,16.34 15.49,24.2 5.32,7.75 10.13,15.77 14.63,24.03 0.94,1.72 1.48,3.15 1.96,4.07 l -2.64,0.74 c -0.83,-1.39 -1.73,-2.73 -2.82,-3.94 0.66,1.66 0.9,3.05 0,4.47 -1.34,-1.99 -2.68,-3.98 -4.02,-5.97 3.25,5.55 6.5,11.09 9.75,16.64 -3.05,0.12 -9.78,-12.63 -11.93,-15.66 -4.1,-5.78 -8.26,-11.68 -11.32,-18.09 3.25,7.55 7.03,14.75 11.15,21.72 l -1.13,0.66 c -3.13,-5.27 -7.51,-11.4 -8.57,-13.18 -2.69,1.18 -3.71,-3.52 -2.29,-5.51 -0.7,-9.9 -5.37,-11.06 -11.21,-9.22 l -2.3,-1.33 c 2.28,-0.86 4.37,-1.97 5.25,-3.67 -2.67,0.33 -5.21,1.06 -7.69,2.01 l -0.77,-2.05 c 1.82,-0.71 3.67,-1.34 5.59,-1.8 1.03,-3.48 -5.86,-4.84 -4.22,-7.78 0.33,-0.28 0.64,-0.62 0.9,-1.05 -0.42,0.37 -0.71,0.72 -0.9,1.05 -3.67,3.06 -11.18,-2.29 -16.08,-0.36 -4.28,1.69 -5.3,3.74 -5.04,6.15 l -2.02,0.25 c -0.14,-1.15 -0.33,-2.28 -0.39,-3.29 -0.36,-5.92 17.02,-10.83 21.76,-13.2 5.27,-2.63 6.41,-5.71 6.99,-10.04 l 2.95,0.42 c -0.42,2.58 -0.5,4.971 -0.04,5.79 z m 19.84,46.04 c -2.15,-3.26 -5.36,-7.79 -7.92,-11.48 2.7,3.86 3.77,8.78 7.92,11.48 z"
         id="path196"
         inkscape:connector-curvature="0" /><path
         d="m 45.472,239.694 c -6.12,-25.95 -9.67,-52.631 -18.07,-77.87 -3.51,-10.53 -6.71,-21.21 -9.7,-31.97 -5.03,-18.14 -9.46,-36.52 -13.72,-54.78 1.65,0.67 2.89,2.4 3.45,3.79 5.28,12.28 8.28,23.12 11.58,35.9 -0.35,-0.26 -0.73,-0.57 -1.03,-0.8 -0.37,3.52 -0.37,7.97 2.41,10.67 0.27,-0.57 0.53,-1.15 0.8,-1.72 -1.11,5.41 2.7,13.11 3.56,18.47 1.29,8.021 4.64,16.21 6.84,24.04 4.67,16.58 8.58,33.1 10.94,50.18 0.41,-0.84 1.29,-1.46 1.72,-2.29 0.41,0.681 0.73,1.95 0.8,2.75 -0.83,-0.189 -1.8,0.29 -2.63,0.12 0.23,1.96 0.17,6.96 2.06,2.98 1.78,4.479 1.6,11.649 2.06,16.399 0.39,3.94 0.67,8.17 0.92,12.16 -0.7,-2.67 -1.36,-5.34 -1.99,-8.029 z"
         id="path198"
         style="fill:#047391"
         inkscape:connector-curvature="0" /><path
         d="m 7.202,67.963 c 0.59,0.95 0.3,1.6 0,2.64 -2.02,-0.36 -2.05,-1.08 0,-2.64 z"
         id="path200"
         style="fill:#047391"
         inkscape:connector-curvature="0" /></g><g
       id="g202" /></g><g
     id="layer1"
     style="display:inline"
     transform="matrix(0.3333552,0,0,0.30885362,-36.105587,-40.433002)"><g
       id="g19140"><path
         d="m 138,284.36218 c -12,14 42,-18 42,-18 0,0 12,-8 40,-12 28,-4 56,2 56,2 l -10,68 -84,66 z"
         id="path9973"
         style="fill:#573400;fill-opacity:1;fill-rule:evenodd;stroke:#000000;stroke-width:1px;stroke-linecap:butt;stroke-linejoin:miter;stroke-opacity:1"
         inkscape:connector-curvature="0" /><path
         d="m 380,510.36218 -98,-48 c 0,0 -72,-114 -72,-136 0,-22 -2,-38 16,-62 18,-24 60,-26 60,-26 0,0 20,6 6,-2 -14,-8 4,-4 4,-4 0,0 -2,-6 6,4 8,10 4,34 8,64 4,30 10,70 24,96 14,26 92,80 92,80 l 34,42 z"
         id="path9213"
         style="fill:#753f00;fill-opacity:1;fill-rule:evenodd;stroke:#000000;stroke-width:1px;stroke-linecap:butt;stroke-linejoin:miter;stroke-opacity:1"
         inkscape:connector-curvature="0" /><path
         d="m 93.851901,511.60588 2.988983,-49.15966 c 0,0 8.966946,-41.71123 13.450416,-53.62873 0.41273,-11.33595 2.65757,-16.71317 2.65757,-16.71317 0,0 1.90721,-13.47887 4.81489,-17.54962 l 0.50023,-25.5079 c 1.16307,-4.83551 -2.00093,-9.88611 1.5758,-16.82469 0,-7.44844 -5.06501,-14.27551 -5.06501,-14.27551 0,0 -7.47245,-17.87624 -2.98898,-25.32468 4.48347,-7.44843 19.42837,-14.89686 31.38431,-14.89686 11.95592,0 46.32922,14.89686 73.23006,20.85561 26.90083,5.95875 29.88982,13.40718 35.86778,25.32468 5.97796,11.91749 17.93389,65.54621 28.39533,75.97402 10.46144,10.42781 11.95593,17.87624 44.83473,50.64935 32.8788,32.77311 59.77964,37.24217 59.77964,37.24217 l 19.42839,8.93812 22.41736,-11.91749 c 0,0 -59.77964,-16.38656 -68.74659,-34.2628 -8.96695,-17.87624 -43.34024,-81.93277 -43.34024,-81.93277 0,0 -4.48347,-26.81436 -5.97796,-46.18029 -1.4945,-19.36593 4.48347,-29.79374 4.48347,-29.79374 0,0 5.97797,31.28343 7.47246,46.18029 0.91295,25.36451 6.05306,40.54019 25.40634,68.5256 5.97797,2.97937 48.07384,33.49007 68.99671,53.77212 22.41737,11.91749 23.66174,20.71221 68.49646,41.56783 34.3733,8.93812 51.64435,15.15179 51.64435,15.15179 0,0 26.15049,8.38844 18.59674,41.45631 -10.46144,20.85561 -26.90084,23.83499 -19.42838,23.83499 l -20.92288,10.4278 -82.197,25.32468 -95.64744,-2.97938 -80.7025,-37.24216 -68.7466,-19.36593 -88.174965,-13.40718 z"
         id="path6934"
         style="fill:#803a00;fill-opacity:1;fill-rule:evenodd;stroke:#000000;stroke-width:1.00000012px;stroke-linecap:butt;stroke-linejoin:miter;stroke-opacity:1"
         inkscape:connector-curvature="0" /><path
         d="m 99.442567,580.15537 -10.467638,-55.82741 5.233819,-26.75063 c 0,0 30.821382,22.67989 36.636732,23.84296 5.81536,1.16307 43.03363,22.67988 43.03363,22.67988 0,0 34.31059,1.74461 42.45209,3.48921 8.1415,1.74461 31.40292,5.81536 41.28902,11.04918 9.8861,5.23382 45.9413,30.82138 52.33819,34.31059 6.39689,3.48921 45.94131,17.44607 61.06123,16.86453 15.11992,-0.58154 76.18115,0.58154 81.41497,-2.32614 5.23381,-2.90768 4.65228,-8.1415 22.09834,-15.70146 17.44607,-7.55996 40.70749,-13.37532 52.91973,-20.35374 12.21225,-6.97843 26.1691,-18.60914 28.49524,-18.60914 2.32614,0 4.07075,-2.32614 5.23382,1.74461 1.16307,4.07075 1.16307,25.58756 -3.48921,40.70748 -4.65229,15.11993 -41.28902,25.58756 -55.24587,30.82138 -13.95685,5.23382 -90.71954,19.77221 -92.46414,20.93528 -0.10904,0.0727 -2.03708,0.32711 -2.84748,0.38163 -0.8104,0.0545 -0.24113,-2.83323 -1.33534,-2.7878 -1.09421,0.0454 -9.74889,0.44627 -11.27698,0.47353 -1.5281,0.0273 -1.35419,2.73225 -3.03235,2.75042 -1.67816,0.0182 -19.94542,0.0182 -21.77805,0 -1.83263,-0.0182 0.19183,-2.21225 -1.56797,-2.23951 -1.7598,-0.0273 -7.17612,-0.6977 -8.81851,-0.73404 -1.64238,-0.0363 -0.40491,3.62685 -1.8853,3.58142 -1.48039,-0.0454 -12.44461,-1.35296 -13.17153,-1.42565 -0.72692,-0.0727 -4.16729,-0.644 -5.14523,-0.85186 -0.97793,-0.20785 -0.22277,-2.49058 -1.30321,-2.75835 -1.08044,-0.26777 -8.30544,-3.2185 -9.54489,-3.59076 -1.23946,-0.37226 -1.74464,2.936 -3.0406,2.51916 -1.29596,-0.41685 -14.86437,-5.30311 -16.23302,-5.84716 -1.36865,-0.54406 1.22848,-2.88708 -0.12001,-3.45016 -1.34849,-0.56308 -8.17534,-3.30575 -9.48834,-3.88274 -1.313,-0.577 -1.07169,2.79987 -2.33386,2.21408 -1.26217,-0.5858 -9.34517,-4.70595 -10.36286,-5.28749 -3.48921,-13.95684 -4.07074,-16.28299 -4.07074,-16.28299 0,0 -38.96288,-28.49524 -43.03363,-27.33217 -4.07075,1.16307 -17.44607,5.23382 -17.44607,5.23382 l -9.8861,-0.58153 v 6.97842 l -11.63071,15.11992 c 0,0 -0.22489,-0.0432 -0.64897,-0.12466 -0.42409,-0.0815 -1.04736,-0.20132 -1.84414,-0.35465 -0.79677,-0.15334 -1.76703,-0.34018 -2.8851,-0.5557 -1.11806,-0.21552 -2.38393,-0.45972 -3.77189,-0.72777 -1.38796,-0.26805 -2.89802,-0.55995 -4.50448,-0.87088 -1.60647,-0.31093 -3.30933,-0.64088 -5.0829,-0.98503 -1.77357,-0.34415 -3.61784,-0.7025 -5.50712,-1.07022 -1.88929,-0.36772 -0.34557,-3.67937 -2.29917,-4.061 -1.9536,-0.38164 -9.46956,-2.18075 -11.43607,-2.56664 -1.96652,-0.38589 0.52954,3.68469 -1.3985,3.30419 -1.92804,-0.3805 -6.21512,-0.86457 -8.05329,-1.23002 -1.83817,-0.36545 -3.61855,-0.72095 -5.31545,-1.0617 -1.6969,-0.34074 -3.31032,-0.66672 -4.81456,-0.9731 -1.50424,-0.30639 0.36132,-3.20168 -0.89886,-3.46405 -1.26019,-0.26237 -6.73299,-1.26114 -7.69772,-1.46984 -0.96473,-0.20871 -0.68201,2.98114 -1.29989,2.83576 -2.47153,-0.58154 -5.81536,-1.85364 -9.44087,-3.43469 -3.62551,-1.58105 -1.86355,-0.73421 -5.4618,-2.55151 -0.89956,-0.45432 0.22393,-2.2603 -0.26124,-2.38802 -0.48518,-0.12771 -3.04037,-1.2882 -3.37448,-1.35004 -0.33411,-0.0618 -1.13439,2.53174 -1.73183,2.20917 -2.38975,-1.29028 -13.458843,-8.18637 -13.458843,-8.18637 z"
         id="path7694"
         style="fill:#000000;fill-opacity:1;fill-rule:evenodd;stroke:#000000;stroke-width:1px;stroke-linecap:butt;stroke-linejoin:miter;stroke-opacity:1"
         inkscape:connector-curvature="0" /><g
         id="g15332"><g
           id="g14566"
           transform="translate(-2)"><path
             d="m 391.95187,522.67769 c -1.46524,-5.86096 33.70054,-48.35294 31.50268,-58.60963 -2.19787,-10.25668 -83.51872,20.51337 -90.84492,12.45455 -7.32621,-8.05882 2.19786,-24.17647 8.05882,-32.96791 5.86096,-8.79145 21.24599,-15.38503 19.78075,-24.17647 -1.46524,-8.79145 -7.32621,-9.52407 -12.45455,-10.25669 -5.12834,-0.73262 -70.33155,21.24599 -70.33155,21.24599 0,0 -35.16577,14.65241 -38.09626,0.73262 -2.93048,-13.91979 11.72193,-23.44385 11.72193,-23.44385 0,0 62.27273,-19.04813 67.40107,-27.10695 5.12834,-8.05883 7.3262,-16.11765 7.3262,-16.11765"
             id="path13804"
             style="fill:none;fill-opacity:0.75;fill-rule:evenodd;stroke:#000000;stroke-width:8.10000038;stroke-linecap:butt;stroke-linejoin:miter;stroke-miterlimit:4;stroke-opacity:1"
             inkscape:connector-curvature="0" /><path
             d="m 394.14973,521.94507 c 56.41177,-33.70053 57.87701,-35.16578 57.87701,-35.16578 0,0 4.39572,-10.9893 -2.93048,-10.9893 -7.32621,0 -80.58824,27.10695 -85.71658,26.37433 -5.12834,-0.73262 -8.05882,0 -5.12834,-5.86096 2.93048,-5.86096 36.63101,-54.94652 30.03743,-58.60963 -6.59358,-3.6631 -28.57219,-7.3262 -56.41176,2.93048 -27.83958,10.25669 -45.42246,30.77006 -37.36364,13.91979 8.05882,-16.85027 38.82888,-57.87701 38.82888,-57.87701 0,0 -94.50803,-0.73261 -97.43851,-7.3262 -2.93048,-6.59358 72.52942,-54.94652 71.79679,-71.79679"
             id="path13806"
             style="fill:none;fill-opacity:0.75;fill-rule:evenodd;stroke:#000000;stroke-width:8.69999981;stroke-linecap:butt;stroke-linejoin:miter;stroke-miterlimit:4;stroke-opacity:1"
             inkscape:connector-curvature="0" /></g><path
           d="m 321.62032,360.7686 c -1.46524,-2.93048 -88.64706,-8.05882 -88.64706,-21.24599 0,-13.18717 69.59893,-32.96791 69.59893,-32.96791"
           id="path14570"
           style="fill:none;fill-opacity:0.75;fill-rule:evenodd;stroke:#000000;stroke-width:8.10000038;stroke-linecap:butt;stroke-linejoin:miter;stroke-miterlimit:4;stroke-opacity:1"
           inkscape:connector-curvature="0" /></g><g
         id="g13789"><path
           d="m 400.0107,521.94507 c 0,5.26 -3.60806,9.52407 -8.05882,9.52407 -4.45077,0 -8.05883,-4.26407 -8.05883,-9.52407 0,-5.26 3.60806,-9.52407 8.05883,-9.52407 4.45076,0 8.05882,4.26407 8.05882,9.52407 z"
           id="path13009"
           style="fill:#b3b3b3;fill-opacity:1;fill-rule:evenodd;stroke:#505050;stroke-width:1.70000005;stroke-miterlimit:4;stroke-opacity:0.49729728"
           inkscape:connector-curvature="0" /><path
           d="m 369.97328,501.4317 c 0,5.26 -3.44406,9.52407 -7.69251,9.52407 -4.24846,0 -7.69252,-4.26407 -7.69252,-9.52407 0,-5.26 3.44406,-9.52407 7.69252,-9.52407 4.24845,0 7.69251,4.26407 7.69251,9.52407 z"
           id="path13011"
           style="fill:#b3b3b3;fill-opacity:1;fill-rule:evenodd;stroke:#505050;stroke-width:1.70000005;stroke-miterlimit:4;stroke-opacity:0.49729728"
           inkscape:connector-curvature="0" /><path
           d="m 336.27273,476.88892 c 0,5.05769 -3.77206,9.15776 -8.42513,9.15776 -4.65308,0 -8.42514,-4.10007 -8.42514,-9.15776 0,-5.05769 3.77206,-9.15776 8.42514,-9.15776 4.65307,0 8.42513,4.10007 8.42513,9.15776 z"
           id="path13013"
           style="fill:#b3b3b3;fill-opacity:1;fill-rule:evenodd;stroke:#505050;stroke-width:1.70000005;stroke-miterlimit:4;stroke-opacity:0.49729728"
           inkscape:connector-curvature="0" /><path
           d="m 301.83957,453.81137 c 0,4.85538 -3.28005,8.79145 -7.3262,8.79145 -4.04616,0 -7.32621,-3.93607 -7.32621,-8.79145 0,-4.85538 3.28005,-8.79145 7.32621,-8.79145 4.04615,0 7.3262,3.93607 7.3262,8.79145 z"
           id="path13015"
           style="fill:#b3b3b3;fill-opacity:1;fill-rule:evenodd;stroke:#505050;stroke-width:1.70000005;stroke-miterlimit:4;stroke-opacity:0.49729728"
           inkscape:connector-curvature="0" /><path
           d="m 249.82353,430.73383 c 0,8.69922 -3.77206,15.75134 -8.42513,15.75134 -4.65308,0 -8.42514,-7.05212 -8.42514,-15.75134 0,-8.69922 3.77206,-15.75134 8.42514,-15.75134 4.65307,0 8.42513,7.05212 8.42513,15.75134 z"
           id="path13017"
           style="fill:#b3b3b3;fill-opacity:1;fill-rule:evenodd;stroke:#505050;stroke-width:1.70000005;stroke-miterlimit:4;stroke-opacity:0.49729728"
           inkscape:connector-curvature="0" /><path
           d="m 246.16042,387.50925 c 0.004,4.65621 -3.44119,8.43317 -7.69251,8.43317 -4.25132,0 -7.69657,-3.77696 -7.69251,-8.43317 -0.004,-4.65621 3.44119,-8.43317 7.69251,-8.43317 4.25132,0 7.69657,3.77696 7.69251,8.43317 z"
           id="path13019"
           style="fill:#b3b3b3;fill-opacity:1;fill-rule:evenodd;stroke:#505050;stroke-width:1.70000005;stroke-miterlimit:4;stroke-opacity:0.49729728"
           inkscape:connector-curvature="0" /><path
           d="m 241.76471,335.49319 c 0,4.24846 -3.28005,7.69252 -7.3262,7.69252 -4.04616,0 -7.32621,-3.44406 -7.32621,-7.69252 0,-4.24846 3.28005,-7.69252 7.32621,-7.69252 4.04615,0 7.3262,3.44406 7.3262,7.69252 z"
           id="path13021"
           style="fill:#b3b3b3;fill-opacity:1;fill-rule:evenodd;stroke:#505050;stroke-width:1.70000005;stroke-miterlimit:4;stroke-opacity:0.49729728"
           inkscape:connector-curvature="0" /><path
           d="m 452.75935,479.08679 c 0.003,2.63172 -2.29418,4.76644 -5.12834,4.76644 -2.83416,0 -5.13097,-2.13472 -5.12834,-4.76644 -0.003,-2.63172 2.29418,-4.76644 5.12834,-4.76644 2.83416,0 5.13097,2.13472 5.12834,4.76644 z"
           id="path13023"
           style="fill:#b3b3b3;fill-opacity:1;fill-rule:evenodd;stroke:#505050;stroke-width:1.70000005;stroke-miterlimit:4;stroke-opacity:0.49729728"
           inkscape:connector-curvature="0" /><path
           d="m 419.79144,457.47449 c 0,2.42769 -1.80403,4.39573 -4.02941,4.39573 -2.22539,0 -4.02942,-1.96804 -4.02942,-4.39573 0,-2.42769 1.80403,-4.39573 4.02942,-4.39573 2.22538,0 4.02941,1.96804 4.02941,4.39573 z"
           id="path13025"
           style="fill:#b3b3b3;fill-opacity:1;fill-rule:evenodd;stroke:#505050;stroke-width:1.70000005;stroke-miterlimit:4;stroke-opacity:0.49729728"
           inkscape:connector-curvature="0" /><path
           d="m 389.754,436.59482 c 0,2.22538 -1.96803,4.02941 -4.39573,4.02941 -2.42769,0 -4.39572,-1.80403 -4.39572,-4.02941 0,-2.22538 1.96803,-4.02941 4.39572,-4.02941 2.4277,0 4.39573,1.80403 4.39573,4.02941 z"
           id="path13027"
           style="fill:#b3b3b3;fill-opacity:1;fill-rule:evenodd;stroke:#505050;stroke-width:1.70000005;stroke-miterlimit:4;stroke-opacity:0.49729728"
           inkscape:connector-curvature="0" /><path
           d="m 360.4492,410.58679 c 0.002,2.02445 -1.63865,3.66663 -3.6631,3.66663 -2.02445,0 -3.66505,-1.64218 -3.6631,-3.66663 -0.002,-2.02445 1.63865,-3.66663 3.6631,-3.66663 2.02445,0 3.66505,1.64218 3.6631,3.66663 z"
           id="path13029"
           style="fill:#b3b3b3;fill-opacity:1;fill-rule:evenodd;stroke:#505050;stroke-width:1.70000005;stroke-miterlimit:4;stroke-opacity:0.49729728"
           inkscape:connector-curvature="0" /></g><path
         d="m 308.43316,305.82208 c 0,0 -19.04813,-2.19787 -26.37434,-0.73262 -7.3262,1.46524 -19.78075,13.18716 -19.78075,19.04812 0,5.86097 1.46525,13.91979 5.12835,16.11765 3.6631,2.19786 16.85026,1.46524 19.04813,-4.39572 2.19786,-5.86096 15.38502,-13.91979 19.04812,-20.51337 3.66311,-6.59358 16.11765,-19.04813 22.71123,-24.17647 6.59359,-5.12834 15.38503,-8.79144 19.78075,-2.93048 4.39572,5.86096 15.38503,6.59358 13.91979,16.85027 -1.46524,10.25668 5.12834,16.11764 -5.12834,15.38502 -10.25669,-0.73262 -8.05883,-5.12834 -17.58289,-8.79144 -9.52407,-3.6631 -19.78075,-3.6631 -25.64171,-5.12834 -5.86097,-1.46524 -12.45455,2.93048 -5.12834,-0.73262 z"
         id="path15338"
         style="fill:none;fill-opacity:0.75;fill-rule:evenodd;stroke:#000000;stroke-width:8.10000038;stroke-linecap:butt;stroke-linejoin:miter;stroke-miterlimit:4;stroke-opacity:1"
         inkscape:connector-curvature="0" /><path
         d="m 318.68984,302.89159 c -0.73262,2.93049 -7.3262,-5.86096 -7.3262,-5.86096 l 8.79144,-13.91978 13.91979,-5.86097 5.12834,-2.19786"
         id="path15340"
         style="fill:none;fill-opacity:0.75;fill-rule:evenodd;stroke:#000000;stroke-width:8.10000038;stroke-linecap:butt;stroke-linejoin:miter;stroke-miterlimit:4;stroke-opacity:1"
         inkscape:connector-curvature="0" /><path
         d="m 303.30481,307.28732 18.31551,16.11764 1.46524,18.31551"
         id="path17622"
         style="fill:none;fill-opacity:0.75;fill-rule:evenodd;stroke:#000000;stroke-width:8.10000038;stroke-linecap:butt;stroke-linejoin:miter;stroke-miterlimit:4;stroke-opacity:1"
         inkscape:connector-curvature="0" /></g></g></svg>