<?xml version="1.0"?>
<svg xmlns:rdf="http://www.w3.org/1999/02/22-rdf-syntax-ns#" xmlns="http://www.w3.org/2000/svg" xmlns:cc="http://creativecommons.org/ns#" xmlns:xlink="http://www.w3.org/1999/xlink" xmlns:dc="http://purl.org/dc/elements/1.1/" xmlns:svg="http://www.w3.org/2000/svg" id="svg5520" viewBox="0 0 668 692" version="1.0">
  <defs id="defs5522">
    <filter id="filter5389">
      <feGaussianBlur id="feGaussianBlur5391" stdDeviation="0.080260832"/>
    </filter>
    <filter id="filter5115">
      <feGaussianBlur id="feGaussianBlur5117" stdDeviation="0.06950493"/>
    </filter>
    <linearGradient id="linearGradient5119">
      <stop id="stop5121" offset="0"/>
      <stop id="stop5123" stop-opacity="0" offset="1"/>
    </linearGradient>
    <filter id="filter5073">
      <feGaussianBlur id="feGaussianBlur5075" stdDeviation="0.052773018"/>
    </filter>
    <filter id="filter4943">
      <feGaussianBlur id="feGaussianBlur4945" stdDeviation="0.10492554"/>
    </filter>
    <filter id="filter4875">
      <feGaussianBlur id="feGaussianBlur4877" stdDeviation="0.083783289"/>
    </filter>
    <filter id="filter5203">
      <feGaussianBlur id="feGaussianBlur5205" stdDeviation="0.14911291"/>
    </filter>
    <filter id="filter4358" y="-.10043" width="1.0477" x="-.02387" height="1.2009">
      <feGaussianBlur id="feGaussianBlur4360" stdDeviation="0.139889"/>
    </filter>
    <filter id="filter4332">
      <feGaussianBlur id="feGaussianBlur4334" stdDeviation="0.079515375"/>
    </filter>
    <filter id="filter4009">
      <feGaussianBlur id="feGaussianBlur4011" stdDeviation="0.15094464"/>
    </filter>
    <linearGradient id="linearGradient3969">
      <stop id="stop3971" stop-color="#4d4d4d" offset="0"/>
      <stop id="stop3973" stop-color="#4d4d4d" stop-opacity="0" offset="1"/>
    </linearGradient>
    <filter id="filter3954">
      <feGaussianBlur id="feGaussianBlur3956" stdDeviation="0.14602923"/>
    </filter>
    <filter id="filter3936">
      <feGaussianBlur id="feGaussianBlur3938" stdDeviation="0.19096396"/>
    </filter>
    <filter id="filter3840">
      <feGaussianBlur id="feGaussianBlur3842" stdDeviation="0.29143607"/>
    </filter>
    <filter id="filter4286">
      <feGaussianBlur id="feGaussianBlur4288" stdDeviation="0.18001918"/>
    </filter>
    <linearGradient id="linearGradient4224">
      <stop id="stop4226" stop-color="#fff" offset="0"/>
      <stop id="stop4228" stop-color="#4d4d4d" stop-opacity="0" offset="1"/>
    </linearGradient>
    <filter id="filter3888" y="-.024362" width="2.4536" x="-.72679" height="1.0487">
      <feGaussianBlur id="feGaussianBlur3890" stdDeviation="0.15719063"/>
    </filter>
    <linearGradient id="linearGradient3892">
      <stop id="stop3894" stop-color="#fff" offset="0"/>
      <stop id="stop3896" stop-color="#fff" stop-opacity="0" offset="1"/>
    </linearGradient>
    <filter id="filter4049">
      <feGaussianBlur id="feGaussianBlur4051" stdDeviation="0.28665188"/>
    </filter>
    <filter id="filter4715" y="-.13305" width="1.1195" x="-.059726" height="1.2661">
      <feGaussianBlur id="feGaussianBlur4717" stdDeviation="2.3861645"/>
    </filter>
    <radialGradient id="radialGradient2650" gradientUnits="userSpaceOnUse" cy="238.35" cx="985.76" gradientTransform="matrix(1.1641 -1.9754 2.046 1.2058 -614.23 1863.9)" r="11.035">
      <stop id="stop4027" stop-color="#fff" offset="0"/>
      <stop id="stop4029" stop-color="#fff" stop-opacity="0" offset="1"/>
    </radialGradient>
    <linearGradient id="linearGradient2652" x1="1002.9" xlink:href="#linearGradient3892" gradientUnits="userSpaceOnUse" x2="1002.9" y1="233.49" y2="218.97"/>
    <linearGradient id="linearGradient2654" x1="991.58" xlink:href="#linearGradient4224" gradientUnits="userSpaceOnUse" y1="219.12" gradientTransform="translate(16.514 -35.636)" x2="992.39" y2="214.7"/>
    <linearGradient id="linearGradient2656" x1="1002.8" xlink:href="#linearGradient3892" gradientUnits="userSpaceOnUse" y1="215.93" gradientTransform="translate(16.514 -35.636)" x2="1003.1" y2="223.38"/>
    <linearGradient id="linearGradient2660" x1="991.58" xlink:href="#linearGradient4224" gradientUnits="userSpaceOnUse" y1="219.12" gradientTransform="translate(30.258 -36.49)" x2="992.39" y2="214.7"/>
    <linearGradient id="linearGradient2666" x1="991.1" xlink:href="#linearGradient3969" gradientUnits="userSpaceOnUse" y1="208.36" gradientTransform="translate(16.514 -35.636)" x2="991.1" y2="220.49"/>
    <linearGradient id="linearGradient2670" x1="991.1" xlink:href="#linearGradient3969" gradientUnits="userSpaceOnUse" y1="208.36" gradientTransform="translate(22.384 -.58596)" x2="991.1" y2="220.49"/>
    <linearGradient id="linearGradient2672" x1="999.14" gradientUnits="userSpaceOnUse" y1="206.81" gradientTransform="translate(17.482 -35.69)" x2="1003" y2="213.36">
      <stop id="stop4364" stop-color="#b3b3b3" offset="0"/>
      <stop id="stop4366" stop-color="#fff" offset="1"/>
    </linearGradient>
    <linearGradient id="linearGradient2674" y2="164.62" gradientUnits="userSpaceOnUse" y1="170.13" x2="1006.1" x1="1006.7">
      <stop id="stop5135" stop-color="#7f7f7f" stop-opacity="0" offset="0"/>
      <stop id="stop5137" offset="1"/>
    </linearGradient>
    <linearGradient id="linearGradient2680" y2="165.69" gradientUnits="userSpaceOnUse" y1="170.63" x2="1013" x1="1015.5">
      <stop id="stop4893" stop-color="#333" offset="0"/>
      <stop id="stop4895" stop-color="#fff" stop-opacity="0" offset="1"/>
    </linearGradient>
    <linearGradient id="linearGradient2686" y2="169.45" gradientUnits="userSpaceOnUse" y1="174.22" x2="1015.7" x1="1019.5">
      <stop id="stop4951" offset="0"/>
      <stop id="stop4953" stop-opacity="0" offset="1"/>
    </linearGradient>
    <linearGradient id="linearGradient2688" y2="174.3" gradientUnits="userSpaceOnUse" y1="166.91" x2="1017.1" x1="1027.7">
      <stop id="stop4817" stop-color="#333" offset="0"/>
      <stop id="stop4819" stop-color="#ccc" offset="1"/>
    </linearGradient>
    <linearGradient id="linearGradient2690" y2="174.4" gradientUnits="userSpaceOnUse" y1="164.83" x2="1025.1" x1="1036.5">
      <stop id="stop4809" stop-color="#ccc" offset="0"/>
      <stop id="stop4811" stop-color="#fff" offset="1"/>
    </linearGradient>
    <linearGradient id="linearGradient2692" x1="1004.5" xlink:href="#linearGradient5119" gradientUnits="userSpaceOnUse" x2="1008.6" y1="162.97" y2="162.04"/>
    <linearGradient id="linearGradient2694" x1="1006.5" xlink:href="#linearGradient5119" gradientUnits="userSpaceOnUse" y1="161.72" gradientTransform="translate(22.425 .71760)" x2="1008.2" y2="163.86"/>
    <linearGradient id="linearGradient2696" y2="171.9" gradientUnits="userSpaceOnUse" y1="164.11" x2="1032.4" x1="1031.8">
      <stop id="stop5295" stop-color="#fff" offset="0"/>
      <stop id="stop5297" stop-color="#fff" stop-opacity="0" offset="1"/>
    </linearGradient>
    <linearGradient id="linearGradient2706" x1="1020.7" gradientUnits="userSpaceOnUse" y1="173.07" gradientTransform="matrix(15.815 0 0 15.815 -15731 -2436.6)" x2="1027" y2="173.07">
      <stop id="stop5399" stop-color="#ccc" offset="0"/>
      <stop id="stop5401" stop-color="#191919" offset="1"/>
    </linearGradient>
    <radialGradient id="radialGradient2709" gradientUnits="userSpaceOnUse" cy="205.93" cx="999.93" gradientTransform="matrix(55.986 25.92 -51.367 110.96 -45063 -48503)" r="2.8655">
      <stop id="stop4803" stop-color="#fff" offset="0"/>
      <stop id="stop4805" offset="1"/>
    </radialGradient>
    <linearGradient id="linearGradient2714" x1="1012.3" gradientUnits="userSpaceOnUse" y1="172.48" gradientTransform="matrix(15.815 0 0 15.815 -15731 -2436.6)" x2="1006.7" y2="174.09">
      <stop id="stop2957" stop-color="#b3b3b3" offset="0"/>
      <stop id="stop2959" stop-color="#fff" offset="1"/>
    </linearGradient>
    <radialGradient id="radialGradient2717" gradientUnits="userSpaceOnUse" cy="209.14" cx="990.44" gradientTransform="matrix(-28.792 -35.184 33.772 -27.637 21787 40907)" r="5.838">
      <stop id="stop4206" stop-color="#fff" offset="0"/>
      <stop id="stop4208" stop-color="#b3b3b3" offset="1"/>
    </radialGradient>
    <linearGradient id="linearGradient2726" x1="990.99" gradientUnits="userSpaceOnUse" y1="237.27" gradientTransform="matrix(15.815 0 0 15.815 -15470 -3000.2)" x2="991.81" y2="232.99">
      <stop id="stop4017" offset="0"/>
      <stop id="stop4019" stop-opacity="0" offset="1"/>
    </linearGradient>
    <radialGradient id="radialGradient2730" gradientUnits="userSpaceOnUse" cy="164.89" cx="1006.3" gradientTransform="matrix(15.657 27.812 -42.83 24.111 -8504.3 -31809)" r="5.4729">
      <stop id="stop4825" stop-color="#333" offset="0"/>
      <stop id="stop4827" stop-color="#efefef" offset="1"/>
    </radialGradient>
    <linearGradient id="linearGradient2733" x1="1007.9" gradientUnits="userSpaceOnUse" y1="210.21" gradientTransform="matrix(15.815 0 0 15.815 -15470 -3000.2)" x2="1020" y2="235.48">
      <stop id="stop4306" stop-color="#e6e6e6" offset="0"/>
      <stop id="stop4308" stop-color="#666" offset="1"/>
    </linearGradient>
    <linearGradient id="linearGradient2738" x1="994.01" gradientUnits="userSpaceOnUse" y1="235.88" gradientTransform="matrix(15.815 0 0 15.815 -15470 -3000.2)" x2="996.02" y2="216.38">
      <stop id="stop3960" stop-color="#fff" offset="0"/>
      <stop id="stop3962" stop-color="#e6e6e6" offset="1"/>
    </linearGradient>
  </defs>
  <g id="layer1" transform="translate(-20.219 -117.73)">
    <path id="path4665" opacity=".75581" d="m1281.8 669.91l53.2 20.64 42.7-29.39-53.2-13.65-42.7 22.4z" fill-rule="evenodd" transform="matrix(6.968 0 0 7.1641 -8911.7 -4137.4)" filter="url(#filter4715)"/>
    <path id="path3105" fill-rule="evenodd" fill="#500" d="m38.852 368.18v277.03l354.81 128.85 273.95-183.15v-263.18l-281.65 149.29-347.11-108.84z"/>
    <path id="path3107" opacity=".52536" d="m997.28 194.51l22.12 8.26v-17.07l-22.12-6.72v15.53z" fill-rule="evenodd" transform="matrix(15.815 0 0 15.815 -15731 -2436.6)" filter="url(#filter4049)" fill="url(#radialGradient2650)"/>
    <rect id="rect3109" opacity=".52174" transform="matrix(18.002 0 0 18.002 -17663 -3520.4)" height="15.805" filter="url(#filter3888)" width=".43929" y="222.42" x="1002.7" fill="url(#linearGradient2652)"/>
    <path id="path3111" fill="#500" d="m319.5 219.77l355.65 56.07-0.87 95.52-279.89 141.64-360.74-110.9 0.584-97.65 285.27-84.68z"/>
    <path id="path3113" opacity=".5" d="m996.92 175.07l0.09 4.36 22.19 6.9 0.1-5.08-22.38-6.18z" fill-rule="evenodd" transform="matrix(15.815 0 0 15.815 -15731 -2436.6)" filter="url(#filter4286)" fill="url(#linearGradient2654)"/>
    <path id="path3115" d="m997.08 173.49l22.42 5.94 17.5-7.69v0.46l-17.3 7.67-0.1 6.23h-0.5v-6.23l-21.99-5.85-0.03-0.53z" fill-rule="evenodd" transform="matrix(15.815 0 0 15.815 -15731 -2436.6)" filter="url(#filter3840)" fill="url(#linearGradient2656)"/>
    <path id="path3117" filter="url(#filter3936)" fill-rule="evenodd" transform="matrix(15.815 0 0 15.815 -15731 -2436.6)" d="m1023.9 170.19l-18.3 5.78-0.2 21.61 4.6 1.87 0.2-22.15 18.7-7.08-5-0.03z"/>
    <path id="path3119" fill-rule="evenodd" fill="url(#linearGradient2738)" d="m467.13 243.06l-296.48 97.89-4.41 351.7 73.66 26.47 3.71-357.02 297.45-107.8-73.93-11.24z"/>
    <path id="path3121" opacity=".5" d="m1014.7 176.33l0.4 4.61 17.8 4.54 0.1-5.09-18.3-4.06z" fill-rule="evenodd" transform="matrix(-15.815 3.8478 0 15.815 16726 -6396.6)" filter="url(#filter4286)" fill="url(#linearGradient2660)"/>
    <path id="path3123" filter="url(#filter3954)" fill-rule="evenodd" transform="matrix(15.815 0 0 15.815 -15731 -2436.6)" d="m1005.3 170.83l21.8 5.57v21.42l4.2-2.82-0.2-20.54-21.6-4.75-4.2 1.12z"/>
    <path id="path3125" fill-rule="evenodd" fill="url(#linearGradient2733)" d="m168.16 264.43l347.16 86.04-1.31 343.43 65.88-44.22-1.13-329.87-342.1-76.34-68.5 20.96z"/>
    <path id="path3127" fill-rule="evenodd" fill="url(#radialGradient2730)" d="m244.01 172.71s3.45 28.5 23.26 54.73c9.4 12.45 45.83 33.52 45.83 33.52l19.85 23.94s-20.53 6.85-30.79 5.48-61.17-16.14-80.32-27.09c-19.16-10.94-53.36-49.52-55.42-58.42-2.05-8.89-11.5-32.01-3.29-47.07 8.21-15.05 24.1-22.03 28.89-22.72 4.79-0.68 49.94 22.58 49.94 22.58l2.05 15.05z"/>
    <path id="path3129" opacity=".59058" d="m1005.6 175.93l4.2 1.02-0.3 11.59-4-3.55 0.1-9.06z" fill-rule="evenodd" transform="matrix(15.815 0 0 15.815 -15731 -2436.6)" filter="url(#filter4009)" fill="url(#linearGradient2666)"/>
    <path id="path3131" fill-rule="evenodd" fill="url(#linearGradient2726)" d="m168.62 651.7l-1.18 39.97 71.34 25.75 0.59-44.11-70.75-21.61z"/>
    <path id="path3133" opacity=".67391" d="m1011.5 210.58l4.1 1.82-0.2 11.19-4-3.55 0.1-9.46z" fill-rule="evenodd" transform="matrix(-13.1 0 0 13.1 13829 -2431.5)" filter="url(#filter4009)" fill="url(#linearGradient2670)"/>
    <g id="g3135" transform="matrix(15.741 1.5274 -1.5274 15.741 -15388 -3975.6)" fill-rule="evenodd">
      <path id="path3137" opacity=".9529" filter="url(#filter4332)" d="m1015 173.21s1.9-0.14 2.2 0.99-0.6 2.48 1.8 4.67c0.7-0.36 0.7-1.06 0.7-1.06l1.9 0.77s-1.5-2.19-1.5-3.11c0-0.91 0.2-2.05-0.4-2.4-0.7-0.35-3.8-0.35-3.8-0.35l-0.9 0.49z"/>
      <path id="path3139" fill="url(#linearGradient2672)" d="m1015.1 173.08s1.9-0.14 2.2 0.99-0.6 2.47 1.8 4.66c0.7-0.35 0.7-1.06 0.7-1.06l1.9 0.78s-1.5-2.19-1.5-3.11 0.2-2.05-0.4-2.4c-0.7-0.36-3.8-0.36-3.8-0.36l-0.9 0.5z"/>
    </g>
    <path id="path3141" filter="url(#filter4358)" fill-rule="evenodd" transform="matrix(15.815 0 0 15.815 -15731 -2436.6)" d="m1010.4 171.77s-1.8 0.92-2.7 1.2c-0.8 0.28-5.5-0.07-5.5-0.07l2.4 0.78-0.6 1.41s3.5 0.04 4.8-0.14c1.9-0.26 2.5-1.77 5.1-1.84 1.6-0.04 2.4 0.14 2.4 0.14s-2.1-1.69-5.9-1.48z"/>
    <path id="path3143" d="m1008.6 163.52s-1.1-0.63-1.5-0.63c-0.5 0-2 0.58-2.1 1.36-0.2 0.79-0.4 2.42 0.3 3.36 0.8 0.95 1.9 1.94 1.9 1.94s-1.7-3.16-1-4.61c0.8-1.59 2.4-1.42 2.4-1.42z" fill-rule="evenodd" transform="matrix(15.815 0 0 15.815 -15731 -2436.6)" filter="url(#filter5203)" fill="url(#linearGradient2674)"/>
    <path id="path3145" fill-rule="evenodd" fill="url(#radialGradient2717)" d="m232.25 117.91c-29.76 2.09-61.2 23.06-71.66 41.02-13.95 23.95 8.02 67.13 40.3 92.09 44.25 34.2 110.44 35.47 110.44 35.47 0-1.03 43.23 11.95 25.7-38.6-25.18-72.57-42.19-108.02-76.11-125.04-8.69-4.36-18.75-5.64-28.67-4.94zm-41.62 28.34c30.19-9.41 49.04 31.59 62.38 48.27 16.42 20.52 57.82 81.05 57.82 81.05l8.4 10.87s-4.57 0.08-50.41-10.87c-45.83-10.95-78.79-42-80.16-44.74-27.31-32.41-35.35-72.42 1.97-84.58z"/>
    <path id="path3147" fill-rule="evenodd" fill="url(#linearGradient2714)" d="m253.71 276.38s-29.07 14.53-42.48 19-87.19-1.12-87.19-1.12l38.01 12.3-10.07 22.35s55.74 0.55 76.02-2.23c29.92-4.1 39.12-27.95 80.48-29.07 24.81-0.67 38.01 2.24 38.01 2.24s-33.54-26.83-92.78-23.47z"/>
    <path id="path3149" filter="url(#filter4875)" fill-rule="evenodd" transform="matrix(15.815 0 0 15.815 -15731 -2436.6)" d="m1019.9 171.39s-3.1-1.43-3.8-1.43-1.9 1.37-1.5 2.21c0.3 0.85 2.8 1.44 3.6 1.44 0.7-0.18 1.3-0.4 2-0.72 0-0.45-0.3-1.5-0.3-1.5z"/>
    <path id="path3151" d="m1011.9 167.01l2.8 4.38 1.4-1.04s-1.4-3.13-2.2-4.52-1.3-2.02-1.3-2.02 1.2 2.92 0.9 3.48-1.5-0.28-1.6-0.28z" fill-rule="evenodd" transform="matrix(15.815 0 0 15.815 -15731 -2436.6)" filter="url(#filter4943)" fill="url(#linearGradient2680)"/>
    <path id="path3153" fill-rule="evenodd" fill="url(#radialGradient2709)" d="m398.03 272.81c-4.89-4.12-49.56-24.03-60.91-24.03s-29.91 21.66-24.76 35.07c5.16 13.41 45.39 22.7 57.77 22.7 11.03-2.83 21.05-6.33 31.98-11.35 0-7.22 2.15-15.29-4.08-22.39z"/>
    <path id="path3155" fill-rule="evenodd" fill="url(#linearGradient2706)" d="m379.46 306.11s35.54 13.03 57.43 16.45 66.4 10.92 77.35 6.81c10.94-4.1 70.46-16.42 78.67-29.41 8.21-13-43.78-15.06-43.78-15.06s-29.42 18.48-49.95 19.84c-20.52 1.37-80.72-12.99-80.72-12.99l-38.31 10.26-0.69 4.1z"/>
    <path id="path3157" d="m1015.6 169.98s0.4-0.17 0.7-0.07c0.4 0.13 0.7 0.18 1.6 0.57 1 0.43 1.7 0.76 1.8 0.81 0.5 0.48 0.1 0.98 0.2 1.54-0.4 0.17-1.4 0.51-1.6 0.54-0.7-0.65 0.1-1.76 1.1-1.84-0.2-0.22-1.2-0.73-1.5-0.85-0.8-0.33-1.7-0.65-1.7-0.65s-0.9-0.11-1.3 0.61c0.1-0.36 0.7-0.7 0.7-0.66z" fill-rule="evenodd" transform="matrix(15.815 0 0 15.815 -15731 -2436.6)" filter="url(#filter5073)" fill="url(#linearGradient2686)"/>
    <g id="g3159" transform="matrix(15.815 0 0 15.815 -15731 -2436.6)" fill-rule="evenodd">
      <path id="path3161" fill="url(#linearGradient2688)" d="m1019 173.12l2.1-0.52s3.5-2.94 3.9-3.12c2-1.64 4.5-2.25 6.5-1.51 0 0-0.2-2.64-0.9-2.98-0.7-0.35-2.6-0.61-2.6-0.61s-2.6 1.73-2.9 2.03-4.7 4.63-4.7 4.63l-1.3 1.62-0.3 0.56 0.2-0.1z"/>
      <path id="path3163" fill="url(#linearGradient2690)" d="m1029.8 163.55c-3.4 0.22-10 8.06-10.4 8.49s-1 1.37-1 1.32 4.3 1.88 7.9 1.66 8.2-2.41 8.6-5.54c0.6-3.6-1.8-6.14-5.1-5.93zm-2.3 1.49c1.1-0.2 3.5-0.22 3.1 3.42-0.3 2.25-1.9 5.82-5.2 6-3.3 0.17-6.6-1.27-6.6-1.31 0 0 5.3-5.61 5.6-5.79 0.2-0.17 1.8-2 3.1-2.32z"/>
    </g>
    <path id="path3165" opacity=".55797" d="m1004.7 164.66c-0.1-0.82 1.5-2.01 2.9-2.53 1.3-0.53 3-0.36 3-0.36s-1.5 0.67-2.1 1.12c-1.2-0.12-2.4 0.41-2.4 0.41s-0.7 0.28-1.4 1.36z" fill-rule="evenodd" transform="matrix(15.815 0 0 15.815 -15731 -2436.6)" filter="url(#filter5115)" fill="url(#linearGradient2692)"/>
    <path id="path3167" opacity=".55797" d="m1026.8 165.52c0.8-1.14 1.3-1.64 2.9-2.13 1.4-0.42 3.8 0.67 3.8 0.67s-1.3 1.37-1.9 1.83c-0.7-0.94-2.5-1.22-2.5-1.22s-1.1-0.15-2.3 0.85z" fill-rule="evenodd" transform="matrix(15.416 3.5311 -3.5311 15.416 -14738 -6002.9)" filter="url(#filter5115)" fill="url(#linearGradient2694)"/>
    <path id="path3169" d="m1030.8 165.7s0.7 1.76 0.3 3.24-1 2.36-1 2.36 2 0.38 3-0.05c1-0.44 1.5-1.27 1.5-1.27s0.5-2.47-0.1-3.62-1.4-1.43-1.4-1.43-1.4 0-2.3 0.77z" fill-rule="evenodd" transform="matrix(15.815 0 0 15.815 -15731 -2436.6)" filter="url(#filter5389)" fill="url(#linearGradient2696)"/>
  </g>
  <metadata>
    <rdf:RDF>
      <cc:Work>
        <dc:format>image/svg+xml</dc:format>
        <dc:type rdf:resource="http://purl.org/dc/dcmitype/StillImage"/>
        <cc:license rdf:resource="http://creativecommons.org/licenses/publicdomain/"/>
        <dc:publisher>
          <cc:Agent rdf:about="http://openclipart.org/">
            <dc:title>Openclipart</dc:title>
          </cc:Agent>
        </dc:publisher>
        <dc:title>chocolate present</dc:title>
        <dc:date>2009-09-24T23:42:21</dc:date>
        <dc:description>Brown present.</dc:description>
        <dc:source>http://openclipart.org/detail/27531/chocolate-present-by-secretlondon</dc:source>
        <dc:creator>
          <cc:Agent>
            <dc:title>secretlondon</dc:title>
          </cc:Agent>
        </dc:creator>
        <dc:subject>
          <rdf:Bag>
            <rdf:li>bow</rdf:li>
            <rdf:li>brown</rdf:li>
            <rdf:li>chocolate</rdf:li>
            <rdf:li>christmas</rdf:li>
            <rdf:li>clip art</rdf:li>
            <rdf:li>clipart</rdf:li>
            <rdf:li>gift</rdf:li>
            <rdf:li>image</rdf:li>
            <rdf:li>media</rdf:li>
            <rdf:li>present</rdf:li>
            <rdf:li>public domain</rdf:li>
            <rdf:li>remix</rdf:li>
            <rdf:li>svg</rdf:li>
          </rdf:Bag>
        </dc:subject>
      </cc:Work>
      <cc:License rdf:about="http://creativecommons.org/licenses/publicdomain/">
        <cc:permits rdf:resource="http://creativecommons.org/ns#Reproduction"/>
        <cc:permits rdf:resource="http://creativecommons.org/ns#Distribution"/>
        <cc:permits rdf:resource="http://creativecommons.org/ns#DerivativeWorks"/>
      </cc:License>
    </rdf:RDF>
  </metadata>
</svg>
