<?xml version="1.0" encoding="UTF-8" standalone="no"?>
<!-- Created with Inkscape (http://www.inkscape.org/) -->

<svg
   xmlns:dc="http://purl.org/dc/elements/1.1/"
   xmlns:cc="http://creativecommons.org/ns#"
   xmlns:rdf="http://www.w3.org/1999/02/22-rdf-syntax-ns#"
   xmlns:svg="http://www.w3.org/2000/svg"
   xmlns="http://www.w3.org/2000/svg"
   xmlns:sodipodi="http://sodipodi.sourceforge.net/DTD/sodipodi-0.dtd"
   xmlns:inkscape="http://www.inkscape.org/namespaces/inkscape"
   id="svg2"
   sodipodi:docname="S2000g.svg"
   viewBox="0 0 16 11"
   version="1.1"
   inkscape:version="0.92.3 (2405546, 2018-03-11)"
   width="16"
   height="11">
  <defs
     id="defs4">
    <filter
       id="filter3680"
       height="1.3818001"
       width="1.3818001"
       y="-0.19091"
       x="-0.19091"
       inkscape:collect="always"
       style="color-interpolation-filters:sRGB">
      <feGaussianBlur
         id="feGaussianBlur3682"
         stdDeviation="0.32141218"
         inkscape:collect="always" />
    </filter>
  </defs>
  <sodipodi:namedview
     id="base"
     bordercolor="#666666"
     inkscape:pageshadow="2"
     inkscape:window-y="-8"
     pagecolor="#ffffff"
     inkscape:window-height="987"
     inkscape:window-maximized="1"
     inkscape:zoom="47.552931"
     inkscape:window-x="-8"
     showgrid="true"
     borderopacity="1.0"
     inkscape:current-layer="layer1"
     inkscape:cx="12.127671"
     inkscape:cy="6.2707839"
     inkscape:window-width="1680"
     showborder="false"
     inkscape:pageopacity="0.0"
     inkscape:document-units="px"
     inkscape:pagecheckerboard="false">
    <inkscape:grid
       type="xygrid"
       id="grid907" />
  </sodipodi:namedview>
  <g
     id="layer1"
     inkscape:label="Layer 1"
     inkscape:groupmode="layer"
     transform="translate(-219.14,-732.22999)">
    <rect
       x="219.17857"
       y="732.26855"
       width="15.922884"
       height="10.922127"
       ry="0.29375076"
       rx="0.31615964"
       style="fill:#ecece9;stroke:#000000;stroke-width:0.07712828"
       id="rect2830" />
    <path
       inkscape:connector-curvature="0"
       d="m 221.93752,733.33645 c -0.85985,0 -1.55171,0.644 -1.55171,1.44287 0,0.79891 0.69186,1.44173 1.55171,1.44173 h 13.16426 v -2.8846 z"
       style="fill:none;stroke:#000000;stroke-width:0.07712828;stroke-linejoin:round"
       id="rect2832" />
    <path
       inkscape:connector-curvature="0"
       d="m 221.79414,733.73732 v 2.08313 h 13.30764 v -2.08313 z"
       style="fill:none;stroke:#000000;stroke-width:0.07712828;stroke-linejoin:round"
       id="rect2834" />
    <path
       inkscape:connector-curvature="0"
       d="m 226.30797,736.80864 c -0.25476,0 -0.46022,0.18973 -0.46022,0.42644 0,0.23671 0.20547,0.4276 0.46022,0.4276 h 1.19333 v -0.85404 z"
       style="fill:#666666;stroke:#000000;stroke-width:0.07712828;stroke-linejoin:round"
       id="path2956" />
    <path
       inkscape:connector-curvature="0"
       d="m 227.96015,736.80864 v 0.85404 h 1.60327 v -0.85404 z"
       style="fill:#666666;stroke:#000000;stroke-width:0.07712828;stroke-linejoin:round"
       id="path2954" />
    <path
       inkscape:connector-curvature="0"
       d="m 229.92111,736.80864 v 0.85404 h 1.60326 v -0.85404 z"
       style="fill:#666666;stroke:#000000;stroke-width:0.07712828;stroke-linejoin:round"
       id="path2952" />
    <path
       inkscape:connector-curvature="0"
       d="m 231.98328,736.80864 v 0.85404 h 1.19333 c 0.25476,0 0.45897,-0.1909 0.45897,-0.4276 0,-0.23671 -0.20421,-0.42644 -0.45897,-0.42644 z"
       style="fill:#666666;stroke:#000000;stroke-width:0.07712828;stroke-linejoin:round"
       id="path2950" />
    <path
       inkscape:connector-curvature="0"
       d="m 226.30797,738.02373 c -0.25476,0 -0.46022,0.18973 -0.46022,0.42644 0,0.23671 0.20547,0.4276 0.46022,0.4276 h 1.19333 v -0.85404 z"
       style="fill:#666666;stroke:#000000;stroke-width:0.07712828;stroke-linejoin:round"
       id="path2948" />
    <path
       inkscape:connector-curvature="0"
       d="m 227.96015,738.02373 v 0.85404 h 1.60327 v -0.85404 z"
       style="fill:#666666;stroke:#000000;stroke-width:0.07712828;stroke-linejoin:round"
       id="path2946" />
    <path
       inkscape:connector-curvature="0"
       d="m 229.92111,738.02373 v 0.85404 h 1.60326 v -0.85404 z"
       style="fill:#666666;stroke:#000000;stroke-width:0.07712828;stroke-linejoin:round"
       id="path2944" />
    <path
       inkscape:connector-curvature="0"
       d="m 231.98328,738.02373 v 0.85404 h 1.19333 c 0.25476,0 0.45897,-0.1909 0.45897,-0.4276 0,-0.23671 -0.20421,-0.42644 -0.45897,-0.42644 z"
       style="fill:#666666;stroke:#000000;stroke-width:0.07712828;stroke-linejoin:round"
       id="path2942" />
    <path
       inkscape:connector-curvature="0"
       d="m 226.30797,739.23882 c -0.25476,0 -0.46022,0.18973 -0.46022,0.42644 0,0.23671 0.20547,0.4276 0.46022,0.4276 h 1.19333 v -0.85404 z"
       style="fill:#666666;stroke:#000000;stroke-width:0.07712828;stroke-linejoin:round"
       id="path2940" />
    <path
       inkscape:connector-curvature="0"
       d="m 227.96015,739.23882 v 0.85404 h 1.60327 v -0.85404 z"
       style="fill:#666666;stroke:#000000;stroke-width:0.07712828;stroke-linejoin:round"
       id="path2938" />
    <path
       inkscape:connector-curvature="0"
       d="m 229.92111,739.23882 v 0.85404 h 1.60326 v -0.85404 z"
       style="fill:#666666;stroke:#000000;stroke-width:0.07712828;stroke-linejoin:round"
       id="path2936" />
    <path
       inkscape:connector-curvature="0"
       d="m 231.98328,739.23882 v 0.85404 h 1.19333 c 0.25476,0 0.45897,-0.1909 0.45897,-0.4276 0,-0.23671 -0.20421,-0.42644 -0.45897,-0.42644 z"
       style="fill:#666666;stroke:#000000;stroke-width:0.07712828;stroke-linejoin:round"
       id="path2934" />
    <path
       inkscape:connector-curvature="0"
       d="m 226.41488,740.7611 c -0.31448,0 -0.56713,0.23473 -0.56713,0.52693 0,0.29219 0.25264,0.52692 0.56713,0.52692 h 1.08645 v -1.05385 z"
       style="fill:#666666;stroke:#000000;stroke-width:0.07712828;stroke-linejoin:round"
       id="path2932" />
    <path
       inkscape:connector-curvature="0"
       d="m 227.96015,740.7611 v 1.05385 h 1.60327 v -1.05385 z"
       style="fill:#666666;stroke:#000000;stroke-width:0.07712828;stroke-linejoin:round"
       id="path2930" />
    <path
       inkscape:connector-curvature="0"
       d="m 229.92111,740.7611 v 1.05385 h 1.60326 v -1.05385 z"
       style="fill:#666666;stroke:#000000;stroke-width:0.07712828;stroke-linejoin:round"
       id="path2928" />
    <path
       inkscape:connector-curvature="0"
       d="m 231.98328,740.7611 v 1.05385 h 1.08517 c 0.31449,0 0.56713,-0.23472 0.56713,-0.52692 0,-0.29219 -0.25264,-0.52693 -0.56713,-0.52693 z"
       style="fill:#666666;stroke:#000000;stroke-width:0.07712828;stroke-linejoin:round"
       id="rect2844" />
    <path
       inkscape:connector-curvature="0"
       d="m 220.543,737.41975 a 0.20121489,0.1869531 0 0 0 -0.16599,0.27222 l 2.88839,5.49943 h 0.44765 l -2.97388,-5.66418 a 0.20121489,0.1869531 0 0 0 -0.17605,-0.10748 0.20121489,0.1869531 0 0 0 -0.0201,0 z m -0.11443,1.6567 a 0.20121489,0.1869531 0 0 0 -0.16598,0.27106 l 2.01823,3.84392 h 0.44764 l -2.10372,-4.00867 a 0.20121489,0.1869531 0 0 0 -0.19617,-0.10632 z m -0.14461,1.65554 a 0.20121489,0.1869531 0 0 0 -0.16472,0.27105 l 1.14806,2.18829 h 0.44765 l -1.23484,-2.35185 a 0.20121489,0.1869531 0 0 0 -0.19617,-0.10749 z"
       style="color:#000000;text-indent:0;text-transform:none;fill:none;stroke:#000000;stroke-width:0.07712828"
       id="path2863" />
    <path
       inkscape:connector-curvature="0"
       d="m 221.79414,733.73732 v 2.08313 h 11.95728 v -2.08313 z"
       style="fill:#0c080a;stroke-width:0.03085131"
       id="path3652" />
    <rect
       x="226.24911"
       y="734.12451"
       width="7.1854463"
       height="1.3085259"
       style="fill:#837a76;stroke-width:0.03085131"
       id="rect2838" />
    <rect
       x="226.37137"
       y="734.23157"
       width="6.9412365"
       height="1.0948892"
       style="fill:#5ef804;stroke-width:0.03085131"
       id="rect2840" />
    <path
       inkscape:connector-curvature="0"
       d="m 221.79414,733.73732 v 2.08313 h 3.66537 l -0.73311,-1.43239 c -0.0315,0.0135 -0.0662,0.0211 -0.10311,0.0211 -0.13706,0 -0.24898,-0.10398 -0.24898,-0.23132 0,-0.0904 0.0566,-0.16879 0.13832,-0.20681 l -0.11945,-0.23366 H 221.794 Z"
       style="fill:#837a76;stroke:#000000;stroke-width:0.07712828;stroke-linejoin:round"
       sodipodi:nodetypes="ccccssccc"
       id="path3649" />
    <circle
       r="2.0203052"
       cy="501.32397"
       cx="354.56354"
       transform="matrix(0.11065587,0,0,0.10281276,185.38905,682.63664)"
       style="fill:#d43307;filter:url(#filter3680)"
       id="path3641" />
    <g
       transform="scale(0.99702,1.003)"
       style="fill:#000000"
       id="text2990" />
  </g>
  <metadata
     id="metadata99">
    <rdf:RDF>
      <cc:Work>
        <dc:format>image/svg+xml</dc:format>
        <dc:type
           rdf:resource="http://purl.org/dc/dcmitype/StillImage" />
        <cc:license
           rdf:resource="http://creativecommons.org/publicdomain/zero/1.0/" />
        <dc:publisher>
          <cc:Agent
             rdf:about="http://openclipart.org/">
            <dc:title>Openclipart</dc:title>
          </cc:Agent>
        </dc:publisher>
        <dc:title></dc:title>
        <dc:date>2010-06-06T19:37:16</dc:date>
        <dc:description>Russian remote control security and fire alarm systems &quot;S2000&quot;.</dc:description>
        <dc:source>https://openclipart.org/detail/64723/alarm-system-s2000-by-rones</dc:source>
        <dc:creator>
          <cc:Agent>
            <dc:title>rones</dc:title>
          </cc:Agent>
        </dc:creator>
        <dc:subject>
          <rdf:Bag>
            <rdf:li>alarm</rdf:li>
            <rdf:li>bolid</rdf:li>
            <rdf:li>console</rdf:li>
            <rdf:li>control</rdf:li>
            <rdf:li>electronics</rdf:li>
            <rdf:li>fire</rdf:li>
            <rdf:li>panel</rdf:li>
            <rdf:li>russian</rdf:li>
            <rdf:li>security</rdf:li>
            <rdf:li>systems</rdf:li>
          </rdf:Bag>
        </dc:subject>
      </cc:Work>
      <cc:License
         rdf:about="http://creativecommons.org/publicdomain/zero/1.0/">
        <cc:permits
           rdf:resource="http://creativecommons.org/ns#Reproduction" />
        <cc:permits
           rdf:resource="http://creativecommons.org/ns#Distribution" />
        <cc:permits
           rdf:resource="http://creativecommons.org/ns#DerivativeWorks" />
      </cc:License>
    </rdf:RDF>
  </metadata>
</svg>
