<?xml version="1.0" encoding="UTF-8" standalone="no"?>
<!-- Generator: Adobe Illustrator 12.0.0, SVG Export Plug-In . SVG Version: 6.00 Build 51448)  -->

<svg
   xmlns:dc="http://purl.org/dc/elements/1.1/"
   xmlns:cc="http://creativecommons.org/ns#"
   xmlns:rdf="http://www.w3.org/1999/02/22-rdf-syntax-ns#"
   xmlns:svg="http://www.w3.org/2000/svg"
   xmlns="http://www.w3.org/2000/svg"
   xmlns:sodipodi="http://sodipodi.sourceforge.net/DTD/sodipodi-0.dtd"
   xmlns:inkscape="http://www.inkscape.org/namespaces/inkscape"
   id="Layer_1"
   space="preserve"
   sodipodi:docname="ppc2.svg"
   viewBox="0 0 16 16"
   sodipodi:version="0.32"
   version="1.1"
   inkscape:version="0.91 r13725"
   width="16"
   height="16">
  <defs
     id="defs18" />
  <sodipodi:namedview
     id="base"
     bordercolor="#666666"
     inkscape:pageshadow="2"
     inkscape:window-width="1680"
     pagecolor="#ffffff"
     inkscape:zoom="33.043713"
     inkscape:window-x="-8"
     borderopacity="1.0"
     inkscape:current-layer="Layer_1"
     inkscape:cx="6.9363423"
     inkscape:cy="9.8921766"
     inkscape:window-y="-8"
     inkscape:window-height="988"
     inkscape:pageopacity="0.0"
     showgrid="true"
     inkscape:window-maximized="1">
    <inkscape:grid
       type="xygrid"
       id="grid4146" />
  </sodipodi:namedview>
  <path
     inkscape:connector-curvature="0"
     d="M 9.9156798,0.87299003 C 8.163987,2.2779234 6.7100091,4.3875952 5.2475586,6.1456118 4.2554504,7.3384357 3.1150733,9.3212831 3.86595,11.021534 4.5792888,12.63663 7.2163596,12.130111 8.3307309,11.362285 9.6519727,10.453356 10.677853,9.0411532 11.732446,7.7991313 12.489442,6.9079858 13.910589,5.7059454 13.128176,4.3629313 12.416837,3.1420685 11.349183,2.5880395 10.213748,3.4785359 9.5719545,3.9816794 8.6029105,4.8298578 8.6715143,5.8066779 8.9808788,7.0912775 10.417912,4.8158384 10.818474,4.9196863 11.852944,5.1918979 10.954858,5.9946428 10.651141,6.3747264 10.226456,6.905779 9.8015362,7.436572 9.376969,7.9676247 8.8980365,8.5663083 8.3753293,9.1829057 7.8181436,9.6872175 7.2457781,10.205029 5.6555338,10.671956 5.4391316,9.5306666 5.1565967,8.0421356 6.8446279,6.6936695 7.671522,5.7552732 8.7570632,4.5235063 11.067589,0.83469609 12.740205,2.7682157 13.251851,3.3597598 13.84881,3.8944471 13.835278,4.7905254 13.82351,5.56614 13.430597,6.1565158 12.957902,6.6782221 11.191735,8.6264103 9.4258036,10.574469 7.6601077,12.522787 6.413118,13.898253 4.2811033,14.36466 2.6419067,13.585411 1.9224489,13.243622 1.8763207,11.969277 1.924214,11.230399 1.9725779,10.096249 2.1909806,9.1222844 2.9154984,8.2922794 3.9291409,7.1316484 4.9504321,5.9772483 5.9843145,4.8385551 6.6153993,4.1435525 7.2597813,3.4659444 7.9069874,2.7893748 8.3167277,2.3611316 9.0541896,1.8391657 8.9985299,1.1182011 8.8263731,-0.70887439 6.9870133,1.1841446 6.4710135,1.7534911 5.3904146,2.945666 4.3095804,4.137711 3.2288639,5.3298859 2.5609471,6.0668171 1.886323,6.7972579 1.2241723,7.54042 0.03625491,8.8740878 -0.13272473,10.640023 0.07661704,12.442564 0.18287651,13.356686 0.43764038,14.596371 1.2064036,15.113145 1.9702245,15.626543 2.9544485,15.793219 3.8254702,15.93653 5.4364251,16.201861 7.216948,15.627971 8.3735641,14.351809 10.52323,11.980441 12.673249,9.6090719 14.82315,7.2373137 16.072963,5.8586019 16.536481,3.9610396 15.166051,2.4051372 14.660054,1.8309877 14.180062,1.1819378 13.616287,0.67502981 12.534511,-0.29724694 10.907317,-0.20897615 9.9165035,0.87363908 M 4.3212301,11.334117 C 3.0261118,9.9059473 4.499153,7.3897106 5.4011229,6.3054079 6.0080846,5.5760056 6.6204593,4.8517957 7.2371879,4.1323888 8.1079743,3.1164959 8.9806435,1.8407234 10.047945,1.0718589 c 1.642845,-1.44673221 3.029749,-0.7039595 4.328868,0.7700328 1.183093,1.3427545 2.18332,3.1519161 0.685685,4.8042674 -1.780993,1.9648038 -3.56234,3.9296079 -5.3435688,5.8942819 -0.650501,0.717849 -1.2826449,1.559148 -2.028697,2.163024 C 6.1505876,15.948861 4.2628639,15.909918 2.5063465,15.412227 1.6035528,15.156891 0.96434848,14.824188 0.6030898,13.822704 0.31349448,13.020089 0.23559439,12.152569 0.22888698,11.295953 0.2144131,9.4538191 0.73453148,8.4107959 1.8752617,7.1518988 3.6619036,5.1812535 5.4478395,3.210738 7.234246,1.2400927 7.5706755,0.86909573 8.097266,0.31532636 8.5809055,0.74330986 9.1451515,1.2426889 8.4768818,1.876551 8.125037,2.244043 6.7499005,3.680001 5.401829,5.1414018 4.0825876,6.6399282 3.2229802,7.6167483 2.1336734,8.5582601 1.8550218,9.9420345 1.683924,10.791511 1.6263815,11.774951 1.8177192,12.628452 c 0.2679433,1.19529 1.1182545,1.378971 2.1121277,1.496969 3.0433986,0.360742 4.9663068,-2.637609 6.8892151,-4.7592236 0.818774,-0.9032178 1.637784,-1.8065655 2.456559,-2.710043 C 13.836219,6.0374801 14.18065,5.151527 13.996373,4.2718047 13.837867,3.5148827 13.20078,2.9648779 12.734086,2.4256472 11.061235,0.49225736 8.3905092,4.6055462 7.3572152,5.7811054 6.4006445,6.8690428 4.5534006,8.4453254 5.4589008,10.1361 5.8706416,10.628599 6.6967119,10.454914 7.2114173,10.29369 8.0999725,10.015247 8.715642,9.0598458 9.3391957,8.3504343 10.077599,7.5104339 10.741397,6.6008554 11.493333,5.7735764 11.669726,5.5789912 11.466268,5.2945776 11.336121,5.0918144 10.879546,4.3808451 10.352485,4.7865013 9.9126203,5.2752359 9.770588,5.4328252 9.3091888,6.0717499 9.0080615,5.965825 8.442874,5.7653984 9.3812052,4.5630983 9.5734843,4.3874654 10.509227,3.5318879 11.324471,2.6981183 12.339408,3.8181189 13.015797,4.5645262 13.496024,5.2878275 12.739499,6.2730852 11.835529,7.4502021 10.818474,8.5377501 9.8623736,9.6634623 9.087962,10.574988 8.0390174,11.562323 6.8752231,11.729128 6.128818,11.83739 4.9054807,11.980181 4.3208771,11.334896"
     style="fill:#5e5d5d"
     id="path5" />
  <path
     inkscape:connector-curvature="0"
     d="M 15.150283,2.5540293 C 14.163823,1.4344182 13.207488,-0.04801178 11.615831,0.11645747 10.618428,0.21952659 9.837309,1.0134444 9.1643324,1.7621884 8.2139984,2.8192311 7.2843751,3.8987309 6.3635773,4.9869279 5.9614858,5.4619026 5.5628068,5.9402524 5.1638925,6.4183426 4.3325268,7.3351905 4.0592882,8.190119 3.8254702,9.420458 3.3946663,11.685642 5.3101611,12.075202 6.8881673,11.843621 8.5643134,11.597371 9.7722354,9.9372315 10.867779,8.647829 11.520045,7.8798731 13.467429,6.2074013 13.238907,5.0186016 13.114879,4.3730565 12.669836,4.0191945 12.26445,3.5719991 11.461443,2.6861758 10.560297,3.2452674 9.8187166,3.9784342 9.5625406,4.2311742 8.0938534,5.9436275 9.0179461,6.0862886 9.5155888,6.163266 9.8980287,5.3484487 10.226221,5.0867518 10.610544,4.6627924 11.566879,4.8934647 11.469445,5.6342903 11.432025,5.9185741 10.648435,6.5521767 10.428502,6.8269844 9.4288631,8.0771843 8.3241411,10.001877 6.7650804,10.282396 5.8950001,10.438947 5.2299075,10.100922 5.3413446,9.031028 5.521974,8.0011157 6.0935158,7.3967204 6.7280132,6.6657604 7.3286204,5.9741328 7.93417,5.2875678 8.5441912,4.6059356 9.3563761,3.6988235 10.380491,2.0909971 11.644426,2.0424481 c 0.777824,-0.030116 1.256992,0.7440708 1.738396,1.3008259 0.730519,0.8449331 0.703572,2.0395744 0.05142,2.9466865 -0.623318,0.8673903 -1.43868,1.6131486 -2.146018,2.3934364 C 10.253521,9.8245564 9.2191684,10.965846 8.18458,12.107135 7.1882356,13.206106 5.975842,14.151123 4.483973,14.058179 3.8466515,14.018457 2.7907642,14.023001 2.3060656,13.488443 1.7511158,12.803306 1.776651,11.706801 1.8411363,10.845123 1.9751668,9.0541342 2.9402099,8.1056127 3.9993922,6.8990289 5.468197,5.2257783 6.9860719,3.6174326 8.5083007,2.004284 9.0013541,1.4819286 9.0418339,0.35946175 8.103738,0.48966116 7.1924718,0.61583646 6.1680034,2.250923 5.5491566,2.9337235 4.3114632,4.2988052 3.0741228,5.663887 1.8366647,7.0292283 0.65639605,8.3313522 0.10650619,9.3939767 0.12298053,11.303222 c 0.006707,0.779768 0.0716634,1.558888 0.29630273,2.303738 0.34360761,1.139991 0.95998314,1.5916 1.97150754,1.890812 1.8166487,0.537803 3.7880386,0.582717 5.3798126,-0.717849 1.7694615,-1.446862 3.2620366,-3.527716 4.8139196,-5.239261 1.531642,-1.6898663 4.908881,-4.4006881 2.565172,-6.9872818"
     style="fill:#7f7f7f;fill-opacity:1"
     id="path7" />
  <path
     inkscape:connector-curvature="0"
     d="M 8.6802222,0.83145084 C 7.9562927,-0.29140549 5.5238568,3.1242845 5.1165876,3.5752444 4.1547216,4.6403353 3.1514345,5.6584349 2.1941578,6.728848 1.2486485,7.7864099 0.52871993,8.5872077 0.46035143,10.132985 c -0.0317719,0.714474 0.0110613,1.433751 0.0897851,2.142903 0.0248292,0.222754 0.0130618,0.894131 0.17039172,1.068466 -0.0630732,-0.06945 0.0269473,-0.791581 0.0298892,-0.897247 0.0191808,-0.664756 0.0624848,-1.331331 0.16721453,-1.987001 C 1.1569806,8.9632672 1.9657529,7.901162 2.8626629,6.7932338 3.7142685,5.741773 4.6305946,4.7622268 5.5266809,3.7582765 6.128465,3.0833944 6.7200113,2.3939736 7.2748435,1.6711916 7.496894,1.3818452 7.7774285,1.1427352 8.1293909,1.0835418 8.2382392,1.0653684 8.9192177,1.1990727 8.6808105,0.83171046"
     style="fill:#e5e5e5"
     id="path9" />
  <path
     inkscape:connector-curvature="0"
     d="M 8.8553208,1.2611219 C 8.5147728,1.1718126 7.9040455,2.0789247 7.7042353,2.3076499 7.1379888,2.9550123 6.5803325,3.611721 6.003613,4.2480495 5.2905095,5.0349576 4.5444574,5.7844804 3.8287651,6.5686625 3.0956571,7.3717969 2.1583849,8.2307495 1.8694957,9.3668465 1.7444084,9.8590859 1.4042133,11.682656 1.8046574,12.122712 1.5010589,11.787803 1.973637,9.8871249 2.088369,9.522878 2.4312706,8.4344214 3.2974677,7.6789273 4.0043345,6.868264 4.5645796,6.2255747 9.1839839,1.7650442 8.8549678,1.2613815"
     style="fill:#999898"
     id="path11" />
  <path
     inkscape:connector-curvature="0"
     d="M 14.996601,2.6072514 C 14.240311,1.5940845 13.274797,0.2573013 11.970265,0.23406531 10.316595,0.20433882 9.2312888,1.903162 8.1728126,3.070673 7.1344586,4.2163759 6.090927,5.364675 5.1345917,6.5952736 4.6389495,7.23303 4.2463896,7.8446946 4.0668193,8.6772958 3.9546761,9.1984829 4.0851764,10.068989 3.9286702,10.51203 4.0417547,10.192048 3.964443,9.6915012 4.0649365,9.3337449 4.3352333,8.3722424 4.8512331,7.4975827 5.4416027,6.7387136 6.4866641,5.3956995 7.7523639,4.3169786 8.8814444,3.0705432 9.8087143,2.0476405 10.87178,0.12969809 12.445667,0.77160844 13.219491,1.0870467 14.470481,1.9022534 14.995659,2.6071216"
     style="fill:#e5e5e5"
     id="path13" />
  <path
     inkscape:connector-curvature="0"
     d="M 13.290683,3.2439693 C 12.737381,2.2729907 12.167369,1.4524618 11.046996,1.8138528 10.03453,2.1407143 9.2624723,3.2586378 8.5440735,4.0346419 7.7203567,4.9247489 6.8634558,5.7855189 6.1090488,6.7496176 5.7635584,7.1911014 5.51762,7.6332342 5.3938272,8.2075135 5.3453455,8.4329935 5.0989365,9.4285062 5.280978,9.6313992 5.2313196,9.5763598 5.363232,8.9536613 5.3766468,8.8778523 5.4933792,8.2115376 5.7595575,7.7326686 6.1885963,7.2560064 7.1269275,6.2135024 8.0444304,5.1489308 8.9754658,4.0985084 10.184918,2.7342055 11.939317,0.87922091 13.290683,3.2437097"
     style="fill:#999898"
     id="path15" />
  <path
     inkscape:connector-curvature="0"
     d="m 14.183122,5.0679293 c 0.532003,0.586871 -5.1153999,6.2668367 -5.5950384,6.7928267 -0.836308,0.916848 -1.5064605,1.875624 -2.7248555,2.133297 -0.6390866,0.135262 -1.2766435,0.265721 -1.9311454,0.21873 -0.1035529,-0.0077 -1.5849489,-0.230543 -1.5849489,-0.276106 0,0.263255 1.323007,0.508466 1.4756299,0.538192 0.7780595,0.151488 1.6561417,0.170051 2.4271407,-0.05128 1.0418841,-0.298693 1.696033,-1.143106 2.4137258,-1.961688 1.252991,-1.428689 2.4977448,-2.8537428 3.8615848,-4.1544388 0.515647,-0.4917202 2.489978,-2.3219111 1.658377,-3.2395379"
     style="fill:#e5e5e5"
     id="path17" />
  <path
     inkscape:connector-curvature="0"
     d="m 15.871506,4.035291 c 0,1.387409 -0.767587,2.3452769 -1.593892,3.2662787 C 12.78751,8.9623586 11.264222,10.591214 9.7441114,12.218512 8.595144,13.449111 7.5609086,14.954257 5.9198292,15.360173 5.0828152,15.56722 4.2001437,15.597596 3.3491265,15.486608 3.2285108,15.470771 1.5243583,15.140016 1.5243583,15.094582 c 0,0.349319 1.7560467,0.663848 1.9615052,0.700065 0.9559823,0.167974 1.9605639,0.113973 2.8795966,-0.236124 1.302061,-0.496264 2.1063617,-1.531758 3.0697574,-2.556867 C 10.972038,11.36605 12.457905,9.6760538 14.001551,8.0481069 14.6304,7.3846481 15.317497,6.7082083 15.698408,5.8273177 15.979295,5.1768399 15.871624,4.6977113 15.871624,4.035291"
     style="fill:#999898"
     id="path19" />
  <path
     inkscape:connector-curvature="0"
     d="m 11.707029,5.8303034 c 0,0.2163932 -0.254411,0.502105 -0.35867,0.658526 -0.525649,0.788336 -1.090248,1.5566813 -1.6707334,2.2959491 -0.5177649,0.6593049 -1.1121354,1.3778035 -1.8140599,1.7991665 -0.2076943,0.124617 -2.1400164,0.229763 -2.1400164,0.05218 0,-0.01077 1.7642839,-0.299471 1.990806,-0.46446 C 8.5592535,9.5562392 9.2036354,8.5373607 9.8930864,7.7313705 10.346248,7.2014862 10.802352,6.6712124 11.287168,6.176247 c 0.02601,-0.026481 0.419861,-0.3693094 0.419861,-0.3459436"
     style="fill:#e5e5e5"
     id="path21" />
  <path
     inkscape:connector-curvature="0"
     d="m 13.211842,5.4730663 c 0,0.5819381 -0.624495,1.1427172 -0.960689,1.537729 -0.716752,0.8427264 -1.421618,1.7018089 -2.153196,2.5285686 -0.666505,0.7535471 -1.4427994,1.6661111 -2.3578311,2.0425601 -0.1805117,0.07425 -2.3360611,0.497042 -2.3360611,0.246249 0,0.117998 2.3688921,-0.643727 2.6174192,-0.799369 1.1414363,-0.714085 2.030697,-1.956107 2.929843,-2.9855001 0.60202,-0.6895506 1.195684,-1.3870196 1.789466,-2.0850079 0.04224,-0.049587 0.471049,-0.4774411 0.471049,-0.4852297"
     style="fill:#999898"
     id="path23" />
  <path
     inkscape:connector-curvature="0"
     d="M 12.477322,4.0159493 C 11.929903,3.4103857 11.45403,3.1180536 10.700211,3.4874928 10.498048,3.586408 8.5931435,5.0549483 8.9385163,5.4504794 9.1022006,5.6374057 10.719863,3.8622543 10.901787,3.7372472 c 0.407151,-0.2794808 0.697335,-0.1574595 1.068831,0.1617433 0.09143,0.078275 0.941626,1.1229861 1.030352,1.0252392 0.134384,-0.1481132 -0.461987,-0.8400004 -0.523648,-0.9082804"
     style="fill:#e5e5e5"
     id="path25" />
  <metadata
     id="metadata16">
    <rdf:RDF>
      <cc:Work>
        <dc:format>image/svg+xml</dc:format>
        <dc:type
           rdf:resource="http://purl.org/dc/dcmitype/StillImage" />
        <cc:license
           rdf:resource="http://creativecommons.org/publicdomain/zero/1.0/" />
        <dc:publisher>
          <cc:Agent
             rdf:about="http://openclipart.org/">
            <dc:title>Openclipart</dc:title>
          </cc:Agent>
        </dc:publisher>
        <dc:title></dc:title>
        <dc:date>2009-04-30T08:04:27</dc:date>
        <dc:description>Paperclip icon by Francesco 'Architetto' Rollandin.</dc:description>
        <dc:source>https://openclipart.org/detail/25518/architetto----clips-by-anonymous-25518</dc:source>
        <dc:creator>
          <cc:Agent>
            <dc:title>Anonymous</dc:title>
          </cc:Agent>
        </dc:creator>
        <dc:subject>
          <rdf:Bag>
            <rdf:li>clip</rdf:li>
            <rdf:li>icon</rdf:li>
            <rdf:li>office</rdf:li>
            <rdf:li>paper</rdf:li>
            <rdf:li>paperclip</rdf:li>
          </rdf:Bag>
        </dc:subject>
      </cc:Work>
      <cc:License
         rdf:about="http://creativecommons.org/publicdomain/zero/1.0/">
        <cc:permits
           rdf:resource="http://creativecommons.org/ns#Reproduction" />
        <cc:permits
           rdf:resource="http://creativecommons.org/ns#Distribution" />
        <cc:permits
           rdf:resource="http://creativecommons.org/ns#DerivativeWorks" />
      </cc:License>
    </rdf:RDF>
  </metadata>
</svg>
