<?xml version="1.0" encoding="UTF-8" standalone="no"?>
<svg
   xmlns:dc="http://purl.org/dc/elements/1.1/"
   xmlns:cc="http://creativecommons.org/ns#"
   xmlns:rdf="http://www.w3.org/1999/02/22-rdf-syntax-ns#"
   xmlns:svg="http://www.w3.org/2000/svg"
   xmlns="http://www.w3.org/2000/svg"
   version="1.1"
   id="svg2"
   viewBox="0 0 16 16"
   height="100%"
   width="100%">
  <defs
     id="defs4" />
  <metadata
     id="metadata7">
    <rdf:RDF>
      <cc:Work
         rdf:about="">
        <dc:format>image/svg+xml</dc:format>
        <dc:type
           rdf:resource="http://purl.org/dc/dcmitype/StillImage" />
        <dc:title></dc:title>
      </cc:Work>
    </rdf:RDF>
  </metadata>
  <g
     transform="translate(-189.96206,-428.35103)"
     style="display:inline"
     id="layer1">
    <path
       id="path3349"
       d="m 205.51409,437.19895 c -0.01,2.8e-4 -0.0193,0.002 -0.0293,0.004 -0.15985,0.04 -1.50565,0.0329 -2.05342,0.0834 -0.52679,0.0485 -1.49997,0.21273 -2.35915,0.61235 -0.85919,0.39962 -2.51623,1.29586 -3.68512,2.05514 -1.09532,0.71149 -1.88821,1.12895 -2.12799,1.1889 -0.23977,0.0599 -0.49949,0 -0.65934,-0.27974 -0.15984,-0.27973 -0.47959,-1.37878 -0.47959,-1.37878 -0.20364,-0.51375 -0.89912,-0.61936 -1.51853,-0.63934 -0.5795,-0.0187 -1.76968,0.20294 -1.90822,0.78921 -0.0851,0.36019 -0.29296,1.58577 -0.29962,2.23787 -0.006,0.63434 0.24785,1.21176 0.57937,1.59854 0.59943,0.69934 1.20623,0.8607 1.82826,0.87916 0.54766,0.0163 1.49863,-0.10997 2.3778,-0.66944 0.79013,-0.50281 5.01523,-3.73644 5.8944,-4.33586 0.87916,-0.59943 1.73017,-1.00575 2.19787,-1.11894 0.71973,-0.17418 2.37774,-0.13987 2.37774,-0.13987 0,0 -0.0588,0.0552 0.14106,0.0352 0.19981,-0.02 0.21493,-0.20915 0.0987,-0.43479 -0.12869,-0.24978 -0.23093,-0.49079 -0.37491,-0.48702 z m -13.0723,1.91366 c 0.6247,-1e-5 1.13109,0.1888 1.13096,0.42168 -3e-5,0.23283 -0.50638,0.42157 -1.13096,0.42156 -0.62454,-10e-6 -1.13081,-0.18874 -1.13084,-0.42156 -1.1e-4,-0.23287 0.50619,-0.42167 1.13084,-0.42168 z"
       style="opacity:1;fill:#ac39ac;fill-opacity:1;fill-rule:evenodd;stroke:none;stroke-width:1px;stroke-linecap:butt;stroke-linejoin:miter;stroke-opacity:1" />
    <path
       id="path4217"
       d="m 189.96878,432.88483 c 0.18005,-1.42838 2.55049,-3.14676 2.85356,-3.26589 0.61391,-0.70441 -1.05475,1.21586 -1.43685,1.80096 -0.57435,0.81025 -0.88645,1.84982 -0.22851,2.83507 0.52198,0.74825 1.72588,2.0939 0.90214,1.8228 -0.82374,-0.27109 -2.20502,-1.84963 -2.09034,-3.19294 z"
       style="opacity:1;fill:#ac39ac;fill-opacity:1;stroke:none;stroke-opacity:1" />
    <path
       id="path4219"
       d="m 192.49379,433.50891 c 0.80034,0.44313 1.56528,1.22871 1.88396,2.27397 0.31867,1.04527 -0.38448,1.71955 -1.00122,1.77039 0.93016,-1.59519 -0.0746,-2.19704 -0.94984,-3.3013 -0.21028,-0.4541 -0.15423,-0.54501 0.0671,-0.74306 z"
       style="opacity:1;fill:#ac39ac;fill-opacity:1;stroke:none;stroke-opacity:1" />
  </g>
</svg>
