<?xml version="1.0" encoding="UTF-8" standalone="no"?>
<svg
   xmlns:dc="http://purl.org/dc/elements/1.1/"
   xmlns:cc="http://creativecommons.org/ns#"
   xmlns:rdf="http://www.w3.org/1999/02/22-rdf-syntax-ns#"
   xmlns:svg="http://www.w3.org/2000/svg"
   xmlns="http://www.w3.org/2000/svg"
   xmlns:sodipodi="http://sodipodi.sourceforge.net/DTD/sodipodi-0.dtd"
   xmlns:inkscape="http://www.inkscape.org/namespaces/inkscape"
   version="1.1"
   id="Layer_1"
   x="0px"
   y="0px"
   viewBox="0 0 16 11"
   enable-background="new 0 0 2391.878 1675.53"
   xml:space="preserve"
   sodipodi:docname="1545429974j.svg"
   inkscape:version="0.92.3 (2405546, 2018-03-11)"
   width="16"
   height="11"><metadata
   id="metadata113"><rdf:RDF><cc:Work
       rdf:about=""><dc:format>image/svg+xml</dc:format><dc:type
         rdf:resource="http://purl.org/dc/dcmitype/StillImage" /><dc:title></dc:title></cc:Work></rdf:RDF></metadata><defs
   id="defs111">
</defs><sodipodi:namedview
   pagecolor="#ffffff"
   bordercolor="#666666"
   borderopacity="1"
   objecttolerance="10"
   gridtolerance="10"
   guidetolerance="10"
   inkscape:pageopacity="0"
   inkscape:pageshadow="2"
   inkscape:window-width="1680"
   inkscape:window-height="987"
   id="namedview109"
   showgrid="false"
   inkscape:zoom="38.795512"
   inkscape:cx="7.32496"
   inkscape:cy="4.4457555"
   inkscape:window-x="-8"
   inkscape:window-y="-8"
   inkscape:window-maximized="1"
   inkscape:current-layer="Layer_1"
   showguides="true"><inkscape:grid
     type="xygrid"
     id="grid845" /></sodipodi:namedview>
<path
   style="fill:#414141;fill-opacity:1;stroke:#2f2f2f;stroke-width:0.00661175"
   inkscape:connector-curvature="0"
   id="path2"
   d="m 10.64069,0.19578738 c 0.410269,-0.0271602 0.825098,-0.0281302 1.233275,-0.0194001 0.429367,0.0097 0.860252,0.0194001 1.289808,0.0194001 0.06746,0 0.10404,0 0.151832,0.0455903 0.05511,0.0562604 0.110881,0.11300574 0.166273,0.16946011 0.04846,0.0494703 0.113922,0.0991347 0.149361,0.15985705 -0.03896,0.0097 -0.07791,0.0116401 -0.117626,0.0106701 -0.191928,-0.0097 -0.38395,-0.0097 -0.575877,-0.0116401 -0.556113,-0.0242502 -1.114793,-0.0194001 -1.671002,-0.0097 -0.205324,0.0097 -0.410553,0.0135801 -0.615497,0.0281302 -0.100904,0.0097 -0.202284,0.0135801 -0.302903,0.0242502 -0.09406,0.0106701 -0.198198,0.0106701 -0.289886,0.0339502 -0.1417601,0.0271602 -0.2864659,0.0436503 -0.4219551,0.0960306 -0.029454,0.0135801 -0.061758,0.0271602 -0.077911,0.0562604 C 8.9825153,2.4648262 8.0579391,5.3059748 8.0579391,5.3059748 L 7.7572215,5.2506845 C 8.3497255,3.2807956 8.3768043,3.2108581 9.1908798,0.69204262 9.2279353,0.62026215 9.252639,0.53771461 9.3160125,0.48436426 9.460528,0.36553849 9.6706028,0.33178227 9.8478979,0.29676504 10.109756,0.2453547 10.374462,0.21140448 10.640595,0.19442937 Z"
   sodipodi:nodetypes="cccccccccccccccccccc" /><path
   style="fill:#212121;fill-opacity:1;stroke:#2f2f2f;stroke-width:0.00661175"
   inkscape:connector-curvature="0"
   id="path4"
   d="m 5.7479715,0.36243447 c 0.556399,-0.0097 1.6634008,0 1.6634008,0 l -2.85e-4,0.27150477 -0.0095,0.0097 H 6.4296932 c 0,0 0,3.01264566 2.85e-4,4.51896856 -2.85e-4,0.05335 0,0.1056337 0,0.158596 -0.026604,0 -0.053207,0.0097 -0.079811,0.0097 -0.0095,0.160051 0,0.3203931 0,0.4806381 0,0.1121328 -0.0095,0.2248475 0.0095,0.3366892 0.025654,0.0097 0.051307,0.01164 0.077911,0.01649 0,0.4332049 0,0.8667007 8.551e-4,1.2998085 -0.078861,-3.88e-4 -0.1585774,0 -0.2377237,0 0.010452,0.152679 0.037056,0.303903 0.040856,0.457261 0,0.1583051 0.037056,0.3136031 0.039905,0.4721021 0.020903,-0.01746 0.041806,-0.03395 0.062709,-0.05238 0.020903,-0.0194 0.041805,-0.03977 0.058908,-0.06305 -0.0095,-0.02619 -0.020903,-0.0485 -0.033255,-0.07081 0.055107,-0.06014 0.1282681,-0.097583 0.1937324,-0.1444339 0.013302,0.02231 0.026604,0.04559 0.040856,0.0679 0.079811,-0.01843 0.1412851,-0.078571 0.2218565,-0.095061 -0.0095,-0.02522 -0.017103,-0.04947 -0.024704,-0.074691 0.06936,-0.04268 0.1484109,-0.06596 0.2292675,-0.06984 0.0095,0.02231 0.016153,0.04462 0.024704,0.067901 0.076961,0 0.1528767,-0.0097 0.2282224,-0.0194 0,-0.02522 0.0095,-0.05044 0.011402,-0.07566 0.076961,-0.0097 0.154777,-0.0097 0.232023,9.7e-4 0,0.03104 0,0.06111 0,0.092151 0.076961,0.01164 0.1510713,0.03298 0.2277473,0.04462 0.012352,-0.02522 0.024704,-0.04947 0.037056,-0.07372 0.07411,0.02425 0.1470808,0.05238 0.2150155,0.091181 -0.010452,0.02619 -0.019953,0.05335 -0.029455,0.08051 0.067459,0.03298 0.1311185,0.073721 0.1957277,0.1119387 0.019953,-0.01746 0.039906,-0.03492 0.059858,-0.05238 0.067459,0.04268 0.1331139,0.091181 0.1809057,0.156753 -0.013302,0.02037 -0.027554,0.04074 -0.040856,0.06111 0.043706,0.0582 0.086462,0.1170798 0.1381496,0.1689751 0.022803,-0.0097 0.045606,-0.0194 0.06936,-0.0291 0.050357,0.06111 0.083612,0.1344429 0.1160114,0.2067084 -0.023754,0.01164 -0.046556,0.02425 -0.07031,0.03589 0.023754,0.070811 0.050357,0.1417179 0.080762,0.2101034 0.028504,-7.76e-4 0.056058,0 0.084562,0 0.016153,0.074691 0.025654,0.149963 0.030405,0.2261085 -0.023754,0.0097 -0.047506,0.0194 -0.07031,0.0291 0,0.04171 0.0095,0.08439 0.012352,0.1263918 0.024704,0 0.050357,0.0097 0.075061,0.01164 0,0.07566 0,0.151806 -0.018053,0.2263024 -0.029454,0 -0.057958,0.0097 -0.086462,0.0097 -0.010452,0.073721 -0.032305,0.144725 -0.057958,0.2142744 0.025654,0.01358 0.051307,0.02716 0.076961,0.04074 -0.017103,0.05432 -0.039905,0.107962 -0.067459,0.1582085 -0.011402,0.0194 -0.024704,0.03686 -0.037055,0.05529 -0.022804,-0.0097 -0.045606,-0.01843 -0.06841,-0.02716 -0.036106,0.05529 -0.07221,0.109999 -0.112781,0.162088 -0.030405,0.03395 0.021853,0.06014 0.041805,0.08342 -0.056058,0.06014 -0.1001442,0.137741 -0.1743497,0.178093 -0.020903,-0.01746 -0.036106,-0.04074 -0.054157,-0.06208 -0.049407,0.05238 -0.1081253,0.09506 -0.1706441,0.130369 -0.014252,0.03201 0.025654,0.06014 0.013302,0.09215 -0.049407,0.03492 -0.105655,0.0582 -0.1569623,0.09021 -0.018053,0.01358 -0.039905,0.0097 -0.059858,0.01067 -0.0095,-0.02134 -0.011402,-0.04171 -0.017103,-0.06208 -0.076961,0.0097 -0.1438504,0.05529 -0.2194811,0.07081 0,0.02522 0.0095,0.05335 0,0.07663 -0.074111,0.02328 -0.1537318,0.02231 -0.2307879,0.02425 -0.0095,-0.02134 -0.016153,-0.04171 -0.024704,-0.06305 -0.075061,0.0097 -0.1492662,-9.7e-4 -0.2233767,-0.0097 0,0.02231 -0.0095,0.04559 -0.010452,0.06887 -0.080761,0.0097 -0.161618,-0.01164 -0.2406692,-0.02813 0,-0.03104 0,-0.06111 0.0095,-0.09118 -0.07126,-0.02231 -0.1432803,-0.04365 -0.2115,-0.07469 -0.013302,0.02425 -0.027554,0.0485 -0.041806,0.07275 -0.065559,-0.03201 -0.1305485,-0.06499 -0.1921173,-0.103887 -0.023754,-0.03007 0.0095,-0.06014 0.022804,-0.08536 -0.044656,-0.03492 -0.095678,-0.06208 -0.1365343,-0.102529 -0.014252,-0.01261 -0.027554,-0.03007 -0.047506,-0.03201 -0.023754,0.0097 -0.041806,0.03104 -0.066509,0.03686 C 6.2142024,10.375616 6.1744872,10.305 6.1235599,10.24612 c 0.020903,-0.01843 0.042756,-0.03686 0.064609,-0.05432 -0.033255,-0.05238 -0.079811,-0.09603 -0.1022346,-0.154037 -0.0095,-0.01455 -0.010452,-0.03395 -0.028504,-0.03686 -0.024704,0.0097 -0.046557,0.01843 -0.06936,0.0291 -0.038956,-0.073721 -0.082662,-0.149575 -0.092163,-0.2340628 0.025654,-0.0097 0.052257,-0.0194 0.077911,-0.03007 -0.034205,-0.06693 -0.037056,-0.1441429 -0.047506,-0.2174754 -0.031355,3.88e-4 -0.061758,5.82e-4 -0.093113,-3.88e-4 -0.0095,-0.083421 -0.0095,-0.1660651 0,-0.2490007 0.023754,0 0.048456,5.821e-4 0.07221,9.701e-4 0.0095,-0.078571 0.013302,-0.1572381 0.026604,-0.2351296 -0.022804,-9.7e-4 -0.046556,0 -0.06936,0 0,-0.08148 0.039906,-0.154619 0.054157,-0.2336745 0.030405,-9.7e-4 0.059858,0.0097 0.088363,0.01746 0.026604,-0.070811 0.07126,-0.1341519 0.093113,-0.2069994 -0.090263,0 -0.1812858,0 -0.2718337,2.91e-4 -0.07316,-0.0097 -0.1317836,0.04559 -0.1976279,0.067901 -0.048456,0.02522 -0.105655,0.03783 -0.1443254,0.0776 -0.0095,0.1741161 0,0.3492023 0,0.5237064 0,0.04462 0.011402,0.09962 -0.025654,0.1339579 -0.033255,0.03977 -0.077911,0.07566 -0.1324488,0.06499 -0.053207,0 -0.092163,-0.03783 -0.1141112,-0.08148 -0.024704,-0.03589 -0.015202,-0.08148 -0.017103,-0.1221238 0,-0.7169317 8.551e-4,-1.4338634 5.701e-4,-2.1507951 9.5e-5,-0.03686 0.0095,-0.07178 0.020903,-0.1057307 0.015202,-0.04656 0.062709,-0.07469 0.1097405,-0.06984 0.076961,-0.01261 0.1674138,0.05044 0.1579124,0.1352189 0,0.3779144 0,0.7559259 0,1.1338404 0,0.03201 0.038956,0.01358 0.057008,0.01455 0.07126,-0.01067 0.1446105,-0.01067 0.2164407,-0.02134 0.010452,-0.05238 0.0095,-0.1067007 0.0095,-0.159857 -0.0095,-2.5353056 0,-7.71222948 0,-7.71222948 M 7.2258104,8.6721878 c -0.1261778,0.02716 -0.254541,0.07275 -0.3467991,0.1685871 -0.098054,0.07275 -0.1667486,0.1798392 -0.1999083,0.297889 -0.049407,0.1204748 -0.063659,0.2584097 -0.021853,0.3835405 0.029455,0.08148 0.053207,0.1680051 0.1069852,0.2382336 0.095774,0.1414272 0.2489353,0.2312498 0.4081779,0.279362 0.098244,0.02328 0.2006684,0.01649 0.3006227,0.0097 0.07221,0 0.1333989,-0.04365 0.1966778,-0.07469 C 7.7655826,9.92631 7.856035,9.8601549 7.9144683,9.7671313 7.9790773,9.6895313 8.0009303,9.5894261 8.0400762,9.4988276 8.0590791,9.3796135 8.0619291,9.2511846 8.0115727,9.1390519 7.9802181,9.0614514 7.9460135,8.9832689 7.8927109,8.9183755 7.8537554,8.8698751 7.801498,8.8349549 7.7543713,8.7953787 7.7030639,8.7497884 7.6379797,8.7265082 7.5756509,8.702258 7.4653402,8.6556977 7.3425828,8.6644278 7.2260963,8.6712178 Z"
   sodipodi:nodetypes="ccccccccccccccccccccccccccccccccccccccccccccccccccccccccccccccccccccccccccccccccccccccccccccccccccccccccccccccccccccccccccccc" /><path
   style="fill:#090909;stroke:#090909;stroke-width:0.00661175"
   inkscape:connector-curvature="0"
   id="path8"
   d="m 6.5799095,0.75955506 c 0.2237567,0 0.4476085,0 0.6715552,-7.76e-4 C 7.2511796,1.2713304 7.2509896,2.2964331 7.2509896,2.2964331 l -0.670795,-3.88e-4 c 0,0 5.701e-4,-1.0243267 -2.851e-4,-1.53649004 z"
   sodipodi:nodetypes="ccccc" /><path
   style="fill:#090909;stroke:#090909;stroke-width:0.00661175"
   inkscape:connector-curvature="0"
   id="path10"
   d="m 8.2324788,2.1083489 c 0.023754,-0.082451 0.083612,-0.1750862 0.1784353,-0.1750862 0.087413,0 0.3493645,0.081481 0.3493645,0.081481 L 8.7232231,2.123093 c 0,0 -0.2532109,-0.084391 -0.3239009,-0.07081 -0.075061,0.06693 -0.085512,0.1782872 -0.095964,0.2729598 0.038956,0.0097 0.067459,0 0.087413,0.04074 0.027554,0.05141 0.0095,0.094091 0,0.1452099 -0.019003,0.1281379 -0.047506,0.2545297 -0.084562,0.3788845 -0.0095,0.02037 -0.027554,0.04753 -0.048457,0.05335 -0.013302,0 -0.026604,0 -0.039905,8.73e-4 -0.054157,-0.0097 -0.1051799,-0.02134 -0.1583875,-0.03104 -0.038956,-0.0097 -0.080762,0 -0.1088854,-0.03783 -0.035155,-0.04268 -0.019003,-0.1094167 -0.0095,-0.158596 0.022804,-0.078571 0.022804,-0.1627671 0.048457,-0.2409496 0.017103,-0.05529 0.026604,-0.1150428 0.054157,-0.1667441 0.038006,-0.03201 0.090263,-0.01067 0.134064,-0.0097 0.020903,-0.06208 0.037056,-0.1256158 0.047506,-0.1907032 z"
   sodipodi:nodetypes="cccccccccccccccccc" /><path
   style="fill:#415c77;stroke:#415c77;stroke-width:0.00661175"
   inkscape:connector-curvature="0"
   id="path12"
   d="m 6.618485,2.2964331 c 0.095203,4.85e-4 0.1905019,3.88e-4 0.2858955,0 0.0095,1.0076426 0,2.0155762 0,3.0233158 -0.096914,0 -0.1937324,0 -0.2904562,0 0,-1.0796171 0.010452,-2.0346853 7.601e-4,-3.0249648 z"
   sodipodi:nodetypes="ccccc" /><path
   style="fill:#090909;stroke:#090909;stroke-width:0.00661175"
   inkscape:connector-curvature="0"
   id="path14"
   d="m 12.531554,3.2529564 c 0.05511,-0.1034027 0.190311,-0.142591 0.295586,-0.1018507 0.05986,0.02619 0.108126,0.07954 0.131023,0.1412329 0,0.608873 -4.75e-4,1.218037 0,1.827007 0,0.093121 0,0.2841149 0,0.2841149 0,0 -0.07506,-0.093121 -0.117721,-0.1281379 -0.09558,-0.06693 -0.223091,-0.087301 -0.333687,-0.04947 0,-0.6018889 8.55e-4,-1.2037779 0,-1.8055698 0,-0.05626 -0.0095,-0.1178558 0.02185,-0.1676171 z"
   sodipodi:nodetypes="ccccccccc" /><path
   style="fill:#403447;stroke:#403447;stroke-width:0.00661175"
   inkscape:connector-curvature="0"
   id="path16"
   d="m 12.97004,5.4143245 c 0.019,0.0291 0.0247,0.1992393 -0.0114,0.2877039 -0.0209,0.03977 -0.05701,0.073721 -0.08646,0.1076707 -0.06271,0.077601 -0.167794,0.085361 -0.24751,0.1365769 h -0.0095 c 0.01425,-0.01261 0.0285,-0.02619 0.04276,-0.0388 -0.08741,0 -0.180146,-0.01261 -0.250645,-0.070811 -0.08646,-0.06596 -0.13549,-0.1738251 -0.13682,-0.2831449 0,-0.1474409 0.09558,-0.2914869 0.237439,-0.3314511 0.110595,-0.0388 0.238104,-0.01843 0.333687,0.04947 0.08551,0.0679 0.08076,0.05723 0.128743,0.1390019 z"
   sodipodi:nodetypes="ccccccccccc" /><path
   style="fill:#090909;stroke:#090909;stroke-width:0.00661175"
   inkscape:connector-curvature="0"
   id="path18"
   d="m 8.579468,3.5350342 c 0.034205,-0.0097 0.07126,-0.0097 0.1067001,-0.0097 0.1672237,0.07954 0.3425237,0.1408449 0.5133579,0.2119464 0.1347291,0.07178 0.2838052,0.1105807 0.4198645,0.1793541 0.039905,0.01843 0.085512,0.03104 0.1135411,0.0679 0.013302,0.03783 0.012352,0.082451 -8.551e-4,0.1209598 -0.031355,0.0388 -0.083612,0.06693 -0.1333039,0.05044 C 9.5370133,4.1345952 9.4773454,4.109375 9.4200523,4.0793048 9.3421412,4.0453546 9.2610947,4.0211044 9.185844,3.9813341 9.1240848,3.952234 9.0573858,3.9367139 8.9959121,3.9076137 8.8633682,3.8348632 8.7103966,3.807897 8.5832686,3.7260285 c -0.024704,-0.02134 -0.055107,-0.04365 -0.057958,-0.078571 0,-0.04462 0.019953,-0.089241 0.054157,-0.1154308 z" /><path
   style="fill:#7e7e7e;stroke:#7e7e7e;stroke-width:0.00661175"
   inkscape:connector-curvature="0"
   id="path20"
   d="M 8.9959121,3.9108147 9.1512592,3.9738651 8.4219357,5.3584522 8.2449255,5.336142 Z"
   sodipodi:nodetypes="ccccc" /><path
   style="fill:#7d8d9f;stroke:#7d8d9f;stroke-width:0.00661175"
   inkscape:connector-curvature="0"
   id="path22"
   d="m 4.6330835,4.5513099 0.5464224,0.3738404 c 0.012352,1.4670376 0,3.0156528 0,4.3741466 -0.1214272,0.068871 -0.2354434,0.150933 -0.3402432,0.2434716 -0.057958,0.05044 -0.2100748,0.05723 -0.2100748,0.05723 z"
   sodipodi:nodetypes="cccccc" /><path
   style="fill:#090909;stroke:#090909;stroke-width:0.00661175"
   inkscape:connector-curvature="0"
   id="path24"
   d="M 8.8680239,4.8569589 C 8.8851266,4.7861484 8.9468849,4.718636 9.022801,4.721643 c 0.078861,-0.0097 0.1447055,0.05626 0.1752048,0.1245488 0.026604,0.076631 -0.027554,0.155007 -0.091213,0.1922553 -0.050357,0.03201 -0.1123059,0.01358 -0.1662735,0 -0.099194,0.1174677 -0.204089,0.2294065 -0.302428,0.3475532 -0.023754,3.88e-4 -0.047506,0 -0.07031,0 4.751e-4,-0.0097 0,-0.01746 0,-0.02134 0.1003341,-0.1302719 0.330932,-0.3769445 0.330932,-0.3769445 0,0 -0.043707,-0.088271 -0.032305,-0.1370619 z"
   sodipodi:nodetypes="cccccccccc" /><path
   style="fill:#415c77;stroke:#415c77;stroke-width:0.00661175"
   inkscape:connector-curvature="0"
   id="path28"
   d="m 7.6956527,5.3730993 c 0.038956,-0.07275 0.061759,-0.1211538 0.061759,-0.1211538 0,0 0.5474677,0.1078647 0.8125552,0.1189227 -5.701e-4,0.0097 0,0.01649 0,0.02134 0.023754,-9.7e-4 0.046557,0 0.07031,0 0.029455,0 0.058908,0.0097 0.088363,0.01261 -0.0095,0 -0.028504,0 -0.037055,0.0097 0.0095,0.0388 0.023754,0.081481 0,0.1193108 C 8.6231745,5.6703092 8.5521048,5.8096991 8.4425543,5.9172728 8.3703442,5.9880833 8.2476817,6.0045734 8.2088212,6.1084611 8.087299,6.4903526 7.9619761,6.857694 7.8535657,7.2231924 c -0.023754,0.08439 -0.063659,0.162767 -0.082662,0.2483216 -0.3841396,9.7e-5 -0.768184,0 -1.1523234,-9.7e-4 0,-0.3852865 1.9e-4,-0.7707671 0,-1.1560536 4.751e-4,-0.05238 -6.651e-4,-0.1060217 -0.0095,-0.158499 0.098339,0 0.1970579,-0.0097 0.2949218,0.0097 0,0.3462923 0,0.6927786 0,1.0391678 0.039905,-0.04365 0.047506,-0.1047606 0.075061,-0.155298 0.260812,-0.5508666 0.4551145,-1.1315124 0.7132662,-1.6644339 z"
   sodipodi:nodetypes="ccccccccccccccccccc" /><path
   style="fill:#403447;stroke:#403447;stroke-width:0.00661175"
   inkscape:connector-curvature="0"
   id="path30"
   d="m 6.3471265,5.329158 0.5610545,-0.0097 2.85e-4,0.8339145 -0.5586791,-0.0097 z"
   sodipodi:nodetypes="ccccc" /><path
   style="fill:#2f2f2f;stroke:#2f2f2f;stroke-width:0.00661175"
   inkscape:connector-curvature="0"
   id="path32"
   d="m 8.6892086,5.4073405 c 0.0095,0 0.028504,0 0.037055,-0.0097 0.1040397,0.0097 0.2051342,0.03783 0.309554,0.04268 0.067459,0 0.120382,0.079541 0.093113,0.1423969 -0.026604,0.072751 -0.060808,0.143658 -0.1084104,0.2048654 -0.058908,0.078571 -0.1049898,0.1710121 -0.189932,0.2239744 -0.056058,0.03977 -0.119622,0.067901 -0.1727344,0.1111628 -0.07126,0.1838162 -0.1084104,0.3796604 -0.1844213,0.5617306 -0.045606,0.146762 -0.085512,0.295076 -0.1351091,0.4405769 -0.106225,0.03395 -0.1676987,0.1372559 -0.2031388,0.2375546 -0.012352,0.03104 -0.010452,0.06887 -0.029454,0.096031 -0.1112607,0.0097 -0.2232816,-2.91e-4 -0.3347324,0 C 7.7900012,7.3732521 7.8299062,7.294391 7.8536602,7.2102915 7.8821645,7.1152307 7.9097191,7.020558 7.9410728,6.9264674 7.9838292,6.7751464 8.0437824,6.6299365 8.0850182,6.4781305 8.1192228,6.3480526 8.1733811,6.2250558 8.2092008,6.09556 8.2481563,5.9918663 8.3710088,5.9753762 8.4429339,5.9042747 8.5524844,5.796798 8.6238396,5.6574081 8.6920592,5.5209282 c 0.021853,-0.03783 0.0095,-0.08051 0,-0.1193108 z" /><path
   style="fill:#090909;stroke:#090909;stroke-width:0.00661175"
   inkscape:connector-curvature="0"
   id="path34"
   d="m 10.458644,5.6813673 c 0.03135,-0.084391 0.125134,-0.1283319 0.209791,-0.1253248 0.533975,0 1.067761,-9.701e-4 1.601736,0 0,0.1093197 0.05036,0.2170874 0.13682,0.2831448 0.07031,0.0582 0.163233,0.06693 0.250645,0.070811 -0.01425,0.01261 -0.0285,0.02619 -0.04276,0.0388 -0.04276,0.0194 -0.09026,0.02813 -0.136344,0.0291 -0.52609,-8.73e-4 -1.05218,-9.7e-5 -1.57827,-3.88e-4 -0.118672,0 -0.240954,0.01358 -0.35478,-0.0291 -0.09511,-0.04656 -0.133304,-0.1737281 -0.08646,-0.2681097 z" /><path
   style="fill:#7d8d9f;stroke:#7d8d9f;stroke-width:0.00661175"
   inkscape:connector-curvature="0"
   id="path38"
   d="m 13.049757,5.9781892 c 0.04846,0 0.101949,0 0.142045,0.03298 0.04181,0.03395 0.07696,0.07469 0.114206,0.1139758 0.152782,0.4378608 0.107746,1.3457868 0.107746,1.3457868 0,0 -1.957753,0.01746 -2.907317,-0.0097 -0.06651,-0.05917 -0.139671,-0.1354129 -0.132355,-0.2323165 0,-0.304097 8.55e-4,-0.608194 3.8e-4,-0.912194 0,-0.05141 -0.0095,-0.1051487 0.0095,-0.155007 0.03991,-0.085361 0.111831,-0.156947 0.201809,-0.1858532 0.615022,-3.88e-4 1.750528,-0.0097 2.464079,0 z"
   sodipodi:nodetypes="cccccccccc" /><path
   style="fill:#b00a23;stroke:#c00e28;stroke-width:0.00661175;fill-opacity:1"
   inkscape:connector-curvature="0"
   id="path76"
   d="m 7.0752147,7.7263347 c 0.1650384,-0.03492 0.3354925,-0.03007 0.5029064,-0.02037 0.1254177,0.0097 0.2434245,0.05044 0.3624764,0.086331 0.1166765,0.0388 0.2307877,0.089241 0.3324521,0.159566 0.2150155,0.1339579 0.402572,0.3179681 0.52932,0.5405846 0.1359644,0.2064173 0.1952528,0.4532839 0.2264172,0.6966585 0.017103,0.1597601 0,0.3216541 -0.025654,0.4792802 0,0.02134 -0.012352,0.04753 0.010452,0.06208 0.065559,0.01261 0.1334938,0 0.2002883,0.0097 1.0339369,9.7e-5 2.0677779,-2.91e-4 3.1017139,9.7e-5 0.02185,0 0.05131,0 0.06461,-0.02231 9.5e-5,-0.04753 -0.01235,-0.093121 -0.0171,-0.1391959 -0.02185,-0.1818762 0,-0.3653044 0.03896,-0.5432036 0.02755,-0.1005896 0.06651,-0.1977843 0.1029,-0.2951729 0.04086,-0.1110657 0.112495,-0.2062234 0.174825,-0.305552 0.08076,-0.1181468 0.180999,-0.2218405 0.29093,-0.3123421 0.07506,-0.079541 0.1734,-0.1282348 0.262903,-0.1884722 0.144515,-0.091181 0.309364,-0.1391959 0.472027,-0.1846892 0.126367,-0.04074 0.260242,-0.04462 0.39174,-0.04559 0.118292,9.7e-5 0.238199,0 0.354021,0.0291 0.142424,0.03686 0.285419,0.076631 0.418819,0.1403599 0.102234,0.04171 0.189741,0.1106777 0.28333,0.1682961 0.02755,0.0194 0.06366,0.0388 0.06176,0.07857 0.0095,0.1191168 0,0.2387186 8.55e-4,0.3580294 -0.05321,-0.04171 -0.09406,-0.095061 -0.143755,-0.1395839 0.0114,-0.02716 0.02375,-0.05335 0.03516,-0.080511 -0.04656,-0.04268 -0.09311,-0.086331 -0.148221,-0.1177587 -0.03231,-0.02328 -0.06271,0.01843 -0.09026,0.03298 -0.06271,-0.02813 -0.124847,-0.05723 -0.181001,-0.096031 3.8e-4,-0.02813 0.0095,-0.05626 0,-0.083421 -0.06556,-0.0291 -0.135204,-0.04947 -0.204469,-0.06693 -0.0152,0.02134 -0.0304,0.04365 -0.04466,0.06596 -0.06556,-0.0097 -0.13207,-0.0097 -0.197059,-0.02037 -0.03896,-0.0097 -0.0152,-0.06014 -0.01995,-0.088271 -0.07696,-0.0097 -0.154302,-0.0097 -0.230787,1.94e-4 0,0.03007 0,0.05917 0,0.089241 -0.07791,0.0097 -0.154777,0.01455 -0.231833,0.02328 -0.0114,-0.02328 -0.0228,-0.04559 -0.03325,-0.0679 -0.06841,0.02134 -0.13815,0.03977 -0.204564,0.06693 -0.01045,0.02813 6.65e-4,0.06014 -0.01045,0.088271 -0.05226,0.04171 -0.116487,0.06499 -0.17549,0.096031 -0.01995,-0.01552 -0.03991,-0.03201 -0.05986,-0.04753 -0.06651,0.03783 -0.126843,0.085361 -0.18024,0.1399719 0.0152,0.02328 0.0304,0.04559 0.04561,0.06887 -0.05606,0.04753 -0.103945,0.1034997 -0.149076,0.161506 -0.0228,-0.01358 -0.04656,-0.02716 -0.06936,-0.03977 -0.05131,0.05238 -0.09625,0.1136847 -0.123993,0.1824582 0.0095,0.02619 0.03516,0.04171 0.05321,0.06111 -0.0228,0.06499 -0.05036,0.1280408 -0.07791,0.1909942 -0.0285,-9.7e-4 -0.05606,0 -0.08361,0 -0.03611,0.0679 -0.04751,0.14521 -0.05511,0.2210645 0.02185,0.0097 0.04371,0.01843 0.06556,0.02716 0,0.072751 -0.01235,0.145113 -0.0133,0.2180575 -0.02565,0 -0.05131,0.0097 -0.07696,0.0097 0,0.07469 0,0.148605 0.01045,0.2228105 0.03135,0.0097 0.06271,0.0097 0.09406,0.01358 0.0095,0.06887 0.0247,0.1371589 0.04941,0.2027313 -0.0228,0.01649 -0.04561,0.03201 -0.06841,0.0485 0.01615,0.05529 0.03801,0.109999 0.06366,0.161894 -1.128095,0 -2.256095,4.85e-4 -3.3841895,9.7e-4 -0.2319278,0 -0.4639508,0 -0.6954036,0 0.027554,-0.05044 0.050357,-0.1033053 0.067459,-0.1581107 -0.025654,-0.01358 -0.051307,-0.02716 -0.076961,-0.04074 0.025654,-0.06984 0.046556,-0.1407479 0.057958,-0.2143714 0.028504,0 0.057958,-0.0097 0.086462,-0.0097 0.014252,-0.074691 0.019953,-0.150545 0.018053,-0.2263025 -0.025654,0 -0.050357,-0.0097 -0.07506,-0.01164 -0.0095,-0.04171 -0.0095,-0.084391 -0.012352,-0.1263919 0.022803,-0.0097 0.046556,-0.0194 0.07031,-0.0291 -0.0095,-0.076631 -0.015202,-0.151709 -0.030405,-0.2261084 -0.028504,5.82e-4 -0.057008,0 -0.084562,0 -0.031355,-0.068871 -0.057008,-0.1389049 -0.080761,-0.2101034 0.022803,-0.01164 0.046556,-0.02425 0.07031,-0.03589 -0.032305,-0.071781 -0.065559,-0.145404 -0.1160114,-0.2066114 -0.023754,0.0097 -0.046556,0.0194 -0.06936,0.0291 -0.051307,-0.05141 -0.094064,-0.1110657 -0.1382446,-0.1689751 0.013302,-0.02037 0.026604,-0.04074 0.040856,-0.06111 -0.047506,-0.06596 -0.1137311,-0.1137818 -0.1809055,-0.156753 -0.019953,0.01746 -0.039906,0.03492 -0.059858,0.05238 -0.064609,-0.0388 -0.1279831,-0.079541 -0.1957277,-0.1119387 0.0095,-0.02716 0.019953,-0.05335 0.029455,-0.080511 -0.06841,-0.0388 -0.141,-0.06693 -0.2150154,-0.091181 -0.012352,0.02425 -0.024704,0.04947 -0.037056,0.07372 -0.076961,-0.01067 -0.1511664,-0.03298 -0.2277473,-0.04462 0,-0.03104 0,-0.06208 0,-0.092151 -0.076961,-0.0097 -0.154872,-0.0097 -0.2320229,0 0,0.02522 -0.0095,0.05044 -0.011402,0.07566 -0.075061,0.01455 -0.1516416,0.02231 -0.2282224,0.0194 -0.0095,-0.02328 -0.016152,-0.04559 -0.024704,-0.0679 -0.080761,0 -0.1600027,0.02619 -0.2292675,0.06984 0.0095,0.02425 0.016153,0.04947 0.024704,0.07469 -0.080761,0.01649 -0.1424252,0.076631 -0.2218565,0.095061 -0.013302,-0.02231 -0.027554,-0.04559 -0.040856,-0.0679 -0.065559,0.04656 -0.1385296,0.084391 -0.1937324,0.144434 0.012352,0.02231 0.027554,0.04462 0.033255,0.07081 -0.016153,0.02328 -0.038005,0.04365 -0.058908,0.06305 C 6.3255875,8.2970867 6.3132356,8.2403413 6.3075347,8.1821409 6.2961329,8.1181205 6.3578921,8.0777682 6.4006476,8.044109 6.4909105,7.9878487 6.573002,7.9170382 6.671911,7.8763949 6.8031246,7.8181945 6.940134,7.7734773 7.0791387,7.73846 Z" /><path
   style="fill:#212121;stroke:#2f2f2f;stroke-width:0.00661175;fill-opacity:1"
   inkscape:connector-curvature="0"
   id="path78"
   d="m 13.98849,7.8792077 c 0.07696,-0.0097 0.154017,-0.0097 0.230883,-9.7e-5 0.0095,0.02813 -0.01995,0.079541 0.01995,0.088271 0.06461,0.01164 0.131403,0.01261 0.197057,0.02037 0.0152,-0.02231 0.02946,-0.04365 0.04466,-0.06596 0.06936,0.01843 0.138624,0.0388 0.204469,0.06693 0.0095,0.02716 0,0.05529 0,0.08342 0.05606,0.03977 0.118387,0.06887 0.181,0.096031 0.02755,-0.01358 0.05796,-0.05626 0.09026,-0.03298 0.05511,0.03104 0.10176,0.074691 0.148221,0.1176618 -0.01235,0.02716 -0.02375,0.05335 -0.03515,0.08051 0.05036,0.04462 0.09121,0.098262 0.143756,0.1395839 l 0.0095,0.0097 c 0.02661,-0.01067 0.06176,-0.04753 0.08646,-0.01164 0.03706,0.05723 0.09121,0.1094167 0.10442,0.1788692 -0.01995,0.01455 -0.06746,0.02425 -0.05226,0.0582 0.0285,0.05917 0.04751,0.1229968 0.07981,0.1799362 0.0266,-9.7e-4 0.05416,-0.0097 0.08076,0 0.04086,0.06305 0.04181,0.1459859 0.05036,0.2197064 -0.01995,0.0097 -0.04086,0.01067 -0.05986,0.01552 -5.7e-4,0.07857 0.0095,0.156074 0.0152,0.2340625 0.0228,-4.85e-4 0.04561,-7.76e-4 0.06841,-1.94e-4 9.5e-4,0.079541 0,0.1591781 -0.0095,0.2382336 -0.0266,-6.79e-4 -0.05416,0 -0.08076,0 -0.02375,0.07081 -0.04371,0.1432699 -0.06461,0.2154384 0.0247,0.01164 0.05416,0.01843 0.07411,0.0388 -0.0095,0.07857 -0.06651,0.1387111 -0.08836,0.2132073 -0.02755,-0.0097 -0.05606,-0.01649 -0.08361,-0.02522 -0.03421,0.06596 -0.08456,0.121154 -0.121617,0.185077 0.01995,0.01552 0.03991,0.03395 0.05701,0.05335 -0.04181,0.05432 -0.08266,0.112423 -0.135204,0.157238 -0.03325,0.02328 -0.06081,-0.01746 -0.08646,-0.03298 -0.05131,0.04656 -0.108125,0.08633 -0.166083,0.124355 -0.01425,0.0291 0.0209,0.05723 0.0285,0.08536 -0.07411,0.03395 -0.14081,0.08439 -0.218911,0.107089 -0.0095,-0.02134 -0.0133,-0.04171 -0.019,-0.06208 -0.07506,0.0097 -0.144705,0.04074 -0.216915,0.06014 -1.9e-4,0.03007 6.65e-4,0.05917 0,0.08924 -0.07791,0.01358 -0.155727,0.03201 -0.234589,0.02813 0,-0.02231 -0.0095,-0.04365 -0.01045,-0.06499 -0.01615,-0.02231 -0.03991,-0.0097 -0.05986,0 -0.05131,0.0097 -0.105941,0.0097 -0.154967,-0.01164 -0.01235,0.02328 -0.0171,0.04753 -0.0171,0.07372 -0.08171,0.01746 -0.163708,-0.01358 -0.24542,-0.01843 6.65e-4,-0.03104 0,-0.06208 0,-0.09312 -0.07221,-0.01649 -0.139765,-0.04947 -0.213116,-0.06111 -0.01425,0.01843 -0.01615,0.05626 -0.03991,0.06111 -0.06936,-0.0291 -0.134063,-0.06984 -0.202379,-0.102142 0.0114,-0.02813 0.0247,-0.05432 0.03706,-0.08245 -0.06081,-0.03977 -0.121523,-0.07954 -0.174445,-0.129302 -0.0228,0.01746 -0.04561,0.03395 -0.06841,0.05044 -0.04371,-0.03686 -0.08076,-0.08051 -0.116486,-0.124743 -0.01615,-0.0194 -0.04086,-0.04171 -0.02661,-0.06887 0.01425,-0.01261 0.02946,-0.02425 0.04466,-0.03589 -0.03991,-0.06111 -0.08266,-0.120086 -0.123327,-0.180033 -0.02185,0.0097 -0.04371,0.01164 -0.06556,0.01649 -0.01995,-0.0097 -0.03325,-0.02328 -0.04181,-0.04074 -0.0266,-0.05141 -0.04751,-0.1062156 -0.06366,-0.1618943 0.0228,-0.01649 0.04561,-0.03201 0.06841,-0.0485 -0.02375,-0.06596 -0.03896,-0.1337639 -0.04941,-0.2027313 -0.03136,-0.0097 -0.06271,-0.0097 -0.09407,-0.01358 -0.0095,-0.073721 -0.0133,-0.148508 -0.01045,-0.2229075 0.02565,0 0.05036,-0.0097 0.07696,-0.0097 0,-0.07275 0.0095,-0.145307 0.0133,-0.2179605 -0.02185,-0.0097 -0.04466,-0.01746 -0.06556,-0.02716 0.0095,-0.075661 0.019,-0.15297 0.05511,-0.2210645 0.02755,9.7e-4 0.05511,0 0.08361,0 0.02755,-0.06305 0.05511,-0.1260038 0.07791,-0.1909942 -0.01805,-0.0194 -0.04466,-0.03492 -0.05321,-0.06111 0.02755,-0.068871 0.07221,-0.1301749 0.123993,-0.1824582 0.0228,0.01358 0.04561,0.02619 0.06936,0.03977 0.04561,-0.0582 0.09311,-0.1140727 0.149076,-0.161603 -0.0152,-0.02328 -0.0304,-0.04656 -0.04561,-0.06887 0.05321,-0.05529 0.113732,-0.1025297 0.180241,-0.1399719 0.01995,0.01552 0.03991,0.03201 0.05986,0.04753 0.05891,-0.03104 0.122947,-0.05432 0.175491,-0.096031 0.0114,-0.02813 -2.86e-4,-0.06014 0.01045,-0.088271 0.06651,-0.02716 0.135869,-0.04559 0.204564,-0.06693 0.0114,0.02231 0.02185,0.04559 0.03325,0.0679 0.07696,-0.0097 0.154302,-0.01843 0.231927,-0.02328 0,-0.03007 0,-0.05917 0,-0.089241 m 0.06081,0.7594179 c -0.114966,0.02328 -0.228602,0.06402 -0.320195,0.139972 -0.07221,0.06984 -0.149742,0.1394869 -0.191072,0.2335775 -0.09026,0.1876962 -0.09311,0.4156477 -0.0095,0.6051869 0.0247,0.07372 0.08456,0.1239669 0.131118,0.1824582 0.03231,0.04074 0.07506,0.07275 0.120572,0.098941 0.05416,0.03007 0.10651,0.06693 0.168839,0.076631 0.08741,0.01455 0.174919,0.0485 0.264897,0.03298 0.130169,-0.0194 0.263853,-0.053351 0.370078,-0.1365769 0.10708,-0.073721 0.177391,-0.1888605 0.231548,-0.3055523 0.07031,-0.1813912 0.06271,-0.3969266 -0.03991,-0.5643497 -0.02946,-0.07178 -0.07981,-0.1323088 -0.13606,-0.1837192 C 14.479112,8.6700538 14.25165,8.6069064 14.041005,8.6410506 Z" /><path
   style="fill:#b4b3c1;stroke:#b4b3c1;stroke-width:0.00661175"
   inkscape:connector-curvature="0"
   id="path94"
   d="m 14.048919,8.6386256 c 0.210644,-0.03395 0.438107,0.0291 0.593929,0.1795482 0.05701,0.05141 0.106604,0.1119387 0.136059,0.1838162 0.10195,0.1673261 0.110026,0.3828615 0.03991,0.5642527 -0.05416,0.1167888 -0.124467,0.2318315 -0.231548,0.3056493 -0.106225,0.08245 -0.239909,0.1168858 -0.370077,0.13648 -0.09026,0.01552 -0.177485,-0.01843 -0.264897,-0.03298 -0.06271,-0.0097 -0.115062,-0.04656 -0.168839,-0.076631 -0.04561,-0.02522 -0.08836,-0.0582 -0.120667,-0.098941 -0.04656,-0.0582 -0.106035,-0.1090287 -0.131024,-0.1823612 -0.08646,-0.1895392 -0.08456,-0.4175877 0.0095,-0.6051869 0.04086,-0.094091 0.118768,-0.1640281 0.191073,-0.2335776 0.09121,-0.076631 0.205228,-0.1169827 0.320195,-0.1400689 z" /><path
   style="fill:#b4b3c1;stroke:#b4b3c1;stroke-width:0.00661175"
   inkscape:connector-curvature="0"
   id="path96"
   d="m 7.2065233,8.6644278 c 0.1164865,-0.0097 0.2392439,-0.01552 0.3495546,0.03104 0.062709,0.02425 0.1276982,0.04753 0.1787203,0.093121 0.046556,0.03977 0.099004,0.07469 0.1383397,0.1228998 0.053207,0.06499 0.088363,0.1427849 0.1188619,0.2206765 0.050357,0.1122297 0.047506,0.2406585 0.028504,0.3597753 -0.038956,0.090211 -0.061759,0.1909943 -0.1256078,0.2684008 -0.057958,0.093121 -0.1488861,0.1592753 -0.2447547,0.2075816 -0.063659,0.03007 -0.1248477,0.07081 -0.196678,0.07469 -0.099954,0.0097 -0.2023787,0.01358 -0.3006226,-0.0097 C 6.9935978,9.9844127 6.8404361,9.8950751 6.7447575,9.7535509 6.6915501,9.6837105 6.6668464,9.5972829 6.6376773,9.5153174 6.5958718,9.3901865 6.6101236,9.2522516 6.65953,9.1317769 6.6927846,9.0138241 6.7613845,8.9065414 6.8594384,8.8338879 6.9516012,8.7378573 7.0800596,8.692849 7.2062375,8.6653008 Z" /><path
   style="fill:#ffc41f;stroke:#ffc41f;stroke-width:0.00661175"
   inkscape:connector-curvature="0"
   id="path100"
   d="M 4.6327034,5.2750316 0.59311055,5.0927674 0.40346366,9.0114961 4.4564533,9.2410966 Z"
   sodipodi:nodetypes="ccccc" /><path
   style="fill:#090909;stroke:#090909;stroke-width:0.00661175"
   inkscape:connector-curvature="0"
   id="path102"
   d="m 4.6268125,9.2111234 c -1.2461017,0.02037 -2.5347694,-0.073721 -3.66904023,-0.1309509 -0.0266038,3.88e-4 -0.0522574,0 -0.077911,0.0097 0.009501,0.02425 0.0133018,0.05335 0.0323046,0.073721 0.0627089,0.07275 0.15240153,0.1132967 0.24161923,0.1412329 0.120287,0.03783 0.2390538,0.04753 0.3639015,0.06014 1.0515141,0.1098047 2.0614124,0.1868232 3.1107412,0.2397855 0,-0.1296898 2.85e-4,-0.2591856 0,-0.3887785 z"
   sodipodi:nodetypes="cccccccc" /><path
   style="fill:#415c77;stroke:#415c77;stroke-width:0.00661175"
   inkscape:connector-curvature="0"
   id="path104"
   d="m 12.937736,0.56923982 0.575877,0.0116401 0.527989,6.88830608 h -0.641435 z" />
<path
   style="fill:#b68401;stroke:#b68401;stroke-width:0.00661175"
   inkscape:connector-curvature="0"
   id="path26"
   d="m 2.4456832,5.179001 0.4829535,0.02425 -0.058908,0.9736924 -0.4659461,-0.01358 z"
   sodipodi:nodetypes="ccccc" /><path
   style="fill:#d30c31;stroke:#ea113a;stroke-width:0.00661175;fill-opacity:1"
   inkscape:connector-curvature="0"
   id="path36"
   d="m 15.221195,5.9890533 c 0,-0.099814 -0.0095,-0.2058354 -0.05986,-0.2938149 -0.05416,-0.078571 -0.141,-0.1308539 -0.232023,-0.153552 -0.14499,-0.05141 -0.301667,-0.03977 -0.452359,-0.03298 -0.193542,-9.7e-4 -0.594309,5.82e-4 -0.594309,5.82e-4 l 0.158577,1.9592189 -5.3539137,-0.0097 c 0,0 -0.036105,-0.2035073 -0.1119259,-0.2733478 -0.060808,-0.06693 -0.1559171,-0.06402 -0.2376286,-0.06014 -0.106225,0.03395 -0.1676988,0.1372559 -0.2031388,0.2375546 -0.012352,0.03104 -0.010452,0.06887 -0.029454,0.096031 -0.1112607,0.0097 -0.2231867,-2.91e-4 -0.3346374,0 -0.3841395,9.7e-5 -0.768184,0 -1.1523235,0 -0.063659,1.94e-4 -0.1267479,9.7e-5 -0.1898368,-2.91e-4 -0.078861,-4.85e-4 -0.1585776,0 -0.2377237,0 0.010452,0.152679 0.037056,0.303806 0.040856,0.457164 0,0.158305 0.037056,0.313603 0.039905,0.4721021 0.020903,-0.01746 0.041806,-0.03395 0.062709,-0.05238 -0.012352,-0.05723 -0.024704,-0.1139757 -0.030405,-0.1721761 -0.011402,-0.06402 0.050357,-0.1042757 0.093113,-0.1380319 0.090263,-0.05626 0.1723545,-0.1270708 0.2712634,-0.1677141 0.1312136,-0.0582 0.268128,-0.1028207 0.4071327,-0.1379349 0.1651335,-0.03492 0.3355876,-0.03007 0.5030014,-0.0194 0.1254178,0.0097 0.2434245,0.05044 0.3624765,0.08633 0.1166764,0.0388 0.2307876,0.089241 0.3324521,0.1595661 0.2150154,0.1340549 0.402572,0.3179681 0.5293199,0.5405845 0.1359645,0.2064174 0.1952528,0.453284 0.2264172,0.6966586 0.017103,0.15976 0,0.3216541 -0.025654,0.4792801 0,0.02134 -0.012352,0.04753 0.010452,0.06208 0.065559,0.01261 0.1334939,0 0.2002883,0.0097 1.0339369,9.7e-5 2.0677779,-2.91e-4 3.1017139,9.7e-5 0.02185,0 0.05131,0 0.06461,-0.02231 9.5e-5,-0.04753 -0.01235,-0.093121 -0.0171,-0.139196 -0.02185,-0.1818761 0,-0.3653044 0.03896,-0.5432035 0.02755,-0.1005897 0.06651,-0.1977843 0.1029,-0.2951729 0.04086,-0.1110658 0.112495,-0.2062234 0.174825,-0.305552 0.08076,-0.1182438 0.180999,-0.2218405 0.29093,-0.3123421 0.07506,-0.079541 0.1734,-0.1282348 0.262903,-0.1884722 0.144515,-0.091181 0.309364,-0.1391959 0.472027,-0.1846892 0.126367,-0.04074 0.260242,-0.04462 0.39174,-0.04559 0.118292,9.7e-5 0.238199,0 0.354021,0.0291 0.142424,0.03686 0.285324,0.076631 0.418819,0.1403599 0.102234,0.04171 0.189741,0.1106777 0.283235,0.1682961 0.02755,0.0194 0.06461,0.0388 0.06176,0.07857 0.0095,0.1191168 0,0.2387186 8.55e-4,0.3580293 l 0.0095,0.0097 c 0.0095,-0.01358 -0.0095,-1.8109048 0,-2.4926253 z"
   sodipodi:nodetypes="ccccccccccccccccccccccccccccccccccccccccccccccc" /></svg>