<?xml version="1.0" encoding="UTF-8" standalone="no"?>
<!-- Generator: Adobe Illustrator 12.0.0, SVG Export Plug-In . SVG Version: 6.00 Build 51448)  -->

<svg
   xmlns:dc="http://purl.org/dc/elements/1.1/"
   xmlns:cc="http://creativecommons.org/ns#"
   xmlns:rdf="http://www.w3.org/1999/02/22-rdf-syntax-ns#"
   xmlns:svg="http://www.w3.org/2000/svg"
   xmlns="http://www.w3.org/2000/svg"
   xmlns:sodipodi="http://sodipodi.sourceforge.net/DTD/sodipodi-0.dtd"
   xmlns:inkscape="http://www.inkscape.org/namespaces/inkscape"
   id="Layer_1"
   sodipodi:docname="19.svg"
   xml:space="preserve"
   viewBox="0 0 80 160"
   sodipodi:version="0.32"
   version="1.0"
   inkscape:version="0.92.2 (5c3e80d, 2017-08-06)"
   width="80"
   height="160"><defs
     id="defs115" /><sodipodi:namedview
     id="base"
     bordercolor="#666666"
     inkscape:pageshadow="2"
     inkscape:window-width="1680"
     pagecolor="#ffffff"
     inkscape:zoom="1.7700856"
     inkscape:window-x="-8"
     borderopacity="1.0"
     inkscape:current-layer="Layer_1"
     inkscape:cx="-38.672521"
     inkscape:cy="106.7745"
     inkscape:window-y="-8"
     inkscape:window-height="987"
     inkscape:pageopacity="0.0"
     showgrid="true"
     inkscape:window-maximized="1"><inkscape:grid
       type="xygrid"
       id="grid922" /></sodipodi:namedview><g
     id="g3"
     transform="matrix(0.69383632,0,0,0.74925294,0,-3.1797168e-4)"><path
       id="path5"
       style="fill:#004033"
       d="m 5,211.61 c 11.05,2.07 23.26,2.045 34.444,1.188 3.036,-0.232 6.068,-0.386 9.101,-0.674 2.379,-0.226 5.315,-0.275 7.106,-2.065 1.747,-1.747 1.149,-5.769 1.149,-8.057 V 107.027 C 56.8,98.239 57.014,89.423 56.691,80.639 56.462,74.447 53.98,68.981 50.101,64.208 46.385,59.636 41.085,55.661 39.511,49.814 38.99,47.88 39.237,45.541 39.152,43.555 38.964,39.133 38.775,34.712 38.587,30.29 38.44,26.836 38.293,23.383 38.146,19.929 38.12,19.32 38.103,18.717 38.103,18.108 c 0,-1.111 0.341,-0.642 0.9,-1.2 0.677,-0.677 0.1,-4.042 0.1,-4.97 0,-1.565 0.111,-3.088 -0.351,-4.48 C 38.326,6.175 37.77,5.355 37.702,4.108 37.604,2.309 37.011,1.512 35.136,0.885 32.615,0.044 29.772,0.307 27.158,0.307 c -1.994,0 -6.38,-0.163 -7.555,1.9 -0.495,0.869 -0.026,2.069 -0.2,2.8 -0.283,1.186 -1.178,2.115 -1.4,3.3 -0.397,2.116 0.051,4.435 -0.1,6.6 -0.027,0.394 -0.357,1.249 -0.2,1.6 0.264,0.593 1.2,0.378 1.2,1 0,5.917 -0.445,11.854 -0.697,17.765 -0.167,3.924 -0.334,7.848 -0.502,11.771 -0.086,2.03 -0.195,3.955 -1.275,5.755 C 13.332,57.959 8.348,61.666 5.107,66.74 1.676,72.118 0.2,77.242 0.2,83.623 v 7.928 97.348 15.402 c 0,3.49 0.449,7.05 4.8,7.32"
       inkscape:connector-curvature="0" /><path
       id="path7"
       style="fill:none;stroke:#000000;stroke-width:0.4;stroke-linecap:square;stroke-miterlimit:10"
       d="m 5,211.61 c 11.05,2.07 23.26,2.045 34.444,1.188 3.036,-0.232 6.068,-0.386 9.101,-0.674 2.379,-0.226 5.315,-0.275 7.106,-2.065 1.747,-1.747 1.149,-5.769 1.149,-8.057 V 107.027 C 56.8,98.239 57.014,89.423 56.691,80.639 56.462,74.447 53.98,68.981 50.101,64.208 46.385,59.636 41.085,55.661 39.511,49.814 38.99,47.88 39.237,45.541 39.152,43.555 38.964,39.133 38.775,34.712 38.587,30.29 38.44,26.836 38.293,23.383 38.146,19.929 38.12,19.32 38.103,18.717 38.103,18.108 c 0,-1.111 0.341,-0.642 0.9,-1.2 0.677,-0.677 0.1,-4.042 0.1,-4.97 0,-1.565 0.111,-3.088 -0.351,-4.48 C 38.326,6.175 37.77,5.355 37.702,4.108 37.604,2.309 37.011,1.512 35.136,0.885 32.615,0.044 29.772,0.307 27.158,0.307 c -1.994,0 -6.38,-0.163 -7.555,1.9 -0.495,0.869 -0.026,2.069 -0.2,2.8 -0.283,1.186 -1.178,2.115 -1.4,3.3 -0.397,2.116 0.051,4.435 -0.1,6.6 -0.027,0.394 -0.357,1.249 -0.2,1.6 0.264,0.593 1.2,0.378 1.2,1 0,5.917 -0.445,11.854 -0.697,17.765 -0.167,3.924 -0.334,7.848 -0.502,11.771 -0.086,2.03 -0.195,3.955 -1.275,5.755 C 13.332,57.959 8.348,61.666 5.107,66.74 1.676,72.118 0.2,77.242 0.2,83.623 v 7.928 97.348 15.402 c 0,3.49 0.449,7.05 4.8,7.32"
       inkscape:connector-curvature="0" /><path
       id="path9"
       style="fill:#608f86"
       d="m 3.3,82.413 c 1.035,-0.027 2.067,-0.134 3.101,-0.2 0.499,-0.032 2.784,0.121 3.1,-0.2 0.44,-0.446 0,-3.395 0,-4.074 0,-1.166 0.314,-2.364 0.491,-3.514 0.694,-4.503 3.413,-8.609 5.959,-12.271 2.635,-3.79 4.871,-6.976 5.082,-11.66 0.256,-5.693 0.512,-11.387 0.768,-17.081 -0.591,0.034 -3.157,-0.197 -3.5,0.2 -0.253,0.293 -0.068,1.799 -0.082,2.166 -0.129,3.392 -0.258,6.783 -0.386,10.175 -0.083,2.173 -0.236,3.849 -0.801,5.947 -0.558,2.071 -2.757,4.169 -4.17,5.695 -3.464,3.741 -6.667,7.445 -9.415,11.746 -2.71,4.242 -2.966,9.43 -3.146,14.271 0.038,-1.18 2.309,-0.919 2.999,-1.2"
       inkscape:connector-curvature="0" /><path
       id="path11"
       style="fill:#001f17"
       d="m 56.8,206.31 c 0.305,6.307 -8.062,6.021 -12.532,6.207 -5.929,0.246 -11.829,0.594 -17.767,0.594 -5.868,0 -11.746,-0.367 -17.582,-0.948 C 4.407,211.714 0.2,211.225 0.2,205.741 V 120.304 84.516 c 0,-0.666 -0.241,-1.807 0.585,-1.958 2.841,-0.517 5.69,-0.726 8.57,-0.9 6.269,-0.379 12.572,-0.448 18.852,-0.448 5.799,0 11.62,0.075 17.41,0.426 3.044,0.184 6.141,0.367 9.15,0.869 1.551,0.258 2.033,0.452 2.033,1.846 v 34.106 86.995 0.87"
       inkscape:connector-curvature="0" /><path
       id="path13"
       style="fill:none;stroke:#292929;stroke-width:0.2;stroke-linecap:square;stroke-miterlimit:10"
       d="m 56.8,206.31 c 0.305,6.307 -8.062,6.021 -12.532,6.207 -5.929,0.246 -11.829,0.594 -17.767,0.594 -5.868,0 -11.746,-0.367 -17.582,-0.948 C 4.407,211.714 0.2,211.225 0.2,205.741 V 120.304 84.516 c 0,-0.666 -0.241,-1.807 0.585,-1.958 2.841,-0.517 5.69,-0.726 8.57,-0.9 6.269,-0.379 12.572,-0.448 18.852,-0.448 5.799,0 11.62,0.075 17.41,0.426 3.044,0.184 6.141,0.367 9.15,0.869 1.551,0.258 2.033,0.452 2.033,1.846 v 34.106 86.995 0.87"
       inkscape:connector-curvature="0" /><path
       id="path15"
       style="fill:#ffffff"
       d="m 43,68.013 c 1.098,11.516 1.223,23.416 0.988,34.979 -0.016,0.756 -0.019,8.904 -0.395,8.928 -3.045,0.197 -5.979,0.362 -8.938,1.152 -0.622,0.166 -2.357,1.413 -2.856,1.341 -0.843,-0.121 -0.399,-2.254 -0.399,-3.224 0,-2.735 0.051,-5.49 0.118,-8.225 C 31.71,95.14 31.979,87.061 30.869,79.294 30.617,77.531 30.5,75.708 30.5,73.927 c 0,-0.925 -0.277,-2.005 -0.1,-2.915 0.086,-0.44 -0.274,-1 0.285,-1 0.618,0 1.211,-0.033 1.827,-0.084 1.778,-0.148 3.551,-0.724 5.287,-1.116 1.564,-0.348 3.897,-0.279 5.201,-0.795"
       inkscape:connector-curvature="0" /><path
       id="path17"
       style="fill:none;stroke:#a6a6a6;stroke-width:0.1;stroke-linecap:square;stroke-miterlimit:10"
       d="m 43,68.013 c 1.098,11.516 1.223,23.416 0.988,34.979 -0.016,0.756 -0.019,8.904 -0.395,8.928 -3.045,0.197 -5.979,0.362 -8.938,1.152 -0.622,0.166 -2.357,1.413 -2.856,1.341 -0.843,-0.121 -0.399,-2.254 -0.399,-3.224 0,-2.735 0.051,-5.49 0.118,-8.225 C 31.71,95.14 31.979,87.061 30.869,79.294 30.617,77.531 30.5,75.708 30.5,73.927 c 0,-0.925 -0.277,-2.005 -0.1,-2.915 0.086,-0.44 -0.274,-1 0.285,-1 0.618,0 1.211,-0.033 1.827,-0.084 3.542,-0.295 6.885,-1.957 10.487,-1.815"
       inkscape:connector-curvature="0" /><path
       id="path19"
       style="fill:#c7d8c7"
       d="m 31,81.513 c -0.212,-3.202 -0.508,-6.397 -0.6,-9.6 -0.014,-0.489 -0.227,-1.9 0.285,-1.9 0.734,0 1.476,-0.01 2.202,-0.131 1.654,-0.276 3.277,-0.7 4.912,-1.069 1.481,-0.334 3.026,-0.7 4.55,-0.7 1.114,0 0.95,2.93 0.95,4.019 0,3.22 0.232,6.465 0.4,9.681 -4.232,-0.101 -8.466,-0.2 -12.699,-0.3"
       inkscape:connector-curvature="0" /><path
       id="path21"
       style="fill:#b8c2b8"
       d="M 43.601,81.413 C 43.987,87.238 44,93.139 44,98.978 c 0,2.767 -0.032,5.556 -0.131,8.32 -0.054,1.5 -0.109,2.999 -0.164,4.498 -0.01,0.276 -3.472,0.345 -4.127,0.395 -2.592,0.198 -5.418,0.651 -7.627,2.121 -1.082,0.72 -0.55,-1.53 -0.55,-2.145 0,-1.554 0.077,-3.102 0.1,-4.655 0.089,-5.96 0.217,-11.94 0.05,-17.9 -0.076,-2.717 0.095,-5.825 -0.55,-8.4 4.199,0.059 8.399,0.126 12.6,0.193"
       inkscape:connector-curvature="0" /><path
       id="path23"
       style="fill:none;stroke:#608f86;stroke-width:0.5;stroke-linecap:square;stroke-miterlimit:10"
       d="m 30.3,75.613 c 4.688,-1.101 9.227,-2.405 14.101,-2.1"
       inkscape:connector-curvature="0" /><path
       id="path25"
       style="fill:none;stroke:#608f86;stroke-width:0.5;stroke-linecap:square;stroke-miterlimit:10"
       d="m 37.4,68.813 c 0.281,4.231 0.283,8.464 0.6,12.7"
       inkscape:connector-curvature="0" /><path
       id="path27"
       style="fill:none;stroke:#336633;stroke-width:0.5;stroke-linecap:square;stroke-miterlimit:10"
       d="m 38,81.313 c 0.719,10.008 0.429,20.39 -0.2,30.4"
       inkscape:connector-curvature="0" /><path
       id="path29"
       style="fill:none;stroke:#608f86;stroke-width:0.5;stroke-linecap:square;stroke-miterlimit:10"
       d="m 30.9,80.712 c 4.852,-1.04 8.946,-2.466 14,-2.2"
       inkscape:connector-curvature="0" /><path
       id="path31"
       style="fill:none;stroke:#336633;stroke-width:0.5;stroke-linecap:square;stroke-miterlimit:10"
       d="m 30.8,85.712 c 2.282,-0.342 4.593,-0.837 6.741,-1.696 2.252,-0.9 4.999,-0.616 7.36,-0.503"
       inkscape:connector-curvature="0" /><path
       id="path33"
       style="fill:#404040"
       d="M 38.8,35.913 C 37.621,33.687 30.979,34.253 28.778,34.123 26.286,33.977 20,33.764 18.3,35.913 c 0.132,-3.202 0.264,-6.404 0.396,-9.606 0.098,-2.365 1,-6.062 0.305,-8.394 -0.276,-0.925 -0.323,-0.423 -0.9,-1 -0.47,-0.47 -0.196,-0.755 -0.2,-1.4 -0.014,-2.162 -0.19,-4.635 0.1,-6.8 0.153,-1.146 1.021,-2.02 1.3,-3.1 0.23,-0.893 0.2,-1.866 0.2,-2.8 0,-3.787 12.496,-2.545 14.686,-2.148 1.799,0.327 3.199,0.785 3.515,2.648 0.148,0.873 -0.05,1.5 0.2,2.3 0.299,0.958 1.013,1.703 1.2,2.7 0.336,1.788 0.1,3.822 0.1,5.653 0,0.811 0.481,2.366 -0.1,2.947 -0.426,0.426 -0.622,0.067 -0.9,0.7 -0.199,0.452 0.002,1.343 0.023,1.859 0.132,3.198 0.264,6.396 0.395,9.595 0.076,1.878 0.778,5.192 0.18,6.846"
       inkscape:connector-curvature="0" /><path
       id="path35"
       style="fill:none;stroke:#333333;stroke-width:0.3;stroke-linecap:square;stroke-miterlimit:10"
       d="M 38.8,35.913 C 37.621,33.687 30.979,34.253 28.778,34.123 26.286,33.977 20,33.764 18.3,35.913 c 0.132,-3.202 0.264,-6.404 0.396,-9.606 0.098,-2.365 1,-6.062 0.305,-8.394 -0.276,-0.925 -0.323,-0.423 -0.9,-1 -0.47,-0.47 -0.196,-0.755 -0.2,-1.4 -0.014,-2.162 -0.19,-4.635 0.1,-6.8 0.153,-1.146 1.021,-2.02 1.3,-3.1 0.23,-0.893 0.2,-1.866 0.2,-2.8 0,-3.787 12.496,-2.545 14.686,-2.148 1.799,0.327 3.199,0.785 3.515,2.648 0.148,0.873 -0.05,1.5 0.2,2.3 0.299,0.958 1.013,1.703 1.2,2.7 0.336,1.788 0.1,3.822 0.1,5.653 0,0.811 0.481,2.366 -0.1,2.947 -0.426,0.426 -0.622,0.067 -0.9,0.7 -0.199,0.452 0.002,1.343 0.023,1.859 0.132,3.198 0.264,6.396 0.395,9.595 0.076,1.878 0.778,5.192 0.18,6.846"
       inkscape:connector-curvature="0" /><path
       id="path37"
       style="fill:none;stroke:#c7d8c7;stroke-width:0.8;stroke-linecap:square;stroke-miterlimit:10"
       d="m 19.2,35.212 c -0.162,4.795 -0.324,9.591 -0.486,14.386 -0.139,4.107 -3.858,7.537 -6.447,10.342 -2.65,2.871 -5.781,6.018 -7.508,9.562 -2.124,4.359 -3.078,8.197 -3.56,13.011"
       inkscape:connector-curvature="0" /><line
       id="line39"
       style="fill:none;stroke:#a6a6a6;stroke-width:0.8;stroke-linecap:square;stroke-miterlimit:10"
       y2="111.61"
       y1="82.513"
       x2="1.2"
       x1="1.2" /><path
       id="path41"
       style="fill:#cc7a00"
       d="M 38.8,35.913 C 37.621,33.687 30.979,34.253 28.778,34.123 26.286,33.977 20,33.764 18.3,35.913 c 0.132,-3.202 0.264,-6.404 0.396,-9.606 0.098,-2.365 1,-6.062 0.305,-8.394 -0.276,-0.925 -0.323,-0.423 -0.9,-1 -0.47,-0.47 -0.196,-0.755 -0.2,-1.4 -0.014,-2.162 -0.19,-4.635 0.1,-6.8 0.153,-1.146 1.021,-2.02 1.3,-3.1 0.23,-0.893 0.2,-1.866 0.2,-2.8 0,-3.787 12.496,-2.545 14.686,-2.148 1.799,0.327 3.199,0.785 3.515,2.648 0.148,0.873 -0.05,1.5 0.2,2.3 0.299,0.958 1.013,1.703 1.2,2.7 0.336,1.788 0.1,3.822 0.1,5.653 0,0.811 0.481,2.366 -0.1,2.947 -0.426,0.426 -0.622,0.067 -0.9,0.7 -0.199,0.452 0.002,1.343 0.023,1.859 0.132,3.198 0.264,6.396 0.395,9.595 0.076,1.878 0.778,5.192 0.18,6.846"
       inkscape:connector-curvature="0" /><path
       id="path43"
       style="fill:none;stroke:#662900;stroke-width:0.3;stroke-linecap:square;stroke-miterlimit:10"
       d="M 38.8,35.913 C 37.621,33.687 30.979,34.253 28.778,34.123 26.286,33.977 20,33.764 18.3,35.913 c 0.132,-3.202 0.264,-6.404 0.396,-9.606 0.098,-2.365 1,-6.062 0.305,-8.394 -0.276,-0.925 -0.323,-0.423 -0.9,-1 -0.47,-0.47 -0.196,-0.755 -0.2,-1.4 -0.014,-2.162 -0.19,-4.635 0.1,-6.8 0.153,-1.146 1.021,-2.02 1.3,-3.1 0.23,-0.893 0.2,-1.866 0.2,-2.8 0,-3.787 12.496,-2.545 14.686,-2.148 1.799,0.327 3.199,0.785 3.515,2.648 0.148,0.873 -0.05,1.5 0.2,2.3 0.299,0.958 1.013,1.703 1.2,2.7 0.336,1.788 0.1,3.822 0.1,5.653 0,0.811 0.481,2.366 -0.1,2.947 -0.426,0.426 -0.622,0.067 -0.9,0.7 -0.199,0.452 0.002,1.343 0.023,1.859 0.132,3.198 0.264,6.396 0.395,9.595 0.076,1.878 0.778,5.192 0.18,6.846"
       inkscape:connector-curvature="0" /><path
       id="path45"
       style="fill:none;stroke:#662900;stroke-width:0.1;stroke-linecap:square;stroke-miterlimit:10"
       d="m 33.3,0.613 c 1.494,1.524 1.4,4.729 1.4,6.675 0,0.424 0.4,0.799 0.4,1.363 v 3.342 c 0,1.299 0.067,2.461 -0.301,3.62 -0.159,0.501 -0.5,0.599 -0.5,1.297 v 5.371 12.031"
       inkscape:connector-curvature="0" /><path
       id="path47"
       style="fill:none;stroke:#ffe699;stroke-width:0.1;stroke-linecap:square;stroke-miterlimit:10"
       d="m 32.601,0.513 c 0.688,0.616 0.86,1.346 1,2.2 0.246,1.494 0.5,2.609 0.5,4.247 0,1.557 0.3,3.35 0.3,5.034 0,0.503 0.386,3.275 -0.2,3.57 -1.441,0.724 -0.6,5.609 -0.6,6.718 v 12.031"
       inkscape:connector-curvature="0" /><path
       id="path49"
       style="fill:none;stroke:#ffe699;stroke-width:0.8;stroke-linecap:square;stroke-miterlimit:10"
       d="m 19.2,35.113 c 0.261,-5.993 0.7,-12.001 0.7,-18"
       inkscape:connector-curvature="0" /><path
       id="path51"
       style="fill:none;stroke:#ffe699;stroke-width:0.8;stroke-linecap:square;stroke-miterlimit:10"
       d="m 18.7,15.913 c 0.837,-2.588 -0.421,-5.924 0.45,-8.55 0.363,-1.096 0.915,-1.967 1.05,-2.95 0.119,-0.868 0.218,-1.785 0.3,-2.7"
       inkscape:connector-curvature="0" /><path
       id="path53"
       style="fill:none;stroke:#662900;stroke-width:0.3;stroke-linecap:square;stroke-miterlimit:10"
       d="M 38.9,35.913 C 37.139,33.713 31.414,34.278 28.777,34.123 26.286,33.977 20,33.764 18.3,35.913"
       inkscape:connector-curvature="0" /><path
       id="path55"
       style="fill:#99b399"
       d="m 1.2,195.41 v 9.764 c 0,1.041 0.133,2.061 0.6,2.937 -0.2,-4.23 -0.4,-8.46 -0.6,-12.7"
       inkscape:connector-curvature="0" /><path
       id="path57"
       style="fill:#fff9e6"
       d="m 56.8,194.21 c -1.234,1.89 -6.354,1.704 -8.375,1.982 -2.735,0.378 -5.556,0.537 -8.313,0.669 -5.986,0.287 -11.961,0.358 -17.952,0.224 -6.184,-0.141 -12.394,-0.465 -18.488,-1.571 -1.531,-0.278 -3.471,-0.202 -3.471,-2.027 v -5.655 -49.853 -21.2 -4.653 c 0,-0.673 1.437,-0.316 1.966,-0.316 h 47.013 6.918 c 0.943,0 0.703,0.15 0.703,1.088 v 16.124 c -0.001,21.63 -0.001,43.93 -0.001,65.2"
       inkscape:connector-curvature="0" /><path
       id="path59"
       style="fill:none;stroke:#994d4d;stroke-width:0.2;stroke-linecap:square;stroke-miterlimit:10"
       d="m 56.8,194.21 c -1.234,1.89 -6.354,1.704 -8.375,1.982 -2.735,0.378 -5.556,0.537 -8.313,0.669 -5.986,0.287 -11.961,0.358 -17.952,0.224 -6.184,-0.141 -12.394,-0.465 -18.488,-1.571 -1.531,-0.278 -3.471,-0.202 -3.471,-2.027 v -5.655 -49.853 -21.2 -4.653 c 0,-0.673 1.437,-0.316 1.966,-0.316 h 47.013 6.918 c 0.943,0 0.703,0.15 0.703,1.088 v 16.124 65.288"
       inkscape:connector-curvature="0" /><path
       id="path61"
       style="fill:none;stroke:#662900;stroke-width:0.3;stroke-linecap:square;stroke-miterlimit:10"
       d="m 17.8,16.712 c 3.069,-1.75 7.54,-1.4 10.957,-1.4 3.134,0 7.819,-0.423 10.543,1.4"
       inkscape:connector-curvature="0" /><path
       id="path63"
       style="fill:none;stroke:#662900;stroke-width:0.3;stroke-linecap:square;stroke-miterlimit:10"
       d="m 19.4,4.913 c 2.898,-0.972 6.188,-0.8 9.2,-0.8 2.97,0 6.253,-0.19 9.1,0.8"
       inkscape:connector-curvature="0" /><path
       id="path65"
       style="fill:none;stroke:#333333;stroke-width:0.3;stroke-linecap:square;stroke-miterlimit:10"
       d="m 19.5,2.712 c 0.743,-2.906 6.912,-2.4 9.101,-2.4"
       inkscape:connector-curvature="0" /><path
       id="path67"
       style="fill:none;stroke:#333333;stroke-width:0.3;stroke-linecap:square;stroke-miterlimit:10"
       d="m 28.601,0.212 c 2.219,0.148 8.353,-0.416 9.1,2.5"
       inkscape:connector-curvature="0" /><path
       id="path69"
       style="fill:none;stroke:#737373;stroke-width:0.2;stroke-linecap:square;stroke-miterlimit:10"
       d="m 30.9,81.212 c 4.261,0 8.545,0.403 12.8,0.3"
       inkscape:connector-curvature="0" /><path
       id="path71"
       style="fill:none;stroke:#000000;stroke-width:0.70;stroke-linecap:square;stroke-miterlimit:10"
       d="m 91.3,212.61 c 3.538,0.093 7.097,0.151 10.625,-0.213 3.385,-0.35 8.002,-0.254 10.982,-2.117 3.101,-1.938 -4.953,-3.053 -6.307,-3.27 -3.849,-0.616 -7.585,-1.331 -11.4,-2.201 1.076,-1.688 -0.254,-4.25 -0.445,-6.128 -0.294,-2.879 -0.542,-5.759 -0.777,-8.644 C 93.489,184.026 93.3,178.04 93.3,172.01 c 0,-2.958 0.099,-5.883 0.283,-8.835 0.095,-1.506 0.278,-2.956 0.5,-4.449 0.117,-0.787 0.342,-0.543 0.917,-1.116 0.856,-0.852 1.225,-1.353 0.65,-2.5 -0.893,-1.784 1.021,-2.072 2.405,-3.117 2.412,-1.818 5.046,-3.447 7.031,-5.734 2.429,-2.799 4.119,-5.165 5.884,-8.42 2.681,-4.944 3.884,-11.111 3.972,-16.698 0.093,-6.004 -0.562,-11.867 -1.865,-17.731 -0.3,-1.352 -0.533,-2.734 -0.954,-4.054 -0.345,-1.079 -0.616,-3.621 -1.522,-4.345 -1.63,-1.302 -6.247,-0.944 -8.216,-1.02 -5.772,-0.222 -11.529,-0.382 -17.305,-0.176 -2.97,0.106 -5.922,0.313 -8.887,0.47 -1.247,0.065 -2.444,0.283 -3.643,0.626 -1.289,0.368 -1.437,2.939 -1.773,4.068 -3.434,11.524 -4.265,23.732 -0.549,35.248 1.718,5.325 5.174,10.798 9.681,14.196 1.518,1.145 3.035,2.288 4.553,3.433 0.752,0.567 1.782,0.884 2.438,1.555 1.317,1.348 -0.297,1.521 -0.101,2.899 0.174,1.218 1.521,1.387 1.9,2.301 1.02,2.456 0.616,6.498 0.689,9.126 0.164,5.869 -0.032,11.731 -0.286,17.597 -0.146,3.38 -0.388,6.783 -0.73,10.148 -0.202,1.975 -0.262,4.012 -0.772,5.929 -0.33,1.239 -0.787,2.159 -0.101,3.399 -3.57,0.824 -7.065,1.7 -10.701,2.13 -1.682,0.199 -3.437,0.471 -5.07,0.917 -0.773,0.211 -4.218,1.115 -2.295,2.184 3.295,1.829 7.346,1.944 11.014,2.323 3.632,0.375 7.307,0.347 10.953,0.347"
       inkscape:connector-curvature="0" /><path
       id="path73"
       style="fill:#e6e6e6"
       d="m 91.3,212.61 c 3.538,0.093 7.097,0.151 10.625,-0.213 3.385,-0.35 8.002,-0.254 10.982,-2.117 3.101,-1.938 -4.953,-3.053 -6.307,-3.27 -3.849,-0.616 -7.585,-1.331 -11.4,-2.201 1.076,-1.688 -0.254,-4.25 -0.445,-6.128 -0.294,-2.879 -0.542,-5.759 -0.777,-8.644 C 93.489,184.026 93.3,178.04 93.3,172.01 c 0,-2.958 0.099,-5.883 0.283,-8.835 0.095,-1.506 0.278,-2.956 0.5,-4.449 0.117,-0.787 0.342,-0.543 0.917,-1.116 0.856,-0.852 1.225,-1.353 0.65,-2.5 -0.893,-1.784 1.021,-2.072 2.405,-3.117 2.412,-1.818 5.046,-3.447 7.031,-5.734 2.429,-2.799 4.119,-5.165 5.884,-8.42 2.681,-4.944 3.884,-11.111 3.972,-16.698 0.093,-6.004 -0.562,-11.867 -1.865,-17.731 -0.3,-1.352 -0.533,-2.734 -0.954,-4.054 -0.345,-1.079 -0.616,-3.621 -1.522,-4.345 -1.63,-1.302 -6.247,-0.944 -8.216,-1.02 -5.772,-0.222 -11.529,-0.382 -17.305,-0.176 -2.97,0.106 -5.922,0.313 -8.887,0.47 -1.247,0.065 -2.444,0.283 -3.643,0.626 -1.289,0.368 -1.437,2.939 -1.773,4.068 -3.434,11.524 -4.265,23.732 -0.549,35.248 1.718,5.325 5.174,10.798 9.681,14.196 1.518,1.145 3.035,2.288 4.553,3.433 0.752,0.567 1.782,0.884 2.438,1.555 1.317,1.348 -0.297,1.521 -0.101,2.899 0.174,1.218 1.521,1.387 1.9,2.301 1.02,2.456 0.616,6.498 0.689,9.126 0.164,5.869 -0.032,11.731 -0.286,17.597 -0.146,3.38 -0.388,6.783 -0.73,10.148 -0.202,1.975 -0.262,4.012 -0.772,5.929 -0.33,1.239 -0.787,2.159 -0.101,3.399 -3.717,0.858 -7.339,1.732 -11.123,2.181 -1.676,0.198 -3.399,0.524 -5.027,0.97 -1.386,0.379 -3.64,1.123 -1.482,2.32 3.164,1.758 7.397,1.754 10.908,2.117 1.864,0.192 3.756,0.223 5.628,0.277 1.403,0.02 4.075,0.35 4.912,-0.09"
       inkscape:connector-curvature="0" /><path
       id="path75"
       style="fill:none;stroke:#bfbfbf;stroke-width:0.1;stroke-linecap:square;stroke-miterlimit:10"
       d="m 91.3,212.61 c 3.538,0.093 7.097,0.151 10.625,-0.213 3.385,-0.35 8.002,-0.254 10.982,-2.117 3.101,-1.938 -4.953,-3.053 -6.307,-3.27 -3.849,-0.616 -7.585,-1.331 -11.4,-2.201 1.076,-1.688 -0.254,-4.25 -0.445,-6.128 -0.294,-2.879 -0.542,-5.759 -0.777,-8.644 C 93.489,184.026 93.3,178.04 93.3,172.01 c 0,-2.958 0.099,-5.883 0.283,-8.835 0.095,-1.506 0.278,-2.956 0.5,-4.449 0.117,-0.787 0.342,-0.543 0.917,-1.116 0.856,-0.852 1.225,-1.353 0.65,-2.5 -0.893,-1.784 1.021,-2.072 2.405,-3.117 2.412,-1.818 5.046,-3.447 7.031,-5.734 2.429,-2.799 4.119,-5.165 5.884,-8.42 2.681,-4.944 3.884,-11.111 3.972,-16.698 0.093,-6.004 -0.562,-11.867 -1.865,-17.731 -0.3,-1.352 -0.533,-2.734 -0.954,-4.054 -0.345,-1.079 -0.616,-3.621 -1.522,-4.345 -1.63,-1.302 -6.247,-0.944 -8.216,-1.02 -5.772,-0.222 -11.529,-0.382 -17.305,-0.176 -2.97,0.106 -5.922,0.313 -8.887,0.47 -1.247,0.065 -2.444,0.283 -3.643,0.626 -1.289,0.368 -1.437,2.939 -1.773,4.068 -3.434,11.524 -4.265,23.732 -0.549,35.248 1.718,5.325 5.174,10.798 9.681,14.196 1.518,1.145 3.035,2.288 4.553,3.433 0.752,0.567 1.782,0.884 2.438,1.555 1.317,1.348 -0.297,1.521 -0.101,2.899 0.174,1.218 1.521,1.387 1.9,2.301 1.02,2.456 0.616,6.498 0.689,9.126 0.164,5.869 -0.032,11.731 -0.286,17.597 -0.146,3.38 -0.388,6.783 -0.73,10.148 -0.202,1.975 -0.262,4.012 -0.772,5.929 -0.33,1.239 -0.787,2.159 -0.101,3.399 -3.57,0.824 -7.065,1.7 -10.701,2.13 -1.682,0.199 -3.437,0.471 -5.07,0.917 -0.773,0.211 -4.218,1.115 -2.295,2.184 3.295,1.829 7.346,1.944 11.014,2.323 3.632,0.375 7.307,0.347 10.953,0.347"
       inkscape:connector-curvature="0" /><path
       id="path77"
       style="fill:#e6e0e6"
       d="m 91.3,212.61 c 3.538,0.093 7.097,0.151 10.625,-0.213 3.385,-0.35 8.002,-0.254 10.982,-2.117 3.101,-1.938 -4.953,-3.053 -6.307,-3.27 -3.849,-0.616 -7.585,-1.331 -11.4,-2.201 1.076,-1.688 -0.254,-4.25 -0.445,-6.128 -0.294,-2.879 -0.542,-5.759 -0.777,-8.644 C 93.489,184.026 93.3,178.04 93.3,172.01 c 0,-2.958 0.099,-5.883 0.283,-8.835 0.095,-1.506 0.278,-2.956 0.5,-4.449 0.117,-0.787 0.342,-0.543 0.917,-1.116 0.856,-0.852 1.225,-1.353 0.65,-2.5 -0.893,-1.784 1.021,-2.072 2.405,-3.117 2.412,-1.818 5.046,-3.447 7.031,-5.734 2.429,-2.799 4.119,-5.165 5.884,-8.42 2.681,-4.944 3.884,-11.111 3.972,-16.698 0.093,-6.004 -0.562,-11.867 -1.865,-17.731 -0.3,-1.352 -0.533,-2.734 -0.954,-4.054 -0.345,-1.079 -0.616,-3.621 -1.522,-4.345 -1.63,-1.302 -6.247,-0.944 -8.216,-1.02 -5.772,-0.222 -11.529,-0.382 -17.305,-0.176 -2.97,0.106 -5.922,0.313 -8.887,0.47 -1.247,0.065 -2.444,0.283 -3.643,0.626 -1.289,0.368 -1.437,2.939 -1.773,4.068 -3.434,11.524 -4.265,23.732 -0.549,35.248 1.718,5.325 5.174,10.798 9.681,14.196 1.518,1.145 3.035,2.288 4.553,3.433 0.752,0.567 1.782,0.884 2.438,1.555 1.317,1.348 -0.297,1.521 -0.101,2.899 0.174,1.218 1.521,1.387 1.9,2.301 1.02,2.456 0.616,6.498 0.689,9.126 0.164,5.869 -0.032,11.731 -0.286,17.597 -0.146,3.38 -0.388,6.783 -0.73,10.148 -0.202,1.975 -0.262,4.012 -0.772,5.929 -0.33,1.239 -0.787,2.159 -0.101,3.399 -3.717,0.858 -7.339,1.732 -11.123,2.181 -1.676,0.198 -3.399,0.524 -5.027,0.97 -1.386,0.379 -3.64,1.123 -1.482,2.32 3.164,1.758 7.397,1.754 10.908,2.117 1.864,0.192 3.756,0.223 5.628,0.277 1.403,0.02 4.075,0.35 4.912,-0.09"
       inkscape:connector-curvature="0" /><path
       id="path79"
       style="fill:none;stroke:#bfb6bf;stroke-width:0.1;stroke-linecap:square;stroke-miterlimit:10"
       d="m 91.3,212.61 c 3.538,0.093 7.097,0.151 10.625,-0.213 3.385,-0.35 8.002,-0.254 10.982,-2.117 3.101,-1.938 -4.953,-3.053 -6.307,-3.27 -3.849,-0.616 -7.585,-1.331 -11.4,-2.201 1.076,-1.688 -0.254,-4.25 -0.445,-6.128 -0.294,-2.879 -0.542,-5.759 -0.777,-8.644 C 93.489,184.026 93.3,178.04 93.3,172.01 c 0,-2.958 0.099,-5.883 0.283,-8.835 0.095,-1.506 0.278,-2.956 0.5,-4.449 0.117,-0.787 0.342,-0.543 0.917,-1.116 0.856,-0.852 1.225,-1.353 0.65,-2.5 -0.893,-1.784 1.021,-2.072 2.405,-3.117 2.412,-1.818 5.046,-3.447 7.031,-5.734 2.429,-2.799 4.119,-5.165 5.884,-8.42 2.681,-4.944 3.884,-11.111 3.972,-16.698 0.093,-6.004 -0.562,-11.867 -1.865,-17.731 -0.3,-1.352 -0.533,-2.734 -0.954,-4.054 -0.345,-1.079 -0.616,-3.621 -1.522,-4.345 -1.63,-1.302 -6.247,-0.944 -8.216,-1.02 -5.772,-0.222 -11.529,-0.382 -17.305,-0.176 -2.97,0.106 -5.922,0.313 -8.887,0.47 -1.247,0.065 -2.444,0.283 -3.643,0.626 -1.289,0.368 -1.437,2.939 -1.773,4.068 -3.434,11.524 -4.265,23.732 -0.549,35.248 1.718,5.325 5.174,10.798 9.681,14.196 1.518,1.145 3.035,2.288 4.553,3.433 0.752,0.567 1.782,0.884 2.438,1.555 1.317,1.348 -0.297,1.521 -0.101,2.899 0.174,1.218 1.521,1.387 1.9,2.301 1.02,2.456 0.616,6.498 0.689,9.126 0.164,5.869 -0.032,11.731 -0.286,17.597 -0.146,3.38 -0.388,6.783 -0.73,10.148 -0.202,1.975 -0.262,4.012 -0.772,5.929 -0.33,1.239 -0.787,2.159 -0.101,3.399 -3.57,0.824 -7.065,1.7 -10.701,2.13 -1.682,0.199 -3.437,0.471 -5.07,0.917 -0.773,0.211 -4.218,1.115 -2.295,2.184 3.295,1.829 7.346,1.944 11.014,2.323 3.632,0.375 7.307,0.347 10.953,0.347"
       inkscape:connector-curvature="0" /><path
       id="path81"
       style="fill:#1a1a1a"
       d="m 90,200.41 c 0.198,0.264 0,0.493 0.4,0.7 -0.837,0.482 -1.674,0.966 -2.512,1.448 -0.488,0.282 -0.165,1.909 -0.288,2.251 -1.774,-2.34 1.076,-3.74 2.4,-4.4"
       inkscape:connector-curvature="0" /><path
       id="path83"
       style="fill:none;stroke:#1a1a1a;stroke-width:0.1;stroke-linecap:square;stroke-miterlimit:10"
       d="m 90,200.41 c 0.198,0.264 0,0.493 0.4,0.7 -0.837,0.482 -1.674,0.966 -2.512,1.448 -0.488,0.282 -0.165,1.909 -0.288,2.251 -1.446,-1.906 0.445,-4.174 2.5,-4.299"
       inkscape:connector-curvature="0" /><path
       id="path85"
       style="fill:#ffffff"
       d="m 88,201.31 c 0.948,-2.587 0.808,-6.192 1.043,-9.071 0.317,-3.895 0.577,-7.808 0.664,-11.716 0.091,-4.105 0.258,-8.207 0.093,-12.313 -0.085,-2.104 -0.238,-4.207 -0.374,-6.308 -0.07,-1.081 0,-3.075 -0.626,-3.692 0.223,0.03 2.101,0.177 2.101,0.252 0,2.35 0.018,4.699 0,7.049 -0.032,4.423 -0.131,8.849 -0.211,13.271 -0.084,4.68 -0.15,9.362 -0.293,14.041 -0.071,2.342 -0.14,4.683 -0.285,7.021 -0.05,0.8 -1.326,1.05 -2.112,1.47"
       inkscape:connector-curvature="0" /><path
       id="path87"
       style="fill:none;stroke:#a6a6a6;stroke-width:0.1;stroke-linecap:square;stroke-miterlimit:10"
       d="m 88,201.31 c 0.948,-2.587 0.808,-6.192 1.043,-9.071 0.317,-3.895 0.577,-7.808 0.664,-11.716 0.091,-4.105 0.258,-8.207 0.093,-12.313 -0.085,-2.104 -0.238,-4.207 -0.374,-6.308 -0.07,-1.081 0,-3.075 -0.626,-3.692 0.223,0.03 2.101,0.177 2.101,0.252 0,2.35 0.018,4.699 0,7.049 -0.032,4.423 -0.131,8.849 -0.211,13.271 -0.084,4.643 -0.161,9.286 -0.289,13.928 -0.063,2.246 -0.125,4.494 -0.265,6.737 -0.087,1.401 -0.985,1.075 -2.035,1.862"
       inkscape:connector-curvature="0" /><path
       id="path89"
       style="fill:none;stroke:#4d4d4d;stroke-width:0.1;stroke-linecap:square;stroke-miterlimit:10"
       d="m 89.7,180.71 c 0.16,-4.171 0.285,-8.327 0.1,-12.5 -0.09,-2.03 -0.137,-4.074 -0.3,-6.1 -0.078,-0.967 -0.057,-3.386 -0.7,-3.9"
       inkscape:connector-curvature="0" /><path
       id="path91"
       style="fill:none;stroke:#000000;stroke-width:0.1;stroke-linecap:square;stroke-miterlimit:10"
       d="m 72.4,94.813 c 4.551,-0.675 9.193,-1 13.8,-1"
       inkscape:connector-curvature="0" /><path
       id="path93"
       style="fill:#800066"
       d="m 94.601,153.81 c 5.144,-2.968 9.994,-6.139 13.335,-11.212 3.312,-5.029 5.953,-10.865 6.472,-16.967 0.265,-3.119 0.498,-6.186 0.393,-9.321 -0.05,-1.475 -0.196,-2.952 -0.295,-4.424 -0.011,-0.161 -0.985,-0.076 -1.126,-0.076 H 91.958 69.812 68.41 c -0.277,0 -0.439,3.722 -0.483,4.213 -0.266,2.999 0.066,6.066 0.32,9.052 0.503,5.918 2.752,11.801 5.991,16.721 3.547,5.389 8.382,8.782 13.806,12.079 0.559,0.34 2.913,-0.165 3.657,-0.165 0.798,0.01 2.584,0.23 2.91,0.11"
       inkscape:connector-curvature="0" /><path
       id="path95"
       style="fill:none;stroke:#999999;stroke-width:0.2;stroke-linecap:square;stroke-miterlimit:10"
       d="m 110.8,95.212 c -1.957,1.689 -7.026,1.167 -9.477,1.261 -3.346,0.129 -6.685,0.239 -10.032,0.239 -3.473,0 -6.937,-0.122 -10.406,-0.26 -2.547,-0.102 -6.821,0.305 -8.984,-1.24"
       inkscape:connector-curvature="0" /><path
       id="path97"
       style="fill:none;stroke:#ffffff;stroke-width:0.1;stroke-linecap:square;stroke-miterlimit:10"
       d="m 102.7,96.513 c -5.981,0.527 -11.92,0.312 -17.9,0.2"
       inkscape:connector-curvature="0" /><path
       id="path99"
       style="fill:none;stroke:#333333;stroke-width:0.1;stroke-linecap:square;stroke-miterlimit:10"
       d="m 90.3,96.613 c -5.721,0 -12.135,0.389 -17.699,-1.1"
       inkscape:connector-curvature="0" /><path
       id="path101"
       style="fill:#ffffff"
       d="m 108.1,99.712 c 0.915,5.404 1.196,11.027 0.899,16.5 -0.1,1.83 0.42,2.86 -1.493,2.983 -1.501,0.097 -3.062,0.106 -4.547,0.34 -2.315,0.364 -4.387,1.443 -6.56,1.877 0.958,-5.458 -0.051,-11.182 -0.726,-16.607 -0.078,-0.623 -0.301,-3.593 0.185,-3.593 1.418,0 2.838,-0.153 4.237,-0.369 2.47,-0.38 5.79,-0.46 8,-1.128"
       inkscape:connector-curvature="0" /><path
       id="path103"
       style="fill:none;stroke:#a6a6a6;stroke-width:0.1;stroke-linecap:square;stroke-miterlimit:10"
       d="m 108.1,99.712 c 0.915,5.404 1.196,11.027 0.899,16.5 -0.1,1.83 0.42,2.86 -1.493,2.983 -1.501,0.097 -3.062,0.106 -4.547,0.34 -2.315,0.364 -4.387,1.443 -6.56,1.877 0.962,-5.477 -0.235,-10.954 -0.7,-16.4 -0.057,-0.664 -0.523,-3.33 -0.1,-3.8 0.325,-0.361 3.415,-0.202 4.05,-0.3 2.814,-0.434 5.581,-1.16 8.45,-1.1"
       inkscape:connector-curvature="0" /><path
       id="path105"
       style="fill:none;stroke:#4d4d4d;stroke-width:0.6;stroke-linecap:square;stroke-miterlimit:10"
       d="m 68.8,124.71 c 0.905,6.622 2.942,12.709 7.101,18"
       inkscape:connector-curvature="0" /><path
       id="path107"
       style="fill:#e6b8da"
       d="m 69.101,113.91 c 2.173,0.1 2.3,-0.064 2.3,2.167 0,1.515 -0.101,3.021 -0.101,4.537 0,3.072 0.195,6.042 0.5,9.097 -2.719,-0.883 -2.657,-4.963 -2.773,-7.281 -0.075,-1.47 -0.027,-2.94 -0.027,-4.4 0,-1.28 0.438,-2.98 0.101,-4.13"
       inkscape:connector-curvature="0" /><path
       id="path109"
       style="fill:#cc8fb8"
       d="m 70.4,113.91 c 1.483,-0.29 1,2.056 1,3.037 0,1.371 -0.101,2.739 -0.101,4.112 0,2.921 0.211,5.746 0.5,8.65 -1.61,-1.902 -1.451,-5.069 -1.574,-7.407 -0.145,-2.79 0.111,-5.6 0.175,-8.39"
       inkscape:connector-curvature="0" /><path
       id="path111"
       style="fill:none;stroke:#808080;stroke-width:0.6;stroke-linecap:square;stroke-miterlimit:10"
       d="m 72.101,96.013 c -1.516,4.841 -2.335,9.816 -3.2,14.8"
       inkscape:connector-curvature="0" /><path
       id="path113"
       style="fill:none;stroke:#b3b3b3;stroke-width:0.6;stroke-linecap:square;stroke-miterlimit:10"
       d="m 72.3,96.513 c -1.438,4.849 -2.473,9.884 -3.1,14.9"
       inkscape:connector-curvature="0" /><path
       id="path115"
       style="fill:#ffffff"
       d="m 69.5,105.11 c -0.307,3.446 -1.031,6.821 -1.235,10.298 -0.101,1.727 -0.176,4.731 0.235,6.103 0,-2.952 -0.019,-5.89 0.165,-8.837 0.15,-2.414 1.443,-5.714 1.035,-7.963 -0.025,0.19 -0.151,0.32 -0.2,0.4"
       inkscape:connector-curvature="0" /><path
       id="path117"
       style="fill:none;stroke:#b3b3b3;stroke-width:0.1;stroke-linecap:square;stroke-miterlimit:10"
       d="m 69.5,105.11 c -0.307,3.446 -1.031,6.821 -1.235,10.298 -0.101,1.727 -0.176,4.731 0.235,6.103 0,-2.952 -0.019,-5.89 0.165,-8.837 0.15,-2.414 1.443,-5.714 1.035,-7.963 -0.065,0.125 -0.048,0.271 -0.1,0.4"
       inkscape:connector-curvature="0" /><path
       id="path119"
       style="fill:none;stroke:#ffffff;stroke-width:0.6;stroke-linecap:square;stroke-miterlimit:10"
       d="m 73.4,96.113 c -1.096,4.755 -1.7,9.713 -1.7,14.6"
       inkscape:connector-curvature="0" /><line
       id="line121"
       style="fill:none;stroke:#999999;stroke-width:0.3;stroke-linecap:square;stroke-miterlimit:10"
       y2="112.01"
       y1="112.01"
       x2="113.3"
       x1="109.1" /><path
       id="path123"
       style="fill:#ffffff"
       d="m 111.9,100.21 c 2.105,6.738 2.6,13.876 2.6,20.9 -1.193,-0.821 -0.503,-4.543 -0.64,-6.176 -0.23,-2.772 -0.264,-5.687 -0.902,-8.401 -0.575,-2.451 -2.399,-6.424 -1.658,-8.823 -0.09,0.907 0.64,2.011 0.6,2.503"
       inkscape:connector-curvature="0" /><path
       id="path125"
       style="fill:none;stroke:#999999;stroke-width:0.1;stroke-linecap:square;stroke-miterlimit:10"
       d="m 111.9,100.21 c 2.105,6.738 2.6,13.876 2.6,20.9 -1.193,-0.821 -0.503,-4.543 -0.64,-6.176 -0.23,-2.772 -0.264,-5.687 -0.902,-8.401 -0.575,-2.451 -2.399,-6.424 -1.658,-8.823 -0.093,0.946 0.51,1.706 0.7,2.6"
       inkscape:connector-curvature="0" /><path
       id="path127"
       style="fill:none;stroke:#e6e6e6;stroke-width:0.5;stroke-linecap:square;stroke-miterlimit:10"
       d="m 96,107.01 c 4.339,-0.896 8.209,-2 12.7,-2"
       inkscape:connector-curvature="0" /><path
       id="path129"
       style="fill:#e673cf"
       d="m 109,111.71 c 0.297,1.555 0.169,3.541 -0.025,5.108 -0.063,0.495 0.152,1.927 -0.175,2.292 -0.325,0.364 -2.558,0.161 -3.1,0.199 -1.883,0.134 -3.743,0.271 -5.571,0.76 -1.285,0.343 -2.477,1.038 -3.729,1.341 0.578,-3.087 0.324,-6.48 0.1,-9.601 4.169,-0.03 8.329,-0.06 12.499,-0.1"
       inkscape:connector-curvature="0" /><path
       id="path131"
       style="fill:none;stroke:#e6e6e6;stroke-width:0.5;stroke-linecap:square;stroke-miterlimit:10"
       d="m 102.5,100.41 c 0.272,3.788 0.046,7.645 0.7,11.399"
       inkscape:connector-curvature="0" /><path
       id="path133"
       style="fill:#cc8fb8"
       d="m 72.5,131.71 c 2.246,4.828 4.498,8.96 8.5,12.6 -2.833,-4.2 -5.667,-8.4 -8.5,-12.6"
       inkscape:connector-curvature="0" /><path
       id="path135"
       style="fill:#cc8fb8"
       d="m 83.4,149.41 c -0.382,-0.082 -0.626,-0.174 -0.9,0.101 1.753,1.193 3.618,2.161 5.4,3.299 -6.248,-2.81 -13.425,-8.608 -15.601,-15.399 1.07,0.108 1.309,1.333 1.852,2.093 0.975,1.363 1.927,2.742 3,4.029 1.715,2.057 4.265,4.966 6.749,5.979 -0.217,0.05 -0.333,-0.04 -0.5,-0.1"
       inkscape:connector-curvature="0" /><path
       id="path137"
       style="fill:none;stroke:#e6e6e6;stroke-width:0.1;stroke-linecap:square;stroke-miterlimit:10"
       d="m 78.7,94.113 c 5.598,0 11.196,-0.3 16.8,-0.3"
       inkscape:connector-curvature="0" /><path
       id="path139"
       style="fill:#807380"
       d="m 110.4,95.513 c -0.665,0.269 -1.384,0.31 -2.101,0.4 1.115,0.197 0.958,0.295 1.4,1.2 0.553,1.13 0.95,2.544 1.8,3.5 0.38,-1.166 -0.151,-2.706 -0.448,-3.893 -0.338,-1.35 -0.574,-1.07 -1.651,-0.808 0.3,-0.108 1,-0.398 1,-0.396"
       inkscape:connector-curvature="0" /><path
       id="path141"
       style="fill:none;stroke:#665766;stroke-width:0.1;stroke-linecap:square;stroke-miterlimit:10"
       d="m 110.4,95.513 c -0.665,0.269 -1.384,0.31 -2.101,0.4 1.115,0.197 0.958,0.295 1.4,1.2 0.553,1.13 0.95,2.544 1.8,3.5 0.38,-1.166 -0.151,-2.706 -0.448,-3.893 -0.338,-1.35 -0.574,-1.07 -1.651,-0.808 0.354,-0.157 0.741,-0.306 1.1,-0.4"
       inkscape:connector-curvature="0" /><path
       id="path143"
       style="fill:#4d003d"
       d="m 112.4,120.11 c -2.04,11.986 -6.65,24.283 -18.994,28.661 -1.36,0.482 -5.711,-0.552 -6.456,0.938 -0.235,0.471 0.742,1.657 1.05,1.9 0.845,0.669 2.833,0.952 3.877,0.89 3.048,-0.18 5.729,-0.729 8.497,-2.03 1.071,-0.505 2.171,-1.979 3.078,-2.79 1.093,-0.978 2.162,-1.994 3.086,-3.134 3.678,-4.543 5.503,-9.882 6.168,-15.648 0.367,-3.185 0.557,-6.274 0.656,-9.48 0.011,-0.318 0.188,-2.16 -0.362,-2.207 -0.65,-0.05 -0.63,2.55 -0.61,2.9"
       inkscape:connector-curvature="0" /><path
       id="path145"
       style="fill:#cccccc"
       d="m 95.9,151.51 c -2.588,1.491 -5.813,1.431 -8.4,0 2.563,0.76 6.199,1.18 8.4,0"
       inkscape:connector-curvature="0" /><path
       id="path147"
       style="fill:none;stroke:#cccccc;stroke-width:0.1;stroke-linecap:square;stroke-miterlimit:10"
       d="m 95.9,151.51 c -2.588,1.491 -5.813,1.431 -8.4,0 2.563,0.76 6.199,1.18 8.4,0"
       inkscape:connector-curvature="0" /><path
       id="path149"
       style="fill:none;stroke:#cccccc;stroke-width:0.3;stroke-linecap:square;stroke-miterlimit:10"
       d="m 79.101,114.31 c 0.12,4.127 -1.216,10.255 0.899,14"
       inkscape:connector-curvature="0" /><path
       id="path151"
       style="fill:none;stroke:#cccccc;stroke-width:0.1;stroke-linecap:square;stroke-miterlimit:10"
       d="m 80.4,130.81 c 0.284,1.136 0.518,2.306 0.899,3.4"
       inkscape:connector-curvature="0" /><path
       id="path153"
       style="fill:none;stroke:#4d003d;stroke-width:1.30;stroke-linecap:square;stroke-miterlimit:10"
       d="m 69,123.01 c 0.571,0.591 1.602,1.06 2.4,1.199"
       inkscape:connector-curvature="0" /><path
       id="path155"
       style="fill:none;stroke:#cccccc;stroke-width:0.3;stroke-linecap:square;stroke-miterlimit:10"
       d="m 93.3,157.11 c 0.112,-0.832 0.061,-1.946 0.5,-2.7 0.841,-1.442 3.682,-2.461 5.158,-3.352 4.014,-2.423 7.447,-5.963 9.942,-9.898 5.737,-9.048 5.961,-19.081 5.3,-29.45"
       inkscape:connector-curvature="0" /><path
       id="path157"
       style="fill:none;stroke:#cccccc;stroke-width:0.3;stroke-linecap:square;stroke-miterlimit:10"
       d="m 68.601,111.61 c -0.644,1.552 -0.4,4.267 -0.4,6.118 0,2.597 0.173,5.114 0.394,7.704 0.407,4.779 2.316,9.3 4.273,13.604 1.956,4.304 5.691,7.807 9.244,10.767 1.815,1.513 3.935,2.581 5.97,3.778 1.248,0.734 0.997,2.123 1.219,3.43"
       inkscape:connector-curvature="0" /><path
       id="path159"
       style="fill:#a69da6"
       d="m 91,158.11 c 1.191,0.05 3.807,-0.456 3.8,-2.1 -0.007,-1.604 -2.523,-2.096 -3.699,-2.101 -1.263,-0.005 -3.663,0.459 -3.7,2.101 -0.039,1.67 2.721,2.18 3.599,2.1"
       inkscape:connector-curvature="0" /><path
       id="path161"
       style="fill:#4d3d4d"
       d="m 94.5,157.31 c 1.661,-1.446 -0.702,-4.168 -2.3,-3.199 0.471,0.44 1.081,0.901 1.3,1.699 0.175,0.64 -0.473,2.14 1,1.5"
       inkscape:connector-curvature="0" /><path
       id="path163"
       style="fill:#ffffff"
       d="m 94,157.41 c -2.146,1.892 -9.439,-0.415 -5.85,-2.8 0.593,-0.395 1.51,-0.431 0.55,0.05 -1.256,0.628 -1.656,1.593 -0.5,2.55 0.895,0.74 2.858,0.97 3.95,0.75 0.528,-0.105 0.965,-0.294 1.45,-0.449 0.471,-0.15 0.422,-0.16 0.4,-0.1"
       inkscape:connector-curvature="0" /><path
       id="path165"
       style="fill:none;stroke:#ffffff;stroke-width:0.1;stroke-linecap:square;stroke-miterlimit:10"
       d="m 94,157.41 c -2.146,1.892 -9.439,-0.415 -5.85,-2.8 0.737,-0.49 1.019,-0.58 0.649,0 -0.481,0.757 -2.337,1.299 -0.8,2.449 1.039,0.778 2.624,1.047 3.9,0.951 0.71,-0.054 1.976,-0.677 2.1,-0.5"
       inkscape:connector-curvature="0" /><path
       id="path167"
       style="fill:none;stroke:#404040;stroke-width:0.2;stroke-linecap:square;stroke-miterlimit:10"
       d="m 92.601,158.01 c -1.17,0.394 -2.821,0.281 -4,-0.201 -1.19,-0.487 -2.424,-2.034 -0.9,-2.899"
       inkscape:connector-curvature="0" /><path
       id="path169"
       style="fill:#808080"
       d="m 93.8,158.01 c -0.278,0.172 -1.8,0.432 -1.8,0.556 v 5.944 c 0,3.147 -0.794,7.401 0,10.299 0.517,-5.53 1.873,-11.24 1.8,-16.8"
       inkscape:connector-curvature="0" /><path
       id="path171"
       style="fill:none;stroke:#808080;stroke-width:0.1;stroke-linecap:square;stroke-miterlimit:10"
       d="m 93.8,158.01 c -0.278,0.172 -1.8,0.432 -1.8,0.556 v 5.944 c 0,3.147 -0.794,7.401 0,10.299 0.516,-5.511 1.809,-11.164 1.8,-16.699"
       inkscape:connector-curvature="0" /><path
       id="path173"
       style="fill:#4d3d4d"
       d="m 93.7,158.11 c -0.276,0.035 -0.223,0.219 -0.4,0.1 -1.624,7.661 -1.448,15.894 -1.599,23.725 -0.083,4.35 -10e-4,8.71 -10e-4,13.06 0,0.635 -0.128,5.312 0.149,5.312 1.064,0 2.264,0.28 3.15,0.9 -0.279,-1.44 -0.363,-3.028 -0.5,-4.5 -0.058,-0.626 0.1,-1.445 -0.314,-1.935 -0.858,-1.015 -0.987,-1.205 -1.035,-2.515 -0.145,-3.906 -0.234,-7.813 -0.332,-11.721 -0.092,-3.659 -0.019,-7.3 -0.019,-10.959 0,-1.962 0.051,-3.912 0.2,-5.871 0.124,-1.62 0.897,-4.19 0.701,-5.6"
       inkscape:connector-curvature="0" /><path
       id="path175"
       style="fill:none;stroke:#999999;stroke-width:0.4;stroke-linecap:square;stroke-miterlimit:10"
       d="m 95.5,155.51 c 0.562,1.587 -1.061,1.694 -1.7,2.6 -0.819,1.16 -0.741,4.17 -0.8,5.6"
       inkscape:connector-curvature="0" /><path
       id="path177"
       style="fill:#261926"
       d="m 91.3,205.61 c 0.725,0.149 4.882,-0.079 3.801,-0.801 3.856,0.891 7.612,1.579 11.5,2.201 1.819,0.291 6.507,0.469 7.3,2.399 -2.207,2.052 -7.212,1.889 -10.086,2.195 -4.146,0.442 -8.256,0.499 -12.414,0.505 -4.015,0.006 -7.997,-0.022 -12,-0.45 -3.005,-0.32 -8.294,-0.108 -10.601,-2.25 0.794,-1.931 5.481,-2.108 7.301,-2.399 3.888,-0.622 7.644,-1.311 11.5,-2.201 -1.104,0.75 3.375,0.99 3.704,0.81"
       inkscape:connector-curvature="0" /><path
       id="path179"
       style="fill:none;stroke:#000000;stroke-width:0.1;stroke-linecap:square;stroke-miterlimit:10"
       d="m 112.2,210.21 c -8.52,2.436 -17.855,1.9 -26.6,1.9"
       inkscape:connector-curvature="0" /><path
       id="path181"
       style="fill:#403040"
       d="m 91.3,210.11 c -3.56,-0.118 -7.854,-0.006 -11.199,-1.4 -2.477,-1.032 -1.015,-1.943 0.803,-2.361 2.232,-0.513 4.465,-1.026 6.697,-1.539 -1.105,0.735 3.114,0.903 3.8,0.9 0.685,-0.003 4.801,-0.166 3.7,-0.9 l 6.696,1.539 c 1.816,0.418 3.281,1.328 0.804,2.361 -1.595,0.665 -3.905,0.98 -5.616,1.108 -1.596,0.12 -4.206,0.73 -5.684,0.29"
       inkscape:connector-curvature="0" /><path
       id="path183"
       style="fill:#bfbfbf"
       d="m 79.3,208.31 c 2.367,-0.833 4.733,-1.667 7.101,-2.5 -0.844,-0.847 -4.639,0.789 -5.882,1.108 -0.565,0.145 -1.864,0.161 -1.918,0.792 -0.03,0.35 0.641,0.6 0.699,0.6"
       inkscape:connector-curvature="0" /><path
       id="path185"
       style="fill:none;stroke:#bfbfbf;stroke-width:0.1;stroke-linecap:square;stroke-miterlimit:10"
       d="m 79.3,208.31 c 2.367,-0.833 4.733,-1.667 7.101,-2.5 -0.808,-0.811 -4.215,0.681 -5.396,0.983 -0.752,0.193 -3.779,0.744 -1.704,1.617"
       inkscape:connector-curvature="0" /><path
       id="path187"
       style="fill:#404040"
       d="m 94.7,201.41 c 0.335,0.641 1.275,3.3 -0.101,3.3 -0.721,0 -1.703,0.086 -2.049,-0.6 -0.389,-0.77 0.749,-1.469 0.749,-2.35 10e-4,-1.15 0.463,-0.82 1.401,-0.35"
       inkscape:connector-curvature="0" /><path
       id="path189"
       style="fill:none;stroke:#404040;stroke-width:0.1;stroke-linecap:square;stroke-miterlimit:10"
       d="m 94.7,201.41 c 0.335,0.641 1.275,3.3 -0.101,3.3 -0.721,0 -1.703,0.086 -2.049,-0.6 -0.389,-0.77 0.749,-1.469 0.749,-2.35 10e-4,-1.15 0.463,-0.82 1.401,-0.35"
       inkscape:connector-curvature="0" /><path
       id="path191"
       style="fill:none;stroke:#0d0d0d;stroke-width:0.3;stroke-linecap:square;stroke-miterlimit:10"
       d="m 93.601,201.21 c 0.442,0.79 0.24,2.143 -0.2,2.9"
       inkscape:connector-curvature="0" /><path
       id="path193"
       style="fill:#ffffff"
       d="m 89.7,201.01 c -1.179,0.541 -3.619,2.406 -1.7,3.699 -0.357,-0.838 -0.314,-2.076 0.75,-2.5 0.221,-0.088 1.96,-0.364 1.95,-0.8 -0.011,-0.46 -0.624,-0.47 -1,-0.4"
       inkscape:connector-curvature="0" /><path
       id="path195"
       style="fill:none;stroke:#ffffff;stroke-width:0.1;stroke-linecap:square;stroke-miterlimit:10"
       d="m 89.7,201.01 c -1.179,0.541 -3.619,2.406 -1.7,3.699 -0.357,-0.838 -0.314,-2.076 0.75,-2.5 0.221,-0.088 1.96,-0.364 1.95,-0.8 -0.011,-0.46 -0.624,-0.47 -1,-0.4"
       inkscape:connector-curvature="0" /><path
       id="path197"
       style="fill:#8c8c8c"
       d="m 95.601,205.21 c -0.346,0.339 -0.819,0.525 -1.301,0.6 1.272,0.971 2.785,2.668 4.301,2.801 1.313,0.115 2.795,-1.062 4.1,-0.6 -0.066,0.066 -0.134,0.133 -0.2,0.199 0.044,0.204 0.246,0.021 0.101,0.4 0.675,-0.009 2.359,-1.061 1.038,-1.391 -2.68,-0.67 -5.36,-1.34 -8.039,-2.01"
       inkscape:connector-curvature="0" /><path
       id="path199"
       style="fill:none;stroke:#1a1a1a;stroke-width:0.3;stroke-linecap:square;stroke-miterlimit:10"
       d="m 95.601,205.21 c -0.346,0.339 -0.819,0.525 -1.301,0.6 1.272,0.971 2.785,2.668 4.301,2.801 1.313,0.115 2.795,-1.062 4.1,-0.6 -0.066,0.066 -0.134,0.133 -0.2,0.199 0.044,0.204 0.246,0.021 0.101,0.4 0.691,-0.009 1.792,-0.576 1.399,-1.301"
       inkscape:connector-curvature="0" /><line
       id="line201"
       style="fill:none;stroke:#a6a6a6;stroke-width:0.4;stroke-linecap:square;stroke-miterlimit:10"
       y2="208.31"
       y1="205.81"
       x2="98.4"
       x1="95.1" /><path
       id="path203"
       style="fill:#0d0d0d"
       d="m 104.1,207.71 c -2.745,-0.245 -5.433,-1.766 -8,-2.199 4.93,1.122 9.819,2.133 14.8,3 v 0.199 c -2.41,-0.48 -4.49,-0.58 -6.8,-1"
       inkscape:connector-curvature="0" /><path
       id="path205"
       style="fill:none;stroke:#0d0d0d;stroke-width:0.1;stroke-linecap:square;stroke-miterlimit:10"
       d="m 104.1,207.71 c -2.745,-0.245 -5.433,-1.766 -8,-2.199 4.93,1.122 9.819,2.133 14.8,3 v 0.199 c -2.353,-0.471 -4.477,-0.471 -6.7,-1"
       inkscape:connector-curvature="0" /><path
       id="path207"
       style="fill:#736273"
       d="m 78.5,207.41 c -1.172,-0.044 -9.936,0.434 -9.6,2 0.478,2.229 8.867,-0.86 10.399,-1 -0.46,-0.22 -0.81,-0.74 -0.799,-1"
       inkscape:connector-curvature="0" /><path
       id="path209"
       style="fill:none;stroke:#000000;stroke-width:0.1;stroke-linecap:square;stroke-miterlimit:10"
       d="m 87.9,204.61 c 1.208,1.003 3.335,0.6 4.8,0.6"
       inkscape:connector-curvature="0" /><path
       id="path211"
       style="fill:none;stroke:#e6e6e6;stroke-width:0.5;stroke-linecap:square;stroke-miterlimit:10"
       d="m 98.2,111.71 c 3.79,-0.541 6.837,-1.933 10.8,-1.7"
       inkscape:connector-curvature="0" /><line
       id="line213"
       style="fill:none;stroke:#4d4d4d;stroke-width:0.3;stroke-linecap:square;stroke-miterlimit:10"
       y2="112.01"
       y1="112.01"
       x2="109.1"
       x1="85.20" /><path
       id="path215"
       style="fill:none;stroke:#4d4d4d;stroke-width:0.1;stroke-linecap:square;stroke-miterlimit:10"
       d="m 68.8,209.41 c 1.69,2.642 7.9,2.565 10.65,2.851 3.945,0.407 7.899,0.449 11.861,0.449 3.805,0 7.617,-0.003 11.406,-0.395 2.981,-0.309 9.271,-0.161 11.183,-2.905"
       inkscape:connector-curvature="0" /><path
       id="path217"
       style="fill:none;stroke:#4d003d;stroke-width:0.5;stroke-linecap:square;stroke-miterlimit:10"
       d="m 103.1,111.71 c 0.318,2.702 0.055,5.21 -0.2,7.9"
       inkscape:connector-curvature="0" /><path
       id="path219"
       style="fill:none;stroke:#4d003d;stroke-width:0.5;stroke-linecap:square;stroke-miterlimit:10"
       d="m 96.7,117.11 c 4.332,-0.651 7.937,-2.234 12.4,-2"
       inkscape:connector-curvature="0" /></g><metadata
     id="metadata112"><rdf:RDF><cc:Work><dc:format>image/svg+xml</dc:format><dc:type
           rdf:resource="http://purl.org/dc/dcmitype/StillImage" /><cc:license
           rdf:resource="http://creativecommons.org/publicdomain/zero/1.0/" /><dc:publisher><cc:Agent
             rdf:about="http://openclipart.org/"><dc:title>Openclipart</dc:title></cc:Agent></dc:publisher><dc:title></dc:title><dc:date>2009-04-20T20:21:02</dc:date><dc:description>Wine bottle by Francesco 'Architetto' Rollandin.</dc:description><dc:source>https://openclipart.org/detail/25195/architetto----botiglia-di-vino-by-anonymous-25195</dc:source><dc:creator><cc:Agent><dc:title>Anonymous</dc:title></cc:Agent></dc:creator><dc:subject><rdf:Bag><rdf:li>alcohol</rdf:li><rdf:li>beverage</rdf:li><rdf:li>bottle</rdf:li><rdf:li>color</rdf:li><rdf:li>drink</rdf:li><rdf:li>food</rdf:li><rdf:li>glass</rdf:li><rdf:li>golden</rdf:li><rdf:li>green</rdf:li><rdf:li>purple</rdf:li><rdf:li>wine</rdf:li></rdf:Bag></dc:subject></cc:Work><cc:License
         rdf:about="http://creativecommons.org/publicdomain/zero/1.0/"><cc:permits
           rdf:resource="http://creativecommons.org/ns#Reproduction" /><cc:permits
           rdf:resource="http://creativecommons.org/ns#Distribution" /><cc:permits
           rdf:resource="http://creativecommons.org/ns#DerivativeWorks" /></cc:License></rdf:RDF></metadata></svg>