<?xml version="1.0" encoding="UTF-8" standalone="no"?>
<!-- Created with Inkscape (http://www.inkscape.org/) -->

<svg
   width="16"
   height="16"
   viewBox="0 0 16 16"
   id="Tag:office=financial"
   version="1.1"
   xmlns="http://www.w3.org/2000/svg"
   xmlns:svg="http://www.w3.org/2000/svg"
   xmlns:rdf="http://www.w3.org/1999/02/22-rdf-syntax-ns#"
   xmlns:cc="http://creativecommons.org/ns#"
   xmlns:dc="http://purl.org/dc/elements/1.1/">
  <defs
     id="defs4266" />
  <metadata
     id="metadata4269">
    <rdf:RDF>
      <cc:Work
         rdf:about="">
        <dc:format>image/svg+xml</dc:format>
        <dc:type
           rdf:resource="http://purl.org/dc/dcmitype/StillImage" />
        <cc:license
           rdf:resource="http://creativecommons.org/publicdomain/zero/1.0/" />
      </cc:Work>
      <cc:License
         rdf:about="http://creativecommons.org/publicdomain/zero/1.0/">
        <cc:permits
           rdf:resource="http://creativecommons.org/ns#Reproduction" />
        <cc:permits
           rdf:resource="http://creativecommons.org/ns#Distribution" />
        <cc:permits
           rdf:resource="http://creativecommons.org/ns#DerivativeWorks" />
      </cc:License>
    </rdf:RDF>
  </metadata>
  <g
     id="person">
    <path
       style="color:#000000;display:inline;overflow:visible;visibility:visible;fill:#3771c8;fill-opacity:1;stroke:none;stroke-width:45;marker:none;enable-background:accumulate"
       d="m 11,3 c -0.6,0 -1,0.5 -1,1.2 v 0.7 c 0,0 0,0 0,0 V 5 9 c 0,0.75 1,0.75 1,0 V 5 h 0.5 v 10.25 c 0,1 1.25,1 1.25,0 V 9 h 0.5 v 6.25 c 0,1 1.25,1 1.25,0 V 5 h 0.5 v 4 c 0,0.75 1,0.75 1,0 V 5 4.25 C 16,3.5 15.5,3 15,3 h -4 z"
       id="path3772-7" />
    <ellipse
       style="fill:#3771c8;fill-opacity:1;stroke:none;stroke-width:0.3;stroke-linecap:round;stroke-linejoin:round;stroke-miterlimit:4;stroke-dasharray:none;stroke-opacity:1"
       id="path4145-4"
       cx="13"
       cy="1.2"
       rx="1.2"
       ry="1.2" />
  </g>
  <g
     id="dollar">
    <rect
       ry="0"
       y="5.5"
       x="0.5"
       height="10"
       width="8"
       id="rect4217-1"
       style="fill:#ffffff;fill-opacity:1;stroke:#808080;stroke-width:1;stroke-linecap:butt;stroke-linejoin:miter;stroke-miterlimit:4;stroke-dasharray:none;stroke-opacity:1" />
    <rect
       style="fill:#000000;stroke-width:2"
       id="rect4"
       width="1"
       height="9.25"
       x="4"
       y="6"
       ry="0.5" />
    <path
       id="path4221-8"
       d="m 6.5,7.7 c 0,0 -4,-1.34 -4,1.5 0,3 4,0 4,3 0,3 -4,1 -4,1"
       style="fill:none;fill-rule:evenodd;stroke:#000000;stroke-width:1;stroke-linecap:round;stroke-linejoin:round;stroke-miterlimit:4;stroke-dasharray:none;stroke-opacity:1" />
  </g>
  <g
     id="in">
    <path
       style="fill:#008000;fill-rule:evenodd;stroke:none;stroke-width:1.2;stroke-linecap:round;stroke-linejoin:round;stroke-miterlimit:4;stroke-dasharray:none;stroke-opacity:1"
       d="m 0,2 2,3 2,-3"
       id="path4231-8-8" />
    <rect
       style="opacity:1;fill:#008000;fill-opacity:1;stroke:none;stroke-width:0.3;stroke-linecap:round;stroke-linejoin:round;stroke-miterlimit:4;stroke-dasharray:none;stroke-opacity:1"
       id="rect4269-8-2"
       width="2"
       height="3"
       x="1"
       y="0" />
  </g>
  <g
     id="out">
    <path
       style="fill:#800000;fill-rule:evenodd;stroke:none;stroke-width:1.2;stroke-linecap:round;stroke-linejoin:round;stroke-miterlimit:4;stroke-dasharray:none;stroke-opacity:1"
       d="m 5,3 2,-3 2,3"
       id="path4231-2" />
    <rect
       style="opacity:1;fill:#800000;fill-opacity:1;stroke:none;stroke-width:0.3;stroke-linecap:round;stroke-linejoin:round;stroke-miterlimit:4;stroke-dasharray:none;stroke-opacity:1"
       id="rect4269-3"
       width="2"
       height="3"
       x="6"
       y="2" />
  </g>
</svg>
