<?xml version="1.0" encoding="UTF-8" standalone="no"?>
<!-- Created with Inkscape (http://www.inkscape.org/) -->
<svg xmlns:svg="http://www.w3.org/2000/svg" xmlns="http://www.w3.org/2000/svg" version="1.0" width="725" height="725" id="svg2">
  <defs id="defs9"/>
  <circle cx="362.5" cy="362.5" r="350" style="fill: white; stroke: black; stroke-width: 2.5px;" id="circle4"/>
  <path d="M -176.30905 369.66949 A 309.2189 309.2189 0 1 1  -794.74686,369.66949 A 309.2189 309.2189 0 1 1  -176.30905 369.66949 z" transform="matrix(1.06121, 0, 0, 1.06121, 877.745, -29.7955)" style="opacity: 1; fill: rgb(0, 51, 153); fill-opacity: 1; fill-rule: nonzero; stroke: none; stroke-width: 2; stroke-linecap: round; stroke-linejoin: round; stroke-miterlimit: 4; stroke-dasharray: none; stroke-dashoffset: 0pt; stroke-opacity: 1;" id="path1883"/>
  <path d="M 308.46875,87.53125 L 308.625,97.5 L 308.3125,87.75 L 204.03125,191.9375 L 204.15625,267.71875 L 279.40625,193.875 L 279.1875,628.59375 L 339.3125,628.53125 L 339.21875,527.53125 C 345.13959,485.77121 368.21125,456.96293 418.65625,446.5 C 418.65624,446.49999 528.5,446.375 528.5,446.375 L 455.21875,520.65625 L 531.96875,520.875 L 635.46875,415.9375 L 625.5,416.09375 L 635.25,415.8125 L 531.0625,311.53125 L 455.3125,311.625 L 528.34375,384.875 L 422.78125,384.15625 C 389.84442,386.73156 362.54099,396.06844 339.09375,410.03125 L 338.90625,194.5 L 413.1875,267.78125 L 413.40625,191.03125 L 308.46875,87.53125 z " style="fill: white; fill-opacity: 1; fill-rule: evenodd; stroke: none; stroke-width: 1px; stroke-linecap: butt; stroke-linejoin: miter; stroke-opacity: 1;" id="path2806"/>
</svg>