<?xml version="1.0" encoding="UTF-8" standalone="no"?>
<svg
   xmlns:dc="http://purl.org/dc/elements/1.1/"
   xmlns:cc="http://creativecommons.org/ns#"
   xmlns:rdf="http://www.w3.org/1999/02/22-rdf-syntax-ns#"
   xmlns:svg="http://www.w3.org/2000/svg"
   xmlns="http://www.w3.org/2000/svg"
   xmlns:xlink="http://www.w3.org/1999/xlink"
   xmlns:sodipodi="http://sodipodi.sourceforge.net/DTD/sodipodi-0.dtd"
   xmlns:inkscape="http://www.inkscape.org/namespaces/inkscape"
   inkscape:version="1.0 (4035a4fb49, 2020-05-01)"
   sodipodi:docname="osmbasedmap2.svg"
   id="svg372"
   version="1.1"
   width="24"
   height="24">
  <metadata
     id="metadata378">
    <rdf:RDF>
      <cc:Work
         rdf:about="">
        <dc:format>image/svg+xml</dc:format>
        <dc:type
           rdf:resource="http://purl.org/dc/dcmitype/StillImage" />
        <dc:title></dc:title>
      </cc:Work>
    </rdf:RDF>
  </metadata>
  <defs
     id="defs376">
    <linearGradient
       y2="-113.71875"
       x2="166.5"
       y1="-161.35938"
       x1="214.25"
       gradientUnits="userSpaceOnUse"
       id="linearGradient1020"
       xlink:href="#b"
       inkscape:collect="always" />
    <linearGradient
       y2="-62.46875"
       x2="57.65625"
       y1="-126.5"
       x1="53.25"
       gradientUnits="userSpaceOnUse"
       id="linearGradient1022"
       xlink:href="#b"
       inkscape:collect="always" />
    <linearGradient
       y2="-17.124975"
       x2="75.71875"
       y1="6.6250248"
       x1="39.5"
       gradientUnits="userSpaceOnUse"
       id="linearGradient1024"
       xlink:href="#b"
       inkscape:collect="always" />
    <linearGradient
       y2="-121.4375"
       x2="85.3125"
       y1="-162.34375"
       x1="102"
       gradientUnits="userSpaceOnUse"
       id="linearGradient1026"
       xlink:href="#b"
       inkscape:collect="always" />
    <linearGradient
       y2="-14.75"
       x2="63.5"
       y1="-78.09375"
       x1="117.75"
       gradientUnits="userSpaceOnUse"
       id="linearGradient1028"
       xlink:href="#b"
       inkscape:collect="always" />
    <linearGradient
       y2="-60.74995"
       x2="133.93745"
       y1="-125.125"
       x1="180.68745"
       gradientUnits="userSpaceOnUse"
       id="linearGradient1030"
       xlink:href="#b"
       inkscape:collect="always" />
    <linearGradient
       y2="33.375"
       x2="130.21875"
       y1="-23.5"
       x1="170.75"
       gradientUnits="userSpaceOnUse"
       id="linearGradient1032"
       xlink:href="#b"
       inkscape:collect="always" />
    <linearGradient
       y2="-5.6563001"
       x2="181.75005"
       y1="-76"
       x1="213.5"
       gradientUnits="userSpaceOnUse"
       id="linearGradient1034"
       xlink:href="#b"
       inkscape:collect="always" />
    <linearGradient
       y2="-179.96893"
       x2="9"
       y1="-94.671967"
       x1="94.25"
       gradientUnits="userSpaceOnUse"
       id="linearGradient1036"
       xlink:href="#a"
       inkscape:collect="always" />
    <linearGradient
       y2="-30.4375"
       x2="35.75"
       y1="-114.4375"
       x1="50.75"
       gradientUnits="userSpaceOnUse"
       id="linearGradient1038"
       xlink:href="#a"
       inkscape:collect="always" />
    <linearGradient
       y2="-74.625"
       x2="115.25"
       y1="-163.125"
       x1="77.625"
       gradientUnits="userSpaceOnUse"
       id="linearGradient1040"
       xlink:href="#a"
       inkscape:collect="always" />
    <linearGradient
       y2="7.0625"
       x2="125.71875"
       y1="-50.4375"
       x1="56.5"
       gradientUnits="userSpaceOnUse"
       id="linearGradient1042"
       xlink:href="#a"
       inkscape:collect="always" />
    <linearGradient
       y2="-146.79688"
       x2="180.75"
       y1="-163.29688"
       x1="35"
       gradientUnits="userSpaceOnUse"
       id="linearGradient1044"
       xlink:href="#a"
       inkscape:collect="always" />
    <linearGradient
       y2="-41.609402"
       x2="179"
       y1="-141.10941"
       x1="57.000099"
       gradientUnits="userSpaceOnUse"
       id="linearGradient1046"
       xlink:href="#a"
       inkscape:collect="always" />
    <linearGradient
       y2="39.75"
       x2="208.25"
       y1="-26.5"
       x1="156"
       gradientUnits="userSpaceOnUse"
       id="linearGradient1048"
       xlink:href="#a"
       inkscape:collect="always" />
    <linearGradient
       y2="-77.296875"
       x2="235"
       y1="-169.29688"
       x1="142.75"
       gradientUnits="userSpaceOnUse"
       id="linearGradient1050"
       xlink:href="#a"
       inkscape:collect="always" />
  </defs>
  <sodipodi:namedview
     inkscape:document-rotation="0"
     inkscape:current-layer="svg372"
     inkscape:window-maximized="1"
     inkscape:window-y="-8"
     inkscape:window-x="-8"
     inkscape:cy="12.320636"
     inkscape:cx="12.251501"
     inkscape:zoom="32"
     showgrid="true"
     id="namedview374"
     inkscape:window-height="987"
     inkscape:window-width="1680"
     inkscape:pageshadow="2"
     inkscape:pageopacity="0"
     guidetolerance="10"
     gridtolerance="10"
     objecttolerance="10"
     borderopacity="1"
     bordercolor="#666666"
     pagecolor="#ffffff">
    <inkscape:grid
       id="grid1018"
       type="xygrid" />
  </sodipodi:namedview>
  <linearGradient
     id="a">
    <stop
       id="stop2"
       offset="0" />
    <stop
       id="stop4"
       stop-opacity="0"
       offset="1" />
  </linearGradient>
  <linearGradient
     id="b">
    <stop
       id="stop7"
       stop-color="#fff"
       offset="0" />
    <stop
       id="stop9"
       stop-opacity="0"
       stop-color="#fff"
       offset="1" />
  </linearGradient>
  <linearGradient
     id="c">
    <stop
       id="stop12"
       stop-color="#f9e295"
       offset="0" />
    <stop
       id="stop14"
       stop-color="#f7dd84"
       offset=".125" />
    <stop
       id="stop16"
       stop-color="#fff"
       offset=".20580582" />
    <stop
       id="stop18"
       stop-color="#f4ce51"
       offset=".30112621" />
    <stop
       id="stop20"
       stop-color="#f9e7aa"
       offset=".3412039" />
    <stop
       id="stop22"
       stop-color="#efbb0e"
       offset="1" />
  </linearGradient>
  <linearGradient
     id="d">
    <stop
       id="stop25"
       stop-color="#2d3335"
       offset="0" />
    <stop
       id="stop27"
       stop-color="#4c464a"
       offset=".5" />
    <stop
       id="stop29"
       stop-color="#384042"
       offset="1" />
  </linearGradient>
  <linearGradient
     id="e">
    <stop
       id="stop32"
       stop-opacity="0"
       stop-color="#d0e9f2"
       offset="0" />
    <stop
       id="stop34"
       stop-opacity="0"
       stop-color="#d0e9f2"
       offset=".83932751" />
    <stop
       id="stop36"
       stop-opacity=".281853"
       stop-color="#d0e9f2"
       offset=".94308507" />
    <stop
       id="stop38"
       stop-color="#d0e9f2"
       offset="1" />
  </linearGradient>
  <linearGradient
     y2="-179.96893"
     y1="-94.671967"
     xlink:href="#a"
     x2="9"
     x1="94.25"
     gradientUnits="userSpaceOnUse"
     id="f" />
  <linearGradient
     y2="-30.4375"
     y1="-114.4375"
     xlink:href="#a"
     x2="35.75"
     x1="50.75"
     gradientUnits="userSpaceOnUse"
     id="g" />
  <linearGradient
     y2="-74.625"
     y1="-163.125"
     xlink:href="#a"
     x2="115.25"
     x1="77.625"
     gradientUnits="userSpaceOnUse"
     id="h" />
  <linearGradient
     y2="7.0625"
     y1="-50.4375"
     xlink:href="#a"
     x2="125.71875"
     x1="56.5"
     gradientUnits="userSpaceOnUse"
     id="i" />
  <linearGradient
     y2="-146.79688"
     y1="-163.29688"
     xlink:href="#a"
     x2="180.75"
     x1="35"
     gradientUnits="userSpaceOnUse"
     id="j" />
  <linearGradient
     y2="-41.609402"
     y1="-141.10941"
     xlink:href="#a"
     x2="179"
     x1="57.000099"
     gradientUnits="userSpaceOnUse"
     id="k" />
  <linearGradient
     y2="39.75"
     y1="-26.5"
     xlink:href="#a"
     x2="208.25"
     x1="156"
     gradientUnits="userSpaceOnUse"
     id="l" />
  <linearGradient
     y2="-77.296875"
     y1="-169.29688"
     xlink:href="#a"
     x2="235"
     x1="142.75"
     gradientUnits="userSpaceOnUse"
     id="m" />
  <linearGradient
     y2="-113.71875"
     y1="-161.35938"
     xlink:href="#b"
     x2="166.5"
     x1="214.25"
     gradientUnits="userSpaceOnUse"
     id="n" />
  <linearGradient
     y2="-62.46875"
     y1="-126.5"
     xlink:href="#b"
     x2="57.65625"
     x1="53.25"
     gradientUnits="userSpaceOnUse"
     id="o" />
  <linearGradient
     y2="-17.124975"
     y1="6.6250248"
     xlink:href="#b"
     x2="75.71875"
     x1="39.5"
     gradientUnits="userSpaceOnUse"
     id="p" />
  <linearGradient
     y2="-121.4375"
     y1="-162.34375"
     xlink:href="#b"
     x2="85.3125"
     x1="102"
     gradientUnits="userSpaceOnUse"
     id="q" />
  <linearGradient
     y2="-14.75"
     y1="-78.09375"
     xlink:href="#b"
     x2="63.5"
     x1="117.75"
     gradientUnits="userSpaceOnUse"
     id="r" />
  <linearGradient
     y2="-60.74995"
     y1="-125.125"
     xlink:href="#b"
     x2="133.93745"
     x1="180.68745"
     gradientUnits="userSpaceOnUse"
     id="s" />
  <linearGradient
     y2="33.375"
     y1="-23.5"
     xlink:href="#b"
     x2="130.21875"
     x1="170.75"
     gradientUnits="userSpaceOnUse"
     id="t" />
  <linearGradient
     y2="-5.6563001"
     y1="-76"
     xlink:href="#b"
     x2="181.75005"
     x1="213.5"
     gradientUnits="userSpaceOnUse"
     id="u" />
  <linearGradient
     gradientTransform="matrix(0.09375,0,0,0.09375,0.02500004,18.000002)"
     y2="-223.25346"
     y1="62.064125"
     xlink:href="#a"
     x2="9"
     x1="210.17188"
     gradientUnits="userSpaceOnUse"
     id="v" />
  <clipPath
     id="w">
    <path
       id="path58"
       d="m 9,12.25 c 0,0 7.5,13 11.75,27.75 C 25,54.75 27,65.5 27,65.5 c 0,0 -5.5,12.75 -8.25,24.75 -2.75,12 -5.75,23 -5.75,23 0,0 5.75,16 9.25,30 3.5,14 3.75,24.25 3.75,24.25 0,0 -4,10.25 -7.5,24.25 -3.5,14 -5,30.75 -5,30.75 0,0 9.25,-2 28.5,1.25 19.25,3.25 32.25,6 32.25,6 0,0 12.75,-2.75 24,-6.25 11.25,-3.5 16.25,-6.5 16.25,-6.5 0,0 5.5,0.5 22.5,6.25 17,5.75 29.25,8.5 29.25,8.5 0,0 13,-2.75 26,-5.75 13,-3 26.5,-8 26.5,-8 0,0 -0.75,-5 4.25,-24.5 5,-19.5 8.75,-28 8.75,-28 0,0 -0.5,-4.5 -3.75,-19.75 C 224.75,130.5 218,116 218,116 c 0,0 1.75,-10.5 6.75,-23.75 C 229.75,79 235,65.5 235,65.5 c 0,0 -4.75,-15.25 -7.5,-29.75 C 224.75,21.25 219.25,10 219.25,10 c 0,0 -24.25,9 -31.75,10.5 -7.5,1.5 -21,5.25 -21,5.25 0,0 -9.75,-4.25 -22,-8.5 -12.25,-4.25 -29.75,-5.5 -29.75,-5.5 0,0 -3.25,3.5 -22,8 -18.75,4.5 -27.5,5.75 -27.5,5.75 0,0 -18.5,-9 -31.5,-11.5 -13,-2.5 -24,-2 -24.75,-1.75 z" />
  </clipPath>
  <clipPath
     id="x">
    <path
       id="path61"
       d="m 9,12.25 c 0,0 7.5,13 11.75,27.75 C 25,54.75 27,65.5 27,65.5 c 0,0 -5.5,12.75 -8.25,24.75 -2.75,12 -5.75,23 -5.75,23 0,0 5.75,16 9.25,30 3.5,14 3.75,24.25 3.75,24.25 0,0 -4,10.25 -7.5,24.25 -3.5,14 -5,30.75 -5,30.75 0,0 9.25,-2 28.5,1.25 19.25,3.25 32.25,6 32.25,6 0,0 12.75,-2.75 24,-6.25 11.25,-3.5 16.25,-6.5 16.25,-6.5 0,0 5.5,0.5 22.5,6.25 17,5.75 29.25,8.5 29.25,8.5 0,0 13,-2.75 26,-5.75 13,-3 26.5,-8 26.5,-8 0,0 -0.75,-5 4.25,-24.5 5,-19.5 8.75,-28 8.75,-28 0,0 -0.5,-4.5 -3.75,-19.75 C 224.75,130.5 218,116 218,116 c 0,0 1.75,-10.5 6.75,-23.75 C 229.75,79 235,65.5 235,65.5 c 0,0 -4.75,-15.25 -7.5,-29.75 C 224.75,21.25 219.25,10 219.25,10 c 0,0 -24.25,9 -31.75,10.5 -7.5,1.5 -21,5.25 -21,5.25 0,0 -9.75,-4.25 -22,-8.5 -12.25,-4.25 -29.75,-5.5 -29.75,-5.5 0,0 -3.25,3.5 -22,8 -18.75,4.5 -27.5,5.75 -27.5,5.75 0,0 -18.5,-9 -31.5,-11.5 -13,-2.5 -24,-2 -24.75,-1.75 z" />
  </clipPath>
  <clipPath
     id="y">
    <path
       id="path64"
       d="m 9,12.25 c 0,0 7.5,13 11.75,27.75 C 25,54.75 27,65.5 27,65.5 c 0,0 -5.5,12.75 -8.25,24.75 -2.75,12 -5.75,23 -5.75,23 0,0 5.75,16 9.25,30 3.5,14 3.75,24.25 3.75,24.25 0,0 -4,10.25 -7.5,24.25 -3.5,14 -5,30.75 -5,30.75 0,0 9.25,-2 28.5,1.25 19.25,3.25 32.25,6 32.25,6 0,0 12.75,-2.75 24,-6.25 11.25,-3.5 16.25,-6.5 16.25,-6.5 0,0 5.5,0.5 22.5,6.25 17,5.75 29.25,8.5 29.25,8.5 0,0 13,-2.75 26,-5.75 13,-3 26.5,-8 26.5,-8 0,0 -0.75,-5 4.25,-24.5 5,-19.5 8.75,-28 8.75,-28 0,0 -0.5,-4.5 -3.75,-19.75 C 224.75,130.5 218,116 218,116 c 0,0 1.75,-10.5 6.75,-23.75 C 229.75,79 235,65.5 235,65.5 c 0,0 -4.75,-15.25 -7.5,-29.75 C 224.75,21.25 219.25,10 219.25,10 c 0,0 -24.25,9 -31.75,10.5 -7.5,1.5 -21,5.25 -21,5.25 0,0 -9.75,-4.25 -22,-8.5 -12.25,-4.25 -29.75,-5.5 -29.75,-5.5 0,0 -3.25,3.5 -22,8 -18.75,4.5 -27.5,5.75 -27.5,5.75 0,0 -18.5,-9 -31.5,-11.5 -13,-2.5 -24,-2 -24.75,-1.75 z" />
  </clipPath>
  <radialGradient
     xlink:href="#e"
     r="47"
     gradientUnits="userSpaceOnUse"
     gradientTransform="matrix(1.0212766,0,0,-1.0212766,-212.7234,173.82979)"
     cy="86"
     cx="128"
     id="z" />
  <linearGradient
     y2="150.375"
     y1="150.375"
     xlink:href="#d"
     x2="133"
     x1="123"
     gradientUnits="userSpaceOnUse"
     gradientTransform="matrix(-1,0,0,1,46,0)"
     id="A" />
  <linearGradient
     y2="143.35938"
     y1="134.35938"
     xlink:href="#d"
     x2="-79.125"
     x1="-82"
     gradientUnits="userSpaceOnUse"
     id="B" />
  <linearGradient
     y2="150.375"
     y1="150.375"
     xlink:href="#d"
     x2="133"
     x1="123"
     gradientUnits="userSpaceOnUse"
     gradientTransform="matrix(-2,0,0,1.7699115,174,-86.65044)"
     id="C" />
  <linearGradient
     y2="186.5"
     y1="186.5"
     xlink:href="#c"
     x2="-74"
     x1="-90"
     gradientUnits="userSpaceOnUse"
     id="D" />
  <linearGradient
     y2="253.5"
     y1="253.5"
     xlink:href="#c"
     x2="-74"
     x1="-90"
     gradientUnits="userSpaceOnUse"
     id="E" />
  <linearGradient
     y2="186.5"
     y1="186.5"
     xlink:href="#c"
     x2="136"
     x1="120"
     gradientUnits="userSpaceOnUse"
     gradientTransform="matrix(0.09227548,0.09227548,-0.09227548,0.09227548,6.30551,-5.5514683)"
     id="F" />
  <linearGradient
     y2="150.375"
     y1="150.375"
     xlink:href="#d"
     x2="133"
     x1="123"
     gradientUnits="userSpaceOnUse"
     gradientTransform="matrix(-0.18455096,-0.18455096,-0.16331944,0.16331944,55.91747,15.704152)"
     id="G" />
  <linearGradient
     y2="186.5"
     y1="186.5"
     xlink:href="#c"
     x2="136"
     x1="120"
     gradientUnits="userSpaceOnUse"
     gradientTransform="matrix(0.09227548,0.09227548,-0.09227548,0.09227548,12.48797,-11.733928)"
     id="H" />
  <linearGradient
     y2="150.375"
     y1="150.375"
     xlink:href="#d"
     x2="133"
     x1="123"
     gradientUnits="userSpaceOnUse"
     gradientTransform="matrix(-0.09227548,-0.09227548,-0.09227548,0.09227548,36.11049,11.888592)"
     id="I" />
  <linearGradient
     y2="143.35938"
     y1="134.35938"
     xlink:href="#d"
     x2="130.875"
     x1="128"
     gradientUnits="userSpaceOnUse"
     gradientTransform="matrix(0.09227548,0.09227548,-0.09227548,0.09227548,12.48797,-11.733928)"
     id="J" />
  <radialGradient
     xlink:href="#e"
     r="47"
     gradientUnits="userSpaceOnUse"
     gradientTransform="matrix(0.09423878,0.09423878,0.09423878,-0.09423878,-3.80356,4.0550017)"
     cy="86"
     cx="128"
     id="K" />
  <linearGradient
     y2="150.375"
     y1="167.7272"
     xlink:href="#a"
     x2="133"
     x1="108.00327"
     gradientUnits="userSpaceOnUse"
     gradientTransform="matrix(-0.18455096,-0.18455096,-0.16331944,0.16331944,55.91747,15.704152)"
     id="L" />
  <radialGradient
     r="38.416904"
     gradientUnits="userSpaceOnUse"
     gradientTransform="matrix(0.11366979,0,0,0.07866997,-4.3204689,2.3034094)"
     cy="72.588303"
     cx="159.61317"
     id="M">
    <stop
       id="stop80"
       stop-color="#fff"
       offset="0" />
    <stop
       id="stop82"
       stop-opacity=".930502"
       stop-color="#fff"
       offset=".5" />
    <stop
       id="stop84"
       stop-opacity="0"
       stop-color="#fff"
       offset="1" />
  </radialGradient>
  <radialGradient
     xlink:href="#b"
     r="38.416904"
     gradientUnits="userSpaceOnUse"
     gradientTransform="matrix(0.11366979,0,0,0.07866997,-4.2802809,2.4239694)"
     cy="72.588303"
     cx="159.61317"
     id="N" />
  <linearGradient
     gradientTransform="matrix(0.09375,0,0,0.09375,0.02500004,1.784375e-6)"
     y2="127.19565"
     y1="19.814894"
     xlink:href="#b"
     x2="179.96115"
     x1="126.64295"
     gradientUnits="userSpaceOnUse"
     id="O" />
  <linearGradient
     y2="137.19565"
     y1="29.814894"
     xlink:href="#b"
     x2="179.96115"
     x1="126.64295"
     gradientUnits="userSpaceOnUse"
     gradientTransform="matrix(-0.04715185,0.01859995,0.01848764,-0.04055031,25.91466,11.570372)"
     id="P" />
  <filter
     id="Q">
    <feGaussianBlur
       id="feGaussianBlur90"
       stdDeviation="4.2868936" />
  </filter>
  <clipPath
     id="R">
    <path
       id="path93"
       d="m 9,12.25 c 0,0 7.5,13 11.75,27.75 C 25,54.75 27,65.5 27,65.5 c 0,0 -5.5,12.75 -8.25,24.75 -2.75,12 -5.75,23 -5.75,23 0,0 5.75,16 9.25,30 3.5,14 3.75,24.25 3.75,24.25 0,0 -4,10.25 -7.5,24.25 -3.5,14 -5,30.75 -5,30.75 0,0 9.25,-2 28.5,1.25 19.25,3.25 32.25,6 32.25,6 0,0 12.75,-2.75 24,-6.25 11.25,-3.5 16.25,-6.5 16.25,-6.5 0,0 5.5,0.5 22.5,6.25 17,5.75 29.25,8.5 29.25,8.5 0,0 13,-2.75 26,-5.75 13,-3 26.5,-8 26.5,-8 0,0 -0.75,-5 4.25,-24.5 5,-19.5 8.75,-28 8.75,-28 0,0 -0.5,-4.5 -3.75,-19.75 C 224.75,130.5 218,116 218,116 c 0,0 1.75,-10.5 6.75,-23.75 C 229.75,79 235,65.5 235,65.5 c 0,0 -4.75,-15.25 -7.5,-29.75 C 224.75,21.25 219.25,10 219.25,10 c 0,0 -24.25,9 -31.75,10.5 -7.5,1.5 -21,5.25 -21,5.25 0,0 -9.75,-4.25 -22,-8.5 -12.25,-4.25 -29.75,-5.5 -29.75,-5.5 0,0 -3.25,3.5 -22,8 -18.75,4.5 -27.5,5.75 -27.5,5.75 0,0 -18.5,-9 -31.5,-11.5 -13,-2.5 -24,-2 -24.75,-1.75 z" />
  </clipPath>
  <clipPath
     id="S">
    <path
       id="path96"
       d="m 9,12.25 c 0,0 7.5,13 11.75,27.75 C 25,54.75 27,65.5 27,65.5 c 0,0 -5.5,12.75 -8.25,24.75 -2.75,12 -5.75,23 -5.75,23 0,0 5.75,16 9.25,30 3.5,14 3.75,24.25 3.75,24.25 0,0 -4,10.25 -7.5,24.25 -3.5,14 -5,30.75 -5,30.75 0,0 9.25,-2 28.5,1.25 19.25,3.25 32.25,6 32.25,6 0,0 12.75,-2.75 24,-6.25 11.25,-3.5 16.25,-6.5 16.25,-6.5 0,0 5.5,0.5 22.5,6.25 17,5.75 29.25,8.5 29.25,8.5 0,0 13,-2.75 26,-5.75 13,-3 26.5,-8 26.5,-8 0,0 -0.75,-5 4.25,-24.5 5,-19.5 8.75,-28 8.75,-28 0,0 -0.5,-4.5 -3.75,-19.75 C 224.75,130.5 218,116 218,116 c 0,0 1.75,-10.5 6.75,-23.75 C 229.75,79 235,65.5 235,65.5 c 0,0 -4.75,-15.25 -7.5,-29.75 C 224.75,21.25 219.25,10 219.25,10 c 0,0 -24.25,9 -31.75,10.5 -7.5,1.5 -21,5.25 -21,5.25 0,0 -9.75,-4.25 -22,-8.5 -12.25,-4.25 -29.75,-5.5 -29.75,-5.5 0,0 -3.25,3.5 -22,8 -18.75,4.5 -27.5,5.75 -27.5,5.75 0,0 -18.5,-9 -31.5,-11.5 -13,-2.5 -24,-2 -24.75,-1.75 z" />
  </clipPath>
  <clipPath
     id="T">
    <path
       id="path99"
       d="m 9,12.25 c 0,0 7.5,13 11.75,27.75 C 25,54.75 27,65.5 27,65.5 c 0,0 -5.5,12.75 -8.25,24.75 -2.75,12 -5.75,23 -5.75,23 0,0 5.75,16 9.25,30 3.5,14 3.75,24.25 3.75,24.25 0,0 -4,10.25 -7.5,24.25 -3.5,14 -5,30.75 -5,30.75 0,0 9.25,-2 28.5,1.25 19.25,3.25 32.25,6 32.25,6 0,0 12.75,-2.75 24,-6.25 11.25,-3.5 16.25,-6.5 16.25,-6.5 0,0 5.5,0.5 22.5,6.25 17,5.75 29.25,8.5 29.25,8.5 0,0 13,-2.75 26,-5.75 13,-3 26.5,-8 26.5,-8 0,0 -0.75,-5 4.25,-24.5 5,-19.5 8.75,-28 8.75,-28 0,0 -0.5,-4.5 -3.75,-19.75 C 224.75,130.5 218,116 218,116 c 0,0 1.75,-10.5 6.75,-23.75 C 229.75,79 235,65.5 235,65.5 c 0,0 -4.75,-15.25 -7.5,-29.75 C 224.75,21.25 219.25,10 219.25,10 c 0,0 -24.25,9 -31.75,10.5 -7.5,1.5 -21,5.25 -21,5.25 0,0 -9.75,-4.25 -22,-8.5 -12.25,-4.25 -29.75,-5.5 -29.75,-5.5 0,0 -3.25,3.5 -22,8 -18.75,4.5 -27.5,5.75 -27.5,5.75 0,0 -18.5,-9 -31.5,-11.5 -13,-2.5 -24,-2 -24.75,-1.75 z" />
  </clipPath>
  <linearGradient
     y2="-21.25346"
     y1="264.06412"
     xlink:href="#a"
     x2="9"
     x1="210.17188"
     gradientUnits="userSpaceOnUse"
     id="U" />
  <clipPath
     id="V">
    <path
       id="path103"
       d="m 123.62289,141.06193 c 20.83191,20.24317 54.6071,19.28863 75.439,-2.132 20.8319,-21.42064 20.8319,-55.195816 0,-75.438984 -20.83191,-20.243167 -54.60709,-19.288643 -75.439,2.131999 -20.83189,21.42063 -20.8319,55.195815 0,75.438985 z" />
  </clipPath>
  <filter
     id="W">
    <feGaussianBlur
       id="feGaussianBlur106"
       stdDeviation="6.3109704" />
  </filter>
  <filter
     id="X">
    <feGaussianBlur
       id="feGaussianBlur109"
       stdDeviation="4.4575" />
  </filter>
  <linearGradient
     y2="4.302"
     y1="245.448"
     xlink:href="#a"
     x2="122"
     x1="122"
     gradientUnits="userSpaceOnUse"
     id="Y" />
  <clipPath
     id="Z">
    <path
       id="path113"
       d="m 9,22.578406 c 0,0 7.5,12.393417 11.75,26.799687 C 25,63.784363 27,74.372608 27,74.372608 c 0,0 -5.5,13.194827 -8.25,25.417241 C 16,112.01226 13,123.2549 13,123.2549 c 0,0 5.75,15.53495 9.25,29.25188 3.5,13.71692 3.75,23.94671 3.75,23.94671 0,0 -4,10.57351 -7.5,24.85658 -3.5,14.28307 -5,31.15439 -5,31.15439 0,0 9.25,-2.74812 28.5,-1.05502 19.25,1.69311 32.25,3.3917 32.25,3.3917 0,0 12.75,-3.78119 24,-8.19107 11.25,-4.40987 16.25,-7.81426 16.25,-7.81426 0,0 5.5,0.0552 22.5,4.43025 17,4.37508 29.25,6.13433 29.25,6.13433 0,0 13,-3.80141 26,-7.85282 13,-4.05141 26.5,-10.14326 26.5,-10.14326 0,0 -0.75,-4.93934 4.25,-24.84373 5,-19.90438 8.75,-28.70768 8.75,-28.70768 0,0 -0.5145,-4.4553 -3.75,-19.4467 -1.75,-8.10847 -2.25,-4.06803 -2.25,-4.06803 0,0 16.264,-26.15535 16.5,-40.334481 C 242.5,78.94347 235,57.550053 235,57.550053 c 0,0 -4.75,-14.865832 -7.5,-29.143418 -2.75,-14.277586 -8.25,-25.0827591 -8.25,-25.0827591 0,0 -24.25,10.9612831 -31.75,13.0678661 -7.5,2.106582 -21,6.948431 -21,6.948431 0,0 -9.75,-3.461443 -22,-6.720691 -12.25,-3.259249 -29.75,-3.09389 -29.75,-3.09389 0,0 -3.25,3.762853 -22,9.779309 -18.75,6.016456 -27.5,7.974136 -27.5,7.974136 0,0 -18.5,-7.503763 -31.5,-8.952353 -13,-1.448591 -24,-0.05894 -24.75,0.251722 z" />
  </clipPath>
  <path
     id="path116"
     transform="matrix(0.09375,0.00643507,0,0.07956544,0.02500004,2.5231017)"
     opacity="0.7"
     filter="url(#W)"
     fill="#2d3335"
     d="m 174.28125,35.875 c -17.59875,0 -35.19216,6.639475 -48.71875,19.90625 -0.16722,0.163278 -0.33437,0.303117 -0.5,0.46875 -22.05595,22.055948 -26.208705,55.25122 -12.46875,81.5 l -2.28125,1.625 c 2.24879,4.23988 4.94165,8.3068 8.09375,12.125 l -13.3125,13.34375 c -1.34137,-0.58575 -2.78858,-1.03331 -4.5625,-1.375 l -2.84375,2.84375 c -1.109469,-0.48387 -2.138019,-0.81588 -3.0625,-0.875 L 30.5,229.5625 c -0.03687,1.10087 0.22615,2.18738 0.65625,3.28125 l -0.53125,0.53125 -1.09375,1.09375 c 0.715438,3.7378 2.010432,6.82294 5.46875,10.28125 3.458318,3.45832 6.420414,4.63027 10.28125,5.46875 l 1.09375,-1.09375 0.71875,-0.71875 c 1.088203,0.46225 2.129899,0.78617 3.09375,0.84375 l 64.125,-64.125 c -0.24286,-0.97475 -0.62043,-1.93546 -1.03125,-2.90625 l 3,-3 c -0.24983,-1.73198 -0.67671,-3.19803 -1.3125,-4.59375 L 128.25,161.34375 c 3.8182,3.1521 7.88512,5.84497 12.125,8.09375 L 142,167.15625 c 26.24878,13.73995 59.44405,9.58719 81.5,-12.46875 0.16563,-0.16564 0.30547,-0.33278 0.46875,-0.5 C 250.66292,126.97054 250.51736,83.267352 223.5,56.25 209.91004,42.660041 192.09307,35.875 174.28125,35.875 Z m -0.5,3.28125 c 0.10467,0.0015 0.20783,-0.002 0.3125,0 0.94919,0.0184 1.89538,0.06527 2.84375,0.125 0.95844,0.06036 1.9188,0.147513 2.875,0.25 0.0937,0.01005 0.18754,0.0208 0.28125,0.03125 0.094,0.01048 0.1873,0.02037 0.28125,0.03125 0.1457,0.01688 0.29187,0.04464 0.4375,0.0625 0.8962,0.109902 1.79491,0.228119 2.6875,0.375 0.61909,0.101874 1.22687,0.224117 1.84375,0.34375 0.34295,0.06644 0.68907,0.11558 1.03125,0.1875 0.7237,0.152111 1.43647,0.323392 2.15625,0.5 0.31305,0.07681 0.62528,0.137311 0.9375,0.21875 0.0731,0.01906 0.1457,0.04319 0.21875,0.0625 0.9559,0.252837 1.89673,0.516294 2.84375,0.8125 0.0724,0.02261 0.14641,0.03963 0.21875,0.0625 0.94741,0.299842 1.90684,0.625541 2.84375,0.96875 0.0531,0.01945 0.10323,0.04291 0.15625,0.0625 0.95458,0.352395 1.90174,0.727633 2.84375,1.125 0.0515,0.02172 0.10478,0.04064 0.15625,0.0625 0.94184,0.400051 1.88491,0.836281 2.8125,1.28125 0.042,0.02016 0.083,0.04225 0.125,0.0625 0.93538,0.451087 1.86208,0.909529 2.78125,1.40625 0.0331,0.01788 0.0607,0.04456 0.0937,0.0625 0.92681,0.502833 1.84142,1.013321 2.75,1.5625 0.0321,0.01939 0.0617,0.04305 0.0937,0.0625 0.9081,0.550934 1.79937,1.121562 2.6875,1.71875 0.54895,0.369074 1.0842,0.76954 1.625,1.15625 0.3647,0.260827 0.73291,0.512412 1.09375,0.78125 0.0185,0.01381 0.044,0.01742 0.0625,0.03125 0.87764,0.655206 1.74021,1.359931 2.59375,2.0625 1.74268,1.434371 3.43142,2.962673 5.0625,4.59375 1.62048,1.62048 3.13618,3.300564 4.5625,5.03125 0.009,0.01124 0.022,0.02 0.0312,0.03125 0.70321,0.854357 1.40674,1.715235 2.0625,2.59375 0.28277,0.378769 0.53857,0.773223 0.8125,1.15625 0.36973,0.517057 0.74014,1.037986 1.09375,1.5625 0.0162,0.02399 0.0464,0.03849 0.0625,0.0625 0.59812,0.889626 1.16704,1.777833 1.71875,2.6875 0.0195,0.03207 0.0431,0.06166 0.0625,0.09375 0.54559,0.902919 1.06267,1.829073 1.5625,2.75 0.0179,0.03294 0.0447,0.06079 0.0625,0.09375 0.498,0.921212 0.95408,1.843744 1.40625,2.78125 0.0202,0.04194 0.0424,0.08302 0.0625,0.125 0.44611,0.929867 0.88027,1.868304 1.28125,2.8125 0.0218,0.05123 0.0409,0.104977 0.0625,0.15625 0.3948,0.936122 0.77461,1.895211 1.125,2.84375 0.0194,0.05253 0.0432,0.103686 0.0625,0.15625 0.34761,0.94836 0.66558,1.884632 0.96875,2.84375 0.0227,0.07167 0.0401,0.147026 0.0625,0.21875 0.29398,0.941172 0.56134,1.893822 0.8125,2.84375 0.0195,0.07353 0.0433,0.145172 0.0625,0.21875 0.0807,0.309554 0.14258,0.627132 0.21875,0.9375 0.17661,0.719779 0.34789,1.432546 0.5,2.15625 0.0719,0.342177 0.12106,0.688299 0.1875,1.03125 0.11963,0.616882 0.24188,1.224661 0.34375,1.84375 0.14688,0.892594 0.2651,1.791302 0.375,2.6875 0.0179,0.145959 0.0456,0.291463 0.0625,0.4375 0.0108,0.09329 0.0208,0.187929 0.0312,0.28125 0.0105,0.09398 0.0212,0.187243 0.0312,0.28125 0.10249,0.9562 0.18964,1.91656 0.25,2.875 0.0592,0.94244 0.10661,1.90049 0.125,2.84375 0.002,0.10413 -0.002,0.20837 0,0.3125 0.0154,1.05333 0.004,2.10385 -0.0312,3.15625 -0.0316,0.93056 -0.0847,1.85279 -0.15625,2.78125 -0.01,0.12493 -0.0209,0.25012 -0.0312,0.375 -0.0761,0.91807 -0.16591,1.8354 -0.28125,2.75 -0.1206,0.95626 -0.27395,1.92393 -0.4375,2.875 -0.0142,0.0824 -0.0168,0.16767 -0.0312,0.25 -0.022,0.12485 -0.0397,0.25026 -0.0625,0.375 -0.16526,0.90778 -0.3579,1.81727 -0.5625,2.71875 -0.0306,0.13463 -0.0623,0.27178 -0.0937,0.40625 -0.20775,0.88866 -0.44134,1.7751 -0.6875,2.65625 -0.16391,0.58672 -0.35028,1.16705 -0.53125,1.75 -0.17541,0.56412 -0.33984,1.12724 -0.53125,1.6875 -0.29467,0.86381 -0.60475,1.70882 -0.9375,2.5625 -0.0606,0.15549 -0.12566,0.31362 -0.1875,0.46875 -0.0449,0.11246 -0.0795,0.23148 -0.125,0.34375 -0.3561,0.87862 -0.72813,1.7276 -1.125,2.59375 -0.37698,0.82347 -0.7736,1.62644 -1.1875,2.4375 -0.0805,0.15778 -0.16807,0.31147 -0.25,0.46875 -0.41528,0.7974 -0.82998,1.59095 -1.28125,2.375 -0.0952,0.16556 -0.1844,0.33506 -0.28125,0.5 -0.19907,0.33885 -0.41915,0.66384 -0.625,1 -0.36165,0.59093 -0.74237,1.16777 -1.125,1.75 -0.005,0.007 0.005,0.0238 0,0.0312 -0.49081,0.74574 -1.00593,1.48819 -1.53125,2.21875 -0.45727,0.63592 -0.95404,1.25128 -1.4375,1.875 -0.19696,0.25409 -0.36119,0.52926 -0.5625,0.78125 -0.13402,0.16779 -0.2703,0.33315 -0.40625,0.5 -0.16351,0.20064 -0.3337,0.39451 -0.5,0.59375 -0.55662,0.66705 -1.13079,1.31785 -1.71875,1.96875 -0.60631,0.67104 -1.23531,1.34705 -1.875,2 -0.16096,0.16426 -0.30567,0.33692 -0.46875,0.5 -21.13035,21.13035 -52.25869,24.49488 -77.1875,11.15625 l 0.125,-0.1875 c -3.70417,-1.89661 -7.26167,-4.14046 -10.625,-6.78125 -0.53892,-0.42315 -1.06537,-0.86982 -1.59375,-1.3125 -0.51441,-0.43097 -1.0273,-0.8629 -1.53125,-1.3125 -0.0929,-0.0836 -0.18872,-0.1658 -0.28125,-0.25 -0.82173,-0.74776 -1.61189,-1.51814 -2.40625,-2.3125 -0.79436,-0.79436 -1.56473,-1.58452 -2.3125,-2.40625 -0.0842,-0.0925 -0.16639,-0.18838 -0.25,-0.28125 -0.4496,-0.50395 -0.88153,-1.01684 -1.3125,-1.53125 -0.44268,-0.52838 -0.88935,-1.05483 -1.3125,-1.59375 -2.64079,-3.36333 -4.88464,-6.92084 -6.78125,-10.625 l -0.1875,0.125 c -13.33863,-24.92881 -9.9741,-56.057154 11.15625,-77.1875 0.16308,-0.16308 0.33574,-0.307785 0.5,-0.46875 0.65295,-0.639685 1.32896,-1.268689 2,-1.875 0.6509,-0.587956 1.3017,-1.162134 1.96875,-1.71875 0.27214,-0.227086 0.53777,-0.465624 0.8125,-0.6875 0.34347,-0.277429 0.71509,-0.511958 1.0625,-0.78125 0.62372,-0.483463 1.23908,-0.980231 1.875,-1.4375 0.73753,-0.530331 1.497,-1.03609 2.25,-1.53125 0.58223,-0.382634 1.15907,-0.763354 1.75,-1.125 0.44667,-0.27336 0.89235,-0.551116 1.34375,-0.8125 0.68145,-0.394786 1.37084,-0.757473 2.0625,-1.125 0.17606,-0.09355 0.35456,-0.18946 0.53125,-0.28125 0.94525,-0.490975 1.88143,-0.9657 2.84375,-1.40625 0.86615,-0.396875 1.71513,-0.7689 2.59375,-1.125 0.15281,-0.06193 0.31559,-0.09555 0.46875,-0.15625 0.96839,-0.384022 1.92468,-0.758909 2.90625,-1.09375 0.56026,-0.191407 1.12338,-0.355843 1.6875,-0.53125 0.58295,-0.180968 1.16328,-0.367339 1.75,-0.53125 0.88115,-0.246163 1.76759,-0.479746 2.65625,-0.6875 0.0711,-0.01664 0.14757,-0.01486 0.21875,-0.03125 0.41593,-0.09574 0.83264,-0.193899 1.25,-0.28125 0.67213,-0.140825 1.35582,-0.287161 2.03125,-0.40625 0.0823,-0.01449 0.16763,-0.01709 0.25,-0.03125 0.95107,-0.163551 1.91874,-0.316902 2.875,-0.4375 1.96365,-0.247645 3.92987,-0.401636 5.90625,-0.46875 1.0524,-0.03564 2.10292,-0.04663 3.15625,-0.03125 z" />
  <path
     style="fill:url(#Y)"
     id="path118"
     transform="matrix(0.09375,0,0,0.07936556,0.02500004,2.5931317)"
     opacity="0.5"
     filter="url(#X)"
     fill="url(#Y)"
     d="m 9,17.25 c 0,0 7.5,11 11.75,25.75 C 25,57.75 27,68.5 27,68.5 c 0,0 -5.5,12.75 -8.25,24.75 -2.75,12 -5.75,25 -5.75,25 0,0 5.75,16 9.25,30 3.5,14 3.75,22.25 3.75,22.25 0,0 -4,10.25 -7.5,24.25 -3.5,14 -5,30.75 -5,30.75 0,0 9.25,-2 28.5,1.25 19.25,3.25 32.25,6 32.25,6 0,0 12.75,-2.75 24,-6.25 11.25,-3.5 16.25,-6.5 16.25,-6.5 0,0 5.5,0.5 22.5,6.25 17,5.75 29.25,8.5 29.25,8.5 0,0 13,-2.75 26,-5.75 13,-3 26.5,-8 26.5,-8 0,0 -0.75,-5 4.25,-24.5 5,-19.5 8.75,-28 8.75,-28 0,0 -0.5,-2.5 -3.75,-17.75 C 224.75,135.5 218,121 218,121 c 0,0 1.75,-12.5 6.75,-25.75 C 229.75,82 235,68.5 235,68.5 c 0,0 -4.75,-15.25 -7.5,-29.75 C 224.75,24.25 219.25,15 219.25,15 c 0,0 -24.25,9 -31.75,10.5 -7.5,1.5 -21,5.25 -21,5.25 0,0 -9.75,-4.25 -22,-8.5 -12.25,-4.25 -29.75,-5.5 -29.75,-5.5 0,0 -3.25,3.5 -22,8 -18.75,4.5 -27.5,5.75 -27.5,5.75 0,0 -18.5,-9 -31.5,-11.5 -13,-2.5 -24,-2 -24.75,-1.75 z" />
  <path
     style="stroke-width:0.09375"
     id="path120"
     fill="#ceeeab"
     d="m 0.86875004,0.21094178 c 0,0 0.70311996,1.21874992 1.10155996,2.60155992 0.39844,1.38281 0.58594,2.39062 0.58594,2.39062 0,0 -0.51563,1.19532 -0.77344,2.32032 -0.25781,1.125 -0.53906,2.15625 -0.53906,2.15625 0,0 0.53906,1.5000003 0.86718,2.8125003 0.32813,1.3125 0.35157,2.27343 0.35157,2.27343 0,0 -0.375,0.96094 -0.70313,2.27344 -0.32812,1.3125 -0.46875,2.88281 -0.46875,2.88281 0,0 0.86719,-0.1875 2.67188,0.11719 1.80468,0.30469 3.02343,0.5625 3.02343,0.5625 0,0 1.19532,-0.25781 2.25,-0.58594 1.05469,-0.32812 1.52344,-0.60937 1.52344,-0.60937 0,0 0.51563,0.0469 2.10938,0.58594 1.59375,0.53906 2.74218,0.79687 2.74218,0.79687 0,0 1.21875,-0.25781 2.4375,-0.53906 1.21875,-0.28125 2.48438,-0.75 2.48438,-0.75 0,0 -0.0703,-0.46875 0.39844,-2.29688 0.46875,-1.82812 0.82031,-2.625 0.82031,-2.625 0,0 -0.0469,-0.42187 -0.35156,-1.85156 -0.30469,-1.42969 -0.9375,-2.7890603 -0.9375,-2.7890603 0,0 0.16406,-0.98438 0.63281,-2.22656 0.46875,-1.24219 0.96094,-2.50782 0.96094,-2.50782 0,0 -0.44532,-1.42968 -0.70313,-2.78906 C 21.09531,1.0546918 20.57968,1.784375e-6 20.57968,1.784375e-6 c 0,0 -2.27343,0.843749995625 -2.97656,0.984369995625 C 16.9,1.1250017 15.63437,1.4765617 15.63437,1.4765617 c 0,0 -0.91406,-0.3984399 -2.0625,-0.79686992 -1.14844,-0.39844 -2.78906,-0.51563 -2.78906,-0.51563 0,0 -0.30469,0.32813 -2.0625,0.75 C 6.9625,1.3359417 6.14218,1.4531217 6.14218,1.4531217 c 0,0 -1.73437,-0.84374992 -2.95312,-1.07811992 -1.21875,-0.23438 -2.24999996,-0.1875 -2.32030996,-0.16406 z" />
  <g
     id="g124"
     transform="matrix(0.09375,0,0,0.09375,0.02500004,-0.93749826)"
     clip-path="url(#y)">
    <path
       id="path122"
       fill="#a6dd8b"
       d="m 110.75,5.5 -4.25,7 c -0.75,9 -2.25,13.75 -8.5,16.5 -6.25,2.75 -12.25,3.5 -11,7.5 1.25,4 13,9.25 14.25,13 1.25,3.75 8.25,1.75 11,7 2.75,5.25 2,15.25 -3.75,17.25 -5.75,2 -17.5,0.5 -20.25,9.5 -2.75,9 -4.75,10.5 -9,12.75 -4.25,2.25 -7.25,10.5 -3.5,16.5 3.75,6 12.25,-1.25 15,-6.5 C 93.5,100.75 98,97.25 98,97.25 h 23.75 l 59,-1.75 3.25,-3.75 c 0,0 3.25,4 2.75,8.75 -0.5,4.75 -3.75,14.75 0.25,17.25 4,2.5 19.5,-2 24,-7 4.5,-5 -4.75,-28.25 -10.5,-29.5 -5.75,-1.25 -18.5,-1.75 -17,-7 1.5,-5.25 11.75,4.5 17.25,3.25 5.5,-1.25 16.75,-21 12,-25.25 C 208,48 188.5,47 187,44.25 c -1.5,-2.75 21,-8 22.25,-11 1.25,-3 -2.5,-7.25 -6.25,-8.5 C 199.25,23.5 189,41 182,40.5 175,40 162,46.25 164.75,52 c 2.75,5.75 -6,11 -14.5,6.5 -8.5,-4.5 -24.75,-13 -21.75,-24 3,-11 21.5,-18.75 21.5,-18.75 z M 97.1875,112.71875 c -1.594849,0.14648 -4.46875,4.6875 -4.9375,7.03125 -0.5,2.5 -3.25,6.75 -3.5,12.25 -0.25,5.5 4.75,6.75 8.75,6.5 4,-0.25 2.75,-6.75 2,-15 -0.25,0 -0.5,-10.25 -2,-10.75 -0.09375,-0.0312 -0.206177,-0.041 -0.3125,-0.0312 z m 92.71875,51.65625 c -6.33545,0.29541 -6.625,7.46875 -7.40625,8.875 -1.25,2.25 2.25,13.75 2,18 -0.25,4.25 -4.75,5.25 -9.5,9.75 -4.75,4.5 0.5,16 11.25,31 l 44.75,1.25 -1,-35 c 0,0 4.75,-4.25 -20.75,-24.25 -9.5625,-7.5 -15.54248,-9.80225 -19.34375,-9.625 z M 39.9375,180.90625 C 35.908264,180.80371 31.65625,186.625 30.25,188.5 c -1.5,2 -6.25,5 -17,9.5 l -14.5,34.25 53,4.25 c 0,0 1.75,-11 -4.25,-15.75 C 41.5,216 30.25,215 29.25,207.5 28.25,200 38.5,197.5 43,193.25 47.5,189 45,182 40.75,181 c -0.265625,-0.0625 -0.543884,-0.0869 -0.8125,-0.0937 z" />
  </g>
  <path
     style="stroke-width:0.09375"
     id="path126"
     fill="#aac3e7"
     d="m 14.8873,7.0634817 c -0.44623,-10e-4 -0.84668,0.0908 -1.08105,0.29589 -0.75,0.65625 -3.28125,0.0703 -4.54688,0.65625 -1.26562,0.58594 -1.24219,3.5625003 -1.38281,4.1718803 -0.14063,0.60937 -1.64063,1.94531 -1.875,2.20312 -0.23438,0.25782 -1.24219,0.67969 -1.82813,0.79688 -0.58593,0.11719 -1.19531,0.67969 -1.45312,1.03125 -0.18948,0.25838 -0.69432,0.60472 -0.94922,0.77051 -0.004,0.017 -0.007,0.0327 -0.0117,0.0498 -0.0125,0.0501 -0.0232,0.10156 -0.0352,0.15235 0.46682,-0.15046 1.04807,-0.76683 1.55859,-1.27735 0.58594,-0.58594 1.875,-0.72656 2.60156,-1.07812 0.72656,-0.35157 1.33594,-1.85157 2.48438,-2.22657 1.14843,-0.375 1.99218,1.10157 2.27343,1.73438 0.28125,0.63281 0.16407,1.19531 0.35157,1.59375 0.1875,0.39844 1.03125,1.10156 1.07812,1.26562 0.0469,0.16407 -0.46875,0.60938 -0.58594,0.79688 -0.11718,0.1875 -0.98437,0.65625 -1.10156,0.82031 -0.0905,0.12675 -0.18029,0.63498 -0.2168,0.86426 0.0387,-0.0159 0.0707,-0.0291 0.10547,-0.044 0.0454,-0.23712 0.14208,-0.66356 0.27539,-0.79687 0.1875,-0.1875 1.05469,-0.42188 1.17188,-0.79688 0.11719,-0.375 0.65625,-0.60937 0.65625,-0.60937 0,0 0.25781,0.375 1.5,1.3125 0.82812,0.625 1.19607,1.45627 1.35059,1.94238 0.0631,0.016 0.14371,0.0384 0.19042,0.0498 -0.11448,-0.40488 -0.45341,-1.5224 -0.83789,-1.94532 -0.46875,-0.51562 -1.73437,-1.00781 -2.13281,-2.0625 -0.39844,-1.05468 -2.29687,-3.21093 -1.64062,-3.77343 0.65625,-0.5625 1.54687,-0.375 2.67187,0.70312 1.125,1.07813 4.33594,0.53906 5.41406,0.35156 0.93324,-0.1623 1.95323,1.39531 2.24122,2.44043 0.0552,-0.19647 0.10562,-0.3752 0.15527,-0.53906 -0.16294,-0.18054 -0.34662,-0.43312 -0.49805,-0.77637 -0.35156,-0.79687 -1.125,-1.24218 -1.125,-1.24218 0,0 0.82031,-0.46875 1.38281,-0.72657 0.1516,-0.0695 0.28184,-0.15723 0.39258,-0.24902 -0.0152,-0.0726 -0.0243,-0.11774 -0.041,-0.19629 -0.003,-0.0137 -0.006,-0.0273 -0.009,-0.041 -0.44678,0.52147 -1.80302,0.90143 -2.03027,1.02539 -0.25781,0.14062 -1.71094,0.28125 -3.35156,0.42187 -1.64063,0.14063 -2.50782,-0.70312 -3.21094,-1.38281 -0.70313,-0.67969 -1.21875,-3.3750003 -0.28125,-3.5625003 0.9375,-0.1875 1.875,1.2890603 2.8125,1.5937503 0.9375,0.30469 2.01562,-1.4765603 1.85156,-2.5312503 -0.11279,-0.7251 -1.31223,-1.18357 -2.29394,-1.18652 z m -5.00098,1.24511 c 0.11957,1.4e-4 0.54932,0.14942 0.61524,0.22266 0.21094,0.23437 0.1875,0.67969 0,0.75 -0.1875,0.0703 -1.19531,0.7500003 -0.98438,1.3359403 0.21094,0.58593 0.16407,1.6875 -0.32812,1.6875 -0.49219,0 -0.75,0 -0.9375,-0.23438 -0.1875,-0.23437 -0.1875,-1.125 0,-1.85156 0.1875,-0.7265603 0.32812,-1.4062503 0.75,-1.7109403 0.29004,-0.20947 0.62173,-0.19953 0.88476,-0.19922 z m 1.27442,6.8525403 c 0.019,10e-4 0.17871,0.32959 0.44238,0.65918 0.28125,0.35156 0.30469,0.77344 0.30469,0.77344 0,0 -0.39844,-0.44531 -0.5625,-0.75 -0.16406,-0.30469 -0.1875,-0.67969 -0.1875,-0.67969 0,-0.003 0.002,-0.003 0.003,-0.003 z" />
  <g
     transform="matrix(0.09375,0,0,0.09375,0.02500004,1.784375e-6)"
     id="g160"
     fill="none">
    <g
       id="g152"
       stroke="#6d7f42">
      <path
         id="path128"
         stroke-linejoin="round"
         stroke-linecap="round"
         opacity="0.386957"
         d="M 122.75,62.25 C 129,62.75 135,60 133.5,55.75 132,51.5 121,48.5 120.25,52.75 c -0.75,4.25 2,10.5 2.5,9.5 z" />
      <path
         id="path130"
         stroke-linejoin="round"
         stroke-linecap="round"
         opacity="0.386957"
         d="m 108.75,46.75 c -8.5,-5.5 -8.5,-7.25 -7,-8 1.5,-0.75 10.25,5 12.75,8 2.5,3 -2.25,2 -5.75,0 z" />
      <g
         id="g150"
         transform="translate(0,-10)"
         clip-path="url(#w)">
        <path
           id="path132"
           stroke-linejoin="round"
           stroke-linecap="round"
           opacity="0.386957"
           d="M 15.75,151.25 C 48.75,148.75 54,147.75 52,141 50,134.25 43.25,117.5 29,118.5 14.75,119.5 6.25,111.75 6.25,111.75" />
        <path
           id="path134"
           opacity="0.386957"
           d="m 17.5,177.25 c 18.25,-10 28.75,-8.5 35,-11.5 6.25,-3 13.25,-5.75 15.75,-9.5 2.5,-3.75 5.75,-11.5 5.75,-18 0,-6.5 -3.5,-36 3.25,-43.5 6.75,-7.5 17.25,-26 26,-23.25 8.75,2.75 12.25,9.75 22,9.5 9.75,-0.25 21.75,-4 24.25,-12.25 2.5,-8.25 -15.75,-16 -16,-23 -0.25,-7 5.5,-14.25 20.25,-17 14.75,-2.75 23.5,-11.5 23.5,-11.5" />
        <g
           id="g148"
           stroke-linejoin="round"
           stroke-linecap="round">
          <path
             id="path136"
             opacity="0.386957"
             d="m 14.5,161 c 15.25,-1.5 22.25,3.5 31.5,1.75 9.25,-1.75 13.25,-3 17.75,-5.75 4.5,-2.75 6,-3.75 6.25,-6.5 0.25,-2.75 1,-12.5 -3,-22 C 63,119 54.5,97 58.75,89.75 63,82.5 64,68.25 74.5,65.25 85,62.25 95.5,59 102.25,64 c 6.75,5 12.75,14.25 20,14.5 7.25,0.25 11.75,-1.5 14.5,-4.5 2.75,-3 4.5,-10.25 1.75,-13.75 -2.75,-3.5 -15.5,-5.5 -17.25,-9.5 -1.75,-4 -10.75,-17 -0.25,-26.75 10.5,-9.75 36.25,-8.25 36.25,-8.25" />
          <path
             id="path138"
             opacity="0.386957"
             d="m 21.25,159 c 13.75,1 21.5,4.25 33.5,-0.5 12,-4.75 13.5,-5.25 13.75,-8.75 0.25,-3.5 -0.25,-15.75 -3,-20 C 62.75,125.5 52.5,116 49.75,105.5 47,95 50,64.5 58.25,57.25 66.5,50 90.25,50 95.75,46.75 c 5.5,-3.25 5.25,-16.75 13,-24.5 7.75,-7.75 27,-12.2500003 27,-12.2500003" />
          <path
             id="path140"
             opacity="0.386957"
             d="m 190,18.5 c 11.75,5 39,9.75 47.25,40.25" />
          <path
             id="path142"
             opacity="0.386957"
             d="m 9.75,214 c 19,-12.5 36,-1.25 49,-4 13,-2.75 38.25,-37.25 46,-37 7.75,0.25 5.5,-11.75 8.5,-13.25 3,-1.5 5.5,6 11.75,8 6.25,2 24.5,-2.75 23.5,-5.75 -1,-3 -7,-7.75 -5.5,-8.5 1.5,-0.75 8.5,5 12.75,3.5 4.25,-1.5 43.75,-1 48.5,-13.5 C 209,131 225.75,130 225.75,130" />
          <path
             id="path144"
             opacity="0.386957"
             d="m 77.5,233.5 c 13.5,-11.5 23.25,-25 28.5,-27 5.25,-2 12.75,-3.75 15.75,-8 3,-4.25 2.5,-10.75 5.25,-12 2.75,-1.25 3.75,5.75 8.75,6 5,0.25 36.75,-5 42.75,-11.75 6,-6.75 32.25,-12.5 32.5,-14.5 0.25,-2 -1,-4.75 0.25,-5.5 1.25,-0.75 24.75,-6 24.75,-6" />
          <path
             id="path146"
             opacity="0.386957"
             d="m 168.75,236 c 9,-13.75 20.5,-41 29.5,-42 9,-1 10.25,-2.5 12.5,-4.25 2.25,-1.75 17,2.25 17,2.25" />
        </g>
      </g>
    </g>
    <g
       id="g158"
       transform="translate(0,-10)"
       stroke-width="2"
       stroke-linecap="round"
       stroke="#d38484"
       clip-path="url(#x)">
      <path
         id="path154"
         d="m 57.75,20 -8.5,28.25 18,6.25 L 75,90.75 54,113 l 9,10.5 -12,11.5 0.5,4.5 20.25,24.5 14,-6.75 20.5,18.5 -10.5,28.25 10.25,8.5 -2.75,13" />
      <path
         id="path156"
         d="m 105.75,212.25 12.5,-27.75 11,-7 27.5,15.75 20.5,-3.75 -0.25,-15.75 -10.25,-6 12.75,-26.25 5.75,-3.75 38.75,-10" />
    </g>
  </g>
  <path
     d="m 0.86875004,0.21094178 c 0,0 0.70311996,1.21874992 1.10155996,2.60155992 0.39844,1.38281 0.58594,2.39062 0.58594,2.39062 0,0 -0.51563,1.19532 -0.77344,2.32032 -0.25781,1.125 -0.53906,2.15625 -0.53906,2.15625 0,0 0.53906,1.5000003 0.86718,2.8125003 0.32813,1.3125 0.35157,2.27343 0.35157,2.27343 0,0 -0.375,0.96094 -0.70313,2.27344 -0.32812,1.3125 -0.46875,2.88281 -0.46875,2.88281 0,0 0.86719,-0.1875 2.67188,0.11719 1.80468,0.30469 3.02343,0.5625 3.02343,0.5625 0,0 1.19532,-0.25781 2.25,-0.58594 1.05469,-0.32812 1.52344,-0.60937 1.52344,-0.60937 0,0 0.51563,0.0469 2.10938,0.58594 1.59375,0.53906 2.74218,0.79687 2.74218,0.79687 0,0 1.21875,-0.25781 2.4375,-0.53906 1.21875,-0.28125 2.48438,-0.75 2.48438,-0.75 0,0 -0.0703,-0.46875 0.39844,-2.29688 0.46875,-1.82812 0.82031,-2.625 0.82031,-2.625 0,0 -0.0469,-0.42187 -0.35156,-1.85156 -0.30469,-1.42969 -0.9375,-2.7890603 -0.9375,-2.7890603 0,0 0.16406,-0.98438 0.63281,-2.22656 0.46875,-1.24219 0.96094,-2.50782 0.96094,-2.50782 0,0 -0.44532,-1.42968 -0.70313,-2.78906 C 21.09531,1.0546918 20.57968,1.784375e-6 20.57968,1.784375e-6 c 0,0 -2.27343,0.843749995625 -2.97656,0.984369995625 C 16.9,1.1250017 15.63437,1.4765617 15.63437,1.4765617 c 0,0 -0.91406,-0.3984399 -2.0625,-0.79686992 -1.14844,-0.39844 -2.78906,-0.51563 -2.78906,-0.51563 0,0 -0.30469,0.32813 -2.0625,0.75 C 6.9625,1.3359417 6.14218,1.4531217 6.14218,1.4531217 c 0,0 -1.73437,-0.84374992 -2.95312,-1.07811992 -1.21875,-0.23438 -2.24999996,-0.1875 -2.32030996,-0.16406 z"
     id="path182"
     style="opacity:0.03913;fill:url(#v);stroke-width:0.09375"
     inkscape:connector-curvature="0" />
  <g
     opacity="0.269566"
     id="g202"
     transform="matrix(0.09375,0,0,0.09375,0.02500004,17.062502)">
    <path
       style="fill:url(#n)"
       fill="url(#n)"
       id="path186"
       d="m 219.25,-182 c 0,0 -24.25,9 -31.75,10.5 -7.5,1.5 -21,5.25 -21,5.25 4.92395,-1.35833 11.43679,45.39247 14.25,52.25 l -0.0625,0.28125 c 11.80794,-4.07379 51.21047,-4.76768 54.3125,-12.78125 0,0 -4.75,-15.25 -7.5,-29.75 -2.75,-14.5 -8.25,-25.75 -8.25,-25.75 z" />
    <path
       style="fill:url(#o)"
       fill="url(#o)"
       id="path188"
       d="m 27,-126.5 c 0,0 -5.5,12.75 -8.25,24.75 -2.75,12 -5.75,23 -5.75,23 l 50.625,16.28125 15.78125,-58.90625 z" />
    <path
       style="fill:url(#p)"
       fill="url(#p)"
       id="path190"
       d="m 26,-24.5 c 0,0 -4,10.25 -7.5,24.25 -3.5,14 -5,30.75 -5,30.75 0,0 0.146973,-0.0454 0.4375,-0.0937 2.033691,-0.33838 11.21875,-1.5 28.0625,1.34375 19.25,3.25 32.25,6 32.25,6 l 1.46875,-52.5 -0.75,0.125 z" />
    <path
       style="fill:url(#q)"
       fill="url(#q)"
       id="path192"
       d="m 114.75,-180.25 c 0,0 -3.25,3.5 -22,8 -18.749997,4.5 -27.5,5.75 -27.5,5.75 5.182295,14.70354 12.029793,29.27003 14.25,44.75 l -0.09375,0.3125 48.03125,-3.9375 1.125,0.25 c -3.36248,-13.3228 -7.79603,-54.59189 -13.8125,-55.125 z" />
    <path
       style="fill:url(#r)"
       fill="url(#r)"
       id="path194"
       d="M 117.59375,-78.09375 63.96875,-62.375 63.625,-62.46875 63.5,-62 l 12.25,46.5 -0.03125,0.75 49.46875,-8.875 0.53125,0.1875 0.0312,-0.0625 -8.25,-54.25 0.0937,-0.34375 z" />
    <path
       style="fill:url(#s)"
       fill="url(#s)"
       id="path196"
       d="m 128.5625,-125.125 c 0.2342,0.92795 0.46352,1.74163 0.6875,2.375 l -11.65625,44.65625 0.0937,-0.0312 51.8125,17.375 11.1875,-52.96875 c -0.35691,0.12314 -0.69529,0.24538 -1,0.375 l -51.125,-11.78125 z" />
    <path
       style="fill:url(#t)"
       fill="url(#t)"
       id="path198"
       d="M 125.53125,-23.5 114.5,25 c 0,0 5.5,0.5 22.5,6.25 2.125,0.71875 4.16309,1.40576 6.125,2.03125 1.96191,0.62549 3.85547,1.18555 5.625,1.71875 10.61719,3.19922 17.5,4.75 17.5,4.75 l 12.71875,-45.40625 c -0.51226,0.18264 -1.01849,0.381 -1.53125,0.5625 z" />
    <path
       style="fill:url(#u)"
       fill="url(#u)"
       id="path200"
       d="m 218,-76 c -15.66556,6.28803 -31.69786,11.14964 -48.0625,15.40625 L 169.5,-60.75 l 9.5,55 -0.0312,0.0937 c 17.83902,-6.36013 35.38148,-13.3867 52.78125,-20.84375 0,0 -0.5,-4.5 -3.75,-19.75 C 224.75,-61.5 218,-76 218,-76 Z" />
  </g>
  <g
     id="g220"
     transform="matrix(0.09375,0,0,0.09375,0.02500004,17.062502)"
     opacity="0.043478">
    <path
       style="fill:url(#f)"
       id="path204"
       fill="url(#f)"
       d="m 13.71875,-179.96875 c -1.10624,-0.003 -1.972215,0.0321 -2.71875,0.0625 -0.44524,0.0181 -0.855414,0.039 -1.15625,0.0625 -0.02929,0.002 -0.06595,-0.002 -0.09375,0 -0.397949,0.0327 -0.65625,0.0625 -0.75,0.0937 0,0 7.5,13 11.75,27.75 C 25,-137.25 27,-126.5 27,-126.5 l 51.46875,5.125 0.9375,-0.0625 L 79.5,-121.75 c -2.220207,-15.47997 -9.067705,-30.04646 -14.25,-44.75 0,0 -18.5,-9 -31.5,-11.5 -1.018266,-0.19582 -2.01024,-0.37068 -3,-0.53125 -0.595613,-0.0967 -1.166881,-0.19638 -1.75,-0.28125 -0.236584,-0.0344 -0.453191,-0.0612 -0.6875,-0.0937 -1.306478,-0.18185 -2.588005,-0.34039 -3.8125,-0.46875 -0.734553,-0.077 -1.394596,-0.12759 -2.09375,-0.1875 -0.684889,-0.0591 -1.352939,-0.11189 -2,-0.15625 -0.991872,-0.0678 -1.890406,-0.11834 -2.78125,-0.15625 -1.456368,-0.0631 -2.769165,-0.0907 -3.90625,-0.0937 z" />
    <path
       style="fill:url(#g)"
       id="path206"
       fill="url(#g)"
       d="m 13,-78.75 c 0,0 5.75,16 9.25,30 3.5,14 3.75,24.25 3.75,24.25 l 48.96875,9.875 0.75,-0.125 L 75.75,-15.5 63.5,-62 l 0.125,-0.46875 z" />
    <path
       style="fill:url(#h)"
       id="path208"
       fill="url(#h)"
       d="m 127.4375,-125.375 -47.96875,4 h -0.0625 L 63.625,-62.46875 63.96875,-62.375 117.59375,-78.09375 129.25,-122.75 c -0.22398,-0.63337 -0.4533,-1.44705 -0.6875,-2.375 z" />
    <path
       style="fill:url(#i)"
       id="path210"
       fill="url(#i)"
       d="M 125.1875,-23.625 75.71875,-14.75 74.25,37.75 c 0,0 12.750003,-2.75 24,-6.25 C 109.5,28 114.5,25 114.5,25 l 11.21875,-48.4375 z" />
    <path
       style="fill:url(#j)"
       id="path212"
       fill="url(#j)"
       d="m 114.75,-180.25 c 6.01647,0.53311 10.45002,41.8022 13.8125,55.125 l 51.125,11.78125 c 0.30471,-0.12962 0.64309,-0.25186 1,-0.375 L 180.75,-114 c -2.81321,-6.85753 -9.32605,-53.60833 -14.25,-52.25 0,0 -0.61328,-0.25391 -1.71875,-0.71875 -3.31641,-1.39453 -11.09375,-4.59375 -20.28125,-7.78125 -12.25,-4.25 -29.75,-5.5 -29.75,-5.5 z" />
    <path
       style="fill:url(#k)"
       id="path214"
       fill="url(#k)"
       d="m 117.6875,-78.125 -0.0937,0.0312 -0.0937,0.34375 8.25,53.25 -0.21875,1 51.90625,18.40625 c 0.51276,-0.1815 1.01899,-0.37986 1.53125,-0.5625 L 179,-5.75 l -9.5,-55 z" />
    <path
       style="fill:url(#l)"
       id="path216"
       fill="url(#l)"
       d="m 231.75,-26.5 c -17.39977,7.45705 -34.94223,14.48362 -52.78125,20.84375 L 166.25,39.75 c 0,0 13,-2.75 26,-5.75 13,-3 26.5,-8 26.5,-8 0,0 -0.75,-5 4.25,-24.5 5,-19.5 8.75,-28 8.75,-28 z" />
    <path
       style="fill:url(#m)"
       id="path218"
       fill="url(#m)"
       d="m 235,-126.5 c -3.10203,8.01357 -42.50456,8.70746 -54.3125,12.78125 L 169.5,-60.75 l 0.4375,0.15625 C 186.30214,-64.85036 202.33444,-69.71197 218,-76 c 0,0 1.75,-10.5 6.75,-23.75 5,-13.25 10.25,-26.75 10.25,-26.75 z" />
  </g>
  <g
     id="g302"
     transform="matrix(0.11742531,0.00331858,0,0.11742531,-2.58214,-4.5322483)"
     clip-path="url(#V)">
    <path
       id="path222"
       fill="#ceeeab"
       d="m 9,12.25 c 0,0 7.5,13 11.75,27.75 C 25,54.75 27,65.5 27,65.5 c 0,0 -5.5,12.75 -8.25,24.75 -2.75,12 -5.75,23 -5.75,23 0,0 5.75,16 9.25,30 3.5,14 3.75,24.25 3.75,24.25 0,0 -4,10.25 -7.5,24.25 -3.5,14 -5,30.75 -5,30.75 0,0 9.25,-2 28.5,1.25 19.25,3.25 32.25,6 32.25,6 0,0 12.75,-2.75 24,-6.25 11.25,-3.5 16.25,-6.5 16.25,-6.5 0,0 5.5,0.5 22.5,6.25 17,5.75 29.25,8.5 29.25,8.5 0,0 13,-2.75 26,-5.75 13,-3 26.5,-8 26.5,-8 0,0 -0.75,-5 4.25,-24.5 5,-19.5 8.75,-28 8.75,-28 0,0 -0.5,-4.5 -3.75,-19.75 C 224.75,130.5 218,116 218,116 c 0,0 1.75,-10.5 6.75,-23.75 C 229.75,79 235,65.5 235,65.5 c 0,0 -4.75,-15.25 -7.5,-29.75 C 224.75,21.25 219.25,10 219.25,10 c 0,0 -24.25,9 -31.75,10.5 -7.5,1.5 -21,5.25 -21,5.25 0,0 -9.75,-4.25 -22,-8.5 -12.25,-4.25 -29.75,-5.5 -29.75,-5.5 0,0 -3.25,3.5 -22,8 -18.75,4.5 -27.5,5.75 -27.5,5.75 0,0 -18.5,-9 -31.5,-11.5 -13,-2.5 -24,-2 -24.75,-1.75 z" />
    <g
       id="g226"
       clip-path="url(#R)">
      <path
         id="path224"
         fill="#a6dd8b"
         d="m 110.75,5.5 -4.25,7 c -0.75,9 -2.25,13.75 -8.5,16.5 -6.25,2.75 -12.25,3.5 -11,7.5 1.25,4 13,9.25 14.25,13 1.25,3.75 8.25,1.75 11,7 2.75,5.25 2,15.25 -3.75,17.25 -5.75,2 -17.5,0.5 -20.25,9.5 -2.75,9 -4.75,10.5 -9,12.75 -4.25,2.25 -7.25,10.5 -3.5,16.5 3.75,6 12.25,-1.25 15,-6.5 C 93.5,100.75 98,97.25 98,97.25 h 23.75 l 59,-1.75 3.25,-3.75 c 0,0 3.25,4 2.75,8.75 -0.5,4.75 -3.75,14.75 0.25,17.25 4,2.5 19.5,-2 24,-7 4.5,-5 -4.75,-28.25 -10.5,-29.5 -5.75,-1.25 -18.5,-1.75 -17,-7 1.5,-5.25 11.75,4.5 17.25,3.25 5.5,-1.25 16.75,-21 12,-25.25 C 208,48 188.5,47 187,44.25 c -1.5,-2.75 21,-8 22.25,-11 1.25,-3 -2.5,-7.25 -6.25,-8.5 C 199.25,23.5 189,41 182,40.5 175,40 162,46.25 164.75,52 c 2.75,5.75 -6,11 -14.5,6.5 -8.5,-4.5 -24.75,-13 -21.75,-24 3,-11 21.5,-18.75 21.5,-18.75 z M 97.1875,112.71875 c -1.594849,0.14648 -4.46875,4.6875 -4.9375,7.03125 -0.5,2.5 -3.25,6.75 -3.5,12.25 -0.25,5.5 4.75,6.75 8.75,6.5 4,-0.25 2.75,-6.75 2,-15 -0.25,0 -0.5,-10.25 -2,-10.75 -0.09375,-0.0312 -0.206177,-0.041 -0.3125,-0.0312 z m 92.71875,51.65625 c -6.33545,0.29541 -6.625,7.46875 -7.40625,8.875 -1.25,2.25 2.25,13.75 2,18 -0.25,4.25 -4.75,5.25 -9.5,9.75 -4.75,4.5 0.5,16 11.25,31 l 44.75,1.25 -1,-35 c 0,0 4.75,-4.25 -20.75,-24.25 -9.5625,-7.5 -15.54248,-9.80225 -19.34375,-9.625 z M 39.9375,180.90625 C 35.908264,180.80371 31.65625,186.625 30.25,188.5 c -1.5,2 -6.25,5 -17,9.5 l -14.5,34.25 53,4.25 c 0,0 1.75,-11 -4.25,-15.75 C 41.5,216 30.25,215 29.25,207.5 28.25,200 38.5,197.5 43,193.25 47.5,189 45,182 40.75,181 c -0.265625,-0.0625 -0.543884,-0.0869 -0.8125,-0.0937 z" />
    </g>
    <path
       id="path228"
       fill="#aac3e7"
       d="M 158.53125,85.34375 C 153.77142,85.329407 149.5,86.3125 147,88.5 c -8,7 -35,0.75 -48.5,7 -13.5,6.25 -13.25,38 -14.75,44.5 -1.5,6.5 -17.5,20.75 -20,23.5 -2.5,2.75 -13.25,7.25 -19.5,8.5 -6.25,1.25 -12.75,7.25 -15.5,11 -2.021124,2.75608 -7.406019,6.45031 -10.125,8.21875 -0.0458,0.18128 -0.07936,0.34868 -0.125,0.53125 -0.133689,0.53475 -0.24712,1.08331 -0.375,1.625 4.979513,-1.60482 11.179508,-8.17951 16.625,-13.625 6.25,-6.25 20,-7.75 27.75,-11.5 7.75,-3.75 14.25,-19.75 26.5,-23.75 12.25,-4 21.25,11.75 24.25,18.5 3,6.75 1.75,12.75 3.75,17 2,4.25 11,11.75 11.5,13.5 0.5,1.75 -5,6.5 -6.25,8.5 -1.25,2 -10.5,7 -11.75,8.75 -0.96568,1.35195 -1.92316,6.77314 -2.3125,9.21875 0.41303,-0.1692 0.75418,-0.31053 1.125,-0.46875 0.484,-2.52933 1.51549,-7.07799 2.9375,-8.5 2,-2 11.25,-4.5 12.5,-8.5 1.25,-4 7,-6.5 7,-6.5 0,0 2.75,4 16,14 8.83333,6.66667 12.7581,15.53356 14.40625,20.71875 0.6736,0.17065 1.53295,0.4094 2.03125,0.53125 -1.22115,-4.31871 -4.83646,-16.23885 -8.9375,-20.75 -5,-5.5 -18.5,-10.75 -22.75,-22 -4.25,-11.25 -24.5,-34.25 -17.5,-40.25 7,-6 16.5,-4 28.5,7.5 12,11.5 46.25,5.75 57.75,3.75 9.95453,-1.73122 20.83445,14.88321 23.90625,26.03125 0.589,-2.09567 1.12663,-4.00219 1.65625,-5.75 -1.73806,-1.9258 -3.69722,-4.61996 -5.3125,-8.28125 -3.75,-8.5 -12,-13.25 -12,-13.25 0,0 8.75,-5 14.75,-7.75 1.61703,-0.74114 3.00627,-1.67713 4.1875,-2.65625 -0.16234,-0.77403 -0.25893,-1.25585 -0.4375,-2.09375 -0.0311,-0.14611 -0.062,-0.29154 -0.0937,-0.4375 -4.76565,5.5624 -19.23226,9.61532 -21.65625,10.9375 -2.75,1.5 -18.25,3 -35.75,4.5 -17.5,1.5 -26.75,-7.5 -34.25,-14.75 -7.5,-7.25 -13,-36 -3,-38 10,-2 20,13.75 30,17 10,3.25 21.5,-15.75 19.75,-27 C 181.79693,90.265625 169.00292,85.375305 158.5313,85.34375 Z M 105.1875,98.625 c 1.27533,0.0015 5.85938,1.59375 6.5625,2.375 2.25,2.5 2,7.25 0,8 -2,0.75 -12.75,8 -10.5,14.25 2.25,6.25 1.75,18 -3.5,18 -5.25,0 -8,0 -10,-2.5 -2,-2.5 -2,-12 0,-19.75 2,-7.75 3.5,-15 8,-18.25 3.09375,-2.23438 6.63177,-2.128357 9.4375,-2.125 z m 13.59375,73.09375 c 0.20325,0.0137 1.90625,3.51563 4.71875,7.03125 3,3.75 3.25,8.25 3.25,8.25 0,0 -4.25,-4.75 -6,-8 -1.75,-3.25 -2,-7.25 -2,-7.25 0,-0.0312 0.0178,-0.0323 0.0312,-0.0312 z" />
    <g
       id="g262"
       fill="none">
      <g
         id="g254"
         stroke="#6d7f42">
        <path
           id="path230"
           stroke-linejoin="round"
           stroke-linecap="round"
           opacity="0.386957"
           d="M 122.75,72.25 C 129,72.75 135,70 133.5,65.75 132,61.5 121,58.5 120.25,62.75 c -0.75,4.25 2,10.5 2.5,9.5 z" />
        <path
           id="path232"
           stroke-linejoin="round"
           stroke-linecap="round"
           opacity="0.386957"
           d="m 108.75,56.75 c -8.5,-5.5 -8.5,-7.25 -7,-8 1.5,-0.75 10.25,5 12.75,8 2.5,3 -2.25,2 -5.75,0 z" />
        <g
           id="g252"
           clip-path="url(#S)">
          <path
             id="path234"
             stroke-linejoin="round"
             stroke-linecap="round"
             opacity="0.386957"
             d="M 15.75,151.25 C 48.75,148.75 54,147.75 52,141 50,134.25 43.25,117.5 29,118.5 14.75,119.5 6.25,111.75 6.25,111.75" />
          <path
             id="path236"
             opacity="0.386957"
             d="m 17.5,177.25 c 18.25,-10 28.75,-8.5 35,-11.5 6.25,-3 13.25,-5.75 15.75,-9.5 2.5,-3.75 5.75,-11.5 5.75,-18 0,-6.5 -3.5,-36 3.25,-43.5 6.75,-7.5 17.25,-26 26,-23.25 8.75,2.75 12.25,9.75 22,9.5 9.75,-0.25 21.75,-4 24.25,-12.25 2.5,-8.25 -15.75,-16 -16,-23 -0.25,-7 5.5,-14.25 20.25,-17 14.75,-2.75 23.5,-11.5 23.5,-11.5" />
          <g
             id="g250"
             stroke-linejoin="round"
             stroke-linecap="round">
            <path
               id="path238"
               opacity="0.386957"
               d="m 14.5,161 c 15.25,-1.5 22.25,3.5 31.5,1.75 9.25,-1.75 13.25,-3 17.75,-5.75 4.5,-2.75 6,-3.75 6.25,-6.5 0.25,-2.75 1,-12.5 -3,-22 C 63,119 54.5,97 58.75,89.75 63,82.5 64,68.25 74.5,65.25 85,62.25 95.5,59 102.25,64 c 6.75,5 12.75,14.25 20,14.5 7.25,0.25 11.75,-1.5 14.5,-4.5 2.75,-3 4.5,-10.25 1.75,-13.75 -2.75,-3.5 -15.5,-5.5 -17.25,-9.5 -1.75,-4 -10.75,-17 -0.25,-26.75 10.5,-9.75 36.25,-8.25 36.25,-8.25" />
            <path
               id="path240"
               opacity="0.386957"
               d="m 21.25,159 c 13.75,1 21.5,4.25 33.5,-0.5 12,-4.75 13.5,-5.25 13.75,-8.75 0.25,-3.5 -0.25,-15.75 -3,-20 C 62.75,125.5 52.5,116 49.75,105.5 47,95 50,64.5 58.25,57.25 66.5,50 90.25,50 95.75,46.75 c 5.5,-3.25 5.25,-16.75 13,-24.5 7.75,-7.75 27,-12.2500003 27,-12.2500003" />
            <path
               id="path242"
               opacity="0.386957"
               d="m 190,18.5 c 11.75,5 39,9.75 47.25,40.25" />
            <path
               id="path244"
               opacity="0.386957"
               d="m 9.75,214 c 19,-12.5 36,-1.25 49,-4 13,-2.75 38.25,-37.25 46,-37 7.75,0.25 5.5,-11.75 8.5,-13.25 3,-1.5 5.5,6 11.75,8 6.25,2 24.5,-2.75 23.5,-5.75 -1,-3 -7,-7.75 -5.5,-8.5 1.5,-0.75 8.5,5 12.75,3.5 4.25,-1.5 43.75,-1 48.5,-13.5 C 209,131 225.75,130 225.75,130" />
            <path
               id="path246"
               opacity="0.386957"
               d="m 77.5,233.5 c 13.5,-11.5 23.25,-25 28.5,-27 5.25,-2 12.75,-3.75 15.75,-8 3,-4.25 2.5,-10.75 5.25,-12 2.75,-1.25 3.75,5.75 8.75,6 5,0.25 36.75,-5 42.75,-11.75 6,-6.75 32.25,-12.5 32.5,-14.5 0.25,-2 -1,-4.75 0.25,-5.5 1.25,-0.75 24.75,-6 24.75,-6" />
            <path
               id="path248"
               opacity="0.386957"
               d="m 168.75,236 c 9,-13.75 20.5,-41 29.5,-42 9,-1 10.25,-2.5 12.5,-4.25 2.25,-1.75 17,2.25 17,2.25" />
          </g>
        </g>
      </g>
      <g
         id="g260"
         stroke-width="2"
         stroke-linecap="round"
         stroke="#d38484"
         clip-path="url(#T)">
        <path
           id="path256"
           d="m 57.75,20 -8.5,28.25 18,6.25 L 75,90.75 54,113 l 9,10.5 -12,11.5 0.5,4.5 20.25,24.5 14,-6.75 20.5,18.5 -10.5,28.25 10.25,8.5 -2.75,13" />
        <path
           id="path258"
           d="m 105.75,212.25 12.5,-27.75 11,-7 27.5,15.75 20.5,-3.75 -0.25,-15.75 -10.25,-6 12.75,-26.25 5.75,-3.75 38.75,-10" />
      </g>
    </g>
    <path
       style="fill:url(#U)"
       id="path264"
       opacity="0.03913"
       fill="url(#U)"
       d="m 9,12.25 c 0,0 7.5,13 11.75,27.75 C 25,54.75 27,65.5 27,65.5 c 0,0 -5.5,12.75 -8.25,24.75 -2.75,12 -5.75,23 -5.75,23 0,0 5.75,16 9.25,30 3.5,14 3.75,24.25 3.75,24.25 0,0 -4,10.25 -7.5,24.25 -3.5,14 -5,30.75 -5,30.75 0,0 9.25,-2 28.5,1.25 19.25,3.25 32.25,6 32.25,6 0,0 12.75,-2.75 24,-6.25 11.25,-3.5 16.25,-6.5 16.25,-6.5 0,0 5.5,0.5 22.5,6.25 17,5.75 29.25,8.5 29.25,8.5 0,0 13,-2.75 26,-5.75 13,-3 26.5,-8 26.5,-8 0,0 -0.75,-5 4.25,-24.5 5,-19.5 8.75,-28 8.75,-28 0,0 -0.5,-4.5 -3.75,-19.75 C 224.75,130.5 218,116 218,116 c 0,0 1.75,-10.5 6.75,-23.75 C 229.75,79 235,65.5 235,65.5 c 0,0 -4.75,-15.25 -7.5,-29.75 C 224.75,21.25 219.25,10 219.25,10 c 0,0 -24.25,9 -31.75,10.5 -7.5,1.5 -21,5.25 -21,5.25 0,0 -9.75,-4.25 -22,-8.5 -12.25,-4.25 -29.75,-5.5 -29.75,-5.5 0,0 -3.25,3.5 -22,8 -18.75,4.5 -27.5,5.75 -27.5,5.75 0,0 -18.5,-9 -31.5,-11.5 -13,-2.5 -24,-2 -24.75,-1.75 z" />
    <g
       id="g282"
       transform="translate(0,192)"
       opacity="0.269566">
      <path
         style="fill:url(#linearGradient1020)"
         id="path266"
         fill="url(#n)"
         d="m 219.25,-182 c 0,0 -24.25,9 -31.75,10.5 -7.5,1.5 -21,5.25 -21,5.25 4.92395,-1.35833 11.43679,45.39247 14.25,52.25 l -0.0625,0.28125 c 11.80794,-4.07379 51.21047,-4.76768 54.3125,-12.78125 0,0 -4.75,-15.25 -7.5,-29.75 -2.75,-14.5 -8.25,-25.75 -8.25,-25.75 z" />
      <path
         style="fill:url(#linearGradient1022)"
         id="path268"
         fill="url(#o)"
         d="m 27,-126.5 c 0,0 -5.5,12.75 -8.25,24.75 -2.75,12 -5.75,23 -5.75,23 l 50.625,16.28125 15.78125,-58.90625 z" />
      <path
         style="fill:url(#linearGradient1024)"
         id="path270"
         fill="url(#p)"
         d="m 26,-24.5 c 0,0 -4,10.25 -7.5,24.25 -3.5,14 -5,30.75 -5,30.75 0,0 0.146973,-0.0454 0.4375,-0.0937 2.033691,-0.33838 11.21875,-1.5 28.0625,1.34375 19.25,3.25 32.25,6 32.25,6 l 1.46875,-52.5 -0.75,0.125 z" />
      <path
         style="fill:url(#linearGradient1026)"
         id="path272"
         fill="url(#q)"
         d="m 114.75,-180.25 c 0,0 -3.25,3.5 -22,8 -18.749997,4.5 -27.5,5.75 -27.5,5.75 5.182295,14.70354 12.029793,29.27003 14.25,44.75 l -0.09375,0.3125 48.03125,-3.9375 1.125,0.25 c -3.36248,-13.3228 -7.79603,-54.59189 -13.8125,-55.125 z" />
      <path
         style="fill:url(#linearGradient1028)"
         id="path274"
         fill="url(#r)"
         d="M 117.59375,-78.09375 63.96875,-62.375 63.625,-62.46875 63.5,-62 l 12.25,46.5 -0.03125,0.75 49.46875,-8.875 0.53125,0.1875 0.0312,-0.0625 -8.25,-54.25 0.0937,-0.34375 z" />
      <path
         style="fill:url(#linearGradient1030)"
         id="path276"
         fill="url(#s)"
         d="m 128.5625,-125.125 c 0.2342,0.92795 0.46352,1.74163 0.6875,2.375 l -11.65625,44.65625 0.0937,-0.0312 51.8125,17.375 11.1875,-52.96875 c -0.35691,0.12314 -0.69529,0.24538 -1,0.375 l -51.125,-11.78125 z" />
      <path
         style="fill:url(#linearGradient1032)"
         id="path278"
         fill="url(#t)"
         d="M 125.53125,-23.5 114.5,25 c 0,0 5.5,0.5 22.5,6.25 2.125,0.71875 4.16309,1.40576 6.125,2.03125 1.96191,0.62549 3.85547,1.18555 5.625,1.71875 10.61719,3.19922 17.5,4.75 17.5,4.75 l 12.71875,-45.40625 c -0.51226,0.18264 -1.01849,0.381 -1.53125,0.5625 z" />
      <path
         style="fill:url(#linearGradient1034)"
         id="path280"
         fill="url(#u)"
         d="m 218,-76 c -15.66556,6.28803 -31.69786,11.14964 -48.0625,15.40625 L 169.5,-60.75 l 9.5,55 -0.0312,0.0937 c 17.83902,-6.36013 35.38148,-13.3867 52.78125,-20.84375 0,0 -0.5,-4.5 -3.75,-19.75 C 224.75,-61.5 218,-76 218,-76 Z" />
    </g>
    <g
       id="g300"
       transform="translate(0,192)"
       opacity="0.043478">
      <path
         style="fill:url(#linearGradient1036)"
         id="path284"
         fill="url(#f)"
         d="m 13.71875,-179.96875 c -1.10624,-0.003 -1.972215,0.0321 -2.71875,0.0625 -0.44524,0.0181 -0.855414,0.039 -1.15625,0.0625 -0.02929,0.002 -0.06595,-0.002 -0.09375,0 -0.397949,0.0327 -0.65625,0.0625 -0.75,0.0937 0,0 7.5,13 11.75,27.75 C 25,-137.25 27,-126.5 27,-126.5 l 51.46875,5.125 0.9375,-0.0625 L 79.5,-121.75 c -2.220207,-15.47997 -9.067705,-30.04646 -14.25,-44.75 0,0 -18.5,-9 -31.5,-11.5 -1.018266,-0.19582 -2.01024,-0.37068 -3,-0.53125 -0.595613,-0.0967 -1.166881,-0.19638 -1.75,-0.28125 -0.236584,-0.0344 -0.453191,-0.0612 -0.6875,-0.0937 -1.306478,-0.18185 -2.588005,-0.34039 -3.8125,-0.46875 -0.734553,-0.077 -1.394596,-0.12759 -2.09375,-0.1875 -0.684889,-0.0591 -1.352939,-0.11189 -2,-0.15625 -0.991872,-0.0678 -1.890406,-0.11834 -2.78125,-0.15625 -1.456368,-0.0631 -2.769165,-0.0907 -3.90625,-0.0937 z" />
      <path
         style="fill:url(#linearGradient1038)"
         id="path286"
         fill="url(#g)"
         d="m 13,-78.75 c 0,0 5.75,16 9.25,30 3.5,14 3.75,24.25 3.75,24.25 l 48.96875,9.875 0.75,-0.125 L 75.75,-15.5 63.5,-62 l 0.125,-0.46875 z" />
      <path
         style="fill:url(#linearGradient1040)"
         id="path288"
         fill="url(#h)"
         d="m 127.4375,-125.375 -47.96875,4 h -0.0625 L 63.625,-62.46875 63.96875,-62.375 117.59375,-78.09375 129.25,-122.75 c -0.22398,-0.63337 -0.4533,-1.44705 -0.6875,-2.375 z" />
      <path
         style="fill:url(#linearGradient1042)"
         id="path290"
         fill="url(#i)"
         d="M 125.1875,-23.625 75.71875,-14.75 74.25,37.75 c 0,0 12.750003,-2.75 24,-6.25 C 109.5,28 114.5,25 114.5,25 l 11.21875,-48.4375 z" />
      <path
         style="fill:url(#linearGradient1044)"
         id="path292"
         fill="url(#j)"
         d="m 114.75,-180.25 c 6.01647,0.53311 10.45002,41.8022 13.8125,55.125 l 51.125,11.78125 c 0.30471,-0.12962 0.64309,-0.25186 1,-0.375 L 180.75,-114 c -2.81321,-6.85753 -9.32605,-53.60833 -14.25,-52.25 0,0 -0.61328,-0.25391 -1.71875,-0.71875 -3.31641,-1.39453 -11.09375,-4.59375 -20.28125,-7.78125 -12.25,-4.25 -29.75,-5.5 -29.75,-5.5 z" />
      <path
         style="fill:url(#linearGradient1046)"
         id="path294"
         fill="url(#k)"
         d="m 117.6875,-78.125 -0.0937,0.0312 -0.0937,0.34375 8.25,53.25 -0.21875,1 51.90625,18.40625 c 0.51276,-0.1815 1.01899,-0.37986 1.53125,-0.5625 L 179,-5.75 l -9.5,-55 z" />
      <path
         style="fill:url(#linearGradient1048)"
         id="path296"
         fill="url(#l)"
         d="m 231.75,-26.5 c -17.39977,7.45705 -34.94223,14.48362 -52.78125,20.84375 L 166.25,39.75 c 0,0 13,-2.75 26,-5.75 13,-3 26.5,-8 26.5,-8 0,0 -0.75,-5 4.25,-24.5 5,-19.5 8.75,-28 8.75,-28 z" />
      <path
         style="fill:url(#linearGradient1050)"
         id="path298"
         fill="url(#m)"
         d="m 235,-126.5 c -3.10203,8.01357 -42.50456,8.70746 -54.3125,12.78125 L 169.5,-60.75 l 0.4375,0.15625 C 186.30214,-64.85036 202.33444,-69.71197 218,-76 c 0,0 1.75,-10.5 6.75,-23.75 5,-13.25 10.25,-26.75 10.25,-26.75 z" />
    </g>
  </g>
  <path
     id="path304"
     transform="matrix(0.09375,0.00758228,0,0.09375,0.02500004,-1.9740283)"
     filter="url(#Q)"
     fill="#2d3335"
     d="m 174.28125,35.875 c -17.59875,0 -35.19216,6.639475 -48.71875,19.90625 -0.16722,0.163278 -0.33437,0.303117 -0.5,0.46875 -22.05595,22.055948 -26.208705,55.25122 -12.46875,81.5 l -2.28125,1.625 c 2.24879,4.23988 4.94165,8.3068 8.09375,12.125 l -13.3125,13.34375 c -1.34137,-0.58575 -2.78858,-1.03331 -4.5625,-1.375 l -2.84375,2.84375 c -1.109469,-0.48387 -2.138019,-0.81588 -3.0625,-0.875 L 30.5,229.5625 c -0.03687,1.10087 0.22615,2.18738 0.65625,3.28125 l -0.53125,0.53125 -1.09375,1.09375 c 0.715438,3.7378 2.010432,6.82294 5.46875,10.28125 3.458318,3.45832 6.420414,4.63027 10.28125,5.46875 l 1.09375,-1.09375 0.71875,-0.71875 c 1.088203,0.46225 2.129899,0.78617 3.09375,0.84375 l 64.125,-64.125 c -0.24286,-0.97475 -0.62043,-1.93546 -1.03125,-2.90625 l 3,-3 c -0.24983,-1.73198 -0.67671,-3.19803 -1.3125,-4.59375 L 128.25,161.34375 c 3.8182,3.1521 7.88512,5.84497 12.125,8.09375 L 142,167.15625 c 26.24878,13.73995 59.44405,9.58719 81.5,-12.46875 0.16563,-0.16564 0.30547,-0.33278 0.46875,-0.5 C 250.66292,126.97054 250.51736,83.267352 223.5,56.25 209.91004,42.660041 192.09307,35.875 174.28125,35.875 Z m -0.5,3.28125 c 0.10467,0.0015 0.20783,-0.002 0.3125,0 0.94919,0.0184 1.89538,0.06527 2.84375,0.125 0.95844,0.06036 1.9188,0.147513 2.875,0.25 0.0937,0.01005 0.18754,0.0208 0.28125,0.03125 0.094,0.01048 0.1873,0.02037 0.28125,0.03125 0.1457,0.01688 0.29187,0.04464 0.4375,0.0625 0.8962,0.109902 1.79491,0.228119 2.6875,0.375 0.61909,0.101874 1.22687,0.224117 1.84375,0.34375 0.34295,0.06644 0.68907,0.11558 1.03125,0.1875 0.7237,0.152111 1.43647,0.323392 2.15625,0.5 0.31305,0.07681 0.62528,0.137311 0.9375,0.21875 0.0731,0.01906 0.1457,0.04319 0.21875,0.0625 0.9559,0.252837 1.89673,0.516294 2.84375,0.8125 0.0724,0.02261 0.14641,0.03963 0.21875,0.0625 0.94741,0.299842 1.90684,0.625541 2.84375,0.96875 0.0531,0.01945 0.10323,0.04291 0.15625,0.0625 0.95458,0.352395 1.90174,0.727633 2.84375,1.125 0.0515,0.02172 0.10478,0.04064 0.15625,0.0625 0.94184,0.400051 1.88491,0.836281 2.8125,1.28125 0.042,0.02016 0.083,0.04225 0.125,0.0625 0.93538,0.451087 1.86208,0.909529 2.78125,1.40625 0.0331,0.01788 0.0607,0.04456 0.0937,0.0625 0.92681,0.502833 1.84142,1.013321 2.75,1.5625 0.0321,0.01939 0.0617,0.04305 0.0937,0.0625 0.9081,0.550934 1.79937,1.121562 2.6875,1.71875 0.54895,0.369074 1.0842,0.76954 1.625,1.15625 0.3647,0.260827 0.73291,0.512412 1.09375,0.78125 0.0185,0.01381 0.044,0.01742 0.0625,0.03125 0.87764,0.655206 1.74021,1.359931 2.59375,2.0625 1.74268,1.434371 3.43142,2.962673 5.0625,4.59375 1.62048,1.62048 3.13618,3.300564 4.5625,5.03125 0.009,0.01124 0.022,0.02 0.0312,0.03125 0.70321,0.854357 1.40674,1.715235 2.0625,2.59375 0.28277,0.378769 0.53857,0.773223 0.8125,1.15625 0.36973,0.517057 0.74014,1.037986 1.09375,1.5625 0.0162,0.02399 0.0464,0.03849 0.0625,0.0625 0.59812,0.889626 1.16704,1.777833 1.71875,2.6875 0.0195,0.03207 0.0431,0.06166 0.0625,0.09375 0.54559,0.902919 1.06267,1.829073 1.5625,2.75 0.0179,0.03294 0.0447,0.06079 0.0625,0.09375 0.498,0.921212 0.95408,1.843744 1.40625,2.78125 0.0202,0.04194 0.0424,0.08302 0.0625,0.125 0.44611,0.929867 0.88027,1.868304 1.28125,2.8125 0.0218,0.05123 0.0409,0.104977 0.0625,0.15625 0.3948,0.936122 0.77461,1.895211 1.125,2.84375 0.0194,0.05253 0.0432,0.103686 0.0625,0.15625 0.34761,0.94836 0.66558,1.884632 0.96875,2.84375 0.0227,0.07167 0.0401,0.147026 0.0625,0.21875 0.29398,0.941172 0.56134,1.893822 0.8125,2.84375 0.0195,0.07353 0.0433,0.145172 0.0625,0.21875 0.0807,0.309554 0.14258,0.627132 0.21875,0.9375 0.17661,0.719779 0.34789,1.432546 0.5,2.15625 0.0719,0.342177 0.12106,0.688299 0.1875,1.03125 0.11963,0.616882 0.24188,1.224661 0.34375,1.84375 0.14688,0.892594 0.2651,1.791302 0.375,2.6875 0.0179,0.145959 0.0456,0.291463 0.0625,0.4375 0.0108,0.09329 0.0208,0.187929 0.0312,0.28125 0.0105,0.09398 0.0212,0.187243 0.0312,0.28125 0.10249,0.9562 0.18964,1.91656 0.25,2.875 0.0592,0.94244 0.10661,1.90049 0.125,2.84375 0.002,0.10413 -0.002,0.20837 0,0.3125 0.0154,1.05333 0.004,2.10385 -0.0312,3.15625 -0.0316,0.93056 -0.0847,1.85279 -0.15625,2.78125 -0.01,0.12493 -0.0209,0.25012 -0.0312,0.375 -0.0761,0.91807 -0.16591,1.8354 -0.28125,2.75 -0.1206,0.95626 -0.27395,1.92393 -0.4375,2.875 -0.0142,0.0824 -0.0168,0.16767 -0.0312,0.25 -0.022,0.12485 -0.0397,0.25026 -0.0625,0.375 -0.16526,0.90778 -0.3579,1.81727 -0.5625,2.71875 -0.0306,0.13463 -0.0623,0.27178 -0.0937,0.40625 -0.20775,0.88866 -0.44134,1.7751 -0.6875,2.65625 -0.16391,0.58672 -0.35028,1.16705 -0.53125,1.75 -0.17541,0.56412 -0.33984,1.12724 -0.53125,1.6875 -0.29467,0.86381 -0.60475,1.70882 -0.9375,2.5625 -0.0606,0.15549 -0.12566,0.31362 -0.1875,0.46875 -0.0449,0.11246 -0.0795,0.23148 -0.125,0.34375 -0.3561,0.87862 -0.72813,1.7276 -1.125,2.59375 -0.37698,0.82347 -0.7736,1.62644 -1.1875,2.4375 -0.0805,0.15778 -0.16807,0.31147 -0.25,0.46875 -0.41528,0.7974 -0.82998,1.59095 -1.28125,2.375 -0.0952,0.16556 -0.1844,0.33506 -0.28125,0.5 -0.19907,0.33885 -0.41915,0.66384 -0.625,1 -0.36165,0.59093 -0.74237,1.16777 -1.125,1.75 -0.005,0.007 0.005,0.0238 0,0.0312 -0.49081,0.74574 -1.00593,1.48819 -1.53125,2.21875 -0.45727,0.63592 -0.95404,1.25128 -1.4375,1.875 -0.19696,0.25409 -0.36119,0.52926 -0.5625,0.78125 -0.13402,0.16779 -0.2703,0.33315 -0.40625,0.5 -0.16351,0.20064 -0.3337,0.39451 -0.5,0.59375 -0.55662,0.66705 -1.13079,1.31785 -1.71875,1.96875 -0.60631,0.67104 -1.23531,1.34705 -1.875,2 -0.16096,0.16426 -0.30567,0.33692 -0.46875,0.5 -21.13035,21.13035 -52.25869,24.49488 -77.1875,11.15625 l 0.125,-0.1875 c -3.70417,-1.89661 -7.26167,-4.14046 -10.625,-6.78125 -0.53892,-0.42315 -1.06537,-0.86982 -1.59375,-1.3125 -0.51441,-0.43097 -1.0273,-0.8629 -1.53125,-1.3125 -0.0929,-0.0836 -0.18872,-0.1658 -0.28125,-0.25 -0.82173,-0.74776 -1.61189,-1.51814 -2.40625,-2.3125 -0.79436,-0.79436 -1.56473,-1.58452 -2.3125,-2.40625 -0.0842,-0.0925 -0.16639,-0.18838 -0.25,-0.28125 -0.4496,-0.50395 -0.88153,-1.01684 -1.3125,-1.53125 -0.44268,-0.52838 -0.88935,-1.05483 -1.3125,-1.59375 -2.64079,-3.36333 -4.88464,-6.92084 -6.78125,-10.625 l -0.1875,0.125 c -13.33863,-24.92881 -9.9741,-56.057154 11.15625,-77.1875 0.16308,-0.16308 0.33574,-0.307785 0.5,-0.46875 0.65295,-0.639685 1.32896,-1.268689 2,-1.875 0.6509,-0.587956 1.3017,-1.162134 1.96875,-1.71875 0.27214,-0.227086 0.53777,-0.465624 0.8125,-0.6875 0.34347,-0.277429 0.71509,-0.511958 1.0625,-0.78125 0.62372,-0.483463 1.23908,-0.980231 1.875,-1.4375 0.73753,-0.530331 1.497,-1.03609 2.25,-1.53125 0.58223,-0.382634 1.15907,-0.763354 1.75,-1.125 0.44667,-0.27336 0.89235,-0.551116 1.34375,-0.8125 0.68145,-0.394786 1.37084,-0.757473 2.0625,-1.125 0.17606,-0.09355 0.35456,-0.18946 0.53125,-0.28125 0.94525,-0.490975 1.88143,-0.9657 2.84375,-1.40625 0.86615,-0.396875 1.71513,-0.7689 2.59375,-1.125 0.15281,-0.06193 0.31559,-0.09555 0.46875,-0.15625 0.96839,-0.384022 1.92468,-0.758909 2.90625,-1.09375 0.56026,-0.191407 1.12338,-0.355843 1.6875,-0.53125 0.58295,-0.180968 1.16328,-0.367339 1.75,-0.53125 0.88115,-0.246163 1.76759,-0.479746 2.65625,-0.6875 0.0711,-0.01664 0.14757,-0.01486 0.21875,-0.03125 0.41593,-0.09574 0.83264,-0.193899 1.25,-0.28125 0.67213,-0.140825 1.35582,-0.287161 2.03125,-0.40625 0.0823,-0.01449 0.16763,-0.01709 0.25,-0.03125 0.95107,-0.163551 1.91874,-0.316902 2.875,-0.4375 1.96365,-0.247645 3.92987,-0.401636 5.90625,-0.46875 1.0524,-0.03564 2.10292,-0.04663 3.15625,-0.03125 z"
     clip-path="url(#Z)" />
  <path
     style="fill:url(#F);stroke-width:0.09375"
     id="path306"
     fill="url(#F)"
     d="m 4.52596,21.324082 -0.45071,0.42729 c -0.46934,-0.49829 -0.95999,-1.00371 -1.41368,-1.51248 l 0.42096,-0.3818 c 0.64023,0.61259 0.83181,0.79968 1.44343,1.46699 z" />
  <path
     style="stroke-width:0.09375"
     id="path330"
     fill="#2d3335"
     d="m 11.74976,12.626802 c -2.54811,-2.54812 -2.54811,-6.6794303 0,-9.2275503 2.54812,-2.54811992 6.67944,-2.54811992 9.22755,0 2.54812,2.54812 2.54812,6.6794303 0,9.2275503 -2.54811,2.54812 -6.67943,2.54812 -9.22755,0 z m 0.27683,-0.27683 c 2.44619,2.44619 6.31998,2.53847 8.76617,0.0923 2.44619,-2.4462003 2.35392,-6.3199803 -0.0923,-8.7661703 -2.4462,-2.4462 -6.31998,-2.53847 -8.76617,-0.0923 -2.4462,2.44619 -2.35392,6.31998 0.0923,8.7661703 z" />
  <path
     style="stroke-width:0.09375"
     id="path332"
     fill="#9eaaac"
     d="m 11.74976,12.626792 c -2.54812,-2.54812 -2.54812,-6.6794303 0,-9.2275503 0.0155,-0.0155 0.0305,-0.0308 0.0461,-0.0461 -2.50173,2.55165 -2.48646,6.6488203 0.0461,9.1814103 2.53259,2.53259 6.62976,2.54786 9.18141,0.0461 -0.0153,0.0157 -0.0306,0.0306 -0.0461,0.0461 -2.54812,2.54812 -6.67943,2.54812 -9.22755,0 z m 0.23069,-9.0891303 c 0.0152,-0.0156 0.0307,-0.0307 0.0461,-0.0461 2.4462,-2.4461899 6.31998,-2.35392 8.76618,0.0923 2.44619,2.4462 2.53846,6.31998 0.0923,8.7661803 -0.0155,0.0155 -0.0305,0.0309 -0.0461,0.0461 2.39882,-2.4485503 2.29231,-6.2893103 -0.13841,-8.7200303 -2.43072,-2.43072 -6.27148,-2.53723 -8.72003,-0.13841 z" />
  <path
     style="stroke-width:0.09375"
     id="path334"
     fill-opacity="0.475936"
     fill="#d0e9f2"
     d="m 11.93432,12.442252 c 2.44619,2.44619 6.41225,2.44619 8.85844,0 2.44619,-2.4462003 2.44619,-6.4122603 0,-8.8584503 -2.44619,-2.44619 -6.41225,-2.44619 -8.85844,0 -2.4462,2.44619 -2.4462,6.41225 0,8.8584503 z" />
  <path
     style="fill:url(#K);stroke-width:0.09375"
     id="path336"
     fill="url(#K)"
     d="m 11.93432,12.442252 c 2.44619,2.44619 6.41225,2.44619 8.85844,0 2.44619,-2.4462003 2.44619,-6.4122603 0,-8.8584503 -2.44619,-2.44619 -6.41225,-2.44619 -8.85844,0 -2.4462,2.44619 -2.4462,6.41225 0,8.8584503 z" />
  <path
     style="fill:url(#J);stroke-width:0.09375"
     id="path338"
     fill="url(#J)"
     d="m 10.90487,10.807242 -0.53924,0.38352 c 0.30893,0.58247 0.70906,1.13007 1.19958,1.62059 0.49053,0.49052 1.03813,0.89065 1.62059,1.19958 l 0.38352,-0.53923 c -0.55562,-0.2845 -1.07756,-0.65656 -1.54273,-1.12173 -0.46517,-0.46517 -0.83723,-0.9871 -1.12172,-1.54273 z" />
  <path
     style="fill:url(#I);stroke-width:0.09375"
     id="path340"
     fill="url(#I)"
     d="m 11.7267,12.649872 c 0.1621,0.16211 0.28912,0.34414 0.3864,0.53635 l -2.45684,2.45683 c -0.1922,-0.0973 -0.37424,-0.22429 -0.53635,-0.3864 -0.16211,-0.16211 -0.28912,-0.34415 -0.3864,-0.53635 l 2.45683,-2.45684 c 0.19221,0.0973 0.37425,0.2243 0.53636,0.38641 z" />
  <path
     style="fill:url(#H);stroke-width:0.09375"
     id="path342"
     fill="url(#H)"
     d="m 10.925,14.927972 -6.19389,6.19389 c -0.37349,-0.20549 -0.54668,-0.28129 -0.8709,-0.60551 -0.32422,-0.32422 -0.40002,-0.49741 -0.60551,-0.8709 l 6.19389,-6.19389 c 0.47469,0.35138 1.13597,0.97481 1.47641,1.47641 z" />
  <path
     style="fill:url(#G);stroke-width:0.09375"
     id="path344"
     fill="url(#G)"
     d="m 9.94176,14.448562 c 0.32422,0.32422 0.69702,0.62497 0.79869,1.03306 l -6.00934,6.00934 C 4.12023,21.007682 3.3666,20.291842 2.8856,19.645452 l 6.00934,-6.00934 c 0.32735,0.0209 0.71802,0.48365 1.04224,0.80786 z" />
  <path
     style="fill:url(#L);stroke-width:0.09375"
     id="path346"
     opacity="0.595652"
     fill="url(#L)"
     d="m 9.91883,14.471492 c 0.32422,0.32422 0.71995,0.60204 0.82162,1.01013 l -6.00934,6.00934 C 3.99265,20.843392 3.62513,20.494922 2.8856,19.645452 l 6.00934,-6.00934 c 0.32735,0.0209 0.69509,0.51117 1.0193,0.83538 z" />
  <path
     style="fill:url(#O);stroke-width:0.09375"
     id="path348"
     opacity="0.604348"
     fill="url(#O)"
     d="m 12.32202,3.4734317 c 3.81175,-3.01624992 7.32519,-1.19324 7.29204,0.49719 -0.0331,1.69042 -5.3033,6.5959803 -7.15945,6.1982303 C 10.59845,9.7711017 10.06812,5.1638617 12.32202,3.4734317 Z" />
  <text
     style="fill:url(#N);stroke-width:0.09375"
     id="text358"
     y="6.4899044"
     x="9.3845844"
     transform="rotate(-8.8996237)"
     opacity="0.46087"
     font-size="1.85622px"
     font-family="Sans"
     fill="url(#N)"><tspan
       style="fill:url(#N);stroke-width:0.00878906"
       id="tspan350"
       y="6.4899044"
       x="9.3845844"
       font-weight="bold"
       font-family="Monospace"
       fill="url(#N)">01011001</tspan><tspan
       style="fill:url(#N);stroke-width:0.00878906"
       id="tspan352"
       y="8.8101864"
       x="9.3845844"
       font-weight="bold"
       font-family="Monospace"
       fill="url(#N)">00110101</tspan><tspan
       style="fill:url(#N);stroke-width:0.00878906"
       id="tspan354"
       y="11.130468"
       x="9.3845844"
       font-weight="bold"
       font-family="Monospace"
       fill="url(#N)">10010011</tspan><tspan
       style="fill:url(#N);stroke-width:0.09375"
       id="tspan356"
       y="13.45075"
       x="9.3845844"
       fill="url(#N)" /></text>
  <text
     style="fill:url(#M);stroke-width:0.09375"
     id="text368"
     y="6.3693295"
     x="9.3444004"
     transform="rotate(-8.8996237)"
     font-size="1.85622px"
     font-family="Sans"
     fill="url(#M)"><tspan
       style="fill:url(#M);stroke-width:0.00878906"
       id="tspan360"
       y="6.3693295"
       x="9.3444004"
       font-weight="bold"
       font-family="Monospace"
       fill="url(#M)">01011001</tspan><tspan
       style="fill:url(#M);stroke-width:0.00878906"
       id="tspan362"
       y="8.6896114"
       x="9.3444004"
       font-weight="bold"
       font-family="Monospace"
       fill="url(#M)">00110101</tspan><tspan
       style="fill:url(#M);stroke-width:0.00878906"
       id="tspan364"
       y="11.009893"
       x="9.3444004"
       font-weight="bold"
       font-family="Monospace"
       fill="url(#M)">10010011</tspan><tspan
       style="fill:url(#M);stroke-width:0.09375"
       id="tspan366"
       y="13.330175"
       x="9.3444004"
       fill="url(#M)" /></text>
  <path
     style="fill:url(#P);stroke-width:0.09375"
     id="path370"
     opacity="0.765217"
     fill="url(#P)"
     d="m 20.59967,12.102202 c -2.51194,2.06089 -3.91953,1.96944 -3.56951,1.23169 0.35003,-0.73775 3.96805,-3.9051703 4.82318,-4.1013903 0.85512,-0.19622 0.21329,1.6913603 -1.25367,2.8697003 z" />
</svg>
