<?xml version="1.0" encoding="UTF-8" standalone="no"?>
<svg
   xmlns:dc="http://purl.org/dc/elements/1.1/"
   xmlns:cc="http://creativecommons.org/ns#"
   xmlns:rdf="http://www.w3.org/1999/02/22-rdf-syntax-ns#"
   xmlns:svg="http://www.w3.org/2000/svg"
   xmlns="http://www.w3.org/2000/svg"
   xmlns:xlink="http://www.w3.org/1999/xlink"
   xmlns:sodipodi="http://sodipodi.sourceforge.net/DTD/sodipodi-0.dtd"
   xmlns:inkscape="http://www.inkscape.org/namespaces/inkscape"
   height="256"
   width="256"
   version="1.1"
   id="svg372"
   sodipodi:docname="osmbasedmap2.svg"
   inkscape:version="0.92.3 (2405546, 2018-03-11)">
  <metadata
     id="metadata378">
    <rdf:RDF>
      <cc:Work
         rdf:about="">
        <dc:format>image/svg+xml</dc:format>
        <dc:type
           rdf:resource="http://purl.org/dc/dcmitype/StillImage" />
        <dc:title></dc:title>
      </cc:Work>
    </rdf:RDF>
  </metadata>
  <defs
     id="defs376" />
  <sodipodi:namedview
     pagecolor="#ffffff"
     bordercolor="#666666"
     borderopacity="1"
     objecttolerance="10"
     gridtolerance="10"
     guidetolerance="10"
     inkscape:pageopacity="0"
     inkscape:pageshadow="2"
     inkscape:window-width="1680"
     inkscape:window-height="987"
     id="namedview374"
     showgrid="false"
     inkscape:zoom="2.6322831"
     inkscape:cx="127.98709"
     inkscape:cy="112.45468"
     inkscape:window-x="-8"
     inkscape:window-y="-8"
     inkscape:window-maximized="1"
     inkscape:current-layer="svg372" />
  <linearGradient
     id="a">
    <stop
       offset="0"
       id="stop2" />
    <stop
       offset="1"
       stop-opacity="0"
       id="stop4" />
  </linearGradient>
  <linearGradient
     id="b">
    <stop
       offset="0"
       stop-color="#fff"
       id="stop7" />
    <stop
       offset="1"
       stop-color="#fff"
       stop-opacity="0"
       id="stop9" />
  </linearGradient>
  <linearGradient
     id="c">
    <stop
       offset="0"
       stop-color="#f9e295"
       id="stop12" />
    <stop
       offset=".125"
       stop-color="#f7dd84"
       id="stop14" />
    <stop
       offset=".20580582"
       stop-color="#fff"
       id="stop16" />
    <stop
       offset=".30112621"
       stop-color="#f4ce51"
       id="stop18" />
    <stop
       offset=".3412039"
       stop-color="#f9e7aa"
       id="stop20" />
    <stop
       offset="1"
       stop-color="#efbb0e"
       id="stop22" />
  </linearGradient>
  <linearGradient
     id="d">
    <stop
       offset="0"
       stop-color="#2d3335"
       id="stop25" />
    <stop
       offset=".5"
       stop-color="#4c464a"
       id="stop27" />
    <stop
       offset="1"
       stop-color="#384042"
       id="stop29" />
  </linearGradient>
  <linearGradient
     id="e">
    <stop
       offset="0"
       stop-color="#d0e9f2"
       stop-opacity="0"
       id="stop32" />
    <stop
       offset=".83932751"
       stop-color="#d0e9f2"
       stop-opacity="0"
       id="stop34" />
    <stop
       offset=".94308507"
       stop-color="#d0e9f2"
       stop-opacity=".281853"
       id="stop36" />
    <stop
       offset="1"
       stop-color="#d0e9f2"
       id="stop38" />
  </linearGradient>
  <linearGradient
     id="f"
     gradientUnits="userSpaceOnUse"
     x1="94.25"
     x2="9"
     xlink:href="#a"
     y1="-94.671967"
     y2="-179.96893" />
  <linearGradient
     id="g"
     gradientUnits="userSpaceOnUse"
     x1="50.75"
     x2="35.75"
     xlink:href="#a"
     y1="-114.4375"
     y2="-30.4375" />
  <linearGradient
     id="h"
     gradientUnits="userSpaceOnUse"
     x1="77.625"
     x2="115.25"
     xlink:href="#a"
     y1="-163.125"
     y2="-74.625" />
  <linearGradient
     id="i"
     gradientUnits="userSpaceOnUse"
     x1="56.5"
     x2="125.71875"
     xlink:href="#a"
     y1="-50.4375"
     y2="7.0625" />
  <linearGradient
     id="j"
     gradientUnits="userSpaceOnUse"
     x1="35"
     x2="180.75"
     xlink:href="#a"
     y1="-163.29688"
     y2="-146.79688" />
  <linearGradient
     id="k"
     gradientUnits="userSpaceOnUse"
     x1="57.000099"
     x2="179"
     xlink:href="#a"
     y1="-141.10941"
     y2="-41.609402" />
  <linearGradient
     id="l"
     gradientUnits="userSpaceOnUse"
     x1="156"
     x2="208.25"
     xlink:href="#a"
     y1="-26.5"
     y2="39.75" />
  <linearGradient
     id="m"
     gradientUnits="userSpaceOnUse"
     x1="142.75"
     x2="235"
     xlink:href="#a"
     y1="-169.29688"
     y2="-77.296875" />
  <linearGradient
     id="n"
     gradientUnits="userSpaceOnUse"
     x1="214.25"
     x2="166.5"
     xlink:href="#b"
     y1="-161.35938"
     y2="-113.71875" />
  <linearGradient
     id="o"
     gradientUnits="userSpaceOnUse"
     x1="53.25"
     x2="57.65625"
     xlink:href="#b"
     y1="-126.5"
     y2="-62.46875" />
  <linearGradient
     id="p"
     gradientUnits="userSpaceOnUse"
     x1="39.5"
     x2="75.71875"
     xlink:href="#b"
     y1="6.625025"
     y2="-17.124975" />
  <linearGradient
     id="q"
     gradientUnits="userSpaceOnUse"
     x1="102"
     x2="85.3125"
     xlink:href="#b"
     y1="-162.34375"
     y2="-121.4375" />
  <linearGradient
     id="r"
     gradientUnits="userSpaceOnUse"
     x1="117.75"
     x2="63.5"
     xlink:href="#b"
     y1="-78.09375"
     y2="-14.75" />
  <linearGradient
     id="s"
     gradientUnits="userSpaceOnUse"
     x1="180.68745"
     x2="133.93745"
     xlink:href="#b"
     y1="-125.125"
     y2="-60.74995" />
  <linearGradient
     id="t"
     gradientUnits="userSpaceOnUse"
     x1="170.75"
     x2="130.21875"
     xlink:href="#b"
     y1="-23.5"
     y2="33.375" />
  <linearGradient
     id="u"
     gradientUnits="userSpaceOnUse"
     x1="213.5"
     x2="181.75005"
     xlink:href="#b"
     y1="-76"
     y2="-5.6563" />
  <linearGradient
     id="v"
     gradientUnits="userSpaceOnUse"
     x1="210.17188"
     x2="9"
     xlink:href="#a"
     y1="62.064125"
     y2="-223.25346"
     gradientTransform="translate(0,192)" />
  <clipPath
     id="w">
    <path
       d="m9 12.25s7.5 13 11.75 27.75 6.25 25.5 6.25 25.5-5.5 12.75-8.25 24.75-5.75 23-5.75 23 5.75 16 9.25 30 3.75 24.25 3.75 24.25-4 10.25-7.5 24.25-5 30.75-5 30.75 9.25-2 28.5 1.25 32.25 6 32.25 6 12.75-2.75 24-6.25 16.25-6.5 16.25-6.5 5.5.5 22.5 6.25 29.25 8.5 29.25 8.5 13-2.75 26-5.75 26.5-8 26.5-8-.75-5 4.25-24.5 8.75-28 8.75-28-.5-4.5-3.75-19.75-10-29.75-10-29.75 1.75-10.5 6.75-23.75 10.25-26.75 10.25-26.75-4.75-15.25-7.5-29.75-8.25-25.75-8.25-25.75-24.25 9-31.75 10.5-21 5.25-21 5.25-9.75-4.25-22-8.5-29.75-5.5-29.75-5.5-3.25 3.5-22 8-27.5 5.75-27.5 5.75-18.5-9-31.5-11.5-24-2-24.75-1.75z"
       id="path58" />
  </clipPath>
  <clipPath
     id="x">
    <path
       d="m9 12.25s7.5 13 11.75 27.75 6.25 25.5 6.25 25.5-5.5 12.75-8.25 24.75-5.75 23-5.75 23 5.75 16 9.25 30 3.75 24.25 3.75 24.25-4 10.25-7.5 24.25-5 30.75-5 30.75 9.25-2 28.5 1.25 32.25 6 32.25 6 12.75-2.75 24-6.25 16.25-6.5 16.25-6.5 5.5.5 22.5 6.25 29.25 8.5 29.25 8.5 13-2.75 26-5.75 26.5-8 26.5-8-.75-5 4.25-24.5 8.75-28 8.75-28-.5-4.5-3.75-19.75-10-29.75-10-29.75 1.75-10.5 6.75-23.75 10.25-26.75 10.25-26.75-4.75-15.25-7.5-29.75-8.25-25.75-8.25-25.75-24.25 9-31.75 10.5-21 5.25-21 5.25-9.75-4.25-22-8.5-29.75-5.5-29.75-5.5-3.25 3.5-22 8-27.5 5.75-27.5 5.75-18.5-9-31.5-11.5-24-2-24.75-1.75z"
       id="path61" />
  </clipPath>
  <clipPath
     id="y">
    <path
       d="m9 12.25s7.5 13 11.75 27.75 6.25 25.5 6.25 25.5-5.5 12.75-8.25 24.75-5.75 23-5.75 23 5.75 16 9.25 30 3.75 24.25 3.75 24.25-4 10.25-7.5 24.25-5 30.75-5 30.75 9.25-2 28.5 1.25 32.25 6 32.25 6 12.75-2.75 24-6.25 16.25-6.5 16.25-6.5 5.5.5 22.5 6.25 29.25 8.5 29.25 8.5 13-2.75 26-5.75 26.5-8 26.5-8-.75-5 4.25-24.5 8.75-28 8.75-28-.5-4.5-3.75-19.75-10-29.75-10-29.75 1.75-10.5 6.75-23.75 10.25-26.75 10.25-26.75-4.75-15.25-7.5-29.75-8.25-25.75-8.25-25.75-24.25 9-31.75 10.5-21 5.25-21 5.25-9.75-4.25-22-8.5-29.75-5.5-29.75-5.5-3.25 3.5-22 8-27.5 5.75-27.5 5.75-18.5-9-31.5-11.5-24-2-24.75-1.75z"
       id="path64" />
  </clipPath>
  <radialGradient
     id="z"
     cx="128"
     cy="86"
     gradientTransform="matrix(1.0212766 0 0 -1.0212766 -212.7234 173.82979)"
     gradientUnits="userSpaceOnUse"
     r="47"
     xlink:href="#e" />
  <linearGradient
     id="A"
     gradientTransform="matrix(-1 0 0 1 46 0)"
     gradientUnits="userSpaceOnUse"
     x1="123"
     x2="133"
     xlink:href="#d"
     y1="150.375"
     y2="150.375" />
  <linearGradient
     id="B"
     gradientUnits="userSpaceOnUse"
     x1="-82"
     x2="-79.125"
     xlink:href="#d"
     y1="134.35938"
     y2="143.35938" />
  <linearGradient
     id="C"
     gradientTransform="matrix(-2 0 0 1.7699115 174 -86.65044)"
     gradientUnits="userSpaceOnUse"
     x1="123"
     x2="133"
     xlink:href="#d"
     y1="150.375"
     y2="150.375" />
  <linearGradient
     id="D"
     gradientUnits="userSpaceOnUse"
     x1="-90"
     x2="-74"
     xlink:href="#c"
     y1="186.5"
     y2="186.5" />
  <linearGradient
     id="E"
     gradientUnits="userSpaceOnUse"
     x1="-90"
     x2="-74"
     xlink:href="#c"
     y1="253.5"
     y2="253.5" />
  <linearGradient
     id="F"
     gradientTransform="matrix(.9842718 .9842718 -.9842718 .9842718 66.992154 -59.215687)"
     gradientUnits="userSpaceOnUse"
     x1="120"
     x2="136"
     xlink:href="#c"
     y1="186.5"
     y2="186.5" />
  <linearGradient
     id="G"
     gradientTransform="matrix(-1.9685436 -1.9685436 -1.742074 1.742074 596.18632 167.51089)"
     gradientUnits="userSpaceOnUse"
     x1="123"
     x2="133"
     xlink:href="#d"
     y1="150.375"
     y2="150.375" />
  <linearGradient
     id="H"
     gradientTransform="matrix(.98427179 .98427179 -.98427179 .98427179 132.93836 -125.1619)"
     gradientUnits="userSpaceOnUse"
     x1="120"
     x2="136"
     xlink:href="#c"
     y1="186.5"
     y2="186.5" />
  <linearGradient
     id="I"
     gradientTransform="matrix(-.98427179 -.98427179 -.98427179 .98427179 384.91194 126.81168)"
     gradientUnits="userSpaceOnUse"
     x1="123"
     x2="133"
     xlink:href="#d"
     y1="150.375"
     y2="150.375" />
  <linearGradient
     id="J"
     gradientTransform="matrix(.98427179 .98427179 -.98427179 .98427179 132.93836 -125.1619)"
     gradientUnits="userSpaceOnUse"
     x1="128"
     x2="130.875"
     xlink:href="#d"
     y1="134.35938"
     y2="143.35938" />
  <radialGradient
     id="K"
     cx="128"
     cy="86"
     gradientTransform="matrix(1.0052137 1.0052137 1.0052137 -1.0052137 -40.83796 43.253296)"
     gradientUnits="userSpaceOnUse"
     r="47"
     xlink:href="#e" />
  <linearGradient
     id="L"
     gradientTransform="matrix(-1.9685436 -1.9685436 -1.742074 1.742074 596.18632 167.51089)"
     gradientUnits="userSpaceOnUse"
     x1="108.00327"
     x2="133"
     xlink:href="#a"
     y1="167.7272"
     y2="150.375" />
  <radialGradient
     id="M"
     cx="159.61317"
     cy="72.588303"
     gradientTransform="matrix(1.2124778 0 0 .83914635 -46.348455 24.528408)"
     gradientUnits="userSpaceOnUse"
     r="38.416904">
    <stop
       offset="0"
       stop-color="#fff"
       id="stop80" />
    <stop
       offset=".5"
       stop-color="#fff"
       stop-opacity=".930502"
       id="stop82" />
    <stop
       offset="1"
       stop-color="#fff"
       stop-opacity="0"
       id="stop84" />
  </radialGradient>
  <radialGradient
     id="N"
     cx="159.61317"
     cy="72.588303"
     gradientTransform="matrix(1.2124778 0 0 .83914635 -45.919787 25.814437)"
     gradientUnits="userSpaceOnUse"
     r="38.416904"
     xlink:href="#b" />
  <linearGradient
     id="O"
     gradientUnits="userSpaceOnUse"
     x1="126.64295"
     x2="179.96115"
     xlink:href="#b"
     y1="19.814894"
     y2="127.19565" />
  <linearGradient
     id="P"
     gradientTransform="matrix(-.50295302 .19839946 .19720153 -.43253662 276.15635 123.41729)"
     gradientUnits="userSpaceOnUse"
     x1="126.64295"
     x2="179.96115"
     xlink:href="#b"
     y1="29.814894"
     y2="137.19565" />
  <filter
     id="Q">
    <feGaussianBlur
       stdDeviation="4.2868936"
       id="feGaussianBlur90" />
  </filter>
  <clipPath
     id="R">
    <path
       d="m9 12.25s7.5 13 11.75 27.75 6.25 25.5 6.25 25.5-5.5 12.75-8.25 24.75-5.75 23-5.75 23 5.75 16 9.25 30 3.75 24.25 3.75 24.25-4 10.25-7.5 24.25-5 30.75-5 30.75 9.25-2 28.5 1.25 32.25 6 32.25 6 12.75-2.75 24-6.25 16.25-6.5 16.25-6.5 5.5.5 22.5 6.25 29.25 8.5 29.25 8.5 13-2.75 26-5.75 26.5-8 26.5-8-.75-5 4.25-24.5 8.75-28 8.75-28-.5-4.5-3.75-19.75-10-29.75-10-29.75 1.75-10.5 6.75-23.75 10.25-26.75 10.25-26.75-4.75-15.25-7.5-29.75-8.25-25.75-8.25-25.75-24.25 9-31.75 10.5-21 5.25-21 5.25-9.75-4.25-22-8.5-29.75-5.5-29.75-5.5-3.25 3.5-22 8-27.5 5.75-27.5 5.75-18.5-9-31.5-11.5-24-2-24.75-1.75z"
       id="path93" />
  </clipPath>
  <clipPath
     id="S">
    <path
       d="m9 12.25s7.5 13 11.75 27.75 6.25 25.5 6.25 25.5-5.5 12.75-8.25 24.75-5.75 23-5.75 23 5.75 16 9.25 30 3.75 24.25 3.75 24.25-4 10.25-7.5 24.25-5 30.75-5 30.75 9.25-2 28.5 1.25 32.25 6 32.25 6 12.75-2.75 24-6.25 16.25-6.5 16.25-6.5 5.5.5 22.5 6.25 29.25 8.5 29.25 8.5 13-2.75 26-5.75 26.5-8 26.5-8-.75-5 4.25-24.5 8.75-28 8.75-28-.5-4.5-3.75-19.75-10-29.75-10-29.75 1.75-10.5 6.75-23.75 10.25-26.75 10.25-26.75-4.75-15.25-7.5-29.75-8.25-25.75-8.25-25.75-24.25 9-31.75 10.5-21 5.25-21 5.25-9.75-4.25-22-8.5-29.75-5.5-29.75-5.5-3.25 3.5-22 8-27.5 5.75-27.5 5.75-18.5-9-31.5-11.5-24-2-24.75-1.75z"
       id="path96" />
  </clipPath>
  <clipPath
     id="T">
    <path
       d="m9 12.25s7.5 13 11.75 27.75 6.25 25.5 6.25 25.5-5.5 12.75-8.25 24.75-5.75 23-5.75 23 5.75 16 9.25 30 3.75 24.25 3.75 24.25-4 10.25-7.5 24.25-5 30.75-5 30.75 9.25-2 28.5 1.25 32.25 6 32.25 6 12.75-2.75 24-6.25 16.25-6.5 16.25-6.5 5.5.5 22.5 6.25 29.25 8.5 29.25 8.5 13-2.75 26-5.75 26.5-8 26.5-8-.75-5 4.25-24.5 8.75-28 8.75-28-.5-4.5-3.75-19.75-10-29.75-10-29.75 1.75-10.5 6.75-23.75 10.25-26.75 10.25-26.75-4.75-15.25-7.5-29.75-8.25-25.75-8.25-25.75-24.25 9-31.75 10.5-21 5.25-21 5.25-9.75-4.25-22-8.5-29.75-5.5-29.75-5.5-3.25 3.5-22 8-27.5 5.75-27.5 5.75-18.5-9-31.5-11.5-24-2-24.75-1.75z"
       id="path99" />
  </clipPath>
  <linearGradient
     id="U"
     gradientUnits="userSpaceOnUse"
     x1="210.17188"
     x2="9"
     xlink:href="#a"
     y1="264.064125"
     y2="-21.25346" />
  <clipPath
     id="V">
    <path
       d="m123.62289 141.06193c20.83191 20.24317 54.6071 19.28863 75.439-2.132 20.8319-21.42064 20.8319-55.195816 0-75.438984-20.83191-20.243167-54.60709-19.288643-75.439 2.131999-20.83189 21.42063-20.8319 55.195815 0 75.438985z"
       id="path103" />
  </clipPath>
  <filter
     id="W">
    <feGaussianBlur
       stdDeviation="6.3109704"
       id="feGaussianBlur106" />
  </filter>
  <filter
     id="X">
    <feGaussianBlur
       stdDeviation="4.4575"
       id="feGaussianBlur109" />
  </filter>
  <linearGradient
     id="Y"
     gradientUnits="userSpaceOnUse"
     x1="122"
     x2="122"
     xlink:href="#a"
     y1="245.448"
     y2="4.302" />
  <clipPath
     id="Z">
    <path
       d="m9 22.578406s7.5 12.393417 11.75 26.799687 6.25 24.994515 6.25 24.994515-5.5 13.194827-8.25 25.417241c-2.75 12.222411-5.75 23.465051-5.75 23.465051s5.75 15.53495 9.25 29.25188c3.5 13.71692 3.75 23.94671 3.75 23.94671s-4 10.57351-7.5 24.85658-5 31.15439-5 31.15439 9.25-2.74812 28.5-1.05502c19.25 1.69311 32.25 3.3917 32.25 3.3917s12.75-3.78119 24-8.19107c11.25-4.40987 16.25-7.81426 16.25-7.81426s5.5.0552 22.5 4.43025c17 4.37508 29.25 6.13433 29.25 6.13433s13-3.80141 26-7.85282 26.5-10.14326 26.5-10.14326-.75-4.93934 4.25-24.84373c5-19.90438 8.75-28.70768 8.75-28.70768s-.5145-4.4553-3.75-19.4467c-1.75-8.10847-2.25-4.06803-2.25-4.06803s16.264-26.15535 16.5-40.334481c.25-15.020219-7.25-36.413636-7.25-36.413636s-4.75-14.865832-7.5-29.143418-8.25-25.0827591-8.25-25.0827591-24.25 10.9612831-31.75 13.0678661c-7.5 2.106582-21 6.948431-21 6.948431s-9.75-3.461443-22-6.720691c-12.25-3.259249-29.75-3.09389-29.75-3.09389s-3.25 3.762853-22 9.779309-27.5 7.974136-27.5 7.974136-18.5-7.503763-31.5-8.952353c-13-1.448591-24-.05894-24.75.251722z"
       id="path113" />
  </clipPath>
  <path
     d="m174.28125 35.875c-17.59875 0-35.19216 6.639475-48.71875 19.90625-.16722.163278-.33437.303117-.5.46875-22.05595 22.055948-26.208705 55.25122-12.46875 81.5l-2.28125 1.625c2.24879 4.23988 4.94165 8.3068 8.09375 12.125l-13.3125 13.34375c-1.34137-.58575-2.78858-1.03331-4.5625-1.375l-2.84375 2.84375c-1.109469-.48387-2.138019-.81588-3.0625-.875l-64.125 64.125c-.03687 1.10087.22615 2.18738.65625 3.28125l-.53125.53125-1.09375 1.09375c.715438 3.7378 2.010432 6.82294 5.46875 10.28125 3.458318 3.45832 6.420414 4.63027 10.28125 5.46875l1.09375-1.09375.71875-.71875c1.088203.46225 2.129899.78617 3.09375.84375l64.125-64.125c-.24286-.97475-.62043-1.93546-1.03125-2.90625l3-3c-.24983-1.73198-.67671-3.19803-1.3125-4.59375l13.28125-13.28125c3.8182 3.1521 7.88512 5.84497 12.125 8.09375l1.625-2.28125c26.24878 13.73995 59.44405 9.58719 81.5-12.46875.16563-.16564.30547-.33278.46875-.5 26.69417-27.21696 26.54861-70.920148-.46875-97.9375-13.58996-13.589959-31.40693-20.375-49.21875-20.375zm-.5 3.28125c.10467.0015.20783-.002.3125 0 .94919.0184 1.89538.06527 2.84375.125.95844.06036 1.9188.147513 2.875.25.0937.01005.18754.0208.28125.03125.094.01048.1873.02037.28125.03125.1457.01688.29187.04464.4375.0625.8962.109902 1.79491.228119 2.6875.375.61909.101874 1.22687.224117 1.84375.34375.34295.06644.68907.11558 1.03125.1875.7237.152111 1.43647.323392 2.15625.5.31305.07681.62528.137311.9375.21875.0731.01906.1457.04319.21875.0625.9559.252837 1.89673.516294 2.84375.8125.0724.02261.14641.03963.21875.0625.94741.299842 1.90684.625541 2.84375.96875.0531.01945.10323.04291.15625.0625.95458.352395 1.90174.727633 2.84375 1.125.0515.02172.10478.04064.15625.0625.94184.400051 1.88491.836281 2.8125 1.28125.042.02016.083.04225.125.0625.93538.451087 1.86208.909529 2.78125 1.40625.0331.01788.0607.04456.0937.0625.92681.502833 1.84142 1.013321 2.75 1.5625.0321.01939.0617.04305.0937.0625.9081.550934 1.79937 1.121562 2.6875 1.71875.54895.369074 1.0842.76954 1.625 1.15625.3647.260827.73291.512412 1.09375.78125.0185.01381.044.01742.0625.03125.87764.655206 1.74021 1.359931 2.59375 2.0625 1.74268 1.434371 3.43142 2.962673 5.0625 4.59375 1.62048 1.62048 3.13618 3.300564 4.5625 5.03125.009.01124.022.02.0312.03125.70321.854357 1.40674 1.715235 2.0625 2.59375.28277.378769.53857.773223.8125 1.15625.36973.517057.74014 1.037986 1.09375 1.5625.0162.02399.0464.03849.0625.0625.59812.889626 1.16704 1.777833 1.71875 2.6875.0195.03207.0431.06166.0625.09375.54559.902919 1.06267 1.829073 1.5625 2.75.0179.03294.0447.06079.0625.09375.498.921212.95408 1.843744 1.40625 2.78125.0202.04194.0424.08302.0625.125.44611.929867.88027 1.868304 1.28125 2.8125.0218.05123.0409.104977.0625.15625.3948.936122.77461 1.895211 1.125 2.84375.0194.05253.0432.103686.0625.15625.34761.94836.66558 1.884632.96875 2.84375.0227.07167.0401.147026.0625.21875.29398.941172.56134 1.893822.8125 2.84375.0195.07353.0433.145172.0625.21875.0807.309554.14258.627132.21875.9375.17661.719779.34789 1.432546.5 2.15625.0719.342177.12106.688299.1875 1.03125.11963.616882.24188 1.224661.34375 1.84375.14688.892594.2651 1.791302.375 2.6875.0179.145959.0456.291463.0625.4375.0108.09329.0208.187929.0312.28125.0105.09398.0212.187243.0312.28125.10249.9562.18964 1.91656.25 2.875.0592.94244.10661 1.90049.125 2.84375.002.10413-.002.20837 0 .3125.0154 1.05333.004 2.10385-.0312 3.15625-.0316.93056-.0847 1.85279-.15625 2.78125-.01.12493-.0209.25012-.0312.375-.0761.91807-.16591 1.8354-.28125 2.75-.1206.95626-.27395 1.92393-.4375 2.875-.0142.0824-.0168.16767-.0312.25-.022.12485-.0397.25026-.0625.375-.16526.90778-.3579 1.81727-.5625 2.71875-.0306.13463-.0623.27178-.0937.40625-.20775.88866-.44134 1.7751-.6875 2.65625-.16391.58672-.35028 1.16705-.53125 1.75-.17541.56412-.33984 1.12724-.53125 1.6875-.29467.86381-.60475 1.70882-.9375 2.5625-.0606.15549-.12566.31362-.1875.46875-.0449.11246-.0795.23148-.125.34375-.3561.87862-.72813 1.7276-1.125 2.59375-.37698.82347-.7736 1.62644-1.1875 2.4375-.0805.15778-.16807.31147-.25.46875-.41528.7974-.82998 1.59095-1.28125 2.375-.0952.16556-.1844.33506-.28125.5-.19907.33885-.41915.66384-.625 1-.36165.59093-.74237 1.16777-1.125 1.75-.005.007.005.0238 0 .0312-.49081.74574-1.00593 1.48819-1.53125 2.21875-.45727.63592-.95404 1.25128-1.4375 1.875-.19696.25409-.36119.52926-.5625.78125-.13402.16779-.2703.33315-.40625.5-.16351.20064-.3337.39451-.5.59375-.55662.66705-1.13079 1.31785-1.71875 1.96875-.60631.67104-1.23531 1.34705-1.875 2-.16096.16426-.30567.33692-.46875.5-21.13035 21.13035-52.25869 24.49488-77.1875 11.15625l.125-.1875c-3.70417-1.89661-7.26167-4.14046-10.625-6.78125-.53892-.42315-1.06537-.86982-1.59375-1.3125-.51441-.43097-1.0273-.8629-1.53125-1.3125-.0929-.0836-.18872-.1658-.28125-.25-.82173-.74776-1.61189-1.51814-2.40625-2.3125s-1.56473-1.58452-2.3125-2.40625c-.0842-.0925-.16639-.18838-.25-.28125-.4496-.50395-.88153-1.01684-1.3125-1.53125-.44268-.52838-.88935-1.05483-1.3125-1.59375-2.64079-3.36333-4.88464-6.92084-6.78125-10.625l-.1875.125c-13.33863-24.92881-9.9741-56.057154 11.15625-77.1875.16308-.16308.33574-.307785.5-.46875.65295-.639685 1.32896-1.268689 2-1.875.6509-.587956 1.3017-1.162134 1.96875-1.71875.27214-.227086.53777-.465624.8125-.6875.34347-.277429.71509-.511958 1.0625-.78125.62372-.483463 1.23908-.980231 1.875-1.4375.73753-.530331 1.497-1.03609 2.25-1.53125.58223-.382634 1.15907-.763354 1.75-1.125.44667-.27336.89235-.551116 1.34375-.8125.68145-.394786 1.37084-.757473 2.0625-1.125.17606-.09355.35456-.18946.53125-.28125.94525-.490975 1.88143-.9657 2.84375-1.40625.86615-.396875 1.71513-.7689 2.59375-1.125.15281-.06193.31559-.09555.46875-.15625.96839-.384022 1.92468-.758909 2.90625-1.09375.56026-.191407 1.12338-.355843 1.6875-.53125.58295-.180968 1.16328-.367339 1.75-.53125.88115-.246163 1.76759-.479746 2.65625-.6875.0711-.01664.14757-.01486.21875-.03125.41593-.09574.83264-.193899 1.25-.28125.67213-.140825 1.35582-.287161 2.03125-.40625.0823-.01449.16763-.01709.25-.03125.95107-.163551 1.91874-.316902 2.875-.4375 1.96365-.247645 3.92987-.401636 5.90625-.46875 1.0524-.03564 2.10292-.04663 3.15625-.03125z"
     fill="#2d3335"
     filter="url(#W)"
     opacity=".7"
     transform="matrix(1 .06864071 0 .848698 0 26.913089)"
     id="path116" />
  <path
     d="m9 17.25s7.5 11 11.75 25.75 6.25 25.5 6.25 25.5-5.5 12.75-8.25 24.75-5.75 25-5.75 25 5.75 16 9.25 30 3.75 22.25 3.75 22.25-4 10.25-7.5 24.25-5 30.75-5 30.75 9.25-2 28.5 1.25 32.25 6 32.25 6 12.75-2.75 24-6.25 16.25-6.5 16.25-6.5 5.5.5 22.5 6.25 29.25 8.5 29.25 8.5 13-2.75 26-5.75 26.5-8 26.5-8-.75-5 4.25-24.5 8.75-28 8.75-28-.5-2.5-3.75-17.75-10-29.75-10-29.75 1.75-12.5 6.75-25.75 10.25-26.75 10.25-26.75-4.75-15.25-7.5-29.75-8.25-23.75-8.25-23.75-24.25 9-31.75 10.5-21 5.25-21 5.25-9.75-4.25-22-8.5-29.75-5.5-29.75-5.5-3.25 3.5-22 8-27.5 5.75-27.5 5.75-18.5-9-31.5-11.5-24-2-24.75-1.75z"
     fill="url(#Y)"
     filter="url(#X)"
     opacity=".5"
     transform="matrix(1 0 0 .846566 0 27.660073)"
     id="path118" />
  <path
     d="m9 2.25s7.5 13 11.75 27.75 6.25 25.5 6.25 25.5-5.5 12.75-8.25 24.75-5.75 23-5.75 23 5.75 16 9.25 30 3.75 24.25 3.75 24.25-4 10.25-7.5 24.25-5 30.75-5 30.75 9.25-2 28.5 1.25 32.25 6 32.25 6 12.75-2.75 24-6.25 16.25-6.5 16.25-6.5 5.5.5 22.5 6.25 29.25 8.5 29.25 8.5 13-2.75 26-5.75 26.5-8 26.5-8-.75-5 4.25-24.5 8.75-28 8.75-28-.5-4.5-3.75-19.75-10-29.75-10-29.75 1.75-10.5 6.75-23.75 10.25-26.75 10.25-26.75-4.75-15.25-7.5-29.75-8.25-25.75-8.25-25.75-24.25 9-31.75 10.5-21 5.25-21 5.25-9.75-4.25-22-8.5-29.75-5.5-29.75-5.5-3.25 3.5-22 8-27.5 5.75-27.5 5.75-18.5-9-31.5-11.5-24-2-24.75-1.75z"
     fill="#ceeeab"
     id="path120" />
  <g
     clip-path="url(#y)"
     transform="translate(0 -10)"
     id="g124">
    <path
       d="m110.75 5.5-4.25 7c-.75 9-2.25 13.75-8.5 16.5s-12.25 3.5-11 7.5 13 9.25 14.25 13 8.25 1.75 11 7 2 15.25-3.75 17.25-17.5.5-20.25 9.5-4.75 10.5-9 12.75-7.25 10.5-3.5 16.5 12.25-1.25 15-6.5 7.25-8.75 7.25-8.75h23.75l59-1.75 3.25-3.75s3.25 4 2.75 8.75-3.75 14.75.25 17.25 19.5-2 24-7-4.75-28.25-10.5-29.5-18.5-1.75-17-7 11.75 4.5 17.25 3.25 16.75-21 12-25.25-24.25-5.25-25.75-8 21-8 22.25-11-2.5-7.25-6.25-8.5-14 16.25-21 15.75-20 5.75-17.25 11.5-6 11-14.5 6.5-24.75-13-21.75-24 21.5-18.75 21.5-18.75zm-13.5625 107.21875c-1.594849.14648-4.46875 4.6875-4.9375 7.03125-.5 2.5-3.25 6.75-3.5 12.25s4.75 6.75 8.75 6.5 2.75-6.75 2-15c-.25 0-.5-10.25-2-10.75-.09375-.0312-.206177-.041-.3125-.0312zm92.71875 51.65625c-6.33545.29541-6.625 7.46875-7.40625 8.875-1.25 2.25 2.25 13.75 2 18s-4.75 5.25-9.5 9.75.5 16 11.25 31l44.75 1.25-1-35s4.75-4.25-20.75-24.25c-9.5625-7.5-15.54248-9.80225-19.34375-9.625zm-149.96875 16.53125c-4.029236-.10254-8.28125 5.71875-9.6875 7.59375-1.5 2-6.25 5-17 9.5l-14.5 34.25 53 4.25s1.75-11-4.25-15.75-17.25-5.75-18.25-13.25 9.25-10 13.75-14.25 2-11.25-2.25-12.25c-.265625-.0625-.543884-.0869-.8125-.0937z"
       fill="#a6dd8b"
       id="path122" />
  </g>
  <path
     d="m158.53125 75.34375c-4.75983-.014343-9.03125.96875-11.53125 3.15625-8 7-35 .75-48.5 7s-13.25 38-14.75 44.5-17.5 20.75-20 23.5-13.25 7.25-19.5 8.5-12.75 7.25-15.5 11c-2.021124 2.75608-7.406019 6.45031-10.125 8.21875-.0458.18128-.07936.34868-.125.53125-.133689.53475-.24712 1.08331-.375 1.625 4.979513-1.60482 11.179508-8.17951 16.625-13.625 6.25-6.25 20-7.75 27.75-11.5s14.25-19.75 26.5-23.75 21.25 11.75 24.25 18.5 1.75 12.75 3.75 17 11 11.75 11.5 13.5-5 6.5-6.25 8.5-10.5 7-11.75 8.75c-.96568 1.35195-1.92316 6.77314-2.3125 9.21875.41303-.1692.75418-.31053 1.125-.46875.484-2.52933 1.51549-7.07799 2.9375-8.5 2-2 11.25-4.5 12.5-8.5s7-6.5 7-6.5 2.75 4 16 14c8.83333 6.66667 12.7581 15.53356 14.40625 20.71875.6736.17065 1.53295.4094 2.03125.53125-1.22115-4.31871-4.83646-16.23885-8.9375-20.75-5-5.5-18.5-10.75-22.75-22s-24.5-34.25-17.5-40.25 16.5-4 28.5 7.5 46.25 5.75 57.75 3.75c9.95453-1.73122 20.83445 14.88321 23.90625 26.03125.589-2.09567 1.12663-4.00219 1.65625-5.75-1.73806-1.9258-3.69722-4.61996-5.3125-8.28125-3.75-8.5-12-13.25-12-13.25s8.75-5 14.75-7.75c1.61703-.74114 3.00627-1.67713 4.1875-2.65625-.16234-.77403-.25893-1.25585-.4375-2.09375-.0311-.14611-.062-.29154-.0937-.4375-4.76565 5.5624-19.23226 9.61532-21.65625 10.9375-2.75 1.5-18.25 3-35.75 4.5s-26.75-7.5-34.25-14.75-13-36-3-38 20 13.75 30 17 21.5-15.75 19.75-27c-1.20312-7.734375-13.99713-12.624695-24.46875-12.65625zm-53.34375 13.28125c1.27533.0015 5.85938 1.59375 6.5625 2.375 2.25 2.5 2 7.25 0 8s-12.75 8-10.5 14.25 1.75 18-3.5 18-8 0-10-2.5-2-12 0-19.75 3.5-15 8-18.25c3.09375-2.23438 6.63177-2.128357 9.4375-2.125zm13.59375 73.09375c.20325.0137 1.90625 3.51563 4.71875 7.03125 3 3.75 3.25 8.25 3.25 8.25s-4.25-4.75-6-8-2-7.25-2-7.25c0-.0312.0178-.0323.0312-.0312z"
     fill="#aac3e7"
     id="path126" />
  <g
     fill="none"
     id="g160">
    <g
       stroke="#6d7f42"
       id="g152">
      <path
         d="m122.75 62.25c6.25.5 12.25-2.25 10.75-6.5s-12.5-7.25-13.25-3 2 10.5 2.5 9.5z"
         opacity=".386957"
         stroke-linecap="round"
         stroke-linejoin="round"
         id="path128" />
      <path
         d="m108.75 46.75c-8.5-5.5-8.5-7.25-7-8s10.25 5 12.75 8-2.25 2-5.75 0z"
         opacity=".386957"
         stroke-linecap="round"
         stroke-linejoin="round"
         id="path130" />
      <g
         clip-path="url(#w)"
         transform="translate(0 -10)"
         id="g150">
        <path
           d="m15.75 151.25c33-2.5 38.25-3.5 36.25-10.25s-8.75-23.5-23-22.5-22.75-6.75-22.75-6.75"
           opacity=".386957"
           stroke-linecap="round"
           stroke-linejoin="round"
           id="path132" />
        <path
           d="m17.5 177.25c18.25-10 28.75-8.5 35-11.5s13.25-5.75 15.75-9.5 5.75-11.5 5.75-18-3.5-36 3.25-43.5 17.25-26 26-23.25 12.25 9.75 22 9.5 21.75-4 24.25-12.25-15.75-16-16-23 5.5-14.25 20.25-17 23.5-11.5 23.5-11.5"
           opacity=".386957"
           id="path134" />
        <g
           stroke-linecap="round"
           stroke-linejoin="round"
           id="g148">
          <path
             d="m14.5 161c15.25-1.5 22.25 3.5 31.5 1.75s13.25-3 17.75-5.75 6-3.75 6.25-6.5 1-12.5-3-22-12.5-31.5-8.25-38.75 5.25-21.5 15.75-24.5 21-6.25 27.75-1.25 12.75 14.25 20 14.5 11.75-1.5 14.5-4.5 4.5-10.25 1.75-13.75-15.5-5.5-17.25-9.5-10.75-17-.25-26.75 36.25-8.25 36.25-8.25"
             opacity=".386957"
             id="path136" />
          <path
             d="m21.25 159c13.75 1 21.5 4.25 33.5-.5s13.5-5.25 13.75-8.75-.25-15.75-3-20-13-13.75-15.75-24.25.25-41 8.5-48.25 32-7.25 37.5-10.5 5.25-16.75 13-24.5 27-12.2500003 27-12.2500003"
             opacity=".386957"
             id="path138" />
          <path
             d="m190 18.5c11.75 5 39 9.75 47.25 40.25"
             opacity=".386957"
             id="path140" />
          <path
             d="m9.75 214c19-12.5 36-1.25 49-4s38.25-37.25 46-37 5.5-11.75 8.5-13.25 5.5 6 11.75 8 24.5-2.75 23.5-5.75-7-7.75-5.5-8.5 8.5 5 12.75 3.5 43.75-1 48.5-13.5 21.5-13.5 21.5-13.5"
             opacity=".386957"
             id="path142" />
          <path
             d="m77.5 233.5c13.5-11.5 23.25-25 28.5-27s12.75-3.75 15.75-8 2.5-10.75 5.25-12 3.75 5.75 8.75 6 36.75-5 42.75-11.75 32.25-12.5 32.5-14.5-1-4.75.25-5.5 24.75-6 24.75-6"
             opacity=".386957"
             id="path144" />
          <path
             d="m168.75 236c9-13.75 20.5-41 29.5-42s10.25-2.5 12.5-4.25 17 2.25 17 2.25"
             opacity=".386957"
             id="path146" />
        </g>
      </g>
    </g>
    <g
       clip-path="url(#x)"
       stroke="#d38484"
       stroke-linecap="round"
       stroke-width="2"
       transform="translate(0 -10)"
       id="g158">
      <path
         d="m57.75 20-8.5 28.25 18 6.25 7.75 36.25-21 22.25 9 10.5-12 11.5.5 4.5 20.25 24.5 14-6.75 20.5 18.5-10.5 28.25 10.25 8.5-2.75 13"
         id="path154" />
      <path
         d="m105.75 212.25 12.5-27.75 11-7 27.5 15.75 20.5-3.75-.25-15.75-10.25-6 12.75-26.25 5.75-3.75 38.75-10"
         id="path156" />
    </g>
  </g>
  <path
     inkscape:connector-curvature="0"
     style="opacity:0.03913;fill:url(#v)"
     id="path182"
     d="m 9,2.25 c 0,0 7.5,13 11.75,27.75 C 25,44.75 27,55.5 27,55.5 c 0,0 -5.5,12.75 -8.25,24.75 -2.75,12 -5.75,23 -5.75,23 0,0 5.75,16 9.25,30 3.5,14 3.75,24.25 3.75,24.25 0,0 -4,10.25 -7.5,24.25 -3.5,14 -5,30.75 -5,30.75 0,0 9.25,-2 28.5,1.25 19.25,3.25 32.25,6 32.25,6 0,0 12.75,-2.75 24,-6.25 11.25,-3.5 16.25,-6.5 16.25,-6.5 0,0 5.5,0.5 22.5,6.25 17,5.75 29.25,8.5 29.25,8.5 0,0 13,-2.75 26,-5.75 13,-3 26.5,-8 26.5,-8 0,0 -0.75,-5 4.25,-24.5 5,-19.5 8.75,-28 8.75,-28 0,0 -0.5,-4.5 -3.75,-19.75 C 224.75,120.5 218,106 218,106 c 0,0 1.75,-10.5 6.75,-23.75 C 229.75,69 235,55.5 235,55.5 c 0,0 -4.75,-15.25 -7.5,-29.75 C 224.75,11.25 219.25,0 219.25,0 c 0,0 -24.25,9 -31.75,10.5 -7.5,1.5 -21,5.25 -21,5.25 0,0 -9.75,-4.25 -22,-8.5 -12.25,-4.25 -29.75,-5.5 -29.75,-5.5 0,0 -3.25,3.5 -22,8 -18.75,4.5 -27.5,5.75 -27.5,5.75 0,0 -18.5,-9 -31.5,-11.5 C 20.75,1.5 9.75,2 9,2.25 Z" />
  <g
     transform="translate(0 182)"
     id="g202"
     opacity=".269566">
    <path
       d="m219.25-182s-24.25 9-31.75 10.5-21 5.25-21 5.25c4.92395-1.35833 11.43679 45.39247 14.25 52.25l-.0625.28125c11.80794-4.07379 51.21047-4.76768 54.3125-12.78125 0 0-4.75-15.25-7.5-29.75s-8.25-25.75-8.25-25.75z"
       id="path186"
       fill="url(#n)" />
    <path
       d="m27-126.5s-5.5 12.75-8.25 24.75-5.75 23-5.75 23l50.625 16.28125 15.78125-58.90625z"
       id="path188"
       fill="url(#o)" />
    <path
       d="m26-24.5s-4 10.25-7.5 24.25-5 30.75-5 30.75.146973-.0454.4375-.0937c2.033691-.33838 11.21875-1.5 28.0625 1.34375 19.25 3.25 32.25 6 32.25 6l1.46875-52.5-.75.125z"
       id="path190"
       fill="url(#p)" />
    <path
       d="m114.75-180.25s-3.25 3.5-22 8c-18.749997 4.5-27.5 5.75-27.5 5.75 5.182295 14.70354 12.029793 29.27003 14.25 44.75l-.09375.3125 48.03125-3.9375 1.125.25c-3.36248-13.3228-7.79603-54.59189-13.8125-55.125z"
       id="path192"
       fill="url(#q)" />
    <path
       d="m117.59375-78.09375-53.625 15.71875-.34375-.09375-.125.46875 12.25 46.5-.03125.75 49.46875-8.875.53125.1875.0312-.0625-8.25-54.25.0937-.34375z"
       id="path194"
       fill="url(#r)" />
    <path
       d="m128.5625-125.125c.2342.92795.46352 1.74163.6875 2.375l-11.65625 44.65625.0937-.0312 51.8125 17.375 11.1875-52.96875c-.35691.12314-.69529.24538-1 .375l-51.125-11.78125z"
       id="path196"
       fill="url(#s)" />
    <path
       d="m125.53125-23.5-11.03125 48.5s5.5.5 22.5 6.25c2.125.71875 4.16309 1.40576 6.125 2.03125s3.85547 1.18555 5.625 1.71875c10.61719 3.19922 17.5 4.75 17.5 4.75l12.71875-45.40625c-.51226.18264-1.01849.381-1.53125.5625z"
       id="path198"
       fill="url(#t)" />
    <path
       d="m218-76c-15.66556 6.28803-31.69786 11.14964-48.0625 15.40625l-.4375-.15625 9.5 55-.0312.0937c17.83902-6.36013 35.38148-13.3867 52.78125-20.84375 0 0-.5-4.5-3.75-19.75-3.25005-15.24995-10.00005-29.74995-10.00005-29.74995z"
       id="path200"
       fill="url(#u)" />
  </g>
  <g
     opacity=".043478"
     transform="translate(0 182)"
     id="g220">
    <path
       d="m13.71875-179.96875c-1.10624-.003-1.972215.0321-2.71875.0625-.44524.0181-.855414.039-1.15625.0625-.02929.002-.06595-.002-.09375 0-.397949.0327-.65625.0625-.75.0937 0 0 7.5 13 11.75 27.75 4.25 14.75005 6.25 25.50005 6.25 25.50005l51.46875 5.125.9375-.0625.09375-.3125c-2.220207-15.47997-9.067705-30.04646-14.25-44.75 0 0-18.5-9-31.5-11.5-1.018266-.19582-2.01024-.37068-3-.53125-.595613-.0967-1.166881-.19638-1.75-.28125-.236584-.0344-.453191-.0612-.6875-.0937-1.306478-.18185-2.588005-.34039-3.8125-.46875-.734553-.077-1.394596-.12759-2.09375-.1875-.684889-.0591-1.352939-.11189-2-.15625-.991872-.0678-1.890406-.11834-2.78125-.15625-1.456368-.0631-2.769165-.0907-3.90625-.0937z"
       fill="url(#f)"
       id="path204" />
    <path
       d="m13-78.75s5.75 16 9.25 30 3.75 24.25 3.75 24.25l48.96875 9.875.75-.125.03125-.75-12.25-46.5.125-.46875z"
       fill="url(#g)"
       id="path206" />
    <path
       d="m127.4375-125.375-47.96875 4h-.0625l-15.78125 58.90625.34375.09375 53.625-15.71875 11.65625-44.65625c-.22398-.63337-.4533-1.44705-.6875-2.375z"
       fill="url(#h)"
       id="path208" />
    <path
       d="m125.1875-23.625-49.46875 8.875-1.46875 52.5s12.750003-2.75 24-6.25c11.25-3.5 16.25-6.5 16.25-6.5l11.21875-48.4375z"
       fill="url(#i)"
       id="path210" />
    <path
       d="m114.75-180.25c6.01647.53311 10.45002 41.8022 13.8125 55.125l51.125 11.78125c.30471-.12962.64309-.25186 1-.375l.0625-.28125c-2.81321-6.85753-9.32605-53.60833-14.25-52.25 0 0-.61328-.25391-1.71875-.71875-3.31641-1.39453-11.09375-4.59375-20.28125-7.78125-12.25-4.25-29.75-5.5-29.75-5.5z"
       fill="url(#j)"
       id="path212" />
    <path
       d="m117.6875-78.125-.0937.0312-.0937.34375 8.25 53.25-.21875 1 51.90625 18.40625c.51276-.1815 1.01899-.37986 1.53125-.5625l.03115-.0937-9.5-55z"
       fill="url(#k)"
       id="path214" />
    <path
       d="m231.75-26.5c-17.39977 7.45705-34.94223 14.48362-52.78125 20.84375l-12.71875 45.40625s13-2.75 26-5.75 26.5-8 26.5-8-.75-5 4.25-24.5 8.75-28 8.75-28z"
       fill="url(#l)"
       id="path216" />
    <path
       d="m235-126.5c-3.10203 8.01357-42.50456 8.70746-54.3125 12.78125l-11.1875 52.96875.4375.15625c16.36464-4.25661 32.39694-9.11822 48.0625-15.40625 0 0 1.75-10.5 6.75-23.75s10.25-26.75 10.25-26.75z"
       fill="url(#m)"
       id="path218" />
  </g>
  <g
     clip-path="url(#V)"
     transform="matrix(1.2525366 .03539823 0 1.2525366 -27.80947 -48.34395)"
     id="g302">
    <path
       d="m9 12.25s7.5 13 11.75 27.75 6.25 25.5 6.25 25.5-5.5 12.75-8.25 24.75-5.75 23-5.75 23 5.75 16 9.25 30 3.75 24.25 3.75 24.25-4 10.25-7.5 24.25-5 30.75-5 30.75 9.25-2 28.5 1.25 32.25 6 32.25 6 12.75-2.75 24-6.25 16.25-6.5 16.25-6.5 5.5.5 22.5 6.25 29.25 8.5 29.25 8.5 13-2.75 26-5.75 26.5-8 26.5-8-.75-5 4.25-24.5 8.75-28 8.75-28-.5-4.5-3.75-19.75-10-29.75-10-29.75 1.75-10.5 6.75-23.75 10.25-26.75 10.25-26.75-4.75-15.25-7.5-29.75-8.25-25.75-8.25-25.75-24.25 9-31.75 10.5-21 5.25-21 5.25-9.75-4.25-22-8.5-29.75-5.5-29.75-5.5-3.25 3.5-22 8-27.5 5.75-27.5 5.75-18.5-9-31.5-11.5-24-2-24.75-1.75z"
       fill="#ceeeab"
       id="path222" />
    <g
       clip-path="url(#R)"
       id="g226">
      <path
         d="m110.75 5.5-4.25 7c-.75 9-2.25 13.75-8.5 16.5s-12.25 3.5-11 7.5 13 9.25 14.25 13 8.25 1.75 11 7 2 15.25-3.75 17.25-17.5.5-20.25 9.5-4.75 10.5-9 12.75-7.25 10.5-3.5 16.5 12.25-1.25 15-6.5 7.25-8.75 7.25-8.75h23.75l59-1.75 3.25-3.75s3.25 4 2.75 8.75-3.75 14.75.25 17.25 19.5-2 24-7-4.75-28.25-10.5-29.5-18.5-1.75-17-7 11.75 4.5 17.25 3.25 16.75-21 12-25.25-24.25-5.25-25.75-8 21-8 22.25-11-2.5-7.25-6.25-8.5-14 16.25-21 15.75-20 5.75-17.25 11.5-6 11-14.5 6.5-24.75-13-21.75-24 21.5-18.75 21.5-18.75zm-13.5625 107.21875c-1.594849.14648-4.46875 4.6875-4.9375 7.03125-.5 2.5-3.25 6.75-3.5 12.25s4.75 6.75 8.75 6.5 2.75-6.75 2-15c-.25 0-.5-10.25-2-10.75-.09375-.0312-.206177-.041-.3125-.0312zm92.71875 51.65625c-6.33545.29541-6.625 7.46875-7.40625 8.875-1.25 2.25 2.25 13.75 2 18s-4.75 5.25-9.5 9.75.5 16 11.25 31l44.75 1.25-1-35s4.75-4.25-20.75-24.25c-9.5625-7.5-15.54248-9.80225-19.34375-9.625zm-149.96875 16.53125c-4.029236-.10254-8.28125 5.71875-9.6875 7.59375-1.5 2-6.25 5-17 9.5l-14.5 34.25 53 4.25s1.75-11-4.25-15.75-17.25-5.75-18.25-13.25 9.25-10 13.75-14.25 2-11.25-2.25-12.25c-.265625-.0625-.543884-.0869-.8125-.0937z"
         fill="#a6dd8b"
         id="path224" />
    </g>
    <path
       d="m158.53125 85.34375c-4.75983-.014343-9.03125.96875-11.53125 3.15625-8 7-35 .75-48.5 7s-13.25 38-14.75 44.5-17.5 20.75-20 23.5-13.25 7.25-19.5 8.5-12.75 7.25-15.5 11c-2.021124 2.75608-7.406019 6.45031-10.125 8.21875-.0458.18128-.07936.34868-.125.53125-.133689.53475-.24712 1.08331-.375 1.625 4.979513-1.60482 11.179508-8.17951 16.625-13.625 6.25-6.25 20-7.75 27.75-11.5s14.25-19.75 26.5-23.75 21.25 11.75 24.25 18.5 1.75 12.75 3.75 17 11 11.75 11.5 13.5-5 6.5-6.25 8.5-10.5 7-11.75 8.75c-.96568 1.35195-1.92316 6.77314-2.3125 9.21875.41303-.1692.75418-.31053 1.125-.46875.484-2.52933 1.51549-7.07799 2.9375-8.5 2-2 11.25-4.5 12.5-8.5s7-6.5 7-6.5 2.75 4 16 14c8.83333 6.66667 12.7581 15.53356 14.40625 20.71875.6736.17065 1.53295.4094 2.03125.53125-1.22115-4.31871-4.83646-16.23885-8.9375-20.75-5-5.5-18.5-10.75-22.75-22s-24.5-34.25-17.5-40.25 16.5-4 28.5 7.5 46.25 5.75 57.75 3.75c9.95453-1.73122 20.83445 14.88321 23.90625 26.03125.589-2.09567 1.12663-4.00219 1.65625-5.75-1.73806-1.9258-3.69722-4.61996-5.3125-8.28125-3.75-8.5-12-13.25-12-13.25s8.75-5 14.75-7.75c1.61703-.74114 3.00627-1.67713 4.1875-2.65625-.16234-.77403-.25893-1.25585-.4375-2.09375-.0311-.14611-.062-.29154-.0937-.4375-4.76565 5.5624-19.23226 9.61532-21.65625 10.9375-2.75 1.5-18.25 3-35.75 4.5s-26.75-7.5-34.25-14.75-13-36-3-38 20 13.75 30 17 21.5-15.75 19.75-27c-1.20312-7.734375-13.99713-12.624695-24.46875-12.65625zm-53.34375 13.28125c1.27533.0015 5.85938 1.59375 6.5625 2.375 2.25 2.5 2 7.25 0 8s-12.75 8-10.5 14.25 1.75 18-3.5 18-8 0-10-2.5-2-12 0-19.75 3.5-15 8-18.25c3.09375-2.23438 6.63177-2.128357 9.4375-2.125zm13.59375 73.09375c.20325.0137 1.90625 3.51563 4.71875 7.03125 3 3.75 3.25 8.25 3.25 8.25s-4.25-4.75-6-8-2-7.25-2-7.25c0-.0312.0178-.0323.0312-.0312z"
       fill="#aac3e7"
       id="path228" />
    <g
       fill="none"
       id="g262">
      <g
         stroke="#6d7f42"
         id="g254">
        <path
           d="m122.75 72.25c6.25.5 12.25-2.25 10.75-6.5s-12.5-7.25-13.25-3 2 10.5 2.5 9.5z"
           opacity=".386957"
           stroke-linecap="round"
           stroke-linejoin="round"
           id="path230" />
        <path
           d="m108.75 56.75c-8.5-5.5-8.5-7.25-7-8s10.25 5 12.75 8-2.25 2-5.75 0z"
           opacity=".386957"
           stroke-linecap="round"
           stroke-linejoin="round"
           id="path232" />
        <g
           clip-path="url(#S)"
           id="g252">
          <path
             d="m15.75 151.25c33-2.5 38.25-3.5 36.25-10.25s-8.75-23.5-23-22.5-22.75-6.75-22.75-6.75"
             opacity=".386957"
             stroke-linecap="round"
             stroke-linejoin="round"
             id="path234" />
          <path
             d="m17.5 177.25c18.25-10 28.75-8.5 35-11.5s13.25-5.75 15.75-9.5 5.75-11.5 5.75-18-3.5-36 3.25-43.5 17.25-26 26-23.25 12.25 9.75 22 9.5 21.75-4 24.25-12.25-15.75-16-16-23 5.5-14.25 20.25-17 23.5-11.5 23.5-11.5"
             opacity=".386957"
             id="path236" />
          <g
             stroke-linecap="round"
             stroke-linejoin="round"
             id="g250">
            <path
               d="m14.5 161c15.25-1.5 22.25 3.5 31.5 1.75s13.25-3 17.75-5.75 6-3.75 6.25-6.5 1-12.5-3-22-12.5-31.5-8.25-38.75 5.25-21.5 15.75-24.5 21-6.25 27.75-1.25 12.75 14.25 20 14.5 11.75-1.5 14.5-4.5 4.5-10.25 1.75-13.75-15.5-5.5-17.25-9.5-10.75-17-.25-26.75 36.25-8.25 36.25-8.25"
               opacity=".386957"
               id="path238" />
            <path
               d="m21.25 159c13.75 1 21.5 4.25 33.5-.5s13.5-5.25 13.75-8.75-.25-15.75-3-20-13-13.75-15.75-24.25.25-41 8.5-48.25 32-7.25 37.5-10.5 5.25-16.75 13-24.5 27-12.2500003 27-12.2500003"
               opacity=".386957"
               id="path240" />
            <path
               d="m190 18.5c11.75 5 39 9.75 47.25 40.25"
               opacity=".386957"
               id="path242" />
            <path
               d="m9.75 214c19-12.5 36-1.25 49-4s38.25-37.25 46-37 5.5-11.75 8.5-13.25 5.5 6 11.75 8 24.5-2.75 23.5-5.75-7-7.75-5.5-8.5 8.5 5 12.75 3.5 43.75-1 48.5-13.5 21.5-13.5 21.5-13.5"
               opacity=".386957"
               id="path244" />
            <path
               d="m77.5 233.5c13.5-11.5 23.25-25 28.5-27s12.75-3.75 15.75-8 2.5-10.75 5.25-12 3.75 5.75 8.75 6 36.75-5 42.75-11.75 32.25-12.5 32.5-14.5-1-4.75.25-5.5 24.75-6 24.75-6"
               opacity=".386957"
               id="path246" />
            <path
               d="m168.75 236c9-13.75 20.5-41 29.5-42s10.25-2.5 12.5-4.25 17 2.25 17 2.25"
               opacity=".386957"
               id="path248" />
          </g>
        </g>
      </g>
      <g
         clip-path="url(#T)"
         stroke="#d38484"
         stroke-linecap="round"
         stroke-width="2"
         id="g260">
        <path
           d="m57.75 20-8.5 28.25 18 6.25 7.75 36.25-21 22.25 9 10.5-12 11.5.5 4.5 20.25 24.5 14-6.75 20.5 18.5-10.5 28.25 10.25 8.5-2.75 13"
           id="path256" />
        <path
           d="m105.75 212.25 12.5-27.75 11-7 27.5 15.75 20.5-3.75-.25-15.75-10.25-6 12.75-26.25 5.75-3.75 38.75-10"
           id="path258" />
      </g>
    </g>
    <path
       d="m9 12.25s7.5 13 11.75 27.75 6.25 25.5 6.25 25.5-5.5 12.75-8.25 24.75-5.75 23-5.75 23 5.75 16 9.25 30 3.75 24.25 3.75 24.25-4 10.25-7.5 24.25-5 30.75-5 30.75 9.25-2 28.5 1.25 32.25 6 32.25 6 12.75-2.75 24-6.25 16.25-6.5 16.25-6.5 5.5.5 22.5 6.25 29.25 8.5 29.25 8.5 13-2.75 26-5.75 26.5-8 26.5-8-.75-5 4.25-24.5 8.75-28 8.75-28-.5-4.5-3.75-19.75-10-29.75-10-29.75 1.75-10.5 6.75-23.75 10.25-26.75 10.25-26.75-4.75-15.25-7.5-29.75-8.25-25.75-8.25-25.75-24.25 9-31.75 10.5-21 5.25-21 5.25-9.75-4.25-22-8.5-29.75-5.5-29.75-5.5-3.25 3.5-22 8-27.5 5.75-27.5 5.75-18.5-9-31.5-11.5-24-2-24.75-1.75z"
       fill="url(#U)"
       opacity=".03913"
       id="path264" />
    <g
       opacity=".269566"
       transform="translate(0 192)"
       id="g282">
      <path
         d="m219.25-182s-24.25 9-31.75 10.5-21 5.25-21 5.25c4.92395-1.35833 11.43679 45.39247 14.25 52.25l-.0625.28125c11.80794-4.07379 51.21047-4.76768 54.3125-12.78125 0 0-4.75-15.25-7.5-29.75s-8.25-25.75-8.25-25.75z"
         fill="url(#n)"
         id="path266" />
      <path
         d="m27-126.5s-5.5 12.75-8.25 24.75-5.75 23-5.75 23l50.625 16.28125 15.78125-58.90625z"
         fill="url(#o)"
         id="path268" />
      <path
         d="m26-24.5s-4 10.25-7.5 24.25-5 30.75-5 30.75.146973-.0454.4375-.0937c2.033691-.33838 11.21875-1.5 28.0625 1.34375 19.25 3.25 32.25 6 32.25 6l1.46875-52.5-.75.125z"
         fill="url(#p)"
         id="path270" />
      <path
         d="m114.75-180.25s-3.25 3.5-22 8c-18.749997 4.5-27.5 5.75-27.5 5.75 5.182295 14.70354 12.029793 29.27003 14.25 44.75l-.09375.3125 48.03125-3.9375 1.125.25c-3.36248-13.3228-7.79603-54.59189-13.8125-55.125z"
         fill="url(#q)"
         id="path272" />
      <path
         d="m117.59375-78.09375-53.625 15.71875-.34375-.09375-.125.46875 12.25 46.5-.03125.75 49.46875-8.875.53125.1875.0312-.0625-8.25-54.25.0937-.34375z"
         fill="url(#r)"
         id="path274" />
      <path
         d="m128.5625-125.125c.2342.92795.46352 1.74163.6875 2.375l-11.65625 44.65625.0937-.0312 51.8125 17.375 11.1875-52.96875c-.35691.12314-.69529.24538-1 .375l-51.125-11.78125z"
         fill="url(#s)"
         id="path276" />
      <path
         d="m125.53125-23.5-11.03125 48.5s5.5.5 22.5 6.25c2.125.71875 4.16309 1.40576 6.125 2.03125s3.85547 1.18555 5.625 1.71875c10.61719 3.19922 17.5 4.75 17.5 4.75l12.71875-45.40625c-.51226.18264-1.01849.381-1.53125.5625z"
         fill="url(#t)"
         id="path278" />
      <path
         d="m218-76c-15.66556 6.28803-31.69786 11.14964-48.0625 15.40625l-.4375-.15625 9.5 55-.0312.0937c17.83902-6.36013 35.38148-13.3867 52.78125-20.84375 0 0-.5-4.5-3.75-19.75-3.25005-15.24995-10.00005-29.74995-10.00005-29.74995z"
         fill="url(#u)"
         id="path280" />
    </g>
    <g
       opacity=".043478"
       transform="translate(0 192)"
       id="g300">
      <path
         d="m13.71875-179.96875c-1.10624-.003-1.972215.0321-2.71875.0625-.44524.0181-.855414.039-1.15625.0625-.02929.002-.06595-.002-.09375 0-.397949.0327-.65625.0625-.75.0937 0 0 7.5 13 11.75 27.75 4.25 14.75005 6.25 25.50005 6.25 25.50005l51.46875 5.125.9375-.0625.09375-.3125c-2.220207-15.47997-9.067705-30.04646-14.25-44.75 0 0-18.5-9-31.5-11.5-1.018266-.19582-2.01024-.37068-3-.53125-.595613-.0967-1.166881-.19638-1.75-.28125-.236584-.0344-.453191-.0612-.6875-.0937-1.306478-.18185-2.588005-.34039-3.8125-.46875-.734553-.077-1.394596-.12759-2.09375-.1875-.684889-.0591-1.352939-.11189-2-.15625-.991872-.0678-1.890406-.11834-2.78125-.15625-1.456368-.0631-2.769165-.0907-3.90625-.0937z"
         fill="url(#f)"
         id="path284" />
      <path
         d="m13-78.75s5.75 16 9.25 30 3.75 24.25 3.75 24.25l48.96875 9.875.75-.125.03125-.75-12.25-46.5.125-.46875z"
         fill="url(#g)"
         id="path286" />
      <path
         d="m127.4375-125.375-47.96875 4h-.0625l-15.78125 58.90625.34375.09375 53.625-15.71875 11.65625-44.65625c-.22398-.63337-.4533-1.44705-.6875-2.375z"
         fill="url(#h)"
         id="path288" />
      <path
         d="m125.1875-23.625-49.46875 8.875-1.46875 52.5s12.750003-2.75 24-6.25c11.25-3.5 16.25-6.5 16.25-6.5l11.21875-48.4375z"
         fill="url(#i)"
         id="path290" />
      <path
         d="m114.75-180.25c6.01647.53311 10.45002 41.8022 13.8125 55.125l51.125 11.78125c.30471-.12962.64309-.25186 1-.375l.0625-.28125c-2.81321-6.85753-9.32605-53.60833-14.25-52.25 0 0-.61328-.25391-1.71875-.71875-3.31641-1.39453-11.09375-4.59375-20.28125-7.78125-12.25-4.25-29.75-5.5-29.75-5.5z"
         fill="url(#j)"
         id="path292" />
      <path
         d="m117.6875-78.125-.0937.0312-.0937.34375 8.25 53.25-.21875 1 51.90625 18.40625c.51276-.1815 1.01899-.37986 1.53125-.5625l.03115-.0937-9.5-55z"
         fill="url(#k)"
         id="path294" />
      <path
         d="m231.75-26.5c-17.39977 7.45705-34.94223 14.48362-52.78125 20.84375l-12.71875 45.40625s13-2.75 26-5.75 26.5-8 26.5-8-.75-5 4.25-24.5 8.75-28 8.75-28z"
         fill="url(#l)"
         id="path296" />
      <path
         d="m235-126.5c-3.10203 8.01357-42.50456 8.70746-54.3125 12.78125l-11.1875 52.96875.4375.15625c16.36464-4.25661 32.39694-9.11822 48.0625-15.40625 0 0 1.75-10.5 6.75-23.75s10.25-26.75 10.25-26.75z"
         fill="url(#m)"
         id="path298" />
    </g>
  </g>
  <path
     clip-path="url(#Z)"
     d="m174.28125 35.875c-17.59875 0-35.19216 6.639475-48.71875 19.90625-.16722.163278-.33437.303117-.5.46875-22.05595 22.055948-26.208705 55.25122-12.46875 81.5l-2.28125 1.625c2.24879 4.23988 4.94165 8.3068 8.09375 12.125l-13.3125 13.34375c-1.34137-.58575-2.78858-1.03331-4.5625-1.375l-2.84375 2.84375c-1.109469-.48387-2.138019-.81588-3.0625-.875l-64.125 64.125c-.03687 1.10087.22615 2.18738.65625 3.28125l-.53125.53125-1.09375 1.09375c.715438 3.7378 2.010432 6.82294 5.46875 10.28125 3.458318 3.45832 6.420414 4.63027 10.28125 5.46875l1.09375-1.09375.71875-.71875c1.088203.46225 2.129899.78617 3.09375.84375l64.125-64.125c-.24286-.97475-.62043-1.93546-1.03125-2.90625l3-3c-.24983-1.73198-.67671-3.19803-1.3125-4.59375l13.28125-13.28125c3.8182 3.1521 7.88512 5.84497 12.125 8.09375l1.625-2.28125c26.24878 13.73995 59.44405 9.58719 81.5-12.46875.16563-.16564.30547-.33278.46875-.5 26.69417-27.21696 26.54861-70.920148-.46875-97.9375-13.58996-13.589959-31.40693-20.375-49.21875-20.375zm-.5 3.28125c.10467.0015.20783-.002.3125 0 .94919.0184 1.89538.06527 2.84375.125.95844.06036 1.9188.147513 2.875.25.0937.01005.18754.0208.28125.03125.094.01048.1873.02037.28125.03125.1457.01688.29187.04464.4375.0625.8962.109902 1.79491.228119 2.6875.375.61909.101874 1.22687.224117 1.84375.34375.34295.06644.68907.11558 1.03125.1875.7237.152111 1.43647.323392 2.15625.5.31305.07681.62528.137311.9375.21875.0731.01906.1457.04319.21875.0625.9559.252837 1.89673.516294 2.84375.8125.0724.02261.14641.03963.21875.0625.94741.299842 1.90684.625541 2.84375.96875.0531.01945.10323.04291.15625.0625.95458.352395 1.90174.727633 2.84375 1.125.0515.02172.10478.04064.15625.0625.94184.400051 1.88491.836281 2.8125 1.28125.042.02016.083.04225.125.0625.93538.451087 1.86208.909529 2.78125 1.40625.0331.01788.0607.04456.0937.0625.92681.502833 1.84142 1.013321 2.75 1.5625.0321.01939.0617.04305.0937.0625.9081.550934 1.79937 1.121562 2.6875 1.71875.54895.369074 1.0842.76954 1.625 1.15625.3647.260827.73291.512412 1.09375.78125.0185.01381.044.01742.0625.03125.87764.655206 1.74021 1.359931 2.59375 2.0625 1.74268 1.434371 3.43142 2.962673 5.0625 4.59375 1.62048 1.62048 3.13618 3.300564 4.5625 5.03125.009.01124.022.02.0312.03125.70321.854357 1.40674 1.715235 2.0625 2.59375.28277.378769.53857.773223.8125 1.15625.36973.517057.74014 1.037986 1.09375 1.5625.0162.02399.0464.03849.0625.0625.59812.889626 1.16704 1.777833 1.71875 2.6875.0195.03207.0431.06166.0625.09375.54559.902919 1.06267 1.829073 1.5625 2.75.0179.03294.0447.06079.0625.09375.498.921212.95408 1.843744 1.40625 2.78125.0202.04194.0424.08302.0625.125.44611.929867.88027 1.868304 1.28125 2.8125.0218.05123.0409.104977.0625.15625.3948.936122.77461 1.895211 1.125 2.84375.0194.05253.0432.103686.0625.15625.34761.94836.66558 1.884632.96875 2.84375.0227.07167.0401.147026.0625.21875.29398.941172.56134 1.893822.8125 2.84375.0195.07353.0433.145172.0625.21875.0807.309554.14258.627132.21875.9375.17661.719779.34789 1.432546.5 2.15625.0719.342177.12106.688299.1875 1.03125.11963.616882.24188 1.224661.34375 1.84375.14688.892594.2651 1.791302.375 2.6875.0179.145959.0456.291463.0625.4375.0108.09329.0208.187929.0312.28125.0105.09398.0212.187243.0312.28125.10249.9562.18964 1.91656.25 2.875.0592.94244.10661 1.90049.125 2.84375.002.10413-.002.20837 0 .3125.0154 1.05333.004 2.10385-.0312 3.15625-.0316.93056-.0847 1.85279-.15625 2.78125-.01.12493-.0209.25012-.0312.375-.0761.91807-.16591 1.8354-.28125 2.75-.1206.95626-.27395 1.92393-.4375 2.875-.0142.0824-.0168.16767-.0312.25-.022.12485-.0397.25026-.0625.375-.16526.90778-.3579 1.81727-.5625 2.71875-.0306.13463-.0623.27178-.0937.40625-.20775.88866-.44134 1.7751-.6875 2.65625-.16391.58672-.35028 1.16705-.53125 1.75-.17541.56412-.33984 1.12724-.53125 1.6875-.29467.86381-.60475 1.70882-.9375 2.5625-.0606.15549-.12566.31362-.1875.46875-.0449.11246-.0795.23148-.125.34375-.3561.87862-.72813 1.7276-1.125 2.59375-.37698.82347-.7736 1.62644-1.1875 2.4375-.0805.15778-.16807.31147-.25.46875-.41528.7974-.82998 1.59095-1.28125 2.375-.0952.16556-.1844.33506-.28125.5-.19907.33885-.41915.66384-.625 1-.36165.59093-.74237 1.16777-1.125 1.75-.005.007.005.0238 0 .0312-.49081.74574-1.00593 1.48819-1.53125 2.21875-.45727.63592-.95404 1.25128-1.4375 1.875-.19696.25409-.36119.52926-.5625.78125-.13402.16779-.2703.33315-.40625.5-.16351.20064-.3337.39451-.5.59375-.55662.66705-1.13079 1.31785-1.71875 1.96875-.60631.67104-1.23531 1.34705-1.875 2-.16096.16426-.30567.33692-.46875.5-21.13035 21.13035-52.25869 24.49488-77.1875 11.15625l.125-.1875c-3.70417-1.89661-7.26167-4.14046-10.625-6.78125-.53892-.42315-1.06537-.86982-1.59375-1.3125-.51441-.43097-1.0273-.8629-1.53125-1.3125-.0929-.0836-.18872-.1658-.28125-.25-.82173-.74776-1.61189-1.51814-2.40625-2.3125s-1.56473-1.58452-2.3125-2.40625c-.0842-.0925-.16639-.18838-.25-.28125-.4496-.50395-.88153-1.01684-1.3125-1.53125-.44268-.52838-.88935-1.05483-1.3125-1.59375-2.64079-3.36333-4.88464-6.92084-6.78125-10.625l-.1875.125c-13.33863-24.92881-9.9741-56.057154 11.15625-77.1875.16308-.16308.33574-.307785.5-.46875.65295-.639685 1.32896-1.268689 2-1.875.6509-.587956 1.3017-1.162134 1.96875-1.71875.27214-.227086.53777-.465624.8125-.6875.34347-.277429.71509-.511958 1.0625-.78125.62372-.483463 1.23908-.980231 1.875-1.4375.73753-.530331 1.497-1.03609 2.25-1.53125.58223-.382634 1.15907-.763354 1.75-1.125.44667-.27336.89235-.551116 1.34375-.8125.68145-.394786 1.37084-.757473 2.0625-1.125.17606-.09355.35456-.18946.53125-.28125.94525-.490975 1.88143-.9657 2.84375-1.40625.86615-.396875 1.71513-.7689 2.59375-1.125.15281-.06193.31559-.09555.46875-.15625.96839-.384022 1.92468-.758909 2.90625-1.09375.56026-.191407 1.12338-.355843 1.6875-.53125.58295-.180968 1.16328-.367339 1.75-.53125.88115-.246163 1.76759-.479746 2.65625-.6875.0711-.01664.14757-.01486.21875-.03125.41593-.09574.83264-.193899 1.25-.28125.67213-.140825 1.35582-.287161 2.03125-.40625.0823-.01449.16763-.01709.25-.03125.95107-.163551 1.91874-.316902 2.875-.4375 1.96365-.247645 3.92987-.401636 5.90625-.46875 1.0524-.03564 2.10292-.04663 3.15625-.03125z"
     fill="#2d3335"
     filter="url(#Q)"
     transform="matrix(1 .08087767 0 1 0 -21.056305)"
     id="path304" />
  <path
     d="m48.010249 227.45683-4.8075 4.55783c-5.006289-5.31515-10.23997-10.7063-15.079304-16.13311l4.490222-4.07257c6.829157 6.53426 8.872647 8.52989 15.396582 15.64785z"
     fill="url(#F)"
     id="path306" />
  <path
     d="m125.06419 134.68586c-27.179918-27.17992-27.179918-71.247266 0-98.427183 27.17992-27.179918 71.24726-27.179918 98.42718 0 27.17992 27.179917 27.17992 71.247263 0 98.427183-27.17992 27.17991-71.24726 27.17991-98.42718 0zm2.95282-2.95282c26.09272 26.09272 67.41309 27.07699 93.50582.98427 26.09272-26.09272 25.10844-67.413098-.98428-93.505818s-67.4131-27.076992-93.50582-.984272c-26.09272 26.092721-25.10845 67.4131.98428 93.50582z"
     fill="#2d3335"
     id="path330" />
  <path
     d="m125.06412 134.68579c-27.179917-27.17992-27.179917-71.247265 0-98.427182.16563-.165633.32492-.328858.49214-.492136-26.685039 27.217605-26.522152 70.920758.49213 97.935038 27.01429 27.01429 70.71744 27.17718 97.93505.49214-.16328.16722-.32651.3265-.49214.49214-27.17992 27.17991-71.24726 27.17991-98.42718 0zm2.46068-96.950775c.16259-.166528.3271-.327098.49214-.492135 26.09272-26.092721 67.4131-25.108449 93.50582.984271 26.09272 26.092721 27.07699 67.413099.98427 93.505819-.16504.16504-.32561.32955-.49214.49214 25.58741-26.11789 24.45127-67.086009-1.47641-93.013687-25.92767-25.927678-66.89578-27.063803-93.01368-1.476408z"
     fill="#9eaaac"
     id="path332" />
  <path
     d="m127.03273 132.71731c26.09272 26.09272 68.39737 26.09272 94.4901 0 26.09272-26.09272 26.09272-68.397369 0-94.49009-26.09273-26.09272-68.39738-26.09272-94.4901 0-26.09272 26.092721-26.09272 68.39737 0 94.49009z"
     fill="#d0e9f2"
     fill-opacity=".475936"
     id="path334" />
  <path
     d="m127.03273 132.71731c26.09272 26.09272 68.39738 26.09271 94.4901 0 26.09272-26.09272 26.09272-68.397369 0-94.49009-26.09273-26.09272-68.39737-26.092725-94.4901 0-26.09271 26.092711-26.09272 68.39737 0 94.49009z"
     fill="url(#K)"
     id="path336" />
  <path
     d="m116.05195 115.27725-5.75184 4.09088c3.29528 6.21295 7.5633 12.05404 12.79554 17.28627 5.23223 5.23223 11.07332 9.50026 17.28627 12.79553l4.09088-5.75184c-5.92667-3.03457-11.494-7.00326-16.45579-11.96505-4.9618-4.96179-8.93048-10.52913-11.96506-16.45579z"
     fill="url(#J)"
     id="path338" />
  <path
     d="m124.81812 134.93192c1.72916 1.72916 3.08396 3.6709 4.12164 5.72108l-26.20624 26.20624c-2.05018-1.03768-3.991917-2.39248-5.721076-4.12164s-3.08396-3.6709-4.121638-5.72108l26.206234-26.20623c2.05018 1.03767 3.99192 2.39247 5.72108 4.12163z"
     fill="url(#I)"
     id="path340" />
  <path
     d="m116.26672 159.23167-66.068162 66.06817c-3.983869-2.19185-5.831289-3.00043-9.289606-6.45875-3.458318-3.45831-4.266897-5.30573-6.458743-9.2896l66.068161-66.06816c5.06335 3.74802 12.11694 10.39792 15.74835 15.74834z"
     fill="url(#H)"
     id="path342" />
  <path
     d="m105.77884 154.11797c3.45832 3.45832 7.4348 6.66636 8.51934 11.01934l-64.099622 64.09961c-6.516111-5.15502-14.554771-12.79063-19.685436-19.68543l64.099618-64.09962c3.491734.2233 7.65885 5.15887 11.11717 8.61718z"
     fill="url(#G)"
     id="path344" />
  <path
     d="m105.53422 154.36259c3.45832 3.45832 7.67942 6.42174 8.76396 10.77472l-64.099622 64.09961c-7.876925-6.90746-11.797187-10.62442-19.685436-19.68543l64.099618-64.09962c3.491734.2233 7.41424 5.45241 10.87256 8.91072z"
     fill="url(#L)"
     opacity=".595652"
     id="path346" />
  <path
     d="m131.1683 37.049946c40.65864-32.173359 78.1353-12.727922 77.78175 5.303301s-56.56854 70.357123-76.36753 66.114483-25.45585-53.386561-1.41422-71.417784z"
     fill="url(#O)"
     opacity=".604348"
     id="path348" />
  <text
     fill="url(#N)"
     font-family="Sans"
     font-size="19.799732"
     opacity=".46087"
     transform="matrix(.9879609 -.1547039 .1547039 .9879609 0 0)"
     x="99.83886"
     y="69.184349"
     id="text358">
    <tspan
       fill="url(#N)"
       font-family="Monospace"
       font-weight="bold"
       x="99.83886"
       y="69.184349"
       id="tspan350">01011001</tspan>
    <tspan
       fill="url(#N)"
       font-family="Monospace"
       font-weight="bold"
       x="99.83886"
       y="93.934013"
       id="tspan352">00110101</tspan>
    <tspan
       fill="url(#N)"
       font-family="Monospace"
       font-weight="bold"
       x="99.83886"
       y="118.68368"
       id="tspan354">10010011</tspan>
    <tspan
       fill="url(#N)"
       x="99.83886"
       y="143.43335"
       id="tspan356" />
  </text>
  <text
     fill="url(#M)"
     font-family="Sans"
     font-size="19.799732"
     transform="matrix(.9879609 -.1547039 .1547039 .9879609 0 0)"
     x="99.410172"
     y="67.898323"
     id="text368">
    <tspan
       fill="url(#M)"
       font-family="Monospace"
       font-weight="bold"
       x="99.410172"
       y="67.898323"
       id="tspan360">01011001</tspan>
    <tspan
       fill="url(#M)"
       font-family="Monospace"
       font-weight="bold"
       x="99.410172"
       y="92.647987"
       id="tspan362">00110101</tspan>
    <tspan
       fill="url(#M)"
       font-family="Monospace"
       font-weight="bold"
       x="99.410172"
       y="117.39765"
       id="tspan364">10010011</tspan>
    <tspan
       fill="url(#M)"
       x="99.410172"
       y="142.14732"
       id="tspan366" />
  </text>
  <path
     d="m219.46318 129.09019c-26.79401 21.9828-41.80834 21.0073-38.07474 13.13797 3.73361-7.86929 42.32585-41.65518 51.44717-43.7482 9.1213-2.09301 2.27518 18.04121-13.37243 30.61023z"
     fill="url(#P)"
     opacity=".765217"
     id="path370" />
</svg>
