<?xml version="1.0" encoding="UTF-8" standalone="no"?>
<svg
   xmlns:dc="http://purl.org/dc/elements/1.1/"
   xmlns:cc="http://creativecommons.org/ns#"
   xmlns:rdf="http://www.w3.org/1999/02/22-rdf-syntax-ns#"
   xmlns:svg="http://www.w3.org/2000/svg"
   xmlns="http://www.w3.org/2000/svg"
   xmlns:sodipodi="http://sodipodi.sourceforge.net/DTD/sodipodi-0.dtd"
   xmlns:inkscape="http://www.inkscape.org/namespaces/inkscape"
   inkscape:version="1.0 (4035a4fb49, 2020-05-01)"
   sodipodi:docname="other2.svg"
   id="svg6"
   version="1.1"
   width="24"
   viewBox="0 0 24 24"
   height="24"
   enable-background="new 0 0 34 34">
  <metadata
     id="metadata12">
    <rdf:RDF>
      <cc:Work
         rdf:about="">
        <dc:format>image/svg+xml</dc:format>
        <dc:type
           rdf:resource="http://purl.org/dc/dcmitype/StillImage" />
        <dc:title></dc:title>
      </cc:Work>
    </rdf:RDF>
  </metadata>
  <defs
     id="defs10" />
  <sodipodi:namedview
     inkscape:current-layer="svg6"
     inkscape:window-maximized="1"
     inkscape:window-y="-8"
     inkscape:window-x="-8"
     inkscape:cy="18.036237"
     inkscape:cx="15.723184"
     inkscape:zoom="16.66749"
     showgrid="true"
     id="namedview8"
     inkscape:window-height="987"
     inkscape:window-width="1680"
     inkscape:pageshadow="2"
     inkscape:pageopacity="0"
     guidetolerance="10"
     gridtolerance="10"
     objecttolerance="10"
     borderopacity="1"
     bordercolor="#666666"
     pagecolor="#ffffff">
    <inkscape:grid
       id="grid837"
       type="xygrid" />
  </sodipodi:namedview>
  <path
     style="stroke-width:1.19508"
     id="path2"
     d="m 12.293225,2.2635555 c -1.720934,0 -3.157435,0.6011317 -4.3071146,1.5775221 C 6.8364314,4.8174685 6.1635942,5.6098147 5.9699892,8 H 9.479976 C 9.556466,6.8049074 9.842089,6.528841 10.335662,6.0747057 10.829237,5.6205706 11.442318,5.3361386 12.1773,5.3361386 c 0.734982,0 1.333724,0.207946 1.797421,0.6823978 0.46489,0.4732566 0.696738,1.0540718 0.696738,1.7687368 0,0.7146654 -0.223483,1.3074315 -0.666861,1.7914439 l -2.117704,2.1141189 c -0.619057,0.619057 -0.748129,1.116216 -0.932171,1.49267 -0.184046,0.376455 -0.0039,0.948903 -0.0039,1.72213 v 1.458012 h 2.390184 v -0.994317 c 0,-0.772029 0.34538,-1.371966 0.694348,-1.797419 0.133851,-0.154168 0.397966,-0.342991 0.622644,-0.56528 0.222286,-0.223482 0.5354,-0.484012 0.854492,-0.783981 0.319089,-0.298772 0.597545,-0.546156 0.79115,-0.739762 0.192409,-0.192408 0.482817,-0.522256 0.850906,-0.985952 0.636985,-0.7732236 0.962049,-1.7400533 0.962049,-2.9004881 0,-1.6826905 -0.537792,-2.9913169 -1.620546,-3.9306595 C 15.411131,2.7320318 14.014067,2.2635555 12.293133,2.2635555 Z" />
  <path
     style="stroke-width:1.19508"
     id="path4"
     d="m 12.074523,17.734029 c -0.609497,0 -1.130558,0.213922 -1.566767,0.638178 -0.435014,0.425455 -0.652521,0.932174 -0.652521,1.522549 0,0.589181 0.222287,1.092316 0.666862,1.508208 0.444575,0.415893 0.971611,0.622643 1.579912,0.622643 0.609497,0 1.131753,-0.212728 1.566768,-0.636985 0.433818,-0.425454 0.65252,-0.933366 0.65252,-1.522549 0,-0.58918 -0.223481,-1.092314 -0.668058,-1.509401 -0.442184,-0.415891 -0.969219,-0.622643 -1.578716,-0.622643 z" />
</svg>
