<?xml version="1.0" encoding="UTF-8" standalone="no"?>
<svg
   xmlns:dc="http://purl.org/dc/elements/1.1/"
   xmlns:cc="http://creativecommons.org/ns#"
   xmlns:rdf="http://www.w3.org/1999/02/22-rdf-syntax-ns#"
   xmlns:svg="http://www.w3.org/2000/svg"
   xmlns="http://www.w3.org/2000/svg"
   xmlns:sodipodi="http://sodipodi.sourceforge.net/DTD/sodipodi-0.dtd"
   xmlns:inkscape="http://www.inkscape.org/namespaces/inkscape"
   inkscape:version="1.0 (4035a4fb49, 2020-05-01)"
   height="24"
   width="24"
   sodipodi:docname="photo6.svg"
   id="svg4"
   version="1.1"
   viewBox="0 0 24 24"
   enable-background="new 0 0 512 512">
  <metadata
     id="metadata10">
    <rdf:RDF>
      <cc:Work
         rdf:about="">
        <dc:format>image/svg+xml</dc:format>
        <dc:type
           rdf:resource="http://purl.org/dc/dcmitype/StillImage" />
        <dc:title></dc:title>
      </cc:Work>
    </rdf:RDF>
  </metadata>
  <defs
     id="defs8" />
  <sodipodi:namedview
     inkscape:current-layer="svg4"
     inkscape:window-maximized="1"
     inkscape:window-y="-8"
     inkscape:window-x="-8"
     inkscape:cy="18.550631"
     inkscape:cx="12.418095"
     inkscape:zoom="16"
     showgrid="true"
     id="namedview6"
     inkscape:window-height="987"
     inkscape:window-width="1680"
     inkscape:pageshadow="2"
     inkscape:pageopacity="0"
     guidetolerance="10"
     gridtolerance="10"
     objecttolerance="10"
     borderopacity="1"
     bordercolor="#666666"
     pagecolor="#ffffff"
     inkscape:document-rotation="0">
    <inkscape:grid
       id="grid830"
       type="xygrid" />
  </sodipodi:namedview>
  <path
     style="stroke-width:0.0587982"
     id="path2"
     fill="#2175aa"
     d="m 22.276113,18.354434 -5.048688,-5.048785 c -0.298515,-0.298515 -0.782477,-0.298515 -1.080992,0 l -0.880093,0.880092 -0.245595,-0.245595 2.008003,-2.008029 c 0.650606,-0.650606 0.65078,-1.703861 0,-2.3545811 L 16.26608,8.8148595 16.434946,8.6459933 c 1.613361,1.1024125 3.825045,0.9300113 5.244601,-0.4894925 0.298515,-0.2985238 0.298515,-0.7824952 0,-1.0810102 L 19.842345,5.2382704 20.855612,4.2250029 c 0.298515,-0.2985238 0.298515,-0.7824951 0,-1.0810101 -0.298515,-0.2985238 -0.782538,-0.2985238 -1.081,0 L 18.761353,4.1572691 16.924448,2.3203464 c -0.298288,-0.2982875 -0.782548,-0.2984625 -1.081002,0 -1.455248,1.4552564 -1.568673,3.6730754 -0.490201,5.2453455 L 15.185087,7.7338582 14.422359,6.9711207 c -0.649189,-0.6491889 -1.705375,-0.6491364 -2.354564,0 L 10.060142,8.9787908 9.8145387,8.7331958 10.69422,7.8535057 c 0.298515,-0.298515 0.298515,-0.7824863 0,-1.0810013 L 8.1700199,4.2482866 c -6.13e-5,-6.12e-5 -1.138e-4,-1.225e-4 -1.138e-4,-1.75e-4 0,-6.12e-5 -1.224e-4,-1.225e-4 -1.749e-4,-1.225e-4 L 5.6455311,1.7237802 c -0.29834,-0.2982876 -0.7825387,-0.2984626 -1.0810012,0 L 1.7238861,4.5644416 c -0.298515,0.2985238 -0.298515,0.7824952 0,1.0810102 l 5.0486888,5.0487242 c 0.29834,0.29834 0.7825388,0.298463 1.0809925,0 l 0.8799701,-0.8799789 0.2456037,0.2456039 -2.00795,2.007968 c -0.6491888,0.649188 -0.6491888,1.705445 0,2.354581 l 0.7627287,0.762729 -1.6726238,1.672641 c -0.6557775,-0.244195 -1.4235638,-0.103661 -1.9498587,0.422643 -0.7189263,0.718988 -0.7189263,1.888836 0,2.607824 0.7188649,0.718926 1.8888188,0.719048 2.6078588,0 0.5261899,-0.526182 0.6667762,-1.293679 0.4228174,-1.949343 l 1.6727989,-1.672816 0.7626762,0.762676 c 0.6506503,0.650668 1.7038433,0.65072 2.3545553,0 l 2.007599,-2.007609 0.245596,0.245595 -0.879611,0.879629 c -0.298515,0.298515 -0.298515,0.782486 0,1.08101 l 2.553827,2.553846 2.98e-4,2.97e-4 c 0,0 1.74e-4,1.75e-4 2.89e-4,2.89e-4 l 2.494327,2.494344 c 0.298514,0.298525 0.782478,0.298525 1.081001,0 l 2.840644,-2.840661 c 0.298514,-0.298523 0.298514,-0.782548 -1e-6,-1.08101 z M 16.464407,4.0221429 19.976999,7.5347606 C 18.995598,8.0535395 17.749433,7.9003095 16.9245,7.0753682 16.087633,6.2384918 15.950573,4.9897354 16.464407,4.0221429 Z M 8.7335987,7.6521245 7.2902249,6.2087418 7.6294362,5.8695305 9.0728012,7.3129132 Z M 6.5484349,4.7885817 6.2092324,5.127793 4.7658586,3.6844103 5.1050611,3.345199 Z M 3.6848573,4.7653942 5.1282312,6.2087768 4.7887311,6.5482769 3.3453574,5.1048942 Z m 3.6282401,4.3072141 -1.443365,-1.4433826 0.3395,-0.3395 1.443365,1.4433826 z M 5.6383561,18.807151 c -0.1229987,0.123007 -0.3226212,0.123243 -0.4458649,0 -0.1229464,-0.122947 -0.1229464,-0.32298 0,-0.445865 0.1230075,-0.123008 0.3226299,-0.123245 0.4458649,0 0.1230075,0.123007 0.1232438,0.322629 0,0.445865 z m 5.2128479,-2.859483 c -0.05338,0.05328 -0.139292,0.05328 -0.192623,0 L 9.3555662,14.644635 c -6.12e-5,-5.3e-5 -1.225e-4,-1.14e-4 -1.225e-4,-1.75e-4 0,-5.2e-5 -1.138e-4,-1.13e-4 -1.75e-4,-1.13e-4 L 8.0521925,13.341253 c -0.053113,-0.05311 -0.053113,-0.139528 0,-0.192623 L 13.148796,8.051982 c 0.05329,-0.053288 0.139292,-0.053288 0.192623,0 l 2.606388,2.606477 c 0.05302,0.05302 0.05346,0.139063 0,0.19257 l -2.548358,2.548376 c -6.1e-5,6.2e-5 -1.14e-4,1.23e-4 -1.75e-4,1.23e-4 -6.1e-5,0 -1.22e-4,1.13e-4 -1.22e-4,1.74e-4 z m 9.463877,3.286772 -1.413615,-1.413633 0.339553,-0.339553 1.413623,1.413624 z m -3.628126,-4.307337 1.473124,1.473141 -0.339553,0.339561 -1.473123,-1.473141 z m -1.420554,1.420571 1.473124,1.473133 -0.339089,0.339097 -1.473124,-1.473141 z m 2.214975,2.893232 0.339089,-0.339089 1.413615,1.413632 -0.33908,0.339089 z" />
</svg>
