<?xml version="1.0" encoding="UTF-8" standalone="no"?>
<!-- Created with Inkscape (http://www.inkscape.org/) -->

<svg
   xmlns:dc="http://purl.org/dc/elements/1.1/"
   xmlns:cc="http://creativecommons.org/ns#"
   xmlns:rdf="http://www.w3.org/1999/02/22-rdf-syntax-ns#"
   xmlns:svg="http://www.w3.org/2000/svg"
   xmlns="http://www.w3.org/2000/svg"
   xmlns:sodipodi="http://sodipodi.sourceforge.net/DTD/sodipodi-0.dtd"
   xmlns:inkscape="http://www.inkscape.org/namespaces/inkscape"
   width="205.20241"
   height="171.37407"
   id="svg3197"
   version="1.1"
   inkscape:version="0.48.4 r9939"
   sodipodi:docname="New document 2">
  <defs
     id="defs3199" />
  <sodipodi:namedview
     id="base"
     pagecolor="#ffffff"
     bordercolor="#666666"
     borderopacity="1.0"
     inkscape:pageopacity="0.0"
     inkscape:pageshadow="2"
     inkscape:zoom="0.35"
     inkscape:cx="-110.9473"
     inkscape:cy="-71.449229"
     inkscape:document-units="px"
     inkscape:current-layer="layer1"
     showgrid="false"
     fit-margin-top="0"
     fit-margin-left="0"
     fit-margin-right="0"
     fit-margin-bottom="0"
     inkscape:window-width="463"
     inkscape:window-height="453"
     inkscape:window-x="25"
     inkscape:window-y="25"
     inkscape:window-maximized="0" />
  <metadata
     id="metadata3202">
    <rdf:RDF>
      <cc:Work
         rdf:about="">
        <dc:format>image/svg+xml</dc:format>
        <dc:type
           rdf:resource="http://purl.org/dc/dcmitype/StillImage" />
        <dc:title></dc:title>
      </cc:Work>
    </rdf:RDF>
  </metadata>
  <g
     inkscape:label="Layer 1"
     inkscape:groupmode="layer"
     id="layer1"
     transform="translate(-485.9473,-289.53888)">
    <g
       id="g3800"
       inkscape:export-ydpi="82.942017"
       inkscape:export-xdpi="82.942017"
       inkscape:export-filename="C:\Documents and Settings\laurent\Mes documents\dessin 2d\objet\arrosoir1.png"
       transform="matrix(0.67159997,0,0,0.67159997,346.11522,-184.28742)">
      <path
         inkscape:connector-curvature="0"
         id="path2436"
         sodipodi:nodetypes="ccccc"
         style="fill:#a70432;stroke:#000000;stroke-width:1.48899996;stroke-linecap:round;stroke-linejoin:bevel"
         d="m 483.94,785.96 0.72,162.14 c -20.18,13.47 -96.13,17.81 -133.93,0.35 L 348.59,785.6 c 5.37,10.35 97.9,18.53 135.35,0.36 z" />
      <path
         id="path2440"
         sodipodi:rx="70.714287"
         sodipodi:ry="12.321428"
         style="fill:#d4043f;stroke:#000000;stroke-width:1.79149997;stroke-linecap:round;stroke-linejoin:bevel"
         sodipodi:type="arc"
         d="m 486.07143,450.39789 c 0,6.80494 -31.65986,12.32143 -70.71428,12.32143 -39.05442,0 -70.71429,-5.51649 -70.71429,-12.32143 0,-6.80494 31.65987,-12.32143 70.71429,-12.32143 39.05442,0 70.71428,5.51649 70.71428,12.32143 z"
         transform="matrix(0.975,0,0,0.70851,11.309,468.07)"
         sodipodi:cy="450.39789"
         sodipodi:cx="415.35715" />
      <path
         id="path2438"
         sodipodi:rx="70.714287"
         sodipodi:ry="12.321428"
         style="fill:#d4043f;stroke:#000000;stroke-width:2.03699994;stroke-linecap:round;stroke-linejoin:bevel"
         sodipodi:type="arc"
         d="m 486.07143,450.39789 c 0,6.80494 -31.65986,12.32143 -70.71428,12.32143 -39.05442,0 -70.71429,-5.51649 -70.71429,-12.32143 0,-6.80494 31.65987,-12.32143 70.71429,-12.32143 39.05442,0 70.71428,5.51649 70.71428,12.32143 z"
         transform="matrix(0.92822,0,0,0.57567,29.347,527.47)"
         sodipodi:cy="450.39789"
         sodipodi:cx="415.35715" />
      <path
         inkscape:connector-curvature="0"
         id="path3805"
         sodipodi:nodetypes="csc"
         style="fill:none;stroke:#000000;stroke-width:1.48899996px"
         d="m 433.87,779.65 c -29.76,-0.92 -39.5,7.63 -22.4,11.63 4.2,0.98 10,1.68 17.52,1.91" />
      <path
         inkscape:connector-curvature="0"
         id="rect2444"
         sodipodi:nodetypes="ccccc"
         style="fill:#a70432;stroke:#000000;stroke-width:1.4892;stroke-linecap:round;stroke-linejoin:bevel"
         transform="matrix(0.75047,-0.6609,0.67842,0.73467,0,0)"
         d="M -328.67,746.35 -328.84,879 c -0.51,4.1 -5.53,13.07 -19.71,22.05 l -0.78,-154.7 c 3.36,-3.16 18.78,-5.78 20.66,0 z" />
      <path
         inkscape:connector-curvature="0"
         id="path2463"
         sodipodi:nodetypes="css"
         style="fill:#a70432;stroke:#000000;stroke-width:1.48899996;stroke-linecap:round;stroke-linejoin:bevel"
         d="m 266.69,725.94 c 3.71,2.35 3.03,30.54 -13.01,46.42 -16.04,15.88 -40.49,14.19 -44.21,11.84" />
      <path
         inkscape:connector-curvature="0"
         id="path2448"
         sodipodi:nodetypes="ccccccsccc"
         style="fill:#a70432;fill-rule:evenodd;stroke:#000000;stroke-width:1.48899996px"
         d="m 369.74,785.97 c -0.46,-39.87 6.78,-69.3 53.59,-70.69 51.08,3.02 88.09,20.83 79.77,62.94 -6.62,20.5 -12.23,33.52 -18.86,54.02 -2.82,9.76 -2.88,18.39 -0.38,28.15 10.96,-33.08 12.87,-27.47 29.13,-92.65 -1.02,-5.64 -1.45,-18.46 -4.17,-23.31 -24.16,-43.14 -108.54,-52.07 -138.84,-14.66 -7.18,8.18 -13.06,40.29 -11.18,56.38 5.38,1.96 8.6,0.14 10.94,-0.18 z" />
      <path
         id="path2446"
         sodipodi:rx="2.6784978"
         sodipodi:ry="42.735233"
         style="fill:#d4043f;stroke:#000000;stroke-width:1.48280001;stroke-linecap:round;stroke-linejoin:bevel"
         sodipodi:type="arc"
         d="m 219.82135,430.57648 c 0,23.60201 -1.1992,42.73523 -2.6785,42.73523 -1.47929,0 -2.6785,-19.13322 -2.6785,-42.73523 0,-23.60202 1.19921,-42.73524 2.6785,-42.73524 1.47106,0 2.66683,18.9287 2.67842,42.39865"
         sodipodi:open="true"
         transform="matrix(0.92073,0.56745,-0.67232,0.68088,327.43,338.67)"
         sodipodi:cy="430.57648"
         sodipodi:cx="217.14285"
         sodipodi:end="6.2753092"
         sodipodi:start="0" />
      <path
         inkscape:connector-curvature="0"
         id="path3460"
         style="fill:#7e0325"
         d="m 424.15,780.12 c -5.66,0.05 -11.39,0.77 -16.73,2.7 -1.57,0.7 -3.63,1.51 -4.06,3.38 0.17,1.8 2.14,2.67 3.58,3.34 6.75,2.59 14.12,2.95 21.26,3.36 0.57,-0.1 0.72,0.6 1.33,0.45 11.67,-0.26 23.35,-0.92 34.95,-2.25 4.81,-0.69 9.76,-1.24 14.29,-3.03 0.75,-0.25 1.95,-1.17 1.08,-1.96 -2.05,-1.49 -4.71,-1.78 -7.12,-2.4 -11.7,-2.27 -23.65,-2.74 -35.53,-3.32 -4.35,-0.17 -8.7,-0.3 -13.05,-0.27 z" />
      <path
         inkscape:connector-curvature="0"
         id="path3462"
         sodipodi:nodetypes="ccccc"
         style="fill:#a70432;fill-rule:evenodd;stroke:#000000;stroke-width:1.48899996px"
         d="m 375.56,817.99 -67.88,-0.9 3.39,3.93 64.14,0.36 0.35,-3.39 z" />
      <path
         inkscape:connector-curvature="0"
         id="path3466"
         style="fill:none;stroke:#000000;stroke-width:1.48899996px"
         d="m 260.37,766.24 91.92,109.09" />
      <path
         inkscape:connector-curvature="0"
         id="path3468"
         style="fill:#7e0325;stroke:#000000;stroke-width:1.48899996;stroke-linecap:round;stroke-linejoin:bevel"
         d="m 280.46,789.21 c 0.39,1.32 1.82,2.25 2.57,3.44 22.7,27.12 45.48,54.18 68.36,81.16 1,0.23 0.39,-1.37 0.47,-1.9 -0.32,-3.02 -0.72,-6.27 -2.88,-8.57 -8.6,-10.23 -17.91,-19.86 -26.91,-29.76 -13.7,-14.83 -27.32,-29.73 -41.14,-44.44 -0.19,-0.17 -0.32,-0.07 -0.47,0.07 z" />
      <path
         inkscape:connector-curvature="0"
         id="path3470"
         sodipodi:nodetypes="cccc"
         style="fill:none;stroke:#000000;stroke-width:1.48899996px"
         d="m 464.42,721.79 c 17.79,1.74 29.38,11.21 39.14,22.98 13.47,29.17 -9.45,66.53 -20.71,101.27" />
      <path
         inkscape:connector-curvature="0"
         id="path3472"
         style="fill:#7e0325;stroke:#000000;stroke-width:1.48899996;stroke-linecap:round;stroke-linejoin:bevel"
         d="m 469.17,722.85 c -0.52,0.93 1.37,1.06 1.87,1.47 11.97,4.7 23.5,12.31 29.27,24.12 2.99,5.88 4.22,12.46 4.01,19.04 0.11,4.81 -0.52,9.6 -2.17,14.12 -5.69,17.62 -12.74,34.79 -18.09,52.52 -0.94,3.42 -1.67,6.99 -1.53,10.52 1.12,-0.19 1,-2.26 1.63,-3.14 5.53,-15.47 12.14,-30.56 17.43,-46.13 4.01,-12.83 7.46,-26.5 5.01,-39.99 -1.01,-4.63 -2,-9.7 -5.54,-13.12 -7.07,-7.83 -15.52,-14.91 -25.78,-17.98 -1.99,-0.53 -4.05,-1.39 -6.11,-1.43 z" />
      <g
         id="g3630"
         transform="translate(0,1.0102)">
        <path
           inkscape:connector-curvature="0"
           id="path3602"
           sodipodi:nodetypes="cc"
           style="fill:none;stroke:#000000;stroke-width:1.48899996px"
           d="m 352.08,826.07 c 44.18,9.93 86.89,9.16 128.21,-1.71" />
        <path
           inkscape:connector-curvature="0"
           id="path3610"
           sodipodi:nodetypes="cc"
           style="fill:none;stroke:#000000;stroke-width:1.48899996px"
           d="m 352.08,827.92 c 44.18,9.93 86.89,9.16 128.21,-1.71" />
        <path
           inkscape:connector-curvature="0"
           id="path3614"
           style="fill:#65021e"
           d="m 478.64,825.02 c -2.8,0.49 -5.47,1.32 -8.25,1.86 -22.51,5.03 -46.45,7.19 -70.11,5.95 -15.39,-0.75 -30.61,-2.89 -45.34,-5.98 -0.71,-0.05 -1.91,-0.59 -2.37,0 -0.06,0.52 -0.07,1.24 0.96,1.22 18.7,4.08 38.27,6.49 57.93,6.68 21.94,0.09 43.89,-2.51 64.51,-7.63 1.14,-0.33 2.44,-0.49 3.47,-0.93 0.03,-0.41 0.2,-1.27 -0.8,-1.17 z" />
      </g>
      <g
         id="g3625"
         transform="translate(0,1.0102)">
        <path
           inkscape:connector-curvature="0"
           id="path3604"
           sodipodi:nodetypes="cc"
           style="fill:none;stroke:#000000;stroke-width:1.48899996px"
           d="m 352.43,833.43 c 43.44,9.68 85.61,7.25 127.15,-1.22" />
        <path
           inkscape:connector-curvature="0"
           id="path3612"
           sodipodi:nodetypes="cc"
           style="fill:none;stroke:#000000;stroke-width:1.48899996px"
           d="m 352.43,835.28 c 43.44,9.68 85.61,7.26 127.15,-1.22" />
        <path
           inkscape:connector-curvature="0"
           id="path3616"
           style="fill:#65021e"
           d="m 478.61,832.62 c -4,0.62 -7.91,1.53 -11.91,2.16 -16.75,2.84 -33.92,4.69 -51.2,4.98 -10,0.09 -20.02,-0.11 -29.93,-1.05 -10.45,-0.91 -20.73,-2.53 -30.81,-4.61 -0.62,-0.16 -1.87,-0.28 -1.8,0.41 -0.44,0.96 1.2,0.92 2.09,1.17 17.25,3.68 35.33,5.59 53.41,5.68 23.57,0.17 47.01,-2.64 69.57,-7.14 0.99,-0.06 1.77,-0.4 1.41,-1.15 0.01,-0.3 -0.42,-0.49 -0.83,-0.45 z" />
      </g>
      <g
         id="g3620">
        <path
           inkscape:connector-curvature="0"
           id="path3606"
           sodipodi:nodetypes="cc"
           style="fill:none;stroke:#000000;stroke-width:1.48899996px"
           d="m 353.86,840.69 c 41.54,8.2 83.59,7.56 126.07,-0.49" />
        <path
           inkscape:connector-curvature="0"
           id="path3608"
           sodipodi:nodetypes="cc"
           style="fill:none;stroke:#000000;stroke-width:1.48899996px"
           d="m 353.86,842.54 c 41.54,8.2 83.59,7.56 126.07,-0.49" />
        <path
           inkscape:connector-curvature="0"
           id="path3618"
           style="fill:#65021e"
           d="m 478.84,840.6 c -6.18,1.01 -12.33,2.13 -18.58,2.92 -29.27,3.99 -59.71,4.3 -89,0.21 -5.88,-0.79 -11.67,-1.84 -17.47,-2.88 -0.78,0.12 -0.37,0.92 -0.45,1.33 0.05,0.58 1.09,0.26 1.61,0.46 7.41,1.28 14.85,2.58 22.41,3.42 12.02,1.38 24.19,2.25 36.39,2.09 8.23,-0.02 16.49,-0.12 24.67,-0.81 13.76,-1 27.38,-2.8 40.72,-5.3 0.35,-0.33 0.46,-0.99 0.1,-1.36 -0.11,-0.06 -0.26,-0.09 -0.4,-0.08 z" />
      </g>
      <path
         inkscape:connector-curvature="0"
         id="path3635"
         sodipodi:nodetypes="cc"
         style="fill:none;stroke:#000000;stroke-width:1.48899996px"
         d="m 350.36,944.51 c 53.52,14.72 99.61,17.3 134.64,-1.79" />
      <path
         inkscape:connector-curvature="0"
         id="path3637"
         sodipodi:nodetypes="cc"
         style="fill:none;stroke:#000000;stroke-width:1.48899996px"
         d="m 350.36,941.22 c 53.52,14.72 99.61,17.31 134.64,-1.79" />
      <path
         inkscape:connector-curvature="0"
         id="path3639"
         style="fill:#65021e"
         d="m 483.81,940.35 c -18.89,9.69 -40.46,13.29 -61.61,12.78 -24.04,-0.42 -47.69,-5.26 -70.86,-11.36 -0.83,0.78 -0.64,2.81 0.79,2.94 20.73,5.54 41.9,9.97 63.37,11.02 13.18,0.11 26.51,0.4 39.44,-2.54 10.04,-2.08 19.99,-5.31 28.93,-10.31 0.66,-0.5 0.82,-2.32 -0.06,-2.53 z" />
      <g
         id="g3641"
         transform="matrix(1.1044,-1.0131,0.16075,0.17522,-85.823,913.63)">
        <path
           id="path3663"
           sodipodi:rx="1.5178572"
           sodipodi:ry="2.3214285"
           style="fill:#65021e"
           sodipodi:type="arc"
           d="m 235.89286,410.04074 c 0,1.28209 -0.67957,2.32143 -1.51786,2.32143 -0.83829,0 -1.51786,-1.03934 -1.51786,-2.32143 0,-1.28209 0.67957,-2.32143 1.51786,-2.32143 0.83829,0 1.51786,1.03934 1.51786,2.32143 z"
           transform="matrix(0.52388,0.85179,-0.85179,0.52388,467.38,5.2326)"
           sodipodi:cy="410.04074"
           sodipodi:cx="234.375" />
        <path
           id="path3665"
           sodipodi:rx="1.5178572"
           sodipodi:ry="2.3214285"
           style="fill:#65021e"
           sodipodi:type="arc"
           d="m 235.89286,410.04074 c 0,1.28209 -0.67957,2.32143 -1.51786,2.32143 -0.83829,0 -1.51786,-1.03934 -1.51786,-2.32143 0,-1.28209 0.67957,-2.32143 1.51786,-2.32143 0.83829,0 1.51786,1.03934 1.51786,2.32143 z"
           transform="matrix(0.52388,0.85179,-0.85179,0.52388,473.98,6.1255)"
           sodipodi:cy="410.04074"
           sodipodi:cx="234.375" />
        <path
           id="path3667"
           sodipodi:rx="1.5178572"
           sodipodi:ry="2.3214285"
           style="fill:#65021e"
           sodipodi:type="arc"
           d="m 235.89286,410.04074 c 0,1.28209 -0.67957,2.32143 -1.51786,2.32143 -0.83829,0 -1.51786,-1.03934 -1.51786,-2.32143 0,-1.28209 0.67957,-2.32143 1.51786,-2.32143 0.83829,0 1.51786,1.03934 1.51786,2.32143 z"
           transform="matrix(0.52388,0.85179,-0.85179,0.52388,481.31,6.3041)"
           sodipodi:cy="410.04074"
           sodipodi:cx="234.375" />
        <path
           id="path3677"
           sodipodi:rx="1.5178572"
           sodipodi:ry="2.3214285"
           style="fill:#65021e"
           sodipodi:type="arc"
           d="m 235.89286,410.04074 c 0,1.28209 -0.67957,2.32143 -1.51786,2.32143 -0.83829,0 -1.51786,-1.03934 -1.51786,-2.32143 0,-1.28209 0.67957,-2.32143 1.51786,-2.32143 0.83829,0 1.51786,1.03934 1.51786,2.32143 z"
           transform="matrix(0.52388,0.85179,-0.85179,0.52388,474.34,15.768)"
           sodipodi:cy="410.04074"
           sodipodi:cx="234.375" />
        <path
           id="path3679"
           sodipodi:rx="1.5178572"
           sodipodi:ry="2.3214285"
           style="fill:#65021e"
           sodipodi:type="arc"
           d="m 235.89286,410.04074 c 0,1.28209 -0.67957,2.32143 -1.51786,2.32143 -0.83829,0 -1.51786,-1.03934 -1.51786,-2.32143 0,-1.28209 0.67957,-2.32143 1.51786,-2.32143 0.83829,0 1.51786,1.03934 1.51786,2.32143 z"
           transform="matrix(0.52388,0.85179,-0.85179,0.52388,467.91,14.161)"
           sodipodi:cy="410.04074"
           sodipodi:cx="234.375" />
        <path
           id="path3681"
           sodipodi:rx="1.5178572"
           sodipodi:ry="2.3214285"
           style="fill:#65021e"
           sodipodi:type="arc"
           d="m 235.89286,410.04074 c 0,1.28209 -0.67957,2.32143 -1.51786,2.32143 -0.83829,0 -1.51786,-1.03934 -1.51786,-2.32143 0,-1.28209 0.67957,-2.32143 1.51786,-2.32143 0.83829,0 1.51786,1.03934 1.51786,2.32143 z"
           transform="matrix(0.52388,0.85179,-0.85179,0.52388,463.09,11.304)"
           sodipodi:cy="410.04074"
           sodipodi:cx="234.375" />
        <path
           id="path3683"
           sodipodi:rx="1.5178572"
           sodipodi:ry="2.3214285"
           style="fill:#65021e"
           sodipodi:type="arc"
           d="m 235.89286,410.04074 c 0,1.28209 -0.67957,2.32143 -1.51786,2.32143 -0.83829,0 -1.51786,-1.03934 -1.51786,-2.32143 0,-1.28209 0.67957,-2.32143 1.51786,-2.32143 0.83829,0 1.51786,1.03934 1.51786,2.32143 z"
           transform="matrix(0.52388,0.85179,-0.85179,0.52388,457.73,9.3398)"
           sodipodi:cy="410.04074"
           sodipodi:cx="234.375" />
        <path
           id="path3685"
           sodipodi:rx="1.5178572"
           sodipodi:ry="2.3214285"
           style="fill:#65021e"
           sodipodi:type="arc"
           d="m 235.89286,410.04074 c 0,1.28209 -0.67957,2.32143 -1.51786,2.32143 -0.83829,0 -1.51786,-1.03934 -1.51786,-2.32143 0,-1.28209 0.67957,-2.32143 1.51786,-2.32143 0.83829,0 1.51786,1.03934 1.51786,2.32143 z"
           transform="matrix(0.52388,0.85179,-0.85179,0.52388,453.09,7.3755)"
           sodipodi:cy="410.04074"
           sodipodi:cx="234.375" />
        <path
           id="path3691"
           sodipodi:rx="1.5178572"
           sodipodi:ry="2.3214285"
           style="fill:#65021e"
           sodipodi:type="arc"
           d="m 235.89286,410.04074 c 0,1.28209 -0.67957,2.32143 -1.51786,2.32143 -0.83829,0 -1.51786,-1.03934 -1.51786,-2.32143 0,-1.28209 0.67957,-2.32143 1.51786,-2.32143 0.83829,0 1.51786,1.03934 1.51786,2.32143 z"
           transform="matrix(0.52388,0.85179,-0.85179,0.52388,461.13,20.054)"
           sodipodi:cy="410.04074"
           sodipodi:cx="234.375" />
        <path
           id="path3693"
           sodipodi:rx="1.5178572"
           sodipodi:ry="2.3214285"
           style="fill:#65021e"
           sodipodi:type="arc"
           d="m 235.89286,410.04074 c 0,1.28209 -0.67957,2.32143 -1.51786,2.32143 -0.83829,0 -1.51786,-1.03934 -1.51786,-2.32143 0,-1.28209 0.67957,-2.32143 1.51786,-2.32143 0.83829,0 1.51786,1.03934 1.51786,2.32143 z"
           transform="matrix(0.52388,0.85179,-0.85179,0.52388,456.66,16.304)"
           sodipodi:cy="410.04074"
           sodipodi:cx="234.375" />
        <path
           id="path3695"
           sodipodi:rx="1.5178572"
           sodipodi:ry="2.3214285"
           style="fill:#65021e"
           sodipodi:type="arc"
           d="m 235.89286,410.04074 c 0,1.28209 -0.67957,2.32143 -1.51786,2.32143 -0.83829,0 -1.51786,-1.03934 -1.51786,-2.32143 0,-1.28209 0.67957,-2.32143 1.51786,-2.32143 0.83829,0 1.51786,1.03934 1.51786,2.32143 z"
           transform="matrix(0.52388,0.85179,-0.85179,0.52388,448.27,13.983)"
           sodipodi:cy="410.04074"
           sodipodi:cx="234.375" />
        <path
           id="path3697"
           sodipodi:rx="1.5178572"
           sodipodi:ry="2.3214285"
           style="fill:#65021e"
           sodipodi:type="arc"
           d="m 235.89286,410.04074 c 0,1.28209 -0.67957,2.32143 -1.51786,2.32143 -0.83829,0 -1.51786,-1.03934 -1.51786,-2.32143 0,-1.28209 0.67957,-2.32143 1.51786,-2.32143 0.83829,0 1.51786,1.03934 1.51786,2.32143 z"
           transform="matrix(0.52388,0.85179,-0.85179,0.52388,442.38,11.84)"
           sodipodi:cy="410.04074"
           sodipodi:cx="234.375" />
        <path
           id="path3701"
           sodipodi:rx="1.5178572"
           sodipodi:ry="2.3214285"
           style="fill:#65021e"
           sodipodi:type="arc"
           d="m 235.89286,410.04074 c 0,1.28209 -0.67957,2.32143 -1.51786,2.32143 -0.83829,0 -1.51786,-1.03934 -1.51786,-2.32143 0,-1.28209 0.67957,-2.32143 1.51786,-2.32143 0.83829,0 1.51786,1.03934 1.51786,2.32143 z"
           transform="matrix(0.52388,0.85179,-0.85179,0.52388,449.34,18.536)"
           sodipodi:cy="410.04074"
           sodipodi:cx="234.375" />
        <path
           id="path3705"
           sodipodi:rx="1.5178572"
           sodipodi:ry="2.3214285"
           style="fill:#65021e"
           sodipodi:type="arc"
           d="m 235.89286,410.04074 c 0,1.28209 -0.67957,2.32143 -1.51786,2.32143 -0.83829,0 -1.51786,-1.03934 -1.51786,-2.32143 0,-1.28209 0.67957,-2.32143 1.51786,-2.32143 0.83829,0 1.51786,1.03934 1.51786,2.32143 z"
           transform="matrix(0.52388,0.85179,-0.85179,0.52388,439.16,18)"
           sodipodi:cy="410.04074"
           sodipodi:cx="234.375" />
        <path
           id="path3707"
           sodipodi:rx="1.5178572"
           sodipodi:ry="2.3214285"
           style="fill:#65021e"
           sodipodi:type="arc"
           d="m 235.89286,410.04074 c 0,1.28209 -0.67957,2.32143 -1.51786,2.32143 -0.83829,0 -1.51786,-1.03934 -1.51786,-2.32143 0,-1.28209 0.67957,-2.32143 1.51786,-2.32143 0.83829,0 1.51786,1.03934 1.51786,2.32143 z"
           transform="matrix(0.52388,0.85179,-0.85179,0.52388,439.34,22.911)"
           sodipodi:cy="410.04074"
           sodipodi:cx="234.375" />
        <path
           id="path3709"
           sodipodi:rx="1.5178572"
           sodipodi:ry="2.3214285"
           style="fill:#65021e"
           sodipodi:type="arc"
           d="m 235.89286,410.04074 c 0,1.28209 -0.67957,2.32143 -1.51786,2.32143 -0.83829,0 -1.51786,-1.03934 -1.51786,-2.32143 0,-1.28209 0.67957,-2.32143 1.51786,-2.32143 0.83829,0 1.51786,1.03934 1.51786,2.32143 z"
           transform="matrix(0.52388,0.85179,-0.85179,0.52388,441.66,26.483)"
           sodipodi:cy="410.04074"
           sodipodi:cx="234.375" />
        <path
           id="path3713"
           sodipodi:rx="1.5178572"
           sodipodi:ry="2.3214285"
           style="fill:#65021e"
           sodipodi:type="arc"
           d="m 235.89286,410.04074 c 0,1.28209 -0.67957,2.32143 -1.51786,2.32143 -0.83829,0 -1.51786,-1.03934 -1.51786,-2.32143 0,-1.28209 0.67957,-2.32143 1.51786,-2.32143 0.83829,0 1.51786,1.03934 1.51786,2.32143 z"
           transform="matrix(0.52388,0.85179,-0.85179,0.52388,454.07,24.608)"
           sodipodi:cy="410.04074"
           sodipodi:cx="234.375" />
        <path
           id="path3715"
           sodipodi:rx="1.5178572"
           sodipodi:ry="2.3214285"
           style="fill:#65021e"
           sodipodi:type="arc"
           d="m 235.89286,410.04074 c 0,1.28209 -0.67957,2.32143 -1.51786,2.32143 -0.83829,0 -1.51786,-1.03934 -1.51786,-2.32143 0,-1.28209 0.67957,-2.32143 1.51786,-2.32143 0.83829,0 1.51786,1.03934 1.51786,2.32143 z"
           transform="matrix(0.52388,0.85179,-0.85179,0.52388,433.19,21.733)"
           sodipodi:cy="410.04074"
           sodipodi:cx="234.375" />
      </g>
    </g>
  </g>
</svg>
