<?xml version="1.0" encoding="UTF-8" standalone="no"?>
<!-- Created with Sodipodi ("http://www.sodipodi.com/") -->

<!-- Created by jmrivera (jmanuel1995@yahoo.es) 16-07-04 -->

<!-- tree_whit_fruits - arbol_con_frutas -->

<svg
   xmlns:dc="http://purl.org/dc/elements/1.1/"
   xmlns:cc="http://creativecommons.org/ns#"
   xmlns:rdf="http://www.w3.org/1999/02/22-rdf-syntax-ns#"
   xmlns:svg="http://www.w3.org/2000/svg"
   xmlns="http://www.w3.org/2000/svg"
   xmlns:sodipodi="http://sodipodi.sourceforge.net/DTD/sodipodi-0.dtd"
   xmlns:inkscape="http://www.inkscape.org/namespaces/inkscape"
   id="svg602"
   space="preserve"
   viewBox="0 0 670.93 802.78"
   sodipodi:version="0.32"
   version="1.0"
   inkscape:output_extension="org.inkscape.output.svg.inkscape"
   inkscape:version="0.48.4 r9939"
   sodipodi:docname="18.svg"
   width="100%"
   height="100%">
  <defs
     id="defs24" />
  <sodipodi:namedview
     id="base"
     inkscape:window-x="-8"
     inkscape:window-y="-8"
     snaptoguides="true"
     inkscape:zoom="0.8780247"
     inkscape:window-height="988"
     showgrid="false"
     inkscape:current-layer="svg602"
     inkscape:cx="227.24694"
     inkscape:cy="436.22506"
     inkscape:window-width="1680"
     inkscape:window-maximized="1" />
  <path
     sodipodi:cx="155.39099"
     sodipodi:cy="403.24664"
     transform="matrix(1.7173094,0,0,1.6101263,-102.20154,-415.5397)"
     d="m 251.27054,403.24664 a 95.879547,89.267166 0 1 1 -191.759096,0 95.879547,89.267166 0 1 1 191.759096,0 z"
     sodipodi:type="arc"
     style="fill:#000000;fill-rule:evenodd"
     sodipodi:ry="89.267166"
     sodipodi:rx="95.879547"
     id="path623" />
  <path
     sodipodi:cx="277.72006"
     sodipodi:cy="323.89801"
     transform="matrix(1.5797738,0,0,1.507896,-105.15067,-350.46672)"
     d="m 368.08929,323.89801 a 90.369225,91.471298 0 1 1 -180.73845,0 90.369225,91.471298 0 1 1 180.73845,0 z"
     sodipodi:type="arc"
     style="fill:#000000;fill-rule:evenodd"
     sodipodi:ry="91.471298"
     sodipodi:rx="90.369225"
     id="path624" />
  <path
     sodipodi:cx="535.60297"
     sodipodi:cy="438.51266"
     transform="matrix(1.5867553,0,0,1.5142196,-332.80356,-452.04485)"
     d="m 632.58458,438.51266 a 96.981613,95.879547 0 1 1 -193.96323,0 96.981613,95.879547 0 1 1 193.96323,0 z"
     sodipodi:type="arc"
     style="fill:#000000;fill-rule:evenodd"
     sodipodi:ry="95.879547"
     sodipodi:rx="96.981613"
     id="path625" />
  <path
     inkscape:connector-curvature="0"
     d="m 240.05644,438.46485 c 26.66933,0.96171 53.33866,1.93658 80.00799,2.89828 5.13839,48.40128 7.19095,64.85561 24.63073,84.20821 30.77446,-17.41603 49.23354,-34.84523 55.39122,-60.96927 0,0 120.02595,-17.4292 76.93613,0 -27.68862,66.77901 -77.51739,83.45946 -86.74693,138.63217 -11.28211,64.8556 4.21164,124.95322 11.40259,186.89737 -57.45775,-0.9617 -124.22881,0.97488 -181.68656,0 31.80771,-109.37055 47.66033,-126.37132 60.99499,-206.70637 -2.05256,-61.94415 -26.5762,-91.72425 -40.93016,-144.96039 z"
     style="fill:#b85e00;fill-rule:evenodd;stroke:#000000;stroke-width:24.75204468"
     sodipodi:nodetypes="cccccccccc"
     id="path628" />
  <path
     sodipodi:cx="189.55496"
     sodipodi:cy="480.39108"
     transform="matrix(1.6516833,0,0,1.475488,-34.570636,-348.74883)"
     d="m 279.92419,480.39108 a 90.369225,82.654755 0 1 1 -180.738452,0 90.369225,82.654755 0 1 1 180.738452,0 z"
     sodipodi:type="arc"
     style="fill:#000000;fill-rule:evenodd"
     sodipodi:ry="82.654755"
     sodipodi:rx="90.369225"
     id="path626" />
  <path
     sodipodi:cx="392.33472"
     sodipodi:cy="463.86011"
     transform="matrix(1.5458437,0,0,1.469428,-158.71986,-314.27775)"
     d="m 484.90808,463.86011 a 92.573364,85.960983 0 1 1 -185.14673,0 92.573364,85.960983 0 1 1 185.14673,0 z"
     sodipodi:type="arc"
     style="fill:#000000;fill-rule:evenodd"
     sodipodi:ry="85.960983"
     sodipodi:rx="92.573364"
     id="path627" />
  <path
     sodipodi:cx="392.33472"
     sodipodi:cy="463.86011"
     transform="matrix(1.3963,0,0,1.3174,-110.79758,-259.73739)"
     d="m 484.90808,463.86011 a 92.573364,85.960983 0 1 1 -185.14673,0 92.573364,85.960983 0 1 1 185.14673,0 z"
     sodipodi:type="arc"
     style="fill:#80df00;fill-rule:evenodd"
     sodipodi:ry="85.960983"
     sodipodi:rx="92.573364"
     id="path610" />
  <path
     sodipodi:cx="189.55496"
     sodipodi:cy="480.39108"
     transform="matrix(1.3963,0,0,1.3174,12.307344,-285.87118)"
     d="m 279.92419,480.39108 a 90.369225,82.654755 0 1 1 -180.738452,0 90.369225,82.654755 0 1 1 180.738452,0 z"
     sodipodi:type="arc"
     style="fill:#80df00;fill-rule:evenodd"
     sodipodi:ry="82.654755"
     sodipodi:rx="90.369225"
     id="path611" />
  <path
     sodipodi:cx="155.39099"
     sodipodi:cy="403.24664"
     transform="matrix(1.3963,0,0,1.3174,-52.323194,-297.48616)"
     d="m 251.27054,403.24664 a 95.879547,89.267166 0 1 1 -191.759096,0 95.879547,89.267166 0 1 1 191.759096,0 z"
     sodipodi:type="arc"
     style="fill:#80df00;fill-rule:evenodd"
     sodipodi:ry="89.267166"
     sodipodi:rx="95.879547"
     id="path612" />
  <path
     sodipodi:cx="535.60297"
     sodipodi:cy="438.51266"
     transform="matrix(1.3963,0,0,1.3174,-240.05713,-364.27176)"
     d="m 632.58458,438.51266 a 96.981613,95.879547 0 1 1 -193.96323,0 96.981613,95.879547 0 1 1 193.96323,0 z"
     sodipodi:type="arc"
     style="fill:#80df00;fill-rule:evenodd"
     sodipodi:ry="95.879547"
     sodipodi:rx="96.981613"
     id="path613" />
  <path
     sodipodi:cx="277.72006"
     sodipodi:cy="323.89801"
     transform="matrix(1.3963,0,0,1.3174,-55.400639,-277.16007)"
     d="m 368.08929,323.89801 a 90.369225,91.471298 0 1 1 -180.73845,0 90.369225,91.471298 0 1 1 180.73845,0 z"
     sodipodi:type="arc"
     style="fill:#80df00;fill-rule:evenodd"
     sodipodi:ry="91.471298"
     sodipodi:rx="90.369225"
     id="path609" />
  <path
     sodipodi:cx="126.95164"
     sodipodi:cy="608.8667"
     transform="matrix(1.2748778,0,0,1.1291962,-10.671565,-339.71937)"
     d="m 165.37122,608.8667 a 38.419582,40.925201 0 1 1 -76.839165,0 38.419582,40.925201 0 1 1 76.839165,0 z"
     sodipodi:type="arc"
     style="fill:#ff0000;fill-rule:evenodd;stroke:#000000;stroke-width:11.41699981999999900;fill-opacity:1"
     sodipodi:ry="40.925201"
     sodipodi:rx="38.419582"
     id="path629" />
  <path
     sodipodi:cx="126.95164"
     sodipodi:cy="608.8667"
     transform="matrix(1.1231139,0,0,0.99476874,175.36586,-219.36039)"
     d="m 165.37122,608.8667 a 38.419582,40.925201 0 1 1 -76.839165,0 38.419582,40.925201 0 1 1 76.839165,0 z"
     sodipodi:type="arc"
     style="fill:#ff0000;fill-rule:evenodd;stroke:#000000;stroke-width:11.41699981999999900"
     sodipodi:ry="40.925201"
     sodipodi:rx="38.419582"
     id="path630" />
  <path
     sodipodi:cx="126.95164"
     sodipodi:cy="608.8667"
     transform="matrix(1.0624028,0,0,0.91411751,411.64775,-169.15164)"
     d="m 165.37122,608.8667 a 38.419582,40.925201 0 1 1 -76.839165,0 38.419582,40.925201 0 1 1 76.839165,0 z"
     sodipodi:type="arc"
     style="fill:#ff0000;fill-rule:evenodd;stroke:#000000;stroke-width:11.41699981999999900"
     sodipodi:ry="40.925201"
     sodipodi:rx="38.419582"
     id="path631" />
  <path
     sodipodi:cx="126.95164"
     sodipodi:cy="608.8667"
     transform="matrix(1.1231139,0,0,0.99476874,96.056022,-399.80994)"
     d="m 165.37122,608.8667 a 38.419582,40.925201 0 1 1 -76.839165,0 38.419582,40.925201 0 1 1 76.839165,0 z"
     sodipodi:type="arc"
     style="fill:#ff0000;fill-rule:evenodd;stroke:#000000;stroke-width:11.41699981999999900"
     sodipodi:ry="40.925201"
     sodipodi:rx="38.419582"
     id="path632" />
  <path
     sodipodi:cx="126.95164"
     sodipodi:cy="608.8667"
     transform="matrix(1.2141666,0,0,1.1291962,253.60055,-423.3387)"
     d="m 165.37122,608.8667 a 38.419582,40.925201 0 1 1 -76.839165,0 38.419582,40.925201 0 1 1 76.839165,0 z"
     sodipodi:type="arc"
     style="fill:#ff0000;fill-rule:evenodd;stroke:#000000;stroke-width:11.41699981999999900"
     sodipodi:ry="40.925201"
     sodipodi:rx="38.419582"
     id="path633" />
  <path
     sodipodi:cx="126.95164"
     sodipodi:cy="608.8667"
     transform="matrix(0.9713361,0,0,0.88722938,403.38165,-354.13568)"
     d="m 165.37122,608.8667 a 38.419582,40.925201 0 1 1 -76.839165,0 38.419582,40.925201 0 1 1 76.839165,0 z"
     sodipodi:type="arc"
     style="fill:#ff0000;fill-rule:evenodd;stroke:#000000;stroke-width:11.41699981999999900"
     sodipodi:ry="40.925201"
     sodipodi:rx="38.419582"
     id="path635" />
  <metadata
     id="metadata22">
    <rdf:RDF>
      <cc:Work>
        <dc:format>image/svg+xml</dc:format>
        <dc:type
           rdf:resource="http://purl.org/dc/dcmitype/StillImage" />
        <cc:license
           rdf:resource="http://creativecommons.org/licenses/publicdomain/" />
        <dc:publisher>
          <cc:Agent
             rdf:about="http://openclipart.org/">
            <dc:title>Openclipart</dc:title>
          </cc:Agent>
        </dc:publisher>
        <dc:title></dc:title>
        <dc:date>2009-05-26T15:57:28</dc:date>
        <dc:description>Simple tree with fruits (apple tree?) by jmrivera. From OCAL 0.18 release.</dc:description>
        <dc:source>https://openclipart.org/detail/26259/tree-with-fruits-by-anonymous-26259</dc:source>
        <dc:creator>
          <cc:Agent>
            <dc:title>Anonymous</dc:title>
          </cc:Agent>
        </dc:creator>
        <dc:subject>
          <rdf:Bag>
            <rdf:li>apple</rdf:li>
            <rdf:li>basic</rdf:li>
            <rdf:li>cartoon</rdf:li>
            <rdf:li>colour</rdf:li>
            <rdf:li>fruit</rdf:li>
            <rdf:li>green</rdf:li>
            <rdf:li>nature</rdf:li>
            <rdf:li>plant</rdf:li>
            <rdf:li>red</rdf:li>
            <rdf:li>simple</rdf:li>
            <rdf:li>tree</rdf:li>
          </rdf:Bag>
        </dc:subject>
      </cc:Work>
      <cc:License
         rdf:about="http://creativecommons.org/licenses/publicdomain/">
        <cc:permits
           rdf:resource="http://creativecommons.org/ns#Reproduction" />
        <cc:permits
           rdf:resource="http://creativecommons.org/ns#Distribution" />
        <cc:permits
           rdf:resource="http://creativecommons.org/ns#DerivativeWorks" />
      </cc:License>
    </rdf:RDF>
  </metadata>
</svg>
