<?xml version="1.0" encoding="UTF-8" standalone="no"?>
<!-- Created with Inkscape (http://www.inkscape.org/) -->
<svg
   xmlns:dc="http://purl.org/dc/elements/1.1/"
   xmlns:cc="http://creativecommons.org/ns#"
   xmlns:rdf="http://www.w3.org/1999/02/22-rdf-syntax-ns#"
   xmlns:svg="http://www.w3.org/2000/svg"
   xmlns="http://www.w3.org/2000/svg"
   xmlns:sodipodi="http://sodipodi.sourceforge.net/DTD/sodipodi-0.dtd"
   xmlns:inkscape="http://www.inkscape.org/namespaces/inkscape"
   version="1.0"
   width="725"
   height="725"
   id="svg2"
   sodipodi:version="0.32"
   inkscape:version="0.46"
   sodipodi:docname="maxheight.svg"
   inkscape:output_extension="org.inkscape.output.svg.inkscape"
   inkscape:export-filename="C:\Dokumente und Einstellungen\ulfl\Eigene Dateien\osm\svn.openstreetmap.org\applications\share\map-icons\svg\vehicle\restrictions\maxheight.png"
   inkscape:export-xdpi="2"
   inkscape:export-ydpi="2">
  <metadata
     id="metadata15">
    <rdf:RDF>
      <cc:Work
         rdf:about="">
        <dc:format>image/svg+xml</dc:format>
        <dc:type
           rdf:resource="http://purl.org/dc/dcmitype/StillImage" />
        <cc:license
           rdf:resource="http://creativecommons.org/licenses/publicdomain/" />
      </cc:Work>
      <cc:License
         rdf:about="http://creativecommons.org/licenses/publicdomain/">
        <cc:permits
           rdf:resource="http://creativecommons.org/ns#Reproduction" />
        <cc:permits
           rdf:resource="http://creativecommons.org/ns#Distribution" />
        <cc:permits
           rdf:resource="http://creativecommons.org/ns#DerivativeWorks" />
      </cc:License>
    </rdf:RDF>
  </metadata>
  <sodipodi:namedview
     inkscape:window-height="480"
     inkscape:window-width="640"
     inkscape:pageshadow="2"
     inkscape:pageopacity="0.0"
     guidetolerance="10.0"
     gridtolerance="10.0"
     objecttolerance="10.0"
     borderopacity="1.0"
     bordercolor="#666666"
     pagecolor="#ffffff"
     id="base"
     showgrid="false" />
  <defs
     id="defs9">
    <inkscape:perspective
       sodipodi:type="inkscape:persp3d"
       inkscape:vp_x="0 : 362.5 : 1"
       inkscape:vp_y="0 : 1000 : 0"
       inkscape:vp_z="725 : 362.5 : 1"
       inkscape:persp3d-origin="362.5 : 241.66667 : 1"
       id="perspective17" />
  </defs>
  <g
     id="g1875">
    <circle
       cx="362.5"
       cy="362.5"
       r="350"
       style="fill: white; stroke: black; stroke-width: 2.5px;"
       id="circle4" />
    <circle
       cx="362.5"
       cy="362.5"
       r="290"
       style="fill: none; stroke: rgb(204, 0, 0); stroke-width: 93.75;"
       id="circle6" />
  </g>
  <path
     d="M 269.3845,421.14832 L 269.3845,425.55264 C 269.38439,427.25927 269.3229,429.15029 269.20006,431.22572 C 269.07698,433.30123 268.65033,436.17223 267.92012,439.83873 C 264.4994,451.56124 258.02707,461.08529 248.50312,468.4109 C 238.97898,475.73652 228.11352,479.39933 215.9067,479.39933 C 206.13666,479.39933 196.97778,476.46871 188.43002,470.60747 C 179.88219,464.74623 174.26688,458.70241 171.58407,452.47599 C 168.90122,446.24961 167.1313,441.24352 166.2743,437.45771 C 165.41726,433.67198 164.98876,428.23552 164.98877,421.14832 L 164.98877,406.87342 L 199.78735,406.87342 L 199.78735,418.21957 C 199.7873,421.15583 199.84878,424.02683 199.97179,426.83258 C 200.09471,429.63842 201.3765,433.17827 203.81719,437.45212 C 206.25776,441.72606 210.65276,443.86301 217.00219,443.86298 C 223.35149,443.86301 227.86945,441.72606 230.55609,437.45212 C 233.24257,433.17827 234.58584,427.74367 234.58593,421.14832 L 234.58593,383.42099 C 234.58584,377.31764 233.12147,373.04561 230.19279,370.60487 C 227.26395,368.16435 224.39481,366.69997 221.58537,366.21173 C 218.77578,365.72372 215.78368,365.47965 212.60905,365.47954 L 206.38265,365.47954 L 206.38265,334.70521 L 212.60905,334.70521 C 227.26023,334.70536 234.58584,327.86787 234.58593,314.19272 L 234.58593,284.89395 C 234.58584,281.47353 234.40326,278.96956 234.03818,277.38202 C 233.67294,275.79488 232.20856,273.35238 229.64504,270.05453 C 227.08137,266.75709 223.11302,265.10827 217.73997,265.10806 C 211.63647,265.10827 207.11851,266.93967 204.18608,270.60228 C 201.25354,274.26529 199.7873,279.02918 199.78735,284.89395 L 199.78735,302.8354 L 164.98877,302.8354 L 164.98877,284.89395 C 164.98876,269.50513 169.93336,256.62196 179.8226,246.24439 C 189.71178,235.86728 202.35089,230.67862 217.73997,230.67837 C 226.2877,230.67862 234.52995,232.87705 242.46675,237.27367 C 250.40336,241.67077 256.26274,246.79982 260.04489,252.66083 C 263.82683,258.5223 266.32894,263.95503 267.55124,268.95904 C 268.7733,273.96347 269.38439,279.2751 269.3845,284.89395 L 269.3845,313.46612 C 269.38439,329.3397 262.42393,341.42734 248.50312,349.72908 C 256.32049,355.10232 261.75509,360.53505 264.80692,366.02729 C 267.85853,371.51975 269.38439,378.90498 269.3845,388.18302 L 269.3845,421.14832 z "
     style="font-size: 366.296px; font-style: normal; font-variant: normal; font-weight: normal; font-stretch: normal; text-align: center; line-height: 100%; text-anchor: middle; fill: black; fill-opacity: 1; stroke: none; stroke-width: 1px; stroke-linecap: butt; stroke-linejoin: miter; stroke-opacity: 1;"
     id="text2010" />
  <g
     transform="matrix(0, -1, 1, 0, -0.607365, 724.393)"
     id="g1994">
    <path
       d="M 186.83434,361.43995 L 136.72791,275.35796 C 113.58632,331.82472 116.27723,403.3499 136.72791,449.64204 L 186.83434,361.43995 z "
       style="fill: black; fill-opacity: 1; fill-rule: evenodd; stroke: none; stroke-width: 1px; stroke-linecap: butt; stroke-linejoin: miter; stroke-opacity: 1;"
       id="path1983" />
    <path
       d="M 536.95093,361.43995 L 587.05736,275.35796 C 610.19895,331.82472 607.50804,403.3499 587.05736,449.64204 L 536.95093,361.43995 z "
       style="fill: black; fill-opacity: 1; fill-rule: evenodd; stroke: none; stroke-width: 1px; stroke-linecap: butt; stroke-linejoin: miter; stroke-opacity: 1;"
       id="path1985" />
  </g>
  <path
     d="M 432.43464,477.15265 L 432.5417,353.5195 L 458.03137,353.41244 L 457.9243,364.5368 C 472.6622,344.18105 490.4793,351.59073 502.43147,362.23991 C 514.75394,352.79901 541.93237,338.82206 556.45711,379.27195 L 556.45711,477.32785 L 529.96498,477.32785 L 529.96498,386.10423 C 529.64303,383.78764 526.56442,378.85346 523.71676,378.75849 C 523.71676,378.75849 513.26756,379.23284 513.26756,379.23284 C 510.0012,379.14309 507.36334,382.76385 507.2783,386.2113 L 507.17124,477.30838 L 480.64019,477.20133 L 480.85431,385.97771 C 480.9146,383.27389 476.52965,378.58166 473.93604,378.65408 C 473.93604,378.65408 463.73525,379.06718 463.73525,379.06718 C 461.94,379.18849 457.5074,384.11471 457.81725,385.87065 L 457.81725,477.02614 L 432.43464,477.15265 z "
     style="fill: black; fill-opacity: 1; fill-rule: evenodd; stroke: none; stroke-width: 1px; stroke-linecap: butt; stroke-linejoin: miter; stroke-opacity: 1;"
     id="path1991" />
  <path
     d="M 282.55272,450.95142 L 307.68201,450.95142 L 307.68201,476.75703 L 282.6813,495.41113 L 282.55272,450.95142 z "
     style="fill: black; fill-opacity: 0.75; fill-rule: evenodd; stroke: none; stroke-width: 1px; stroke-linecap: butt; stroke-linejoin: miter; stroke-opacity: 1;"
     id="path2008" />
  <path
     d="M 403.66371,442.05384 C 403.66363,447.27661 402.35795,452.76101 399.74666,458.50706 C 397.13521,464.25315 392.86883,469.17172 386.94749,473.26277 C 381.02602,477.35383 374.58527,479.39935 367.62521,479.39936 C 360.13906,479.39935 353.26131,477.484 346.99193,473.65328 C 340.72249,469.82257 336.45611,465.51368 334.19276,460.7266 C 331.92938,455.93955 330.53736,451.97866 330.01669,448.84393 C 329.496,445.70926 329.23566,442.48689 329.23567,439.17681 L 329.23567,408.62139 C 329.23566,403.92471 330.32351,399.70482 332.49922,395.96169 C 334.6749,392.21872 337.76578,388.86751 341.77184,385.90804 C 333.41438,379.63873 329.23566,371.02095 329.23567,360.05468 L 329.23567,336.55234 C 329.23566,333.24245 329.88784,329.88991 331.19221,326.49471 C 332.49655,323.09982 335.62993,318.18126 340.59234,311.73901 C 345.55472,305.29709 354.39033,302.07605 367.09921,302.07588 C 371.97655,302.07605 376.59095,303.07756 380.9424,305.08041 C 385.29373,307.08361 390.16846,310.91432 395.56661,316.57257 C 400.9646,322.23114 403.66363,329.84741 403.66371,339.4214 L 403.66371,361.87971 C 403.66363,371.97995 399.48491,379.98939 391.12754,385.90804 C 399.48491,391.65155 403.66363,399.83366 403.66371,410.45439 L 403.66371,442.05384 z M 366.58119,326.88522 C 362.92576,326.88538 359.87872,328.10472 357.44007,330.54327 C 355.00134,332.98211 353.78199,335.94148 353.78202,339.4214 L 353.78202,361.87971 C 353.78199,365.88588 354.86984,369.32475 357.04557,372.19635 C 359.22123,375.06817 362.3121,376.50402 366.31819,376.50392 C 370.66954,376.50402 373.84675,375.15451 375.84983,372.45537 C 377.8528,369.75644 378.85431,366.23122 378.85437,361.87971 L 378.85437,339.4214 C 378.85431,336.1115 377.67879,333.19463 375.32782,330.67078 C 372.97674,328.14723 370.0612,326.88538 366.58119,326.88522 L 366.58119,326.88522 z M 366.58119,395.30419 C 362.75043,395.30428 359.65956,396.56746 357.30857,399.09374 C 354.9575,401.62017 353.78199,404.79605 353.78202,408.62139 L 353.78202,439.17681 C 353.78199,443.70358 354.826,447.36029 356.91407,450.14696 C 359.00207,452.93369 362.39711,454.32703 367.09921,454.32701 C 371.62589,454.32703 374.71676,452.84735 376.37184,449.88795 C 378.0268,446.9286 378.85431,443.35823 378.85437,439.17681 L 378.85437,408.62139 C 378.85431,404.79605 377.76646,401.62017 375.59082,399.09374 C 373.41507,396.56746 370.41186,395.30428 366.58119,395.30419 L 366.58119,395.30419 z "
     style="font-size: 261.148px; font-style: normal; font-variant: normal; font-weight: normal; font-stretch: normal; text-align: center; line-height: 100%; text-anchor: middle; fill: black; fill-opacity: 1; stroke: none; stroke-width: 1px; stroke-linecap: butt; stroke-linejoin: miter; stroke-opacity: 1;"
     id="text2014" />
</svg>
