<?xml version="1.0" encoding="UTF-8" standalone="no"?>
<!-- Created with Inkscape (http://www.inkscape.org/) -->

<svg
   xmlns:dc="http://purl.org/dc/elements/1.1/"
   xmlns:cc="http://creativecommons.org/ns#"
   xmlns:rdf="http://www.w3.org/1999/02/22-rdf-syntax-ns#"
   xmlns:svg="http://www.w3.org/2000/svg"
   xmlns="http://www.w3.org/2000/svg"
   xmlns:sodipodi="http://sodipodi.sourceforge.net/DTD/sodipodi-0.dtd"
   xmlns:inkscape="http://www.inkscape.org/namespaces/inkscape"
   id="svg11061"
   sodipodi:docname="05.svg"
   viewBox="0 0 16 13.16"
   sodipodi:version="0.32"
   version="1.0"
   inkscape:output_extension="org.inkscape.output.svg.inkscape"
   inkscape:version="0.48.5 r10040"
   width="100%"
   height="100%">
  <defs
     id="defs19" />
  <sodipodi:namedview
     id="base"
     bordercolor="#666666"
     inkscape:pageshadow="2"
     inkscape:window-y="-8"
     pagecolor="#ffffff"
     inkscape:window-height="988"
     inkscape:zoom="7.9195959"
     inkscape:window-x="-8"
     showgrid="true"
     borderopacity="1.0"
     inkscape:current-layer="layer1"
     inkscape:cx="12.690764"
     inkscape:cy="-1.7102381"
     inkscape:window-width="1680"
     inkscape:pageopacity="0.0"
     inkscape:document-units="px"
     fit-margin-top="0"
     fit-margin-left="0"
     fit-margin-right="0"
     fit-margin-bottom="0"
     inkscape:window-maximized="1">
    <inkscape:grid
       type="xygrid"
       id="grid2996"
       empspacing="5"
       visible="true"
       enabled="true"
       snapvisiblegridlinesonly="true"
       originx="-20.992211px"
       originy="-17.263822px" />
  </sodipodi:namedview>
  <g
     id="layer1"
     inkscape:label="Ebene 1"
     inkscape:groupmode="layer"
     transform="translate(-342.00221,-525.78218)">
    <g
       id="g8623"
       style="stroke:#000000;stroke-width:1.06299996;stroke-miterlimit:3.98790002"
       transform="matrix(0.27596409,0,0,0.27596409,312.14469,443.26105)">
      <g
         id="g8580"
         style="stroke:#000000;stroke-width:1.06299996;stroke-miterlimit:3.98790002">
        <g
           id="g8511"
           style="stroke:#000000;stroke-width:1.06299996;stroke-miterlimit:3.98790002"
           transform="translate(37.969,105.24)">
          <path
             id="path8513"
             style="fill:none;stroke:#000000;stroke-width:1.06299996;stroke-miterlimit:3.98790002"
             d="M 70.756,237.48 H 95.821"
             inkscape:connector-curvature="0" />
          <path
             id="path8515"
             sodipodi:rx="3.0409236"
             sodipodi:ry="3.2943337"
             style="fill:none;stroke:#000000;stroke-width:1.06299996;stroke-miterlimit:3.98790002"
             sodipodi:type="arc"
             d="m 153.73558,203.86003 c 0,1.81941 -1.36147,3.29433 -3.04092,3.29433 -1.67946,0 -3.04093,-1.47492 -3.04093,-3.29433 0,-1.81941 1.36147,-3.29433 3.04093,-3.29433 1.67945,0 3.04092,1.47492 3.04092,3.29433 z"
             transform="translate(-51.358,33.79)"
             sodipodi:cy="203.86003"
             sodipodi:cx="150.69466" />
          <path
             id="path8517"
             style="fill:none;stroke:#000000;stroke-width:1.06299996;stroke-miterlimit:3.98790002"
             d="m 102.76,237.56 h 24.91"
             inkscape:connector-curvature="0" />
        </g>
        <path
           id="path8519"
           sodipodi:nodetypes="cscsc"
           style="fill:none;stroke:#000000;stroke-width:1.06299996;stroke-miterlimit:3.98790002"
           d="m 112.51,342.13 c 0,0 3.74,-12.46 6.76,-17.06 5.94,-9.05 25.51,-25.51 25.51,-25.51 0,0 11.39,17.02 14.36,25.2 1.86,5.12 3.23,17.88 3.23,17.88"
           inkscape:connector-curvature="0" />
        <path
           id="path8521"
           style="fill:none;stroke:#000000;stroke-width:1.06299996;stroke-miterlimit:3.98790002"
           d="m 117.51,330.97 44.55,9.19"
           inkscape:connector-curvature="0" />
        <path
           id="path8523"
           style="fill:none;stroke:#000000;stroke-width:1.06299996;stroke-miterlimit:3.98790002"
           d="m 124.93,318.24 34.65,7.07"
           inkscape:connector-curvature="0" />
        <path
           id="path8548"
           style="fill:#008000;fill-rule:evenodd;stroke:#000000;stroke-width:1.06299996;stroke-miterlimit:3.98790002"
           d="m 142.05,321.12 -15.95,-3.27 3.07,-3.1 c 2.57,-2.59 6.33,-6.08 14.14,-13.11 0.58,-0.52 1.16,-0.95 1.29,-0.95 0.28,0 5.67,8.53 8.45,13.38 2.82,4.92 5.54,10.4 5.12,10.35 -0.09,-0.01 -7.35,-1.5 -16.12,-3.3 z"
           inkscape:connector-curvature="0" />
        <path
           id="path8550"
           style="fill:#008000;fill-rule:evenodd;stroke:#000000;stroke-width:1.06299996;stroke-miterlimit:3.98790002"
           d="m 113.5,341 c 1.22,-4.07 3.73,-10.59 3.82,-9.93 0.07,0.46 1.88,0.88 21.13,4.84 11.57,2.38 21.53,4.44 22.11,4.58 0.95,0.23 1.06,0.34 1.06,0.98 v 0.72 h -10.35 -10.35 l -0.26,-0.75 c -0.35,-1.01 -1.71,-2.21 -2.7,-2.4 -1.6,-0.3 -3.46,0.87 -4.1,2.58 l -0.22,0.57 H 123.39 113.15 L 113.5,341 z"
           inkscape:connector-curvature="0" />
        <path
           id="path8558"
           style="fill:#ff0000;fill-rule:evenodd;stroke:#000000;stroke-width:1.06299996;stroke-miterlimit:3.98790002"
           d="m 139.37,334.86 c -12.03,-2.48 -21.91,-4.53 -21.95,-4.56 -0.04,-0.03 0.41,-1.05 1,-2.27 1.12,-2.3 3.46,-5.61 5.54,-7.83 l 1.21,-1.29 16.82,3.43 16.83,3.44 0.26,0.89 c 0.55,1.87 2.41,12.53 2.21,12.68 -0.02,0.01 -9.89,-2.01 -21.92,-4.49 z"
           inkscape:connector-curvature="0" />
      </g>
    </g>
  </g>
  <metadata
     id="metadata17">
    <rdf:RDF>
      <cc:Work>
        <dc:format>image/svg+xml</dc:format>
        <dc:type
           rdf:resource="http://purl.org/dc/dcmitype/StillImage" />
        <cc:license
           rdf:resource="http://creativecommons.org/licenses/publicdomain/" />
        <dc:publisher>
          <cc:Agent
             rdf:about="http://openclipart.org/">
            <dc:title>Openclipart</dc:title>
          </cc:Agent>
        </dc:publisher>
        <dc:title>conical buoy green-red-green</dc:title>
        <dc:date>2010-06-11T21:59:05</dc:date>
        <dc:description>conical bouy, green-red-green, symbol, IALA A</dc:description>
        <dc:source>https://openclipart.org/detail/66199/conical-buoy-green-red-green-by-seafish</dc:source>
        <dc:creator>
          <cc:Agent>
            <dc:title>seafish</dc:title>
          </cc:Agent>
        </dc:creator>
        <dc:subject>
          <rdf:Bag>
            <rdf:li>buoy</rdf:li>
            <rdf:li>chart</rdf:li>
            <rdf:li>conical</rdf:li>
            <rdf:li>green</rdf:li>
            <rdf:li>navigation</rdf:li>
            <rdf:li>red</rdf:li>
            <rdf:li>sailing</rdf:li>
            <rdf:li>sea</rdf:li>
            <rdf:li>symbol</rdf:li>
          </rdf:Bag>
        </dc:subject>
      </cc:Work>
      <cc:License
         rdf:about="http://creativecommons.org/licenses/publicdomain/">
        <cc:permits
           rdf:resource="http://creativecommons.org/ns#Reproduction" />
        <cc:permits
           rdf:resource="http://creativecommons.org/ns#Distribution" />
        <cc:permits
           rdf:resource="http://creativecommons.org/ns#DerivativeWorks" />
      </cc:License>
    </rdf:RDF>
  </metadata>
</svg>
