<?xml version="1.0" encoding="UTF-8" standalone="no"?>
<!-- Created with Inkscape (http://www.inkscape.org/) -->

<svg
   xmlns:dc="http://purl.org/dc/elements/1.1/"
   xmlns:cc="http://creativecommons.org/ns#"
   xmlns:rdf="http://www.w3.org/1999/02/22-rdf-syntax-ns#"
   xmlns:svg="http://www.w3.org/2000/svg"
   xmlns="http://www.w3.org/2000/svg"
   xmlns:sodipodi="http://sodipodi.sourceforge.net/DTD/sodipodi-0.dtd"
   xmlns:inkscape="http://www.inkscape.org/namespaces/inkscape"
   width="16"
   height="16"
   viewBox="0 0 16 16"
   id="svg4264"
   version="1.1"
   inkscape:version="0.91 r13725"
   sodipodi:docname="waterway_stream.svg">
  <defs
     id="defs4266" />
  <sodipodi:namedview
     id="base"
     pagecolor="#ffffff"
     bordercolor="#666666"
     borderopacity="1.0"
     inkscape:pageopacity="0.0"
     inkscape:pageshadow="2"
     inkscape:zoom="22.627417"
     inkscape:cx="15.025273"
     inkscape:cy="9.2455363"
     inkscape:document-units="px"
     inkscape:current-layer="layer1"
     showgrid="true"
     units="px"
     inkscape:snap-bbox="true"
     inkscape:bbox-paths="true"
     inkscape:bbox-nodes="true"
     inkscape:snap-bbox-edge-midpoints="false"
     inkscape:snap-bbox-midpoints="false"
     inkscape:snap-nodes="true">
    <inkscape:grid
       type="xygrid"
       id="grid4137" />
  </sodipodi:namedview>
  <metadata
     id="metadata4269">
    <rdf:RDF>
      <cc:Work
         rdf:about="">
        <dc:format>image/svg+xml</dc:format>
        <dc:type
           rdf:resource="http://purl.org/dc/dcmitype/StillImage" />
        <dc:title></dc:title>
        <cc:license
           rdf:resource="http://creativecommons.org/publicdomain/zero/1.0/" />
      </cc:Work>
      <cc:License
         rdf:about="http://creativecommons.org/publicdomain/zero/1.0/">
        <cc:permits
           rdf:resource="http://creativecommons.org/ns#Reproduction" />
        <cc:permits
           rdf:resource="http://creativecommons.org/ns#Distribution" />
        <cc:permits
           rdf:resource="http://creativecommons.org/ns#DerivativeWorks" />
      </cc:License>
    </rdf:RDF>
  </metadata>
  <g
     inkscape:label="Camada 1"
     inkscape:groupmode="layer"
     id="layer1"
     transform="translate(0,-1036.3621)">
    <path
       id="XMLID_164_"
       class="st0"
       d="m 15.999938,1048.734 c -2.349253,-0.4988 -4.691597,-1.0417 -7.0201254,-1.6729 -1.2920892,-0.3486 -2.5841799,-0.7282 -3.8555412,-1.1828 -0.2418342,-0.088 -2.9538393,-0.9225 -2.9538393,-1.3728 0,-0.8473 6.6539155,-1.536 7.2895962,-1.6331 1.2851817,-0.1942 2.6118197,-0.3133 3.8693587,-0.715 0.732418,-0.2338 1.924319,-1.0063 0.791149,-1.7567 -0.82915,-0.5472 -2.556542,-0.9268 -3.513519,-1.0593 -1.2886362,-0.1758 -2.5565415,-0.428 -3.7588087,-0.6754 -1.3162729,-0.2735 0.5216731,-1.3064 0.7358691,-1.3947 0.9915272,-0.4104 2.0210511,-0.6709 3.0436676,-0.9092 -0.8291485,0.1288 -5.2063628,0.5871 -4.8159707,2.2113 0.2452902,1.0152 2.4148957,1.333 3.0885794,1.5006 1.3542773,0.34 2.5599973,0.4812 3.9039093,0.8874 -3.081671,0.3309 -5.880047,0.2692 -8.8926203,0.7547 -1.3577306,0.2207 -4.9265226,1.1255 -3.63443503,3.8135 0.62186151,1.2976 2.11778353,1.9201 3.17149443,2.4364 1.4890133,0.7283 3.0194822,1.3109 4.5534056,1.8581 2.6429143,0.9446 5.3169183,1.7612 7.9943743,2.538 0.0035,-1.2093 0.0035,-2.4188 0.0035,-3.6281 z"
       inkscape:connector-curvature="0"
       style="fill:#208ece" />
  </g>
</svg>
