<?xml version="1.0" encoding="UTF-8" standalone="no"?>
<!-- Created with Inkscape (http://www.inkscape.org/) -->

<svg
   xmlns:dc="http://purl.org/dc/elements/1.1/"
   xmlns:cc="http://creativecommons.org/ns#"
   xmlns:rdf="http://www.w3.org/1999/02/22-rdf-syntax-ns#"
   xmlns:svg="http://www.w3.org/2000/svg"
   xmlns="http://www.w3.org/2000/svg"
   xmlns:sodipodi="http://sodipodi.sourceforge.net/DTD/sodipodi-0.dtd"
   xmlns:inkscape="http://www.inkscape.org/namespaces/inkscape"
   width="16"
   height="16"
   viewBox="0 0 16 16"
   id="svg4264"
   version="1.1"
   inkscape:version="0.91 r13725"
   sodipodi:docname="waterway_river2.svg">
  <defs
     id="defs4266" />
  <sodipodi:namedview
     id="base"
     pagecolor="#ffffff"
     bordercolor="#666666"
     borderopacity="1.0"
     inkscape:pageopacity="0.0"
     inkscape:pageshadow="2"
     inkscape:zoom="45.254834"
     inkscape:cx="7.0154651"
     inkscape:cy="9.8634013"
     inkscape:document-units="px"
     inkscape:current-layer="layer1"
     showgrid="true"
     units="px"
     inkscape:snap-bbox="true"
     inkscape:bbox-paths="true"
     inkscape:bbox-nodes="true"
     inkscape:snap-bbox-edge-midpoints="false"
     inkscape:snap-bbox-midpoints="false"
     inkscape:snap-nodes="true"
     inkscape:snap-global="false">
    <inkscape:grid
       type="xygrid"
       id="grid4137" />
  </sodipodi:namedview>
  <metadata
     id="metadata4269">
    <rdf:RDF>
      <cc:Work
         rdf:about="">
        <dc:format>image/svg+xml</dc:format>
        <dc:type
           rdf:resource="http://purl.org/dc/dcmitype/StillImage" />
        <dc:title></dc:title>
        <cc:license
           rdf:resource="http://creativecommons.org/publicdomain/zero/1.0/" />
      </cc:Work>
      <cc:License
         rdf:about="http://creativecommons.org/publicdomain/zero/1.0/">
        <cc:permits
           rdf:resource="http://creativecommons.org/ns#Reproduction" />
        <cc:permits
           rdf:resource="http://creativecommons.org/ns#Distribution" />
        <cc:permits
           rdf:resource="http://creativecommons.org/ns#DerivativeWorks" />
      </cc:License>
    </rdf:RDF>
  </metadata>
  <g
     inkscape:label="Camada 1"
     inkscape:groupmode="layer"
     id="layer1"
     transform="translate(0,-1036.3621)">
    <path
       id="XMLID_172_"
       class="st0"
       d="m 15.999998,1044.8546 c -3.327311,-0.4178 -5.847849,-0.6853 -8.7379577,-1.3254 -1.0764995,-0.2384 -1.7615565,-0.4248 -1.7509906,-0.5811 0.00212,-0.1271 2.6473992,0.2017 4.0266021,0.1042 1.3868742,-0.098 4.6457662,-0.1576 5.2345402,-2.0835 0.861618,-2.8131 -6.6416497,-1.8373 -7.7114935,-3.0681 -0.014361,-0.5627 3.2813355,-1.3715 3.6690635,-1.5386 -0.8687994,0.097 -4.7101856,0.2462 -4.6814639,1.8023 0.028723,1.3802 3.8198443,2.0484 4.6886449,2.277 -2.7069217,0.053 -5.3133197,-0.5627 -8.0130603,0.158 -1.6729767,0.4395 -3.41057577,2.0922 -2.44843329,4.3252 0.58877241,1.3626 1.95300309,2.0922 3.04438719,2.6726 1.4001314,0.7473 2.8505233,1.3363 4.3009152,1.8988 2.7643622,1.0727 5.5646252,1.9782 8.3648852,2.8661 0.01436,-2.5143 0.01436,-5.0111 0.01436,-7.5079 z"
       inkscape:connector-curvature="0"
       style="fill:#208ece"
       sodipodi:nodetypes="cscscccccccccccc" />
  </g>
</svg>
