<?xml version="1.0" encoding="UTF-8" standalone="no"?>
<!-- Created with Inkscape (http://www.inkscape.org/) -->

<svg
   xmlns:dc="http://purl.org/dc/elements/1.1/"
   xmlns:cc="http://creativecommons.org/ns#"
   xmlns:rdf="http://www.w3.org/1999/02/22-rdf-syntax-ns#"
   xmlns:svg="http://www.w3.org/2000/svg"
   xmlns="http://www.w3.org/2000/svg"
   xmlns:sodipodi="http://sodipodi.sourceforge.net/DTD/sodipodi-0.dtd"
   xmlns:inkscape="http://www.inkscape.org/namespaces/inkscape"
   width="24"
   height="24"
   viewBox="0 0 24 24"
   id="svg2"
   version="1.1"
   inkscape:version="0.92.3 (2405546, 2018-03-11)"
   sodipodi:docname="note_closed2.svg">
  <defs
     id="defs4">
    <pattern
       y="0"
       x="0"
       height="6"
       width="6"
       patternUnits="userSpaceOnUse"
       id="EMFhbasepattern" />
    <linearGradient
       y2="22.229"
       x2="56.016998"
       gradientTransform="matrix(0.59662907,0,0,-0.59662907,-20.933676,1042.846)"
       y1="-15.335"
       gradientUnits="userSpaceOnUse"
       x1="56.016998"
       id="path3873_7_">
      <stop
         offset="0"
         stop-color="#C72118"
         id="stop3102" />
      <stop
         offset="1"
         stop-color="#D2534F"
         id="stop3104" />
    </linearGradient>
    <linearGradient
       y2="22.228001"
       x2="-35.563999"
       gradientTransform="matrix(0.59662907,0,0,-0.59662907,33.705614,1042.8454)"
       y1="3.1758001"
       gradientUnits="userSpaceOnUse"
       x1="-35.563999"
       id="path3873_8_">
      <stop
         offset="0"
         stop-color="#983A38"
         id="stop3107" />
      <stop
         offset="1"
         stop-color="#B83D3B"
         id="stop3109" />
    </linearGradient>
    <linearGradient
       y2="22.229"
       x2="135.47"
       gradientTransform="matrix(1,0,0,-1,-28.706,44.038)"
       y1="-15.335"
       gradientUnits="userSpaceOnUse"
       x1="135.47"
       id="path3873_9_">
      <stop
         offset="0"
         stop-color="#7CB928"
         id="stop3116" />
      <stop
         offset="1"
         stop-color="#A2C857"
         id="stop3118" />
    </linearGradient>
    <linearGradient
       y2="22.228001"
       x2="43.886002"
       gradientTransform="matrix(1,0,0,-1,62.874,44.037)"
       y1="3.1758001"
       gradientUnits="userSpaceOnUse"
       x1="43.886002"
       id="path3873_10_">
      <stop
         offset="0"
         stop-color="#74963A"
         id="stop3121" />
      <stop
         offset="1"
         stop-color="#89B63E"
         id="stop3123" />
    </linearGradient>
  </defs>
  <sodipodi:namedview
     id="base"
     pagecolor="#ffffff"
     bordercolor="#666666"
     borderopacity="1.0"
     inkscape:pageopacity="0.0"
     inkscape:pageshadow="2"
     inkscape:zoom="5.6029472"
     inkscape:cx="24.660287"
     inkscape:cy="11.915403"
     inkscape:document-units="px"
     inkscape:current-layer="layer1"
     showgrid="true"
     units="px"
     inkscape:window-width="1680"
     inkscape:window-height="987"
     inkscape:window-x="-8"
     inkscape:window-y="-8"
     inkscape:window-maximized="1"
     viewbox-height="16">
    <inkscape:grid
       type="xygrid"
       id="grid4136"
       originx="0"
       originy="0"
       spacingx="1"
       spacingy="1" />
  </sodipodi:namedview>
  <metadata
     id="metadata7">
    <rdf:RDF>
      <cc:Work
         rdf:about="">
        <dc:format>image/svg+xml</dc:format>
        <dc:type
           rdf:resource="http://purl.org/dc/dcmitype/StillImage" />
        <dc:title></dc:title>
        <cc:license
           rdf:resource="http://creativecommons.org/publicdomain/zero/1.0/" />
      </cc:Work>
      <cc:License
         rdf:about="http://creativecommons.org/publicdomain/zero/1.0/">
        <cc:permits
           rdf:resource="http://creativecommons.org/ns#Reproduction" />
        <cc:permits
           rdf:resource="http://creativecommons.org/ns#Distribution" />
        <cc:permits
           rdf:resource="http://creativecommons.org/ns#DerivativeWorks" />
      </cc:License>
    </rdf:RDF>
  </metadata>
  <g
     inkscape:label="Layer 1"
     inkscape:groupmode="layer"
     id="layer1"
     transform="translate(0,-1029.3622)">
    <g
       id="g871"
       transform="matrix(0.54690998,0,0,0.54690998,-45.884169,1018.6376)">
      <rect
         x="98.328003"
         y="26.094"
         width="16.837999"
         height="17.462"
         id="rect3919"
         style="fill:#ffffff;fill-rule:evenodd" />
      <g
         id="g3113"
         style="stroke-width:1.10000002;stroke-linecap:round">
        <linearGradient
           y2="22.229"
           x2="135.47"
           gradientTransform="matrix(1,0,0,-1,-28.706,44.038)"
           y1="-15.335"
           gradientUnits="userSpaceOnUse"
           x1="135.47"
           id="linearGradient1017">
          <stop
             offset="0"
             stop-color="#7CB928"
             id="stop1013" />
          <stop
             offset="1"
             stop-color="#A2C857"
             id="stop1015" />
        </linearGradient>
        <linearGradient
           y2="22.228001"
           x2="43.886002"
           gradientTransform="matrix(1,0,0,-1,62.874,44.037)"
           y1="3.1758001"
           gradientUnits="userSpaceOnUse"
           x1="43.886002"
           id="linearGradient1023">
          <stop
             offset="0"
             stop-color="#74963A"
             id="stop1019" />
          <stop
             offset="1"
             stop-color="#89B63E"
             id="stop1021" />
        </linearGradient>
        <path
           export-xdpi="180"
           nodetypes="zscccszcscsc"
           export-filename="C:\Users\dave.STK\Desktop\git\Leaflet\Leaflet\dist\images\marker-icon@2x.png"
           export-ydpi="180"
           connector-curvature="0"
           d="m 106.8,21.988 c -6.572,0 -12.045,5.691 -12.045,11.865 0,2.777 1.564,6.309 2.693,8.747 l 9.307,17.871 9.262,-17.871 c 1.131,-2.438 2.738,-5.792 2.738,-8.747 0,-6.174 -5.38,-11.865 -11.96,-11.865 z m -1.18,20.069 c -0.521,0 -1.025,-0.215 -1.389,-0.604 -0.025,-0.027 -2.609,-2.793 -3.945,-3.996 -0.779,-0.703 -0.841,-1.904 -0.139,-2.684 0.703,-0.781 1.904,-0.842 2.684,-0.139 0.64,0.576 1.501,1.438 2.275,2.232 1.244,-2.398 3.327,-6 5.765,-8.545 0.726,-0.758 1.929,-0.783 2.687,-0.057 0.758,0.725 0.783,1.928 0.058,2.686 -3.412,3.562 -6.228,9.906 -6.255,9.971 -0.258,0.584 -0.792,1 -1.422,1.108 -0.11,0.018 -0.22,0.028 -0.32,0.028 z"
           id="path3873_4_"
           style="clip-rule:evenodd;fill:url(#path3873_9_);fill-rule:evenodd;stroke:url(#path3873_10_)"
           inkscape:connector-curvature="0" />
        <path
           export-xdpi="180"
           original="M 416.53125 503.625 C 409.95868 503.625 404.5 509.29393 404.5 515.46875 C 404.5 518.24668 406.05726 521.78106 407.1875 524.21875 L 416.5 542.09375 L 425.75 524.21875 C 426.88024 521.78106 428.5 518.42346 428.5 515.46875 C 428.5 509.29393 423.10382 503.625 416.53125 503.625 z M 416.53125 510.78125 C 419.11574 510.79795 421.21875 512.88037 421.21875 515.46875 C 421.21875 518.05715 419.11574 520.13969 416.53125 520.15625 C 413.94676 520.13975 411.875 518.05715 411.875 515.46875 C 411.875 512.88038 413.94676 510.79802 416.53125 510.78125 z "
           type="inkscape:offset"
           radius="-1.09294"
           export-filename="C:\Users\dave.STK\Desktop\git\Leaflet\Leaflet\dist\images\marker-icon@2x.png"
           export-ydpi="180"
           d="m 106.79,23.093 c -5.943,0 -10.938,5.221 -10.938,10.75 0,2.359 1.443,5.832 2.562,8.25 0.006,0.012 0.025,0.021 0.031,0.031 l 8.312,15.969 8.25,-15.969 c 0.006,-0.012 0.025,-0.02 0.031,-0.031 1.135,-2.448 2.625,-5.706 2.625,-8.25 0.01,-5.537 -4.93,-10.75 -10.87,-10.75 z m 5.45,3.543 c -0.814,0 -1.604,0.338 -2.166,0.926 -2.09,2.18 -3.914,5.074 -5.236,7.471 -0.502,-0.498 -0.928,-0.904 -1.273,-1.217 -0.553,-0.498 -1.266,-0.771 -2.009,-0.771 -0.849,0 -1.661,0.361 -2.228,0.992 -1.107,1.227 -1.01,3.129 0.219,4.236 1.288,1.16 3.85,3.901 3.874,3.926 0.569,0.609 1.368,0.957 2.196,0.957 0.166,0 0.334,-0.014 0.498,-0.041 1.002,-0.172 1.841,-0.824 2.248,-1.75 0.029,-0.064 2.805,-6.271 6.043,-9.652 0.555,-0.578 0.851,-1.34 0.834,-2.141 -0.018,-0.801 -0.346,-1.547 -0.925,-2.102 -0.57,-0.537 -1.3,-0.834 -2.08,-0.834 z"
           id="path3792_6_"
           inkscape:connector-curvature="0"
           style="fill:none;stroke:#ffffff;stroke-opacity:0.12159998" />
      </g>
    </g>
  </g>
</svg>
