<?xml version="1.0" encoding="UTF-8" standalone="no"?>
<!-- Created with Inkscape (http://www.inkscape.org/) -->

<svg
   xmlns:dc="http://purl.org/dc/elements/1.1/"
   xmlns:cc="http://creativecommons.org/ns#"
   xmlns:rdf="http://www.w3.org/1999/02/22-rdf-syntax-ns#"
   xmlns:svg="http://www.w3.org/2000/svg"
   xmlns="http://www.w3.org/2000/svg"
   xmlns:sodipodi="http://sodipodi.sourceforge.net/DTD/sodipodi-0.dtd"
   xmlns:inkscape="http://www.inkscape.org/namespaces/inkscape"
   width="24"
   height="24"
   viewBox="0 0 24 24"
   id="svg2"
   version="1.1"
   inkscape:version="0.92.3 (2405546, 2018-03-11)"
   sodipodi:docname="note_openb.svg">
  <defs
     id="defs4">
    <pattern
       y="0"
       x="0"
       height="6"
       width="6"
       patternUnits="userSpaceOnUse"
       id="EMFhbasepattern" />
    <linearGradient
       y2="22.229"
       x2="56.016998"
       gradientTransform="matrix(0.59662907,0,0,-0.59662907,-20.918052,1042.846)"
       y1="-15.335"
       gradientUnits="userSpaceOnUse"
       x1="56.016998"
       id="path3873_7_">
      <stop
         offset="0"
         stop-color="#C72118"
         id="stop3102" />
      <stop
         offset="1"
         stop-color="#D2534F"
         id="stop3104" />
    </linearGradient>
    <linearGradient
       y2="22.228001"
       x2="-35.563999"
       gradientTransform="matrix(0.59662907,0,0,-0.59662907,33.721238,1042.8454)"
       y1="3.1758001"
       gradientUnits="userSpaceOnUse"
       x1="-35.563999"
       id="path3873_8_">
      <stop
         offset="0"
         stop-color="#983A38"
         id="stop3107" />
      <stop
         offset="1"
         stop-color="#B83D3B"
         id="stop3109" />
    </linearGradient>
    <linearGradient
       y2="22.229"
       x2="56.016998"
       gradientTransform="matrix(1,0,0,-1,-28.706,44.038)"
       y1="-15.335"
       gradientUnits="userSpaceOnUse"
       x1="56.016998"
       id="path3873_7_-2">
      <stop
         offset="0"
         stop-color="#C72118"
         id="stop3102-9" />
      <stop
         offset="1"
         stop-color="#D2534F"
         id="stop3104-3" />
    </linearGradient>
    <linearGradient
       y2="22.228001"
       x2="-35.563999"
       gradientTransform="matrix(1,0,0,-1,62.874,44.037)"
       y1="3.1758001"
       gradientUnits="userSpaceOnUse"
       x1="-35.563999"
       id="path3873_8_-4">
      <stop
         offset="0"
         stop-color="#983A38"
         id="stop3107-3" />
      <stop
         offset="1"
         stop-color="#B83D3B"
         id="stop3109-0" />
    </linearGradient>
  </defs>
  <sodipodi:namedview
     id="base"
     pagecolor="#ffffff"
     bordercolor="#666666"
     borderopacity="1.0"
     inkscape:pageopacity="0.0"
     inkscape:pageshadow="2"
     inkscape:zoom="18.274291"
     inkscape:cx="11.975093"
     inkscape:cy="11.425195"
     inkscape:document-units="px"
     inkscape:current-layer="layer1"
     showgrid="true"
     units="px"
     inkscape:window-width="1680"
     inkscape:window-height="987"
     inkscape:window-x="-8"
     inkscape:window-y="-8"
     inkscape:window-maximized="1"
     viewbox-height="16">
    <inkscape:grid
       type="xygrid"
       id="grid4136"
       originx="0"
       originy="0"
       spacingx="1"
       spacingy="1" />
  </sodipodi:namedview>
  <metadata
     id="metadata7">
    <rdf:RDF>
      <cc:Work
         rdf:about="">
        <dc:format>image/svg+xml</dc:format>
        <dc:type
           rdf:resource="http://purl.org/dc/dcmitype/StillImage" />
        <dc:title></dc:title>
        <cc:license
           rdf:resource="http://creativecommons.org/publicdomain/zero/1.0/" />
      </cc:Work>
      <cc:License
         rdf:about="http://creativecommons.org/publicdomain/zero/1.0/">
        <cc:permits
           rdf:resource="http://creativecommons.org/ns#Reproduction" />
        <cc:permits
           rdf:resource="http://creativecommons.org/ns#Distribution" />
        <cc:permits
           rdf:resource="http://creativecommons.org/ns#DerivativeWorks" />
      </cc:License>
    </rdf:RDF>
  </metadata>
  <g
     inkscape:label="Layer 1"
     inkscape:groupmode="layer"
     id="layer1"
     transform="translate(0,-1029.3622)">
    <g
       id="g1057"
       transform="matrix(0.54693276,0,0,0.54690998,-2.4333055,1018.6376)">
      <path
         d="m 17.566,30.771 5.7167,-6.1325 9.4586,0.20788 4.4695,7.068 -2.8064,11.33 -8.835,0.72759 -5.4049,-1.4552 -2.3906,-6.4443 z"
         id="path3925"
         inkscape:connector-curvature="0"
         style="fill:#ffffff" />
      <g
         id="g3099"
         style="stroke-width:1.10000002;stroke-linecap:round">
        <linearGradient
           y2="22.229"
           x2="56.016998"
           gradientTransform="matrix(1,0,0,-1,-28.706,44.038)"
           y1="-15.335"
           gradientUnits="userSpaceOnUse"
           x1="56.016998"
           id="linearGradient1078">
          <stop
             offset="0"
             stop-color="#C72118"
             id="stop1074" />
          <stop
             offset="1"
             stop-color="#D2534F"
             id="stop1076" />
        </linearGradient>
        <linearGradient
           y2="22.228001"
           x2="-35.563999"
           gradientTransform="matrix(1,0,0,-1,62.874,44.037)"
           y1="3.1758001"
           gradientUnits="userSpaceOnUse"
           x1="-35.563999"
           id="linearGradient1084">
          <stop
             offset="0"
             stop-color="#983A38"
             id="stop1080" />
          <stop
             offset="1"
             stop-color="#B83D3B"
             id="stop1082" />
        </linearGradient>
        <path
           export-xdpi="180"
           nodetypes="zscccszcscsc"
           export-filename="C:\Users\dave.STK\Desktop\git\Leaflet\Leaflet\dist\images\marker-icon@2x.png"
           export-ydpi="180"
           connector-curvature="0"
           d="m 27.355,21.988 c -6.572,0 -12.044,5.691 -12.044,11.865 0,2.777 1.563,6.309 2.693,8.747 L 27.311,60.471 36.573,42.6 c 1.13,-2.438 2.737,-5.792 2.737,-8.747 10e-4,-6.174 -5.382,-11.865 -11.955,-11.865 z m 2.875,12.86 3.547,-3.547 c 0.781,-0.781 0.781,-2.047 0,-2.828 -0.782,-0.781 -2.049,-0.781 -2.829,0 l -3.547,3.547 -3.547,-3.547 c -0.779,-0.781 -2.047,-0.781 -2.828,0 -0.781,0.781 -0.781,2.047 0,2.828 l 3.547,3.547 -3.547,3.546 c -0.781,0.78 -0.781,2.048 0,2.828 0.391,0.391 0.902,0.586 1.414,0.586 0.512,0 1.024,-0.195 1.414,-0.586 l 3.547,-3.546 3.547,3.546 c 0.39,0.391 0.902,0.586 1.414,0.586 0.512,0 1.023,-0.195 1.415,-0.586 0.781,-0.78 0.781,-2.048 0,-2.828 z"
           id="path3873_3_"
           style="clip-rule:evenodd;fill:url(#path3873_7_-2);fill-rule:evenodd;stroke:url(#path3873_8_-4)"
           inkscape:connector-curvature="0" />
        <path
           export-xdpi="180"
           original="M 416.53125 503.625 C 409.95868 503.625 404.5 509.29393 404.5 515.46875 C 404.5 518.24668 406.05726 521.78106 407.1875 524.21875 L 416.5 542.09375 L 425.75 524.21875 C 426.88024 521.78106 428.5 518.42346 428.5 515.46875 C 428.5 509.29393 423.10382 503.625 416.53125 503.625 z M 416.53125 510.78125 C 419.11574 510.79795 421.21875 512.88037 421.21875 515.46875 C 421.21875 518.05715 419.11574 520.13969 416.53125 520.15625 C 413.94676 520.13975 411.875 518.05715 411.875 515.46875 C 411.875 512.88038 413.94676 510.79802 416.53125 510.78125 z "
           type="inkscape:offset"
           radius="-1.09294"
           export-filename="C:\Users\dave.STK\Desktop\git\Leaflet\Leaflet\dist\images\marker-icon@2x.png"
           export-ydpi="180"
           d="m 27.343,23.093 c -5.944,0 -10.938,5.221 -10.938,10.75 0,2.359 1.442,5.832 2.562,8.25 0.005,0.012 0.025,0.021 0.03,0.031 l 8.313,15.969 8.25,-15.969 c 0.005,-0.012 0.025,-0.02 0.03,-0.031 1.136,-2.448 2.625,-5.706 2.625,-8.25 0.002,-5.537 -4.929,-10.75 -10.872,-10.75 z m 5.02,3.706 c -0.829,0 -1.607,0.323 -2.193,0.909 l -2.768,2.769 -2.769,-2.77 c -0.585,-0.585 -1.363,-0.908 -2.192,-0.908 -0.828,0 -1.607,0.323 -2.191,0.909 -0.586,0.585 -0.908,1.363 -0.908,2.191 0,0.828 0.322,1.606 0.908,2.192 l 2.769,2.768 -2.769,2.77 c -0.586,0.584 -0.908,1.363 -0.908,2.191 0,0.828 0.322,1.607 0.908,2.191 0.585,0.586 1.363,0.908 2.191,0.908 0.829,0 1.607,-0.322 2.193,-0.908 l 2.768,-2.767 2.769,2.767 c 0.585,0.586 1.363,0.908 2.192,0.908 0.828,0 1.607,-0.322 2.191,-0.908 0.586,-0.583 0.908,-1.363 0.908,-2.191 0,-0.828 -0.322,-1.607 -0.908,-2.191 l -2.769,-2.77 2.769,-2.768 c 0.586,-0.586 0.908,-1.364 0.908,-2.192 0,-0.828 -0.322,-1.606 -0.908,-2.192 -0.583,-0.584 -1.363,-0.908 -2.191,-0.908 z"
           id="path3792_3_"
           inkscape:connector-curvature="0"
           style="fill:none;stroke:#ffffff;stroke-opacity:0.12159998" />
      </g>
    </g>
  </g>
</svg>
