<?xml version="1.0" encoding="UTF-8" standalone="no"?>
<svg
   xmlns:dc="http://purl.org/dc/elements/1.1/"
   xmlns:cc="http://creativecommons.org/ns#"
   xmlns:rdf="http://www.w3.org/1999/02/22-rdf-syntax-ns#"
   xmlns:svg="http://www.w3.org/2000/svg"
   xmlns="http://www.w3.org/2000/svg"
   xmlns:sodipodi="http://sodipodi.sourceforge.net/DTD/sodipodi-0.dtd"
   xmlns:inkscape="http://www.inkscape.org/namespaces/inkscape"
   height="860"
   width="1044.3423"
   version="1.1"
   id="svg22"
   sodipodi:docname="car_pooling1.svg"
   inkscape:version="0.92.3 (2405546, 2018-03-11)">
  <metadata
     id="metadata28">
    <rdf:RDF>
      <cc:Work
         rdf:about="">
        <dc:format>image/svg+xml</dc:format>
        <dc:type
           rdf:resource="http://purl.org/dc/dcmitype/StillImage" />
        <dc:title></dc:title>
      </cc:Work>
    </rdf:RDF>
  </metadata>
  <defs
     id="defs26" />
  <sodipodi:namedview
     pagecolor="#ffffff"
     bordercolor="#666666"
     borderopacity="1"
     objecttolerance="10"
     gridtolerance="10"
     guidetolerance="10"
     inkscape:pageopacity="0"
     inkscape:pageshadow="2"
     inkscape:window-width="1680"
     inkscape:window-height="987"
     id="namedview24"
     showgrid="true"
     fit-margin-top="0"
     fit-margin-left="0"
     fit-margin-right="0"
     fit-margin-bottom="0"
     inkscape:zoom="0.5822775"
     inkscape:cx="467.73983"
     inkscape:cy="598.07555"
     inkscape:window-x="-8"
     inkscape:window-y="-8"
     inkscape:window-maximized="1"
     inkscape:current-layer="svg22">
    <inkscape:grid
       type="xygrid"
       id="grid835"
       originx="0"
       originy="-3.2421875e-005" />
  </sodipodi:namedview>
  <path
     d="M 0,0 H 1044.3423 V 859.99997 H 0 Z"
     id="path2"
     inkscape:connector-curvature="0"
     style="fill:#ffffff;stroke-width:0.8661353" />
  <g
     transform="matrix(1.2267738,0,0,1.1337927,-2442.2572,-858.26978)"
     id="g8">
    <path
       d="m 95.872,81.671 c 22.55,0 40.834,-18.284 40.834,-40.836 C 136.706,18.284 118.422,0 95.872,0 73.319,0 55.038,18.284 55.038,40.835 c 0,22.552 18.281,40.836 40.834,40.836 z"
       transform="matrix(1.0380952,0,0,1.1492407,2194.3289,891.24668)"
       id="path4"
       inkscape:connector-curvature="0" />
    <path
       d="m 2248.5,995.46875 c -30.0187,10e-6 -54.1562,27.10025 -54.1562,60.90625 v 14.3125 h 37.0312 v -1.9687 h 8.75 v 1.9687 h 107.4063 v -1.9687 h 8.5625 v 1.9687 h 36.75 V 1057.25 c 0,-31.1732 -21.8531,-61.71875 -54.8125,-61.71875 z"
       id="path6"
       inkscape:connector-curvature="0" />
  </g>
  <path
     d="M 55.335442,495.21302 C 52.942279,318.80276 43.369629,470.59763 149.69442,209.05917 226.61749,31.28139 148.66878,79.14464 546.61749,72.64891 900.80552,79.8284 829.35253,28.54635 910.72005,217.2643 c 101.88035,241.7094 94.01715,115.21367 93.33335,272.82051 -3.7607,172.99145 60.171,128.54701 -475.89745,134.35898 C -3.809859,617.26431 59.096121,662.3925 55.335442,495.21302 Z M 163.02774,324.95661 235.84826,156.75148 c 13.58658,-29.87865 9.25188,-25.46798 41.02564,-25.64103 l 509.12314,-0.0549 c 27.56146,0.1013 23.51799,-1.68829 34.87179,24.61539 l 72.41532,167.23435 -730.25641,2.05129 z m -52.07976,318.78443 136.18233,-0.3039 c -0.41785,170.97813 13.75119,161.44353 -60.51282,162.54513 -88.433044,-0.3419 -74.45394,8.585 -75.66951,-162.24123 z m 701.31053,1.21557 h 136.41026 c -0.91168,171.24406 11.54796,159.54416 -65.64103,159.99996 -79.81007,-1.0636 -69.66762,11.548 -70.76923,-159.99996 z"
     id="path10"
     inkscape:connector-curvature="0"
     style="fill-rule:evenodd" />
  <circle
     cx="178.66878"
     cy="450.80273"
     r="66.5"
     id="circle12"
     style="fill:#ffffff" />
  <circle
     cx="878.66876"
     cy="450.80273"
     r="66.5"
     id="circle14"
     style="fill:#ffffff" />
  <g
     transform="matrix(1.2267738,0,0,1.1337927,-2139.1578,-858.26978)"
     id="g20">
    <path
       d="m 95.872,81.671 c 22.55,0 40.834,-18.284 40.834,-40.836 C 136.706,18.284 118.422,0 95.872,0 73.319,0 55.038,18.284 55.038,40.835 c 0,22.552 18.281,40.836 40.834,40.836 z"
       transform="matrix(1.0380952,0,0,1.1492407,2194.3289,891.24668)"
       id="path16"
       inkscape:connector-curvature="0" />
    <path
       d="m 2248.5,995.46875 c -30.0187,10e-6 -54.1562,27.10025 -54.1562,60.90625 v 14.3125 h 37.0312 v -1.9687 h 8.75 v 1.9687 h 107.4063 v -1.9687 h 8.5625 v 1.9687 h 36.75 V 1057.25 c 0,-31.1732 -21.8531,-61.71875 -54.8125,-61.71875 z"
       id="path18"
       inkscape:connector-curvature="0" />
  </g>
</svg>
