<?xml version="1.0" encoding="UTF-8" standalone="no"?>
<!-- Created with Inkscape (http://www.inkscape.org/) -->

<svg
   xmlns:a="http://ns.adobe.com/AdobeSVGViewerExtensions/3.0/"
   xmlns:dc="http://purl.org/dc/elements/1.1/"
   xmlns:cc="http://creativecommons.org/ns#"
   xmlns:rdf="http://www.w3.org/1999/02/22-rdf-syntax-ns#"
   xmlns:svg="http://www.w3.org/2000/svg"
   xmlns="http://www.w3.org/2000/svg"
   xmlns:sodipodi="http://sodipodi.sourceforge.net/DTD/sodipodi-0.dtd"
   xmlns:inkscape="http://www.inkscape.org/namespaces/inkscape"
   width="410.14688"
   height="357.28976"
   id="svg3038"
   version="1.1"
   inkscape:version="0.48.4 r9939"
   sodipodi:docname="TheresaKnott_handbag5höher.svg">
  <defs
     id="defs3040">
    <radialGradient
       id="path7801_1_"
       gradientUnits="userSpaceOnUse"
       cy="230.88"
       cx="271.73001"
       gradientTransform="matrix(0.87531853,-0.19539677,-0.97380937,-1.5228783,418.86746,833.05644)"
       r="37.351002">
      <stop
         style="stop-color:#FFFFFF"
         offset="0"
         id="stop24" />
      <stop
         style="stop-color:#FFFFFF"
         offset="1"
         id="stop26" />
      <a:midPointStop
         style="stop-color:#FFFFFF"
         offset="0" />
      <a:midPointStop
         style="stop-color:#FFFFFF"
         offset="0.5" />
      <a:midPointStop
         style="stop-color:#FFFFFF"
         offset="1" />
    </radialGradient>
    <linearGradient
       id="path6918_1_"
       y2="103.45"
       gradientUnits="userSpaceOnUse"
       x2="309.17999"
       gradientTransform="matrix(1.0157055,0,0,-0.87390907,-2.5183149,521.09501)"
       y1="112.37"
       x1="287">
      <stop
         style="stop-color:#FFFFFE"
         offset="0"
         id="stop18" />
      <stop
         style="stop-color:#FFFFFE"
         offset="1"
         id="stop20" />
      <a:midPointStop
         style="stop-color:#FFFFFE"
         offset="0" />
      <a:midPointStop
         style="stop-color:#FFFFFE"
         offset="0.5" />
      <a:midPointStop
         style="stop-color:#FFFFFE"
         offset="1" />
    </linearGradient>
    <radialGradient
       id="path5115_1_"
       gradientUnits="userSpaceOnUse"
       cy="-73.265999"
       cx="-613.88"
       gradientTransform="matrix(0.2223793,0.05343814,0.34616778,-1.5802266,359.91295,542.83956)"
       r="67.028">
      <stop
         style="stop-color:#FFFFFF"
         offset="0"
         id="stop12" />
      <stop
         style="stop-color:#FFFFFF"
         offset="1"
         id="stop14" />
      <a:midPointStop
         style="stop-color:#FFFFFF"
         offset="0" />
      <a:midPointStop
         style="stop-color:#FFFFFF"
         offset="0.5" />
      <a:midPointStop
         style="stop-color:#FFFFFF"
         offset="1" />
    </radialGradient>
  </defs>
  <sodipodi:namedview
     id="base"
     pagecolor="#ffffff"
     bordercolor="#666666"
     borderopacity="1.0"
     inkscape:pageopacity="0.0"
     inkscape:pageshadow="2"
     inkscape:zoom="0.98994949"
     inkscape:cx="250.2755"
     inkscape:cy="72.991791"
     inkscape:document-units="px"
     inkscape:current-layer="layer1"
     showgrid="false"
     fit-margin-top="0"
     fit-margin-left="0"
     fit-margin-right="0"
     fit-margin-bottom="0"
     inkscape:window-width="1680"
     inkscape:window-height="988"
     inkscape:window-x="-8"
     inkscape:window-y="-8"
     inkscape:window-maximized="1" />
  <metadata
     id="metadata3043">
    <rdf:RDF>
      <cc:Work
         rdf:about="">
        <dc:format>image/svg+xml</dc:format>
        <dc:type
           rdf:resource="http://purl.org/dc/dcmitype/StillImage" />
        <dc:title />
      </cc:Work>
    </rdf:RDF>
  </metadata>
  <g
     inkscape:label="Ebene 1"
     inkscape:groupmode="layer"
     id="layer1"
     transform="translate(-166.35513,-355.03125)">
    <path
       style="fill:#ff1e17"
       inkscape:connector-curvature="0"
       id="path2393"
       d="m 240.28409,710.10528 c -0.35797,-0.3139 -13.21577,-0.87109 -28.57335,-1.23929 -25.50262,-0.60933 -28.42935,-0.88629 -33.76285,-3.19326 -7.39432,-3.19543 -10.681,-8.5034 -11.49993,-18.56758 -0.65594,-8.05482 2.24279,-27.71941 6.21842,-42.17594 3.32769,-12.10396 9.22014,-38.72202 14.86861,-67.17674 2.56777,-12.93051 5.50649,-26.7875 6.53039,-30.78884 1.02392,-4.00352 3.91564,-17.22619 6.42441,-29.38554 2.50976,-12.15827 5.20652,-23.14132 5.99345,-24.4056 0.78592,-1.26317 3.00371,-2.81418 4.92853,-3.44632 4.05263,-1.32943 8.26123,-0.89172 34.36681,3.57558 10.53702,1.80191 20.06613,3.27797 21.17602,3.27797 2.65476,0 3.60967,-2.38625 7.6203,-19.04114 13.07578,-54.29836 20.82706,-80.63728 26.88849,-91.36835 8.09725,-14.33272 19.98614,-23.66159 36.11165,-28.33633 6.16841,-1.78779 11.28994,-2.32543 22.17093,-2.32543 15.90952,0 24.85969,1.98981 34.37879,7.64208 5.69048,3.37899 9.17515,5.22869 16.86744,11.03737 3.85763,2.91195 9.49212,8.38827 14.45566,12.91096 7.82626,7.12725 16.77743,22.44402 25.00967,42.78744 18.80424,46.46728 26.39754,63.16671 29.47725,64.83936 1.37587,0.74618 5.82646,0.28565 14.22068,-1.4728 18.04831,-3.77978 35.92765,-6.5136 37.41852,-5.71963 2.44877,1.3012 3.94263,6.63741 9.16715,32.76671 2.87173,14.3566 12.05687,54.56881 20.4101,89.36008 13.18576,54.90226 15.21158,64.76333 15.33956,74.64612 0.15999,12.57208 -1.31887,15.75339 -9.10015,19.57335 -5.77446,2.83375 -72.24228,4.45535 -197.6416,4.81812 -58.68254,0.16944 -111.66961,0.68427 -117.75904,1.14371 -6.08944,0.45944 -11.33895,0.56479 -11.69891,0.24982 z M 444.89505,500.11077 c 3.44967,-1.19585 3.57766,-1.53472 3.57766,-9.50591 0,-11.33931 -4.62357,-37.52834 -8.48621,-48.06826 -4.23261,-11.55002 -12.18187,-27.54996 -21.66898,-43.61507 -5.76547,-9.76224 -9.27914,-14.28384 -13.72573,-17.65088 -7.5203,-5.69681 -19.58217,-10.82014 -29.42926,-12.50148 -20.83705,-3.55711 -48.47449,8.40889 -59.0855,25.58404 -8.73118,14.13287 -22.08294,53.46638 -25.17665,74.17366 -0.78793,5.2667 -2.2508,13.40516 -3.2527,18.08534 -2.36479,11.0428 -2.29778,13.06084 0.45496,13.70601 1.25188,0.29326 20.08112,0.57348 41.8401,0.62236 21.75997,0.05 39.91129,0.40512 40.33724,0.78854 1.34988,1.21647 70.77342,-0.2824 74.62307,-1.61835 z"
       sodipodi:nodetypes="cssssssssssssssssssssssssssssccsssssssssssc" />
    <path
       style="opacity:0.17300002;stroke:#000000;stroke-width:0.9421919"
       inkscape:connector-curvature="0"
       id="path8684"
       enable-background="new    "
       d="m 277.35064,497.78642 7.66529,1.05573 c 0,0 6.13142,-49.8593 17.78234,-78.35204 7.14533,-17.47601 14.10269,-31.92059 26.05957,-39.57137 11.95689,-7.64969 22.68689,-11.07972 25.14067,-11.60759 2.45277,-0.52786 -5.82546,-5.54041 -11.65092,-3.95681 -5.82446,1.58251 -26.97949,13.71795 -29.12529,18.20263 -2.1468,4.48468 -20.54109,65.95266 -22.68789,72.81164 -2.13981,6.86441 -13.17877,41.94676 -13.17877,41.41456 z"
       sodipodi:nodetypes="ccssssssc" />
    <path
       style="opacity:0.5405;fill:#b90000"
       inkscape:connector-curvature="0"
       id="path2391"
       d="m 221.51583,712.321 c -15.46256,-4.92782 -36.60159,4.66715 -48.13752,-8.44801 -7.97125,-14.98331 21.79498,-23.73109 16.93343,-40.14268 -0.92992,-26.95693 4.59057,-53.92147 9.54111,-80.51889 5.65847,-27.22738 12.57783,-54.37657 13.89171,-82.10684 23.07385,-2.29284 37.5955,18.55021 50.32232,31.60454 9.15014,18.61319 -10.02708,35.95018 -4.39159,54.7339 2.22779,17.71388 -15.51257,40.72377 7.24932,52.86357 13.37775,8.56097 30.76314,12.95114 46.84764,7.68445 15.61254,-4.27723 31.38108,-9.11707 48.04553,-8.21666 21.70997,1.72914 41.8141,-5.33403 56.34875,-19.06503 13.22777,-10.32812 36.22662,-11.1286 42.08908,-27.64338 3.07671,-8.47298 -0.14898,-14.75522 11.13396,-17.67042 8.44022,-14.00906 11.69092,-29.56585 15.0586,-44.9847 5.20652,-16.03471 24.11376,-29.37361 43.19799,-30.59008 11.7709,10.25534 5.91644,30.01442 12.23085,43.9105 9.66511,45.0553 21.93896,89.66638 31.2311,134.7901 -9.42012,12.11048 -5.4085,21.58272 2.45177,14.40441 -0.75093,17.61177 -23.66779,17.58245 -38.90138,17.1708 -104.99023,1.96592 -210.10044,0.81461 -315.12067,2.21573 z m -13.31876,-7.01647 c 29.14329,-1.85839 58.37257,3.41591 87.44986,-0.13903 48.79746,-0.42142 97.73791,2.00611 146.40637,-1.64985 8.25024,2.33087 29.30828,-4.2164 9.82409,-5.17545 -37.38052,0.15531 -74.89603,-5.46439 -112.06956,0.01 -20.79308,0.7679 -41.46014,-1.90944 -62.34421,-1.36963 -22.93386,-2.1864 -45.66775,0.47465 -67.85068,5.54909 -8.04925,-0.6343 -33.62487,7.05341 -11.91989,4.0839 3.50967,-0.35843 7.01935,-0.78202 10.49902,-1.31423 z m 302.15188,-3.4322 c -4.47958,-7.124 -34.97975,-4.92674 -26.10957,-0.81244 8.67919,0.48876 17.40838,1.87903 26.10757,0.8146 z"
       enable-background="new    " />
    <path
       style="opacity:0.23239997;fill:#ffffff"
       inkscape:connector-curvature="0"
       id="path3329"
       d="m 284.39998,505.96507 c 7.98625,2.56546 16.84843,2.54808 25.22665,3.67441 22.82788,-0.77442 45.69475,-0.46704 68.54262,-0.6039 10.59602,0.0435 58.59755,1.61184 72.67124,1.34791 7.99526,-1.28925 21.75397,-4.97453 21.59199,6.11932 0.092,6.87418 -6.09443,12.24841 -7.80228,18.82825 -4.10961,6.7721 -9.6021,14.05684 -18.41328,16.62773 -4.94654,5.20045 -5.15352,12.80127 -11.54192,17.2425 -6.5794,4.97235 -8.04725,12.51016 -9.07916,19.58312 -3.13971,10.93852 -16.48547,15.9087 -23.85878,24.44251 -6.23342,6.98498 -81.86838,22.6493 -93.19632,18.55889 -5.83046,-3.71786 8.13824,-20.23589 0.049,-20.71054 -34.23382,5.36446 -13.66373,-9.32125 -20.91006,-13.55395 -8.77218,-6.90459 11.8139,-25.93161 7.13034,-34.45999 -4.41459,-9.88932 -7.12234,-20.29781 -12.74581,-29.79937 -2.27479,-6.08564 -7.92627,-12.46238 -5.67047,-19.01724 1.87982,-3.21498 5.40949,-5.43071 7.98925,-8.24381 z"
       sodipodi:nodetypes="ccccccccccccccccc"
       enable-background="new    " />
    <path
       style="opacity:0.8595;fill-opacity:0.40859997"
       inkscape:connector-curvature="0"
       id="path5111"
       d="m 524.8476,491.96471 c -18.06532,1.80734 -35.75167,9.83935 -54.08097,6.01831 -16.48546,0.38123 -31.0881,9.04537 -47.81554,7.96467 -39.7843,1.57924 -79.64159,-0.79506 -119.3989,-0.98405 -24.78569,-3.08246 -49.67637,-4.33696 -74.0461,-9.66883 -6.70738,-0.93516 -18.63026,-4.27721 -21.45,3.52671 -5.60249,30.06004 -13.09379,59.89198 -19.01424,89.93139 -5.93244,29.80153 -14.19068,59.32937 -18.59826,89.3112 -1.39588,9.08449 -0.32597,22.07039 12.19886,24.63151 13.02679,3.16502 26.90349,0.14337 40.13226,2.21572 48.20752,1.35551 96.41303,-1.54231 144.63654,-0.76572 64.90196,-0.416 130.0379,0.54633 194.73188,-4.07303 10.89798,-3.5897 7.80427,-15.7056 6.71338,-23.38027 -8.08126,-48.41148 -22.98487,-95.77266 -32.17002,-144.04403 -2.97471,-13.68212 -5.88145,-27.37944 -9.43011,-40.96272 l -1.29088,0.15097 -1.1199,0.13034 z m -5.04953,12.63182 c 9.07215,44.58392 20.10513,88.85176 30.58316,133.20434 3.67066,16.61469 7.41631,33.29999 9.34512,50.02439 0.29498,5.47416 -8.77318,2.43622 -12.59983,3.7939 -89.54565,5.60013 -179.4033,1.55969 -269.06495,4.26744 -26.94749,0.85045 -53.88598,-0.6821 -80.79448,-0.9243 -6.26642,0.3291 -16.24449,0.0597 -16.50847,-7.17288 -1.39786,-12.65789 3.59467,-25.14852 5.4265,-37.68257 10.23005,-48.29201 21.41401,-96.56446 30.96612,-144.88036 -1.29688,-6.18123 6.90035,-0.69404 10.23705,-1.09917 36.09364,6.1204 72.62724,10.188 109.46981,10.1337 31.73905,0.83958 63.64607,1.41197 95.31512,0.2031 15.28159,-1.37505 29.41227,-9.61235 45.05181,-6.78729 14.30867,0.60389 28.05439,-3.34858 41.8421,-6.01831 0.22998,0.96667 0.46996,1.94419 0.70994,2.92171 z"
       enable-background="new    " />
    <path
       style="opacity:0.8595;fill:#ffffff"
       inkscape:connector-curvature="0"
       id="path4223"
       d="m 525.21756,494.18044 c -16.0995,1.79322 -31.84703,7.84628 -48.1835,7.13703 -11.58893,-4.61176 -35.85067,7.14572 -44.76784,6.36804 -41.9361,2.76206 -84.08217,-0.65168 -126.08827,-0.17486 -9.09015,-0.97319 -33.08392,-3.98071 -41.31216,-4.26854 -14.27966,-1.38157 -28.35035,-4.7334 -42.49204,-6.78838 -4.70756,-0.55393 -11.98488,-1.40764 -11.91389,4.23378 -3.2127,18.85215 -8.5712,37.72276 -12.11687,56.68027 -7.77928,38.04643 -16.64745,75.96904 -24.60071,113.95792 -0.59894,8.78362 -3.59467,19.87311 3.98463,26.90588 11.61792,6.6461 26.7895,1.90292 39.84829,4.23269 42.87401,2.0061 85.78802,-1.17955 128.69802,-0.45401 71.05938,-0.43011 142.47674,0.4703 213.27015,-3.74501 9.77709,-0.93843 8.17124,-11.9519 7.19733,-17.9474 -6.12943,-41.7317 -19.19921,-82.51631 -27.56843,-123.96127 -4.57957,-20.72357 -8.74919,-41.63179 -13.93871,-62.17071 z m -4.10961,4.82246 c 1.67385,6.91221 3.2707,13.84396 4.79656,20.78223 9.69109,51.11379 24.81068,101.33261 34.2778,152.47247 -0.19998,6.67542 5.00354,14.61838 0.20198,20.64211 -62.58217,5.09183 -126.08826,3.73307 -189.0724,4.26854 -54.44193,-0.93192 -108.99985,2.94887 -163.3348,0 -8.88117,-0.69622 -19.96814,1.98654 -27.32445,-3.28775 -6.4604,-9.66449 -0.50896,-21.46541 0.32497,-31.83914 10.84399,-50.73691 22.15294,-101.41842 32.77295,-152.19008 1.76283,-2.96517 -0.98891,-11.14163 5.4085,-9.62212 26.61452,5.46111 53.99896,8.11782 81.15944,10.8462 40.12127,0.90041 80.35252,2.6567 120.51878,1.40004 17.00642,1.47823 32.10702,-6.45494 48.51149,-7.94186 17.02941,3.16935 34.08982,-2.25918 50.54229,-5.31775 l 1.20989,-0.20637 z"
       enable-background="new    " />
    <path
       style="opacity:0.83780003;fill:url(#path5115_1_)"
       inkscape:connector-curvature="0"
       id="path5115"
       d="m 206.53723,474.3475 c 0.043,7.70291 2.90373,24.10147 2.92972,37.47404 0.029,14.69875 0.032,27.82367 -2.41677,43.35115 -2.1688,13.75163 -5.86846,18.52957 -7.79828,30.7682 -1.81283,11.49789 -6.48239,22.43207 -8.5032,35.24311 -1.81883,11.53373 -8.22324,25.10289 -11.36294,34.68591 -3.83965,11.72272 -0.64894,24.14925 1.12989,30.20449 5.27051,17.93545 16.37448,-5.93793 23.88978,-20.70945 5.3375,-10.49103 6.3874,-21.47518 6.3694,-31.04734 -0.02,-10.21841 8.84218,-44.92279 8.82118,-55.93952 -0.027,-14.07096 -4.10461,-67.97831 -5.50549,-77.18553 -1.90982,-12.58837 1.66985,-14.57601 -7.54929,-26.86027 z"
       sodipodi:nodetypes="cssssssssssc"
       enable-background="new    " />
    <path
       style="fill:url(#path6918_1_)"
       inkscape:connector-curvature="0"
       id="path6918"
       d="m 339.9748,360.06374 c 0,0 -23.40181,12.34183 -29.44125,18.83803 -6.03944,6.49621 -18.87325,42.22265 -20.76007,47.41875 -1.88782,5.1961 -8.30523,42.87215 -11.32395,50.34264 -3.01971,7.46938 -6.41739,14.29035 -7.54929,19.48645 -0.62994,2.89131 7.17133,0 7.17133,0 0,0 9.81309,-37.35022 10.94598,-45.14545 1.13189,-7.79523 12.83381,-41.24838 16.23049,-50.99106 3.39768,-9.74378 10.56901,-25.0084 18.49628,-28.25705 7.90926,-3.2367 16.58845,-11.36103 16.21849,-11.68687 z"
       sodipodi:nodetypes="csssscsssc" />
    <path
       style="fill:url(#path7801_1_)"
       inkscape:connector-curvature="0"
       id="path7801"
       d="m 380.29106,367.61242 c 0,0 16.90942,8.20797 22.97986,12.31142 6.07044,4.10343 19.74716,25.11809 24.7147,34.32313 5.63747,10.44651 20.3781,50.36654 20.81006,63.79667 0.43496,13.43122 4.44559,19.86661 5.63747,17.16212 1.19289,-2.70449 -0.86691,-20.51939 -3.03471,-27.60754 -2.1678,-7.08924 -21.43701,-59.08825 -29.48326,-70.51227 -17.34839,-24.62282 -42.05609,-30.5966 -41.62612,-29.47787 z"
       sodipodi:nodetypes="cssssssc" />
    <path
       style="opacity:0.24320003;stroke:#000000;stroke-width:0.9421919"
       inkscape:connector-curvature="0"
       id="path9559"
       enable-background="new    "
       d="m 358.18311,355.67573 c 0,0 25.58062,2.98472 28.61634,4.10344 3.03472,1.11982 37.72049,27.23499 40.75721,30.96589 3.03371,3.73089 35.98665,75.36298 40.7572,89.16675 4.76856,13.80376 -3.03471,17.90829 -3.03471,17.90829 l -8.6722,-0.37255 c 0,0 -5.63648,-38.05513 -7.80627,-44.3971 -2.1668,-6.34198 -22.97886,-60.06685 -30.78313,-66.78138 -7.80628,-6.71561 -36.85458,-23.87772 -45.09281,-24.99645 -8.23923,-1.12958 -13.87871,-5.2352 -14.73863,-5.60449 z"
       sodipodi:nodetypes="csssccsssc" />
  </g>
</svg>
