<?xml version="1.0" encoding="UTF-8" standalone="no"?>
<!-- Created with Inkscape (http://www.inkscape.org/) -->

<svg
   xmlns:dc="http://purl.org/dc/elements/1.1/"
   xmlns:cc="http://creativecommons.org/ns#"
   xmlns:rdf="http://www.w3.org/1999/02/22-rdf-syntax-ns#"
   xmlns:svg="http://www.w3.org/2000/svg"
   xmlns="http://www.w3.org/2000/svg"
   xmlns:sodipodi="http://sodipodi.sourceforge.net/DTD/sodipodi-0.dtd"
   xmlns:inkscape="http://www.inkscape.org/namespaces/inkscape"
   width="16"
   height="16"
   viewBox="0 0 16 16"
   id="svg4149"
   version="1.1"
   inkscape:version="0.91 r13725"
   sodipodi:docname="shop__beauty10.svg">
  <defs
     id="defs4151" />
  <sodipodi:namedview
     id="base"
     pagecolor="#ffffff"
     bordercolor="#666666"
     borderopacity="1.0"
     inkscape:pageopacity="0.0"
     inkscape:pageshadow="2"
     inkscape:zoom="45.254834"
     inkscape:cx="8.9789706"
     inkscape:cy="9.4003253"
     inkscape:document-units="px"
     inkscape:current-layer="layer1"
     showgrid="true"
     units="px"
     inkscape:snap-bbox="true"
     inkscape:bbox-paths="true"
     inkscape:bbox-nodes="true"
     inkscape:snap-bbox-edge-midpoints="true"
     inkscape:snap-bbox-midpoints="true"
     inkscape:object-paths="true"
     inkscape:snap-intersection-paths="true"
     inkscape:object-nodes="true"
     inkscape:snap-smooth-nodes="true"
     inkscape:snap-midpoints="true"
     inkscape:snap-object-midpoints="true"
     inkscape:snap-center="true"
     inkscape:snap-text-baseline="false"
     inkscape:snap-page="true"
     inkscape:snap-global="false">
    <inkscape:grid
       type="xygrid"
       id="grid4697" />
  </sodipodi:namedview>
  <metadata
     id="metadata4154">
    <rdf:RDF>
      <cc:Work
         rdf:about="">
        <dc:format>image/svg+xml</dc:format>
        <dc:type
           rdf:resource="http://purl.org/dc/dcmitype/StillImage" />
        <dc:title></dc:title>
      </cc:Work>
    </rdf:RDF>
  </metadata>
  <g
     inkscape:label="Layer 1"
     inkscape:groupmode="layer"
     id="layer1"
     transform="translate(0,-1036.3622)">
    <path
       style="fill:#cccccc;fill-rule:evenodd;stroke:none;stroke-width:1px;stroke-linecap:butt;stroke-linejoin:miter;stroke-opacity:1"
       d="m 1.295261,1046.0461 c 0.4758102,-2.617 3.9820475,-3.2654 6.704739,-3.2918 2.722692,-0.026 4,0 7.490264,3.2389 l -6.8728131,2.4055 z"
       id="path4180"
       inkscape:connector-curvature="0"
       sodipodi:nodetypes="ccccc" />
    <path
       style="fill:#7f2aff;fill-rule:evenodd;stroke:none;stroke-width:1px;stroke-linecap:butt;stroke-linejoin:miter;stroke-opacity:1"
       d="M 8.2421875,2.7324219 7.65625,5.4082031 6.4726562,5.4785151 5.0429688,3.1328125 5.4082031,5.7949219 4.3671875,6.3222656 2.7773438,3.90625 3.40625,6.921875 2.6425781,7.4609375 0.84302229,5.1284462 1.5429688,8.3222656 c 0,0 -1.04882818,0.6350453 -1.04882818,1.4941406 0,0.8590958 0.85156248,1.2246098 0.85156248,1.2246098 L 0.53320312,14.134766 2.375,11.615234 3.3066406,12.103519 2.5996094,15.091797 4.28125,12.541016 5.4082031,12.9375 l -0.3652343,2.662109 1.46875,-2.410156 1.1230468,0.0293 L 8.2421875,16 8.7558594,13.078125 9.828125,12.835938 l 1.365234,2.732421 -0.316406,-3.044921 1.007813,-0.333985 1.52539,2.947266 -0.404297,-3.351563 1.009766,-0.378906 1.595703,2.884766 -0.607422,-3.273438 c 0,0 0.996094,-0.339191 0.996094,-1.2167968 0,-0.8415147 -1.103516,-1.5 -1.103516,-1.5 L 15.655522,4.8391538 13.90625,7.5234375 13.005859,6.9550781 13.542739,3.7724798 11.958984,6.4023438 10.900391,5.9804688 11.193359,3.1640625 9.9238281,5.7050781 8.7265625,5.4902344 Z M 7.2871094,7.3925781 c 2.258149,-0.1888014 6.0175786,2.1445313 6.0175786,2.1445313 0,0 -3.9387404,1.7891436 -6.0253911,1.7128906 C 5.7728828,11.194951 3.03125,9.6992188 3.03125,9.6992188 c 0,0 1.9977104,-2.1178393 4.2558594,-2.3066407 z"
       transform="translate(0,1036.3622)"
       id="path4151"
       inkscape:connector-curvature="0"
       sodipodi:nodetypes="ccccccccccczcccccccccccccccccccccsccccccccccczcacz" />
    <path
       style="fill:none;fill-rule:evenodd;stroke:#784421;stroke-width:2;stroke-linecap:round;stroke-linejoin:miter;stroke-miterlimit:4;stroke-dasharray:none;stroke-opacity:1"
       d="m 1.0137856,1040.3622 c 2.1448529,0 4.3896429,-3 6.5344961,-3 3.7258593,0 5.3068623,1 7.4517183,1"
       id="path4150"
       inkscape:connector-curvature="0"
       sodipodi:nodetypes="csc" />
    <circle
       style="opacity:1;fill:#ffffff;fill-opacity:1;stroke:none;stroke-width:2;stroke-linecap:round;stroke-linejoin:round;stroke-miterlimit:4;stroke-dasharray:none;stroke-dashoffset:0.5;stroke-opacity:1"
       id="path4146"
       cx="7.5187278"
       cy="1045.6886"
       r="1.9343969" />
    <circle
       r="0.96719843"
       cy="1045.6886"
       cx="7.5187278"
       id="circle4148"
       style="opacity:1;fill:#000000;fill-opacity:1;stroke:none;stroke-width:2;stroke-linecap:round;stroke-linejoin:round;stroke-miterlimit:4;stroke-dasharray:none;stroke-dashoffset:0.5;stroke-opacity:1" />
  </g>
</svg>
