<?xml version="1.0" encoding="UTF-8" standalone="no"?>
<!-- Created with Inkscape (http://www.inkscape.org/) -->

<svg
   xmlns:dc="http://purl.org/dc/elements/1.1/"
   xmlns:cc="http://creativecommons.org/ns#"
   xmlns:rdf="http://www.w3.org/1999/02/22-rdf-syntax-ns#"
   xmlns:svg="http://www.w3.org/2000/svg"
   xmlns="http://www.w3.org/2000/svg"
   xmlns:sodipodi="http://sodipodi.sourceforge.net/DTD/sodipodi-0.dtd"
   xmlns:inkscape="http://www.inkscape.org/namespaces/inkscape"
   id="svg6468"
   sodipodi:docname="01.svg"
   viewBox="0 0 152.92334 167.08995"
   version="1.1"
   inkscape:version="0.48.5 r10040"
   width="100%"
   height="100%">
  <defs
     id="defs23" />
  <sodipodi:namedview
     id="base"
     bordercolor="#666666"
     inkscape:pageshadow="2"
     inkscape:window-y="-8"
     pagecolor="#ffffff"
     inkscape:window-height="988"
     inkscape:window-maximized="1"
     inkscape:zoom="1.979899"
     inkscape:window-x="-8"
     showgrid="false"
     borderopacity="1.0"
     inkscape:current-layer="layer1"
     inkscape:cx="30.696583"
     inkscape:cy="57.254658"
     inkscape:window-width="1680"
     inkscape:pageopacity="0.0"
     inkscape:document-units="px"
     fit-margin-top="0"
     fit-margin-left="0"
     fit-margin-right="0"
     fit-margin-bottom="0" />
  <g
     id="layer1"
     inkscape:label="Layer 1"
     inkscape:groupmode="layer"
     transform="translate(-230.68626,-140.30165)">
    <g
       id="g3018"
       transform="matrix(1.1504598,0,0,0.99998798,-37.904711,3.7907454)">
      <path
         id="path11-4-4"
         inkscape:connector-curvature="0"
         sodipodi:nodetypes="ccsccccccc"
         style="fill-rule:evenodd;stroke:#000000;stroke-width:0.02663;stroke-miterlimit:10"
         d="m 295.86,136.6 c -2.1037,0.0666 -3.9109,0.24295 -5.4688,0.5625 -3.0358,0.61248 -4.2449,1.6881 -5.6562,3.3125 -1.3848,1.5978 -2.1584,3.6403 -2.5312,6.25 0.86612,1.0264 0.27734,1.7542 6.7749,3.3858 1.0652,-1.4646 2.9222,-2.9597 5.3188,-3.3858 2.4766,-0.47934 5.7566,-0.61929 9.9375,-0.40625 1.2516,-1.8108 1.7177,-3.4335 1.5312,-5.0312 -0.15978,-1.6244 -1.0677,-3.0886 -2.7188,-4.5 -2.7029,-0.18641 -5.0838,-0.25407 -7.1875,-0.1875 z" />
      <path
         id="path35-5-9"
         inkscape:connector-curvature="0"
         sodipodi:nodetypes="ccccccccscccc"
         style="fill:#c0c0c0;fill-rule:evenodd;stroke:#000000;stroke-width:0.029743;stroke-miterlimit:10"
         d="m 291.28,145.44 c 0.80097,-0.96645 1.0573,-1.85 0.76893,-2.9822 -0.25631,-1.1045 -1.0573,-2.3471 -2.4029,-3.6172 -1.4417,0.60748 -2.6913,1.3254 -3.6204,2.4575 -0.96117,0.99405 -1.5699,2.7889 -2.0825,3.8934 -0.38447,1.1045 -0.67281,1.9329 -0.60874,2.5956 0.76894,0.46941 1.3777,1.0769 1.9544,1.9329 0.5767,0.85598 1.1214,1.8224 1.5058,3.1202 0.19222,-2.5956 -0.43066,-0.57227 0.27419,-1.7872 0.83301,-1.2702 2.8336,-5.7234 4.2112,-5.6129 z" />
    </g>
    <path
       id="path49-5"
       style="fill:#c0c0c0;fill-rule:evenodd;stroke:#000000;stroke-width:0.02856303;stroke-miterlimit:10"
       sodipodi:nodetypes="cccccscccccccccccccccccc"
       inkscape:connector-curvature="0"
       d="m 262.3859,193.02037 -10.76382,17.53179 c 0,0 -5.21307,6.17713 -6.77551,11.31686 -1.53265,5.08624 -3.52409,11.98286 -3.95298,19.86476 -0.36763,7.93631 0.85781,19.83877 1.89941,26.97668 1.22454,6.89622 3.12487,10.81087 4.87116,14.61982 1.74628,3.80726 3.37004,6.09813 5.36137,8.09461 2.17598,1.89137 4.74864,2.82266 6.77069,3.40856 1.93093,0.45269 3.36992,0.37279 4.90176,-0.1332 1.65436,-0.5325 3.27893,-1.41128 4.87208,-2.74277 l 9.16031,0.61249 c -1.34799,1.97058 -3.2466,3.78056 -5.36137,5.32514 -2.14538,1.59768 -4.62692,3.14226 -7.56715,4.02175 -2.91136,0.74559 -6.28128,1.91728 -9.77293,0.63909 -3.43125,-1.41138 -7.41402,-4.66084 -10.75335,-8.70779 -3.2474,-4.10095 -6.22007,-8.89349 -8.54757,-15.71181 -2.23649,-7.00352 -4.22863,-16.6958 -4.65752,-25.4837 -0.27573,-8.84099 1.40931,-19.67876 2.69599,-26.97667 1.37859,-7.32231 3.55469,-12.22186 5.36218,-16.5638 1.93012,-4.34055 3.61428,-7.08342 5.88138,-9.34689 2.29862,-2.31607 7.57083,-4.94364 10.42006,-5.60943 l 5.95593,-1.13639 z" />
    <g
       id="g6431"
       transform="matrix(1.1504598,0,0,0.99998798,-737.67433,-832.4473)">
      <path
         id="path47-0-8-2"
         d="m 874.02,1078.6 c 0,5.2616 -2.3039,9.5238 -5.1838,9.5238 -2.8415,0 -5.1454,-4.2622 -5.1454,-9.5238 0,-5.2606 2.3039,-9.5228 5.1454,-9.5228 2.8799,0 5.1838,4.2622 5.1838,9.5228 z"
         style="fill:#000000;fill-rule:evenodd;stroke:#000000;stroke-width:0.038398;stroke-miterlimit:10"
         inkscape:connector-curvature="0" />
      <path
         id="path47-6-1"
         d="m 872.43,1077.9 c 0,3.649 -1.5978,6.6049 -3.595,6.6049 -1.9706,0 -3.5684,-2.9559 -3.5684,-6.6049 0,-3.6483 1.5978,-6.6042 3.5684,-6.6042 1.9972,0 3.595,2.9559 3.595,6.6042 z"
         style="fill:#c0c0c0;fill-rule:evenodd;stroke:#000000;stroke-width:0.02663;stroke-miterlimit:10"
         inkscape:connector-curvature="0" />
      <path
         id="path45-8-2-2"
         d="m 884.03,1073.3 c 0.0607,11.133 -0.63662,25.628 -4.8286,38.409 -3.9663,13.759 -14.287,18.432 -22.196,0.4703 -4.8128,-22.449 -6.6817,-36.161 -0.49824,-57.782 4.6922,-13.588 11.934,-15.805 17.27,-12.32 2.8848,5.4393 6.9068,8.8085 10.254,31.222 z m 5.5912,-29.99 c 2.573,5.9868 4.5946,12.981 5.6054,20.003 1.0414,6.8533 1.164,13.456 0.49008,21.205 -0.55134,7.778 -1.7459,17.402 -4.1657,24.982 -2.4811,7.5255 -6.2179,15.191 -10.506,19.863 -4.1351,4.5321 -9.1741,6.2636 -13.891,6.0957 -4.6558,-0.2797 -8.554,-3.218 -12.873,-8.8123 -4.2882,-5.763 -8.0183,-16.314 -10.53,-26.33 -2.3892,-10.126 -2.2904,-24.454 -1.4021,-35.784 1.072,-11.442 4.0507,-21.895 8.5533,-29.756 3.3012,-5.0833 8.8928,-10.598 14.529,-11.856 5.7585,-1.1749 10.713,1.2552 14.879,4.9759 4.1657,3.6928 6.8306,9.3719 9.3116,15.415 z"
         sodipodi:nodetypes="cccccccccccccccccccc"
         style="fill:#000000;fill-rule:evenodd;stroke:#000000;stroke-width:0.029273;stroke-miterlimit:10"
         inkscape:connector-curvature="0" />
      <path
         id="path45-4-0"
         d="m 882.26,1054.2 c 1.5712,4.9531 2.3434,9.134 2.7162,15.712 0.37282,6.5775 0.23967,16.244 -0.39944,23.248 -0.47933,6.8438 -1.0386,12.516 -2.9026,17.842 -1.8641,5.326 -5.1662,11.211 -8.1487,13.768 -2.876,2.4225 -5.9917,2.7421 -9.0274,0.8514 -2.9559,-2.0231 -6.3378,-5.7513 -8.7079,-12.729 -2.2103,-7.1634 -4.6602,-19.2 -4.8732,-29.319 -0.13315,-10.226 1.225,-22.662 3.7814,-30.731 2.6896,-8.0688 8.0422,-14.753 11.637,-16.883 3.595,-2.1304 6.8704,1.4113 9.5068,4.4738 2.7428,3.0897 4.8466,8.7352 6.4177,13.768 z m 5.6188,-8.7878 c 2.2369,5.6988 3.9944,12.356 4.8732,19.04 0.90541,6.5236 1.0119,12.808 0.42607,20.185 -0.47933,7.4037 -1.5179,16.564 -3.6216,23.78 -2.157,7.1634 -5.4058,14.46 -9.134,18.907 -3.595,4.314 -8.415,7.1641 -12.516,7.0043 -4.0477,-0.2663 -8.0954,-3.0631 -11.85,-8.3883 -3.7282,-5.4857 -8.0688,-14.327 -10.252,-23.861 -2.0771,-9.6392 -3.089,-22.316 -2.3168,-33.101 0.93203,-10.892 3.3021,-23.726 7.2166,-31.209 3.9678,-7.4829 11.025,-11.77 15.925,-12.969 5.0064,-1.1184 9.5334,2.3967 13.155,5.9384 3.6216,3.5151 5.9384,8.9209 8.0954,14.673 z"
         style="fill:#c0c0c0;fill-rule:evenodd;stroke:#000000;stroke-width:0.02663;stroke-miterlimit:10"
         inkscape:connector-curvature="0" />
    </g>
    <path
       id="path11-4"
       style="fill-rule:evenodd;stroke:#000000;stroke-width:0.02856303;stroke-miterlimit:10"
       sodipodi:nodetypes="ccsccccccccccc"
       inkscape:connector-curvature="0"
       d="m 358.9555,144.08096 c -2.42022,0.0666 -4.49933,0.24295 -6.29163,0.56249 -3.49257,0.61247 -4.88359,1.68808 -6.50723,3.31246 -1.59316,1.59778 -2.48316,3.64026 -2.91205,6.24993 -18.58683,2.12037 -41.67771,4.00235 -56.70501,-4.19835 2.245,65.13521 7.85879,74.6071 -42.17241,105.91872 8.0806,0.14466 59.59727,8.4454 73.26934,6.61062 48.26984,-15.16281 32.70872,-50.21239 32.33022,-99.95679 0.24509,-2.87597 0.60277,-4.70435 1.79759,-6.06243 1.22547,-1.46458 2.63548,-1.88638 5.39278,-2.31247 2.84923,-0.47934 6.62274,-0.61929 11.4327,-0.40625 1.43991,-1.81078 1.97614,-3.43346 1.76158,-5.03114 -0.18382,-1.62438 -1.22834,-3.08856 -3.12787,-4.49994 -3.10958,-0.18641 -5.84871,-0.25407 -8.26893,-0.1875 z" />
    <path
       id="path35-5"
       style="fill:#c0c0c0;fill-rule:evenodd;stroke:#000000;stroke-width:0.031902;stroke-miterlimit:10"
       inkscape:connector-curvature="0"
       d="m 353.6864,152.92085 c 0.92148,-0.96644 1.21638,-1.84998 0.88462,-2.98216 -0.29488,-1.10449 -1.21638,-2.34707 -2.76444,-3.61716 -1.65862,0.60747 -3.09623,1.32539 -4.16513,2.45747 -1.10578,0.99404 -1.8061,2.78887 -2.39583,3.89336 -0.44232,1.10448 -0.77404,1.93287 -0.70033,2.59556 0.88463,0.46941 1.58499,1.07689 2.24846,1.93288 0.66347,0.85597 1.29012,1.82238 1.73236,3.12016 0.22114,-2.59557 0.73718,-4.50074 1.54806,-5.71573 0.95834,-1.27018 2.02723,-1.79478 3.61221,-1.68438 z" />
    <g
       id="g6437"
       transform="matrix(1.1504598,0,0,0.99998798,-737.67433,-830.44733)">
      <path
         id="path47-0-9"
         d="m 956.47,1083.6 c 0,5.2617 -2.3039,9.5239 -5.1838,9.5239 -2.8415,0 -5.1454,-4.2622 -5.1454,-9.5239 0,-5.2606 2.3039,-9.5228 5.1454,-9.5228 2.8799,0 5.1838,4.2622 5.1838,9.5228 z"
         style="fill:#000000;fill-rule:evenodd;stroke:#000000;stroke-width:0.038398;stroke-miterlimit:10"
         inkscape:connector-curvature="0" />
      <path
         id="path47-3"
         d="m 954.88,1083 c 0,3.649 -1.5978,6.6049 -3.595,6.6049 -1.9706,0 -3.5684,-2.9559 -3.5684,-6.6049 0,-3.6483 1.5978,-6.6041 3.5684,-6.6041 1.9972,0 3.595,2.9558 3.595,6.6041 z"
         style="fill:#c0c0c0;fill-rule:evenodd;stroke:#000000;stroke-width:0.02663;stroke-miterlimit:10"
         inkscape:connector-curvature="0" />
      <path
         id="path45-8-7"
         d="m 962.48,1073.1 c 0.0607,11.133 -0.63662,26.89 -4.8286,39.672 -3.9663,13.759 -14.287,18.432 -22.196,0.4703 -4.8128,-22.449 -6.6817,-36.161 -0.49824,-57.782 4.6922,-13.588 11.934,-15.805 17.27,-12.32 2.8848,5.4393 7.1593,8.3034 10.254,29.96 z m 5.5912,-28.728 c 2.573,5.9868 4.5946,12.981 5.6054,20.003 1.0414,6.8533 1.164,13.456 0.49008,21.205 -0.55134,7.778 -1.7459,17.402 -4.1657,24.982 -2.4811,7.5254 -6.2179,15.191 -10.506,19.863 -4.1351,4.532 -9.6792,7.5262 -14.396,7.3584 -4.6558,-0.2798 -9.3116,-3.218 -13.63,-8.8124 -4.2882,-5.763 -8.031,-15.944 -10.543,-25.96 -2.3892,-10.126 -2.8388,-22.908 -1.9505,-34.238 1.072,-11.442 3.7981,-24.926 8.3008,-32.787 4.5639,-7.8612 10.717,-12.008 16.353,-13.267 5.7585,-1.175 10.966,2.5178 15.131,6.2386 4.1657,3.6928 6.8306,9.3718 9.3116,15.415 z"
         sodipodi:nodetypes="cccccccccccccccccccc"
         style="fill:#000000;fill-rule:evenodd;stroke:#000000;stroke-width:0.029273;stroke-miterlimit:10"
         inkscape:connector-curvature="0" />
      <path
         id="path45-0"
         sodipodi:nodetypes="cscscccccsccccccccccccccccc"
         d="m 960.71,1055.2 c 1.5712,4.9532 3.101,9.134 3.4738,15.712 0.37282,6.5776 0.23967,16.244 -0.39944,23.248 -0.47933,6.8438 -1.7962,12.516 -3.6602,17.842 -1.8641,5.3259 -5.1662,11.211 -8.1487,13.768 -2.876,2.4226 -5.9917,2.7421 -9.0274,0.8514 -2.9559,-2.0231 -6.3378,-5.7513 -8.7079,-12.729 -2.2103,-7.1633 -4.6602,-19.2 -4.8732,-29.319 -0.13315,-10.226 1.225,-22.662 3.7814,-30.731 2.6896,-8.0688 8.0422,-14.753 11.637,-16.883 3.595,-2.1304 6.8704,1.4114 9.5068,4.4738 2.7428,3.0898 4.8466,8.7352 6.4177,13.768 z m 5.6188,-8.7877 c 2.2369,5.6987 3.9944,12.356 4.8732,19.04 0.90541,6.5235 1.0119,12.808 0.42607,20.184 -0.47933,7.4038 -1.5179,16.564 -3.6216,23.78 -2.157,7.1633 -5.4058,14.46 -9.134,18.907 -3.595,4.314 -8.415,7.1641 -12.516,7.0043 -4.0477,-0.2663 -8.0954,-3.0631 -11.85,-8.3883 -3.7282,-5.4857 -8.0688,-14.327 -10.252,-23.861 -2.0771,-9.6392 -3.089,-22.316 -2.3168,-33.101 0.93203,-10.892 3.3021,-23.726 7.2166,-31.209 3.9678,-7.483 11.025,-11.77 15.925,-12.969 5.0064,-1.1184 9.5334,2.3967 13.155,5.9384 3.6216,3.5151 5.9384,8.921 8.0954,14.673 z"
         style="fill:#c0c0c0;fill-rule:evenodd;stroke:#000000;stroke-width:0.02663;stroke-miterlimit:10"
         inkscape:connector-curvature="0" />
    </g>
  </g>
  <metadata
     id="metadata21">
    <rdf:RDF>
      <cc:Work>
        <dc:format>image/svg+xml</dc:format>
        <dc:type
           rdf:resource="http://purl.org/dc/dcmitype/StillImage" />
        <cc:license
           rdf:resource="http://creativecommons.org/licenses/publicdomain/" />
        <dc:publisher>
          <cc:Agent
             rdf:about="http://openclipart.org/">
            <dc:title>Openclipart</dc:title>
          </cc:Agent>
        </dc:publisher>
        <dc:title></dc:title>
        <dc:date>2011-03-14T10:50:30</dc:date>
        <dc:description>Simple wheelchair icon. Based on Gerald_G's &quot;Girl_in_wheelchair&quot;.</dc:description>
        <dc:source>https://openclipart.org/detail/127375/plain-wheelchair-by-tulvur</dc:source>
        <dc:creator>
          <cc:Agent>
            <dc:title>tulvur</dc:title>
          </cc:Agent>
        </dc:creator>
        <dc:subject>
          <rdf:Bag>
            <rdf:li>Gerald G Girl in wheelchair</rdf:li>
            <rdf:li>plain</rdf:li>
            <rdf:li>simple</rdf:li>
            <rdf:li>wheelchair</rdf:li>
          </rdf:Bag>
        </dc:subject>
      </cc:Work>
      <cc:License
         rdf:about="http://creativecommons.org/licenses/publicdomain/">
        <cc:permits
           rdf:resource="http://creativecommons.org/ns#Reproduction" />
        <cc:permits
           rdf:resource="http://creativecommons.org/ns#Distribution" />
        <cc:permits
           rdf:resource="http://creativecommons.org/ns#DerivativeWorks" />
      </cc:License>
    </rdf:RDF>
  </metadata>
</svg>
