<svg xmlns:dc="http://purl.org/dc/elements/1.1/" xmlns:cc="http://creativecommons.org/ns#" xmlns:rdf="http://www.w3.org/1999/02/22-rdf-syntax-ns#" xmlns:svg="http://www.w3.org/2000/svg" xmlns="http://www.w3.org/2000/svg" version="1.1" width="100%" height="100%" viewBox="0 0 16 16" id="svg2">
  <metadata id="metadata8">
    <rdf:RDF>
      <cc:Work rdf:about="">
        <dc:format>image/svg+xml</dc:format>
        <dc:type rdf:resource="http://purl.org/dc/dcmitype/StillImage"/>
        <dc:title/>
      </cc:Work>
    </rdf:RDF>
  </metadata>
  <defs id="defs6"/>
  <rect width="16" height="16" x="0" y="0" id="canvas" style="fill:none;stroke:none;visibility:hidden"/><rect x="0" y="0" width="16" height="16" rx="2" ry="2" id="shield" style="fill:#ffffff;stroke:none;"/>
  <path d="m 1,1 0,13 12,0 0,-13 z m 1,1 10,0 0,11 -10,0 z m 1,1 0,2 8,0 0,-2 z M 3,6 3,6.5 6,6.5 6,6 z m 5,4 0,0.5 3,0 0,-0.5 z M 3,7 3,7.5 6,7.5 6,7 z m 5,4 0,0.5 3,0 0,-0.5 z M 3,8 3,8.5 6,8.5 6,8 z M 3,9 3,9.5 6,9.5 6,9 z m 5,-3 0,3 3,0 0,-3 z m -5,4 0,0.5 3,0 0,-0.5 z m 0,1 0,0.5 3,0 0,-0.5 z" id="news" style="fill:#ac39ac;fill-opacity:1" transform="translate(1,1)"/>
</svg>
