<?xml version="1.0" encoding="UTF-8" standalone="no"?>
<!-- Created with Inkscape (http://www.inkscape.org/) -->

<svg
   xmlns:dc="http://purl.org/dc/elements/1.1/"
   xmlns:cc="http://creativecommons.org/ns#"
   xmlns:rdf="http://www.w3.org/1999/02/22-rdf-syntax-ns#"
   xmlns:svg="http://www.w3.org/2000/svg"
   xmlns="http://www.w3.org/2000/svg"
   xmlns:xlink="http://www.w3.org/1999/xlink"
   xmlns:sodipodi="http://sodipodi.sourceforge.net/DTD/sodipodi-0.dtd"
   xmlns:inkscape="http://www.inkscape.org/namespaces/inkscape"
   width="15.99997"
   height="13.019"
   id="svg3168"
   version="1.1"
   inkscape:version="0.48.5 r10040"
   sodipodi:docname="New document 2">
  <defs
     id="defs3170">
    <linearGradient
       inkscape:collect="always"
       xlink:href="#linearGradient4893"
       id="linearGradient3119"
       gradientUnits="userSpaceOnUse"
       x1="289.29999"
       y1="429.13"
       x2="289.29999"
       y2="420.67999" />
    <linearGradient
       id="linearGradient4893"
       inkscape:collect="always">
      <stop
         id="stop4895"
         style="stop-color:#729fcf"
         offset="0" />
      <stop
         id="stop4897"
         style="stop-color:#eeeeec"
         offset="1" />
    </linearGradient>
    <linearGradient
       inkscape:collect="always"
       xlink:href="#linearGradient2194"
       id="linearGradient3130"
       gradientUnits="userSpaceOnUse"
       gradientTransform="matrix(0.58027148,0,0,0.79986757,-180.30929,695.4509)"
       x1="329.03"
       y1="434.63"
       x2="329.03"
       y2="433.06" />
    <linearGradient
       id="linearGradient2194"
       inkscape:collect="always">
      <stop
         id="stop2196"
         style="stop-color:#babdb6"
         offset="0" />
      <stop
         id="stop2198"
         style="stop-color:#eeeeec"
         offset="1" />
    </linearGradient>
    <linearGradient
       inkscape:collect="always"
       xlink:href="#linearGradient2204"
       id="linearGradient3133"
       gradientUnits="userSpaceOnUse"
       gradientTransform="matrix(0.29251852,0,0,0.29251852,343.00012,452.99408)"
       x1="225.75999"
       y1="288.59"
       x2="225.75999"
       y2="309.35999" />
    <linearGradient
       id="linearGradient2204">
      <stop
         id="stop2206"
         style="stop-color:#babdb6"
         offset="0" />
      <stop
         id="stop2208"
         style="stop-color:#7b7f76"
         offset=".81098" />
      <stop
         id="stop2210"
         style="stop-color:#50524e"
         offset="1" />
    </linearGradient>
    <linearGradient
       y2="309.35999"
       x2="225.75999"
       y1="288.59"
       x1="225.75999"
       gradientTransform="matrix(0.29251852,0,0,0.29251852,-48.17407,960.67675)"
       gradientUnits="userSpaceOnUse"
       id="linearGradient3166"
       xlink:href="#linearGradient2204"
       inkscape:collect="always" />
  </defs>
  <sodipodi:namedview
     id="base"
     pagecolor="#ffffff"
     bordercolor="#666666"
     borderopacity="1.0"
     inkscape:pageopacity="0.0"
     inkscape:pageshadow="2"
     inkscape:zoom="0.35"
     inkscape:cx="375"
     inkscape:cy="520.00002"
     inkscape:document-units="px"
     inkscape:current-layer="layer1"
     showgrid="false"
     fit-margin-top="0"
     fit-margin-left="0"
     fit-margin-right="0"
     fit-margin-bottom="0"
     inkscape:window-width="1680"
     inkscape:window-height="988"
     inkscape:window-x="-8"
     inkscape:window-y="-8"
     inkscape:window-maximized="1" />
  <metadata
     id="metadata3173">
    <rdf:RDF>
      <cc:Work
         rdf:about="">
        <dc:format>image/svg+xml</dc:format>
        <dc:type
           rdf:resource="http://purl.org/dc/dcmitype/StillImage" />
        <dc:title></dc:title>
      </cc:Work>
    </rdf:RDF>
  </metadata>
  <g
     inkscape:label="Layer 1"
     inkscape:groupmode="layer"
     id="layer1"
     transform="translate(0,-1039.3432)">
    <path
       id="path3943"
       style="fill:url(#linearGradient3166)"
       d="m 3.6371104,1040.0339 c -0.71368,0 -1.28923,0.5295 -1.3583,1.2316 -0.42591,0.1497 -0.72519,0.5411 -0.72519,1.013 v 8.311 c 0,0.5986 0.48346,1.082 1.08203,1.082 H 14.22727 c 0.59857,0 1.08204,-0.4834 1.08204,-1.082 v -8.311 c 0,-0.5986 -0.48347,-1.082 -1.08204,-1.082 H 6.7911404 c -0.1036,-0.6677 -0.64462,-1.1626 -1.33528,-1.1626 h -1.81875 z"
       inkscape:connector-curvature="0" />
    <path
       id="path3859"
       style="fill:url(#linearGradient3130)"
       d="m 6.5033604,1041.5878 c -0.0345,0.9094 0.48347,1.508 1.10506,1.508 H 15.02153 v -0.5525 c 0,-0.4144 -0.34533,-0.7252 -0.79426,-0.7252 H 6.7911404 c -0.14964,0 -0.27627,-0.1036 -0.28778,-0.2303 z"
       inkscape:connector-curvature="0" />
    <path
       id="path3857"
       style="fill:#555753"
       d="m 3.6371104,1039.3432 c -0.89786,0 -1.57701,0.6331 -1.85327,1.4504 -0.52951,0.2993 -0.92088999,0.8288 -0.92088999,1.4849 v 8.311 c 0,0.9669 0.80577999,1.7727 1.77269999,1.7727 H 14.22727 c 0.97844,0 1.7727,-0.8058 1.7727,-1.7727 v -8.311 c 0,-0.9784 -0.79426,-1.7727 -1.7727,-1.7727 H 7.1594904 c -0.34533,-0.6561 -0.92088,-1.1626 -1.70363,-1.1626 h -1.81875 z m 0,1.3813 h 1.81875 c 0.35684,0 0.59857,0.2302 0.64462,0.5756 0.0575,0.3338 0.34533,0.587 0.69066,0.5755 H 14.22727 c 0.23022,0 0.40289,0.1727 0.40289,0.4029 v 8.311 c 0,0.2302 -0.17267,0.3914 -0.40289,0.3914 H 2.6356504 c -0.23022,0 -0.39137,-0.1612 -0.39137,-0.3914 v -8.311 c 0,-0.1842 0.1036,-0.3108 0.26475,-0.3568 0.25324,-0.092 0.42591,-0.3223 0.46044,-0.5871 0.0345,-0.3568 0.29929,-0.6101 0.66764,-0.6101 z"
       inkscape:connector-curvature="0" />
    <path
       id="path3869"
       sodipodi:rx="1.125"
       sodipodi:ry="1.125"
       style="fill:#ef2929"
       sodipodi:type="arc"
       d="m 283.125,434.98718 c 0,0.62132 -0.50368,1.125 -1.125,1.125 -0.62132,0 -1.125,-0.50368 -1.125,-1.125 0,-0.62132 0.50368,-1.125 1.125,-1.125 0.62132,0 1.125,0.50368 1.125,1.125 z"
       transform="matrix(1.1238458,0,0,1.1238458,-310.96764,554.79061)"
       sodipodi:cy="434.98718"
       sodipodi:cx="282" />
    <path
       id="path3843"
       sodipodi:rx="6.25"
       sodipodi:ry="6.25"
       style="fill:url(#linearGradient3119);stroke:#555753;stroke-width:2.9467001;stroke-linecap:round;stroke-linejoin:round;stroke-miterlimit:2.41420007"
       sodipodi:type="arc"
       d="m 295,425.11218 c 0,3.45178 -2.79822,6.25 -6.25,6.25 -3.45178,0 -6.25,-2.79822 -6.25,-6.25 0,-3.45178 2.79822,-6.25 6.25,-6.25 3.45178,0 6.25,2.79822 6.25,6.25 z"
       transform="matrix(0.54181309,0,0,0.54181309,-146.31719,817.11107)"
       sodipodi:cy="425.11218"
       sodipodi:cx="288.75" />
    <path
       id="path3951"
       sodipodi:nodetypes="ccccccsc"
       style="fill:#555753"
       d="M 0.41402041,1042.8886 H 3.5450304 c 0.59857,0 1.08203,0.495 1.08203,1.0935 -0.41439,1.6807 -0.34533,3.3728 0,5.0534 0,0.5986 -0.48346,1.082 -1.08203,1.082 H 0.41402041 c -0.79426,-0.8057 -0.0345,-2.2676 -0.046,-3.7065 -0.0115,-1.3583 -0.85182,-2.7051 0.046,-3.5224 z"
       inkscape:connector-curvature="0" />
    <path
       id="path3871"
       sodipodi:nodetypes="ccccccc"
       style="fill:#babdb6"
       d="m 0.05718041,1044.3505 c 0.0576,0.4144 0.19569,0.8863 0.28778,1.3698 H 2.8428504 c 0.48347,0 0.87484,-0.2647 0.87484,-0.6101 v -0.1496 c 0,-0.3453 -0.39137,-0.6101 -0.87484,-0.6101 H 0.05718041 z"
       inkscape:connector-curvature="0" />
    <path
       id="path3873"
       sodipodi:nodetypes="ccccccc"
       style="fill:#babdb6"
       d="m 0.35647041,1047.1707 c -0.0691,0.495 -0.19569,0.9554 -0.25325,1.3813 H 2.8658704 c 0.48347,0 0.87484,-0.2762 0.87484,-0.6101 v -0.1496 c 0,-0.3453 -0.39137,-0.6216 -0.87484,-0.6216 H 0.35647041 z"
       inkscape:connector-curvature="0" />
  </g>
</svg>
