<?xml version="1.0" encoding="UTF-8" standalone="no"?>
<svg
   xmlns:dc="http://purl.org/dc/elements/1.1/"
   xmlns:cc="http://creativecommons.org/ns#"
   xmlns:rdf="http://www.w3.org/1999/02/22-rdf-syntax-ns#"
   xmlns:svg="http://www.w3.org/2000/svg"
   xmlns="http://www.w3.org/2000/svg"
   xmlns:sodipodi="http://sodipodi.sourceforge.net/DTD/sodipodi-0.dtd"
   xmlns:inkscape="http://www.inkscape.org/namespaces/inkscape"
   height="16"
   width="16"
   version="1.1"
   viewBox="0 0 16 16"
   id="svg12"
   sodipodi:docname="buttonshowb.svg"
   inkscape:version="0.92.3 (2405546, 2018-03-11)">
  <metadata
     id="metadata18">
    <rdf:RDF>
      <cc:Work
         rdf:about="">
        <dc:format>image/svg+xml</dc:format>
        <dc:type
           rdf:resource="http://purl.org/dc/dcmitype/StillImage" />
        <dc:title></dc:title>
      </cc:Work>
    </rdf:RDF>
  </metadata>
  <defs
     id="defs16" />
  <sodipodi:namedview
     pagecolor="#ffffff"
     bordercolor="#666666"
     borderopacity="1"
     objecttolerance="10"
     gridtolerance="10"
     guidetolerance="10"
     inkscape:pageopacity="0"
     inkscape:pageshadow="2"
     inkscape:window-width="1680"
     inkscape:window-height="987"
     id="namedview14"
     showgrid="true"
     inkscape:zoom="27.501145"
     inkscape:cx="10.4305"
     inkscape:cy="8.4868422"
     inkscape:window-x="-8"
     inkscape:window-y="-8"
     inkscape:window-maximized="1"
     inkscape:current-layer="svg12"
     units="px">
    <inkscape:grid
       type="xygrid"
       id="grid817" />
  </sodipodi:namedview>
  <path
     style="fill:#ffffff;stroke-width:0.60000014"
     inkscape:connector-curvature="0"
     id="path2"
     d="M 8.7527913,6.5363424 C 7.7836703,6.5379172 6.8442658,6.920922 6.0431281,7.4754948 5.6118269,7.7675104 5.2470529,8.1484835 4.8810338,8.5221648 4.5809869,8.8166845 4.2114127,9.0153408 3.8299431,9.165774 c -0.08422,0.029686 -0.00225,0.1105728 0.032476,0.1473937 0.2593357,0.289732 0.5469398,0.5535416 0.8774902,0.7503713 1.009742,0.637364 2.1575407,1.065088 3.3396228,1.129501 0.6258197,0.02363 1.2605651,-0.02441 1.8584463,-0.231831 0.8082186,-0.27237 1.5500896,-0.752143 2.1641716,-1.3652073 0.06075,-0.070161 0.159424,0.019765 0.23793,0.026931 0.05182,0.00315 0.138874,0.071736 0.175393,0.012442 C 12.448348,9.2372266 12.297313,8.8568441 12.122707,8.497699 11.793132,7.8431522 11.297366,7.2431675 10.629635,6.9629478 10.135558,6.742881 9.6116208,6.5678874 9.0722862,6.5406733 8.9657899,6.5367358 8.8591744,6.5359483 8.7526106,6.5367358 Z m 0.1219313,0.3029295 c 0.7120575,-0.00882 1.4056424,0.237682 2.0190934,0.6080009 0.04883,0.067562 0.04118,0.1805609 0.06015,0.2686285 0.09381,0.7924676 -0.187821,1.6141728 -0.735691,2.1697538 C 9.7772689,10.343041 9.1826577,10.659571 8.5573031,10.662972 8.1492752,10.694862 7.7410148,10.615092 7.3669102,10.439543 6.689594,10.13029 6.1545269,9.4965003 5.9577882,8.7460665 5.8983109,8.5034552 5.8375518,8.2522292 5.8600976,8.0004126 5.9522229,7.8523889 6.1166357,7.7732666 6.2474923,7.6677965 6.5818452,7.451714 6.9351891,7.2669167 7.2943379,7.1008607 7.8074588,6.9533725 8.3397138,6.8396027 8.8746229,6.8392168 Z" />
  <path
     style="fill:#4d4d4d;stroke-width:0.75000024"
     inkscape:connector-curvature="0"
     id="path4"
     d="m 11.649953,5.9017809 0.176068,0.1231956 c 0.519909,0.3971236 0.991403,0.875527 1.321249,1.4593771 0.388347,0.6720988 0.668616,1.4128391 0.852732,2.1731791 l -0.01275,0.020077 c -0.256447,-0.036383 -0.515686,0.036383 -0.751253,0.1378576 -0.886326,0.3541297 -1.628707,0.9933137 -2.463903,1.4505427 -0.524185,0.325616 -1.1259286,0.475663 -1.7223398,0.568432 -0.8351965,0.07717 -1.686173,0.05363 -2.5041413,-0.152883 C 5.7212037,11.473913 4.9249335,11.145722 4.1748198,10.731109 3.8781704,10.537123 3.5845061,10.336789 3.2830491,10.151913 l -0.072077,-0.05055 C 2.7846125,9.7253868 2.3713795,9.327759 1.9999978,8.8938383 l 0.00675,-0.010237 C 2.1918161,8.875412 2.3712143,8.7886909 2.5211365,8.6772361 3.2842932,8.1088357 3.8563137,7.3141634 4.5936695,6.7132258 4.9517909,6.4000044 5.3648214,6.1683463 5.7585839,5.9107656 6.8181273,5.3927932 7.9898444,5.0259862 9.1697215,5.1488274 10.037034,5.2003262 10.898241,5.4367404 11.65032,5.9015683 M 10.919729,7.1257281 C 10.312615,6.8089474 9.6556616,6.5704544 8.9722479,6.5505006 7.522265,6.4990018 6.1356583,7.2297494 5.1314815,8.2923573 4.7779654,8.7113403 4.2901575,9.041665 3.7905142,9.1899721 c 0.4718023,0.6481839 1.18626,1.0136919 1.867649,1.3660259 0.8987907,0.393769 1.8679118,0.662547 2.8492129,0.61912 1.3600398,0.01748 2.6574759,-0.653941 3.6236569,-1.629056 0.123499,1.417e-4 0.257776,0.11051 0.377885,0.093336 C 12.288245,8.6500064 11.772874,7.6636545 10.919789,7.1260195 Z" />
  <path
     style="fill:#808080;fill-opacity:1;stroke-width:0.75000024"
     inkscape:connector-curvature="0"
     id="path6"
     d="m 9.2656123,6.8377443 c -0.0204,0.027166 0.018375,0.044176 0.038625,0.047325 C 9.4160961,6.9674044 9.5077331,7.0790482 9.5854361,7.196204 9.7538089,7.45458 9.8351412,7.772345 9.8111329,8.0837632 9.7959829,8.7033317 9.3535138,9.2747087 8.7853563,9.4301973 8.3081312,9.5858988 7.7557688,9.443899 7.4008574,9.0728951 6.9196648,8.5979721 6.8439425,7.7474306 7.2247139,7.182613 c 0.027,-0.041734 0.059025,-0.079051 0.088128,-0.119211 -0.4420336,0.2078299 -0.8912831,0.4159592 -1.2770053,0.7288814 -0.08266,0.063232 -0.1919685,0.1235892 -0.2128042,0.2390128 -0.0045,0.058507 0.011401,0.1160612 0.011101,0.1748203 0.057677,0.7188573 0.3830221,1.4240285 0.9267596,1.8742655 0.2960492,0.257368 0.647698,0.442338 1.0209543,0.538209 0.6609213,0.172908 1.395014,0.08075 1.9724576,-0.309433 C 9.9538407,10.169032 10.149454,10.019025 10.311857,9.831841 10.825698,9.2533692 11.093449,8.4256321 10.96923,7.6396139 10.957305,7.5722083 10.946805,7.5018348 10.926105,7.4380913 10.415601,7.1332089 9.8571709,6.8918574 9.2678098,6.8342953 l -0.00225,0.00315 z" />
  <path
     style="fill:#1a1812;stroke-width:0.75000024"
     inkscape:connector-curvature="0"
     id="path8"
     d="M 8.8332161,6.811231 C 8.3096395,6.8191053 7.7936085,6.9371433 7.2893377,7.0735049 6.8675165,7.5838549 6.8685965,8.4028199 7.2606127,8.9310607 7.4575987,9.1936495 7.7379578,9.3876913 8.0488801,9.4636875 8.3147935,9.532431 8.5985876,9.5166038 8.8568876,9.421638 9.4126333,9.2371478 9.8280484,8.6553451 9.8255809,8.0409659 9.8510809,7.5974068 9.6528874,7.1489892 9.3195328,6.8769274 9.3058078,6.8665331 9.2567578,6.8663756 9.2803078,6.8395241 9.2645578,6.8288149 9.2224828,6.8310199 9.1960797,6.8262161 9.0755209,6.8142469 8.9543547,6.8097589 8.8332784,6.8112544 Z" />
</svg>
