<svg xmlns="http://www.w3.org/2000/svg" viewBox="0 0 64 64" xmlns:xlink="http://www.w3.org/1999/xlink"><defs><path id="0" d="M26.516505 30.85437A6.805903 6.805903 0 1 1 12.904699 30.85437 6.805903 6.805903 0 1 1 26.516505 30.85437z" stroke-width=".763" stroke="#000" fill="#fff"/></defs><g transform="matrix(.96314.269-.269.96314 0 0)"><path fill="#d99f9f" stroke="#000" stroke-width=".933" d="m10.326-1.361h50.07v34h-50.07z"/><g fill="none" stroke="#b50023"><path d="m20.36.605h6v6h-6z"/><path d="m28.36.605h6v6h-6z"/><path d="m36.36.605h6v6h-6z"/><path d="m44.36.605h6v6h-6z"/><path d="m12.36.605h6v6h-6z"/><path d="m52.36.605h6v6h-6z"/><path d="m20.36 8.605h6v6h-6z"/><path d="m28.36 8.605h6v6h-6z"/><path d="m36.36 8.605h6v6h-6z"/><path d="m44.36 8.605h6v6h-6z"/><path d="m12.36 8.605h6v6h-6z"/><path d="m52.36 8.605h6v6h-6z"/><path d="m20.36 16.605h6v6h-6z"/><path d="m28.36 16.605h6v6h-6z"/><path d="m36.36 16.605h6v6h-6z"/><path d="m44.36 16.605h6v6h-6z"/><path d="m12.36 16.605h6v6h-6z"/><path d="m52.36 16.605h6v6h-6z"/><path d="m20.36 24.605h6v6h-6z"/><path d="m28.36 24.605h6v6h-6z"/><path d="m36.36 24.605h6v6h-6z"/><path d="m44.36 24.605h6v6h-6z"/><path d="m12.36 24.605h6v6h-6z"/><path d="m52.36 24.605h6v6h-6z"/></g></g><g fill="none" fill-rule="evenodd" stroke="#000" fill-opacity=".75"><path d="m11.394 3.291c1.803 4.343 2.717 7.305 4.471 10.01.207.32.542.538.813.807"/><path d="m16.904 5.869c.405.626-1.459.312-2.195.425-1.835.282-2.81 2.868-4.099 3.525"/></g><g transform="translate(-.164-37.414)"><g transform="matrix(1.31035 0 0 1.31035-27.27 12.595)"><use transform="translate(33.595 16.452)" xlink:href="#0"/><text x="49.561" y="49.45" font-family="Bitstream Vera Sans" text-align="start" line-height="125%" font-size="6"><tspan x="49.561" y="49.45">23</tspan></text></g><g transform="matrix(1.31035 0 0 1.31035-.647 6.457)"><use transform="translate(2.595 21.452)" xlink:href="#0"/><text x="39.434" y="58.44" transform="matrix(1.14348.27466-.40395.7775 0 0)" font-family="Bitstream Vera Sans" text-anchor="middle" text-align="center" line-height="100%" font-size="4.947"><tspan x="39.434" y="58.44">12</tspan></text></g><g transform="matrix(1.31035 0 0 1.31035 4.353 2.465)"><use transform="translate(17.984 18.84)" xlink:href="#0"/><text x="45.06" y="43.613" transform="scale(.83872 1.1923)" font-family="Bitstream Vera Sans" text-align="start" line-height="125%" font-size="5.03"><tspan x="45.06" y="43.613">42</tspan></text></g></g></svg>