<?xml version="1.0" encoding="UTF-8" standalone="no"?>
<!-- Created with Inkscape (http://www.inkscape.org/) -->
<svg
   xmlns:dc="http://purl.org/dc/elements/1.1/"
   xmlns:cc="http://creativecommons.org/ns#"
   xmlns:rdf="http://www.w3.org/1999/02/22-rdf-syntax-ns#"
   xmlns:svg="http://www.w3.org/2000/svg"
   xmlns="http://www.w3.org/2000/svg"
   xmlns:xlink="http://www.w3.org/1999/xlink"
   xmlns:sodipodi="http://sodipodi.sourceforge.net/DTD/sodipodi-0.dtd"
   xmlns:inkscape="http://www.inkscape.org/namespaces/inkscape"
   width="24"
   height="24"
   id="svg2"
   sodipodi:version="0.32"
   inkscape:version="0.46"
   version="1.0"
   sodipodi:docname="closechangeset.svg"
   inkscape:output_extension="org.inkscape.output.svg.inkscape"
   inkscape:export-filename="C:\data\projekte\eclipse-3.5-ws\JOSM\images\closechangeset.png"
   inkscape:export-xdpi="90"
   inkscape:export-ydpi="90">
  <defs
     id="defs4">
    <linearGradient
       id="linearGradient1400">
      <stop
         id="stop1401"
         offset="0.0000000"
         style="stop-color:#000000;stop-opacity:0.67843139;" />
      <stop
         id="stop1403"
         offset="0.56999999"
         style="stop-color:#000000;stop-opacity:0.32941177;" />
      <stop
         id="stop1402"
         offset="1.0000000"
         style="stop-color:#000000;stop-opacity:0.00000000;" />
    </linearGradient>
    <linearGradient
       inkscape:collect="always"
       xlink:href="#linearGradient1400"
       id="linearGradient17450"
       gradientUnits="userSpaceOnUse"
       gradientTransform="matrix(0.1148815,0,0,0.111489,-49.944348,-46.709945)"
       x1="537.42401"
       y1="580.16663"
       x2="539.39642"
       y2="510.39194" />
    <inkscape:perspective
       sodipodi:type="inkscape:persp3d"
       inkscape:vp_x="0 : 526.18109 : 1"
       inkscape:vp_y="6.1230318e-14 : 1000 : 0"
       inkscape:vp_z="744.09448 : 526.18109 : 1"
       inkscape:persp3d-origin="372.04724 : 350.78739 : 1"
       id="perspective10" />
    <inkscape:perspective
       id="perspective3269"
       inkscape:persp3d-origin="372.04724 : 350.78739 : 1"
       inkscape:vp_z="744.09448 : 526.18109 : 1"
       inkscape:vp_y="0 : 1000 : 0"
       inkscape:vp_x="0 : 526.18109 : 1"
       sodipodi:type="inkscape:persp3d" />
    <inkscape:perspective
       id="perspective4004"
       inkscape:persp3d-origin="372.04724 : 350.78739 : 1"
       inkscape:vp_z="744.09448 : 526.18109 : 1"
       inkscape:vp_y="0 : 1000 : 0"
       inkscape:vp_x="0 : 526.18109 : 1"
       sodipodi:type="inkscape:persp3d" />
    <inkscape:perspective
       id="perspective4054"
       inkscape:persp3d-origin="372.04724 : 350.78739 : 1"
       inkscape:vp_z="744.09448 : 526.18109 : 1"
       inkscape:vp_y="0 : 1000 : 0"
       inkscape:vp_x="0 : 526.18109 : 1"
       sodipodi:type="inkscape:persp3d" />
    <inkscape:perspective
       id="perspective4104"
       inkscape:persp3d-origin="372.04724 : 350.78739 : 1"
       inkscape:vp_z="744.09448 : 526.18109 : 1"
       inkscape:vp_y="0 : 1000 : 0"
       inkscape:vp_x="0 : 526.18109 : 1"
       sodipodi:type="inkscape:persp3d" />
    <inkscape:perspective
       id="perspective2556"
       inkscape:persp3d-origin="372.04724 : 350.78739 : 1"
       inkscape:vp_z="744.09448 : 526.18109 : 1"
       inkscape:vp_y="0 : 1000 : 0"
       inkscape:vp_x="0 : 526.18109 : 1"
       sodipodi:type="inkscape:persp3d" />
  </defs>
  <sodipodi:namedview
     id="base"
     pagecolor="#ffffff"
     bordercolor="#666666"
     borderopacity="1.0"
     inkscape:pageopacity="0.0"
     inkscape:pageshadow="2"
     inkscape:zoom="11.2"
     inkscape:cx="6.0335269"
     inkscape:cy="25.086803"
     inkscape:document-units="px"
     inkscape:current-layer="layer1"
     showgrid="false"
     inkscape:window-width="1103"
     inkscape:window-height="824"
     inkscape:window-x="150"
     inkscape:window-y="77"
     inkscape:snap-global="true" />
  <metadata
     id="metadata7">
    <rdf:RDF>
      <cc:Work
         rdf:about="">
        <dc:format>image/svg+xml</dc:format>
        <dc:type
           rdf:resource="http://purl.org/dc/dcmitype/StillImage" />
      </cc:Work>
    </rdf:RDF>
  </metadata>
  <g
     inkscape:label="Ebene 1"
     inkscape:groupmode="layer"
     id="layer1">
    <path
       sodipodi:type="inkscape:offset"
       inkscape:radius="4.5834389"
       inkscape:original="M 547.25 494.90625 C 547.15581 494.91224 547.06196 494.92267 546.96875 494.9375 C 546.73282 494.97719 546.68628 494.99521 546.84375 494.96875 C 524.84282 498.66333 486.64226 504.70723 464.125 512.78125 C 463.15567 513.13537 462.43455 513.95957 462.21875 514.96875 C 462.15787 515.25343 462.16594 515.52974 462.1875 515.8125 C 462.05699 516.6851 462.30033 517.57519 462.90625 518.25 C 470.3466 526.58465 475.04831 536.96666 477.65625 546.5625 C 480.26419 556.15834 480.71815 565.04611 480 569.8125 C 479.30782 574.40653 476.22839 582.0513 474.59375 588.9375 C 473.77643 592.3806 473.25435 595.69511 473.90625 598.84375 C 474.55815 601.99239 477.07104 604.95638 480.71875 605.78125 C 480.7809 605.79364 480.84344 605.80407 480.90625 605.8125 C 502.83748 609.49724 508.3071 611.152 530.28125 619.03125 C 531.00412 619.2851 531.77801 619.24067 532.46875 618.9375 C 532.87181 618.81636 533.26667 618.66906 533.71875 618.53125 C 555.08828 610.94998 576.58139 605.04634 597.875 601.46875 C 597.95919 601.45151 598.0426 601.43065 598.125 601.40625 C 601.50992 600.51027 603.68441 597.45149 604.21875 594.40625 C 604.75309 591.36101 604.30268 588.11024 603.59375 584.6875 C 602.17588 577.84201 599.46382 570.20636 598.75 565.46875 C 598.03185 560.70236 598.51706 551.81459 601.125 542.21875 C 603.73294 532.62291 608.43467 522.24088 615.875 513.90625 C 616.46759 513.24343 616.73797 512.38142 616.625 511.53125 C 616.62371 511.52157 616.62638 511.50967 616.625 511.5 C 616.65564 511.14932 616.62753 510.78679 616.53125 510.4375 C 616.25916 509.45037 615.50959 508.67713 614.53125 508.375 C 592.67011 501.65325 570.38545 497.83074 547.875 494.9375 C 547.66833 494.90533 547.45885 494.89485 547.25 494.90625 z "
       style="fill:#000000;fill-opacity:1;stroke:none;stroke-width:6.00000191;stroke-linecap:round;stroke-linejoin:round;stroke-miterlimit:4;stroke-dasharray:none;stroke-opacity:1"
       id="path2509"
       d="M 546.96875,490.34375 C 546.73069,490.35889 546.48536,490.3688 546.25,490.40625 C 546.23958,490.40621 546.22917,490.40621 546.21875,490.40625 C 546.18701,490.41159 546.10787,490.43747 546.09375,490.4375 C 546.08297,490.43753 546.00824,490.4694 546,490.46875 C 524.03634,494.156 485.91874,500.0939 462.5625,508.46875 C 460.12832,509.35802 458.2957,511.44805 457.75,514 C 457.64304,514.50016 457.69346,514.75022 457.6875,515.125 L 457.65625,515.125 C 457.64549,515.19696 457.66489,515.27144 457.65625,515.34375 C 457.65949,515.59267 457.61289,515.99741 457.625,516.15625 L 457.71875,516.15625 C 457.7004,517.9925 458.20677,519.87224 459.5,521.3125 C 466.31992,528.95215 470.75702,538.69215 473.21875,547.75 C 475.67414,556.78454 476.01944,565.47005 475.46875,569.125 C 474.96335,572.47938 471.88234,580.4719 470.125,587.875 C 469.25632,591.53448 468.52638,595.53153 469.40625,599.78125 C 470.41647,604.66054 474.20882,609.00402 479.71875,610.25 C 479.74989,610.26075 479.78114,610.27117 479.8125,610.28125 C 479.96915,610.31248 480.122,610.32238 480.28125,610.34375 C 502.11416,614.01197 506.78015,615.47725 528.71875,623.34375 C 528.72917,623.34379 528.73958,623.34379 528.75,623.34375 C 530.40543,623.92509 532.17716,623.80119 533.75,623.25 L 533.78125,623.3125 C 534.02995,623.23775 534.12934,623.18613 534.3125,623.125 C 534.56656,623.04021 534.89238,622.95811 535.0625,622.90625 C 535.12544,622.88677 535.18796,622.86593 535.25,622.84375 C 556.41348,615.33558 577.64691,609.52458 598.625,606 C 598.67726,605.99049 598.72935,605.98007 598.78125,605.96875 C 598.99443,605.9251 599.2296,605.87406 599.4375,605.8125 C 604.84753,604.38048 607.90888,599.80302 608.71875,595.1875 C 609.42483,591.16351 608.84138,587.35958 608.09375,583.75 C 606.57774,576.43069 603.84834,568.54503 603.28125,564.78125 C 602.73348,561.14567 603.10468,552.44974 605.5625,543.40625 C 608.02422,534.34841 612.46135,524.60837 619.28125,516.96875 C 620.51026,515.59409 621.05725,513.76559 621.0625,511.90625 L 621.1875,511.90625 C 621.20597,511.69481 621.124,511.46534 621.125,511.25 C 621.11555,511.14318 621.17044,511.04431 621.15625,510.9375 C 621.32932,512.23623 621.34875,512.19262 621.15625,510.84375 L 621.09375,510.84375 C 621.06785,510.30541 621.08958,509.77048 620.9375,509.21875 C 620.25532,506.74384 618.3293,504.75794 615.875,504 C 593.64408,497.16455 571.10612,493.3158 548.46875,490.40625 C 547.94647,490.32495 547.52805,490.31493 547,490.34375 C 546.98958,490.34371 546.97917,490.34371 546.96875,490.34375 z"
       transform="matrix(0.1135532,0,0,0.111489,-49.335921,-46.595244)" />
    <path
       style="fill:#868686;fill-opacity:1;stroke:none;stroke-width:6.00000191;stroke-linecap:round;stroke-linejoin:round;stroke-miterlimit:4;stroke-dasharray:none;stroke-opacity:1"
       d="M 12.924605,8.4666578 C 12.913779,8.4673258 12.902997,8.4684873 12.89229,8.4701416 C 12.865186,8.4745657 12.859837,8.4765759 12.877931,8.4736259 C 12.786503,8.4888493 12.705252,8.5391968 12.652552,8.6132887 C 12.599857,8.6873791 12.580157,8.7789571 12.597907,8.8673206 C 13.063685,11.178246 12.549429,13.423784 12.411222,14.69262 C 12.368911,15.081069 12.239522,15.593805 12.127614,16.117589 C 12.015699,16.641374 11.918992,17.175433 11.97324,17.661015 C 11.987118,17.776601 12.061895,17.876879 12.170691,17.925802 L 12.170691,17.967609 C 12.208734,17.966363 12.256131,17.965642 12.314297,17.96064 L 12.314297,17.957156 C 12.326251,17.957763 12.338236,17.957763 12.350195,17.957156 C 13.408446,17.851867 14.413515,17.156796 15.706891,15.929452 C 17.00026,14.702105 18.596283,12.915142 20.808352,10.511782 C 20.887089,10.42697 20.915822,10.309046 20.884563,10.198996 C 20.853304,10.088942 20.766372,10.001956 20.653979,9.9682752 C 18.142536,9.2188742 15.58244,8.792705 12.996401,8.4701416 C 12.972662,8.4665551 12.948593,8.4653868 12.924605,8.4666578 z"
       id="path2444" />
    <path
       style="fill:#868686;fill-opacity:1;stroke:none;stroke-width:6.00000191;stroke-linecap:round;stroke-linejoin:round;stroke-miterlimit:4;stroke-dasharray:none;stroke-opacity:1"
       d="M 12.89588,8.4701416 C 12.889866,8.4711476 12.883882,8.4723092 12.877931,8.4736259 C 10.350431,8.8855312 5.9618883,9.5593602 3.3750696,10.459523 C 3.2637103,10.499003 3.1810754,10.591254 3.1562839,10.703766 C 3.131498,10.816276 3.1680252,10.933259 3.2530097,11.013483 C 5.6953752,13.323085 7.3848559,15.082627 8.745786,16.260433 C 10.106717,17.438241 11.183197,18.073268 12.350195,17.957156 C 12.441799,17.948375 12.525979,17.904399 12.583977,17.835025 C 12.641968,17.765654 12.66896,17.676651 12.65894,17.587849 C 12.621333,17.251276 12.694381,16.759684 12.802537,16.253466 C 12.9107,15.74725 13.046291,15.227179 13.096921,14.7623 C 13.224499,13.591049 13.776479,11.21938 13.276427,8.7384122 C 13.241924,8.5658384 13.075658,8.448632 12.89588,8.4701416 z"
       id="path2453" />
    <path
       style="fill:url(#linearGradient17450);fill-opacity:1;stroke:none;stroke-width:6.00000191;stroke-linecap:round;stroke-linejoin:round;stroke-miterlimit:4;stroke-dasharray:none;stroke-opacity:1"
       d="M 12.924605,8.4666578 C 12.914969,8.4672523 12.905428,8.4687664 12.89588,8.4701416 C 12.894703,8.4703113 12.893467,8.4699603 12.89229,8.4701416 C 12.865186,8.4745657 12.859837,8.4765759 12.877931,8.4736259 C 10.350431,8.8855312 5.9618883,9.5593602 3.3750696,10.459523 C 3.2637103,10.499003 3.1808704,10.590893 3.1560777,10.703404 C 3.1312858,10.815918 3.1680252,10.933259 3.2530097,11.013483 C 5.6953752,13.323085 7.3848559,15.082627 8.745786,16.260433 C 10.037021,17.377925 11.07132,18.005298 12.170691,17.967609 C 12.187819,17.96705 12.214268,17.964912 12.235314,17.964124 C 12.261459,17.962615 12.288066,17.962907 12.314297,17.96064 C 12.326256,17.959609 12.33821,17.95835 12.350195,17.957156 C 13.408446,17.851867 14.413515,17.156796 15.706891,15.929452 C 17.00026,14.702105 18.596283,12.915142 20.808352,10.511782 C 20.887089,10.42697 20.915001,10.308271 20.883741,10.198221 C 20.852484,10.088165 20.766372,10.001956 20.653979,9.9682752 C 18.142536,9.2188742 15.58244,8.792705 12.996401,8.4701416 C 12.985745,8.4685309 12.974844,8.4707738 12.964093,8.4701416 C 12.950893,8.4693629 12.937823,8.4659578 12.924605,8.4666578 z"
       id="path2521" />
    <image
       y="0.1322051"
       x="2.9311147"
       id="image3271"
       height="10.642858"
       width="10.464286"
       sodipodi:absref="C:\data\projekte\eclipse-3.5-ws\JOSM\images\data\node.png"
       xlink:href="data\node.png" />
    <image
       y="5.1982875"
       x="9.66008"
       id="image4176"
       height="12.25"
       width="11.982143"
       sodipodi:absref="C:\data\projekte\eclipse-3.5-ws\JOSM\images\data\node.png"
       xlink:href="data\node.png" />
    <image
       y="5.3641677"
       x="2.6339738"
       id="image4172"
       height="12.25"
       width="11.982143"
       sodipodi:absref="C:\data\projekte\eclipse-3.5-ws\JOSM\images\data\node.png"
       xlink:href="data\node.png" />
    <path
       style="fill:#a5a5a5;fill-opacity:1;stroke:none;stroke-width:6.00000191;stroke-linecap:round;stroke-linejoin:round;stroke-miterlimit:4;stroke-dasharray:none;stroke-opacity:1"
       d="M 3.4720008,10.511782 C 3.3397013,10.519066 3.2234186,10.599308 3.1728865,10.718192 C 3.1223611,10.837074 3.1465234,10.973543 3.2350604,11.069226 C 4.0898189,11.998449 4.6299567,13.155928 4.929564,14.22576 C 5.2291652,15.295591 5.2813174,16.28648 5.1988132,16.81788 C 5.1192951,17.330065 4.7655289,18.18237 4.577736,18.950107 C 4.483846,19.333974 4.4238601,19.703506 4.4987542,20.054543 C 4.5736483,20.405583 4.8623293,20.736036 5.2813861,20.827999 C 5.2885284,20.82938 5.2957144,20.830542 5.3029246,20.831482 C 7.8224215,21.242291 8.4507791,21.426777 10.975205,22.305229 C 11.075864,22.339532 11.187223,22.326668 11.276769,22.270388 C 12.904219,21.248857 13.986669,20.640894 14.716034,20.099835 C 15.445405,19.558779 15.843565,19.021368 15.922294,18.298593 C 15.971357,17.848175 15.760389,17.402269 15.455586,16.904981 C 15.150784,16.407691 14.727881,15.86447 14.252921,15.30581 C 13.302995,14.188491 12.144834,13.010651 11.352162,12.117921 C 11.294712,12.052911 11.213767,12.011761 11.125989,12.002947 C 8.4177034,11.74705 6.0994113,11.399503 3.6084268,10.532686 C 3.5648694,10.516858 3.5184637,10.509748 3.4720008,10.511782 z"
       id="path2442" />
    <path
       style="fill:#a5a5a5;fill-opacity:1;stroke:none;stroke-width:6.00000191;stroke-linecap:round;stroke-linejoin:round;stroke-miterlimit:4;stroke-dasharray:none;stroke-opacity:1"
       d="M 20.549866,10.027502 C 20.502912,10.027678 20.45649,10.037164 20.413446,10.055376 C 18.059083,11.053067 13.700468,11.846209 11.061368,11.999464 C 10.90453,12.009545 10.77458,12.121322 10.745444,12.271218 C 10.243386,14.754362 10.7937,17.126645 10.921358,18.298593 C 10.996794,18.991157 11.209678,19.832623 11.341392,20.507468 C 11.429257,20.957667 11.611714,22.312547 10.975205,22.305229 C 11.130072,22.345111 11.231615,22.290452 11.370111,22.249484 C 13.825078,21.404256 16.294237,20.746064 18.740483,20.347201 C 18.750156,20.345279 18.759737,20.342954 18.769205,20.340235 C 19.158069,20.240343 19.407877,19.899322 19.469263,19.559812 C 19.530648,19.220301 19.478906,18.857876 19.397461,18.476278 C 19.234574,17.713081 18.923009,16.861791 18.841003,16.333599 C 18.758502,15.802198 18.814244,14.81131 19.113848,13.741478 C 19.413453,12.67165 19.953595,11.514168 20.808352,10.584948 C 20.899121,10.486418 20.921679,10.346618 20.865792,10.22609 C 20.809907,10.105569 20.686056,10.026918 20.549866,10.027502 z"
       id="path2440"
       sodipodi:nodetypes="csccsscccsssssssc" />
    <path
       style="fill:#000000;fill-opacity:1;stroke:none;stroke-width:6.00000191;stroke-linecap:round;stroke-linejoin:round;stroke-miterlimit:4;stroke-dasharray:none;stroke-opacity:1"
       d="M 10.537223,12.022665 C 10.447196,14.256974 10.661346,16.197299 10.70595,17.326981 C 10.743661,18.281725 10.912576,19.442522 11.007513,20.372838 C 11.053826,20.826622 11.12298,21.948094 10.908157,22.514315 L 11.370111,22.466273 C 11.231615,22.521717 11.130072,22.595683 10.975205,22.541713 C 11.611714,22.551617 11.429257,20.718054 11.341392,20.108799 C 11.209678,19.195529 10.996794,18.05677 10.921358,17.119522 C 10.833595,16.029147 10.545219,14.169517 10.537223,12.022665 z"
       id="path2495"
       sodipodi:nodetypes="csssccssc" />
    <image
       y="1.4718096"
       x="9.2844448"
       id="image4178"
       height="10.642858"
       width="10.464286"
       sodipodi:absref="C:\data\projekte\eclipse-3.5-ws\JOSM\images\data\node.png"
       xlink:href="data\node.png" />
    <rect
       style="opacity:1;fill:#000000;fill-opacity:1;fill-rule:evenodd;stroke:#000000;stroke-width:0.87631428;stroke-linecap:round;stroke-linejoin:miter;stroke-miterlimit:4;stroke-dasharray:none;stroke-dashoffset:0;stroke-opacity:1"
       id="rect3338"
       width="9.4060545"
       height="6.6698389"
       x="8.1271439"
       y="15.640499" />
    <path
       style="fill:none;fill-rule:evenodd;stroke:#141414;stroke-width:0.87631428;stroke-linecap:round;stroke-linejoin:miter;stroke-miterlimit:4;stroke-dasharray:none;stroke-opacity:1"
       d="M 8.999263,14.173084 C 9.3611495,8.0531779 16.498669,8.7512039 16.195519,14.229232"
       id="path3259"
       sodipodi:nodetypes="cc" />
    <rect
       style="opacity:1;fill:#f7f678;fill-opacity:1;fill-rule:evenodd;stroke:#f1a638;stroke-width:0.87631428;stroke-linecap:round;stroke-linejoin:miter;stroke-miterlimit:4;stroke-dasharray:none;stroke-dashoffset:0;stroke-opacity:1"
       id="rect2562"
       width="9.4060545"
       height="6.6698389"
       x="6.9738712"
       y="14.817385" />
    <path
       style="fill:none;fill-rule:evenodd;stroke:#f1a638;stroke-width:0.87631428;stroke-linecap:butt;stroke-linejoin:miter;stroke-miterlimit:4;stroke-dasharray:none;stroke-opacity:1"
       d="M 9.155356,17.3719 L 14.467152,17.3719 L 14.467152,17.3719"
       id="path3334" />
    <path
       style="fill:none;fill-rule:evenodd;stroke:#f1a638;stroke-width:0.87631428;stroke-linecap:butt;stroke-linejoin:miter;stroke-miterlimit:4;stroke-dasharray:none;stroke-opacity:1"
       d="M 9.2075087,19.118763 L 14.454684,19.118763 L 14.454684,19.118763"
       id="path3336" />
    <path
       style="fill:none;fill-rule:evenodd;stroke:#555555;stroke-width:0.87631428;stroke-linecap:round;stroke-linejoin:miter;stroke-miterlimit:4;stroke-dasharray:none;stroke-opacity:1"
       d="M 8.305253,14.034544 C 8.6671395,7.9146379 15.804659,8.6126639 15.501509,14.090691"
       id="path3348"
       sodipodi:nodetypes="cc" />
  </g>
</svg>
