<?xml version="1.0" encoding="UTF-8" standalone="no"?>
<!-- Created with Inkscape (http://www.inkscape.org/) -->

<svg
   xmlns:dc="http://purl.org/dc/elements/1.1/"
   xmlns:cc="http://creativecommons.org/ns#"
   xmlns:rdf="http://www.w3.org/1999/02/22-rdf-syntax-ns#"
   xmlns:svg="http://www.w3.org/2000/svg"
   xmlns="http://www.w3.org/2000/svg"
   xmlns:xlink="http://www.w3.org/1999/xlink"
   xmlns:sodipodi="http://sodipodi.sourceforge.net/DTD/sodipodi-0.dtd"
   xmlns:inkscape="http://www.inkscape.org/namespaces/inkscape"
   width="24"
   height="24"
   id="svg2"
   sodipodi:version="0.32"
   inkscape:version="0.47 r22583"
   version="1.0"
   sodipodi:docname="updatechangeset.svg"
   inkscape:output_extension="org.inkscape.output.svg.inkscape"
   inkscape:export-filename="C:\data\eclipse-ws\eclipse-3.5\JOSM\images\dialogs\changeset\updatechangeset.png"
   inkscape:export-xdpi="90"
   inkscape:export-ydpi="90">
  <defs
     id="defs4">
    <linearGradient
       id="linearGradient1400">
      <stop
         id="stop1401"
         offset="0.0000000"
         style="stop-color:#000000;stop-opacity:0.67843139;" />
      <stop
         id="stop1403"
         offset="0.56999999"
         style="stop-color:#000000;stop-opacity:0.32941177;" />
      <stop
         id="stop1402"
         offset="1.0000000"
         style="stop-color:#000000;stop-opacity:0.00000000;" />
    </linearGradient>
    <inkscape:perspective
       sodipodi:type="inkscape:persp3d"
       inkscape:vp_x="0 : 526.18109 : 1"
       inkscape:vp_y="6.1230318e-14 : 1000 : 0"
       inkscape:vp_z="744.09448 : 526.18109 : 1"
       inkscape:persp3d-origin="372.04724 : 350.78739 : 1"
       id="perspective10" />
    <inkscape:perspective
       id="perspective3269"
       inkscape:persp3d-origin="372.04724 : 350.78739 : 1"
       inkscape:vp_z="744.09448 : 526.18109 : 1"
       inkscape:vp_y="0 : 1000 : 0"
       inkscape:vp_x="0 : 526.18109 : 1"
       sodipodi:type="inkscape:persp3d" />
    <inkscape:perspective
       id="perspective4004"
       inkscape:persp3d-origin="372.04724 : 350.78739 : 1"
       inkscape:vp_z="744.09448 : 526.18109 : 1"
       inkscape:vp_y="0 : 1000 : 0"
       inkscape:vp_x="0 : 526.18109 : 1"
       sodipodi:type="inkscape:persp3d" />
    <inkscape:perspective
       id="perspective4054"
       inkscape:persp3d-origin="372.04724 : 350.78739 : 1"
       inkscape:vp_z="744.09448 : 526.18109 : 1"
       inkscape:vp_y="0 : 1000 : 0"
       inkscape:vp_x="0 : 526.18109 : 1"
       sodipodi:type="inkscape:persp3d" />
    <inkscape:perspective
       id="perspective4104"
       inkscape:persp3d-origin="372.04724 : 350.78739 : 1"
       inkscape:vp_z="744.09448 : 526.18109 : 1"
       inkscape:vp_y="0 : 1000 : 0"
       inkscape:vp_x="0 : 526.18109 : 1"
       sodipodi:type="inkscape:persp3d" />
    <inkscape:perspective
       id="perspective3833"
       inkscape:persp3d-origin="0.5 : 0.33333333 : 1"
       inkscape:vp_z="1 : 0.5 : 1"
       inkscape:vp_y="0 : 1000 : 0"
       inkscape:vp_x="0 : 0.5 : 1"
       sodipodi:type="inkscape:persp3d" />
    <linearGradient
       inkscape:collect="always"
       xlink:href="#linearGradient3718"
       id="linearGradient3716"
       x1="0.625"
       y1="26.589287"
       x2="24.107143"
       y2="26.589287"
       gradientUnits="userSpaceOnUse"
       gradientTransform="matrix(0.81433767,0,0,0.68265571,1.3862684,-5.5493268)" />
    <linearGradient
       id="linearGradient3718">
      <stop
         id="stop3720"
         offset="0"
         style="stop-color:#003700;stop-opacity:1;" />
      <stop
         id="stop3722"
         offset="1"
         style="stop-color:#00c700;stop-opacity:1" />
    </linearGradient>
    <linearGradient
       inkscape:collect="always"
       xlink:href="#linearGradient3718"
       id="linearGradient3730"
       x1="2.8571427"
       y1="30.294643"
       x2="21.970518"
       y2="30.445639"
       gradientUnits="userSpaceOnUse"
       gradientTransform="matrix(1.0296673,0,0,0.87267329,-1.046677,-10.056337)" />
    <linearGradient
       id="linearGradient3842">
      <stop
         id="stop3844"
         offset="0"
         style="stop-color:#003700;stop-opacity:1;" />
      <stop
         id="stop3846"
         offset="1"
         style="stop-color:#00c700;stop-opacity:1" />
    </linearGradient>
    <linearGradient
       inkscape:collect="always"
       xlink:href="#linearGradient1400-0"
       id="linearGradient17450-6"
       gradientUnits="userSpaceOnUse"
       gradientTransform="matrix(0.1148815,0,0,0.111489,-49.238727,-49.370749)"
       x1="537.42401"
       y1="580.16663"
       x2="539.39642"
       y2="510.39194" />
    <linearGradient
       id="linearGradient1400-0">
      <stop
         id="stop1401-4"
         offset="0.0000000"
         style="stop-color:#000000;stop-opacity:0.67843139;" />
      <stop
         id="stop1403-9"
         offset="0.56999999"
         style="stop-color:#000000;stop-opacity:0.32941177;" />
      <stop
         id="stop1402-4"
         offset="1.0000000"
         style="stop-color:#000000;stop-opacity:0.00000000;" />
    </linearGradient>
    <inkscape:perspective
       id="perspective3921"
       inkscape:persp3d-origin="0.5 : 0.33333333 : 1"
       inkscape:vp_z="1 : 0.5 : 1"
       inkscape:vp_y="0 : 1000 : 0"
       inkscape:vp_x="0 : 0.5 : 1"
       sodipodi:type="inkscape:persp3d" />
    <inkscape:perspective
       id="perspective4800"
       inkscape:persp3d-origin="0.5 : 0.33333333 : 1"
       inkscape:vp_z="1 : 0.5 : 1"
       inkscape:vp_y="0 : 1000 : 0"
       inkscape:vp_x="0 : 0.5 : 1"
       sodipodi:type="inkscape:persp3d" />
    <linearGradient
       inkscape:collect="always"
       xlink:href="#linearGradient4600-0"
       id="linearGradient4674"
       gradientUnits="userSpaceOnUse"
       gradientTransform="matrix(-0.73063541,0,0,-0.92253825,-6.2785429,32.240182)"
       x1="5.1785712"
       y1="29.982143"
       x2="22.616636"
       y2="29.952965" />
    <linearGradient
       inkscape:collect="always"
       id="linearGradient4600-0">
      <stop
         style="stop-color:#0000a9;stop-opacity:1;"
         offset="0"
         id="stop4602-4" />
      <stop
         style="stop-color:#005cf7;stop-opacity:1"
         offset="1"
         id="stop4604-0" />
    </linearGradient>
    <linearGradient
       inkscape:collect="always"
       xlink:href="#linearGradient4600-0"
       id="linearGradient4676"
       gradientUnits="userSpaceOnUse"
       gradientTransform="matrix(-0.73063541,0,0,-0.92253825,-6.2785429,32.240182)"
       x1="4.9464288"
       y1="29.952965"
       x2="22.616636"
       y2="29.952965" />
    <linearGradient
       inkscape:collect="always"
       xlink:href="#linearGradient1400-2"
       id="linearGradient17450"
       gradientUnits="userSpaceOnUse"
       gradientTransform="matrix(0.1148815,0,0,0.111489,-93.126332,-40.253526)"
       x1="537.42401"
       y1="580.16663"
       x2="539.39642"
       y2="510.39194" />
    <linearGradient
       id="linearGradient1400-2">
      <stop
         id="stop1401-1"
         offset="0.0000000"
         style="stop-color:#000000;stop-opacity:0.67843139;" />
      <stop
         id="stop1403-0"
         offset="0.56999999"
         style="stop-color:#000000;stop-opacity:0.32941177;" />
      <stop
         id="stop1402-40"
         offset="1.0000000"
         style="stop-color:#000000;stop-opacity:0.00000000;" />
    </linearGradient>
    <inkscape:perspective
       id="perspective4653"
       inkscape:persp3d-origin="0.5 : 0.33333333 : 1"
       inkscape:vp_z="1 : 0.5 : 1"
       inkscape:vp_y="0 : 1000 : 0"
       inkscape:vp_x="0 : 0.5 : 1"
       sodipodi:type="inkscape:persp3d" />
    <inkscape:perspective
       id="perspective5218"
       inkscape:persp3d-origin="0.5 : 0.33333333 : 1"
       inkscape:vp_z="1 : 0.5 : 1"
       inkscape:vp_y="0 : 1000 : 0"
       inkscape:vp_x="0 : 0.5 : 1"
       sodipodi:type="inkscape:persp3d" />
    <inkscape:perspective
       id="perspective5240"
       inkscape:persp3d-origin="0.5 : 0.33333333 : 1"
       inkscape:vp_z="1 : 0.5 : 1"
       inkscape:vp_y="0 : 1000 : 0"
       inkscape:vp_x="0 : 0.5 : 1"
       sodipodi:type="inkscape:persp3d" />
    <inkscape:perspective
       id="perspective5262"
       inkscape:persp3d-origin="0.5 : 0.33333333 : 1"
       inkscape:vp_z="1 : 0.5 : 1"
       inkscape:vp_y="0 : 1000 : 0"
       inkscape:vp_x="0 : 0.5 : 1"
       sodipodi:type="inkscape:persp3d" />
  </defs>
  <sodipodi:namedview
     id="base"
     pagecolor="#ffffff"
     bordercolor="#666666"
     borderopacity="1.0"
     inkscape:pageopacity="0.0"
     inkscape:pageshadow="2"
     inkscape:zoom="7.919596"
     inkscape:cx="-2.8359847"
     inkscape:cy="24.270728"
     inkscape:document-units="px"
     inkscape:current-layer="layer1"
     showgrid="false"
     inkscape:window-width="1081"
     inkscape:window-height="824"
     inkscape:window-x="232"
     inkscape:window-y="48"
     inkscape:window-maximized="0" />
  <metadata
     id="metadata7">
    <rdf:RDF>
      <cc:Work
         rdf:about="">
        <dc:format>image/svg+xml</dc:format>
        <dc:type
           rdf:resource="http://purl.org/dc/dcmitype/StillImage" />
        <dc:title></dc:title>
      </cc:Work>
    </rdf:RDF>
  </metadata>
  <g
     inkscape:label="Ebene 1"
     inkscape:groupmode="layer"
     id="layer1">
    <path
       sodipodi:type="inkscape:offset"
       inkscape:radius="4.5834389"
       inkscape:original="M 547.25 494.90625 C 547.15581 494.91224 547.06196 494.92267 546.96875 494.9375 C 546.73282 494.97719 546.68628 494.99521 546.84375 494.96875 C 524.84282 498.66333 486.64226 504.70723 464.125 512.78125 C 463.15567 513.13537 462.43455 513.95957 462.21875 514.96875 C 462.15787 515.25343 462.16594 515.52974 462.1875 515.8125 C 462.05699 516.6851 462.30033 517.57519 462.90625 518.25 C 470.3466 526.58465 475.04831 536.96666 477.65625 546.5625 C 480.26419 556.15834 480.71815 565.04611 480 569.8125 C 479.30782 574.40653 476.22839 582.0513 474.59375 588.9375 C 473.77643 592.3806 473.25435 595.69511 473.90625 598.84375 C 474.55815 601.99239 477.07104 604.95638 480.71875 605.78125 C 480.7809 605.79364 480.84344 605.80407 480.90625 605.8125 C 502.83748 609.49724 508.3071 611.152 530.28125 619.03125 C 531.00412 619.2851 531.77801 619.24067 532.46875 618.9375 C 532.87181 618.81636 533.26667 618.66906 533.71875 618.53125 C 555.08828 610.94998 576.58139 605.04634 597.875 601.46875 C 597.95919 601.45151 598.0426 601.43065 598.125 601.40625 C 601.50992 600.51027 603.68441 597.45149 604.21875 594.40625 C 604.75309 591.36101 604.30268 588.11024 603.59375 584.6875 C 602.17588 577.84201 599.46382 570.20636 598.75 565.46875 C 598.03185 560.70236 598.51706 551.81459 601.125 542.21875 C 603.73294 532.62291 608.43467 522.24088 615.875 513.90625 C 616.46759 513.24343 616.73797 512.38142 616.625 511.53125 C 616.62371 511.52157 616.62638 511.50967 616.625 511.5 C 616.65564 511.14932 616.62753 510.78679 616.53125 510.4375 C 616.25916 509.45037 615.50959 508.67713 614.53125 508.375 C 592.67011 501.65325 570.38545 497.83074 547.875 494.9375 C 547.66833 494.90533 547.45885 494.89485 547.25 494.90625 z "
       style="fill:#000000;fill-opacity:1;stroke:none;display:inline"
       id="path2509-6"
       d="m 546.96875,490.34375 c -0.23806,0.0151 -0.48339,0.0251 -0.71875,0.0625 a 4.5838972,4.5838972 0 0 0 -0.0312,0 c -0.0317,0.005 -0.11088,0.0312 -0.125,0.0312 -0.0108,3e-5 -0.0855,0.0319 -0.0937,0.0312 -21.96366,3.68725 -60.08126,9.62515 -83.4375,18 -2.43418,0.88927 -4.2668,2.9793 -4.8125,5.53125 -0.10696,0.50016 -0.0565,0.7502 -0.0625,1.125 l -0.0312,0 c -0.0108,0.072 0.009,0.14644 0,0.21875 0.003,0.24894 -0.0434,0.65366 -0.0312,0.8125 l 0.0937,0 c -0.0183,1.83625 0.48802,3.71599 1.78125,5.15625 6.81992,7.63965 11.25702,17.37965 13.71875,26.4375 2.45539,9.03454 2.80069,17.72005 2.25,21.375 -0.5054,3.35438 -3.58641,11.3469 -5.34375,18.75 -0.86868,3.65948 -1.59862,7.65653 -0.71875,11.90625 1.01022,4.87929 4.80257,9.22277 10.3125,10.46875 a 4.5838972,4.5838972 0 0 0 0.0937,0.0312 c 0.11424,0.0228 0.22811,0.0137 0.34375,0.0312 l 0,0.0312 c 21.83291,3.66822 26.6239,5.1335 48.5625,13 a 4.5838972,4.5838972 0 0 0 0.0312,0 c 1.65543,0.58134 3.42716,0.45744 5,-0.0937 l 0.0312,0.0625 c 0.2487,-0.0747 0.34809,-0.12637 0.53125,-0.1875 0.25406,-0.0848 0.57988,-0.16689 0.75,-0.21875 a 4.5838972,4.5838972 0 0 0 0.1875,-0.0625 C 556.41348,615.33558 577.64691,609.52458 598.625,606 a 4.5838972,4.5838972 0 0 0 0.15625,-0.0312 c 0.17246,-0.0353 0.36217,-0.0779 0.53125,-0.125 0.0399,-0.0111 0.0853,-0.0195 0.125,-0.0312 l 0,-0.0312 c 5.32424,-1.47423 8.47849,-6.01878 9.28125,-10.59375 0.70608,-4.02399 0.12263,-7.82792 -0.625,-11.4375 -1.51601,-7.31931 -4.24541,-15.20497 -4.8125,-18.96875 -0.54777,-3.63558 -0.17657,-12.33151 2.28125,-21.375 2.46172,-9.05784 6.89885,-18.79788 13.71875,-26.4375 1.22901,-1.37466 1.77551,-3.20261 1.78125,-5.0625 l 0.125,0 c 0.0185,-0.21144 -0.0635,-0.44091 -0.0625,-0.65625 -0.009,-0.10683 0.0454,-0.20569 0.0312,-0.3125 0.17307,1.29873 0.1925,1.25512 0,-0.0937 l -0.0625,0 c -0.0259,-0.53834 -0.004,-1.07327 -0.15625,-1.625 -0.68218,-2.47491 -2.6082,-4.46081 -5.0625,-5.21875 -22.18929,-6.82265 -44.6866,-10.65484 -67.28125,-13.5625 -0.001,-1.8e-4 0.001,-0.0311 0,-0.0312 -0.0409,-0.006 -0.084,0.006 -0.125,0 -0.48237,-0.067 -0.98206,-0.0891 -1.46875,-0.0625 a 4.5838972,4.5838972 0 0 0 -0.0312,0 z"
       transform="matrix(0.08342632,0,0,0.0811236,-33.396209,-39.001141)" />
    <path
       style="fill:#a55959;fill-opacity:1;stroke:none;display:inline"
       d="m 12.345932,1.0639751 c -0.008,4.861e-4 -0.01588,0.00133 -0.02374,0.00253 -0.01991,0.00322 -0.02384,0.00468 -0.01055,0.00253 -0.06717,0.011077 -0.126865,0.047712 -0.165583,0.1016239 -0.03871,0.053911 -0.05319,0.1205466 -0.04015,0.1848432 0.342203,1.6815166 -0.03562,3.3154547 -0.137156,4.2387076 -0.03108,0.2826505 -0.126146,0.6557365 -0.208363,1.0368615 -0.08222,0.381125 -0.153272,0.769727 -0.113417,1.123055 0.0102,0.0841 0.06513,0.15707 0.145065,0.192669 l 0,0.03042 c 0.02795,-8.73e-4 0.06277,-0.0015 0.105506,-0.0051 l 0,-0.0025 c 0.0088,4.42e-4 0.01759,4.42e-4 0.02638,0 0.777486,-0.07661 1.5159,-0.582372 2.466129,-1.475434 0.950225,-0.8930639 2.122806,-2.1933254 3.747989,-3.9421009 0.05785,-0.061711 0.07896,-0.1475184 0.05599,-0.2275949 -0.02297,-0.08008 -0.08683,-0.1433738 -0.169408,-0.1678812 -1.84513,-0.5452925 -3.726005,-0.8553892 -5.625941,-1.0900985 -0.01744,-0.00261 -0.03513,-0.00346 -0.05275,-0.00253 z"
       id="path2444-0" />
    <path
       style="fill:#aa6262;fill-opacity:1;stroke:none;display:inline"
       d="m 12.324829,1.0665101 c -0.0044,7.349e-4 -0.0088,0.00158 -0.01319,0.00253 -1.856927,0.2997178 -5.0811432,0.7900212 -6.9816512,1.4450138 -0.081815,0.028727 -0.1425255,0.095852 -0.1607395,0.1777204 -0.01821,0.081867 0.00863,0.1669877 0.071064,0.2253617 1.7943798,1.6805536 3.0356231,2.9608625 4.0354836,3.8178785 0.9998621,0.857018 1.7907411,1.319087 2.6481221,1.2346 0.0673,-0.0064 0.129146,-0.03839 0.171757,-0.08887 0.04261,-0.05048 0.06243,-0.115239 0.05507,-0.179855 -0.02763,-0.244903 0.02604,-0.602604 0.105499,-0.970947 0.07947,-0.368339 0.179087,-0.746762 0.216284,-1.0850259 0.09373,-0.8522412 0.499268,-2.5779569 0.131884,-4.3832027 -0.02535,-0.1255712 -0.147502,-0.210855 -0.279583,-0.1952038 z"
       id="path2453-4" />
    <path
       style="fill:#c08a8a;fill-opacity:1;stroke:none;display:inline"
       d="m 5.4012048,2.5520846 c -0.097199,0.00531 -0.1826306,0.06369 -0.219756,0.1501917 -0.03712,0.086503 -0.019369,0.185803 0.045679,0.2554257 0.627982,0.6761377 1.0248154,1.518363 1.2449337,2.2968131 0.2201138,0.7784496 0.2584295,1.4994576 0.1978145,1.8861246 -0.058421,0.372685 -0.3183293,0.992854 -0.4562988,1.5514876 -0.06898,0.279316 -0.1130509,0.548202 -0.058027,0.80363 0.055024,0.25543 0.2671147,0.49588 0.5749913,0.5627947 0.00525,10e-4 0.010527,0.0018 0.015824,0.0025 1.8510474,0.29892 2.3126946,0.433159 4.1673645,1.072354 0.07395,0.02496 0.155767,0.0156 0.221555,-0.02535 1.19567,-0.743304 1.990935,-1.1856807 2.526792,-1.5793757 0.535861,-0.393693 0.828385,-0.784733 0.886226,-1.3106516 0.03604,-0.327741 -0.11895,-0.652199 -0.342885,-1.014044 C 13.981483,6.8421837 13.670781,6.4469157 13.321833,6.0404137 12.623932,5.2274106 11.773043,4.3703692 11.190676,3.7207851 11.148468,3.6734814 11.088998,3.6435391 11.024509,3.6371257 9.03476,3.4509254 7.3315355,3.1980371 5.5014359,2.5673082 5.469435,2.5557897 5.435341,2.5506162 5.4012051,2.5521006 z"
       id="path2442-9" />
    <path
       style="fill:#c08a8a;fill-opacity:1;stroke:none;display:inline"
       d="m 17.948131,2.1997042 c -0.03449,1.281e-4 -0.0686,0.00706 -0.100227,0.020279 -1.729725,0.7259577 -4.931953,1.3030777 -6.870872,1.4145918 -0.115227,0.00733 -0.2107,0.088668 -0.232106,0.1977386 -0.368856,1.806829 0.03546,3.5329918 0.129243,4.3857448 0.05542,0.5039359 0.211825,1.1162179 0.308594,1.6072609 0.06455,0.3275817 0.198603,1.3134427 -0.269034,1.3081187 0.11378,0.02902 0.188382,-0.01075 0.290134,-0.04057 1.803638,-0.61502 3.617703,-1.0939447 5.414933,-1.3841727 0.0071,-0.0014 0.01414,-0.0031 0.0211,-0.0051 0.285694,-0.07268 0.469225,-0.320825 0.514325,-0.567866 0.0451,-0.247041 0.0071,-0.510755 -0.05275,-0.7884199 -0.119671,-0.555331 -0.348575,-1.174761 -0.408824,-1.559094 -0.06061,-0.386667 -0.01966,-1.1076747 0.200457,-1.8861248 0.220116,-0.778447 0.616953,-1.6206746 1.244934,-2.2968103 0.06669,-0.071694 0.08326,-0.1734178 0.0422,-0.2611186 -0.04105,-0.087696 -0.13205,-0.144925 -0.232107,-0.1445001 z"
       id="path2440-4"
       sodipodi:nodetypes="csccsscccsssssssc" />
    <path
       style="fill:#000000;fill-opacity:1;stroke:none;display:inline"
       d="m 10.607865,3.8073493 c -0.06614,1.6257681 0.09119,3.0376214 0.123962,3.8596204 0.02771,0.694708 0.151806,1.5393476 0.221555,2.2162806 0.03402,0.3301897 0.08483,1.1462147 -0.073,1.5582187 l 0.339393,-0.03496 c -0.101752,0.04034 -0.176354,0.09416 -0.290134,0.05489 0.467637,0.0072 0.333588,-1.326963 0.269034,-1.7702787 -0.09677,-0.664523 -0.253172,-1.4931266 -0.308594,-2.1751036 -0.06448,-0.793398 -0.276345,-2.1465349 -0.28222,-3.7086659 z"
       id="path2495-6"
       sodipodi:nodetypes="csssccssc" />
    <path
       style="fill:none;stroke:#ffffff;stroke-width:0.49999997;stroke-linecap:round;stroke-linejoin:miter;stroke-miterlimit:4;stroke-opacity:1;stroke-dasharray:none"
       d="M 5.3166259,2.7547218 7.0057553,3.1607696 8.4980928,3.453124 10.564407,3.7129946 11.531965,3.6805106 13.335892,3.4368819 15.812188,2.9008987 16.74695,2.6572701 17.353724,2.4948509 18.042496,2.3324321"
       id="path3664"
       sodipodi:nodetypes="cccccccccc" />
    <g
       id="g5276"
       transform="matrix(0.83751723,0,0,0.83470115,19.523764,26.483285)">
      <path
         sodipodi:nodetypes="ccsccccsscscsc"
         id="path3944-6-4"
         d="m -13.792444,-6.6798304 c 1.077881,1.103688 3.563561,2.0013355 4.5455831,2.4182985 2.828223,0.344288 3.174277,0.0703 4.378683,-0.785846 0.783353,-0.5568425 2.075663,-1.6962945 2.738992,-2.7892842 l -0.582242,-0.764217 -1.011176,1.0706023 c -0.407353,0.3420333 -1.204766,0.7533654 -1.693491,0.9403004 -1.103827,0.390505 -1.176342,0.377901 -2.134839,0.121332 -0.538749,-0.144212 -1.277426,-0.435809 -2.153322,-1.0039463 -1.2659021,-0.8211094 -1.4599131,-1.0090704 -1.6735561,-1.5114324 0,0 2.5714311,-2.3102579 0.330816,-2.0997499 -1.178375,0.110709 -4.420471,0.314893 -4.420471,0.314893 -0.270055,1.6528569 -1.909361,6.6789951 -0.497956,5.5990782 0.739388,-0.5657326 2.172979,-1.5100286 2.172979,-1.5100286 z"
         style="fill:#8c8c8c;fill-opacity:1;stroke:#8c8c8c;stroke-width:0.56493694px;stroke-linecap:butt;stroke-linejoin:miter;stroke-opacity:1;marker-end:none;display:inline" />
      <path
         sodipodi:nodetypes="ccsccccsscscsc"
         id="path3944-6"
         d="m -4.7343435,-13.623741 c -1.077881,-1.103688 -3.5635602,-2.001336 -4.5455822,-2.418299 -2.8282223,-0.344288 -3.1742763,-0.0703 -4.3786823,0.785846 -0.783353,0.556843 -2.075663,1.696295 -2.738992,2.789284 l 0.582242,0.764217 1.011176,-1.070602 c 0.407353,-0.342033 1.204766,-0.753365 1.693491,-0.9403 1.103827,-0.390505 1.176342,-0.377901 2.134839,-0.121332 0.538749,0.144212 1.2774253,0.435809 2.1533213,1.003946 1.265902,0.821109 1.4599131,1.00907 1.6735561,1.511432 0,0 -2.5714311,2.3102584 -0.3308164,2.0997504 1.1783745,-0.110709 4.4204705,-0.314893 4.4204705,-0.314893 0.270055,-1.6528574 1.909362,-6.6789954 0.497956,-5.5990784 -0.739388,0.565733 -2.172979,1.510029 -2.172979,1.510029 z"
         style="fill:#8c8c8c;fill-opacity:1;stroke:#8c8c8c;stroke-width:0.56493694px;stroke-linecap:butt;stroke-linejoin:miter;stroke-opacity:1;marker-end:none;display:inline" />
      <path
         sodipodi:nodetypes="ccsccccsscscsc"
         id="path3944"
         d="m -5.2021682,-14.346968 c -1.077881,-1.103688 -3.5635609,-2.001336 -4.5455829,-2.418299 -2.8282209,-0.344288 -3.1742749,-0.0703 -4.3786809,0.785846 -0.783353,0.556843 -2.075663,1.696295 -2.738992,2.789284 l 0.582242,0.764217 1.011176,-1.070602 c 0.407353,-0.342033 1.204766,-0.753365 1.693491,-0.9403 1.103827,-0.390505 1.176342,-0.377901 2.134839,-0.121332 0.538749,0.144212 1.277425,0.435809 2.15332,1.003946 1.2659023,0.821109 1.4599134,1.00907 1.6735564,1.511432 0,0 -2.5714304,2.310259 -0.3308164,2.099751 1.1783748,-0.110709 4.4204701,-0.314893 4.4204701,-0.314893 0.2700551,-1.652858 1.9093621,-6.678996 0.4979566,-5.599079 -0.7393886,0.565733 -2.1729789,1.510029 -2.1729789,1.510029 z"
         style="fill:#0049ea;fill-opacity:1;stroke:#0049ea;stroke-width:0.56493694px;stroke-linecap:butt;stroke-linejoin:miter;stroke-opacity:1;marker-end:none;display:inline" />
      <path
         sodipodi:nodetypes="ccsccccsscscsc"
         id="path3944-2"
         d="m -14.506729,-7.0816157 c 1.077881,1.1036879 3.563562,2.0013359 4.5455841,2.4182989 2.8282207,0.344288 3.1742747,0.0703 4.3786807,-0.785846 0.783353,-0.556843 2.075663,-1.6962949 2.738992,-2.7892839 l -0.582242,-0.764217 -1.011176,1.070602 c -0.407353,0.342033 -1.204766,0.753365 -1.693491,0.9403 -1.103827,0.390505 -1.176342,0.377901 -2.1348387,0.121332 -0.538749,-0.144212 -1.277425,-0.435809 -2.1533201,-1.003946 -1.265903,-0.821109 -1.459914,-1.00907 -1.673557,-1.511432 0,0 2.5714311,-2.3102593 0.330817,-2.0997513 -1.178376,0.110709 -4.420471,0.314893 -4.420471,0.314893 -0.270055,1.6528583 -1.909362,6.6789962 -0.497957,5.5990792 0.739389,-0.5657329 2.172979,-1.5100289 2.172979,-1.5100289 z"
         style="fill:#0049ea;fill-opacity:1;stroke:#0049ea;stroke-width:0.56493694px;stroke-linecap:butt;stroke-linejoin:miter;stroke-opacity:1;marker-end:none;display:inline" />
    </g>
  </g>
</svg>
