<?xml version="1.0" encoding="UTF-8" standalone="no"?>
<!-- Created with Inkscape (http://www.inkscape.org/) --><svg height="375.00000" id="svg2" version="1.0" width="500.00000" x="0.00000000" xmlns="http://www.w3.org/2000/svg" xmlns:svg="http://www.w3.org/2000/svg" xmlns:xlink="http://www.w3.org/1999/xlink" y="0.00000000">
  <metadata>
    <rdf:RDF xmlns:cc="http://web.resource.org/cc/" xmlns:dc="http://purl.org/dc/elements/1.1/" xmlns:rdf="http://www.w3.org/1999/02/22-rdf-syntax-ns#">
      <cc:Work rdf:about="">
        <dc:title>tennis shoes</dc:title>
        <dc:description>tennis shoes</dc:description>
        <dc:subject>
          <rdf:Bag>
            <rdf:li>sports</rdf:li>
            <rdf:li>clothing</rdf:li>
            <rdf:li>shoes</rdf:li>
          </rdf:Bag>
        </dc:subject>
        <dc:publisher>
          <cc:Agent rdf:about="http://www.openclipart.org/">
            <dc:title>Open Clip Art Library</dc:title>
          </cc:Agent>
        </dc:publisher>
        <dc:creator>
          <cc:Agent>
            <dc:title>Jarno Vasamaa</dc:title>
          </cc:Agent>
        </dc:creator>
        <dc:rights>
          <cc:Agent>
            <dc:title>Jarno Vasamaa</dc:title>
          </cc:Agent>
        </dc:rights>
        <dc:date></dc:date>
        <dc:format>image/svg+xml</dc:format>
        <dc:type rdf:resource="http://purl.org/dc/dcmitype/StillImage"/>
        <cc:license rdf:resource="http://web.resource.org/cc/PublicDomain"/>
        <dc:language>en</dc:language>
      </cc:Work>
      <cc:License rdf:about="http://web.resource.org/cc/PublicDomain">
        <cc:permits rdf:resource="http://web.resource.org/cc/Reproduction"/>
        <cc:permits rdf:resource="http://web.resource.org/cc/Distribution"/>
        <cc:permits rdf:resource="http://web.resource.org/cc/DerivativeWorks"/>
      </cc:License>
    </rdf:RDF>
  </metadata>
  <defs id="defs3">
    <linearGradient id="linearGradient2413">
      <stop id="stop2415" offset="0.00000000" style="stop-color:#00006d;stop-opacity:1.0000000;"/>
      <stop id="stop2419" offset="0.50000000" style="stop-color:#1f4b72;stop-opacity:0.83673471;"/>
      <stop id="stop2417" offset="1.0000000" style="stop-color:#ffffff;stop-opacity:0.00000000;"/>
    </linearGradient>
    <linearGradient id="linearGradient2996">
      <stop id="stop2998" offset="0.00000000" style="stop-color:#000000;stop-opacity:1.0000000;"/>
      <stop id="stop3000" offset="1.0000000" style="stop-color:#000000;stop-opacity:0.00000000;"/>
    </linearGradient>
    <linearGradient id="linearGradient2988">
      <stop id="stop2990" offset="0.00000000" style="stop-color:#ffffff;stop-opacity:1.0000000;"/>
      <stop id="stop2992" offset="1.0000000" style="stop-color:#ffffff;stop-opacity:0.00000000;"/>
    </linearGradient>
    <linearGradient id="linearGradient2926">
      <stop id="stop2928" offset="0.00000000" style="stop-color:#000000;stop-opacity:1.0000000;"/>
      <stop id="stop2930" offset="1.0000000" style="stop-color:#000000;stop-opacity:0.00000000;"/>
    </linearGradient>
    <linearGradient id="linearGradient2122">
      <stop id="stop2124" offset="0.00000000" style="stop-color:#d0f0ff;stop-opacity:1.0000000;"/>
      <stop id="stop2126" offset="1.0000000" style="stop-color:#003968;stop-opacity:1.0000000;"/>
    </linearGradient>
    <linearGradient gradientTransform="matrix(0.555010,0.000000,0.000000,0.418677,0.432240,23.74855)" gradientUnits="userSpaceOnUse" id="linearGradient2128" x1="214.03627" x2="175.58330" xlink:href="#linearGradient2122" y1="191.02786" y2="308.42743"/>
    <radialGradient cx="133.52780" cy="783.30951" fx="133.52780" fy="776.26428" gradientTransform="matrix(5.442391,0.000000,0.000000,0.508459,-460.3333,-112.2011)" gradientUnits="userSpaceOnUse" id="radialGradient2934" r="39.923176" xlink:href="#linearGradient2926"/>
    <pattern height="131.12500" id="pattern2966" patternTransform="translate(-311.6250,-153.0312)" patternUnits="userSpaceOnUse" width="131.09375">
      <path d="M -271.53125 -152.53125 L -271.53125 -121.40625 L -214.96875 -121.40625 L -214.96875 -152.53125 L -271.53125 -152.53125 z M -214.96875 -121.40625 L -214.96875 -59.187500 L -181.03125 -59.187500 L -181.03125 -121.40625 L -214.96875 -121.40625 z M -214.96875 -59.187500 L -271.53125 -59.187500 L -271.53125 -22.406250 L -214.96875 -22.406250 L -214.96875 -59.187500 z M -271.53125 -59.187500 L -271.53125 -121.40625 L -311.12500 -121.40625 L -311.12500 -59.187500 L -271.53125 -59.187500 z " id="path2968" style="fill:none;fill-opacity:0.75000000;fill-rule:evenodd;stroke:#000000;stroke-width:1.0000000px;stroke-linecap:butt;stroke-linejoin:miter;stroke-opacity:1.0000000" transform="translate(311.6250,153.0312)"/>
    </pattern>
    <linearGradient gradientTransform="scale(1.455680,0.686964)" gradientUnits="userSpaceOnUse" id="linearGradient2978" x1="286.58630" x2="-509.75967" xlink:href="#linearGradient2122" y1="228.04239" y2="776.38965"/>
    <linearGradient gradientTransform="scale(1.251383,0.799116)" gradientUnits="userSpaceOnUse" id="linearGradient2986" x1="214.88705" x2="-46.229206" xlink:href="#linearGradient2122" y1="108.75815" y2="352.20242"/>
    <linearGradient gradientTransform="scale(1.687069,0.592744)" gradientUnits="userSpaceOnUse" id="linearGradient2994" x1="220.02895" x2="208.66641" xlink:href="#linearGradient2988" y1="367.87140" y2="322.10733"/>
    <linearGradient gradientTransform="scale(1.361889,0.734274)" gradientUnits="userSpaceOnUse" id="linearGradient3002" x1="137.94797" x2="178.18408" xlink:href="#linearGradient2996" y1="239.13179" y2="186.93596"/>
    <linearGradient gradientTransform="matrix(1.306714,0.000000,0.000000,0.683788,-27.50945,-10.82293)" gradientUnits="userSpaceOnUse" id="linearGradient2252" x1="-84.012840" x2="-42.793274" xlink:href="#linearGradient2122" y1="-27.979443" y2="44.798901"/>
    <linearGradient gradientTransform="matrix(0.994124,0.000000,0.000000,0.898796,-27.50945,-10.82293)" gradientUnits="userSpaceOnUse" id="linearGradient2278" x1="-228.34370" x2="104.23048" xlink:href="#linearGradient2122" y1="156.02844" y2="-528.19983"/>
    <linearGradient gradientTransform="matrix(-1.969486,0.000000,0.000000,0.691970,-28.42218,-160.6952)" gradientUnits="userSpaceOnUse" id="linearGradient2299" x1="220.02895" x2="208.66641" xlink:href="#linearGradient2988" y1="367.87140" y2="322.10733"/>
    <linearGradient gradientTransform="matrix(-1.699362,0.000000,0.000000,0.801962,-28.42218,-160.6952)" gradientUnits="userSpaceOnUse" id="linearGradient2305" x1="286.58630" x2="-509.75967" xlink:href="#linearGradient2122" y1="228.04239" y2="776.38965"/>
    <radialGradient cx="133.52780" cy="783.30951" fx="133.52780" fy="776.26428" gradientTransform="matrix(-6.449434,0.000000,0.000000,4.018662,581.6695,-2968.854)" gradientUnits="userSpaceOnUse" id="radialGradient2308" r="39.923176" xlink:href="#linearGradient2926"/>
    <linearGradient gradientTransform="matrix(-0.647919,0.000000,0.000000,0.488764,-28.92678,-132.9711)" gradientUnits="userSpaceOnUse" id="linearGradient2311" x1="214.03627" x2="175.58330" xlink:href="#linearGradient2122" y1="191.02786" y2="308.42743"/>
    <linearGradient gradientTransform="matrix(-1.589871,0.000000,0.000000,0.857192,-28.42218,-160.6952)" gradientUnits="userSpaceOnUse" id="linearGradient2314" x1="137.94797" x2="178.18408" xlink:href="#linearGradient2996" y1="239.13179" y2="186.93596"/>
    <linearGradient gradientTransform="matrix(-1.460866,0.000000,0.000000,0.932889,-28.42218,-160.6952)" gradientUnits="userSpaceOnUse" id="linearGradient2317" x1="214.88705" x2="-46.229206" xlink:href="#linearGradient2122" y1="108.75815" y2="352.20242"/>
    <linearGradient gradientTransform="matrix(-1.460866,0.000000,0.000000,0.932889,-28.42218,-160.6952)" gradientUnits="userSpaceOnUse" id="linearGradient2354" x1="214.88705" x2="-46.229206" xlink:href="#linearGradient2122" y1="108.75815" y2="352.20242"/>
    <linearGradient gradientTransform="matrix(-1.589871,0.000000,0.000000,0.857192,-28.42218,-160.6952)" gradientUnits="userSpaceOnUse" id="linearGradient2356" x1="137.94797" x2="178.18408" xlink:href="#linearGradient2996" y1="239.13179" y2="186.93596"/>
    <linearGradient gradientTransform="matrix(-0.647919,0.000000,0.000000,0.488764,-28.92678,-132.9711)" gradientUnits="userSpaceOnUse" id="linearGradient2358" x1="214.03627" x2="175.58330" xlink:href="#linearGradient2122" y1="191.02786" y2="308.42743"/>
    <radialGradient cx="133.52780" cy="783.30951" fx="133.52780" fy="776.26428" gradientTransform="matrix(-6.449434,0.000000,0.000000,4.018662,581.6695,-2968.854)" gradientUnits="userSpaceOnUse" id="radialGradient2360" r="39.923176" xlink:href="#linearGradient2926"/>
    <linearGradient gradientTransform="matrix(-1.699362,0.000000,0.000000,0.801962,-28.42218,-160.6952)" gradientUnits="userSpaceOnUse" id="linearGradient2362" x1="286.58630" x2="-509.75967" xlink:href="#linearGradient2122" y1="228.04239" y2="776.38965"/>
    <linearGradient gradientTransform="matrix(-1.969486,0.000000,0.000000,0.691970,-28.42218,-160.6952)" gradientUnits="userSpaceOnUse" id="linearGradient2364" x1="220.02895" x2="208.66641" xlink:href="#linearGradient2988" y1="367.87140" y2="322.10733"/>
    <linearGradient gradientTransform="matrix(1.306714,0.000000,0.000000,0.683788,-27.50945,-10.82293)" gradientUnits="userSpaceOnUse" id="linearGradient2366" x1="-84.012840" x2="-42.793274" xlink:href="#linearGradient2122" y1="-27.979443" y2="44.798901"/>
    <linearGradient gradientTransform="matrix(0.994124,0.000000,0.000000,0.898796,-27.50945,-10.82293)" gradientUnits="userSpaceOnUse" id="linearGradient2368" x1="-228.34370" x2="104.23048" xlink:href="#linearGradient2122" y1="156.02844" y2="-528.19983"/>
    <linearGradient gradientTransform="matrix(0.704605,0.000000,0.000000,0.637040,415.2939,76.68502)" gradientUnits="userSpaceOnUse" id="linearGradient2381" x1="-228.34370" x2="104.23048" xlink:href="#linearGradient2122" y1="156.02844" y2="-528.19983"/>
    <linearGradient gradientTransform="matrix(0.926160,0.000000,0.000000,0.484648,415.2939,76.68502)" gradientUnits="userSpaceOnUse" id="linearGradient2384" x1="-84.012840" x2="-42.793274" xlink:href="#linearGradient2122" y1="-27.979443" y2="44.798901"/>
    <linearGradient gradientTransform="matrix(-1.395913,0.000000,0.000000,0.490448,414.6470,-29.53995)" gradientUnits="userSpaceOnUse" id="linearGradient2393" x1="220.02895" x2="208.66641" xlink:href="#linearGradient2988" y1="367.87140" y2="322.10733"/>
    <linearGradient gradientTransform="matrix(-1.204457,0.000000,0.000000,0.568407,414.6470,-29.53995)" gradientUnits="userSpaceOnUse" id="linearGradient2399" x1="286.58630" x2="-509.75967" xlink:href="#linearGradient2122" y1="228.04239" y2="776.38965"/>
    <radialGradient cx="133.52780" cy="783.30951" fx="133.52780" fy="776.26428" gradientTransform="matrix(-4.571165,0.000000,0.000000,2.848307,847.0617,-2019.879)" gradientUnits="userSpaceOnUse" id="radialGradient2402" r="39.923176" xlink:href="#linearGradient2413"/>
    <linearGradient gradientTransform="scale(-1.151360,0.868538)" gradientUnits="userSpaceOnUse" id="linearGradient2405" x1="-273.97739" x2="-289.79379" xlink:href="#linearGradient2122" y1="46.203632" y2="111.63103"/>
    <linearGradient gradientTransform="matrix(-1.126853,0.000000,0.000000,0.607552,414.6470,-29.53995)" gradientUnits="userSpaceOnUse" id="linearGradient2408" x1="137.94797" x2="178.18408" xlink:href="#linearGradient2996" y1="239.13179" y2="186.93596"/>
    <linearGradient gradientTransform="matrix(-1.035418,0.000000,0.000000,0.661204,414.6470,-29.53995)" gradientUnits="userSpaceOnUse" id="linearGradient2411" x1="214.88705" x2="-46.229206" xlink:href="#linearGradient2122" y1="108.75815" y2="352.20242"/>
    <radialGradient cx="195.70198" cy="252.70335" fx="195.70198" fy="252.70335" gradientTransform="scale(1.297277,0.770846)" gradientUnits="userSpaceOnUse" id="radialGradient2429" r="158.86395" xlink:href="#linearGradient2413"/>
  </defs>
  <path d="M 459.97014 194.79526 A 206.09052 122.45958 0 1 1  47.789108,194.79526 A 206.09052 122.45958 0 1 1  459.97014 194.79526 z" id="path2421" style="fill:url(#radialGradient2429);fill-opacity:1.0000000;fill-rule:evenodd;stroke:none;stroke-width:1.4250000;stroke-linecap:round;stroke-linejoin:round;stroke-miterlimit:4.0000000;stroke-dashoffset:0.00000000;stroke-opacity:1.0000000" transform="matrix(1.169082,0.000000,0.000000,0.861789,-53.87817,43.84823)"/>
  <path d="M 146.00811,137.38942 C 146.00811,137.38942 290.86692,88.423067 290.86692,79.241871 C 290.86692,70.060675 286.78641,75.161339 285.76627,64.960018 C 302.08839,45.577501 285.76628,44.557360 274.54482,38.436554 C 267.40387,55.778822 227.61872,72.100941 227.61872,72.100941 L 136.82690,122.08744 L 146.00811,137.38942 z " id="path2130" style="fill:url(#linearGradient2411);fill-opacity:1.0000000;fill-rule:evenodd;stroke:#000000;stroke-width:1.5528684px;stroke-linecap:butt;stroke-linejoin:miter;stroke-opacity:1.0000000"/>
  <path d="M 375.92337,59.859354 C 372.86297,53.738556 353.48046,47.617767 349.39992,51.698290 C 345.31939,55.778822 325.41669,66.763321 319.29588,70.843829 C 313.17509,74.924368 310.87187,82.065290 302.47383,81.282145 C 296.35302,78.221730 277.99063,69.040558 276.97049,75.161339 C 275.95038,81.282145 270.84971,116.98677 298.39329,116.98677 C 325.93688,116.98677 355.52071,127.18810 363.68178,110.86597 C 371.84283,94.543849 375.92337,59.859354 375.92337,59.859354 z " id="path2120" style="fill:url(#linearGradient2405);fill-opacity:1.0000000;fill-rule:evenodd;stroke:#000000;stroke-width:1.5528684px;stroke-linecap:butt;stroke-linejoin:miter;stroke-opacity:1.0000000"/>
  <path d="M 395.94059,152.69142 C 395.94059,152.69142 396.96072,101.68479 392.88019,92.503591 C 388.79967,83.322403 380.63860,64.960018 376.55808,60.879486 C 372.47754,56.798946 369.41715,55.778822 365.33662,60.879486 C 361.25608,65.980143 361.25608,84.342527 356.15542,91.483458 C 351.05476,98.624388 347.99435,103.72505 337.79303,104.74519 C 327.59171,105.76531 316.37025,100.66465 307.18905,92.503591 C 298.00786,84.342527 291.88707,74.141214 284.74614,72.100941 C 277.60522,70.060675 276.58508,72.100941 264.34348,79.241871 C 252.10190,86.382801 151.10878,124.12771 151.10878,124.12771 L 140.90745,123.10756 L 244.96097,61.899620 C 244.96097,61.899620 161.31010,106.78545 146.00811,114.94651 C 130.70612,123.10756 122.54505,131.26863 114.38400,132.28877 C 106.22294,133.30891 81.739755,127.18810 74.598834,131.26863 C 67.457905,135.34918 60.316977,137.38942 57.256579,145.55049 C 54.196174,153.71155 51.135783,181.25513 51.135783,181.25513 C 51.135783,181.25513 63.377367,197.57726 78.679364,201.65779 C 93.981347,205.73830 168.45102,222.06043 186.81341,219.00004 C 205.17579,215.93964 234.75964,215.93964 247.00123,208.79872 C 259.24282,201.65779 281.68575,200.63765 292.90719,200.63765 C 304.12867,200.63765 354.11515,204.71818 367.37688,198.59738 C 380.63860,192.47659 388.79967,169.01354 392.88019,164.93301 C 396.96072,160.85247 395.94059,152.69142 395.94059,152.69142 z " id="path2116" style="fill:url(#linearGradient2399);fill-opacity:1.0000000;fill-rule:evenodd;stroke:#000000;stroke-width:1.5528684px;stroke-linecap:butt;stroke-linejoin:miter;stroke-opacity:1.0000000"/>
  <path d="M 393.38156,144.75114 C 395.63782,139.11049 395.63782,176.33886 394.50969,178.59512 C 277.18393,201.15776 208.36787,186.49204 208.36787,186.49204 C 208.36787,186.49204 295.23405,194.38897 383.22837,166.18566 C 391.12529,159.41687 393.38156,144.75114 393.38156,144.75114 z " id="path2942" style="fill:#000000;fill-opacity:0.22702701;fill-rule:evenodd;stroke:none;stroke-width:1.0000000px;stroke-linecap:butt;stroke-linejoin:miter;stroke-opacity:1.0000000"/>
  <path d="M 397.98086,158.40119 L 401.04125,183.27918 C 401.04125,183.27918 401.04125,184.83406 400.02111,190.27612 C 399.00099,195.71817 397.98086,198.82792 391.86006,201.16023 C 385.73926,203.49253 328.61184,212.04434 325.55145,212.04434 C 322.49105,212.04434 299.02799,205.82484 286.78641,207.37972 C 274.54480,208.93458 266.38375,210.48948 260.26295,212.82178 C 254.14217,215.15409 240.88043,222.15102 215.37713,222.92847 C 189.87381,223.70589 162.33023,225.26077 132.74640,219.04127 C 103.16253,212.82178 102.05301,212.10107 77.762005,202.14775 C 63.988722,195.26798 53.236875,189.75000 44.970605,181.08744 C 44.704492,165.08931 55.216320,150.62684 55.216320,156.84633 C 60.861567,172.94500 66.570059,171.26297 85.302927,179.92553 C 100.18527,185.36758 123.56519,198.82792 142.94772,196.49559 C 162.33023,194.16329 201.09527,187.94380 209.25633,187.94380 C 217.41740,187.94380 285.76628,192.60842 307.18907,190.27610 C 328.61185,187.94380 375.53794,180.16943 385.73926,176.28226 C 395.94058,172.39506 397.98086,158.40119 397.98086,158.40119 z " id="path2118" style="fill:#171717;fill-opacity:1.0000000;fill-rule:evenodd;stroke:#000000;stroke-width:1.3556230px;stroke-linecap:butt;stroke-linejoin:miter;stroke-opacity:1.0000000"/>
  <path d="M 141.92759,118.00691 L 163.94278,131.50561 L 170.01735,100.66465 L 216.39726,103.60657 L 219.45765,75.161339 L 265.36363,83.322403 L 255.16229,67.000284 L 235.77977,65.980143 L 241.47286,92.148134 L 196.27667,85.950806 L 189.56460,115.72967 L 141.92759,118.00691 z " id="path2142" style="fill:none;fill-opacity:0.75000000;fill-rule:evenodd;stroke:#000000;stroke-width:6.2500000;stroke-linecap:round;stroke-linejoin:round;stroke-miterlimit:4.0000000;stroke-opacity:1.0000000"/>
  <path d="M 136.44148,127.57353 C 136.44148,127.57353 128.28043,131.65407 119.09923,132.67419 C 109.91804,133.69434 83.394592,130.63393 83.394592,130.63393 C 83.394592,130.63393 72.173132,130.63393 82.374466,136.75473 C 92.575786,142.87552 170.10587,161.23791 158.88440,155.11712 C 147.66294,148.99631 119.09923,145.93593 110.93818,140.83527 C 102.77712,135.73458 136.44148,127.57353 136.44148,127.57353 z " id="path2902" style="fill:url(#linearGradient2393);fill-opacity:1.0000000;fill-rule:evenodd;stroke:none;stroke-width:1.0000000px;stroke-linecap:butt;stroke-linejoin:miter;stroke-opacity:1.0000000"/>
  <path d="M 373.30686,65.736303 C 373.30686,65.736303 371.13461,57.575247 368.86445,63.696045 C 366.59427,69.816826 364.03831,85.118828 359.42853,91.239617 C 356.29633,96.462202 340.28528,114.85694 353.28087,104.98902 C 374.60269,82.546093 373.30686,65.736303 373.30686,65.736303 z " id="path2904" style="fill:#ffffff;fill-opacity:0.61621624;fill-rule:evenodd;stroke:none;stroke-width:1.0000000px;stroke-linecap:butt;stroke-linejoin:miter;stroke-opacity:1.0000000"/>
  <path d="M 233.73951,103.72505 C 233.73951,103.72505 143.96785,132.28877 157.22957,138.40956 C 170.49130,144.53035 233.73951,103.72505 233.73951,103.72505 z " id="path2906" style="fill:#000000;fill-opacity:0.054054026;fill-rule:evenodd;stroke:none;stroke-width:1.0000000px;stroke-linecap:butt;stroke-linejoin:miter;stroke-opacity:1.0000000"/>
  <path d="M 256.18243,67.000284 C 265.36363,63.939877 262.30322,63.939877 270.46428,65.980143 C 278.62533,68.020401 286.78641,78.221730 277.60522,79.241871 C 268.42401,80.262004 261.28309,76.181481 256.18243,67.000284 z " id="path2936" style="fill:none;fill-opacity:0.75000000;fill-rule:evenodd;stroke:#000000;stroke-width:4.6586056;stroke-linecap:round;stroke-linejoin:round;stroke-miterlimit:4.0000000;stroke-opacity:1.0000000"/>
  <path d="M 257.20256,63.939877 C 257.20256,63.939877 253.12202,54.758697 245.98110,55.778822 C 238.84016,56.798963 228.63884,63.939894 236.79990,60.879486 C 243.94082,65.980143 257.20256,63.939877 257.20256,63.939877 z " id="path2938" style="fill:none;fill-opacity:0.75000000;fill-rule:evenodd;stroke:#000000;stroke-width:4.6586056;stroke-linecap:round;stroke-linejoin:round;stroke-miterlimit:4.0000000;stroke-opacity:1.0000000"/>
  <path d="M 247.00123,89.443192 L 256.18243,65.980143 C 256.18243,65.980143 236.79992,76.181481 230.67911,81.282145" id="path2940" style="fill:none;fill-opacity:0.75000000;fill-rule:evenodd;stroke:#000000;stroke-width:4.6586056;stroke-linecap:butt;stroke-linejoin:miter;stroke-miterlimit:4.0000000;stroke-opacity:1.0000000"/>
  <path d="M 323.39842,122.87026 C 323.39842,122.87026 296.64100,110.85087 290.55978,104.29484 C 284.47854,97.738794 282.04605,93.368103 278.39731,93.368103 C 274.74857,93.368103 194.47631,130.51897 187.17883,133.79699 C 179.88137,137.07500 153.12394,140.35304 170.15139,142.53838 C 187.17883,144.72371 240.69368,142.53838 258.93737,138.16768 C 277.18106,133.79699 323.39842,122.87026 323.39842,122.87026 z " id="path2944" style="fill:#ffffff;fill-opacity:0.21621622;fill-rule:evenodd;stroke:#000000;stroke-width:1.5410675;stroke-linecap:butt;stroke-linejoin:round;stroke-miterlimit:4.0000000;stroke-opacity:1.0000000"/>
  <path d="M 301.20484,87.358137 C 301.20484,87.358137 328.64399,95.362972 341.64148,90.026415 C 354.63896,84.689858 370.52479,64.677768 376.30145,62.009490 C 382.07811,59.341212 393.80140,55.204486 403.91056,61.875183 C 414.01972,68.545879 414.20475,61.174325 417.09309,75.849857 C 419.98142,90.525389 421.07058,116.70920 409.51726,119.37748 C 397.96393,122.04576 301.20484,87.358137 301.20484,87.358137 z " id="path2244" style="fill:url(#linearGradient2384);fill-opacity:1.0000000;fill-rule:evenodd;stroke:#000000;stroke-width:1.4250000;stroke-linecap:butt;stroke-linejoin:miter;stroke-miterlimit:4.0000000;stroke-opacity:1.0000000"/>
  <path d="M 218.88740,176.74547 L 302.64901,92.694694 C 302.64901,92.694694 295.42818,88.692276 298.31651,82.021579 C 301.20484,75.350883 305.53735,62.009490 319.97900,63.343629 C 334.42065,64.677768 358.97146,60.675350 360.41563,70.014325 C 361.85979,79.353300 358.97146,87.358137 360.41563,95.362972 C 361.85979,103.36781 354.63896,98.031251 350.30647,103.36781 C 345.97397,108.70437 234.77323,200.75997 234.77323,200.75997 L 217.44324,194.08928 L 218.88740,176.74547 z " id="path2256" style="fill:url(#linearGradient2381);fill-opacity:1.0000000;fill-rule:evenodd;stroke:#000000;stroke-width:0.92121094;stroke-linecap:butt;stroke-linejoin:miter;stroke-miterlimit:4.0000000;stroke-opacity:1.0000000"/>
  <path d="M 385.10077,66.392322 C 390.10869,61.169767 399.80431,61.930627 403.80524,66.266999 C 410.88961,69.796767 423.71893,76.521741 414.49331,94.573243 C 411.19724,104.89065 405.52039,117.68233 402.05654,108.42469 C 403.05678,123.60200 401.55413,73.172745 385.10077,66.392322 z " id="path2319" style="fill:#000000;fill-opacity:0.32432428;fill-rule:evenodd;stroke:none;stroke-width:1.0000000px;stroke-linecap:butt;stroke-linejoin:miter;stroke-opacity:1.0000000"/>
  <path d="M 129.34914,254.12554 C 129.34914,254.12554 135.12581,226.10862 143.79080,222.10620 C 152.45579,218.10379 179.89493,206.09654 187.11577,200.75997 C 194.33659,195.42341 205.88992,174.07719 213.11074,168.74064 C 220.33157,163.40408 262.21237,120.71162 272.32154,114.04092 C 282.43069,107.37022 291.09568,80.687440 296.87234,82.021579 C 302.64901,83.355719 308.42567,88.692276 302.64901,98.031251 C 296.87234,107.37022 221.77574,176.74547 221.77574,182.08203 C 221.77574,187.41858 224.66406,195.42341 230.44073,195.42341 C 236.21740,195.42341 328.64398,100.69953 341.64148,98.031251 C 354.63896,95.362972 371.96895,92.694693 380.63395,96.697114 C 389.29894,100.69953 403.74059,116.70920 405.18476,111.37264 C 406.62893,106.03609 423.81494,84.700483 413.70578,74.027368 C 409.58431,65.100664 404.40098,63.357740 397.18015,60.689462 C 389.95932,58.021183 391.78628,57.612738 406.62893,62.009490 C 418.18225,67.346047 426.84724,63.343629 429.73557,75.350883 C 432.62391,87.358137 439.84473,88.692276 442.73307,108.70437 C 445.62140,128.71645 452.84222,178.07961 452.84222,178.07961 L 384.96644,227.44276 L 376.30145,235.44760 L 356.08313,270.13522 C 356.08313,270.13522 330.08816,294.14973 301.20484,295.48387 C 272.32154,296.81801 221.77574,295.48387 208.77825,291.48145 C 195.78076,287.47902 149.56746,278.14006 140.90247,271.46936 C 132.23748,264.79867 129.34914,254.12554 129.34914,254.12554 z " id="path1465" style="fill:#b6d9ec;fill-opacity:1.0000000;fill-rule:evenodd;stroke:#000000;stroke-width:1.6750000;stroke-linecap:butt;stroke-linejoin:miter;stroke-miterlimit:4.0000000;stroke-opacity:1.0000000"/>
  <path d="M 129.34914,252.83508 C 129.34914,252.83508 129.34914,270.93204 130.79331,276.96437 C 132.23748,282.99669 135.12581,290.53709 142.34664,293.55325 C 149.56746,296.56941 191.44826,311.65022 237.66156,313.15830 C 283.87486,314.66637 302.64901,311.65022 327.19983,302.60173 C 351.75063,293.55325 356.08313,289.02901 358.97146,281.48861 C 361.85979,273.94820 364.74813,260.37548 351.75063,260.37548 C 338.75315,260.37548 321.42316,279.98052 309.86983,286.01284 C 298.31651,292.04516 234.77323,293.55325 234.77323,293.55325 C 234.77323,293.55325 228.99656,286.01284 224.66406,279.98052 C 220.33157,273.94820 135.12581,267.91588 129.34914,252.83508 z " id="path1467" style="fill:#000000;fill-opacity:1.0000000;fill-rule:evenodd;stroke:#000000;stroke-width:0.71230835px;stroke-linecap:butt;stroke-linejoin:miter;stroke-opacity:1.0000000"/>
  <path d="M 195.78076,207.43067 C 195.78076,207.43067 171.22995,214.10137 162.56495,219.43793 C 153.89996,224.77448 153.89996,222.10620 155.34412,226.10862 C 156.78829,230.11105 179.89493,242.11829 223.21990,232.77932 C 266.54488,223.44034 341.64148,206.09654 314.20233,207.43067 C 286.76319,208.76481 239.10573,222.10620 228.99656,220.77206 C 218.88740,219.43793 195.78076,207.43067 195.78076,207.43067 z " id="path2240" style="fill:#ffffff;fill-opacity:0.34594592;fill-rule:evenodd;stroke:none;stroke-width:1.0000000px;stroke-linecap:butt;stroke-linejoin:miter;stroke-opacity:1.0000000"/>
  <path d="M 360.41563,264.79867 C 360.41563,264.79867 361.85979,241.54083 382.07812,227.00468 C 402.29643,212.46854 438.40057,192.11793 445.62140,181.94263 C 452.84222,171.76733 452.84222,167.40648 452.84222,167.40648 C 452.84222,167.40648 458.61889,203.74685 454.28639,213.92215 C 449.95390,224.09746 395.07560,247.35529 387.85478,247.35529 C 380.63395,247.35529 383.52228,247.35529 376.30145,250.26250 C 369.08063,253.16974 360.41563,264.79867 360.41563,264.79867 z " id="path2242" style="fill:#000000;fill-opacity:1.0000000;fill-rule:evenodd;stroke:none;stroke-width:1.0000000px;stroke-linecap:butt;stroke-linejoin:miter;stroke-opacity:1.0000000"/>
  <path d="M 407.26729,111.03645 C 407.26729,111.03645 416.25453,100.45004 417.12868,92.445207 C 418.00283,84.440371 422.23003,81.407339 415.23679,73.402504 C 407.67468,65.867571 388.24936,58.459549 395.24260,59.793688 C 402.23584,61.127827 420.99668,67.422126 423.61914,75.426962 C 426.24161,83.431797 423.87623,93.692642 418.63130,101.69748 C 413.38637,109.70231 410.76391,123.04371 407.26729,111.03645 z " id="path2254" style="fill:#d2eeff;fill-opacity:1.0000000;fill-rule:evenodd;stroke:none;stroke-width:1.0000000px;stroke-linecap:butt;stroke-linejoin:miter;stroke-opacity:1.0000000"/>
  <path d="M 211.66657,183.41617 L 244.88239,192.75514 L 234.77323,156.73338 L 288.20736,150.06269 L 278.09820,115.37506 L 337.30898,106.03609 L 317.09067,90.026415 L 291.09568,98.031251 L 311.31401,128.71645 L 253.54738,138.05543 L 265.10071,172.74305 L 211.66657,183.41617 z " id="path2280" style="fill:none;fill-opacity:0.75000000;fill-rule:evenodd;stroke:#000000;stroke-width:7.0876999;stroke-linecap:round;stroke-linejoin:round;stroke-miterlimit:4.0000000;stroke-opacity:1.0000000"/>
  <path d="M 280.98653,196.75756 L 353.19480,122.04576 C 353.19480,122.04576 356.08313,116.70920 364.74813,118.04334 C 373.41312,119.37748 374.85729,124.71404 383.52228,127.38232 C 392.18727,130.05059 409.51726,135.38715 410.96142,134.05301 C 412.40559,132.71887 367.63645,171.40891 350.30647,179.41375 C 332.97649,187.41858 292.53985,200.75997 280.98653,196.75756 z " id="path2282" style="fill:#ffffff;fill-opacity:0.25945947;fill-rule:evenodd;stroke:#000000;stroke-width:1.6749290;stroke-linecap:round;stroke-linejoin:round;stroke-miterlimit:4.0000000;stroke-opacity:1.0000000"/>
  <path d="M 315.84766,87.292882 C 315.84766,87.292882 312.91077,79.950652 302.63165,78.482206 C 292.35253,77.013759 276.19961,90.229775 286.47874,88.761329 C 296.75786,87.292882 327.59524,79.950652 337.87436,82.887544 C 348.15348,85.824436 367.24328,101.97734 352.55882,101.97734 C 337.87436,101.97734 315.84766,87.292882 315.84766,87.292882 z " id="path2321" style="fill:none;fill-opacity:0.75000000;fill-rule:evenodd;stroke:#000000;stroke-width:7.0876999;stroke-linecap:round;stroke-linejoin:round;stroke-miterlimit:4.0000000;stroke-opacity:1.0000000"/>
  <path d="M 292.35253,107.85113 C 292.35253,107.85113 305.56854,94.635113 312.91077,88.761329 C 320.25300,82.887544 314.37922,107.85113 318.78456,122.53559 C 323.18990,137.22005 320.25300,135.75160 320.25300,135.75160" id="path2323" style="fill:none;fill-opacity:0.75000000;fill-rule:evenodd;stroke:#000000;stroke-width:7.0876999;stroke-linecap:butt;stroke-linejoin:miter;stroke-miterlimit:4.0000000;stroke-opacity:1.0000000"/>
</svg>
