<?xml version="1.0" encoding="UTF-8" standalone="no"?>
<!-- Generator: Adobe Illustrator 15.0.0, SVG Export Plug-In . SVG Version: 6.00 Build 0)  -->

<svg
   xmlns:dc="http://purl.org/dc/elements/1.1/"
   xmlns:cc="http://creativecommons.org/ns#"
   xmlns:rdf="http://www.w3.org/1999/02/22-rdf-syntax-ns#"
   xmlns:svg="http://www.w3.org/2000/svg"
   xmlns="http://www.w3.org/2000/svg"
   xmlns:sodipodi="http://sodipodi.sourceforge.net/DTD/sodipodi-0.dtd"
   xmlns:inkscape="http://www.inkscape.org/namespaces/inkscape"
   version="1.1"
   x="0px"
   y="0px"
   width="160"
   height="100"
   viewBox="0 0 160 100"
   enable-background="new 0 0 580 580"
   xml:space="preserve"
   id="svg2"
   inkscape:version="0.92.2 (5c3e80d, 2017-08-06)"
   sodipodi:docname="16.svg"><metadata
     id="metadata21"><rdf:RDF><cc:Work
         rdf:about=""><dc:format>image/svg+xml</dc:format><dc:type
           rdf:resource="http://purl.org/dc/dcmitype/StillImage" /><dc:title></dc:title></cc:Work></rdf:RDF></metadata><defs
     id="defs19" /><sodipodi:namedview
     pagecolor="#ffffff"
     bordercolor="#666666"
     borderopacity="1"
     objecttolerance="10"
     gridtolerance="10"
     guidetolerance="10"
     inkscape:pageopacity="0"
     inkscape:pageshadow="2"
     inkscape:window-width="1680"
     inkscape:window-height="987"
     id="namedview17"
     showgrid="true"
     fit-margin-top="0"
     fit-margin-left="0"
     fit-margin-right="0"
     fit-margin-bottom="0"
     inkscape:zoom="1.1508772"
     inkscape:cx="243.04389"
     inkscape:cy="229.0533"
     inkscape:window-x="-8"
     inkscape:window-y="-8"
     inkscape:window-maximized="1"
     inkscape:current-layer="svg2"><inkscape:grid
       type="xygrid"
       id="grid3001"
       empspacing="5"
       visible="true"
       enabled="true"
       snapvisiblegridlinesonly="true"
       originx="0.90625"
       originy="-99.90625"
       spacingx="1"
       spacingy="1" /></sodipodi:namedview><rect
     style="fill:#ffccaa;fill-opacity:1;stroke:#e5e7e5;stroke-width:0.39130986;stroke-linecap:square;stroke-linejoin:bevel;stroke-miterlimit:4;stroke-dasharray:none;stroke-opacity:1"
     id="rect3003"
     width="99.608688"
     height="159.60825"
     x="-99.804352"
     y="0.19565493"
     transform="rotate(-90)" /><g
     id="Layer_2_1_"
     style="fill:#000000"
     transform="matrix(0,-0.29723662,0.31084067,0,-10.376497,136.54135)"><g
       id="g9"
       style="fill:#000000"><path
         d="m 270.681,338.544 c 48.514,-21.003 92.012,-49.875 123.051,-89.62 14.844,-19.009 28.994,-42.481 36.986,-69.351 7.547,-25.367 10.215,-57.255 6.758,-86.42 -0.186,-1.568 0.609,-4.383 -1.424,-5.334 -8.576,42.141 -24.096,79.291 -46.232,106.691 -3.227,-87.322 -53,-137.918 -128.029,-154.702 -0.415,0.059 -0.387,0.563 -0.356,1.067 -0.217,0.02 -0.422,0.052 -0.355,0.356 31.414,15.679 58.166,38.176 76.105,68.638 17.434,29.602 27.641,72.926 19.916,118.784 -8.588,7.534 -19.117,15.023 -29.518,19.56 13.115,-47.739 -0.814,-97.49 -21.339,-127.674 C 284.596,88.7 252.249,66.012 213.067,52.967 c -5.189,6.593 -11.236,12.154 -16.358,18.849 -5.141,6.719 -9.587,14.088 -12.448,23.117 32.724,7.433 58.323,21.424 77.174,43.744 16.778,19.866 31.989,54.755 25.25,92.821 -5.719,32.307 -25.242,56.425 -49.078,71.839 -22.39,14.479 -54.855,23.105 -89.622,22.762 -2.432,-0.024 -5.904,-1.021 -6.401,0.711 101.204,30.753 179.738,85.756 223.697,173.196 6.373,12.674 10.852,26.472 16.715,40.187 0.676,-11.518 -1.941,-22.865 -4.268,-33.43 -16.677,-75.73 -54.922,-129.956 -107.047,-168.219 z"
         id="path11"
         style="clip-rule:evenodd;fill:#000000;fill-rule:evenodd"
         inkscape:connector-curvature="0" /><path
         d="m 448.144,256.392 c -34.807,41.824 -79.549,76.415 -132.652,100.29 -0.229,2.255 2.32,3.315 3.557,4.623 9.328,9.866 18.551,21.595 26.672,33.073 48.688,-33.349 81.818,-82.245 106.336,-139.765 0,-0.237 0,-0.475 0,-0.711 -1.909,-1.045 -3.194,1.628 -3.913,2.49 z"
         id="path13"
         style="clip-rule:evenodd;fill:#000000;fill-rule:evenodd"
         inkscape:connector-curvature="0" /><path
         d="m 193.49,285.037 c 36.541,0 66.164,-30.763 66.164,-68.711 0,-36.721 -27.739,-66.714 -62.644,-68.614 14.513,10.002 24.213,28.144 24.213,48.866 0,31.528 -22.453,57.086 -50.151,57.086 -18.345,0 -34.386,-11.215 -43.13,-27.948 4.411,33.505 32.073,59.321 65.548,59.321 z"
         id="path15"
         style="clip-rule:evenodd;fill:#000000;fill-rule:evenodd"
         inkscape:connector-curvature="0" /></g></g></svg>