<?xml version="1.0" encoding="UTF-8" standalone="no"?>
<!-- Created with Inkscape (http://www.inkscape.org/) -->

<svg
   xmlns:dc="http://purl.org/dc/elements/1.1/"
   xmlns:cc="http://creativecommons.org/ns#"
   xmlns:rdf="http://www.w3.org/1999/02/22-rdf-syntax-ns#"
   xmlns:svg="http://www.w3.org/2000/svg"
   xmlns="http://www.w3.org/2000/svg"
   xmlns:sodipodi="http://sodipodi.sourceforge.net/DTD/sodipodi-0.dtd"
   xmlns:inkscape="http://www.inkscape.org/namespaces/inkscape"
   width="492.54626"
   height="492.54675"
   id="svg2"
   version="1.1"
   inkscape:version="0.48.4 r9939"
   sodipodi:docname="ticket2.svg">
  <defs
     id="defs4">
	

		
		
	</defs>
  <sodipodi:namedview
     id="base"
     pagecolor="#ffffff"
     bordercolor="#666666"
     borderopacity="1.0"
     inkscape:pageopacity="0.0"
     inkscape:pageshadow="2"
     inkscape:zoom="0.35"
     inkscape:cx="-309.51441"
     inkscape:cy="245.84328"
     inkscape:document-units="px"
     inkscape:current-layer="layer1"
     showgrid="false"
     inkscape:window-width="1920"
     inkscape:window-height="1018"
     inkscape:window-x="-8"
     inkscape:window-y="-8"
     inkscape:window-maximized="1"
     fit-margin-top="0"
     fit-margin-left="0"
     fit-margin-right="0"
     fit-margin-bottom="0" />
  <metadata
     id="metadata7">
    <rdf:RDF>
      <cc:Work
         rdf:about="">
        <dc:format>image/svg+xml</dc:format>
        <dc:type
           rdf:resource="http://purl.org/dc/dcmitype/StillImage" />
        <dc:title></dc:title>
      </cc:Work>
    </rdf:RDF>
  </metadata>
  <g
     inkscape:label="Ebene 1"
     inkscape:groupmode="layer"
     id="layer1"
     transform="translate(-112.37155,-285.65871)">
    <g
       style="opacity:0.5;fill:#4d4d4d"
       id="g2994"
       transform="translate(68.644928,241.93196)">
			
				<rect
   style="fill:#4d4d4d"
   x="271.20801"
   y="195.659"
   transform="matrix(0.7071,0.7071,-0.7071,0.7071,262.6363,-186.1794)"
   width="169.69901"
   height="56.567001"
   id="rect2996" />

			
				<rect
   style="fill:#4d4d4d"
   x="105.154"
   y="361.71201"
   transform="matrix(0.7071,0.7071,-0.7071,0.7071,331.4186,-20.126)"
   width="169.69901"
   height="56.567001"
   id="rect2998" />

			
				<rect
   style="fill:#4d4d4d"
   x="189.99899"
   y="234.015"
   transform="matrix(0.7071,0.7071,-0.7071,0.7071,296.2747,-104.9703)"
   width="169.69901"
   height="142.271"
   id="rect3000" />

		</g>
    <path
       style="fill:#ac39ac;fill-opacity:1"
       inkscape:connector-curvature="0"
       d="m 558.82393,499.78696 40.836,-40.835 c 7.011,-7.01 7.01,-18.376 0,-25.386 l -142.648,-142.649 c -7.012,-7.011 -18.377,-7.011 -25.388,0 l -40.836,40.835 1.6,1.6 -3.862,3.862 -1.6,-1.599 -269.297,269.296 c -7.01,7.011 -7.01,18.375 0.001,25.387 l 44.008,44.008 c 15.086,-15.086 39.547,-15.086 54.633,0 15.086,15.087 15.086,39.547 0,54.633 l 44.008,44.009 c 7.009,7.01 18.375,7.01 25.386,0 l 269.297,-269.296 -1.6,-1.599 3.864,-3.863 1.598,1.597 z m -41.159,-41.159 6.593,6.593 -3.862,3.863 -6.594,-6.593 3.863,-3.863 z m -13.187,-13.187 6.593,6.593 -3.862,3.863 -6.594,-6.593 3.863,-3.863 z m -13.188,-13.187 6.594,6.594 -3.862,3.863 -6.594,-6.593 3.862,-3.864 z m -13.186,-13.188 6.593,6.594 -3.862,3.863 -6.594,-6.594 3.863,-3.863 z m -13.188,-13.186 6.594,6.594 -3.862,3.863 -6.594,-6.594 3.862,-3.863 z m -13.186,-13.188 6.593,6.594 -3.862,3.863 -6.594,-6.593 3.863,-3.864 z m -13.188,-13.187 6.594,6.594 -3.862,3.862 -6.594,-6.593 3.862,-3.863 z m -13.186,-13.187 6.594,6.594 -3.863,3.863 -6.594,-6.594 3.863,-3.863 z m -23.644,-15.917 -6.594,-6.593 3.863,-3.863 6.593,6.594 -3.862,3.862 z m 10.456,2.73 6.594,6.594 -3.862,3.863 -6.594,-6.594 3.862,-3.863 z m -113.521,358.794 -119.995,-119.995 39.999,-39.999 119.994,119.996 -39.998,39.998 z m 54.543,-54.544 -119.995,-119.995 100.602,-100.601 119.996,119.995 -100.603,100.601 z m 111.511,-111.51 -119.996,-119.995 39.999,-39.999 119.995,119.995 -39.998,39.999 z m 68.881,-63.6 -6.594,-6.593 3.863,-3.863 6.593,6.593 -3.862,3.863 z m 13.188,13.187 -6.594,-6.594 3.862,-3.863 6.595,6.594 -3.863,3.863 z"
       id="path3002" />
  </g>
</svg>
