<?xml version="1.0" encoding="UTF-8" standalone="no"?>
<svg
   xmlns:dc="http://purl.org/dc/elements/1.1/"
   xmlns:cc="http://creativecommons.org/ns#"
   xmlns:rdf="http://www.w3.org/1999/02/22-rdf-syntax-ns#"
   xmlns:svg="http://www.w3.org/2000/svg"
   xmlns="http://www.w3.org/2000/svg"
   xmlns:sodipodi="http://sodipodi.sourceforge.net/DTD/sodipodi-0.dtd"
   xmlns:inkscape="http://www.inkscape.org/namespaces/inkscape"
   version="1.1"
   height="13"
   width="16"
   id="svg2"
   sodipodi:version="0.32"
   inkscape:version="0.91 r13725"
   sodipodi:docname="vehicle2.svg"
   inkscape:output_extension="org.inkscape.output.svg.inkscape">
  <metadata
     id="metadata10">
    <rdf:RDF>
      <cc:Work
         rdf:about="">
        <dc:format>image/svg+xml</dc:format>
        <dc:type
           rdf:resource="http://purl.org/dc/dcmitype/StillImage" />
        <cc:license
           rdf:resource="http://web.resource.org/cc/PublicDomain" />
        <dc:title></dc:title>
      </cc:Work>
      <cc:License
         rdf:about="http://web.resource.org/cc/PublicDomain">
        <cc:permits
           rdf:resource="http://web.resource.org/cc/Reproduction" />
        <cc:permits
           rdf:resource="http://web.resource.org/cc/Distribution" />
        <cc:permits
           rdf:resource="http://web.resource.org/cc/DerivativeWorks" />
      </cc:License>
    </rdf:RDF>
  </metadata>
  <defs
     id="defs8" />
  <sodipodi:namedview
     inkscape:window-height="988"
     inkscape:window-width="1680"
     inkscape:pageshadow="2"
     inkscape:pageopacity="0.0"
     guidetolerance="10.0"
     gridtolerance="10.0"
     objecttolerance="10.0"
     borderopacity="1.0"
     bordercolor="#666666"
     pagecolor="#ffffff"
     id="base"
     inkscape:zoom="60.32"
     inkscape:cx="6.2286371"
     inkscape:cy="8.1428152"
     inkscape:window-x="-8"
     inkscape:window-y="-8"
     inkscape:current-layer="svg2"
     showgrid="true"
     inkscape:window-maximized="1"
     fit-margin-top="0"
     fit-margin-left="0"
     fit-margin-right="0"
     fit-margin-bottom="0">
    <inkscape:grid
       type="xygrid"
       id="grid4136"
       originx="0"
       originy="1.3053417e-005" />
  </sodipodi:namedview>
  <rect
     style="opacity:1;fill:#ffffff;fill-opacity:1;stroke:#ffffff;stroke-width:0.02964734;stroke-linecap:square;stroke-linejoin:miter;stroke-miterlimit:4;stroke-dasharray:none;stroke-dashoffset:0.60000002;stroke-opacity:1"
     id="rect4135"
     width="15.970353"
     height="12.970353"
     x="0.01482367"
     y="0.014824027" />
  <path
     style="fill:#000000;fill-rule:evenodd;stroke:none"
     id="Car"
     d="m 0.80590777,7.4573173 c -0.036385,-2.68144 -0.1818775,-0.37415 1.43425303,-4.34954 1.1692315,-2.70222 -0.01558,-1.9747 6.0332315,-2.07343 5.3836597,0.10912 4.2975727,-0.67036 5.5343587,2.19815 1.548585,3.67399 1.429066,1.75124 1.418673,4.14687 -0.05719,2.6294697 0.914593,1.95392 -7.2336427,2.04226 -8.08588703,-0.10913 -7.12971203,0.57682 -7.18687353,-1.96431 z m 1.63692603,-2.5879 1.106864,-2.55672 c 0.2065205,-0.45415 0.1406285,-0.38711 0.6235895,-0.38974 l 7.7386717,-8.3e-4 c 0.418941,0.002 0.357476,-0.0257 0.530053,0.37415 l 1.100717,2.54196 -11.0998952,0.0312 z m -0.791616,4.84552 2.069974,-0.005 c -0.00665,2.5988697 0.209019,2.4539497 -0.9197995,2.4706897 -1.3441835,-0.005 -1.131697,0.13049 -1.1501745,-2.4660697 z m 10.6599222,0.0185 2.073432,0 c -0.01387,2.6029097 0.175531,2.4250697 -0.997738,2.4319997 -1.213121,-0.0162 -1.058955,0.17553 -1.075694,-2.4319997 z"
     inkscape:connector-curvature="0" />
  <circle
     style="fill:#ffffff;fill-opacity:1;stroke:none"
     r="1.0108"
     cy="6.7822747"
     cx="2.6805849"
     id="LeftLamp" />
  <circle
     style="fill:#ffffff;fill-opacity:1;stroke:none"
     r="1.0108"
     cy="6.7822747"
     cx="13.320568"
     id="RightLamp" />
</svg>
