<?xml version="1.0" encoding="UTF-8" standalone="no"?>
<!-- Uploaded to: SVG Repo, www.svgrepo.com, Generator: SVG Repo Mixer Tools -->

<svg
   height="16"
   width="16"
   version="1.1"
   id="_x32_"
   viewBox="0 0 10.24 10.24"
   xml:space="preserve"
   sodipodi:docname="research_institute.svg"
   inkscape:export-filename="flask-1-svgrepo-com.png"
   inkscape:export-xdpi="1.92"
   inkscape:export-ydpi="1.92"
   inkscape:version="1.2.2 (732a01da63, 2022-12-09)"
   xmlns:inkscape="http://www.inkscape.org/namespaces/inkscape"
   xmlns:sodipodi="http://sodipodi.sourceforge.net/DTD/sodipodi-0.dtd"
   xmlns="http://www.w3.org/2000/svg"
   xmlns:svg="http://www.w3.org/2000/svg"><defs
   id="defs39" /><sodipodi:namedview
   id="namedview37"
   pagecolor="#ffffff"
   bordercolor="#000000"
   borderopacity="0.25"
   inkscape:showpageshadow="2"
   inkscape:pageopacity="0.0"
   inkscape:pagecheckerboard="0"
   inkscape:deskcolor="#d1d1d1"
   showgrid="false"
   inkscape:zoom="46.95189"
   inkscape:cx="11.735417"
   inkscape:cy="7.560931"
   inkscape:window-width="1822"
   inkscape:window-height="1054"
   inkscape:window-x="-9"
   inkscape:window-y="-9"
   inkscape:window-maximized="1"
   inkscape:current-layer="_x32_" />
<style
   type="text/css"
   id="style22">
	.st0{fill:#000000;}
</style>
<g
   id="g34"
   transform="matrix(0.01999931,0,0,0.01999931,1.7772224e-4,1.1635461e-7)"
   style="fill:#0dccf2;fill-opacity:1">
	<path
   class="st0"
   d="M 421.32,436.262 328.058,287.303 C 320.186,274.718 316.01,260.188 316.01,245.346 l 0.13,-111.186 -119.562,-0.121 -0.121,111.098 c -0.018,14.859 -4.227,29.424 -12.134,42.009 l -93.59,148.768 c -5.043,8.02 -7.587,17.177 -7.587,26.334 0,8.21 2.04,16.457 6.145,23.904 8.714,15.778 25.284,25.57 43.294,25.587 L 379.32,512 h 0.017 c 0.668,0 1.007,-0.035 1.016,-0.035 l -0.009,-0.036 c 17.611,-0.346 33.738,-9.981 42.314,-25.413 v -0.018 c 4.14,-7.464 6.196,-15.736 6.196,-23.981 0,-9.122 -2.526,-18.253 -7.534,-26.255 z m -23.913,36.254 c -3.628,6.553 -10.536,10.633 -18.027,10.615 -0.078,0 -0.095,0.018 -0.148,0.018 l -246.621,-0.27 c -7.5,-0.009 -14.426,-4.096 -18.036,-10.667 -1.728,-3.125 -2.57,-6.527 -2.57,-9.964 0,-3.828 1.051,-7.62 3.16,-10.971 l 93.574,-148.759 c 10.815,-17.186 16.543,-37.053 16.578,-57.364 l 0.087,-82.23 61.842,0.069 -0.095,82.248 v 0.035 0.069 c 0,20.258 5.703,40.091 16.448,57.268 l 93.253,148.958 c 2.092,3.333 3.142,7.135 3.15,10.946 -0.007,3.447 -0.858,6.865 -2.595,9.999 z"
   id="path24"
   style="fill:#0dccf2;fill-opacity:1" />
	<path
   class="st0"
   d="M 276.371,46.723 C 289.277,46.74 299.745,36.289 299.762,23.375 299.771,10.476 289.33,0.009 276.432,0 263.517,-0.009 253.05,10.425 253.041,23.34 c -0.018,12.898 10.424,23.365 23.33,23.383 z"
   id="path26"
   style="fill:#0dccf2;fill-opacity:1" />
	<path
   class="st0"
   d="m 250.194,114.024 c 7.595,0.018 13.748,-6.136 13.748,-13.722 0.009,-7.595 -6.127,-13.749 -13.713,-13.758 -7.595,-0.009 -13.758,6.145 -13.766,13.731 -0.001,7.595 6.144,13.749 13.731,13.749 z"
   id="path28"
   style="fill:#0dccf2;fill-opacity:1" />
	<path
   class="st0"
   d="m 279.149,76.962 c -0.009,9.079 7.342,16.422 16.421,16.448 9.062,0 16.431,-7.334 16.439,-16.413 0.009,-9.061 -7.334,-16.422 -16.404,-16.422 -9.078,-0.026 -16.447,7.317 -16.456,16.387 z"
   id="path30"
   style="fill:#0dccf2;fill-opacity:1" />
	<path
   class="st0"
   d="m 305.933,349.075 c -1.058,-1.71 -2.933,-2.743 -4.938,-2.743 l -89.73,-0.095 c -2.014,0 -3.888,1.024 -4.948,2.734 L 141.951,451.26 c -1.129,1.805 -1.198,4.08 -0.165,5.945 1.024,1.866 2.985,3.012 5.112,3.012 l 218.214,0.235 c 2.126,0.008 4.078,-1.138 5.12,-3.003 1.025,-1.866 0.964,-4.132 -0.173,-5.928 z m -71.007,53.198 c -8.54,0 -15.458,-6.926 -15.458,-15.45 0,-8.558 6.918,-15.468 15.458,-15.468 8.54,0 15.458,6.909 15.458,15.468 0,8.523 -6.917,15.45 -15.458,15.45 z m 49.474,34.006 c -5.694,0 -10.303,-4.608 -10.303,-10.294 0,-5.694 4.609,-10.311 10.303,-10.311 5.694,0 10.303,4.617 10.303,10.311 0,5.685 -4.61,10.294 -10.303,10.294 z"
   id="path32"
   style="fill:#0dccf2;fill-opacity:1" />
</g>
</svg>
