<?xml version="1.0" encoding="UTF-8" standalone="no"?>
<svg
   xmlns:dc="http://purl.org/dc/elements/1.1/"
   xmlns:cc="http://creativecommons.org/ns#"
   xmlns:rdf="http://www.w3.org/1999/02/22-rdf-syntax-ns#"
   xmlns:svg="http://www.w3.org/2000/svg"
   xmlns="http://www.w3.org/2000/svg"
   xmlns:sodipodi="http://sodipodi.sourceforge.net/DTD/sodipodi-0.dtd"
   xmlns:inkscape="http://www.inkscape.org/namespaces/inkscape"
   viewBox="0 0 13 13"
   height="13"
   width="13"
   xml:space="preserve"
   version="1.1"
   id="svg3381"
   sodipodi:docname="right.svg"
   inkscape:version="0.92.3 (2405546, 2018-03-11)"><sodipodi:namedview
     pagecolor="#ffffff"
     bordercolor="#666666"
     borderopacity="1"
     objecttolerance="10"
     gridtolerance="10"
     guidetolerance="10"
     inkscape:pageopacity="0"
     inkscape:pageshadow="2"
     inkscape:window-width="1680"
     inkscape:window-height="987"
     id="namedview13"
     showgrid="true"
     inkscape:zoom="25.067198"
     inkscape:cx="9.0662464"
     inkscape:cy="-0.11734079"
     inkscape:window-x="-8"
     inkscape:window-y="-8"
     inkscape:window-maximized="1"
     inkscape:current-layer="svg3381"><inkscape:grid
       type="xygrid"
       id="grid820" /></sodipodi:namedview><metadata
     id="metadata3387"><rdf:RDF><cc:Work
         rdf:about=""><dc:format>image/svg+xml</dc:format><dc:type
           rdf:resource="http://purl.org/dc/dcmitype/StillImage" /><dc:title></dc:title></cc:Work></rdf:RDF></metadata><defs
     id="defs3385" /><g
     transform="matrix(-0.02703821,0,0,-0.02703821,12.999998,12.999989)"
     id="g3389"><g
       id="g3391"><path
         id="path3393"
         style="fill:#000000;fill-opacity:1;fill-rule:evenodd;stroke:none"
         d="m 240.375,480.801 c -44.234,0 -81.848,-10.074 -120.16,-32.191 C 81.875,426.465 54.336,398.926 32.191,360.586 10.074,322.274 0,284.637 0,240.375 0,196.141 10.074,158.524 32.191,120.188 54.336,81.875 81.875,54.309 120.215,32.192 158.527,10.074 196.141,0 240.375,0 c 44.262,0 81.898,10.074 120.238,32.192 38.313,22.117 65.879,49.683 87.996,87.996 22.118,38.336 32.192,75.953 32.192,120.187 0,44.258 -10.074,81.899 -32.192,120.211 -22.117,38.34 -49.683,65.883 -87.996,88.024 -38.34,22.117 -75.976,32.191 -120.238,32.191 z m 0,-0.398 c 44.199,0 81.754,-10.051 120.039,-32.141 38.262,-22.113 65.766,-49.59 87.852,-87.875 22.086,-38.262 32.132,-75.813 32.132,-120.012 0,-44.176 -10.046,-81.703 -32.132,-119.988 C 426.18,82.129 398.676,54.625 360.414,32.539 322.129,10.453 284.574,0.403 240.375,0.403 c -44.172,0 -81.703,10.05 -119.961,32.136 -38.285,22.086 -65.762,49.59 -87.875,87.848 -22.09,38.285 -32.141,75.812 -32.141,119.988 0,44.199 10.051,81.75 32.141,120.012 22.113,38.285 49.59,65.762 87.875,87.875 38.258,22.09 75.789,32.141 119.961,32.141 z"
         inkscape:connector-curvature="0" /><path
         id="path3395"
         style="fill:#ffffff;fill-opacity:1;fill-rule:evenodd;stroke:none"
         d="m 480.398,240.375 c 0,44.199 -10.046,81.75 -32.132,120.012 -22.086,38.285 -49.59,65.762 -87.852,87.875 -38.289,22.09 -75.84,32.141 -120.039,32.141 -44.176,0 -81.703,-10.051 -119.961,-32.141 C 82.129,426.149 54.648,398.672 32.535,360.387 10.449,322.125 0.398,284.574 0.398,240.375 0.398,196.199 10.449,158.672 32.535,120.391 54.648,82.129 82.129,54.625 120.414,32.539 158.672,10.453 196.199,0.403 240.375,0.403 c 44.199,0 81.75,10.05 120.039,32.136 38.262,22.086 65.766,49.59 87.852,87.852 22.086,38.281 32.132,75.808 32.132,119.984 z"
         inkscape:connector-curvature="0" /><path
         id="path3397"
         style="fill:#154889;fill-opacity:1;fill-rule:evenodd;stroke:none"
         d="m 469.199,240.403 c 0,42.101 -9.582,77.914 -30.66,114.375 -21.051,36.484 -47.281,62.714 -83.742,83.765 -36.457,21.078 -72.293,30.66 -114.422,30.66 -42.105,0 -77.891,-9.609 -114.348,-30.66 C 89.539,417.465 63.336,391.262 42.258,354.778 21.207,318.317 11.598,282.504 11.598,240.403 c 0,-42.129 9.582,-77.942 30.66,-114.399 21.051,-36.461 47.281,-62.691 83.769,-83.742 36.457,-21.078 72.243,-30.66 114.348,-30.66 42.129,0 77.965,9.582 114.422,30.66 36.461,21.051 62.691,47.281 83.742,83.742 21.078,36.457 30.66,72.27 30.66,114.399 z"
         inkscape:connector-curvature="0" /><path
         id="path3399"
         style="fill:#ffffff;fill-opacity:1;fill-rule:evenodd;stroke:none"
         d="m 96.184,191.313 56.464,57.425 -0.261,33.52 -41.559,-40.641 c -1.379,65.008 54.594,119.606 107.168,126.629 l -4.656,28.129 C 121.027,378.102 83.855,305.938 82.078,241.856 l -41.957,40.793 -0.191,-34.86 z"
         inkscape:connector-curvature="0" /><path
         id="path3401"
         style="fill:#ffffff;fill-opacity:1;fill-rule:evenodd;stroke:none"
         d="m 355.18,139.988 -78.043,19.872 -28.832,-17.102 56.039,-15.445 C 248.875,93.391 173.516,114.262 140.977,156.149 L 119.02,137.961 c 62.265,-70.555 143.335,-66.34 199.593,-35.605 l -14.117,-56.789 30.211,17.382 z"
         inkscape:connector-curvature="0" /><path
         id="path3403"
         style="fill:#ffffff;fill-opacity:1;fill-rule:evenodd;stroke:none"
         d="m 269.871,389.215 22.004,-77.473 29.262,-16.343 -14.778,56.218 c 57.188,-30.941 76.973,-106.589 57.086,-155.761 L 390.199,186 c 29.754,89.274 -14.597,157.262 -69.422,190.488 l 56.203,16.305 -30.207,17.399 z"
         inkscape:connector-curvature="0" /></g></g></svg>