<?xml version="1.0" encoding="UTF-8" standalone="no"?>
<!-- Created with Inkscape (http://www.inkscape.org/) -->

<svg
   xmlns:dc="http://purl.org/dc/elements/1.1/"
   xmlns:cc="http://creativecommons.org/ns#"
   xmlns:rdf="http://www.w3.org/1999/02/22-rdf-syntax-ns#"
   xmlns:svg="http://www.w3.org/2000/svg"
   xmlns="http://www.w3.org/2000/svg"
   xmlns:xlink="http://www.w3.org/1999/xlink"
   xmlns:sodipodi="http://sodipodi.sourceforge.net/DTD/sodipodi-0.dtd"
   xmlns:inkscape="http://www.inkscape.org/namespaces/inkscape"
   width="24"
   height="24"
   id="svg2"
   sodipodi:version="0.32"
   inkscape:version="0.92.3 (2405546, 2018-03-11)"
   version="1.0"
   sodipodi:docname="closechangeset5.svg"
   inkscape:output_extension="org.inkscape.output.svg.inkscape"
   inkscape:export-filename="C:\data\projekte\eclipse-3.5-ws\JOSM\images\dialogs\changesetdialog.png"
   inkscape:export-xdpi="90"
   inkscape:export-ydpi="90">
  <defs
     id="defs4">
    <linearGradient
       id="linearGradient1400">
      <stop
         id="stop1401"
         offset="0.0000000"
         style="stop-color:#000000;stop-opacity:0.67843139;" />
      <stop
         id="stop1403"
         offset="0.56999999"
         style="stop-color:#000000;stop-opacity:0.32941177;" />
      <stop
         id="stop1402"
         offset="1.0000000"
         style="stop-color:#000000;stop-opacity:0.00000000;" />
    </linearGradient>
    <linearGradient
       inkscape:collect="always"
       xlink:href="#linearGradient1400"
       id="linearGradient17450"
       gradientUnits="userSpaceOnUse"
       gradientTransform="matrix(0.1148815,0,0,0.111489,-49.944348,-46.709945)"
       x1="537.42401"
       y1="580.16663"
       x2="539.39642"
       y2="510.39194" />
    <inkscape:perspective
       sodipodi:type="inkscape:persp3d"
       inkscape:vp_x="0 : 526.18109 : 1"
       inkscape:vp_y="6.1230318e-14 : 1000 : 0"
       inkscape:vp_z="744.09448 : 526.18109 : 1"
       inkscape:persp3d-origin="372.04724 : 350.78739 : 1"
       id="perspective10" />
    <inkscape:perspective
       id="perspective3269"
       inkscape:persp3d-origin="372.04724 : 350.78739 : 1"
       inkscape:vp_z="744.09448 : 526.18109 : 1"
       inkscape:vp_y="0 : 1000 : 0"
       inkscape:vp_x="0 : 526.18109 : 1"
       sodipodi:type="inkscape:persp3d" />
    <inkscape:perspective
       id="perspective4004"
       inkscape:persp3d-origin="372.04724 : 350.78739 : 1"
       inkscape:vp_z="744.09448 : 526.18109 : 1"
       inkscape:vp_y="0 : 1000 : 0"
       inkscape:vp_x="0 : 526.18109 : 1"
       sodipodi:type="inkscape:persp3d" />
    <inkscape:perspective
       id="perspective4054"
       inkscape:persp3d-origin="372.04724 : 350.78739 : 1"
       inkscape:vp_z="744.09448 : 526.18109 : 1"
       inkscape:vp_y="0 : 1000 : 0"
       inkscape:vp_x="0 : 526.18109 : 1"
       sodipodi:type="inkscape:persp3d" />
    <inkscape:perspective
       id="perspective4104"
       inkscape:persp3d-origin="372.04724 : 350.78739 : 1"
       inkscape:vp_z="744.09448 : 526.18109 : 1"
       inkscape:vp_y="0 : 1000 : 0"
       inkscape:vp_x="0 : 526.18109 : 1"
       sodipodi:type="inkscape:persp3d" />
    <inkscape:perspective
       id="perspective5972"
       inkscape:persp3d-origin="0.5 : 0.33333333 : 1"
       inkscape:vp_z="1 : 0.5 : 1"
       inkscape:vp_y="0 : 1000 : 0"
       inkscape:vp_x="0 : 0.5 : 1"
       sodipodi:type="inkscape:persp3d" />
  </defs>
  <sodipodi:namedview
     id="base"
     pagecolor="#ffffff"
     bordercolor="#666666"
     borderopacity="1.0"
     inkscape:pageopacity="0.0"
     inkscape:pageshadow="2"
     inkscape:zoom="17.929133"
     inkscape:cx="16.329694"
     inkscape:cy="7.4817883"
     inkscape:document-units="px"
     inkscape:current-layer="layer1"
     showgrid="true"
     inkscape:window-width="1680"
     inkscape:window-height="987"
     inkscape:window-x="-8"
     inkscape:window-y="-8"
     inkscape:window-maximized="1">
    <inkscape:grid
       type="xygrid"
       id="grid850" />
  </sodipodi:namedview>
  <metadata
     id="metadata7">
    <rdf:RDF>
      <cc:Work
         rdf:about="">
        <dc:format>image/svg+xml</dc:format>
        <dc:type
           rdf:resource="http://purl.org/dc/dcmitype/StillImage" />
        <dc:title></dc:title>
      </cc:Work>
    </rdf:RDF>
  </metadata>
  <g
     inkscape:label="Ebene 1"
     inkscape:groupmode="layer"
     id="layer1">
    <path
       sodipodi:type="inkscape:offset"
       inkscape:radius="4.5834389"
       inkscape:original="M 547.25 494.90625 C 547.15581 494.91224 547.06196 494.92267 546.96875 494.9375 C 546.73282 494.97719 546.68628 494.99521 546.84375 494.96875 C 524.84282 498.66333 486.64226 504.70723 464.125 512.78125 C 463.15567 513.13537 462.43455 513.95957 462.21875 514.96875 C 462.15787 515.25343 462.16594 515.52974 462.1875 515.8125 C 462.05699 516.6851 462.30033 517.57519 462.90625 518.25 C 470.3466 526.58465 475.04831 536.96666 477.65625 546.5625 C 480.26419 556.15834 480.71815 565.04611 480 569.8125 C 479.30782 574.40653 476.22839 582.0513 474.59375 588.9375 C 473.77643 592.3806 473.25435 595.69511 473.90625 598.84375 C 474.55815 601.99239 477.07104 604.95638 480.71875 605.78125 C 480.7809 605.79364 480.84344 605.80407 480.90625 605.8125 C 502.83748 609.49724 508.3071 611.152 530.28125 619.03125 C 531.00412 619.2851 531.77801 619.24067 532.46875 618.9375 C 532.87181 618.81636 533.26667 618.66906 533.71875 618.53125 C 555.08828 610.94998 576.58139 605.04634 597.875 601.46875 C 597.95919 601.45151 598.0426 601.43065 598.125 601.40625 C 601.50992 600.51027 603.68441 597.45149 604.21875 594.40625 C 604.75309 591.36101 604.30268 588.11024 603.59375 584.6875 C 602.17588 577.84201 599.46382 570.20636 598.75 565.46875 C 598.03185 560.70236 598.51706 551.81459 601.125 542.21875 C 603.73294 532.62291 608.43467 522.24088 615.875 513.90625 C 616.46759 513.24343 616.73797 512.38142 616.625 511.53125 C 616.62371 511.52157 616.62638 511.50967 616.625 511.5 C 616.65564 511.14932 616.62753 510.78679 616.53125 510.4375 C 616.25916 509.45037 615.50959 508.67713 614.53125 508.375 C 592.67011 501.65325 570.38545 497.83074 547.875 494.9375 C 547.66833 494.90533 547.45885 494.89485 547.25 494.90625 z "
       style="fill:#000000;fill-opacity:1;stroke:none;display:inline"
       id="path2509"
       d="m 546.96875,490.34375 c -0.23806,0.0151 -0.48339,0.0251 -0.71875,0.0625 a 4.5838972,4.5838972 0 0 0 -0.0312,0 c -0.0317,0.005 -0.11088,0.0312 -0.125,0.0312 -0.0108,3e-5 -0.0855,0.0319 -0.0937,0.0312 -21.96366,3.68725 -60.08126,9.62515 -83.4375,18 -2.43418,0.88927 -4.2668,2.9793 -4.8125,5.53125 -0.10696,0.50016 -0.0565,0.7502 -0.0625,1.125 l -0.0312,0 c -0.0108,0.072 0.009,0.14644 0,0.21875 0.003,0.24894 -0.0434,0.65366 -0.0312,0.8125 l 0.0937,0 c -0.0183,1.83625 0.48802,3.71599 1.78125,5.15625 6.81992,7.63965 11.25702,17.37965 13.71875,26.4375 2.45539,9.03454 2.80069,17.72005 2.25,21.375 -0.5054,3.35438 -3.58641,11.3469 -5.34375,18.75 -0.86868,3.65948 -1.59862,7.65653 -0.71875,11.90625 1.01022,4.87929 4.80257,9.22277 10.3125,10.46875 a 4.5838972,4.5838972 0 0 0 0.0937,0.0312 c 0.11424,0.0228 0.22811,0.0137 0.34375,0.0312 l 0,0.0312 c 21.83291,3.66822 26.6239,5.1335 48.5625,13 a 4.5838972,4.5838972 0 0 0 0.0312,0 c 1.65543,0.58134 3.42716,0.45744 5,-0.0937 l 0.0312,0.0625 c 0.2487,-0.0747 0.34809,-0.12637 0.53125,-0.1875 0.25406,-0.0848 0.57988,-0.16689 0.75,-0.21875 a 4.5838972,4.5838972 0 0 0 0.1875,-0.0625 C 556.41348,615.33558 577.64691,609.52458 598.625,606 a 4.5838972,4.5838972 0 0 0 0.15625,-0.0312 c 0.17246,-0.0353 0.36217,-0.0779 0.53125,-0.125 0.0399,-0.0111 0.0853,-0.0195 0.125,-0.0312 l 0,-0.0312 c 5.32424,-1.47423 8.47849,-6.01878 9.28125,-10.59375 0.70608,-4.02399 0.12263,-7.82792 -0.625,-11.4375 -1.51601,-7.31931 -4.24541,-15.20497 -4.8125,-18.96875 -0.54777,-3.63558 -0.17657,-12.33151 2.28125,-21.375 2.46172,-9.05784 6.89885,-18.79788 13.71875,-26.4375 1.22901,-1.37466 1.77551,-3.20261 1.78125,-5.0625 l 0.125,0 c 0.0185,-0.21144 -0.0635,-0.44091 -0.0625,-0.65625 -0.009,-0.10683 0.0454,-0.20569 0.0312,-0.3125 0.17307,1.29873 0.1925,1.25512 0,-0.0937 l -0.0625,0 c -0.0259,-0.53834 -0.004,-1.07327 -0.15625,-1.625 -0.68218,-2.47491 -2.6082,-4.46081 -5.0625,-5.21875 -22.18929,-6.82265 -44.6866,-10.65484 -67.28125,-13.5625 -0.001,-1.8e-4 0.001,-0.0311 0,-0.0312 -0.0409,-0.006 -0.084,0.006 -0.125,0 -0.48237,-0.067 -0.98206,-0.0891 -1.46875,-0.0625 a 4.5838972,4.5838972 0 0 0 -0.0312,0 z"
       transform="matrix(0.13029953,0,0,0.13105457,-58.548126,-58.336584)" />
    <path
       style="fill:#a55959;fill-opacity:1;stroke:none;display:inline"
       d="m 12.894304,6.3883119 c -0.01249,7.847e-4 -0.02479,0.00211 -0.03709,0.00407 -0.03109,0.00512 -0.03725,0.00753 -0.01652,0.00407 -0.104921,0.017893 -0.198145,0.077084 -0.258618,0.1641728 -0.06046,0.0871 -0.08307,0.1947413 -0.06271,0.2986131 0.534472,2.7164778 -0.05564,5.3560911 -0.214215,6.8476011 -0.04856,0.456619 -0.197022,1.059336 -0.325435,1.675041 -0.12842,0.615708 -0.239388,1.243489 -0.17714,1.814289 0.01601,0.135868 0.101714,0.253745 0.226569,0.311254 l 0,0.04914 c 0.04365,-0.0014 0.09804,-0.0024 0.164784,-0.0083 l 0,-0.0042 c 0.01376,7.14e-4 0.02747,7.14e-4 0.04119,0 1.214317,-0.123774 2.367608,-0.940817 3.851726,-2.383552 1.484109,-1.442738 3.315507,-3.543302 5.853802,-6.3684364 0.09035,-0.099691 0.123311,-0.2383136 0.08745,-0.3676767 C 21.992235,8.2950333 21.892479,8.1927745 21.763519,8.1531843 18.881699,7.2722678 15.944052,6.771309 12.976635,6.3921375 c -0.02725,-0.00422 -0.05486,-0.00557 -0.08239,-0.00407 z"
       id="path2444" />
    <path
       style="fill:#aa6262;fill-opacity:1;stroke:none;display:inline"
       d="m 12.861345,6.3924071 c -0.0068,0.00119 -0.01376,0.00256 -0.0206,0.00407 C 9.9405042,6.8806722 4.9047593,7.6727526 1.9364485,8.7308896 1.808667,8.7772935 1.7138448,8.8857379 1.6853966,9.0179943 1.6569598,9.1502477 1.6988772,9.287762 1.7963912,9.3820654 4.5989466,12.096987 6.5375832,14.165317 8.099217,15.54982 c 1.5616353,1.384505 2.796871,2.130977 4.135972,1.994487 0.105106,-0.01024 0.201709,-0.06202 0.26826,-0.14355 0.06654,-0.08154 0.09751,-0.186166 0.08602,-0.290553 -0.04315,-0.39564 0.04067,-0.973503 0.164767,-1.568558 0.12412,-0.595049 0.279705,-1.20639 0.337802,-1.752852 0.146391,-1.376798 0.779778,-4.1646798 0.205979,-7.0810407 C 13.258427,6.504894 13.067641,6.3671191 12.861349,6.3924026 z"
       id="path2453" />
    <rect
       style="fill:#ffffff;fill-opacity:1;stroke:#df421e;stroke-width:1.5;stroke-miterlimit:4;stroke-opacity:1;stroke-dasharray:none"
       id="rect3807-82"
       width="5.1445017"
       height="5.0294647"
       x="4.5450468"
       y="5.0911288" />
    <path
       style="fill:#c08a8a;fill-opacity:1;stroke:none;display:inline"
       d="M 2.0476729,8.7923412 C 1.8958621,8.8009262 1.7624302,8.895225 1.7044468,9.0349759 1.6464662,9.1747148 1.6741936,9.3351388 1.7757944,9.4476137 2.756608,10.53991 3.3764026,11.900518 3.7201949,13.158099 c 0.3437853,1.257579 0.403629,2.422363 0.3089572,3.047021 -0.091242,0.602068 -0.4971825,1.603947 -0.7126713,2.506417 -0.1077309,0.451234 -0.1765682,0.885615 -0.090632,1.298255 0.085935,0.412647 0.4171932,0.801092 0.8980515,0.909194 0.00823,0.0017 0.016432,0.0029 0.024719,0.0042 2.8910616,0.482901 3.6120838,0.699763 6.5088014,1.732377 0.115493,0.04032 0.243286,0.0252 0.346039,-0.04095 1.867459,-1.200803 3.109542,-1.915459 3.946472,-2.551469 0.836935,-0.636008 1.293815,-1.267731 1.384154,-2.117348 0.05629,-0.529568 -0.185784,-1.053729 -0.535538,-1.638287 C 15.448796,15.722965 14.963523,15.084414 14.418519,14.427712 13.328501,13.114311 11.99954,11.729767 11.089969,10.680368 11.024042,10.603947 10.931164,10.55557 10.83044,10.545223 7.7227506,10.244419 5.0625669,9.8358793 2.2042233,8.8169409 2.1542459,8.7983401 2.1009907,8.7899811 2.0476772,8.7923759 z"
       id="path2442" />
    <path
       style="fill:#c08a8a;fill-opacity:1;stroke:none;display:inline"
       d="m 21.644105,8.2230734 c -0.05386,2.078e-4 -0.107149,0.011446 -0.15654,0.032758 -2.701575,1.1727791 -7.70298,2.1051133 -10.731283,2.2852633 -0.179967,0.0119 -0.329082,0.143248 -0.362515,0.319444 -0.576099,2.91892 0.05538,5.707525 0.201856,7.085143 0.08656,0.814103 0.330842,1.803241 0.48198,2.596516 0.10082,0.529206 0.310189,2.121858 -0.42019,2.113257 0.177706,0.04689 0.294223,-0.01735 0.453146,-0.06553 2.817012,-0.993562 5.650313,-1.76726 8.45732,-2.236123 0.01107,-0.0021 0.02209,-0.0048 0.03295,-0.0083 0.446211,-0.117418 0.73286,-0.518291 0.803299,-0.917383 0.07044,-0.399093 0.01107,-0.82512 -0.08239,-1.273685 -0.186909,-0.897134 -0.544423,-1.897819 -0.638523,-2.518706 -0.09468,-0.62466 -0.03071,-1.789442 0.313084,-3.047023 0.343788,-1.257575 0.963588,-2.6181871 1.9444,-3.7104786 0.104155,-0.1158215 0.130038,-0.2801555 0.06591,-0.4218357 C 21.942489,8.314738 21.800373,8.2222796 21.644097,8.2229664 z"
       id="path2440"
       sodipodi:nodetypes="csccsscccsssssssc" />
    <path
       style="fill:#000000;fill-opacity:1;stroke:none;display:inline"
       d="m 10.179702,10.820213 c -0.103304,2.626417 0.142422,4.907255 0.193609,6.23519 0.04328,1.122294 0.237098,2.486802 0.346037,3.580383 0.05313,0.53342 0.132492,1.851703 -0.114017,2.517291 l 0.530081,-0.05648 c -0.158925,0.06517 -0.275438,0.152122 -0.453146,0.08868 0.73038,0.0116 0.521015,-2.1437 0.420191,-2.859874 -0.151143,-1.07354 -0.395418,-2.412144 -0.481978,-3.513872 -0.100693,-1.281729 -0.431612,-3.467713 -0.440786,-5.991323 z"
       id="path2495"
       sodipodi:nodetypes="csssccssc" />
    <path
       style="fill:none;stroke:#ffffff;stroke-width:0.49999997;stroke-linecap:round;stroke-linejoin:miter;stroke-miterlimit:4;stroke-opacity:1;stroke-dasharray:none"
       d="m 1.915572,9.1197 2.6381692,0.6559668 2.3308099,0.4722972 3.2272749,0.419819 1.511181,-0.05247 2.817466,-0.39358 3.867607,-0.8658767 1.459958,-0.3935806 0.947692,-0.2623862 1.075758,-0.2623876"
       id="path3664"
       sodipodi:nodetypes="cccccccccc" />
    <rect
       style="fill:#ffffff;fill-opacity:1;stroke:#df421e;stroke-width:1.5;stroke-miterlimit:4;stroke-opacity:1;stroke-dasharray:none"
       id="rect3807-82-2"
       width="5.1445017"
       height="5.0294647"
       x="13.676021"
       y="2.111794" />
    <rect
       style="opacity:1;fill:#000000;fill-opacity:1;fill-rule:evenodd;stroke:#000000;stroke-width:0.87631428;stroke-linecap:round;stroke-linejoin:miter;stroke-miterlimit:4;stroke-dasharray:none;stroke-dashoffset:0;stroke-opacity:1"
       id="rect3338"
       width="9.1236858"
       height="6.6698389"
       x="8.1314697"
       y="15.640004" />
    <path
       style="fill:none;fill-rule:evenodd;stroke:#141414;stroke-width:0.87631428;stroke-linecap:round;stroke-linejoin:miter;stroke-miterlimit:4;stroke-dasharray:none;stroke-opacity:1"
       d="m 8.999263,13.824484 c 0.3618865,-6.1199011 7.499406,-5.4218751 7.196256,0.05615"
       id="path3259"
       sodipodi:nodetypes="cc"
       inkscape:connector-curvature="0" />
    <rect
       style="opacity:1;fill:#f7f678;fill-opacity:1;fill-rule:evenodd;stroke:#ef9614;stroke-width:1;stroke-linecap:round;stroke-linejoin:miter;stroke-miterlimit:4;stroke-dasharray:none;stroke-dashoffset:0;stroke-opacity:1"
       id="rect2562"
       width="9"
       height="7"
       x="7.5"
       y="14.5" />
    <path
       style="fill:none;fill-rule:evenodd;stroke:#ef9614;stroke-width:1;stroke-linecap:butt;stroke-linejoin:miter;stroke-miterlimit:4;stroke-dasharray:none;stroke-opacity:1"
       d="m 9,17.5 h 6 v 0"
       id="path3334"
       inkscape:connector-curvature="0" />
    <path
       style="fill:none;fill-rule:evenodd;stroke:#ef9614;stroke-width:1;stroke-linecap:butt;stroke-linejoin:miter;stroke-miterlimit:4;stroke-dasharray:none;stroke-opacity:1"
       d="M 8.9999996,19.5 H 15 v 0"
       id="path3336"
       inkscape:connector-curvature="0" />
    <path
       style="fill:none;fill-rule:evenodd;stroke:#555555;stroke-width:0.87631428;stroke-linecap:round;stroke-linejoin:miter;stroke-miterlimit:4;stroke-dasharray:none;stroke-opacity:1"
       d="m 8.305253,13.685944 c 0.3618865,-6.1199011 7.499406,-5.4218751 7.196256,0.05615"
       id="path3348"
       sodipodi:nodetypes="cc"
       inkscape:connector-curvature="0" />
  </g>
</svg>
