<?xml version="1.0" encoding="UTF-8" standalone="no"?>
<svg
   xmlns:dc="http://purl.org/dc/elements/1.1/"
   xmlns:cc="http://creativecommons.org/ns#"
   xmlns:rdf="http://www.w3.org/1999/02/22-rdf-syntax-ns#"
   xmlns:svg="http://www.w3.org/2000/svg"
   xmlns="http://www.w3.org/2000/svg"
   xmlns:sodipodi="http://sodipodi.sourceforge.net/DTD/sodipodi-0.dtd"
   xmlns:inkscape="http://www.inkscape.org/namespaces/inkscape"
   viewBox="0 0 24 24"
   version="1.1"
   id="svg24"
   sodipodi:docname="overpass-api-small (1)b.svg"
   width="24"
   height="24"
   inkscape:version="0.92.3 (2405546, 2018-03-11)">
  <metadata
     id="metadata28">
    <rdf:RDF>
      <cc:Work
         rdf:about="">
        <dc:format>image/svg+xml</dc:format>
        <dc:type
           rdf:resource="http://purl.org/dc/dcmitype/StillImage" />
        <dc:title></dc:title>
      </cc:Work>
    </rdf:RDF>
  </metadata>
  <sodipodi:namedview
     pagecolor="#ffffff"
     bordercolor="#666666"
     borderopacity="1"
     objecttolerance="10"
     gridtolerance="10"
     guidetolerance="10"
     inkscape:pageopacity="0"
     inkscape:pageshadow="2"
     inkscape:window-width="1680"
     inkscape:window-height="987"
     id="namedview26"
     showgrid="true"
     inkscape:zoom="28.077686"
     inkscape:cx="13.893231"
     inkscape:cy="12.945975"
     inkscape:window-x="-8"
     inkscape:window-y="-8"
     inkscape:window-maximized="1"
     inkscape:current-layer="svg24">
    <inkscape:grid
       type="xygrid"
       id="grid835" />
  </sodipodi:namedview>
  <defs
     id="defs2" />
  <circle
     cx="9.9000006"
     cy="12.15"
     r="0.34999999"
     id="circle4"
     style="stroke-width:0.5" />
  <path
     d="m 15.1,11.65 h 7.1 V 12.7 H 15.1 Z M 3.35,1.8 4.25,1.3 8.6,8.85 7.7,9.35 Z m 0,20.7 L 7.7,15 8.6,15.5 4.25,23.1 Z M 14.95,9.85 h 7.25 v 1.05 h -7.25 z m 0,3.55 h 7.25 v 1.05 H 14.95 Z M 2.75,2.15 1.8,2.65 l 4.5,7.8 -0.3,0.7 -0.1,1 0.15,1.1 0.25,0.6 -4.5,7.8 0.95,0.5 4.7,-8.2 -0.4,-1.05 -0.1,-0.75 0.1,-0.75 0.4,-1.05 z"
     id="path6"
     inkscape:connector-curvature="0"
     style="stroke-width:0.5" />
  <path
     d="M 5.7,0.3 4.95,1 6.2,2.35 7.25,2.6 l 0.8,0.25 0.8,0.35 0.8,0.4 0.7,0.45 0.7,0.55 0.65,0.55 0.55,0.65 0.55,0.7 0.45,0.7 0.4,0.8 0.3,0.8 0.3,0.8 0.15,0.85 0.15,0.85 v 0.85 l -0.05,0.9 -0.1,0.85 -0.2,0.85 -0.25,0.8 -0.3,0.8 -0.4,0.75 -0.5,0.75 -0.5,0.7 -0.6,0.6 -0.65,0.6 -0.65,0.5 -0.75,0.5 -0.75,0.4 -0.8,0.3 -0.85,0.25 -1,0.25 -1.25,1.35 0.75,0.7 1.05,-1.1 0.75,-0.2 0.9,-0.25 0.85,-0.4 0.85,-0.4 0.8,-0.55 0.8,-0.55 0.7,-0.65 0.65,-0.7 0.55,-0.75 0.55,-0.8 0.4,-0.85 0.4,-0.9 0.3,-0.9 0.2,-0.95 0.1,-0.95 0.05,-0.95 -0.05,-0.95 -0.1,-0.95 -0.2,-0.9 -0.3,-0.9 L 14.6,7.55 14.15,6.7 13.65,5.9 13.05,5.15 12.4,4.45 11.7,3.8 10.95,3.2 10.15,2.7 9.3,2.25 8.45,1.9 7.5,1.6 6.75,1.4 Z"
     id="path8"
     inkscape:connector-curvature="0"
     style="stroke-width:0.5" />
  <path
     d="m 6.1,2.95 3.5,6.15 1.1,0.15 0.7,0.3 0.6,0.45 0.7,0.85 0.05,0.55 0.05,0.7 -0.05,0.7 -0.1,0.5 L 12,14.15 11.4,14.6 10.7,15 9.6,15.15 6.1,21.3 7.8,20.75 8.5,20.45 9.2,20.1 9.9,19.65 10.55,19.15 11.15,18.6 11.7,18 12.2,17.35 12.65,16.7 13,16 l 0.3,-0.75 0.25,-0.75 0.2,-0.8 0.1,-0.8 0.05,-0.8 -0.05,-0.8 -0.1,-0.8 L 13.6,9.7 13.35,8.95 13,8.3 12.65,7.6 12.2,6.9 11.7,6.25 11.15,5.65 10.55,5.1 9.9,4.6 9.25,4.15 8.55,3.8 7.35,3.35 Z m 4.15,5.2 -1.85,-3.25 0.35,0.2 0.6,0.4 0.55,0.45 0.5,0.5 0.5,0.55 0.45,0.55 0.4,0.6 0.35,0.65 -0.2,-0.15 -1,-0.4 z m 0,8 0.8,-0.1 1.05,-0.5 -0.05,0.05 -0.35,0.65 -0.4,0.6 -0.45,0.55 -0.5,0.5 -0.55,0.5 -0.55,0.45 -0.6,0.4 -0.3,0.15 z"
     id="path10"
     inkscape:connector-curvature="0"
     style="stroke-width:0.5" />
  <path
     d="m 11.3,12.6 h 0.75 v -0.7 l -0.1,-0.2 H 11.4 l -0.1,0.2 m 0.65,-0.4 0.6,-0.35 -0.35,-0.65 -0.15,-0.1 -0.45,0.25 v 0.2 m -0.6,0.3 0.35,-0.6 -0.6,-0.35 h -0.2 l -0.25,0.45 0.1,0.15 M 10.35,10.05 V 9.35 H 9.65 L 9.5,9.45 v 0.5 l 0.15,0.1 M 9.6,10.7 9.25,10.1 8.65,10.45 8.55,10.6 8.8,11.1 9,11.05 M 8.3,10.7 7.7,10.35 7.35,10.95 v 0.2 L 7.8,11.45 7.95,11.3 M 8.5,11.7 H 7.8 v 0.7 l 0.1,0.2 H 8.45 L 8.5,12.4 m -0.6,0.4 -0.6,0.35 0.35,0.65 0.15,0.1 0.45,-0.3 v -0.15 m 0.6,-0.3 -0.35,0.6 0.6,0.35 H 9.3 L 9.55,13.65 9.45,13.5 m 0.05,0.75 v 0.7 h 0.7 l 0.15,-0.1 v -0.5 l -0.15,-0.1 m 0.05,-0.65 0.35,0.6 0.6,-0.35 0.1,-0.2 -0.25,-0.45 -0.2,0.05 m 0.65,0.35 0.65,0.35 0.35,-0.65 v -0.15 l -0.45,-0.3 -0.15,0.1 m 4.5,-1.5 v -0.7 h -0.7 l -0.15,0.1 v 0.5 l 0.15,0.1 m 1.95,0.15 v -0.7 h -0.7 l -0.2,0.1 v 0.55 l 0.2,0.05 m 1.9,0 v -0.7 h -0.7 L 18,11 v 0.55 l 0.15,0.05 m -9.8,4.3 0.6,0.35 0.35,-0.6 0.05,-0.2 L 8.9,15.2 8.7,15.3 M 7.6,16.85 8.2,17.2 8.55,16.6 V 16.4 L 8.1,16.15 7.95,16.25 m -0.65,1.85 0.6,0.35 0.35,-0.6 v -0.2 L 7.8,17.4 7.65,17.5 m -1.15,1.6 0.65,0.35 0.35,-0.6 v -0.2 L 7.05,18.35 6.85,18.5 M 5.9,20.15 6.5,20.5 6.85,19.9 6.9,19.7 6.4,19.45 6.25,19.55 M 7.45,8.9 6.85,9.25 7.2,9.9 7.35,10 7.8,9.7 V 9.55 M 7,7.75 6.4,8.1 6.75,8.75 6.9,8.85 7.35,8.55 V 8.4 M 6.1,6.9 5.45,7.25 5.8,7.85 6,7.95 6.45,7.7 V 7.5 M 5.6,5.75 5,6.1 5.35,6.7 5.5,6.8 6,6.55 5.95,6.35 M 5,4.65 4.4,5 4.75,5.65 4.9,5.75 5.35,5.45 V 5.3"
     id="path12"
     inkscape:connector-curvature="0"
     style="fill:#ff0000;stroke-width:0.5" />
  <path
     d="m 12.35,17.1 0.6,0.35 0.35,-0.6 v -0.2 l -0.45,-0.3 -0.15,0.15"
     id="path14"
     inkscape:connector-curvature="0"
     style="fill:#eeffdd;stroke-width:0.5" />
  <path
     d="m 12.75,16.4 0.6,0.3 0.3,-0.65 v -0.2 l -0.45,-0.2 -0.15,0.1"
     id="path16"
     inkscape:connector-curvature="0"
     style="fill:#ddffbb;stroke-width:0.5" />
  <path
     d="M 13.1,15.7 13.75,15.9 14,15.25 13.95,15.05 13.45,14.9 13.3,15"
     id="path18"
     inkscape:connector-curvature="0"
     style="fill:#bbff99;stroke-width:0.5" />
  <path
     d="m 13.35,14.95 0.7,0.15 0.15,-0.65 -0.05,-0.2 -0.5,-0.15 -0.1,0.15"
     id="path20"
     inkscape:connector-curvature="0"
     style="fill:#33bb11;stroke-width:0.5" />
  <path
     d="m 11.7,22.2 0.85,-0.65 0.8,-0.75 0.7,-0.75 0.65,-0.85 0.6,-0.9 0.5,-0.95 0.4,-1 0.3,-1.05 0.25,-1 0.15,-1.1 0.05,-1.05 L 16.9,11.1 16.75,10 16.5,8.95 16.2,7.95 15.8,6.95 15.3,6 14.7,5.1 14.05,4.25 13.35,3.5 l -1,0.95 -1.5,-4.45 4.45,1.5 -0.95,1 0.8,0.85 0.7,0.95 0.65,1 0.55,1.05 0.45,1.1 0.35,1.15 0.25,1.15 0.2,1.2 0.05,1.2 -0.05,1.2 -0.2,1.15 -0.25,1.2 -0.35,1.1 -0.45,1.1 -0.55,1.1 -0.65,1 -0.7,0.95 -0.8,0.85 -0.9,0.8 -0.95,0.75"
     id="path22"
     inkscape:connector-curvature="0"
     style="fill:#55ff22;stroke-width:0.5" />
</svg>
