<?xml version="1.0" encoding="UTF-8" standalone="no"?>
<!-- Generator: Adobe Illustrator 13.0.0, SVG Export Plug-In . SVG Version: 6.00 Build 14948)  -->

<svg
   xmlns:dc="http://purl.org/dc/elements/1.1/"
   xmlns:cc="http://creativecommons.org/ns#"
   xmlns:rdf="http://www.w3.org/1999/02/22-rdf-syntax-ns#"
   xmlns:svg="http://www.w3.org/2000/svg"
   xmlns="http://www.w3.org/2000/svg"
   xmlns:sodipodi="http://sodipodi.sourceforge.net/DTD/sodipodi-0.dtd"
   xmlns:inkscape="http://www.inkscape.org/namespaces/inkscape"
   version="1.1"
   id="Layer_1"
   x="0px"
   y="0px"
   width="24"
   height="24"
   viewBox="0 0 30.828558 30.828559"
   xml:space="preserve"
   sodipodi:docname="java.svg"
   inkscape:version="0.92.3 (2405546, 2018-03-11)"><metadata
   id="metadata33"><rdf:RDF><cc:Work
       rdf:about=""><dc:format>image/svg+xml</dc:format><dc:type
         rdf:resource="http://purl.org/dc/dcmitype/StillImage" /><dc:title></dc:title></cc:Work></rdf:RDF></metadata><defs
   id="defs31" /><sodipodi:namedview
   pagecolor="#ffffff"
   bordercolor="#666666"
   borderopacity="1"
   objecttolerance="10"
   gridtolerance="10"
   guidetolerance="10"
   inkscape:pageopacity="0"
   inkscape:pageshadow="2"
   inkscape:window-width="1680"
   inkscape:window-height="987"
   id="namedview29"
   showgrid="true"
   inkscape:zoom="28.760232"
   inkscape:cx="11.436132"
   inkscape:cy="10.524933"
   inkscape:window-x="-8"
   inkscape:window-y="-8"
   inkscape:window-maximized="1"
   inkscape:current-layer="Layer_1"><inkscape:grid
     type="xygrid"
     id="grid843" /></sodipodi:namedview>



<path
   style="fill:#1f6ca1;stroke-width:0.07999869;fill-opacity:1"
   d="m 12.067915,23.493646 c 0,0 -1.13422,0.65959 0.80719,0.88279 2.351959,0.26831 3.554019,0.22983 6.145889,-0.26072 0,0 0.68143,0.42727 1.6331,0.79735 -5.810309,2.4902 -13.1498693,-0.14424 -8.586179,-1.41942"
   id="path4"
   inkscape:connector-curvature="0" />

<path
   style="fill:#1f6ca1;stroke-width:0.07999869;fill-opacity:1"
   d="m 11.357925,20.244096 c 0,0 -1.27214,0.94167 0.67071,1.14263 2.51244,0.25919 4.496569,0.28039 7.929869,-0.38072 0,0 0.47487,0.48143 1.22158,0.74471 -7.025009,2.05421 -14.8495993,0.162 -9.822159,-1.50662"
   id="path6"
   inkscape:connector-curvature="0" />

<path
   style="fill:#fe7600;stroke-width:0.07999869;fill-opacity:1"
   d="m 17.343344,14.731786 c 1.43166,1.6483 -0.37615,3.13155 -0.37615,3.13155 0,0 3.63522,-1.87661 1.96573,-4.22657 -1.55926,-2.19148 -2.755,-3.28034 3.71826,-7.0346002 0,0 -10.160879,2.53772 -5.30784,8.1296202"
   id="path8"
   inkscape:connector-curvature="0" />

<path
   style="fill:#1f6ca1;stroke-width:0.07999869;fill-opacity:1"
   d="m 25.027944,25.897206 c 0,0 0.83934,0.69159 -0.92439,1.22662 -3.35378,1.01599 -13.958809,1.32278 -16.9048393,0.0405 -1.05902,-0.46071 0.92694,-1.10006 1.55165,-1.23422 0.65151,-0.14128 1.0238299,-0.11496 1.0238299,-0.11496 -1.1777399,-0.82966 -7.6124397,1.6291 -3.2685099,2.33325 11.8465293,1.92116 21.5950893,-0.86511 18.5222593,-2.25117"
   id="path10"
   inkscape:connector-curvature="0" />

<path
   style="fill:#1f6ca1;stroke-width:0.07999869;fill-opacity:1"
   d="m 12.613345,16.877196 c 0,0 -5.3943903,1.28126 -1.91029,1.74653 1.4711,0.19696 4.40369,0.1524 7.135319,-0.0765 2.23245,-0.18831 4.47409,-0.58871 4.47409,-0.58871 0,0 -0.78719,0.33712 -1.3567,0.72599 -5.47791,1.4407 -16.0602092,0.77047 -13.0136993,-0.70319 2.5764303,-1.24542 4.6712803,-1.10414 4.6712803,-1.10414"
   id="path12"
   inkscape:connector-curvature="0" />

<path
   style="fill:#1f6ca1;stroke-width:0.07999869;fill-opacity:1"
   d="m 22.290224,22.286226 c 5.56855,-2.89363 2.99387,-5.67439 1.19678,-5.29975 -0.44047,0.0917 -0.63687,0.17111 -0.63687,0.17111 0,0 0.16352,-0.25615 0.47583,-0.36703 3.55523,-1.2499 6.28942,3.68642 -1.14766,5.64151 0,8e-5 0.0862,-0.077 0.11192,-0.14584"
   id="path14"
   inkscape:connector-curvature="0" />

<path
   style="fill:#fe7600;stroke-width:0.07999869;fill-opacity:1"
   d="m 18.932924,0.54002581 c 0,0 3.08395,3.08498999 -2.925,7.82882999 -4.818559,3.8053802 -1.098779,5.9751002 -0.002,8.4541002 -2.812669,-2.53772 -4.876799,-4.77168 -3.492019,-6.8508502 2.03253,-3.05203 7.663319,-4.53176 6.419019,-9.43207999"
   id="path16"
   inkscape:connector-curvature="0" />

<path
   style="fill:#1f6ca1;stroke-width:0.07999869;fill-opacity:1"
   d="m 13.160535,30.127296 c 5.345109,0.34216 13.553139,-0.18983 13.747539,-2.71899 0,0 -0.37368,0.95878 -4.41745,1.72021 -4.56217,0.85855 -10.188959,0.75831 -13.5262593,0.20808 8e-5,-8e-5 0.68319,0.56543 4.1961703,0.7907"
   id="path18"
   inkscape:connector-curvature="0" />









</svg>