<?xml version="1.0" encoding="UTF-8" standalone="no"?>
<!-- Generator: Adobe Illustrator 13.0.0, SVG Export Plug-In . SVG Version: 6.00 Build 14948)  -->

<svg
   xmlns:dc="http://purl.org/dc/elements/1.1/"
   xmlns:cc="http://creativecommons.org/ns#"
   xmlns:rdf="http://www.w3.org/1999/02/22-rdf-syntax-ns#"
   xmlns:svg="http://www.w3.org/2000/svg"
   xmlns="http://www.w3.org/2000/svg"
   xmlns:sodipodi="http://sodipodi.sourceforge.net/DTD/sodipodi-0.dtd"
   xmlns:inkscape="http://www.inkscape.org/namespaces/inkscape"
   version="1.1"
   id="Layer_1"
   x="0px"
   y="0px"
   width="24"
   height="24"
   viewBox="0 0 24 24"
   xml:space="preserve"
   sodipodi:docname="java4.svg"
   inkscape:version="0.92.3 (2405546, 2018-03-11)"><metadata
   id="metadata33"><rdf:RDF><cc:Work
       rdf:about=""><dc:format>image/svg+xml</dc:format><dc:type
         rdf:resource="http://purl.org/dc/dcmitype/StillImage" /><dc:title></dc:title></cc:Work></rdf:RDF></metadata><defs
   id="defs31" /><sodipodi:namedview
   pagecolor="#ffffff"
   bordercolor="#666666"
   borderopacity="1"
   objecttolerance="10"
   gridtolerance="10"
   guidetolerance="10"
   inkscape:pageopacity="0"
   inkscape:pageshadow="2"
   inkscape:window-width="1680"
   inkscape:window-height="987"
   id="namedview29"
   showgrid="true"
   inkscape:zoom="23.227258"
   inkscape:cx="11.29146"
   inkscape:cy="8.4268123"
   inkscape:window-x="-8"
   inkscape:window-y="-8"
   inkscape:window-maximized="1"
   inkscape:current-layer="Layer_1"><inkscape:grid
     type="xygrid"
     id="grid843" /></sodipodi:namedview>



<path
   style="fill:#1f6ca1;fill-opacity:1;stroke-width:0.06227889"
   d="m 9.3581276,18.254031 c 0,0 -0.882989,0.51349 0.628397,0.687251 1.8309974,0.208879 2.7668004,0.178923 4.7845684,-0.20297 0,0 0.530492,0.332629 1.271366,0.620736 C 11.51914,21.297666 5.8052997,19.246757 9.3581276,18.254031"
   id="path4"
   inkscape:connector-curvature="0" />

<path
   style="fill:#1f6ca1;fill-opacity:1;stroke-width:0.06227889"
   d="m 8.8054016,15.72426 c 0,0 -0.99036,0.733089 0.522147,0.889536 1.9559324,0.201779 3.5005744,0.218284 6.1733944,-0.29639 0,0 0.369686,0.374793 0.950999,0.579756 -5.468962,1.5992 -11.5603976,0.126117 -7.6465404,-1.172902"
   id="path6"
   inkscape:connector-curvature="0" />

<path
   style="fill:#fe7600;fill-opacity:1;stroke-width:0.06227889"
   d="m 13.465044,11.432933 c 1.114546,1.283199 -0.292832,2.437908 -0.292832,2.437908 0,0 2.830015,-1.460939 1.530318,-3.29038 -1.213882,-1.7060647 -2.144764,-2.5537417 2.894662,-5.4764289 0,0 -7.9102344,1.9756122 -4.132148,6.3289009"
   id="path8"
   inkscape:connector-curvature="0" />

<path
   style="fill:#1f6ca1;fill-opacity:1;stroke-width:0.06227889"
   d="m 19.447497,20.1252 c 0,0 0.653425,0.538402 -0.719637,0.954922 -2.610914,0.790948 -10.8669184,1.029783 -13.1603995,0.03153 -0.8244459,-0.358663 0.7216218,-0.856396 1.2079581,-0.960839 0.5072,-0.109987 0.79705,-0.0895 0.79705,-0.0895 -0.916869,-0.645889 -5.9262759,1.268253 -2.5445312,1.816433 9.2225106,1.495621 16.8117546,-0.673487 14.4195596,-1.752533"
   id="path10"
   inkscape:connector-curvature="0" />

<path
   style="fill:#1f6ca1;fill-opacity:1;stroke-width:0.06227889"
   d="m 9.7827446,13.103132 c 0,0 -4.1995273,0.997459 -1.487159,1.359672 1.14525,0.153333 3.4282684,0.118643 5.5548384,-0.05955 1.73796,-0.1466 3.483075,-0.458311 3.483075,-0.458311 0,0 -0.612827,0.262448 -1.05619,0.565183 -4.264547,1.121583 -12.502856,0.59981 -10.1311513,-0.547433 2.0057479,-0.969558 3.6365869,-0.859572 3.6365869,-0.859572"
   id="path12"
   inkscape:connector-curvature="0" />

<path
   style="fill:#1f6ca1;fill-opacity:1;stroke-width:0.06227889"
   d="m 17.316185,17.314056 c 4.33511,-2.252688 2.330724,-4.417507 0.931692,-4.12585 -0.342906,0.07139 -0.495803,0.133209 -0.495803,0.133209 0,0 0.1273,-0.199412 0.370433,-0.285732 2.767743,-0.973046 4.896307,2.869874 -0.893452,4.391909 0,6.3e-5 0.06711,-0.05994 0.08713,-0.113536"
   id="path14"
   inkscape:connector-curvature="0" />

<path
   style="fill:#fe7600;fill-opacity:1;stroke-width:0.06227889"
   d="m 14.70253,0.38466269 c 0,0 2.400852,2.40166131 -2.277109,6.09473571 -3.7512434,2.9624849 -0.855398,4.6516086 -0.0016,6.5815076 C 10.234161,11.085294 8.6272376,9.3461583 9.7052876,7.7275273 11.28761,5.3515247 15.671174,4.1995565 14.702487,0.38466269"
   id="path16"
   inkscape:connector-curvature="0" />

<path
   style="fill:#1f6ca1;fill-opacity:1;stroke-width:0.06227889"
   d="m 10.208732,23.418321 c 4.161161,0.266371 10.551104,-0.147783 10.702444,-2.116731 0,0 -0.290909,0.746409 -3.43898,1.339182 -3.551644,0.66838 -7.9320944,0.590343 -10.5301784,0.16199 6.2e-5,-6.3e-5 0.531862,0.440186 3.2667144,0.615559"
   id="path18"
   inkscape:connector-curvature="0" />









</svg>