<svg height="812" viewBox="42 119 650 812" width="650" xmlns="http://www.w3.org/2000/svg" xmlns:xlink="http://www.w3.org/1999/xlink">
    <!-- Adapted from https://commons.wikimedia.org/wiki/File:Lock.svg -->
    <linearGradient id="a">
        <stop offset="0" stop-color="#fff"/>
        <stop offset="1" stop-color="#fff" stop-opacity="0"/>
    </linearGradient>
    <linearGradient id="b" gradientTransform="matrix(31.442825 0 0 15.721413 163.64608 98.870782)" gradientUnits="userSpaceOnUse" x1="11.5" x2="11.779029" xlink:href="#a" y1="20.579729" y2="14.259961"/>
    <linearGradient id="c" gradientTransform="matrix(31.442825 0 0 14.809689 -182.22526 119.54828)" gradientUnits="userSpaceOnUse" x1="14.217941" x2="17.859085" xlink:href="#a" y1="6.879535" y2="3.95666"/>
    <linearGradient id="d" gradientTransform="matrix(14.541559 0 0 15.073297 19.247073 148.75198)" gradientUnits="userSpaceOnUse" x1="10.907269" x2="30.875446" y1="25.002281" y2="36.127281">
        <stop offset="0" stop-color="#fff"/>
        <stop offset="1" stop-color="#fff" stop-opacity=".494845"/>
    </linearGradient>
    <linearGradient id="e" gradientTransform="matrix(15.721413 0 0 17.134408 -9.289589 61.732234)" gradientUnits="userSpaceOnUse" x1="6.72682" x2="40.938126" y1="32.161697" y2="32.161697">
        <stop offset="0" stop-color="#fce94f"/>
        <stop offset=".20999999" stop-color="#ffec41"/>
        <stop offset=".83999997" stop-color="#edd400"/>
        <stop offset="1" stop-color="#c4a00f" stop-opacity=".941176"/>
    </linearGradient>
    <linearGradient id="f" gradientTransform="matrix(15.721413 0 0 17.134408 -9.289589 79.385615)" gradientUnits="userSpaceOnUse" x1="31.630468" x2="8.671364" y1="41.791817" y2="25.793524">
        <stop offset="0" stop-color="#8f5902"/>
        <stop offset="1" stop-color="#c17d11"/>
    </linearGradient>
    <linearGradient id="g" gradientTransform="matrix(15.401043 0 0 15.948654 -11.070064 104.56497)" gradientUnits="userSpaceOnUse" x1="12.88666" x2="20.087339" y1="4.360276" y2="18.414022">
        <stop offset="0" stop-color="#babdb6"/>
        <stop offset=".5" stop-color="#eeeeec"/>
        <stop offset="1" stop-color="#babdb6"/>
    </linearGradient>
    <linearGradient id="h" gradientTransform="matrix(15.401043 0 0 15.948654 -11.070064 104.56497)" gradientUnits="userSpaceOnUse" x1="19.250618" x2="16.198252" y1="9.663577" y2="6.039655">
        <stop offset="0" stop-color="#555753"/>
        <stop offset="1" stop-color="#888a85"/>
    </linearGradient>
    <path d="m-64.879845 115.85568h850v850h-850z" fill="none"/>
    <path d="m149.64097 462.77119v-122.55827c0-125.51812 84.12878-182.74178 209.22253-181.17424 125.77437 1.56753 208.8138 56.17792 208.8138 183.17269l-.20845 120.55982h-76.73795v-88.997c-2.06012-30.8929 8.56244-134.37251-130.98679-134.37251-140.51178 0-132.25265 103.8535-131.74913 134.98757v88.38194h-78.35452z" fill="url(#g)" fill-rule="evenodd" stroke="url(#h)" stroke-width="37.986671"/>
    <rect height="377.42322" rx="84.899323" ry="73.867165" style="fill-rule:evenodd;stroke-width:37.986675;stroke-linecap:round;stroke-linejoin:round;fill:url(#e);stroke:url(#f)" width="550.18536" x="92.865761" y="464.39069"/>
    <rect height="302.70956" rx="46.140316" ry="46.140354" style="fill:none;stroke-width:37.98671;stroke-linecap:round;stroke-linejoin:round;stroke-opacity:.601093;stroke:url(#d)" width="480.31729" x="127.86926" y="501.4451"/>
    <g fill-rule="evenodd">
        <path d="m163.64595 347.00672c4.16875-92.93931 30.00738-162.92832 202.36234-168.86158-111.60142 15.72802-172.30435 48.31298-172.30435 145.47854 0 0-2.78392 120.42879-2.78392 120.42879h-27.27407z" fill="url(#c)"/>
        <path d="m509.51706 287.52774h31.442825v157.21413h-31.442825z" fill="url(#b)"/>
    </g>
</svg>