<?xml version="1.0" encoding="UTF-8" standalone="no"?>
<svg
   xmlns:dc="http://purl.org/dc/elements/1.1/"
   xmlns:cc="http://creativecommons.org/ns#"
   xmlns:rdf="http://www.w3.org/1999/02/22-rdf-syntax-ns#"
   xmlns:svg="http://www.w3.org/2000/svg"
   xmlns="http://www.w3.org/2000/svg"
   xmlns:xlink="http://www.w3.org/1999/xlink"
   xmlns:sodipodi="http://sodipodi.sourceforge.net/DTD/sodipodi-0.dtd"
   xmlns:inkscape="http://www.inkscape.org/namespaces/inkscape"
   width="32"
   height="32"
   version="1.1"
   id="svg53"
   sodipodi:docname="view-fullscreen2.svg"
   inkscape:version="0.92.3 (2405546, 2018-03-11)">
  <metadata
     id="metadata57">
    <rdf:RDF>
      <cc:Work
         rdf:about="">
        <dc:format>image/svg+xml</dc:format>
        <dc:type
           rdf:resource="http://purl.org/dc/dcmitype/StillImage" />
        <dc:title></dc:title>
      </cc:Work>
    </rdf:RDF>
  </metadata>
  <sodipodi:namedview
     pagecolor="#ffffff"
     bordercolor="#666666"
     borderopacity="1"
     objecttolerance="10"
     gridtolerance="10"
     guidetolerance="10"
     inkscape:pageopacity="0"
     inkscape:pageshadow="2"
     inkscape:window-width="1680"
     inkscape:window-height="987"
     id="namedview55"
     showgrid="true"
     inkscape:zoom="19.853923"
     inkscape:cx="10.048353"
     inkscape:cy="21.071965"
     inkscape:window-x="-8"
     inkscape:window-y="-8"
     inkscape:window-maximized="1"
     inkscape:current-layer="svg53">
    <inkscape:grid
       type="xygrid"
       id="grid4567" />
  </sodipodi:namedview>
  <defs
     id="defs32">
    <radialGradient
       id="g"
       cx="605.71399"
       cy="486.64801"
       r="117.143"
       fx="605.71399"
       fy="486.64801"
       gradientTransform="matrix(-2.77439,0,0,1.9697,112.762,-872.885)"
       gradientUnits="userSpaceOnUse"
       xlink:href="#a" />
    <linearGradient
       id="a">
      <stop
         offset="0"
         id="stop3" />
      <stop
         offset="1"
         stop-opacity="0"
         id="stop5" />
    </linearGradient>
    <radialGradient
       id="f"
       cx="605.71399"
       cy="486.64801"
       r="117.143"
       fx="605.71399"
       fy="486.64801"
       gradientTransform="matrix(2.77439,0,0,1.9697,-1891.633,-872.885)"
       gradientUnits="userSpaceOnUse"
       xlink:href="#a" />
    <linearGradient
       id="b">
      <stop
         offset="0"
         stop-opacity="0"
         id="stop9" />
      <stop
         offset=".5"
         id="stop11" />
      <stop
         offset="1"
         stop-opacity="0"
         id="stop13" />
    </linearGradient>
    <linearGradient
       id="e"
       x1="302.85699"
       x2="302.85699"
       y1="366.64801"
       y2="609.505"
       gradientTransform="matrix(2.77439,0,0,1.9697,-1892.179,-872.885)"
       gradientUnits="userSpaceOnUse"
       xlink:href="#b" />
    <linearGradient
       id="d">
      <stop
         offset="0"
         stop-color="#204a87"
         id="stop17" />
      <stop
         offset="1"
         stop-color="#204a87"
         stop-opacity="0"
         id="stop19" />
    </linearGradient>
    <linearGradient
       id="c">
      <stop
         offset="0"
         stop-color="#e3eded"
         id="stop22" />
      <stop
         offset="1"
         stop-color="#f5f5f5"
         id="stop24" />
    </linearGradient>
    <linearGradient
       id="h"
       x1="22.625"
       x2="22.625"
       y1="7.71"
       y2="40.5"
       gradientTransform="matrix(1.01177,0,0,1.01177,-0.035,-0.53)"
       gradientUnits="userSpaceOnUse"
       xlink:href="#c" />
    <linearGradient
       id="j"
       x1="12.364"
       x2="18.226999"
       y1="11.394"
       y2="17.580999"
       gradientUnits="userSpaceOnUse"
       xlink:href="#d" />
    <linearGradient
       id="k"
       x1="12.364"
       x2="18.226999"
       y1="11.394"
       y2="17.580999"
       gradientTransform="matrix(-1,0,0,1,49,0)"
       gradientUnits="userSpaceOnUse"
       xlink:href="#d" />
    <linearGradient
       id="l"
       x1="12.364"
       x2="18.226999"
       y1="11.394"
       y2="17.580999"
       gradientTransform="matrix(1,0,0,-1,0,47.031)"
       gradientUnits="userSpaceOnUse"
       xlink:href="#d" />
    <linearGradient
       id="m"
       x1="12.364"
       x2="18.226999"
       y1="11.394"
       y2="17.580999"
       gradientTransform="rotate(180,24.5,23.516)"
       gradientUnits="userSpaceOnUse"
       xlink:href="#d" />
  </defs>
  <g
     id="g51"
     transform="matrix(0.64962614,0,0,0.65129393,0.08677853,0.73274223)"
     style="color:#000000">
    <path
       d="M -1559.252,-150.697 H -219.619 V 327.66 h -1339.633 z"
       style="opacity:0.40200004;fill:url(#e);marker:none"
       transform="matrix(0.02313,0,0,0.01486,44.967,42.796)"
       id="path34"
       inkscape:connector-curvature="0" />
    <path
       d="m -219.61876,-150.68038 c 0,0 0,478.33079 0,478.33079 142.874166,0.90045 345.40022,-107.16966 345.40014,-239.196175 0,-132.026537 -159.436816,-239.134595 -345.40014,-239.134615 z"
       style="opacity:0.40200004;fill:url(#f);marker:none"
       transform="matrix(0.02313,0,0,0.01486,44.967,42.796)"
       id="path36"
       inkscape:connector-curvature="0" />
    <path
       d="m -1559.2523,-150.68038 c 0,0 0,478.33079 0,478.33079 -142.8742,0.90045 -345.4002,-107.16966 -345.4002,-239.196175 0,-132.026537 159.4368,-239.134595 345.4002,-239.134615 z"
       style="opacity:0.40200004;fill:url(#g);marker:none"
       transform="matrix(0.02313,0,0,0.01486,44.967,42.796)"
       id="path38"
       inkscape:connector-curvature="0" />
    <rect
       id="i"
       width="41.987999"
       height="41.987999"
       x="3.506"
       y="2.506"
       rx="1.875"
       ry="1.875"
       style="fill:url(#h);fill-rule:evenodd;stroke:#888a85;stroke-linecap:round;stroke-linejoin:round;marker:none" />
    <path
       d="m 5.375,3.53125 c -0.4837791,0 -0.84375,0.3599705 -0.84375,0.84375 v 38.25 c 0,0.483779 0.3599724,0.84375 0.84375,0.84375 h 37.75 c 0.483779,0 0.84375,-0.359971 0.84375,-0.84375 V 4.375 c 0,-0.4837793 -0.359971,-0.84375 -0.84375,-0.84375 z"
       style="fill:none;stroke:#ffffff;stroke-linecap:round;stroke-linejoin:round;marker:none"
       id="path41"
       inkscape:connector-curvature="0" />
    <path
       d="m 6,5 v 13 l 4.03125,-4.03125 8,8.0625 L 23,17 15,9 19,5 Z"
       style="fill:url(#j);fill-rule:evenodd;marker:none"
       id="path43"
       inkscape:connector-curvature="0" />
    <path
       d="m 43,5 v 13 l -4.03125,-4.03125 -8,8.0625 L 26,17 34,9 30,5 Z"
       style="fill:url(#k);fill-rule:evenodd;marker:none"
       id="path45"
       inkscape:connector-curvature="0" />
    <path
       d="m 6,42.03125 v -13 l 4.03125,4.03125 8,-8.0625 4.96875,5.03125 -8,8 4,4 z"
       style="fill:url(#l);fill-rule:evenodd;marker:none"
       id="path47"
       inkscape:connector-curvature="0" />
    <path
       d="m 43,42.03125 v -13 L 38.96875,33.0625 30.96875,25 26,30.03125 l 8,8 -4,4 z"
       style="fill:url(#m);fill-rule:evenodd;marker:none"
       id="path49"
       inkscape:connector-curvature="0" />
  </g>
</svg>
