<?xml version="1.0" encoding="UTF-8" standalone="no"?>
<svg
   xmlns:dc="http://purl.org/dc/elements/1.1/"
   xmlns:cc="http://creativecommons.org/ns#"
   xmlns:rdf="http://www.w3.org/1999/02/22-rdf-syntax-ns#"
   xmlns:svg="http://www.w3.org/2000/svg"
   xmlns="http://www.w3.org/2000/svg"
   xmlns:sodipodi="http://sodipodi.sourceforge.net/DTD/sodipodi-0.dtd"
   xmlns:inkscape="http://www.inkscape.org/namespaces/inkscape"
   viewBox="0 0 24 24"
   height="24"
   width="24"
   xml:space="preserve"
   id="svg2"
   version="1.1"
   sodipodi:docname="Expert4.svg"
   inkscape:version="0.92.3 (2405546, 2018-03-11)"><sodipodi:namedview
     pagecolor="#ffffff"
     bordercolor="#666666"
     borderopacity="1"
     objecttolerance="10"
     gridtolerance="10"
     guidetolerance="10"
     inkscape:pageopacity="0"
     inkscape:pageshadow="2"
     inkscape:window-width="1680"
     inkscape:window-height="987"
     id="namedview51"
     showgrid="true"
     inkscape:zoom="22.509205"
     inkscape:cx="13.788717"
     inkscape:cy="13.518612"
     inkscape:window-x="-8"
     inkscape:window-y="-8"
     inkscape:window-maximized="1"
     inkscape:current-layer="svg2"><inkscape:grid
       type="xygrid"
       id="grid823" /></sodipodi:namedview><metadata
     id="metadata8"><rdf:RDF><cc:Work
         rdf:about=""><dc:format>image/svg+xml</dc:format><dc:type
           rdf:resource="http://purl.org/dc/dcmitype/StillImage" /><dc:title></dc:title></cc:Work></rdf:RDF></metadata><defs
     id="defs6" /><path
     id="path24"
     style="fill:#766864;fill-opacity:1;fill-rule:evenodd;stroke:none;stroke-width:0.00833091"
     d="m 11.999915,23.205072 c 0.4184,0 0.757466,0.177855 0.757466,0.397212 C 12.757381,23.8218 12.418315,24 11.999915,24 c -0.418145,0 -0.757211,-0.17826 -0.757211,-0.397716 0,-0.219357 0.339066,-0.397212 0.757211,-0.397212"
     inkscape:connector-curvature="0" /><path
     id="path26"
     style="fill:#2f2825;fill-opacity:1;fill-rule:evenodd;stroke:none;stroke-width:0.00833091"
     d="m 11.032158,23.689093 h 1.935769 l 1.585976,-0.974538 -2.581591,-0.657724 -2.5264689,0.657724 1.5863149,0.974538"
     inkscape:connector-curvature="0" /><path
     id="path32"
     style="fill:#352d2b;fill-opacity:1;fill-rule:evenodd;stroke:none;stroke-width:0.00833091"
     d="m 9.4458431,17.707585 h 5.1080599 v 5.00697 H 9.4458431 v -5.00697"
     inkscape:connector-curvature="0" /><path
     id="path34"
     style="fill:#645653;fill-opacity:1;fill-rule:evenodd;stroke:none;stroke-width:0.00833091"
     d="m 9.4458431,21.795149 v 0.653308 L 14.553903,21.25422 v -0.653388 z m 0,-2.725875 v 0.653308 l 5.1080599,-1.194076 v -0.653388 z m 0,1.362937 c 1.7027929,-0.397978 3.4054159,-0.796096 5.1080599,-1.194237 0,0.217844 0,0.435708 0,0.65339 -1.702644,0.397978 -3.405267,0.796098 -5.1080599,1.194237 0,-0.217844 0,-0.435627 0,-0.65339 v 0"
     inkscape:connector-curvature="0" /><path
     id="path36"
     style="fill:#463d3b;fill-opacity:1;fill-rule:evenodd;stroke:none;stroke-width:0.00833091"
     d="M 9.4458431,17.707585 H 11.38986 v 5.00697 H 9.4458431 v -5.00697"
     inkscape:connector-curvature="0" /><path
     id="path38"
     style="fill:#766864;fill-opacity:1;fill-rule:evenodd;stroke:none;stroke-width:0.00833091"
     d="m 11.38986,21.340689 v 0.653146 l -1.9440169,0.454622 v -0.653308 z m 0,-1.362837 V 20.63124 L 9.4458431,21.0856 v -0.653389 z m 0,-1.362858 v 0.653228 l -1.9440169,0.45436 v -0.653308 l 1.9440169,-0.45428 v 0"
     inkscape:connector-curvature="0" /><path
     id="path40"
     style="fill:#fabc00;fill-opacity:1;fill-rule:evenodd;stroke:none;stroke-width:0.00833091"
     d="m 11.999915,3.9202543 c 3.367064,0 6.096743,2.5961538 6.096743,5.7988129 0,1.6347028 -0.711291,3.1111898 -1.855461,4.1652188 -0.76709,0.706626 -1.156593,1.5807 -1.156593,2.596496 v 0.722112 c 0,0.277672 -0.23868,0.504691 -0.530701,0.504691 H 9.4458431 c -0.2916821,0 -0.5305314,-0.227019 -0.5305314,-0.504691 v -0.72195 c 0,-1.015797 -0.3894182,-1.890032 -1.1564243,-2.596658 C 6.6146325,12.830257 5.9035119,11.35377 5.9035119,9.7190672 c 0,-3.2026591 2.7294251,-5.7988129 6.0964031,-5.7988129"
     inkscape:connector-curvature="0" /><path
     id="path42"
     style="fill:#fff95d;fill-opacity:1;fill-rule:evenodd;stroke:none;stroke-width:0.00833091"
     d="m 9.7832342,12.605558 c -0.2544533,0.04799 -0.4215589,0.285416 -0.371037,0.527518 v 0 c 0.050458,0.242183 0.2999927,0.400963 0.5546155,0.35299 l 4.2496993,-0.800614 c 0.254708,-0.04799 0.421643,-0.285235 0.371291,-0.527418 v 0 c -0.05046,-0.242102 -0.299992,-0.400962 -0.55453,-0.35307 z m 0,-3.0981839 C 9.5287809,9.5553669 9.3616753,9.7926294 9.4121972,10.034812 v 0 c 0.050458,0.242183 0.2999927,0.401043 0.5546155,0.353071 L 14.216512,9.5872681 C 14.47122,9.5392757 14.638155,9.302033 14.587803,9.0598503 v 0 C 14.537345,8.8177484 14.287811,8.6588878 14.033273,8.7068606 Z m 0,1.5491419 c 1.4166438,-0.266844 2.8333938,-0.533769 4.2500388,-0.800594 0.254538,-0.04799 0.504072,0.110909 0.55453,0.35297 v 0 c 0.05046,0.242182 -0.116605,0.479525 -0.371291,0.527518 -1.416581,0.266845 -2.83314,0.53377 -4.2496993,0.800595 -0.2546228,0.04799 -0.5042423,-0.110908 -0.5546155,-0.353051 v 0 c -0.050458,-0.242102 0.116605,-0.479364 0.371037,-0.527438 v 0"
     inkscape:connector-curvature="0" /><path
     id="path44"
     style="fill:#fff95d;fill-opacity:1;fill-rule:evenodd;stroke:none;stroke-width:0.00833091"
     d="m 13.466403,13.312202 v 4.395383 h -0.998944 v -4.207283 z m -1.933861,0.364304 v 4.031079 h -0.999199 v -3.842798 l 0.999199,-0.188343 v 0"
     inkscape:connector-curvature="0" /><path
     id="path46"
     style="fill:#ffe316;fill-opacity:1;fill-rule:evenodd;stroke:none;stroke-width:0.00833091"
     d="m 11.164494,4.5050014 c 2.030559,0 3.278253,1.4954024 2.787049,3.3400236 -0.491352,1.8444802 -2.535755,3.339862 -4.5659742,3.339862 -2.0306434,0 -3.2783376,-1.4953818 -2.787049,-3.339862 C 7.0898929,6.0004038 9.1340202,4.5050014 11.164494,4.5050014"
     inkscape:connector-curvature="0" /><path
     id="path48"
     style="fill:#fffda5;fill-opacity:1;fill-rule:evenodd;stroke:none;stroke-width:0.00833091"
     d="m 13.545058,8.7987528 c -0.23622,0.397716 -0.5434,0.7643575 -0.900932,1.0847606 L 9.9668127,10.387883 C 9.7121899,10.435875 9.4625704,10.276974 9.4121972,10.034812 v 0 C 9.3617391,9.7926294 9.5288022,9.5553669 9.7832342,9.5073741 Z M 9.7832342,11.056516 11.247708,10.780678 c -0.542362,0.23694 -1.124199,0.379467 -1.7080722,0.401144 0.064239,-0.06211 0.147771,-0.107278 0.2435984,-0.125224 v 0"
     inkscape:connector-curvature="0" /><path
     id="path50"
     style="fill:#fabc00;fill-opacity:1;fill-rule:evenodd;stroke:none;stroke-width:0.00833091"
     d="m 18.088962,6.1133685 2.342976,-1.2866331 c 0.230793,-0.1270395 0.526417,-0.052227 0.659898,0.1673702 0.133785,0.2194365 0.05491,0.5004368 -0.175755,0.6276583 L 18.544378,6.9242066 C 18.411661,6.6432061 18.259099,6.3725503 18.089005,6.1133685 Z M 15.28754,3.6547407 16.589973,1.5088734 c 0.13272,-0.2195173 0.427348,-0.2952574 0.658141,-0.1689836 0.230708,0.1260315 0.310316,0.4063063 0.177875,0.6257428 L 16.112424,4.1296687 C 15.849744,3.9546357 15.574281,3.7956945 15.287604,3.6547205 Z M 11.515814,2.9129681 V 0.4610954 c 0,-0.2543421 0.216779,-0.4605301 0.484101,-0.4605301 0.267407,0 0.484017,0.206188 0.484017,0.4605301 v 2.4518727 c -0.159855,-0.01008 -0.321194,-0.016133 -0.484017,-0.016133 -0.162611,0 -0.324076,0.00605 -0.484101,0.016133 z M 7.8877252,4.1296888 6.5742658,1.9656527 C 6.4415482,1.7462162 6.5210516,1.4659619 6.7519293,1.33991 6.9827224,1.2136766 7.2773725,1.2892957 7.410069,1.5088935 L 8.7125039,3.6547608 C 8.4257406,3.7957148 8.1503621,3.9545955 7.8877675,4.1297091 Z M 5.4555792,6.9242066 3.0837708,5.6217639 C 2.8531475,5.4947239 2.7743224,5.213542 2.9080154,4.9941055 3.041793,4.7745884 3.3372701,4.6996953 3.568063,4.8267354 L 5.9109745,6.113288 C 5.7409434,6.3724696 5.5883815,6.6431254 5.4556852,6.9241258 Z M 4.8684839,10.448035 H 1.9840166 C 1.7166945,10.448035 1.5,10.241827 1.5,9.9875853 1.5,9.7334044 1.7166945,9.5270351 1.9840166,9.5270351 h 2.8466238 c -0.00203,0.063924 -0.00211,0.1278465 -0.00211,0.1919714 0,0.2449252 0.014835,0.4881965 0.040919,0.7289685 z m 1.3153886,3.2638 -2.6159154,1.43666 C 3.337164,15.275336 3.0416447,15.200516 2.9079095,14.981126 2.774555,14.761609 2.8532105,14.480528 3.0838768,14.353468 l 2.5878668,-1.421175 c 0.1515861,0.269768 0.3225081,0.530281 0.512044,0.779622 z m 1.7246084,3.933259 -0.4984543,0.821182 C 7.2773083,18.685794 6.98268,18.761454 6.7518871,18.635461 6.521094,18.509221 6.4415696,18.228994 6.5742235,18.009396 L 7.796943,15.994884 c 0.028409,0.155473 0.042613,0.317499 0.042613,0.48612 v 0.72195 c 0,0.153859 0.024168,0.302173 0.068903,0.4422 z m 4.5754511,1.085769 v 0.783272 c 0,0.254443 -0.21661,0.460369 -0.484017,0.460369 -0.267322,0 -0.484101,-0.205926 -0.484101,-0.460369 v -0.783272 z m 3.718999,-2.736039 1.222993,2.014512 c 0.13251,0.219597 0.05279,0.499853 -0.177874,0.626066 -0.230794,0.12624 -0.525444,0.05041 -0.65814,-0.169186 l -0.498369,-0.821182 c 0.04452,-0.13995 0.0687,-0.288402 0.0687,-0.4422 v -0.722112 c 0,-0.168378 0.01485,-0.330405 0.04262,-0.485958 z m 2.125242,-3.062612 2.587865,1.421175 c 0.230709,0.127035 0.30964,0.408141 0.175756,0.62782 -0.13356,0.219355 -0.429106,0.294328 -0.659899,0.16737 l -2.615894,-1.436662 c 0.189535,-0.249341 0.360416,-0.509854 0.512128,-0.779622 z m 3.687726,-3.4051769 c 0.267301,0 0.484101,0.2063694 0.484101,0.4605502 0,0.2542417 -0.2168,0.4604497 -0.484101,0.4604497 h -2.884383 c 0.02692,-0.240771 0.04071,-0.4840427 0.04071,-0.7289678 0,-0.064125 -0.0012,-0.12825 -0.0021,-0.1919717 h 2.846539 v 0"
     inkscape:connector-curvature="0" /></svg>