<?xml version="1.0" encoding="UTF-8" standalone="no"?>
<svg
   xmlns:dc="http://purl.org/dc/elements/1.1/"
   xmlns:cc="http://creativecommons.org/ns#"
   xmlns:rdf="http://www.w3.org/1999/02/22-rdf-syntax-ns#"
   xmlns:svg="http://www.w3.org/2000/svg"
   xmlns="http://www.w3.org/2000/svg"
   xmlns:xlink="http://www.w3.org/1999/xlink"
   xmlns:sodipodi="http://sodipodi.sourceforge.net/DTD/sodipodi-0.dtd"
   xmlns:inkscape="http://www.inkscape.org/namespaces/inkscape"
   height="16"
   width="16"
   inkscape:version="1.0 (4035a4fb49, 2020-05-01)"
   inkscape:output_extension="org.inkscape.output.svg.inkscape"
   version="1.0"
   sodipodi:version="0.32"
   viewBox="0 0 16 16"
   sodipodi:docname="offline_cache.svg"
   space="preserve"
   id="Layer_1">
  <defs
     id="defs54">
    <radialGradient
       cx="33"
       cy="45.5"
       r="2.046875"
       fx="33"
       fy="45.5"
       id="radialGradient5172"
       xlink:href="#linearGradient5166"
       gradientUnits="userSpaceOnUse"
       gradientTransform="matrix(1.465649,0,0,1.221374,-3.36641,-10.07252)" />
    <linearGradient
       id="linearGradient5166">
      <stop
         id="stop5168"
         style="stop-color:#000000;stop-opacity:1"
         offset="0" />
      <stop
         id="stop5170"
         style="stop-color:#000000;stop-opacity:0"
         offset="1" />
    </linearGradient>
    <radialGradient
       cx="33"
       cy="45.5"
       r="2.046875"
       fx="33"
       fy="45.5"
       id="radialGradient5176"
       xlink:href="#linearGradient5166"
       gradientUnits="userSpaceOnUse"
       gradientTransform="matrix(1.465649,0,0,1.221374,-84.36641,-101.0725)" />
    <linearGradient
       x1="39"
       y1="48.000099"
       x2="39"
       y2="43"
       id="linearGradient5186"
       xlink:href="#linearGradient5180"
       gradientUnits="userSpaceOnUse" />
    <linearGradient
       id="linearGradient5180">
      <stop
         id="stop5182"
         style="stop-color:#000000;stop-opacity:0"
         offset="0" />
      <stop
         id="stop5188"
         style="stop-color:#000000;stop-opacity:1"
         offset="0.5" />
      <stop
         id="stop5184"
         style="stop-color:#000000;stop-opacity:0"
         offset="1" />
    </linearGradient>
    <radialGradient
       cx="33"
       cy="45.5"
       r="2.046875"
       fx="33"
       fy="45.5"
       id="radialGradient5172-1"
       xlink:href="#linearGradient5166"
       gradientUnits="userSpaceOnUse"
       gradientTransform="matrix(1.465649,0,0,1.221374,-3.36641,-10.07252)" />
    <radialGradient
       cx="33"
       cy="45.5"
       r="2.046875"
       fx="33"
       fy="45.5"
       id="radialGradient5176-1"
       xlink:href="#linearGradient5166"
       gradientUnits="userSpaceOnUse"
       gradientTransform="matrix(1.465649,0,0,1.221374,-84.36641,-101.0725)" />
    <linearGradient
       x1="39"
       y1="48.000099"
       x2="39"
       y2="43"
       id="linearGradient5186-1"
       xlink:href="#linearGradient5180"
       gradientUnits="userSpaceOnUse" />
    <radialGradient
       cx="33"
       cy="45.5"
       r="2.046875"
       fx="33"
       fy="45.5"
       id="radialGradient5172-13"
       xlink:href="#linearGradient5166"
       gradientUnits="userSpaceOnUse"
       gradientTransform="matrix(1.465649,0,0,1.221374,-3.36641,-10.07252)" />
    <radialGradient
       cx="33"
       cy="45.5"
       r="2.046875"
       fx="33"
       fy="45.5"
       id="radialGradient5176-2"
       xlink:href="#linearGradient5166"
       gradientUnits="userSpaceOnUse"
       gradientTransform="matrix(1.465649,0,0,1.221374,-84.36641,-101.0725)" />
    <linearGradient
       x1="39"
       y1="48.000099"
       x2="39"
       y2="43"
       id="linearGradient5186-2"
       xlink:href="#linearGradient5180"
       gradientUnits="userSpaceOnUse" />
  </defs>
  <sodipodi:namedview
     inkscape:window-maximized="1"
     showgrid="true"
     inkscape:document-rotation="0"
     inkscape:pageopacity="0.0"
     inkscape:window-height="987"
     inkscape:window-y="-8"
     inkscape:cy="17.729048"
     inkscape:cx="9.6548811"
     inkscape:current-layer="Layer_1"
     borderopacity="1.0"
     inkscape:window-x="-8"
     inkscape:zoom="15.942874"
     pagecolor="#ffffff"
     inkscape:window-width="1680"
     inkscape:pageshadow="2"
     bordercolor="#666666"
     id="base">
    <inkscape:grid
       id="grid879"
       type="xygrid" />
  </sodipodi:namedview>
  <g
     transform="matrix(0.11758494,0,0,0.11177042,1.0000484,0.29998191)"
     id="g3">
    <linearGradient
       x1="0.94679999"
       x2="117.54"
       y1="109.26"
       gradientUnits="userSpaceOnUse"
       y2="109.26"
       id="XMLID_7_">
      <stop
         offset="0"
         style="stop-color:#DFDFDF"
         id="stop6" />
      <stop
         offset=".2168"
         style="stop-color:#DADADA"
         id="stop8" />
      <stop
         offset=".4798"
         style="stop-color:#CBCBCB"
         id="stop10" />
      <stop
         offset=".7655"
         style="stop-color:#B3B3B3"
         id="stop12" />
      <stop
         offset="1"
         style="stop-color:#9A9999"
         id="stop14" />
    </linearGradient>
    <path
       d="m 59.245,81.758 c -16.198,0 -34.292,0.914 -49.354,7.532 -9.702,4.264 -8.862,9.426 -8.862,18.82 0,10.06 -1.553,16.55 8.862,21.13 15.062,6.61 33.156,7.53 49.354,7.53 16.196,0 34.29,-0.92 49.355,-7.53 10.41,-4.58 8.86,-11.05 8.86,-21.11 0,-9.402 0.84,-14.574 -8.86,-18.84 C 93.535,82.672 75.441,81.758 59.245,81.758"
       style="fill:url(#XMLID_7_)"
       id="path16" />
    <linearGradient
       x1="-248.47"
       x2="-246.69"
       gradientTransform="matrix(0,205.54,205.54,0,-94890,51048)"
       y1="461.95001"
       gradientUnits="userSpaceOnUse"
       y2="461.95001"
       id="XMLID_8_">
      <stop
         offset="0"
         style="stop-color:#FFFFFF"
         id="stop19" />
      <stop
         offset="1"
         style="stop-color:#000000"
         id="stop21" />
    </linearGradient>
    <path
       d="m 0.111,97.803 v 22.427 c 0,10.71 20.244,13.59 27.649,14.89 19.037,3.34 38.954,3.47 58.077,0.77 7.419,-1.05 32.533,-3.77 32.533,-15.17 1.19,-7.06 0,-15.25 0,-22.427 C 118.37,87.588 98.13,84.711 90.726,83.411 71.688,80.067 51.773,79.938 32.65,82.638 25.231,83.686 0.111,86.404 0.111,97.803 m 1.834,22.917 c 0,-7.11 -1.563,-16.01 0,-22.917 0,-8.952 21.52,-11.87 27.212,-12.829 19.661,-3.31 40.515,-3.31 60.175,0 5.69,0.959 27.208,3.877 27.208,12.829 0.73,3.217 0,7.437 0,10.717 0,3.74 0.83,8.54 0,12.2 0,8.96 -21.515,11.87 -27.208,12.83 -19.66,3.31 -40.515,3.31 -60.175,0 -5.694,-0.96 -27.212,-3.87 -27.212,-12.83"
       style="fill:url(#XMLID_8_)"
       id="path23" />
    <path
       d="m 115.27,94.8 c 0.68,4.564 0.05,9.65 0.05,14.25 0,3.57 1.22,9.36 -1.34,12.37 -4.28,5.01 -12.51,6.9 -18.582,8.33 -11.8,2.78 -24.058,3.65 -36.152,3.65 -11.452,0 -23.015,-0.8 -34.23,-3.22 -6.582,-1.41 -14.912,-3.24 -19.918,-8.14 -2.984,-2.93 -1.929,-7.76 -1.929,-11.54 0,-5.05 -0.742,-10.702 0.052,-15.701 -3.039,3.653 -1.275,12.391 -1.275,16.691 0,3.52 -1.218,9.31 1.302,12.28 4.13,4.88 12.11,6.75 17.999,8.18 12.385,2.99 25.292,3.9 38,3.9 12.086,0 24.31,-0.85 36.131,-3.47 6.382,-1.42 14.462,-3.22 19.302,-8 2.92,-2.88 1.86,-7.73 1.86,-11.44 0,-4.59 1.96,-14.257 -1.27,-18.14"
       style="fill:#c6c6c6"
       id="path25" />
    <path
       d="m 115.32,101.43 c 0,3.09 -9.53,6.56 -11.5,7.34 -13.09,5.23 -27.679,6.59 -41.646,6.78 -15.248,0.2 -31.057,-1.06 -45.492,-6.32 -0.784,-0.28 -14.697,-6.2 -13.492,-7.87 0.262,-0.36 11.674,4.18 12.449,4.4 15.042,4.24 31,5.15 46.551,4.98 13.896,-0.15 28.103,-1.23 41.5,-5.15 0.84,-0.24 11.63,-3.55 11.63,-4.16"
       style="fill:#e5e5e5"
       id="path27" />
    <path
       d="m 59.245,0.097 c -16.313,0 -34.572,0.979 -49.738,7.612 -10.256,4.484 -9.396,10.297 -9.396,20.062 0,9.221 -1.663,16.163 7.861,20.844 15.241,7.49 34.625,8.323 51.273,8.323 16.313,0 34.568,-0.981 49.735,-7.613 10.26,-4.485 9.4,-10.297 9.4,-20.062 0,-9.222 1.66,-16.164 -7.86,-20.844 C 95.274,0.93 75.892,0.097 59.245,0.097"
       style="fill:#f4f2f2"
       id="path29" />
    <path
       d="m 6.055,93.085 c 4.915,4.906 13.096,6.689 19.621,8.075 10.997,2.33 22.342,3.2 33.569,3.2 10.459,0 20.991,-0.78 31.273,-2.74 7.192,-1.37 16.502,-3.124 21.922,-8.535 -4.92,-4.909 -13.1,-6.691 -19.626,-8.078 -10.996,-2.335 -22.342,-3.196 -33.569,-3.196 -10.459,0 -20.991,0.771 -31.273,2.733 -7.192,1.373 -16.497,3.127 -21.917,8.541"
       style="fill:#7c7c7c"
       id="path31" />
    <linearGradient
       x1="0.94679999"
       x2="117.54"
       y1="68.888"
       gradientUnits="userSpaceOnUse"
       y2="68.888"
       id="XMLID_9_">
      <stop
         offset="0"
         style="stop-color:#DFDFDF"
         id="stop34" />
      <stop
         offset=".2168"
         style="stop-color:#DADADA"
         id="stop36" />
      <stop
         offset=".4798"
         style="stop-color:#CBCBCB"
         id="stop38" />
      <stop
         offset=".7655"
         style="stop-color:#B3B3B3"
         id="stop40" />
      <stop
         offset="1"
         style="stop-color:#9A9999"
         id="stop42" />
    </linearGradient>
    <path
       d="m 59.245,41.385 c -16.198,0 -34.292,0.912 -49.354,7.531 -9.702,4.263 -8.862,9.427 -8.862,18.821 0,10.065 -1.553,16.547 8.862,21.125 15.062,6.617 33.156,7.53 49.354,7.53 16.196,0 34.29,-0.913 49.355,-7.53 10.41,-4.576 8.86,-11.048 8.86,-21.108 0,-9.401 0.84,-14.573 -8.86,-18.838 C 93.535,42.297 75.441,41.385 59.245,41.385"
       style="fill:url(#XMLID_9_)"
       id="path44" />
    <linearGradient
       x1="-248.56"
       x2="-246.77"
       gradientTransform="matrix(0,205.55,205.55,0,-94893,51026)"
       y1="461.95001"
       gradientUnits="userSpaceOnUse"
       y2="461.95001"
       id="XMLID_10_">
      <stop
         offset="0"
         style="stop-color:#FFFFFF"
         id="stop47" />
      <stop
         offset="1"
         style="stop-color:#000000"
         id="stop49" />
    </linearGradient>
    <path
       d="m 0.111,57.429 v 22.43 c 0,10.707 20.243,13.585 27.649,14.884 19.037,3.343 38.954,3.471 58.077,0.772 7.422,-1.048 32.533,-3.765 32.533,-15.166 1.19,-7.066 0,-15.252 0,-22.431 C 118.37,47.212 98.13,44.335 90.726,43.035 71.688,39.692 51.773,39.563 32.65,42.262 25.231,43.311 0.111,46.029 0.111,57.429 m 1.834,22.92 c 0,-7.115 -1.564,-16.01 0,-22.92 0,-8.951 21.521,-11.871 27.212,-12.829 19.661,-3.311 40.515,-3.311 60.175,0 5.69,0.958 27.208,3.878 27.208,12.829 0.73,3.215 0,7.433 0,10.713 0,3.742 0.83,8.543 0,12.208 0,8.953 -21.518,11.871 -27.208,12.83 -19.66,3.31 -40.515,3.31 -60.175,0 C 23.464,92.22 1.945,89.302 1.945,80.349"
       style="fill:url(#XMLID_10_)"
       id="path51" />
    <path
       d="m 115.27,54.425 c 0.67,4.573 0.05,9.643 0.05,14.252 0,3.565 1.22,9.359 -1.34,12.368 -4.28,5.015 -12.51,6.905 -18.582,8.334 -11.8,2.777 -24.058,3.654 -36.152,3.654 -11.452,0 -23.015,-0.81 -34.23,-3.223 C 18.434,88.396 10.106,86.571 5.098,81.666 2.114,78.743 3.169,73.906 3.169,70.124 c 0,-5.056 -0.728,-10.69 0.052,-15.7 -3.041,3.654 -1.275,12.391 -1.275,16.694 0,3.514 -1.218,9.306 1.302,12.282 4.13,4.883 12.11,6.75 17.999,8.173 12.385,2.994 25.292,3.902 38,3.902 12.086,0 24.31,-0.848 36.131,-3.471 6.382,-1.414 14.462,-3.222 19.302,-8 2.92,-2.881 1.86,-7.727 1.86,-11.439 0,-4.586 1.96,-14.257 -1.27,-18.14"
       style="fill:#c6c6c6"
       id="path53" />
    <path
       d="m 115.32,61.056 c 0,3.097 -9.53,6.556 -11.5,7.343 C 90.73,73.625 76.141,74.982 62.174,75.171 46.926,75.378 31.117,74.118 16.682,68.857 15.899,68.572 1.982,62.652 3.19,60.984 c 0.264,-0.363 11.672,4.183 12.449,4.4 15.042,4.237 31,5.145 46.551,4.978 13.896,-0.147 28.103,-1.224 41.5,-5.145 0.84,-0.244 11.63,-3.553 11.63,-4.161"
       style="fill:#e5e5e5"
       id="path55" />
    <path
       d="m 6.055,52.496 c 4.914,4.908 13.096,6.691 19.621,8.076 10.997,2.334 22.344,3.195 33.569,3.195 10.459,0 20.991,-0.771 31.273,-2.732 7.192,-1.372 16.502,-3.125 21.922,-8.539 -4.92,-4.908 -13.1,-6.691 -19.626,-8.075 -10.996,-2.334 -22.342,-3.194 -33.569,-3.194 -10.459,0 -20.991,0.77 -31.273,2.732 -7.192,1.371 -16.497,3.124 -21.917,8.537"
       style="fill:#7c7c7c"
       id="path57" />
    <linearGradient
       x1="0.94679999"
       x2="117.54"
       y1="28.518"
       gradientUnits="userSpaceOnUse"
       y2="28.518"
       id="XMLID_11_">
      <stop
         offset="0"
         style="stop-color:#DFDFDF"
         id="stop60" />
      <stop
         offset=".2168"
         style="stop-color:#DADADA"
         id="stop62" />
      <stop
         offset=".4798"
         style="stop-color:#CBCBCB"
         id="stop64" />
      <stop
         offset=".7655"
         style="stop-color:#B3B3B3"
         id="stop66" />
      <stop
         offset="1"
         style="stop-color:#9A9999"
         id="stop68" />
    </linearGradient>
    <path
       d="m 59.245,1.013 c -16.198,0 -34.292,0.914 -49.354,7.533 -9.702,4.263 -8.862,9.425 -8.862,18.819 0,10.065 -1.553,16.549 8.862,21.125 15.062,6.619 33.156,7.533 49.354,7.533 16.196,0 34.29,-0.914 49.355,-7.533 10.41,-4.574 8.86,-11.047 8.86,-21.106 0,-9.401 0.84,-14.573 -8.86,-18.838 C 93.535,1.927 75.441,1.013 59.245,1.013"
       style="fill:url(#XMLID_11_)"
       id="path70" />
    <linearGradient
       x1="-248.64"
       x2="-246.86"
       gradientTransform="matrix(0,205.54,205.54,0,-94890,51003)"
       y1="461.95001"
       gradientUnits="userSpaceOnUse"
       y2="461.95001"
       id="XMLID_12_">
      <stop
         offset="0"
         style="stop-color:#FFFFFF"
         id="stop73" />
      <stop
         offset="1"
         style="stop-color:#000000"
         id="stop75" />
    </linearGradient>
    <path
       d="m 0.111,17.058 v 22.429 c 0,10.706 20.244,13.583 27.649,14.883 19.037,3.342 38.954,3.473 58.077,0.773 7.419,-1.048 32.533,-3.766 32.533,-15.165 1.19,-7.066 0,-15.253 0,-22.429 C 118.37,6.841 98.132,3.965 90.726,2.664 71.688,-0.678 51.773,-0.807 32.65,1.893 25.229,2.94 0.111,5.657 0.111,17.058 m 1.834,22.92 c 0,-7.116 -1.563,-16.009 0,-22.919 0,-8.954 21.519,-11.87 27.212,-12.83 19.661,-3.309 40.515,-3.309 60.175,0 5.693,0.96 27.208,3.876 27.208,12.83 0.73,3.216 0,7.432 0,10.713 0,3.742 0.83,8.542 0,12.206 0,8.952 -21.518,11.87 -27.208,12.83 -19.66,3.309 -40.515,3.309 -60.175,0 C 23.464,51.848 1.945,48.93 1.945,39.978"
       style="fill:url(#XMLID_12_)"
       id="path77" />
    <path
       d="m 115.27,14.055 c 0.69,4.561 0.05,9.649 0.05,14.248 0,3.565 1.22,9.359 -1.34,12.368 -4.28,5.016 -12.51,6.907 -18.582,8.336 -11.8,2.775 -24.058,3.653 -36.152,3.653 -11.452,0 -23.015,-0.808 -34.23,-3.22 C 18.434,48.023 10.104,46.199 5.098,41.294 2.114,38.37 3.169,33.533 3.169,29.752 3.169,24.709 2.42,19.051 3.221,14.056 0.182,17.71 1.946,26.445 1.946,30.748 c 0,3.516 -1.218,9.305 1.302,12.282 4.13,4.882 12.11,6.75 17.999,8.172 12.385,2.995 25.292,3.904 38,3.904 12.086,0 24.31,-0.848 36.131,-3.471 6.382,-1.415 14.462,-3.222 19.302,-8 2.92,-2.881 1.86,-7.725 1.86,-11.438 0,-4.59 1.96,-14.259 -1.27,-18.142"
       style="fill:#c6c6c6"
       id="path79" />
    <path
       d="m 115.32,20.686 c 0,3.094 -9.53,6.556 -11.5,7.341 C 90.73,33.253 76.141,34.612 62.174,34.801 46.926,35.008 31.117,33.746 16.682,28.485 15.898,28.2 1.985,22.284 3.19,20.614 c 0.262,-0.363 11.674,4.181 12.449,4.4 15.042,4.235 31,5.145 46.551,4.978 13.896,-0.148 28.103,-1.226 41.5,-5.145 0.84,-0.244 11.63,-3.557 11.63,-4.161"
       style="fill:#e5e5e5"
       id="path81" />
    <path
       d="m 6.406,14.686 c 15.486,8.523 36.565,8.748 53.676,8.583 11.762,-0.115 23.614,-0.8 35.222,-2.802 5.616,-0.97 14.366,-1.932 18.546,-6.401 C 108.16,9.316 99.467,7.761 92.414,6.473 80.549,4.307 68.414,3.652 56.369,3.77 45.55,3.876 34.588,4.46 23.972,6.657 18.28,7.833 9.974,9.489 6.406,14.686"
       style="fill:#eaeaea"
       id="path83" />
    <path
       d="m 75.179,7.957 c 8.388,0.161 16.835,0.947 24.991,2.965 0.51,0.126 8.39,2.143 8.39,2.402 0,-1.625 -12.061,-3.779 -13.161,-4.017 C 83.467,6.721 71.218,5.464 59.014,5.333 47.72,5.214 36.309,5.961 25.229,8.233 c -1.168,0.239 -12.772,2.226 -12.772,4.119 0,3.243 36.386,4.876 38.848,4.989 3.257,0.15 20.747,3.581 16.654,-2.647 C 64.02,8.7 69.725,7.852 75.179,7.957"
       style="fill:#f4f4f4"
       id="path85" />
    <path
       d="m 1.712,33.572 c 45.737,14.099 73.128,12.257 117.2,-1.649"
       style="fill:none;stroke:#9a9999"
       id="path87" />
    <path
       d="m 1.37,72.804 c 45.737,14.1 73.128,12.257 117.2,-1.649"
       style="fill:none;stroke:#9a9999"
       id="path89" />
    <path
       d="m 0.916,112.06 c 45.737,14.1 73.128,12.26 117.2,-1.65"
       style="fill:none;stroke:#9a9999"
       id="path91" />
  </g>
  <metadata
     id="metadata51">
    <rdf:RDF>
      <cc:Work>
        <dc:format>image/svg+xml</dc:format>
        <dc:type
           rdf:resource="http://purl.org/dc/dcmitype/StillImage" />
        <cc:license
           rdf:resource="http://creativecommons.org/publicdomain/zero/1.0/" />
        <dc:publisher>
          <cc:Agent
             rdf:about="http://openclipart.org/">
            <dc:title>Openclipart</dc:title>
          </cc:Agent>
        </dc:publisher>
        <dc:title></dc:title>
        <dc:date>2009-05-01T21:19:53</dc:date>
        <dc:description>Database symbol by Francesco 'Architetto' Rollandin.</dc:description>
        <dc:source>https://openclipart.org/detail/25697/architetto----database-by-anonymous-25697</dc:source>
        <dc:creator>
          <cc:Agent>
            <dc:title>Anonymous</dc:title>
          </cc:Agent>
        </dc:creator>
        <dc:subject>
          <rdf:Bag>
            <rdf:li>data</rdf:li>
            <rdf:li>database</rdf:li>
            <rdf:li>diagram</rdf:li>
            <rdf:li>scheme</rdf:li>
            <rdf:li>storage</rdf:li>
            <rdf:li>symbol</rdf:li>
          </rdf:Bag>
        </dc:subject>
      </cc:Work>
      <cc:License
         rdf:about="http://creativecommons.org/publicdomain/zero/1.0/">
        <cc:permits
           rdf:resource="http://creativecommons.org/ns#Reproduction" />
        <cc:permits
           rdf:resource="http://creativecommons.org/ns#Distribution" />
        <cc:permits
           rdf:resource="http://creativecommons.org/ns#DerivativeWorks" />
      </cc:License>
    </rdf:RDF>
  </metadata>
  <g
     id="g1135">
    <g
       transform="matrix(0.43713333,0,0,0.4669713,-5.1988417,-6.482829)"
       id="g5190"
       style="opacity:0.6">
      <rect
         width="3"
         height="5"
         x="45"
         y="43"
         id="rect4279"
         style="opacity:1;fill:url(#radialGradient5172-13);fill-opacity:1;stroke:none;stroke-width:1;stroke-linecap:butt;stroke-linejoin:miter;stroke-miterlimit:4;stroke-dasharray:none;stroke-dashoffset:1.2;stroke-opacity:1" />
      <rect
         width="3"
         height="5"
         x="-36"
         y="-48"
         transform="scale(-1)"
         id="rect5174"
         style="opacity:1;fill:url(#radialGradient5176-2);fill-opacity:1;stroke:none;stroke-width:1;stroke-linecap:butt;stroke-linejoin:miter;stroke-miterlimit:4;stroke-dasharray:none;stroke-dashoffset:1.2;stroke-opacity:1" />
      <rect
         width="9"
         height="5"
         x="36"
         y="43"
         id="rect5178"
         style="opacity:1;fill:url(#linearGradient5186-2);fill-opacity:1;stroke:none;stroke-width:1;stroke-linecap:butt;stroke-linejoin:miter;stroke-miterlimit:4;stroke-dasharray:none;stroke-dashoffset:1.2;stroke-opacity:1" />
    </g>
    <rect
       width="5.5529165"
       height="5.527442"
       rx="0.68782157"
       ry="0.68466616"
       x="9.7273436"
       y="9.7933168"
       id="rect2021"
       style="display:inline;fill:#ef2929;fill-opacity:1;stroke:#cc0000;stroke-width:0.459925;stroke-linecap:round;stroke-linejoin:round;stroke-miterlimit:4;stroke-dasharray:none;stroke-dashoffset:1.2;stroke-opacity:1" />
    <rect
       width="4.6260753"
       height="4.6048532"
       rx="0.22489022"
       ry="0.22385852"
       x="10.190763"
       y="10.254611"
       id="rect3795"
       style="display:inline;opacity:0.3;fill:none;fill-opacity:1;stroke:#ffffff;stroke-width:0.461545;stroke-linecap:round;stroke-linejoin:round;stroke-miterlimit:4;stroke-dasharray:none;stroke-dashoffset:1.2;stroke-opacity:1" />
    <path
       d="m 11.347283,11.352478 2.313038,2.302427"
       id="path4682"
       style="fill:none;fill-rule:evenodd;stroke:#ffffff;stroke-width:0.892;stroke-linecap:round;stroke-linejoin:miter;stroke-miterlimit:4;stroke-dasharray:none;stroke-opacity:1" />
    <path
       d="m 13.660321,11.352478 -2.313038,2.302427"
       id="path4684"
       style="display:inline;fill:none;fill-rule:evenodd;stroke:#ffffff;stroke-width:0.892;stroke-linecap:round;stroke-linejoin:miter;stroke-miterlimit:4;stroke-dasharray:none;stroke-opacity:1" />
  </g>
</svg>
