<?xml version="1.0" encoding="UTF-8" standalone="no"?>
<svg
   xmlns:dc="http://purl.org/dc/elements/1.1/"
   xmlns:cc="http://creativecommons.org/ns#"
   xmlns:rdf="http://www.w3.org/1999/02/22-rdf-syntax-ns#"
   xmlns:svg="http://www.w3.org/2000/svg"
   xmlns="http://www.w3.org/2000/svg"
   xmlns:sodipodi="http://sodipodi.sourceforge.net/DTD/sodipodi-0.dtd"
   xmlns:inkscape="http://www.inkscape.org/namespaces/inkscape"
   version="1.0"
   height="24"
   width="24"
   id="svg22"
   sodipodi:docname="Osm_element_multipolygon4.svg"
   inkscape:version="1.0 (4035a4fb49, 2020-05-01)">
  <defs
     id="defs26" />
  <sodipodi:namedview
     inkscape:document-rotation="0"
     pagecolor="#ffffff"
     bordercolor="#666666"
     borderopacity="1"
     objecttolerance="10"
     gridtolerance="10"
     guidetolerance="10"
     inkscape:pageopacity="0"
     inkscape:pageshadow="2"
     inkscape:window-width="1680"
     inkscape:window-height="987"
     id="namedview24"
     showgrid="true"
     inkscape:zoom="22.627417"
     inkscape:cx="8.6151667"
     inkscape:cy="8.0395622"
     inkscape:window-x="-8"
     inkscape:window-y="-8"
     inkscape:window-maximized="1"
     inkscape:current-layer="svg22">
    <inkscape:grid
       id="grid853"
       type="xygrid" />
  </sodipodi:namedview>
  <title
     id="title2">OpenStreetMap area element icon</title>
  <metadata
     id="metadata4">
    <rdf:RDF>
      <cc:Work
         rdf:about="">
        <dc:format>image/svg+xml</dc:format>
        <dc:type
           rdf:resource="http://purl.org/dc/dcmitype/StillImage" />
        <dc:title>OpenStreetMap area element icon</dc:title>
        <cc:license
           rdf:resource="http://creativecommons.org/licenses/by-sa/4.0/" />
        <dc:date>2014-03-10</dc:date>
        <dc:creator>
          <cc:Agent>
            <dc:title>https://wiki.openstreetmap.org/wiki/User:Moresby</dc:title>
          </cc:Agent>
        </dc:creator>
      </cc:Work>
      <cc:License
         rdf:about="http://creativecommons.org/licenses/by-sa/4.0/">
        <cc:permits
           rdf:resource="http://creativecommons.org/ns#Reproduction" />
        <cc:permits
           rdf:resource="http://creativecommons.org/ns#Distribution" />
        <cc:requires
           rdf:resource="http://creativecommons.org/ns#Notice" />
        <cc:requires
           rdf:resource="http://creativecommons.org/ns#Attribution" />
        <cc:permits
           rdf:resource="http://creativecommons.org/ns#DerivativeWorks" />
        <cc:requires
           rdf:resource="http://creativecommons.org/ns#ShareAlike" />
      </cc:License>
    </rdf:RDF>
  </metadata>
  <rect
     style="stroke-width:0.0944882"
     id="rect6"
     y="0.56692916"
     x="0.56692916"
     ry="3.023622"
     fill="#ffffff"
     stroke="none"
     height="22.866142"
     width="22.866142" />
  <rect
     id="rect18"
     y="0.56692916"
     x="0.56692916"
     ry="3.023622"
     stroke-width="1.13386"
     fill="none"
     stroke="#000000"
     height="22.866142"
     width="22.866142" />
  <path
     sodipodi:nodetypes="ccccccccc"
     style="fill:#bee6be;fill-opacity:1;stroke-width:1.16667"
     d="M 5,5 H 19 V 19 H 5 Z m 7,3 -3,4 7,2 z"
     fill="#bee6be"
     id="path4" />
  <path
     sodipodi:nodetypes="scssscssscssscssscssscssscss"
     style="stroke-width:1.1376"
     d="m 5.1673667,2.8892387 c 3.0328802,7.697e-4 3.0323028,4.5484087 -5.772e-4,4.547639 -3.0328799,0 -3.0334572,-4.547639 -5.774e-4,-4.547639 z m 13.6501123,0 c 3.032874,7.828e-4 3.032287,4.5484218 -5.88e-4,4.547639 -3.032872,0 -3.033459,-4.547639 -5.86e-4,-4.547639 z m 0,13.6523603 c 3.032874,7.83e-4 3.032287,4.548422 -5.88e-4,4.54764 -3.032872,0 -3.033459,-4.54764 -5.86e-4,-4.54764 z m -13.6501123,0 c 3.0328802,7.71e-4 3.0323028,4.548408 -5.772e-4,4.54764 -3.0328799,0 -3.0334572,-4.54764 -5.774e-4,-4.54764 z M 11.965617,6.8620355 c 1.516241,0 1.515653,2.2746035 -5.88e-4,2.2738208 -1.516241,0 -1.516829,-2.2738208 -5.88e-4,-2.2738208 z M 9.0164746,10.86319 c 1.5162484,0 1.5156704,2.274591 -5.772e-4,2.27382 -1.5162476,0 -1.5168249,-2.27382 -5.774e-4,-2.27382 z m 7.0087664,2.010877 c 1.516241,0 1.515654,2.274604 -5.87e-4,2.27382 -1.516241,0 -1.516829,-2.27382 -5.87e-4,-2.27382 z"
     fill="#000000"
     id="path6" />
</svg>
