<?xml version="1.0" encoding="UTF-8" standalone="no"?>
<!-- Created with Inkscape (http://www.inkscape.org/) -->

<svg
   xmlns:dc="http://purl.org/dc/elements/1.1/"
   xmlns:cc="http://creativecommons.org/ns#"
   xmlns:rdf="http://www.w3.org/1999/02/22-rdf-syntax-ns#"
   xmlns:svg="http://www.w3.org/2000/svg"
   xmlns="http://www.w3.org/2000/svg"
   xmlns:sodipodi="http://sodipodi.sourceforge.net/DTD/sodipodi-0.dtd"
   xmlns:inkscape="http://www.inkscape.org/namespaces/inkscape"
   width="4.5155554mm"
   height="4.5155554mm"
   viewBox="0 0 16 16"
   id="svg3616"
   version="1.1"
   inkscape:version="0.91 r13725"
   sodipodi:docname="02.svg">
  <defs
     id="defs3618" />
  <sodipodi:namedview
     id="base"
     pagecolor="#ffffff"
     bordercolor="#666666"
     borderopacity="1.0"
     inkscape:pageopacity="0.0"
     inkscape:pageshadow="2"
     inkscape:zoom="22.4"
     inkscape:cx="10.68096"
     inkscape:cy="1.3277302"
     inkscape:document-units="px"
     inkscape:current-layer="layer1"
     showgrid="true"
     fit-margin-top="0"
     fit-margin-left="0"
     fit-margin-right="0"
     fit-margin-bottom="0"
     inkscape:window-width="1680"
     inkscape:window-height="988"
     inkscape:window-x="-8"
     inkscape:window-y="-8"
     inkscape:window-maximized="1">
    <inkscape:grid
       type="xygrid"
       id="grid3644"
       originx="3.0589981"
       originy="3.0584999" />
  </sodipodi:namedview>
  <metadata
     id="metadata3621">
    <rdf:RDF>
      <cc:Work
         rdf:about="">
        <dc:format>image/svg+xml</dc:format>
        <dc:type
           rdf:resource="http://purl.org/dc/dcmitype/StillImage" />
        <dc:title></dc:title>
      </cc:Work>
    </rdf:RDF>
  </metadata>
  <g
     inkscape:label="Layer 1"
     inkscape:groupmode="layer"
     id="layer1"
     transform="translate(522.28571,261.35208)">
    <g
       transform="matrix(1.6191054,0,0,1.6189416,-523.20536,-261.35208)"
       id="g252">
      <path
         style="fill:#ffffff"
         inkscape:connector-curvature="0"
         d="M 1.75,0.2 C 1.209,0.2 0.768,0.64 0.768,1.18 l 0,7.523 c 0,0.54 0.441,0.979 0.982,0.979 l 7.52,0 c 0.541,0 0.98,-0.439 0.98,-0.979 l 0,-7.523 C 10.25,0.64 9.811,0.201 9.27,0.201 l -7.52,0 z"
         id="path254" />
      <path
         inkscape:connector-curvature="0"
         d="m 9.27,9.883 c 0.652,0 1.18,-0.527 1.18,-1.18 l 0,-7.523 C 10.449,0.527 9.922,0 9.27,0 L 1.75,0 C 1.098,0 0.568,0.527 0.568,1.18 l 0,7.523 c 0,0.652 0.529,1.18 1.182,1.18 l 7.52,0 z"
         id="path256" />
      <rect
         style="fill:#ffffff"
         x="3.6619999"
         y="1.545"
         width="1.2539999"
         height="0.898"
         id="rect258" />
      <path
         style="fill:#ffffff"
         inkscape:connector-curvature="0"
         d="M 6.332,5.42 C 6.213,5.42 6.117,5.324 6.117,5.205 l 0,-2.48 1.896,0 0.799,3.385 -0.003,0.218 0,1.496 c 0,0.115 -0.094,0.209 -0.209,0.209 l -1.844,0 C 6.641,8.033 6.547,7.939 6.547,7.824 l 0,-2.404 -0.199,0"
         id="path260" />
      <path
         style="fill:#ffffff"
         inkscape:connector-curvature="0"
         d="M 4.695,5.426 C 4.814,5.426 4.91,5.33 4.91,5.211 l 0,-2.482 -1.892,0 -0.801,3.384 0.004,0.221 0,1.496 c 0,0.115 0.094,0.209 0.209,0.209 l 1.842,0 c 0.117,0 0.211,-0.094 0.211,-0.209 l 0,-2.404 0.197,0"
         id="path262" />
      <rect
         style="fill:#ffffff"
         x="5.1880002"
         y="2.7290001"
         width="0.64999998"
         height="2.3050001"
         id="rect264" />
      <rect
         style="fill:#ffffff"
         x="6.1170001"
         y="1.545"
         width="1.256"
         height="0.898"
         id="rect266" />
    </g>
  </g>
</svg>
