<?xml version="1.0" encoding="UTF-8" standalone="no"?>
<!-- Generator: Adobe Illustrator 15.0.0, SVG Export Plug-In . SVG Version: 6.00 Build 0)  -->

<svg
   xmlns:dc="http://purl.org/dc/elements/1.1/"
   xmlns:cc="http://creativecommons.org/ns#"
   xmlns:rdf="http://www.w3.org/1999/02/22-rdf-syntax-ns#"
   xmlns:svg="http://www.w3.org/2000/svg"
   xmlns="http://www.w3.org/2000/svg"
   xmlns:sodipodi="http://sodipodi.sourceforge.net/DTD/sodipodi-0.dtd"
   xmlns:inkscape="http://www.inkscape.org/namespaces/inkscape"
   version="1.1"
   x="0px"
   y="0px"
   width="495.00113"
   height="402.08099"
   viewBox="0 0 495.00113 402.08099"
   enable-background="new 0 0 580 580"
   xml:space="preserve"
   id="svg2"
   inkscape:version="0.91 r13725"
   sodipodi:docname="02.svg"><metadata
   id="metadata21"><rdf:RDF><cc:Work
       rdf:about=""><dc:format>image/svg+xml</dc:format><dc:type
         rdf:resource="http://purl.org/dc/dcmitype/StillImage" /><dc:title></dc:title></cc:Work></rdf:RDF></metadata><defs
   id="defs19">
	

		
		
		
	</defs><sodipodi:namedview
   pagecolor="#ffffff"
   bordercolor="#666666"
   borderopacity="1"
   objecttolerance="10"
   gridtolerance="10"
   guidetolerance="10"
   inkscape:pageopacity="0"
   inkscape:pageshadow="2"
   inkscape:window-width="1680"
   inkscape:window-height="988"
   id="namedview17"
   showgrid="false"
   fit-margin-top="0"
   fit-margin-left="0"
   fit-margin-right="0"
   fit-margin-bottom="0"
   inkscape:zoom="1.1508772"
   inkscape:cx="328.1643"
   inkscape:cy="139.8993"
   inkscape:window-x="-8"
   inkscape:window-y="-8"
   inkscape:window-maximized="1"
   inkscape:current-layer="svg2" />

<path
   d="m 282.975,61.863 c 8.312,0 15.545,-3 21.703,-9.002 6.155,-6.002 9.234,-13.31 9.234,-21.922 0,-8.622 -3.079,-15.934 -9.234,-21.936 C 298.52,3.002 291.286,0 282.975,0 c -8.614,0 -15.921,3.002 -21.922,9.003 -6.002,6.002 -9.004,13.313 -9.002,21.936 -0.002,8.612 3,15.92 9.002,21.922 6.001,6.002 13.307,9.002 21.922,9.002 z"
   id="path11"
   style="fill:#501616"
   inkscape:connector-curvature="0" /><path
   d="m 26.296,246.986 83.56,0 c 3.389,0 6.465,-0.306 9.228,-0.916 7.081,-1.23 12.007,-3.386 14.778,-6.467 l 41.082,-45.703 48.014,46.168 -19.386,86.32 c -0.62,1.851 -0.93,3.391 -0.93,4.621 0,5.541 2,10.312 6.001,14.313 4.001,4.001 8.772,6.002 14.315,6.002 10.462,0 16.928,-5.387 19.399,-16.16 l 23.542,-104.789 c 2.771,-11.083 1.541,-19.24 -3.691,-24.472 l -42.011,-42.013 45.703,-53.085 29.544,29.543 c 3.08,3.071 6.621,4.607 10.623,4.607 5.231,0 10.307,-2.306 15.229,-6.917 L 369.31,90.024 c 2.46,-3.081 3.689,-6.467 3.691,-10.158 -0.002,-4.611 -1.616,-8.457 -4.848,-11.538 -3.23,-3.08 -7.002,-4.621 -11.312,-4.621 -4.312,0 -7.698,1.23 -10.158,3.691 L 306.981,107.113 258.967,59.1 c -3.691,-3.701 -8.307,-5.552 -13.849,-5.552 l -75.246,0 c -4.622,0 -8.623,1.851 -12.004,5.552 l -51.704,59.552 c -3.691,3.071 -5.538,6.917 -5.537,11.538 -10e-4,4.311 1.537,8.005 4.614,11.081 3.075,3.075 6.769,4.613 11.081,4.613 4.611,0 8.613,-1.846 12.003,-5.537 l 48.014,-55.86 27.697,0.465 -105.72,122.796 -71.555,-0.466 c -5.851,0 -10.777,1.849 -14.779,5.545 -4,3.695 -6.001,8.465 -6.001,14.307 0,5.541 2.001,10.234 6.001,14.081 4.001,3.847 8.773,5.771 14.314,5.771 z"
   id="path13"
   style="fill:#501616"
   inkscape:connector-curvature="0" /><path
   d="m 490.931,87.61 c 4.158,-2.724 5.321,-8.302 2.599,-12.46 -2.723,-4.157 -8.3,-5.323 -12.46,-2.599 l -113,74 c -3.451,2.26 -4.924,6.576 -3.574,10.475 l 73.093,211.055 -420.589,0 c -9.389,0 -17,7.611 -17,17 0,9.389 7.611,17 17,17 l 457,0 c 9.389,0 17,-7.611 17,-17 0,-9.389 -7.611,-17 -17,-17 l -17.362,0 -72.837,-210.315 107.13,-70.156 z"
   id="path15"
   style="fill:#ff0000"
   inkscape:connector-curvature="0" />
</svg>