<?xml version="1.0" encoding="UTF-8" standalone="no"?>
<!-- Generator: Adobe Illustrator 13.0.2, SVG Export Plug-In . SVG Version: 6.00 Build 14948)  -->

<svg
   xmlns:dc="http://purl.org/dc/elements/1.1/"
   xmlns:cc="http://creativecommons.org/ns#"
   xmlns:rdf="http://www.w3.org/1999/02/22-rdf-syntax-ns#"
   xmlns:svg="http://www.w3.org/2000/svg"
   xmlns="http://www.w3.org/2000/svg"
   xmlns:sodipodi="http://sodipodi.sourceforge.net/DTD/sodipodi-0.dtd"
   xmlns:inkscape="http://www.inkscape.org/namespaces/inkscape"
   version="1.1"
   id="Layer_1"
   x="0px"
   y="0px"
   width="16"
   height="16"
   viewBox="0 0 16 16"
   xml:space="preserve"
   inkscape:version="0.91 r13725"
   sodipodi:docname="horse_riding.svg"><metadata
   id="metadata17"><rdf:RDF><cc:Work
       rdf:about=""><dc:format>image/svg+xml</dc:format><dc:type
         rdf:resource="http://purl.org/dc/dcmitype/StillImage" /><dc:title /><cc:license
         rdf:resource="http://creativecommons.org/publicdomain/zero/1.0/" /></cc:Work><cc:License
       rdf:about="http://creativecommons.org/publicdomain/zero/1.0/"><cc:permits
         rdf:resource="http://creativecommons.org/ns#Reproduction" /><cc:permits
         rdf:resource="http://creativecommons.org/ns#Distribution" /><cc:permits
         rdf:resource="http://creativecommons.org/ns#DerivativeWorks" /></cc:License></rdf:RDF></metadata><defs
   id="defs15">
	
	
	
	
</defs><sodipodi:namedview
   pagecolor="#ffffff"
   bordercolor="#666666"
   borderopacity="1"
   objecttolerance="10"
   gridtolerance="10"
   guidetolerance="10"
   inkscape:pageopacity="0"
   inkscape:pageshadow="2"
   inkscape:window-width="1680"
   inkscape:window-height="988"
   id="namedview13"
   showgrid="true"
   inkscape:zoom="30.565246"
   inkscape:cx="3.9740921"
   inkscape:cy="6.4235773"
   inkscape:window-x="-8"
   inkscape:window-y="-8"
   inkscape:window-maximized="1"
   inkscape:current-layer="Layer_1"><inkscape:grid
     type="xygrid"
     id="grid4149" /></sodipodi:namedview>
<path
   inkscape:connector-curvature="0"
   id="path7"
   d="M 1.652496,-4.6e-7 C 0.741342,-4.6e-7 0,0.74236954 0,1.6545495 L 0,14.34546 C 0,15.25871 0.741342,16 1.652496,16 l 12.691768,0 C 15.258523,16 16,15.25871 16,14.34546 L 16,1.6545495 C 16,0.74236954 15.258658,-4.6e-7 14.344264,-4.6e-7 l -12.691768,0 z"
   style="fill:#ffffff;stroke:none;stroke-opacity:1" /><path
   inkscape:connector-curvature="0"
   id="path9"
   d="m 6.9213522,3.0774732 c 0.6174871,0 1.1169764,-0.4874454 1.1169764,-1.0876954 0,-0.6051683 -0.4996464,-1.09246583 -1.1169764,-1.09246583 -0.6137158,0 -1.1121051,0.48745693 -1.1121051,1.09246583 0,0.60025 0.4983893,1.0876954 1.1121051,1.0876954 z"
   style="fill:#000000;stroke:none;stroke-opacity:1" /><path
   inkscape:connector-curvature="0"
   id="path11"
   d="m 13.611819,6.1118426 -1.014553,-0.1941 -0.590563,1.17362 c 0.09598,0.0221 0.195055,0.0327 0.296294,0.0327 0.629709,1.4e-4 1.156963,-0.42801 1.308822,-1.01219 z m -12.6059548,1.98146 c 0,-0.77828 0.7683797,-1.41092 1.5467077,-1.41092 l 2.968607,0 0,-2.13222 c 0,-0.53046 0.428175,-0.95861 0.959614,-0.95861 0.530494,0 0.958669,0.42815 0.958669,0.95861 l 0,0.33002 1.414246,0.36173 c 0.246754,0.057 0.404957,0.3037 0.349073,0.55044 -0.05588,0.25092 -0.303718,0.40601 -0.553711,0.35013 l -1.209608,-0.28372 0,0.82362 1.423695,0 3.8955521,-4.03026 -0.115953,1.04822 1.918283,1.27486 c 0.316407,0.18141 0.43128,0.59052 0.250939,0.90691 -0.14241,0.25308 -0.426016,0.37537 -0.692882,0.32583 l -0.154964,-0.0285 c -0.184526,0.74656 -0.859455,1.29699 -1.661,1.29699 -0.158204,0 -0.312087,-0.0232 -0.457737,-0.0622 l -1.453121,2.9684104 0,4.072515 c 0,0.34905 -0.286843,0.63277 -0.6359161,0.63277 -0.349073,0 -0.632813,-0.28372 -0.632813,-0.63277 l 0,-4.165375 -3.206858,0 -0.573689,0.981675 1.200158,2.86083 c 0.175077,0.3068 0.06533,0.69176 -0.237305,0.86358 -0.306822,0.17399 -0.691802,0.0653 -0.866878,-0.23729 l -1.400478,-3.30247 0,-1.051325 -0.626469,0.985995 0,3.06438 c 0,0.34905 -0.28374,0.63277 -0.632813,0.63277 -0.349073,0 -0.635918,-0.28372 -0.635918,-0.63277 l 0,-3.53896 0.52415,-0.820385 0,-2.7755204 -0.659717,0.79717 0,1.8477132 -1.0018637,0 z"
   style="fill:#000000;stroke:none;stroke-opacity:1"
   sodipodi:nodetypes="ccccccsscssscccccccccccccsccssscccccccccsssccccccs" />
<path
   inkscape:connector-curvature="0"
   id="path11-8"
   d="m 10.764184,9.1499062 2.264298,4.9904528 c 0.144223,0.317863 0.0074,0.694714 -0.308916,0.842234 -0.316364,0.147541 -0.696713,0.01181 -0.840943,-0.306047 L 9.6092971,9.6753199 C 10.001075,9.4543662 10.355997,9.2888636 10.764184,9.1499062 Z"
   style="fill:#000000;stroke:none;stroke-opacity:1"
   sodipodi:nodetypes="cssscc" /></svg>