<?xml version="1.0" encoding="UTF-8" standalone="no"?>
<!-- Created with Inkscape (http://www.inkscape.org/) -->

<svg
   xmlns:dc="http://purl.org/dc/elements/1.1/"
   xmlns:cc="http://creativecommons.org/ns#"
   xmlns:rdf="http://www.w3.org/1999/02/22-rdf-syntax-ns#"
   xmlns:svg="http://www.w3.org/2000/svg"
   xmlns="http://www.w3.org/2000/svg"
   xmlns:sodipodi="http://sodipodi.sourceforge.net/DTD/sodipodi-0.dtd"
   xmlns:inkscape="http://www.inkscape.org/namespaces/inkscape"
   version="1.0"
   width="534.52161"
   height="416.0217"
   id="svg2"
   sodipodi:version="0.32"
   inkscape:version="0.91 r13725"
   sodipodi:docname="theater4.svg"
   inkscape:output_extension="org.inkscape.output.svg.inkscape">
  <metadata
     id="metadata2975">
    <rdf:RDF>
      <cc:Work
         rdf:about="">
        <dc:format>image/svg+xml</dc:format>
        <dc:type
           rdf:resource="http://purl.org/dc/dcmitype/StillImage" />
        <cc:license
           rdf:resource="http://creativecommons.org/publicdomain/zero/1.0/" />
        <dc:language>en</dc:language>
        <dc:title></dc:title>
      </cc:Work>
      <cc:License
         rdf:about="http://creativecommons.org/publicdomain/zero/1.0/">
        <cc:permits
           rdf:resource="http://creativecommons.org/ns#Reproduction" />
        <cc:permits
           rdf:resource="http://creativecommons.org/ns#Distribution" />
        <cc:permits
           rdf:resource="http://creativecommons.org/ns#DerivativeWorks" />
      </cc:License>
    </rdf:RDF>
  </metadata>
  <sodipodi:namedview
     inkscape:window-height="988"
     inkscape:window-width="1680"
     inkscape:pageshadow="2"
     inkscape:pageopacity="0.0"
     guidetolerance="10.0"
     gridtolerance="10.0"
     objecttolerance="10.0"
     borderopacity="1.0"
     bordercolor="#666666"
     pagecolor="#ffffff"
     id="base"
     inkscape:zoom="1.3034483"
     inkscape:cx="331.5135"
     inkscape:cy="162.28064"
     inkscape:window-x="-8"
     inkscape:window-y="-8"
     inkscape:current-layer="svg2"
     showgrid="false"
     fit-margin-top="0"
     fit-margin-left="0"
     fit-margin-right="0"
     fit-margin-bottom="0"
     inkscape:window-maximized="1" />
  <defs
     id="defs4">
    <inkscape:perspective
       sodipodi:type="inkscape:persp3d"
       inkscape:vp_x="0 : 290 : 1"
       inkscape:vp_y="0 : 1000 : 0"
       inkscape:vp_z="580 : 290 : 1"
       inkscape:persp3d-origin="290 : 193.33333 : 1"
       id="perspective2441" />
    <inkscape:perspective
       id="perspective3452"
       inkscape:persp3d-origin="30 : 20 : 1"
       inkscape:vp_z="60 : 30 : 1"
       inkscape:vp_y="0 : 1000 : 0"
       inkscape:vp_x="0 : 30 : 1"
       sodipodi:type="inkscape:persp3d" />
    <symbol
       viewBox="244.5 110 489 219.9"
       id="symbol-university">
      <path
         id="path4460"
         d="m 79,43 57,119 c 0,0 21,-96 104,-96 83,0 124,106 124,106 L 407,39 489,22 0,17 79,43 Z"
         inkscape:connector-curvature="0" />
      <path
         id="path4462"
         d="M 94,176 73,215"
         inkscape:connector-curvature="0"
         style="fill:none;stroke:#000000;stroke-width:20" />
      <path
         id="path4464"
         d="M 300,19 C 300,29.5 277.4,38 249.5,38 221.6,38 199,29.5 199,19 199,8.5 221.6,0 249.5,0 277.4,0 300,8.5 300,19 Z"
         inkscape:connector-curvature="0" />
      <path
         id="path4466"
         d="M 112,216 96,178 64,88 C 64,88 55,80 60,53 65,26 76,29 76,29"
         ill="none"
         inkscape:connector-curvature="0"
         style="stroke:#000000;stroke-width:20" />
    </symbol>
    <inkscape:perspective
       id="perspective4471"
       inkscape:persp3d-origin="372.04724 : 350.78739 : 1"
       inkscape:vp_z="744.09448 : 526.18109 : 1"
       inkscape:vp_y="0 : 1000 : 0"
       inkscape:vp_x="0 : 526.18109 : 1"
       sodipodi:type="inkscape:persp3d" />
    <inkscape:perspective
       id="perspective4668"
       inkscape:persp3d-origin="6 : 4 : 1"
       inkscape:vp_z="12 : 6 : 1"
       inkscape:vp_y="0 : 1000 : 0"
       inkscape:vp_x="0 : 6 : 1"
       sodipodi:type="inkscape:persp3d" />
    <inkscape:perspective
       id="perspective2543"
       inkscape:persp3d-origin="372.04724 : 350.78739 : 1"
       inkscape:vp_z="744.09448 : 526.18109 : 1"
       inkscape:vp_y="0 : 1000 : 0"
       inkscape:vp_x="0 : 526.18109 : 1"
       sodipodi:type="inkscape:persp3d" />
  </defs>
  <rect
     style="color:#000000;clip-rule:nonzero;display:inline;overflow:visible;visibility:visible;opacity:1;isolation:auto;mix-blend-mode:normal;color-interpolation:sRGB;color-interpolation-filters:linearRGB;solid-color:#000000;solid-opacity:1;fill:#ffffff;fill-opacity:1;fill-rule:evenodd;stroke:#000000;stroke-width:4;stroke-linecap:butt;stroke-linejoin:miter;stroke-miterlimit:4;stroke-dasharray:none;stroke-dashoffset:0;stroke-opacity:1;color-rendering:auto;image-rendering:auto;shape-rendering:auto;text-rendering:auto;enable-background:accumulate"
     id="rect4160"
     width="168.01587"
     height="110.47619"
     x="288.46561"
     y="93.799477" />
  <rect
     style="color:#000000;clip-rule:nonzero;display:inline;overflow:visible;visibility:visible;opacity:1;isolation:auto;mix-blend-mode:normal;color-interpolation:sRGB;color-interpolation-filters:linearRGB;solid-color:#000000;solid-opacity:1;fill:#ffffff;fill-opacity:1;fill-rule:evenodd;stroke:#000000;stroke-width:4;stroke-linecap:butt;stroke-linejoin:miter;stroke-miterlimit:4;stroke-dasharray:none;stroke-dashoffset:0;stroke-opacity:1;color-rendering:auto;image-rendering:auto;shape-rendering:auto;text-rendering:auto;enable-background:accumulate"
     id="rect4162"
     width="120.44974"
     height="74.417992"
     x="291.53439"
     y="224.22276" />
  <path
     style="fill:#ffffff;fill-opacity:1;fill-rule:evenodd;stroke:#000000;stroke-width:20;stroke-linecap:butt;stroke-linejoin:miter;stroke-miterlimit:4;stroke-dasharray:none;stroke-opacity:1"
     d="m 242.1591,49.078223 c -9.66651,0.0211 -20.42752,7.75494 -27.28125,14.21875 -29.30327,22.49956 -50.74591,38.617837 -99.71875,51.812497 -18.606255,5.62024 -56.493915,-1.22039 -93.656255,-3.84375 -23.727041,-3.69829 -3.39165,38.67497 -0.21875,55.90625 21.098259,66.07481 45.37477,132.95229 88.250005,188.34375 24.45161,27.21272 58.26924,50.93253 96.1875,50.5 31.33394,-2.6127 57.19566,-27.77299 64.53125,-57.75 0.63361,-2.02339 1.21909,-4.0723 1.75,-6.125 0.84079,-3.1428 1.65225,-6.27899 2.40625,-9.4375 -4.62443,-7.21025 -8.11659,-15.16491 -10.15625,-23.5 -0.6336,-2.02338 -1.18784,-4.0723 -1.71875,-6.125 -17.04374,-63.70793 -15.99353,-130.75362 -8.59375,-195.78125 2.15502,-10.436447 4.77127,-20.768327 7.59375,-31.031247 -1.96127,-6.52027 -3.90503,-13.05279 -5.78125,-19.59375 -3.76213,-5.52422 -8.53034,-7.60477 -13.59375,-7.59375 z"
     id="path3327"
     inkscape:connector-curvature="0" />
  <path
     style="opacity:1;fill:#333333;fill-opacity:1;fill-rule:evenodd;stroke:#333333;stroke-width:20;stroke-linecap:butt;stroke-linejoin:miter;stroke-miterlimit:4;stroke-dasharray:none;stroke-opacity:1"
     d="m 290.9091,18.109473 c -7.75845,1.99335 -6.65216,12.10518 -9.21875,18 -11.44586,36.58947 -22.94424,73.821137 -23.40625,112.499997 -3.52027,58.1076 -1.26601,118.13291 18.96875,173.09375 11.94252,24.79259 40.55421,42.6954 68.3125,35.6875 39.13884,-8.07086 70.3371,-37.51733 90.65625,-70.84375 38.09398,-59.52032 59.59666,-127.4029 79.09375,-194.812497 0.37298,-3.58477 1.83659,-9.10048 -0.34375,-11.6875 -18.78901,1.3028 -37.70899,3.78469 -56.59375,5.4375 -20.57984,1.95747 -41.6362,0.0333 -60.90625,-7.5 -34.38701,-11.39078 -64.68087,-31.89944 -92.25,-55.03125 -4.2144,-2.81934 -9.15075,-5.033101 -14.3125,-4.84375 z m 61.5,91.312497 c 16.30541,-0.52278 23.75451,22.783 12.65625,33.4375 -14.94918,16.1141 -38.41477,26.93637 -60.5,21.21875 -13.56338,-4.8754 -21.2342,-24.42699 -10.90625,-35.875 16.26698,-14.12881 39.62952,-11.73933 58.75,-18.78125 z m 65.96875,14.5 c 17.11702,-0.50918 29.59003,15.67127 31.8125,31.34375 4.47036,10.78839 12.37873,22.91644 6.78125,34.8125 -4.10797,8.9602 -15.75028,10.60979 -24.15625,7.3125 -20.10907,-4.6716 -33.51086,-24.57293 -33.90625,-44.78125 -1.82808,-11.59203 3.6182,-26.45785 16.5,-28.375 0.97733,-0.19021 1.96884,-0.29289 2.96875,-0.3125 z m -66.40625,105.5625 c 21.12539,0.34468 40.43592,13.22463 52.8125,29.65625 7.86509,13.49363 4.11776,35.13799 -11.84375,40.65625 -10.96264,2.41607 -18.21597,-8.08662 -26.9375,-12.59375 -13.96503,-8.9439 -31.80484,-9.06012 -47.0625,-3.71875 -7.50701,2.35216 -17.68062,0.64343 -20.53125,-7.625 -4.87856,-11.50286 2.07189,-24.81645 12.125,-30.9375 11.84978,-9.1388 26.31589,-15.38895 41.4375,-15.4375 z"
     id="path3331"
     inkscape:connector-curvature="0" />
  <path
     sodipodi:nodetypes="ccccccccccc"
     id="path3354"
     d="m 262.51945,303.08799 c -17.04374,-63.70793 -15.96456,-130.77757 -8.56478,-195.8052 6.27884,-30.407617 16.27806,-59.851497 24.82708,-89.655377 10.94439,-16.0704455 30.41032,-3.23905 40.8541,6.61056 29.30327,22.49956 50.76107,38.63246 99.73391,51.82712 18.60624,5.62024 56.48034,-1.23286 93.64268,-3.85622 23.72704,-3.69829 3.41363,38.678837 0.24073,55.910117 -21.09826,66.07482 -45.40258,132.93375 -88.27782,188.32521 -24.45161,27.21271 -58.25363,50.95197 -96.17189,50.51944 -31.33394,-2.61271 -57.203,-27.78273 -64.53859,-57.75974 -0.6336,-2.02339 -1.21451,-4.06321 -1.74542,-6.11591 z"
     style="opacity:1;fill:none;fill-opacity:1;fill-rule:evenodd;stroke:#333333;stroke-width:20;stroke-linecap:butt;stroke-linejoin:miter;stroke-miterlimit:4;stroke-dasharray:none;stroke-opacity:1"
     inkscape:connector-curvature="0" />
  <path
     style="fill:#000000;fill-opacity:1"
     d="m 163.18776,337.38633 c -15.58748,-2.16514 -30.47705,-11.40864 -37.97298,-25.45175 8.30075,-9.22258 20.15463,0.12007 29.84602,1.0014 22.60382,2.85779 43.72857,-12.00492 54.73953,-30.87822 7.13799,-6.84119 8.06807,-25.49854 20.48231,-22.7628 8.95332,4.95513 7.26619,16.35659 5.07908,24.63977 -1.41566,11.04444 -6.78311,20.97417 -13.878,29.39427 -5.58926,7.48599 -11.13937,16.05207 -20.80631,18.5313 -12.36214,2.29995 -24.66344,8.14265 -37.48965,5.52603 z M 107.96013,216.54334 c -11.915505,-7.03343 -26.278135,-11.3583 -34.72462,-23.03371 -1.88389,-13.28322 14.873245,-21.94474 26.019795,-16.75696 13.126325,4.10687 25.539315,11.62351 33.846185,22.75681 5.5137,10.01742 -4.05662,25.83532 -15.96439,20.67562 -3.15785,-0.95437 -6.10053,-2.47227 -9.17697,-3.64176 z m 75.99729,-24.59207 c -8.33385,-10.94476 -8.41198,-29.99624 4.5392,-37.50551 8.50605,-5.61925 20.71278,-9.48138 29.75367,-2.84912 4.74569,9.77973 -3.61235,18.74314 -7.38371,27.20438 -2.27866,8.5463 -7.88213,18.14332 -17.64743,18.99456 -3.93183,0.0974 -7.42284,-2.51404 -9.26173,-5.84431 z"
     id="path3360"
     inkscape:connector-curvature="0" />
</svg>
