<?xml version="1.0" encoding="UTF-8" standalone="no"?>
<!-- Created with Inkscape (http://www.inkscape.org/) -->

<svg
   xmlns:dc="http://purl.org/dc/elements/1.1/"
   xmlns:cc="http://creativecommons.org/ns#"
   xmlns:rdf="http://www.w3.org/1999/02/22-rdf-syntax-ns#"
   xmlns:svg="http://www.w3.org/2000/svg"
   xmlns="http://www.w3.org/2000/svg"
   xmlns:sodipodi="http://sodipodi.sourceforge.net/DTD/sodipodi-0.dtd"
   xmlns:inkscape="http://www.inkscape.org/namespaces/inkscape"
   width="16"
   height="16"
   viewBox="0 0 16 16"
   id="svg2"
   version="1.1"
   inkscape:version="0.91 r13725"
   sodipodi:docname="dog16.svg">
  <defs
     id="defs4" />
  <sodipodi:namedview
     id="base"
     pagecolor="#ffffff"
     bordercolor="#666666"
     borderopacity="1.0"
     inkscape:pageopacity="0.0"
     inkscape:pageshadow="2"
     inkscape:zoom="89.6"
     inkscape:cx="2.7186998"
     inkscape:cy="6.3488206"
     inkscape:document-units="px"
     inkscape:current-layer="layer1"
     showgrid="true"
     units="px"
     inkscape:window-width="1680"
     inkscape:window-height="988"
     inkscape:window-x="-8"
     inkscape:window-y="-8"
     inkscape:window-maximized="1">
    <inkscape:grid
       type="xygrid"
       id="grid4136" />
  </sodipodi:namedview>
  <metadata
     id="metadata7">
    <rdf:RDF>
      <cc:Work
         rdf:about="">
        <dc:format>image/svg+xml</dc:format>
        <dc:type
           rdf:resource="http://purl.org/dc/dcmitype/StillImage" />
        <dc:title></dc:title>
        <cc:license
           rdf:resource="http://creativecommons.org/publicdomain/zero/1.0/" />
      </cc:Work>
      <cc:License
         rdf:about="http://creativecommons.org/publicdomain/zero/1.0/">
        <cc:permits
           rdf:resource="http://creativecommons.org/ns#Reproduction" />
        <cc:permits
           rdf:resource="http://creativecommons.org/ns#Distribution" />
        <cc:permits
           rdf:resource="http://creativecommons.org/ns#DerivativeWorks" />
      </cc:License>
    </rdf:RDF>
  </metadata>
  <g
     inkscape:label="Layer 1"
     inkscape:groupmode="layer"
     id="layer1"
     transform="translate(0,-1036.3622)">
    <rect
       style="color:#000000;clip-rule:nonzero;display:inline;overflow:visible;visibility:visible;opacity:1;isolation:auto;mix-blend-mode:normal;color-interpolation:sRGB;color-interpolation-filters:linearRGB;solid-color:#000000;solid-opacity:1;fill:#ffffff;fill-opacity:1;fill-rule:evenodd;stroke:none;stroke-width:2;stroke-linecap:round;stroke-linejoin:miter;stroke-miterlimit:4;stroke-dasharray:none;stroke-dashoffset:0;stroke-opacity:1;color-rendering:auto;image-rendering:auto;shape-rendering:auto;text-rendering:auto;enable-background:accumulate"
       id="rect4165"
       width="16"
       height="16"
       x="0"
       y="1036.63"
       ry="0" />
    <path
       style="fill:none;fill-rule:evenodd;stroke:#000000;stroke-width:0.85036296px;stroke-linecap:butt;stroke-linejoin:miter;stroke-opacity:1"
       d="m 7.4304287,1044.9947 c 0.4961085,-0.2907 0.1877991,-1.0227 0.4405821,-1.4951 0.096734,-0.4889 0.4182304,-0.8681 0.6965273,-1.2469 0.4135101,-0.3543 0.7982703,-0.7663 1.2829231,-1.0088 0.4821048,-0.1911 0.4156248,-0.8882 0.2088688,-1.2788 -0.4175458,-0.2987 -0.609926,-0.9332 -0.3189898,-1.3856 0.2792648,-0.4888 0.9695608,-0.7867 1.6068828,-0.8003 0.808586,0 0.880243,0 1.268853,0.239 0.481936,0.5266 0.595978,1.0427 0.384574,1.6971 -0.317863,0.3687 -0.677342,0.7832 -0.756868,1.3043 0.0046,0.5135 0.388156,0.9616 0.733813,1.2551 0.412059,0.3167 0.73974,0.7354 1.071795,1.1414 0.23997,0.527 0.252532,1.1247 0.360545,1.6886 0.09019,1.2847 -0.0048,2.5343 0.05764,3.7006 0.01303,0.4873 -0.05145,1.8448 -0.05267,2.3324"
       id="path4156"
       inkscape:connector-curvature="0"
       sodipodi:nodetypes="ccccccccccccccc" />
    <path
       style="fill:#000000;fill-rule:evenodd;stroke:#000000;stroke-width:0.68504059px;stroke-linecap:butt;stroke-linejoin:miter;stroke-opacity:1"
       d="m 1.2035753,1046.3413 c -0.028851,-0.1229 0.9662055,-1.2913 1.3616892,-1.916 0.3541719,-0.346 1.1123639,-0.7213 1.613312,-0.4547 0.5625656,0.3731 1.0349257,1.0523 1.3260172,1.6822 0.2928694,0.3915 0.8390821,0.3255 1.2916002,0.359 0.6509395,0 1.3820137,0.055 1.9285324,-0.3624 0.3894218,-0.415 1.1374238,-0.8028 1.5248327,-0.6572 0.511507,0.36 0.398256,1.1972 0.03018,1.7313 -0.4156611,0.4102 -0.5723416,0.9719 -0.7236419,1.5252 -0.026122,0.791 -0.1641829,1.58 -0.2118186,2.3675 0.00178,0.7329 -0.8474634,0.9305 -1.0312298,0.1998 -0.3967878,-0.4545 -0.4390395,-1.0452 -0.6165058,-1.5964 -0.5221471,-0.4344 -1.3717228,-0.1153 -1.6419411,0.5151 -0.3946987,0.3778 -0.5403758,1.0759 -1.0510789,1.359 -0.5039298,0.5422 -1.4370171,0.2807 -1.5057632,-0.5241 -0.153195,-0.5964 -0.1113369,-1.2526 -0.026569,-1.8607 0.087413,-0.6986 0.2860837,-1.37 0.2305394,-2.0845 -0.2972165,-0.4364 -1.0801457,-0.2149 -1.4796139,0.1765 -0.3814696,0.2449 -0.9120557,-0.2455 -1.0185488,-0.4601 z"
       id="path4160"
       inkscape:connector-curvature="0"
       sodipodi:nodetypes="cccccccccccccccccccc" />
    <rect
       style="color:#000000;clip-rule:nonzero;display:inline;overflow:visible;visibility:visible;opacity:1;isolation:auto;mix-blend-mode:normal;color-interpolation:sRGB;color-interpolation-filters:linearRGB;solid-color:#000000;solid-opacity:1;fill:#952d0f;fill-opacity:1;fill-rule:evenodd;stroke:none;stroke-width:2;stroke-linecap:round;stroke-linejoin:miter;stroke-miterlimit:4;stroke-dasharray:none;stroke-dashoffset:0;stroke-opacity:1;color-rendering:auto;image-rendering:auto;shape-rendering:auto;text-rendering:auto;enable-background:accumulate"
       id="rect4163"
       width="2.210346"
       height="4.5430746"
       x="10.883937"
       y="1047.0309"
       ry="0.71712559" />
  </g>
</svg>
