<?xml version="1.0" encoding="UTF-8" standalone="no"?>
<!-- Created with Inkscape (http://www.inkscape.org/) -->

<svg
   width="16"
   height="16"
   viewBox="0 0 16 16"
   version="1.1"
   id="svg1"
   xmlns="http://www.w3.org/2000/svg"
   xmlns:svg="http://www.w3.org/2000/svg">
  <defs
     id="defs1" />
  <g
     id="layer1">
    <g
       id="g7">
      <path
         style="fill:none;stroke:#ffffff;stroke-width:1px"
         d="m 10.5,16 v -2.5 h 5 V 6.996 C 15.25,5.25 15,4 12.5,2.996 V 0.5 h -4 v 2 H 5 C 1.978,2.814 0.7109,4.188 0.5,7 v 6.5 h 6 V 16"
         id="path1" />
      <path
         style="fill:none;stroke:#ffffff;stroke-width:1px"
         d="m 9,2.5 h 3.75"
         id="path7" />
    </g>
    <g
       id="g30">
      <path
         style="fill:#ffffff;stroke:#000000;stroke-linecap:square"
         id="rect1"
         d="m 5,3.5 h 5.5 c 2.21,0 4,1.291 4,3.5 v 5.5 H 1.5 V 7 C 1.5,4.791 2.791,3.5 5,3.5 Z" />
      <path
         style="fill:none;stroke:#000000"
         d="m 5,3.5 c 2.209,0 3.5,1.291 3.5,3.5 v 5.5"
         id="path2" />
      <path
         style="fill:none;stroke:#000000"
         d="M 3,6.5 H 7"
         id="path3" />
      <path
         style="fill:none;stroke:#000000;stroke-width:3"
         d="M 8.5,12.25 V 16"
         id="path4" />
      <circle
         style="fill:none;stroke:#000000;stroke-linecap:square"
         id="path5"
         cx="11.5"
         cy="6.5"
         r="0.5" />
      <path
         style="fill:none;stroke:#000000"
         d="M 11.5,6 V 1.5 H 9"
         id="path6" />
    </g>
  </g>
</svg>
