<?xml version="1.0" encoding="UTF-8" standalone="no"?>
<svg
   xmlns:dc="http://purl.org/dc/elements/1.1/"
   xmlns:cc="http://creativecommons.org/ns#"
   xmlns:rdf="http://www.w3.org/1999/02/22-rdf-syntax-ns#"
   xmlns:svg="http://www.w3.org/2000/svg"
   xmlns="http://www.w3.org/2000/svg"
   xmlns:sodipodi="http://sodipodi.sourceforge.net/DTD/sodipodi-0.dtd"
   xmlns:inkscape="http://www.inkscape.org/namespaces/inkscape"
   version="1.1"
   id="Layer_1"
   width="486"
   height="347"
   viewBox="0 0 486 347"
   overflow="visible"
   xml:space="preserve"
   sodipodi:version="0.32"
   inkscape:version="0.48.4 r9939"
   sodipodi:docname="motorway_junction.svg"
   inkscape:output_extension="org.inkscape.output.svg.inkscape"
   style="overflow:visible"><metadata
   id="metadata2403"><rdf:RDF><cc:Work
       rdf:about=""><dc:format>image/svg+xml</dc:format><dc:type
         rdf:resource="http://purl.org/dc/dcmitype/StillImage" /><cc:license
         rdf:resource="http://web.resource.org/cc/PublicDomain" /></cc:Work><cc:License
       rdf:about="http://web.resource.org/cc/PublicDomain"><cc:permits
         rdf:resource="http://web.resource.org/cc/Reproduction" /><cc:permits
         rdf:resource="http://web.resource.org/cc/Distribution" /><cc:permits
         rdf:resource="http://web.resource.org/cc/DerivativeWorks" /></cc:License></rdf:RDF></metadata><defs
   id="defs2401" /><sodipodi:namedview
   inkscape:window-height="988"
   inkscape:window-width="1680"
   inkscape:pageshadow="2"
   inkscape:pageopacity="0.0"
   guidetolerance="10.0"
   gridtolerance="10.0"
   objecttolerance="10.0"
   borderopacity="1.0"
   bordercolor="#666666"
   pagecolor="#ffffff"
   id="base"
   inkscape:zoom="1.0864553"
   inkscape:cx="243"
   inkscape:cy="173.5"
   inkscape:window-x="-8"
   inkscape:window-y="-8"
   inkscape:current-layer="Layer_1"
   showgrid="true"
   fit-margin-top="0"
   fit-margin-left="0"
   fit-margin-right="0"
   fit-margin-bottom="0"
   inkscape:window-maximized="1"><inkscape:grid
     type="xygrid"
     id="grid2985"
     empspacing="5"
     visible="true"
     enabled="true"
     snapvisiblegridlinesonly="true"
     originx="0px"
     originy="0px" /></sodipodi:namedview>
<rect
   style="fill:#ffffff;fill-opacity:1;stroke:none"
   id="rect2987"
   width="486"
   height="347"
   x="0"
   y="-9.9920072e-016" /><g
   id="XMLID_4_"
   transform="translate(-0.25,-0.25)">
	<g
   id="g2394">
		<path
   d="m 486.25,4.25 c 0,3 0,6 0,9 -14.15,31.03 -30.58,72.23 -46,109 -3.52,8.39 -8.83,31.86 -20,31 -9.24,-0.71 -14.1,-24.24 -17,-33 -4.94,-14.93 -7.62,-25.51 -12,-38 -50.74,20.65 -87.69,53.67 -86,122 1.34,54.26 21.16,99.67 33,143 -49.33,0 -98.67,0 -148,0 -4.55,-115.45 -8.99,-231.01 -13,-347 17,0 34,0 51,0 11.73,38.61 24.47,76.2 36,115 25.44,-24.63 60.55,-50.85 103,-63 -6.69,-8.75 -16.41,-15.01 -25,-22 -7.83,-6.37 -20.32,-12.24 -20,-26 1.99,-0.68 2.29,-3.05 4,-4 52,0 104,0 156,0 0.44,1.23 1.28,2.05 3,2 -0.16,1.16 0.22,1.78 1,2 z"
   id="path2396"
   inkscape:connector-curvature="0" />
		<path
   d="m 111.25,0.25 c 17,0 34,0 51,0 -4.53,115.47 -8.94,231.06 -13,347 -49.67,0 -99.33,0 -149,0 0,-1 0,-2 0,-3 37.73,-113.94 73.56,-229.77 111,-344 z"
   id="path2398"
   inkscape:connector-curvature="0" />
	</g>
</g>
</svg>