<?xml version="1.0" encoding="UTF-8" standalone="no"?>
<svg xmlns:dc="http://purl.org/dc/elements/1.1/" xmlns:cc="http://web.resource.org/cc/" xmlns:rdf="http://www.w3.org/1999/02/22-rdf-syntax-ns#" xmlns:svg="http://www.w3.org/2000/svg" xmlns="http://www.w3.org/2000/svg" xmlns:sodipodi="http://sodipodi.sourceforge.net/DTD/sodipodi-0.dtd" xmlns:inkscape="http://www.inkscape.org/namespaces/inkscape" version="1.1" id="Layer_1" width="486" height="347" viewBox="0 0 486 347" overflow="visible" xml:space="preserve" sodipodi:version="0.32" inkscape:version="0.45.1" sodipodi:docname="exit.svg" inkscape:output_extension="org.inkscape.output.svg.inkscape" sodipodi:docbase="G:\Documents\map-icons\svg\vehicle"><metadata id="metadata2403"><rdf:RDF><cc:Work rdf:about=""><dc:format>image/svg+xml</dc:format><dc:type rdf:resource="http://purl.org/dc/dcmitype/StillImage"/><cc:license rdf:resource="http://web.resource.org/cc/PublicDomain"/></cc:Work><cc:License rdf:about="http://web.resource.org/cc/PublicDomain"><cc:permits rdf:resource="http://web.resource.org/cc/Reproduction"/><cc:permits rdf:resource="http://web.resource.org/cc/Distribution"/><cc:permits rdf:resource="http://web.resource.org/cc/DerivativeWorks"/></cc:License></rdf:RDF></metadata><defs id="defs2401"/><sodipodi:namedview inkscape:window-height="573" inkscape:window-width="797" inkscape:pageshadow="2" inkscape:pageopacity="0.0" guidetolerance="10.0" gridtolerance="10.0" objecttolerance="10.0" borderopacity="1.0" bordercolor="#666666" pagecolor="#ffffff" id="base" inkscape:zoom="1.0864553" inkscape:cx="243" inkscape:cy="173.5" inkscape:window-x="110" inkscape:window-y="145" inkscape:current-layer="Layer_1"/>
<g id="XMLID_4_">
	<g id="g2394">
		<path d="M486.25,4.25c0,3,0,6,0,9c-14.15,31.03-30.58,72.23-46,109c-3.52,8.39-8.83,31.86-20,31c-9.24-0.71-14.1-24.24-17-33    c-4.94-14.93-7.62-25.51-12-38c-50.74,20.65-87.69,53.67-86,122c1.34,54.26,21.16,99.67,33,143c-49.33,0-98.67,0-148,0    c-4.55-115.45-8.99-231.01-13-347c17,0,34,0,51,0c11.73,38.61,24.47,76.2,36,115c25.44-24.63,60.55-50.85,103-63    c-6.69-8.75-16.41-15.01-25-22c-7.83-6.37-20.32-12.24-20-26c1.99-0.68,2.29-3.05,4-4c52,0,104,0,156,0c0.44,1.23,1.28,2.05,3,2    C485.09,3.41,485.47,4.03,486.25,4.25z" id="path2396"/>
		<path d="M111.25,0.25c17,0,34,0,51,0c-4.53,115.47-8.94,231.06-13,347c-49.67,0-99.33,0-149,0c0-1,0-2,0-3    C37.98,230.31,73.81,114.48,111.25,0.25z" id="path2398"/>
	</g>
</g>
</svg>