<?xml version="1.0" encoding="UTF-8" standalone="no"?>
<!-- Created with Inkscape (http://www.inkscape.org/) -->

<svg
   xmlns:dc="http://purl.org/dc/elements/1.1/"
   xmlns:cc="http://creativecommons.org/ns#"
   xmlns:rdf="http://www.w3.org/1999/02/22-rdf-syntax-ns#"
   xmlns:svg="http://www.w3.org/2000/svg"
   xmlns="http://www.w3.org/2000/svg"
   version="1.1"
   width="486"
   height="347"
   viewBox="0 0 486 347"
   id="Layer_1"
   xml:space="preserve"
   style="overflow:visible"><metadata
   id="metadata2403"><rdf:RDF><cc:Work
       rdf:about=""><dc:format>image/svg+xml</dc:format><dc:type
         rdf:resource="http://purl.org/dc/dcmitype/StillImage" /><cc:license
         rdf:resource="http://web.resource.org/cc/PublicDomain" /><dc:title></dc:title></cc:Work><cc:License
       rdf:about="http://web.resource.org/cc/PublicDomain"><cc:permits
         rdf:resource="http://web.resource.org/cc/Reproduction" /><cc:permits
         rdf:resource="http://web.resource.org/cc/Distribution" /><cc:permits
         rdf:resource="http://web.resource.org/cc/DerivativeWorks" /></cc:License></rdf:RDF></metadata><defs
   id="defs2401" />
<rect
   width="486"
   height="347"
   x="0"
   y="0"
   id="rect2987"
   style="fill:#ffffff;fill-opacity:1;stroke:none" /><g
   id="XMLID_4_">
	<g
   id="g2394">
		<path
   d="m 486,4 c 0,3 0,6 0,9 -14.15,31.03 -30.58,72.23 -46,109 -3.52,8.39 -8.83,31.86 -20,31 -9.24,-0.71 -14.1,-24.24 -17,-33 -4.94,-14.93 -7.62,-25.51 -12,-38 -50.74,20.65 -87.69,53.67 -86,122 1.34,54.26 21.16,99.67 33,143 l -148,0 C 185.45,231.55 181.01,115.99 177,0 l 51,0 c 11.73,38.61 24.47,76.2 36,115 25.44,-24.63 60.55,-50.85 103,-63 -6.69,-8.75 -16.41,-15.01 -25,-22 -7.83,-6.37 -20.32,-12.24 -20,-26 1.99,-0.68 2.29,-3.05 4,-4 l 156,0 c 0.44,1.23 1.28,2.05 3,2 -0.16,1.16 0.22,1.78 1,2 z"
   id="path2396" />
		<path
   d="m 111,0 51,0 c -4.53,115.47 -8.94,231.06 -13,347 L 0,347 0,344 C 37.73,230.06 73.56,114.23 111,0 z"
   id="path2398" />
	</g>
</g>
</svg>