<?xml version="1.0" encoding="UTF-8" standalone="no"?>
<svg
   width="16"
   height="16"
   viewBox="0 0 16 16"
   version="1.1"
   id="svg1055"
   inkscape:version="1.2.2 (b0a8486, 2022-12-01)"
   sodipodi:docname="shrubbery_density_dense.svg"
   xmlns:inkscape="http://www.inkscape.org/namespaces/inkscape"
   xmlns:sodipodi="http://sodipodi.sourceforge.net/DTD/sodipodi-0.dtd"
   xmlns="http://www.w3.org/2000/svg"
   xmlns:svg="http://www.w3.org/2000/svg"
   xmlns:rdf="http://www.w3.org/1999/02/22-rdf-syntax-ns#"
   xmlns:cc="http://creativecommons.org/ns#"
   xmlns:dc="http://purl.org/dc/elements/1.1/">
  <defs
     id="defs1049" />
  <sodipodi:namedview
     id="base"
     pagecolor="#ffffff"
     bordercolor="#666666"
     borderopacity="1.0"
     inkscape:pageopacity="0"
     inkscape:pageshadow="2"
     inkscape:zoom="16"
     inkscape:cx="12.093749"
     inkscape:cy="9.8437494"
     inkscape:document-units="px"
     inkscape:current-layer="layer1"
     inkscape:document-rotation="0"
     showgrid="true"
     units="px"
     inkscape:window-width="1920"
     inkscape:window-height="1027"
     inkscape:window-x="0"
     inkscape:window-y="25"
     inkscape:window-maximized="1"
     inkscape:snap-page="true"
     inkscape:snap-global="false"
     inkscape:pagecheckerboard="0"
     inkscape:snap-bbox="true"
     showguides="false"
     inkscape:bbox-paths="true"
     inkscape:bbox-nodes="true"
     inkscape:snap-bbox-edge-midpoints="true"
     inkscape:snap-bbox-midpoints="true"
     inkscape:showpageshadow="2"
     inkscape:deskcolor="#d1d1d1">
    <inkscape:grid
       type="xygrid"
       id="grid1059"
       originx="0"
       originy="0" />
  </sodipodi:namedview>
  <metadata
     id="metadata1052">
    <rdf:RDF>
      <cc:Work
         rdf:about="">
        <dc:format>image/svg+xml</dc:format>
        <dc:type
           rdf:resource="http://purl.org/dc/dcmitype/StillImage" />
      </cc:Work>
    </rdf:RDF>
  </metadata>
  <g
     inkscape:label="Layer 1"
     inkscape:groupmode="layer"
     id="layer1"
     style="display:inline">
    <path
       id="path836-2"
       style="color:#000000;line-height:normal;letter-spacing:normal;word-spacing:normal;writing-mode:lr-tb;direction:ltr;dominant-baseline:auto;baseline-shift:baseline;white-space:normal;shape-padding:0;shape-margin:0;inline-size:0;clip-rule:nonzero;display:inline;overflow:visible;visibility:visible;opacity:1;isolation:auto;mix-blend-mode:normal;color-interpolation:sRGB;color-interpolation-filters:linearRGB;solid-color:#000000;solid-opacity:1;vector-effect:none;fill:#008000;fill-opacity:1;fill-rule:nonzero;stroke:none;stroke-width:3.35957;stroke-linecap:round;stroke-linejoin:round;stroke-miterlimit:4;stroke-dasharray:none;stroke-dashoffset:0;stroke-opacity:1;color-rendering:auto;image-rendering:auto;shape-rendering:auto;enable-background:accumulate;stop-color:#000000;stop-opacity:1"
       d="m 5.7368508,0 c 1.0729635,0 1.9782256,0.7335344 2.1933996,1.7163745 0.070141,-0.010146 0.1405615,-0.020527 0.2134073,-0.020527 0.8228666,0 1.4961217,0.6686921 1.4961217,1.4915569 0,0.5576488 -0.3126089,1.0411072 -0.7680319,1.2986936 L 8.6446466,4.0181999 a 0.96935005,0.9696422 0 0 0 0.029665,-0.018276 c 0.003,-0.00196 0.00615,-0.0037 0.00914,-0.00571 0.00551,-0.0037 0.010549,-0.00763 0.015958,-0.011423 A 0.96935005,0.9696422 0 0 0 8.8055403,3.896059 c 0.01616,-0.015152 0.031714,-0.030572 0.046792,-0.046789 a 0.96935005,0.9696422 0 0 0 0.073037,-0.089015 c 0.015185,-0.020796 0.029833,-0.041874 0.043365,-0.063909 a 0.96935005,0.9696422 0 0 0 0.054798,-0.1027058 c 0.0091,-0.019855 0.017302,-0.039929 0.025096,-0.060486 A 0.96935005,0.9696422 0 0 0 9.0874283,3.4042 c 0.00202,-0.00894 0.00507,-0.017235 0.00685,-0.026238 a 0.96935005,0.9696422 0 0 0 0.00114,-0.008 0.96935005,0.9696422 0 0 0 0.0171,-0.1654761 c 1.018e-4,-0.00585 0.00114,-0.011255 0.00114,-0.0171 0,-0.00588 -0.00218,-0.011254 -0.00227,-0.0171 A 0.96935005,0.9696422 0 0 0 9.0976837,3.0230721 c -0.00403,-0.023685 -0.00914,-0.046584 -0.014849,-0.069614 a 0.96935005,0.9696422 0 0 0 -0.03195,-0.103848 c -0.00941,-0.025331 -0.019385,-0.04994 -0.030807,-0.07418 a 0.96935005,0.9696422 0 0 0 -0.047931,-0.086731 c -0.016731,-0.027616 -0.034308,-0.054204 -0.053636,-0.079884 a 0.96935005,0.9696422 0 0 0 -0.063909,-0.077603 c -0.01579,-0.016966 -0.032084,-0.033294 -0.049073,-0.049073 A 0.96935005,0.9696422 0 0 0 8.703961,2.3988319 C 8.696331,2.3934519 8.688944,2.3880139 8.68115,2.3828739 a 0.96935005,0.9696422 0 0 0 -0.008,-0.00457 0.96935005,0.9696422 0 0 0 -0.1460746,-0.078745 c -0.003,-0.00127 -0.00608,-0.00218 -0.00914,-0.00343 A 0.96935005,0.9696422 0 0 0 8.5134056,2.2938584 0.96935005,0.9696422 0 0 0 8.143655,2.2196789 0.96935005,0.9696422 0 0 0 7.404155,2.5620337 1.7187119,1.6427532 0 0 0 7.4543639,2.1671764 1.7187119,1.6427532 0 0 0 7.056083,1.1184072 c -5.527e-4,-6.403e-4 -5.873e-4,-0.00164 -0.00114,-0.00227 A 1.7187119,1.6427532 0 0 0 6.8552285,0.92212712 c -0.00314,-0.002584 -0.00598,-0.005443 -0.0091,-0.007996 a 1.7187119,1.6427532 0 0 0 -0.2191118,-0.15064021 1.7187119,1.6427532 0 0 0 -0.00571,-0.003427 c -0.00826,-0.004771 -0.016731,-0.009071 -0.025096,-0.0137071 A 1.7187119,1.6427532 0 0 0 6.3611014,0.63793688 c -0.010986,-0.004099 -0.022005,-0.007525 -0.033092,-0.0114226 A 1.7187119,1.6427532 0 0 0 6.0495541,0.55347704 1.7187119,1.6427532 0 0 0 5.7357223,0.5249542 1.7187119,1.6427532 0 0 0 5.3922194,0.55919169 1.7187119,1.6427532 0 0 0 5.0749642,0.65163053 c -0.0011,4.3641e-4 -0.00232,7.0249e-4 -0.00343,0.001141 a 1.7187119,1.6427532 0 0 0 -0.00227,0.001141 1.7187119,1.6427532 0 0 0 -0.2716053,0.13808546 c -0.00921,0.005711 -0.01831,0.0112546 -0.027381,0.0171003 a 1.7187119,1.6427532 0 0 0 -0.00227,0.001141 1.7187119,1.6427532 0 0 0 -0.2248164,0.1746041 c -0.00437,0.003998 -0.00937,0.007391 -0.013707,0.0114226 0,0 0.00114,0.001142 0.00114,0.001142 A 1.7187119,1.6427532 0 0 0 4.2099213,1.4116697 1.3097035,1.3097035 0 0 0 3.781969,1.1206628 c 0,0 0,-0.00114 0,-0.00114 -0.00176,-7.321e-4 -0.00393,-4.166e-4 -0.00571,-0.00114 A 1.3097035,1.3097035 0 0 0 3.775119,1.1172428 1.3097035,1.3097035 0 0 0 3.5366056,1.0442058 1.3097035,1.3097035 0 0 0 3.2729861,1.0168248 1.3097035,1.3097035 0 0 0 3.0173556,1.0430628 c -0.00109,2.14e-4 -0.00234,-2.174e-4 -0.00343,0 a 1.3097035,1.3097035 0 0 0 -0.00227,0.00114 1.3097035,1.3097035 0 0 0 -0.2271009,0.068472 1.3097035,1.3097035 0 0 0 -0.0091,0.00343 c -0.00464,0.0019 -0.00907,0.00376 -0.013707,0.00571 A 1.3097035,1.3097035 0 0 0 2.5677338,1.2245199 c -0.00931,0.00595 -0.018276,0.012094 -0.027381,0.018276 A 1.3097035,1.3097035 0 0 0 2.3691725,1.3797392 c -0.00214,0.00205 -0.00474,0.00363 -0.00685,0.00571 a 1.3097035,1.3097035 0 0 0 -0.00343,0.00457 A 1.3097035,1.3097035 0 0 0 2.2036863,1.5726127 1.3097035,1.3097035 0 0 0 2.0815756,1.7871588 1.3097035,1.3097035 0 0 0 1.9640307,2.3258087 1.3097035,1.3097035 0 0 0 2.0576118,2.8131041 1.3097035,1.3097035 0 0 0 1.8373577,2.794828 1.3097035,1.3097035 0 0 0 0.95406329,3.1394719 1.3097035,1.3097035 0 0 0 0.81712008,3.2844042 a 1.3097035,1.3097035 0 0 0 -0.002274,0.00343 c -0.00635,0.00783 -0.0120945,0.015958 -0.0182761,0.023954 a 1.3097035,1.3097035 0 0 0 -0.0924388,0.1369465 c -0.009642,0.016496 -0.0184777,0.03326 -0.0273806,0.050216 a 1.3097035,1.3097035 0 0 0 -0.0639093,0.1449322 c -0.006719,0.017806 -0.0134383,0.035447 -0.0193848,0.053636 a 1.3097035,1.3097035 0 0 0 -0.0376609,0.1449323 c -0.004871,0.023853 -0.0101459,0.047572 -0.0137071,0.071895 a 1.3097035,1.3097035 0 0 0 -0.0125312,0.1506402 c -4.3271e-4,0.013875 -0.003427,0.027078 -0.003427,0.041081 0,0.011759 0.003114,0.022576 0.003427,0.034237 a 1.3097035,1.3097035 0 0 0 0.0193848,0.1905822 c 0.004603,0.026641 0.00981,0.052688 0.015958,0.078745 a 1.3097035,1.3097035 0 0 0 0.0467889,0.1517825 c 0.012968,0.035004 0.0264063,0.069217 0.0422232,0.1027091 a 1.3097035,1.3097035 0 0 0 0.003427,0.00685 1.3097035,1.3097035 0 0 0 0.0707528,0.1289541 c 2.7112e-4,4.321e-4 9.2422e-4,6.78e-4 0.001141,0.00114 C 0.58665827,4.925222 0.47291297,5.0286231 0.33323339,5.1525607 0.12479832,4.8552782 0,4.4952522 0,4.106074 0,3.2329404 0.61835389,2.4996705 1.4379208,2.3155208 1.4430273,1.3090972 2.2665343,0.4918615 3.2741184,0.4918615 c 0.2974572,0 0.5741384,0.0779792 0.8228099,0.20427591 C 4.508799,0.2699735 5.0906742,0 5.7368508,0 Z" />
    <path
       id="path836-2-3"
       style="color:#000000;line-height:normal;letter-spacing:normal;word-spacing:normal;writing-mode:lr-tb;direction:ltr;dominant-baseline:auto;baseline-shift:baseline;white-space:normal;shape-padding:0;shape-margin:0;inline-size:0;clip-rule:nonzero;display:inline;overflow:visible;visibility:visible;isolation:auto;mix-blend-mode:normal;color-interpolation:sRGB;color-interpolation-filters:linearRGB;solid-color:#000000;solid-opacity:1;vector-effect:none;fill:#008000;fill-opacity:1;fill-rule:nonzero;stroke:none;stroke-width:3.35957;stroke-linecap:round;stroke-linejoin:round;stroke-miterlimit:4;stroke-dasharray:none;stroke-dashoffset:0;stroke-opacity:1;color-rendering:auto;image-rendering:auto;shape-rendering:auto;enable-background:accumulate;stop-color:#000000"
       d="m 10.263149,5.1927591 c -1.0729633,0 -1.9782254,0.7335344 -2.1933994,1.7163745 -0.070141,-0.010146 -0.1405615,-0.020527 -0.2134073,-0.020527 -0.8228666,0 -1.4961217,0.6686921 -1.4961217,1.4915568 0,0.5576486 0.3126089,1.0411073 0.7680319,1.2986937 L 7.3553534,9.2109586 a 0.96935005,0.9696422 0 0 1 -0.029665,-0.018276 c -0.003,-0.00196 -0.00615,-0.0037 -0.00914,-0.00571 -0.00551,-0.0037 -0.010549,-0.00763 -0.015958,-0.011423 A 0.96935005,0.9696422 0 0 1 7.1944597,9.0888177 C 7.1783001,9.073666 7.1627453,9.0582455 7.1476675,9.0420289 A 0.96935005,0.9696422 0 0 1 7.0746302,8.9530134 C 7.0594449,8.9322176 7.0447971,8.9111396 7.0312648,8.8891041 A 0.96935005,0.9696422 0 0 1 6.9764666,8.7863984 c -0.0091,-0.019855 -0.017302,-0.039929 -0.025096,-0.060486 a 0.96935005,0.9696422 0 0 1 -0.0388,-0.1289541 c -0.00202,-0.00894 -0.00507,-0.017235 -0.00685,-0.026238 a 0.96935005,0.9696422 0 0 1 -0.00114,-0.008 0.96935005,0.9696422 0 0 1 -0.0171,-0.1654761 c -1.018e-4,-0.00585 -0.00114,-0.011255 -0.00114,-0.0171 0,-0.00588 0.00218,-0.011255 0.00227,-0.0171 a 0.96935005,0.9696422 0 0 1 0.013707,-0.1472168 c 0.00403,-0.023685 0.00914,-0.046584 0.014849,-0.069614 a 0.96935005,0.9696422 0 0 1 0.03195,-0.103848 c 0.00941,-0.025331 0.019385,-0.04994 0.030807,-0.07418 a 0.96935005,0.9696422 0 0 1 0.047931,-0.086731 c 0.016731,-0.027616 0.034308,-0.054203 0.053636,-0.079884 a 0.96935005,0.9696422 0 0 1 0.063909,-0.077603 c 0.01579,-0.016966 0.032084,-0.033293 0.049073,-0.049073 A 0.96935005,0.9696422 0 0 1 7.296039,7.5915906 c 0.00763,-0.00538 0.015017,-0.010818 0.022811,-0.015958 a 0.96935005,0.9696422 0 0 1 0.008,-0.00457 0.96935005,0.9696422 0 0 1 0.1460746,-0.078745 c 0.003,-0.00127 0.00608,-0.00218 0.00914,-0.00343 a 0.96935005,0.9696422 0 0 1 0.00454,-0.00227 0.96935005,0.9696422 0 0 1 0.3697506,-0.07418 0.96935005,0.9696422 0 0 1 0.7395,0.3423546 A 1.7187119,1.6427532 0 0 1 8.5456361,7.3599352 1.7187119,1.6427532 0 0 1 8.943917,6.311166 c 5.527e-4,-6.404e-4 5.873e-4,-0.00164 0.00114,-0.00227 A 1.7187119,1.6427532 0 0 1 9.1447715,6.1148859 c 0.00314,-0.00258 0.00598,-0.00544 0.0091,-0.008 a 1.7187119,1.6427532 0 0 1 0.2191118,-0.1506402 1.7187119,1.6427532 0 0 1 0.00571,-0.00343 c 0.00826,-0.00477 0.016731,-0.00907 0.025096,-0.013707 A 1.7187119,1.6427532 0 0 1 9.6388986,5.8306956 c 0.010986,-0.0041 0.022005,-0.00753 0.033092,-0.011423 a 1.7187119,1.6427532 0 0 1 0.2784555,-0.073037 1.7187119,1.6427532 0 0 1 0.3138319,-0.028523 1.7187119,1.6427532 0 0 1 0.343503,0.034237 1.7187119,1.6427532 0 0 1 0.317255,0.092439 c 0.0011,4.364e-4 0.0023,7.025e-4 0.0034,0.00114 a 1.7187119,1.6427532 0 0 1 0.0023,0.00114 1.7187119,1.6427532 0 0 1 0.271605,0.1380854 c 0.0092,0.00571 0.01831,0.011255 0.02738,0.0171 a 1.7187119,1.6427532 0 0 1 0.0023,0.00114 1.7187119,1.6427532 0 0 1 0.224816,0.1746041 c 0.0044,0.004 0.0094,0.00739 0.01371,0.011423 0,0 -0.0011,0.00114 -0.0011,0.00114 a 1.7187119,1.6427532 0 0 1 0.320699,0.4142614 1.3097035,1.3097035 0 0 1 0.427952,-0.2910068 c 0,0 0,-0.00114 0,-0.00114 0.0018,-7.321e-4 0.0039,-4.166e-4 0.0057,-0.00114 a 1.3097035,1.3097035 0 0 1 0.0011,-0.00114 1.3097035,1.3097035 0 0 1 0.238514,-0.073037 1.3097035,1.3097035 0 0 1 0.263619,-0.027381 1.3097035,1.3097035 0 0 1 0.255631,0.026238 c 0.0011,2.14e-4 0.0023,-2.174e-4 0.0034,0 a 1.3097035,1.3097035 0 0 1 0.0023,0.00114 1.3097035,1.3097035 0 0 1 0.227101,0.068472 1.3097035,1.3097035 0 0 1 0.0091,0.00343 c 0.0046,0.0019 0.0091,0.00376 0.01371,0.00571 a 1.3097035,1.3097035 0 0 1 0.194005,0.1027091 c 0.0093,0.00595 0.01828,0.012094 0.02738,0.018276 a 1.3097035,1.3097035 0 0 1 0.171181,0.1369432 c 0.0021,0.00205 0.0047,0.00363 0.0069,0.00571 a 1.3097035,1.3097035 0 0 1 0.0034,0.00457 1.3097035,1.3097035 0 0 1 0.155206,0.1825932 1.3097035,1.3097035 0 0 1 0.12211,0.2145461 1.3097035,1.3097035 0 0 1 0.117545,0.5386499 1.3097035,1.3097035 0 0 1 -0.09358,0.4872953 1.3097035,1.3097035 0 0 1 0.220254,-0.018276 1.3097035,1.3097035 0 0 1 0.883295,0.3446439 1.3097035,1.3097035 0 0 1 0.136943,0.1449322 1.3097035,1.3097035 0 0 1 0.0023,0.00343 c 0.0063,0.00783 0.01209,0.015958 0.01828,0.023954 a 1.3097035,1.3097035 0 0 1 0.09244,0.1369466 c 0.0096,0.016496 0.01848,0.03326 0.02738,0.050216 a 1.3097035,1.3097035 0 0 1 0.06391,0.1449323 c 0.0067,0.017806 0.01344,0.035447 0.01938,0.053636 a 1.3097035,1.3097035 0 0 1 0.03766,0.1449323 c 0.0049,0.023853 0.01015,0.047572 0.01371,0.071895 a 1.3097035,1.3097035 0 0 1 0.01253,0.1506402 c 4.33e-4,0.013875 0.0034,0.027078 0.0034,0.041081 0,0.011759 -0.0031,0.022576 -0.0034,0.034237 a 1.3097035,1.3097035 0 0 1 -0.01938,0.1905823 c -0.0046,0.026642 -0.0098,0.052688 -0.01596,0.078745 a 1.3097035,1.3097035 0 0 1 -0.04679,0.1517824 c -0.01297,0.035004 -0.02641,0.069217 -0.04222,0.1027091 a 1.3097035,1.3097035 0 0 1 -0.0034,0.00685 1.3097035,1.3097035 0 0 1 -0.07075,0.1289541 c -2.71e-4,4.32e-4 -9.24e-4,6.78e-4 -0.0011,0.00114 0.142574,0.1241531 0.256319,0.2275541 0.395999,0.3514911 C 15.875202,10.048037 16,9.6880109 16,9.2988328 16,8.4256991 15.381646,7.6924291 14.562079,7.5082794 14.556973,6.5018557 13.733466,5.6846201 12.725882,5.6846201 c -0.297458,0 -0.574139,0.077979 -0.82281,0.2042759 C 11.491201,5.4627326 10.909326,5.1927591 10.263149,5.1927591 Z" />
    <path
       id="path836-2-0"
       style="color:#000000;line-height:normal;letter-spacing:normal;word-spacing:normal;writing-mode:lr-tb;direction:ltr;dominant-baseline:auto;baseline-shift:baseline;white-space:normal;shape-padding:0;shape-margin:0;inline-size:0;clip-rule:nonzero;display:inline;overflow:visible;visibility:visible;isolation:auto;mix-blend-mode:normal;color-interpolation:sRGB;color-interpolation-filters:linearRGB;solid-color:#000000;solid-opacity:1;vector-effect:none;fill:#008000;fill-opacity:1;fill-rule:nonzero;stroke:none;stroke-width:3.35957;stroke-linecap:round;stroke-linejoin:round;stroke-miterlimit:4;stroke-dasharray:none;stroke-dashoffset:0;stroke-opacity:1;color-rendering:auto;image-rendering:auto;shape-rendering:auto;enable-background:accumulate;stop-color:#000000"
       d="m 9.1269614,10.84744 c 1.0729636,0 1.9782256,0.733534 2.1933996,1.716374 0.07014,-0.01015 0.140561,-0.02053 0.213407,-0.02053 0.822867,0 1.496122,0.668692 1.496122,1.491557 0,0.557649 -0.312609,1.041107 -0.768032,1.298694 l -0.227101,-0.467899 a 0.96935005,0.9696422 0 0 0 0.02966,-0.01828 c 0.003,-0.002 0.0061,-0.0037 0.0091,-0.0057 0.0055,-0.0037 0.01055,-0.0076 0.01596,-0.01142 a 0.96935005,0.9696422 0 0 0 0.106133,-0.08673 c 0.01616,-0.01515 0.03171,-0.03057 0.04679,-0.04679 a 0.96935005,0.9696422 0 0 0 0.07304,-0.08901 c 0.01519,-0.0208 0.02983,-0.04187 0.04337,-0.06391 a 0.96935005,0.9696422 0 0 0 0.0548,-0.102706 c 0.0091,-0.01985 0.0173,-0.03993 0.0251,-0.06049 a 0.96935005,0.9696422 0 0 0 0.0388,-0.128954 c 0.002,-0.0089 0.0051,-0.01724 0.0069,-0.02624 a 0.96935005,0.9696422 0 0 0 0.0011,-0.008 0.96935005,0.9696422 0 0 0 0.0171,-0.165476 c 1.02e-4,-0.0058 0.0011,-0.01126 0.0011,-0.0171 0,-0.0059 -0.0022,-0.01125 -0.0023,-0.0171 A 0.96935005,0.9696422 0 0 0 12.4877,13.870513 c -0.004,-0.02369 -0.0091,-0.04658 -0.01485,-0.06961 A 0.96935005,0.9696422 0 0 0 12.4409,13.697055 c -0.0094,-0.02533 -0.01938,-0.04994 -0.03081,-0.07418 a 0.96935005,0.9696422 0 0 0 -0.04793,-0.08673 c -0.01673,-0.02762 -0.03431,-0.0542 -0.05364,-0.07988 a 0.96935005,0.9696422 0 0 0 -0.06391,-0.0776 c -0.01579,-0.01697 -0.03208,-0.03329 -0.04907,-0.04907 a 0.96935005,0.9696422 0 0 0 -0.101566,-0.08331 c -0.0076,-0.0054 -0.01502,-0.01082 -0.02281,-0.01596 a 0.96935005,0.9696422 0 0 0 -0.008,-0.0046 0.96935005,0.9696422 0 0 0 -0.146074,-0.07875 c -0.003,-0.0013 -0.0061,-0.0022 -0.0091,-0.0034 a 0.96935005,0.9696422 0 0 0 -0.0045,-0.0023 0.96935005,0.9696422 0 0 0 -0.36975,-0.07418 0.96935005,0.9696422 0 0 0 -0.7395,0.342355 1.7187119,1.6427532 0 0 0 0.05021,-0.394857 1.7187119,1.6427532 0 0 0 -0.39828,-1.048769 c -5.53e-4,-6.41e-4 -5.88e-4,-0.0016 -0.0011,-0.0023 a 1.7187119,1.6427532 0 0 0 -0.199714,-0.194006 c -0.0031,-0.0026 -0.006,-0.0054 -0.0091,-0.008 a 1.7187119,1.6427532 0 0 0 -0.219112,-0.150641 1.7187119,1.6427532 0 0 0 -0.0057,-0.0034 c -0.0083,-0.0048 -0.01673,-0.0091 -0.025096,-0.01371 A 1.7187119,1.6427532 0 0 0 9.751212,11.485376 c -0.010986,-0.0041 -0.022005,-0.0075 -0.033092,-0.01142 A 1.7187119,1.6427532 0 0 0 9.4396647,11.400916 1.7187119,1.6427532 0 0 0 9.1258329,11.372393 1.7187119,1.6427532 0 0 0 8.78233,11.406631 1.7187119,1.6427532 0 0 0 8.4650747,11.49907 c -0.0011,4.36e-4 -0.00232,7.02e-4 -0.00343,0.0011 a 1.7187119,1.6427532 0 0 0 -0.00227,0.0011 1.7187119,1.6427532 0 0 0 -0.2716052,0.138085 c -0.00921,0.0057 -0.01831,0.01126 -0.027381,0.0171 a 1.7187119,1.6427532 0 0 0 -0.00227,0.0011 1.7187119,1.6427532 0 0 0 -0.2248164,0.174604 c -0.00437,0.004 -0.00937,0.0074 -0.013707,0.01142 0,0 0.00114,0.0011 0.00114,0.0011 a 1.7187119,1.6427532 0 0 0 -0.3207032,0.41443 1.3097035,1.3097035 0 0 0 -0.4279524,-0.291007 c 0,0 0,-0.0011 0,-0.0011 -0.00176,-7.32e-4 -0.00393,-4.17e-4 -0.00571,-0.0011 a 1.3097035,1.3097035 0 0 0 -0.00114,-0.0011 1.3097035,1.3097035 0 0 0 -0.2385133,-0.07304 1.3097035,1.3097035 0 0 0 -0.2636196,-0.02738 1.3097035,1.3097035 0 0 0 -0.2556304,0.02624 c -0.00109,2.14e-4 -0.00234,-2.17e-4 -0.00343,0 a 1.3097035,1.3097035 0 0 0 -0.00227,0.0011 1.3097035,1.3097035 0 0 0 -0.2271009,0.06847 1.3097035,1.3097035 0 0 0 -0.0091,0.0034 c -0.00464,0.0019 -0.00907,0.0038 -0.013707,0.0057 a 1.3097035,1.3097035 0 0 0 -0.1940057,0.102709 c -0.00931,0.0059 -0.018276,0.0121 -0.027381,0.01828 A 1.3097035,1.3097035 0 0 0 5.759291,12.227224 c -0.00214,0.0021 -0.00474,0.0036 -0.00685,0.0057 a 1.3097035,1.3097035 0 0 0 -0.00343,0.0046 1.3097035,1.3097035 0 0 0 -0.1552059,0.182593 1.3097035,1.3097035 0 0 0 -0.1221107,0.214546 1.3097035,1.3097035 0 0 0 -0.117545,0.53865 1.3097035,1.3097035 0 0 0 0.093581,0.487295 1.3097035,1.3097035 0 0 0 -0.220254,-0.01828 1.3097035,1.3097035 0 0 0 -0.8832944,0.344644 1.3097035,1.3097035 0 0 0 -0.1369432,0.144932 1.3097035,1.3097035 0 0 0 -0.00227,0.0034 c -0.00635,0.0078 -0.012094,0.01596 -0.018276,0.02395 A 1.3097035,1.3097035 0 0 0 4.0942538,14.2962 c -0.00964,0.0165 -0.018478,0.03326 -0.027381,0.05022 a 1.3097035,1.3097035 0 0 0 -0.063909,0.144932 c -0.00672,0.01781 -0.013438,0.03545 -0.019385,0.05364 a 1.3097035,1.3097035 0 0 0 -0.037661,0.144932 c -0.00487,0.02385 -0.010146,0.04757 -0.013707,0.07189 a 1.3097035,1.3097035 0 0 0 -0.012531,0.150641 c -4.327e-4,0.01388 -0.00343,0.02708 -0.00343,0.04108 0,0.01176 0.00311,0.02258 0.00343,0.03424 a 1.3097035,1.3097035 0 0 0 0.019385,0.190582 c 0.0046,0.02664 0.00981,0.05269 0.015958,0.07875 a 1.3097035,1.3097035 0 0 0 0.046789,0.151782 c 0.012968,0.035 0.026406,0.06922 0.042223,0.102709 a 1.3097035,1.3097035 0 0 0 0.00343,0.0069 1.3097035,1.3097035 0 0 0 0.070753,0.128954 c 2.711e-4,4.32e-4 9.242e-4,6.78e-4 0.00114,0.0011 C 3.9767688,15.772661 3.8630235,15.876062 3.723344,16 3.5149089,15.702717 3.3901106,15.342691 3.3901106,14.953513 c 0,-0.873133 0.6183539,-1.606403 1.4379207,-1.790553 0.00511,-1.006424 0.8286136,-1.823659 1.8361977,-1.823659 0.2974572,0 0.5741384,0.07798 0.8228098,0.204276 0.4118708,-0.426164 0.993746,-0.696137 1.6399226,-0.696137 z" />
  </g>
</svg>
