<?xml version="1.0" encoding="UTF-8" standalone="no"?>
<svg
   width="16"
   height="16"
   viewBox="0 0 16 16"
   version="1.1"
   id="svg1055"
   inkscape:version="1.2.2 (b0a8486, 2022-12-01)"
   sodipodi:docname="shrubbery_density_medium.svg"
   xmlns:inkscape="http://www.inkscape.org/namespaces/inkscape"
   xmlns:sodipodi="http://sodipodi.sourceforge.net/DTD/sodipodi-0.dtd"
   xmlns="http://www.w3.org/2000/svg"
   xmlns:svg="http://www.w3.org/2000/svg"
   xmlns:rdf="http://www.w3.org/1999/02/22-rdf-syntax-ns#"
   xmlns:cc="http://creativecommons.org/ns#"
   xmlns:dc="http://purl.org/dc/elements/1.1/">
  <defs
     id="defs1049" />
  <sodipodi:namedview
     id="base"
     pagecolor="#ffffff"
     bordercolor="#666666"
     borderopacity="1.0"
     inkscape:pageopacity="0"
     inkscape:pageshadow="2"
     inkscape:zoom="16"
     inkscape:cx="14.406249"
     inkscape:cy="5.8437496"
     inkscape:document-units="px"
     inkscape:current-layer="layer1"
     inkscape:document-rotation="0"
     showgrid="true"
     units="px"
     inkscape:window-width="1920"
     inkscape:window-height="1027"
     inkscape:window-x="0"
     inkscape:window-y="25"
     inkscape:window-maximized="1"
     inkscape:snap-page="true"
     inkscape:snap-global="false"
     inkscape:pagecheckerboard="0"
     inkscape:snap-bbox="true"
     showguides="false"
     inkscape:bbox-paths="true"
     inkscape:bbox-nodes="true"
     inkscape:snap-bbox-edge-midpoints="true"
     inkscape:snap-bbox-midpoints="true"
     inkscape:showpageshadow="2"
     inkscape:deskcolor="#d1d1d1">
    <inkscape:grid
       type="xygrid"
       id="grid16"
       originx="0"
       originy="0" />
  </sodipodi:namedview>
  <metadata
     id="metadata1052">
    <rdf:RDF>
      <cc:Work
         rdf:about="">
        <dc:format>image/svg+xml</dc:format>
        <dc:type
           rdf:resource="http://purl.org/dc/dcmitype/StillImage" />
      </cc:Work>
    </rdf:RDF>
  </metadata>
  <g
     inkscape:label="Layer 1"
     inkscape:groupmode="layer"
     id="layer1"
     style="display:inline">
    <path
       id="path836-3"
       style="color:#000000;line-height:normal;letter-spacing:normal;word-spacing:normal;writing-mode:lr-tb;direction:ltr;dominant-baseline:auto;baseline-shift:baseline;white-space:normal;shape-padding:0;shape-margin:0;inline-size:0;clip-rule:nonzero;display:inline;overflow:visible;visibility:visible;opacity:1;isolation:auto;mix-blend-mode:normal;color-interpolation:sRGB;color-interpolation-filters:linearRGB;solid-color:#000000;solid-opacity:1;vector-effect:none;fill:#008000;fill-opacity:1;fill-rule:nonzero;stroke:none;stroke-width:3.59519;stroke-linecap:round;stroke-linejoin:round;stroke-miterlimit:4;stroke-dasharray:none;stroke-dashoffset:0;stroke-opacity:1;color-rendering:auto;image-rendering:auto;shape-rendering:auto;enable-background:accumulate;stop-color:#000000;stop-opacity:1"
       d="M 4.4969962,0 C 3.4218248,0 2.5059901,0.61599922 2.1576945,1.4761936 2.1177883,1.4740245 2.0800569,1.4656141 2.0395861,1.4656141 0.91481641,1.4656141 0,2.3162634 0,3.3563636 0,3.9599932 0.31399973,4.4918188 0.79246656,4.8372545 L 1.1467916,4.419174 A 1.4574887,1.347773 0 0 1 1.038845,4.3334453 C 1.022095,4.3186833 1.005271,4.3043003 0.9893145,4.2888193 A 1.4574887,1.347773 0 0 1 0.84453877,4.126758 C 0.83631377,4.115729 0.82958407,4.103975 0.82169547,4.092704 A 1.4574887,1.347773 0 0 1 0.69977371,3.8836661 c -3.7985e-4,-8.356e-4 -8.9204e-4,-0.00152 -0.001269,-0.00234 A 1.4574887,1.347773 0 0 1 0.58293477,3.3551965 1.4574887,1.347773 0 0 1 0.6934237,2.8419933 a 1.4574887,1.347773 0 0 1 0.002531,-0.0047 c 0.001607,-0.0036 0.003441,-0.00698 0.005085,-0.010579 A 1.4574887,1.347773 0 0 1 0.83057637,2.6047534 1.4574887,1.347773 0 0 1 0.99821455,2.4156772 c 0.004,-0.00381 0.007361,-0.00798 0.0114407,-0.011754 a 1.4574887,1.347773 0 0 1 0.00509,-0.0047 1.4574887,1.347773 0 0 1 0.190494,-0.1479718 c 0.010021,-0.0065 0.020264,-0.012516 0.03047,-0.018807 a 1.4574887,1.347773 0 0 1 0.215879,-0.1092146 c 0.00643,-0.00261 0.012562,-0.00567 0.01903,-0.00822 a 1.4574887,1.347773 0 0 1 0.2539937,-0.073989 c 0.00763,-0.00156 0.015179,-0.00325 0.022843,-0.0047 a 1.4574887,1.347773 0 0 1 0.2743144,-0.028178 c 0.00173,-1.91e-5 0.00337,1.37e-5 0.00509,0 a 1.4574887,1.347773 0 0 1 0.013945,0 1.4574887,1.347773 0 0 1 0.5499005,0.099821 A 1.9126491,1.6905036 0 0 1 2.730401,1.5853608 1.9126491,1.6905036 0 0 1 2.8548577,1.3645785 1.9126491,1.6905036 0 0 1 2.9907472,1.1907694 c 0.017833,-0.020328 0.035779,-0.040331 0.054611,-0.059893 A 1.9126491,1.6905036 0 0 1 3.1698121,1.0146131 c 0.02288,-0.0196717 0.045862,-0.0389076 0.069849,-0.057546 A 1.9126491,1.6905036 0 0 1 3.3704697,0.8642922 C 3.4057997,0.8413707 3.4425137,0.8204579 3.4796874,0.7997007 A 1.9126491,1.6905036 0 0 1 3.5889052,0.7421585 1.9126491,1.6905036 0 0 1 3.6003462,0.7362805 C 3.6415542,0.7168855 3.6843542,0.7001731 3.7273451,0.6834332 A 1.9126491,1.6905036 0 0 1 3.8683117,0.6341088 c 0.032377,-0.009957 0.064604,-0.0197408 0.097789,-0.0281765 a 1.9126491,1.6905036 0 0 1 0.198116,-0.0399268 c 0.023704,-0.003664 0.047107,-0.007675 0.071121,-0.0105792 a 1.9126491,1.6905036 0 0 1 0.233678,-0.0152809 c 0.00949,-1.2099e-4 0.018431,-0.002341 0.027927,-0.002341 0.00691,0 0.013421,0.00111 0.020338,0.001174 a 1.9126491,1.6905036 0 0 1 0.2781235,0.0211237 c 0.016973,0.002341 0.033985,0.004321 0.050801,0.007053 a 1.9126491,1.6905036 0 0 1 0.2641557,0.0610686 1.9126491,1.6905036 0 0 1 0.011441,0.003527 c 0.012076,0.003664 0.023629,0.007848 0.035554,0.0117546 a 1.9126491,1.6905036 0 0 1 0.248917,0.0986487 c 0.00998,0.004805 0.019329,0.0103026 0.029199,0.0152809 A 1.9126491,1.6905036 0 0 1 5.6780376,0.89953422 1.9126491,1.6905036 0 0 1 6.4108171,2.230105 1.9126491,1.6905036 0 0 1 6.385394,2.5049101 1.0787302,0.99782705 0 0 1 7.2604112,2.0903546 a 1.0787302,0.99782705 0 0 1 0.00374,0 1.0787302,0.99782705 0 0 1 0.2031968,0.018807 1.0787302,0.99782705 0 0 1 0.00747,0.00117 c 0.00747,0.00135 0.014206,0.0032 0.021684,0.0047 a 1.0787302,0.99782705 0 0 1 0.1650996,0.048149 c 0.015328,0.00567 0.030658,0.011306 0.045724,0.017597 a 1.0787302,0.99782705 0 0 1 0.1333584,0.066942 c 0.017197,0.010199 0.034021,0.020606 0.050809,0.031703 a 1.0787302,0.99782705 0 0 1 0.1003463,0.076336 c 0.025423,0.021642 0.049351,0.04429 0.07238,0.068114 a 1.0787302,0.99782705 0 0 1 0.00747,0.00822 1.0787302,0.99782705 0 0 1 0.053351,0.061069 c 0.021311,0.026518 0.041237,0.05375 0.05967,0.082206 a 1.0787302,0.99782705 0 0 1 0.043182,0.072809 c 0.00158,0.00297 0.00225,0.0064 0.00374,0.0094 0.015702,0.030216 0.029536,0.06093 0.041911,0.092775 a 1.0787302,0.99782705 0 0 1 0.031778,0.09395 c 0.00711,0.025584 0.013085,0.051153 0.017572,0.077511 a 1.0787302,0.99782705 0 0 1 0.013833,0.1315304 c 4.823e-4,0.012377 0.00374,0.023924 0.00374,0.036405 0,0.012481 -0.00332,0.024028 -0.00374,0.036408 a 1.0787302,0.99782705 0 0 1 -0.012712,0.1174354 c -0.0056,0.034469 -0.013459,0.06782 -0.022806,0.1009961 a 1.0787302,0.99782705 0 0 1 -0.021684,0.068114 c -0.00116,0.00316 -0.00263,0.00626 -0.00374,0.00937 -0.013833,0.036353 -0.028787,0.071447 -0.046995,0.1056945 a 1.0787302,0.99782705 0 0 1 -0.00253,0.0047 c -0.0086,0.016111 -0.018319,0.031357 -0.02804,0.046976 a 1.0787302,0.99782705 0 0 1 -0.00636,0.01058 c -0.023927,0.037864 -0.049986,0.07359 -0.078736,0.1080421 a 1.0787302,0.99782705 0 0 1 -0.044453,0.0505 c 0,0 -0.00127,0.00117 -0.00127,0.00117 -0.028414,0.029905 -0.059146,0.05805 -0.091448,0.084557 a 1.0787302,0.99782705 0 0 1 -0.00127,0.00117 L 8.3302808,4.254743 C 8.689081,3.9727538 8.9221015,3.5581564 8.9221015,3.089787 c 0,-0.8467848 -0.7454165,-1.5407844 -1.6611325,-1.5407844 -0.13119,0 -0.257071,0.017736 -0.3797259,0.044626 C 6.5717509,0.67246449 5.6202626,2.2123001e-5 4.496967,2.2123001e-5 Z" />
    <path
       id="path836-3-4"
       style="color:#000000;line-height:normal;letter-spacing:normal;word-spacing:normal;writing-mode:lr-tb;direction:ltr;dominant-baseline:auto;baseline-shift:baseline;white-space:normal;shape-padding:0;shape-margin:0;inline-size:0;clip-rule:nonzero;display:inline;overflow:visible;visibility:visible;isolation:auto;mix-blend-mode:normal;color-interpolation:sRGB;color-interpolation-filters:linearRGB;solid-color:#000000;solid-opacity:1;vector-effect:none;fill:#008000;fill-opacity:1;fill-rule:nonzero;stroke:none;stroke-width:3.59519;stroke-linecap:round;stroke-linejoin:round;stroke-miterlimit:4;stroke-dasharray:none;stroke-dashoffset:0;stroke-opacity:1;color-rendering:auto;image-rendering:auto;shape-rendering:auto;enable-background:accumulate;stop-color:#000000"
       d="m 11.503004,5.3436984 c 1.075171,0 1.991006,0.6159993 2.339302,1.4761936 0.0399,-0.00217 0.07764,-0.01058 0.118108,-0.01058 C 15.085184,6.8093129 16,7.6599622 16,8.7000623 16,9.303692 15.686001,9.8355175 15.207533,10.180954 L 14.853208,9.7628727 a 1.4574887,1.347773 0 0 0 0.107947,-0.085729 c 0.01675,-0.014762 0.03358,-0.029144 0.04953,-0.044626 a 1.4574887,1.347773 0 0 0 0.144777,-0.1620613 c 0.0082,-0.011028 0.01496,-0.022783 0.02285,-0.034054 a 1.4574887,1.347773 0 0 0 0.121921,-0.2090382 c 3.81e-4,-8.356e-4 8.92e-4,-0.00152 0.0013,-0.00234 a 1.4574887,1.347773 0 0 0 0.11557,-0.5261295 1.4574887,1.347773 0 0 0 -0.11049,-0.5132035 1.4574887,1.347773 0 0 0 -0.0025,-0.0047 c -0.0016,-0.0036 -0.0035,-0.00698 -0.0051,-0.010579 A 1.4574887,1.347773 0 0 0 15.169424,7.9484518 1.4574887,1.347773 0 0 0 15.001785,7.7593756 c -0.004,-0.00381 -0.0074,-0.00798 -0.01144,-0.011754 a 1.4574887,1.347773 0 0 0 -0.0051,-0.0047 1.4574887,1.347773 0 0 0 -0.190497,-0.1479696 c -0.01005,-0.0065 -0.02027,-0.012516 -0.03047,-0.018807 A 1.4574887,1.347773 0 0 0 14.548411,7.4669282 c -0.0064,-0.00261 -0.01256,-0.00567 -0.01903,-0.00822 a 1.4574887,1.347773 0 0 0 -0.253991,-0.07399 c -0.0076,-0.00156 -0.01518,-0.00325 -0.02284,-0.0047 a 1.4574887,1.347773 0 0 0 -0.274314,-0.028176 c -0.0017,-1.89e-5 -0.0034,1.39e-5 -0.0051,0 a 1.4574887,1.347773 0 0 0 -0.01395,0 1.4574887,1.347773 0 0 0 -0.549901,0.099821 A 1.9126491,1.6905036 0 0 0 13.269601,6.9290594 1.9126491,1.6905036 0 0 0 13.145145,6.708277 1.9126491,1.6905036 0 0 0 13.009255,6.534468 C 12.991425,6.51414 12.973475,6.494135 12.954645,6.474575 A 1.9126491,1.6905036 0 0 0 12.830188,6.3583116 c -0.02289,-0.019672 -0.04586,-0.038908 -0.06985,-0.057546 A 1.9126491,1.6905036 0 0 0 12.62953,6.2079906 C 12.5942,6.1850696 12.55748,6.1641566 12.520312,6.1433986 a 1.9126491,1.6905036 0 0 0 -0.109218,-0.057542 1.9126491,1.6905036 0 0 0 -0.01144,-0.00587 c -0.04121,-0.019396 -0.08401,-0.036108 -0.127,-0.052847 A 1.9126491,1.6905036 0 0 0 12.131681,5.977811 C 12.099301,5.967851 12.067071,5.95807 12.033891,5.949635 A 1.9126491,1.6905036 0 0 0 11.83578,5.9097067 c -0.02371,-0.00367 -0.04711,-0.00767 -0.07112,-0.010579 A 1.9126491,1.6905036 0 0 0 11.530979,5.883846 c -0.0095,-1.21e-4 -0.01843,-0.00234 -0.02793,-0.00234 -0.0069,0 -0.01342,0.00111 -0.02034,0.00117 A 1.9126491,1.6905036 0 0 0 11.204585,5.9038 c -0.01698,0.00234 -0.03398,0.00432 -0.0508,0.00705 a 1.9126491,1.6905036 0 0 0 -0.264155,0.061069 1.9126491,1.6905036 0 0 0 -0.01144,0.00352 c -0.01207,0.00367 -0.02363,0.00784 -0.03556,0.011754 a 1.9126491,1.6905036 0 0 0 -0.24891,0.09865 c -0.0099,0.00481 -0.01933,0.010302 -0.0292,0.015281 a 1.9126491,1.6905036 0 0 0 -0.24256,0.142109 1.9126491,1.6905036 0 0 0 -0.732779,1.3305707 1.9126491,1.6905036 0 0 0 0.025423,0.2748052 1.0787302,0.99782705 0 0 0 -0.8750172,-0.4145556 1.0787302,0.99782705 0 0 0 -0.00374,0 1.0787302,0.99782705 0 0 0 -0.2031968,0.018807 1.0787302,0.99782705 0 0 0 -0.00747,0.00117 c -0.00747,0.00135 -0.014207,0.0032 -0.021684,0.0047 a 1.0787302,0.99782705 0 0 0 -0.1650997,0.048149 c -0.015328,0.00567 -0.030657,0.011305 -0.045724,0.017597 a 1.0787302,0.99782705 0 0 0 -0.1333584,0.066942 c -0.017197,0.010199 -0.034021,0.020606 -0.050809,0.031703 a 1.0787302,0.99782705 0 0 0 -0.1003463,0.076336 c -0.025423,0.021642 -0.049351,0.04429 -0.07238,0.068114 a 1.0787302,0.99782705 0 0 0 -0.00747,0.00822 1.0787302,0.99782705 0 0 0 -0.053351,0.061069 c -0.021311,0.026517 -0.041237,0.05375 -0.05967,0.082206 a 1.0787302,0.99782705 0 0 0 -0.043182,0.072809 c -0.00158,0.00297 -0.00225,0.0064 -0.00374,0.0094 -0.015703,0.030216 -0.029536,0.06093 -0.04191,0.092775 a 1.0787302,0.99782705 0 0 0 -0.031779,0.09395 c -0.00711,0.025583 -0.013085,0.051153 -0.017572,0.077511 a 1.0787302,0.99782705 0 0 0 -0.013833,0.1315304 c -4.823e-4,0.012377 -0.00374,0.023924 -0.00374,0.036405 0,0.01248 0.00332,0.024028 0.00374,0.036408 A 1.0787302,0.99782705 0 0 0 7.6759832,8.58729 c 0.0056,0.034469 0.013459,0.06782 0.022806,0.1009962 a 1.0787302,0.99782705 0 0 0 0.021684,0.068114 c 0.00116,0.00316 0.00263,0.00626 0.00374,0.00937 0.013833,0.036353 0.028787,0.071447 0.046995,0.1056945 a 1.0787302,0.99782705 0 0 0 0.00253,0.0047 c 0.0086,0.016111 0.01832,0.031357 0.02804,0.046976 a 1.0787302,0.99782705 0 0 0 0.00636,0.010579 c 0.023927,0.037863 0.049986,0.07359 0.078736,0.108042 a 1.0787302,0.99782705 0 0 0 0.044453,0.050499 c 0,0 0.00127,0.00117 0.00127,0.00117 0.028414,0.029905 0.059146,0.05805 0.091448,0.084557 a 1.0787302,0.99782705 0 0 0 0.00127,0.00117 L 7.6697195,9.5984416 C 7.3109194,9.3164522 7.0778992,8.9018548 7.0778992,8.4334854 c 0,-0.8467848 0.7454162,-1.5407843 1.6611325,-1.5407843 0.1311899,0 0.257071,0.017735 0.3797256,0.044626 C 9.4282482,6.016163 10.379737,5.3437206 11.503032,5.3437206 Z" />
    <path
       id="path836-3-44"
       style="color:#000000;line-height:normal;letter-spacing:normal;word-spacing:normal;writing-mode:lr-tb;direction:ltr;dominant-baseline:auto;baseline-shift:baseline;white-space:normal;shape-padding:0;shape-margin:0;inline-size:0;clip-rule:nonzero;display:inline;overflow:visible;visibility:visible;isolation:auto;mix-blend-mode:normal;color-interpolation:sRGB;color-interpolation-filters:linearRGB;solid-color:#000000;solid-opacity:1;vector-effect:none;fill:#008000;fill-opacity:1;fill-rule:nonzero;stroke:none;stroke-width:3.59519;stroke-linecap:round;stroke-linejoin:round;stroke-miterlimit:4;stroke-dasharray:none;stroke-dashoffset:0;stroke-opacity:1;color-rendering:auto;image-rendering:auto;shape-rendering:auto;enable-background:accumulate;stop-color:#000000"
       d="m 8.2696427,11.162745 c -1.0751721,0 -1.9910065,0.616 -2.3393023,1.476194 -0.039906,-0.0022 -0.077638,-0.01058 -0.1181083,-0.01058 -1.1247693,0 -2.0395861,0.85065 -2.0395861,1.89075 0,0.60363 0.3139997,1.135455 0.7924665,1.480891 l 0.354325,-0.418081 a 1.4574887,1.347773 0 0 1 -0.1079466,-0.08573 c -0.016749,-0.01476 -0.033574,-0.02914 -0.049529,-0.04463 A 1.4574887,1.347773 0 0 1 4.6171847,15.289503 C 4.6089606,15.278477 4.60223,15.266717 4.594341,15.25545 A 1.4574887,1.347773 0 0 1 4.4724197,15.046411 c -3.798e-4,-8.35e-4 -8.921e-4,-0.0015 -0.00127,-0.0023 a 1.4574887,1.347773 0 0 1 -0.1155699,-0.52613 1.4574887,1.347773 0 0 1 0.110489,-0.513204 1.4574887,1.347773 0 0 1 0.00253,-0.0047 c 0.0016,-0.0036 0.00344,-0.007 0.00509,-0.01058 A 1.4574887,1.347773 0 0 1 4.603222,13.767516 1.4574887,1.347773 0 0 1 4.7708603,13.57844 c 0.004,-0.0038 0.00736,-0.008 0.011441,-0.01175 a 1.4574887,1.347773 0 0 1 0.00509,-0.0047 1.4574887,1.347773 0 0 1 0.1904965,-0.14797 c 0.010021,-0.0065 0.020264,-0.01251 0.03047,-0.01881 a 1.4574887,1.347773 0 0 1 0.215882,-0.109214 c 0.00643,-0.0026 0.012562,-0.0056 0.01903,-0.0082 a 1.4574887,1.347773 0 0 1 0.253994,-0.07398 c 0.00763,-0.0015 0.015179,-0.0032 0.022844,-0.0047 a 1.4574887,1.347773 0 0 1 0.2743137,-0.02818 c 0.00173,-1.9e-5 0.00337,1.4e-5 0.00509,0 a 1.4574887,1.347773 0 0 1 0.013945,0 1.4574887,1.347773 0 0 1 0.5499005,0.09982 1.9126491,1.6905036 0 0 1 0.1396991,-0.522599 1.9126491,1.6905036 0 0 1 0.1244566,-0.220782 1.9126491,1.6905036 0 0 1 0.1358894,-0.173809 c 0.017833,-0.02033 0.035779,-0.04033 0.054611,-0.05989 a 1.9126491,1.6905036 0 0 1 0.1244566,-0.116264 c 0.02288,-0.01967 0.045862,-0.0389 0.06985,-0.05754 a 1.9126491,1.6905036 0 0 1 0.1308086,-0.09278 c 0.03533,-0.02293 0.072044,-0.04383 0.1092178,-0.06459 a 1.9126491,1.6905036 0 0 1 0.1092178,-0.05754 1.9126491,1.6905036 0 0 1 0.011441,-0.0059 c 0.041208,-0.01939 0.084008,-0.03611 0.1269989,-0.05285 a 1.9126491,1.6905036 0 0 1 0.1409666,-0.04933 c 0.032377,-0.0099 0.064604,-0.01974 0.097789,-0.02818 a 1.9126491,1.6905036 0 0 1 0.1981158,-0.03993 c 0.023703,-0.0036 0.047107,-0.0076 0.07112,-0.01057 a 1.9126491,1.6905036 0 0 1 0.2336782,-0.01529 c 0.00949,-1.21e-4 0.018432,-0.0023 0.027927,-0.0023 0.00691,0 0.013421,0.0011 0.020338,0.0012 a 1.9126491,1.6905036 0 0 1 0.2781235,0.02113 c 0.016973,0.0023 0.033985,0.0043 0.050801,0.007 a 1.9126491,1.6905036 0 0 1 0.2641558,0.06107 1.9126491,1.6905036 0 0 1 0.011441,0.0035 c 0.012076,0.0036 0.023629,0.0078 0.035554,0.01176 a 1.9126491,1.6905036 0 0 1 0.248917,0.09864 c 0.00998,0.0048 0.019329,0.0103 0.029199,0.01528 a 1.9126491,1.6905036 0 0 1 0.2425649,0.142099 1.9126491,1.6905036 0 0 1 0.7327794,1.330571 1.9126491,1.6905036 0 0 1 -0.02542,0.274805 1.0787302,0.99782705 0 0 1 0.875016,-0.414555 1.0787302,0.99782705 0 0 1 0.0038,0 1.0787302,0.99782705 0 0 1 0.203197,0.01881 1.0787302,0.99782705 0 0 1 0.0075,0.0012 c 0.0075,0.0013 0.0142,0.0032 0.02169,0.0047 a 1.0787302,0.99782705 0 0 1 0.165099,0.04815 c 0.01533,0.0056 0.03065,0.01131 0.04572,0.01759 a 1.0787302,0.99782705 0 0 1 0.133359,0.06694 c 0.0172,0.0102 0.03402,0.02061 0.05081,0.0317 a 1.0787302,0.99782705 0 0 1 0.100344,0.07633 c 0.02542,0.02164 0.04935,0.0443 0.07238,0.06812 a 1.0787302,0.99782705 0 0 1 0.0075,0.0082 1.0787302,0.99782705 0 0 1 0.05336,0.06107 c 0.02131,0.02652 0.04124,0.05375 0.05967,0.08221 a 1.0787302,0.99782705 0 0 1 0.04318,0.07281 c 0.0016,0.003 0.0022,0.0064 0.0038,0.0094 0.01571,0.03022 0.02954,0.06093 0.04191,0.09277 a 1.0787302,0.99782705 0 0 1 0.03178,0.09396 c 0.0071,0.02559 0.01309,0.05115 0.01757,0.07752 a 1.0787302,0.99782705 0 0 1 0.01383,0.131531 c 4.83e-4,0.01238 0.0038,0.02392 0.0038,0.0364 0,0.01248 -0.0033,0.02403 -0.0038,0.03641 a 1.0787302,0.99782705 0 0 1 -0.01271,0.117435 c -0.0056,0.03446 -0.01346,0.06782 -0.0228,0.100996 a 1.0787302,0.99782705 0 0 1 -0.02169,0.06812 c -0.0011,0.0031 -0.0026,0.0062 -0.0038,0.0093 -0.01383,0.03635 -0.02878,0.07145 -0.047,0.105694 a 1.0787302,0.99782705 0 0 1 -0.0025,0.0047 c -0.0086,0.01611 -0.01832,0.03136 -0.02804,0.04698 a 1.0787302,0.99782705 0 0 1 -0.0064,0.01057 c -0.02393,0.03787 -0.04998,0.07359 -0.07874,0.108042 a 1.0787302,0.99782705 0 0 1 -0.04445,0.0505 c 0,0 -0.0013,0.0012 -0.0013,0.0012 -0.02841,0.0299 -0.05914,0.05805 -0.09145,0.08455 a 1.0787302,0.99782705 0 0 1 -0.0013,0.0012 l 0.355585,0.419253 c 0.358801,-0.28199 0.59182,-0.696587 0.59182,-1.164956 0,-0.846785 -0.745416,-1.540785 -1.661131,-1.540785 -0.13119,0 -0.257072,0.01774 -0.379726,0.04463 -0.309492,-0.921164 -1.2609801,-1.593607 -2.3842757,-1.593607 z" />
  </g>
</svg>
