<?xml version="1.0" encoding="UTF-8" standalone="no"?>
<!-- Created with Inkscape (http://www.inkscape.org/) -->

<svg
   xmlns:dc="http://purl.org/dc/elements/1.1/"
   xmlns:cc="http://creativecommons.org/ns#"
   xmlns:rdf="http://www.w3.org/1999/02/22-rdf-syntax-ns#"
   xmlns:svg="http://www.w3.org/2000/svg"
   xmlns="http://www.w3.org/2000/svg"
   xmlns:sodipodi="http://sodipodi.sourceforge.net/DTD/sodipodi-0.dtd"
   xmlns:inkscape="http://www.inkscape.org/namespaces/inkscape"
   width="917.01813"
   height="982.49854"
   id="svg3157"
   version="1.1"
   inkscape:version="0.48.4 r9939"
   sodipodi:docname="New document 2">
  <defs
     id="defs3159">
    <clipPath
       id="presentation_clip_path"
       clipPathUnits="userSpaceOnUse">
      <rect
         x="0"
         y="0"
         width="21000"
         height="29700"
         id="rect7" />
    </clipPath>
  </defs>
  <sodipodi:namedview
     id="base"
     pagecolor="#ffffff"
     bordercolor="#666666"
     borderopacity="1.0"
     inkscape:pageopacity="0.0"
     inkscape:pageshadow="2"
     inkscape:zoom="0.35"
     inkscape:cx="116.36642"
     inkscape:cy="468.39287"
     inkscape:document-units="px"
     inkscape:current-layer="layer1"
     showgrid="false"
     fit-margin-top="0"
     fit-margin-left="0"
     fit-margin-right="0"
     fit-margin-bottom="0"
     inkscape:window-width="1680"
     inkscape:window-height="988"
     inkscape:window-x="-8"
     inkscape:window-y="-8"
     inkscape:window-maximized="1" />
  <metadata
     id="metadata3162">
    <rdf:RDF>
      <cc:Work
         rdf:about="">
        <dc:format>image/svg+xml</dc:format>
        <dc:type
           rdf:resource="http://purl.org/dc/dcmitype/StillImage" />
        <dc:title></dc:title>
      </cc:Work>
    </rdf:RDF>
  </metadata>
  <g
     inkscape:label="Layer 1"
     inkscape:groupmode="layer"
     id="layer1"
     transform="translate(-258.63358,-18.256528)">
    <g
       style="fill-rule:evenodd;stroke-width:28.22200012;stroke-linejoin:round"
       clip-path="url(#presentation_clip_path)"
       class="Slide"
       id="id1"
       transform="matrix(0.04819248,0,0,0.03543307,211.12182,-16.67605)">
      <g
         id="g54"
         class="Page">
        <g
           id="g56"
           class="com.sun.star.drawing.PolyPolygonShape">
          <g
             id="id3">
            <path
               style="fill:#b3b3b3;stroke:none"
               inkscape:connector-curvature="0"
               id="path59"
               d="m 1000,28700 0,-8589 710,0 0,8589 -710,0 z" />
            <path
               style="fill:#4d4d4d;stroke:#666666"
               inkscape:connector-curvature="0"
               id="path61"
               d="m 1000,28700 0,-8589 710,0 0,8589 -710,0 z" />
          </g>
        </g>
        <g
           id="g63"
           class="com.sun.star.drawing.PolyPolygonShape">
          <g
             id="id4">
            <path
               style="fill:#1a1a1a;stroke:none"
               inkscape:connector-curvature="0"
               id="path66"
               d="m 10056,1859 0,8589 4972,0 3907,-8589 -8879,0 z" />
            <path
               style="fill:none;stroke:#666666"
               inkscape:connector-curvature="0"
               id="path68"
               d="m 10056,1859 0,8589 4972,0 3907,-8589 -8879,0 z" />
          </g>
        </g>
        <g
           id="g70"
           class="com.sun.star.drawing.PolyPolygonShape">
          <g
             id="id5">
            <path
               style="fill:#333333;stroke:none"
               inkscape:connector-curvature="0"
               id="path73"
               d="m 1710,20111 8346,-18252 0,8589 -8346,18252 0,-8589 z" />
            <path
               style="fill:none;stroke:#999999"
               inkscape:connector-curvature="0"
               id="path75"
               d="m 1710,20111 8346,-18252 0,8589 -8346,18252 0,-8589 z" />
          </g>
        </g>
        <g
           id="g77"
           class="com.sun.star.drawing.ClosedFreeHandShape">
          <g
             id="id6">
            <path
               style="fill:#cccc00;stroke:none"
               inkscape:connector-curvature="0"
               id="path80"
               d="m 10054,4906 c -218,294 -404,674 -381,1067 26,457 -243,741 -382,1100 -138,354 15,697 -59,1065 -77,380 -43,809 -351,1101 -299,283 -442,743 -677,1102 -209,320 -161,730 -176,1099 -15,367 49,747 -87,1102 -130,339 -135,730 -117,1099 18,359 -23,794 -382,960 -337,156 -654,430 -852,816 -172,335 -257,726 -352,1101 -90,359 -50,746 -147,1102 -102,376 -153,775 -295,1136 -153,388 36,781 61,1170 22,357 -32,711 -61,1065 -33,398 48,879 382,1067 286,162 609,164 911,284 335,133 598,490 646,887 58,479 474,542 764,532 293,-9 588,-70 881,-105 319,-38 648,26 939,176 348,180 696,-118 881,-425 212,-353 591,-303 880,-498 304,-205 487,-582 647,-958 163,-382 605,-395 880,-640 284,-252 368,-706 471,-1099 103,-391 213,-788 206,-1209 -6,-380 70,-758 87,-1136 19,-423 254,-767 440,-1099 228,-406 483,-789 736,-1173 212,-323 330,-730 527,-1065 217,-369 446,-736 618,-1136 170,-395 542,-676 557,-1138 15,-434 230,-781 469,-1065 249,-294 336,-734 499,-1099 151,-338 331,-683 354,-1065 21,-359 44,-709 28,-1065 -16,-368 9,-737 0,-1102 -9,-365 -26,-726 59,-1102 82,-362 51,-951 -293,-1065 -318,-105 -629,-193 -881,-425 -268,-247 -625,-404 -970,-320 -346,85 -589,410 -909,569 -288,144 -545,511 -881,425 -314,-80 -633,-78 -941,-178 -305,-99 -738,-64 -880,320 -146,393 -482,549 -792,498 -336,-54 -670,-182 -940,-427 -263,-238 -600,-245 -911,-283 l -117,-142 -89,176 z" />
            <path
               style="fill:none;stroke:#cccc00"
               inkscape:connector-curvature="0"
               id="path82"
               d="m 10054,4906 c -218,294 -404,674 -381,1067 26,457 -243,741 -382,1100 -138,354 15,697 -59,1065 -77,380 -43,809 -351,1101 -299,283 -442,743 -677,1102 -209,320 -161,730 -176,1099 -15,367 49,747 -87,1102 -130,339 -135,730 -117,1099 18,359 -23,794 -382,960 -337,156 -654,430 -852,816 -172,335 -257,726 -352,1101 -90,359 -50,746 -147,1102 -102,376 -153,775 -295,1136 -153,388 36,781 61,1170 22,357 -32,711 -61,1065 -33,398 48,879 382,1067 286,162 609,164 911,284 335,133 598,490 646,887 58,479 474,542 764,532 293,-9 588,-70 881,-105 319,-38 648,26 939,176 348,180 696,-118 881,-425 212,-353 591,-303 880,-498 304,-205 487,-582 647,-958 163,-382 605,-395 880,-640 284,-252 368,-706 471,-1099 103,-391 213,-788 206,-1209 -6,-380 70,-758 87,-1136 19,-423 254,-767 440,-1099 228,-406 483,-789 736,-1173 212,-323 330,-730 527,-1065 217,-369 446,-736 618,-1136 170,-395 542,-676 557,-1138 15,-434 230,-781 469,-1065 249,-294 336,-734 499,-1099 151,-338 331,-683 354,-1065 21,-359 44,-709 28,-1065 -16,-368 9,-737 0,-1102 -9,-365 -26,-726 59,-1102 82,-362 51,-951 -293,-1065 -318,-105 -629,-193 -881,-425 -268,-247 -625,-404 -970,-320 -346,85 -589,410 -909,569 -288,144 -545,511 -881,425 -314,-80 -633,-78 -941,-178 -305,-99 -738,-64 -880,320 -146,393 -482,549 -792,498 -336,-54 -670,-182 -940,-427 -263,-238 -600,-245 -911,-283 l -117,-142 -89,176 z" />
          </g>
        </g>
        <g
           id="g84"
           class="com.sun.star.drawing.PolyPolygonShape">
          <g
             id="id7">
            <path
               style="fill:#4d4d4d;stroke:none"
               inkscape:connector-curvature="0"
               id="path87"
               d="m 10589,28700 0,-8589 710,0 0,8589 -710,0 z" />
            <path
               style="fill:none;stroke:#666666"
               inkscape:connector-curvature="0"
               id="path89"
               d="m 10589,28700 0,-8589 710,0 0,8589 -710,0 z" />
          </g>
        </g>
        <g
           id="g91"
           class="com.sun.star.drawing.PolyPolygonShape">
          <g
             id="id8">
            <path
               style="fill:#4d4d4d;stroke:none"
               inkscape:connector-curvature="0"
               id="path94"
               d="m 11299,28700 0,-8589 8701,-19111 -178,9019 -8523,18681 z" />
            <path
               style="fill:none;stroke:#999999"
               inkscape:connector-curvature="0"
               id="path96"
               d="m 11299,28700 0,-8589 8701,-19111 -178,9019 -8523,18681 z" />
          </g>
        </g>
        <g
           id="g98"
           class="com.sun.star.drawing.PolyPolygonShape">
          <g
             id="id9">
            <path
               style="fill:#e6e6e6;stroke:none"
               inkscape:connector-curvature="0"
               id="path101"
               d="m 1000,20111 8701,-19111 10299,0 -8701,19111 -710,0 8346,-18252 -8879,0 -8346,18252 -710,0 z" />
            <path
               style="fill:#4d4d4d;stroke:#999999"
               inkscape:connector-curvature="0"
               id="path103"
               d="m 1000,20111 8701,-19111 10299,0 -8701,19111 -710,0 8346,-18252 -8879,0 -8346,18252 -710,0 z" />
          </g>
        </g>
      </g>
    </g>
  </g>
</svg>
