<?xml version="1.0" encoding="utf-8"?>
<!-- Generator: Adobe Illustrator 25.4.1, SVG Export Plug-In . SVG Version: 6.00 Build 0)  -->
<svg version="1.1"
	 id="Réteg_1" xmlns:cc="http://creativecommons.org/ns#" xmlns:dc="http://purl.org/dc/elements/1.1/" xmlns:rdf="http://www.w3.org/1999/02/22-rdf-syntax-ns#" xmlns:svg="http://www.w3.org/2000/svg"
	 xmlns="http://www.w3.org/2000/svg" xmlns:xlink="http://www.w3.org/1999/xlink" x="0px" y="0px" width="16px" height="16px"
	 viewBox="0 0 16 16" style="enable-background:new 0 0 16 16;" xml:space="preserve">
<path id="path44" style="fill-rule:evenodd;clip-rule:evenodd;fill:#FFFF00;" d="M0,14v-1h3v-1v-2H0.2V9.6C0.2,8,0.8,6.3,3,6.2
	c2,0,3,1.8,3,3.4V10v3h2.3l0-1.5C7,10.7,6.5,9,6.5,8c0-1.1,0.3-2,0.8-3l0-3c0-0.5,0.4-1,1.1-1h0.9c0-0.6,0.5-1,1-1h4.5
	c0.6,0,1.1,0.5,1.1,1l0,7c0,1.7-0.6,2.8-1.6,3.6l0,2.4H0z"/>
<g id="g8">
	<polyline id="polyline4" style="fill:none;stroke:#706F6F;stroke-width:0.25;stroke-linecap:round;stroke-miterlimit:1;" points="
		8.6,3.1 9.1,3.7 8.6,4.3 	"/>
	
		<line id="line6" style="fill:none;stroke:#878787;stroke-width:0.25;stroke-linecap:round;stroke-miterlimit:1;" x1="8.5" y1="2.5" x2="8.5" y2="4.9"/>
</g>
<g id="g14">
	
		<polyline id="polyline10" style="fill:none;stroke:#706F6F;stroke-width:0.45;stroke-linecap:square;stroke-miterlimit:1;" points="
		14.3,2.9 13.7,2.3 14.3,1.7 	"/>
	
		<line id="line12" style="fill:none;stroke:#878787;stroke-width:0.45;stroke-linecap:round;stroke-miterlimit:1;" x1="14.5" y1="3.6" x2="14.5" y2="1.1"/>
</g>
<linearGradient id="line23_00000056390731845143994270000002014353993123974291_" gradientUnits="userSpaceOnUse" x1="13.05" y1="14.1386" x2="13.05" y2="13.1886" gradientTransform="matrix(1 0 0 -1 0 16)">
	<stop  offset="0" style="stop-color:#EF7B5A"/>
	<stop  offset="0.5" style="stop-color:#C21B1C"/>
	<stop  offset="1" style="stop-color:#530B00"/>
</linearGradient>
<line id="line23" style="fill:none;stroke:url(#line23_00000056390731845143994270000002014353993123974291_);stroke-width:0.95;stroke-miterlimit:1;" x1="12.2" y1="2.3" x2="13.9" y2="2.3"/>
<linearGradient id="line32_00000045580130229475538680000003042321430554409908_" gradientUnits="userSpaceOnUse" x1="10.1" y1="12.6299" x2="10.1" y2="11.9799" gradientTransform="matrix(1 0 0 -1 0 16)">
	<stop  offset="0" style="stop-color:#EF7B5A"/>
	<stop  offset="0.5" style="stop-color:#C21B1C"/>
	<stop  offset="1" style="stop-color:#530B00"/>
</linearGradient>
<line id="line32" style="fill:none;stroke:url(#line32_00000045580130229475538680000003042321430554409908_);stroke-width:0.65;stroke-miterlimit:1;" x1="9" y1="3.7" x2="11.2" y2="3.7"/>
<linearGradient id="line39_00000082360090784082821790000015168642177134732431_" gradientUnits="userSpaceOnUse" x1="11.2" y1="1.15" x2="11.2" y2="15.35" gradientTransform="matrix(1 0 0 -1 0 16)">
	<stop  offset="3.558486e-09" style="stop-color:#533812"/>
	<stop  offset="1" style="stop-color:#1C0000"/>
</linearGradient>
<line id="line39" style="fill:none;stroke:url(#line39_00000082360090784082821790000015168642177134732431_);stroke-width:2;stroke-linecap:round;stroke-miterlimit:1;" x1="11.2" y1="13.9" x2="11.2" y2="1.6"/>
<rect id="rect41" x="9.8" y="12.9" style="fill:none;stroke:#808080;stroke-miterlimit:1;" width="2.8" height="0.7"/>
<path id="path43" style="fill:none;stroke:#000000;stroke-miterlimit:10;" d="M4.4,14c0-1.6,0-3.1,0-4.7c0-0.9-0.6-1.6-1.3-1.7
	c-0.8,0-1.5,0.8-1.5,1.8"/>
<rect id="rect45" y="14" style="fill:#7D4E24;" width="16" height="2"/>
<ellipse id="ellipse47" cx="11.2" cy="8.1" rx="2" ry="2.3"/>
<g id="g58">
	<g id="_x3C_Körkörös_ismétlés_x3E__00000091696109928770295790000006027385785474707628_">
		
			<line id="line49" style="fill:none;stroke:#B2B2B2;stroke-width:0.75;stroke-miterlimit:1;" x1="11.3" y1="8" x2="8.9" y2="10.3"/>
	</g>
	<g id="_x3C_Körkörös_ismétlés_x3E__00000095314307147076997730000011218221142246247092_">
		
			<line id="line52" style="fill:none;stroke:#B2B2B2;stroke-width:0.75;stroke-miterlimit:1;" x1="11.2" y1="8.2" x2="10.4" y2="5"/>
	</g>
	<g id="_x3C_Körkörös_ismétlés_x3E__00000152980639432485058720000012890486366756343474_">
		
			<line id="line55" style="fill:none;stroke:#B2B2B2;stroke-width:0.75;stroke-miterlimit:1;" x1="11.1" y1="8.1" x2="14.3" y2="9"/>
	</g>
</g>
<circle id="circle60" style="fill:none;stroke:#808080;stroke-width:0.5;stroke-miterlimit:1;" cx="11.2" cy="8.1" r="3.3"/>
<line id="line62" style="fill:none;stroke:#000000;stroke-width:0.25;stroke-miterlimit:1;" x1="9.7" y1="9.4" x2="9.7" y2="9.4"/>
</svg>
