<?xml version="1.0" encoding="UTF-8" standalone="no"?>
<svg
   version="1.0"
   width="16pt"
   height="16pt"
   viewBox="0 0 16 16"
   preserveAspectRatio="xMidYMid"
   id="svg1"
   sodipodi:docname="heap.svg"
   inkscape:version="1.3 (0e150ed6c4, 2023-07-21)"
   xmlns:inkscape="http://www.inkscape.org/namespaces/inkscape"
   xmlns:sodipodi="http://sodipodi.sourceforge.net/DTD/sodipodi-0.dtd"
   xmlns="http://www.w3.org/2000/svg"
   xmlns:svg="http://www.w3.org/2000/svg">
  <defs
     id="defs1" />
  <sodipodi:namedview
     id="namedview1"
     pagecolor="#ffffff"
     bordercolor="#666666"
     borderopacity="1.0"
     inkscape:showpageshadow="2"
     inkscape:pageopacity="0.0"
     inkscape:pagecheckerboard="0"
     inkscape:deskcolor="#d1d1d1"
     inkscape:document-units="pt"
     inkscape:zoom="20.78328"
     inkscape:cx="7.1211088"
     inkscape:cy="10.417027"
     inkscape:window-width="1647"
     inkscape:window-height="939"
     inkscape:window-x="2125"
     inkscape:window-y="140"
     inkscape:window-maximized="0"
     inkscape:current-layer="svg1" />
  <path
     d="M 7.1847463,0.94120179 C 6.7707702,1.0257603 6.4128658,1.2282558 6.0072407,1.6087692 5.4501029,2.1316972 5.0385128,2.6256973 4.8225771,3.0306883 4.7521892,3.1642019 4.7354871,3.2109314 4.7163988,3.3266433 4.6841874,3.5246882 4.6269227,3.6470757 4.4706378,3.8562469 4.3954778,3.956382 4.3167389,4.0787693 4.2964576,4.1277243 4.2737904,4.1833548 4.2332279,4.3591477 4.1843142,4.6261747 4.0984172,5.0867964 3.9993969,5.4762108 3.9111138,5.6942828 3.840726,5.8656252 3.6259833,6.2127603 3.437487,6.4553099 3.1738307,6.7979946 3.0258969,7.0360937 2.5498841,7.8839046 2.1263638,8.6360306 2.0404668,8.7806703 1.9199722,8.9364359 1.7267039,9.1856622 1.5871211,9.3837068 1.5453656,9.4704898 c -0.02386,0.04896 -0.073967,0.2024949 -0.1121434,0.3426841 -0.1288456,0.4672981 -0.163443,0.5451811 -0.60127939,1.3529371 -0.27916545,0.516253 -0.41874817,0.789956 -0.45215259,0.887865 -0.0274394,0.07788 -0.0489136,0.153542 -0.0489136,0.166893 0.001193,0.0267 0.17656618,0.218071 0.70387868,0.7588 0.3507463,0.360488 0.3531323,0.362714 0.5547518,0.469524 0.1932684,0.104585 0.2099707,0.109029 0.3459743,0.106807 1.5936597,0.391887 3.0574709,1.335799 4.6706524,0.814426 0.4605037,-0.184693 0.6382629,-0.229198 0.8112501,-0.211396 0.1956544,0.02002 0.3793786,0.06676 0.6048584,0.155768 0.1085644,0.04229 0.2207078,0.07788 0.2493401,0.07788 0.081126,0 0.2063919,-0.04006 0.398467,-0.126834 0.2696213,-0.120152 0.2851309,-0.122387 0.4867505,-0.0623 0.096633,0.03115 0.3077976,0.104585 0.4700472,0.166892 0.1622505,0.06008 0.3483605,0.122388 0.4115909,0.13574 0.26127,0.05118 0.935323,0.269252 1.065362,0.342684 0.985405,0.210903 2.144676,0.0186 3.229068,-0.215046 1.134305,-0.872955 0.788242,-0.735841 1.147671,-2.058162 0.05462,-1.035368 -0.323731,-1.220825 -0.818147,-2.6177572 C 14.494177,9.6908672 14.497202,9.342308 14.296837,8.8226134 13.89837,8.3619919 13.924087,8.0886252 13.846541,7.9150578 13.697414,7.5879496 13.58885,7.2541658 13.547094,7.0027153 13.099991,6.5318794 13.003714,5.9547342 12.610479,5.4432488 12.385,5.1428434 11.898706,4.6540139 11.818774,4.4492931 10.501727,2.889548 11.279559,3.0730773 9.6995728,1.8139066 9.3941609,1.7582746 9.1353256,1.4641289 9.0422706,1.4641289 8.8895646,1.4641289 8.4314467,1.2749848 8.1009817,1.0769398 7.8313603,0.91449904 7.5366857,0.86999465 7.1847463,0.94120179 Z"
     id="path1"
     style="fill:#000000;stroke:none;stroke-width:0.00162933"
     sodipodi:nodetypes="ccccccccccccccccccccccsccccccccccccccscc" />
</svg>
