<?xml version="1.0" encoding="UTF-8" standalone="no"?>
<!-- Created with Inkscape (http://www.inkscape.org/) -->

<svg
   xmlns:dc="http://purl.org/dc/elements/1.1/"
   xmlns:cc="http://creativecommons.org/ns#"
   xmlns:rdf="http://www.w3.org/1999/02/22-rdf-syntax-ns#"
   xmlns:svg="http://www.w3.org/2000/svg"
   xmlns="http://www.w3.org/2000/svg"
   xmlns:sodipodi="http://sodipodi.sourceforge.net/DTD/sodipodi-0.dtd"
   xmlns:inkscape="http://www.inkscape.org/namespaces/inkscape"
   version="1.0"
   width="430"
   height="430"
   id="svg2"
   sodipodi:version="0.32"
   inkscape:version="0.92.3 (2405546, 2018-03-11)"
   sodipodi:docname="historic_mine.svg"
   inkscape:output_extension="org.inkscape.output.svg.inkscape">
  <metadata
     id="metadata6">
    <rdf:RDF>
      <cc:Work
         rdf:about="">
        <dc:format>image/svg+xml</dc:format>
        <dc:type
           rdf:resource="http://purl.org/dc/dcmitype/StillImage" />
        <cc:license
           rdf:resource="http://web.resource.org/cc/PublicDomain" />
        <dc:title></dc:title>
      </cc:Work>
      <cc:License
         rdf:about="http://web.resource.org/cc/PublicDomain">
        <cc:permits
           rdf:resource="http://web.resource.org/cc/Reproduction" />
        <cc:permits
           rdf:resource="http://web.resource.org/cc/Distribution" />
        <cc:permits
           rdf:resource="http://web.resource.org/cc/DerivativeWorks" />
      </cc:License>
    </rdf:RDF>
  </metadata>
  <sodipodi:namedview
     inkscape:window-height="987"
     inkscape:window-width="1680"
     inkscape:pageshadow="2"
     inkscape:pageopacity="0.0"
     guidetolerance="10.0"
     gridtolerance="10.0"
     objecttolerance="10.0"
     borderopacity="1.0"
     bordercolor="#666666"
     pagecolor="#ffffff"
     id="base"
     inkscape:zoom="0.70807368"
     inkscape:cx="70.220143"
     inkscape:cy="387.14826"
     inkscape:window-x="-8"
     inkscape:window-y="-8"
     inkscape:current-layer="svg2"
     showgrid="false"
     inkscape:window-maximized="1"
     inkscape:pagecheckerboard="true" />
  <defs
     id="defs4" />
  <path
     inkscape:connector-curvature="0"
     d="m 102.25974,52.737048 c -14.031744,4.81075 -15.586986,6.17631 -18.583819,16.3172 -2.810762,9.51128 -2.809437,10.8384 0.01144,11.42131 1.615526,0.33382 18.301109,17.21221 50.916589,51.504932 26.68249,28.05462 51.92883,54.4988 56.10301,58.76485 5.68824,5.81343 7.38309,8.11953 6.7658,9.20581 -1.74565,3.07182 -74.52754,79.53498 -76.38391,80.24733 -0.7209,0.27663 -2.62095,-0.8883 -4.22235,-2.58877 -3.68792,-3.9161 -21.765187,-28.02959 -32.695131,-43.61244 -4.5976,-6.55482 -8.8822,-11.8698 -9.52134,-11.81107 -0.63913,0.0588 -10.247928,7.35244 -21.352884,16.20826 l -20.190816,16.10151 2.707849,2.38356 c 1.489321,1.31096 6.951995,8.6047 12.139281,16.20828 15.100229,22.13409 31.695288,43.72849 39.966503,52.00662 11.188609,11.19795 74.000918,57.63757 77.958198,57.63757 1.01806,0 6.69269,-6.56346 14.78154,-17.09677 8.97219,-11.68359 13.98652,-17.413 15.83707,-18.09551 1.48935,-0.54931 2.56195,-1.40555 2.38356,-1.90277 -0.17838,-0.49723 -9.97781,-8.17306 -21.77647,-17.05741 -11.79868,-8.88435 -24.53989,-19.01696 -28.31383,-22.51693 -9.90524,-9.18616 -10.36372,-8.08567 13.25114,-31.80676 23.70705,-23.81367 82.80148,-81.09955 141.39187,-137.06463 24.12172,-23.04089 46.89347,-44.794232 50.60385,-48.340752 4.33417,-4.14273 7.53129,-6.44822 8.94205,-6.44822 2.09654,0 2.16595,-0.22546 1.53452,-4.98542 -1.05513,-7.95396 -4.34674,-15.12166 -8.10527,-17.64986 -3.53476,-2.37765 -10.33966,-4.55387 -17.2606,-5.51994 l -4.32941,-0.60433 -56.61015,60.647622 c -31.13559,33.35619 -56.90485,60.5284 -57.265,60.38267 -0.36015,-0.14572 -23.93578,-26.65108 -52.39029,-58.90076 C 140.09824,83.522528 115.258,55.558168 113.35224,53.629208 l -3.46504,-3.50721 z m 128.77189,157.705802 -11.38199,10.76758 34.3437,36.02871 c 28.98844,30.41069 34.34373,36.46012 34.34373,38.79537 0,2.38704 -3.24793,5.79129 -23.67108,24.81039 -13.01909,12.12405 -23.43379,22.42764 -23.14381,22.89686 0.29,0.46922 1.40116,0.85313 2.46928,0.85313 1.21064,0 8.3466,6.10404 18.94838,16.20827 9.35351,8.91455 17.46528,16.20827 18.02617,16.20827 0.56087,0 10.70967,-9.43893 22.55286,-20.97541 22.4619,-21.88015 24.03452,-22.96808 27.56354,-19.06856 0.94912,1.04878 2.41,1.90122 3.24642,1.89432 0.83639,-0.007 4.51903,-2.56159 8.18362,-5.67711 4.25232,-3.61515 7.68409,-5.76652 9.48543,-5.94638 l 2.82255,-0.28182 -3.17888,-3.60987 c -1.74839,-1.98544 -3.32534,-4.86761 -3.5043,-6.40481 -0.28704,-2.46525 0.58825,-3.58575 7.42081,-9.49974 4.26044,-3.68767 8.21908,-6.709 8.797,-6.71407 0.95211,-0.009 43.48691,-82.03462 42.92509,-82.77892 -0.13144,-0.17415 -16.47163,8.34302 -36.31152,18.92704 l -36.07251,19.24368 -10.97874,10.86757 c -6.0383,5.97718 -11.24953,10.8676 -11.58048,10.8676 -0.33097,0 -16.13639,-17.59074 -35.12316,-39.09054 -18.98678,-21.4998 -34.5841,-39.09023 -34.66075,-39.08984 -0.0766,3.8e-4 -5.26126,4.84611 -11.52136,10.76828 z"
     style="fill:#000000;fill-opacity:1;stroke:#fafafa;stroke-width:38.13711548;stroke-miterlimit:4;stroke-dasharray:none;stroke-opacity:1"
     id="path1935-3" />
  <path
     d="m 102.25974,52.737048 c -14.031744,4.81075 -15.586986,6.17631 -18.583819,16.3172 -2.810762,9.51128 -2.809437,10.8384 0.0114,11.42131 1.615526,0.33382 18.301109,17.21221 50.916589,51.504932 26.68249,28.05462 51.92883,54.4988 56.10301,58.76485 5.68824,5.81343 7.38309,8.11953 6.7658,9.20581 -1.74565,3.07182 -74.52754,79.53498 -76.38389,80.24733 -0.72092,0.27663 -2.62097,-0.8883 -4.22237,-2.58877 -3.68792,-3.9161 -21.765187,-28.02959 -32.695131,-43.61244 -4.5976,-6.55482 -8.8822,-11.8698 -9.52134,-11.81107 -0.63913,0.0588 -10.247928,7.35244 -21.352884,16.20826 l -20.190816,16.10151 2.707849,2.38356 c 1.489321,1.31096 6.951995,8.6047 12.139281,16.20828 15.10023,22.13409 31.695289,43.72849 39.966504,52.00662 11.188608,11.19795 74.000917,57.63757 77.958197,57.63757 1.01806,0 6.69269,-6.56346 14.78154,-17.09677 8.97219,-11.68359 13.98652,-17.413 15.83707,-18.09551 1.48935,-0.54931 2.56195,-1.40555 2.38356,-1.90277 -0.17838,-0.49723 -9.97781,-8.17306 -21.77647,-17.05741 -11.79866,-8.88435 -24.53989,-19.01696 -28.31383,-22.51693 -9.90523,-9.18616 -10.36372,-8.08567 13.25114,-31.80676 23.70705,-23.81367 82.80148,-81.09955 141.39187,-137.06463 24.12172,-23.04089 46.89347,-44.794232 50.60387,-48.340752 4.33415,-4.14273 7.53127,-6.44822 8.94203,-6.44822 2.09654,0 2.16595,-0.22546 1.53452,-4.98542 -1.05513,-7.95396 -4.34674,-15.12166 -8.10527,-17.64986 -3.53476,-2.37765 -10.33966,-4.55387 -17.26058,-5.51994 l -4.32942,-0.60433 -56.61016,60.647622 c -31.13559,33.35619 -56.90484,60.5284 -57.265,60.38267 -0.36015,-0.14572 -23.93578,-26.65108 -52.39029,-58.90076 C 140.0982,83.522528 115.25798,55.558168 113.3522,53.629208 l -3.46504,-3.50721 z m 128.77189,157.705802 -11.38199,10.76758 34.3437,36.02871 c 28.98844,30.41069 34.34373,36.46012 34.34373,38.79537 0,2.38704 -3.24793,5.79129 -23.67108,24.81039 -13.01909,12.12405 -23.43379,22.42764 -23.14381,22.89686 0.29,0.46922 1.40116,0.85313 2.46928,0.85313 1.21064,0 8.3466,6.10404 18.94838,16.20827 9.35351,8.91455 17.46528,16.20827 18.02617,16.20827 0.56087,0 10.70967,-9.43893 22.55286,-20.97541 22.4619,-21.88015 24.03452,-22.96808 27.56354,-19.06856 0.94912,1.04878 2.41,1.90122 3.24642,1.89432 0.83639,-0.007 4.51903,-2.56159 8.18362,-5.67711 4.25232,-3.61515 7.68409,-5.76652 9.48543,-5.94638 l 2.82255,-0.28182 -3.17888,-3.60987 c -1.74839,-1.98544 -3.32534,-4.86761 -3.5043,-6.40481 -0.28704,-2.46525 0.58825,-3.58575 7.42081,-9.49974 4.26044,-3.68767 8.21908,-6.709 8.797,-6.71407 0.95211,-0.009 43.48691,-82.03462 42.92509,-82.77892 -0.13144,-0.17415 -16.47163,8.34302 -36.31152,18.92704 l -36.07251,19.24368 -10.97874,10.86757 c -6.0383,5.97718 -11.24953,10.8676 -11.58048,10.8676 -0.33097,0 -16.13639,-17.59074 -35.12316,-39.09054 -18.98678,-21.4998 -34.5841,-39.09023 -34.66075,-39.08984 -0.0766,3.8e-4 -5.26126,4.84611 -11.52136,10.76828 z"
     style="fill:#000000;fill-opacity:1;stroke-width:0.95342779"
     id="path1935"
     inkscape:connector-curvature="0" />
</svg>
