<?xml version="1.0" encoding="UTF-8" standalone="no"?>
<!-- Created with Inkscape (http://www.inkscape.org/) -->

<svg
   xmlns:dc="http://purl.org/dc/elements/1.1/"
   xmlns:cc="http://creativecommons.org/ns#"
   xmlns:rdf="http://www.w3.org/1999/02/22-rdf-syntax-ns#"
   xmlns:svg="http://www.w3.org/2000/svg"
   xmlns="http://www.w3.org/2000/svg"
   xmlns:sodipodi="http://sodipodi.sourceforge.net/DTD/sodipodi-0.dtd"
   xmlns:inkscape="http://www.inkscape.org/namespaces/inkscape"
   version="1.0"
   width="430"
   height="430"
   id="svg2"
   sodipodi:version="0.32"
   inkscape:version="0.91 r13725"
   sodipodi:docname="mine.svg"
   inkscape:output_extension="org.inkscape.output.svg.inkscape">
  <metadata
     id="metadata6">
    <rdf:RDF>
      <cc:Work
         rdf:about="">
        <dc:format>image/svg+xml</dc:format>
        <dc:type
           rdf:resource="http://purl.org/dc/dcmitype/StillImage" />
        <cc:license
           rdf:resource="http://web.resource.org/cc/PublicDomain" />
        <dc:title></dc:title>
      </cc:Work>
      <cc:License
         rdf:about="http://web.resource.org/cc/PublicDomain">
        <cc:permits
           rdf:resource="http://web.resource.org/cc/Reproduction" />
        <cc:permits
           rdf:resource="http://web.resource.org/cc/Distribution" />
        <cc:permits
           rdf:resource="http://web.resource.org/cc/DerivativeWorks" />
      </cc:License>
    </rdf:RDF>
  </metadata>
  <sodipodi:namedview
     inkscape:window-height="988"
     inkscape:window-width="1680"
     inkscape:pageshadow="2"
     inkscape:pageopacity="0.0"
     guidetolerance="10.0"
     gridtolerance="10.0"
     objecttolerance="10.0"
     borderopacity="1.0"
     bordercolor="#666666"
     pagecolor="#ffffff"
     id="base"
     inkscape:zoom="0.87674419"
     inkscape:cx="20.530505"
     inkscape:cy="213.85942"
     inkscape:window-x="-8"
     inkscape:window-y="-8"
     inkscape:current-layer="svg2"
     showgrid="false"
     inkscape:window-maximized="1" />
  <defs
     id="defs4" />
  <rect
     style="opacity:1;fill:#ffffff;fill-opacity:1;stroke:none;stroke-width:0.60000002;stroke-linecap:square;stroke-linejoin:miter;stroke-miterlimit:4;stroke-dasharray:none;stroke-dashoffset:0.60000002;stroke-opacity:1"
     id="rect4133"
     width="430"
     height="430"
     x="0"
     y="-4.9960036e-015" />
  <path
     d="M 90.99997,385.61425 C 76.28281,380.5685 74.6516,379.13624 71.50838,368.49999 C 68.56032,358.52412 68.56171,357.13217 71.52034,356.5208 C 73.21478,356.17066 90.71541,338.46781 124.92406,302.49999 C 152.90991,273.07499 179.38947,245.33909 183.76755,240.86465 C 189.73363,234.76725 191.51128,232.34851 190.86383,231.20917 C 189.03292,227.98729 112.69583,147.78913 110.7488,147.04198 C 109.99268,146.75183 107.99981,147.97368 106.32019,149.75721 C 102.45213,153.86459 83.49183,179.15596 72.02799,195.49999 C 67.20581,202.37499 62.71192,207.94959 62.04156,207.888 C 61.37121,207.8264 51.29305,200.1764 39.64565,190.888 L 18.46857,173.99999 L 21.30869,171.49999 C 22.87076,170.12499 28.60027,162.47499 34.04094,154.49999 C 49.87877,131.28472 67.28445,108.63548 75.95969,99.95299 C 87.69483,88.20805 153.57535,39.49999 157.72593,39.49999 C 158.79371,39.49999 164.74554,46.38406 173.22951,57.43189 C 182.63996,69.68619 187.89923,75.69546 189.84016,76.41131 C 191.40227,76.98745 192.52727,77.88552 192.34016,78.40703 C 192.15306,78.92854 181.87497,86.97932 169.49997,96.29765 C 157.12497,105.61597 143.76138,116.24354 139.8031,119.91447 C 129.41402,129.54935 128.93314,128.3951 153.70152,153.27489 C 178.56659,178.2518 240.5476,238.33592 301.99997,297.03474 C 327.29997,321.20111 351.18404,344.01703 355.07568,347.73679 C 359.62155,352.08188 362.97485,354.49999 364.45451,354.49999 C 366.65347,354.49999 366.72626,354.73647 366.06399,359.72893 C 364.95732,368.07141 361.50493,375.58925 357.5628,378.24093 C 353.85538,380.73472 346.71808,383.01724 339.45908,384.03051 L 334.91819,384.66436 L 275.54278,321.05428 C 242.88631,286.06873 215.85831,257.56924 215.48056,257.72209 C 215.10281,257.87493 190.37558,285.67499 160.53115,319.49999 C 130.68673,353.32499 104.63313,382.65533 102.63427,384.67851 L 98.99997,388.35704 L 90.99997,385.61425 z M 226.062,220.20497 L 214.12403,208.91143 L 250.14533,171.12282 C 280.54977,139.22665 286.16664,132.88172 286.16664,130.43241 C 286.16664,127.92877 282.76007,124.35824 261.3393,104.4101 C 247.68427,91.69382 236.76083,80.88693 237.06499,80.39479 C 237.36915,79.90265 238.53459,79.49999 239.65487,79.49999 C 240.92465,79.49999 248.40919,73.09778 259.52883,62.49999 C 269.33924,53.14999 277.84725,45.49999 278.43552,45.49999 C 279.02379,45.49999 289.66833,55.39999 302.09004,67.49999 C 325.64913,90.44892 327.29856,91.59 330.99997,87.49999 C 331.99546,86.39999 333.5277,85.50591 334.40496,85.51314 C 335.28221,85.52037 339.14474,88.19986 342.98834,91.46756 C 347.44836,95.25931 351.04777,97.51577 352.93711,97.70441 L 355.89752,97.99999 L 352.56336,101.7862 C 350.72957,103.86862 349.0756,106.89157 348.88788,108.50387 C 348.58682,111.08954 349.50487,112.26478 356.67119,118.46765 C 361.13973,122.33544 365.29175,125.50435 365.89789,125.50968 C 366.89652,125.51847 411.50902,211.55144 410.91976,212.3321 C 410.78188,212.51477 393.64353,203.58156 372.83452,192.48054 L 334.99997,172.29686 L 323.48495,160.89843 C 317.15169,154.62929 311.68592,149.49999 311.33879,149.49999 C 310.99166,149.49999 294.41419,167.94999 274.49997,190.49999 C 254.58575,213.04999 238.22653,231.49966 238.14614,231.49925 C 238.06574,231.49885 232.62788,226.41642 226.062,220.20497 z "
     style="fill:black;fill-opacity:1"
     id="path1935" />
</svg>
