<?xml version="1.0" encoding="UTF-8" standalone="no"?>
<!-- Created with Inkscape (http://www.inkscape.org/) -->
<svg
   xmlns:dc="http://purl.org/dc/elements/1.1/"
   xmlns:cc="http://web.resource.org/cc/"
   xmlns:rdf="http://www.w3.org/1999/02/22-rdf-syntax-ns#"
   xmlns:svg="http://www.w3.org/2000/svg"
   xmlns="http://www.w3.org/2000/svg"
   xmlns:xlink="http://www.w3.org/1999/xlink"
   xmlns:sodipodi="http://sodipodi.sourceforge.net/DTD/sodipodi-0.dtd"
   xmlns:inkscape="http://www.inkscape.org/namespaces/inkscape"
   height="86.665833"
   id="svg2"
   inkscape:export-filename="/home/nicu/Desktop/rpg_color.png"
   inkscape:export-xdpi="90.000000"
   inkscape:export-ydpi="90.000000"
   inkscape:version="0.45.1"
   sodipodi:docbase="C:\Dokumente und Einstellungen\ulfl\Eigene Dateien\svn.openstreetmap.org\applications\share\map-icons\svg\misc\landmark"
   sodipodi:docname="trees.svg"
   sodipodi:version="0.32"
   width="87.893135"
   inkscape:output_extension="org.inkscape.output.svg.inkscape"
   version="1.0">
  <metadata
     id="metadata2239">
    <rdf:RDF>
      <cc:Work
         rdf:about="">
        <dc:title>tree - RPG map elements</dc:title>
        <dc:description />
        <dc:subject>
          <rdf:Bag>
            <rdf:li>mapsym</rdf:li>
          </rdf:Bag>
        </dc:subject>
        <dc:publisher>
          <cc:Agent
             rdf:about="http://www.openclipart.org/">
            <dc:title>Open Clip Art Library</dc:title>
          </cc:Agent>
        </dc:publisher>
        <dc:creator>
          <cc:Agent>
            <dc:title>Nicu Buculei</dc:title>
          </cc:Agent>
        </dc:creator>
        <dc:rights>
          <cc:Agent>
            <dc:title>Nicu Buculei</dc:title>
          </cc:Agent>
        </dc:rights>
        <dc:date />
        <dc:format>image/svg+xml</dc:format>
        <dc:type
           rdf:resource="http://purl.org/dc/dcmitype/StillImage" />
        <cc:license
           rdf:resource="http://web.resource.org/cc/PublicDomain" />
        <dc:language>en</dc:language>
      </cc:Work>
      <cc:License
         rdf:about="http://web.resource.org/cc/PublicDomain">
        <cc:permits
           rdf:resource="http://web.resource.org/cc/Reproduction" />
        <cc:permits
           rdf:resource="http://web.resource.org/cc/Distribution" />
        <cc:permits
           rdf:resource="http://web.resource.org/cc/DerivativeWorks" />
      </cc:License>
    </rdf:RDF>
  </metadata>
  <defs
     id="defs3">
    <radialGradient
       cx="14.207293"
       cy="222.04396"
       fx="14.207293"
       fy="222.04396"
       gradientTransform="scale(1.39523,0.716728)"
       gradientUnits="userSpaceOnUse"
       id="radialGradient1843"
       inkscape:collect="always"
       r="8.2519293"
       xlink:href="#linearGradient2057" />
    <linearGradient
       id="linearGradient2057"
       inkscape:collect="always">
      <stop
         id="stop2059"
         offset="0"
         style="stop-color:#000000;stop-opacity:1;" />
      <stop
         id="stop2061"
         offset="1"
         style="stop-color:#000000;stop-opacity:0;" />
    </linearGradient>
    <radialGradient
       cx="14.207293"
       cy="222.04396"
       fx="14.207293"
       fy="222.04396"
       gradientTransform="scale(1.39523,0.716728)"
       gradientUnits="userSpaceOnUse"
       id="radialGradient1535"
       inkscape:collect="always"
       r="8.2519293"
       xlink:href="#linearGradient2057" />
  </defs>
  <sodipodi:namedview
     bordercolor="#666666"
     borderopacity="1.0"
     id="base"
     inkscape:current-layer="layer1"
     inkscape:cx="-3.233205"
     inkscape:cy="-48.836658"
     inkscape:document-units="px"
     inkscape:pageopacity="0.0"
     inkscape:pageshadow="2"
     inkscape:window-height="791"
     inkscape:window-width="1151"
     inkscape:window-x="1"
     inkscape:window-y="24"
     inkscape:zoom="1"
     pagecolor="#ffffff" />
  <g
     id="layer1"
     inkscape:groupmode="layer"
     inkscape:label="Layer 1"
     transform="translate(-27.381469,-24.881498)">
    <g
       id="g1881"
       transform="matrix(2.469674,0,0,2.469674,-95.4758,-295.6608)">
      <path
         d="M 70.859749,130.14501 C 70.718823,130.16869 69.724056,130.33448 69.059836,130.33448 C 68.332554,130.33448 67.629078,130.6448 66.975726,130.80814 C 66.44186,130.9416 65.640856,131.76695 65.365277,132.13439 C 64.966561,132.66601 64.523224,133.07118 64.039025,133.55537 C 63.593032,134.00137 63.056917,134.44275 62.712773,134.78689 C 62.432483,135.06718 62.438369,135.97924 62.333844,136.39734 C 62.183436,136.99897 61.584564,137.71502 61.197056,138.10252 C 60.580061,138.71952 60.274631,139.1297 59.965537,139.90244 C 59.691655,140.58714 59.586608,141.11001 59.586608,141.89182 C 59.586608,142.6303 59.549981,143.2244 59.68134,143.88119 C 59.830703,144.62801 59.944277,145.21068 60.439198,145.87057 C 60.836947,146.4009 61.478048,146.81469 61.954915,147.29156 C 62.36958,147.70622 62.792965,147.80531 63.281167,148.04941 C 63.807936,148.3128 63.884675,148.5933 64.133757,149.09147 C 64.420467,149.66489 64.403785,150.29465 64.702151,150.89138 C 64.944571,151.37622 65.650144,151.90992 66.123135,152.02817 C 66.740495,152.18251 67.347859,152.52382 68.017781,152.6913 C 68.968774,152.92904 70.153058,152.78603 71.143946,152.78603 C 72.43733,152.78603 73.681305,152.34115 74.933238,152.02817 C 75.473342,151.89314 75.915094,151.58461 76.354222,151.36504 C 76.944804,151.06975 77.062776,150.70579 77.301545,150.22826 C 77.570141,149.69107 77.614722,149.51448 78.01011,149.11909 C 78.439444,148.68975 79.202636,148.18075 79.859317,148.04941 C 80.587839,147.90371 80.695855,147.47034 81.298124,147.16921 C 81.961435,146.83755 82.863868,145.9381 83.459143,145.49164 C 84.01899,145.07176 84.287884,144.37871 84.785395,143.88119 C 85.281551,143.38504 85.164325,142.67053 85.164325,141.98655 C 85.164325,141.39019 84.501176,140.72908 84.357173,140.15307 C 84.21801,139.59642 84.283499,139.04378 83.932805,138.57619 C 83.403325,137.87021 82.747779,137.29643 82.132891,136.68154 C 81.534163,136.08281 80.787603,135.99938 80.143513,135.35529 C 79.581401,134.79318 79.216994,134.04984 78.627797,133.46064 C 77.470858,132.3037 76.132529,131.72527 74.737833,130.85358 C 74.140678,130.48036 73.26163,130.91966 72.659663,130.61867 C 72.069304,130.32349 71.463595,130.50732 70.859749,130.14501 z "
         id="path2825"
         sodipodi:nodetypes="cccccccccccccccccccccccccccccccccccc"
         style="fill:#00b300;fill-opacity:1;fill-rule:evenodd;stroke:none;stroke-width:1px;stroke-linecap:butt;stroke-linejoin:miter;stroke-opacity:1" />
      <path
         d="M 28.401713 158.69876 A 7.9437737 4.0807056 0 1 1  12.514165,158.69876 A 7.9437737 4.0807056 0 1 1  28.401713 158.69876 z"
         id="path1317"
         sodipodi:cx="20.457939"
         sodipodi:cy="158.69876"
         sodipodi:rx="7.9437737"
         sodipodi:ry="4.0807056"
         sodipodi:type="arc"
         style="fill:url(#radialGradient1535);fill-opacity:1;fill-rule:evenodd;stroke:none;stroke-width:2;stroke-miterlimit:4;stroke-opacity:1"
         transform="translate(50.02288,2.044779)" />
      <path
         d="M 70.871227,129.79134 C 69.551187,129.79134 65.183727,130.95147 65.183727,131.69759 C 65.183727,131.99177 64.064787,133.12656 62.902477,134.01009 C 62.072537,134.64098 61.863377,134.94733 61.964977,135.47884 C 62.053017,135.9393 61.887767,136.40296 61.402477,136.94759 C 60.372117,138.10402 59.129887,140.40963 58.871227,141.66634 C 58.675327,142.61817 58.780637,143.04611 59.652477,144.88509 C 60.604347,146.89282 60.717847,147.01915 61.996227,147.47884 C 63.394227,147.98155 64.263807,148.87527 63.996227,149.57259 C 63.909517,149.79854 64.220167,150.51525 64.714977,151.16634 C 65.411127,152.08236 65.968767,152.44834 67.246227,152.88509 C 68.831727,153.42716 68.850877,153.46423 68.808727,154.38509 C 68.688767,157.00519 68.380057,157.9324 67.308727,158.94759 C 66.242817,159.95764 65.922967,160.91634 66.652477,160.91634 C 66.870337,160.91634 67.157337,160.79163 67.277477,160.60384 C 67.397607,160.41607 67.896707,159.96743 68.371227,159.63509 C 69.293627,158.98901 69.667597,159.13176 69.871227,160.22884 C 69.926677,160.52756 70.184597,160.83109 70.464977,160.88509 C 70.893637,160.96764 70.944407,160.8466 70.839977,160.13509 C 70.743517,159.47784 70.830207,159.29133 71.183727,159.29134 C 71.434037,159.29134 71.774017,159.56583 71.933727,159.91634 C 72.173057,160.4416 72.423807,160.57222 73.402477,160.57259 C 74.055537,160.57284 74.951827,160.77125 75.402477,161.01009 C 77.001417,161.85749 76.643737,160.95915 74.496227,158.79134 C 73.298997,157.58279 72.225547,156.33877 72.121227,156.01009 C 72.016907,155.6814 72.026207,154.89379 72.121227,154.26009 C 72.276997,153.22138 72.428717,153.05853 73.589977,152.47884 C 74.298447,152.12518 75.136477,151.84984 75.464977,151.88509 C 76.127817,151.95624 77.183727,151.05358 77.183727,150.41634 C 77.183727,150.19101 77.314747,150.01009 77.464977,150.01009 C 77.615197,150.01009 77.746227,149.87906 77.746227,149.72884 C 77.746227,149.15174 76.907837,149.49119 76.746227,150.13509 C 76.587577,150.76721 75.381657,151.34876 74.246227,151.35384 C 74.058447,151.35468 73.902477,151.47114 73.902477,151.60384 C 73.902477,151.94062 72.865977,152.17999 72.683727,151.88509 C 72.424037,151.46491 73.635137,150.12661 75.496227,148.76009 C 78.261827,146.72946 78.988977,145.78916 79.808727,143.22884 C 80.385927,141.42611 80.447537,140.89045 80.183727,140.57259 C 80.001727,140.35329 79.750407,140.24276 79.621227,140.32259 C 79.257677,140.54728 78.624737,142.09722 78.433727,143.22884 C 78.328087,143.85464 78.056957,144.38958 77.714977,144.57259 C 77.408127,144.73681 77.201847,144.93445 77.277477,145.01009 C 77.599167,145.33177 73.704477,149.19759 73.058727,149.19759 C 72.958017,149.19759 72.861177,147.86927 72.839977,146.26009 C 72.798467,143.10875 72.613257,142.66288 71.558727,143.35384 C 71.032077,143.69891 70.966177,143.8577 71.214977,144.32259 C 71.401587,144.67127 71.429357,145.45861 71.308727,146.41634 C 71.202657,147.25857 71.135297,148.59272 71.152477,149.38509 C 71.179827,150.64663 71.101677,150.86749 70.558727,151.07259 C 70.032867,151.27125 69.885057,151.17318 69.496227,150.44759 C 69.009367,149.53909 67.756577,148.39823 66.371227,147.57259 C 65.679957,147.1606 64.488577,145.34652 64.558727,144.82259 C 64.613227,144.4155 63.954287,143.64991 63.339977,143.41634 C 62.373157,143.04876 62.317377,143.20771 62.996227,144.41634 C 63.318497,144.99012 63.631117,145.70562 63.683727,145.97884 C 63.849887,146.84163 64.862637,148.03432 66.496227,149.29134 C 68.033947,150.47459 68.996227,151.58889 68.996227,152.19759 C 68.996227,152.39862 68.554597,152.4462 67.683727,152.32259 C 66.671307,152.17889 66.220187,151.92697 65.527477,151.16634 C 65.039267,150.63024 64.621217,149.97892 64.621227,149.72884 C 64.621227,148.82079 63.762237,147.5347 63.027477,147.35384 C 61.777457,147.04616 61.164767,146.48473 60.371227,144.91634 C 59.381617,142.96039 59.422547,141.605 60.558727,139.38509 C 61.030847,138.46266 61.519537,137.72884 61.652477,137.72884 C 61.785437,137.72884 61.902487,137.5773 61.902477,137.41634 C 61.902487,137.25539 62.083397,136.95418 62.308727,136.72884 C 62.534077,136.50351 62.714897,136.0561 62.714977,135.72884 C 62.715067,135.35222 63.239307,134.67584 64.121227,133.91634 C 64.887577,133.25638 65.605037,132.38384 65.746227,131.97884 C 66.061617,131.07411 69.213847,130.54645 70.496227,130.51009 C 71.503997,130.48153 71.864517,129.79134 70.871227,129.79134 z M 72.808727,130.19759 C 70.696407,130.00518 71.031117,130.46293 73.214977,130.76009 C 73.973257,130.86328 74.943977,131.20749 75.371227,131.51009 C 75.798497,131.81269 76.784217,132.36729 77.558727,132.76009 C 78.688257,133.33295 78.964977,133.61863 78.964977,134.16634 C 78.964977,135.05295 79.435797,135.51789 80.652477,135.85384 C 81.836267,136.1807 82.759827,137.13474 83.464977,138.72884 C 83.751857,139.37738 84.118817,139.88509 84.277477,139.88509 C 84.632837,139.88509 84.652547,139.44133 84.308727,139.22884 C 84.170057,139.14314 83.995137,138.71328 83.902477,138.29134 C 83.809797,137.86939 83.283127,137.09409 82.746227,136.54134 C 81.843447,135.61188 81.495147,135.41756 80.933727,135.51009 C 80.537757,135.57535 79.711937,134.5906 79.527477,133.82259 C 79.426717,133.40305 79.160887,132.98208 78.902477,132.88509 C 78.644067,132.78811 77.547767,132.15625 76.496227,131.51009 C 74.931457,130.54854 74.261727,130.32994 72.808727,130.19759 z M 84.402477,140.26009 C 84.307497,140.35507 84.359887,140.81058 84.527477,141.29134 C 84.695067,141.77209 84.839987,142.44099 84.839977,142.79134 C 84.839977,143.62575 83.286637,145.69359 82.246227,146.22884 C 81.795567,146.46068 81.389187,146.85112 81.339977,147.10384 C 81.267717,147.47483 81.436107,147.42482 82.277477,146.85384 C 83.444527,146.06187 83.901647,145.60942 84.808727,144.32259 C 85.336117,143.57442 85.411087,143.24126 85.277477,142.04134 C 85.122937,140.65346 84.750767,139.91179 84.402477,140.26009 z M 80.339977,147.38509 C 79.986897,147.29375 79.564357,147.27766 79.339977,147.41634 C 79.095027,147.56773 79.145637,147.70432 79.527477,147.85384 C 80.274457,148.14636 80.681857,148.12899 80.871227,147.82259 C 80.976057,147.65298 80.693057,147.47643 80.339977,147.38509 z M 79.183727,148.16634 C 78.569747,148.04559 77.613547,148.68992 77.933727,149.01009 C 78.182727,149.2591 78.558717,149.22539 78.558727,148.94759 C 78.558727,148.81489 78.845727,148.6218 79.183727,148.51009 L 79.777477,148.29134 L 79.183727,148.16634 z "
         id="path1689"
         style="fill:#5c2700;fill-opacity:1" />
    </g>
    <g
       id="g1916"
       transform="matrix(2.469674,0,0,2.469674,-82.378686,-368.50967)">
      <path
         d="M 52.802315,169.0909 C 53.128168,170.70625 53.904649,172.15566 54.121663,173.79306 C 54.434734,174.63916 55.087436,175.54204 55.333198,176.41623 C 55.835547,177.24247 56.557869,177.86204 56.970235,178.7449 C 57.570858,179.49161 57.939689,180.3004 57.984697,181.30381 C 58.131425,182.12792 58.431219,182.93565 58.429083,183.77917 C 58.238488,184.78185 57.005429,185.37961 56.086393,184.96711 C 54.039163,184.45755 51.909844,184.26641 49.806374,184.44558 C 48.263577,184.46933 46.283143,183.85183 44.93049,183.05893 C 44.986887,182.67994 44.443685,182.59845 45.052298,182.3784 C 45.290244,181.96471 45.323181,181.11632 45.344257,180.62406 C 45.480386,179.97613 46.173823,179.5613 46.621463,179.07701 C 47.059881,178.44744 47.245158,177.68132 47.305455,176.92714 C 47.59417,175.66736 47.420258,174.3457 48.114396,173.22801 C 48.906964,171.69926 49.60568,170.11153 49.832155,168.40037 C 49.965477,167.64123 50.326842,166.17231 50.924421,165.80736 C 50.924421,165.80736 52.752998,167.88381 52.802315,169.0909 z "
         id="path2841"
         sodipodi:nodetypes="ccccccccccccccccc"
         style="fill:#00b300;fill-opacity:1;fill-rule:evenodd;stroke:none;stroke-width:1px;stroke-linecap:butt;stroke-linejoin:miter;stroke-opacity:1" />
      <path
         d="M 28.401713 158.69876 A 7.9437737 4.0807056 0 1 1  12.514165,158.69876 A 7.9437737 4.0807056 0 1 1  28.401713 158.69876 z"
         id="path1329"
         sodipodi:cx="20.457939"
         sodipodi:cy="158.69876"
         sodipodi:rx="7.9437737"
         sodipodi:ry="4.0807056"
         sodipodi:type="arc"
         style="fill:url(#radialGradient1843);fill-opacity:1;fill-rule:evenodd;stroke:none;stroke-width:2;stroke-miterlimit:4;stroke-opacity:1"
         transform="translate(31.92901,31.60125)" />
      <path
         d="M 50.822033,165.59365 C 50.204613,165.59364 49.538223,167.43478 49.322033,169.7499 C 49.199863,171.05825 48.972373,171.8009 48.603283,172.1874 C 47.556083,173.28401 47.286763,173.93267 47.134533,175.78115 C 46.990283,177.53258 46.757463,178.28782 46.165783,178.9999 C 45.055373,180.33624 45.403854,180.57999 45.403854,180.78248 C 45.403854,181.25687 45.292543,181.04452 45.884533,180.1874 C 46.220443,179.70103 46.699383,179.02828 46.947033,178.6874 C 47.205583,178.33152 47.488993,177.19848 47.603283,176.03115 C 47.770823,174.32006 47.917273,173.84372 48.603283,173.0624 C 49.260373,172.314 49.456633,171.77509 49.603283,170.34365 C 49.773683,168.68049 50.477793,166.03115 50.759533,166.03115 C 50.828993,166.03114 51.243383,166.41243 51.665783,166.8749 C 52.261623,167.52726 52.461853,168.0661 52.572033,169.28115 C 52.650133,170.14251 53.013293,171.47695 53.384533,172.21865 C 53.755793,172.96034 54.141513,174.10651 54.228283,174.78115 C 54.353593,175.75545 54.604643,176.20737 55.447033,176.96865 C 56.627413,178.03537 57.507363,179.71203 58.103283,181.9999 C 58.482663,183.45643 58.473473,183.54601 57.915783,184.1874 C 57.431783,184.74405 57.254613,184.81062 56.790783,184.5624 C 56.483783,184.39808 54.365963,184.21983 52.103283,184.15615 C 49.389813,184.07979 47.807333,183.91974 47.447033,183.6874 C 47.146593,183.49365 46.448563,183.26087 45.884533,183.15615 L 44.853283,182.96865 L 45.540783,181.9374 C 46.245073,180.90094 45.876857,180.52749 45.520137,180.53115 C 45.117727,180.53527 44.568983,182.74796 44.728283,183.2499 C 44.828733,183.5664 45.255743,183.81944 45.884533,183.9374 C 46.437553,184.04113 47.253413,184.30176 47.697033,184.53115 C 48.234633,184.80915 48.871793,184.91696 49.634533,184.8124 C 50.723903,184.66308 50.798453,184.67311 50.728283,185.3124 C 50.566483,186.78641 50.269103,188.34982 50.009533,189.1874 C 49.859123,189.67267 49.821133,190.19049 49.915783,190.34365 C 50.159283,190.73763 50.476173,190.71069 50.884533,190.21865 C 51.553023,189.41316 52.128523,189.2605 52.947033,189.6874 C 54.538563,190.51747 55.153343,189.9463 54.290783,188.4374 C 54.076093,188.06184 53.889853,187.10105 53.884533,186.3124 C 53.873623,184.69559 53.856973,184.70565 56.103283,185.1874 L 57.540783,185.4999 L 58.384533,184.46865 C 59.184433,183.51587 59.228923,183.40987 58.884533,182.7499 C 58.679993,182.35788 58.510463,181.74843 58.509533,181.40615 C 58.506683,180.35189 56.902083,177.44465 55.759533,176.4374 C 54.795293,175.58735 54.633043,175.26173 54.415783,173.71865 C 54.281403,172.76422 54.007593,171.80974 53.790783,171.5624 C 53.573983,171.31505 53.186573,170.13172 52.947033,168.9374 C 52.500973,166.71322 51.804493,165.59365 50.822033,165.59365 z M 51.072033,188.5624 C 51.156123,188.64648 51.071203,188.87713 50.884533,189.0624 C 50.614793,189.33013 50.611323,189.29542 50.759533,188.90615 C 50.862093,188.63678 50.987943,188.4783 51.072033,188.5624 z "
         id="path1674"
         sodipodi:nodetypes="ccccccccccccccccccccccccccccccccccccccccccccccccccc"
         style="fill:#5c2700;fill-opacity:1" />
    </g>
  </g>
</svg>
