<?xml version="1.0" encoding="UTF-8" standalone="no"?>
<!-- Created with Inkscape (http://www.inkscape.org/) -->

<svg
   xmlns:dc="http://purl.org/dc/elements/1.1/"
   xmlns:cc="http://creativecommons.org/ns#"
   xmlns:rdf="http://www.w3.org/1999/02/22-rdf-syntax-ns#"
   xmlns:svg="http://www.w3.org/2000/svg"
   xmlns="http://www.w3.org/2000/svg"
   xmlns:sodipodi="http://sodipodi.sourceforge.net/DTD/sodipodi-0.dtd"
   xmlns:inkscape="http://www.inkscape.org/namespaces/inkscape"
   width="16"
   height="16"
   viewBox="0 0 16 16"
   id="svg2"
   version="1.1"
   inkscape:version="0.91 r13725"
   sodipodi:docname="water_works4.svg">
  <defs
     id="defs4" />
  <sodipodi:namedview
     id="base"
     pagecolor="#ffffff"
     bordercolor="#666666"
     borderopacity="1.0"
     inkscape:pageopacity="0.0"
     inkscape:pageshadow="2"
     inkscape:zoom="63.356768"
     inkscape:cx="7.9367756"
     inkscape:cy="12.410931"
     inkscape:document-units="px"
     inkscape:current-layer="layer1"
     showgrid="false"
     units="px"
     inkscape:window-width="1680"
     inkscape:window-height="988"
     inkscape:window-x="-8"
     inkscape:window-y="-8"
     inkscape:window-maximized="1">
    <inkscape:grid
       type="xygrid"
       id="grid4136" />
  </sodipodi:namedview>
  <metadata
     id="metadata7">
    <rdf:RDF>
      <cc:Work
         rdf:about="">
        <dc:format>image/svg+xml</dc:format>
        <dc:type
           rdf:resource="http://purl.org/dc/dcmitype/StillImage" />
        <dc:title></dc:title>
        <cc:license
           rdf:resource="http://creativecommons.org/publicdomain/zero/1.0/" />
      </cc:Work>
      <cc:License
         rdf:about="http://creativecommons.org/publicdomain/zero/1.0/">
        <cc:permits
           rdf:resource="http://creativecommons.org/ns#Reproduction" />
        <cc:permits
           rdf:resource="http://creativecommons.org/ns#Distribution" />
        <cc:permits
           rdf:resource="http://creativecommons.org/ns#DerivativeWorks" />
      </cc:License>
    </rdf:RDF>
  </metadata>
  <g
     inkscape:label="Layer 1"
     inkscape:groupmode="layer"
     id="layer1"
     transform="translate(0,-1036.3622)">
    <path
       d="m 15.999588,1049.543 -0.2388,0.1359 -0.255856,0.1456 c -0.545829,0.3106 -1.159883,0.3106 -1.70571,0 l -0.511715,-0.2912 c -0.545827,-0.3107 -1.159882,-0.3107 -1.705709,0 l -0.511725,0.2912 c -0.545828,0.3106 -1.159883,0.3106 -1.705711,0 l -0.511713,-0.2912 c -0.270238,-0.1539 -0.560098,-0.233 -0.852855,-0.233 -0.292757,0 -0.582617,0.079 -0.852855,0.233 l -0.511713,0.2912 c -0.545828,0.3106 -1.159883,0.3106 -1.70571,0 l -0.511726,-0.2912 c -0.545828,-0.3107 -1.159882,-0.3107 -1.705709,0 l -0.511715,0.2912 c -0.545827,0.3106 -1.159882,0.3106 -1.705709,0 L 0.2388,1049.6789 0,1049.543 l 0,1.3047 0.2388,0.1359 0.255857,0.1456 c 0.545827,0.3107 1.159882,0.3107 1.705709,0 l 0.511715,-0.2912 c 0.545827,-0.3106 1.159881,-0.3106 1.705709,0 l 0.511726,0.2912 c 0.545827,0.3107 1.159882,0.3107 1.70571,0 l 0.511713,-0.2912 c 0.270238,-0.1538 0.560098,-0.233 0.852855,-0.233 0.292757,0 0.582617,0.079 0.852855,0.233 l 0.511713,0.2912 c 0.545828,0.3107 1.159883,0.3107 1.705711,0 l 0.511725,-0.2912 c 0.545827,-0.3106 1.159882,-0.3106 1.705709,0 l 0.511715,0.2912 c 0.545827,0.3107 1.159881,0.3107 1.70571,0 l 0.255856,-0.1456 0.2388,-0.1359 0,-1.3047 z"
       id="path6-6"
       style="fill:#1332ff;fill-opacity:1;fill-rule:evenodd;stroke:none"
       inkscape:connector-curvature="0" />
    <path
       d="m 15.999588,1046.5793 -0.2388,0.1359 -0.255856,0.1456 c -0.545829,0.3107 -1.159883,0.3107 -1.70571,0 l -0.511715,-0.2912 c -0.545827,-0.3107 -1.159882,-0.3107 -1.705709,0 l -0.511725,0.2912 c -0.545828,0.3107 -1.159883,0.3107 -1.705711,0 l -0.511713,-0.2912 c -0.270238,-0.1538 -0.560098,-0.233 -0.852855,-0.233 -0.292757,0 -0.582617,0.079 -0.852855,0.233 l -0.511713,0.2912 c -0.545828,0.3107 -1.159883,0.3107 -1.70571,0 l -0.511726,-0.2912 c -0.545828,-0.3107 -1.159882,-0.3107 -1.705709,0 l -0.511715,0.2912 c -0.545827,0.3107 -1.159882,0.3107 -1.705709,0 L 0.2388,1046.7152 0,1046.5793 l 0,1.3048 0.2388,0.1359 0.255857,0.1456 c 0.545827,0.3106 1.159882,0.3106 1.705709,0 l 0.511715,-0.2912 c 0.545827,-0.3107 1.159881,-0.3107 1.705709,0 l 0.511726,0.2912 c 0.545827,0.3106 1.159882,0.3106 1.70571,0 l 0.511713,-0.2912 c 0.270238,-0.1539 0.560098,-0.233 0.852855,-0.233 0.292757,0 0.582617,0.079 0.852855,0.233 l 0.511713,0.2912 c 0.545828,0.3106 1.159883,0.3106 1.705711,0 l 0.511725,-0.2912 c 0.545827,-0.3107 1.159882,-0.3107 1.705709,0 l 0.511715,0.2912 c 0.545827,0.3106 1.159881,0.3106 1.70571,0 l 0.255856,-0.1456 0.2388,-0.1359 0,-1.3048 z"
       id="path6"
       style="fill:#1332ff;fill-opacity:1;fill-rule:evenodd;stroke:none"
       inkscape:connector-curvature="0" />
    <ellipse
       style="color:#000000;clip-rule:nonzero;display:inline;overflow:visible;visibility:visible;opacity:1;isolation:auto;mix-blend-mode:normal;color-interpolation:sRGB;color-interpolation-filters:linearRGB;solid-color:#000000;solid-opacity:1;fill:#1332ff;fill-opacity:1;fill-rule:evenodd;stroke:none;stroke-width:0.477;stroke-linecap:butt;stroke-linejoin:miter;stroke-miterlimit:4;stroke-dasharray:none;stroke-dashoffset:0;stroke-opacity:1;color-rendering:auto;image-rendering:auto;shape-rendering:auto;text-rendering:auto;enable-background:accumulate"
       id="path4141"
       cx="7.5352502"
       cy="1042.7517"
       rx="2.5789182"
       ry="2.6104853" />
    <path
       style="fill:#1332ff;fill-opacity:1;fill-rule:evenodd;stroke:none;stroke-width:1px;stroke-linecap:butt;stroke-linejoin:miter;stroke-opacity:1"
       d="m 10.122768,1042.7193 c -0.287988,-0.8267 -0.279451,-1.541 -0.9594819,-2.2486 -1.4311176,-1.4891 -1.404555,-2.6617 -0.48025,-3.8339 -2.9866044,1.0162 -3.3157976,3.5058 -3.6718754,6.0379 z"
       id="path4147"
       inkscape:connector-curvature="0"
       sodipodi:nodetypes="csccc" />
    <path
       style="fill:#8a99ff;fill-opacity:1;fill-rule:evenodd;stroke:none;stroke-width:1px;stroke-linecap:butt;stroke-linejoin:miter;stroke-opacity:1"
       d="m 6.0254276,1043.7107 c -1.0111135,-1.2746 0.034911,-2.4996 0.034911,-2.4996 l 0.5147663,-0.6756 0.7894297,-0.5911 c 0,0 -0.8494625,1.9542 -0.052184,3.2579 -0.7007705,0.8624 -0.9590023,0.5966 -1.2869228,0.5084"
       id="path4145"
       inkscape:connector-curvature="0"
       sodipodi:nodetypes="cccccc" />
  </g>
</svg>
