<?xml version="1.0" encoding="UTF-8" standalone="no"?>
<!-- Created with Inkscape (http://www.inkscape.org/) -->

<svg
   xmlns:dc="http://purl.org/dc/elements/1.1/"
   xmlns:cc="http://creativecommons.org/ns#"
   xmlns:rdf="http://www.w3.org/1999/02/22-rdf-syntax-ns#"
   xmlns:svg="http://www.w3.org/2000/svg"
   xmlns="http://www.w3.org/2000/svg"
   xmlns:sodipodi="http://sodipodi.sourceforge.net/DTD/sodipodi-0.dtd"
   xmlns:inkscape="http://www.inkscape.org/namespaces/inkscape"
   id="svg2"
   sodipodi:docname="beer4.svg"
   viewBox="0 0 453.72462 441.64626"
   version="1.1"
   inkscape:version="0.91 r13725"
   width="453.72461"
   height="441.64627">
  <defs
     id="defs4">
    <linearGradient
       id="linearGradient4213"
       y2="349.41"
       gradientUnits="userSpaceOnUse"
       x2="122.01"
       y1="121.23"
       x1="121.87"
       inkscape:collect="always"
       gradientTransform="translate(206.15,216.44)">
      <stop
         id="stop4209"
         style="stop-color:#ef8900"
         offset="0" />
      <stop
         id="stop4211"
         style="stop-color:#5d2500"
         offset="1" />
    </linearGradient>
    <radialGradient
       id="radialGradient4221"
       gradientUnits="userSpaceOnUse"
       cy="45.060001"
       cx="126.23"
       gradientTransform="matrix(1.7551,6.3148e-8,-1.0548e-8,1.7657,110.829,200.217)"
       r="117.84"
       inkscape:collect="always">
      <stop
         id="stop4217"
         style="stop-color:#ffffff"
         offset="0" />
      <stop
         id="stop4219"
         style="stop-color:#c5c5c5"
         offset="1" />
    </radialGradient>
    <linearGradient
       id="linearGradient4235"
       y2="117.64"
       gradientUnits="userSpaceOnUse"
       x2="160.42"
       y1="186.8"
       x1="113.13"
       inkscape:collect="always"
       gradientTransform="translate(206.15,216.44)">
      <stop
         id="stop4231"
         style="stop-color:#ff7f2a"
         offset="0" />
      <stop
         id="stop4233"
         style="stop-color:#813300;stop-opacity:0"
         offset="1" />
    </linearGradient>
  </defs>
  <sodipodi:namedview
     id="base"
     bordercolor="#666666"
     inkscape:pageshadow="2"
     inkscape:window-y="-8"
     pagecolor="#ffffff"
     inkscape:window-height="988"
     inkscape:window-maximized="1"
     inkscape:zoom="0.59807535"
     inkscape:window-x="-8"
     showgrid="false"
     borderopacity="1.0"
     inkscape:current-layer="layer1"
     inkscape:cx="-12.508738"
     inkscape:cy="530.92191"
     inkscape:window-width="1680"
     inkscape:pageopacity="0.0"
     inkscape:document-units="px"
     fit-margin-top="0"
     fit-margin-left="0"
     fit-margin-right="0"
     fit-margin-bottom="0" />
  <g
     id="layer1"
     inkscape:label="Layer 1"
     inkscape:groupmode="layer"
     transform="translate(-214.53904,-154.32447)">
    <path
       inkscape:connector-curvature="0"
       style="fill:url(#linearGradient4213);stroke:#000000;stroke-width:1px"
       d="m 271.025,285.596 c -19.529,-0.024 -34.948,0.151 -36.5,0.594 -4.138,1.182 -7.687,5.312 -7.687,5.312 0,0 1.786,15.961 2.968,21.282 1.183,5.316 8.279,115.88 7.688,124.16 -0.591,8.28 2.338,106.4 1.156,111.72 -1.108,4.99 -2.21,10.49 -2.344,10.19 -0.033,0.38 -1.765,20.6 -0.594,23.53 1.183,2.95 68.576,14.18 99.908,13 31.33,-1.18 94.58,-8.27 98.12,-13 3.55,-4.73 -3.55,-28.98 -1.18,-31.94 2.36,-2.96 6.49,-4.73 13,-6.5 6.5,-1.77 33.71,-12.99 40.81,-18.31 7.09,-5.32 23.05,-33.11 26.59,-44.35 3.55,-11.23 12.41,-37.26 13,-47.9 0.59,-10.64 0.59,-52.01 -1.78,-60.88 -2.36,-8.86 -12.4,-28.36 -19.5,-31.9 -7.09,-3.55 -58.53,-7.1 -58.53,-7.1 0,0 -3.53,-2.39 -3.53,-5.94 0,-3.54 -69.17,-38.409 -85.13,-40.182 -9.97,-1.109 -53.917,-1.741 -86.465,-1.782 z m 173.94,71.534 c -0.59,0 44.94,1.2 52.03,4.15 7.1,2.96 6.51,21.86 7.1,32.5 0.59,10.64 -0.6,38.42 -0.6,47.28 0,8.87 -17.14,47.91 -22.46,54.41 -5.33,6.5 -12.4,11.81 -17.72,17.72 -5.32,5.91 -23.65,4.74 -28.38,3.56 -4.73,-1.18 -3.56,-11.84 -4.16,-18.34 -0.59,-6.5 4.16,-108.18 4.76,-114.09 0.59,-5.92 1.16,-20.1 9.43,-27.19 z"
       id="path4180" />
    <path
       inkscape:connector-curvature="0"
       style="fill:url(#linearGradient4235)"
       d="m 237.481,344.72 c 0,0 5.3204,-27.193 11.823,-30.74 6.5027,-3.5469 41.972,-6.5027 49.066,-4.7292 7.0938,1.7735 24.828,15.37 28.966,20.099 4.1381,4.7292 11.823,34.878 13.596,43.154 1.7735,8.2761 4.1381,40.198 5.3204,43.154 1.1823,2.9558 8.8673,18.917 17.143,18.917 8.2761,0 26.011,-15.961 29.558,-22.464 3.5469,-6.5027 4.1381,-13.596 14.779,-26.602 10.641,-13.005 8.2761,-37.834 12.414,-43.154 4.1381,-5.3204 1.1823,-8.8673 5.9115,-5.9115 4.7292,2.9558 7.0938,7.685 10.641,3.5469 3.5469,-4.1381 -15.37,-34.287 -15.37,-34.287 l -177.34,-15.369 -14.184,11.232 c 0,0 5.9115,7.0938 6.5027,10.641 0.59115,3.5469 1.7735,33.105 1.1823,32.513 z"
       id="path4189" />
    <path
       inkscape:connector-curvature="0"
       style="fill:url(#radialGradient4221);stroke:#000000;stroke-width:1px"
       d="m 229.796,319.89 c 0,0 2.3646,-17.143 4.7292,-18.917 2.3646,-1.7735 62.071,-7.0938 66.8,-6.5027 4.7292,0.59115 19.508,8.2761 30.74,8.2761 11.232,0 16.552,2.3646 20.69,4.7292 4.1381,2.3646 8.8673,10.05 13.005,11.232 4.1381,1.1823 13.596,7.0938 12.414,11.232 -1.1823,4.1381 -1.7734,21.873 -1.1823,25.42 0.59115,3.5469 2.9558,10.05 2.9558,10.05 0,0 0,4.7292 2.9558,5.9115 2.9558,1.1823 8.8673,1.1823 8.8673,-3.5469 0,-4.7292 -2.9558,-5.9115 -4.1381,-11.823 -1.1823,-5.9115 -2.9558,-9.4584 1.1823,-17.735 4.1381,-8.2761 4.1381,-10.641 8.2761,-13.005 4.1381,-2.3646 4.7292,-6.5027 7.685,-1.1823 2.9558,5.3204 -0.59115,7.685 5.3204,6.5027 5.9115,-1.1823 4.1381,-7.0938 11.232,-5.9115 7.0938,1.1823 5.9115,1.7735 7.685,7.0938 1.7735,5.3204 0,11.232 5.9115,6.5027 5.9115,-4.7292 8.8673,-10.05 11.823,-15.961 2.9558,-5.9115 5.3204,-34.878 -1.1823,-44.928 -6.5027,-10.05 -49.066,-33.696 -59.115,-34.287 -10.05,-0.59115 -81.579,-7.685 -89.264,-5.3204 -7.685,2.3646 -30.149,4.1381 -35.469,7.0938 -5.3204,2.9558 -5.3204,9.4584 -9.4584,10.05 -4.1381,0.59115 -10.641,0 -12.414,4.7292 -1.7735,4.7292 0.59115,1.7735 -6.5027,6.5027 -7.09385,4.7292 -11.232,1.1823 -11.823,9.4584 -0.59115,8.2761 4.1381,7.685 -1.1823,10.641 -5.3204,2.9558 -6.5027,2.9558 -4.1381,10.05 2.3646,7.0938 10.05,24.828 10.05,24.828 l 3.5469,-1.1823 z"
       id="path4182" />
    <path
       inkscape:connector-curvature="0"
       style="fill:#ffffff;stroke:#000000;stroke-width:1px"
       d="m 232.752,311.615 2.3646,18.326 c 0,0 10.641,162.57 9.4584,173.21 -1.1823,10.641 -4.7292,39.016 -1.1823,43.745 3.5469,4.7292 3.5469,9.4584 5.9115,10.05 2.3646,0.59115 21.281,7.0938 35.469,6.5027 14.188,-0.59115 87.49,0 99.314,-1.7735 11.823,-1.7734 27.193,-4.1381 34.287,-7.0938 7.0938,-2.9558 7.685,-4.7292 10.05,-1.7735 2.3646,2.9558 5.9115,12.414 3.5469,14.188 -2.3646,1.7735 -28.375,13.005 -38.425,11.232 -10.05,-1.7735 -58.524,-4.7292 -73.894,-4.7292 -15.37,0 -34.287,2.9558 -46.701,0 -12.414,-2.9558 -23.646,-2.3646 -26.602,-4.1381 -2.9558,-1.7735 -8.2761,-10.05 -7.685,-12.414 0.59115,-2.3646 2.3646,-11.823 2.3646,-11.823 0,0 -1.1823,-73.894 -1.1823,-77.441 0,-3.5469 -2.9558,-77.441 -2.9558,-77.441 l -5.3204,-71.529 1.1823,-7.0938 z"
       id="path4184" />
    <path
       inkscape:connector-curvature="0"
       style="fill:#803300"
       d="m 428.42,341.76 c 0,0 0,34.878 0.59115,46.701 0.59115,11.823 -2.3646,78.032 -4.1381,85.717 -1.7735,7.685 -1.1823,11.823 0,18.326 1.1823,6.5027 0,8.2761 0,8.2761 0,0 3.5469,-21.873 4.1381,-27.193 0.59115,-5.3204 3.5469,-80.397 4.1381,-85.126 0.59116,-4.7292 4.7292,-20.69 5.9115,-26.602 1.1823,-5.9115 2.9558,-8.8673 0,-13.005 -2.9558,-4.1381 -1.1823,-2.3646 -4.7292,-4.7292 -3.5469,-2.3646 -5.9115,0 -5.9115,-2.3646 z"
       id="path4191" />
    <path
       inkscape:connector-curvature="0"
       style="fill:#803300"
       d="m 242.801,326.39 c 1.7735,7.685 4.1381,108.18 4.7292,115.27 0.59115,7.0938 3.5469,37.243 2.3646,46.11 -1.1823,8.8673 -1.7735,10.641 -2.9558,13.596 -1.1823,2.9558 -1.7735,-11.232 -1.7735,-11.232 0,0 -7.685,-103.45 -6.5027,-107.59 1.1823,-4.1381 -2.3646,-40.198 -0.59115,-44.928 1.7735,-4.7292 4.1381,-12.414 4.7292,-11.232 z"
       id="path4193" />
    <path
       inkscape:connector-curvature="0"
       style="fill:#000000;fill-opacity:0.43819999"
       d="m 251.078,533.3 c 2.9558,7.0938 4.1381,11.823 10.05,12.414 5.9115,0.59115 54.386,3.5469 66.209,3.5469 11.823,0 69.756,0 78.032,-5.9115 8.2761,-5.9115 11.232,-3.5469 14.188,-14.188 2.9558,-10.641 4.7292,-23.646 2.3646,-27.784 -2.3646,-4.1381 5.9115,10.05 5.9115,18.326 0,8.2761 -4.1381,13.596 -9.4584,21.873 -5.3204,8.2761 -13.005,12.414 -24.237,12.414 -11.232,0 -24.237,1.7734 -32.513,0.59115 -8.2761,-1.1823 -14.188,-2.3646 -25.42,0.59115 -11.232,2.95575 -53.204,-0.59115 -64.436,-2.3646 -11.232,-1.77345 -20.099,1.7735 -23.055,-5.9115 -2.9558,-7.685 -2.3646,-17.143 0,-23.055 2.3646,-5.9115 5.9115,-15.37 5.9115,-15.37 l -3.5469,24.828 z"
       id="path4195" />
    <path
       inkscape:connector-curvature="0"
       style="fill:#ffffff;fill-opacity:0.71535998"
       d="m 251.078,323.44 c 1.7735,7.685 9.4584,33.696 8.8673,42.563 -0.59115,8.8673 -1.1823,36.651 -2.3646,49.657 -1.1823,13.005 -4.7292,31.922 -2.9558,49.066 1.7735,17.143 4.1381,23.055 1.1823,29.558 -2.9558,6.5027 -7.0938,15.961 -7.0938,15.961 0,0 16.552,-21.873 17.735,-27.193 1.1823,-5.3204 -4.1381,-30.74 -2.9558,-43.745 1.1823,-13.005 2.9558,-42.563 5.3204,-56.751 2.3646,-14.188 3.5469,-26.602 0.59115,-39.607 -2.95575,-13.005 -17.735,-21.281 -18.326,-19.508 z"
       id="path4197" />
    <path
       inkscape:connector-curvature="0"
       d="m 442.97,329.88 c 0,-3.5469 2.5886,27.249 1.9975,27.249 -0.0368,-0.92399 45.677,0.8309 52.77,3.7867 7.0938,2.9558 6.5026,22.598 7.0938,33.239 0.59115,10.641 -0.59375,37.86 -0.59375,46.727 0,8.8673 -16.964,47.719 -22.284,54.221 -5.3204,6.5027 -12.953,12.546 -18.273,18.458 -5.3204,5.9115 -24.57,4.9296 -29.299,3.7473 -4.7292,-1.1823 4.4919,27.852 10.995,26.079 6.5027,-1.7734 33.719,-13.177 40.812,-18.497 7.0938,-5.3204 22.492,-32.742 26.039,-43.974 3.5469,-11.232 12.594,-36.896 13.185,-47.537 0.59115,-10.641 0.76816,-52.008 -1.5964,-60.875 -2.3646,-8.8673 -12.776,-28.175 -19.87,-31.721 -7.0938,-3.5469 -57.349,-6.6874 -57.349,-6.6874 0,0 -3.6283,-2.1457 -3.6283,-4.2148 z"
       style="fill:#afafaf;fill-opacity:1"
       sodipodi:nodetypes="ccsssssccssssscc"
       id="path4223" />
    <path
       inkscape:connector-curvature="0"
       style="fill:#000000;stroke:#000000;stroke-width:1px"
       d="m 442.32,330.24 c 0,0 2.069,5.1726 2.5124,7.685 0.44336,2.5124 1.3301,10.789 1.0345,13.449 -0.29557,2.6602 0.59115,5.3204 -0.44336,5.4682 -1.0345,0.14778 -1.1823,-2.2168 -1.1823,-3.9903 0,-1.7735 -0.29557,-9.1629 -0.88672,-11.675 -0.59116,-2.5124 -0.73894,-4.2858 -1.1823,-6.0593 -0.44336,-1.7734 0.59115,-5.1726 0.14779,-4.877 z"
       id="path4225" />
    <g
       id="g4184"
       transform="matrix(0,-0.58645593,0.58645593,0,583.01953,560.34528)">
      <path
         sodipodi:nodetypes="scccccccccccssccccccccccccccsscccsscccs"
         inkscape:connector-curvature="0"
         id="path7219"
         d="m 363.50588,-211.37402 c -20.77687,0.25561 -41.59817,5.17326 -60.83197,14.93463 -0.21623,0.0997 -0.41765,0.21597 -0.63307,0.31653 -0.2841,0.14603 -0.57989,0.25469 -0.86327,0.40286 l 0,0.0288 c -81.29386,38.60382 -104.5705,140.660016 -66.78856,215.875806 52.47328,109.813984 186.72378,147.358044 294.31852,112.685914 98.6607,-27.23883 180.9134,-124.3618142 160.4825,-234.0621 -0.1271,-0.6821 -0.2103,-1.36002 -0.3453,-2.04308 l -0.0576,0 c -11.4993,-76.23032 -89.7178,-121.98495 -161.7486,-104.05318 -25.8922,6.44706 -48.95515,17.16081 -69.55099,30.84763 -26.28449,-23.31273 -60.01645,-35.35166 -93.98166,-34.93381 z m 192.88395,67.53673 c 30.8758,-0.76525 62.1351,21.09489 66.2131,51.566176 l 0.1439,1.03593 0.2014,1.03592 c 13.6241,68.93394 -45.366,139.92654 -113.4629,158.72715 l -0.6906,0.20143 -0.6906,0.20143 C 430.5032,93.937426 329.81195,64.046206 294.73179,-9.3681242 l -0.14387,-0.28776 -0.14388,-0.31653 C 272.9407,-52.780984 287.80214,-115.61896 330.78783,-135.43476 l 0.74817,-0.34531 0.74817,-0.40286 c 22.75529,-11.89809 52.58344,-9.5999 73.92495,4.71922 -33.37094,37.134786 -57.88742,81.806516 -76.45722,123.3329458 -5.15425,10.99582 -3.97252,23.9174102 3.09076,33.7959002 7.06329,9.87849 18.90828,15.17566 30.98011,13.85455 12.07184,-1.32112 22.49077,-9.0548 27.2503,-20.22715 17.28827,-38.66061 39.11657,-76.51747 66.21304,-106.29768 24.9352,26.53609 46.97721,55.79906 58.58701,89.6464998 3.761,11.5254102 11.13891,22.0480602 23.02561,24.4328202 11.8867,2.38475 24.1361,-1.82045 32.0517,-11.00326 7.9155,-9.1828102 10.269,-21.9183402 6.158,-33.3236 -14.3671,-41.88613 -37.6876,-79.70859 -67.0188,-111.880186 10.4991,-5.56489 21.5096,-10.04359 33.1785,-12.9491 4.3147,-1.07412 8.7109,-1.646 13.1217,-1.75532 z"
         style="opacity:1;fill:#ffffff;fill-opacity:1;fill-rule:evenodd;stroke:none;stroke-width:72.95391083;stroke-linecap:round;stroke-linejoin:miter;stroke-miterlimit:4;stroke-dasharray:none;stroke-opacity:1" />
      <g
         transform="matrix(1.3973279,-0.2437849,0.2437849,1.3973279,-22.099611,-388.11715)"
         id="g3338" />
      <path
         inkscape:connector-curvature="0"
         sodipodi:nodetypes="ccsccccsccccccccssccsccsccsccccccssccsccsccsccsccsccsccccccsscccssccssccccccccccccccsccsccssccsccsccsccsccsccccccssccsccccssccsccccssccsccsccsccccsccsccsccccssccsccccssccccccssccsccsccsccccccssccsc"
         id="path7165"
         d="m 363.50589,-211.37402 c -20.77687,0.25561 -41.59817,5.17326 -60.83197,14.93463 -0.21623,0.0997 -0.41765,0.21597 -0.63307,0.31653 -0.2841,0.14604 -0.57989,0.25469 -0.86327,0.40286 l 0,0.0288 C 219.88371,-157.0874 196.60707,-55.031194 234.38902,20.184606 286.8623,129.99858 421.1128,167.54264 528.70758,132.87052 627.36824,105.63169 709.6209,8.5086958 689.19004,-101.19159 c -0.12703,-0.6821 -0.2103,-1.36002 -0.34531,-2.04308 l -0.0575,0 c -11.4994,-76.23033 -89.71793,-121.98496 -161.74864,-104.05319 -25.89224,6.44706 -48.9552,17.16081 -69.55104,30.84764 -26.28449,-23.31272 -60.01645,-35.35165 -93.98166,-34.9338 z m 199.3873,19.3661 c 2.5641,-0.1804 4.97991,1.45625 5.69761,4.0286 l 5.6976,20.37325 c 0.0378,0.11924 0.0855,0.25255 0.1151,0.37408 0.72046,2.96781 -1.11836,5.95551 -4.08616,6.67598 -2.9678,0.72046 -5.95552,-1.11834 -6.67598,-4.08616 l -5.6976,-20.37323 c -0.82022,-2.93984 0.88735,-5.97087 3.82718,-6.79109 0.36748,-0.10253 0.75595,-0.17566 1.12225,-0.20143 z m -160.10837,12.86277 c 3.05134,-0.12714 5.62801,2.24338 5.75515,5.29474 0.12714,3.05134 -2.24339,5.628 -5.29474,5.75515 l -21.09264,1.61145 c -3.0434,0.23043 -5.69737,-2.04993 -5.92781,-5.09332 -0.23043,-3.0434 2.04991,-5.69738 5.09331,-5.92781 l 21.09264,-1.61144 c 0.12433,-0.0138 0.2491,-0.0234 0.37409,-0.0288 z m -102.47052,10.3305 c 0.36714,0.007 0.72135,0.0598 1.09348,0.14388 l 20.66101,4.6329 c 0.12291,0.0233 0.22425,0.0548 0.3453,0.0863 2.9544,0.77359 4.74466,3.8079 3.97106,6.7623 -0.77358,2.9544 -3.80791,4.71588 -6.7623,3.94229 l -20.63223,-4.66169 c -2.9771,-0.6725 -4.84499,-3.61254 -4.17249,-6.58964 0.58846,-2.60496 2.92626,-4.3686 5.49617,-4.31637 z m 195.32992,6.10046 c 1.7751,0.0107 3.51635,0.88669 4.57535,2.47473 1.6944,2.54084 1.01574,5.95994 -1.52512,7.65434 l -17.20791,12.3448 c -2.48037,1.77853 -5.90459,1.21426 -7.68313,-1.26612 -1.7785,-2.48039 -1.21423,-5.93339 1.26614,-7.71192 l 17.17913,-12.34479 c 0.099,-0.0764 0.18378,-0.13192 0.28776,-0.20144 0.95282,-0.6354 2.04272,-0.95601 3.10778,-0.9496 z m 152.10872,12.74766 c 3.05134,-0.12713 5.62801,2.2434 5.75515,5.29475 0.12714,3.05134 -2.2434,5.62801 -5.29474,5.75515 l -21.09264,1.61144 c -3.0434,0.23044 -5.69737,-2.04991 -5.92781,-5.09331 -0.23043,-3.0434 2.04991,-5.69737 5.09331,-5.92781 l 21.09264,-1.61144 c 0.12433,-0.0138 0.2491,-0.0234 0.37409,-0.0288 z m -282.83703,6.12924 c 14.60579,0.0603 29.28863,4.31908 41.29322,12.37358 -33.37094,37.134796 -61.88741,89.806526 -80.45721,131.3329558 -5.15426,10.9958202 -3.98428,23.9042602 3.079,33.7827502 7.06329,9.87849 18.91967,15.19103 30.99151,13.86992 12.07182,-1.32111 22.49112,-9.05702 27.25065,-20.22936 17.28827,-38.66062 43.11657,-84.51748 70.21304,-114.29769 24.93521,26.53609 52.67562,69.71705 64.28541,103.56449 3.76101,11.52541 13.43599,20.1179 25.32267,22.50265 11.8867,2.38476 24.14064,-1.80953 32.05621,-10.99234 7.91558,-9.18281 10.26904,-21.9170802 6.15801,-33.3223402 -14.36708,-41.8861298 -45.68757,-91.7085798 -75.01876,-123.8801958 10.49903,-5.56489 21.50958,-10.04359 33.17846,-12.94909 4.31468,-1.07413 8.71093,-1.64601 13.12175,-1.75533 30.87576,-0.76525 62.13512,21.09489 66.21304,51.566186 l 0.14388,1.03593 0.20143,1.03593 c 13.62415,68.93393 -45.36597,139.92653 -113.46285,158.72714 l -0.69062,0.20143 -0.69062,0.20143 C 430.50321,93.937436 329.81196,64.046226 294.73181,-9.3681142 l -0.14388,-0.28776 -0.14388,-0.31653 C 272.94071,-52.780974 287.80215,-115.61896 330.78784,-135.43475 l 0.74817,-0.34532 0.74817,-0.40286 c 9.95544,-5.2054 21.27166,-7.70129 32.63173,-7.65436 z m -98.87354,37.0632 c 1.7027,0.0729 3.35463,0.94623 4.37391,2.47472 1.6944,2.54084 1.01574,5.988726 -1.52511,7.683126 l -17.17914,12.3448 c -2.48037,1.77852 -5.93339,1.18547 -7.71191,-1.2949 -1.77851,-2.48038 -1.21424,-5.93339 1.26614,-7.71191 l 17.17913,-12.316026 c 0.099,-0.0764 0.21254,-0.16068 0.31654,-0.23021 0.79401,-0.5295 1.67302,-0.84023 2.56104,-0.92082 0.24421,-0.0222 0.47615,-0.0392 0.7194,-0.0288 z m 254.06126,17.294236 c 2.35724,0.023 4.52338,1.56579 5.23719,3.94228 0.87855,2.92489 -0.78717,6.02765 -3.71208,6.90619 l -20.02793,6.7623 c -2.89164,0.97666 -6.04463,-0.56145 -7.02129,-3.45309 -0.97665,-2.89163 0.59024,-6.01585 3.48187,-6.99251 l 20.02793,-6.79108 c 0.11703,-0.0442 0.22556,-0.079 0.34531,-0.11511 0.54842,-0.16472 1.12502,-0.26428 1.669,-0.25898 z m -101.83745,3.25166 c 3.05135,-0.12714 5.62802,2.24339 5.75515,5.29474 0.12714,3.05135 -2.24339,5.62801 -5.29474,5.75516 l -21.09264,1.61144 c -3.04339,0.23044 -5.69737,-2.04992 -5.9278,-5.09331 -0.23044,-3.0434 2.04991,-5.69738 5.09331,-5.92781 l 21.09264,-1.61144 c 0.12433,-0.0138 0.2491,-0.0234 0.37408,-0.0288 z m 232.91107,2.18696 c 1.06415,-0.0243 2.14499,0.27318 3.10779,0.89205 l 17.8122,11.42398 c 0.10754,0.0639 0.21359,0.13036 0.31653,0.20143 2.51155,1.73753 3.14753,5.17158 1.41001,7.68313 -1.73753,2.51155 -5.20036,3.14754 -7.7119,1.41001 l -17.78343,-11.42398 c -2.56746,-1.65031 -3.31929,-5.08688 -1.66899,-7.65435 1.03144,-1.60467 2.74421,-2.4917 4.51779,-2.53227 z m -115.99512,56.86092 c 0.36713,0.007 0.72135,0.0598 1.09348,0.14388 l 20.63222,4.66167 c 0.12292,0.0233 0.25304,0.026 0.37409,0.0575 2.95439,0.7736 4.71587,3.80793 3.94228,6.76231 -0.77358,2.95439 -3.77913,4.71588 -6.73353,3.94228 l -20.63223,-4.6329 c -2.9771,-0.6725 -4.84498,-3.64133 -4.17248,-6.61842 0.58845,-2.60497 2.92627,-4.36859 5.49617,-4.31637 z m -175.81995,4.8631 c 1.06415,-0.0243 2.14499,0.24441 3.10779,0.86328 l 17.8122,11.42398 c 0.10754,0.0639 0.21357,0.1303798 0.31653,0.2014298 2.51155,1.73753 3.11877,5.20036 1.38124,7.7119 -1.73754,2.51155 -5.17158,3.14754 -7.68313,1.41002 l -17.8122,-11.4527598 c -2.56747,-1.65031 -3.29053,-5.05811 -1.64022,-7.62558 1.03144,-1.60466 2.74421,-2.49169 4.51779,-2.53227 z m -92.83063,1.26614 c 3.05135,-0.12714 5.62802,2.24339 5.75516,5.29474 0.12714,3.05135 -2.2434,5.62802 -5.29474,5.75515 l -21.09264,1.6114498 c -3.0434,0.23043 -5.69737,-2.0499198 -5.92781,-5.0933098 -0.23044,-3.0434 2.04991,-5.69738 5.09331,-5.92781 l 21.09264,-1.61145 c 0.12433,-0.0138 0.2491,-0.0234 0.37408,-0.0288 z m 382.97671,13.6972598 c 1.7751,0.0107 3.51635,0.88669 4.57535,2.47472 1.6944,2.54084 0.98696,5.95996 -1.5539,7.65436 L 635.35058,15.120066 c -2.48038,1.77852 -5.93339,1.21425 -7.71191,-1.26613 -1.77851,-2.48038 -1.21425,-5.9333902 1.26614,-7.7119102 l 17.20791,-12.3448 c 0.099,-0.0764 0.18376,-0.13191 0.28776,-0.20144 0.95282,-0.63539 2.04272,-0.956 3.10778,-0.9496 z M 288.68889,29.766936 c 2.35488,0.0694 4.48444,1.66876 5.15087,4.05738 l 5.6976,20.37324 c 0.0378,0.11924 0.0855,0.22378 0.1151,0.34531 0.72046,2.9678 -1.11837,5.95551 -4.08616,6.67598 -2.9678,0.72046 -5.95552,-1.08959 -6.67598,-4.05738 l -5.6976,-20.37325 c -0.82022,-2.93983 0.91612,-5.99962 3.85596,-6.81985 0.55121,-0.15379 1.09678,-0.21745 1.64021,-0.20143 z m 305.71377,12.60378 c 3.04913,-0.13494 5.62021,2.24562 5.75515,5.29474 l 0.94961,21.12142 c 0.01,0.12471 0.0273,0.24899 0.0288,0.37408 0.0315,3.05384 -2.44234,5.55107 -5.49617,5.5825 -3.05383,0.0315 -5.55104,-2.41356 -5.5825,-5.46739 l -0.9496,-21.12142 c -0.13495,-3.04912 2.24561,-5.64898 5.29474,-5.78393 z m -250.63694,42.07018 c 0.36713,0.007 0.75012,0.0598 1.12225,0.14388 l 20.63223,4.66167 c 0.12291,0.0233 0.25303,0.0548 0.37408,0.0863 2.95439,0.77359 4.71588,3.77914 3.94228,6.73353 -0.77358,2.95439 -3.80791,4.715884 -6.7623,3.942284 l -20.63223,-4.632904 c -2.9771,-0.67251 -4.84499,-3.64134 -4.17249,-6.61843 0.58846,-2.60496 2.92626,-4.36858 5.49618,-4.31636 z m 192.9703,9.43845 c 3.05135,-0.12714 5.62801,2.24339 5.75515,5.29474 0.12714,3.051354 -2.2434,5.628024 -5.29474,5.755154 l -21.09264,1.61145 c -3.04339,0.23043 -5.69738,-2.04991 -5.9278,-5.09331 -0.23044,-3.043404 2.0499,-5.697384 5.09331,-5.927814 l 21.09264,-1.61145 c 0.12433,-0.0138 0.24909,-0.0234 0.37408,-0.0288 z m -111.07447,5.35229 c 1.06415,-0.0243 2.14498,0.24441 3.10779,0.863284 l 17.8122,11.42398 c 0.10754,0.0639 0.21358,0.13037 0.31653,0.20143 2.51155,1.73753 3.11877,5.20035 1.38124,7.7119 -1.73753,2.51155 -5.17157,3.14754 -7.68313,1.41001 l -17.8122,-11.45275 c -2.56747,-1.65031 -3.29053,-5.05811 -1.64022,-7.62558 1.03144,-1.60467 2.74421,-2.491704 4.51779,-2.532274 z"
         style="fill:#d45500;fill-opacity:1;fill-rule:evenodd;stroke:none;stroke-width:72.95391083;stroke-linecap:round;stroke-linejoin:miter;stroke-miterlimit:4;stroke-dasharray:none;stroke-opacity:1" />
    </g>
  </g>
  <metadata
     id="metadata26">
    <rdf:RDF>
      <cc:Work>
        <dc:format>image/svg+xml</dc:format>
        <dc:type
           rdf:resource="http://purl.org/dc/dcmitype/StillImage" />
        <cc:license
           rdf:resource="http://creativecommons.org/publicdomain/zero/1.0/" />
        <dc:publisher>
          <cc:Agent
             rdf:about="http://openclipart.org/">
            <dc:title>Openclipart</dc:title>
          </cc:Agent>
        </dc:publisher>
        <dc:title></dc:title>
        <dc:date>2010-07-17T14:58:12</dc:date>
        <dc:description>Beer,Drink,cool,drunk,water,bujung,thirsty</dc:description>
        <dc:source>https://openclipart.org/detail/73591/beer-by-aungkarns</dc:source>
        <dc:creator>
          <cc:Agent>
            <dc:title>aungkarns</dc:title>
          </cc:Agent>
        </dc:creator>
        <dc:subject>
          <rdf:Bag>
            <rdf:li>Beer</rdf:li>
            <rdf:li>Drink</rdf:li>
            <rdf:li>bujung</rdf:li>
            <rdf:li>cool</rdf:li>
            <rdf:li>drunk</rdf:li>
            <rdf:li>thirsty</rdf:li>
            <rdf:li>water</rdf:li>
          </rdf:Bag>
        </dc:subject>
      </cc:Work>
      <cc:License
         rdf:about="http://creativecommons.org/publicdomain/zero/1.0/">
        <cc:permits
           rdf:resource="http://creativecommons.org/ns#Reproduction" />
        <cc:permits
           rdf:resource="http://creativecommons.org/ns#Distribution" />
        <cc:permits
           rdf:resource="http://creativecommons.org/ns#DerivativeWorks" />
      </cc:License>
    </rdf:RDF>
  </metadata>
</svg>
