<?xml version="1.0" encoding="UTF-8" standalone="no"?>
<!-- Created with Inkscape (http://www.inkscape.org/) -->

<svg
   xmlns:dc="http://purl.org/dc/elements/1.1/"
   xmlns:cc="http://creativecommons.org/ns#"
   xmlns:rdf="http://www.w3.org/1999/02/22-rdf-syntax-ns#"
   xmlns:svg="http://www.w3.org/2000/svg"
   xmlns="http://www.w3.org/2000/svg"
   xmlns:sodipodi="http://sodipodi.sourceforge.net/DTD/sodipodi-0.dtd"
   xmlns:inkscape="http://www.inkscape.org/namespaces/inkscape"
   id="svg2"
   sodipodi:docname="beer3.svg"
   viewBox="0 0 312.24864 359.23141"
   version="1.1"
   inkscape:version="0.91 r13725"
   width="312.24863"
   height="359.23141">
  <defs
     id="defs4">
    <linearGradient
       id="linearGradient4213"
       y2="349.41"
       gradientUnits="userSpaceOnUse"
       x2="122.01"
       y1="121.23"
       x1="121.87"
       inkscape:collect="always"
       gradientTransform="translate(206.15,216.44)">
      <stop
         id="stop4209"
         style="stop-color:#ef8900"
         offset="0" />
      <stop
         id="stop4211"
         style="stop-color:#5d2500"
         offset="1" />
    </linearGradient>
    <radialGradient
       id="radialGradient4221"
       gradientUnits="userSpaceOnUse"
       cy="45.060001"
       cx="126.23"
       gradientTransform="matrix(1.7551,6.3148e-8,-1.0548e-8,1.7657,110.829,200.217)"
       r="117.84"
       inkscape:collect="always">
      <stop
         id="stop4217"
         style="stop-color:#ffffff"
         offset="0" />
      <stop
         id="stop4219"
         style="stop-color:#c5c5c5"
         offset="1" />
    </radialGradient>
    <linearGradient
       id="linearGradient4235"
       y2="117.64"
       gradientUnits="userSpaceOnUse"
       x2="160.42"
       y1="186.8"
       x1="113.13"
       inkscape:collect="always"
       gradientTransform="translate(206.15,216.44)">
      <stop
         id="stop4231"
         style="stop-color:#ff7f2a"
         offset="0" />
      <stop
         id="stop4233"
         style="stop-color:#813300;stop-opacity:0"
         offset="1" />
    </linearGradient>
  </defs>
  <sodipodi:namedview
     id="base"
     bordercolor="#666666"
     inkscape:pageshadow="2"
     inkscape:window-y="-8"
     pagecolor="#ffffff"
     inkscape:window-height="988"
     inkscape:window-maximized="1"
     inkscape:zoom="1.1961507"
     inkscape:window-x="-8"
     showgrid="false"
     borderopacity="1.0"
     inkscape:current-layer="layer1"
     inkscape:cx="21.331903"
     inkscape:cy="176.81312"
     inkscape:window-width="1680"
     inkscape:pageopacity="0.0"
     inkscape:document-units="px"
     fit-margin-top="0"
     fit-margin-left="0"
     fit-margin-right="0"
     fit-margin-bottom="0" />
  <g
     id="layer1"
     inkscape:label="Layer 1"
     inkscape:groupmode="layer"
     transform="translate(-214.53904,-236.73933)">
    <path
       inkscape:connector-curvature="0"
       style="fill:url(#linearGradient4213);stroke:#000000;stroke-width:1px"
       d="m 271.025,285.596 c -19.529,-0.024 -34.948,0.151 -36.5,0.594 -4.138,1.182 -7.687,5.312 -7.687,5.312 0,0 1.786,15.961 2.968,21.282 1.183,5.316 8.279,115.88 7.688,124.16 -0.591,8.28 2.338,106.4 1.156,111.72 -1.108,4.99 -2.21,10.49 -2.344,10.19 -0.033,0.38 -1.765,20.6 -0.594,23.53 1.183,2.95 68.576,14.18 99.908,13 31.33,-1.18 94.58,-8.27 98.12,-13 3.55,-4.73 -3.55,-28.98 -1.18,-31.94 2.36,-2.96 6.49,-4.73 13,-6.5 6.5,-1.77 33.71,-12.99 40.81,-18.31 7.09,-5.32 23.05,-33.11 26.59,-44.35 3.55,-11.23 12.41,-37.26 13,-47.9 0.59,-10.64 0.59,-52.01 -1.78,-60.88 -2.36,-8.86 -12.4,-28.36 -19.5,-31.9 -7.09,-3.55 -58.53,-7.1 -58.53,-7.1 0,0 -3.53,-2.39 -3.53,-5.94 0,-3.54 -69.17,-38.409 -85.13,-40.182 -9.97,-1.109 -53.917,-1.741 -86.465,-1.782 z m 173.94,71.534 c -0.59,0 44.94,1.2 52.03,4.15 7.1,2.96 6.51,21.86 7.1,32.5 0.59,10.64 -0.6,38.42 -0.6,47.28 0,8.87 -17.14,47.91 -22.46,54.41 -5.33,6.5 -12.4,11.81 -17.72,17.72 -5.32,5.91 -23.65,4.74 -28.38,3.56 -4.73,-1.18 -3.56,-11.84 -4.16,-18.34 -0.59,-6.5 4.16,-108.18 4.76,-114.09 0.59,-5.92 1.16,-20.1 9.43,-27.19 z"
       id="path4180" />
    <path
       inkscape:connector-curvature="0"
       style="fill:url(#linearGradient4235)"
       d="m 237.481,344.72 c 0,0 5.3204,-27.193 11.823,-30.74 6.5027,-3.5469 41.972,-6.5027 49.066,-4.7292 7.0938,1.7735 24.828,15.37 28.966,20.099 4.1381,4.7292 11.823,34.878 13.596,43.154 1.7735,8.2761 4.1381,40.198 5.3204,43.154 1.1823,2.9558 8.8673,18.917 17.143,18.917 8.2761,0 26.011,-15.961 29.558,-22.464 3.5469,-6.5027 4.1381,-13.596 14.779,-26.602 10.641,-13.005 8.2761,-37.834 12.414,-43.154 4.1381,-5.3204 1.1823,-8.8673 5.9115,-5.9115 4.7292,2.9558 7.0938,7.685 10.641,3.5469 3.5469,-4.1381 -15.37,-34.287 -15.37,-34.287 l -177.34,-15.369 -14.184,11.232 c 0,0 5.9115,7.0938 6.5027,10.641 0.59115,3.5469 1.7735,33.105 1.1823,32.513 z"
       id="path4189" />
    <path
       inkscape:connector-curvature="0"
       style="fill:url(#radialGradient4221);stroke:#000000;stroke-width:1px"
       d="m 229.796,319.89 c 0,0 2.3646,-17.143 4.7292,-18.917 2.3646,-1.7735 62.071,-7.0938 66.8,-6.5027 4.7292,0.59115 19.508,8.2761 30.74,8.2761 11.232,0 16.552,2.3646 20.69,4.7292 4.1381,2.3646 8.8673,10.05 13.005,11.232 4.1381,1.1823 13.596,7.0938 12.414,11.232 -1.1823,4.1381 -1.7734,21.873 -1.1823,25.42 0.59115,3.5469 2.9558,10.05 2.9558,10.05 0,0 0,4.7292 2.9558,5.9115 2.9558,1.1823 8.8673,1.1823 8.8673,-3.5469 0,-4.7292 -2.9558,-5.9115 -4.1381,-11.823 -1.1823,-5.9115 -2.9558,-9.4584 1.1823,-17.735 4.1381,-8.2761 4.1381,-10.641 8.2761,-13.005 4.1381,-2.3646 4.7292,-6.5027 7.685,-1.1823 2.9558,5.3204 -0.59115,7.685 5.3204,6.5027 5.9115,-1.1823 4.1381,-7.0938 11.232,-5.9115 7.0938,1.1823 5.9115,1.7735 7.685,7.0938 1.7735,5.3204 0,11.232 5.9115,6.5027 5.9115,-4.7292 8.8673,-10.05 11.823,-15.961 2.9558,-5.9115 5.3204,-34.878 -1.1823,-44.928 -6.5027,-10.05 -49.066,-33.696 -59.115,-34.287 -10.05,-0.59115 -81.579,-7.685 -89.264,-5.3204 -7.685,2.3646 -30.149,4.1381 -35.469,7.0938 -5.3204,2.9558 -5.3204,9.4584 -9.4584,10.05 -4.1381,0.59115 -10.641,0 -12.414,4.7292 -1.7735,4.7292 0.59115,1.7735 -6.5027,6.5027 -7.09385,4.7292 -11.232,1.1823 -11.823,9.4584 -0.59115,8.2761 4.1381,7.685 -1.1823,10.641 -5.3204,2.9558 -6.5027,2.9558 -4.1381,10.05 2.3646,7.0938 10.05,24.828 10.05,24.828 l 3.5469,-1.1823 z"
       id="path4182" />
    <path
       inkscape:connector-curvature="0"
       style="fill:#ffffff;stroke:#000000;stroke-width:1px"
       d="m 232.752,311.615 2.3646,18.326 c 0,0 10.641,162.57 9.4584,173.21 -1.1823,10.641 -4.7292,39.016 -1.1823,43.745 3.5469,4.7292 3.5469,9.4584 5.9115,10.05 2.3646,0.59115 21.281,7.0938 35.469,6.5027 14.188,-0.59115 87.49,0 99.314,-1.7735 11.823,-1.7734 27.193,-4.1381 34.287,-7.0938 7.0938,-2.9558 7.685,-4.7292 10.05,-1.7735 2.3646,2.9558 5.9115,12.414 3.5469,14.188 -2.3646,1.7735 -28.375,13.005 -38.425,11.232 -10.05,-1.7735 -58.524,-4.7292 -73.894,-4.7292 -15.37,0 -34.287,2.9558 -46.701,0 -12.414,-2.9558 -23.646,-2.3646 -26.602,-4.1381 -2.9558,-1.7735 -8.2761,-10.05 -7.685,-12.414 0.59115,-2.3646 2.3646,-11.823 2.3646,-11.823 0,0 -1.1823,-73.894 -1.1823,-77.441 0,-3.5469 -2.9558,-77.441 -2.9558,-77.441 l -5.3204,-71.529 1.1823,-7.0938 z"
       id="path4184" />
    <path
       inkscape:connector-curvature="0"
       style="fill:#803300"
       d="m 428.42,341.76 c 0,0 0,34.878 0.59115,46.701 0.59115,11.823 -2.3646,78.032 -4.1381,85.717 -1.7735,7.685 -1.1823,11.823 0,18.326 1.1823,6.5027 0,8.2761 0,8.2761 0,0 3.5469,-21.873 4.1381,-27.193 0.59115,-5.3204 3.5469,-80.397 4.1381,-85.126 0.59116,-4.7292 4.7292,-20.69 5.9115,-26.602 1.1823,-5.9115 2.9558,-8.8673 0,-13.005 -2.9558,-4.1381 -1.1823,-2.3646 -4.7292,-4.7292 -3.5469,-2.3646 -5.9115,0 -5.9115,-2.3646 z"
       id="path4191" />
    <path
       inkscape:connector-curvature="0"
       style="fill:#803300"
       d="m 242.801,326.39 c 1.7735,7.685 4.1381,108.18 4.7292,115.27 0.59115,7.0938 3.5469,37.243 2.3646,46.11 -1.1823,8.8673 -1.7735,10.641 -2.9558,13.596 -1.1823,2.9558 -1.7735,-11.232 -1.7735,-11.232 0,0 -7.685,-103.45 -6.5027,-107.59 1.1823,-4.1381 -2.3646,-40.198 -0.59115,-44.928 1.7735,-4.7292 4.1381,-12.414 4.7292,-11.232 z"
       id="path4193" />
    <path
       inkscape:connector-curvature="0"
       style="fill:#000000;fill-opacity:0.43819999"
       d="m 251.078,533.3 c 2.9558,7.0938 4.1381,11.823 10.05,12.414 5.9115,0.59115 54.386,3.5469 66.209,3.5469 11.823,0 69.756,0 78.032,-5.9115 8.2761,-5.9115 11.232,-3.5469 14.188,-14.188 2.9558,-10.641 4.7292,-23.646 2.3646,-27.784 -2.3646,-4.1381 5.9115,10.05 5.9115,18.326 0,8.2761 -4.1381,13.596 -9.4584,21.873 -5.3204,8.2761 -13.005,12.414 -24.237,12.414 -11.232,0 -24.237,1.7734 -32.513,0.59115 -8.2761,-1.1823 -14.188,-2.3646 -25.42,0.59115 -11.232,2.95575 -53.204,-0.59115 -64.436,-2.3646 -11.232,-1.77345 -20.099,1.7735 -23.055,-5.9115 -2.9558,-7.685 -2.3646,-17.143 0,-23.055 2.3646,-5.9115 5.9115,-15.37 5.9115,-15.37 l -3.5469,24.828 z"
       id="path4195" />
    <path
       inkscape:connector-curvature="0"
       style="fill:#ffffff;fill-opacity:0.71535998"
       d="m 251.078,323.44 c 1.7735,7.685 9.4584,33.696 8.8673,42.563 -0.59115,8.8673 -1.1823,36.651 -2.3646,49.657 -1.1823,13.005 -4.7292,31.922 -2.9558,49.066 1.7735,17.143 4.1381,23.055 1.1823,29.558 -2.9558,6.5027 -7.0938,15.961 -7.0938,15.961 0,0 16.552,-21.873 17.735,-27.193 1.1823,-5.3204 -4.1381,-30.74 -2.9558,-43.745 1.1823,-13.005 2.9558,-42.563 5.3204,-56.751 2.3646,-14.188 3.5469,-26.602 0.59115,-39.607 -2.95575,-13.005 -17.735,-21.281 -18.326,-19.508 z"
       id="path4197" />
    <path
       inkscape:connector-curvature="0"
       d="m 442.97,329.88 c 0,-3.5469 2.5886,27.249 1.9975,27.249 -0.0368,-0.92399 45.677,0.8309 52.77,3.7867 7.0938,2.9558 6.5026,22.598 7.0938,33.239 0.59115,10.641 -0.59375,37.86 -0.59375,46.727 0,8.8673 -16.964,47.719 -22.284,54.221 -5.3204,6.5027 -12.953,12.546 -18.273,18.458 -5.3204,5.9115 -24.57,4.9296 -29.299,3.7473 -4.7292,-1.1823 4.4919,27.852 10.995,26.079 6.5027,-1.7734 33.719,-13.177 40.812,-18.497 7.0938,-5.3204 22.492,-32.742 26.039,-43.974 3.5469,-11.232 12.594,-36.896 13.185,-47.537 0.59115,-10.641 0.76816,-52.008 -1.5964,-60.875 -2.3646,-8.8673 -12.776,-28.175 -19.87,-31.721 -7.0938,-3.5469 -57.349,-6.6874 -57.349,-6.6874 0,0 -3.6283,-2.1457 -3.6283,-4.2148 z"
       style="fill:#afafaf;fill-opacity:1"
       sodipodi:nodetypes="ccsssssccssssscc"
       id="path4223" />
    <path
       inkscape:connector-curvature="0"
       style="fill:#000000;stroke:#000000;stroke-width:1px"
       d="m 442.32,330.24 c 0,0 2.069,5.1726 2.5124,7.685 0.44336,2.5124 1.3301,10.789 1.0345,13.449 -0.29557,2.6602 0.59115,5.3204 -0.44336,5.4682 -1.0345,0.14778 -1.1823,-2.2168 -1.1823,-3.9903 0,-1.7735 -0.29557,-9.1629 -0.88672,-11.675 -0.59116,-2.5124 -0.73894,-4.2858 -1.1823,-6.0593 -0.44336,-1.7734 0.59115,-5.1726 0.14779,-4.877 z"
       id="path4225" />
  </g>
  <metadata
     id="metadata26">
    <rdf:RDF>
      <cc:Work>
        <dc:format>image/svg+xml</dc:format>
        <dc:type
           rdf:resource="http://purl.org/dc/dcmitype/StillImage" />
        <cc:license
           rdf:resource="http://creativecommons.org/publicdomain/zero/1.0/" />
        <dc:publisher>
          <cc:Agent
             rdf:about="http://openclipart.org/">
            <dc:title>Openclipart</dc:title>
          </cc:Agent>
        </dc:publisher>
        <dc:title></dc:title>
        <dc:date>2010-07-17T14:58:12</dc:date>
        <dc:description>Beer,Drink,cool,drunk,water,bujung,thirsty</dc:description>
        <dc:source>https://openclipart.org/detail/73591/beer-by-aungkarns</dc:source>
        <dc:creator>
          <cc:Agent>
            <dc:title>aungkarns</dc:title>
          </cc:Agent>
        </dc:creator>
        <dc:subject>
          <rdf:Bag>
            <rdf:li>Beer</rdf:li>
            <rdf:li>Drink</rdf:li>
            <rdf:li>bujung</rdf:li>
            <rdf:li>cool</rdf:li>
            <rdf:li>drunk</rdf:li>
            <rdf:li>thirsty</rdf:li>
            <rdf:li>water</rdf:li>
          </rdf:Bag>
        </dc:subject>
      </cc:Work>
      <cc:License
         rdf:about="http://creativecommons.org/publicdomain/zero/1.0/">
        <cc:permits
           rdf:resource="http://creativecommons.org/ns#Reproduction" />
        <cc:permits
           rdf:resource="http://creativecommons.org/ns#Distribution" />
        <cc:permits
           rdf:resource="http://creativecommons.org/ns#DerivativeWorks" />
      </cc:License>
    </rdf:RDF>
  </metadata>
</svg>
