<?xml version="1.0" encoding="UTF-8" standalone="no"?>
<!-- Created with Inkscape (http://www.inkscape.org/) -->

<svg
   xmlns:dc="http://purl.org/dc/elements/1.1/"
   xmlns:cc="http://creativecommons.org/ns#"
   xmlns:rdf="http://www.w3.org/1999/02/22-rdf-syntax-ns#"
   xmlns:svg="http://www.w3.org/2000/svg"
   xmlns="http://www.w3.org/2000/svg"
   xmlns:sodipodi="http://sodipodi.sourceforge.net/DTD/sodipodi-0.dtd"
   xmlns:inkscape="http://www.inkscape.org/namespaces/inkscape"
   id="svg2"
   sodipodi:docname="05.svg"
   viewBox="0 0 160 160"
   version="1.1"
   inkscape:version="0.92.2 (5c3e80d, 2017-08-06)"
   width="160"
   height="160">
  <defs
     id="defs4">
    <linearGradient
       id="linearGradient4213"
       y2="349.41"
       gradientUnits="userSpaceOnUse"
       x2="122.01"
       y1="121.23"
       x1="121.87"
       inkscape:collect="always"
       gradientTransform="matrix(0.51252415,0,0,0.44530508,210.22187,426.94756)">
      <stop
         id="stop4209"
         style="stop-color:#ef8900"
         offset="0" />
      <stop
         id="stop4211"
         style="stop-color:#5d2500"
         offset="1" />
    </linearGradient>
    <radialGradient
       id="radialGradient4221"
       gradientUnits="userSpaceOnUse"
       cy="45.060001"
       cx="126.23"
       gradientTransform="matrix(0.89953114,2.8120125e-8,0,0.78627518,161.36756,419.72338)"
       r="117.84"
       inkscape:collect="always">
      <stop
         id="stop4217"
         style="stop-color:#ffffff"
         offset="0" />
      <stop
         id="stop4219"
         style="stop-color:#c5c5c5"
         offset="1" />
    </radialGradient>
    <linearGradient
       id="linearGradient4235"
       y2="117.64"
       gradientUnits="userSpaceOnUse"
       x2="160.42"
       y1="186.8"
       x1="113.13"
       inkscape:collect="always"
       gradientTransform="matrix(0.51252415,0,0,0.44530508,210.22187,426.94756)">
      <stop
         id="stop4231"
         style="stop-color:#ff7f2a"
         offset="0" />
      <stop
         id="stop4233"
         style="stop-color:#813300;stop-opacity:0"
         offset="1" />
    </linearGradient>
  </defs>
  <sodipodi:namedview
     id="base"
     bordercolor="#666666"
     inkscape:pageshadow="2"
     inkscape:window-y="-8"
     pagecolor="#ffffff"
     inkscape:window-height="987"
     inkscape:window-maximized="1"
     inkscape:zoom="1.6916125"
     inkscape:window-x="-8"
     showgrid="false"
     borderopacity="1.0"
     inkscape:current-layer="layer1"
     inkscape:cx="-17.898443"
     inkscape:cy="133.61337"
     inkscape:window-width="1680"
     inkscape:pageopacity="0.0"
     inkscape:document-units="px"
     fit-margin-top="0"
     fit-margin-left="0"
     fit-margin-right="0"
     fit-margin-bottom="0" />
  <g
     id="layer1"
     inkscape:label="Layer 1"
     inkscape:groupmode="layer"
     transform="translate(-214.53904,-435.9707)">
    <path
       inkscape:connector-curvature="0"
       style="fill:url(#linearGradient4213);stroke:#000000;stroke-width:0.47773382px"
       d="m 243.47188,457.74307 c -10.00908,-0.0107 -17.91169,0.0673 -18.70713,0.26452 -2.12082,0.52635 -3.93978,2.36545 -3.93978,2.36545 0,0 0.91537,7.10752 1.52118,9.47699 0.60631,2.36724 4.24318,51.60195 3.94028,55.28908 -0.3029,3.68713 1.19829,47.38046 0.59248,49.74948 -0.56788,2.22207 -1.13268,4.67125 -1.20136,4.53766 -0.017,0.16921 -0.9046,9.17329 -0.30443,10.47803 0.60631,1.31365 35.14685,6.31443 51.20526,5.78896 16.05738,-0.52546 48.47453,-3.68267 50.28887,-5.78896 1.81946,-2.10629 -1.81947,-12.90494 -0.60478,-14.22304 1.20955,-1.31811 3.32629,-2.10629 6.66281,-2.89449 3.33141,-0.78818 17.2772,-5.78451 20.91612,-8.15353 3.63379,-2.36903 11.81367,-14.74405 13.62801,-19.74929 1.81946,-5.00077 6.36043,-16.59206 6.66282,-21.33011 0.30238,-4.73804 0.30238,-23.16031 -0.9123,-27.11017 -1.20956,-3.9454 -6.3553,-12.62885 -9.99422,-14.20523 -3.63379,-1.58083 -29.99804,-3.16166 -29.99804,-3.16166 0,0 -1.80921,-1.06428 -1.80921,-2.64512 0,-1.57638 -35.4513,-17.10373 -43.63118,-17.89325 -5.10986,-0.49385 -27.63377,-0.77528 -44.3154,-0.79354 z m 89.14845,31.85446 c -0.30238,0 23.03284,0.53437 26.66663,1.84801 3.63892,1.31811 3.33654,9.73438 3.63892,14.47242 0.30239,4.73805 -0.30751,17.10862 -0.30751,21.05402 0,3.94986 -8.78466,21.33457 -11.51129,24.22905 -2.73175,2.89449 -6.3553,5.25905 -9.08193,7.89081 -2.72663,2.63175 -12.12119,2.11074 -14.54543,1.58528 -2.42425,-0.52546 -1.82459,-5.27241 -2.13211,-8.16689 -0.30239,-2.89449 2.13211,-48.1731 2.43962,-50.80485 0.30239,-2.63621 0.59453,-8.95063 4.8331,-12.10785 z"
       id="path4180" />
    <path
       inkscape:connector-curvature="0"
       style="fill:url(#linearGradient4235);stroke-width:0.47773382"
       d="m 226.27977,484.07129 c 0,0 2.72684,-12.10918 6.05958,-13.68868 3.33279,-1.57945 21.51166,-2.89568 25.14751,-2.10593 3.63574,0.78975 12.72494,6.84434 14.84577,8.95018 2.12088,2.10594 6.05957,15.53136 6.96828,19.2167 0.90895,3.68539 2.12087,17.90037 2.72683,19.2167 0.60596,1.31622 4.54471,8.42383 8.7862,8.42383 4.2417,0 13.33126,-7.10752 15.14919,-10.00333 1.81787,-2.89569 2.12088,-6.05437 7.57459,-11.846 5.45377,-5.7912 4.2417,-16.84768 6.36248,-19.2167 2.12087,-2.3692 0.60596,-3.94865 3.02978,-2.63242 2.42384,1.31623 3.63575,3.42217 5.45377,1.57945 1.81788,-1.84271 -7.87748,-15.26818 -7.87748,-15.26818 l -90.89105,-6.84389 -7.26964,5.00167 c 0,0 3.02979,3.1589 3.33279,4.73849 0.30298,1.57945 0.90897,14.74183 0.60596,14.4782 z"
       id="path4189" />
    <path
       inkscape:connector-curvature="0"
       style="fill:url(#radialGradient4221);stroke:#000000;stroke-width:0.47773382px"
       d="m 222.34102,473.01437 c 0,0 1.21192,-7.63386 2.42383,-8.42384 1.21191,-0.78974 31.81288,-3.15891 34.23661,-2.89568 2.42384,0.26324 9.99833,3.68539 15.755,3.68539 5.75667,0 8.48329,1.05297 10.60412,2.10594 2.12088,1.05296 4.54471,4.47531 6.66538,5.00166 2.12087,0.52648 6.96828,3.1589 6.36247,5.00167 -0.60595,1.84271 -0.9089,9.74015 -0.60595,11.31965 0.30297,1.57945 1.51491,4.47532 1.51491,4.47532 0,0 0,2.10594 1.51493,2.63242 1.51491,0.52649 4.5447,0.52649 4.5447,-1.57945 0,-2.10594 -1.51492,-2.63242 -2.12088,-5.26484 -0.60596,-2.63242 -1.51491,-4.21188 0.60596,-7.89749 2.12087,-3.68539 2.12087,-4.73849 4.2417,-5.79119 2.12088,-1.05297 2.42383,-2.89569 3.93875,-0.52649 1.51492,2.3692 -0.30298,3.42217 2.72683,2.89568 3.02979,-0.52648 2.12088,-3.1589 5.75667,-2.63242 3.63574,0.52649 3.0298,0.78976 3.93875,3.15891 0.90897,2.36921 0,5.00167 3.0298,2.89569 3.02978,-2.10594 4.54469,-4.47532 6.05956,-7.10752 1.51493,-2.63242 2.72683,-15.53135 -0.60596,-20.00667 -3.33279,-4.47531 -25.14751,-15.00499 -30.29786,-15.26817 -5.15087,-0.26324 -41.8112,-3.42217 -45.74995,-2.3692 -3.93875,1.05297 -15.4521,1.84271 -18.17873,3.15891 -2.72683,1.31622 -2.72683,4.21187 -4.84766,4.47531 -2.12087,0.26324 -5.45377,0 -6.36246,2.10593 -0.90897,2.10594 0.30297,0.78976 -3.33279,2.89569 -3.63578,2.10594 -5.75668,0.52649 -6.05958,4.21188 -0.30298,3.68539 2.12087,3.42216 -0.60596,4.73849 -2.72683,1.31623 -3.33279,1.31623 -2.12087,4.47531 1.2119,3.15891 5.15087,11.05604 5.15087,11.05604 l 1.81786,-0.52649 z"
       id="path4182" />
    <path
       inkscape:connector-curvature="0"
       style="fill:#ffffff;stroke:#000000;stroke-width:0.47773382px"
       d="m 223.85605,469.32947 1.21191,8.16066 c 0,0 5.45376,72.39325 4.84766,77.13129 -0.60596,4.7385 -2.42383,17.37403 -0.60596,19.47988 1.81787,2.10593 1.81787,4.21187 3.02978,4.47531 1.21192,0.26324 10.90704,3.1589 18.17873,2.89569 7.27168,-0.26325 44.84073,0 50.90082,-0.78976 6.05957,-0.78969 13.93707,-1.84271 17.57292,-3.1589 3.63574,-1.31623 3.93875,-2.10594 5.15087,-0.78974 1.2119,1.31622 3.02978,5.52801 1.81786,6.31798 -1.21191,0.78975 -14.54287,5.7912 -19.69373,5.00167 -5.15087,-0.78975 -29.99497,-2.10594 -37.87247,-2.10594 -7.87749,0 -17.57292,1.31624 -23.93538,0 -6.36248,-1.31623 -12.11915,-1.05297 -13.63417,-1.84271 -1.51492,-0.78976 -4.2417,-4.47532 -3.93875,-5.52803 0.30298,-1.05296 1.21191,-5.26484 1.21191,-5.26484 0,0 -0.60596,-32.90537 -0.60596,-34.48486 0,-1.57946 -1.51491,-34.48488 -1.51491,-34.48488 l -2.72683,-31.85223 0.60595,-3.1589 z"
       id="path4184" />
    <path
       inkscape:connector-curvature="0"
       style="fill:#803300;stroke-width:0.47773382"
       d="m 324.14062,482.75319 c 0,0 0,15.53135 0.30298,20.79619 0.30298,5.26484 -1.21191,34.74805 -2.12088,38.17021 -0.90896,3.42218 -0.60596,5.26485 0,8.16067 0.60596,2.89568 0,3.68539 0,3.68539 0,0 1.81788,-9.74016 2.12088,-12.10918 0.30298,-2.36921 1.81787,-35.8012 2.12088,-37.90704 0.30298,-2.10594 2.42382,-9.21336 3.02978,-11.846 0.60596,-2.63243 1.51493,-3.94866 0,-5.7912 -1.51492,-1.84272 -0.60596,-1.05297 -2.42382,-2.10593 -1.81788,-1.05297 -3.0298,0 -3.0298,-1.05297 z"
       id="path4191" />
    <path
       inkscape:connector-curvature="0"
       style="fill:#803300;stroke-width:0.47773382"
       d="m 229.0064,475.90885 c 0.90896,3.42217 2.12088,48.17311 2.42383,51.33032 0.30298,3.1589 1.81787,16.58449 1.21191,20.53302 -0.60595,3.94865 -0.90896,4.73849 -1.51492,6.05436 -0.60595,1.31624 -0.90896,-5.00166 -0.90896,-5.00166 0,0 -3.93875,-46.06681 -3.33279,-47.91038 0.60596,-1.84271 -1.21192,-17.90037 -0.30297,-20.00667 0.90895,-2.10593 2.12087,-5.52801 2.42382,-5.00166 z"
       id="path4193" />
    <path
       inkscape:connector-curvature="0"
       style="fill:#000000;fill-opacity:0.43819999;stroke-width:0.47773382"
       d="m 233.24857,568.04692 c 1.51491,3.15891 2.12087,5.26485 5.15086,5.52803 3.02979,0.26323 27.87414,1.57945 33.93372,1.57945 6.05956,0 35.75162,0 39.99327,-2.63242 4.2417,-2.63242 5.75668,-1.57946 7.2717,-6.31799 1.51491,-4.73849 2.42383,-10.52969 1.21191,-12.37236 -1.21191,-1.84272 3.02979,4.47532 3.02979,8.16066 0,3.68539 -2.12088,6.05437 -4.84766,9.74016 -2.72683,3.68539 -6.66537,5.52802 -12.42204,5.52802 -5.75668,0 -12.42206,0.7897 -16.66371,0.26324 -4.2417,-0.52649 -7.27169,-1.05297 -13.02835,0.26324 -5.75668,1.31621 -27.26835,-0.26324 -33.02502,-1.05297 -5.75666,-0.78973 -10.30122,0.78975 -11.81624,-2.63242 -1.51492,-3.42217 -1.21191,-7.63387 0,-10.26651 1.21192,-2.63242 3.02978,-6.84434 3.02978,-6.84434 l -1.81786,11.05604 z"
       id="path4195" />
    <path
       inkscape:connector-curvature="0"
       style="fill:#ffffff;fill-opacity:0.71535998;stroke-width:0.47773382"
       d="m 233.24857,474.5952 c 0.90895,3.42217 4.84765,15.00501 4.54469,18.95352 -0.30297,3.94866 -0.60596,16.32088 -1.2119,22.11252 -0.60596,5.79119 -2.42384,14.21503 -1.51493,21.84933 0.90897,7.63387 2.12087,10.26652 0.60596,13.16233 -1.51492,2.89569 -3.63574,7.10752 -3.63574,7.10752 0,0 8.4833,-9.74016 9.08962,-12.10918 0.60595,-2.36921 -2.12089,-13.68868 -1.51493,-19.47987 0.60596,-5.7912 1.51493,-18.95353 2.72683,-25.27151 1.21192,-6.31799 1.81788,-11.84601 0.30299,-17.6372 -1.51489,-5.79119 -9.08962,-9.47654 -9.39252,-8.68702 z"
       id="path4197" />
    <path
       inkscape:connector-curvature="0"
       d="m 331.59784,477.46297 c 0,-1.57946 1.32673,12.13412 1.02377,12.13412 -0.0189,-0.41146 23.41057,0.37 27.0459,1.68623 3.63575,1.31623 3.33274,10.063 3.63575,14.8015 0.30298,4.73849 -0.30431,16.85925 -0.30431,20.80776 0,3.94866 -8.69447,21.24952 -11.42109,24.1449 -2.72684,2.89568 -6.63872,5.58679 -9.36535,8.21944 -2.72684,2.63242 -12.59272,2.19517 -15.01645,1.66869 -2.42383,-0.52649 2.3022,12.40263 5.63521,11.61311 3.33279,-0.78971 17.28179,-5.86779 20.91713,-8.23681 3.63574,-2.3692 11.52769,-14.58018 13.34561,-19.58184 1.81788,-5.00168 6.45473,-16.42998 6.75763,-21.16847 0.30299,-4.7385 0.39371,-23.15943 -0.81819,-27.10795 -1.21192,-3.94866 -6.54801,-12.54647 -10.18385,-14.12552 -3.63574,-1.57945 -29.39275,-2.97794 -29.39275,-2.97794 0,0 -1.85959,-0.95549 -1.85959,-1.87687 z"
       style="fill:#afafaf;fill-opacity:1;stroke-width:0.47773382"
       sodipodi:nodetypes="ccsssssccssssscc"
       id="path4223" />
    <path
       inkscape:connector-curvature="0"
       style="fill:#000000;stroke:#000000;stroke-width:0.47773382px"
       d="m 331.26471,477.62327 c 0,0 1.0604,2.30339 1.28766,3.42218 0.22723,1.11878 0.68171,4.80439 0.53021,5.9889 -0.15148,1.18461 0.30298,2.3692 -0.22724,2.43502 -0.5302,0.0658 -0.60596,-0.98715 -0.60596,-1.7769 0,-0.78975 -0.15148,-4.08029 -0.45446,-5.19894 -0.30298,-1.11878 -0.37872,-1.90849 -0.60595,-2.69823 -0.22723,-0.78971 0.30297,-2.30339 0.0757,-2.17176 z"
       id="path4225" />
  </g>
  <metadata
     id="metadata26">
    <rdf:RDF>
      <cc:Work>
        <dc:format>image/svg+xml</dc:format>
        <dc:type
           rdf:resource="http://purl.org/dc/dcmitype/StillImage" />
        <cc:license
           rdf:resource="http://creativecommons.org/publicdomain/zero/1.0/" />
        <dc:publisher>
          <cc:Agent
             rdf:about="http://openclipart.org/">
            <dc:title>Openclipart</dc:title>
          </cc:Agent>
        </dc:publisher>
        <dc:title></dc:title>
        <dc:date>2010-07-17T14:58:12</dc:date>
        <dc:description>Beer,Drink,cool,drunk,water,bujung,thirsty</dc:description>
        <dc:source>https://openclipart.org/detail/73591/beer-by-aungkarns</dc:source>
        <dc:creator>
          <cc:Agent>
            <dc:title>aungkarns</dc:title>
          </cc:Agent>
        </dc:creator>
        <dc:subject>
          <rdf:Bag>
            <rdf:li>Beer</rdf:li>
            <rdf:li>Drink</rdf:li>
            <rdf:li>bujung</rdf:li>
            <rdf:li>cool</rdf:li>
            <rdf:li>drunk</rdf:li>
            <rdf:li>thirsty</rdf:li>
            <rdf:li>water</rdf:li>
          </rdf:Bag>
        </dc:subject>
      </cc:Work>
      <cc:License
         rdf:about="http://creativecommons.org/publicdomain/zero/1.0/">
        <cc:permits
           rdf:resource="http://creativecommons.org/ns#Reproduction" />
        <cc:permits
           rdf:resource="http://creativecommons.org/ns#Distribution" />
        <cc:permits
           rdf:resource="http://creativecommons.org/ns#DerivativeWorks" />
      </cc:License>
    </rdf:RDF>
  </metadata>
</svg>
