<?xml version="1.0" encoding="UTF-8" standalone="no"?>
<svg
   xmlns:dc="http://purl.org/dc/elements/1.1/"
   xmlns:cc="http://creativecommons.org/ns#"
   xmlns:rdf="http://www.w3.org/1999/02/22-rdf-syntax-ns#"
   xmlns:svg="http://www.w3.org/2000/svg"
   xmlns="http://www.w3.org/2000/svg"
   xmlns:sodipodi="http://sodipodi.sourceforge.net/DTD/sodipodi-0.dtd"
   xmlns:inkscape="http://www.inkscape.org/namespaces/inkscape"
   height="16"
   width="16"
   version="1.1"
   viewBox="0 0 16 16"
   id="svg12"
   sodipodi:docname="Eye14.svg"
   inkscape:version="0.92.3 (2405546, 2018-03-11)">
  <metadata
     id="metadata18">
    <rdf:RDF>
      <cc:Work
         rdf:about="">
        <dc:format>image/svg+xml</dc:format>
        <dc:type
           rdf:resource="http://purl.org/dc/dcmitype/StillImage" />
        <dc:title></dc:title>
      </cc:Work>
    </rdf:RDF>
  </metadata>
  <defs
     id="defs16" />
  <sodipodi:namedview
     pagecolor="#ffffff"
     bordercolor="#666666"
     borderopacity="1"
     objecttolerance="10"
     gridtolerance="10"
     guidetolerance="10"
     inkscape:pageopacity="0"
     inkscape:pageshadow="2"
     inkscape:window-width="1680"
     inkscape:window-height="987"
     id="namedview14"
     showgrid="true"
     inkscape:zoom="34.052204"
     inkscape:cx="9.1709903"
     inkscape:cy="5.6895339"
     inkscape:window-x="-8"
     inkscape:window-y="-8"
     inkscape:window-maximized="1"
     inkscape:current-layer="svg12"
     units="px">
    <inkscape:grid
       type="xygrid"
       id="grid817" />
  </sodipodi:namedview>
  <path
     style="fill:#ffffff;stroke-width:0.79999989"
     inkscape:connector-curvature="0"
     id="path2"
     d="M 9.0037214,5.8817914 C 7.7115605,5.8838912 6.4590216,6.394564 5.3908384,7.1339942 4.8157704,7.5233482 4.3294052,8.0313121 3.84138,8.5295537 3.4413175,8.9222465 2.9485521,9.1871214 2.4399262,9.3876989 c -0.1122934,0.039582 -0.003,0.1474304 0.043301,0.1965249 0.3457808,0.3863092 0.7292528,0.7380552 1.1699866,1.0004942 1.3463221,0.849819 2.8767198,1.420117 4.4528287,1.506001 0.8344259,0.0315 1.6807529,-0.03255 2.4779275,-0.309108 1.077624,-0.363159 2.066785,-1.002857 2.885561,-1.8202754 0.081,-0.093548 0.212566,0.026353 0.31724,0.035908 0.0691,0.0042 0.185165,0.095648 0.233857,0.016589 C 13.931128,9.4829691 13.729749,8.9757926 13.496941,8.4969326 13.057508,7.6242039 12.396487,6.8242245 11.506179,6.4505984 10.847409,6.1571761 10.148827,5.9238514 9.4297144,5.887566 9.2877194,5.882316 9.1455654,5.881266 9.0034804,5.882316 Z m 0.162575,0.4039059 c 0.9494096,-0.011759 1.8741886,0.3169092 2.6921236,0.8106676 0.0651,0.090083 0.0549,0.2407477 0.0802,0.3581712 0.125074,1.056623 -0.250428,2.1522296 -0.980921,2.8930039 -0.588008,0.609848 -1.3808226,1.031887 -2.2146285,1.036422 -0.544037,0.04252 -1.088384,-0.06384 -1.5871899,-0.297905 C 6.2527926,10.67372 5.5393701,9.8286672 5.2770519,8.8280892 5.1977489,8.5046075 5.1167368,8.1696397 5.1467978,7.8338843 5.2696316,7.6365195 5.4888485,7.5310231 5.6633239,7.3903963 6.1091276,7.1022865 6.5802526,6.8558902 7.0591176,6.6344822 7.7432785,6.4378314 8.4529515,6.2861383 9.1661634,6.2856238 Z" />
  <path
     style="fill:#999999;stroke-width:0.99999994"
     inkscape:connector-curvature="0"
     id="path4"
     d="m 12.866602,5.0357098 0.234757,0.1642607 C 13.794571,5.7294684 14.42323,6.3673394 14.863024,7.1458059 15.38082,8.0419373 15.754512,9.0295907 16,10.043377 l -0.017,0.02677 c -0.34193,-0.04851 -0.687581,0.04851 -1.001671,0.18381 -1.181767,0.472172 -2.171608,1.324417 -3.285203,1.934055 -0.698912,0.434155 -1.501237,0.634218 -2.2964516,0.757909 -1.1135949,0.102893 -2.2482298,0.0715 -3.3388538,-0.203843 C 4.961606,12.465216 3.8999129,12.027629 2.8997616,11.474812 2.5042292,11.216163 2.112677,10.949052 1.7107344,10.702551 l -0.096103,-0.0674 C 1.0461526,10.133849 0.49517547,9.6036789 0,9.0251181 L 0.009,9.011469 C 0.25575768,9.0005498 0.49495517,8.8849216 0.69485136,8.7363153 1.7123932,7.9784484 2.475087,6.9188857 3.4582277,6.1176359 3.9357227,5.7000075 4.4864298,5.3911302 5.0114463,5.0476894 6.4241703,4.3570597 7.9864592,3.8679839 9.5596281,4.0317721 10.716044,4.1004372 11.86432,4.415656 12.867092,5.0354263 M 11.892971,6.6676388 C 11.083486,6.2452647 10.207548,5.9272741 9.2963301,5.900669 7.3630202,5.832004 5.514212,6.8063338 4.1753101,8.2231438 3.7039554,8.7817876 3.0535451,9.2222204 2.3873543,9.4199631 3.0164239,10.284208 3.9690337,10.771552 4.8775521,11.24133 c 1.1983872,0.525025 2.4905481,0.883396 3.7989491,0.825493 1.8133858,0.02331 3.5432998,-0.871921 4.8315408,-2.1720736 0.164665,1.89e-4 0.343701,0.1473466 0.503846,0.1244476 -0.29423,-1.319188 -0.981391,-2.6343233 -2.118837,-3.3511697 z" />
  <path
     style="fill:#8a8aff;fill-opacity:1;stroke-width:0.99999994"
     inkscape:connector-curvature="0"
     id="path6"
     d="m 9.6874824,6.2836605 c -0.0272,0.036222 0.0245,0.058901 0.0515,0.0631 0.149145,0.1097801 0.2713276,0.2586384 0.3749316,0.4148461 0.224497,0.3445012 0.33294,0.7681877 0.300929,1.1834118 -0.0202,0.826091 -0.6101586,1.5879267 -1.3677016,1.7952448 C 8.4108415,9.9478651 7.6743585,9.7585322 7.2011435,9.2638604 6.5595536,8.63063 6.4585906,7.4965751 6.9662856,6.7434853 c 0.036,-0.055646 0.0787,-0.1054019 0.117504,-0.158948 -0.589378,0.2771065 -1.1883771,0.5546121 -1.7026731,0.9718415 -0.1102134,0.084309 -0.255958,0.1647856 -0.2837389,0.3186836 -0.006,0.078009 0.015201,0.1547483 0.014801,0.2330937 0.076902,0.958476 0.5106959,1.8987039 1.235679,2.4990199 0.394732,0.343157 0.8635969,0.589784 1.3612719,0.717612 0.881228,0.230543 1.8600179,0.10767 2.6299425,-0.412578 0.266048,-0.186834 0.526866,-0.386844 0.743403,-0.636422 0.685121,-0.7712955 1.042122,-1.8749445 0.876497,-2.9229685 -0.0159,-0.089874 -0.0299,-0.1837053 -0.0575,-0.2686967 C 11.2208,6.6776131 10.476227,6.3558113 9.6904124,6.2790618 l -0.003,0.0042 z" />
  <path
     style="fill:#666666;stroke-width:0.99999994"
     inkscape:connector-curvature="0"
     id="path8"
     d="m 9.1109544,6.2483095 c -0.6981019,0.010499 -1.3861429,0.1678829 -2.0585038,0.3496983 -0.562428,0.6804665 -0.560988,1.7724194 -0.0383,2.4767402 0.2626479,0.3501183 0.6364599,0.6088406 1.0510229,0.7101688 0.354551,0.091658 0.732943,0.070555 1.0773429,-0.056066 0.740994,-0.2459868 1.2948806,-1.0217235 1.2915906,-1.8408955 0.034,-0.5914119 -0.230258,-1.1893018 -0.6747306,-1.5520507 -0.0183,-0.013859 -0.0837,-0.014069 -0.0523,-0.049871 -0.021,-0.014279 -0.0771,-0.011339 -0.112304,-0.017744 -0.160745,-0.015959 -0.3223,-0.021943 -0.483735,-0.019949 z" />
</svg>
