<?xml version="1.0" encoding="UTF-8" standalone="no"?>
<svg
   xmlns:dc="http://purl.org/dc/elements/1.1/"
   xmlns:cc="http://creativecommons.org/ns#"
   xmlns:rdf="http://www.w3.org/1999/02/22-rdf-syntax-ns#"
   xmlns:svg="http://www.w3.org/2000/svg"
   xmlns="http://www.w3.org/2000/svg"
   xmlns:xlink="http://www.w3.org/1999/xlink"
   xmlns:sodipodi="http://sodipodi.sourceforge.net/DTD/sodipodi-0.dtd"
   xmlns:inkscape="http://www.inkscape.org/namespaces/inkscape"
   height="24"
   width="24"
   version="1.1"
   viewBox="0 0 24 24"
   id="svg12"
   sodipodi:docname="visibility.svg"
   inkscape:version="0.92.3 (2405546, 2018-03-11)">
  <metadata
     id="metadata18">
    <rdf:RDF>
      <cc:Work
         rdf:about="">
        <dc:format>image/svg+xml</dc:format>
        <dc:type
           rdf:resource="http://purl.org/dc/dcmitype/StillImage" />
        <dc:title></dc:title>
      </cc:Work>
    </rdf:RDF>
  </metadata>
  <defs
     id="defs16">
    <linearGradient
       inkscape:collect="always"
       id="linearGradient827">
      <stop
         style="stop-color:#000000;stop-opacity:1;"
         offset="0"
         id="stop823" />
      <stop
         style="stop-color:#000000;stop-opacity:0;"
         offset="1"
         id="stop825" />
    </linearGradient>
    <linearGradient
       inkscape:collect="always"
       xlink:href="#linearGradient827"
       id="linearGradient829"
       x1="23"
       y1="20"
       x2="1"
       y2="20"
       gradientUnits="userSpaceOnUse" />
  </defs>
  <sodipodi:namedview
     pagecolor="#ffffff"
     bordercolor="#666666"
     borderopacity="1"
     objecttolerance="10"
     gridtolerance="10"
     guidetolerance="10"
     inkscape:pageopacity="0"
     inkscape:pageshadow="2"
     inkscape:window-width="1680"
     inkscape:window-height="987"
     id="namedview14"
     showgrid="true"
     inkscape:zoom="9.7231232"
     inkscape:cx="4.2638205"
     inkscape:cy="24.783188"
     inkscape:window-x="-8"
     inkscape:window-y="-8"
     inkscape:window-maximized="1"
     inkscape:current-layer="svg12"
     units="px">
    <inkscape:grid
       type="xygrid"
       id="grid817" />
  </sodipodi:namedview>
  <path
     style="fill:#ffffff;stroke-width:0.79999989"
     inkscape:connector-curvature="0"
     id="path2"
     d="M 13.505582,4.8226881 C 11.567341,4.8258381 9.6885324,5.591847 8.0862576,6.700992 7.2236556,7.285023 6.4941078,8.046969 5.76207,8.794332 5.1619762,9.383371 4.4228281,9.780683 3.6598893,10.081549 c -0.1684401,0.05937 -0.0045,0.221146 0.064951,0.294788 0.5186712,0.579464 1.0938792,1.107082 1.7549799,1.500741 2.0194831,1.274729 4.3150797,2.130176 6.6792438,2.259002 1.251638,0.04725 2.521129,-0.04883 3.716891,-0.463663 1.616435,-0.544738 3.100176,-1.504285 4.32834,-2.730413 0.121501,-0.140322 0.318851,0.03953 0.475861,0.05386 0.103649,0.0063 0.277747,0.143472 0.350785,0.02488 -0.13425,-0.796295 -0.436319,-1.55706 -0.78553,-2.27535 C 19.586262,7.436307 18.59473,6.236338 17.259268,5.6758986 16.271114,5.2357651 15.223241,4.8857781 14.144572,4.83135 13.931579,4.823475 13.718348,4.8219 13.505221,4.823475 Z m 0.243863,0.6058589 c 1.424114,-0.017639 2.811282,0.4753638 4.038185,1.216001 0.09765,0.135125 0.08235,0.361122 0.1203,0.537257 0.187611,1.584935 -0.375642,3.228345 -1.471382,4.339506 -0.882012,0.914772 -2.071233,1.54783 -3.321942,1.554633 -0.816056,0.06378 -1.632576,-0.09576 -2.380785,-0.446857 C 9.3791889,12.010581 8.3090552,10.743002 7.9155778,9.242135 7.7966233,8.756912 7.6751052,8.25446 7.7201967,7.750828 7.9044474,7.45478 8.2332727,7.296536 8.4949858,7.085595 9.1636914,6.653431 9.8703789,6.283836 10.588676,5.9517243 11.614918,5.6567481 12.679427,5.4292084 13.749245,5.4284367 Z" />
  <path
     style="fill:#4d4d4d;stroke-width:0.99999994"
     inkscape:connector-curvature="0"
     id="path4"
     d="m 19.299903,3.5535657 0.352135,0.246391 C 20.691856,4.5942036 21.634845,5.5510101 22.294536,6.71871 23.07123,8.062907 23.631768,9.544387 24,11.065066 l -0.0255,0.04016 c -0.512895,-0.07277 -1.031372,0.07277 -1.502507,0.275715 -1.77265,0.708257 -3.257411,1.986625 -4.927804,2.901082 -1.048368,0.651233 -2.251855,0.951327 -3.444677,1.136864 -1.670393,0.154339 -3.372345,0.10725 -5.0082811,-0.305765 C 7.442409,14.697825 5.8498693,14.041445 4.3496424,13.212219 3.7563438,12.824245 3.1690155,12.423579 2.5661016,12.053827 L 2.4219471,11.952728 C 1.5692289,11.200775 0.74276321,10.405519 0,9.537678 L 0.0135,9.517208 C 0.38363652,9.500826 0.74243275,9.327383 1.042277,9.104474 2.5685898,7.967674 3.7126305,6.37833 5.1873415,5.1764548 5.903584,4.5500123 6.7296447,4.0866963 7.5171695,3.5715351 9.6362555,2.5355905 11.979689,1.8019768 14.339442,2.0476592 16.074066,2.1506568 17.79648,2.623485 19.300638,3.5531404 M 17.839456,6.001459 C 16.625229,5.367898 15.311322,4.8909122 13.944495,4.8510045 11.04453,4.748007 8.271318,6.209502 6.2629651,8.334717 5.5559331,9.172682 4.5803176,9.833332 3.5810315,10.129946 c 0.9436043,1.296367 2.372519,2.027383 3.7352967,2.73205 1.7975807,0.787537 3.7358218,1.325094 5.6984238,1.238239 2.720079,0.03496 5.314949,-1.307881 7.247311,-3.25811 0.246997,2.84e-4 0.515551,0.22102 0.755769,0.186672 C 20.576487,9.050015 19.545745,7.077312 17.839576,6.002042 Z" />
  <path
     style="fill:#4a4aff;fill-opacity:1;stroke-width:0.99999994"
     inkscape:connector-curvature="0"
     id="path6"
     d="m 14.531224,5.4254917 c -0.0408,0.054333 0.03675,0.088351 0.07725,0.09465 0.223717,0.1646702 0.406991,0.3879576 0.562397,0.6222693 0.336746,0.516752 0.49941,1.152281 0.451394,1.775118 -0.0303,1.239136 -0.915238,2.38189 -2.051553,2.692867 -0.95445,0.311403 -2.059174,0.0274 -2.768997,-0.714604 C 9.8393304,8.945946 9.6878859,7.244864 10.449428,6.115229 c 0.054,-0.08347 0.11805,-0.1581029 0.176256,-0.2384221 C 9.7416174,6.292467 8.8431188,6.708725 8.0716748,7.334569 7.9063546,7.461033 7.6877377,7.581748 7.6460664,7.812595 c -0.009,0.117013 0.022802,0.232122 0.022202,0.34964 0.115353,1.437714 0.7660438,2.848056 1.8535185,3.74853 0.5920981,0.514735 1.2953961,0.884676 2.0419081,1.076418 1.321842,0.345814 2.790027,0.161505 3.944914,-0.618867 0.399072,-0.280251 0.790299,-0.580266 1.115103,-0.954633 C 17.651394,10.25674 18.186896,8.601266 17.938458,7.02923 17.914608,6.894419 17.893608,6.753672 17.852208,6.626185 16.8312,6.016421 15.71434,5.533718 14.535619,5.4185937 l -0.0045,0.0063 z" />
  <path
     style="fill:#1a1812;stroke-width:0.99999994"
     inkscape:connector-curvature="0"
     id="path8"
     d="M 13.666432,5.3724653 C 12.619279,5.3882133 11.587217,5.6242896 10.578676,5.8970127 9.7350339,6.917712 9.7371939,8.555642 10.521226,9.612123 c 0.393972,0.525178 0.95469,0.913261 1.576534,1.065253 0.531827,0.137487 1.099415,0.105833 1.616015,-0.0841 1.111491,-0.36898 1.942321,-1.532585 1.937386,-2.761343 0.051,-0.887118 -0.345387,-1.783953 -1.012096,-2.3280761 -0.02745,-0.020788 -0.12555,-0.021103 -0.07845,-0.074807 -0.0315,-0.021419 -0.11565,-0.017008 -0.168456,-0.026616 -0.241118,-0.023938 -0.48345,-0.032914 -0.725603,-0.029923 z" />
  <rect
     style="opacity:1;fill:url(#linearGradient829);fill-opacity:1;fill-rule:nonzero;stroke:none;stroke-width:1.29999995;stroke-linecap:round;stroke-linejoin:round;stroke-miterlimit:4;stroke-dasharray:none;stroke-dashoffset:0.83990926;stroke-opacity:1;paint-order:normal"
     id="rect821"
     width="22"
     height="4"
     x="1"
     y="18" />
</svg>
