<?xml version="1.0" encoding="UTF-8" standalone="no"?>
<!-- Created with Inkscape (http://www.inkscape.org/) -->

<svg
   xmlns:dc="http://purl.org/dc/elements/1.1/"
   xmlns:cc="http://creativecommons.org/ns#"
   xmlns:rdf="http://www.w3.org/1999/02/22-rdf-syntax-ns#"
   xmlns:svg="http://www.w3.org/2000/svg"
   xmlns="http://www.w3.org/2000/svg"
   xmlns:sodipodi="http://sodipodi.sourceforge.net/DTD/sodipodi-0.dtd"
   xmlns:inkscape="http://www.inkscape.org/namespaces/inkscape"
   id="svg4388"
   sodipodi:docname="25.svg"
   viewBox="0 0 160 160"
   version="1.1"
   inkscape:version="0.92.2 (5c3e80d, 2017-08-06)"
   width="160"
   height="160">
  <defs
     id="defs49" />
  <title
     id="title5714">Wheat</title>
  <sodipodi:namedview
     id="base"
     bordercolor="#666666"
     inkscape:pageshadow="2"
     inkscape:window-y="-8"
     fit-margin-left="2"
     pagecolor="#ffffff"
     inkscape:window-height="987"
     inkscape:window-maximized="1"
     inkscape:zoom="2.8"
     inkscape:window-x="-8"
     showgrid="false"
     borderopacity="1.0"
     inkscape:current-layer="layer1"
     inkscape:cx="53.658215"
     inkscape:cy="70.832934"
     fit-margin-top="2"
     fit-margin-right="2"
     fit-margin-bottom="2"
     inkscape:window-width="1680"
     inkscape:pageopacity="0.0"
     inkscape:document-units="px" />
  <g
     id="layer1"
     inkscape:label="Layer 1"
     inkscape:groupmode="layer"
     transform="translate(-83.340282,-625.40202)">
    <path
       inkscape:connector-curvature="0"
       style="fill:#be9c20;fill-opacity:1;stroke:#000000;stroke-width:1.1727047;stroke-miterlimit:4;stroke-dasharray:none;stroke-opacity:1"
       sodipodi:nodetypes="cscscc"
       d="m 212.91146,645.13664 c 0,0 4.50044,0.1411 6.51861,-0.52273 7.07012,-2.32547 17.63924,-12.93844 17.63924,-12.93844 0,0 -11.12663,11.18073 -13.69422,17.43001 -0.77563,1.88777 -0.86617,6.21898 -0.86617,6.21898 z"
       id="path5248-6" />
    <path
       inkscape:connector-curvature="0"
       style="fill:#be9c20;fill-opacity:1;stroke:#000000;stroke-width:1.1727047;stroke-miterlimit:4;stroke-dasharray:none;stroke-opacity:1"
       sodipodi:nodetypes="cscscc"
       d="m 192.26014,654.62034 c 0,0 -2.17453,-4.20403 -2.54317,-6.42159 -1.29154,-7.76858 2.73048,-22.64349 2.73048,-22.64349 0,0 -4.2408,15.66316 -8.27992,20.95453 -1.22015,1.59842 -4.79148,3.66378 -4.79148,3.66378 z"
       id="path5248-5-6-7" />
    <path
       inkscape:connector-curvature="0"
       style="fill:#be9c20;fill-opacity:1;stroke:#000000;stroke-width:1.1727047;stroke-miterlimit:4;stroke-dasharray:none;stroke-opacity:1"
       sodipodi:nodetypes="cscscc"
       d="m 158.47877,739.46578 c 0,0 3.82036,2.87246 5.98083,3.64031 7.56858,2.69006 23.27287,1.60514 23.27287,1.60514 0,0 -16.53755,1.14781 -22.61083,4.038 -1.83463,0.87306 -4.57753,3.91629 -4.57753,3.91629 z"
       id="path5248" />
    <path
       inkscape:connector-curvature="0"
       style="fill:#be9c20;fill-opacity:1;stroke:#000000;stroke-width:1.1727047;stroke-miterlimit:4;stroke-dasharray:none;stroke-opacity:1"
       sodipodi:nodetypes="cscscc"
       d="m 129.33934,710.31015 c 0,0 -2.87085,-3.82247 -3.63828,-5.98416 -2.68857,-7.57278 -1.60427,-23.28581 -1.60427,-23.28581 0,0 -1.14716,16.54676 -4.03573,22.62341 -0.8726,1.83565 -3.91413,4.58008 -3.91413,4.58008 z"
       id="path5248-1" />
    <path
       inkscape:connector-curvature="0"
       style="fill:#be9c20;fill-opacity:1;stroke:#000000;stroke-width:1.1727047;stroke-miterlimit:4;stroke-dasharray:none;stroke-opacity:1"
       sodipodi:nodetypes="cscscc"
       d="m 138.93229,759.02281 c 0,0 3.82038,2.87243 5.98084,3.64029 7.56858,2.69005 23.27286,1.60515 23.27286,1.60515 0,0 -16.53754,1.14782 -22.61084,4.03799 -1.83463,0.87307 -4.57752,3.91631 -4.57752,3.91631 z"
       id="path5248-7" />
    <path
       inkscape:connector-curvature="0"
       style="fill:#be9c20;fill-opacity:1;stroke:#000000;stroke-width:1.1727047;stroke-miterlimit:4;stroke-dasharray:none;stroke-opacity:1"
       sodipodi:nodetypes="cscscc"
       d="m 109.79425,729.86857 c 0,0 -2.87084,-3.82249 -3.63827,-5.98415 -2.68858,-7.5728 -1.60426,-23.28583 -1.60426,-23.28583 0,0 -1.14719,16.54676 -4.03578,22.62342 -0.872569,1.83565 -3.914116,4.58008 -3.914116,4.58008 z"
       id="path5248-1-1" />
    <path
       inkscape:connector-curvature="0"
       style="fill:#be9c20;fill-opacity:1;stroke:#000000;stroke-width:1.1727047;stroke-miterlimit:4;stroke-dasharray:none;stroke-opacity:1"
       sodipodi:nodetypes="cscscc"
       d="m 178.02433,719.90903 c 0,0 3.82036,2.87246 5.98083,3.64031 7.5686,2.69006 23.27287,1.60516 23.27287,1.60516 0,0 -16.53755,1.14781 -22.61083,4.03798 -1.83463,0.87308 -4.57753,3.91631 -4.57753,3.91631 z"
       id="path5248-4" />
    <path
       inkscape:connector-curvature="0"
       style="fill:#be9c20;fill-opacity:1;stroke:#000000;stroke-width:1.1727047;stroke-miterlimit:4;stroke-dasharray:none;stroke-opacity:1"
       sodipodi:nodetypes="cscscc"
       d="m 148.88627,690.75482 c 0,0 -2.87084,-3.8225 -3.63825,-5.98417 -2.68856,-7.57279 -1.60428,-23.2858 -1.60428,-23.2858 0,0 -1.14718,16.54674 -4.03575,22.6234 -0.87258,1.83566 -3.91412,4.58007 -3.91412,4.58007 z"
       id="path5248-1-3" />
    <path
       inkscape:connector-curvature="0"
       style="fill:#be9c20;fill-opacity:1;stroke:#000000;stroke-width:1.1727047;stroke-miterlimit:4;stroke-dasharray:none;stroke-opacity:1"
       sodipodi:nodetypes="cscscc"
       d="m 197.57043,700.35225 c 0,0 3.82036,2.87246 5.98084,3.64031 7.56858,2.69007 23.27287,1.60517 23.27287,1.60517 0,0 -16.53756,1.14781 -22.61085,4.038 -1.83463,0.87306 -4.57752,3.91628 -4.57752,3.91628 z"
       id="path5248-5" />
    <path
       inkscape:connector-curvature="0"
       style="fill:#be9c20;fill-opacity:1;stroke:#000000;stroke-width:1.1727047;stroke-miterlimit:4;stroke-dasharray:none;stroke-opacity:1"
       sodipodi:nodetypes="cscscc"
       d="m 168.43263,671.19827 c 0,0 -2.87085,-3.82249 -3.63827,-5.98417 -2.68858,-7.57276 -1.60429,-23.2858 -1.60429,-23.2858 0,0 -1.14716,16.54676 -4.03574,22.62342 -0.87259,1.83565 -3.91414,4.58005 -3.91414,4.58005 z"
       id="path5248-1-6" />
    <path
       inkscape:connector-curvature="0"
       style="fill:#be9c20;fill-opacity:1;stroke:#000000;stroke-width:1.1727047;stroke-miterlimit:4;stroke-dasharray:none;stroke-opacity:1"
       sodipodi:nodetypes="cscscc"
       d="m 214.13797,676.51033 c 0,0 4.20169,2.17573 6.41802,2.54458 7.76429,1.29227 22.63091,-2.732 22.63091,-2.732 0,0 -15.65445,4.24317 -20.94288,8.28454 -1.59755,1.2208 -3.66176,4.79413 -3.66176,4.79413 z"
       id="path5248-5-6" />
    <path
       id="path5138"
       sodipodi:nodetypes="cc"
       style="fill:#be9c20;fill-opacity:1;stroke:#be9c20;stroke-width:7.22621679;stroke-linecap:round;stroke-miterlimit:4;stroke-dasharray:none;stroke-opacity:1"
       inkscape:connector-curvature="0"
       d="M 206.98899,661.8575 86.989901,781.75243" />
    <ellipse
       ry="10.790477"
       rx="19.058048"
       cy="601.14008"
       cx="-337.67847"
       transform="matrix(0.6783886,-0.73470328,0.72837859,0.68517489,0,0)"
       style="fill:#be9c20;fill-opacity:1;stroke:#000000;stroke-width:1.17272985;stroke-miterlimit:4;stroke-dasharray:none;stroke-opacity:1"
       id="path5246-9" />
    <ellipse
       ry="10.382498"
       rx="19.943933"
       cy="763.86871"
       cx="-21.770065"
       transform="matrix(0.99466876,-0.10312155,0.21916819,0.97568709,0,0)"
       style="fill:#be9c20;fill-opacity:1;stroke:#000000;stroke-width:1.17677975;stroke-miterlimit:4;stroke-dasharray:none;stroke-opacity:1"
       id="path5246" />
    <ellipse
       ry="10.377286"
       rx="19.954781"
       cy="-196.46759"
       cx="-683.56543"
       transform="matrix(0.10300826,-0.9946805,-0.97563497,-0.21940009,0,0)"
       style="fill:#be9c20;fill-opacity:1;stroke:#000000;stroke-width:1.17680418;stroke-miterlimit:4;stroke-dasharray:none;stroke-opacity:1"
       id="path5246-8" />
    <ellipse
       ry="10.382498"
       rx="19.943933"
       cy="781.42719"
       cx="-45.290211"
       transform="matrix(0.99466876,-0.10312155,0.21916819,0.97568709,0,0)"
       style="fill:#be9c20;fill-opacity:1;stroke:#000000;stroke-width:1.17677975;stroke-miterlimit:4;stroke-dasharray:none;stroke-opacity:1"
       id="path5246-4" />
    <ellipse
       ry="10.377286"
       rx="19.954781"
       cy="-178.9191"
       cx="-707.09918"
       transform="matrix(0.10300826,-0.9946805,-0.97563497,-0.21940009,0,0)"
       style="fill:#be9c20;fill-opacity:1;stroke:#000000;stroke-width:1.17680418;stroke-miterlimit:4;stroke-dasharray:none;stroke-opacity:1"
       id="path5246-8-7" />
    <ellipse
       ry="10.382498"
       rx="19.943933"
       cy="746.31036"
       cx="1.7490801"
       transform="matrix(0.99466876,-0.10312155,0.21916819,0.97568709,0,0)"
       style="fill:#be9c20;fill-opacity:1;stroke:#000000;stroke-width:1.17677975;stroke-miterlimit:4;stroke-dasharray:none;stroke-opacity:1"
       id="path5246-0" />
    <ellipse
       ry="10.377286"
       rx="19.954781"
       cy="-214.01826"
       cx="-660.03436"
       transform="matrix(0.10300826,-0.9946805,-0.97563497,-0.21940009,0,0)"
       style="fill:#be9c20;fill-opacity:1;stroke:#000000;stroke-width:1.17680418;stroke-miterlimit:4;stroke-dasharray:none;stroke-opacity:1"
       id="path5246-8-3" />
    <ellipse
       ry="10.382498"
       rx="19.943933"
       cy="728.75214"
       cx="25.268785"
       transform="matrix(0.99466876,-0.10312155,0.21916819,0.97568709,0,0)"
       style="fill:#be9c20;fill-opacity:1;stroke:#000000;stroke-width:1.17677975;stroke-miterlimit:4;stroke-dasharray:none;stroke-opacity:1"
       id="path5246-1" />
    <ellipse
       ry="10.377286"
       rx="19.954781"
       cy="-231.56821"
       cx="-636.50208"
       transform="matrix(0.10300826,-0.9946805,-0.97563497,-0.21940009,0,0)"
       style="fill:#be9c20;fill-opacity:1;stroke:#000000;stroke-width:1.17680418;stroke-miterlimit:4;stroke-dasharray:none;stroke-opacity:1"
       id="path5246-8-4" />
    <ellipse
       ry="10.579907"
       rx="19.52467"
       cy="719.68994"
       cx="-77.089272"
       transform="matrix(0.95527756,-0.29571066,0.38500414,0.92291484,0,0)"
       style="fill:#be9c20;fill-opacity:1;stroke:#000000;stroke-width:1.17535841;stroke-miterlimit:4;stroke-dasharray:none;stroke-opacity:1"
       id="path5246-1-1" />
    <ellipse
       ry="10.575773"
       rx="19.533619"
       cy="-371.90137"
       cx="-546.38837"
       transform="matrix(0.29541098,-0.95537027,-0.92276273,-0.38536858,0,0)"
       style="fill:#be9c20;fill-opacity:1;stroke:#000000;stroke-width:1.17539823;stroke-miterlimit:4;stroke-dasharray:none;stroke-opacity:1"
       id="path5246-1-1-4" />
  </g>
  <metadata
     id="metadata47">
    <rdf:RDF>
      <cc:Work>
        <dc:format>image/svg+xml</dc:format>
        <dc:type
           rdf:resource="http://purl.org/dc/dcmitype/StillImage" />
        <cc:license
           rdf:resource="http://creativecommons.org/publicdomain/zero/1.0/" />
        <dc:publisher>
          <cc:Agent
             rdf:about="http://openclipart.org/">
            <dc:title>Openclipart</dc:title>
          </cc:Agent>
        </dc:publisher>
        <dc:title>Wheat</dc:title>
        <dc:date>2011-06-11T04:11:17</dc:date>
        <dc:description>Black and white wheat icon</dc:description>
        <dc:source>https://openclipart.org/detail/144535/wheat-black-and-white-by-serioustux</dc:source>
        <dc:creator>
          <cc:Agent>
            <dc:title>SeriousTux</dc:title>
          </cc:Agent>
        </dc:creator>
        <dc:subject>
          <rdf:Bag>
            <rdf:li>b&amp;w</rdf:li>
            <rdf:li>black and white</rdf:li>
            <rdf:li>grain</rdf:li>
            <rdf:li>wheat</rdf:li>
          </rdf:Bag>
        </dc:subject>
      </cc:Work>
      <cc:License
         rdf:about="http://creativecommons.org/publicdomain/zero/1.0/">
        <cc:permits
           rdf:resource="http://creativecommons.org/ns#Reproduction" />
        <cc:permits
           rdf:resource="http://creativecommons.org/ns#Distribution" />
        <cc:permits
           rdf:resource="http://creativecommons.org/ns#DerivativeWorks" />
      </cc:License>
    </rdf:RDF>
  </metadata>
</svg>
