<?xml version="1.0" encoding="UTF-8" standalone="no"?>
<!-- Created with Inkscape (http://www.inkscape.org/) -->

<svg
   xmlns:dc="http://purl.org/dc/elements/1.1/"
   xmlns:cc="http://creativecommons.org/ns#"
   xmlns:rdf="http://www.w3.org/1999/02/22-rdf-syntax-ns#"
   xmlns:svg="http://www.w3.org/2000/svg"
   xmlns="http://www.w3.org/2000/svg"
   xmlns:sodipodi="http://sodipodi.sourceforge.net/DTD/sodipodi-0.dtd"
   xmlns:inkscape="http://www.inkscape.org/namespaces/inkscape"
   id="svg4388"
   sodipodi:docname="Wheat24.svg"
   viewBox="0 0 553.9831 553.68453"
   version="1.1"
   inkscape:version="0.91 r13725"
   width="553.98309"
   height="553.68451">
  <defs
     id="defs49" />
  <title
     id="title5714">Wheat</title>
  <sodipodi:namedview
     id="base"
     bordercolor="#666666"
     inkscape:pageshadow="2"
     inkscape:window-y="-8"
     fit-margin-left="2"
     pagecolor="#ffffff"
     inkscape:window-height="988"
     inkscape:window-maximized="1"
     inkscape:zoom="1.979899"
     inkscape:window-x="-8"
     showgrid="false"
     borderopacity="1.0"
     inkscape:current-layer="layer1"
     inkscape:cx="-151.02624"
     inkscape:cy="4.049648"
     fit-margin-top="2"
     fit-margin-right="2"
     fit-margin-bottom="2"
     inkscape:window-width="1680"
     inkscape:pageopacity="0.0"
     inkscape:document-units="px" />
  <g
     id="layer1"
     inkscape:label="Layer 1"
     inkscape:groupmode="layer"
     transform="translate(-83.340282,-231.71751)">
    <path
       inkscape:connector-curvature="0"
       style="fill:#be9c20;fill-opacity:1;stroke:#000000;stroke-width:4.04283762;stroke-miterlimit:4;stroke-dasharray:none;stroke-opacity:1"
       sodipodi:nodetypes="cscscc"
       d="m 530.39285,301.73308 c 0,0 15.51935,0.48631 22.47878,-1.80159 24.38065,-8.01471 60.82723,-44.59216 60.82723,-44.59216 0,0 -38.3691,38.53426 -47.22319,60.07227 -2.67468,6.50623 -2.98691,21.43367 -2.98691,21.43367 z"
       id="path5248-6" />
    <path
       inkscape:connector-curvature="0"
       style="fill:#be9c20;fill-opacity:1;stroke:#000000;stroke-width:4.04283762;stroke-miterlimit:4;stroke-dasharray:none;stroke-opacity:1"
       sodipodi:nodetypes="cscscc"
       d="m 459.17873,334.41859 c 0,0 -7.49863,-14.48918 -8.76986,-22.13198 -4.45377,-26.77438 9.41578,-78.04055 9.41578,-78.04055 0,0 -14.62399,53.98293 -28.55254,72.21956 -4.20754,5.50897 -16.52292,12.62718 -16.52292,12.62718 z"
       id="path5248-5-6-7" />
    <path
       inkscape:connector-curvature="0"
       style="fill:#be9c20;fill-opacity:1;stroke:#000000;stroke-width:4.04283762;stroke-miterlimit:4;stroke-dasharray:none;stroke-opacity:1"
       sodipodi:nodetypes="cscscc"
       d="m 342.68691,626.83748 c 0,0 13.17416,9.89982 20.62434,12.54623 26.09953,9.27128 80.25427,5.53217 80.25427,5.53217 0,0 -57.02818,3.95591 -77.97132,13.91691 -6.32655,3.00901 -15.78516,13.49748 -15.78516,13.49748 z"
       id="path5248" />
    <path
       inkscape:connector-curvature="0"
       style="fill:#be9c20;fill-opacity:1;stroke:#000000;stroke-width:4.04283762;stroke-miterlimit:4;stroke-dasharray:none;stroke-opacity:1"
       sodipodi:nodetypes="cscscc"
       d="m 242.20236,526.3529 c 0,0 -9.89983,-13.17413 -12.54624,-20.62432 -9.27129,-26.09955 -5.5322,-80.25428 -5.5322,-80.25428 0,0 -3.95588,57.02819 -13.91688,77.97131 -3.00901,6.32656 -13.49748,15.78518 -13.49748,15.78518 z"
       id="path5248-1" />
    <path
       inkscape:connector-curvature="0"
       style="fill:#be9c20;fill-opacity:1;stroke:#000000;stroke-width:4.04283762;stroke-miterlimit:4;stroke-dasharray:none;stroke-opacity:1"
       sodipodi:nodetypes="cscscc"
       d="m 275.28274,694.24053 c 0,0 13.17415,9.89982 20.62432,12.54624 26.09955,9.27128 80.25427,5.53218 80.25427,5.53218 0,0 -57.02817,3.95592 -77.97131,13.9169 -6.32656,3.00901 -15.78517,13.49748 -15.78517,13.49748 z"
       id="path5248-7" />
    <path
       inkscape:connector-curvature="0"
       style="fill:#be9c20;fill-opacity:1;stroke:#000000;stroke-width:4.04283762;stroke-miterlimit:4;stroke-dasharray:none;stroke-opacity:1"
       sodipodi:nodetypes="cscscc"
       d="m 174.80298,593.7608 c 0,0 -9.89984,-13.17419 -12.54623,-20.62434 -9.2713,-26.09958 -5.5322,-80.25429 -5.5322,-80.25429 0,0 -3.9559,57.02818 -13.9169,77.9713 -3.00901,6.32656 -13.49748,15.78518 -13.49748,15.78518 z"
       id="path5248-1-1" />
    <path
       inkscape:connector-curvature="0"
       style="fill:#be9c20;fill-opacity:1;stroke:#000000;stroke-width:4.04283762;stroke-miterlimit:4;stroke-dasharray:none;stroke-opacity:1"
       sodipodi:nodetypes="cscscc"
       d="m 410.08789,559.43535 c 0,0 13.17415,9.89986 20.62433,12.54625 26.09956,9.27129 80.25428,5.53218 80.25428,5.53218 0,0 -57.02819,3.95594 -77.9713,13.9169 -6.32656,3.00904 -15.78517,13.4975 -15.78517,13.4975 z"
       id="path5248-4" />
    <path
       inkscape:connector-curvature="0"
       style="fill:#be9c20;fill-opacity:1;stroke:#000000;stroke-width:4.04283762;stroke-miterlimit:4;stroke-dasharray:none;stroke-opacity:1"
       sodipodi:nodetypes="cscscc"
       d="m 309.60813,458.95561 c 0,0 -9.89984,-13.17415 -12.54622,-20.62432 -9.27128,-26.09956 -5.53219,-80.25429 -5.53219,-80.25429 0,0 -3.95591,57.02819 -13.91689,77.97134 -3.00904,6.32654 -13.49748,15.78516 -13.49748,15.78516 z"
       id="path5248-1-3" />
    <path
       inkscape:connector-curvature="0"
       style="fill:#be9c20;fill-opacity:1;stroke:#000000;stroke-width:4.04283762;stroke-miterlimit:4;stroke-dasharray:none;stroke-opacity:1"
       sodipodi:nodetypes="cscscc"
       d="m 477.49076,492.03313 c 0,0 13.17415,9.89985 20.62435,12.54624 26.09953,9.2713 80.25425,5.5322 80.25425,5.5322 0,0 -57.02819,3.95591 -77.97132,13.91691 -6.32654,3.00901 -15.78517,13.49745 -15.78517,13.49745 z"
       id="path5248-5" />
    <path
       inkscape:connector-curvature="0"
       style="fill:#be9c20;fill-opacity:1;stroke:#000000;stroke-width:4.04283762;stroke-miterlimit:4;stroke-dasharray:none;stroke-opacity:1"
       sodipodi:nodetypes="cscscc"
       d="m 377.01182,391.55419 c 0,0 -9.89985,-13.17415 -12.54624,-20.62434 -9.27128,-26.09953 -5.5322,-80.25426 -5.5322,-80.25426 0,0 -3.9559,57.0282 -13.9169,77.97133 -3.00902,6.32652 -13.49748,15.78517 -13.49748,15.78517 z"
       id="path5248-1-6" />
    <path
       inkscape:connector-curvature="0"
       style="fill:#be9c20;fill-opacity:1;stroke:#000000;stroke-width:4.04283762;stroke-miterlimit:4;stroke-dasharray:none;stroke-opacity:1"
       sodipodi:nodetypes="cscscc"
       d="m 534.62234,409.86218 c 0,0 14.48915,7.49866 22.13196,8.76988 26.77438,4.45376 78.04054,-9.4158 78.04054,-9.4158 0,0 -53.9829,14.62399 -72.21953,28.55253 -5.50898,4.20754 -12.62722,16.52294 -12.62722,16.52294 z"
       id="path5248-5-6" />
    <path
       id="path5138"
       sodipodi:nodetypes="cc"
       style="fill:#be9c20;fill-opacity:1;stroke:#be9c20;stroke-width:24.91200066;stroke-linecap:round;stroke-miterlimit:4;stroke-dasharray:none;stroke-opacity:1"
       inkscape:connector-curvature="0"
       d="M 509.96978,359.36134 96.16436,772.57802" />
    <ellipse
       ry="37.200233"
       rx="65.700165"
       cy="618.60901"
       cx="96.44648"
       transform="matrix(0.67859198,-0.73451543,0.7285685,0.68497295,0,0)"
       style="fill:#be9c20;fill-opacity:1;stroke:#000000;stroke-width:4.04291439;stroke-miterlimit:4;stroke-dasharray:none;stroke-opacity:1"
       id="path5246-9" />
    <ellipse
       ry="35.784126"
       rx="68.774345"
       cy="686.74634"
       cx="149.03452"
       transform="matrix(0.99467463,-0.10306489,0.21928412,0.97566104,0,0)"
       style="fill:#be9c20;fill-opacity:1;stroke:#000000;stroke-width:4.05692768;stroke-miterlimit:4;stroke-dasharray:none;stroke-opacity:1"
       id="path5246" />
    <ellipse
       ry="35.784126"
       rx="68.774345"
       cy="-273.89423"
       cx="-512.87701"
       transform="matrix(0.10306489,-0.99467463,-0.97566104,-0.21928412,0,0)"
       style="fill:#be9c20;fill-opacity:1;stroke:#000000;stroke-width:4.05692768;stroke-miterlimit:4;stroke-dasharray:none;stroke-opacity:1"
       id="path5246-8" />
    <ellipse
       ry="35.784126"
       rx="68.774345"
       cy="747.26312"
       cx="67.928009"
       transform="matrix(0.99467463,-0.10306489,0.21928412,0.97566104,0,0)"
       style="fill:#be9c20;fill-opacity:1;stroke:#000000;stroke-width:4.05692768;stroke-miterlimit:4;stroke-dasharray:none;stroke-opacity:1"
       id="path5246-4" />
    <ellipse
       ry="35.784126"
       rx="68.774345"
       cy="-213.38159"
       cx="-593.98621"
       transform="matrix(0.10306489,-0.99467463,-0.97566104,-0.21928412,0,0)"
       style="fill:#be9c20;fill-opacity:1;stroke:#000000;stroke-width:4.05692768;stroke-miterlimit:4;stroke-dasharray:none;stroke-opacity:1"
       id="path5246-8-7" />
    <ellipse
       ry="35.784126"
       rx="68.774345"
       cy="626.23022"
       cx="230.13754"
       transform="matrix(0.99467463,-0.10306489,0.21928412,0.97566104,0,0)"
       style="fill:#be9c20;fill-opacity:1;stroke:#000000;stroke-width:4.05692768;stroke-miterlimit:4;stroke-dasharray:none;stroke-opacity:1"
       id="path5246-0" />
    <ellipse
       ry="35.784126"
       rx="68.774345"
       cy="-334.41449"
       cx="-431.77667"
       transform="matrix(0.10306489,-0.99467463,-0.97566104,-0.21928412,0,0)"
       style="fill:#be9c20;fill-opacity:1;stroke:#000000;stroke-width:4.05692768;stroke-miterlimit:4;stroke-dasharray:none;stroke-opacity:1"
       id="path5246-8-3" />
    <ellipse
       ry="35.784126"
       rx="68.774345"
       cy="565.71417"
       cx="311.24255"
       transform="matrix(0.99467463,-0.10306489,0.21928412,0.97566104,0,0)"
       style="fill:#be9c20;fill-opacity:1;stroke:#000000;stroke-width:4.05692768;stroke-miterlimit:4;stroke-dasharray:none;stroke-opacity:1"
       id="path5246-1" />
    <ellipse
       ry="35.784126"
       rx="68.774345"
       cy="-394.9321"
       cx="-350.67279"
       transform="matrix(0.10306489,-0.99467463,-0.97566104,-0.21928412,0,0)"
       style="fill:#be9c20;fill-opacity:1;stroke:#000000;stroke-width:4.05692768;stroke-miterlimit:4;stroke-dasharray:none;stroke-opacity:1"
       id="path5246-8-4" />
    <ellipse
       ry="36.466541"
       rx="67.325684"
       cy="575.84583"
       cx="288.83432"
       transform="matrix(0.95532394,-0.29556078,0.38518633,0.92283882,0,0)"
       style="fill:#be9c20;fill-opacity:1;stroke:#000000;stroke-width:4.05205441;stroke-miterlimit:4;stroke-dasharray:none;stroke-opacity:1"
       id="path5246-1-1" />
    <ellipse
       ry="36.466541"
       rx="67.325684"
       cy="-516.18646"
       cx="-180.54051"
       transform="matrix(0.29556078,-0.95532394,-0.92283882,-0.38518633,0,0)"
       style="fill:#be9c20;fill-opacity:1;stroke:#000000;stroke-width:4.05205441;stroke-miterlimit:4;stroke-dasharray:none;stroke-opacity:1"
       id="path5246-1-1-4" />
  </g>
  <metadata
     id="metadata47">
    <rdf:RDF>
      <cc:Work>
        <dc:format>image/svg+xml</dc:format>
        <dc:type
           rdf:resource="http://purl.org/dc/dcmitype/StillImage" />
        <cc:license
           rdf:resource="http://creativecommons.org/publicdomain/zero/1.0/" />
        <dc:publisher>
          <cc:Agent
             rdf:about="http://openclipart.org/">
            <dc:title>Openclipart</dc:title>
          </cc:Agent>
        </dc:publisher>
        <dc:title>Wheat</dc:title>
        <dc:date>2011-06-11T04:11:17</dc:date>
        <dc:description>Black and white wheat icon</dc:description>
        <dc:source>https://openclipart.org/detail/144535/wheat-black-and-white-by-serioustux</dc:source>
        <dc:creator>
          <cc:Agent>
            <dc:title>SeriousTux</dc:title>
          </cc:Agent>
        </dc:creator>
        <dc:subject>
          <rdf:Bag>
            <rdf:li>b&amp;w</rdf:li>
            <rdf:li>black and white</rdf:li>
            <rdf:li>grain</rdf:li>
            <rdf:li>wheat</rdf:li>
          </rdf:Bag>
        </dc:subject>
      </cc:Work>
      <cc:License
         rdf:about="http://creativecommons.org/publicdomain/zero/1.0/">
        <cc:permits
           rdf:resource="http://creativecommons.org/ns#Reproduction" />
        <cc:permits
           rdf:resource="http://creativecommons.org/ns#Distribution" />
        <cc:permits
           rdf:resource="http://creativecommons.org/ns#DerivativeWorks" />
      </cc:License>
    </rdf:RDF>
  </metadata>
</svg>
