<?xml version="1.0" encoding="UTF-8" standalone="no"?>
<!-- Created with Inkscape (http://www.inkscape.org/) -->

<svg
   xmlns:dc="http://purl.org/dc/elements/1.1/"
   xmlns:cc="http://creativecommons.org/ns#"
   xmlns:rdf="http://www.w3.org/1999/02/22-rdf-syntax-ns#"
   xmlns:svg="http://www.w3.org/2000/svg"
   xmlns="http://www.w3.org/2000/svg"
   xmlns:sodipodi="http://sodipodi.sourceforge.net/DTD/sodipodi-0.dtd"
   xmlns:inkscape="http://www.inkscape.org/namespaces/inkscape"
   width="16"
   height="16"
   id="svg2"
   version="1.1"
   inkscape:version="0.48.5 r10040"
   sodipodi:docname="New document 1">
  <defs
     id="defs4" />
  <sodipodi:namedview
     id="base"
     pagecolor="#ffffff"
     bordercolor="#666666"
     borderopacity="1.0"
     inkscape:pageopacity="0.0"
     inkscape:pageshadow="2"
     inkscape:zoom="22.627417"
     inkscape:cx="5.4393354"
     inkscape:cy="9.3429067"
     inkscape:document-units="px"
     inkscape:current-layer="layer1"
     showgrid="false"
     fit-margin-top="0"
     fit-margin-left="0"
     fit-margin-right="0"
     fit-margin-bottom="0"
     inkscape:window-width="1680"
     inkscape:window-height="988"
     inkscape:window-x="-8"
     inkscape:window-y="-8"
     inkscape:window-maximized="1">
    <inkscape:grid
       type="xygrid"
       id="grid2985"
       empspacing="5"
       visible="true"
       enabled="true"
       snapvisiblegridlinesonly="true"
       originx="-765px"
       originy="-460px" />
  </sodipodi:namedview>
  <metadata
     id="metadata7">
    <rdf:RDF>
      <cc:Work
         rdf:about="">
        <dc:format>image/svg+xml</dc:format>
        <dc:type
           rdf:resource="http://purl.org/dc/dcmitype/StillImage" />
        <dc:title></dc:title>
      </cc:Work>
    </rdf:RDF>
  </metadata>
  <g
     inkscape:label="Layer 1"
     inkscape:groupmode="layer"
     id="layer1"
     transform="translate(-765,-576.36218)">
    <rect
       style="fill:#ffcc00;fill-opacity:1;stroke:none"
       id="rect2987"
       width="16"
       height="16"
       x="765"
       y="576.36218" />
    <path
       sodipodi:type="arc"
       style="fill:#a05a2c;fill-opacity:1;stroke:none"
       id="path3757"
       sodipodi:cx="767.5"
       sodipodi:cy="578.86218"
       sodipodi:rx="0.5"
       sodipodi:ry="0.5"
       d="m 768,578.86218 c 0,0.27614 -0.22386,0.5 -0.5,0.5 -0.27614,0 -0.5,-0.22386 -0.5,-0.5 0,-0.27614 0.22386,-0.5 0.5,-0.5 0.27614,0 0.5,0.22386 0.5,0.5 z" />
    <path
       transform="translate(5,3)"
       sodipodi:type="arc"
       style="fill:#a05a2c;fill-opacity:1;stroke:none"
       id="path3757-1"
       sodipodi:cx="767.5"
       sodipodi:cy="578.86218"
       sodipodi:rx="0.5"
       sodipodi:ry="0.5"
       d="m 768,578.86218 c 0,0.27614 -0.22386,0.5 -0.5,0.5 -0.27614,0 -0.5,-0.22386 -0.5,-0.5 0,-0.27614 0.22386,-0.5 0.5,-0.5 0.27614,0 0.5,0.22386 0.5,0.5 z" />
    <path
       transform="translate(1,5)"
       sodipodi:type="arc"
       style="fill:#a05a2c;fill-opacity:1;stroke:none"
       id="path3757-7"
       sodipodi:cx="767.5"
       sodipodi:cy="578.86218"
       sodipodi:rx="0.5"
       sodipodi:ry="0.5"
       d="m 768,578.86218 c 0,0.27614 -0.22386,0.5 -0.5,0.5 -0.27614,0 -0.5,-0.22386 -0.5,-0.5 0,-0.27614 0.22386,-0.5 0.5,-0.5 0.27614,0 0.5,0.22386 0.5,0.5 z" />
    <path
       transform="translate(1,2)"
       sodipodi:type="arc"
       style="fill:#a05a2c;fill-opacity:1;stroke:none"
       id="path3757-4"
       sodipodi:cx="767.5"
       sodipodi:cy="578.86218"
       sodipodi:rx="0.5"
       sodipodi:ry="0.5"
       d="m 768,578.86218 c 0,0.27614 -0.22386,0.5 -0.5,0.5 -0.27614,0 -0.5,-0.22386 -0.5,-0.5 0,-0.27614 0.22386,-0.5 0.5,-0.5 0.27614,0 0.5,0.22386 0.5,0.5 z" />
    <path
       transform="translate(4,1)"
       sodipodi:type="arc"
       style="fill:#a05a2c;fill-opacity:1;stroke:none"
       id="path3757-0"
       sodipodi:cx="767.5"
       sodipodi:cy="578.86218"
       sodipodi:rx="0.5"
       sodipodi:ry="0.5"
       d="m 768,578.86218 c 0,0.27614 -0.22386,0.5 -0.5,0.5 -0.27614,0 -0.5,-0.22386 -0.5,-0.5 0,-0.27614 0.22386,-0.5 0.5,-0.5 0.27614,0 0.5,0.22386 0.5,0.5 z" />
    <path
       transform="translate(4,5)"
       sodipodi:type="arc"
       style="fill:#a05a2c;fill-opacity:1;stroke:none"
       id="path3757-9"
       sodipodi:cx="767.5"
       sodipodi:cy="578.86218"
       sodipodi:rx="0.5"
       sodipodi:ry="0.5"
       d="m 768,578.86218 c 0,0.27614 -0.22386,0.5 -0.5,0.5 -0.27614,0 -0.5,-0.22386 -0.5,-0.5 0,-0.27614 0.22386,-0.5 0.5,-0.5 0.27614,0 0.5,0.22386 0.5,0.5 z" />
    <path
       transform="translate(-1,4)"
       sodipodi:type="arc"
       style="fill:#a05a2c;fill-opacity:1;stroke:none"
       id="path3757-48"
       sodipodi:cx="767.5"
       sodipodi:cy="578.86218"
       sodipodi:rx="0.5"
       sodipodi:ry="0.5"
       d="m 768,578.86218 c 0,0.27614 -0.22386,0.5 -0.5,0.5 -0.27614,0 -0.5,-0.22386 -0.5,-0.5 0,-0.27614 0.22386,-0.5 0.5,-0.5 0.27614,0 0.5,0.22386 0.5,0.5 z" />
    <path
       transform="translate(0,9)"
       sodipodi:type="arc"
       style="fill:#a05a2c;fill-opacity:1;stroke:none"
       id="path3757-8"
       sodipodi:cx="767.5"
       sodipodi:cy="578.86218"
       sodipodi:rx="0.5"
       sodipodi:ry="0.5"
       d="m 768,578.86218 c 0,0.27614 -0.22386,0.5 -0.5,0.5 -0.27614,0 -0.5,-0.22386 -0.5,-0.5 0,-0.27614 0.22386,-0.5 0.5,-0.5 0.27614,0 0.5,0.22386 0.5,0.5 z" />
    <path
       transform="translate(4,8)"
       sodipodi:type="arc"
       style="fill:#a05a2c;fill-opacity:1;stroke:none"
       id="path3757-2"
       sodipodi:cx="767.5"
       sodipodi:cy="578.86218"
       sodipodi:rx="0.5"
       sodipodi:ry="0.5"
       d="m 768,578.86218 c 0,0.27614 -0.22386,0.5 -0.5,0.5 -0.27614,0 -0.5,-0.22386 -0.5,-0.5 0,-0.27614 0.22386,-0.5 0.5,-0.5 0.27614,0 0.5,0.22386 0.5,0.5 z" />
    <path
       transform="translate(2,7)"
       sodipodi:type="arc"
       style="fill:#a05a2c;fill-opacity:1;stroke:none"
       id="path3757-45"
       sodipodi:cx="767.5"
       sodipodi:cy="578.86218"
       sodipodi:rx="0.5"
       sodipodi:ry="0.5"
       d="m 768,578.86218 c 0,0.27614 -0.22386,0.5 -0.5,0.5 -0.27614,0 -0.5,-0.22386 -0.5,-0.5 0,-0.27614 0.22386,-0.5 0.5,-0.5 0.27614,0 0.5,0.22386 0.5,0.5 z" />
    <path
       transform="translate(-1,12)"
       sodipodi:type="arc"
       style="fill:#a05a2c;fill-opacity:1;stroke:none"
       id="path3757-5"
       sodipodi:cx="767.5"
       sodipodi:cy="578.86218"
       sodipodi:rx="0.5"
       sodipodi:ry="0.5"
       d="m 768,578.86218 c 0,0.27614 -0.22386,0.5 -0.5,0.5 -0.27614,0 -0.5,-0.22386 -0.5,-0.5 0,-0.27614 0.22386,-0.5 0.5,-0.5 0.27614,0 0.5,0.22386 0.5,0.5 z" />
    <path
       transform="translate(2,11)"
       sodipodi:type="arc"
       style="fill:#a05a2c;fill-opacity:1;stroke:none"
       id="path3757-17"
       sodipodi:cx="767.5"
       sodipodi:cy="578.86218"
       sodipodi:rx="0.5"
       sodipodi:ry="0.5"
       d="m 768,578.86218 c 0,0.27614 -0.22386,0.5 -0.5,0.5 -0.27614,0 -0.5,-0.22386 -0.5,-0.5 0,-0.27614 0.22386,-0.5 0.5,-0.5 0.27614,0 0.5,0.22386 0.5,0.5 z" />
    <path
       transform="translate(5,12)"
       sodipodi:type="arc"
       style="fill:#a05a2c;fill-opacity:1;stroke:none"
       id="path3757-11"
       sodipodi:cx="767.5"
       sodipodi:cy="578.86218"
       sodipodi:rx="0.5"
       sodipodi:ry="0.5"
       d="m 768,578.86218 c 0,0.27614 -0.22386,0.5 -0.5,0.5 -0.27614,0 -0.5,-0.22386 -0.5,-0.5 0,-0.27614 0.22386,-0.5 0.5,-0.5 0.27614,0 0.5,0.22386 0.5,0.5 z" />
    <path
       transform="translate(6,10)"
       sodipodi:type="arc"
       style="fill:#a05a2c;fill-opacity:1;stroke:none"
       id="path3757-52"
       sodipodi:cx="767.5"
       sodipodi:cy="578.86218"
       sodipodi:rx="0.5"
       sodipodi:ry="0.5"
       d="m 768,578.86218 c 0,0.27614 -0.22386,0.5 -0.5,0.5 -0.27614,0 -0.5,-0.22386 -0.5,-0.5 0,-0.27614 0.22386,-0.5 0.5,-0.5 0.27614,0 0.5,0.22386 0.5,0.5 z" />
    <path
       transform="translate(7,7)"
       sodipodi:type="arc"
       style="fill:#a05a2c;fill-opacity:1;stroke:none"
       id="path3757-76"
       sodipodi:cx="767.5"
       sodipodi:cy="578.86218"
       sodipodi:rx="0.5"
       sodipodi:ry="0.5"
       d="m 768,578.86218 c 0,0.27614 -0.22386,0.5 -0.5,0.5 -0.27614,0 -0.5,-0.22386 -0.5,-0.5 0,-0.27614 0.22386,-0.5 0.5,-0.5 0.27614,0 0.5,0.22386 0.5,0.5 z" />
    <path
       transform="translate(8,4)"
       sodipodi:type="arc"
       style="fill:#a05a2c;fill-opacity:1;stroke:none"
       id="path3757-14"
       sodipodi:cx="767.5"
       sodipodi:cy="578.86218"
       sodipodi:rx="0.5"
       sodipodi:ry="0.5"
       d="m 768,578.86218 c 0,0.27614 -0.22386,0.5 -0.5,0.5 -0.27614,0 -0.5,-0.22386 -0.5,-0.5 0,-0.27614 0.22386,-0.5 0.5,-0.5 0.27614,0 0.5,0.22386 0.5,0.5 z" />
    <path
       transform="translate(6,0)"
       sodipodi:type="arc"
       style="fill:#a05a2c;fill-opacity:1;stroke:none"
       id="path3757-23"
       sodipodi:cx="767.5"
       sodipodi:cy="578.86218"
       sodipodi:rx="0.5"
       sodipodi:ry="0.5"
       d="m 768,578.86218 c 0,0.27614 -0.22386,0.5 -0.5,0.5 -0.27614,0 -0.5,-0.22386 -0.5,-0.5 0,-0.27614 0.22386,-0.5 0.5,-0.5 0.27614,0 0.5,0.22386 0.5,0.5 z" />
    <path
       transform="translate(3,-1)"
       sodipodi:type="arc"
       style="fill:#a05a2c;fill-opacity:1;stroke:none"
       id="path3757-22"
       sodipodi:cx="767.5"
       sodipodi:cy="578.86218"
       sodipodi:rx="0.5"
       sodipodi:ry="0.5"
       d="m 768,578.86218 c 0,0.27614 -0.22386,0.5 -0.5,0.5 -0.27614,0 -0.5,-0.22386 -0.5,-0.5 0,-0.27614 0.22386,-0.5 0.5,-0.5 0.27614,0 0.5,0.22386 0.5,0.5 z" />
    <path
       transform="translate(-2,-2)"
       sodipodi:type="arc"
       style="fill:#a05a2c;fill-opacity:1;stroke:none"
       id="path3757-85"
       sodipodi:cx="767.5"
       sodipodi:cy="578.86218"
       sodipodi:rx="0.5"
       sodipodi:ry="0.5"
       d="m 768,578.86218 c 0,0.27614 -0.22386,0.5 -0.5,0.5 -0.27614,0 -0.5,-0.22386 -0.5,-0.5 0,-0.27614 0.22386,-0.5 0.5,-0.5 0.27614,0 0.5,0.22386 0.5,0.5 z" />
    <path
       transform="translate(-1,7)"
       sodipodi:type="arc"
       style="fill:#a05a2c;fill-opacity:1;stroke:none"
       id="path3757-761"
       sodipodi:cx="767.5"
       sodipodi:cy="578.86218"
       sodipodi:rx="0.5"
       sodipodi:ry="0.5"
       d="m 768,578.86218 c 0,0.27614 -0.22386,0.5 -0.5,0.5 -0.27614,0 -0.5,-0.22386 -0.5,-0.5 0,-0.27614 0.22386,-0.5 0.5,-0.5 0.27614,0 0.5,0.22386 0.5,0.5 z" />
    <path
       transform="translate(9,1)"
       sodipodi:type="arc"
       style="fill:#a05a2c;fill-opacity:1;stroke:none"
       id="path3757-89"
       sodipodi:cx="767.5"
       sodipodi:cy="578.86218"
       sodipodi:rx="0.5"
       sodipodi:ry="0.5"
       d="m 768,578.86218 c 0,0.27614 -0.22386,0.5 -0.5,0.5 -0.27614,0 -0.5,-0.22386 -0.5,-0.5 0,-0.27614 0.22386,-0.5 0.5,-0.5 0.27614,0 0.5,0.22386 0.5,0.5 z" />
    <path
       transform="translate(10,-2)"
       sodipodi:type="arc"
       style="fill:#a05a2c;fill-opacity:1;stroke:none"
       id="path3757-27"
       sodipodi:cx="767.5"
       sodipodi:cy="578.86218"
       sodipodi:rx="0.5"
       sodipodi:ry="0.5"
       d="m 768,578.86218 c 0,0.27614 -0.22386,0.5 -0.5,0.5 -0.27614,0 -0.5,-0.22386 -0.5,-0.5 0,-0.27614 0.22386,-0.5 0.5,-0.5 0.27614,0 0.5,0.22386 0.5,0.5 z" />
    <path
       transform="translate(12,0)"
       sodipodi:type="arc"
       style="fill:#a05a2c;fill-opacity:1;stroke:none"
       id="path3757-95"
       sodipodi:cx="767.5"
       sodipodi:cy="578.86218"
       sodipodi:rx="0.5"
       sodipodi:ry="0.5"
       d="m 768,578.86218 c 0,0.27614 -0.22386,0.5 -0.5,0.5 -0.27614,0 -0.5,-0.22386 -0.5,-0.5 0,-0.27614 0.22386,-0.5 0.5,-0.5 0.27614,0 0.5,0.22386 0.5,0.5 z" />
    <path
       transform="translate(12,2)"
       sodipodi:type="arc"
       style="fill:#a05a2c;fill-opacity:1;stroke:none"
       id="path3757-43"
       sodipodi:cx="767.5"
       sodipodi:cy="578.86218"
       sodipodi:rx="0.5"
       sodipodi:ry="0.5"
       d="m 768,578.86218 c 0,0.27614 -0.22386,0.5 -0.5,0.5 -0.27614,0 -0.5,-0.22386 -0.5,-0.5 0,-0.27614 0.22386,-0.5 0.5,-0.5 0.27614,0 0.5,0.22386 0.5,0.5 z" />
    <path
       transform="translate(11,4)"
       sodipodi:type="arc"
       style="fill:#a05a2c;fill-opacity:1;stroke:none"
       id="path3757-12"
       sodipodi:cx="767.5"
       sodipodi:cy="578.86218"
       sodipodi:rx="0.5"
       sodipodi:ry="0.5"
       d="m 768,578.86218 c 0,0.27614 -0.22386,0.5 -0.5,0.5 -0.27614,0 -0.5,-0.22386 -0.5,-0.5 0,-0.27614 0.22386,-0.5 0.5,-0.5 0.27614,0 0.5,0.22386 0.5,0.5 z" />
    <path
       transform="translate(9,6)"
       sodipodi:type="arc"
       style="fill:#a05a2c;fill-opacity:1;stroke:none"
       id="path3757-3"
       sodipodi:cx="767.5"
       sodipodi:cy="578.86218"
       sodipodi:rx="0.5"
       sodipodi:ry="0.5"
       d="m 768,578.86218 c 0,0.27614 -0.22386,0.5 -0.5,0.5 -0.27614,0 -0.5,-0.22386 -0.5,-0.5 0,-0.27614 0.22386,-0.5 0.5,-0.5 0.27614,0 0.5,0.22386 0.5,0.5 z" />
    <path
       transform="translate(11,8)"
       sodipodi:type="arc"
       style="fill:#a05a2c;fill-opacity:1;stroke:none"
       id="path3757-34"
       sodipodi:cx="767.5"
       sodipodi:cy="578.86218"
       sodipodi:rx="0.5"
       sodipodi:ry="0.5"
       d="m 768,578.86218 c 0,0.27614 -0.22386,0.5 -0.5,0.5 -0.27614,0 -0.5,-0.22386 -0.5,-0.5 0,-0.27614 0.22386,-0.5 0.5,-0.5 0.27614,0 0.5,0.22386 0.5,0.5 z" />
    <path
       transform="translate(9,9)"
       sodipodi:type="arc"
       style="fill:#a05a2c;fill-opacity:1;stroke:none"
       id="path3757-113"
       sodipodi:cx="767.5"
       sodipodi:cy="578.86218"
       sodipodi:rx="0.5"
       sodipodi:ry="0.5"
       d="m 768,578.86218 c 0,0.27614 -0.22386,0.5 -0.5,0.5 -0.27614,0 -0.5,-0.22386 -0.5,-0.5 0,-0.27614 0.22386,-0.5 0.5,-0.5 0.27614,0 0.5,0.22386 0.5,0.5 z" />
    <path
       transform="translate(8,12)"
       sodipodi:type="arc"
       style="fill:#a05a2c;fill-opacity:1;stroke:none"
       id="path3757-87"
       sodipodi:cx="767.5"
       sodipodi:cy="578.86218"
       sodipodi:rx="0.5"
       sodipodi:ry="0.5"
       d="m 768,578.86218 c 0,0.27614 -0.22386,0.5 -0.5,0.5 -0.27614,0 -0.5,-0.22386 -0.5,-0.5 0,-0.27614 0.22386,-0.5 0.5,-0.5 0.27614,0 0.5,0.22386 0.5,0.5 z" />
    <path
       transform="translate(8,12)"
       sodipodi:type="arc"
       style="fill:#a05a2c;fill-opacity:1;stroke:none"
       id="path3757-42"
       sodipodi:cx="767.5"
       sodipodi:cy="578.86218"
       sodipodi:rx="0.5"
       sodipodi:ry="0.5"
       d="m 768,578.86218 c 0,0.27614 -0.22386,0.5 -0.5,0.5 -0.27614,0 -0.5,-0.22386 -0.5,-0.5 0,-0.27614 0.22386,-0.5 0.5,-0.5 0.27614,0 0.5,0.22386 0.5,0.5 z" />
    <path
       transform="translate(11,11)"
       sodipodi:type="arc"
       style="fill:#a05a2c;fill-opacity:1;stroke:none"
       id="path3757-77"
       sodipodi:cx="767.5"
       sodipodi:cy="578.86218"
       sodipodi:rx="0.5"
       sodipodi:ry="0.5"
       d="m 768,578.86218 c 0,0.27614 -0.22386,0.5 -0.5,0.5 -0.27614,0 -0.5,-0.22386 -0.5,-0.5 0,-0.27614 0.22386,-0.5 0.5,-0.5 0.27614,0 0.5,0.22386 0.5,0.5 z" />
    <path
       transform="translate(12,12)"
       sodipodi:type="arc"
       style="fill:#a05a2c;fill-opacity:1;stroke:none"
       id="path3757-93"
       sodipodi:cx="767.5"
       sodipodi:cy="578.86218"
       sodipodi:rx="0.5"
       sodipodi:ry="0.5"
       d="m 768,578.86218 c 0,0.27614 -0.22386,0.5 -0.5,0.5 -0.27614,0 -0.5,-0.22386 -0.5,-0.5 0,-0.27614 0.22386,-0.5 0.5,-0.5 0.27614,0 0.5,0.22386 0.5,0.5 z" />
    <path
       transform="translate(13,6)"
       sodipodi:type="arc"
       style="fill:#a05a2c;fill-opacity:1;stroke:none"
       id="path3757-19"
       sodipodi:cx="767.5"
       sodipodi:cy="578.86218"
       sodipodi:rx="0.5"
       sodipodi:ry="0.5"
       d="m 768,578.86218 c 0,0.27614 -0.22386,0.5 -0.5,0.5 -0.27614,0 -0.5,-0.22386 -0.5,-0.5 0,-0.27614 0.22386,-0.5 0.5,-0.5 0.27614,0 0.5,0.22386 0.5,0.5 z" />
    <path
       transform="translate(6,6)"
       sodipodi:type="arc"
       style="fill:#a05a2c;fill-opacity:1;stroke:none"
       id="path3757-86"
       sodipodi:cx="767.5"
       sodipodi:cy="578.86218"
       sodipodi:rx="0.5"
       sodipodi:ry="0.5"
       d="m 768,578.86218 c 0,0.27614 -0.22386,0.5 -0.5,0.5 -0.27614,0 -0.5,-0.22386 -0.5,-0.5 0,-0.27614 0.22386,-0.5 0.5,-0.5 0.27614,0 0.5,0.22386 0.5,0.5 z" />
    <path
       transform="translate(7,-2)"
       sodipodi:type="arc"
       style="fill:#a05a2c;fill-opacity:1;stroke:none"
       id="path3757-50"
       sodipodi:cx="767.5"
       sodipodi:cy="578.86218"
       sodipodi:rx="0.5"
       sodipodi:ry="0.5"
       d="m 768,578.86218 c 0,0.27614 -0.22386,0.5 -0.5,0.5 -0.27614,0 -0.5,-0.22386 -0.5,-0.5 0,-0.27614 0.22386,-0.5 0.5,-0.5 0.27614,0 0.5,0.22386 0.5,0.5 z" />
    <path
       transform="translate(3,13)"
       sodipodi:type="arc"
       style="fill:#a05a2c;fill-opacity:1;stroke:none"
       id="path3757-28"
       sodipodi:cx="767.5"
       sodipodi:cy="578.86218"
       sodipodi:rx="0.5"
       sodipodi:ry="0.5"
       d="m 768,578.86218 c 0,0.27614 -0.22386,0.5 -0.5,0.5 -0.27614,0 -0.5,-0.22386 -0.5,-0.5 0,-0.27614 0.22386,-0.5 0.5,-0.5 0.27614,0 0.5,0.22386 0.5,0.5 z" />
    <path
       transform="translate(-2,10)"
       sodipodi:type="arc"
       style="fill:#a05a2c;fill-opacity:1;stroke:none"
       id="path3757-6"
       sodipodi:cx="767.5"
       sodipodi:cy="578.86218"
       sodipodi:rx="0.5"
       sodipodi:ry="0.5"
       d="m 768,578.86218 c 0,0.27614 -0.22386,0.5 -0.5,0.5 -0.27614,0 -0.5,-0.22386 -0.5,-0.5 0,-0.27614 0.22386,-0.5 0.5,-0.5 0.27614,0 0.5,0.22386 0.5,0.5 z" />
  </g>
</svg>
