<?xml version="1.0" encoding="utf-8"?>
<svg version="1.1" xmlns="http://www.w3.org/2000/svg" xmlns:xlink="http://www.w3.org/1999/xlink" x="0px" y="0px"
     width="16px" height="16px" viewBox="0 0 16 16" enable-background="new 0 0 16 16" xml:space="preserve">
<path fill-rule="evenodd" clip-rule="evenodd" fill="#FFFFFF" d="M3,0h10c1.7,0,3,1.3,3,3v10c0,1.7-1.3,3-3,3H3
	c-1.7,0-3-1.3-3-3V3C0,1.3,1.3,0,3,0z"/>
    <path fill="#734A08" d="M3.4,6.2v5.5l5.6,2.7V8.9L3.4,6.2z"/>
    <path fill="#734A08" d="M14.5,5.2L9.9,8.3l0,5.5l4.6-3L14.5,5.2z"/>
    <path fill="#734A08" d="M8.5,1.5L3.4,5.2l5.6,2.7l5.6-3.6v0L8.5,1.5z"/>
    <path fill="#734A08" d="M1.5,14.5h2.8v-0.9H2.4V2.4h1.9V1.5H1.5V14.5z"/>
</svg>
