<?xml version="1.0" encoding="UTF-8" standalone="no"?>
<svg
   xmlns="http://www.w3.org/2000/svg"
   height="18"
   width="18"
   id="svg3384"
   y="0px"
   x="0px"
   version="1.1"
   viewBox="0 0 57 57">
  <path
     id="path3386"
     d="M 12.489601,0 C 10.339016,0.326767 8.2569904,1.0727575 6.4407734,2.2734375 2.8463324,4.6064045 0.42119738,8.6491489 0.07163238,12.919922 c -0.433157,4.073192 1.12446702,8.236189 3.95898402,11.154297 2.325367,2.416559 5.540674,3.937544 8.8691406,4.287109 0.0048,1.398982 7.06e-4,2.799993 0.002,4.199219 l 0.002,0 c 7.89e-4,4.0043 7.17e-4,8.2883 0,11.742188 l 21.65625,0 0,0.0078 c 3.023387,4.36e-4 6.046714,-0.0054 9.070313,0.002 -0.828312,0.881513 -1.746149,1.655138 -2.513672,2.589844 -0.334367,0.357165 -0.48057,0.913399 -0.275391,1.376953 0.20518,0.49395 0.716101,0.85025 1.248047,0.873047 0.592741,-0.0228 1.069896,-0.462474 1.472656,-0.865235 1.314668,-1.345064 2.652768,-2.675778 3.990235,-3.998046 0.410359,-0.425558 0.928048,-0.965607 0.730468,-1.619141 -0.06079,-0.455955 -0.449509,-0.76677 -0.738281,-1.085937 -1.375462,-1.360265 -2.743252,-2.728267 -4.103515,-4.111329 -0.425558,-0.410359 -0.965607,-0.928048 -1.619141,-0.730468 -0.881512,0.144386 -1.398282,1.330806 -0.835938,2.052734 0.851115,0.972703 1.831379,1.823319 2.712891,2.765625 -9.377462,0.0152 -18.753396,2.24e-4 -28.130859,0.0078 0,-4.39996 -0.0093,-8.807071 0.0059,-13.207031 1.056295,-0.151985 2.122113,-0.318616 3.132812,-0.675781 3.769225,-1.246275 6.991198,-4.120369 8.556641,-7.783203 C 29.079256,15.958363 28.857835,11.155516 26.737647,7.3710938 24.625059,3.3510958 20.454048,0.615538 15.985694,0 Z m 2.382812,2.6484375 c 2.629396,0.1151163 5.202553,1.2160254 7.13086,2.9980469 2.545746,2.256974 3.951699,5.7083956 3.761718,9.0976566 -0.144386,3.670433 -2.21201,7.18762 -5.3125,9.140625 -1.459055,0.949905 -3.146279,1.550253 -4.878906,1.740234 -0.0076,-3.731227 -0.0152,-7.469945 0,-11.201172 0.835917,0.790321 1.618949,1.633721 2.447266,2.431641 0.265973,0.212779 0.547557,0.502167 0.919922,0.509766 0.759923,0.113989 1.566226,-0.539758 1.490234,-1.330079 0.113988,-0.49395 -0.297167,-0.84294 -0.585938,-1.162109 -1.565443,-1.550245 -3.115984,-3.115984 -4.673828,-4.673828 -0.40276,-0.4559551 -1.169472,-0.5399051 -1.640625,-0.152344 -0.463554,0.341966 -0.843547,0.774975 -1.253906,1.177734 -1.208279,1.223479 -2.4325606,2.43256 -3.6484366,3.648438 -0.288771,0.326768 -0.644778,0.683357 -0.583985,1.162109 -0.0304,0.661134 0.508789,1.284483 1.169922,1.330079 0.478753,0.08359 0.9193256,-0.175399 1.2460936,-0.509766 0.820718,-0.805519 1.611136,-1.641533 2.439453,-2.439453 0.0228,3.746425 0.0078,7.485783 0.0078,11.224609 -3.9212076,-0.448356 -7.5085276,-3.040324 -9.1347646,-6.634766 -0.691531,-1.48185 -1.050204,-3.113256 -1.064453,-4.748046 -0.01425,-1.634785 0.315961,-3.272374 0.996093,-4.7656251 1.694631,-3.9212076 5.745492,-6.7408406 10.0390626,-6.8320316 0.376162,-0.024698 0.753278,-0.028164 1.128906,-0.011719 z" />
</svg>
