<?xml version="1.0" encoding="UTF-8" standalone="no"?>
<!-- Created with Inkscape (http://www.inkscape.org/) -->

<svg
   xmlns:dc="http://purl.org/dc/elements/1.1/"
   xmlns:cc="http://creativecommons.org/ns#"
   xmlns:rdf="http://www.w3.org/1999/02/22-rdf-syntax-ns#"
   xmlns:svg="http://www.w3.org/2000/svg"
   xmlns="http://www.w3.org/2000/svg"
   xmlns:sodipodi="http://sodipodi.sourceforge.net/DTD/sodipodi-0.dtd"
   xmlns:inkscape="http://www.inkscape.org/namespaces/inkscape"
   width="16"
   height="16"
   viewBox="0 0 16 16"
   id="svg2"
   version="1.1"
   inkscape:version="0.92.3 (2405546, 2018-03-11)"
   sodipodi:docname="historic_mine10.svg">
  <defs
     id="defs4" />
  <sodipodi:namedview
     id="base"
     pagecolor="#ffffff"
     bordercolor="#666666"
     borderopacity="1.0"
     inkscape:pageopacity="0.0"
     inkscape:pageshadow="2"
     inkscape:zoom="39.245148"
     inkscape:cx="8.209609"
     inkscape:cy="8.5671917"
     inkscape:document-units="px"
     inkscape:current-layer="layer1"
     showgrid="true"
     units="px"
     inkscape:window-width="1680"
     inkscape:window-height="987"
     inkscape:window-x="-8"
     inkscape:window-y="-8"
     inkscape:window-maximized="1"
     viewbox-height="16">
    <inkscape:grid
       type="xygrid"
       id="grid4136"
       originx="0"
       originy="0"
       spacingx="1"
       spacingy="1" />
  </sodipodi:namedview>
  <metadata
     id="metadata7">
    <rdf:RDF>
      <cc:Work
         rdf:about="">
        <dc:format>image/svg+xml</dc:format>
        <dc:type
           rdf:resource="http://purl.org/dc/dcmitype/StillImage" />
        <dc:title></dc:title>
        <cc:license
           rdf:resource="http://creativecommons.org/publicdomain/zero/1.0/" />
      </cc:Work>
      <cc:License
         rdf:about="http://creativecommons.org/publicdomain/zero/1.0/">
        <cc:permits
           rdf:resource="http://creativecommons.org/ns#Reproduction" />
        <cc:permits
           rdf:resource="http://creativecommons.org/ns#Distribution" />
        <cc:permits
           rdf:resource="http://creativecommons.org/ns#DerivativeWorks" />
      </cc:License>
    </rdf:RDF>
  </metadata>
  <g
     inkscape:label="Layer 1"
     inkscape:groupmode="layer"
     id="layer1"
     transform="translate(0,-1037.3622)">
    <path
       inkscape:connector-curvature="0"
       style="stroke:#fafafa;stroke-width:1.44285405"
       d="m 3.7398815,1039.2327 c -0.5308678,0.182 -0.5897077,0.2337 -0.7030878,0.6174 -0.1063408,0.3598 -0.1062905,0.41 4.313e-4,0.4321 0.061121,0.013 0.692392,0.6512 1.9263449,1.9485 1.0094879,1.0615 1.9646416,2.0619 2.1225647,2.2233 0.2152052,0.2199 0.2793272,0.3072 0.255973,0.3483 -0.066043,0.1163 -2.8196266,3.0091 -2.8898593,3.0361 -0.027274,0.01 -0.099159,-0.034 -0.1597456,-0.098 -0.1395263,-0.1482 -0.8234498,-1.0605 -1.2369663,-1.65 -0.1739426,-0.248 -0.3360434,-0.4491 -0.3602242,-0.4469 -0.024181,0 -0.3877132,0.2782 -0.807851,0.6133 l -0.7638864,0.6091 0.102447,0.09 c 0.056346,0.05 0.2630176,0.3255 0.4592697,0.6132 0.5712923,0.8375 1.199139,1.6544 1.512067,1.9675 0.4233026,0.4237 2.7997022,2.1807 2.9494194,2.1807 0.038517,0 0.253207,-0.2484 0.5592352,-0.6469 0.3394481,-0.442 0.5291569,-0.6587 0.5991695,-0.6846 0.056347,-0.021 0.096927,-0.053 0.090178,-0.072 -0.00675,-0.019 -0.3774941,-0.3092 -0.8238769,-0.6453 -0.4463835,-0.3361 -0.9284262,-0.7194 -1.071207,-0.8518 -0.3747484,-0.3476 -0.3920943,-0.3059 0.501335,-1.2034 0.8969171,-0.901 3.1326574,-3.0683 5.3493283,-5.1856 0.912606,-0.8718 1.774138,-1.6947 1.914513,-1.8289 0.163976,-0.1567 0.284934,-0.244 0.338308,-0.244 0.07932,0 0.08195,-0.01 0.05805,-0.1886 -0.03992,-0.3009 -0.164453,-0.5721 -0.306649,-0.6677 -0.133733,-0.09 -0.391184,-0.1723 -0.653028,-0.2088 l -0.163796,-0.023 -2.141752,2.2944 c -1.1779624,1.262 -2.1528998,2.2901 -2.1665255,2.2846 -0.013626,-0.01 -0.9055708,-1.0084 -1.9821002,-2.2286 -1.0765291,-1.2199 -2.0163186,-2.2779 -2.0884198,-2.3509 l -0.1310941,-0.1327 z m 4.871872,5.9665 -0.4306187,0.4074 1.2993376,1.3631 c 1.0967286,1.1506 1.2993376,1.3794 1.2993376,1.4678 0,0.09 -0.12288,0.2191 -0.8955561,0.9386 -0.4925551,0.4586 -0.8865787,0.8485 -0.8756076,0.8663 0.010972,0.018 0.05301,0.032 0.093421,0.032 0.045802,0 0.3157794,0.2309 0.7168805,0.6132 0.3538742,0.3373 0.6607702,0.6133 0.6819902,0.6133 0.02122,0 0.405183,-0.3571 0.853251,-0.7937 0.849808,-0.8277 0.909307,-0.8689 1.042821,-0.7214 0.03591,0.04 0.09118,0.072 0.122822,0.072 0.03165,-3e-4 0.17097,-0.097 0.309614,-0.2147 0.16088,-0.1368 0.290716,-0.2183 0.358867,-0.2251 l 0.106787,-0.011 -0.120268,-0.1366 c -0.06615,-0.075 -0.125809,-0.1841 -0.13258,-0.2422 -0.01086,-0.093 0.02225,-0.1357 0.280754,-0.3594 0.161186,-0.1396 0.310955,-0.2538 0.332819,-0.254 0.03602,-4e-4 1.645256,-3.1037 1.624,-3.1318 -0.005,-0.01 -0.623176,0.3155 -1.373785,0.716 l -1.364745,0.7281 -0.415363,0.4111 c -0.228449,0.2262 -0.425606,0.4112 -0.438128,0.4112 -0.01253,0 -0.610493,-0.6656 -1.328827,-1.479 -0.7183328,-0.8134 -1.308432,-1.4789 -1.3113318,-1.4789 -0.0029,10e-5 -0.1990512,0.1834 -0.4358918,0.4074 z"
       id="path2" />
    <path
       inkscape:connector-curvature="0"
       style="stroke-width:0.03607135"
       d="m 3.7398815,1039.2327 c -0.5308678,0.182 -0.5897077,0.2337 -0.7030878,0.6174 -0.1063408,0.3598 -0.1062905,0.41 4.313e-4,0.4321 0.061121,0.013 0.692392,0.6512 1.9263449,1.9485 1.0094879,1.0615 1.9646416,2.0619 2.1225647,2.2233 0.2152052,0.2199 0.2793272,0.3072 0.255973,0.3483 -0.066043,0.1163 -2.8196266,3.0091 -2.8898585,3.0361 -0.027275,0.01 -0.09916,-0.034 -0.1597464,-0.098 -0.1395263,-0.1482 -0.8234498,-1.0605 -1.2369663,-1.65 -0.1739426,-0.248 -0.3360434,-0.4491 -0.3602242,-0.4469 -0.024181,0 -0.3877132,0.2782 -0.807851,0.6133 l -0.7638864,0.6091 0.102447,0.09 c 0.056346,0.05 0.2630176,0.3255 0.4592697,0.6132 0.5712923,0.8375 1.199139,1.6544 1.512067,1.9675 0.4233026,0.4237 2.7997022,2.1807 2.9494194,2.1807 0.038517,0 0.253207,-0.2484 0.5592352,-0.6469 0.3394481,-0.442 0.5291569,-0.6587 0.5991695,-0.6846 0.056347,-0.021 0.096927,-0.053 0.090178,-0.072 -0.00675,-0.019 -0.3774941,-0.3092 -0.8238769,-0.6453 -0.4463828,-0.3361 -0.9284262,-0.7194 -1.071207,-0.8518 -0.3747481,-0.3476 -0.3920943,-0.3059 0.501335,-1.2034 0.8969171,-0.901 3.1326574,-3.0683 5.3493283,-5.1856 0.912606,-0.8718 1.774138,-1.6947 1.914514,-1.8289 0.163976,-0.1567 0.284934,-0.244 0.338308,-0.244 0.07932,0 0.08195,-0.01 0.05805,-0.1886 -0.03992,-0.3009 -0.164453,-0.5721 -0.306649,-0.6677 -0.133734,-0.09 -0.391185,-0.1723 -0.653029,-0.2088 l -0.163795,-0.023 -2.141753,2.2944 c -1.1779624,1.262 -2.1528994,2.2901 -2.1665255,2.2846 -0.013626,-0.01 -0.9055708,-1.0084 -1.9821002,-2.2286 -1.0765291,-1.2199 -2.0163178,-2.2779 -2.0884198,-2.3509 l -0.1310942,-0.1327 z m 4.871872,5.9665 -0.4306187,0.4074 1.2993376,1.3631 c 1.0967286,1.1506 1.2993376,1.3794 1.2993376,1.4678 0,0.09 -0.12288,0.2191 -0.8955561,0.9386 -0.4925551,0.4586 -0.8865787,0.8485 -0.8756076,0.8663 0.010972,0.018 0.05301,0.032 0.093421,0.032 0.045802,0 0.3157794,0.2309 0.7168805,0.6132 0.3538742,0.3373 0.6607702,0.6133 0.6819902,0.6133 0.02122,0 0.405183,-0.3571 0.853251,-0.7937 0.849808,-0.8277 0.909307,-0.8689 1.042821,-0.7214 0.03591,0.04 0.09118,0.072 0.122822,0.072 0.03165,-3e-4 0.17097,-0.097 0.309614,-0.2147 0.16088,-0.1368 0.290716,-0.2183 0.358867,-0.2251 l 0.106787,-0.011 -0.120268,-0.1366 c -0.06615,-0.075 -0.125809,-0.1841 -0.13258,-0.2422 -0.01086,-0.093 0.02225,-0.1357 0.280754,-0.3594 0.161186,-0.1396 0.310955,-0.2538 0.332819,-0.254 0.03602,-4e-4 1.645256,-3.1037 1.624,-3.1318 -0.005,-0.01 -0.623176,0.3155 -1.373785,0.716 l -1.364745,0.7281 -0.415363,0.4111 c -0.228449,0.2262 -0.425606,0.4112 -0.438128,0.4112 -0.01253,0 -0.610493,-0.6656 -1.328827,-1.479 -0.7183328,-0.8134 -1.308432,-1.4789 -1.3113318,-1.4789 -0.0029,10e-5 -0.1990512,0.1834 -0.4358918,0.4074 z"
       id="path4" />
  </g>
</svg>
