<?xml version="1.0" encoding="UTF-8" standalone="no"?>
<!-- Created with Inkscape (http://www.inkscape.org/) -->

<svg
   width="16"
   height="16"
   viewBox="0 0 16 16"
   id="svg4365"
   version="1.1"
   inkscape:version="1.1 (c68e22c387, 2021-05-23)"
   sodipodi:docname="bush3.svg"
   xmlns:inkscape="http://www.inkscape.org/namespaces/inkscape"
   xmlns:sodipodi="http://sodipodi.sourceforge.net/DTD/sodipodi-0.dtd"
   xmlns="http://www.w3.org/2000/svg"
   xmlns:svg="http://www.w3.org/2000/svg"
   xmlns:rdf="http://www.w3.org/1999/02/22-rdf-syntax-ns#"
   xmlns:cc="http://creativecommons.org/ns#"
   xmlns:dc="http://purl.org/dc/elements/1.1/">
  <defs
     id="defs4367" />
  <sodipodi:namedview
     id="base"
     pagecolor="#ffffff"
     bordercolor="#666666"
     borderopacity="1.0"
     inkscape:pageopacity="0.0"
     inkscape:pageshadow="2"
     inkscape:zoom="28.53125"
     inkscape:cx="7.1325301"
     inkscape:cy="10.041621"
     inkscape:document-units="px"
     inkscape:current-layer="layer2"
     showgrid="false"
     fit-margin-top="0"
     fit-margin-left="0"
     fit-margin-right="0"
     fit-margin-bottom="0"
     inkscape:window-width="1680"
     inkscape:window-height="987"
     inkscape:window-x="-8"
     inkscape:window-y="-8"
     inkscape:window-maximized="1"
     inkscape:pagecheckerboard="0"
     units="px" />
  <metadata
     id="metadata4370">
    <rdf:RDF>
      <cc:Work
         rdf:about="">
        <dc:format>image/svg+xml</dc:format>
        <dc:type
           rdf:resource="http://purl.org/dc/dcmitype/StillImage" />
      </cc:Work>
    </rdf:RDF>
  </metadata>
  <g
     inkscape:label="Layer 1"
     inkscape:groupmode="layer"
     id="layer1"
     transform="translate(-251.55665,-509.53472)" />
  <g
     inkscape:groupmode="layer"
     id="layer2"
     inkscape:label="shading"
     transform="translate(-251.55665,-509.53472)">
    <g
       id="g76"
       transform="matrix(0.07800463,0,0,0.07752737,231.93407,470.03183)">
      <path
         style="color:#000000;clip-rule:nonzero;display:inline;overflow:visible;visibility:visible;opacity:1;isolation:auto;mix-blend-mode:normal;color-interpolation:sRGB;color-interpolation-filters:linearRGB;solid-color:#000000;solid-opacity:1;fill:#4e910f;fill-opacity:1;fill-rule:evenodd;stroke:#000000;stroke-width:2.5;stroke-linecap:butt;stroke-linejoin:miter;stroke-miterlimit:4;stroke-dasharray:none;stroke-dashoffset:0;stroke-opacity:1;color-rendering:auto;image-rendering:auto;shape-rendering:auto;text-rendering:auto;enable-background:accumulate"
         d="m 349.28571,581.64792 34.28572,1.42857 10,23.57143 L 360,617.3622 l -23.57143,-20 z"
         id="path5314"
         inkscape:connector-curvature="0" />
      <path
         style="color:#000000;clip-rule:nonzero;display:inline;overflow:visible;visibility:visible;opacity:1;isolation:auto;mix-blend-mode:normal;color-interpolation:sRGB;color-interpolation-filters:linearRGB;solid-color:#000000;solid-opacity:1;fill:#4e910f;fill-opacity:1;fill-rule:evenodd;stroke:#000000;stroke-width:2.5;stroke-linecap:butt;stroke-linejoin:miter;stroke-miterlimit:4;stroke-dasharray:none;stroke-dashoffset:0;stroke-opacity:1;color-rendering:auto;image-rendering:auto;shape-rendering:auto;text-rendering:auto;enable-background:accumulate"
         d="m 299.28571,593.07649 27.85715,-5 20,25.71429 -30.71429,17.14285 z"
         id="path5307"
         inkscape:connector-curvature="0" />
      <path
         style="color:#000000;clip-rule:nonzero;display:inline;overflow:visible;visibility:visible;opacity:1;isolation:auto;mix-blend-mode:normal;color-interpolation:sRGB;color-interpolation-filters:linearRGB;solid-color:#000000;solid-opacity:1;fill:#4e910f;fill-opacity:1;fill-rule:evenodd;stroke:#000000;stroke-width:2.5;stroke-linecap:butt;stroke-linejoin:miter;stroke-miterlimit:4;stroke-dasharray:none;stroke-dashoffset:0;stroke-opacity:1;color-rendering:auto;image-rendering:auto;shape-rendering:auto;text-rendering:auto;enable-background:accumulate"
         d="m 277.14286,654.50506 -24.28572,0.71429 0.71429,-18.57143 7.85714,-13.57143 7.85714,-15.71429 37.85715,15 0.71428,25 z"
         id="path5300"
         inkscape:connector-curvature="0" />
      <path
         style="color:#000000;clip-rule:nonzero;display:inline;overflow:visible;visibility:visible;opacity:1;isolation:auto;mix-blend-mode:normal;color-interpolation:sRGB;color-interpolation-filters:linearRGB;solid-color:#000000;solid-opacity:1;fill:#4e910f;fill-opacity:1;fill-rule:evenodd;stroke:#000000;stroke-width:2.5;stroke-linecap:butt;stroke-linejoin:miter;stroke-miterlimit:4;stroke-dasharray:none;stroke-dashoffset:0;stroke-opacity:1;color-rendering:auto;image-rendering:auto;shape-rendering:auto;text-rendering:auto;enable-background:accumulate"
         d="m 405,688.79078 -19.28571,-45 -23.57143,6.42857 -16.42857,34.28571 37.14285,16.42857 z"
         id="path5286"
         inkscape:connector-curvature="0" />
      <path
         style="color:#000000;clip-rule:nonzero;display:inline;overflow:visible;visibility:visible;opacity:1;isolation:auto;mix-blend-mode:normal;color-interpolation:sRGB;color-interpolation-filters:linearRGB;solid-color:#000000;solid-opacity:1;fill:#4e910f;fill-opacity:1;fill-rule:evenodd;stroke:#000000;stroke-width:2.5;stroke-linecap:butt;stroke-linejoin:miter;stroke-miterlimit:4;stroke-dasharray:none;stroke-dashoffset:0;stroke-opacity:1;color-rendering:auto;image-rendering:auto;shape-rendering:auto;text-rendering:auto;enable-background:accumulate"
         d="m 412.14286,624.50506 21.42857,-12.14286 20.71428,20.71429 -22.85714,20.71429 -10.71428,19.28571 -27.85715,-11.42857 -24.28571,-15.71429 -15,14.28572 -17.85714,-11.42857 V 619.50506 L 365,610.21935 l 25.71429,-4.28572 z"
         id="path5279"
         inkscape:connector-curvature="0" />
      <path
         style="color:#000000;clip-rule:nonzero;display:inline;overflow:visible;visibility:visible;opacity:1;isolation:auto;mix-blend-mode:normal;color-interpolation:sRGB;color-interpolation-filters:linearRGB;solid-color:#000000;solid-opacity:1;fill:#4e910f;fill-opacity:1;fill-rule:evenodd;stroke:#000000;stroke-width:2.5;stroke-linecap:butt;stroke-linejoin:miter;stroke-miterlimit:4;stroke-dasharray:none;stroke-dashoffset:0;stroke-opacity:1;color-rendering:auto;image-rendering:auto;shape-rendering:auto;text-rendering:auto;enable-background:accumulate"
         d="m 290.71429,649.50506 10.71428,-20.71428 24.28572,-7.85715 16.42857,15 -7.14286,19.28572 -25,5.71428 z"
         id="path5251"
         inkscape:connector-curvature="0" />
      <path
         style="color:#000000;clip-rule:nonzero;display:inline;overflow:visible;visibility:visible;opacity:1;isolation:auto;mix-blend-mode:normal;color-interpolation:sRGB;color-interpolation-filters:linearRGB;solid-color:#000000;solid-opacity:1;fill:#6d3b09;fill-opacity:1;fill-rule:evenodd;stroke:#000000;stroke-width:2.5;stroke-linecap:butt;stroke-linejoin:miter;stroke-miterlimit:4;stroke-dasharray:none;stroke-dashoffset:0;stroke-opacity:1;color-rendering:auto;image-rendering:auto;shape-rendering:auto;text-rendering:auto;enable-background:accumulate"
         d="m 334.82216,704.00642 11.87269,-15.49635 -22.24707,-10.86932 -52.22623,7.58124 42.96028,-16.00482 -38.74849,-21.05896 -8.42358,-53.06858 14.3201,48.85679 41.27555,24.42839 10.95066,-29.48255 -5.8965,29.48255 27.79783,16.00481 -21.05897,-30.32489 -30.32491,-28.6402 -18.53187,-1.68472 h 26.1131 l -2.52707,-43.80262 8.42358,49.69914 30.32491,34.53669 -8.42358,-46.32971 -37.90613,-28.6402 42.11792,26.11312 -5.05416,-47.17207 9.26595,45.48736 1.68471,36.22142 17.68953,-62.33454 -32.00961,-58.96509 34.53668,53.91094 0.84237,-39.59084 3.36944,53.91094 -4.21181,16.00481 21.90133,-10.95066 1.68472,-42.96028 3.36942,44.64499 h 14.3201 l -21.05896,4.21179 -26.95547,14.3201 -7.58122,28.64018 4.21179,24.4284 32.85197,-24.4284 -16.84716,-33.69433 15.16245,17.68952 -6.73887,-46.3297 10.10831,47.17207 4.21179,11.79302 32.00963,-17.68953 -41.27557,29.48255 17.68952,0.84235 -25.27075,4.21179 -15.16245,16.84718 40.4332,9.26594 26.95547,-29.48255 -24.42839,34.53671 5.05415,10.10829 -13.47773,-11.79302 -34.5367,-5.89651 4.9711,8.2541 4.29484,11.12014 -15.32681,-7.8848 -3.36894,6.36703 -10.26986,-5.72448 z"
         id="path5199"
         inkscape:connector-curvature="0"
         sodipodi:nodetypes="cccccccccccccccccccccccccccccccccccccccccccccccccccccccccccccc" />
      <path
         style="color:#000000;clip-rule:nonzero;display:inline;overflow:visible;visibility:visible;opacity:1;isolation:auto;mix-blend-mode:normal;color-interpolation:sRGB;color-interpolation-filters:linearRGB;solid-color:#000000;solid-opacity:1;fill:#4e910f;fill-opacity:1;fill-rule:evenodd;stroke:#000000;stroke-width:2.5;stroke-linecap:butt;stroke-linejoin:miter;stroke-miterlimit:4;stroke-dasharray:none;stroke-dashoffset:0;stroke-opacity:1;color-rendering:auto;image-rendering:auto;shape-rendering:auto;text-rendering:auto;enable-background:accumulate"
         d="m 288.85715,623.79078 -4.28572,25.71428 62.85714,30.71429 17.85714,-14.28572 -17.14285,-15 -19.28571,-19.28571 z"
         id="path5293"
         inkscape:connector-curvature="0"
         sodipodi:nodetypes="ccccccc" />
      <path
         style="color:#000000;clip-rule:nonzero;display:inline;overflow:visible;visibility:visible;opacity:1;isolation:auto;mix-blend-mode:normal;color-interpolation:sRGB;color-interpolation-filters:linearRGB;solid-color:#000000;solid-opacity:1;fill:#4e910f;fill-opacity:1;fill-rule:evenodd;stroke:#000000;stroke-width:2.5;stroke-linecap:butt;stroke-linejoin:miter;stroke-miterlimit:4;stroke-dasharray:none;stroke-dashoffset:0;stroke-opacity:1;color-rendering:auto;image-rendering:auto;shape-rendering:auto;text-rendering:auto;enable-background:accumulate"
         d="m 323.57143,542.3622 -4.28572,-25 36.42858,-2.14285 3.57142,22.85714 10,-26.42857 20.71429,17.85714 -5.71429,24.28572 23.57143,-1.42858 8.57143,20 -22.14286,15.71429 -35.71428,10 -10.71429,-28.57143 -17.14285,-8.57143 z"
         id="path5265"
         inkscape:connector-curvature="0" />
      <path
         style="color:#000000;clip-rule:nonzero;display:inline;overflow:visible;visibility:visible;opacity:1;isolation:auto;mix-blend-mode:normal;color-interpolation:sRGB;color-interpolation-filters:linearRGB;solid-color:#000000;solid-opacity:1;fill:#4e910f;fill-opacity:1;fill-rule:evenodd;stroke:#000000;stroke-width:2.5;stroke-linecap:butt;stroke-linejoin:miter;stroke-miterlimit:4;stroke-dasharray:none;stroke-dashoffset:0;stroke-opacity:1;color-rendering:auto;image-rendering:auto;shape-rendering:auto;text-rendering:auto;enable-background:accumulate"
         d="m 401.42857,641.64792 c 2.85714,-1.42857 -8.57143,-18.57143 -8.57143,-18.57143 l 7.85715,-25.71429 20.71428,6.42858 -0.71428,16.42857 h 12.14285 l 12.85715,8.57143 -18.57143,14.28571 12.14285,15.71429 L 400,665.93363 Z"
         id="path5321"
         inkscape:connector-curvature="0" />
      <path
         style="color:#000000;clip-rule:nonzero;display:inline;overflow:visible;visibility:visible;opacity:1;isolation:auto;mix-blend-mode:normal;color-interpolation:sRGB;color-interpolation-filters:linearRGB;solid-color:#000000;solid-opacity:1;fill:#4e910f;fill-opacity:1;fill-rule:evenodd;stroke:#000000;stroke-width:2.5;stroke-linecap:butt;stroke-linejoin:miter;stroke-miterlimit:4;stroke-dasharray:none;stroke-dashoffset:0;stroke-opacity:1;color-rendering:auto;image-rendering:auto;shape-rendering:auto;text-rendering:auto;enable-background:accumulate"
         d="m 383.57227,568.07617 -12.14454,20 10,12.85742 -12.85546,5 0.71289,17.85743 14.28711,10.71484 -9.28711,9.28516 -10,-6.42969 -14.28516,15 -13.57227,12.85742 -17.14257,-5 -7.85743,-10 -14.28515,1.42969 L 290,634.50586 H 272.14258 L 265,642.36133 l 10,13.57226 10,9.28516 -17.85742,2.85742 -13.57031,8.57227 16.42773,20 22.14258,2.14258 1.42969,-11.42969 h 18.57031 l 9.28515,-14.28516 15,6.42969 2.14454,13.57031 17.85546,1.42969 14.28711,-12.14453 12.14258,14.28711 2.85742,-17.14258 12.14258,9.28516 7.14258,22.14257 30,3.57227 V 695.21875 L 431.42773,680.93359 455,664.50586 l -12.85742,-21.42969 -10.71485,6.42969 -15.71289,7.85547 3.57032,-12.85547 -17.14258,-11.42969 3.57226,-10 -5,-9.28515 12.85743,-6.42969 0.71289,-20.71289 z m -7.14454,85 7.14454,14.28516 -12.85743,-2.14258 z"
         id="path5229"
         inkscape:connector-curvature="0"
         sodipodi:nodetypes="ccccccccccccccccccccccccccccccccccccccccccccccccccc" />
      <path
         style="color:#000000;clip-rule:nonzero;display:inline;overflow:visible;visibility:visible;opacity:1;isolation:auto;mix-blend-mode:normal;color-interpolation:sRGB;color-interpolation-filters:linearRGB;solid-color:#000000;solid-opacity:1;fill:#4e910f;fill-opacity:1;fill-rule:evenodd;stroke:#000000;stroke-width:2.5;stroke-linecap:butt;stroke-linejoin:miter;stroke-miterlimit:4;stroke-dasharray:none;stroke-dashoffset:0;stroke-opacity:1;color-rendering:auto;image-rendering:auto;shape-rendering:auto;text-rendering:auto;enable-background:accumulate"
         d="m 267.14286,623.07649 -13.57143,-17.85714 5.71428,-17.14286 13.57143,-13.57143 7.14286,27.14286 14.28571,5 10.71429,12.14286 -7.14286,12.14285 -16.42857,-3.57143 z"
         id="path5244"
         inkscape:connector-curvature="0" />
      <path
         style="color:#000000;clip-rule:nonzero;display:inline;overflow:visible;visibility:visible;opacity:1;isolation:auto;mix-blend-mode:normal;color-interpolation:sRGB;color-interpolation-filters:linearRGB;solid-color:#000000;solid-opacity:1;fill:#4e910f;fill-opacity:1;fill-rule:evenodd;stroke:#000000;stroke-width:2.5;stroke-linecap:butt;stroke-linejoin:miter;stroke-miterlimit:4;stroke-dasharray:none;stroke-dashoffset:0;stroke-opacity:1;color-rendering:auto;image-rendering:auto;shape-rendering:auto;text-rendering:auto;enable-background:accumulate"
         d="m 347.85714,629.50506 -31.42857,12.85714 -20.71428,-7.14285 -7.85715,-22.85715 2.85715,-42.14285 21.42857,-15 9.28571,36.42857 -2.85714,11.42857 7.14285,5.71428 9.28572,5.00001 z"
         id="path5258"
         inkscape:connector-curvature="0"
         sodipodi:nodetypes="ccccccccccc" />
      <path
         style="color:#000000;clip-rule:nonzero;display:inline;overflow:visible;visibility:visible;opacity:1;isolation:auto;mix-blend-mode:normal;color-interpolation:sRGB;color-interpolation-filters:linearRGB;solid-color:#000000;solid-opacity:1;fill:#4e910f;fill-opacity:1;fill-rule:evenodd;stroke:#000000;stroke-width:2.5;stroke-linecap:butt;stroke-linejoin:miter;stroke-miterlimit:4;stroke-dasharray:none;stroke-dashoffset:0;stroke-opacity:1;color-rendering:auto;image-rendering:auto;shape-rendering:auto;text-rendering:auto;enable-background:accumulate"
         d="m 325,613.07649 -19.28571,-15 5,-22.85714 17.85714,6.42857 0.71428,-25.71429 19.28572,-5.71428 16.42857,20 -11.42857,26.42857 23.57143,10.71428 -11.42857,21.42858 L 335,628.07649 Z"
         id="path5272"
         inkscape:connector-curvature="0" />
      <path
         style="color:#000000;clip-rule:nonzero;display:inline;overflow:visible;visibility:visible;opacity:1;isolation:auto;mix-blend-mode:normal;color-interpolation:sRGB;color-interpolation-filters:linearRGB;solid-color:#000000;solid-opacity:1;fill:#000000;fill-opacity:0.235669;fill-rule:evenodd;stroke:none;stroke-width:1px;stroke-linecap:butt;stroke-linejoin:miter;stroke-miterlimit:4;stroke-dasharray:none;stroke-dashoffset:0;stroke-opacity:1;color-rendering:auto;image-rendering:auto;shape-rendering:auto;text-rendering:auto;enable-background:accumulate"
         d="m 253.05123,676.59286 c 2.14286,0.71429 19.64286,8.21429 19.64286,8.21429 l 12.14285,1.07143 4.28572,-10 8.92857,-1.78572 -14.28571,-9.28571 0.71428,-1.78572 -10,-8.21428 -8.21428,-12.85715 8.21428,4.64286 9.28572,3.57143 5.35714,-6.42857 1.42857,-9.28572 6.78571,16.78572 -5,7.85714 5.71429,7.14286 13.21429,-3.21429 1.42857,-11.07143 10,9.64286 -4.64286,4.64286 18.73731,3.79859 16.56062,1.77185 8.69182,-9.64485 8.40924,11.52819 8.00888,7.76775 7.49972,-9.25246 -16.3348,-7.11419 -10.17851,-14.99734 -14.17806,7.47076 18.72061,-19.87927 10.47551,6.62388 8.10465,-9.90331 -13.12664,-12.14598 8.23596,-14.9686 -3.77887,-1.73662 7.81363,-3.85523 -9.17059,-13.88241 20.7491,4.46714 20.95859,-5.26471 -0.68682,19.78436 -12.24574,6.76817 3.78147,9.92144 -2.68705,10.19669 6.5566,4.42886 -21.98945,-0.70631 -10.27373,13.63404 -4.28538,14.76844 11.43236,1.90033 -6.73998,-15.71371 21.21036,9.09305 6.6715,-8.99672 13.26503,-7.56894 -3.36433,14.86114 9.08467,-5.00042 18.6638,0.98309 0.36036,-10.07922 10.81235,19.2455 -22.58089,15.86108 3.78413,15.11314 -0.40993,18.3875 -28.78324,-2.97669 -6.71777,-21.39462 -13.70899,-11.45902 -2.6421,18.27872 -12.50368,-14.43575 -12.84046,12.7427 -17.875,-1.51453 -1.8434,-13.33408 -16.07143,-7.14286 -8.92857,14.28571 -18.92857,-0.35714 -1.07143,12.14286 -22.14286,-2.5 z"
         id="path5328"
         inkscape:connector-curvature="0"
         sodipodi:nodetypes="cccccccccccccccccccccccccccccccccccccccccccccccccccccccccccccccccccccccccc" />
      <path
         style="color:#000000;clip-rule:nonzero;display:inline;overflow:visible;visibility:visible;opacity:1;isolation:auto;mix-blend-mode:normal;color-interpolation:sRGB;color-interpolation-filters:linearRGB;solid-color:#000000;solid-opacity:1;fill:#000000;fill-opacity:0.235669;fill-rule:evenodd;stroke:none;stroke-width:1px;stroke-linecap:butt;stroke-linejoin:miter;stroke-miterlimit:4;stroke-dasharray:none;stroke-dashoffset:0;stroke-opacity:1;color-rendering:auto;image-rendering:auto;shape-rendering:auto;text-rendering:auto;enable-background:accumulate"
         d="m 264.28571,636.29078 5.35715,-12.5 10.71428,2.5 7.14286,2.85714 v 5 l -15.35714,0.35714 -7.14286,7.5 8.57143,11.78572 -20.35714,1.07142 1.42857,-10.35714 z"
         id="path5387"
         inkscape:connector-curvature="0"
         sodipodi:nodetypes="ccccccccccc" />
      <path
         style="color:#000000;clip-rule:nonzero;display:inline;overflow:visible;visibility:visible;opacity:1;isolation:auto;mix-blend-mode:normal;color-interpolation:sRGB;color-interpolation-filters:linearRGB;solid-color:#000000;solid-opacity:1;fill:#000000;fill-opacity:0.235669;fill-rule:evenodd;stroke:none;stroke-width:1px;stroke-linecap:butt;stroke-linejoin:miter;stroke-miterlimit:4;stroke-dasharray:none;stroke-dashoffset:0;stroke-opacity:1;color-rendering:auto;image-rendering:auto;shape-rendering:auto;text-rendering:auto;enable-background:accumulate"
         d="m 382.34274,701.08166 -7.82868,-4.04061 2.27284,10.35406 -16.16244,-8.58629 -2.27284,6.56598 -10.95028,-5.24964 -10.05449,2.27446 5.4642,-7.66879 13.52249,0.0502 3.78584,-3.04332 10.35407,-9.09138 12.6269,14.39468 2.27285,-17.67767 12.6269,9.59645 c 0,0 3.283,3.78807 1.01016,3.78807 -2.27285,0 -16.66752,8.33376 -16.66752,8.33376 z"
         id="path5394"
         inkscape:connector-curvature="0"
         sodipodi:nodetypes="ccccccccccccccsc" />
      <path
         style="color:#000000;clip-rule:nonzero;display:inline;overflow:visible;visibility:visible;opacity:1;isolation:auto;mix-blend-mode:normal;color-interpolation:sRGB;color-interpolation-filters:linearRGB;solid-color:#000000;solid-opacity:1;fill:#000000;fill-opacity:0.235669;fill-rule:evenodd;stroke:none;stroke-width:1px;stroke-linecap:butt;stroke-linejoin:miter;stroke-miterlimit:4;stroke-dasharray:none;stroke-dashoffset:0;stroke-opacity:1;color-rendering:auto;image-rendering:auto;shape-rendering:auto;text-rendering:auto;enable-background:accumulate"
         d="m 372.24121,663.70601 4.29315,-8.58629 6.06092,11.36421 z"
         id="path5401"
         inkscape:connector-curvature="0" />
      <path
         style="color:#000000;clip-rule:nonzero;display:inline;overflow:visible;visibility:visible;opacity:1;isolation:auto;mix-blend-mode:normal;color-interpolation:sRGB;color-interpolation-filters:linearRGB;solid-color:#000000;solid-opacity:1;fill:#000000;fill-opacity:0.235669;fill-rule:evenodd;stroke:none;stroke-width:1px;stroke-linecap:butt;stroke-linejoin:miter;stroke-miterlimit:4;stroke-dasharray:none;stroke-dashoffset:0;stroke-opacity:1;color-rendering:auto;image-rendering:auto;shape-rendering:auto;text-rendering:auto;enable-background:accumulate"
         d="m 349.51278,651.83672 c -1.26269,-0.75761 -16.92005,-16.16244 -16.92005,-16.16244 l 17.17259,-6.56599 15.65736,0.25254 4.29315,-5.55584 13.38452,10.35406 -8.83883,9.09137 -10.6066,-5.80837 z"
         id="path5408"
         inkscape:connector-curvature="0" />
      <path
         style="color:#000000;clip-rule:nonzero;display:inline;overflow:visible;visibility:visible;opacity:1;isolation:auto;mix-blend-mode:normal;color-interpolation:sRGB;color-interpolation-filters:linearRGB;solid-color:#000000;solid-opacity:1;fill:#000000;fill-opacity:0.235669;fill-rule:evenodd;stroke:none;stroke-width:1px;stroke-linecap:butt;stroke-linejoin:miter;stroke-miterlimit:4;stroke-dasharray:none;stroke-dashoffset:0;stroke-opacity:1;color-rendering:auto;image-rendering:auto;shape-rendering:auto;text-rendering:auto;enable-background:accumulate"
         d="m 431.33514,648.80626 -15.15229,7.82868 3.53553,-12.6269 -17.42513,-11.36422 3.03046,-10.6066 -4.54569,-7.82868 12.62691,-6.06092 8.33376,-3.53553 -1.01015,15.9099 4.29314,0.50508 -7.57614,6.56599 13.13198,-0.50508 7.82869,-2.77792 7.07106,4.54569 -18.18274,13.8896 z"
         id="path5415"
         inkscape:connector-curvature="0" />
      <path
         style="color:#000000;clip-rule:nonzero;display:inline;overflow:visible;visibility:visible;opacity:1;isolation:auto;mix-blend-mode:normal;color-interpolation:sRGB;color-interpolation-filters:linearRGB;solid-color:#000000;solid-opacity:1;fill:#000000;fill-opacity:0.235669;fill-rule:evenodd;stroke:none;stroke-width:1px;stroke-linecap:butt;stroke-linejoin:miter;stroke-miterlimit:4;stroke-dasharray:none;stroke-dashoffset:0;stroke-opacity:1;color-rendering:auto;image-rendering:auto;shape-rendering:auto;text-rendering:auto;enable-background:accumulate"
         d="m 432.85037,619.76438 4.54568,-3.53554 16.92006,16.92006 -11.36422,10.10152 -10.85914,5.3033 -4.54568,-5.55583 18.43528,-14.39468 z"
         id="path5422"
         inkscape:connector-curvature="0" />
      <path
         style="color:#000000;clip-rule:nonzero;display:inline;overflow:visible;visibility:visible;opacity:1;isolation:auto;mix-blend-mode:normal;color-interpolation:sRGB;color-interpolation-filters:linearRGB;solid-color:#000000;solid-opacity:1;fill:#000000;fill-opacity:0.235669;fill-rule:evenodd;stroke:none;stroke-width:1px;stroke-linecap:butt;stroke-linejoin:miter;stroke-miterlimit:4;stroke-dasharray:none;stroke-dashoffset:0;stroke-opacity:1;color-rendering:auto;image-rendering:auto;shape-rendering:auto;text-rendering:auto;enable-background:accumulate"
         d="m 381.58512,600.57148 -9.59644,4.04061 -18.68783,-7.57615 12.12183,-27.02158 -16.16244,-19.69797 -19.71147,5.30393 -2.47422,-4.11555 9.26678,-8.62782 19.39392,-18.90709 2.79409,17.11232 3.98888,-8.37768 -1.38869,21.6525 9.09138,-6.31345 7.82868,1.26269 11.36421,-19.44544 -4.79822,24.4962 15.9099,9.34391 7.82869,-10.6066 7.82868,19.1929 -11.61676,7.57614 -21.2132,-12.37437 -11.86929,20.70813 z"
         id="path5429"
         inkscape:connector-curvature="0"
         sodipodi:nodetypes="ccccccccccccccccccccccc" />
      <path
         style="color:#000000;clip-rule:nonzero;display:inline;overflow:visible;visibility:visible;opacity:1;isolation:auto;mix-blend-mode:normal;color-interpolation:sRGB;color-interpolation-filters:linearRGB;solid-color:#000000;solid-opacity:1;fill:#000000;fill-opacity:0.235669;fill-rule:evenodd;stroke:none;stroke-width:1px;stroke-linecap:butt;stroke-linejoin:miter;stroke-miterlimit:4;stroke-dasharray:none;stroke-dashoffset:0;stroke-opacity:1;color-rendering:auto;image-rendering:auto;shape-rendering:auto;text-rendering:auto;enable-background:accumulate"
         d="m 357.84654,561.42807 -4.79823,14.39467 -12.12183,13.8896 -12.37436,-15.40483 v 7.57615 l 0.75761,9.84898 -5.80838,6.81853 -18.18274,-1.01015 20.96066,15.65737 9.09138,14.14213 30.39697,0.6837 10.38561,-21.07804 -19.47527,13.87846 -22.70797,-0.0206 -3.14503,-14.67677 10.35406,-7.32361 17.67767,0.50508 -5.3033,-2.52538 11.36422,-27.02158 z"
         id="path5436"
         inkscape:connector-curvature="0"
         sodipodi:nodetypes="cccccccccccccccccccc" />
      <path
         style="color:#000000;clip-rule:nonzero;display:inline;overflow:visible;visibility:visible;opacity:1;isolation:auto;mix-blend-mode:normal;color-interpolation:sRGB;color-interpolation-filters:linearRGB;solid-color:#000000;solid-opacity:1;fill:#000000;fill-opacity:0.235669;fill-rule:evenodd;stroke:none;stroke-width:1px;stroke-linecap:butt;stroke-linejoin:miter;stroke-miterlimit:4;stroke-dasharray:none;stroke-dashoffset:0;stroke-opacity:1;color-rendering:auto;image-rendering:auto;shape-rendering:auto;text-rendering:auto;enable-background:accumulate"
         d="m 288.14601,634.15905 c 0,0 -1.26269,-6.56599 0.25254,-5.80838 1.51523,0.75762 5.3033,1.26269 5.3033,1.26269 l 3.283,6.06092 19.44544,6.81853 17.17259,-7.07107 16.16244,17.17259 -13.63706,13.38453 -16.41498,-5.80838 -8.33376,-10.35407 -14.14213,2.27285 z"
         id="path5443"
         inkscape:connector-curvature="0" />
      <path
         style="color:#000000;clip-rule:nonzero;display:inline;overflow:visible;visibility:visible;opacity:1;isolation:auto;mix-blend-mode:normal;color-interpolation:sRGB;color-interpolation-filters:linearRGB;solid-color:#000000;solid-opacity:1;fill:#000000;fill-opacity:0.235669;fill-rule:evenodd;stroke:none;stroke-width:1px;stroke-linecap:butt;stroke-linejoin:miter;stroke-miterlimit:4;stroke-dasharray:none;stroke-dashoffset:0;stroke-opacity:1;color-rendering:auto;image-rendering:auto;shape-rendering:auto;text-rendering:auto;enable-background:accumulate"
         d="m 312.13714,557.38746 -10.85914,33.84011 -0.25254,15.9099 -3.78807,14.39467 -9.59645,-8.83883 8.33376,22.72843 21.2132,7.32361 30.55711,-13.63706 -13.13198,-1.26269 -9.09137,-14.89975 -20.20305,-14.89975 5.3033,-22.98097 6.81853,2.27284 z"
         id="path5450"
         inkscape:connector-curvature="0" />
      <path
         style="color:#000000;clip-rule:nonzero;display:inline;overflow:visible;visibility:visible;opacity:1;isolation:auto;mix-blend-mode:normal;color-interpolation:sRGB;color-interpolation-filters:linearRGB;solid-color:#000000;solid-opacity:1;fill:#000000;fill-opacity:0.235669;fill-rule:evenodd;stroke:none;stroke-width:1px;stroke-linecap:butt;stroke-linejoin:miter;stroke-miterlimit:4;stroke-dasharray:none;stroke-dashoffset:0;stroke-opacity:1;color-rendering:auto;image-rendering:auto;shape-rendering:auto;text-rendering:auto;enable-background:accumulate"
         d="m 274.00388,580.11589 -1.01015,25.75889 10.85914,-2.77792 -3.78808,-2.02031 z"
         id="path5457"
         inkscape:connector-curvature="0" />
      <path
         style="color:#000000;clip-rule:nonzero;display:inline;overflow:visible;visibility:visible;opacity:1;isolation:auto;mix-blend-mode:normal;color-interpolation:sRGB;color-interpolation-filters:linearRGB;solid-color:#000000;solid-opacity:1;fill:#000000;fill-opacity:0.235669;fill-rule:evenodd;stroke:none;stroke-width:1px;stroke-linecap:butt;stroke-linejoin:miter;stroke-miterlimit:4;stroke-dasharray:none;stroke-dashoffset:0;stroke-opacity:1;color-rendering:auto;image-rendering:auto;shape-rendering:auto;text-rendering:auto;enable-background:accumulate"
         d="m 254.3059,606.12732 16.16244,8.33376 16.92006,-2.27285 6.81853,18.43529 -27.52666,-7.32361 z"
         id="path5464"
         inkscape:connector-curvature="0" />
    </g>
  </g>
</svg>
