<?xml version="1.0" encoding="UTF-8" standalone="no"?>
<svg
   xmlns:dc="http://purl.org/dc/elements/1.1/"
   xmlns:cc="http://creativecommons.org/ns#"
   xmlns:rdf="http://www.w3.org/1999/02/22-rdf-syntax-ns#"
   xmlns:svg="http://www.w3.org/2000/svg"
   xmlns="http://www.w3.org/2000/svg"
   version="1.1"
   id="Réteg_1"
   x="0px"
   y="0px"
   width="16px"
   height="16px"
   viewBox="0 0 16 16"
   style="enable-background:new 0 0 16 16;"
   xml:space="preserve"><metadata
   id="metadata20"><rdf:RDF><cc:Work
       rdf:about=""><dc:format>image/svg+xml</dc:format><dc:type
         rdf:resource="http://purl.org/dc/dcmitype/StillImage" /><dc:title></dc:title></cc:Work></rdf:RDF></metadata><defs
   id="defs18" />
<g
   id="halo">
	
		<line
   id="line2204-5"
   style="fill:none;stroke:#2090cf;stroke-width:2;stroke-miterlimit:10;stroke-opacity:1"
   x1="0.9"
   y1="5.8"
   x2="0.9"
   y2="14.2" />
	<path
   id="path2208-7"
   style="fill:#2090cf;fill-opacity:1"
   d="M4.1-0.7C3.2-0.6,1.6-0.1,0.8,1C-0.8,3-0.6,6.5,0,6.9c0.5,0.3,2.9-0.6,4.3-2.2   l8.3,4.1V14h0.9V9.9H16V8.8h-1.2l-0.5-1.2l0.5-0.9L5.4,2c0.1-1.1-0.3-2.3-0.6-2.6C4.6-0.7,4.4-0.7,4.1-0.7z" />
	<polyline
   id="polyline2210-3"
   style="fill:none;stroke:#2090cf;stroke-width:2.25;stroke-miterlimit:10;stroke-opacity:1"
   points="11.4,14.8    7.8,5.5 7.6,5.3 5.4,14.8  " />
</g>
<line
   id="line2204"
   style="fill:none;stroke:#7B6A58;stroke-width:0.45;stroke-miterlimit:10;"
   x1="0.9"
   y1="5.8"
   x2="0.9"
   y2="14.2" />
<rect
   id="rect2206"
   x="0.14999998"
   y="13.4"
   style="fill:#634e42"
   width="1.5"
   height="0.89999998" />
<path
   id="path2208"
   style="fill:#3C3C3B;"
   d="M0.6,6C0.1,5.7,0.1,3.1,1.3,1.6C2.1,0.5,3.8,0,4.2,0.3s0.5,2.1,0.1,2.8  C3.4,4.8,1.1,6.3,0.6,6z" />
<polyline
   id="polyline2210"
   style="fill:none;stroke:#706F6F;stroke-width:1.25;stroke-miterlimit:10;"
   points="11.4,14.8 7.8,5.5   7.6,5.3 5.4,14.8 " />
<line
   id="line2212"
   style="fill:none;stroke:#634E42;stroke-width:0.75;stroke-miterlimit:10;"
   x1="13.2"
   y1="7.3"
   x2="14.6"
   y2="10.7" />
<line
   style="fill:none;stroke:#3C3C3B;stroke-miterlimit:10;"
   x1="4"
   y1="3"
   x2="13.4"
   y2="7.5"
   id="line11" />
<rect
   id="rect2216"
   y="14"
   style="fill:#7D4E24;"
   width="16"
   height="2" />
<rect
   id="rect2218"
   x="13.5"
   y="9.9"
   style="fill:#575756;"
   width="2.5"
   height="4.1" />
</svg>
