<?xml version="1.0" encoding="UTF-8" standalone="no"?>
<svg xmlns:svg="http://www.w3.org/2000/svg" xmlns="http://www.w3.org/2000/svg" height="768pt" id="svg2" width="768pt" version="1.1">
  <g id="g5840" transform="matrix(1.340218,0,0,1.340218,-538.72682,18.284665)">
    <rect
       style="opacity:1;fill:#ccff00;fill-opacity:1;fill-rule:nonzero;stroke-width:1.02667701;stroke-miterlimit:4;stroke-dasharray:none"
       id="rect4512"
       width="764.05481"
       height="764.05481"
       x="401.96954"
       y="-13.643053"
       rx="67.112038"
       ry="4.2669697" />
    <path
       d="m 796.8125,295.5 c -0.87575,0.0895 -1.79246,0.40048 -2.75,0.9375 -6.26356,3.51284 -1.11629,104.87666 -27.09375,196.4375 C 757.99251,468.07073 723.97814,435.17912 677.1875,408.96875 613.94367,373.54191 551.37941,363.73074 537.53125,387.0625 523.68311,410.39425 563.75619,458.07317 627,493.5 c 53.2999,29.85661 106.01238,41.44166 129.59375,30.40625 -6.78395,17.66096 -14.85325,34.54151 -24.90625,49.53125 -65.83589,98.16593 -173.25295,73.18272 -176.15625,78.6875 -30.59699,58.01098 126.47663,40.91594 192.3125,-57.25 15.71762,-23.43609 28.2892,-53.68766 37.9375,-85.90625 0.23459,0.41062 0.35958,0.88868 0.625,1.28125 15.19653,22.4768 75.41993,6.56112 134.4375,-35.53125 59.01758,-42.09238 94.57155,-94.49195 79.37505,-116.96875 -15.19651,-22.47681 -75.41997,-6.56113 -134.43755,35.53125 -29.57094,21.09053 -53.26506,44.76238 -67.625,65.96875 17.14781,-84.21617 15.73377,-165.49593 -1.34375,-163.75 z"
       id="path2195"
       style="fill:#35e23e;fill-opacity:1;fill-rule:nonzero;stroke:#12892d;stroke-width:17.00499916;stroke-linecap:round;stroke-linejoin:round;stroke-miterlimit:4;stroke-dasharray:none;stroke-dashoffset:0;stroke-opacity:1" />
    <path
       d="m 521.87211,275.23304 c -43.01606,-29.58772 2.17555,-28.10945 -47.10459,-10.86759 -26.51418,9.27664 3.60143,50.21506 11.5895,23.28462 14.8469,-50.05381 27.40597,-6.61722 -4.22043,-48.15739 -17.01594,-22.34985 -46.64446,18.94247 -18.56363,18.21761 52.19194,-1.34723 14.76226,24.01979 44.49622,-18.89531 15.99775,-23.08961 -32.42929,-38.50798 -23.06246,-12.02552 17.40949,49.22117 -18.28239,21.46227 31.7206,36.47944 26.9031,8.07969 26.60206,-42.7417 4.31025,-25.64979 -41.43228,31.7676 -26.0614,-10.75537 -24.8918,41.44086 0.62927,28.08312 48.87026,12.09215 25.72634,-3.82693 z"
       id="path1549"
       style="fill:#fa9806;fill-opacity:1;fill-rule:nonzero;stroke:#f58006;stroke-width:4.02476978;stroke-linecap:butt;stroke-linejoin:round;stroke-miterlimit:4;stroke-dashoffset:0;stroke-opacity:1"
       transform="matrix(4.224992,0,0,4.224992,-1287.368,-859.238)" />
    <circle
       id="path1551"
       style="fill:#fadc06;fill-opacity:1;fill-rule:nonzero;stroke:#f58006;stroke-width:4.02476978;stroke-linecap:butt;stroke-linejoin:round;stroke-miterlimit:4;stroke-dashoffset:0;stroke-opacity:1"
       transform="matrix(4.224992,0,0,4.224992,-1440.171,-885.7572)"
       cx="530.98846"
       cy="261.93216"
       r="8.8174267" />
  </g>
</svg>
