<?xml version="1.0" encoding="UTF-8" standalone="no"?>
<!-- Created with Inkscape (http://www.inkscape.org/) -->

<svg
   xmlns:dc="http://purl.org/dc/elements/1.1/"
   xmlns:cc="http://creativecommons.org/ns#"
   xmlns:rdf="http://www.w3.org/1999/02/22-rdf-syntax-ns#"
   xmlns:svg="http://www.w3.org/2000/svg"
   xmlns="http://www.w3.org/2000/svg"
   xmlns:sodipodi="http://sodipodi.sourceforge.net/DTD/sodipodi-0.dtd"
   xmlns:inkscape="http://www.inkscape.org/namespaces/inkscape"
   version="1.1"
   width="945.59998"
   height="945.59998"
   id="svg2"
   xml:space="preserve"
   inkscape:version="0.48.5 r10040"
   sodipodi:docname="05.svg"
   inkscape:export-filename="D:\Stefan\OSM\TestNew\05b.png"
   inkscape:export-xdpi="3.0599999"
   inkscape:export-ydpi="3.0599999"><sodipodi:namedview
     pagecolor="#ffffff"
     bordercolor="#666666"
     borderopacity="1"
     objecttolerance="10"
     gridtolerance="10"
     guidetolerance="10"
     inkscape:pageopacity="0"
     inkscape:pageshadow="2"
     inkscape:window-width="1680"
     inkscape:window-height="988"
     id="namedview28"
     showgrid="false"
     fit-margin-top="2.8"
     fit-margin-left="2.8"
     fit-margin-right="2.8"
     fit-margin-bottom="2.8"
     inkscape:zoom="0.48162828"
     inkscape:cx="582.04249"
     inkscape:cy="291.61426"
     inkscape:window-x="-8"
     inkscape:window-y="-8"
     inkscape:window-maximized="1"
     inkscape:current-layer="svg2" /><metadata
     id="metadata8"><rdf:RDF><cc:Work
         rdf:about=""><dc:format>image/svg+xml</dc:format><dc:type
           rdf:resource="http://purl.org/dc/dcmitype/StillImage" /><dc:title></dc:title></cc:Work></rdf:RDF></metadata><defs
     id="defs6" /><path
     id="path14622"
     d="m 942.8,472.8 c 0,-259.5738 -210.42618,-470 -470,-470 -259.5739,0 -470,210.4262 -470,470 0,259.5739 210.4261,470 470,470 259.57382,0 470,-210.4261 470,-470 z"
     style="fill:#c50000;fill-opacity:1;stroke:none"
     inkscape:connector-curvature="0" /><path
     id="path15520"
     d="m 106.8,472.8 c 0,-202.1362 163.8638,-366 366,-366 202.13621,0 366.00001,163.8638 366.00001,366 0,202.1362 -163.8638,366 -366.00001,366 -202.1362,0 -366,-163.8638 -366,-366 z"
     style="fill:#ffffff;fill-opacity:1;stroke:none"
     inkscape:connector-curvature="0" /><path
     sodipodi:nodetypes="ccccc"
     inkscape:connector-curvature="0"
     id="path3914"
     d="m 121.0143,771.5526 53.033,53.033 650.53831,-650.5382 -53.033,-53.033 z"
     style="fill:#c50000;fill-opacity:1;stroke:none" /><path
     d="m 439.23834,204.28759 -108.74546,106.35929 112.61162,0.55608 c 139.01327,5.82455 173.51318,124.45698 178.82914,159.0014 l 0,276.14862 -76.79267,0 0,-264.76754 c 0,-12.80765 -11.61087,-82.73186 -97.98084,-97.27668 l -118.63824,0.29657 110.79225,108.36118 -95.40339,0 -147.40705,-144.20971 -0.37904,0 0.18952,-0.18536 -0.11365,-0.11115 0.22742,0 147.44495,-144.17264 95.36544,0 z"
     style="fill:#000000;fill-opacity:1;fill-rule:evenodd;stroke:none"
     id="path1885"
     inkscape:connector-curvature="0" /></svg>