<?xml version="1.0" encoding="UTF-8" standalone="no"?>
<!-- Created with Inkscape (http://www.inkscape.org/) -->

<svg
   xmlns:dc="http://purl.org/dc/elements/1.1/"
   xmlns:cc="http://creativecommons.org/ns#"
   xmlns:rdf="http://www.w3.org/1999/02/22-rdf-syntax-ns#"
   xmlns:svg="http://www.w3.org/2000/svg"
   xmlns="http://www.w3.org/2000/svg"
   xmlns:sodipodi="http://sodipodi.sourceforge.net/DTD/sodipodi-0.dtd"
   xmlns:inkscape="http://www.inkscape.org/namespaces/inkscape"
   version="1.1"
   width="945.59998"
   height="945.59998"
   id="svg2"
   xml:space="preserve"
   inkscape:version="0.48.5 r10040"
   sodipodi:docname="09.svg"
   inkscape:export-filename="D:\Stefan\OSM\TestNew\06f.png"
   inkscape:export-xdpi="3.0638299"
   inkscape:export-ydpi="3.0638299"><sodipodi:namedview
     pagecolor="#ffffff"
     bordercolor="#666666"
     borderopacity="1"
     objecttolerance="10"
     gridtolerance="10"
     guidetolerance="10"
     inkscape:pageopacity="0"
     inkscape:pageshadow="2"
     inkscape:window-width="1680"
     inkscape:window-height="988"
     id="namedview28"
     showgrid="false"
     fit-margin-top="2.8"
     fit-margin-left="2.8"
     fit-margin-right="2.8"
     fit-margin-bottom="2.8"
     inkscape:zoom="0.68112525"
     inkscape:cx="494.86123"
     inkscape:cy="460.22583"
     inkscape:window-x="-8"
     inkscape:window-y="-8"
     inkscape:window-maximized="1"
     inkscape:current-layer="svg2"
     showguides="true"
     inkscape:guide-bbox="true" /><metadata
     id="metadata8"><rdf:RDF><cc:Work
         rdf:about=""><dc:format>image/svg+xml</dc:format><dc:type
           rdf:resource="http://purl.org/dc/dcmitype/StillImage" /><dc:title></dc:title></cc:Work></rdf:RDF></metadata><defs
     id="defs6" /><path
     id="path14622"
     d="M 2.8,472.79998 C 2.8,213.22617 213.22618,2.8 472.8,2.8 c 259.5739,0 470,210.42617 470,469.99998 0,259.5739 -210.4261,470 -470,470 -259.57382,0 -470,-210.4261 -470,-470 z"
     style="fill:#c50000;fill-opacity:1;stroke:none"
     inkscape:connector-curvature="0" /><path
     id="path15520"
     d="m 838.8,472.79998 c 0,-202.13618 -163.8638,-365.99997 -366,-365.99997 -202.13621,0 -366.00001,163.86379 -366.00001,365.99997 0,202.1362 163.8638,366 366.00001,366 202.1362,0 366,-163.8638 366,-366 z"
     style="fill:#ffffff;fill-opacity:1;stroke:none"
     inkscape:connector-curvature="0" /><path
     sodipodi:nodetypes="ccccc"
     inkscape:connector-curvature="0"
     id="path3914"
     d="m 824.5857,771.55258 -53.033,53.033 -650.53831,-650.5382 53.033,-53.033 z"
     style="fill:#c50000;fill-opacity:1;stroke:none" /><path
     style="fill:#000000"
     inkscape:connector-curvature="0"
     id="path10"
     d="M 469.45662,144.70847 257.209,389.29898 l 0,112.346 167.42918,-195.36124 0,497.15472 87.27801,0 0,-497.15472 167.42881,195.36124 0,-112.346"
     sodipodi:nodetypes="ccccccccc" /></svg>