<?xml version="1.0" encoding="UTF-8" standalone="no"?>
<svg
   xmlns:dc="http://purl.org/dc/elements/1.1/"
   xmlns:cc="http://creativecommons.org/ns#"
   xmlns:rdf="http://www.w3.org/1999/02/22-rdf-syntax-ns#"
   xmlns:svg="http://www.w3.org/2000/svg"
   xmlns="http://www.w3.org/2000/svg"
   xmlns:sodipodi="http://sodipodi.sourceforge.net/DTD/sodipodi-0.dtd"
   xmlns:inkscape="http://www.inkscape.org/namespaces/inkscape"
   height="16"
   id="svg2217"
   inkscape:version="0.91 r13725"
   sodipodi:docname="platform_rail.svg"
   sodipodi:version="0.32"
   width="16"
   version="1.1">
  <metadata
     id="metadata3">
    <rdf:RDF>
      <cc:Work
         rdf:about="">
        <dc:title></dc:title>
        <dc:description>EPS converted from  http://aiga.org</dc:description>
        <dc:subject>
          <rdf:Bag>
            <rdf:li>symbol</rdf:li>
            <rdf:li>mapsym</rdf:li>
          </rdf:Bag>
        </dc:subject>
        <dc:publisher>
          <cc:Agent
             rdf:about="http://www.openclipart.org/">
            <dc:title>Open Clip Art Library</dc:title>
          </cc:Agent>
        </dc:publisher>
        <dc:creator>
          <cc:Agent>
            <dc:title>Jean-Victor Balin</dc:title>
          </cc:Agent>
        </dc:creator>
        <dc:rights>
          <cc:Agent>
            <dc:title>Jean-Victor Balin</dc:title>
          </cc:Agent>
        </dc:rights>
        <dc:date />
        <dc:format>image/svg+xml</dc:format>
        <dc:type
           rdf:resource="http://purl.org/dc/dcmitype/StillImage" />
        <cc:license
           rdf:resource="http://creativecommons.org/publicdomain/zero/1.0/" />
        <dc:language>en</dc:language>
      </cc:Work>
      <cc:License
         rdf:about="http://creativecommons.org/publicdomain/zero/1.0/">
        <cc:permits
           rdf:resource="http://creativecommons.org/ns#Reproduction" />
        <cc:permits
           rdf:resource="http://creativecommons.org/ns#Distribution" />
        <cc:permits
           rdf:resource="http://creativecommons.org/ns#DerivativeWorks" />
      </cc:License>
    </rdf:RDF>
  </metadata>
  <sodipodi:namedview
     bordercolor="#666666"
     borderopacity="1.0"
     id="base"
     inkscape:current-layer="svg2217"
     inkscape:cx="16.42155"
     inkscape:cy="6.5826012"
     inkscape:pageopacity="0.0"
     inkscape:pageshadow="2"
     inkscape:window-height="988"
     inkscape:window-width="1680"
     inkscape:window-x="-8"
     inkscape:window-y="-8"
     inkscape:zoom="45.254834"
     pagecolor="#ffffff"
     showgrid="true"
     fit-margin-top="0"
     fit-margin-left="0"
     fit-margin-right="0"
     fit-margin-bottom="0"
     inkscape:window-maximized="1">
    <inkscape:grid
       type="xygrid"
       id="grid4158"
       originx="18.426456"
       originy="21.881379" />
  </sodipodi:namedview>
  <defs
     id="defs2219">
    <marker
       id="ArrowEnd"
       markerHeight="3"
       markerUnits="strokeWidth"
       markerWidth="4"
       orient="auto"
       refX="0"
       refY="5"
       viewBox="0 0 10 10">
      <path
         d="M 0,0 10,5 0,10 Z"
         id="path2222"
         inkscape:connector-curvature="0" />
    </marker>
    <marker
       id="ArrowStart"
       markerHeight="3"
       markerUnits="strokeWidth"
       markerWidth="4"
       orient="auto"
       refX="10"
       refY="5"
       viewBox="0 0 10 10">
      <path
         d="M 10,0 0,5 10,10 Z"
         id="path2225"
         inkscape:connector-curvature="0" />
    </marker>
  </defs>
  <g
     id="g4212"
     transform="matrix(0.02327946,0,0,0.02714015,7.3460535,2.6849245)">
    <g
       id="g4200">
      <g
         id="g4189">
        <g
           id="g4179">
          <path
             inkscape:connector-curvature="0"
             style="fill:#000000;stroke:none"
             id="path2229"
             d="m 196.05775,418.2374 0.0671,0 75.60036,0 55.22791,72.367 44.54661,0 -77.21144,-103.518 c 25.7461,-3.708 51.37472,-27.708 51.37472,-56.958 l 0,-213.858 c 0,-30.192005 -28.41782,-57.906005 -67.02466,-57.906005 l -82.26624,-0.048 0.003,0 -82.89836,0.048 c -38.606847,0 -67.024669,27.714 -67.024669,57.905995 l 0,213.858 c 0,29.25 25.628624,53.25 51.374724,56.958 l -77.211447,103.518 44.546615,0 55.227907,-72.367 75.60036,0 0.0671,0 z" />
          <g
             id="g2231"
             transform="matrix(1.1188119,0,0,1,20.615738,18.940395)">
            <path
               inkscape:connector-curvature="0"
               style="fill:#000000;stroke:none"
               id="path2233"
               d="m 134.768,33.184 c -9.165,0 -16.591,-7.428 -16.591,-16.593 0,-9.163 7.426,-16.591 16.591,-16.591 9.163,0 16.591,7.428 16.591,16.591 0,9.165 -7.428,16.593 -16.591,16.593 z" />
            <path
               inkscape:connector-curvature="0"
               style="fill:#000000;stroke:none"
               id="path2235"
               d="m 178.854,33.184 c 9.165,0 16.591,-7.428 16.591,-16.593 C 195.445,7.428 188.019,0 178.854,0 c -9.163,0 -16.591,7.428 -16.591,16.591 0,9.165 7.428,16.593 16.591,16.593 z" />
            <path
               inkscape:connector-curvature="0"
               style="fill:#ffffff;stroke:none"
               id="path2237"
               d="m 231.263,336.951 c 14.505,0 26.263,-11.759 26.263,-26.263 0,-14.505 -11.758,-26.263 -26.263,-26.263 -14.505,0 -26.263,11.758 -26.263,26.263 0,14.504 11.758,26.263 26.263,26.263 z" />
            <path
               inkscape:connector-curvature="0"
               style="fill:#ffffff;stroke:none"
               id="path2239"
               d="m 156.811,198.014 0.06,0 71.751,0 c 16.5,0 30,-11.326 29.848,-29.826 l 0,-38.5 c 0,-16 -10.348,-29.962 -29.848,-29.962 l -71.751,0 -0.12,0 -71.751,0 c -19.5,0 -29.848,13.962 -29.848,29.962 l 0,38.5 C 55,186.688 68.5,198.014 85,198.014 l 71.751,0 0.06,0 z" />
            <path
               inkscape:connector-curvature="0"
               style="fill:#ffffff;stroke:none"
               id="path2241"
               d="m 156.811,88.201 0.06,0 29.001,0 c 5.5,0 9.816,-4.513 9.816,-9.763 l 0,-17 c 0,-5.25 -4.566,-9.66 -9.816,-9.66 l -29.001,0 -0.06,0 -0.06,0 -29.001,0 c -5.25,0 -9.816,4.41 -9.816,9.66 l 0,17 c 0,5.25 4.316,9.763 9.816,9.763 l 29.001,0 0.06,0 z" />
            <path
               inkscape:connector-curvature="0"
               style="fill:#ffffff;stroke:none"
               id="path2243"
               d="m 81.75,336.951 c -14.505,0 -26.263,-11.759 -26.263,-26.263 0,-14.505 11.758,-26.263 26.263,-26.263 14.505,0 26.263,11.758 26.263,26.263 0,14.504 -11.758,26.263 -26.263,26.263 z" />
          </g>
        </g>
      </g>
    </g>
  </g>
  <rect
     style="color:#000000;clip-rule:nonzero;display:inline;overflow:visible;visibility:visible;opacity:1;isolation:auto;mix-blend-mode:normal;color-interpolation:sRGB;color-interpolation-filters:linearRGB;solid-color:#000000;solid-opacity:1;fill:#000000;fill-opacity:1;fill-rule:evenodd;stroke:none;stroke-width:0.477;stroke-linecap:butt;stroke-linejoin:miter;stroke-miterlimit:4;stroke-dasharray:none;stroke-dashoffset:0;stroke-opacity:1;color-rendering:auto;image-rendering:auto;shape-rendering:auto;text-rendering:auto;enable-background:accumulate"
     id="rect4185"
     width="6"
     height="2"
     x="-3.1658161e-009"
     y="14" />
  <rect
     style="color:#000000;clip-rule:nonzero;display:inline;overflow:visible;visibility:visible;opacity:1;isolation:auto;mix-blend-mode:normal;color-interpolation:sRGB;color-interpolation-filters:linearRGB;solid-color:#000000;solid-opacity:1;fill:#000000;fill-opacity:1;fill-rule:evenodd;stroke:none;stroke-width:0.477;stroke-linecap:butt;stroke-linejoin:miter;stroke-miterlimit:4;stroke-dasharray:none;stroke-dashoffset:0;stroke-opacity:1;color-rendering:auto;image-rendering:auto;shape-rendering:auto;text-rendering:auto;enable-background:accumulate"
     id="rect4187"
     width="8"
     height="1"
     x="-3.1658161e-009"
     y="13" />
</svg>
