<?xml version="1.0" encoding="UTF-8" standalone="no"?>
<!-- Created with Inkscape (http://www.inkscape.org/) -->

<svg
   xmlns:dc="http://purl.org/dc/elements/1.1/"
   xmlns:cc="http://creativecommons.org/ns#"
   xmlns:rdf="http://www.w3.org/1999/02/22-rdf-syntax-ns#"
   xmlns:svg="http://www.w3.org/2000/svg"
   xmlns="http://www.w3.org/2000/svg"
   xmlns:sodipodi="http://sodipodi.sourceforge.net/DTD/sodipodi-0.dtd"
   xmlns:inkscape="http://www.inkscape.org/namespaces/inkscape"
   width="16"
   height="16"
   viewBox="0 0 16 16"
   id="svg4264"
   version="1.1"
   inkscape:version="0.92.3 (2405546, 2018-03-11)"
   sodipodi:docname="restrictions.svg">
  <defs
     id="defs4266" />
  <sodipodi:namedview
     id="base"
     pagecolor="#ffffff"
     bordercolor="#666666"
     borderopacity="1.0"
     inkscape:pageopacity="0.0"
     inkscape:pageshadow="2"
     inkscape:zoom="12.921875"
     inkscape:cx="2.2921076"
     inkscape:cy="-3.7340477"
     inkscape:document-units="px"
     inkscape:current-layer="layer1"
     showgrid="true"
     units="px"
     inkscape:snap-bbox="true"
     inkscape:bbox-paths="true"
     inkscape:bbox-nodes="true"
     inkscape:snap-bbox-edge-midpoints="false"
     inkscape:snap-bbox-midpoints="true"
     inkscape:snap-nodes="false"
     inkscape:object-paths="false"
     inkscape:snap-intersection-paths="true"
     inkscape:object-nodes="true"
     inkscape:snap-smooth-nodes="true"
     inkscape:snap-midpoints="true"
     inkscape:snap-object-midpoints="true"
     inkscape:snap-others="true"
     inkscape:snap-global="true"
     inkscape:snap-center="true"
     inkscape:snap-grids="true"
     inkscape:snap-to-guides="true"
     inkscape:snap-page="true"
     inkscape:window-width="1680"
     inkscape:window-height="987"
     inkscape:window-x="-8"
     inkscape:window-y="-8"
     inkscape:window-maximized="1">
    <inkscape:grid
       type="xygrid"
       id="grid4137" />
  </sodipodi:namedview>
  <metadata
     id="metadata4269">
    <rdf:RDF>
      <cc:Work
         rdf:about="">
        <dc:format>image/svg+xml</dc:format>
        <dc:type
           rdf:resource="http://purl.org/dc/dcmitype/StillImage" />
        <dc:title></dc:title>
        <cc:license
           rdf:resource="http://creativecommons.org/publicdomain/zero/1.0/" />
      </cc:Work>
      <cc:License
         rdf:about="http://creativecommons.org/publicdomain/zero/1.0/">
        <cc:permits
           rdf:resource="http://creativecommons.org/ns#Reproduction" />
        <cc:permits
           rdf:resource="http://creativecommons.org/ns#Distribution" />
        <cc:permits
           rdf:resource="http://creativecommons.org/ns#DerivativeWorks" />
      </cc:License>
    </rdf:RDF>
  </metadata>
  <g
     inkscape:label="Camada 1"
     inkscape:groupmode="layer"
     id="layer1"
     transform="translate(0,-1036.3621)">
    <path
       inkscape:connector-curvature="0"
       style="fill:#ffffff;fill-opacity:1;fill-rule:nonzero;stroke:#000000;stroke-width:0.04587146;stroke-linecap:butt;stroke-linejoin:round;stroke-miterlimit:4;stroke-dasharray:none;stroke-opacity:1"
       id="path32"
       d="m 15.977067,1044.3621 c 0,1.4685 -0.333951,2.7167 -1.068564,3.9889 -0.733974,1.2715 -1.648145,2.1856 -2.919605,2.9196 -1.272188,0.7346 -2.5203999,1.0685 -3.9888974,1.0685 -1.4684976,0 -2.7167086,-0.3339 -3.9882598,-1.0685 -1.2720966,-0.734 -2.1856522,-1.6481 -2.920242,-2.9196 -0.73390729,-1.2722 -1.06856354,-2.5204 -1.06856354,-3.9889 0,-1.4685 0.33465625,-2.7167 1.06856354,-3.9883 0.7345898,-1.272 1.6481454,-2.1857 2.920242,-2.9202 1.2715512,-0.7339 2.5197622,-1.0686 3.9882598,-1.0686 1.4684975,0 2.7167094,0.3347 3.9888974,1.0686 1.27146,0.7345 2.185631,1.6482 2.919605,2.9202 0.734613,1.2716 1.068564,2.5198 1.068564,3.9883 z" />
    <path
       inkscape:connector-curvature="0"
       style="fill:none;stroke:#cc0000;stroke-width:1.90915775;stroke-linecap:butt;stroke-linejoin:round;stroke-miterlimit:4;stroke-dasharray:none;stroke-opacity:1"
       id="path36"
       d="m 14.723682,1044.3621 c 0,1.2378 -0.281688,2.2897 -0.900563,3.3616 -0.618944,1.0724 -1.389068,1.8426 -2.461552,2.4616 -1.071846,0.6188 -2.1236807,0.9004 -3.3615664,0.9004 -1.2378875,0 -2.2897208,-0.2816 -3.3622045,-0.9004 -1.0718466,-0.619 -1.8419691,-1.3892 -2.460913,-2.4616 -0.6188757,-1.0719 -0.9005633,-2.1238 -0.9005633,-3.3616 0,-1.2379 0.2816876,-2.2897 0.9005633,-3.3623 0.6189439,-1.0717 1.3890664,-1.8418 2.460913,-2.4608 1.0724837,-0.619 2.124317,-0.9006 3.3622045,-0.9006 1.2378857,0 2.2897204,0.2816 3.3615664,0.9006 1.072484,0.619 1.842608,1.3891 2.461552,2.4608 0.618875,1.0726 0.900563,2.1244 0.900563,3.3623 z" />
  </g>
</svg>
