<?xml version="1.0" encoding="UTF-8" standalone="no"?>
<!-- Generator: Adobe Illustrator 14.0.0, SVG Export Plug-In . SVG Version: 6.00 Build 43363)  -->

<svg
   xmlns:dc="http://purl.org/dc/elements/1.1/"
   xmlns:cc="http://creativecommons.org/ns#"
   xmlns:rdf="http://www.w3.org/1999/02/22-rdf-syntax-ns#"
   xmlns:svg="http://www.w3.org/2000/svg"
   xmlns="http://www.w3.org/2000/svg"
   xmlns:sodipodi="http://sodipodi.sourceforge.net/DTD/sodipodi-0.dtd"
   xmlns:inkscape="http://www.inkscape.org/namespaces/inkscape"
   version="1.1"
   id="Layer_1"
   x="0px"
   y="0px"
   width="300px"
   height="300px"
   viewBox="0 0 300 300"
   enable-background="new 0 0 300 300"
   xml:space="preserve"
   inkscape:version="0.91 r13725"
   sodipodi:docname="beach20.svg"><metadata
   id="metadata21"><rdf:RDF><cc:Work
       rdf:about=""><dc:format>image/svg+xml</dc:format><dc:type
         rdf:resource="http://purl.org/dc/dcmitype/StillImage" /></cc:Work></rdf:RDF></metadata><defs
   id="defs19" /><sodipodi:namedview
   pagecolor="#ffffff"
   bordercolor="#666666"
   borderopacity="1"
   objecttolerance="10"
   gridtolerance="10"
   guidetolerance="10"
   inkscape:pageopacity="0"
   inkscape:pageshadow="2"
   inkscape:window-width="1680"
   inkscape:window-height="988"
   id="namedview17"
   showgrid="false"
   inkscape:zoom="0.78666667"
   inkscape:cx="150"
   inkscape:cy="148.72881"
   inkscape:window-x="-8"
   inkscape:window-y="-8"
   inkscape:window-maximized="1"
   inkscape:current-layer="Layer_1" />
<rect
   style="color:#000000;clip-rule:nonzero;display:inline;overflow:visible;visibility:visible;opacity:1;isolation:auto;mix-blend-mode:normal;color-interpolation:sRGB;color-interpolation-filters:linearRGB;solid-color:#000000;solid-opacity:1;fill:#ffffff;fill-opacity:1;fill-rule:evenodd;stroke:none;stroke-width:2;stroke-linecap:round;stroke-linejoin:miter;stroke-miterlimit:4;stroke-dasharray:none;stroke-dashoffset:0;stroke-opacity:1;color-rendering:auto;image-rendering:auto;shape-rendering:auto;text-rendering:auto;enable-background:accumulate"
   id="rect4149"
   width="300"
   height="300"
   x="0"
   y="-1.7704588e-014" /><path
   d="M158.015,90.235c7.93,0.652,15.503-2.004,23.092-3.838c13.753-3.912,27.212-8.763,40.831-13.091  c9.385-2.418,18.693-5.129,28.021-7.758c1.673-0.637,3.976-1.013,4.556-2.989c-0.359-0.052-1.079-0.157-1.436-0.209  c-30.713,1.351-61.404,3.526-91.908,7.403c-4.012,0.409-7.951,1.786-11.105,4.342c-2.246,2.093-2.718,5.283-3.396,8.119  C149.099,86.256,152.871,90.454,158.015,90.235z"
   id="path3" />
<path
   d="M9.179,86.175c22.338,7.548,45.028,14.051,67.874,19.883c7.774,2.057,15.523,4.28,23.429,5.78  c4.386,0.495,9.672,1.132,13.183-2.155c1.962-1.943,4.091-4.672,2.681-7.546c-1.105-6.248-7.27-9.483-12.916-10.75  c-10.313-2.084-20.86-2.778-31.357-3.181c-19.098-0.365-38.139-1.754-57.16-3.451C13.038,84.83,10.041,83.864,9.179,86.175z"
   id="path5" />
<path
   d="M263.098,157.891c-24.264-14.021-49.325-28.505-77.45-32.753c-5.638,1.092-12.622,7.199-9.257,13.451  c3.99,6.581,11.367,10.007,18.139,13.044c25.248,9.953,51.404,17.342,77.564,24.467c9.319,2.795,18.711,5.371,27.906,8.563v-5.268  C287.727,172.179,275.201,165.396,263.098,157.891z"
   id="path7" />
<path
   d="M155.6,148.993c-0.971,4.487,2.152,8.407,4.981,11.508c6.313,6.301,14.192,10.685,21.877,15.077  c24.391,13.918,50.074,25.34,75.158,37.916c7.303,3.225,13.989,7.75,21.411,10.703c0.611,0.01,1.841,0.024,2.453,0.035  c-1.391-2.531-4.258-3.47-6.271-5.361c-4.025-3.695-8.359-7.023-12.512-10.565c-17.086-13.982-33.314-29.016-50.99-42.269  c-13.835-10.505-28.967-19.396-45.344-25.302C162.202,142.438,157.031,144.207,155.6,148.993z"
   id="path9" />
<path
   d="M260.915,261.795c-4.382-0.614-8.55-2.242-12.86-3.218c-3.133,1.372-6.318,2.646-9.267,4.396  c-2.407,1.293-4.915,2.984-7.794,2.583c-10.353-0.845-19.371-7.423-29.905-7.37c-15.578,0.378-30.785,4.221-46.054,6.957  c-7.446,0.842-13.695-4.236-20.829-5.251c-11.03-0.706-21.202,5.989-32.267,4.54c-5.692-0.674-11.398-1.223-17.089-1.902  c-8.586-1.524-16.891,3.955-25.448,1.789c-5.956-2.053-11.779-5.245-18.276-4.925c-4.475,0.565-8.631,2.704-13.158,2.978  c-5.793-0.18-11.034-3.271-16.816-3.555c-3.804-0.117-7.49,1.006-11.15,1.892v1.763c0.29,1.428,0.595,2.855,0.916,4.283  c3.055-0.596,6.038-1.775,9.17-1.846c6.388,0.742,12.386,3.838,18.927,3.523c4.492,0.137,8.481-2.4,12.891-2.801  c6.111-0.094,11.272,3.703,17.067,5.005c2.656,0.341,5.348,0.249,8.018,0.167c4.728-0.204,9.171-2.439,13.928-2.322  c9.634,0.783,19.245,2.708,28.947,2.039c6.479-0.887,12.663-3.221,19.12-4.224c7.053-1.237,13.017,3.772,19.782,4.649  c4.48,0.936,9.049,0.322,13.409-0.886c11.934-1.959,23.706-5.169,35.829-5.783c12.28-1.013,22.739,8.218,35,7.35  c5.706-0.249,9.991-4.552,15.149-6.409c4.096,0.406,7.851,2.526,11.994,2.684c7.317,0.014,14.521-1.963,21.858-1.465  c5.991,0.336,11.994,0.129,17.992,0.191v-5.985c-5.995-0.482-12.012-0.083-18.01-0.425  C274.91,259.8,267.975,261.808,260.915,261.795z"
   id="path11" />
<path
   d="M22.785,82.937c10.198,0,18.465-8.267,18.465-18.464c0-10.198-8.267-18.465-18.465-18.465  c-10.197,0-18.464,8.267-18.464,18.465C4.321,74.67,12.588,82.937,22.785,82.937z M22.785,52.008  c6.873,0,12.465,5.592,12.465,12.465s-5.592,12.464-12.465,12.464s-12.464-5.591-12.464-12.464S15.912,52.008,22.785,52.008z"
   id="path13" />
<circle
   cx="114.966"
   cy="64.349"
   r="21.875"
   id="circle15" />
</svg>