<?xml version="1.0" encoding="UTF-8" standalone="no"?>
<!-- Generator: Adobe Illustrator 16.0.0, SVG Export Plug-In . SVG Version: 6.00 Build 0)  -->

<svg
   xmlns:dc="http://purl.org/dc/elements/1.1/"
   xmlns:cc="http://creativecommons.org/ns#"
   xmlns:rdf="http://www.w3.org/1999/02/22-rdf-syntax-ns#"
   xmlns:svg="http://www.w3.org/2000/svg"
   xmlns="http://www.w3.org/2000/svg"
   xmlns:sodipodi="http://sodipodi.sourceforge.net/DTD/sodipodi-0.dtd"
   xmlns:inkscape="http://www.inkscape.org/namespaces/inkscape"
   version="1.1"
   id="Layer_1"
   x="0px"
   y="0px"
   viewBox="0 0 8 16"
   enable-background="new 0 0 720 720"
   xml:space="preserve"
   sodipodi:docname="OldChair3.svg"
   width="8"
   height="16"
   inkscape:version="0.92.3 (2405546, 2018-03-11)"><defs
   id="defs13" /><sodipodi:namedview
   pagecolor="#ffffff"
   bordercolor="#666666"
   borderopacity="1"
   objecttolerance="10"
   gridtolerance="10"
   guidetolerance="10"
   inkscape:pageopacity="0"
   inkscape:pageshadow="2"
   inkscape:window-width="1680"
   inkscape:window-height="987"
   id="namedview11"
   showgrid="false"
   inkscape:zoom="20.977778"
   inkscape:cx="-5.1571032"
   inkscape:cy="-0.55141222"
   inkscape:window-x="-8"
   inkscape:window-y="-8"
   inkscape:window-maximized="1"
   inkscape:current-layer="Layer_1" />
<path
   d="M 7.3954357,9.73635 C 5.5815447,8.70566 6.8049843,7.27591 6.8049843,7.27591 h -4.8e-4 C 7.2902481,6.89904 7.7019242,6.35882 7.8964022,5.58379 8.5643844,2.92182 5.7812114,1.01671 5.7812114,1.01671 c 0,0 -0.7422443,-0.33927 -0.853546,-0.65245 C 4.8163522,0.05113 4.5936686,-0.0011 4.3710307,-0.0011 H 3.9999601 3.6288894 c -0.2226379,0 -0.4452986,0.0522 -0.556589,0.36536 -0.111313,0.31318 -0.8535459,0.65245 -0.8535459,0.65245 0,0 -2.783173,1.90511 -2.11524804,4.56708 C 0.297996,6.35882 0.70967201,6.89904 1.1954044,7.27591 h -4.228e-4 c 0,0 1.2234509,1.42975 -0.59050857,2.46049 -0.46313836,0.23512 -0.77708961,0.53523 -0.50096657,0.87539 0.055428,0.0682 0.12861589,0.13037 0.21580362,0.1873 0.34228239,0.66583 0.92653952,2.18189 -0.081942,3.3542 h 0.72933007 c 0,0 0.48086375,-0.60013 0.63421085,-1.61003 C 1.9015575,13.55925 1.9921738,14.89223 1.0391431,16 h 0.9940703 c 0,0 1.4745572,-1.83995 0.7051703,-4.64504 0.7016389,0.0529 1.261645,0.0473 1.261645,0.0473 0,0 0.5599946,0.006 1.2616448,-0.0473 C 4.4922752,14.16005 5.9668438,16 5.9668438,16 H 6.960857 C 6.0078263,14.89223 6.0984426,13.55929 6.3990911,12.54326 c 0.1532899,1.0099 0.634211,1.61003 0.634211,1.61003 H 7.7626322 C 6.7540819,12.98098 7.3383506,11.46496 7.68069,10.79909 c 0.087199,-0.0569 0.1604442,-0.11912 0.2157466,-0.1873 0.276283,-0.3402 -0.0376,-0.64031 -0.5008637,-0.87544 z M 4.3710307,8.88562 H 3.9999601 3.6288894 c -0.2226379,0 -0.4452986,0.0161 -0.556589,0.11295 -0.111313,0.0968 -0.8535459,0.20165 -0.8535459,0.20165 0,0 -0.017371,0.004 -0.049142,0.0109 C 2.4132097,8.89768 2.614842,8.45613 2.485769,7.91969 3.3007325,8.1638 3.9999715,8.14135 3.9999715,8.14135 c 0,0 0.6992389,0.0224 1.5142139,-0.22166 -0.1290959,0.5364 0.072571,0.97799 0.316134,1.29143 -0.031656,-0.007 -0.049028,-0.0109 -0.049028,-0.0109 0,0 -0.7422557,-0.10485 -0.853546,-0.20165 C 4.8163178,8.90177 4.5936914,8.88562 4.3710537,8.88562 Z"
   id="path2"
   inkscape:connector-curvature="0"
   style="fill:#c07e2a;stroke-width:0.04873238" />
<path
   d="m 5.2897076,9.36957 c 0,0 -0.5374005,-0.0759 -0.6179712,-0.14601 C 4.5911658,9.15346 4.4299102,9.14176 4.2687117,9.14176 H 4.0000058 3.7313113 c -0.1612556,0 -0.322454,0.0117 -0.4030818,0.0818 -0.080571,0.0701 -0.6179712,0.14601 -0.6179712,0.14601 0,0 -2.01527186,0.42639 -1.5316194,1.02207 0.4836982,0.59573 2.8213669,0.5724 2.8213669,0.5724 0,0 2.3376802,0.0233 2.8213898,-0.5724 C 7.3049794,9.79596 5.2897076,9.36957 5.2897076,9.36957 Z"
   id="path4"
   inkscape:connector-curvature="0"
   style="fill:#be1e2d;stroke-width:0.04873238" />
<path
   d="m 5.4560946,1.62906 c 0,0 -0.6067027,-0.27735 -0.6977418,-0.53337 C 4.6673821,0.83967 4.4853611,0.797 4.3032828,0.797 H 3.9999029 3.6965801 c -0.1820324,0 -0.3640193,0.0427 -0.4550127,0.29869 -0.090971,0.25602 -0.6977418,0.53337 -0.6977418,0.53337 0,0 -2.27516646,1.5574 -1.72911461,3.73347 0.54606321,2.17606 3.18519191,2.09073 3.18519191,2.09073 0,0 2.6391745,0.0853 3.1852378,-2.09073 C 7.7311924,3.18642 5.4560946,1.62906 5.4560946,1.62906 Z"
   id="path6"
   inkscape:connector-curvature="0"
   style="fill:#be1e2d;stroke-width:0.04873238" />
<metadata
   id="metadata8"><rdf:RDF><cc:Work><dc:format>image/svg+xml</dc:format><dc:type
         rdf:resource="http://purl.org/dc/dcmitype/StillImage" /><cc:license
         rdf:resource="http://creativecommons.org/publicdomain/zero/1.0/" /><dc:publisher><cc:Agent
           rdf:about="http://openclipart.org/"><dc:title>Openclipart</dc:title></cc:Agent></dc:publisher><dc:title></dc:title></cc:Work><cc:License
       rdf:about="http://creativecommons.org/publicdomain/zero/1.0/"><cc:permits
         rdf:resource="http://creativecommons.org/ns#Reproduction" /><cc:permits
         rdf:resource="http://creativecommons.org/ns#Distribution" /><cc:permits
         rdf:resource="http://creativecommons.org/ns#DerivativeWorks" /></cc:License></rdf:RDF></metadata></svg>