<?xml version="1.0" encoding="UTF-8" standalone="no"?>
<!-- Created with Inkscape (http://www.inkscape.org/) -->

<svg
   xmlns:dc="http://purl.org/dc/elements/1.1/"
   xmlns:cc="http://creativecommons.org/ns#"
   xmlns:rdf="http://www.w3.org/1999/02/22-rdf-syntax-ns#"
   xmlns:svg="http://www.w3.org/2000/svg"
   xmlns="http://www.w3.org/2000/svg"
   xmlns:xlink="http://www.w3.org/1999/xlink"
   xmlns:sodipodi="http://sodipodi.sourceforge.net/DTD/sodipodi-0.dtd"
   xmlns:inkscape="http://www.inkscape.org/namespaces/inkscape"
   id="svg2"
   height="48"
   width="48"
   version="1.0"
   sodipodi:docname="delete2.svg"
   inkscape:version="0.92.2 (5c3e80d, 2017-08-06)">
  <sodipodi:namedview
     pagecolor="#ffffff"
     bordercolor="#666666"
     borderopacity="1"
     objecttolerance="10"
     gridtolerance="10"
     guidetolerance="10"
     inkscape:pageopacity="0"
     inkscape:pageshadow="2"
     inkscape:window-width="1680"
     inkscape:window-height="987"
     id="namedview106"
     showgrid="false"
     inkscape:zoom="1.4142136"
     inkscape:cx="7.0477325"
     inkscape:cy="34.149534"
     inkscape:window-x="-8"
     inkscape:window-y="-8"
     inkscape:window-maximized="1"
     inkscape:current-layer="svg2" />
  <defs
     id="defs4">
    <linearGradient
       id="linearGradient4131">
      <stop
         id="stop4133"
         stop-color="#fff"
         offset="0" />
      <stop
         id="stop4135"
         stop-color="#fff"
         stop-opacity="0"
         offset="1" />
    </linearGradient>
    <linearGradient
       id="linearGradient4478">
      <stop
         id="stop4480"
         offset="0" />
      <stop
         id="stop4482"
         stop-opacity="0"
         offset="1" />
    </linearGradient>
    <linearGradient
       id="linearGradient3147">
      <stop
         id="stop3149"
         offset="0" />
      <stop
         id="stop3151"
         stop-color="#fff"
         offset="1" />
    </linearGradient>
    <linearGradient
       id="linearGradient3218"
       y2="16.280224"
       gradientUnits="userSpaceOnUse"
       x2="-4.3679562"
       y1="18.571865"
       x1="36.648621">
      <stop
         id="stop3214"
         stop-color="#555753"
         offset="0" />
      <stop
         id="stop3233"
         stop-color="#d5d9d2"
         offset="0.99" />
      <stop
         id="stop3216"
         stop-color="#888a85"
         offset="1" />
    </linearGradient>
    <linearGradient
       id="linearGradient3323"
       y2="12.481495"
       gradientUnits="userSpaceOnUse"
       x2="7.5960913"
       y1="15.39831"
       x1="20.539999">
      <stop
         id="stop3327"
         stop-color="#6d6f6a"
         offset="0" />
      <stop
         id="stop3329"
         stop-color="#e7e8e5"
         offset="0.80142856" />
      <stop
         id="stop3331"
         stop-color="#999b96"
         offset="1" />
    </linearGradient>
    <radialGradient
       id="radialGradient3341"
       xlink:href="#linearGradient4131"
       gradientUnits="userSpaceOnUse"
       cy="27.858"
       cx="18.034"
       gradientTransform="matrix(1.0764847,-0.22396096,0.05618656,0.27006859,-1.3080586,13.863602)"
       r="15.447"
       fx="18.034"
       fy="27.858" />
    <linearGradient
       id="linearGradient3359"
       y2="20.609"
       gradientUnits="userSpaceOnUse"
       x2="15.96"
       y1="17.061749"
       x1="20.146519"
       gradientTransform="matrix(0.96774,0,0,0.83333,0.77419,1.5833)">
      <stop
         id="stop3355"
         stop-color="#babdb6"
         offset="0" />
      <stop
         id="stop3357"
         stop-color="#fff"
         offset="1" />
    </linearGradient>
    <radialGradient
       id="radialGradient3454"
       gradientUnits="userSpaceOnUse"
       cy="12.219"
       cx="23.969"
       gradientTransform="matrix(1.2846519,0,0,0.4477622,-6.7905103,34.71878)"
       r="14.969">
      <stop
         id="stop3450"
         offset="0" />
      <stop
         id="stop3452"
         stop-opacity="0"
         offset="1" />
    </radialGradient>
    <linearGradient
       id="linearGradient3505"
       y2="10.94"
       gradientUnits="userSpaceOnUse"
       x2="6.25"
       gradientTransform="translate(18)"
       y1="9.0371952"
       x1="6.25">
      <stop
         id="stop3501"
         stop-opacity=".32317"
         offset="0" />
      <stop
         id="stop3503"
         stop-opacity="0"
         offset="1" />
    </linearGradient>
    <radialGradient
       id="radialGradient3517"
       gradientUnits="userSpaceOnUse"
       cy="12.5"
       cx="24"
       gradientTransform="matrix(0.54006,0,0,0.18002086,11.039,8.2497876)"
       r="15.5">
      <stop
         id="stop3513"
         offset="0" />
      <stop
         id="stop3515"
         stop-opacity="0"
         offset="1" />
    </radialGradient>
    <linearGradient
       id="linearGradient3524"
       y2="7.75"
       gradientUnits="userSpaceOnUse"
       x2="19"
       y1="7.75"
       x1="29">
      <stop
         id="stop3489"
         stop-color="#95998e"
         offset="0" />
      <stop
         id="stop3526"
         stop-color="#fff"
         offset=".59524" />
      <stop
         id="stop3491"
         stop-color="#dfdfdb"
         offset="1" />
    </linearGradient>
    <linearGradient
       id="linearGradient3554"
       y2="10.809"
       gradientUnits="userSpaceOnUse"
       x2="26.127"
       y1="9.528"
       x1="26.464"
       gradientTransform="scale(1,0.99999693)">
      <stop
         id="stop3550"
         stop-color="#888a85"
         offset="0" />
      <stop
         id="stop3552"
         stop-color="#d3d7cf"
         offset="1" />
    </linearGradient>
    <linearGradient
       id="linearGradient3563"
       y2="-10.483"
       gradientUnits="userSpaceOnUse"
       x2="21.674"
       y1="-8.5719"
       x1="21.084"
       gradientTransform="matrix(1,0,0.30875,-0.95114,0,0)">
      <stop
         id="stop3559"
         stop-color="#d3d7cf"
         offset="0" />
      <stop
         id="stop3561"
         stop-color="#eeeeec"
         offset="1" />
    </linearGradient>
    <radialGradient
       id="radialGradient4484"
       xlink:href="#linearGradient4478"
       gradientUnits="userSpaceOnUse"
       cy="10.75"
       cx="18.75"
       gradientTransform="matrix(0.90909,0,0,0.54544961,1.4545,4.636346)"
       r="2.75" />
    <radialGradient
       id="radialGradient4488"
       xlink:href="#linearGradient4478"
       gradientUnits="userSpaceOnUse"
       cy="10.75"
       cx="18.75"
       gradientTransform="matrix(0.90909,0,0,0.54544961,12.455,4.636346)"
       r="2.75" />
    <radialGradient
       id="radialGradient2277"
       gradientUnits="userSpaceOnUse"
       cy="18.468"
       cx="24"
       gradientTransform="matrix(1,0,0,0.30363,0,14.142)"
       r="14">
      <stop
         id="stop2273"
         offset="0" />
      <stop
         id="stop2275"
         stop-opacity="0"
         offset="1" />
    </radialGradient>
    <radialGradient
       id="radialGradient2275"
       xlink:href="#linearGradient4131"
       gradientUnits="userSpaceOnUse"
       cy="17.987"
       cx="12.143"
       gradientTransform="matrix(0.89934812,-0.02275083,0.00385931,0.1525644,6.4972586,11.595607)"
       r="15.447" />
    <linearGradient
       id="linearGradient3221"
       y2="39.4375"
       gradientUnits="userSpaceOnUse"
       x2="39.456501"
       y1="38.6875"
       x1="11.871"
       xlink:href="#linearGradient4095">
      <stop
         id="stop3215"
         stop-color="#fff"
         offset="0" />
      <stop
         id="stop3217"
         stop-color="#fff"
         stop-opacity="0"
         offset="1" />
    </linearGradient>
    <linearGradient
       id="linearGradient3229"
       y2="15.446922"
       gradientUnits="userSpaceOnUse"
       x2="39.522095"
       y1="16.375"
       x1="18.247">
      <stop
         id="stop3225"
         stop-color="#fff"
         offset="0" />
      <stop
         id="stop3227"
         stop-color="#fff"
         stop-opacity="0"
         offset="1" />
    </linearGradient>
    <linearGradient
       id="linearGradient2297"
       y2="25.562"
       xlink:href="#linearGradient3147"
       gradientUnits="userSpaceOnUse"
       x2="20.114"
       gradientTransform="matrix(1.1429,0,0,1,-3,1)"
       y1="25.62"
       x1="12.02" />
    <linearGradient
       id="linearGradient2300"
       y2="25"
       xlink:href="#linearGradient3147"
       gradientUnits="userSpaceOnUse"
       x2="15.672"
       gradientTransform="matrix(0.83333,0,0,1,2.25,1)"
       y1="24.827"
       x1="6.8745" />
    <linearGradient
       id="linearGradient2305"
       y2="24.5"
       xlink:href="#linearGradient3147"
       gradientUnits="userSpaceOnUse"
       x2="37.535"
       gradientTransform="matrix(1.25,0,0,1,-8.875,1)"
       y1="24.787636"
       x1="33.274273" />
    <linearGradient
       id="linearGradient2308"
       y2="25.276"
       xlink:href="#linearGradient3147"
       gradientUnits="userSpaceOnUse"
       x2="31.362"
       gradientTransform="matrix(1.1429,0,0,1,-3.8571,1)"
       y1="25.188"
       x1="28.444117" />
    <linearGradient
       id="linearGradient2311"
       y2="26.125"
       xlink:href="#linearGradient3147"
       gradientUnits="userSpaceOnUse"
       x2="25.977"
       gradientTransform="matrix(0.83333,0,0,1,3.6667,1)"
       y1="26.125"
       x1="21.096" />
    <linearGradient
       id="linearGradient4087"
       y2="38.461"
       xlink:href="#linearGradient4131"
       gradientUnits="userSpaceOnUse"
       x2="16.62"
       gradientTransform="translate(1.0052,-5.6326e-6)"
       y1="39.688"
       x1="20.002" />
    <linearGradient
       id="linearGradient4095"
       y2="39.023"
       gradientUnits="userSpaceOnUse"
       x2="21.97"
       gradientTransform="matrix(0.61028,0,0,1,9.3454,0)"
       y1="41"
       x1="27.006">
      <stop
         id="stop4091"
         stop-color="#fff"
         offset="0" />
      <stop
         id="stop4093"
         stop-color="#fff"
         stop-opacity="0"
         offset="1" />
    </linearGradient>
    <linearGradient
       id="linearGradient4103"
       y2="37.973"
       xlink:href="#linearGradient4131"
       gradientUnits="userSpaceOnUse"
       x2="30"
       gradientTransform="translate(-0.99704,5.0008e-4)"
       y1="41.207"
       x1="33.399" />
    <linearGradient
       id="linearGradient4137"
       y2="32.848"
       xlink:href="#linearGradient4131"
       gradientUnits="userSpaceOnUse"
       x2="36.562"
       y1="40.76"
       x1="36.562" />
    <linearGradient
       id="linearGradient4139"
       y2="29.922"
       xlink:href="#linearGradient4131"
       gradientUnits="userSpaceOnUse"
       x2="11.5"
       y1="38.062"
       x1="11.5" />
    <linearGradient
       id="linearGradient1434"
       y2="38.211"
       xlink:href="#linearGradient4131"
       gradientUnits="userSpaceOnUse"
       x2="17.216"
       gradientTransform="matrix(0.69296,0,0,1,2.0699,-0.97775)"
       y1="38.813"
       x1="21.445" />
    <linearGradient
       id="linearGradient1438"
       y2="37.973"
       xlink:href="#linearGradient4131"
       gradientUnits="userSpaceOnUse"
       x2="30"
       gradientTransform="matrix(0.64642,0,0,1,14.071,-0.9995)"
       y1="41.207"
       x1="33.399" />
    <linearGradient
       inkscape:collect="always"
       xlink:href="#linearGradient3524"
       id="linearGradient956"
       gradientUnits="userSpaceOnUse"
       x1="29"
       y1="7.75"
       x2="19"
       y2="7.75" />
    <linearGradient
       inkscape:collect="always"
       xlink:href="#linearGradient3524"
       id="linearGradient958"
       gradientUnits="userSpaceOnUse"
       x1="25.685436"
       y1="7.7058058"
       x2="19"
       y2="7.75" />
  </defs>
  <metadata
     id="metadata7">
    <rdf:RDF>
      <cc:Work
         rdf:about="">
        <dc:format>image/svg+xml</dc:format>
        <dc:type
           rdf:resource="http://purl.org/dc/dcmitype/StillImage" />
        <dc:creator>
          <cc:Agent>
            <dc:title>Lapo Calamandrei</dc:title>
          </cc:Agent>
        </dc:creator>
        <dc:title></dc:title>
        <dc:date>2006-04-19</dc:date>
        <cc:license
           rdf:resource="http://creativecommons.org/licenses/GPL/2.0/" />
        <dc:subject>
          <rdf:Bag>
            <rdf:li>delete</rdf:li>
            <rdf:li>remove</rdf:li>
            <rdf:li>trashbin</rdf:li>
            <rdf:li>trashcan</rdf:li>
          </rdf:Bag>
        </dc:subject>
      </cc:Work>
      <cc:License
         rdf:about="http://creativecommons.org/licenses/GPL/2.0/">
        <cc:permits
           rdf:resource="http://web.resource.org/cc/Reproduction" />
        <cc:permits
           rdf:resource="http://web.resource.org/cc/Distribution" />
        <cc:requires
           rdf:resource="http://web.resource.org/cc/Notice" />
        <cc:permits
           rdf:resource="http://web.resource.org/cc/DerivativeWorks" />
        <cc:requires
           rdf:resource="http://web.resource.org/cc/ShareAlike" />
        <cc:requires
           rdf:resource="http://web.resource.org/cc/SourceCode" />
      </cc:License>
    </rdf:RDF>
  </metadata>
  <path
     inkscape:connector-curvature="0"
     d="m 44.336773,40.190237 a 20.335387,7.0877125 0 1 1 -40.670773,0 20.335386,7.0877127 0 1 1 40.670773,0 z"
     style="color:#000000;opacity:0.8;fill:url(#radialGradient3454);stroke-width:1.36652625"
     id="path3445" />
  <path
     inkscape:connector-curvature="0"
     d="m 22.5,7.5 c -6.757,0.234 -13,2.255 -13,5 v 27 c 0,2.766 6.441,5 14.469,5 8.028,0 14.531,-2.234 14.531,-5 v -27 c 0,-2.7656 -6.503,-5 -14.531,-5 -0.377,0 -0.756,-0.0097 -1.125,0 -0.118,0.0031 -0.228,-0.004 -0.344,0 z"
     style="color:#000000;fill:url(#linearGradient3218);stroke:#131313;stroke-width:1.02919996;stroke-linecap:round;stroke-opacity:1"
     id="path3089" />
  <path
     inkscape:connector-curvature="0"
     d="M 22.938,8.5 C 16.357,8.6584 11.101,10.444 10.518,12.516 10.502,12.579 10.5,39.435 10.5,39.5 c 0,2 6.411,4 13.469,4 7.291,0 13.531,-2 13.531,-4 0,-0.046 0.005,-26.829 0,-26.875 C 37.225,10.342 31.26,8.5 23.969,8.5 c -0.35,0 -0.688,-0.0083 -1.031,0 z"
     style="color:#000000;opacity:0.70980003;fill:none;stroke:url(#linearGradient3221);stroke-linecap:round"
     id="path3226" />
  <rect
     x="22"
     y="19"
     width="4"
     height="22"
     ry="2"
     rx="2"
     style="color:#000000;opacity:0.3;fill:url(#linearGradient2311)"
     id="rect3235" />
  <rect
     x="27"
     y="18.5"
     width="4"
     height="22"
     ry="2"
     rx="2.2857001"
     style="color:#000000;opacity:0.3;fill:url(#linearGradient2308)"
     id="rect3237" />
  <rect
     x="32"
     y="17.5"
     width="3"
     height="22"
     ry="1.5"
     rx="1.5"
     style="color:#000000;opacity:0.3;fill:url(#linearGradient2305)"
     id="rect3239" />
  <rect
     x="36"
     y="15.5"
     width="1"
     height="22"
     ry="2"
     rx="0.5"
     style="color:#000000;opacity:0.3"
     id="rect3241" />
  <rect
     x="11"
     y="16"
     width="1"
     height="22"
     ry="2"
     rx="0.5"
     style="color:#000000;opacity:0.3;fill:#ffffff"
     id="rect3243" />
  <rect
     x="13"
     y="17.5"
     width="3"
     height="22"
     ry="1.5"
     rx="1.5"
     style="color:#000000;opacity:0.5;fill:url(#linearGradient2300)"
     id="rect3245" />
  <rect
     x="17"
     y="18.5"
     width="4"
     height="22"
     ry="2"
     rx="2.2857001"
     style="color:#000000;opacity:0.5;fill:url(#linearGradient2297)"
     id="rect3247" />
  <rect
     x="22.459"
     y="19.478001"
     width="3.0627"
     ry="1.5312999"
     rx="1.5312999"
     style="color:#000000;fill:none;stroke:url(#linearGradient4095);stroke-linecap:round"
     height="21.023001"
     id="rect2315" />
  <rect
     x="27.5"
     y="19"
     width="3.0058999"
     ry="1.4917001"
     rx="1.503"
     style="color:#000000;opacity:0.49412004;fill:none;stroke:url(#linearGradient4103);stroke-linecap:round"
     height="21.000999"
     id="rect2317" />
  <rect
     x="17.5"
     y="18.978001"
     width="3.0072999"
     ry="1.5358"
     rx="1.7185"
     style="color:#000000;fill:none;stroke:url(#linearGradient4087);stroke-linecap:round"
     height="21.021999"
     id="rect2325" />
  <rect
     x="36"
     y="15.5"
     width="1"
     height="22"
     ry="2"
     rx="0.5"
     style="color:#000000;opacity:0.4;fill:url(#linearGradient4137)"
     id="rect4127" />
  <rect
     x="11"
     y="16"
     width="1"
     height="22"
     ry="2"
     rx="0.5"
     style="color:#000000;opacity:0.3;fill:url(#linearGradient4139)"
     id="rect4129" />
  <rect
     x="13.5"
     y="18"
     width="2.0839"
     ry="1.5358"
     rx="1.7185"
     style="color:#000000;fill:none;stroke:url(#linearGradient1434);stroke-linecap:round"
     height="21.021999"
     id="rect1432" />
  <rect
     x="32.492001"
     y="18"
     width="1.9431"
     ry="0.97153997"
     rx="0.97153997"
     style="color:#000000;opacity:0.49412004;fill:none;stroke:url(#linearGradient1438);stroke-linecap:round"
     height="21.000999"
     id="rect1436" />
  <path
     inkscape:connector-curvature="0"
     d="M 23.188,15.5 C 17.505,15.577 12.602,16.457 10,17.707 v 4.086 C 12.727,23.103 17.97,24 24,24 30.03,24 35.273,23.103 38,21.793 V 17.707 C 35.273,16.397 30.03,15.5 24,15.5 c -0.276,0 -0.54,-0.004 -0.812,0 z"
     style="color:#000000;opacity:0.55294004;fill:url(#radialGradient2277)"
     id="rect2268" />
  <path
     inkscape:connector-curvature="0"
     d="M 22.419,6.5091 C 14.605,6.8165 8.498,9.3807 8.498,12.486 v 3.004 c 0,3.311 6.927,6.007 15.485,6.007 8.558,0 15.517,-2.696 15.517,-6.007 v -3.004 c 0,-3.3123 -6.959,-5.9769 -15.517,-5.9769 -0.535,0 -1.043,-0.0205 -1.564,0 z"
     style="color:#000000;fill:url(#linearGradient3323);stroke:#000000;stroke-linecap:round;stroke-opacity:1"
     id="path3119" />
  <path
     inkscape:connector-curvature="0"
     d="M 19.5,9 19,11 h 1 c 0,-1.5 2.301,-3.9964 4,-3.9964 1.699,0 4,2.4964 4,3.9964 h 1 L 28.5,9 C 28.229,7.1691 27,4.5 24,4.5036 21,4.5072 19.758,7.255 19.5,9 Z"
     style="color:#000000;fill:url(#linearGradient956);stroke:#000000;stroke-width:2;stroke-linecap:round;stroke-opacity:1"
     id="path3567" />
  <path
     inkscape:connector-curvature="0"
     d="m 38.99992,12.176591 c 0,2.759989 -6.719987,4.823314 -14.99997,4.823314 -8.279983,0 -14.99997,-2.239991 -14.99997,-4.99998 0,-2.759989 6.719987,-4.99998 14.99997,-4.99998 8.279983,0 14.99997,3.033321 14.99997,5.176646 z"
     style="color:#000000;fill:url(#linearGradient3359);stroke-width:0.89802384"
     id="path3343" />
  <path
     inkscape:connector-curvature="0"
     d="m 32.37137,10.500025 a 8.37093,2.7903 0 1 1 -16.74186,0 8.37093,2.7903 0 1 1 16.74186,0 z"
     style="color:#000000;opacity:0.3;fill:url(#radialGradient3517);stroke-width:0.50115359"
     id="path3507" />
  <path
     inkscape:connector-curvature="0"
     d="M 22.53,7.5 C 15.216,7.7674 9.5,9.9974 9.5,12.698 v 2.612 c 0,2.881 6.484,5.225 14.494,5.225 8.01,0 14.523,-2.344 14.523,-5.225 V 12.698 C 38.517,9.8174 32.004,7.5 23.994,7.5 c -0.501,0 -0.977,-0.0178 -1.464,0 z"
     style="color:#000000;opacity:0.56471001;fill:none;stroke:url(#linearGradient3229);stroke-linecap:round"
     id="path3321" />
  <path
     inkscape:connector-curvature="0"
     d="m 38.53219,11.6745 a 14.5161,5.1744 0 1 1 -29.0322,0 14.5161,5.1744 0 1 1 29.0322,0 z"
     style="color:#000000;fill:none;stroke:url(#radialGradient3341);stroke-width:1.0000006;stroke-linecap:round"
     id="path3333" />
  <path
     id="path4486"
     style="color:#000000;opacity:0.55686005;fill:url(#radialGradient4488);stroke-width:0.88273293"
     d="m 32.000435,10.499955 a 2.4999975,1.499995 0 1 1 -4.999995,0 2.4999975,1.499995 0 1 1 4.999995,0 z"
     inkscape:connector-curvature="0" />
  <path
     id="path4476"
     style="color:#000000;opacity:0.55686005;fill:url(#radialGradient4484);stroke-width:0.88273293"
     d="m 20.999935,10.499955 a 2.4999975,1.499995 0 1 1 -4.999995,0 2.4999975,1.499995 0 1 1 4.999995,0 z"
     inkscape:connector-curvature="0" />
  <rect
     x="24.957001"
     y="9.4622717"
     width="2.5427001"
     height="2.0376937"
     ry="0.39095882"
     rx="0.41802001"
     transform="matrix(1,0,0.30875095,0.95114292,0,0)"
     style="color:#000000;fill:url(#linearGradient3554);stroke-width:0.99999845"
     id="rect3528" />
  <path
     inkscape:connector-curvature="0"
     d="m 17.367375,10.93811 h 1.706 c 0.232,0 0.471722,-0.165498 0.538721,-0.371896 L 19.999824,9.3717726 C 20.066669,9.1658508 19.934515,8.999972 19.702515,8.999972 h -1.706 c -0.232,0 -0.471846,0.1658788 -0.538691,0.3718006 l -0.387728,1.1944414 c -0.067,0.206398 0.06528,0.371896 0.297279,0.371896 z"
     style="color:#000000;fill:url(#linearGradient3563);stroke-width:0.97526407"
     id="rect3530" />
  <path
     inkscape:connector-curvature="0"
     d="M 19.5,9 19,11 h 1 c 0,-1.5 2.301,-3.9964 4,-3.9964 1.699,0 4,2.4964 4,3.9964 h 1 L 28.5,9 C 28.229,7.1691 27,4.5 24,4.5036 21,4.5072 19.758,7.255 19.5,9 Z"
     style="color:#000000;fill:url(#linearGradient958)"
     id="path3461" />
  <path
     inkscape:connector-curvature="0"
     d="m 17.5,11 h 2 C 19.5,11 20,7.5 24,7.5036 28.002,7.5072 28.5,11 28.5,11 h 1.971"
     style="color:#000000;fill:url(#linearGradient3505);stroke:#ffffff;stroke-linecap:round"
     id="path3366" />
  <path
     inkscape:connector-curvature="0"
     d="m 32.047515,11.67433 a 8.03085,2.86264 0 1 1 -16.0617,0 8.03085,2.86264 0 1 1 16.0617,0 z"
     style="color:#000000;fill:none;stroke:url(#radialGradient2275);stroke-width:0.99998951;stroke-linecap:round"
     id="path2273" />
</svg>
