<?xml version="1.0" encoding="UTF-8" standalone="no"?>
<svg
   xmlns:dc="http://purl.org/dc/elements/1.1/"
   xmlns:cc="http://creativecommons.org/ns#"
   xmlns:rdf="http://www.w3.org/1999/02/22-rdf-syntax-ns#"
   xmlns:svg="http://www.w3.org/2000/svg"
   xmlns="http://www.w3.org/2000/svg"
   xmlns:xlink="http://www.w3.org/1999/xlink"
   xmlns:sodipodi="http://sodipodi.sourceforge.net/DTD/sodipodi-0.dtd"
   xmlns:inkscape="http://www.inkscape.org/namespaces/inkscape"
   sodipodi:docname="preference65.svg"
   inkscape:version="1.0 (4035a4fb49, 2020-05-01)"
   version="1.1"
   id="svg2"
   viewBox="0 0 24 24"
   height="24"
   width="24">
  <defs
     id="defs4">
    <linearGradient
       id="linearGradient989"
       inkscape:collect="always">
      <stop
         id="stop985"
         offset="0"
         style="stop-color:#555e61;stop-opacity:1" />
      <stop
         id="stop987"
         offset="1"
         style="stop-color:#7e8686;stop-opacity:1" />
    </linearGradient>
    <linearGradient
       inkscape:collect="always"
       id="linearGradient888">
      <stop
         style="stop-color:#555e61;stop-opacity:1"
         offset="0"
         id="stop884" />
      <stop
         style="stop-color:#7e8686;stop-opacity:1"
         offset="1"
         id="stop886" />
    </linearGradient>
    <linearGradient
       id="linearGradient881"
       inkscape:collect="always">
      <stop
         id="stop877"
         offset="0"
         style="stop-color:#ffffff;stop-opacity:1" />
      <stop
         id="stop879"
         offset="1"
         style="stop-color:#dfdfdf;stop-opacity:1" />
    </linearGradient>
    <linearGradient
       gradientTransform="translate(-1,-1.9999652)"
       inkscape:collect="always"
       xlink:href="#linearGradient989"
       id="linearGradient890"
       x1="8"
       y1="1046.3622"
       x2="8"
       y2="1054.3622"
       gradientUnits="userSpaceOnUse" />
    <linearGradient
       gradientUnits="userSpaceOnUse"
       y2="1054.3622"
       x2="8"
       y1="1046.3622"
       x1="8"
       id="linearGradient890-5"
       xlink:href="#linearGradient888"
       inkscape:collect="always"
       gradientTransform="translate(6,-1.9999652)" />
    <radialGradient
       r="15.644737"
       fy="36.42131"
       fx="24.837124"
       cy="36.42131"
       cx="24.837124"
       gradientTransform="matrix(0.76774645,-4.3722035e-4,1.1549804e-4,0.20278371,-8.0729633,1048.2484)"
       gradientUnits="userSpaceOnUse"
       id="radialGradient1444"
       xlink:href="#linearGradient8662"
       inkscape:collect="always" />
    <linearGradient
       inkscape:collect="always"
       id="linearGradient8662">
      <stop
         style="stop-color:#000000;stop-opacity:1;"
         offset="0"
         id="stop8664" />
      <stop
         style="stop-color:#000000;stop-opacity:0.05"
         offset="1"
         id="stop8666" />
    </linearGradient>
    <radialGradient
       inkscape:collect="always"
       xlink:href="#linearGradient881"
       id="radialGradient983"
       cx="12.057913"
       cy="1055.3743"
       fx="12.057913"
       fy="1055.3743"
       r="7.0000005"
       gradientTransform="matrix(2.302656,0.04142914,-0.02711195,1.5068981,11.410524,-538.60382)"
       gradientUnits="userSpaceOnUse" />
  </defs>
  <sodipodi:namedview
     inkscape:document-rotation="0"
     viewbox-height="16"
     inkscape:window-maximized="1"
     inkscape:window-y="-8"
     inkscape:window-x="-8"
     inkscape:window-height="987"
     inkscape:window-width="1680"
     units="px"
     showgrid="true"
     inkscape:current-layer="layer1"
     inkscape:document-units="px"
     inkscape:cy="18.488683"
     inkscape:cx="13.299444"
     inkscape:zoom="12.203384"
     inkscape:pageshadow="2"
     inkscape:pageopacity="0.0"
     borderopacity="1.0"
     bordercolor="#666666"
     pagecolor="#ffffff"
     id="base">
    <inkscape:grid
       spacingy="1"
       spacingx="1"
       originy="0"
       originx="0"
       id="grid4136"
       type="xygrid" />
  </sodipodi:namedview>
  <metadata
     id="metadata7">
    <rdf:RDF>
      <cc:Work
         rdf:about="">
        <dc:format>image/svg+xml</dc:format>
        <dc:type
           rdf:resource="http://purl.org/dc/dcmitype/StillImage" />
        <dc:title></dc:title>
        <cc:license
           rdf:resource="http://creativecommons.org/publicdomain/zero/1.0/" />
      </cc:Work>
      <cc:License
         rdf:about="http://creativecommons.org/publicdomain/zero/1.0/">
        <cc:permits
           rdf:resource="http://creativecommons.org/ns#Reproduction" />
        <cc:permits
           rdf:resource="http://creativecommons.org/ns#Distribution" />
        <cc:permits
           rdf:resource="http://creativecommons.org/ns#DerivativeWorks" />
      </cc:License>
    </rdf:RDF>
  </metadata>
  <g
     transform="translate(0,-1037.3622)"
     id="layer1"
     inkscape:groupmode="layer"
     inkscape:label="Layer 1">
    <ellipse
       ry="3.1724999"
       rx="11.999858"
       cy="1055.623"
       cx="10.999858"
       style="color:#000000;display:inline;overflow:visible;visibility:visible;opacity:0.204545;fill:url(#radialGradient1444);fill-opacity:1;fill-rule:evenodd;stroke:none;stroke-width:0.85039;stroke-linecap:butt;stroke-linejoin:miter;stroke-miterlimit:10;stroke-dasharray:none;stroke-dashoffset:0;stroke-opacity:1;marker:none;marker-start:none;marker-mid:none;marker-end:none"
       id="path8660" />
    <rect
       ry="1.4765625"
       y="1039.3622"
       x="2"
       height="17"
       width="18"
       id="rect845"
       style="fill:#7c7c7c;fill-opacity:1;stroke:#b26e00;stroke-width:0;stroke-linecap:round;stroke-linejoin:round;stroke-dashoffset:1.08;stroke-opacity:0.956863" />
    <rect
       style="fill:#ffffff;fill-opacity:1;stroke:#b26e00;stroke-width:0;stroke-linecap:round;stroke-linejoin:round;stroke-dashoffset:1.08;stroke-opacity:0.956863"
       id="rect845-7"
       width="16"
       height="15.000001"
       x="3"
       y="1040.3622"
       ry="0" />
    <rect
       ry="0"
       y="1041.3622"
       x="4"
       height="13.000002"
       width="14"
       id="rect845-7-2"
       style="fill:url(#radialGradient983);fill-opacity:1;stroke:#b26e00;stroke-width:0;stroke-linecap:round;stroke-linejoin:round;stroke-dashoffset:1.08;stroke-opacity:0.956863" />
    <path
       id="rect839"
       style="fill:#a0a3a4;fill-opacity:1;stroke:#b26e00;stroke-width:0;stroke-linecap:round;stroke-linejoin:round;stroke-dashoffset:1.08;stroke-opacity:0.956863"
       d="m 6,1043.3622 h 3 v 10 H 6 Z" />
    <path
       id="rect839-5"
       style="fill:#a0a3a4;fill-opacity:1;stroke:#b26e00;stroke-width:0;stroke-linecap:round;stroke-linejoin:round;stroke-dashoffset:1.08;stroke-opacity:0.956863"
       d="m 13,1043.3622 h 3 v 10 h -3 z" />
    <path
       d="m 6,1044.3622 h 3 v 8 H 6 Z"
       style="fill:url(#linearGradient890);fill-opacity:1;stroke:#b26e00;stroke-width:0;stroke-linecap:round;stroke-linejoin:round;stroke-dashoffset:1.08;stroke-opacity:0.956863"
       id="rect839-1" />
    <path
       id="rect839-1-8"
       style="fill:url(#linearGradient890-5);fill-opacity:1;stroke:#b26e00;stroke-width:0;stroke-linecap:round;stroke-linejoin:round;stroke-dashoffset:1.08;stroke-opacity:0.956863"
       d="m 13,1044.3622 h 3 v 8 h -3 z" />
    <rect
       style="fill:#9b9b9b;fill-opacity:1;stroke:#b26e00;stroke-width:0;stroke-linecap:round;stroke-linejoin:round;stroke-dashoffset:1.08;stroke-opacity:0.956863"
       id="rect916"
       width="5"
       height="5"
       x="5"
       y="1043.3622"
       ry="0.58703613" />
    <rect
       ry="0.35222167"
       y="1044.3622"
       x="6"
       height="2.9999998"
       width="3.0000005"
       id="rect916-4"
       style="fill:#ffffff;fill-opacity:1;stroke:#b26e00;stroke-width:0;stroke-linecap:round;stroke-linejoin:round;stroke-dashoffset:1.08;stroke-opacity:0.956863" />
    <rect
       style="fill:#efefed;fill-opacity:1;stroke:#b26e00;stroke-width:0;stroke-linecap:round;stroke-linejoin:round;stroke-dashoffset:1.08;stroke-opacity:0.956863"
       id="rect916-4-2"
       width="1.0000002"
       height="1.0000086"
       x="7"
       y="1045.3622"
       ry="0.11740824" />
    <rect
       ry="0.58703613"
       y="1046.3622"
       x="12"
       height="5"
       width="5"
       id="rect916-2"
       style="fill:#9b9b9b;fill-opacity:1;stroke:#b26e00;stroke-width:0;stroke-linecap:round;stroke-linejoin:round;stroke-dashoffset:1.08;stroke-opacity:0.956863" />
    <rect
       style="fill:#ffffff;fill-opacity:1;stroke:#b26e00;stroke-width:0;stroke-linecap:round;stroke-linejoin:round;stroke-dashoffset:1.08;stroke-opacity:0.956863"
       id="rect916-4-8"
       width="3.0000005"
       height="2.9999998"
       x="13"
       y="1047.3622"
       ry="0.35222167" />
    <rect
       ry="0.11740824"
       y="1048.3622"
       x="14"
       height="1.0000086"
       width="1.0000002"
       id="rect916-4-2-7"
       style="fill:#efefed;fill-opacity:1;stroke:#b26e00;stroke-width:0;stroke-linecap:round;stroke-linejoin:round;stroke-dashoffset:1.08;stroke-opacity:0.956863" />
    <g
       style="stroke-width:1.36429"
       transform="matrix(0.73298214,0,0,0.73298214,-87.583918,809.21903)"
       id="g905">
      <path
         inkscape:connector-curvature="0"
         style="fill:#2e3436;fill-rule:evenodd;stroke:#2e3436;stroke-width:0.125956px;stroke-linecap:butt;stroke-linejoin:miter;stroke-opacity:1"
         d="m 147.48,324.27477 c -0.50496,-0.005 -1.16405,0.0401 -2.01093,0.14425 -10.84002,1.33279 -9.6853,12.70602 -9.6853,12.70602 2.04361,18.92562 31.00766,-7.64198 15.90271,-6.6646 -13.92488,0.90102 1.75191,-6.12628 -4.20648,-6.18567 z m -2.68027,5.95775 c 0.11478,-0.005 0.22429,0.0115 0.32602,0.0519 0.54255,0.21561 0.63766,1.02729 0.2135,1.81185 -0.42417,0.78455 -1.20871,1.24559 -1.75127,1.02998 -0.54255,-0.21561 -0.63766,-1.02729 -0.21349,-1.81185 0.34463,-0.63745 0.92788,-1.06084 1.42524,-1.08191 z"
         id="path2775" />
      <path
         inkscape:connector-curvature="0"
         inkscape:export-ydpi="17.598721"
         inkscape:export-xdpi="17.598721"
         id="path2176"
         d="m 147.02879,324.18592 c -0.50495,-0.005 -1.16404,0.0401 -2.01092,0.14425 -10.84002,1.33279 -9.68531,12.70602 -9.68531,12.70602 2.04361,18.92561 31.00767,-7.64198 15.90272,-6.6646 -13.92488,0.90102 1.7519,-6.12628 -4.20649,-6.18567 z m -2.68027,5.95775 c 0.11478,-0.005 0.22429,0.0115 0.32602,0.0519 0.54255,0.21561 0.63766,1.02729 0.2135,1.81184 -0.42417,0.78456 -1.20871,1.2456 -1.75126,1.02999 -0.54256,-0.21561 -0.63766,-1.02729 -0.2135,-1.81185 0.34463,-0.63745 0.92788,-1.06084 1.42524,-1.08191 z"
         style="fill:#b5b6d9;fill-opacity:1;fill-rule:evenodd;stroke:#2e3436;stroke-width:0.125956px;stroke-linecap:butt;stroke-linejoin:miter;stroke-opacity:1" />
      <path
         inkscape:connector-curvature="0"
         id="path2760"
         d="m 143.17421,325.62898 c -0.14044,0.0164 0.13023,0.40906 0.0146,0.53064 -0.14434,0.15176 -0.84197,0.056 -0.93712,0.2288 -0.0508,0.0922 0.12064,0.22849 0.24584,0.36024 -0.43961,0.44375 -0.67091,0.94033 -0.5428,1.24625 0.12243,0.29237 0.54043,0.32776 1.04179,0.13632 0.0468,0.1332 0.0993,0.25025 0.16795,0.29208 0.0962,0.0587 0.19827,-0.32395 0.30669,-0.52576 3.6e-4,-5.4e-4 -3.6e-4,-0.002 0,-0.002 0.0443,-0.0274 0.0895,-0.0547 0.13388,-0.0852 0.009,-0.006 0.0177,-0.0131 0.0268,-0.0195 0.19933,0.0876 0.53842,0.69592 0.69372,0.60365 0.13528,-0.0804 -0.45042,-0.65124 -0.38946,-0.81785 0.009,-0.0233 0.0253,-0.0457 0.0462,-0.0682 0.002,-0.002 0.005,-0.003 0.007,-0.005 0.009,-0.008 0.0159,-0.0164 0.0243,-0.0243 0.005,-0.005 0.0116,-0.009 0.017,-0.0146 0.19881,-0.15965 0.62093,-0.30489 0.64017,-0.47708 0.009,-0.0782 -0.0844,-0.0784 -0.1923,-0.073 0.17393,-0.28896 0.24283,-0.5632 0.16066,-0.75943 -0.0477,-0.11399 -0.14272,-0.18814 -0.26775,-0.22637 -0.006,-0.017 -0.0127,-0.0322 -0.0243,-0.0438 -0.0344,-0.0344 -0.0887,-0.0198 -0.15334,0.0146 -0.17846,-0.008 -0.39479,0.0339 -0.628,0.12657 -0.13098,-0.16514 -0.27038,-0.41094 -0.39189,-0.39675 z"
         style="color:#000000;display:inline;overflow:visible;visibility:visible;fill:#cc0000;fill-opacity:1;fill-rule:evenodd;stroke:none;stroke-width:1.22785;marker:none;enable-background:accumulate" />
      <ellipse
         ry="6.7368422"
         rx="13.473684"
         cy="114.01632"
         cx="263.69925"
         transform="matrix(0.06276426,-0.13177449,0.15188523,0.09383721,105.11103,355.43497)"
         id="path2762"
         style="color:#000000;display:inline;overflow:visible;visibility:visible;fill:#ce5c00;fill-opacity:1;fill-rule:evenodd;stroke:none;stroke-width:1.22785;marker:none;enable-background:accumulate" />
      <path
         inkscape:connector-curvature="0"
         id="path2770"
         d="m 152.12101,330.99766 c -0.12631,-0.007 -0.21383,0.30471 -0.31448,0.58568 -0.24136,0.0402 -0.48029,0.13515 -0.70397,0.27408 -0.4063,-0.21726 -0.93865,-0.55842 -1.14538,-0.41834 -0.26171,0.17732 0.71309,0.56868 0.64049,0.83956 -0.0271,0.0297 -0.0519,0.061 -0.0779,0.0923 -0.35041,0.2382 -1.77535,0.31186 -1.79742,0.63761 -0.0206,0.30433 0.96305,0.44718 1.19155,0.70396 -0.0164,0.10561 -0.0254,0.21087 -0.0289,0.31448 -0.19542,0.27453 -0.673,0.57447 -0.49047,0.76455 0.0844,0.0879 0.30256,0.01 0.55683,-0.1154 0.13104,0.53001 0.44819,0.96697 0.92034,1.17712 0.91908,0.40908 2.07031,-0.19265 2.57064,-1.34157 0.28497,-0.6544 0.29849,-1.34556 0.0865,-1.89552 0.0272,-0.0419 0.0413,-0.0819 0.0375,-0.12406 -0.006,-0.0681 -0.0597,-0.095 -0.13848,-0.0981 -0.16859,-0.31268 -0.41865,-0.56028 -0.74147,-0.70397 -0.13471,-0.0599 -0.27641,-0.10025 -0.41834,-0.11829 0.0187,-0.25414 0.0162,-0.48116 -0.0981,-0.55682 -0.0166,-0.011 -0.0336,-0.0165 -0.049,-0.0173 z"
         style="color:#000000;display:inline;overflow:visible;visibility:visible;fill:#2e3436;fill-opacity:1;fill-rule:evenodd;stroke:none;stroke-width:1.22785;marker:none;enable-background:accumulate" />
      <path
         inkscape:connector-curvature="0"
         id="path4974"
         d="m 138.56299,335.43663 c -0.51535,0.13762 -0.84399,0.61677 -1.07678,1.06948 -0.41561,-0.10377 0.0681,0.41976 -0.16061,0.63877 -0.0487,0.22302 -0.42807,0.31711 -0.11315,0.47087 0.26545,0.43243 0.25147,1.17119 0.89793,1.23009 0.42968,0.0684 0.8284,-0.24858 1.09868,-0.52928 0.19944,-0.4855 0.36849,-1.05359 0.42706,-1.54034 -0.10014,-0.43603 -0.20081,-0.94568 -0.51466,-1.25929 -0.19031,0.005 -0.36636,-0.092 -0.55847,-0.0803 z"
         style="color:#000000;display:inline;overflow:visible;visibility:visible;fill:#222ebb;fill-opacity:1;fill-rule:evenodd;stroke:none;stroke-width:1.22785;marker:none;enable-background:accumulate" />
      <path
         inkscape:connector-curvature="0"
         id="path4976"
         d="m 142.85425,338.68825 c -1.42892,0.10381 -2.32589,2.04052 -1.46005,3.19751 0.2377,0.40463 0.74077,0.38492 1.12788,0.48911 0.45874,-0.36676 1.05191,-0.61036 1.2447,-1.22644 0.23084,-0.17894 0.2224,-0.29098 0.1606,-0.54752 -0.006,-0.2254 0.15733,-0.51408 0.1095,-0.67892 -0.21903,-0.39853 -0.25895,-0.94622 -0.78477,-1.12423 -0.12204,-0.0535 -0.28891,-0.11582 -0.39786,-0.10951 z"
         style="color:#000000;display:inline;overflow:visible;visibility:visible;fill:#fce94f;fill-opacity:1;fill-rule:evenodd;stroke:none;stroke-width:1.22785;marker:none;enable-background:accumulate" />
      <path
         inkscape:connector-curvature="0"
         id="path4978"
         d="m 147.82934,335.64487 c -0.51402,-0.009 -0.99934,0.44016 -1.38903,0.63303 -0.15375,0.6796 -0.67353,1.3023 -0.47363,2.0585 0.0725,1.05012 1.48182,1.5767 2.21334,0.77877 0.71968,-0.51754 1.02535,-1.4557 0.8744,-2.31354 0.28768,-0.36874 -0.30437,-0.46049 -0.40988,-0.81975 -0.17431,-0.24617 -0.53447,-0.33992 -0.8152,-0.33701 z"
         style="color:#000000;display:inline;overflow:visible;visibility:visible;fill:#60aa18;fill-opacity:1;fill-rule:evenodd;stroke:none;stroke-width:1.22785;marker:none;enable-background:accumulate" />
    </g>
  </g>
</svg>
