<?xml version="1.0" encoding="UTF-8"?>
<svg xmlns="http://www.w3.org/2000/svg" xmlns:xlink="http://www.w3.org/1999/xlink" width="48" height="48">
<defs>
	<linearGradient id="p" gradientUnits="userSpaceOnUse" x2="0" gradientTransform="translate(-.2929 .9564)" y1="27.92" y2="17.2">
		<stop stop-color="#8f5902" stop-opacity=".19" offset="0"/>
		<stop stop-color="#c17d11" offset="1"/>
	</linearGradient>
	<linearGradient id="c">
		<stop stop-color="#fce94f" offset="0"/>
		<stop stop-color="#8f5902" offset=".5"/>
		<stop stop-color="#c4a000" offset="1"/>
	</linearGradient>
	<linearGradient id="a">
		<stop offset="0"/>
		<stop stop-opacity="0" offset="1"/>
	</linearGradient>
	<linearGradient id="t" x1="40.57" xlink:href="#a" gradientUnits="userSpaceOnUse" y1="36.4" gradientTransform="translate(-.2929 .9564)" x2="41.69" y2="35.5"/>
	<linearGradient id="u" x1="20" xlink:href="#a" gradientUnits="userSpaceOnUse" y1="36.3" gradientTransform="translate(-.2929 .9564)" x2="21.91" y2="37.1"/>
	<linearGradient id="v" gradientUnits="userSpaceOnUse" x2="0" gradientTransform="translate(-.2929 .9564)" y1="29.55" y2="35.8">
		<stop stop-color="#fff" offset="0"/>
		<stop stop-color="#c9c9c9" offset="1"/>
	</linearGradient>
	<radialGradient id="j" gradientUnits="userSpaceOnUse" cy="17.1" cx="29.38" gradientTransform="translate(-.2929 .9564)" r="7.1">
		<stop stop-color="#f4d9b1" offset="0"/>
		<stop stop-color="#df9725" offset="1"/>
	</radialGradient>
	<radialGradient id="k" gradientUnits="userSpaceOnUse" cy="27.2" cx="28.1" gradientTransform="matrix(1.298 0 0 .885 -8.653 5.896)" r="13.57">
		<stop stop-color="#3b74bc" offset="0"/>
		<stop stop-color="#2d5990" offset="1"/>
	</radialGradient>
	<radialGradient id="b" xlink:href="#a" gradientUnits="userSpaceOnUse" cy="19" cx="31.1" gradientTransform="translate(-.4229 4.456)" r="8.66"/>
	<radialGradient id="e" gradientUnits="userSpaceOnUse" cy="24.84" cx="5.344" gradientTransform="matrix(.6230 .2327 -.2204 .4719 22.45 -44.23)" r="2.883">
		<stop stop-color="#fff" stop-opacity=".6" offset="0"/>
		<stop stop-opacity="0" stop-color="#fff" offset="1"/>
	</radialGradient>
	<radialGradient id="w" xlink:href="#a" gradientUnits="userSpaceOnUse" cy="19" cx="31.1" gradientTransform="matrix(1.776 0 0 .959 -24.49 19.73)" r="8.66"/>
	<linearGradient id="l" x1="14.27" xlink:href="#c" gradientUnits="userSpaceOnUse" y1="16.21" gradientTransform="matrix(.9781 0 0 .9781 -14.46 -7.873)" x2="49.4" y2="26.52"/>
	<radialGradient id="o" xlink:href="#a" gradientUnits="userSpaceOnUse" cy="19" cx="31.1" gradientTransform="matrix(1.776 0 0 .9590 -37.8 12.93)" r="8.66"/>
	<radialGradient id="q" gradientUnits="userSpaceOnUse" cy="27.2" cx="28.1" gradientTransform="matrix(1.298 0 0 .8850 -21.91 -.9014)" r="13.57">
		<stop stop-color="#be0000" offset="0"/>
		<stop stop-color="#780000" offset="1"/>
	</radialGradient>
	<linearGradient id="f" x1="21.68" xlink:href="#a" gradientUnits="userSpaceOnUse" y1="39" gradientTransform="translate(-15.18 -8.531)" x2="23.54" y2="39.76"/>
	<linearGradient id="h" x1="42.2" xlink:href="#a" gradientUnits="userSpaceOnUse" y1="39.1" gradientTransform="translate(-15.18 -8.531)" x2="43.3" y2="38.2"/>
	<radialGradient id="r" xlink:href="#a" gradientUnits="userSpaceOnUse" cy="23.79" cx="32.75" gradientTransform="translate(-15.18 -8.531)" r="8.51"/>
	<radialGradient id="s" gradientUnits="userSpaceOnUse" cy="20.23" cx="32.3" gradientTransform="translate(-15.18 -8.531)" r="6.64">
		<stop stop-color="#f5e2c3" offset="0"/>
		<stop stop-color="#df9929" offset="1"/>
	</radialGradient>
	<linearGradient id="i" gradientUnits="userSpaceOnUse" x2="0" gradientTransform="translate(-15.18 -8.531)" y1="29.79" y2="21.81">
		<stop stop-color="#8f5902" stop-opacity="0" offset="0"/>
		<stop stop-color="#653f01" offset="1"/>
	</linearGradient>
	<linearGradient id="m" x1="35.3" xlink:href="#c" gradientUnits="userSpaceOnUse" y1="19.84" gradientTransform="matrix(.8883 0 0 .9538 -11.57 -7.46)" x2="40.7" y2="15"/>
	<linearGradient id="n" y2="23.32" xlink:href="#c" gradientUnits="userSpaceOnUse" y1="13.53" gradientTransform="matrix(.8883 0 0 .9538 -11.57 -7.46)" x2="33.66" x1="27.71"/>
	<radialGradient id="g" gradientUnits="userSpaceOnUse" cy="17.86" cx="29.2" gradientTransform="matrix(.5520 .1150 -0.068 .3480 6.579 17.82)" r="8.66">
		<stop stop-color="#f9adad" stop-opacity=".3" offset="0"/>
		<stop stop-color="#868686" stop-opacity="0" offset="1"/>
	</radialGradient>
</defs>
<path stroke-linejoin="round" d="m12.48 25.04-5.545-1.369s0.3032-11.1 2.611-14.67c2.308-3.58 5.027-4.44 5.027-4.44s4.45-1.565 6.064 0.4597c0.665 0.8316 2.631 0.313 3.912 2.024s4.029 11.11 3.657 16.62l-9.206 1.496-6.523 0.1956v-0.3228z" stroke="#8f5902" fill="url(#l)"/>
<ellipse rx="15.38" ry="8.31" cy="31.16" cx="17.44" fill="url(#o)"/>
<ellipse rx="7.88" ry="7.89" stroke="#8f5902" cy="13.23" cx="17.57" stroke-width="0.8" fill="#8f5902"/>
<path stroke-linejoin="round" d="m12.44 35.77h10.61c3 0 5.98-1.1 7.1-4.24 1.04-2.98 0.18-8.66-6.54-13.26h-12.55c-6.72 4.24-7.56 10-6 13.44 1.58 3.45 4.24 4.07 7.43 4.07z" stroke="#c00" stroke-linecap="round" fill="url(#q)"/>
<path opacity=".3" stroke-linejoin="round" d="m12.47 34.77 10.65-0.02c2.84 0 5.11-0.83 6.14-3.78 0.9198-2.66-0.26-7.72-6.25-11.82l-11.37-0.26c-5.99 3.78-7.14 8.947-5.74 12.22 1.4 3.27 3.45 3.62 6.57 3.65z" stroke="#fff" stroke-linecap="round" fill="none"/>
<path opacity=".23" d="m8.296 34.97c-1.25-0.55-1.81-1.86-1.81-1.86 0.84-4.07 3.72-7 3.72-7s-2.28 6.41-1.91 8.9" fill="url(#f)"/>
<path opacity=".23" d="m27.22 34.07c1.23-0.58 1.8-2 1.8-2-0.96-4-3.98-6.84-3.98-6.84s2.47 6.34 2.17 8.84" fill="url(#h)"/>
<circle cy="15.26" cx="17.57" r="8.51" fill="url(#r)"/>
<circle stroke="url(#i)" cy="13.23" cx="17.57" r="7.62" fill="url(#s)"/>
<g stroke-linejoin="round" stroke-width=".8">
	<circle opacity=".2" stroke="#fff" cy="13.23" cx="17.57" r="6.81" fill="none"/>
	<path d="m19.9 7.068c-0.67-0.153 5.31 6.622 6.71 6.892 0.34 0.06-1.68-7.092-3.52-7.522l-1.82-0.42z" stroke="#8f5902" fill="url(#m)"/>
	<path d="m21.27 5.99c0.764 0-8.713 7.899-11.46 7.06-2.665-0.8202 1.155-6.506 3.35-7.479 0 0 2.931-1.317 4.291-1.364 2.203-0.06678 3.811 1.784 3.811 1.784z" stroke="#8f5902" fill="url(#n)"/>
</g>
<path opacity=".5" fill="#fff" d="m21.37 7.898c-0.01777 0.02862 2.976 3.978 4.13 4.579 1.129 0.5915-0.2221-1.908-0.684-3.215l0.9765 3.186c-1.37-0.88-2.9-2.781-4.43-4.546m-11.84 3.836c0.2309 0.5724 0.604 0.7632 1.004 0.7632 0.6751-0.0009538 3.065-1.12 4.521-1.86 0 0-0.7445 0.6938-2.494 1.486-0.8437 0.3816-2.462 1.406-3.333-0.02595-0.874-1.44 3.204-7.503 7.524-7.29-3.93 0.339-7.819 5.33-7.222 6.93z"/>
<ellipse id="d" rx="4" ry="3.29" cy="27.77" cx="22.3" fill="url(#g)"/>
<use xlink:href="#d" height="100%" width="100%" y="0" x="-8.5"/>
<use xlink:href="#d" transform="matrix(.6513 0 0 .6513 2.623 2.801)" x="-8.5"/>
<ellipse rx="15.38" ry="8.305" cy="37.95" cx="30.74" fill="url(#w)"/>
<path stroke-linejoin="round" d="m25.7 42.6h10.61c3 0 5.98-1.1 7.1-4.24 1.04-2.98 0.18-8.66-6.54-13.26h-12.55c-6.72 4.24-7.56 10-6 13.44 1.58 3.45 4.24 4.07 7.43 4.07z" stroke="#204a87" stroke-linecap="round" fill="url(#k)"/>
<path d="m26.4 26.69c3.18 2.83 4.6 13.1 4.6 13.1s1.41-10.25 3.89-13.26l-8.48 0.18" fill="url(#v)"/>
<path d="m28.68 27.75s-2.15 1.66-1.97 3.66c-2.04-1.8-2.1-5.25-2.1-5.25l4.07 1.59" fill="#aec8e4"/>
<path opacity=".23" stroke-linejoin="round" d="m25.62 41.55 10.49-0.02c2.64 0 5.25-0.97 6.21-3.73 0.91-2.62-0.09-7.61-5.99-11.65l-11.52-0.23c-5.9 3.73-7 8.82-5.66 12 1.38 3.22 3.39 3.57 6.48 3.59z" stroke="#fff" stroke-linecap="round" fill="none"/>
<path d="m33.12 27.75s2.15 1.66 1.97 3.66c2.04-1.8 2.1-5.25 2.1-5.25l-4.07 1.59" fill="#aec8e4"/>
<path opacity=".23" d="m21.56 41.74c-1.25-0.55-1.81-1.86-1.81-1.86 0.84-4.07 3.72-7 3.72-7s-2.28 6.41-1.91 8.9" fill="url(#u)"/>
<path opacity=".23" d="m40.47 40.88c1.23-0.58 1.8-2 1.8-2-0.96-4-3.98-6.84-3.98-6.84s2.46 6.34 2.17 8.85" fill="url(#t)"/>
<circle cy="23.46" cx="30.68" r="8.66" fill="url(#b)"/>
<circle r="8.48" cy="19.96" stroke="url(#p)" cx="30.81" fill="url(#j)"/>
<circle opacity=".2" cy="19.96" stroke="#fff" cx="30.8" r="7.44" fill="none"/>
<ellipse opacity=".3" rx="1.743" ry="1.56" transform="matrix(-.2996 .9541 -.9650 -.2621 0 0)" cy="-31.26" cx="20.3" fill="url(#e)"/>
</svg>