<?xml version="1.0" encoding="UTF-8" standalone="no"?>
<svg
   xmlns:dc="http://purl.org/dc/elements/1.1/"
   xmlns:cc="http://creativecommons.org/ns#"
   xmlns:rdf="http://www.w3.org/1999/02/22-rdf-syntax-ns#"
   xmlns:svg="http://www.w3.org/2000/svg"
   xmlns="http://www.w3.org/2000/svg"
   xmlns:xlink="http://www.w3.org/1999/xlink"
   xmlns:sodipodi="http://sodipodi.sourceforge.net/DTD/sodipodi-0.dtd"
   xmlns:inkscape="http://www.inkscape.org/namespaces/inkscape"
   width="24"
   height="24"
   version="1.1"
   id="svg129"
   sodipodi:docname="userlist.svg"
   inkscape:version="0.92.3 (2405546, 2018-03-11)">
  <metadata
     id="metadata133">
    <rdf:RDF>
      <cc:Work
         rdf:about="">
        <dc:format>image/svg+xml</dc:format>
        <dc:type
           rdf:resource="http://purl.org/dc/dcmitype/StillImage" />
        <dc:title></dc:title>
      </cc:Work>
    </rdf:RDF>
  </metadata>
  <sodipodi:namedview
     pagecolor="#ffffff"
     bordercolor="#666666"
     borderopacity="1"
     objecttolerance="10"
     gridtolerance="10"
     guidetolerance="10"
     inkscape:pageopacity="0"
     inkscape:pageshadow="2"
     inkscape:window-width="1680"
     inkscape:window-height="987"
     id="namedview131"
     showgrid="false"
     showguides="false"
     inkscape:zoom="7.0194216"
     inkscape:cx="-7.1149189"
     inkscape:cy="14.097284"
     inkscape:window-x="-8"
     inkscape:window-y="-8"
     inkscape:window-maximized="1"
     inkscape:current-layer="svg129" />
  <defs
     id="defs70">
    <linearGradient
       id="p"
       gradientUnits="userSpaceOnUse"
       x2="0"
       gradientTransform="matrix(0.5,0,0,0.5,-0.14645,0.4782)"
       y1="27.92"
       y2="17.200001">
      <stop
         stop-color="#8f5902"
         stop-opacity=".19"
         offset="0"
         id="stop2" />
      <stop
         stop-color="#c17d11"
         offset="1"
         id="stop4" />
    </linearGradient>
    <linearGradient
       id="c">
      <stop
         stop-color="#fce94f"
         offset="0"
         id="stop7" />
      <stop
         stop-color="#8f5902"
         offset=".5"
         id="stop9" />
      <stop
         stop-color="#c4a000"
         offset="1"
         id="stop11" />
    </linearGradient>
    <linearGradient
       id="a">
      <stop
         offset="0"
         id="stop14" />
      <stop
         stop-opacity="0"
         offset="1"
         id="stop16" />
    </linearGradient>
    <linearGradient
       id="t"
       x1="40.57"
       xlink:href="#a"
       gradientUnits="userSpaceOnUse"
       y1="36.400002"
       gradientTransform="matrix(0.5,0,0,0.5,-0.14645,0.4782)"
       x2="41.689999"
       y2="35.5" />
    <linearGradient
       id="u"
       x1="20"
       xlink:href="#a"
       gradientUnits="userSpaceOnUse"
       y1="36.299999"
       gradientTransform="matrix(0.5,0,0,0.5,-0.14645,0.4782)"
       x2="21.91"
       y2="37.099998" />
    <linearGradient
       id="v"
       gradientUnits="userSpaceOnUse"
       x2="0"
       gradientTransform="matrix(0.5,0,0,0.5,-0.14645,0.4782)"
       y1="29.549999"
       y2="35.799999">
      <stop
         stop-color="#fff"
         offset="0"
         id="stop21" />
      <stop
         stop-color="#c9c9c9"
         offset="1"
         id="stop23" />
    </linearGradient>
    <radialGradient
       id="j"
       gradientUnits="userSpaceOnUse"
       cy="17.1"
       cx="29.379999"
       gradientTransform="matrix(0.5,0,0,0.5,-0.14645,0.4782)"
       r="7.0999999">
      <stop
         stop-color="#f4d9b1"
         offset="0"
         id="stop26" />
      <stop
         stop-color="#df9725"
         offset="1"
         id="stop28" />
    </radialGradient>
    <radialGradient
       id="k"
       gradientUnits="userSpaceOnUse"
       cy="27.200001"
       cx="28.1"
       gradientTransform="matrix(0.649,0,0,0.4425,-4.3265,2.948)"
       r="13.57">
      <stop
         stop-color="#3b74bc"
         offset="0"
         id="stop31" />
      <stop
         stop-color="#2d5990"
         offset="1"
         id="stop33" />
    </radialGradient>
    <radialGradient
       id="b"
       xlink:href="#a"
       gradientUnits="userSpaceOnUse"
       cy="19"
       cx="31.1"
       gradientTransform="matrix(0.5,0,0,0.5,-0.21145,2.228)"
       r="8.6599998" />
    <radialGradient
       id="e"
       gradientUnits="userSpaceOnUse"
       cy="24.84"
       cx="5.3439999"
       gradientTransform="matrix(0.31151043,0.11634543,-0.11020369,0.23594073,11.225376,-22.114131)"
       r="2.8829999">
      <stop
         stop-color="#fff"
         stop-opacity=".6"
         offset="0"
         id="stop37" />
      <stop
         stop-opacity="0"
         stop-color="#fff"
         offset="1"
         id="stop39" />
    </radialGradient>
    <radialGradient
       id="w"
       xlink:href="#a"
       gradientUnits="userSpaceOnUse"
       cy="19"
       cx="31.1"
       gradientTransform="matrix(0.888,0,0,0.4795,-12.245,9.865)"
       r="8.6599998" />
    <linearGradient
       id="l"
       x1="14.27"
       xlink:href="#c"
       gradientUnits="userSpaceOnUse"
       y1="16.209999"
       gradientTransform="matrix(0.48905,0,0,0.48905,-7.23,-3.9365)"
       x2="49.400002"
       y2="26.52" />
    <radialGradient
       id="o"
       xlink:href="#a"
       gradientUnits="userSpaceOnUse"
       cy="19"
       cx="31.1"
       gradientTransform="matrix(0.888,0,0,0.4795,-18.9,6.465)"
       r="8.6599998" />
    <radialGradient
       id="q"
       gradientUnits="userSpaceOnUse"
       cy="27.200001"
       cx="28.1"
       gradientTransform="matrix(0.649,0,0,0.4425,-10.955,-0.4507)"
       r="13.57">
      <stop
         stop-color="#be0000"
         offset="0"
         id="stop45" />
      <stop
         stop-color="#780000"
         offset="1"
         id="stop47" />
    </radialGradient>
    <linearGradient
       id="f"
       x1="21.68"
       xlink:href="#a"
       gradientUnits="userSpaceOnUse"
       y1="39"
       gradientTransform="matrix(0.5,0,0,0.5,-7.59,-4.2655)"
       x2="23.540001"
       y2="39.759998" />
    <linearGradient
       id="h"
       x1="42.200001"
       xlink:href="#a"
       gradientUnits="userSpaceOnUse"
       y1="39.099998"
       gradientTransform="matrix(0.5,0,0,0.5,-7.59,-4.2655)"
       x2="43.299999"
       y2="38.200001" />
    <radialGradient
       id="r"
       xlink:href="#a"
       gradientUnits="userSpaceOnUse"
       cy="23.790001"
       cx="32.75"
       gradientTransform="matrix(0.5,0,0,0.5,-7.59,-4.2655)"
       r="8.5100002" />
    <radialGradient
       id="s"
       gradientUnits="userSpaceOnUse"
       cy="20.23"
       cx="32.299999"
       gradientTransform="matrix(0.5,0,0,0.5,-7.59,-4.2655)"
       r="6.6399999">
      <stop
         stop-color="#f5e2c3"
         offset="0"
         id="stop53" />
      <stop
         stop-color="#df9929"
         offset="1"
         id="stop55" />
    </radialGradient>
    <linearGradient
       id="i"
       gradientUnits="userSpaceOnUse"
       x2="0"
       gradientTransform="matrix(0.5,0,0,0.5,-7.59,-4.2655)"
       y1="29.790001"
       y2="21.809999">
      <stop
         stop-color="#8f5902"
         stop-opacity="0"
         offset="0"
         id="stop58" />
      <stop
         stop-color="#653f01"
         offset="1"
         id="stop60" />
    </linearGradient>
    <linearGradient
       id="m"
       x1="35.299999"
       xlink:href="#c"
       gradientUnits="userSpaceOnUse"
       y1="19.84"
       gradientTransform="matrix(0.8883,0,0,0.9538,-11.57,-7.46)"
       x2="40.700001"
       y2="15" />
    <linearGradient
       id="n"
       y2="23.32"
       xlink:href="#c"
       gradientUnits="userSpaceOnUse"
       y1="13.53"
       gradientTransform="matrix(0.8883,0,0,0.9538,-11.57,-7.46)"
       x2="33.66"
       x1="27.709999" />
    <radialGradient
       id="g"
       gradientUnits="userSpaceOnUse"
       cy="17.860001"
       cx="29.200001"
       gradientTransform="matrix(0.552,0.115,-0.068,0.348,6.579,17.82)"
       r="8.6599998">
      <stop
         stop-color="#f9adad"
         stop-opacity=".3"
         offset="0"
         id="stop65" />
      <stop
         stop-color="#868686"
         stop-opacity="0"
         offset="1"
         id="stop67" />
    </radialGradient>
    <radialGradient
       inkscape:collect="always"
       xlink:href="#g"
       id="radialGradient956"
       gradientUnits="userSpaceOnUse"
       gradientTransform="matrix(0.276,0.0575,-0.034,0.174,3.2895,8.91)"
       cx="29.200001"
       cy="17.860001"
       r="8.6599998" />
  </defs>
  <path
     d="M 6.24,12.52 3.4675,11.8355 c 0,0 0.1516,-5.55 1.3055,-7.335 1.154,-1.79 2.5135,-2.22 2.5135,-2.22 0,0 2.225,-0.7825 3.032,0.22985 0.3325,0.4158 1.3155,0.1565 1.956,1.012 0.6405,0.8555 2.0145,5.555 1.8285,8.31 l -4.603,0.748 -3.2615,0.0978 v -0.1614 z"
     id="path72"
     inkscape:connector-curvature="0"
     style="fill:url(#l);stroke:#8f5902;stroke-width:0.5;stroke-linejoin:round" />
  <ellipse
     rx="7.6900001"
     ry="4.1550002"
     cy="15.58"
     cx="8.7200003"
     id="ellipse74"
     style="fill:url(#o);stroke-width:0.5" />
  <ellipse
     rx="3.9400001"
     ry="3.9449999"
     cy="6.6149998"
     cx="8.7849998"
     id="ellipse76"
     style="fill:#8f5902;stroke:#8f5902;stroke-width:0.40000001" />
  <path
     d="m 6.22,17.885 h 5.305 c 1.5,0 2.99,-0.55 3.55,-2.12 0.52,-1.49 0.09,-4.33 -3.27,-6.63 H 5.53 c -3.36,2.12 -3.78,5 -3,6.72 0.79,1.725 2.12,2.035 3.715,2.035 z"
     id="path78"
     inkscape:connector-curvature="0"
     style="fill:url(#q);stroke:#cc0000;stroke-width:0.5;stroke-linecap:round;stroke-linejoin:round" />
  <path
     d="m 6.235,17.385 5.325,-0.01 c 1.42,0 2.555,-0.415 3.07,-1.89 0.4599,-1.33 -0.13,-3.86 -3.125,-5.91 L 5.82,9.445 c -2.995,1.89 -3.57,4.4735 -2.87,6.11 0.7,1.635 1.725,1.81 3.285,1.825 z"
     id="path80"
     inkscape:connector-curvature="0"
     style="opacity:0.3;fill:none;stroke:#ffffff;stroke-width:0.5;stroke-linecap:round;stroke-linejoin:round" />
  <path
     d="m 4.148,17.485 c -0.625,-0.275 -0.905,-0.93 -0.905,-0.93 0.42,-2.035 1.86,-3.5 1.86,-3.5 0,0 -1.14,3.205 -0.955,4.45"
     id="path82"
     inkscape:connector-curvature="0"
     style="opacity:0.23000004;fill:url(#f);stroke-width:0.5" />
  <path
     d="m 13.61,17.035 c 0.615,-0.29 0.9,-1 0.9,-1 -0.48,-2 -1.99,-3.42 -1.99,-3.42 0,0 1.235,3.17 1.085,4.42"
     id="path84"
     inkscape:connector-curvature="0"
     style="opacity:0.23000004;fill:url(#h);stroke-width:0.5" />
  <circle
     cy="7.6300001"
     cx="8.7849998"
     id="circle86"
     style="fill:url(#r);stroke-width:0.5"
     r="4.2550001" />
  <circle
     cy="6.6149998"
     cx="8.7849998"
     id="circle88"
     style="fill:url(#s);stroke:url(#i);stroke-width:0.5"
     r="3.8099999" />
  <g
     id="g96"
     style="stroke-width:0.80000001;stroke-linejoin:round"
     transform="scale(0.5)">
    <circle
       cy="13.23"
       cx="17.57"
       r="6.8099999"
       id="circle90"
       style="opacity:0.2;fill:none;stroke:#ffffff" />
    <path
       d="m 19.9,7.068 c -0.67,-0.153 5.31,6.622 6.71,6.892 0.34,0.06 -1.68,-7.092 -3.52,-7.522 l -1.82,-0.42 z"
       id="path92"
       inkscape:connector-curvature="0"
       style="fill:url(#m);stroke:#8f5902" />
    <path
       d="m 21.27,5.99 c 0.764,0 -8.713,7.899 -11.46,7.06 -2.665,-0.8202 1.155,-6.506 3.35,-7.479 0,0 2.931,-1.317 4.291,-1.364 2.203,-0.06678 3.811,1.784 3.811,1.784 z"
       id="path94"
       inkscape:connector-curvature="0"
       style="fill:url(#n);stroke:#8f5902" />
  </g>
  <path
     d="m 10.685,3.949 c -0.0089,0.01431 1.488,1.989 2.065,2.2895 0.5645,0.29575 -0.11105,-0.954 -0.342,-1.6075 l 0.48825,1.593 c -0.685,-0.44 -1.45,-1.3905 -2.215,-2.273 m -5.92,1.918 c 0.11545,0.2862 0.302,0.3816 0.502,0.3816 0.33755,-4.77e-4 1.5325,-0.56 2.2605,-0.93 0,0 -0.37225,0.3469 -1.247,0.743 -0.42185,0.1908 -1.231,0.703 -1.6665,-0.012975 -0.437,-0.72 1.602,-3.7515 3.762,-3.645 -1.965,0.1695 -3.9095,2.665 -3.611,3.465 z"
     id="path98"
     inkscape:connector-curvature="0"
     style="opacity:0.5;fill:#ffffff;stroke-width:0.5" />
  <ellipse
     id="d"
     rx="2"
     ry="1.645"
     cy="13.885"
     cx="11.15"
     style="fill:url(#radialGradient956);stroke-width:0.5" />
  <use
     xlink:href="#d"
     height="100%"
     width="100%"
     y="0"
     x="-8.5"
     id="use101" />
  <use
     xlink:href="#d"
     transform="matrix(0.6513,0,0,0.6513,1.3115,1.4005)"
     x="-8.5"
     id="use103"
     y="0"
     width="100%"
     height="100%" />
  <ellipse
     rx="7.6900001"
     ry="4.1525002"
     cy="18.975"
     cx="15.37"
     id="ellipse105"
     style="fill:url(#w);stroke-width:0.5" />
  <path
     d="m 12.85,21.3 h 5.305 c 1.5,0 2.99,-0.55 3.55,-2.12 0.52,-1.49 0.09,-4.33 -3.27,-6.63 H 12.16 c -3.36,2.12 -3.78,5 -3,6.72 0.79,1.725 2.12,2.035 3.715,2.035 z"
     id="path107"
     inkscape:connector-curvature="0"
     style="fill:url(#k);stroke:#204a87;stroke-width:0.5;stroke-linecap:round;stroke-linejoin:round" />
  <path
     d="m 13.2,13.345 c 1.59,1.415 2.3,6.55 2.3,6.55 0,0 0.705,-5.125 1.945,-6.63 l -4.24,0.09"
     id="path109"
     inkscape:connector-curvature="0"
     style="fill:url(#v);stroke-width:0.5" />
  <path
     d="m 14.34,13.875 c 0,0 -1.075,0.83 -0.985,1.83 -1.02,-0.9 -1.05,-2.625 -1.05,-2.625 l 2.035,0.795"
     id="path111"
     inkscape:connector-curvature="0"
     style="fill:#aec8e4;stroke-width:0.5" />
  <path
     d="m 12.81,20.775 5.245,-0.01 c 1.32,0 2.625,-0.485 3.105,-1.865 0.455,-1.31 -0.045,-3.805 -2.995,-5.825 l -5.76,-0.115 c -2.95,1.865 -3.5,4.41 -2.83,6 0.69,1.61 1.695,1.785 3.24,1.795 z"
     id="path113"
     inkscape:connector-curvature="0"
     style="opacity:0.23000004;fill:none;stroke:#ffffff;stroke-width:0.5;stroke-linecap:round;stroke-linejoin:round" />
  <path
     d="m 16.56,13.875 c 0,0 1.075,0.83 0.985,1.83 1.02,-0.9 1.05,-2.625 1.05,-2.625 l -2.035,0.795"
     id="path115"
     inkscape:connector-curvature="0"
     style="fill:#aec8e4;stroke-width:0.5" />
  <path
     d="m 10.78,20.87 c -0.625,-0.275 -0.905,-0.93 -0.905,-0.93 0.42,-2.035 1.86,-3.5 1.86,-3.5 0,0 -1.14,3.205 -0.955,4.45"
     id="path117"
     inkscape:connector-curvature="0"
     style="opacity:0.23000004;fill:url(#u);stroke-width:0.5" />
  <path
     d="m 20.235,20.44 c 0.615,-0.29 0.9,-1 0.9,-1 -0.48,-2 -1.99,-3.42 -1.99,-3.42 0,0 1.23,3.17 1.085,4.425"
     id="path119"
     inkscape:connector-curvature="0"
     style="opacity:0.23000004;fill:url(#t);stroke-width:0.5" />
  <circle
     cy="11.73"
     cx="15.34"
     id="circle121"
     style="fill:url(#b);stroke-width:0.5"
     r="4.3299999" />
  <circle
     cy="9.9799995"
     cx="15.405"
     id="circle123"
     style="fill:url(#j);stroke:url(#p);stroke-width:0.5"
     r="4.2399998" />
  <circle
     cy="9.9799995"
     cx="15.4"
     id="circle125"
     style="opacity:0.2;fill:none;stroke:#ffffff;stroke-width:0.5"
     r="3.72" />
  <ellipse
     rx="0.87152922"
     ry="0.77996933"
     transform="matrix(-0.29958997,0.95406805,-0.96503792,-0.2621103,0,0)"
     cy="-15.629386"
     cx="10.150339"
     id="ellipse127"
     style="opacity:0.3;fill:url(#e);stroke-width:0.49999854" />
</svg>
