<?xml version="1.0" encoding="UTF-8" standalone="no"?>
<!-- Created with Inkscape (http://www.inkscape.org/) -->

<svg
   xmlns:dc="http://purl.org/dc/elements/1.1/"
   xmlns:cc="http://creativecommons.org/ns#"
   xmlns:rdf="http://www.w3.org/1999/02/22-rdf-syntax-ns#"
   xmlns:svg="http://www.w3.org/2000/svg"
   xmlns="http://www.w3.org/2000/svg"
   xmlns:sodipodi="http://sodipodi.sourceforge.net/DTD/sodipodi-0.dtd"
   xmlns:inkscape="http://www.inkscape.org/namespaces/inkscape"
   width="48"
   height="48"
   viewBox="0 0 48 48"
   id="svg2"
   version="1.1"
   inkscape:version="0.92.3 (2405546, 2018-03-11)"
   sodipodi:docname="qa2.svg">
  <defs
     id="defs4">
    <linearGradient
       id="a"
       x1="24.200001"
       x2="24.200001"
       y1="1"
       y2="47.200001"
       gradientUnits="userSpaceOnUse"
       gradientTransform="translate(0,1005.3622)">
      <stop
         offset="0"
         stop-color="#28627d"
         id="stop4" />
      <stop
         offset=".7"
         stop-color="#0c465f"
         id="stop6" />
      <stop
         offset="1"
         stop-color="#003952"
         id="stop8" />
    </linearGradient>
  </defs>
  <sodipodi:namedview
     id="base"
     pagecolor="#ffffff"
     bordercolor="#666666"
     borderopacity="1.0"
     inkscape:pageopacity="0.0"
     inkscape:pageshadow="2"
     inkscape:zoom="13.875255"
     inkscape:cx="19.541815"
     inkscape:cy="27.990905"
     inkscape:document-units="px"
     inkscape:current-layer="layer1"
     showgrid="true"
     units="px"
     inkscape:window-width="1680"
     inkscape:window-height="987"
     inkscape:window-x="-8"
     inkscape:window-y="-8"
     inkscape:window-maximized="1"
     viewbox-height="16">
    <inkscape:grid
       type="xygrid"
       id="grid4136"
       originx="0"
       originy="0"
       spacingx="1"
       spacingy="1" />
  </sodipodi:namedview>
  <metadata
     id="metadata7">
    <rdf:RDF>
      <cc:Work
         rdf:about="">
        <dc:format>image/svg+xml</dc:format>
        <dc:type
           rdf:resource="http://purl.org/dc/dcmitype/StillImage" />
        <dc:title></dc:title>
        <cc:license
           rdf:resource="http://creativecommons.org/publicdomain/zero/1.0/" />
      </cc:Work>
      <cc:License
         rdf:about="http://creativecommons.org/publicdomain/zero/1.0/">
        <cc:permits
           rdf:resource="http://creativecommons.org/ns#Reproduction" />
        <cc:permits
           rdf:resource="http://creativecommons.org/ns#Distribution" />
        <cc:permits
           rdf:resource="http://creativecommons.org/ns#DerivativeWorks" />
      </cc:License>
    </rdf:RDF>
  </metadata>
  <g
     inkscape:label="Layer 1"
     inkscape:groupmode="layer"
     id="layer1"
     transform="translate(0,-1005.3622)">
    <path
       inkscape:connector-curvature="0"
       style="fill:url(#a)"
       d="m 20.1,1052.5622 a 90.2,90.2 0 0 0 -19.2,-17.2 l 9,-6.4 a 35,35 0 0 1 8.9,10.1 l 0.5,0.9 0.4,-0.9 c 2.9,-6.1 15.3,-25 26.4,-32.7 -0.4,4.3 0,8.6 1.3,13.5 -11.6,7 -24.9,28.7 -27.3,32.7 z"
       id="path11" />
    <path
       inkscape:connector-curvature="0"
       style="fill:#003952"
       d="m 45.5,1007.4622 c -0.3,3.9 0.2,7.9 1.3,12.2 -11.1,6.9 -23.7,26.9 -26.8,32 a 89.5,89.5 0 0 0 -18.2,-16.3 l 8.1,-5.7 a 35,35 0 0 1 8.5,9.7 l 0.9,1.7 0.8,-1.8 c 2.9,-5.9 14.6,-23.8 25.4,-31.8 m 1.2,-2.1 c -11.3,7.3 -24.4,27 -27.5,33.4 a 37.8,37.8 0 0 0 -9.3,-10.5 l -9.9,7.1 a 93.1,93.1 0 0 1 20.2,18 c 0,0 15.2,-26 27.8,-33.3 a 36,36 0 0 1 -1.3,-14.7 z"
       id="path13" />
    <path
       inkscape:connector-curvature="0"
       style="fill:#2286b3"
       d="m 19.4,1040.9622 a 98.5,98.5 0 0 1 26.1,-33.4 c -6.3,4.1 -21,24.8 -26.1,33.4 z m -9.4,-11.4 c -0.6,1.2 -6.3,5.4 -8.2,5.7 1,-0.9 7,-5.1 8.2,-5.7 z"
       id="path15" />
  </g>
</svg>
