<?xml version="1.0" encoding="UTF-8" standalone="no"?>
<!-- Generator: Adobe Illustrator 15.0.0, SVG Export Plug-In . SVG Version: 6.00 Build 0)  -->

<svg
   xmlns:dc="http://purl.org/dc/elements/1.1/"
   xmlns:cc="http://creativecommons.org/ns#"
   xmlns:rdf="http://www.w3.org/1999/02/22-rdf-syntax-ns#"
   xmlns:svg="http://www.w3.org/2000/svg"
   xmlns="http://www.w3.org/2000/svg"
   xmlns:sodipodi="http://sodipodi.sourceforge.net/DTD/sodipodi-0.dtd"
   xmlns:inkscape="http://www.inkscape.org/namespaces/inkscape"
   version="1.1"
   x="0px"
   y="0px"
   width="471.17099"
   height="413.276"
   viewBox="0 0 471.17099 413.276"
   enable-background="new 0 0 580 580"
   xml:space="preserve"
   id="svg2"
   inkscape:version="0.48.4 r9939"
   sodipodi:docname="21097.svg"><metadata
   id="metadata21"><rdf:RDF><cc:Work
       rdf:about=""><dc:format>image/svg+xml</dc:format><dc:type
         rdf:resource="http://purl.org/dc/dcmitype/StillImage" /><dc:title></dc:title></cc:Work></rdf:RDF></metadata><defs
   id="defs19">
	

		
		
		
	</defs><sodipodi:namedview
   pagecolor="#ffffff"
   bordercolor="#666666"
   borderopacity="1"
   objecttolerance="10"
   gridtolerance="10"
   guidetolerance="10"
   inkscape:pageopacity="0"
   inkscape:pageshadow="2"
   inkscape:window-width="1680"
   inkscape:window-height="988"
   id="namedview17"
   showgrid="false"
   fit-margin-top="0"
   fit-margin-left="0"
   fit-margin-right="0"
   fit-margin-bottom="0"
   inkscape:zoom="0.57543862"
   inkscape:cx="240.62476"
   inkscape:cy="156.25044"
   inkscape:window-x="-8"
   inkscape:window-y="-8"
   inkscape:window-maximized="1"
   inkscape:current-layer="svg2" />

<circle
   cx="215.743"
   cy="127.07"
   r="43.708"
   id="circle11"
   sodipodi:cx="215.743"
   sodipodi:cy="127.07"
   sodipodi:rx="43.708"
   sodipodi:ry="43.708"
   style="fill:#501616"
   transform="translate(-54.414,-83.362)" /><path
   d="m 29.006,320.026 c 9.039,-4.176 19.279,-6.637 29.863,-6.637 10.583,0 20.823,2.46 29.806,6.637 8.867,3.947 18.764,6.235 29.119,6.235 10.297,0 20.194,-2.288 29.005,-6.235 8.981,-4.176 19.222,-6.637 29.862,-6.637 10.64,0 20.767,2.46 29.863,6.637 8.753,3.947 18.707,6.235 29.005,6.235 10.297,0 20.251,-2.288 29.004,-6.235 9.097,-4.176 19.279,-6.637 29.921,-6.637 10.641,0 20.767,2.46 29.806,6.637 8.867,3.947 18.764,6.235 29.062,6.235 10.355,0 20.194,-2.288 29.063,-6.235 8.981,-4.176 19.222,-6.637 29.806,-6.637 9.096,0 17.906,1.717 25.915,4.863 12.986,-14.188 20.996,-33.066 20.996,-53.719 0,-44.051 -35.642,-79.692 -79.635,-79.692 l -8.925,0.973 c -9.782,39.703 -49.485,41.42 -49.485,41.42 l -181.809,-0.058 -15.218,-8.925 36.671,-61.499 40.104,23.169 c 24.027,15.562 36.556,-6.235 36.556,-6.235 l 40.218,-65.561 C 295.085,79.635 257.957,56.809 240.622,85.413 L 212.476,131.408 145.542,94.394 C 99.146,68.536 79.523,111.385 79.523,111.385 l -52.577,90.047 c -8.924,18.707 -0.973,26.773 -0.973,26.773 L 0,228.148 v 98.17 h 0.114 c 10.243,0.001 20.082,-2.345 28.892,-6.292 z"
   id="path13"
   inkscape:connector-curvature="0"
   style="fill:#501616" /><path
   d="m 442.224,363.504 c -9.097,-4.177 -19.223,-6.637 -29.92,-6.637 -10.584,0 -20.824,2.46 -29.806,6.637 -8.867,3.947 -18.707,6.293 -29.063,6.293 -10.298,0 -20.194,-2.346 -29.062,-6.293 -9.039,-4.177 -19.165,-6.637 -29.806,-6.637 -10.641,0 -20.824,2.46 -29.92,6.637 -8.753,3.947 -18.708,6.293 -29.005,6.293 -10.298,0 -20.252,-2.346 -29.005,-6.293 -9.097,-4.177 -19.223,-6.637 -29.863,-6.637 -10.64,0 -20.881,2.46 -29.862,6.637 -8.811,3.947 -18.707,6.293 -29.005,6.293 -10.354,0 -20.252,-2.346 -29.119,-6.293 -8.981,-4.177 -19.223,-6.637 -29.806,-6.637 -10.584,0 -20.824,2.46 -29.863,6.637 -8.81,3.947 -18.707,6.293 -29.005,6.293 v 43.479 c 10.298,0 20.195,-2.288 29.005,-6.236 9.039,-4.176 19.279,-6.636 29.863,-6.636 10.583,0 20.824,2.46 29.806,6.636 8.867,3.948 18.765,6.236 29.119,6.236 10.298,0 20.194,-2.288 29.005,-6.236 8.981,-4.176 19.165,-6.636 29.862,-6.636 10.584,0 20.767,2.46 29.863,6.636 8.753,3.948 18.707,6.236 29.005,6.236 10.297,0 20.252,-2.288 29.005,-6.236 9.096,-4.176 19.222,-6.636 29.92,-6.636 10.583,0 20.767,2.46 29.806,6.636 8.867,3.948 18.764,6.236 29.062,6.236 10.355,0 20.195,-2.288 29.063,-6.236 8.981,-4.176 19.165,-6.636 29.806,-6.636 10.641,0 20.823,2.46 29.92,6.636 8.753,3.948 18.65,6.236 28.947,6.236 v -43.479 c -10.297,0 -20.194,-2.346 -28.947,-6.293 z"
   id="path15"
   inkscape:connector-curvature="0"
   style="fill:#0000ff" />
</svg>