<?xml version="1.0" encoding="UTF-8" standalone="no"?>
<!-- Generator: Adobe Illustrator 15.0.0, SVG Export Plug-In . SVG Version: 6.00 Build 0)  -->

<svg
   xmlns:dc="http://purl.org/dc/elements/1.1/"
   xmlns:cc="http://creativecommons.org/ns#"
   xmlns:rdf="http://www.w3.org/1999/02/22-rdf-syntax-ns#"
   xmlns:svg="http://www.w3.org/2000/svg"
   xmlns="http://www.w3.org/2000/svg"
   xmlns:sodipodi="http://sodipodi.sourceforge.net/DTD/sodipodi-0.dtd"
   xmlns:inkscape="http://www.inkscape.org/namespaces/inkscape"
   version="1.1"
   x="0px"
   y="0px"
   width="479.32132"
   height="510.47299"
   viewBox="0 0 479.32132 510.47299"
   enable-background="new 0 0 580 580"
   xml:space="preserve"
   id="svg2"
   inkscape:version="0.48.4 r9939"
   sodipodi:docname="21011.svg"><metadata
   id="metadata21"><rdf:RDF><cc:Work
       rdf:about=""><dc:format>image/svg+xml</dc:format><dc:type
         rdf:resource="http://purl.org/dc/dcmitype/StillImage" /><dc:title></dc:title></cc:Work></rdf:RDF></metadata><defs
   id="defs19">
	

		
		
		
	</defs><sodipodi:namedview
   pagecolor="#ffffff"
   bordercolor="#666666"
   borderopacity="1"
   objecttolerance="10"
   gridtolerance="10"
   guidetolerance="10"
   inkscape:pageopacity="0"
   inkscape:pageshadow="2"
   inkscape:window-width="1680"
   inkscape:window-height="988"
   id="namedview17"
   showgrid="false"
   fit-margin-top="0"
   fit-margin-left="0"
   fit-margin-right="0"
   fit-margin-bottom="0"
   inkscape:zoom="0.8137931"
   inkscape:cx="317.09017"
   inkscape:cy="182.51276"
   inkscape:window-x="-8"
   inkscape:window-y="-8"
   inkscape:window-maximized="1"
   inkscape:current-layer="svg2" />

<polygon
   points="83.081,58.995 83.081,46.44 50.339,46.44 50.339,534.896 83.081,534.896 83.081,185.056 244.864,119.197 "
   id="polygon11"
   style="fill:#ff0000"
   transform="translate(-50.339,-34.763)" /><path
   d="m 313.098,149.709 c 7.559,-7.174 11.338,-15.989 11.338,-26.446 0,-10.469 -3.779,-19.29 -11.338,-26.465 -7.559,-7.174 -16.572,-10.761 -27.041,-10.761 -10.457,0 -19.37,3.587 -26.739,10.761 -7.369,7.175 -11.054,15.996 -11.054,26.465 0,10.457 3.685,19.272 11.054,26.446 7.369,7.174 16.282,10.762 26.739,10.761 10.468,0 19.482,-3.587 27.041,-10.761 z"
   id="path13"
   inkscape:connector-curvature="0"
   style="fill:#a05a2c" /><path
   d="m 479.086,159.884 c -1.159,-5.039 -4.063,-9.304 -8.712,-12.793 L 247.11,0 226.759,29.648 c -5.039,6.979 -3.874,12.989 3.495,18.027 6.968,4.259 12.97,3.094 18.009,-3.495 l 11.64,-17.441 181.39,119.199 -148.245,26.739 c -5.43,1.159 -9.792,3.969 -13.086,8.428 -3.294,4.46 -4.167,9.209 -2.617,14.248 l 31.974,125.001 -104.65,156.407 c -1.939,3.478 -2.909,7.156 -2.909,11.036 0,6.199 2.229,11.527 6.689,15.987 4.459,4.459 9.788,6.688 15.986,6.689 8.138,-0.001 14.727,-3.874 19.765,-11.622 l 109.299,-164.552 5.82,22.677 -16.271,123.262 c -0.78,6.199 0.574,11.723 4.063,16.572 3.489,4.849 8.333,7.854 14.532,9.014 6.21,1.159 11.929,-0.101 17.157,-3.779 5.228,-3.678 8.233,-8.623 9.014,-14.833 l 16.857,-126.155 c 0.39,-4.27 0.006,-8.729 -1.153,-13.378 l -37.226,-148.264 97.109,-17.441 c 5.038,-0.769 9.107,-3.383 12.207,-7.843 3.099,-4.458 4.258,-9.207 3.478,-14.247 z"
   id="path15"
   inkscape:connector-curvature="0"
   style="fill:#a05a2c" />
</svg>