<?xml version="1.0" encoding="UTF-8" standalone="no"?>
<!-- Generator: Adobe Illustrator 15.0.0, SVG Export Plug-In . SVG Version: 6.00 Build 0)  -->

<svg
   xmlns:dc="http://purl.org/dc/elements/1.1/"
   xmlns:cc="http://creativecommons.org/ns#"
   xmlns:rdf="http://www.w3.org/1999/02/22-rdf-syntax-ns#"
   xmlns:svg="http://www.w3.org/2000/svg"
   xmlns="http://www.w3.org/2000/svg"
   xmlns:sodipodi="http://sodipodi.sourceforge.net/DTD/sodipodi-0.dtd"
   xmlns:inkscape="http://www.inkscape.org/namespaces/inkscape"
   version="1.1"
   x="0px"
   y="0px"
   width="518.44159"
   height="510.47299"
   viewBox="0 0 518.44158 510.47299"
   enable-background="new 0 0 580 580"
   xml:space="preserve"
   id="svg2"
   inkscape:version="0.48.5 r10040"
   sodipodi:docname="miniature_golf.svg"><metadata
   id="metadata26"><rdf:RDF><cc:Work
       rdf:about=""><dc:format>image/svg+xml</dc:format><dc:type
         rdf:resource="http://purl.org/dc/dcmitype/StillImage" /><dc:title /></cc:Work></rdf:RDF></metadata><defs
   id="defs24">
	

		
		
	
			
			
			
		
			
		</defs><sodipodi:namedview
   pagecolor="#ffffff"
   bordercolor="#666666"
   borderopacity="1"
   objecttolerance="10"
   gridtolerance="10"
   guidetolerance="10"
   inkscape:pageopacity="0"
   inkscape:pageshadow="2"
   inkscape:window-width="678"
   inkscape:window-height="453"
   id="namedview22"
   showgrid="false"
   fit-margin-top="0"
   fit-margin-left="0"
   fit-margin-right="0"
   fit-margin-bottom="0"
   inkscape:zoom="0.28771931"
   inkscape:cx="78.145868"
   inkscape:cy="214.81131"
   inkscape:window-x="662"
   inkscape:window-y="359"
   inkscape:window-maximized="0"
   inkscape:current-layer="svg2" />

<path
   style="opacity:1;fill:#c87137;fill-opacity:1"
   id="path12"
   d="m 57.79865,478.764 35.852,-235.576 28.108,-16.83 27.495,17.278 c 0,0 31.173,237.983 28.246,236.556 -2.927,-1.427 -119.116,0.714 -119.701,-1.428 l 0,0 z"
   sodipodi:nodetypes="ccccsc"
   inkscape:connector-curvature="0" /><path
   style="fill:#502d16"
   inkscape:connector-curvature="0"
   id="path16"
   d="m 243.12865,354.08 c -0.042,-1.88 -0.881,-3.652 -2.31,-4.875 l -96.155,-82.329 96.155,-82.328 c 1.428,-1.223 2.268,-2.996 2.31,-4.875 0.042,-1.879 -0.719,-3.688 -2.092,-4.972 l -32.625,-30.532 c -1.38,-1.292 -3.25,-1.927 -5.129,-1.755 -1.882,0.175 -3.599,1.148 -4.717,2.672 l -77,104.982 -77,-104.982 c -1.118,-1.524 -2.835,-2.497 -4.717,-2.672 -1.878,-0.172 -3.749,0.464 -5.129,1.755 L 2.0936501,174.701 c -1.37299999,1.285 -2.13299999,3.093 -2.09199999,4.972 0.041,1.879 0.881,3.652 2.30999999,4.875 L 98.46665,266.876 2.3116501,349.205 c -1.42799999,1.223 -2.26799999,2.995 -2.30999999,4.875 -0.042,1.879 0.719,3.688 2.09199999,4.972 L 34.71965,389.583 c 1.23,1.151 2.847,1.784 4.516,1.784 0.204,0 0.409,-0.01 0.613,-0.029 1.882,-0.175 3.599,-1.147 4.717,-2.672 l 77,-104.981 77,104.981 c 1.118,1.524 2.835,2.497 4.717,2.672 0.205,0.02 0.409,0.029 0.613,0.029 1.669,0 3.286,-0.633 4.516,-1.784 l 32.625,-30.531 c 1.373,-1.285 2.134,-3.093 2.092,-4.972 z m -125.753,-87.204 4.189,-4.052 4.188,4.052 -4.188,4.053 -4.189,-4.053 z" /><g
   id="g3020"
   style="fill:#550000"
   transform="translate(-27.47535,-34.763)"><path
     d="m 545.682,194.647 c -1.16,-5.038 -4.064,-9.303 -8.713,-12.793 L 313.705,34.763 293.353,64.412 c -5.039,6.979 -3.873,12.988 3.496,18.027 6.967,4.259 12.971,3.094 18.01,-3.495 L 326.498,61.502 507.889,180.701 359.643,207.44 c -5.43,1.16 -9.791,3.969 -13.086,8.429 -3.295,4.459 -4.166,9.209 -2.617,14.247 l 31.975,125.002 -104.65,156.407 c -1.939,3.478 -2.91,7.156 -2.91,11.036 0,6.198 2.23,11.527 6.689,15.987 4.459,4.459 9.787,6.688 15.986,6.688 8.139,0 14.727,-3.874 19.766,-11.622 l 109.299,-164.551 5.82,22.676 -16.271,123.263 c -0.781,6.198 0.574,11.723 4.064,16.572 3.488,4.85 8.332,7.854 14.531,9.014 6.211,1.159 11.93,-0.101 17.158,-3.779 5.228,-3.678 8.232,-8.623 9.014,-14.833 l 16.855,-126.155 c 0.391,-4.271 0.004,-8.729 -1.152,-13.378 L 432.887,234.18 529.996,216.739 c 5.039,-0.769 9.107,-3.383 12.207,-7.843 3.1,-4.459 4.258,-9.208 3.479,-14.249 z"
     id="path18"
     inkscape:connector-curvature="0"
     style="fill:#550000" /><path
     d="m 379.693,184.472 c 7.559,-7.174 11.338,-15.989 11.338,-26.446 0,-10.468 -3.779,-19.289 -11.338,-26.464 -7.561,-7.174 -16.572,-10.761 -27.041,-10.761 -10.457,0 -19.371,3.587 -26.74,10.761 -7.369,7.175 -11.053,15.996 -11.053,26.464 0,10.457 3.684,19.272 11.053,26.446 7.369,7.175 16.283,10.762 26.74,10.762 10.469,-0.001 19.481,-3.588 27.041,-10.762 z"
     id="path20"
     inkscape:connector-curvature="0"
     style="fill:#550000" /></g>
</svg>