<?xml version="1.0" encoding="UTF-8" standalone="no"?>
<!-- Created with Inkscape (http://www.inkscape.org/) -->

<svg
   xmlns:dc="http://purl.org/dc/elements/1.1/"
   xmlns:cc="http://creativecommons.org/ns#"
   xmlns:rdf="http://www.w3.org/1999/02/22-rdf-syntax-ns#"
   xmlns:svg="http://www.w3.org/2000/svg"
   xmlns="http://www.w3.org/2000/svg"
   xmlns:sodipodi="http://sodipodi.sourceforge.net/DTD/sodipodi-0.dtd"
   xmlns:inkscape="http://www.inkscape.org/namespaces/inkscape"
   width="16"
   height="12"
   viewBox="0 0 16 12"
   id="svg4264"
   version="1.1"
   inkscape:version="0.91 r13725"
   sodipodi:docname="way_raceway2.svg">
  <defs
     id="defs4266" />
  <sodipodi:namedview
     id="base"
     pagecolor="#ffffff"
     bordercolor="#666666"
     borderopacity="1.0"
     inkscape:pageopacity="0.0"
     inkscape:pageshadow="2"
     inkscape:zoom="32"
     inkscape:cx="1.1456232"
     inkscape:cy="4.2679714"
     inkscape:document-units="px"
     inkscape:current-layer="layer1"
     showgrid="true"
     units="px"
     inkscape:snap-bbox="true"
     inkscape:bbox-paths="true"
     inkscape:bbox-nodes="true"
     inkscape:snap-bbox-edge-midpoints="false"
     inkscape:snap-bbox-midpoints="false"
     inkscape:snap-nodes="true">
    <inkscape:grid
       type="xygrid"
       id="grid4137" />
  </sodipodi:namedview>
  <metadata
     id="metadata4269">
    <rdf:RDF>
      <cc:Work
         rdf:about="">
        <dc:format>image/svg+xml</dc:format>
        <dc:type
           rdf:resource="http://purl.org/dc/dcmitype/StillImage" />
        <dc:title />
        <cc:license
           rdf:resource="http://creativecommons.org/publicdomain/zero/1.0/" />
      </cc:Work>
      <cc:License
         rdf:about="http://creativecommons.org/publicdomain/zero/1.0/">
        <cc:permits
           rdf:resource="http://creativecommons.org/ns#Reproduction" />
        <cc:permits
           rdf:resource="http://creativecommons.org/ns#Distribution" />
        <cc:permits
           rdf:resource="http://creativecommons.org/ns#DerivativeWorks" />
      </cc:License>
    </rdf:RDF>
  </metadata>
  <g
     inkscape:label="Camada 1"
     inkscape:groupmode="layer"
     id="layer1"
     transform="translate(0,-1040.3621)">
    <g
       id="XMLID_134_-4"
       transform="matrix(0.03090068,0,0,0.03243794,-1.2688265,1033.3437)"
       style="fill:#000000">
      <path
         style="fill:#000000;fill-opacity:1"
         inkscape:connector-curvature="0"
         d="m 413.6,586.3 -0.3,0 -265.4,0 c -54,0 -90.4,-24.3 -102.4,-68.4 -24.4,-89.1 56.2,-238.1 134.2,-284.3 39.7,-23.6 82.4,-22.9 111.5,1.7 26.6,22.5 35.1,59.7 21.6,94.9 -17.3,44.9 -52.8,35.8 -76.2,29.6 -23.3,-6.1 -32.63907,-5.81677 -53.57349,13.64969 -11.86566,11.03361 -14.7,23.7 -8.7,38.7 C 187.82651,446.04969 232.1,476.5 292.7,476.5 l 1.6,0 c 41,-0.4 53.6,-25.7 70.9,-66.9 13.5,-32.5 28.9,-69.2 69.2,-84.2 10.7,-3.9 33,-12.2 56.8,0.5 27.2,14.5 47.9,52.4 63.2,115.7 9.3,38.3 4,70.3 -15.7,95.2 -38.9,48.5 -118.7,49.5 -125.1,49.5 z M 237.8,247.6 c -13.2,0 -27.7,4.3 -42.2,12.9 -66.9,39.6 -140.2,175.1 -119.9,249.1 8.4,30.6 32,45.4 72.2,45.4 l 265.5,0 0,0 c 1.4,0 70.9,-0.4 100.5,-37.8 13.5,-17.1 16.7,-39.5 9.8,-68.3 -16,-66.5 -34.7,-88.6 -47.5,-95.4 -9.6,-5.1 -18.7,-3.4 -31.2,1.3 -27.5,10.2 -39,37.8 -51.2,66.9 -15.9,38.1 -35.7,85.6 -99.5,86.2 l -1.7,0 c -67.8,0 -127.79519,-34.44245 -147.57349,-84.05031 -10.72171,-26.89215 -4.7,-53.5 16.5,-73.3 C 195.02651,319.34969 219,322.9 244.4,329.6 c 27.4,7.2 32.3,7 39.1,-10.6 8.8,-22.9 4,-45.7 -12.5,-59.7 -9.2,-7.8 -20.6,-11.7 -33.2,-11.7 z"
         class="st0"
         id="XMLID_136_-0"
         sodipodi:nodetypes="scscccccscsccccccssccsccccscccssccccs" />
    </g>
  </g>
</svg>
