<?xml version="1.0" encoding="UTF-8" standalone="no"?>
<!-- Generator: Adobe Illustrator 14.0.0, SVG Export Plug-In . SVG Version: 6.00 Build 43363)  -->

<svg
   xmlns:dc="http://purl.org/dc/elements/1.1/"
   xmlns:cc="http://creativecommons.org/ns#"
   xmlns:rdf="http://www.w3.org/1999/02/22-rdf-syntax-ns#"
   xmlns:svg="http://www.w3.org/2000/svg"
   xmlns="http://www.w3.org/2000/svg"
   xmlns:sodipodi="http://sodipodi.sourceforge.net/DTD/sodipodi-0.dtd"
   xmlns:inkscape="http://www.inkscape.org/namespaces/inkscape"
   version="1.0"
   id="Layer_1"
   x="0px"
   y="0px"
   width="100px"
   height="83.101px"
   viewBox="0 0 100 83.101"
   enable-background="new 0 0 100 83.101"
   xml:space="preserve"
   inkscape:version="0.48.4 r9939"
   sodipodi:docname="09.svg"><metadata
   id="metadata17"><rdf:RDF><cc:Work
       rdf:about=""><dc:format>image/svg+xml</dc:format><dc:type
         rdf:resource="http://purl.org/dc/dcmitype/StillImage" /><dc:title></dc:title></cc:Work></rdf:RDF></metadata><defs
   id="defs15" /><sodipodi:namedview
   pagecolor="#ffffff"
   bordercolor="#666666"
   borderopacity="1"
   objecttolerance="10"
   gridtolerance="10"
   guidetolerance="10"
   inkscape:pageopacity="0"
   inkscape:pageshadow="2"
   inkscape:window-width="1680"
   inkscape:window-height="988"
   id="namedview13"
   showgrid="true"
   inkscape:zoom="5.6798355"
   inkscape:cx="55.929345"
   inkscape:cy="36.453152"
   inkscape:window-x="-8"
   inkscape:window-y="-8"
   inkscape:window-maximized="1"
   inkscape:current-layer="Layer_1"><inkscape:grid
     type="xygrid"
     id="grid2994" /></sodipodi:namedview>
<rect
   style="fill:#556fc3;fill-opacity:1;stroke:none"
   id="rect2996"
   width="100"
   height="82.924934"
   x="0"
   y="0.17606139"
   transform="translate(-1.2485983e-6,0)" /><polygon
   points="0,0 15.868,16.397 21.961,10.867 16.444,0.05 "
   id="polygon3" />
<path
   d="m 66.831909,44.579594 c 3,0.834 6.223,-0.882 7.079,-3.962 0.822,-3.032 -0.929,-6.218 -3.951,-7.076 l -2.354,-0.662 -3.046,11.019 2.272,0.681 z"
   id="path5"
   inkscape:connector-curvature="0" />
<path
   d="m 67.977953,33.057901 -18.995,-5.412 c -1.249,-0.329 -2.503,0.429 -2.847,1.692 l -1.785,6.42 c -0.351,1.261 0.329,2.555 1.609,2.934 l 18.996,5.354 3.022,-10.988 z"
   id="path7"
   inkscape:connector-curvature="0" />
<path
   d="M72.687,51.773c-1.448-1.393-3.249-2.499-5.35-3.083l-23.028-6.515l0,0L30.16,16.802c-0.745-1.311-1.944-2.354-3.496-2.783  c-3.103-0.882-6.327,0.961-7.174,4.098c-0.423,1.489-0.223,3.009,0.448,4.295l17.701,31.38c0,0,1.448,2.353,5.095,3.563l32.178,9.12  l14.922,15.315c0.496,0.524,1.145,0.93,1.92,1.155c2.247,0.63,4.599-0.728,5.256-2.975c0.425-1.594-0.081-3.267-1.201-4.302  L72.687,51.773z"
   id="path9" />
<path
   d="M 89.857,54.11 93.202,58.533 100,51.03 94.259,47.797 c 0.541,-4.067 -1.952,-8.005 -5.951,-9.146 -4.399,-1.236 -8.973,1.342 -10.196,5.79 -1.249,4.471 1.326,9.071 5.728,10.309 2.09,0.605 4.219,0.275 6.017,-0.64 z"
   id="path11"
   inkscape:connector-curvature="0" />
</svg>