<?xml version="1.0" encoding="UTF-8" standalone="no"?>
<!-- Created with Inkscape (http://www.inkscape.org/) -->

<svg
   xmlns:dc="http://purl.org/dc/elements/1.1/"
   xmlns:cc="http://creativecommons.org/ns#"
   xmlns:rdf="http://www.w3.org/1999/02/22-rdf-syntax-ns#"
   xmlns:svg="http://www.w3.org/2000/svg"
   xmlns="http://www.w3.org/2000/svg"
   xmlns:sodipodi="http://sodipodi.sourceforge.net/DTD/sodipodi-0.dtd"
   xmlns:inkscape="http://www.inkscape.org/namespaces/inkscape"
   width="16"
   height="15.98718"
   id="svg2"
   version="1.1"
   inkscape:version="0.48.4 r9939"
   sodipodi:docname="teabag icon.svg">
  <defs
     id="defs4" />
  <sodipodi:namedview
     id="base"
     pagecolor="#ffffff"
     bordercolor="#666666"
     borderopacity="1.0"
     inkscape:pageopacity="0.0"
     inkscape:pageshadow="2"
     inkscape:zoom="32"
     inkscape:cx="5.5112528"
     inkscape:cy="8.7749291"
     inkscape:document-units="px"
     inkscape:current-layer="layer1"
     showgrid="true"
     fit-margin-top="0"
     fit-margin-left="0"
     fit-margin-right="0"
     fit-margin-bottom="0"
     inkscape:window-width="1920"
     inkscape:window-height="1018"
     inkscape:window-x="-8"
     inkscape:window-y="-8"
     inkscape:window-maximized="1">
    <inkscape:grid
       type="xygrid"
       id="grid2985"
       empspacing="5"
       visible="true"
       enabled="true"
       snapvisiblegridlinesonly="true"
       originx="-370px"
       originy="-419px" />
  </sodipodi:namedview>
  <metadata
     id="metadata7">
    <rdf:RDF>
      <cc:Work
         rdf:about="">
        <dc:format>image/svg+xml</dc:format>
        <dc:type
           rdf:resource="http://purl.org/dc/dcmitype/StillImage" />
        <dc:title></dc:title>
      </cc:Work>
    </rdf:RDF>
  </metadata>
  <g
     inkscape:label="Ebene 1"
     inkscape:groupmode="layer"
     id="layer1"
     transform="translate(-370,-617.375)">
    <path
       style="fill:#000000;fill-opacity:1;stroke:none"
       d="m 377,622.36218 2,-2 5,0 2,2 0,11 -9,0 z"
       id="path2987"
       inkscape:connector-curvature="0"
       sodipodi:nodetypes="ccccccc"
       inkscape:export-xdpi="89"
       inkscape:export-ydpi="89" />
    <path
       style="fill:#cccccc;fill-opacity:1;stroke:none"
       d="m 378,632.36218 0,-9 2,-2 3,0 2,2 0,9 z"
       id="path4221"
       inkscape:connector-curvature="0"
       sodipodi:nodetypes="ccccccc"
       inkscape:export-xdpi="89"
       inkscape:export-ydpi="89" />
    <path
       style="fill:none;stroke:#4f4f4f;stroke-width:1px;stroke-linecap:butt;stroke-linejoin:miter;stroke-opacity:1"
       d="m 379.4917,621.85388 1,1 2,0 1,-1"
       id="path4223"
       inkscape:connector-curvature="0"
       sodipodi:nodetypes="cccc"
       inkscape:export-xdpi="89"
       inkscape:export-ydpi="89" />
    <path
       style="fill:none;stroke:#000000;stroke-width:1px;stroke-linecap:square;stroke-linejoin:miter;stroke-opacity:1"
       d="m 381.5,621.86218 0,-3 -1,-1 -6,0 -2,2 0,4 0,0"
       id="path4382"
       inkscape:connector-curvature="0"
       inkscape:export-xdpi="89"
       inkscape:export-ydpi="89" />
    <rect
       style="fill:#008000;fill-opacity:1;stroke:none"
       id="rect4227"
       width="5"
       height="5.0000086"
       x="370"
       y="624.36218"
       ry="1"
       inkscape:export-xdpi="89"
       inkscape:export-ydpi="89" />
    <path
       sodipodi:type="arc"
       style="fill:#75750b;fill-opacity:1;stroke:none"
       id="path4229"
       sodipodi:cx="380.5"
       sodipodi:cy="629.86218"
       sodipodi:rx="0.5"
       sodipodi:ry="0.5"
       d="m 381,629.86218 a 0.5,0.5 0 1 1 -1,0 0.5,0.5 0 1 1 1,0 z"
       inkscape:export-xdpi="89"
       inkscape:export-ydpi="89" />
    <path
       transform="translate(1,-1)"
       sodipodi:type="arc"
       style="fill:#75750b;fill-opacity:1;stroke:none"
       id="path4229-1"
       sodipodi:cx="380.5"
       sodipodi:cy="629.86218"
       sodipodi:rx="0.5"
       sodipodi:ry="0.5"
       d="m 381,629.86218 a 0.5,0.5 0 1 1 -1,0 0.5,0.5 0 1 1 1,0 z"
       inkscape:export-xdpi="89"
       inkscape:export-ydpi="89" />
    <path
       transform="translate(1,0)"
       sodipodi:type="arc"
       style="fill:#75750b;fill-opacity:1;stroke:none"
       id="path4229-7"
       sodipodi:cx="380.5"
       sodipodi:cy="629.86218"
       sodipodi:rx="0.5"
       sodipodi:ry="0.5"
       d="m 381,629.86218 a 0.5,0.5 0 1 1 -1,0 0.5,0.5 0 1 1 1,0 z"
       inkscape:export-xdpi="89"
       inkscape:export-ydpi="89" />
    <path
       transform="translate(-1,0)"
       sodipodi:type="arc"
       style="fill:#75750b;fill-opacity:1;stroke:none"
       id="path4229-4"
       sodipodi:cx="380.5"
       sodipodi:cy="629.86218"
       sodipodi:rx="0.5"
       sodipodi:ry="0.5"
       d="m 381,629.86218 a 0.5,0.5 0 1 1 -1,0 0.5,0.5 0 1 1 1,0 z"
       inkscape:export-xdpi="89"
       inkscape:export-ydpi="89" />
    <path
       transform="translate(2,-1)"
       sodipodi:type="arc"
       style="fill:#75750b;fill-opacity:1;stroke:none"
       id="path4229-0"
       sodipodi:cx="380.5"
       sodipodi:cy="629.86218"
       sodipodi:rx="0.5"
       sodipodi:ry="0.5"
       d="m 381,629.86218 a 0.5,0.5 0 1 1 -1,0 0.5,0.5 0 1 1 1,0 z"
       inkscape:export-xdpi="89"
       inkscape:export-ydpi="89" />
    <path
       transform="translate(3,-1)"
       sodipodi:type="arc"
       style="fill:#75750b;fill-opacity:1;stroke:none"
       id="path4229-9"
       sodipodi:cx="380.5"
       sodipodi:cy="629.86218"
       sodipodi:rx="0.5"
       sodipodi:ry="0.5"
       d="m 381,629.86218 a 0.5,0.5 0 1 1 -1,0 0.5,0.5 0 1 1 1,0 z"
       inkscape:export-xdpi="89"
       inkscape:export-ydpi="89" />
    <path
       transform="translate(3,0)"
       sodipodi:type="arc"
       style="fill:#75750b;fill-opacity:1;stroke:none"
       id="path4229-48"
       sodipodi:cx="380.5"
       sodipodi:cy="629.86218"
       sodipodi:rx="0.5"
       sodipodi:ry="0.5"
       d="m 381,629.86218 a 0.5,0.5 0 1 1 -1,0 0.5,0.5 0 1 1 1,0 z"
       inkscape:export-xdpi="89"
       inkscape:export-ydpi="89" />
    <path
       transform="translate(2,0)"
       sodipodi:type="arc"
       style="fill:#75750b;fill-opacity:1;stroke:none"
       id="path4229-8"
       sodipodi:cx="380.5"
       sodipodi:cy="629.86218"
       sodipodi:rx="0.5"
       sodipodi:ry="0.5"
       d="m 381,629.86218 a 0.5,0.5 0 1 1 -1,0 0.5,0.5 0 1 1 1,0 z"
       inkscape:export-xdpi="89"
       inkscape:export-ydpi="89" />
    <path
       transform="translate(2,1)"
       sodipodi:type="arc"
       style="fill:#75750b;fill-opacity:1;stroke:none"
       id="path4229-2"
       sodipodi:cx="380.5"
       sodipodi:cy="629.86218"
       sodipodi:rx="0.5"
       sodipodi:ry="0.5"
       d="m 381,629.86218 a 0.5,0.5 0 1 1 -1,0 0.5,0.5 0 1 1 1,0 z"
       inkscape:export-xdpi="89"
       inkscape:export-ydpi="89" />
    <path
       transform="translate(1,1)"
       sodipodi:type="arc"
       style="fill:#75750b;fill-opacity:1;stroke:none"
       id="path4229-45"
       sodipodi:cx="380.5"
       sodipodi:cy="629.86218"
       sodipodi:rx="0.5"
       sodipodi:ry="0.5"
       d="m 381,629.86218 a 0.5,0.5 0 1 1 -1,0 0.5,0.5 0 1 1 1,0 z"
       inkscape:export-xdpi="89"
       inkscape:export-ydpi="89" />
    <path
       transform="translate(0,1)"
       sodipodi:type="arc"
       style="fill:#75750b;fill-opacity:1;stroke:none"
       id="path4229-5"
       sodipodi:cx="380.5"
       sodipodi:cy="629.86218"
       sodipodi:rx="0.5"
       sodipodi:ry="0.5"
       d="m 381,629.86218 a 0.5,0.5 0 1 1 -1,0 0.5,0.5 0 1 1 1,0 z"
       inkscape:export-xdpi="89"
       inkscape:export-ydpi="89" />
    <path
       transform="translate(-1,1)"
       sodipodi:type="arc"
       style="fill:#75750b;fill-opacity:1;stroke:none"
       id="path4229-17"
       sodipodi:cx="380.5"
       sodipodi:cy="629.86218"
       sodipodi:rx="0.5"
       sodipodi:ry="0.5"
       d="m 381,629.86218 a 0.5,0.5 0 1 1 -1,0 0.5,0.5 0 1 1 1,0 z"
       inkscape:export-xdpi="89"
       inkscape:export-ydpi="89" />
    <path
       transform="translate(-2,1)"
       sodipodi:type="arc"
       style="fill:#75750b;fill-opacity:1;stroke:none"
       id="path4229-11"
       sodipodi:cx="380.5"
       sodipodi:cy="629.86218"
       sodipodi:rx="0.5"
       sodipodi:ry="0.5"
       d="m 381,629.86218 a 0.5,0.5 0 1 1 -1,0 0.5,0.5 0 1 1 1,0 z"
       inkscape:export-xdpi="89"
       inkscape:export-ydpi="89" />
    <path
       transform="translate(3,1)"
       sodipodi:type="arc"
       style="fill:#75750b;fill-opacity:1;stroke:none"
       id="path4229-52"
       sodipodi:cx="380.5"
       sodipodi:cy="629.86218"
       sodipodi:rx="0.5"
       sodipodi:ry="0.5"
       d="m 381,629.86218 a 0.5,0.5 0 1 1 -1,0 0.5,0.5 0 1 1 1,0 z"
       inkscape:export-xdpi="89"
       inkscape:export-ydpi="89" />
    <path
       transform="translate(-2,0)"
       sodipodi:type="arc"
       style="fill:#75750b;fill-opacity:1;stroke:none"
       id="path4229-76"
       sodipodi:cx="380.5"
       sodipodi:cy="629.86218"
       sodipodi:rx="0.5"
       sodipodi:ry="0.5"
       d="m 381,629.86218 a 0.5,0.5 0 1 1 -1,0 0.5,0.5 0 1 1 1,0 z"
       inkscape:export-xdpi="89"
       inkscape:export-ydpi="89" />
    <path
       transform="translate(4,0)"
       sodipodi:type="arc"
       style="fill:#75750b;fill-opacity:1;stroke:none"
       id="path4229-14"
       sodipodi:cx="380.5"
       sodipodi:cy="629.86218"
       sodipodi:rx="0.5"
       sodipodi:ry="0.5"
       d="m 381,629.86218 a 0.5,0.5 0 1 1 -1,0 0.5,0.5 0 1 1 1,0 z"
       inkscape:export-xdpi="89"
       inkscape:export-ydpi="89" />
    <path
       transform="translate(4,1)"
       sodipodi:type="arc"
       style="fill:#75750b;fill-opacity:1;stroke:none"
       id="path4229-23"
       sodipodi:cx="380.5"
       sodipodi:cy="629.86218"
       sodipodi:rx="0.5"
       sodipodi:ry="0.5"
       d="m 381,629.86218 a 0.5,0.5 0 1 1 -1,0 0.5,0.5 0 1 1 1,0 z"
       inkscape:export-xdpi="89"
       inkscape:export-ydpi="89" />
    <path
       transform="translate(-2,2)"
       sodipodi:type="arc"
       style="fill:#75750b;fill-opacity:1;stroke:none"
       id="path4229-76-8"
       sodipodi:cx="380.5"
       sodipodi:cy="629.86218"
       sodipodi:rx="0.5"
       sodipodi:ry="0.5"
       d="m 381,629.86218 a 0.5,0.5 0 1 1 -1,0 0.5,0.5 0 1 1 1,0 z"
       inkscape:export-xdpi="89"
       inkscape:export-ydpi="89" />
    <path
       transform="translate(-1,2)"
       sodipodi:type="arc"
       style="fill:#75750b;fill-opacity:1;stroke:none"
       id="path4229-76-9"
       sodipodi:cx="380.5"
       sodipodi:cy="629.86218"
       sodipodi:rx="0.5"
       sodipodi:ry="0.5"
       d="m 381,629.86218 a 0.5,0.5 0 1 1 -1,0 0.5,0.5 0 1 1 1,0 z"
       inkscape:export-xdpi="89"
       inkscape:export-ydpi="89" />
    <path
       transform="translate(0,2)"
       sodipodi:type="arc"
       style="fill:#75750b;fill-opacity:1;stroke:none"
       id="path4229-76-2"
       sodipodi:cx="380.5"
       sodipodi:cy="629.86218"
       sodipodi:rx="0.5"
       sodipodi:ry="0.5"
       d="m 381,629.86218 a 0.5,0.5 0 1 1 -1,0 0.5,0.5 0 1 1 1,0 z"
       inkscape:export-xdpi="89"
       inkscape:export-ydpi="89" />
    <path
       transform="translate(1,2)"
       sodipodi:type="arc"
       style="fill:#75750b;fill-opacity:1;stroke:none"
       id="path4229-76-7"
       sodipodi:cx="380.5"
       sodipodi:cy="629.86218"
       sodipodi:rx="0.5"
       sodipodi:ry="0.5"
       d="m 381,629.86218 a 0.5,0.5 0 1 1 -1,0 0.5,0.5 0 1 1 1,0 z"
       inkscape:export-xdpi="89"
       inkscape:export-ydpi="89" />
    <path
       transform="translate(2,2)"
       sodipodi:type="arc"
       style="fill:#75750b;fill-opacity:1;stroke:none"
       id="path4229-76-95"
       sodipodi:cx="380.5"
       sodipodi:cy="629.86218"
       sodipodi:rx="0.5"
       sodipodi:ry="0.5"
       d="m 381,629.86218 a 0.5,0.5 0 1 1 -1,0 0.5,0.5 0 1 1 1,0 z"
       inkscape:export-xdpi="89"
       inkscape:export-ydpi="89" />
    <path
       transform="translate(3,2)"
       sodipodi:type="arc"
       style="fill:#75750b;fill-opacity:1;stroke:none"
       id="path4229-76-4"
       sodipodi:cx="380.5"
       sodipodi:cy="629.86218"
       sodipodi:rx="0.5"
       sodipodi:ry="0.5"
       d="m 381,629.86218 a 0.5,0.5 0 1 1 -1,0 0.5,0.5 0 1 1 1,0 z"
       inkscape:export-xdpi="89"
       inkscape:export-ydpi="89" />
    <path
       transform="translate(4,2)"
       sodipodi:type="arc"
       style="fill:#75750b;fill-opacity:1;stroke:none"
       id="path4229-76-3"
       sodipodi:cx="380.5"
       sodipodi:cy="629.86218"
       sodipodi:rx="0.5"
       sodipodi:ry="0.5"
       d="m 381,629.86218 a 0.5,0.5 0 1 1 -1,0 0.5,0.5 0 1 1 1,0 z"
       inkscape:export-xdpi="89"
       inkscape:export-ydpi="89" />
    <path
       transform="translate(0,-1)"
       sodipodi:type="arc"
       style="fill:#75750b;fill-opacity:1;stroke:none"
       id="path4229-76-34"
       sodipodi:cx="380.5"
       sodipodi:cy="629.86218"
       sodipodi:rx="0.5"
       sodipodi:ry="0.5"
       d="m 381,629.86218 a 0.5,0.5 0 1 1 -1,0 0.5,0.5 0 1 1 1,0 z"
       inkscape:export-xdpi="89"
       inkscape:export-ydpi="89" />
    <path
       transform="translate(-1,-1)"
       sodipodi:type="arc"
       style="fill:#75750b;fill-opacity:1;stroke:none"
       id="path4229-76-1"
       sodipodi:cx="380.5"
       sodipodi:cy="629.86218"
       sodipodi:rx="0.5"
       sodipodi:ry="0.5"
       d="m 381,629.86218 a 0.5,0.5 0 1 1 -1,0 0.5,0.5 0 1 1 1,0 z"
       inkscape:export-xdpi="89"
       inkscape:export-ydpi="89" />
    <path
       transform="translate(1,-2)"
       sodipodi:type="arc"
       style="fill:#75750b;fill-opacity:1;stroke:none"
       id="path4229-76-13"
       sodipodi:cx="380.5"
       sodipodi:cy="629.86218"
       sodipodi:rx="0.5"
       sodipodi:ry="0.5"
       d="m 381,629.86218 a 0.5,0.5 0 1 1 -1,0 0.5,0.5 0 1 1 1,0 z"
       inkscape:export-xdpi="89"
       inkscape:export-ydpi="89" />
    <path
       transform="translate(3,-2)"
       sodipodi:type="arc"
       style="fill:#75750b;fill-opacity:1;stroke:none"
       id="path4229-76-87"
       sodipodi:cx="380.5"
       sodipodi:cy="629.86218"
       sodipodi:rx="0.5"
       sodipodi:ry="0.5"
       d="m 381,629.86218 a 0.5,0.5 0 1 1 -1,0 0.5,0.5 0 1 1 1,0 z"
       inkscape:export-xdpi="89"
       inkscape:export-ydpi="89" />
    <path
       transform="translate(2,-2)"
       sodipodi:type="arc"
       style="fill:#75750b;fill-opacity:1;stroke:none"
       id="path4229-76-42"
       sodipodi:cx="380.5"
       sodipodi:cy="629.86218"
       sodipodi:rx="0.5"
       sodipodi:ry="0.5"
       d="m 381,629.86218 a 0.5,0.5 0 1 1 -1,0 0.5,0.5 0 1 1 1,0 z"
       inkscape:export-xdpi="89"
       inkscape:export-ydpi="89" />
    <path
       transform="translate(4,-1)"
       sodipodi:type="arc"
       style="fill:#75750b;fill-opacity:1;stroke:none"
       id="path4229-76-77"
       sodipodi:cx="380.5"
       sodipodi:cy="629.86218"
       sodipodi:rx="0.5"
       sodipodi:ry="0.5"
       d="m 381,629.86218 a 0.5,0.5 0 1 1 -1,0 0.5,0.5 0 1 1 1,0 z"
       inkscape:export-xdpi="89"
       inkscape:export-ydpi="89" />
  </g>
</svg>
