<?xml version="1.0" encoding="UTF-8" standalone="no"?>
<!-- Created with Inkscape (http://www.inkscape.org/) -->

<svg
   xmlns:dc="http://purl.org/dc/elements/1.1/"
   xmlns:cc="http://creativecommons.org/ns#"
   xmlns:rdf="http://www.w3.org/1999/02/22-rdf-syntax-ns#"
   xmlns:svg="http://www.w3.org/2000/svg"
   xmlns="http://www.w3.org/2000/svg"
   xmlns:sodipodi="http://sodipodi.sourceforge.net/DTD/sodipodi-0.dtd"
   xmlns:inkscape="http://www.inkscape.org/namespaces/inkscape"
   id="svg2"
   sodipodi:docname="housenumber_small.svg"
   xml:space="preserve"
   viewBox="0 0 12 9"
   version="1.1"
   inkscape:version="0.91 r13725"
   width="12"
   height="9"><defs
   id="defs18" />
  <title
   id="title3096">Pancarte</title>
  <sodipodi:namedview
   id="namedview4"
   bordercolor="#666666"
   inkscape:pageshadow="2"
   guidetolerance="10"
   pagecolor="#ffffff"
   gridtolerance="10"
   inkscape:window-maximized="1"
   inkscape:zoom="36.285886"
   objecttolerance="10"
   borderopacity="1"
   inkscape:current-layer="g10"
   inkscape:cx="5.2880758"
   inkscape:cy="5.4555467"
   inkscape:window-y="-8"
   inkscape:window-x="-8"
   inkscape:window-width="1680"
   showgrid="true"
   inkscape:pageopacity="0"
   inkscape:window-height="988">
    <inkscape:grid
   id="grid4543"
   type="xygrid" />
  </sodipodi:namedview>
  <g
   id="g10"
   inkscape:label="Lawn_Sign_Large"
   inkscape:groupmode="layer"
   transform="matrix(1.25,0,0,-1.25,0,9)">
    
    <rect
   id="rect3749"
   style="fill:#0000a0;fill-opacity:1"
   transform="scale(1,-1)"
   height="7.1999998"
   width="9.5999994"
   y="-7.1999998"
   x="2.3841858e-008" />
    <path
   id="rect3759"
   style="fill:none;stroke:#ffffff;stroke-width:0.50879997;stroke-miterlimit:4;stroke-dasharray:none"
   d="M 2.0131663,6.3055349 C 2.0128414,5.7592335 1.4561213,5.2089095 0.9232113,5.1940611 l 0,-3.2016508 c 0.5379624,3.422e-4 1.099735,-0.6070659 1.089955,-1.15334716 l 5.5870041,-5.11e-5 C 7.6206154,1.3903457 8.1838008,1.9706041 8.688875,1.9924103 l 0,3.2016508 C 8.2067291,5.1888036 7.6003969,5.7693472 7.6001704,6.3055503 l -5.5870041,3.78e-5 z"
   inkscape:connector-curvature="0"
   sodipodi:nodetypes="cccccccccc" />
    
    
    
    
    
  <g
   transform="scale(0.74999997,-0.74999997)"
   style="fill:#ffffff;fill-opacity:1;stroke:none;stroke-width:1px;stroke-linecap:butt;stroke-linejoin:miter;stroke-opacity:1"
   id="text4146"><path
     d="m 5.861626,-5.4307982 0,-0.013176 c 0,-0.00439 0.0022,-0.010981 0.00659,-0.019764 l 0,-0.026351 0,-0.026352 c 0,-0.017567 -0.0022,-0.037331 -0.00659,-0.059291 0,-0.021959 -0.0022,-0.043919 -0.00659,-0.065879 -0.013176,-0.052703 -0.039527,-0.098818 -0.079054,-0.1383455 -0.035135,-0.043919 -0.092249,-0.067553 -0.1712849,-0.065879 l -0.5204426,0 0,-0.4971595 0.4677396,0 c 0.2108122,0 0.4062527,-0.063683 0.5863214,-0.1910486 0.1844607,-0.1317576 0.3293941,-0.2443564 0.4348002,-0.4024656 0.026351,-0.035135 0.048311,-0.068075 0.065879,-0.098818 0.021959,-0.035135 0.039527,-0.070271 0.052703,-0.1054061 l 0.4677396,0 0,3.7957744 c 0,0.1054061 0.024155,0.1932446 0.072466,0.2635153 0.048311,0.065879 0.1097978,0.098818 0.1844608,0.098818 l 0.5731457,0 0,0.6215714 -2.9052558,0 0,-0.6215714 0.5204426,0 c 0.1010142,0 0.1690889,-0.02196 0.2042243,-0.065879 0.035135,-0.048311 0.052703,-0.1646974 0.052703,-0.3491577 z"
     id="path4151"
     inkscape:connector-curvature="0"
     sodipodi:nodetypes="csccscccsccscccccscsccccscsc" /></g></g>
<metadata
   id="metadata16"><rdf:RDF><cc:Work><dc:format>image/svg+xml</dc:format><dc:type
         rdf:resource="http://purl.org/dc/dcmitype/StillImage" /><cc:license
         rdf:resource="http://creativecommons.org/publicdomain/zero/1.0/" /><dc:publisher><cc:Agent
           rdf:about="http://openclipart.org/"><dc:title>Openclipart</dc:title></cc:Agent></dc:publisher><dc:title>Pancarte</dc:title></cc:Work><cc:License
       rdf:about="http://creativecommons.org/publicdomain/zero/1.0/"><cc:permits
         rdf:resource="http://creativecommons.org/ns#Reproduction" /><cc:permits
         rdf:resource="http://creativecommons.org/ns#Distribution" /><cc:permits
         rdf:resource="http://creativecommons.org/ns#DerivativeWorks" /></cc:License></rdf:RDF></metadata></svg>