<?xml version="1.0" encoding="UTF-8" standalone="no"?>
<!-- Created with Inkscape (http://www.inkscape.org/) -->

<svg
   xmlns:dc="http://purl.org/dc/elements/1.1/"
   xmlns:cc="http://creativecommons.org/ns#"
   xmlns:rdf="http://www.w3.org/1999/02/22-rdf-syntax-ns#"
   xmlns:svg="http://www.w3.org/2000/svg"
   xmlns="http://www.w3.org/2000/svg"
   xmlns:sodipodi="http://sodipodi.sourceforge.net/DTD/sodipodi-0.dtd"
   xmlns:inkscape="http://www.inkscape.org/namespaces/inkscape"
   width="7"
   height="16"
   viewBox="0 0 7 16"
   id="svg2"
   version="1.1"
   inkscape:version="0.91 r13725"
   sodipodi:docname="streetlamp3.svg">
  <defs
     id="defs4" />
  <sodipodi:namedview
     id="base"
     pagecolor="#ffffff"
     bordercolor="#666666"
     borderopacity="1.0"
     inkscape:pageopacity="0.0"
     inkscape:pageshadow="2"
     inkscape:zoom="44.8"
     inkscape:cx="1.8237576"
     inkscape:cy="7.6199912"
     inkscape:document-units="px"
     inkscape:current-layer="layer1"
     showgrid="true"
     units="px"
     inkscape:window-width="707"
     inkscape:window-height="443"
     inkscape:window-x="150"
     inkscape:window-y="150"
     inkscape:window-maximized="0">
    <inkscape:grid
       type="xygrid"
       id="grid4136" />
  </sodipodi:namedview>
  <metadata
     id="metadata7">
    <rdf:RDF>
      <cc:Work
         rdf:about="">
        <dc:format>image/svg+xml</dc:format>
        <dc:type
           rdf:resource="http://purl.org/dc/dcmitype/StillImage" />
        <dc:title></dc:title>
        <cc:license
           rdf:resource="http://creativecommons.org/publicdomain/zero/1.0/" />
      </cc:Work>
      <cc:License
         rdf:about="http://creativecommons.org/publicdomain/zero/1.0/">
        <cc:permits
           rdf:resource="http://creativecommons.org/ns#Reproduction" />
        <cc:permits
           rdf:resource="http://creativecommons.org/ns#Distribution" />
        <cc:permits
           rdf:resource="http://creativecommons.org/ns#DerivativeWorks" />
      </cc:License>
    </rdf:RDF>
  </metadata>
  <g
     inkscape:label="Layer 1"
     inkscape:groupmode="layer"
     id="layer1"
     transform="translate(0,-1036.3622)">
    <path
       style="fill:#333333;stroke:#000000;stroke-width:0.00098624"
       inkscape:connector-curvature="0"
       id="path5"
       d="m 3.9288921,1042.2535 c 0.009,0.026 0.065,0.035 0.10691,0.049 0.0285,0.01 0.0417,0.029 0.0216,0.043 -0.0672,0.062 -0.1637,0.1189 -0.18628,0.1888 -0.0119,0.034 0.0119,0.068 0.0591,0.094 -0.027,0.024 -0.0648,0.048 -0.0614,0.076 0.006,0.026 0.0373,0.048 0.0629,0.071 -0.0229,0.012 -0.046,0.024 -0.0698,0.035 0.0478,0.3598 0.0775,0.72 0.10057,1.0802 0.0182,0.3015 0.0408,0.6032 0.0581,0.9044 0.0231,0.016 0.0832,0.021 0.0749,0.046 0.006,0.028 -0.0756,0.038 -0.0728,0.065 0.0391,0.2546 0.0388,0.5099 0.0538,0.765 0.0106,0.2476 0.0246,0.4952 0.0545,0.7424 0.0188,0.1398 0.0387,0.2799 0.0888,0.4181 0.021,0.051 0.0402,0.1028 0.0962,0.1481 -0.0667,0.08 -0.15441,0.1605 -0.15875,0.2484 -0.004,0.082 0.10491,0.1544 0.11357,0.2359 0.005,0.039 -0.0434,0.075 -0.048,0.1136 -0.0149,0.077 0.006,0.1551 0.0464,0.2301 0.0395,0.078 0.11001,0.1514 0.16184,0.2275 0.0307,0.05 0.15456,0.069 0.19479,0.1157 0.035,0.049 0.0161,0.1048 -0.0421,0.1485 -0.0553,0.044 -0.1408,0.079 -0.19789,0.1224 0.0346,0.032 0.007,0.067 0.017,0.1 0.0291,0.054 0.15937,0.075 0.21646,0.1212 0.062,0.052 0.15162,0.098 0.17437,0.1576 -0.0741,0.05 -0.19077,0.081 -0.28623,0.121 -0.0559,0.02 -0.0449,0.056 -0.0562,0.085 -0.005,0.062 -0.0164,0.1317 0.0711,0.1832 0.0105,0.03 -0.0864,0.037 -0.0689,0.067 0.12347,0.6 0.21382,1.2013 0.33559,1.8014 0.006,0.054 0.1032,0.09 0.15332,0.1354 0.0404,0.029 0.0417,0.071 -0.008,0.098 -0.0393,0.021 -0.0864,0.039 -0.12161,0.061 0.054,0.059 0.2016,0.08 0.27107,0.1334 0.0543,0.041 0.0559,0.09 0.0535,0.1364 -0.005,0.067 -0.0214,0.1349 0.011,0.2008 0.002,0.012 0.0242,0.02 0.0436,0.026 0.0883,0.029 0.20129,0.037 0.28794,0.068 0.0897,0.03 0.0945,0.104 -0.002,0.1321 -0.0722,0.025 -0.15906,0.039 -0.23177,0.064 -0.0799,0.027 -0.16416,0.052 -0.2279,0.087 -0.0662,0.037 -0.0676,0.092 -0.15287,0.1219 -0.0685,0.021 -0.15472,0.017 -0.23254,0.021 -0.13507,0 -0.26875,0.019 -0.40444,0.012 -0.22435,-0.01 -0.44126,-0.041 -0.66453,-0.054 -0.0618,-0.01 -0.12331,0 -0.18411,0.01 -0.19665,0.014 -0.38897,0.04 -0.58779,0.048 -0.13522,0.01 -0.26798,-0.011 -0.40258,-0.013 -0.0845,0 -0.18768,2e-4 -0.24863,-0.033 -0.0628,-0.036 -0.0706,-0.087 -0.14451,-0.1204 -0.11001,-0.049 -0.23874,-0.089 -0.37504,-0.1216 -0.0455,-0.013 -0.0959,-0.026 -0.1203801,-0.048 -0.0292,-0.035 -0.0144,-0.081 0.0554,-0.1035 0.0996,-0.034 0.23162,-0.041 0.32336,-0.081 0.0424,-0.072 0.0227,-0.1469 0.0172,-0.2203 -0.003,-0.048 0.004,-0.1 0.0681,-0.1392 0.0707,-0.046 0.20176,-0.067 0.2525,-0.1202 -0.0317,-0.04 -0.14776,-0.058 -0.15457,-0.105 -0.0119,-0.076 0.175,-0.1187 0.18242,-0.1926 0.12192,-0.6001 0.21197,-1.2014 0.33575,-1.8014 0.0194,-0.03 -0.0752,-0.036 -0.0695,-0.064 0.0908,-0.06 0.0804,-0.1376 0.0674,-0.2072 -0.009,-0.021 -0.005,-0.046 -0.0423,-0.06 -0.0972,-0.042 -0.21769,-0.073 -0.29552,-0.1241 0.0209,-0.061 0.11341,-0.1076 0.17577,-0.1601 0.0551,-0.042 0.16694,-0.062 0.2084,-0.1091 0.0249,-0.036 -0.017,-0.076 0.0233,-0.1104 -0.0654,-0.049 -0.16601,-0.087 -0.21877,-0.1405 -0.0407,-0.038 -0.05,-0.084 -0.0253,-0.1248 0.0353,-0.051 0.16865,-0.07 0.20005,-0.1223 0.05,-0.074 0.11806,-0.1452 0.15767,-0.2206 0.0423,-0.079 0.0665,-0.161 0.0481,-0.2422 -0.008,-0.037 -0.0523,-0.07 -0.0467,-0.1073 0.008,-0.077 0.10599,-0.145 0.1131,-0.222 0.006,-0.093 -0.0881,-0.1775 -0.15812,-0.2619 0.0689,-0.058 0.0864,-0.1245 0.11,-0.1885 0.0583,-0.1891 0.0763,-0.3802 0.0953,-0.5708 0.0229,-0.2643 0.0334,-0.5287 0.0455,-0.7931 0.009,-0.174 0.0136,-0.3482 0.0427,-0.5217 0.002,-0.027 -0.0797,-0.037 -0.0729,-0.064 -0.0106,-0.025 0.0531,-0.029 0.0747,-0.046 0.0141,-0.2753 0.0376,-0.5507 0.0523,-0.8261 0.0252,-0.3874 0.0551,-0.775 0.1063,-1.162 -0.0187,-4e-4 -0.0373,-8e-4 -0.0559,-10e-4 -0.006,0 -0.0175,-0.012 -0.0232,-0.016 0.009,-0.029 0.0489,-0.055 0.0385,-0.085 -0.01,-0.024 -0.0395,-0.044 -0.0633,-0.065 0.0345,-0.017 0.08,-0.037 0.0663,-0.063 -0.0153,-0.09 -0.14389,-0.1616 -0.22357,-0.2404 -0.005,-0.04 0.0798,-0.064 0.15379,-0.074"
       sodipodi:nodetypes="cccccccccccccccccccccccccccccccccccccccccccccccccccccccccccccccccccccccccccccccccccccccccccc" />
    <g
       id="_x23_fdee21ff"
       transform="matrix(0.01942266,0,0,0.01715941,-6.6184579,1034.3756)">
      <path
         d="m 411.84,271.94 c 37.19,-14.82 74.37,-29.66 111.54,-44.54 0.08,53.27 -0.1,106.55 -0.1,159.83 -23.4,8.55 -46.78,17.19 -70.31,25.35 -12.49,-42.89 -25.24,-85.71 -37.82,-128.57 -1.14,-4.01 -2.53,-7.96 -3.31,-12.07 z"
         id="path8"
         inkscape:connector-curvature="0"
         style="fill:#fdee21;stroke:#fdee21;stroke-width:0.0938" />
      <path
         d="m 536.31,228.72 c 30.81,16.87 61.58,33.81 92.41,50.64 -9.7,44.98 -19.75,89.89 -29.55,134.84 -21.01,-8.85 -41.92,-17.93 -62.89,-26.88 0,-52.87 -0.05,-105.74 0.03,-158.6 z"
         id="path10"
         inkscape:connector-curvature="0"
         style="fill:#fdee21;stroke:#fdee21;stroke-width:0.0938" />
    </g>
    <path
       d="m 2.8466721,1036.4521 c 0.23269,-0.1008 0.5048,-0.1121 0.7571,-0.074 0.13557,0.025 0.28027,0.07 0.36495,0.1729 0.0738,0.09 0.0577,0.2227 -0.0299,0.3012 -0.0658,0.063 -0.15557,0.1376 -0.1245,0.2332 0.0315,0.1398 0.19384,0.1952 0.30571,0.2764 0.0798,0.054 0.10605,0.1471 0.095,0.2325 0.18762,0.1639 0.48362,0.1769 0.65843,0.3552 0.18665,0.1936 0.23152,0.4638 0.42691,0.6524 0.16062,0.1486 0.39389,0.2071 0.6155,0.245 0.0113,0.024 0.02,0.05 0.0375,0.072 0.0923,0.1057 0.2814303,0.093 0.3637803,0.2073 -0.067,0.083 -0.18102,0.12 -0.2872603,0.1476 -0.10138,0.025 -0.20704,0.036 -0.31212,0.031 -0.17966,0.3439 -0.23424,0.7231 -0.32319,1.09 -0.10391,0.4209 -0.21326,0.8411 -0.29911,1.2653 -0.0381,0.036 -0.0779,0.071 -0.11401,0.1079 -0.014,0.047 0.022,0.093 0.0225,0.1404 -0.0229,0.044 -0.0897,0.031 -0.13091,0.017 -0.007,-0.055 0.027,-0.1119 -0.002,-0.1646 -0.10779,-8e-4 -0.22472,0.02 -0.29911,0.095 -0.14955,0.1481 -0.15111,0.3654 -0.2859,0.5215 -0.10532,0.4458 -1.28448,-0.192 -1.67714,-0.5237 -0.0868,-0.085 -0.2189,-0.1196 -0.34534,-0.1153 -0.009,0.044 0.0161,0.086 0.0109,0.1304 -0.027,0.03 -0.0796,0.019 -0.11246,0 -0.0301,-0.037 0.003,-0.084 0.002,-0.1251 -0.0285,-0.042 -0.0697,-0.076 -0.0954,-0.1199 -0.10799,-0.1682 -0.13246,-0.3636 -0.19073,-0.5469 -0.10546,-0.3341 -0.23326,-0.6627 -0.32339,-1.0006 -0.0975,-0.3414 -0.1864502,-0.6912 -0.3828204,-1.0014 -0.18645017,0.1139 -0.42632013,0.041 -0.60249013,-0.053 0.006,-0.031 0.007,-0.066 0.0352,-0.089 0.0829,-0.07 0.21734,-0.046 0.3026,-0.1124 0.0425,-0.032 0.0383,-0.086 0.0354,-0.1301 0.0711,-0.033 0.0956,0.042 0.12780003,0.081 0.0915,-3e-4 0.1538302,-0.066 0.2301602,-0.1003 0.047,-0.026 0.1027501,-0.03 0.1567402,-0.031 0.2035501,-0.2609 0.3344601,-0.5589 0.5321801,-0.823 0.17422,-0.053 0.33796,-0.1311 0.5149,-0.1788 0.0124,-0.088 0.041,-0.1764 0.0969,-0.2514 0.0759,-0.105 0.19014,-0.1814 0.30416,-0.2516 0.0144,-0.064 0.009,-0.1367 -0.0449,-0.1863 -0.0748,-0.071 -0.19539,-0.1196 -0.21035,-0.2267 -0.0264,-0.121 0.0806,-0.2249 0.19636,-0.2733 m -1.4644602,2.5874 c 0.0151,0.071 0.0421,0.1383 0.0643,0.2071 0.2443401,0.7355 0.4919801,1.4703 0.7345701,2.2062 0.45701,-0.14 0.91112,-0.2882 1.36561,-0.435 0,-0.9142 0.003,-1.8285 0.002,-2.7425 -0.72194,0.2553 -1.44408,0.5099 -2.1664001,0.7642 m 2.4175301,-0.7416 c -0.002,0.9071 -5.8e-4,1.8143 -5.8e-4,2.7215 0.40729,0.1536 0.81342,0.3094 1.22149,0.4612 0.19034,-0.7713 0.38554,-1.5419 0.57394,-2.3137 -0.5988,-0.2888 -1.19644,-0.5795 -1.79485,-0.869 m -0.0973,3.7915 c -5.8e-4,0.066 -3.8e-4,0.1322 -1.9e-4,0.1984 0.0827,0.01 0.1515,0.05 0.21948,0.089 0.0592,0.031 0.1445,0.061 0.20258,0.012 0.17383,-0.1187 0.18684,-0.3281 0.25793,-0.4974 -0.22919,0.059 -0.46304,0.1086 -0.67979,0.1987 m -0.88218,-0.1739 c 0.02,0.096 0.048,0.1931 0.10391,0.2785 0.0625,0.1018 0.16878,0.1771 0.28804,0.2226 0.0892,-0.034 0.20801,-0.073 0.2253,-0.1688 -0.005,-0.069 -0.0748,-0.115 -0.13363,-0.1517 -0.14839,-0.084 -0.31562,-0.1373 -0.48362,-0.1806 z"
       id="path4145"
       inkscape:connector-curvature="0"
       style="fill:#333333;stroke:#000000;stroke-width:0.00171241"
       sodipodi:nodetypes="cccccccccccccccccccccccccccccccccccccccccccccccccccccccccccccccccccc" />
  </g>
</svg>
