<?xml version="1.0" encoding="UTF-8" standalone="no"?>
<!-- Created with Inkscape (http://www.inkscape.org/) -->

<svg
   xmlns:dc="http://purl.org/dc/elements/1.1/"
   xmlns:cc="http://creativecommons.org/ns#"
   xmlns:rdf="http://www.w3.org/1999/02/22-rdf-syntax-ns#"
   xmlns:svg="http://www.w3.org/2000/svg"
   xmlns="http://www.w3.org/2000/svg"
   xmlns:sodipodi="http://sodipodi.sourceforge.net/DTD/sodipodi-0.dtd"
   xmlns:inkscape="http://www.inkscape.org/namespaces/inkscape"
   id="svg4260"
   sodipodi:modified="true"
   sodipodi:docname="beekeeper.svg"
   viewBox="0 0 245.05 243.85"
   sodipodi:version="0.32"
   version="1.0"
   inkscape:output_extension="org.inkscape.output.svg.inkscape"
   inkscape:version="0.91 r13725">
  <defs
     id="defs27" />
  <sodipodi:namedview
     id="base"
     bordercolor="#666666"
     inkscape:pageshadow="2"
     inkscape:window-y="-8"
     pagecolor="#ffffff"
     inkscape:window-height="988"
     inkscape:zoom="1.4"
     inkscape:window-x="-8"
     borderopacity="1.0"
     inkscape:current-layer="layer1"
     inkscape:cx="-121.68437"
     inkscape:cy="197.21283"
     inkscape:window-width="1680"
     inkscape:pageopacity="0.0"
     inkscape:document-units="px"
     showgrid="false"
     inkscape:window-maximized="1">
    <inkscape:grid
       type="xygrid"
       id="grid4155" />
  </sodipodi:namedview>
  <g
     id="layer1"
     inkscape:label="Layer 1"
     inkscape:groupmode="layer"
     transform="translate(-46.226 -53.076)">
    <path
       inkscape:connector-curvature="0"
       d="m 62.974818,221.03826 c -11.11578,-4.2753 -17.984762,30.49714 -11.11578,40.18782 25.153015,29.07204 81.729482,32.34977 81.729482,32.34977 l 62.37663,0.57004 c 0,0 64.84205,-0.99757 88.49871,-33.91738 5.41538,-6.69797 7.69554,-44.74814 -8.69311,-39.61778 -31.92224,24.65423 -51.87364,23.51415 -104.45983,24.65423 -52.58619,1.14008 -92.20397,-6.69797 -108.336102,-24.2267 z"
       style="fill:#d59d07;fill-rule:evenodd;stroke:#000000;stroke-width:5.70039988;fill-opacity:1"
       sodipodi:nodetypes="cccccczc"
       id="path5505" />
    <path
       inkscape:connector-curvature="0"
       d="m 60.979678,250.1103 c -9.932947,-3.70526 -13.068167,5.98542 -7.011492,11.54331 23.898927,26.22184 78.537264,31.06718 78.537264,31.06718 l 64.02974,0.14251 c 0,0 67.69225,-2.13765 87.07361,-33.91738 3.99028,-4.98785 3.27773,-14.39351 -5.55789,-10.83076 -24.36921,22.51658 -53.29874,31.06718 -107.31003,31.3522 -53.99704,0.28502 -94.697895,-12.54088 -109.761202,-29.35706 z"
       style="fill:#af7c05;fill-rule:evenodd;fill-opacity:1"
       sodipodi:nodetypes="cccccczc"
       id="path5507" />
    <path
       inkscape:connector-curvature="0"
       d="m 75.430192,186.26582 c -9.932947,-3.70526 -16.716423,28.92953 -10.574242,37.48013 24.397712,21.3765 74.47573,22.37407 74.47573,22.37407 l 55.20837,0.42753 c 0,0 50.16352,4.98785 82.51329,-25.6518 4.84534,-5.84291 2.56518,-40.18782 -12.11335,-35.6275 -28.502,21.3765 -45.46069,21.3765 -92.34648,22.37407 -47.0283,0.99757 -82.755557,-6.12793 -97.163318,-21.3765 z"
       style="fill:#d59d07;fill-rule:evenodd;stroke:#000000;stroke-width:5.70039988;fill-opacity:1"
       sodipodi:nodetypes="cccccczc"
       id="path5509" />
    <path
       inkscape:connector-curvature="0"
       d="m 85.106621,155.05613 c -8.849871,-3.27773 -13.552701,25.79431 -8.080317,33.34734 21.747026,19.09634 66.366906,19.9514 66.366906,19.9514 l 49.29421,0.42753 c 0,0 44.60563,4.41781 73.39265,-22.8016 4.2753,-5.27287 2.70769,-36.62507 -10.26072,-32.49228 -25.50929,19.09634 -41.47041,19.23885 -83.36835,19.9514 -41.81243,0.85506 -74.504228,-4.84534 -87.344379,-18.38379 z"
       style="fill:#d59d07;fill-rule:evenodd;stroke:#000000;stroke-width:5.70039988;fill-opacity:1"
       sodipodi:nodetypes="cccccczc"
       id="path5511" />
    <path
       inkscape:connector-curvature="0"
       d="m 95.951632,126.98166 c -8.009062,-3.13522 -14.621526,22.37407 -9.676429,29.07204 19.652127,17.24371 59.996707,18.09877 59.996707,18.09877 l 44.56288,0.28502 c 0,0 40.33033,3.99028 66.40966,-20.52144 3.84777,-4.84534 0.42753,-30.92467 -11.25829,-27.21941 -23.08662,17.24371 -35.6275,15.96112 -73.39265,16.81618 -37.90766,0.71255 -65.04156,-4.41781 -76.641878,-16.53116 z"
       style="fill:#d59d07;fill-rule:evenodd;stroke:#000000;stroke-width:5.70039988;fill-opacity:1"
       sodipodi:nodetypes="cccccczc"
       id="path5513" />
    <path
       inkscape:connector-curvature="0"
       d="m 104.97251,101.47237 c -7.025738,-2.70769 -12.597879,20.66395 -8.251324,26.50686 17.272214,14.96355 52.714444,15.6761 52.714444,15.6761 l 39.119,0.28502 c 0,0 35.48499,3.42024 58.28659,-17.81375 3.42024,-4.13279 2.13765,-26.79188 -8.12307,-23.65666 -20.23642,14.96355 -32.06475,13.82347 -65.26958,14.53602 -33.27608,0.71255 -58.27234,-4.98785 -68.47605,-15.53359 z"
       style="fill:#d59d07;fill-rule:evenodd;stroke:#000000;stroke-width:5.70039988;fill-opacity:1"
       sodipodi:nodetypes="cccccczc"
       id="path5515" />
    <path
       inkscape:connector-curvature="0"
       d="m 114.0789,85.79627 c -6.19918,-1.99514 -11.75707,14.53602 -7.92355,18.95383 15.22007,10.97327 49.35121,11.97084 49.35121,11.97084 l 31.62297,0.28502 c 0,0 31.20969,2.13765 51.3036,-13.82347 2.99271,-2.99271 0,-20.23642 -9.12064,-17.95626 -17.81375,11.11578 -26.64937,11.11578 -56.00643,11.68582 -29.28581,0.42753 -50.23478,-3.27773 -59.22716,-11.11578 z"
       style="fill:#d59d07;fill-rule:evenodd;stroke:#000000;stroke-width:5.70039988;fill-opacity:1"
       sodipodi:nodetypes="cccccczc"
       id="path5517" />
    <path
       inkscape:connector-curvature="0"
       d="m 121.16165,71.83029 c -5.32987,-1.4251 -8.92113,12.68339 -5.62914,15.96112 13.05391,8.26558 39.86004,8.69311 39.86004,8.69311 l 29.59933,0.14251 c 0,0 26.79188,1.85263 44.1781,-9.9757 2.56518,-2.28016 0.57004,-16.67367 -7.26801,-14.96355 -15.24857,8.26558 -23.51415,9.83319 -48.73842,10.26072 -25.13876,0.28502 -44.29211,-4.2753 -52.0019,-10.11821 z"
       style="fill:#d59d07;fill-rule:evenodd;stroke:#000000;stroke-width:5.70039988;fill-opacity:1"
       sodipodi:nodetypes="cccccczc"
       id="path5519" />
    <path
       inkscape:connector-curvature="0"
       d="m 126.60553,62.28212 c -4.68858,-1.28259 -7.42477,9.40566 -4.53182,12.11335 11.50056,6.98299 35.10022,7.41052 35.10022,7.41052 l 25.96532,0.14251 c 0,0 23.65666,1.56761 38.90523,-8.40809 2.28016,-1.99514 1.4251,-12.54088 -5.41538,-11.11578 -13.53845,7.1255 -21.23399,-6.69797 -43.32304,-6.41295 -22.14605,0.28502 -39.91705,11.11578 -46.70053,6.27044 z"
       style="fill:#d59d07;fill-rule:evenodd;stroke:#000000;stroke-width:5.70039988;fill-opacity:1"
       sodipodi:nodetypes="cccccczc"
       id="path5521" />
    <path
       inkscape:connector-curvature="0"
       d="m 145.20309,69.69264 c 4.83109,3.42024 43.06652,5.27287 50.33453,-0.42753"
       style="fill:none;stroke:#000000;stroke-width:5.70039988"
       sodipodi:nodetypes="cc"
       id="path5523" />
    <path
       inkscape:connector-curvature="0"
       d="m 145.16033,293.71836 c 0.45604,-27.64694 11.24404,-34.34491 22.58784,-34.48742 11.4008,-0.14251 23.37164,7.41052 22.94411,33.91738 l -45.53195,0.57004 z"
       style="fill:#000000;fill-rule:evenodd;stroke:#000000;stroke-width:5.70039988"
       sodipodi:nodetypes="czcc"
       id="path5525" />
    <path
       inkscape:connector-curvature="0"
       d="m 73.078777,216.62045 c -8.992381,-2.56518 -11.82833,4.13279 -6.341695,7.83805 21.633018,17.95626 71.112488,21.23399 71.112488,21.23399 l 57.97307,0.14251 c 0,0 49.59348,2.42267 78.80803,-23.08662 3.56275,-3.42024 2.99271,-9.9757 -4.98785,-7.55303 -22.08905,15.39108 -48.31089,21.23399 -97.19182,21.51901 -48.88093,0.14251 -85.719765,-8.5506 -99.372223,-20.09391 z"
       style="fill:#af7c05;fill-rule:evenodd;fill-opacity:1"
       sodipodi:nodetypes="cccccczc"
       id="path5527" />
    <path
       inkscape:connector-curvature="0"
       d="m 87.272773,184.69821 c -7.724042,-1.99514 -10.175214,3.27773 -5.458133,6.27044 18.59755,13.96598 61.09404,16.53116 61.09404,16.53116 l 49.77874,0.14251 c 0,0 42.61049,1.85263 67.69225,-18.09877 3.13522,-2.70769 2.70769,-7.69554 -4.2753,-5.84291 -18.95383,11.97084 -41.47041,16.53116 -83.51086,16.67367 -41.95494,0.28502 -73.592164,-6.55546 -85.320737,-15.6761 z"
       style="fill:#af7c05;fill-rule:evenodd;fill-opacity:1"
       sodipodi:nodetypes="cccccczc"
       id="path5529" />
    <path
       inkscape:connector-curvature="0"
       d="m 94.341269,151.7784 c -7.068496,-1.85263 -9.305903,3.13522 -4.98785,5.98542 17.015691,13.39594 55.920921,15.96112 55.920921,15.96112 l 45.56045,0 c 0,0 39.04774,1.85263 61.99185,-17.38622 2.8502,-2.56518 2.42267,-7.41052 -3.99028,-5.55789 -17.24371,11.54331 -37.90766,15.96112 -76.38536,16.10363 -38.40644,0.14251 -67.37873,-6.41295 -78.109731,-15.10606 z"
       style="fill:#af7c05;fill-rule:evenodd;fill-opacity:1"
       sodipodi:nodetypes="cccccczc"
       id="path5531" />
    <path
       inkscape:connector-curvature="0"
       d="m 104.31697,123.98895 c -6.184935,-1.56761 -8.123071,2.70769 -4.360807,5.13036 14.849537,11.54331 48.809677,13.68096 48.809677,13.68096 l 39.78879,0 c 0,0 34.05989,1.56761 54.01129,-14.82104 2.56518,-2.28016 2.13765,-6.41295 -3.42024,-4.84534 -15.10606,9.83319 -33.06232,13.68096 -66.55217,13.82347 -33.63236,0.14251 -58.91363,-5.55789 -68.27654,-12.96841 z"
       style="fill:#af7c05;fill-rule:evenodd;fill-opacity:1"
       sodipodi:nodetypes="cccccczc"
       id="path5533" />
    <path
       inkscape:connector-curvature="0"
       d="m 111.91275,99.76225 c -5.55789,-1.56761 -7.32501,2.42267 -3.91902,4.56032 13.36743,10.40323 43.95008,12.25586 43.95008,12.25586 l 35.89827,0.14251 c 0,0 30.63965,1.4251 48.59591,-13.39594 2.28016,-1.99514 1.99514,-5.84291 -2.99271,-4.41781 -13.68096,8.97813 -29.78459,12.39837 -60.13922,12.39837 -30.18362,0.14251 -52.95672,-4.84534 -61.39331,-11.54331 z"
       style="fill:#af7c05;fill-rule:evenodd;fill-opacity:1"
       sodipodi:nodetypes="cccccczc"
       id="path5535" />
    <path
       inkscape:connector-curvature="0"
       d="m 120.30659,84.37117 c -4.78834,-0.99757 -5.32987,1.71012 -2.40842,3.27773 11.51481,7.41052 37.82216,7.69554 37.82216,7.69554 l 30.83916,0.14251 c 0,0 26.36435,0.85506 41.89794,-9.54817 1.99514,-1.4251 1.56761,-3.99028 -2.70769,-2.99271 -11.68582,6.27044 -25.6518,8.69311 -51.58862,8.69311 -26.03658,0.14251 -46.60077,-2.56518 -53.85453,-7.26801 z"
       style="fill:#af7c05;fill-rule:evenodd;fill-opacity:1"
       sodipodi:nodetypes="cccccczc"
       id="path5537" />
    <path
       inkscape:connector-curvature="0"
       d="m 125.99274,71.9728 c -4.20405,-0.85506 -4.67433,1.4251 -2.10915,2.70769 10.07546,5.84291 33.13358,6.27044 33.13358,6.27044 l 27.11965,0 c 0,0 23.08662,0.71255 36.62507,-7.69554 1.71012,-1.14008 1.4251,-3.27773 -2.28016,-2.56518 -10.26072,5.13036 -22.51658,7.1255 -45.31818,7.1255 -22.8016,0.14251 -40.81486,-1.99514 -47.17081,-5.84291 z"
       style="fill:#af7c05;fill-rule:evenodd;fill-opacity:1"
       sodipodi:nodetypes="cccccczc"
       id="path5539" />
    <path
       inkscape:connector-curvature="0"
       d="m 147.469,67.98252 c -2.02365,0.28502 -1.78138,1.14008 -0.51304,1.71012 4.90234,1.85263 16.08938,2.28016 16.08938,2.28016 l 13.53845,0 c 0,0 11.11578,1.14008 17.81375,-2.99271 0.85506,-0.57004 0.28502,-1.14008 -0.71255,-1.56761 -6.55546,-0.57004 -10.83076,-2.70769 -22.23156,-2.70769 -11.4008,0.14251 -20.89197,3.27773 -23.98443,3.27773 z"
       style="fill:#af7c05;fill-rule:evenodd;fill-opacity:1"
       sodipodi:nodetypes="cccccczc"
       id="path5541" />
  </g>
  <metadata
     id="metadata25">
    <rdf:RDF>
      <cc:Work>
        <dc:format>image/svg+xml</dc:format>
        <dc:type
           rdf:resource="http://purl.org/dc/dcmitype/StillImage" />
        <cc:license
           rdf:resource="http://creativecommons.org/licenses/publicdomain/" />
        <dc:publisher>
          <cc:Agent
             rdf:about="http://openclipart.org/">
            <dc:title>Openclipart</dc:title>
          </cc:Agent>
        </dc:publisher>
        <dc:title></dc:title>
        <dc:date>2007-04-10T15:46:42</dc:date>
        <dc:description>A simple apiary of the old classical design.</dc:description>
        <dc:source>https://openclipart.org/detail/3866/apiary-by-doctormo</dc:source>
        <dc:creator>
          <cc:Agent>
            <dc:title>doctormo</dc:title>
          </cc:Agent>
        </dc:creator>
        <dc:subject>
          <rdf:Bag>
            <rdf:li>apiary</rdf:li>
            <rdf:li>bee</rdf:li>
            <rdf:li>beehive</rdf:li>
            <rdf:li>comb</rdf:li>
            <rdf:li>hive</rdf:li>
            <rdf:li>honey</rdf:li>
            <rdf:li>remix problem</rdf:li>
          </rdf:Bag>
        </dc:subject>
      </cc:Work>
      <cc:License
         rdf:about="http://creativecommons.org/licenses/publicdomain/">
        <cc:permits
           rdf:resource="http://creativecommons.org/ns#Reproduction" />
        <cc:permits
           rdf:resource="http://creativecommons.org/ns#Distribution" />
        <cc:permits
           rdf:resource="http://creativecommons.org/ns#DerivativeWorks" />
      </cc:License>
    </rdf:RDF>
  </metadata>
</svg>
