<?xml version="1.0" encoding="UTF-8" standalone="no"?>
<!-- Created with Inkscape (http://www.inkscape.org/) -->

<svg
   xmlns:dc="http://purl.org/dc/elements/1.1/"
   xmlns:cc="http://creativecommons.org/ns#"
   xmlns:rdf="http://www.w3.org/1999/02/22-rdf-syntax-ns#"
   xmlns:svg="http://www.w3.org/2000/svg"
   xmlns="http://www.w3.org/2000/svg"
   xmlns:sodipodi="http://sodipodi.sourceforge.net/DTD/sodipodi-0.dtd"
   xmlns:inkscape="http://www.inkscape.org/namespaces/inkscape"
   id="svg4260"
   sodipodi:modified="true"
   sodipodi:docname="33.svg"
   viewBox="0 0 160 150"
   sodipodi:version="0.32"
   version="1.0"
   inkscape:output_extension="org.inkscape.output.svg.inkscape"
   inkscape:version="0.92.2 (5c3e80d, 2017-08-06)"
   width="160"
   height="150">
  <defs
     id="defs27" />
  <sodipodi:namedview
     id="base"
     bordercolor="#666666"
     inkscape:pageshadow="2"
     inkscape:window-y="-8"
     pagecolor="#ffffff"
     inkscape:window-height="987"
     inkscape:zoom="2.8"
     inkscape:window-x="-8"
     borderopacity="1.0"
     inkscape:current-layer="layer1"
     inkscape:cx="72.969413"
     inkscape:cy="86.177842"
     inkscape:window-width="1680"
     inkscape:pageopacity="0.0"
     inkscape:document-units="px"
     showgrid="false"
     inkscape:window-maximized="1">
    <inkscape:grid
       type="xygrid"
       id="grid4155" />
  </sodipodi:namedview>
  <g
     id="layer1"
     inkscape:label="Layer 1"
     inkscape:groupmode="layer"
     transform="translate(-46.226,-146.926)">
    <path
       inkscape:connector-curvature="0"
       d="m 57.08992,250.17927 c -7.262321,-2.62809 -11.750065,18.74705 -7.262321,24.70406 16.433328,17.871 53.396691,19.88589 53.396691,19.88589 l 40.75278,0.35041 c 0,0 42.36355,-0.61322 57.81925,-20.84952 3.53805,-4.11734 5.02777,-27.50736 -5.67951,-24.35365 -20.8559,15.15533 -33.89082,14.4545 -68.24719,15.15533 -34.356367,0.70082 -60.240024,-4.11735 -70.7797,-14.89252 z"
       style="fill:#d59d07;fill-opacity:1;fill-rule:evenodd;stroke:#000000;stroke-width:3.61251688"
       sodipodi:nodetypes="cccccczc"
       id="path5505" />
    <path
       inkscape:connector-curvature="0"
       d="m 55.786424,268.05029 c -6.489535,-2.27768 -8.537882,3.67933 -4.580849,7.09583 15.613993,16.11897 51.311075,19.09748 51.311075,19.09748 l 41.83285,0.0875 c 0,0 44.22568,-1.31405 56.88818,-20.84952 2.60699,-3.06609 2.14146,-8.84789 -3.63117,-6.65784 -15.92123,13.84129 -34.82186,19.09747 -70.10933,19.27269 -35.27811,0.17521 -61.869378,-7.70907 -71.710756,-18.04624 z"
       style="fill:#af7c05;fill-opacity:1;fill-rule:evenodd;stroke-width:0.63373041"
       sodipodi:nodetypes="cccccczc"
       id="path5507" />
    <path
       inkscape:connector-curvature="0"
       d="m 65.227443,228.80413 c -6.489536,-2.27768 -10.921415,17.78342 -6.908516,23.0396 15.939864,13.14044 48.657563,13.75368 48.657563,13.75368 l 36.06952,0.2628 c 0,0 32.77354,3.06611 53.90878,-15.76853 3.16562,-3.59174 1.67589,-24.70405 -7.91407,-21.90077 -18.62135,13.14046 -29.70105,13.14046 -60.33315,13.75367 -30.725196,0.61323 -54.067041,-3.76693 -63.480127,-13.14045 z"
       style="fill:#d59d07;fill-opacity:1;fill-rule:evenodd;stroke:#000000;stroke-width:3.61251688"
       sodipodi:nodetypes="cccccczc"
       id="path5509" />
    <path
       inkscape:connector-curvature="0"
       d="M 71.549386,209.61906 C 65.767462,207.60419 62.69494,225.47523 66.270238,230.11817 80.478317,241.85698 109.63,242.3826 109.63,242.3826 l 32.20563,0.26281 c 0,0 29.14239,2.71569 47.94992,-14.01649 2.79321,-3.24129 1.76903,-22.51399 -6.70369,-19.97349 -16.66608,11.73881 -27.09402,11.82641 -54.46738,12.26443 -27.31751,0.52562 -48.676183,-2.97851 -57.065094,-11.3008 z"
       style="fill:#d59d07;fill-opacity:1;fill-rule:evenodd;stroke:#000000;stroke-width:3.61251688"
       sodipodi:nodetypes="cccccczc"
       id="path5511" />
    <path
       inkscape:connector-curvature="0"
       d="m 78.634806,192.36126 c -5.232596,-1.92726 -9.552747,13.75367 -6.321943,17.87102 12.839411,10.59997 39.197917,11.12559 39.197917,11.12559 l 29.11447,0.1752 c 0,0 26.34917,2.45289 43.3877,-12.61483 2.51387,-2.97851 0.27931,-19.00987 -7.35543,-16.73218 -15.08329,10.59995 -23.27667,9.81155 -47.94995,10.33715 -24.76638,0.43802 -42.493878,-2.71568 -50.072764,-10.16195 z"
       style="fill:#d59d07;fill-opacity:1;fill-rule:evenodd;stroke:#000000;stroke-width:3.61251688"
       sodipodi:nodetypes="cccccczc"
       id="path5513" />
    <path
       inkscape:connector-curvature="0"
       d="m 84.528456,176.68031 c -4.590159,-1.66446 -8.230628,12.70245 -5.390875,16.29417 11.284532,9.19832 34.440149,9.63635 34.440149,9.63635 l 25.55781,0.17518 c 0,0 23.18357,2.10247 38.08063,-10.95035 2.23457,-2.5405 1.3966,-16.46939 -5.30709,-14.54212 -13.22114,9.19832 -20.949,8.49749 -42.64288,8.93551 -21.74039,0.43802 -38.071303,-3.06611 -44.737737,-9.54874 z"
       style="fill:#d59d07;fill-opacity:1;fill-rule:evenodd;stroke:#000000;stroke-width:3.61251688"
       sodipodi:nodetypes="cccccczc"
       id="path5515" />
    <path
       inkscape:connector-curvature="0"
       d="m 90.477974,167.04399 c -4.050138,-1.22644 -7.6813,8.93552 -5.176727,11.65118 9.943795,6.74546 32.242843,7.35868 32.242843,7.35868 l 20.66036,0.1752 c 0,0 20.39037,1.31404 33.51842,-8.49749 1.95523,-1.83966 0,-12.43963 -5.95882,-11.03798 -11.63836,6.83302 -17.41095,6.83302 -36.59094,7.18344 -19.13343,0.26281 -32.820106,-2.01486 -38.695136,-6.83303 z"
       style="fill:#d59d07;fill-opacity:1;fill-rule:evenodd;stroke:#000000;stroke-width:3.61251688"
       sodipodi:nodetypes="cccccczc"
       id="path5517" />
    <path
       inkscape:connector-curvature="0"
       d="m 95.105377,158.45888 c -3.482188,-0.87602 -5.828481,7.79668 -3.67771,9.81154 8.528571,5.08099 26.041953,5.3438 26.041953,5.3438 l 19.33824,0.0875 c 0,0 17.50407,1.13884 28.86306,-6.13222 1.67593,-1.40164 0.37244,-10.24954 -4.74842,-9.19831 -9.96242,5.08096 -15.36262,6.0446 -31.8425,6.30741 -16.42401,0.17522 -28.93755,-2.62808 -33.974623,-6.21981 z"
       style="fill:#d59d07;fill-opacity:1;fill-rule:evenodd;stroke:#000000;stroke-width:3.61251688"
       sodipodi:nodetypes="cccccczc"
       id="path5519" />
    <path
       inkscape:connector-curvature="0"
       d="m 98.662051,152.58947 c -3.06321,-0.78841 -4.850857,5.78182 -2.960792,7.44629 7.513691,4.29255 22.932171,4.55535 22.932171,4.55535 l 16.96404,0.0875 c 0,0 15.45571,0.96365 25.41813,-5.16856 1.48972,-1.22646 0.93106,-7.70907 -3.53805,-6.83305 -8.84514,4.38016 -13.87291,-4.11734 -28.30444,-3.94213 -14.46877,0.17521 -26.07918,6.83304 -30.511059,3.85451 z"
       style="fill:#d59d07;fill-opacity:1;fill-rule:evenodd;stroke:#000000;stroke-width:3.61251688"
       sodipodi:nodetypes="cccccczc"
       id="path5521" />
    <path
       inkscape:connector-curvature="0"
       d="m 110.81247,157.14484 c 3.15631,2.10248 28.13684,3.24131 32.88528,-0.26279"
       style="fill:none;stroke:#000000;stroke-width:3.61251688"
       sodipodi:nodetypes="cc"
       id="path5523" />
    <path
       inkscape:connector-curvature="0"
       d="m 110.78454,294.85682 c 0.29794,-16.99497 7.34612,-21.11234 14.75741,-21.19993 7.44852,-0.0875 15.26949,4.55535 14.99017,20.84952 z"
       style="fill:#000000;fill-rule:evenodd;stroke:#000000;stroke-width:3.61251688"
       sodipodi:nodetypes="czcc"
       id="path5525" />
    <path
       inkscape:connector-curvature="0"
       d="m 63.691183,247.46358 c -5.875033,-1.57687 -7.727856,2.54048 -4.143247,4.81817 14.133594,11.03798 46.460214,13.05284 46.460214,13.05284 l 37.87581,0.0875 c 0,0 32.40115,1.48924 51.488,-14.19171 2.32766,-2.10247 1.95523,-6.1322 -3.25873,-4.64295 -14.43153,9.46111 -31.56315,13.05287 -63.49875,13.22806 -31.935599,0.0875 -56.003676,-5.25619 -64.923297,-12.35202 z"
       style="fill:#af7c05;fill-opacity:1;fill-rule:evenodd;stroke-width:0.63373041"
       sodipodi:nodetypes="cccccczc"
       id="path5527" />
    <path
       inkscape:connector-curvature="0"
       d="m 72.96461,227.84051 c -5.046384,-1.22645 -6.647819,2.01486 -3.565988,3.85453 12.150418,8.58509 39.914828,10.16194 39.914828,10.16194 l 32.52218,0.0875 c 0,0 27.83888,1.13884 44.22567,-11.12559 2.04832,-1.66444 1.76902,-4.73055 -2.79322,-3.5917 -12.38316,7.35864 -27.09403,10.16195 -54.56051,10.24954 -27.4106,0.1752 -48.080284,-4.02973 -55.74296,-9.63632 z"
       style="fill:#af7c05;fill-opacity:1;fill-rule:evenodd;stroke-width:0.63373041"
       sodipodi:nodetypes="cccccczc"
       id="path5529" />
    <path
       inkscape:connector-curvature="0"
       d="m 77.5827,207.60419 c -4.61809,-1.13885 -6.079866,1.92727 -3.258734,3.67933 11.116937,8.23469 36.535044,9.81153 36.535044,9.81153 h 29.76624 c 0,0 25.51121,1.13886 40.50141,-10.68756 1.86213,-1.57686 1.5828,-4.55537 -2.60698,-3.41652 -11.26594,7.09585 -24.76642,9.81153 -49.9052,9.89914 -25.09228,0.0875 -44.020847,-3.94214 -51.03178,-9.28592 z"
       style="fill:#af7c05;fill-opacity:1;fill-rule:evenodd;stroke-width:0.63373041"
       sodipodi:nodetypes="cccccczc"
       id="path5531" />
    <path
       inkscape:connector-curvature="0"
       d="m 84.100169,190.52161 c -4.040831,-0.96365 -5.307082,1.66445 -2.849067,3.15371 9.701714,7.09584 31.889018,8.40988 31.889018,8.40988 h 25.99542 c 0,0 22.25248,0.96363 35.28743,-9.11072 1.67592,-1.40163 1.39658,-3.94214 -2.23456,-2.9785 -9.8693,6.04461 -21.60076,8.4099 -43.48084,8.49749 -21.97315,0.0875 -38.490289,-3.41652 -44.607401,-7.97186 z"
       style="fill:#af7c05;fill-opacity:1;fill-rule:evenodd;stroke-width:0.63373041"
       sodipodi:nodetypes="cccccczc"
       id="path5533" />
    <path
       inkscape:connector-curvature="0"
       d="m 89.062752,175.62908 c -3.631158,-0.96361 -4.785681,1.48926 -2.56043,2.80329 8.733402,6.39504 28.714118,7.53388 28.714118,7.53388 l 23.45355,0.0875 c 0,0 20.01795,0.87602 31.74938,-8.23469 1.48971,-1.22645 1.3035,-3.59174 -1.95523,-2.7157 -8.93825,5.51898 -19.4593,7.62146 -39.29103,7.62146 -19.72,0.0875 -34.598443,-2.9785 -40.110358,-7.09585 z"
       style="fill:#af7c05;fill-opacity:1;fill-rule:evenodd;stroke-width:0.63373041"
       sodipodi:nodetypes="cccccczc"
       id="path5535" />
    <path
       inkscape:connector-curvature="0"
       d="m 94.546737,166.16796 c -3.128387,-0.61323 -3.482189,1.05123 -1.573504,2.01488 7.523027,4.55535 24.710517,4.73054 24.710517,4.73054 l 20.14828,0.0875 c 0,0 17.22474,0.52561 27.37339,-5.8694 1.30348,-0.87604 1.02416,-2.4529 -1.76903,-1.83967 -7.63476,3.85452 -16.75921,5.3438 -33.70465,5.3438 -17.01058,0.0875 -30.445872,-1.57687 -35.185003,-4.46777 z"
       style="fill:#af7c05;fill-opacity:1;fill-rule:evenodd;stroke-width:0.63373041"
       sodipodi:nodetypes="cccccczc"
       id="path5537" />
    <path
       inkscape:connector-curvature="0"
       d="m 98.261695,158.54649 c -2.746651,-0.52561 -3.0539,0.87603 -1.377982,1.66445 6.582627,3.59174 21.647297,3.85454 21.647297,3.85454 h 17.7182 c 0,0 15.08328,0.43803 23.92843,-4.73056 1.11727,-0.70082 0.93106,-2.01486 -1.4897,-1.57687 -6.70371,3.15371 -14.71087,4.38017 -29.60794,4.38017 -14.89708,0.0875 -26.66577,-1.22646 -30.818305,-3.59173 z"
       style="fill:#af7c05;fill-opacity:1;fill-rule:evenodd;stroke-width:0.63373041"
       sodipodi:nodetypes="cccccczc"
       id="path5539" />
    <path
       inkscape:connector-curvature="0"
       d="m 112.29287,156.09361 c -1.32211,0.1752 -1.16384,0.70082 -0.33519,1.05123 3.20287,1.13884 10.51174,1.40165 10.51174,1.40165 h 8.84515 c 0,0 7.26232,0.70083 11.63832,-1.83967 0.55864,-0.3504 0.18623,-0.70082 -0.46553,-0.96364 -4.28291,-0.3504 -7.07612,-1.66446 -14.52465,-1.66446 -7.44852,0.0875 -13.64944,2.01489 -15.66984,2.01489 z"
       style="fill:#af7c05;fill-opacity:1;fill-rule:evenodd;stroke-width:0.63373041"
       sodipodi:nodetypes="cccccczc"
       id="path5541" />
  </g>
  <metadata
     id="metadata25">
    <rdf:RDF>
      <cc:Work>
        <dc:format>image/svg+xml</dc:format>
        <dc:type
           rdf:resource="http://purl.org/dc/dcmitype/StillImage" />
        <cc:license
           rdf:resource="http://creativecommons.org/publicdomain/zero/1.0/" />
        <dc:publisher>
          <cc:Agent
             rdf:about="http://openclipart.org/">
            <dc:title>Openclipart</dc:title>
          </cc:Agent>
        </dc:publisher>
        <dc:title></dc:title>
        <dc:date>2007-04-10T15:46:42</dc:date>
        <dc:description>A simple apiary of the old classical design.</dc:description>
        <dc:source>https://openclipart.org/detail/3866/apiary-by-doctormo</dc:source>
        <dc:creator>
          <cc:Agent>
            <dc:title>doctormo</dc:title>
          </cc:Agent>
        </dc:creator>
        <dc:subject>
          <rdf:Bag>
            <rdf:li>apiary</rdf:li>
            <rdf:li>bee</rdf:li>
            <rdf:li>beehive</rdf:li>
            <rdf:li>comb</rdf:li>
            <rdf:li>hive</rdf:li>
            <rdf:li>honey</rdf:li>
            <rdf:li>remix problem</rdf:li>
          </rdf:Bag>
        </dc:subject>
      </cc:Work>
      <cc:License
         rdf:about="http://creativecommons.org/publicdomain/zero/1.0/">
        <cc:permits
           rdf:resource="http://creativecommons.org/ns#Reproduction" />
        <cc:permits
           rdf:resource="http://creativecommons.org/ns#Distribution" />
        <cc:permits
           rdf:resource="http://creativecommons.org/ns#DerivativeWorks" />
      </cc:License>
    </rdf:RDF>
  </metadata>
</svg>
