<?xml version="1.0" encoding="UTF-8" standalone="no"?>
<!-- Created with Inkscape (http://www.inkscape.org/) -->

<svg
   xmlns:dc="http://purl.org/dc/elements/1.1/"
   xmlns:cc="http://creativecommons.org/ns#"
   xmlns:rdf="http://www.w3.org/1999/02/22-rdf-syntax-ns#"
   xmlns:svg="http://www.w3.org/2000/svg"
   xmlns="http://www.w3.org/2000/svg"
   xmlns:sodipodi="http://sodipodi.sourceforge.net/DTD/sodipodi-0.dtd"
   xmlns:inkscape="http://www.inkscape.org/namespaces/inkscape"
   width="16"
   height="14"
   viewBox="0 0 16 14"
   id="svg2"
   version="1.1"
   inkscape:version="0.92.3 (2405546, 2018-03-11)"
   sodipodi:docname="blacksmith4.svg">
  <defs
     id="defs4" />
  <sodipodi:namedview
     id="base"
     pagecolor="#ffffff"
     bordercolor="#666666"
     borderopacity="1.0"
     inkscape:pageopacity="0.0"
     inkscape:pageshadow="2"
     inkscape:zoom="19.219208"
     inkscape:cx="5.4131311"
     inkscape:cy="10.675792"
     inkscape:document-units="px"
     inkscape:current-layer="layer1"
     showgrid="false"
     units="px"
     inkscape:window-width="1680"
     inkscape:window-height="987"
     inkscape:window-x="-8"
     inkscape:window-y="-8"
     inkscape:window-maximized="1"
     viewbox-height="16">
    <inkscape:grid
       type="xygrid"
       id="grid4136"
       originx="0"
       originy="0"
       spacingx="1"
       spacingy="1" />
  </sodipodi:namedview>
  <metadata
     id="metadata7">
    <rdf:RDF>
      <cc:Work
         rdf:about="">
        <dc:format>image/svg+xml</dc:format>
        <dc:type
           rdf:resource="http://purl.org/dc/dcmitype/StillImage" />
        <dc:title></dc:title>
        <cc:license
           rdf:resource="http://creativecommons.org/publicdomain/zero/1.0/" />
      </cc:Work>
      <cc:License
         rdf:about="http://creativecommons.org/publicdomain/zero/1.0/">
        <cc:permits
           rdf:resource="http://creativecommons.org/ns#Reproduction" />
        <cc:permits
           rdf:resource="http://creativecommons.org/ns#Distribution" />
        <cc:permits
           rdf:resource="http://creativecommons.org/ns#DerivativeWorks" />
      </cc:License>
    </rdf:RDF>
  </metadata>
  <g
     inkscape:label="Layer 1"
     inkscape:groupmode="layer"
     id="layer1"
     transform="translate(0,-1039.3622)">
    <path
       inkscape:connector-curvature="0"
       id="path64"
       style="fill:#312e31;fill-opacity:1;fill-rule:evenodd;stroke:none;stroke-width:0.00405175"
       d="M 4.6304099,1048.2513 H 0 l 0.052925,0.2986 0.1234649,0.1073 c 1.0940142,0.9496 2.6886292,1.3205 4.1830857,0.9727 l 0.2709344,-1.3786" />
    <path
       inkscape:connector-curvature="0"
       id="path66"
       style="fill:#616068;fill-opacity:1;fill-rule:evenodd;stroke:none;stroke-width:0.0042947"
       d="m 3.2577618,1047.5208 h 7.7615392 l -0.07056,0.4298 c -0.223718,1.3624 -1.1864536,2.4288 -2.4166975,2.6766 -0.9333541,0.1879 -1.1910254,1.4139 -0.4490268,2.111 h 1.0311337 v 0.624 H 3.7516831 l 0.00222,-0.624 h 0.9502945 l 0.1940899,-0.4896 c 0.2078019,-0.5243 0.1777662,-1.1268 -0.08068,-1.6225 -0.2584873,-0.4959 -0.7145336,-0.8257 -1.2284233,-0.8886 l -0.331418,-2.2167" />
    <path
       inkscape:connector-curvature="0"
       id="path68"
       style="fill:#807d87;fill-opacity:1;fill-rule:evenodd;stroke:none;stroke-width:0.0042947"
       d="m 3.7516831,1053.3622 h 5.3624673 v -0.624 H 3.7516831 v 0.624" />
    <path
       inkscape:connector-curvature="0"
       id="path70"
       style="fill:#807d87;fill-opacity:1;fill-rule:evenodd;stroke:none;stroke-width:0.0042947"
       d="m 3.1662587,1047.7529 h 8.0702303 v -0.3907 H 3.1662587 v 0.3907" />
    <path
       inkscape:connector-curvature="0"
       id="path72"
       style="fill:#3f3b3f;fill-opacity:1;fill-rule:evenodd;stroke:none;stroke-width:0.00408095"
       d="m 7.9690764,1043.2109 1.471346,-2.6877 0.8511226,0.4659 -1.4714276,2.6878 -0.851041,-0.466" />
    <path
       inkscape:connector-curvature="0"
       id="path74"
       style="fill:#3f3b3f;fill-opacity:1;fill-rule:evenodd;stroke:none;stroke-width:0.00408095"
       d="m 9.4404224,1040.5232 0.08435,-0.154 c 0.312928,-0.5717 0.9070726,-0.933 1.5586376,-0.9478 0.104023,0 0.19662,0.066 0.22588,0.1653 0.02922,0.1 -0.01228,0.2069 -0.101167,0.261 -0.288972,0.1757 -0.526483,0.4242 -0.688864,0.7209 l -0.227717,0.4205 -0.6425046,0.029 -0.208618,-0.4952" />
    <path
       inkscape:connector-curvature="0"
       id="path76"
       style="fill:#3f3b3f;fill-opacity:1;fill-rule:evenodd;stroke:none;stroke-width:0.00408095"
       d="m 9.4676014,1042.4116 0.373162,-0.6817 1.0898996,0.5967 -0.373203,0.6817 -1.0898586,-0.5967" />
    <path
       inkscape:connector-curvature="0"
       id="path78"
       style="fill:#882e1b;fill-opacity:1;fill-rule:evenodd;stroke:none;stroke-width:0.00408095"
       d="m 10.115778,1043.0007 0.570477,-1.0421 4.915301,2.6908 -0.570558,1.0421 -4.91522,-2.6908" />
    <path
       inkscape:connector-curvature="0"
       id="path80"
       style="fill:#bc4c1f;fill-opacity:1;fill-rule:evenodd;stroke:none;stroke-width:0.00408095"
       d="m 14.24215,1045.4007 0.689313,-1.2592 0.937885,0.5134 c 0.419685,0.2298 -0.269588,1.489 -0.689314,1.2592 l -0.937884,-0.5134" />
    <path
       inkscape:connector-curvature="0"
       id="path82"
       style="fill:#5c5b63;fill-opacity:1;fill-rule:evenodd;stroke:none;stroke-width:0.00408095"
       d="m 8.2118929,1042.3139 0.8698955,-1.5892 1.2332216,0.6751 -0.8700576,1.5892 -1.2330595,-0.6751" />
    <path
       inkscape:connector-curvature="0"
       id="path84"
       style="fill:#78747e;fill-opacity:1;fill-rule:evenodd;stroke:none;stroke-width:0.00408095"
       d="m 7.3571379,1043.6689 0.4777976,-0.8727 1.4068259,0.7702 -0.477757,0.8727 -1.4068665,-0.7702" />
  </g>
</svg>
