<?xml version="1.0" encoding="UTF-8" standalone="no"?>
<!-- Generator: Adobe Illustrator 14.0.0, SVG Export Plug-In . SVG Version: 6.00 Build 43363)  -->

<svg
   xmlns:dc="http://purl.org/dc/elements/1.1/"
   xmlns:cc="http://creativecommons.org/ns#"
   xmlns:rdf="http://www.w3.org/1999/02/22-rdf-syntax-ns#"
   xmlns:svg="http://www.w3.org/2000/svg"
   xmlns="http://www.w3.org/2000/svg"
   xmlns:sodipodi="http://sodipodi.sourceforge.net/DTD/sodipodi-0.dtd"
   xmlns:inkscape="http://www.inkscape.org/namespaces/inkscape"
   version="1.0"
   id="Layer_1"
   x="0px"
   y="0px"
   width="160"
   height="130"
   viewBox="0 0 160 130"
   enable-background="new 0 0 100 83.101"
   xml:space="preserve"
   inkscape:version="0.92.3 (2405546, 2018-03-11)"
   sodipodi:docname="dive_centre.svg"><metadata
     id="metadata17"><rdf:RDF><cc:Work
         rdf:about=""><dc:format>image/svg+xml</dc:format><dc:type
           rdf:resource="http://purl.org/dc/dcmitype/StillImage" /><dc:title /></cc:Work></rdf:RDF></metadata><defs
     id="defs15" /><sodipodi:namedview
     pagecolor="#ffffff"
     bordercolor="#666666"
     borderopacity="1"
     objecttolerance="10"
     gridtolerance="10"
     guidetolerance="10"
     inkscape:pageopacity="0"
     inkscape:pageshadow="2"
     inkscape:window-width="1680"
     inkscape:window-height="987"
     id="namedview13"
     showgrid="true"
     inkscape:zoom="3.5539056"
     inkscape:cx="61.808655"
     inkscape:cy="81.931349"
     inkscape:window-x="-8"
     inkscape:window-y="-8"
     inkscape:window-maximized="1"
     inkscape:current-layer="Layer_1"><inkscape:grid
       type="xygrid"
       id="grid2994" /></sodipodi:namedview><polygon
     points="16.444,0.05 0,0 15.868,16.397 21.961,10.867 "
     id="polygon3"
     transform="matrix(1.6,0,0,1.5643615,1e-6,-1.9248047e-6)"
     style="fill:#00ff00;fill-opacity:1" /><path
     d="m 106.93105,69.738596 c 4.8,1.304678 9.9568,-1.379767 11.3264,-6.198 1.3152,-4.743144 -1.4864,-9.727199 -6.3216,-11.069421 l -3.7664,-1.035607 -4.8736,17.237698 z"
     id="path5"
     inkscape:connector-curvature="0"
     style="stroke-width:1.58208036;fill:#00ff00;fill-opacity:1" /><path
     d="M 108.76473,51.714504 78.372725,43.24818 c -1.9984,-0.514675 -4.0048,0.671111 -4.5552,2.646899 l -2.856,10.0432 c -0.5616,1.97266 0.5264,3.996944 2.5744,4.589837 l 30.393595,8.375591 z"
     id="path7"
     inkscape:connector-curvature="0"
     style="stroke-width:1.58208036;fill:#00ff00;fill-opacity:1" /><path
     d="m 116.2992,80.991684 c -2.3168,-2.179156 -5.1984,-3.90934 -8.56,-4.822927 L 70.8944,65.976942 v 0 L 48.256001,26.284399 c -1.192,-2.050877 -3.1104,-3.682506 -5.5936,-4.353617 -4.9648,-1.379767 -10.1232,1.503351 -11.4784,6.410753 -0.6768,2.329334 -0.3568,4.707163 0.7168,6.718932 l 28.3216,49.089662 c 0,0 2.3168,3.680941 8.152,5.573819 l 51.484799,14.266982 23.8752,23.9582 c 0.7936,0.81972 1.832,1.45485 3.072,1.80683 3.5952,0.98555 7.3584,-1.13885 8.4096,-4.65397 0.68,-2.4936 -0.1296,-5.11078 -1.9216,-6.72989 z"
     id="path9"
     inkscape:connector-curvature="0"
     style="stroke-width:1.58208036;fill:#00ff00;fill-opacity:1" /><path
     d="m 143.7712,84.647596 5.352,6.91917 L 160,79.829363 150.8144,74.771782 c 0.8656,-6.362258 -3.1232,-12.522714 -9.5216,-14.30765 -7.0384,-1.933551 -14.3568,2.099373 -16.3136,9.057653 -1.9984,6.994261 2.1216,14.190323 9.1648,16.127002 3.344,0.946439 6.7504,0.430199 9.6272,-1.001191 z"
     id="path11"
     inkscape:connector-curvature="0"
     style="stroke-width:1.58208036;fill:#00ff00;fill-opacity:1" /></svg>