<?xml version="1.0" encoding="UTF-8" standalone="no"?>
<!-- Created with Inkscape (http://www.inkscape.org/) -->

<svg
   xmlns:dc="http://purl.org/dc/elements/1.1/"
   xmlns:cc="http://creativecommons.org/ns#"
   xmlns:rdf="http://www.w3.org/1999/02/22-rdf-syntax-ns#"
   xmlns:svg="http://www.w3.org/2000/svg"
   xmlns="http://www.w3.org/2000/svg"
   xmlns:sodipodi="http://sodipodi.sourceforge.net/DTD/sodipodi-0.dtd"
   xmlns:inkscape="http://www.inkscape.org/namespaces/inkscape"
   version="1.1"
   width="14"
   height="13"
   viewBox="0 0 14 13"
   id="svg2"
   sodipodi:docname="Playground-16cc.svg"
   inkscape:version="0.92.3 (2405546, 2018-03-11)">
  <metadata
     id="metadata9">
    <rdf:RDF>
      <cc:Work
         rdf:about="">
        <dc:format>image/svg+xml</dc:format>
        <dc:type
           rdf:resource="http://purl.org/dc/dcmitype/StillImage" />
        <dc:title></dc:title>
      </cc:Work>
    </rdf:RDF>
  </metadata>
  <defs
     id="defs7" />
  <sodipodi:namedview
     pagecolor="#ffffff"
     bordercolor="#666666"
     borderopacity="1"
     objecttolerance="10"
     gridtolerance="10"
     guidetolerance="10"
     inkscape:pageopacity="0"
     inkscape:pageshadow="2"
     inkscape:window-width="1680"
     inkscape:window-height="987"
     id="namedview5"
     showgrid="true"
     inkscape:zoom="31.098545"
     inkscape:cx="11.582868"
     inkscape:cy="8.5262661"
     inkscape:window-x="-8"
     inkscape:window-y="-8"
     inkscape:window-maximized="1"
     inkscape:current-layer="svg2">
    <inkscape:grid
       type="xygrid"
       id="grid821" />
  </sodipodi:namedview>
  <rect
     width="14"
     height="14"
     x="0"
     y="-1"
     id="canvas"
     style="visibility:hidden;fill:none;stroke:none" />
  <path
     style="fill:#ff6600;stroke-width:1.33332765;fill-opacity:1"
     d="M 3.40625,0 C 2.65262,0.047193 1.998524,0.7448953 2,1.5 2.000287,2.2852156 2.714784,2.9994517 3.5,2.9994517 4.285216,2.9994517 4.999713,2.2852156 5,1.5 5.0016,0.6823545 4.222298,-0.0511045 3.40625,0 Z m 8,3 C 10.65262,3.0471927 9.998524,3.7448953 10,4.5 c 2.87e-4,0.7852156 0.714784,1.4994517 1.5,1.4994517 0.785216,0 1.499713,-0.7142361 1.5,-1.4994517 C 13.001599,3.6823545 12.222298,2.9488956 11.40625,3 Z M 3,3.5 C 1.52901,3.5 1.134165,5.3734067 1.03125,6.375 L 0,6 v 1.4501818 l 5.96875,2.125 L 5,13 H 9 L 8.0625,10.325182 14,12.450182 V 11 L 13.0625,10.65625 C 13.226562,9.794922 13.75,6.5 12,6.5 c -1.638462,0 -1.915209,2.244501 -1.96875,3.09375 l -5.9375,-2.125 C 4.285012,6.337531 4.614,3.5 3,3.5 Z"
     id="playground"
     inkscape:connector-curvature="0"
     sodipodi:nodetypes="ccsccccsccsccccccccccsccs" />
</svg>
