<?xml version="1.0" encoding="UTF-8" standalone="no"?>
<svg
   id="svg2"
   viewBox="0 0 16 16"
   height="16"
   width="16"
   version="1.1"
   sodipodi:docname="water_park2.svg"
   inkscape:version="1.1 (c68e22c387, 2021-05-23)"
   xmlns:inkscape="http://www.inkscape.org/namespaces/inkscape"
   xmlns:sodipodi="http://sodipodi.sourceforge.net/DTD/sodipodi-0.dtd"
   xmlns="http://www.w3.org/2000/svg"
   xmlns:svg="http://www.w3.org/2000/svg"
   xmlns:rdf="http://www.w3.org/1999/02/22-rdf-syntax-ns#"
   xmlns:cc="http://creativecommons.org/ns#"
   xmlns:dc="http://purl.org/dc/elements/1.1/">
  <sodipodi:namedview
     id="namedview7"
     pagecolor="#ffffff"
     bordercolor="#999999"
     borderopacity="1"
     inkscape:pageshadow="0"
     inkscape:pageopacity="0"
     inkscape:pagecheckerboard="0"
     showgrid="true"
     inkscape:zoom="26.892857"
     inkscape:cx="2.9933599"
     inkscape:cy="5.4475432"
     inkscape:window-width="1680"
     inkscape:window-height="987"
     inkscape:window-x="-8"
     inkscape:window-y="-8"
     inkscape:window-maximized="1"
     inkscape:current-layer="svg2">
    <inkscape:grid
       type="xygrid"
       id="grid824" />
  </sodipodi:namedview>
  <metadata
     id="metadata8">
    <rdf:RDF>
      <cc:Work
         rdf:about="">
        <dc:format>image/svg+xml</dc:format>
        <dc:type
           rdf:resource="http://purl.org/dc/dcmitype/StillImage" />
      </cc:Work>
    </rdf:RDF>
  </metadata>
  <defs
     id="defs6" />
  <rect
     style="visibility:hidden;fill:none;stroke:none"
     id="canvas"
     y="1"
     x="1"
     height="14"
     width="14" />
  <path
     style="fill:#0e8517;stroke-width:1.33333"
     id="swimming"
     d="m 9.7083337,1.5417802 c -0.1252548,0.00996 -0.2461931,0.050632 -0.375,0.124999 L 5.2916666,3.8334275 C 4.77896,4.0760921 4.5785334,4.8362857 4.9166666,5.2917486 L 6,7.0000675 1.3333334,9.6667117 1.375,10.500038 c 0,0 0.6238766,-0.499996 1.2916666,-0.499996 0.6317149,0 1.8976382,0.999992 2.6666668,0.999992 0.6711521,0 1.9949321,-0.999992 2.6666666,-0.999992 0.6991169,0 1.9675497,0.999992 2.666666,0.999992 H 11.125 L 7.3333334,5.0000843 10.125,3.5417633 C 10.722322,3.1969018 10.915373,2.5975422 10.666666,2.166775 10.437251,1.7694195 10.084096,1.5118961 9.7083337,1.5417802 Z M 12,5.0000843 c -1.104574,0 -2,0.8954591 -2,1.9999832 0,1.104524 0.895426,1.9999831 2,1.9999831 1.104574,0 2,-0.8954591 2,-1.9999831 C 14,5.8955434 13.104574,5.0000843 12,5.0000843 Z M 2.6666666,12.000025 c -0.4285893,0 -1.0623391,0.362481 -1.6465901,0.650968 L 1.0038613,14.67779 C 1.6169029,14.385497 2.2737936,14.000008 2.6666666,14.000008 3.3389826,14.000008 4.6214694,15 5.3333334,15 5.967336,15 7.3230466,14.000008 8,14.000008 8.672316,14.000008 10.028974,15 10.666666,15 c 0.672317,0 2.0339,-0.999992 2.666668,-0.999992 0.396039,0 1.077576,0.391727 1.696931,0.68483 l 0.04637,-2.023556 c -0.602924,-0.299517 -1.304223,-0.685649 -1.743298,-0.661257 -0.637694,0 -1.953704,0.999992 -2.666668,0.999992 -0.593219,0 -1.99435,-0.999992 -2.666666,-0.999992 -0.672316,0 -2.0721294,0.999992 -2.6666666,0.999992 -0.6340028,0 -1.9548028,-0.999992 -2.6666668,-0.999992 z" />
</svg>
