<?xml version="1.0" encoding="UTF-8" standalone="no"?>
<svg
   xmlns:dc="http://purl.org/dc/elements/1.1/"
   xmlns:cc="http://creativecommons.org/ns#"
   xmlns:rdf="http://www.w3.org/1999/02/22-rdf-syntax-ns#"
   xmlns:svg="http://www.w3.org/2000/svg"
   xmlns="http://www.w3.org/2000/svg"
   xmlns:sodipodi="http://sodipodi.sourceforge.net/DTD/sodipodi-0.dtd"
   xmlns:inkscape="http://www.inkscape.org/namespaces/inkscape"
   height="12.74338"
   width="16"
   id="svg2"
   sodipodi:version="0.32"
   inkscape:version="0.91 r13725"
   sodipodi:docname="zoo6.svg"
   inkscape:output_extension="org.inkscape.output.svg.inkscape"
   version="1.1">
  <defs
     id="defs9" />
  <sodipodi:namedview
     inkscape:window-height="988"
     inkscape:window-width="1680"
     inkscape:pageshadow="2"
     inkscape:pageopacity="0.0"
     guidetolerance="10.0"
     gridtolerance="10.0"
     objecttolerance="10.0"
     borderopacity="1.0"
     bordercolor="#666666"
     pagecolor="#ffffff"
     id="base"
     inkscape:zoom="24.870368"
     inkscape:cx="-1.5853201"
     inkscape:cy="6.3520616"
     inkscape:window-x="-8"
     inkscape:window-y="-8"
     inkscape:current-layer="svg2"
     showgrid="false"
     inkscape:window-maximized="1"
     fit-margin-top="0"
     fit-margin-left="0"
     fit-margin-right="0"
     fit-margin-bottom="0" />
  <metadata
     id="metadata4">
    <rdf:RDF>
      <cc:Work
         rdf:about="">
        <dc:title></dc:title>
        <dc:description />
        <dc:subject>
          <rdf:Bag>
            <rdf:li>mammal</rdf:li>
            <rdf:li />
            <rdf:li>animal</rdf:li>
          </rdf:Bag>
        </dc:subject>
        <dc:publisher>
          <cc:Agent
             rdf:about="http://www.openclipart.org">
            <dc:title>Nicu Buculei</dc:title>
          </cc:Agent>
        </dc:publisher>
        <dc:creator>
          <cc:Agent>
            <dc:title>Nicu Buculei</dc:title>
          </cc:Agent>
        </dc:creator>
        <dc:rights>
          <cc:Agent>
            <dc:title>Nicu Buculei</dc:title>
          </cc:Agent>
        </dc:rights>
        <dc:date />
        <dc:format>image/svg+xml</dc:format>
        <dc:type
           rdf:resource="http://purl.org/dc/dcmitype/StillImage" />
        <cc:license
           rdf:resource="http://web.resource.org/cc/PublicDomain" />
        <dc:language>en</dc:language>
      </cc:Work>
      <cc:License
         rdf:about="http://web.resource.org/cc/PublicDomain">
        <cc:permits
           rdf:resource="http://web.resource.org/cc/Reproduction" />
        <cc:permits
           rdf:resource="http://web.resource.org/cc/Distribution" />
        <cc:permits
           rdf:resource="http://web.resource.org/cc/DerivativeWorks" />
      </cc:License>
    </rdf:RDF>
  </metadata>
  <rect
     style="opacity:1;fill:#ffffff;fill-opacity:1;stroke:#ffffff;stroke-width:0.02866707;stroke-linecap:square;stroke-linejoin:miter;stroke-miterlimit:4;stroke-dasharray:none;stroke-dashoffset:0.60000002;stroke-opacity:1"
     id="rect4133"
     width="15.970996"
     height="12.714715"
     x="0.014333535"
     y="0.014331081" />
  <path
     d="m 2.7610061,9.3704572 c 0.15602,0.0492 0.53925,0.007 0.40791,-0.26899 -0.0729,-0.15361 -0.41577,-0.34697 -0.56723,-0.39284 -0.22821,-0.0692 -0.61166,0.23091 -0.31863,0.42333 l -0.0637,0.20444 c -0.2454,-0.1254 -0.31534,-0.50912 -0.29536,-0.78368 0.014,-0.19309 0.17709,-0.39671 0.24169,-0.57924 0.17645,-0.49865 0.32138,-0.98871 0.45862,-1.4992 0.0549,-0.20406 0.0711,-0.59024 0.23701,-0.72479 0.15544,-0.12611 0.39417,-0.14447 0.56872,-0.23736 0.12866,-0.0684 0.21271,-0.20937 0.35109,-0.25513 0.29713,-0.0983 0.58986,-0.0729 0.73238,-0.4182 0.30092,0.48577 0.55213,0.93843 0.60206,1.53327 0.0355,0.42288 -0.23445,0.85645 -0.32557,1.26069 -0.0637,0.28257 -0.0441,0.57037 -0.11348,0.85182 -0.0866,0.35095 -0.25541,0.67532 -0.33778,1.02217 -0.0497,0.20925 -0.005,0.44732 -0.0662,0.6473618 -0.10933,0.358074 -0.73343,0.572044 -0.65922,1.022044 0.0343,0.20795 0.26102,0.24884 0.42228,0.28413 0.37446,0.0819 0.77756,0.0313 1.14708,-0.0305 0.12306,-0.0206 0.27247,0.005 0.36853,-0.0978 0.23194,-0.24798 -0.0421,-0.71658 0.0331,-1.007392 0.0538,-0.208423 0.23818,-0.3900338 0.33446,-0.5792438 0.20935,-0.41147 0.3866,-0.8449 0.50663,-1.29477 l 0.0319,0 c 0.008,0.39655 0.0971,0.89353 0.23942,1.26069 0.0898,0.23183 0.32112,0.5644628 0.31481,0.8177658 -0.0108,0.43408 -0.6259,0.71801 -0.3309,1.22597 0.29677,0.51098 0.99821,-0.003 1.36983,-0.093 0.20374,-0.0493 0.47693,0.0152 0.57691,-0.24853 0.13804,-0.36404 -0.14214,-0.70913 -0.18914,-1.054792 -0.0538,-0.3955838 0.0157,-0.7935938 -0.0521,-1.1925538 -0.0496,-0.29196 -0.27183,-0.63171 -0.26437,-0.91996 0.005,-0.20283 0.13988,-0.44301 0.1836,-0.64739 l 1.2108,0.60804 0.5098099,0.31193 c 0.002,0.28962 -0.005,0.63566 0.0423,0.91996 0.0227,0.13578 0.14195,0.27296 0.10559,0.41331 -0.0709,0.2734718 -0.6968499,0.5540648 -0.5559699,0.8438158 0.0774,0.15925 0.29116,0.2138 0.4398999,0.25469 0.37669,0.10362 1.36359,0.2592 1.64052,-0.1185 0.12203,-0.16645 0.1119,-0.443391 0.11196,-0.643704 2e-4,-0.5048918 0.05,-1.0398018 -0.0637,-1.5332818 0.41002,0.27037 0.50325,0.8137 0.70877,1.26069 0.0712,0.1548308 0.21951,0.4003638 0.17098,0.5787258 -0.0749,0.27511 -0.84237,0.70467 -0.48725,1.07609 0.0985,0.10298 0.27743,0.11067 0.40409,0.1519 0.36649,0.11925 1.47893,0.31388 1.65217,-0.2058 0.1619,-0.48567 0.12057,-1.343324 0.008,-1.8394158 -0.0663,-0.29197 -0.22034,-0.54524 -0.24727,-0.85182 -0.0248,-0.28209 0.15799,-0.56759 0.17748,-0.85182 0.0271,-0.39569 -0.0873,-0.74316 -0.0986,-1.1244 -0.007,-0.24526 0.0696,-0.4978 0.0696,-0.7496 0.34999,0.99203 -0.0164,2.05939 0.23837,3.06654 0.0371,0.14662 0.0516,0.9780918 0.32621,0.8943508 0.10299,-0.0313 0.13345,-0.2223308 0.11277,-0.3151108 -0.0902,-0.40485 -0.25351,-0.76279 -0.2544,-1.19254 -4.4e-4,-0.21371 0.0909,-0.43396 0.11321,-0.64739 0.13189,-1.26042 0.31609,-3.01326 -0.69561,-3.93748 -0.45112,-0.41211 -0.93977,-0.71311 -1.43371,-1.05433 -0.38654,-0.26702 -0.78213,-0.57875 -1.24267,-0.68503 -0.33782,-0.0779 -0.70814,0.0372 -1.0515,0.0195 -0.7486599,-0.0389 -1.4840199,-0.19045 -2.2304299,-0.26544 -0.33966,-0.0341 -0.6761,0.0359 -1.01962,-0.0331 -0.73812,-0.14844 -1.28403,-0.74489 -2.00739,-0.93997 -0.22913,-0.0617999 -0.62621,-0.0194999 -0.86031,0.0245 -0.22107,0.0415 -0.33813,0.20712 -0.51029,0.3382 -0.49995,0.3807 -1.15559,0.99116 -1.43241,1.59273 -0.16993,0.36927 -0.18816,0.86278 -0.29717,1.26071 -0.1589,0.58002 -0.46077,1.06259 -0.55011,1.66957 -0.0936,0.63569 0.0498,1.30345 0.0497,1.94214 -3e-5,0.48015 -0.25121,1.0675 -0.0913,1.53327 0.22348,0.6511008 1.40982,0.8662328 1.49332,0 z"
     style="fill:#000000;stroke:none"
     id="path6"
     inkscape:connector-curvature="0" />
</svg>
