<?xml version="1.0" encoding="UTF-8" standalone="no"?>
<!-- Created with Inkscape (http://www.inkscape.org/) -->
<svg
   xmlns:dc="http://purl.org/dc/elements/1.1/"
   xmlns:cc="http://web.resource.org/cc/"
   xmlns:rdf="http://www.w3.org/1999/02/22-rdf-syntax-ns#"
   xmlns:svg="http://www.w3.org/2000/svg"
   xmlns="http://www.w3.org/2000/svg"
   xmlns:sodipodi="http://sodipodi.sourceforge.net/DTD/sodipodi-0.dtd"
   xmlns:inkscape="http://www.inkscape.org/namespaces/inkscape"
   version="1.0"
   width="480"
   height="480"
   id="svg2"
   sodipodi:version="0.32"
   inkscape:version="0.45.1"
   sodipodi:docname="garage.svg"
   inkscape:output_extension="org.inkscape.output.svg.inkscape"
   sodipodi:docbase="C:\Dokumente und Einstellungen\ulfl\Eigene Dateien\svn.openstreetmap.org\applications\share\map-icons\svg\vehicle\parking">
  <metadata
     id="metadata8">
    <rdf:RDF>
      <cc:Work
         rdf:about="">
        <dc:format>image/svg+xml</dc:format>
        <dc:type
           rdf:resource="http://purl.org/dc/dcmitype/StillImage" />
        <cc:license
           rdf:resource="http://web.resource.org/cc/PublicDomain" />
      </cc:Work>
      <cc:License
         rdf:about="http://web.resource.org/cc/PublicDomain">
        <cc:permits
           rdf:resource="http://web.resource.org/cc/Reproduction" />
        <cc:permits
           rdf:resource="http://web.resource.org/cc/Distribution" />
        <cc:permits
           rdf:resource="http://web.resource.org/cc/DerivativeWorks" />
      </cc:License>
    </rdf:RDF>
  </metadata>
  <sodipodi:namedview
     inkscape:window-height="573"
     inkscape:window-width="797"
     inkscape:pageshadow="2"
     inkscape:pageopacity="0.0"
     guidetolerance="10.0"
     gridtolerance="10.0"
     objecttolerance="10.0"
     borderopacity="1.0"
     bordercolor="#666666"
     pagecolor="#ffffff"
     id="base"
     inkscape:zoom="0.39270833"
     inkscape:cx="58.606682"
     inkscape:cy="308.45936"
     inkscape:window-x="154"
     inkscape:window-y="203"
     inkscape:current-layer="svg2" />
  <defs
     id="defs4" />
  <path
     d="M 30.856274,5.7720243 L 450.86109,5.7720243 C 461.67691,6.5627045 473.93298,17.615789 474.52755,30.636789 L 474.52755,449.4433 C 474.57722,459.76184 462.73404,473.63554 449.36321,474.30807 L 29.957547,474.30807 C 20.433732,473.72489 5.5262338,458.92955 5.0927831,449.14373 L 5.691934,30.936364 C 4.6103723,24.633922 19.978002,5.6381226 30.856274,5.7720243 z "
     style="fill:white;fill-opacity:1;fill-rule:evenodd;stroke:black;stroke-width:2;stroke-linecap:butt;stroke-linejoin:miter;stroke-miterlimit:4;stroke-dasharray:none;stroke-opacity:1"
     id="path3669" />
  <path
     d="M 34.91962,16.78125 C 23.159007,16.266334 16.446451,24.30046 16.88837,37.15625 L 16.88837,443.5625 C 16.934923,452.2297 20.616541,462.63293 32.57587,462.84375 L 447.01337,462.8125 C 458.9727,462.6017 462.68557,452.19845 462.73212,443.53125 L 462.73212,37.09375 C 463.17403,24.237959 456.46149,16.20383 444.70087,16.71875 L 34.91962,16.78125 z "
     style="fill:#003399;fill-opacity:1;fill-rule:evenodd;stroke:none;stroke-width:1px;stroke-linecap:butt;stroke-linejoin:miter;stroke-opacity:0.94117647"
     id="path3661" />
  <path
     d="M 199.58664,207.89278 L 199.58664,290.7332 L 257.39868,290.7332 C 271.85155,290.73333 282.63254,286.38568 289.7417,277.69023 C 296.85053,268.99509 300.40503,259.53601 300.40519,249.31299 C 300.40503,233.80263 294.82359,222.40474 283.66086,215.11928 C 276.49296,210.30183 267.2689,207.89299 255.98863,207.89278 L 199.58664,207.89278 z M 160.63402,427.86052 L 160.63402,171.05523 L 253.87356,171.05523 C 263.86128,171.05548 273.46724,172.11302 282.69145,174.22784 C 291.91537,176.34316 301.52132,181.27833 311.50933,189.03336 C 319.26443,195.02631 325.84465,203.28097 331.25003,213.79736 C 336.65502,224.31418 339.35761,236.50522 339.35782,250.37052 C 339.35761,268.70133 332.513,286.15067 318.82397,302.71862 C 305.13457,319.28681 285.12951,327.57084 258.80873,327.57074 L 199.58664,327.57074 L 199.58664,427.86052 L 160.63402,427.86052 z "
     style="font-size:458.69091797px;font-style:normal;font-variant:normal;font-weight:normal;font-stretch:normal;text-align:center;line-height:100%;writing-mode:lr-tb;text-anchor:middle;fill:#ffffff;fill-opacity:1;stroke:none;stroke-width:1px;stroke-linecap:butt;stroke-linejoin:miter;stroke-opacity:1;font-family:DIN 1451 Mittelschrift"
     id="text5426" />
  <path
     style="fill:none;fill-rule:evenodd;stroke:#ffffff;stroke-width:30;stroke-linecap:butt;stroke-linejoin:miter;stroke-opacity:1;stroke-miterlimit:4;stroke-dasharray:none"
     d="M 104.40318,146.4191 L 247.00265,64.933687 L 376.87003,141.32626"
     id="path3129" />
</svg>
