<?xml version="1.0" encoding="UTF-8" standalone="no"?>
<!-- Created with Inkscape (http://www.inkscape.org/) -->

<svg
   xmlns:dc="http://purl.org/dc/elements/1.1/"
   xmlns:cc="http://creativecommons.org/ns#"
   xmlns:rdf="http://www.w3.org/1999/02/22-rdf-syntax-ns#"
   xmlns:svg="http://www.w3.org/2000/svg"
   xmlns="http://www.w3.org/2000/svg"
   xmlns:sodipodi="http://sodipodi.sourceforge.net/DTD/sodipodi-0.dtd"
   xmlns:inkscape="http://www.inkscape.org/namespaces/inkscape"
   id="svg3361"
   sodipodi:docname="Community-circle11.svg"
   viewBox="0 0 16 16"
   version="1.1"
   inkscape:version="0.91 r13725"
   width="16"
   height="16">
  <defs
     id="defs25" />
  <sodipodi:namedview
     id="base"
     bordercolor="#666666"
     inkscape:pageshadow="2"
     inkscape:window-y="-8"
     pagecolor="#ffffff"
     inkscape:window-height="988"
     inkscape:window-maximized="1"
     inkscape:zoom="69.12"
     inkscape:window-x="-8"
     showgrid="true"
     borderopacity="1.0"
     inkscape:current-layer="g3568"
     inkscape:cx="6.8373839"
     inkscape:cy="10.619744"
     inkscape:window-width="1680"
     inkscape:pageopacity="0.0"
     inkscape:document-units="px">
    <inkscape:grid
       type="xygrid"
       id="grid4181" />
  </sodipodi:namedview>
  <g
     id="layer1"
     inkscape:label="Layer 1"
     inkscape:groupmode="layer"
     transform="translate(137.98,-958.53)">
    <g
       id="g3568"
       transform="translate(-24.511,166.98)">
      <ellipse
         id="path3627"
         style="color:#000000;fill:#d60000;fill-opacity:1"
         transform="matrix(0.99983132,-0.01836646,0.01981285,0.99980371,0,0)"
         cx="-121.06232"
         cy="791.21387"
         rx="1.6434149"
         ry="1.5823138" />
      <path
         id="path3629"
         style="color:#000000;fill:#d60000;fill-opacity:1"
         inkscape:connector-curvature="0"
         d="m -105.43856,795.26271 c -2.19167,0.0403 -3.9631,1.67227 -4.1478,3.72898 l 1.03676,0.006 c 0.18903,-1.62698 1.35998,-2.82424 3.10611,-2.85635 1.74606,-0.0321 3.0492,1.09179 3.3027,2.7106 l 0.99583,-0.0149 c -0.26618,-2.04842 -2.10167,-3.61424 -4.29332,-3.57383 z"
         sodipodi:nodetypes="cccscccc" />
      <path
         id="path3631"
         sodipodi:nodetypes="czzszzcc"
         style="color:#000000;fill:#d60000;fill-opacity:1"
         inkscape:connector-curvature="0"
         d="m -105.42783,795.21395 c -1.00563,0.0321 -1.77626,3.95012 -1.75861,5.49813 0.0177,1.54798 0.22478,0.8399 0.43446,0.27334 0.2097,-0.56658 0.59419,-2.18691 1.36944,-2.21163 0.77506,-0.0247 1.32964,1.5408 1.55259,2.09473 0.22294,0.5539 0.30244,1.27525 0.28481,-0.27259 -0.0176,-1.54784 -0.87708,-5.414 -1.88271,-5.382 z" />
      <ellipse
         id="path3627-9-0"
         style="color:#000000;fill:#f89000;fill-opacity:1"
         transform="matrix(-0.83436039,-0.55121931,-0.01404013,0.99990143,0,0)"
         ry="1.7166464"
         rx="1.5140436"
         cy="854.30823"
         cx="104.02796" />
      <path
         id="path3629-6-4"
         sodipodi:nodetypes="cccsccsc"
         style="color:#000000;fill:#f89000;fill-opacity:1"
         inkscape:connector-curvature="0"
         d="m -99.144696,799.86107 c -0.248631,-1.0865 -1.458774,-1.50727 -2.775344,-1.0115 l 0.0921,0.6684 c 1.04581,-0.37074 1.997063,-0.29288 2.195249,0.57275 0.198075,0.86569 -1.095359,1.67906 -2.091019,2.26917 l 0.1944,0.83209 c 1.26544,-0.71939 2.633334,-2.24417 2.384721,-3.33089 z" />
      <path
         id="path3631-2-5"
         sodipodi:nodetypes="czzszzcc"
         style="color:#000000;fill:#f89000;fill-opacity:1"
         inkscape:connector-curvature="0"
         d="m -98.780346,799.27797 c 0.749752,0.48572 1.324281,5.41969 1.311124,7.22557 -0.01314,1.80587 -0.167584,0.88393 -0.323935,0.12665 -0.15634,-0.75729 -0.443008,-2.82705 -1.020956,-3.20156 -0.577852,-0.37436 -0.991317,1.21277 -1.157541,1.76242 -0.166216,0.54962 -0.225486,1.35937 -0.212346,-0.44632 0.0131,-1.80569 0.653899,-5.9525 1.403651,-5.46684 z" />
      <ellipse
         id="path3627-9-0-8"
         style="color:#000000;fill:#007cba;fill-opacity:1"
         transform="matrix(0.85037958,-0.52616972,0.01499073,0.99988763,0,0)"
         cx="-144.53421"
         cy="720.91339"
         rx="1.5861232"
         ry="1.7166702" />
      <path
         id="path3629-6-4-6"
         sodipodi:nodetypes="cccsccsc"
         style="color:#000000;fill:#007cba;fill-opacity:1"
         inkscape:connector-curvature="0"
         d="m -111.81993,799.86108 c 0.25101,-1.08661 1.69781,-1.48685 3.02696,-0.99104 l -0.0725,0.58656 c -1.05581,-0.37074 -2.2617,-0.2315 -2.46177,0.63413 -0.19997,0.86569 1.10486,1.6586 2.11003,2.24871 l -0.1953,0.85255 c -1.27745,-0.71939 -2.65833,-2.24435 -2.40735,-3.33089 z" />
      <path
         id="path3631-2-5-8"
         sodipodi:nodetypes="czzszzcc"
         style="color:#000000;fill:#007cba;fill-opacity:1"
         inkscape:connector-curvature="0"
         d="m -112.19038,799.27798 c -0.73104,0.48572 -1.29124,5.41969 -1.27841,7.22557 0.0135,1.80587 0.1634,0.88393 0.31585,0.12665 0.15245,-0.75729 0.43195,-2.82705 0.99548,-3.20156 0.56343,-0.37436 0.96658,1.21277 1.12866,1.76242 0.16206,0.54962 0.21987,1.35937 0.20704,-0.44632 -0.0135,-1.80569 -0.63757,-5.9525 -1.36862,-5.46684 z" />
      <ellipse
         id="path3627-7"
         style="color:#000000;fill:#00bf00;fill-opacity:1"
         transform="matrix(0.99983132,-0.01836646,0.01981285,0.99980371,0,0)"
         cx="-121.20014"
         cy="795.90759"
         rx="1.7989973"
         ry="1.7321116" />
      <path
         id="path3629-2"
         style="color:#000000;fill:#00bf00;fill-opacity:1"
         inkscape:connector-curvature="0"
         d="m -105.39635,799.75347 c -2.17313,0.0358 -3.92952,1.69177 -4.11282,3.5209 l 0.98898,-0.0133 c 0.18744,-1.44689 1.38732,-2.1342 3.11859,-2.16272 1.7313,-0.0285 2.98099,0.63224 3.23239,2.07181 l 1.0299,-0.0338 c -0.26376,-1.82183 -2.06324,-3.41873 -4.23648,-3.38303 z"
         sodipodi:nodetypes="cccccccc" />
      <path
         id="path3631-5"
         sodipodi:nodetypes="czzszzcc"
         style="color:#000000;fill:#00bf00;fill-opacity:1"
         inkscape:connector-curvature="0"
         d="m -105.45217,799.90935 c -1.00564,0.0376 -1.77626,4.62822 -1.75861,6.44197 0.0177,1.81372 0.2657,1.03524 0.47538,0.37142 0.2097,-0.66385 0.55327,-2.61348 1.32851,-2.64245 0.77506,-0.029 1.1762,2.12244 1.39915,2.77146 0.22294,0.64898 0.45589,1.17703 0.43826,-0.63652 -0.0176,-1.81354 -0.87709,-6.3434 -1.88272,-6.3059 z" />
    </g>
  </g>
  <metadata
     id="metadata23">
    <rdf:RDF>
      <cc:Work>
        <dc:format>image/svg+xml</dc:format>
        <dc:type
           rdf:resource="http://purl.org/dc/dcmitype/StillImage" />
        <cc:license
           rdf:resource="http://creativecommons.org/publicdomain/zero/1.0/" />
        <dc:publisher>
          <cc:Agent
             rdf:about="http://openclipart.org/">
            <dc:title>Openclipart</dc:title>
          </cc:Agent>
        </dc:publisher>
        <dc:title></dc:title>
        <dc:date>2012-01-31T19:44:46</dc:date>
        <dc:description>Representation of four people holding hands and forming a circle</dc:description>
        <dc:source>https://openclipart.org/detail/167580/community-circle-by-josephluis</dc:source>
        <dc:creator>
          <cc:Agent>
            <dc:title>josephluis</dc:title>
          </cc:Agent>
        </dc:creator>
        <dc:subject>
          <rdf:Bag>
            <rdf:li>being</rdf:li>
            <rdf:li>circle</rdf:li>
            <rdf:li>community</rdf:li>
            <rdf:li>doll</rdf:li>
            <rdf:li>hands</rdf:li>
            <rdf:li>holding</rdf:li>
            <rdf:li>human</rdf:li>
            <rdf:li>man</rdf:li>
            <rdf:li>mankind</rdf:li>
            <rdf:li>men</rdf:li>
            <rdf:li>people</rdf:li>
          </rdf:Bag>
        </dc:subject>
      </cc:Work>
      <cc:License
         rdf:about="http://creativecommons.org/publicdomain/zero/1.0/">
        <cc:permits
           rdf:resource="http://creativecommons.org/ns#Reproduction" />
        <cc:permits
           rdf:resource="http://creativecommons.org/ns#Distribution" />
        <cc:permits
           rdf:resource="http://creativecommons.org/ns#DerivativeWorks" />
      </cc:License>
    </rdf:RDF>
  </metadata>
</svg>
