<?xml version="1.0" encoding="UTF-8" standalone="no"?>
<svg
   xmlns:dc="http://purl.org/dc/elements/1.1/"
   xmlns:cc="http://creativecommons.org/ns#"
   xmlns:rdf="http://www.w3.org/1999/02/22-rdf-syntax-ns#"
   xmlns:svg="http://www.w3.org/2000/svg"
   xmlns="http://www.w3.org/2000/svg"
   xmlns:sodipodi="http://sodipodi.sourceforge.net/DTD/sodipodi-0.dtd"
   xmlns:inkscape="http://www.inkscape.org/namespaces/inkscape"
   height="16"
   id="svg1"
   inkscape:version="0.91 r13725"
   sodipodi:docname="telephone4.svg"
   sodipodi:version="0.32"
   width="12.08762"
   inkscape:output_extension="org.inkscape.output.svg.inkscape"
   version="1.0">
  <metadata
     id="metadata2213">
    <rdf:RDF>
      <cc:Work
         rdf:about="">
        <dc:title></dc:title>
        <dc:description>lutte incendie</dc:description>
        <dc:subject>
          <rdf:Bag>
            <rdf:li>office</rdf:li>
            <rdf:li />
            <rdf:li>telephone</rdf:li>
            <rdf:li>symbol</rdf:li>
          </rdf:Bag>
        </dc:subject>
        <dc:publisher>
          <cc:Agent
             rdf:about="http://www.openclipart.org">
            <dc:title>yves GUILLOU</dc:title>
          </cc:Agent>
        </dc:publisher>
        <dc:creator>
          <cc:Agent>
            <dc:title>yves GUILLOU</dc:title>
          </cc:Agent>
        </dc:creator>
        <dc:rights>
          <cc:Agent>
            <dc:title>yves GUILLOU</dc:title>
          </cc:Agent>
        </dc:rights>
        <dc:date />
        <dc:format>image/svg+xml</dc:format>
        <dc:type
           rdf:resource="http://purl.org/dc/dcmitype/StillImage" />
        <cc:license
           rdf:resource="http://web.resource.org/cc/PublicDomain" />
        <dc:language>en</dc:language>
      </cc:Work>
      <cc:License
         rdf:about="http://web.resource.org/cc/PublicDomain">
        <cc:permits
           rdf:resource="http://web.resource.org/cc/Reproduction" />
        <cc:permits
           rdf:resource="http://web.resource.org/cc/Distribution" />
        <cc:permits
           rdf:resource="http://web.resource.org/cc/DerivativeWorks" />
      </cc:License>
    </rdf:RDF>
  </metadata>
  <sodipodi:namedview
     bordercolor="#666666"
     borderopacity="1.0"
     id="base"
     inkscape:current-layer="svg1"
     inkscape:cx="4.7193656"
     inkscape:cy="11.78842"
     inkscape:pageopacity="0.0"
     inkscape:pageshadow="2"
     inkscape:window-height="988"
     inkscape:window-width="1680"
     inkscape:window-x="-8"
     inkscape:window-y="-8"
     inkscape:zoom="10.209232"
     pagecolor="#ffffff"
     showgrid="false"
     fit-margin-top="0"
     fit-margin-left="0"
     fit-margin-right="0"
     fit-margin-bottom="0"
     inkscape:window-maximized="1" />
  <defs
     id="defs2">
    <marker
       id="ArrowEnd"
       markerHeight="3"
       markerUnits="strokeWidth"
       markerWidth="4"
       orient="auto"
       refX="0"
       refY="5"
       viewBox="0 0 10 10">
      <path
         d="M 0,0 10,5 0,10 0,0 Z"
         id="path4"
         inkscape:connector-curvature="0" />
    </marker>
    <marker
       id="ArrowStart"
       markerHeight="3"
       markerUnits="strokeWidth"
       markerWidth="4"
       orient="auto"
       refX="10"
       refY="5"
       viewBox="0 0 10 10">
      <path
         d="M 10,0 0,5 10,10 10,0 Z"
         id="path6"
         inkscape:connector-curvature="0" />
    </marker>
  </defs>
  <g
     id="g10"
     style="fill:#000000;stroke:#ffffff;stroke-width:6.19752598;stroke-miterlimit:4;stroke-dasharray:none;stroke-opacity:1"
     transform="matrix(0.12920748,0,0,0.13031517,-4.8612553,-2.566014)">
    <path
       d="m 66.1172,22.8873 c 0,0 -25.7258,0.3341 -25.3918,23.3871 0.3342,23.053 5.0116,43.4332 12.696,54.7926 7.6843,11.36 27.3962,41.095 49.7816,38.088 0,0 11.025,-2.339 19.377,-7.685 L 95.5181,110.422 c 0,0 -8.0184,5.011 -13.0299,-1.671 -5.0115,-6.682 -20.7143,-37.7531 -20.7143,-37.7531 0,0 -4.3433,-10.0231 5.3456,-14.3663 L 66.1172,22.8873 Z"
       id="path11"
       style="fill:#000000;stroke:#ffffff;stroke-width:6.19752598;stroke-miterlimit:4;stroke-dasharray:none;stroke-opacity:1"
       inkscape:connector-curvature="0" />
    <path
       d="m 69.1241,22.8873 c 0,0 2.0047,-0.6683 5.6798,1.3364 3.6751,2.0046 3.6751,3.6751 3.6751,3.6751 l 0.3341,23.0531 c 0,0 -1.0023,1.3364 -2.3387,2.6727 -1.3364,1.3365 -5.6798,3.341 -6.348,2.0047 -0.6681,-1.3365 -1.0023,-32.742 -1.0023,-32.742 z"
       id="path12"
       style="fill:#000000;stroke:#ffffff;stroke-width:6.19752598;stroke-miterlimit:4;stroke-dasharray:none;stroke-opacity:1"
       inkscape:connector-curvature="0" />
    <path
       d="M 97.769099,107.95908 105.207,104.074 c 0,0 1.671,-0.334 4.343,1.336 2.673,1.671 16.705,12.696 16.705,12.696 0,0 2.339,2.005 1.671,4.344 -0.668,2.338 -2.339,7.35 -2.339,7.35 L 97.769099,107.95908 Z"
       id="path13"
       sodipodi:nodetypes="ccccccc"
       style="fill:#000000;stroke:#ffffff;stroke-width:6.19752598;stroke-miterlimit:4;stroke-dasharray:none;stroke-opacity:1"
       inkscape:connector-curvature="0" />
  </g>
</svg>
