<svg height="12" viewBox="0 0 16 12" width="16" xmlns="http://www.w3.org/2000/svg">
    <path d="m8.5380631 1049.6846c-.603283-2.4222 1.9922899-1.3924 3.2209819 0 .756162.511 1.507072.3248 2.257945.1345 1.957005-.36 1.461761-3.0218 1.379903-3.4492-.277846-.8432-.22161-1.061-1.438908-2.1021-1.073374-.499-2.076717-.1483-2.459486-.4388-.707308-.3481.356589-2.2339-1.187385-2.3689-2.8155432.2884-3.877829.1299-4.0699413-.067-1.060499-.6232-1.1916803-.7814-2.4885151-.1017-1.6245177 1.2331-1.0990479 2.7364-1.2962578 4.0287-.3541192 1.4112-1.97341599 2.4273-1.95745343 3.1791-.20462469 2.8006 1.90658613 2.653 2.27351833 2.9443 1.051048.4388 6.4448484.9064 6.6276018-.5853-.0003162-.6497-.7628576-.6939-.8620034-1.1738z"
          fill="#fff" fill-rule="evenodd" stroke="#000" stroke-width=".973071" transform="translate(0 -1040.3622)"/>
</svg>
