<?xml version="1.0" encoding="UTF-8" standalone="no"?>
<!-- Created with Inkscape (http://www.inkscape.org/) -->

<svg
   xmlns:dc="http://purl.org/dc/elements/1.1/"
   xmlns:cc="http://creativecommons.org/ns#"
   xmlns:rdf="http://www.w3.org/1999/02/22-rdf-syntax-ns#"
   xmlns:svg="http://www.w3.org/2000/svg"
   xmlns="http://www.w3.org/2000/svg"
   xmlns:sodipodi="http://sodipodi.sourceforge.net/DTD/sodipodi-0.dtd"
   xmlns:inkscape="http://www.inkscape.org/namespaces/inkscape"
   version="1.0"
   width="94"
   height="94"
   id="svg5273"
   sodipodi:version="0.32"
   inkscape:version="0.91 r13725"
   sodipodi:docname="buddhism.svg"
   inkscape:output_extension="org.inkscape.output.svg.inkscape">
  <metadata
     id="metadata15">
    <rdf:RDF>
      <cc:Work
         rdf:about="">
        <dc:format>image/svg+xml</dc:format>
        <dc:type
           rdf:resource="http://purl.org/dc/dcmitype/StillImage" />
        <cc:license
           rdf:resource="http://web.resource.org/cc/PublicDomain" />
        <dc:title></dc:title>
      </cc:Work>
      <cc:License
         rdf:about="http://web.resource.org/cc/PublicDomain">
        <cc:permits
           rdf:resource="http://web.resource.org/cc/Reproduction" />
        <cc:permits
           rdf:resource="http://web.resource.org/cc/Distribution" />
        <cc:permits
           rdf:resource="http://web.resource.org/cc/DerivativeWorks" />
      </cc:License>
    </rdf:RDF>
  </metadata>
  <sodipodi:namedview
     inkscape:window-height="988"
     inkscape:window-width="1680"
     inkscape:pageshadow="2"
     inkscape:pageopacity="0.0"
     guidetolerance="10.0"
     gridtolerance="10.0"
     objecttolerance="10.0"
     borderopacity="1.0"
     bordercolor="#666666"
     pagecolor="#ffffff"
     id="base"
     inkscape:zoom="4.0106383"
     inkscape:cx="4.4880637"
     inkscape:cy="46.750663"
     inkscape:window-x="-8"
     inkscape:window-y="-8"
     inkscape:current-layer="svg5273"
     showgrid="false"
     inkscape:window-maximized="1" />
  <defs
     id="defs5275" />
  <rect
     style="opacity:1;fill:#ffffff;fill-opacity:1;stroke:none;stroke-width:0.56699997;stroke-linecap:square;stroke-linejoin:miter;stroke-miterlimit:4;stroke-dasharray:none;stroke-dashoffset:0.60000002;stroke-opacity:1"
     id="rect4142"
     width="94"
     height="94"
     x="0"
     y="6.1721461e-015" />
  <g
     transform="translate(-164.42857,-802.50507)"
     id="layer1">
    <path
       d="M 211.42857,805.48945 L 205.55357,811.36445 C 199.27471,812.32472 193.48535,814.79046 188.58482,818.3957 L 180.30357,818.3957 L 180.30357,826.73945 C 176.72181,831.62738 174.25999,837.36076 173.30357,843.61445 L 167.42857,849.48945 L 173.30357,855.36445 C 174.25999,861.61814 176.72181,867.38278 180.30357,872.2707 L 180.30357,880.61445 L 188.61607,880.61445 C 193.51172,884.21057 199.28448,886.68692 205.55357,887.6457 L 211.42857,893.5207 L 217.30357,887.6457 C 223.57266,886.68692 229.34543,884.21057 234.24107,880.61445 L 242.55357,880.61445 L 242.55357,872.3332 C 246.15648,867.43392 248.62493,861.64081 249.58482,855.36445 L 249.58482,855.3332 L 255.42857,849.48945 L 249.58482,843.6457 L 249.58482,843.61445 C 248.62493,837.33809 246.15648,831.57623 242.55357,826.67695 L 242.55357,818.3957 L 234.27232,818.3957 C 229.37179,814.79046 223.58243,812.32472 217.30357,811.36445 L 211.42857,805.48945 z "
       style="fill:#000000;fill-opacity:1;stroke:none;stroke-width:10;stroke-linecap:round;stroke-linejoin:round;stroke-miterlimit:4;stroke-dasharray:none;stroke-dashoffset:0;stroke-opacity:1"
       id="rect5307" />
    <path
       d="M 211.42857,814.73945 L 207.74107,818.42695 C 201.8906,819.11746 196.52243,821.43233 192.11607,824.8957 L 186.83482,824.8957 L 186.83482,830.1457 C 183.36569,834.54943 181.06248,839.92027 180.36607,845.7707 L 176.64732,849.48945 L 180.36607,853.2082 C 181.058,859.07069 183.35957,864.42171 186.83482,868.8332 L 186.83482,874.0832 L 192.08482,874.0832 C 196.49799,877.56183 201.8749,879.8911 207.74107,880.5832 L 211.42857,884.2707 L 215.11607,880.5832 C 220.98599,879.8925 226.35674,877.56374 230.77232,874.0832 L 236.02232,874.0832 L 236.02232,868.8332 C 239.50069,864.42036 241.79877,859.07385 242.49107,853.2082 L 246.20982,849.48945 L 242.49107,845.7707 C 241.79429,839.91711 239.49457,834.55077 236.02232,830.1457 L 236.02232,824.8957 L 230.74107,824.8957 C 226.33227,821.43041 220.97033,819.11605 215.11607,818.42695 L 211.42857,814.73945 z "
       style="fill:#ffffff;fill-opacity:1;stroke:none;stroke-width:10;stroke-linecap:round;stroke-linejoin:round;stroke-miterlimit:4;stroke-dasharray:none;stroke-dashoffset:0;stroke-opacity:1"
       id="path5297" />
    <path
       d="M 52.823528 44.588234 A 7.7647057 7.7647057 0 1 1  37.294117,44.588234 A 7.7647057 7.7647057 0 1 1  52.823528 44.588234 z"
       transform="matrix(3.5606061,0,0,3.5606061,50.995521,690.73749)"
       style="fill:#000000;fill-opacity:1;stroke:none;stroke-width:10;stroke-linecap:round;stroke-linejoin:round;stroke-miterlimit:4;stroke-dasharray:none;stroke-dashoffset:0;stroke-opacity:1"
       id="path5295" />
    <path
       d="M 181.96166,849.49865 L 240.90283,849.49865"
       style="fill:none;fill-rule:evenodd;stroke:#ffffff;stroke-width:4;stroke-linecap:butt;stroke-linejoin:miter;stroke-miterlimit:4;stroke-dasharray:none;stroke-opacity:1"
       id="path5319" />
    <path
       d="M 52.823528 44.588234 A 7.7647057 7.7647057 0 1 1  37.294117,44.588234 A 7.7647057 7.7647057 0 1 1  52.823528 44.588234 z"
       transform="matrix(1.5454546,0,0,1.5454546,141.79588,780.58955)"
       style="fill:#ffffff;fill-opacity:1;stroke:none;stroke-width:10;stroke-linecap:round;stroke-linejoin:round;stroke-miterlimit:4;stroke-dasharray:none;stroke-dashoffset:0;stroke-opacity:1"
       id="path5293" />
    <path
       d="M 190.59339,828.6598 L 232.27109,870.33749"
       style="fill:none;fill-rule:evenodd;stroke:#ffffff;stroke-width:4;stroke-linecap:butt;stroke-linejoin:miter;stroke-miterlimit:4;stroke-dasharray:none;stroke-opacity:1"
       id="path5323" />
    <path
       d="M 211.43224,878.96923 L 211.43224,820.02805"
       style="fill:none;fill-rule:evenodd;stroke:#ffffff;stroke-width:4;stroke-linecap:butt;stroke-linejoin:miter;stroke-miterlimit:4;stroke-dasharray:none;stroke-opacity:1"
       id="path5317" />
    <path
       d="M 190.59339,870.33749 L 232.27109,828.65979"
       style="fill:none;fill-rule:evenodd;stroke:#ffffff;stroke-width:4;stroke-linecap:butt;stroke-linejoin:miter;stroke-miterlimit:4;stroke-dasharray:none;stroke-opacity:1"
       id="path5321" />
    <path
       d="M 52.823528 44.588234 A 7.7647057 7.7647057 0 1 1  37.294117,44.588234 A 7.7647057 7.7647057 0 1 1  52.823528 44.588234 z"
       transform="translate(166.37342,804.9104)"
       style="fill:#000000;fill-opacity:1;stroke:none;stroke-width:10;stroke-linecap:round;stroke-linejoin:round;stroke-miterlimit:4;stroke-dasharray:none;stroke-dashoffset:0;stroke-opacity:1"
       id="path5291" />
  </g>
</svg>
