<?xml version="1.0" encoding="UTF-8" standalone="no"?>
<!-- Created with Inkscape (http://www.inkscape.org/) -->

<svg
   xmlns:dc="http://purl.org/dc/elements/1.1/"
   xmlns:cc="http://creativecommons.org/ns#"
   xmlns:rdf="http://www.w3.org/1999/02/22-rdf-syntax-ns#"
   xmlns:svg="http://www.w3.org/2000/svg"
   xmlns="http://www.w3.org/2000/svg"
   xmlns:sodipodi="http://sodipodi.sourceforge.net/DTD/sodipodi-0.dtd"
   xmlns:inkscape="http://www.inkscape.org/namespaces/inkscape"
   version="1.0"
   width="600"
   height="800"
   id="svg2"
   sodipodi:version="0.32"
   inkscape:version="0.91 r13725"
   sodipodi:docname="sikhism.svg"
   inkscape:output_extension="org.inkscape.output.svg.inkscape">
  <metadata
     id="metadata7">
    <rdf:RDF>
      <cc:Work
         rdf:about="">
        <dc:format>image/svg+xml</dc:format>
        <dc:type
           rdf:resource="http://purl.org/dc/dcmitype/StillImage" />
        <cc:license
           rdf:resource="http://web.resource.org/cc/PublicDomain" />
        <dc:title></dc:title>
      </cc:Work>
      <cc:License
         rdf:about="http://web.resource.org/cc/PublicDomain">
        <cc:permits
           rdf:resource="http://web.resource.org/cc/Reproduction" />
        <cc:permits
           rdf:resource="http://web.resource.org/cc/Distribution" />
        <cc:permits
           rdf:resource="http://web.resource.org/cc/DerivativeWorks" />
      </cc:License>
    </rdf:RDF>
  </metadata>
  <sodipodi:namedview
     inkscape:window-height="988"
     inkscape:window-width="1680"
     inkscape:pageshadow="2"
     inkscape:pageopacity="0.0"
     guidetolerance="10.0"
     gridtolerance="10.0"
     objecttolerance="10.0"
     borderopacity="1.0"
     bordercolor="#666666"
     pagecolor="#ffffff"
     id="base"
     inkscape:zoom="0.47125"
     inkscape:cx="-61.803714"
     inkscape:cy="397.87798"
     inkscape:window-x="-8"
     inkscape:window-y="-8"
     inkscape:current-layer="svg2"
     showgrid="false"
     inkscape:window-maximized="1" />
  <defs
     id="defs4" />
  <rect
     style="opacity:1;fill:#ffffff;fill-opacity:1;stroke:none;stroke-width:0.56699997;stroke-linecap:square;stroke-linejoin:miter;stroke-miterlimit:4;stroke-dasharray:none;stroke-dashoffset:0.60000002;stroke-opacity:1"
     id="rect4134"
     width="600"
     height="800"
     x="0"
     y="-1.3283818e-013" />
  <g
     id="layer1">
    <path
       d="M 286.73019,778.52583 C 275.75301,775.43609 265.01323,766.39009 260.00869,756.01866 C 254.68435,744.98419 254.75043,729.68933 260.17088,718.45579 C 262.56819,713.48757 271.0349,704.02913 275.79979,700.99627 L 278.22458,699.45294 L 277.93101,661.76252 L 277.63732,624.0721 L 255.57862,639.19088 L 233.51991,654.30963 L 235.85201,658.70697 C 237.72013,662.2294 238.18665,664.91233 238.19689,672.19146 C 238.20829,680.26546 237.85962,681.9126 235.06995,686.96488 C 231.55962,693.3225 227.0233,697.73591 220.33104,701.30437 C 216.68548,703.24838 214.1133,703.70359 206.77416,703.70359 C 199.43499,703.70359 196.86282,703.24838 193.21724,701.30437 C 182.43181,695.55321 175.97172,686.18389 175.08734,675.0099 C 174.4294,666.69701 175.91711,661.21418 180.88361,653.6481 C 184.43397,648.23943 188.98447,644.6862 226.5945,617.95519 C 249.56687,601.62774 268.16361,587.94104 267.92044,587.54031 C 267.67737,587.13956 262.4271,583.21466 256.25316,578.81832 L 245.02799,570.82497 L 213.10652,594.24676 C 195.54967,607.12874 180.94849,617.66854 180.65943,617.66854 C 180.37037,617.66854 179.31087,605.39832 175.26249,598.9597 C 171.3187,592.68741 157.08555,576.77028 120.95949,540.69501 C 80.926979,500.71878 69.712559,488.34294 56.886159,469.98591 C 34.735847,438.28456 21.28146,403.33193 16.070574,363.9527 C 14.643144,353.1655 14.643144,319.83715 16.070574,309.04995 C 21.97106,264.45933 38.353932,225.78713 65.846979,191.55141 C 80.960219,172.73164 91.642209,164.62074 114.99482,154.23309 C 131.49525,146.89341 163.31216,136.45641 164.75963,137.9086 C 164.95937,138.10898 160.70799,141.14023 155.31214,144.64471 C 141.84464,153.3915 117.92485,177.27079 108.8217,191.05641 C 96.288539,210.03637 88.010829,229.61622 82.967409,252.21132 C 80.786489,261.98211 80.499119,266.07006 80.499119,287.32379 C 80.499119,315.74299 81.574149,321.95208 91.676199,351.87978 C 103.89217,388.0701 116.9059,408.56463 151.93419,446.7765 C 184.31489,482.10016 198.65925,494.49064 247.92965,529.69617 L 278.17013,551.30416 L 278.17013,531.1197 L 278.17013,510.93524 L 274.17409,508.48482 C 271.97626,507.1371 265.86231,502.6303 260.58753,498.46974 C 255.31275,494.30918 246.20177,487.83917 240.3409,484.09194 C 234.48003,480.34471 229.54891,477.17899 229.38279,477.05701 C 229.21665,476.93502 230.52811,469.45137 232.29713,460.42667 C 234.06615,451.40198 235.16107,443.727 234.73035,443.37116 C 234.29962,443.01532 230.73238,441.3902 226.80294,439.75979 C 209.44558,432.55768 190.96034,420.03878 175.48787,405.00727 C 150.34253,380.57855 134.48146,352.18188 126.1766,316.7234 C 123.32873,304.56412 123.17189,302.5831 123.17189,278.77117 C 123.17189,254.95924 123.32873,252.97822 126.1766,240.81895 C 134.48146,205.36046 150.34253,176.96379 175.48787,152.53508 C 191.06435,137.40253 210.10104,124.55368 227.27212,117.58321 C 232.29968,115.54233 234.45776,114.1033 234.46693,112.78566 C 234.47417,111.75045 233.51118,106.53968 232.32707,101.20616 L 230.174,91.508846 L 232.93447,88.217586 C 234.45264,86.407386 245.132,75.682366 256.66619,64.384198 C 268.20026,53.086033 282.41777,38.47761 288.26041,31.921037 L 298.8835,19.999997 L 334.16923,55.388707 L 369.45505,90.777406 L 366.84878,101.97751 C 365.41542,108.13756 364.41694,113.29345 364.63007,113.43502 C 364.84319,113.5766 371.49122,116.91661 379.40339,120.85722 C 387.31556,124.79786 398.33634,131.27144 403.89394,135.24294 C 416.89142,144.53093 435.51641,163.23797 444.62995,176.15833 C 488.20091,237.92941 488.20091,319.61293 444.62995,381.38402 C 435.51235,394.31013 416.88556,413.01685 403.89394,422.29488 C 394.29992,429.14649 367.93123,443.40901 364.858,443.40901 C 362.92743,443.40901 363.04742,444.77558 366.48221,461.90487 L 369.44077,476.65897 L 360.83553,482.32935 C 356.10261,485.44804 346.37731,492.51962 339.22374,498.04394 C 332.07019,503.56826 324.99718,508.95252 323.50596,510.00895 L 320.79473,511.92975 L 320.79473,531.12323 C 320.79473,541.67964 320.99656,550.31669 321.24324,550.31669 C 321.92268,550.31669 380.60839,508.33308 383.66584,505.65971 C 385.13108,504.37856 390.40585,500.10535 395.38758,496.16366 C 410.24829,484.40549 425.65704,469.62065 443.12615,450.35801 C 452.19143,440.36214 460.16935,431.70262 460.85496,431.11463 C 461.54058,430.52663 465.97011,424.99417 470.69834,418.82025 C 489.59857,394.14145 498.24782,377.90214 507.73348,349.28563 C 516.9539,321.46945 518.35626,313.28953 518.35626,287.32379 C 518.35626,268.59732 518.00598,263.774 515.94945,254.1824 C 505.90596,207.33942 480.306,169.53585 441.26507,143.89545 C 435.14205,139.87412 430.86448,136.58394 431.75927,136.58394 C 434.86681,136.58394 459.9137,143.91858 469.82017,147.72957 C 501.69092,159.99014 516.75474,170.38538 534.17334,192.13836 C 586.45409,257.42841 599.41417,344.82846 568.34187,422.56202 C 561.9872,438.45938 554.6478,452.01845 543.74766,467.99778 C 529.07119,489.51321 524.15201,495.01244 475.8494,543.90224 C 450.57894,569.4799 435.61167,584.00122 427.85433,594.41612 C 420.09701,604.83101 418.29825,618.40148 418.29825,618.40148 L 388.4611,596.5926 C 372.05067,584.59773 357.6242,573.92126 356.40237,572.8671 C 354.22575,570.98929 353.93836,571.12332 342.21023,579.48324 C 335.62645,584.17628 330.63203,588.38606 331.11167,588.83835 C 331.59119,589.29063 349.7261,602.26429 371.41131,617.66874 C 393.09651,633.07317 412.17183,646.93542 413.80094,648.47372 C 415.43004,650.01202 418.18732,654.13033 419.9282,657.62549 C 424.15346,666.10851 424.40324,677.39401 420.54636,685.55492 C 417.4741,692.05565 411.41407,698.0578 404.97809,700.97456 C 397.93898,704.16459 385.95808,704.01074 378.8706,700.6393 C 372.39092,697.55716 366.40815,691.47735 363.50084,685.02039 C 360.52075,678.4016 360.50924,665.99897 363.4772,659.43546 C 365.21339,655.59595 365.36055,654.4512 364.25306,653.39841 C 362.38365,651.62143 322.10841,624.08301 321.3789,624.08301 C 321.05762,624.08301 320.79473,641.12054 320.79473,661.94418 L 320.79473,699.80531 L 325.87855,703.54943 C 343.70102,716.67492 347.7089,744.12198 334.49797,762.57777 C 324.74538,776.20208 303.57997,783.26847 286.73019,778.52583 z M 379.40339,398.70368 C 384.66379,395.22835 393.39436,387.77026 400.22855,380.91389 C 417.414,363.67255 427.87895,346.83212 435.36093,324.37813 C 440.49089,308.98263 442.27452,297.21711 442.27452,278.77117 C 442.27452,247.90169 434.93533,223.37529 417.96183,197.52133 C 410.21815,185.72621 391.19546,166.63419 379.40339,158.82228 C 370.0339,152.6153 358.48639,146.50181 357.70348,147.33393 C 356.02067,149.12256 350.23631,200.25771 348.40677,229.51896 C 346.75827,255.8854 347.74246,333.12826 350.0218,356.27925 C 351.79583,374.29728 355.64728,404.88194 356.64725,408.89302 L 357.23739,411.26017 L 363.79154,407.97396 C 367.3963,406.16654 374.42166,401.9949 379.40339,398.70368 z M 242.92309,401.98229 C 252.11538,340.70266 253.94376,264.12866 247.74126,200.19402 C 246.20198,184.3268 242.42098,154.33165 241.37315,149.67561 L 240.83087,147.26565 L 234.19221,150.62655 C 203.27051,166.28108 176.98711,196.47203 164.90475,230.215 C 159.15348,246.27687 157.22435,258.47294 157.22435,278.77117 C 157.22435,294.4703 157.62408,299.27187 159.70919,308.6185 C 167.98142,345.69942 188.69517,376.83958 219.02865,397.79693 C 225.08293,401.97979 239.56812,410.17892 241.01063,410.2395 C 241.37891,410.25497 242.23961,406.53922 242.92309,401.98229 z "
       style="fill:#000000"
       id="path1317" />
  </g>
</svg>
