<?xml version="1.0" encoding="UTF-8" standalone="no"?>
<svg
   xmlns:dc="http://purl.org/dc/elements/1.1/"
   xmlns:cc="http://creativecommons.org/ns#"
   xmlns:rdf="http://www.w3.org/1999/02/22-rdf-syntax-ns#"
   xmlns:svg="http://www.w3.org/2000/svg"
   xmlns="http://www.w3.org/2000/svg"
   xmlns:sodipodi="http://sodipodi.sourceforge.net/DTD/sodipodi-0.dtd"
   xmlns:inkscape="http://www.inkscape.org/namespaces/inkscape"
   height="16"
   width="16"
   inkscape:version="1.0 (4035a4fb49, 2020-05-01)"
   version="1.1"
   viewBox="0 0 16 16.000001"
   sodipodi:docname="animal_boarding.svg"
   id="svg3795">
  <defs
     id="defs8" />
  <sodipodi:namedview
     inkscape:document-rotation="0"
     inkscape:document-units="px"
     inkscape:pageopacity="0.0"
     inkscape:window-width="1664"
     fit-margin-bottom="0"
     fit-margin-right="0"
     inkscape:cy="1.7029771"
     inkscape:cx="1.980238"
     inkscape:current-layer="layer1"
     borderopacity="1.0"
     showgrid="true"
     inkscape:window-height="988"
     inkscape:window-x="0"
     inkscape:zoom="24.436424"
     inkscape:window-maximized="0"
     fit-margin-top="0"
     pagecolor="#ffffff"
     fit-margin-left="0"
     inkscape:window-y="0"
     inkscape:pageshadow="2"
     bordercolor="#666666"
     id="base">
    <inkscape:grid
       id="grid833"
       type="xygrid" />
  </sodipodi:namedview>
  <g
     transform="translate(-223.82,-315.23)"
     inkscape:groupmode="layer"
     inkscape:label="Layer 1"
     id="layer1">
    <path
       d="m 230.73879,315.23145 c 0.0818,0.008 0.21881,0.072 0.2726,0.0402 0.0663,-0.0393 -0.0412,0.17206 0.0294,0.13012 0.0353,-0.021 0.0558,0.2743 0.0192,0.46024 -0.0366,0.18595 -0.0289,0.36014 0.0539,0.36265 0.0827,0.003 -0.19138,0.30145 0.10511,0.12437 0.0413,-0.0246 0.89486,-0.0408 0.91554,-0.0525 -0.0155,0.005 -0.0219,-0.001 0.0123,-0.0382 0.0542,-0.0592 0.039,-0.051 0.0339,-0.0488 0.005,-0.005 0.0247,-0.0239 0.0951,-0.0861 0.19093,-0.16861 0.70924,-0.64165 0.64949,-0.54924 -0.0599,0.0924 0.30598,-0.18953 0.5086,-0.29184 0.0144,-0.008 0.0208,-0.0103 0.0302,-0.0162 -0.005,0.0151 0.0183,0.0317 0.1244,0.0344 0.14674,0.005 0.0678,0.1955 -0.006,0.32535 0.01,-0.0151 0.0199,-0.0283 0.0327,-0.0469 0.34626,-0.4887 -0.1088,0.50282 -0.12715,0.66884 -0.0182,0.16604 -0.0354,0.4342 -0.0475,0.64492 -0.0123,0.21073 0.19511,1.48143 0.21953,1.62183 0.0245,0.14048 -0.0111,0.21712 0.12897,0.31289 0.14044,0.0959 0.2926,0.25504 0.42079,0.38274 0.1282,0.12771 0.67732,0.57487 0.89097,0.76645 0.21368,0.19157 0.48256,0.44761 0.60466,0.63916 0.12209,0.19158 0.20729,0.35039 0.25612,0.51001 0.0487,0.15963 0.22623,0.65786 0.25065,0.78557 0.0245,0.12771 0.25629,0.44698 0.39061,0.64492 0.13429,0.19794 0.53126,0.49204 0.71441,0.59422 0.18313,0.10222 0.6407,0.43422 0.85436,0.60665 0.21368,0.17241 0.56131,0.38908 0.61016,0.42101 0.0487,0.0319 0.53162,0.34505 0.66593,0.39615 0.13429,0.051 0.34839,0.21983 0.3659,0.24875 0.0175,0.0291 -3.6e-4,0.27695 -0.0521,0.4124 -0.0518,0.13548 -0.20275,0.35671 -0.25888,0.43345 -0.0561,0.0767 -0.12996,0.0854 -0.17744,0.12153 -0.0474,0.0362 -0.0732,0.16936 -0.24425,0.50141 -0.17094,0.33205 -0.48832,0.45983 -0.63483,0.54922 -0.14652,0.0895 -0.45121,0.0765 -0.51227,0.0765 -0.061,0 -0.0368,0.0129 -0.098,0.11471 -0.0612,0.10222 -0.42707,0.29407 -0.53696,0.28132 -0.10979,-0.0129 -0.89161,-0.22992 -1.14797,-0.29376 -0.25642,-0.0639 -1.59993,-0.51598 -2.01429,-0.55211 -0.41439,-0.036 -0.75925,0.18012 -1.0355,0.36072 -0.27627,0.18062 -0.69108,0.68701 -0.89832,0.83151 -0.2072,0.14451 -0.1573,-0.13567 -0.51775,0.0355 -0.36045,0.1711 -1.00097,0.83126 -1.3117,1.37311 -0.1848,0.3222 -0.3242,1.27098 -0.67326,2.16152 -3.43206,-1.29003 -5.88004,-4.71992 -5.88004,-8.75994 0,-0.47241 0.0343,-0.93601 0.0987,-1.38938 1.18535,-0.55021 2.21364,-1.39463 2.22564,-1.39986 0.0153,-0.008 0.0375,-0.0178 0.0667,-0.0335 0.0294,-0.0157 2.49518,-2.60508 2.53658,-2.62846 0.0414,-0.0233 1.07171,-1.15947 1.1233,-1.18942 0.0517,-0.0299 0.76157,-0.55616 0.82145,-0.59131 0.0111,-0.008 0.0268,-0.009 0.0457,-0.008 z m 2.72496,0.0344 c 0.007,-0.0237 0.0745,-0.0416 0,0 z"
       inkscape:connector-curvature="0"
       style="color:#000000;fill:#0092da;fill-opacity:1;stroke-width:0.0914553"
       sodipodi:nodetypes="ccsccccccscccccccccsssscccccccccccsssccsssssscscccccccccc"
       id="path6899" />
  </g>
  <metadata
     id="metadata5">
    <rdf:RDF>
      <cc:Work>
        <dc:format>image/svg+xml</dc:format>
        <dc:type
           rdf:resource="http://purl.org/dc/dcmitype/StillImage" />
        <cc:license
           rdf:resource="http://creativecommons.org/publicdomain/zero/1.0/" />
        <dc:publisher>
          <cc:Agent
             rdf:about="http://openclipart.org/">
            <dc:title>Openclipart</dc:title>
          </cc:Agent>
        </dc:publisher>
        <dc:title></dc:title>
        <dc:date>2011-12-27T10:10:06</dc:date>
        <dc:description>Dog Head profile</dc:description>
        <dc:source>https://openclipart.org/detail/166603/dog-head-profile-by-printerkiller</dc:source>
        <dc:creator>
          <cc:Agent>
            <dc:title>PrinterKiller</dc:title>
          </cc:Agent>
        </dc:creator>
        <dc:subject>
          <rdf:Bag>
            <rdf:li>Dog Head profile silhouette</rdf:li>
          </rdf:Bag>
        </dc:subject>
      </cc:Work>
      <cc:License
         rdf:about="http://creativecommons.org/publicdomain/zero/1.0/">
        <cc:permits
           rdf:resource="http://creativecommons.org/ns#Reproduction" />
        <cc:permits
           rdf:resource="http://creativecommons.org/ns#Distribution" />
        <cc:permits
           rdf:resource="http://creativecommons.org/ns#DerivativeWorks" />
      </cc:License>
    </rdf:RDF>
  </metadata>
</svg>
