<?xml version="1.0" encoding="UTF-8" standalone="no"?>
<svg
   version="1.1"
   width="16"
   height="16"
   viewBox="0 0 16 16"
   id="svg2"
   sodipodi:docname="water_tower.svg"
   inkscape:version="1.4.4 (dcaf3e7d9e, 2026-05-05)"
   xmlns:inkscape="http://www.inkscape.org/namespaces/inkscape"
   xmlns:sodipodi="http://sodipodi.sourceforge.net/DTD/sodipodi-0.dtd"
   xmlns="http://www.w3.org/2000/svg"
   xmlns:svg="http://www.w3.org/2000/svg"
   xmlns:rdf="http://www.w3.org/1999/02/22-rdf-syntax-ns#"
   xmlns:cc="http://creativecommons.org/ns#"
   xmlns:dc="http://purl.org/dc/elements/1.1/">
  <sodipodi:namedview
     id="namedview1"
     pagecolor="#ffffff"
     bordercolor="#000000"
     borderopacity="0.25"
     inkscape:showpageshadow="2"
     inkscape:pageopacity="0.0"
     inkscape:pagecheckerboard="0"
     inkscape:deskcolor="#d1d1d1"
     inkscape:zoom="10.953125"
     inkscape:cx="5.2952924"
     inkscape:cy="19.309558"
     inkscape:window-width="1280"
     inkscape:window-height="952"
     inkscape:window-x="0"
     inkscape:window-y="0"
     inkscape:window-maximized="1"
     inkscape:current-layer="svg2" />
  <metadata
     id="metadata8">
    <rdf:RDF>
      <cc:Work
         rdf:about="">
        <dc:format>image/svg+xml</dc:format>
        <dc:type
           rdf:resource="http://purl.org/dc/dcmitype/StillImage" />
        <dc:title />
      </cc:Work>
    </rdf:RDF>
  </metadata>
  <defs
     id="defs6" />
  <rect
     width="16"
     height="16"
     x="0"
     y="0"
     id="canvas"
     style="fill:none;stroke:none;visibility:hidden" />
  <path
     d="M 2,0 V 3.5 C 2,4.9469172 2.7905512,5.9802716 3.90625,6.625 L 3,14 H 4.5 L 4.6875,12.53125 7,11 9.3125,12.5625 9.5,14 H 11 L 10.09375,6.65625 C 11.21821,6.0132746 12,4.9628112 12,3.5 V 0 h -1.5 v 2 h -7 V 0 Z m 3.34375,7.1875 c 1.069224,0.2671613 2.2426846,0.2935662 3.3125,0.03125 L 8.84375,8.78125 7,10 5.15625,8.78125 Z m -0.3125,2.5 L 6.25,10.5 4.8125,11.46875 Z m 3.9375,0 L 9.1875,11.46875 7.75,10.5 Z"
     id="water-tower"
     style="display:inline;fill:#555555;fill-opacity:1;stroke:#000000;stroke-width:0.2;stroke-dasharray:none;stroke-opacity:1"
     transform="translate(1,1)"
     sodipodi:nodetypes="cscccccccccscccccccccccccccccccc" />
  <path
     id="path4"
     style="display:inline;fill:#1d8ece;fill-opacity:1"
     inkscape:label="water"
     d="m 8,6.9 c 0.9960721,0 3.501627,0.00219 3.5,-2.4 v -2 H 11 C 9.8728814,3 9,3 8,2.5 7,2 6.0381356,2 5,2.5 H 4.5 v 2 c 0,2.3696911 2.5039279,2.4 3.5,2.4 z"
     sodipodi:nodetypes="zccscccsz" />
</svg>
