<?xml version="1.0" encoding="UTF-8" standalone="no"?>
<!-- Created with Inkscape (http://www.inkscape.org/) -->

<svg
   xmlns:dc="http://purl.org/dc/elements/1.1/"
   xmlns:cc="http://creativecommons.org/ns#"
   xmlns:rdf="http://www.w3.org/1999/02/22-rdf-syntax-ns#"
   xmlns:svg="http://www.w3.org/2000/svg"
   xmlns="http://www.w3.org/2000/svg"
   xmlns:sodipodi="http://sodipodi.sourceforge.net/DTD/sodipodi-0.dtd"
   xmlns:inkscape="http://www.inkscape.org/namespaces/inkscape"
   version="1.1"
   id="svg10"
   width="116"
   height="160"
   viewBox="0 0 116 160"
   sodipodi:docname="con2.svg"
   inkscape:version="0.92.3 (2405546, 2018-03-11)">
  <metadata
     id="metadata16">
    <rdf:RDF>
      <cc:Work
         rdf:about="">
        <dc:format>image/svg+xml</dc:format>
        <dc:type
           rdf:resource="http://purl.org/dc/dcmitype/StillImage" />
        <dc:title></dc:title>
      </cc:Work>
    </rdf:RDF>
  </metadata>
  <defs
     id="defs14" />
  <sodipodi:namedview
     pagecolor="#ffffff"
     bordercolor="#666666"
     borderopacity="1"
     objecttolerance="10"
     gridtolerance="10"
     guidetolerance="10"
     inkscape:pageopacity="0"
     inkscape:pageshadow="2"
     inkscape:window-width="1680"
     inkscape:window-height="987"
     id="namedview12"
     showgrid="true"
     inkscape:zoom="4.0180452"
     inkscape:cx="51.00161"
     inkscape:cy="95.842905"
     inkscape:window-x="-8"
     inkscape:window-y="-8"
     inkscape:window-maximized="1"
     inkscape:current-layer="svg10">
    <inkscape:grid
       type="xygrid"
       id="grid812" />
  </sodipodi:namedview>
  <rect
     style="fill:#ffffff;fill-opacity:1;stroke-width:1.00433838"
     id="rect814"
     width="116"
     height="160"
     x="0"
     y="0" />
  <path
     style="fill:#000000;stroke-width:0.23470268"
     d="m 96.254502,147.0479 c -14.458451,-5.01433 -22.955774,-7.46486 -29.706086,-8.5669 -2.642189,-0.43135 -4.089362,-0.5164 -8.688731,-0.51065 -4.888026,0.006 -5.907561,0.0764 -8.923569,0.61514 -7.076218,1.264 -13.736762,3.15771 -28.352526,8.06118 -5.196752,1.74347 -9.687893,3.13602 -9.980303,3.09456 -0.454026,-0.0644 -0.542053,-0.2368 -0.602869,-1.18085 -0.043347,-0.67309 3.288776,-21.13317 8.519266,-52.31016 4.724766,-28.16258 8.617854,-51.29568 8.6513,-51.40689 0.06808,-0.22637 4.27022,-2.02973 15.173954,-6.51194 4.05969,-1.66882 7.520504,-3.14967 7.6907,-3.29077 0.424374,-0.35181 0.43831,-5.19981 0.01592,-5.53576 -0.161447,-0.12841 -1.056325,-0.28534 -1.988615,-0.34873 -2.778118,-0.18892 -3.353788,-0.8374 -3.353788,-3.77796 0,-2.63769 0.585931,-3.1886 3.632353,-3.41522 l 1.886162,-0.14032 0.03274,-3.77972 c 0.04645,-5.36585 0.681025,-7.2649 2.621757,-7.84558 0.545977,-0.16336 2.494738,-0.23073 5.252684,-0.18158 4.302546,0.0767 4.396448,0.0891 5.013003,0.66458 1.418711,1.3241 1.612433,2.07765 1.748882,6.80266 l 0.125317,4.33964 1.846219,0.14973 c 1.292624,0.10483 2.031972,0.28827 2.465727,0.61175 0.602558,0.44939 0.619497,0.5312 0.619497,2.99171 0,2.42594 -0.02403,2.54754 -0.587072,2.96478 -0.352365,0.26113 -1.197329,0.49518 -2.113481,0.58542 -2.43262,0.23962 -2.374096,0.15794 -2.297172,3.20613 l 0.06627,2.62666 6.340434,2.51673 c 3.487233,1.38419 8.511768,3.4162 11.16563,4.51556 2.653862,1.09936 4.946029,1.99884 5.093711,1.99884 0.147671,0 0.32996,0.0993 0.405073,0.22073 0.124566,0.20132 8.116235,46.7766 13.626931,79.41737 1.24155,7.35392 2.72735,16.09706 3.30177,19.42919 0.57443,3.33213 1.04441,6.26138 1.04441,6.50944 0,0.34024 -0.15862,0.44637 -0.64578,0.43208 -0.35518,-0.0104 -4.45004,-1.3383 -9.099694,-2.95085 z m 2.491715,-17.96599 c 0.06687,-0.75457 -0.168264,-2.00151 -1.802731,-9.55892 -0.962643,-4.45105 -1.92031,-8.48095 -2.128148,-8.95531 -0.474539,-1.08306 -1.374062,-1.9258 -2.433571,-2.27992 -1.94799,-0.65107 -7.289402,-0.74871 -37.222636,-0.68043 l -30.527994,0.0696 -1.172432,0.58643 c -2.204932,1.10289 -2.411688,1.58019 -4.174074,9.63589 -2.234824,10.21511 -2.337366,11.42544 -0.940629,11.10221 0.358162,-0.0829 5.142333,-1.39798 10.631496,-2.92244 14.084062,-3.91144 17.239042,-4.63273 22.509926,-5.14626 3.165832,-0.30845 9.448342,-0.30202 12.127612,0.0124 4.872379,0.57178 11.83212,2.15907 19.490945,4.44524 0.904099,0.26987 2.54205,0.73778 3.639881,1.03979 3.357972,0.92378 9.504824,2.7459 9.608487,2.84826 0.252526,0.24936 2.369752,0.0755 2.393868,-0.1966 z M 29.679998,99.20242 c 0,-0.0809 -0.32922,-0.81514 -0.73159,-1.63158 -0.651412,-1.32178 -0.721509,-1.66242 -0.6397,-3.10874 0.07508,-1.32668 0.230613,-1.84724 0.848999,-2.84093 0.416415,-0.66913 0.757118,-1.31516 0.757118,-1.43561 0,-0.12511 -1.401493,-0.21899 -3.269416,-0.21899 h -3.269425 l -0.244978,0.76238 c -0.417016,1.29777 -1.44518,7.85269 -1.293604,8.24725 0.123084,0.32042 0.689283,0.37336 3.993006,0.37336 2.117276,0 3.84959,-0.0662 3.84959,-0.14714 z m 17.116688,-0.57034 c 0.347901,-0.57146 0.471066,-1.42715 0.605132,-4.20444 0.0926,-1.91783 0.09871,-3.70613 0.01361,-3.97402 -0.148843,-0.46847 -0.31083,-0.48705 -4.248456,-0.48705 -2.2677,0 -4.093717,0.0941 -4.093717,0.21101 0,0.11605 0.379445,0.77424 0.843212,1.46264 0.828827,1.23029 0.841771,1.28571 0.75853,3.24898 -0.07178,1.69233 -0.18258,2.14886 -0.725794,2.98961 -0.352615,0.54576 -0.641111,1.09994 -0.641111,1.23152 0,0.15197 1.286056,0.23923 3.525906,0.23923 h 3.525916 z m 29.253641,0.49703 c 0.07498,-0.12125 -0.209349,-0.71083 -0.631921,-1.31016 -0.727585,-1.03191 -0.76833,-1.19962 -0.76833,-3.16202 0,-1.96884 0.03894,-2.12748 0.779783,-3.17711 0.459642,-0.65123 0.693378,-1.19111 0.569322,-1.31503 -0.115756,-0.11563 -1.946088,-0.18114 -4.067408,-0.14558 l -3.856957,0.0647 -0.07678,1.64203 c -0.143327,3.06636 0.187925,6.3796 0.703259,7.03402 0.45746,0.58094 0.514172,0.58965 3.838467,0.58965 1.85578,0 3.435517,-0.0992 3.510539,-0.22045 z m 17.616976,-0.32686 c 0.327698,-0.4996 0.298987,-0.87917 -0.32934,-4.35318 -0.378594,-2.09323 -0.814831,-3.95811 -0.96942,-4.14419 -0.40234,-0.48425 -6.564009,-0.49849 -6.564009,-0.0152 0,0.17773 0.175262,0.46802 0.389466,0.64509 0.733592,0.60641 1.244041,2.13411 1.244041,3.72327 0,1.58916 -0.510449,3.11686 -1.244041,3.72327 -0.214204,0.17707 -0.389466,0.46736 -0.389466,0.64508 0,0.26099 0.721649,0.32314 3.751883,0.32314 3.671355,0 3.759582,-0.0118 4.110886,-0.54731 z m -61.40417,-16.4059 c 0,-0.16413 -0.299668,-0.66553 -0.665918,-1.11424 -0.881064,-1.07939 -1.212727,-2.11603 -1.212727,-3.79053 0,-1.62228 0.409849,-2.71673 1.527681,-4.0794 1.015511,-1.23796 0.944072,-1.27328 -2.574876,-1.27328 -2.001749,0 -2.720315,0.0815 -2.928622,0.33225 -0.292831,0.35245 -1.660126,7.71369 -1.660126,8.93777 0,0.39758 0.126809,0.84954 0.281798,1.00435 0.412972,0.41252 7.23279,0.39656 7.23279,-0.0169 z m 15.670697,0.005 c 0.37541,-0.47989 0.844533,-9.53536 0.514563,-9.93251 -0.214475,-0.25818 -1.07863,-0.33015 -3.963675,-0.33015 -2.029169,0 -3.755807,0.0663 -3.836976,0.1474 -0.08119,0.0811 0.205094,0.58249 0.636116,1.11424 1.413095,1.74333 1.610971,2.3481 1.503434,4.59493 -0.0911,1.90309 -0.148182,2.09031 -0.962252,3.15529 -0.475981,0.62271 -0.808094,1.22484 -0.738018,1.33809 0.209449,0.33854 6.577203,0.25734 6.846808,-0.0873 z m 26.364001,0.053 c 0,-0.13212 -0.369855,-0.77732 -0.821909,-1.43377 -0.779973,-1.13264 -0.821909,-1.29452 -0.821909,-3.17275 0,-2.17575 0.183731,-2.69634 1.512154,-4.28462 0.459963,-0.54994 0.7772,-1.09543 0.704951,-1.2122 -0.07228,-0.11676 -1.750114,-0.21229 -3.728608,-0.21229 -2.727623,0 -3.660663,0.0763 -3.85951,0.31565 -0.190729,0.22956 -0.199849,1.56435 -0.03344,4.89458 0.125818,2.51843 0.295033,4.75146 0.376021,4.9623 0.126499,0.32928 0.607334,0.38333 3.409769,0.38333 2.069653,0 3.262508,-0.0878 3.262508,-0.24023 z m 16.354585,-0.36488 c 0.376912,-0.57462 0.364508,-0.79631 -0.246009,-4.39828 -0.745415,-4.39784 -0.96888,-5.22533 -1.462219,-5.41444 -0.475841,-0.1824 -5.838615,-0.17872 -6.021665,0.004 -0.07829,0.0782 0.270355,0.66369 0.774747,1.3011 1.063703,1.34421 1.39964,2.36361 1.401462,4.2527 0.001,1.43324 -0.380596,2.61693 -1.166595,3.61507 -0.929106,1.17988 -0.77658,1.24482 2.923727,1.24482 3.395123,0 3.400158,-7e-4 3.796552,-0.60511 z M 34.68378,63.77815 c 0.08289,-0.0828 -0.252746,-0.63694 -0.745746,-1.23152 -1.105579,-1.33337 -1.440074,-2.27544 -1.440074,-4.05578 0,-1.51454 0.363537,-2.5917 1.279549,-3.79135 0.3295,-0.43154 0.599095,-0.90659 0.599095,-1.05568 0,-0.32415 -4.162682,-0.37887 -4.664461,-0.0613 -0.379144,0.23995 -1.965219,8.98487 -1.740193,9.59475 0.08109,0.21973 0.260765,0.47705 0.399347,0.57184 0.309508,0.2117 6.102944,0.23838 6.312483,0.0291 z M 48.990095,63.6066 c 0.437969,-0.4375 0.998081,-9.46365 0.615823,-9.92375 -0.344276,-0.41437 -6.540572,-0.45135 -6.540572,-0.039 0,0.14909 0.248522,0.59771 0.552274,0.99695 1.053802,1.38504 1.32637,2.17084 1.32637,3.82388 0,2.09896 -0.271467,2.9595 -1.288238,4.08372 -0.462656,0.51154 -0.778532,1.03137 -0.701948,1.15517 0.229581,0.37106 5.655004,0.28393 6.036291,-0.0969 z m 23.898755,0.0818 c 0,-0.13213 -0.366341,-0.77221 -0.81408,-1.4224 -0.961362,-1.39604 -1.168578,-2.30016 -1.002076,-4.37213 0.105275,-1.3101 0.261656,-1.72911 1.075646,-2.88208 0.523853,-0.74202 0.88715,-1.41435 0.807343,-1.49407 -0.07979,-0.0797 -1.488317,-0.14496 -3.130023,-0.14496 -2.337886,0 -3.046922,0.0746 -3.271017,0.34437 -0.349382,0.42052 -0.0892,9.45085 0.285733,9.91828 0.297895,0.37137 6.048474,0.42175 6.048474,0.053 z m 14.247351,0.0584 c 0.151205,-0.0961 0.343135,-0.44622 0.426516,-0.77808 0.175101,-0.6969 -1.203296,-8.85884 -1.570798,-9.30116 -0.327198,-0.39382 -4.414337,-0.41574 -4.414337,-0.0237 0,0.14909 0.248522,0.59771 0.552274,0.99695 1.124379,1.4778 1.32637,2.13382 1.32637,4.30775 0,2.05871 -0.01001,2.09352 -0.93256,3.32902 -0.51291,0.6867 -0.876538,1.33913 -0.808053,1.44981 0.152226,0.24604 5.036397,0.2635 5.420588,0.0194 z M 59.494232,34.37721 c 0.839798,-0.44896 0.948587,-1.49136 0.948587,-9.08913 v -7.37215 l -0.68643,-0.68567 c -0.606684,-0.60602 -0.850701,-0.68568 -2.100377,-0.68568 -1.155864,0 -1.534228,0.10329 -2.072837,0.56586 l -0.658881,0.56585 -0.06887,7.46833 c -0.03794,4.10758 -0.009,7.70851 0.06467,8.00208 0.271737,1.08571 0.939167,1.46013 2.602806,1.46013 0.848008,0 1.735118,-0.10333 1.971356,-0.22962 z"
     id="path20"
     inkscape:connector-curvature="0" />
</svg>
