<?xml version="1.0" encoding="UTF-8" standalone="no"?>
<!-- Generator: Adobe Illustrator 12.0.1, SVG Export Plug-In  -->

<svg
   xmlns:dc="http://purl.org/dc/elements/1.1/"
   xmlns:cc="http://creativecommons.org/ns#"
   xmlns:rdf="http://www.w3.org/1999/02/22-rdf-syntax-ns#"
   xmlns:svg="http://www.w3.org/2000/svg"
   xmlns="http://www.w3.org/2000/svg"
   xmlns:sodipodi="http://sodipodi.sourceforge.net/DTD/sodipodi-0.dtd"
   xmlns:inkscape="http://www.inkscape.org/namespaces/inkscape"
   version="1.1"
   width="242"
   height="201"
   viewBox="0 0 242 201"
   enable-background="new -0.999 -0.762 242 201"
   xml:space="preserve"
   id="svg2"
   sodipodi:version="0.32"
   inkscape:version="0.92.2 (5c3e80d, 2017-08-06)"
   sodipodi:docname="07.svg"
   inkscape:output_extension="org.inkscape.output.svg.inkscape"><metadata
     id="metadata13"><rdf:RDF><cc:Work
         rdf:about=""><dc:format>image/svg+xml</dc:format><dc:type
           rdf:resource="http://purl.org/dc/dcmitype/StillImage" /><cc:license
           rdf:resource="http://web.resource.org/cc/PublicDomain" /><dc:title></dc:title></cc:Work><cc:License
         rdf:about="http://web.resource.org/cc/PublicDomain"><cc:permits
           rdf:resource="http://web.resource.org/cc/Reproduction" /><cc:permits
           rdf:resource="http://web.resource.org/cc/Distribution" /><cc:permits
           rdf:resource="http://web.resource.org/cc/DerivativeWorks" /></cc:License></rdf:RDF></metadata><sodipodi:namedview
     inkscape:window-height="987"
     inkscape:window-width="1680"
     inkscape:pageshadow="2"
     inkscape:pageopacity="0.0"
     guidetolerance="10.0"
     gridtolerance="10.0"
     objecttolerance="10.0"
     borderopacity="1.0"
     bordercolor="#666666"
     pagecolor="#ffffff"
     id="base"
     inkscape:zoom="2.6525299"
     inkscape:cx="65.300013"
     inkscape:cy="54.88524"
     inkscape:window-x="-8"
     inkscape:window-y="-8"
     inkscape:current-layer="svg2"
     showgrid="true"
     inkscape:window-maximized="1"
     viewbox-y="0"><inkscape:grid
       type="xygrid"
       id="grid815" /></sodipodi:namedview><defs
     id="defs4" /><rect
     style="opacity:1;fill:#ffffff;fill-opacity:1;stroke:none;stroke-width:0.56699997;stroke-linecap:square;stroke-linejoin:miter;stroke-miterlimit:4;stroke-dasharray:none;stroke-dashoffset:0.60000002;stroke-opacity:1"
     id="rect4135"
     width="242"
     height="201"
     x="-0.99900001"
     y="-0.76200104" /><path
     d="m 110.986,16.235 c 0.19,-1.135 1.003,-0.555 1,0 5.629,4.227 10.699,6.611 14.999,11.999 3.592,4.501 5.255,11.669 9.998,16.998 10.464,11.755 30.485,16.537 45.995,14.998 20.54,-2.039 36.137,-19.938 34.995,-44.994 5.067,2.213 8.491,6.415 11.999,9.999 3.928,4.013 9.671,8.587 9.998,15.998 0.91,20.618 -16.083,38.689 -33.995,40.995 C 182.026,85.311 159.201,71.005 146.982,60.231 130.861,46.016 121.354,30.583 110.986,16.235 Z"
     id="path6"
     inkscape:connector-curvature="0"
     style="clip-rule:evenodd;fill-rule:evenodd" /><path
     d="m 3,150.219 c 2.805,0.054 4.575,3.17 6.999,4.999 9.039,6.821 22.579,14.199 36.996,17.998 17.655,4.652 36.553,7.108 47.994,-1 10.92,-7.739 18.344,-36.726 1,-44.994 -14.144,-6.742 -23.721,8.688 -40.995,5.999 -8.365,-1.302 -13.623,-10.226 -18.998,-15.998 -1.7,-1.825 -4.782,-2.416 -4,-4.999 14.481,1.53 25.146,-6.185 33.996,-11.999 9.448,-6.208 19.458,-12.739 17.998,-29.996 -15.978,-6.603 -35.603,-3.927 -52.993,1 -3.617,1.025 -7.16,3.218 -8.999,3 C 12.378,73.088 6.979,58.357 0,53.231 17.235,46.76 33.888,43.066 53.993,45.232 67.707,46.71 81.101,56.97 90.989,67.229 c 6.702,6.954 17.028,18.196 13.998,33.996 -0.283,1.474 -3.429,6.583 -5,8.999 -3.142,4.834 -8.12,6.287 -2,11.999 3.506,3.271 10.444,8.038 12.999,10.998 18.227,-10.652 33.155,-27.4 64.991,-24.997 18.981,1.434 29.198,9.2 39.995,19.998 9.822,9.822 24.543,21.432 23.997,34.995 -0.577,14.363 -16.154,9.334 -26.996,15.998 -7.012,4.31 -8.245,8.497 -9.999,18.998 -5.968,-3.053 -8.447,-5.448 -11.998,-8.999 -3.462,-3.462 -8.165,-7.629 -8.999,-11.998 -1.525,-7.986 3.029,-16.362 6.999,-18.998 8.864,-5.887 26.307,-1.535 28.996,-12.998 0.455,-1.941 0.129,-7.665 0,-7.999 -2.615,-6.788 -23.557,-7.864 -31.996,-6.999 -25.375,2.599 -44.457,19.428 -58.992,31.995 2.696,24.921 -8.729,38.687 -34.996,36.996 C 53.93,196.763 20.814,171.461 3,150.219 Z"
     id="path8"
     inkscape:connector-curvature="0"
     style="clip-rule:evenodd;fill-rule:evenodd" /><rect
     x="161.842"
     y="4.829"
     transform="matrix(0.7071,-0.7071,0.7071,0.7071,39.1583,127.513)"
     width="23.318001"
     height="23.318001"
     id="rect10"
     style="clip-rule:evenodd;fill-rule:evenodd" /></svg>