<?xml version="1.0" encoding="UTF-8" standalone="no"?>
<!-- Created with Inkscape (http://www.inkscape.org/) -->

<svg
   xmlns:dc="http://purl.org/dc/elements/1.1/"
   xmlns:cc="http://creativecommons.org/ns#"
   xmlns:rdf="http://www.w3.org/1999/02/22-rdf-syntax-ns#"
   xmlns:svg="http://www.w3.org/2000/svg"
   xmlns="http://www.w3.org/2000/svg"
   xmlns:sodipodi="http://sodipodi.sourceforge.net/DTD/sodipodi-0.dtd"
   xmlns:inkscape="http://www.inkscape.org/namespaces/inkscape"
   width="16"
   height="16"
   id="svg2"
   sodipodi:version="0.32"
   inkscape:version="0.91 r13725"
   version="1.0"
   sodipodi:docname="religion.svg"
   inkscape:output_extension="org.inkscape.output.svg.inkscape">
  <defs
     id="defs4" />
  <sodipodi:namedview
     id="base"
     pagecolor="#ffffff"
     bordercolor="#666666"
     borderopacity="1.0"
     gridtolerance="10000"
     guidetolerance="10"
     objecttolerance="10"
     inkscape:pageopacity="0.0"
     inkscape:pageshadow="2"
     inkscape:zoom="7.919596"
     inkscape:cx="-13.658852"
     inkscape:cy="5.9861113"
     inkscape:document-units="px"
     inkscape:current-layer="layer1"
     width="32px"
     height="32px"
     inkscape:window-width="1400"
     inkscape:window-height="960"
     inkscape:window-x="0"
     inkscape:window-y="56"
     showgrid="false"
     fit-margin-top="0"
     fit-margin-left="0"
     fit-margin-right="0"
     fit-margin-bottom="0"
     inkscape:window-maximized="0" />
  <metadata
     id="metadata7">
    <rdf:RDF>
      <cc:Work
         rdf:about="">
        <dc:format>image/svg+xml</dc:format>
        <dc:type
           rdf:resource="http://purl.org/dc/dcmitype/StillImage" />
        <cc:license
           rdf:resource="http://web.resource.org/cc/PublicDomain" />
        <dc:title></dc:title>
      </cc:Work>
      <cc:License
         rdf:about="http://web.resource.org/cc/PublicDomain">
        <cc:permits
           rdf:resource="http://web.resource.org/cc/Reproduction" />
        <cc:permits
           rdf:resource="http://web.resource.org/cc/Distribution" />
        <cc:permits
           rdf:resource="http://web.resource.org/cc/DerivativeWorks" />
      </cc:License>
    </rdf:RDF>
  </metadata>
  <g
     inkscape:label="Layer 1"
     inkscape:groupmode="layer"
     id="layer1"
     transform="translate(-8.0000007,-7.9999979)">
    <rect
       style="opacity:1;fill:#ffffff;fill-opacity:1;stroke:#ffffff;stroke-width:0.76310205;stroke-linecap:square;stroke-linejoin:miter;stroke-miterlimit:4;stroke-dasharray:none;stroke-dashoffset:0.60000002;stroke-opacity:1"
       id="rect4153"
       width="15.236898"
       height="15.236897"
       x="8.3815517"
       y="8.3815489" />
    <g
       id="g2212"
       transform="matrix(0.5,0,0,0.5,-3.5025378,2.107142)">
      <g
         id="g3385">
        <rect
           style="fill:#000000;fill-opacity:1;stroke:none;stroke-width:1;stroke-linecap:square;stroke-linejoin:miter;stroke-miterlimit:1;stroke-dasharray:none;stroke-dashoffset:18;stroke-opacity:1"
           id="rect3279"
           width="2.6737955"
           height="14.220004"
           x="30.11763"
           y="13.291089"
           transform="matrix(0.999933,-0.01157261,0.01157261,0.999933,0,0)" />
        <rect
           style="fill:#000000;fill-opacity:1;stroke:none;stroke-width:1;stroke-linecap:square;stroke-linejoin:miter;stroke-miterlimit:1;stroke-dasharray:none;stroke-dashoffset:18;stroke-opacity:1"
           id="rect3281"
           width="9.8616724"
           height="2.3008447"
           x="26.513855"
           y="16.258488"
           transform="matrix(0.9999009,-0.01408147,0.00951065,0.9999548,0,0)" />
      </g>
    </g>
    <path
       d="m 22.641972,11.284533 -0.850121,-0.178845 -0.447063,0.744874 -0.09263,-0.863775 -0.846577,-0.195024 0.792894,-0.355004 -0.07614,-0.8653937 0.582645,0.6443687 0.799512,-0.3398276 -0.432778,0.7532556 0.570253,0.655371 z"
       id="path273"
       style="font-size:12px;fill:#000000;fill-rule:evenodd;stroke-width:1pt"
       inkscape:connector-curvature="0" />
    <path
       d="m 22.962652,13.485344 c -0.754785,1.662901 -2.735362,2.389393 -4.403112,1.616759 -1.667734,-0.772619 -2.394211,-2.753212 -1.621577,-4.420946 0.394079,-0.8506319 1.038995,-1.4351973 1.949357,-1.7542384 -0.10471,0.088549 -0.20832,0.180399 -0.321861,0.2975662 -1.175995,1.2136302 -1.145441,3.1530402 0.06817,4.3290342 1.21363,1.175995 3.15304,1.145456 4.329019,-0.06818 z"
       id="path278"
       style="font-size:12px;fill:#000000;fill-rule:evenodd;stroke-width:1pt"
       inkscape:connector-curvature="0" />
    <g
       id="g3335"
       transform="matrix(0.03281411,0,0,0.03281411,8.4199517,16.488154)">
      <path
         id="path6"
         d="m 110.986,16.235 c 0.19,-1.135 1.003,-0.555 1,0 5.629,4.227 10.699,6.611 14.999,11.999 3.592,4.501 5.255,11.669 9.998,16.998 10.464,11.755 30.485,16.537 45.995,14.998 20.54,-2.039 36.137,-19.938 34.995,-44.994 5.067,2.213 8.491,6.415 11.999,9.999 3.928,4.013 9.671,8.587 9.998,15.998 0.91,20.618 -16.083,38.689 -33.995,40.995 C 182.026,85.311 159.201,71.005 146.982,60.231 130.861,46.016 121.354,30.583 110.986,16.235 Z"
         style="clip-rule:evenodd;fill-rule:evenodd"
         inkscape:connector-curvature="0" />
      <path
         id="path8"
         d="m 3,150.219 c 2.805,0.054 4.575,3.17 6.999,4.999 9.039,6.821 22.579,14.199 36.996,17.998 17.655,4.652 36.553,7.108 47.994,-1 10.92,-7.739 18.344,-36.726 1,-44.994 -14.144,-6.742 -23.721,8.688 -40.995,5.999 -8.365,-1.302 -13.623,-10.226 -18.998,-15.998 -1.7,-1.825 -4.782,-2.416 -4,-4.999 14.481,1.53 25.146,-6.185 33.996,-11.999 9.448,-6.208 19.458,-12.739 17.998,-29.996 -15.978,-6.603 -35.603,-3.927 -52.993,1 -3.617,1.025 -7.16,3.218 -8.999,3 C 12.378,73.088 6.979,58.357 0,53.231 17.235,46.76 33.888,43.066 53.993,45.232 67.707,46.71 81.101,56.97 90.989,67.229 c 6.702,6.954 17.028,18.196 13.998,33.996 -0.283,1.474 -3.429,6.583 -5,8.999 -3.142,4.834 -8.12,6.287 -2,11.999 3.506,3.271 10.444,8.038 12.999,10.998 18.227,-10.652 33.155,-27.4 64.991,-24.997 18.981,1.434 29.198,9.2 39.995,19.998 9.822,9.822 24.543,21.432 23.997,34.995 -0.577,14.363 -16.154,9.334 -26.996,15.998 -7.012,4.31 -8.245,8.497 -9.999,18.998 -5.968,-3.053 -8.447,-5.448 -11.998,-8.999 -3.462,-3.462 -8.165,-7.629 -8.999,-11.998 -1.525,-7.986 3.029,-16.362 6.999,-18.998 8.864,-5.887 26.307,-1.535 28.996,-12.998 0.455,-1.941 0.129,-7.665 0,-7.999 -2.615,-6.788 -23.557,-7.864 -31.996,-6.999 -25.375,2.599 -44.457,19.428 -58.992,31.995 2.696,24.921 -8.729,38.687 -34.996,36.996 C 53.93,196.763 20.814,171.461 3,150.219 Z"
         style="clip-rule:evenodd;fill-rule:evenodd"
         inkscape:connector-curvature="0" />
      <rect
         id="rect10"
         height="23.318001"
         width="23.318001"
         transform="matrix(0.7071,-0.7071,0.7071,0.7071,39.1583,127.513)"
         y="4.829"
         x="161.842"
         style="clip-rule:evenodd;fill-rule:evenodd" />
    </g>
    <g
       id="g2241"
       transform="matrix(0.08259935,0,0,0.08259935,2.5382167,-50.398616)">
      <path
         id="rect5307"
         style="fill:#000000;fill-opacity:1;stroke:none;stroke-width:10;stroke-linecap:round;stroke-linejoin:round;stroke-miterlimit:4;stroke-dasharray:none;stroke-dashoffset:0;stroke-opacity:1"
         d="m 211.42857,805.48945 -5.875,5.875 c -6.27886,0.96027 -12.06822,3.42601 -16.96875,7.03125 l -8.28125,0 0,8.34375 c -3.58176,4.88793 -6.04358,10.62131 -7,16.875 l -5.875,5.875 5.875,5.875 c 0.95642,6.25369 3.41824,12.01833 7,16.90625 l 0,8.34375 8.3125,0 c 4.89565,3.59612 10.66841,6.07247 16.9375,7.03125 l 5.875,5.875 5.875,-5.875 c 6.26909,-0.95878 12.04186,-3.43513 16.9375,-7.03125 l 8.3125,0 0,-8.28125 c 3.60291,-4.89928 6.07136,-10.69239 7.03125,-16.96875 l 0,-0.0312 5.84375,-5.84375 -5.84375,-5.84375 0,-0.0312 c -0.95989,-6.27636 -3.42834,-12.03822 -7.03125,-16.9375 l 0,-8.28125 -8.28125,0 c -4.90053,-3.60524 -10.68989,-6.07098 -16.96875,-7.03125 l -5.875,-5.875 z"
         inkscape:connector-curvature="0" />
      <path
         id="path5297"
         style="fill:#ffffff;fill-opacity:1;stroke:none;stroke-width:10;stroke-linecap:round;stroke-linejoin:round;stroke-miterlimit:4;stroke-dasharray:none;stroke-dashoffset:0;stroke-opacity:1"
         d="m 211.42857,814.73945 -3.6875,3.6875 c -5.85047,0.69051 -11.21864,3.00538 -15.625,6.46875 l -5.28125,0 0,5.25 c -3.46913,4.40373 -5.77234,9.77457 -6.46875,15.625 l -3.71875,3.71875 3.71875,3.71875 c 0.69193,5.86249 2.9935,11.21351 6.46875,15.625 l 0,5.25 5.25,0 c 4.41317,3.47863 9.79008,5.8079 15.65625,6.5 l 3.6875,3.6875 3.6875,-3.6875 c 5.86992,-0.6907 11.24067,-3.01946 15.65625,-6.5 l 5.25,0 0,-5.25 c 3.47837,-4.41284 5.77645,-9.75935 6.46875,-15.625 l 3.71875,-3.71875 -3.71875,-3.71875 c -0.69678,-5.85359 -2.9965,-11.21993 -6.46875,-15.625 l 0,-5.25 -5.28125,0 c -4.4088,-3.46529 -9.77074,-5.77965 -15.625,-6.46875 l -3.6875,-3.6875 z"
         inkscape:connector-curvature="0" />
      <path
         id="path5295"
         style="fill:#000000;fill-opacity:1;stroke:none;stroke-width:10;stroke-linecap:round;stroke-linejoin:round;stroke-miterlimit:4;stroke-dasharray:none;stroke-dashoffset:0;stroke-opacity:1"
         transform="matrix(3.5606061,0,0,3.5606061,50.995521,690.73749)"
         d="m 52.823528,44.588234 c 9.73e-4,4.289017 -3.475689,7.766468 -7.764705,7.766468 -4.289017,0 -7.765679,-3.477451 -7.764706,-7.766468 -9.73e-4,-4.289017 3.475689,-7.766468 7.764706,-7.766468 4.289016,0 7.765678,3.477451 7.764705,7.766468 z"
         inkscape:connector-curvature="0" />
      <path
         id="path5319"
         style="fill:none;fill-rule:evenodd;stroke:#ffffff;stroke-width:4;stroke-linecap:butt;stroke-linejoin:miter;stroke-miterlimit:4;stroke-dasharray:none;stroke-opacity:1"
         d="m 181.96166,849.49865 58.94117,0"
         inkscape:connector-curvature="0" />
      <path
         id="path5293"
         style="fill:#ffffff;fill-opacity:1;stroke:none;stroke-width:10;stroke-linecap:round;stroke-linejoin:round;stroke-miterlimit:4;stroke-dasharray:none;stroke-dashoffset:0;stroke-opacity:1"
         transform="matrix(1.5454546,0,0,1.5454546,141.79588,780.58955)"
         d="m 52.823528,44.588234 c 9.73e-4,4.289017 -3.475689,7.766468 -7.764705,7.766468 -4.289017,0 -7.765679,-3.477451 -7.764706,-7.766468 -9.73e-4,-4.289017 3.475689,-7.766468 7.764706,-7.766468 4.289016,0 7.765678,3.477451 7.764705,7.766468 z"
         inkscape:connector-curvature="0" />
      <path
         id="path5323"
         style="fill:none;fill-rule:evenodd;stroke:#ffffff;stroke-width:4;stroke-linecap:butt;stroke-linejoin:miter;stroke-miterlimit:4;stroke-dasharray:none;stroke-opacity:1"
         d="m 190.59339,828.6598 41.6777,41.67769"
         inkscape:connector-curvature="0" />
      <path
         id="path5317"
         style="fill:none;fill-rule:evenodd;stroke:#ffffff;stroke-width:4;stroke-linecap:butt;stroke-linejoin:miter;stroke-miterlimit:4;stroke-dasharray:none;stroke-opacity:1"
         d="m 211.43224,878.96923 0,-58.94118"
         inkscape:connector-curvature="0" />
      <path
         id="path5321"
         style="fill:none;fill-rule:evenodd;stroke:#ffffff;stroke-width:4;stroke-linecap:butt;stroke-linejoin:miter;stroke-miterlimit:4;stroke-dasharray:none;stroke-opacity:1"
         d="m 190.59339,870.33749 41.6777,-41.6777"
         inkscape:connector-curvature="0" />
      <path
         id="path5291"
         style="fill:#000000;fill-opacity:1;stroke:none;stroke-width:10;stroke-linecap:round;stroke-linejoin:round;stroke-miterlimit:4;stroke-dasharray:none;stroke-dashoffset:0;stroke-opacity:1"
         transform="translate(166.37342,804.9104)"
         d="m 52.823528,44.588234 c 9.73e-4,4.289017 -3.475689,7.766468 -7.764705,7.766468 -4.289017,0 -7.765679,-3.477451 -7.764706,-7.766468 -9.73e-4,-4.289017 3.475689,-7.766468 7.764706,-7.766468 4.289016,0 7.765678,3.477451 7.764705,7.766468 z"
         inkscape:connector-curvature="0" />
    </g>
  </g>
</svg>
