<?xml version="1.0" encoding="UTF-8" standalone="no"?>
<!-- Created with Inkscape (http://www.inkscape.org/) -->

<svg
   xmlns:dc="http://purl.org/dc/elements/1.1/"
   xmlns:cc="http://creativecommons.org/ns#"
   xmlns:rdf="http://www.w3.org/1999/02/22-rdf-syntax-ns#"
   xmlns:svg="http://www.w3.org/2000/svg"
   xmlns="http://www.w3.org/2000/svg"
   xmlns:sodipodi="http://sodipodi.sourceforge.net/DTD/sodipodi-0.dtd"
   xmlns:inkscape="http://www.inkscape.org/namespaces/inkscape"
   version="1.1"
   width="73%"
   height="100%"
   viewBox="0 0 272.83196 373.82317"
   id="svg2"
   inkscape:version="0.48.5 r10040"
   sodipodi:docname="30.svg">
  <sodipodi:namedview
     pagecolor="#ffffff"
     bordercolor="#666666"
     borderopacity="1"
     objecttolerance="10"
     gridtolerance="10"
     guidetolerance="10"
     inkscape:pageopacity="0"
     inkscape:pageshadow="2"
     inkscape:window-width="1680"
     inkscape:window-height="988"
     id="namedview11"
     showgrid="false"
     inkscape:zoom="2.5252581"
     inkscape:cx="53.270554"
     inkscape:cy="272.63461"
     inkscape:window-x="-8"
     inkscape:window-y="-8"
     inkscape:window-maximized="1"
     inkscape:current-layer="svg2"
     showguides="false" />
  <title
     id="title3924">Hotel has a casino</title>
  <defs
     id="defs25" />
  <path
     inkscape:connector-curvature="0"
     style="fill:#ffffff;fill-rule:evenodd"
     id="path127"
     d="M 32.344551,373.81427 C 14.444566,373.84771 0.05259428,359.41983 0.01660512,341.50894 L -4.3678e-5,341.4633 0.02881424,32.389577 C 0.02778757,14.424621 14.455235,0.03133824 32.357482,-1.8391e-5 L 240.46501,0.04956728 C 258.36724,0.01821204 272.80486,14.429535 272.79011,32.347081 l 0.0418,309.121839 c 0.001,17.96494 -14.4269,32.35692 -32.34574,32.34265 l -208.129564,0.0111 z" />
  <path
     inkscape:connector-curvature="0"
     style="fill:#ff0000;fill-rule:evenodd"
     id="path131"
     d="m 122.36392,119.93142 28.14385,-0.0363 -14.11474,-49.417165 -14.02911,49.453705 z m 34.77323,23.01259 -41.33333,-0.0905 -6.53008,22.67335 -26.646267,-0.0392 38.006617,-124.115479 31.56297,0.0091 38.02328,124.130789 -26.60858,0.0642 -6.47461,-22.6329 z" />
  <path
     inkscape:connector-curvature="0"
     style="fill:#ff0000;fill-rule:evenodd"
     id="path139"
     d="m 108.40674,209.70696 c -3.22172,0.0565 -6.77182,0.81704 -10.688583,2.61468 -42.717784,33.19441 14.882693,86.74844 39.161733,132.70968 l 0.73451,0.26565 c 26.71877,-50.28116 77.6009,-105.58036 38.70954,-132.99128 -30.76775,-13.99543 -38.98711,32.63384 -39.27381,34.33274 -0.27863,-1.49166 -6.526,-37.06043 -28.64339,-36.93147 z" />
</svg>
