<?xml version="1.0" encoding="UTF-8" standalone="no"?>
<!-- Created with Inkscape (http://www.inkscape.org/) -->

<svg
   xmlns:dc="http://purl.org/dc/elements/1.1/"
   xmlns:cc="http://creativecommons.org/ns#"
   xmlns:rdf="http://www.w3.org/1999/02/22-rdf-syntax-ns#"
   xmlns:svg="http://www.w3.org/2000/svg"
   xmlns="http://www.w3.org/2000/svg"
   xmlns:sodipodi="http://sodipodi.sourceforge.net/DTD/sodipodi-0.dtd"
   xmlns:inkscape="http://www.inkscape.org/namespaces/inkscape"
   width="160"
   height="150"
   viewBox="0 0 160 150"
   id="svg2"
   version="1.1"
   inkscape:version="0.92.2 (5c3e80d, 2017-08-06)"
   sodipodi:docname="03.svg">
  <defs
     id="defs4">
    <linearGradient
       id="linearGradient4213"
       y2="349.41"
       gradientUnits="userSpaceOnUse"
       x2="122.01"
       y1="121.23"
       x1="121.87"
       inkscape:collect="always"
       gradientTransform="matrix(0.352644,0,0,0.33963102,-2.9616951,924.45861)">
      <stop
         id="stop4209"
         style="stop-color:#ef8900"
         offset="0" />
      <stop
         id="stop4211"
         style="stop-color:#5d2500"
         offset="1" />
    </linearGradient>
    <linearGradient
       id="linearGradient4235"
       y2="117.64"
       gradientUnits="userSpaceOnUse"
       x2="160.42"
       y1="186.8"
       x1="113.13"
       inkscape:collect="always"
       gradientTransform="matrix(0.352644,0,0,0.33963102,-2.9616951,924.45861)">
      <stop
         id="stop4231"
         style="stop-color:#ff7f2a"
         offset="0" />
      <stop
         id="stop4233"
         style="stop-color:#813300;stop-opacity:0"
         offset="1" />
    </linearGradient>
    <radialGradient
       id="radialGradient4221"
       gradientUnits="userSpaceOnUse"
       cy="45.060001"
       cx="126.23"
       gradientTransform="matrix(0.61892548,2.144702e-8,0,0.59968649,-36.576078,918.94878)"
       r="117.84"
       inkscape:collect="always">
      <stop
         id="stop4217"
         style="stop-color:#ffffff"
         offset="0" />
      <stop
         id="stop4219"
         style="stop-color:#c5c5c5"
         offset="1" />
    </radialGradient>
  </defs>
  <sodipodi:namedview
     id="base"
     pagecolor="#ffffff"
     bordercolor="#666666"
     borderopacity="1.0"
     inkscape:pageopacity="0.0"
     inkscape:pageshadow="2"
     inkscape:zoom="2.1475606"
     inkscape:cx="94.503997"
     inkscape:cy="84.732035"
     inkscape:document-units="px"
     inkscape:current-layer="layer1"
     showgrid="true"
     units="px"
     inkscape:window-width="1680"
     inkscape:window-height="987"
     inkscape:window-x="-8"
     inkscape:window-y="-8"
     inkscape:window-maximized="1"
     viewbox-height="16">
    <inkscape:grid
       type="xygrid"
       id="grid4136"
       originx="0"
       originy="0"
       spacingx="1"
       spacingy="1" />
  </sodipodi:namedview>
  <metadata
     id="metadata7">
    <rdf:RDF>
      <cc:Work
         rdf:about="">
        <dc:format>image/svg+xml</dc:format>
        <dc:type
           rdf:resource="http://purl.org/dc/dcmitype/StillImage" />
        <dc:title></dc:title>
        <cc:license
           rdf:resource="http://creativecommons.org/publicdomain/zero/1.0/" />
      </cc:Work>
      <cc:License
         rdf:about="http://creativecommons.org/publicdomain/zero/1.0/">
        <cc:permits
           rdf:resource="http://creativecommons.org/ns#Reproduction" />
        <cc:permits
           rdf:resource="http://creativecommons.org/ns#Distribution" />
        <cc:permits
           rdf:resource="http://creativecommons.org/ns#DerivativeWorks" />
      </cc:License>
    </rdf:RDF>
  </metadata>
  <g
     inkscape:label="Layer 1"
     inkscape:groupmode="layer"
     id="layer1"
     transform="translate(0,-903.3622)">
    <path
       inkscape:connector-curvature="0"
       style="fill:url(#linearGradient4213);stroke:#000000;stroke-width:0.34607634px"
       d="m 19.916084,947.9461 c -6.886785,-0.01 -12.3242031,0.051 -12.8715061,0.2018 -1.459241,0.4014 -2.710775,1.8041 -2.710775,1.8041 0,0 0.629823,5.4208 1.046648,7.228 0.417178,1.8055 2.919539,39.3564 2.711127,42.1686 -0.208413,2.8121 0.824482,36.1367 0.407656,37.9436 -0.390729,1.6947 -0.779343,3.5627 -0.826597,3.4608 -0.01164,0.1291 -0.622417,6.9964 -0.209471,7.9915 0.417178,1.0019 24.1829151,4.816 35.2319571,4.4152 11.048337,-0.4008 33.35307,-2.8087 34.60143,-4.4152 1.251886,-1.6064 -1.251886,-9.8425 -0.41612,-10.8478 0.83224,-1.0053 2.288659,-1.6065 4.584372,-2.2076 2.292186,-0.6012 11.887629,-4.4118 14.391402,-6.2187 2.500246,-1.8068 8.128443,-11.2451 9.376803,-15.0626 1.25189,-3.814 4.37631,-12.6546 4.58437,-16.2683 0.20806,-3.6137 0.20806,-17.6642 -0.6277,-20.6767 -0.83224,-3.0092 -4.37279,-9.632 -6.87656,-10.8343 -2.500248,-1.2057 -20.640255,-2.4114 -20.640255,-2.4114 0,0 -1.244833,-0.8117 -1.244833,-2.0174 0,-1.2022 -24.392386,-13.0448 -30.020585,-13.647 -3.51586,-0.3767 -19.013506,-0.5913 -30.491363,-0.6052 z m 61.338898,24.2952 c -0.20806,0 15.847821,0.4075 18.348067,1.4094 2.503771,1.0053 2.295711,7.4244 2.503771,11.038 0.20806,3.6137 -0.21159,13.0487 -0.21159,16.0578 0,3.0125 -6.044313,16.2717 -7.920379,18.4793 -1.879593,2.2076 -4.372786,4.0111 -6.248852,6.0183 -1.876066,2.0072 -8.340031,1.6098 -10.008037,1.2091 -1.668006,-0.4008 -1.255412,-4.0213 -1.466999,-6.2289 -0.20806,-2.2076 1.466999,-36.7413 1.678586,-38.7485 0.20806,-2.0106 0.409067,-6.8266 3.325433,-9.2345 z"
       id="path4180" />
    <path
       inkscape:connector-curvature="0"
       style="fill:url(#linearGradient4235);stroke-width:0.34607634"
       d="m 8.0869939,968.0264 c 0,0 1.876207,-9.2355 4.1693101,-10.4402 2.293138,-1.2046 14.801174,-2.2085 17.30283,-1.6062 2.501586,0.6024 8.755446,5.2201 10.214686,6.8263 1.459277,1.6061 4.16931,11.8456 4.794548,14.6564 0.625414,2.8108 1.459276,13.6525 1.876207,14.6564 0.416931,1.0039 3.127,6.4248 6.045376,6.4248 2.918517,0 9.172623,-5.4208 10.423452,-7.6295 1.250793,-2.2085 1.459276,-4.6176 5.211725,-9.0348 3.752485,-4.4169 2.918517,-12.8496 4.377723,-14.6565 1.459276,-1.8069 0.416931,-3.0116 2.084655,-2.0077 1.667724,1.0039 2.501586,2.6101 3.752485,1.2047 1.250793,-1.4055 -5.420138,-11.645 -5.420138,-11.645 l -62.537888,-5.2197 -5.0019021,3.8147 c 0,0 2.084655,2.4093 2.293138,3.614 0.208466,1.2046 0.625414,11.2435 0.416931,11.0424 z"
       id="path4189" />
    <path
       inkscape:connector-curvature="0"
       style="fill:url(#radialGradient4221);stroke:#000000;stroke-width:0.34607634px"
       d="m 5.3769239,959.5934 c 0,0 0.833862,-5.8223 1.667724,-6.4248 0.833862,-0.6023 21.8889661,-2.4093 23.5566201,-2.2085 1.667724,0.2008 6.879379,2.8108 10.840276,2.8108 3.960898,0 5.836964,0.8031 7.296205,1.6062 1.459276,0.8031 3.127,3.4133 4.586135,3.8147 1.459276,0.4016 4.794548,2.4093 4.377723,3.8148 -0.416931,1.4054 -0.625379,7.4287 -0.416931,8.6334 0.208465,1.2046 1.042345,3.4133 1.042345,3.4133 0,0 0,1.6062 1.042345,2.0077 1.042345,0.4015 3.127,0.4015 3.127,-1.2046 0,-1.6062 -1.042345,-2.0078 -1.459276,-4.0155 -0.416931,-2.0077 -1.042345,-3.2124 0.416931,-6.0233 1.459276,-2.8109 1.459276,-3.614 2.918517,-4.4169 1.459276,-0.8031 1.667724,-2.2086 2.710069,-0.4016 1.042345,1.807 -0.208465,2.6101 1.876207,2.2085 2.084655,-0.4015 1.459276,-2.4092 3.960898,-2.0077 2.501586,0.4016 2.084655,0.6023 2.710069,2.4093 0.625414,1.8069 0,3.8147 2.084655,2.2085 2.084655,-1.6062 3.127,-3.4133 4.16931,-5.4209 1.042345,-2.0077 1.876207,-11.8456 -0.416931,-15.2589 -2.293138,-3.4133 -17.302831,-11.4442 -20.84655,-11.6449 -3.544073,-0.2008 -28.768345,-2.61007 -31.478414,-1.80698 -2.71007,0.80309 -10.631864,1.40538 -12.507931,2.40928 -1.876207,1.0039 -1.876207,3.2123 -3.335448,3.4133 -1.459276,0.2008 -3.7524841,0 -4.3777221,1.6062 -0.625414,1.6061 0.208465,0.6023 -2.293138,2.2085 -2.501604,1.6062 -3.960898,0.4015 -4.16931,3.2123 -0.208466,2.8109 1.459276,2.6101 -0.416931,3.6141 -1.876208,1.0038 -2.293139,1.0038 -1.459277,3.4132 0.833862,2.4093 3.544073,8.4324 3.544073,8.4324 l 1.250793,-0.4015 z"
       id="path4182" />
    <path
       inkscape:connector-curvature="0"
       style="fill:#ffffff;stroke:#000000;stroke-width:0.34607634px"
       d="m 6.4193399,956.783 0.833862,6.224 c 0,0 3.7524851,55.2138 3.3354481,58.8275 -0.416931,3.614 -1.6677241,13.2511 -0.416931,14.8572 1.250793,1.6062 1.250793,3.2123 2.084655,3.4133 0.833862,0.2008 7.504617,2.4092 12.50793,2.2085 5.003313,-0.2008 30.852824,0 35.022487,-0.6023 4.16931,-0.6023 9.589448,-1.4055 12.091104,-2.4093 2.501587,-1.0039 2.71007,-1.6062 3.544073,-0.6024 0.833862,1.0039 2.084655,4.2162 1.250793,4.8187 -0.833862,0.6024 -10.006274,4.4169 -13.550346,3.8148 -3.544072,-0.6024 -20.638138,-1.6062 -26.058276,-1.6062 -5.420138,0 -12.091105,1.0039 -16.468827,0 -4.377723,-1.0039 -8.338621,-0.8031 -9.381036,-1.4054 -1.042345,-0.6024 -2.9185171,-3.4133 -2.7100691,-4.2162 0.208465,-0.8031 0.833862,-4.0155 0.833862,-4.0155 0,0 -0.416931,-25.0967 -0.416931,-26.3013 0,-1.2047 -1.042346,-26.3014 -1.042346,-26.3014 l -1.876207,-24.2935 0.416931,-2.4092 z"
       id="path4184" />
    <path
       inkscape:connector-curvature="0"
       style="fill:#803300;stroke-width:0.34607634"
       d="m 75.420487,967.0211 c 0,0 0,11.8457 0.208465,15.8611 0.208466,4.0155 -0.833862,26.5021 -1.459276,29.1122 -0.625414,2.6101 -0.416931,4.0155 0,6.2241 0.416931,2.2085 0,2.8108 0,2.8108 0,0 1.250793,-7.4288 1.459276,-9.2356 0.208466,-1.807 1.250793,-27.3053 1.459276,-28.9114 0.208469,-1.6062 1.667724,-7.027 2.084655,-9.0349 0.416931,-2.0077 1.042345,-3.0116 0,-4.4169 -1.042345,-1.4054 -0.416931,-0.8031 -1.667724,-1.6062 -1.250793,-0.8031 -2.084655,0 -2.084655,-0.8031 z"
       id="path4191" />
    <path
       inkscape:connector-curvature="0"
       style="fill:#803300;stroke-width:0.34607634"
       d="m 9.9630599,961.801 c 0.6254141,2.6101 1.4592761,36.7413 1.6677241,39.1493 0.208465,2.4092 1.250793,12.6489 0.833862,15.6604 -0.416931,3.0116 -0.625414,3.614 -1.042345,4.6176 -0.416931,1.0039 -0.625415,-3.8148 -0.625415,-3.8148 0,0 -2.7100691,-35.1348 -2.2931381,-36.5409 0.416931,-1.4054 -0.833862,-13.6524 -0.208465,-15.2589 0.625414,-1.6062 1.459276,-4.2162 1.667724,-3.8147 z"
       id="path4193" />
    <path
       inkscape:connector-curvature="0"
       style="fill:#000000;fill-opacity:0.43819999;stroke-width:0.34607634"
       d="m 12.881894,1032.0741 c 1.042345,2.4092 1.459276,4.0154 3.544072,4.2161 2.084655,0.2008 19.178897,1.2047 23.348207,1.2047 4.16931,0 24.599035,0 27.517517,-2.0078 2.918517,-2.0077 3.960897,-1.2046 5.003313,-4.8186 1.042345,-3.6141 1.667724,-8.031 0.833862,-9.4363 -0.833862,-1.4055 2.084655,3.4132 2.084655,6.224 0,2.8109 -1.459276,4.6177 -3.335448,7.4288 -1.876207,2.8108 -4.586135,4.2162 -8.547033,4.2162 -3.960897,0 -8.547033,0.6023 -11.465514,0.2008 -2.918517,-0.4016 -5.003314,-0.8031 -8.964211,0.2007 -3.960897,1.0039 -18.762071,-0.2007 -22.722969,-0.8031 -3.960897,-0.6023 -7.087792,0.6024 -8.130207,-2.0077 -1.042345,-2.6101 -0.833862,-5.8223 0,-7.8302 0.833862,-2.0077 2.084655,-5.2201 2.084655,-5.2201 l -1.250793,8.4323 z"
       id="path4195" />
    <path
       inkscape:connector-curvature="0"
       style="fill:#ffffff;fill-opacity:0.71535998;stroke-width:0.34607634"
       d="m 12.881894,960.7991 c 0.625414,2.6101 3.335448,11.4442 3.127,14.4557 -0.208465,3.0116 -0.416931,12.4478 -0.833862,16.8651 -0.416931,4.4169 -1.667724,10.8417 -1.042345,16.6643 0.625414,5.8223 1.459276,7.8302 0.416931,10.0388 -1.042345,2.2085 -2.501586,5.4209 -2.501586,5.4209 0,0 5.836964,-7.4288 6.254141,-9.2356 0.416931,-1.807 -1.459276,-10.4403 -1.042345,-14.8572 0.416931,-4.4169 1.042345,-14.4557 1.876207,-19.2744 0.833862,-4.8187 1.250793,-9.0348 0.208466,-13.4517 -1.042328,-4.4169 -6.254141,-7.2277 -6.462554,-6.6256 z"
       id="path4197" />
    <path
       inkscape:connector-curvature="0"
       d="m 80.551457,962.9863 c 0,-1.2046 0.912854,9.2546 0.704406,9.2546 -0.01298,-0.3138 16.10772,0.2822 18.609024,1.2861 2.501583,1.0039 2.293103,7.675 2.501583,11.289 0.20847,3.614 -0.20938,12.8584 -0.20938,15.8699 0,3.0116 -5.982252,16.2069 -7.858318,18.4152 -1.876207,2.2085 -4.567798,4.261 -6.443864,6.2689 -1.876207,2.0077 -8.664463,1.6742 -10.332116,1.2727 -1.667724,-0.4016 1.584041,9.4594 3.87732,8.8572 2.293138,-0.6023 11.890804,-4.4753 14.392107,-6.2821 2.501586,-1.807 7.931671,-11.1202 9.182501,-14.935 1.25079,-3.8147 4.44119,-12.531 4.64961,-16.145 0.20846,-3.614 0.27088,-17.6635 -0.56296,-20.675 -0.83387,-3.0117 -4.50538,-9.5692 -7.00704,-10.7735 -2.501585,-1.2046 -20.22378,-2.2712 -20.22378,-2.2712 0,0 -1.279499,-0.7288 -1.279499,-1.4315 z"
       style="fill:#afafaf;fill-opacity:1;stroke-width:0.34607634"
       sodipodi:nodetypes="ccsssssccssssscc"
       id="path4223" />
    <path
       inkscape:connector-curvature="0"
       style="fill:#000000;stroke:#000000;stroke-width:0.34607634px"
       d="m 80.322238,963.1086 c 0,0 0.729621,1.7568 0.885983,2.61 0.156348,0.8533 0.469052,3.6643 0.36481,4.5677 -0.104231,0.9035 0.208466,1.807 -0.156348,1.8572 -0.36481,0.05 -0.416931,-0.7529 -0.416931,-1.3552 0,-0.6023 -0.104231,-3.112 -0.312696,-3.9652 -0.208469,-0.8533 -0.260583,-1.4556 -0.416931,-2.0579 -0.156349,-0.6023 0.208465,-1.7568 0.05212,-1.6564 z"
       id="path4225" />
    <g
       id="g4184"
       transform="matrix(0,-0.19917862,0.20681017,0,129.93908,1041.2595)">
      <path
         sodipodi:nodetypes="scccccccccccssccccccccccccccsscccsscccs"
         inkscape:connector-curvature="0"
         id="path7219"
         d="m 363.50588,-211.37402 c -20.77687,0.25561 -41.59817,5.17326 -60.83197,14.93463 -0.21623,0.0997 -0.41765,0.21597 -0.63307,0.31653 -0.2841,0.14603 -0.57989,0.25469 -0.86327,0.40286 v 0.0288 c -81.29386,38.60382 -104.5705,140.660016 -66.78856,215.875806 52.47328,109.813984 186.72378,147.358044 294.31852,112.685914 98.6607,-27.23883 180.9134,-124.3618142 160.4825,-234.0621 -0.1271,-0.6821 -0.2103,-1.36002 -0.3453,-2.04308 h -0.0576 c -11.4993,-76.23032 -89.7178,-121.98495 -161.7486,-104.05318 -25.8922,6.44706 -48.95515,17.16081 -69.55099,30.84763 -26.28449,-23.31273 -60.01645,-35.35166 -93.98166,-34.93381 z m 192.88395,67.53673 c 30.8758,-0.76525 62.1351,21.09489 66.2131,51.566176 l 0.1439,1.03593 0.2014,1.03592 c 13.6241,68.93394 -45.366,139.92654 -113.4629,158.72715 l -0.6906,0.20143 -0.6906,0.20143 C 430.5032,93.937426 329.81195,64.046206 294.73179,-9.3681242 l -0.14387,-0.28776 -0.14388,-0.31653 C 272.9407,-52.780984 287.80214,-115.61896 330.78783,-135.43476 l 0.74817,-0.34531 0.74817,-0.40286 c 22.75529,-11.89809 52.58344,-9.5999 73.92495,4.71922 -33.37094,37.134786 -57.88742,81.806516 -76.45722,123.3329458 -5.15425,10.99582 -3.97252,23.9174102 3.09076,33.7959002 7.06329,9.87849 18.90828,15.17566 30.98011,13.85455 12.07184,-1.32112 22.49077,-9.0548 27.2503,-20.22715 17.28827,-38.66061 39.11657,-76.51747 66.21304,-106.29768 24.9352,26.53609 46.97721,55.79906 58.58701,89.6464998 3.761,11.5254102 11.13891,22.0480602 23.02561,24.4328202 11.8867,2.38475 24.1361,-1.82045 32.0517,-11.00326 7.9155,-9.1828102 10.269,-21.9183402 6.158,-33.3236 -14.3671,-41.88613 -37.6876,-79.70859 -67.0188,-111.880186 10.4991,-5.56489 21.5096,-10.04359 33.1785,-12.9491 4.3147,-1.07412 8.7109,-1.646 13.1217,-1.75532 z"
         style="opacity:1;fill:#ffffff;fill-opacity:1;fill-rule:evenodd;stroke:none;stroke-width:72.95391083;stroke-linecap:round;stroke-linejoin:miter;stroke-miterlimit:4;stroke-dasharray:none;stroke-opacity:1" />
      <g
         transform="matrix(1.3973279,-0.2437849,0.2437849,1.3973279,-22.099611,-388.11715)"
         id="g3338" />
      <path
         inkscape:connector-curvature="0"
         sodipodi:nodetypes="ccsccccsccccccccssccsccsccsccccccssccsccsccsccsccsccsccccccsscccssccssccccccccccccccsccsccssccsccsccsccsccsccccccssccsccccssccsccccssccsccsccsccccsccsccsccccssccsccccssccccccssccsccsccsccccccssccsc"
         id="path7165"
         d="m 363.50589,-211.37402 c -20.77687,0.25561 -41.59817,5.17326 -60.83197,14.93463 -0.21623,0.0997 -0.41765,0.21597 -0.63307,0.31653 -0.2841,0.14604 -0.57989,0.25469 -0.86327,0.40286 v 0.0288 C 219.88371,-157.0874 196.60707,-55.031194 234.38902,20.184606 286.8623,129.99858 421.1128,167.54264 528.70758,132.87052 627.36824,105.63169 709.6209,8.5086958 689.19004,-101.19159 c -0.12703,-0.6821 -0.2103,-1.36002 -0.34531,-2.04308 h -0.0575 c -11.4994,-76.23033 -89.71793,-121.98496 -161.74864,-104.05319 -25.89224,6.44706 -48.9552,17.16081 -69.55104,30.84764 -26.28449,-23.31272 -60.01645,-35.35165 -93.98166,-34.9338 z m 199.3873,19.3661 c 2.5641,-0.1804 4.97991,1.45625 5.69761,4.0286 l 5.6976,20.37325 c 0.0378,0.11924 0.0855,0.25255 0.1151,0.37408 0.72046,2.96781 -1.11836,5.95551 -4.08616,6.67598 -2.9678,0.72046 -5.95552,-1.11834 -6.67598,-4.08616 l -5.6976,-20.37323 c -0.82022,-2.93984 0.88735,-5.97087 3.82718,-6.79109 0.36748,-0.10253 0.75595,-0.17566 1.12225,-0.20143 z m -160.10837,12.86277 c 3.05134,-0.12714 5.62801,2.24338 5.75515,5.29474 0.12714,3.05134 -2.24339,5.628 -5.29474,5.75515 l -21.09264,1.61145 c -3.0434,0.23043 -5.69737,-2.04993 -5.92781,-5.09332 -0.23043,-3.0434 2.04991,-5.69738 5.09331,-5.92781 l 21.09264,-1.61144 c 0.12433,-0.0138 0.2491,-0.0234 0.37409,-0.0288 z m -102.47052,10.3305 c 0.36714,0.007 0.72135,0.0598 1.09348,0.14388 l 20.66101,4.6329 c 0.12291,0.0233 0.22425,0.0548 0.3453,0.0863 2.9544,0.77359 4.74466,3.8079 3.97106,6.7623 -0.77358,2.9544 -3.80791,4.71588 -6.7623,3.94229 l -20.63223,-4.66169 c -2.9771,-0.6725 -4.84499,-3.61254 -4.17249,-6.58964 0.58846,-2.60496 2.92626,-4.3686 5.49617,-4.31637 z m 195.32992,6.10046 c 1.7751,0.0107 3.51635,0.88669 4.57535,2.47473 1.6944,2.54084 1.01574,5.95994 -1.52512,7.65434 l -17.20791,12.3448 c -2.48037,1.77853 -5.90459,1.21426 -7.68313,-1.26612 -1.7785,-2.48039 -1.21423,-5.93339 1.26614,-7.71192 l 17.17913,-12.34479 c 0.099,-0.0764 0.18378,-0.13192 0.28776,-0.20144 0.95282,-0.6354 2.04272,-0.95601 3.10778,-0.9496 z m 152.10872,12.74766 c 3.05134,-0.12713 5.62801,2.2434 5.75515,5.29475 0.12714,3.05134 -2.2434,5.62801 -5.29474,5.75515 l -21.09264,1.61144 c -3.0434,0.23044 -5.69737,-2.04991 -5.92781,-5.09331 -0.23043,-3.0434 2.04991,-5.69737 5.09331,-5.92781 l 21.09264,-1.61144 c 0.12433,-0.0138 0.2491,-0.0234 0.37409,-0.0288 z m -282.83703,6.12924 c 14.60579,0.0603 29.28863,4.31908 41.29322,12.37358 -33.37094,37.134796 -61.88741,89.806526 -80.45721,131.3329558 -5.15426,10.9958202 -3.98428,23.9042602 3.079,33.7827502 7.06329,9.87849 18.91967,15.19103 30.99151,13.86992 12.07182,-1.32111 22.49112,-9.05702 27.25065,-20.22936 17.28827,-38.66062 43.11657,-84.51748 70.21304,-114.29769 24.93521,26.53609 52.67562,69.71705 64.28541,103.56449 3.76101,11.52541 13.43599,20.1179 25.32267,22.50265 11.8867,2.38476 24.14064,-1.80953 32.05621,-10.99234 7.91558,-9.18281 10.26904,-21.9170802 6.15801,-33.3223402 -14.36708,-41.8861298 -45.68757,-91.7085798 -75.01876,-123.8801958 10.49903,-5.56489 21.50958,-10.04359 33.17846,-12.94909 4.31468,-1.07413 8.71093,-1.64601 13.12175,-1.75533 30.87576,-0.76525 62.13512,21.09489 66.21304,51.566186 l 0.14388,1.03593 0.20143,1.03593 c 13.62415,68.93393 -45.36597,139.92653 -113.46285,158.72714 l -0.69062,0.20143 -0.69062,0.20143 C 430.50321,93.937436 329.81196,64.046226 294.73181,-9.3681142 l -0.14388,-0.28776 -0.14388,-0.31653 C 272.94071,-52.780974 287.80215,-115.61896 330.78784,-135.43475 l 0.74817,-0.34532 0.74817,-0.40286 c 9.95544,-5.2054 21.27166,-7.70129 32.63173,-7.65436 z m -98.87354,37.0632 c 1.7027,0.0729 3.35463,0.94623 4.37391,2.47472 1.6944,2.54084 1.01574,5.988726 -1.52511,7.683126 l -17.17914,12.3448 c -2.48037,1.77852 -5.93339,1.18547 -7.71191,-1.2949 -1.77851,-2.48038 -1.21424,-5.93339 1.26614,-7.71191 l 17.17913,-12.316026 c 0.099,-0.0764 0.21254,-0.16068 0.31654,-0.23021 0.79401,-0.5295 1.67302,-0.84023 2.56104,-0.92082 0.24421,-0.0222 0.47615,-0.0392 0.7194,-0.0288 z m 254.06126,17.294236 c 2.35724,0.023 4.52338,1.56579 5.23719,3.94228 0.87855,2.92489 -0.78717,6.02765 -3.71208,6.90619 l -20.02793,6.7623 c -2.89164,0.97666 -6.04463,-0.56145 -7.02129,-3.45309 -0.97665,-2.89163 0.59024,-6.01585 3.48187,-6.99251 l 20.02793,-6.79108 c 0.11703,-0.0442 0.22556,-0.079 0.34531,-0.11511 0.54842,-0.16472 1.12502,-0.26428 1.669,-0.25898 z m -101.83745,3.25166 c 3.05135,-0.12714 5.62802,2.24339 5.75515,5.29474 0.12714,3.05135 -2.24339,5.62801 -5.29474,5.75516 l -21.09264,1.61144 c -3.04339,0.23044 -5.69737,-2.04992 -5.9278,-5.09331 -0.23044,-3.0434 2.04991,-5.69738 5.09331,-5.92781 l 21.09264,-1.61144 c 0.12433,-0.0138 0.2491,-0.0234 0.37408,-0.0288 z m 232.91107,2.18696 c 1.06415,-0.0243 2.14499,0.27318 3.10779,0.89205 l 17.8122,11.42398 c 0.10754,0.0639 0.21359,0.13036 0.31653,0.20143 2.51155,1.73753 3.14753,5.17158 1.41001,7.68313 -1.73753,2.51155 -5.20036,3.14754 -7.7119,1.41001 l -17.78343,-11.42398 c -2.56746,-1.65031 -3.31929,-5.08688 -1.66899,-7.65435 1.03144,-1.60467 2.74421,-2.4917 4.51779,-2.53227 z m -115.99512,56.86092 c 0.36713,0.007 0.72135,0.0598 1.09348,0.14388 l 20.63222,4.66167 c 0.12292,0.0233 0.25304,0.026 0.37409,0.0575 2.95439,0.7736 4.71587,3.80793 3.94228,6.76231 -0.77358,2.95439 -3.77913,4.71588 -6.73353,3.94228 l -20.63223,-4.6329 c -2.9771,-0.6725 -4.84498,-3.64133 -4.17248,-6.61842 0.58845,-2.60497 2.92627,-4.36859 5.49617,-4.31637 z m -175.81995,4.8631 c 1.06415,-0.0243 2.14499,0.24441 3.10779,0.86328 l 17.8122,11.42398 c 0.10754,0.0639 0.21357,0.1303798 0.31653,0.2014298 2.51155,1.73753 3.11877,5.20036 1.38124,7.7119 -1.73754,2.51155 -5.17158,3.14754 -7.68313,1.41002 l -17.8122,-11.4527598 c -2.56747,-1.65031 -3.29053,-5.05811 -1.64022,-7.62558 1.03144,-1.60466 2.74421,-2.49169 4.51779,-2.53227 z m -92.83063,1.26614 c 3.05135,-0.12714 5.62802,2.24339 5.75516,5.29474 0.12714,3.05135 -2.2434,5.62802 -5.29474,5.75515 l -21.09264,1.6114498 c -3.0434,0.23043 -5.69737,-2.0499198 -5.92781,-5.0933098 -0.23044,-3.0434 2.04991,-5.69738 5.09331,-5.92781 l 21.09264,-1.61145 c 0.12433,-0.0138 0.2491,-0.0234 0.37408,-0.0288 z m 382.97671,13.6972598 c 1.7751,0.0107 3.51635,0.88669 4.57535,2.47472 1.6944,2.54084 0.98696,5.95996 -1.5539,7.65436 L 635.35058,15.120066 c -2.48038,1.77852 -5.93339,1.21425 -7.71191,-1.26613 -1.77851,-2.48038 -1.21425,-5.9333902 1.26614,-7.7119102 l 17.20791,-12.3448 c 0.099,-0.0764 0.18376,-0.13191 0.28776,-0.20144 0.95282,-0.63539 2.04272,-0.956 3.10778,-0.9496 z M 288.68889,29.766936 c 2.35488,0.0694 4.48444,1.66876 5.15087,4.05738 l 5.6976,20.37324 c 0.0378,0.11924 0.0855,0.22378 0.1151,0.34531 0.72046,2.9678 -1.11837,5.95551 -4.08616,6.67598 -2.9678,0.72046 -5.95552,-1.08959 -6.67598,-4.05738 l -5.6976,-20.37325 c -0.82022,-2.93983 0.91612,-5.99962 3.85596,-6.81985 0.55121,-0.15379 1.09678,-0.21745 1.64021,-0.20143 z m 305.71377,12.60378 c 3.04913,-0.13494 5.62021,2.24562 5.75515,5.29474 l 0.94961,21.12142 c 0.01,0.12471 0.0273,0.24899 0.0288,0.37408 0.0315,3.05384 -2.44234,5.55107 -5.49617,5.5825 -3.05383,0.0315 -5.55104,-2.41356 -5.5825,-5.46739 l -0.9496,-21.12142 c -0.13495,-3.04912 2.24561,-5.64898 5.29474,-5.78393 z m -250.63694,42.07018 c 0.36713,0.007 0.75012,0.0598 1.12225,0.14388 l 20.63223,4.66167 c 0.12291,0.0233 0.25303,0.0548 0.37408,0.0863 2.95439,0.77359 4.71588,3.77914 3.94228,6.73353 -0.77358,2.95439 -3.80791,4.715884 -6.7623,3.942284 l -20.63223,-4.632904 c -2.9771,-0.67251 -4.84499,-3.64134 -4.17249,-6.61843 0.58846,-2.60496 2.92626,-4.36858 5.49618,-4.31636 z m 192.9703,9.43845 c 3.05135,-0.12714 5.62801,2.24339 5.75515,5.29474 0.12714,3.051354 -2.2434,5.628024 -5.29474,5.755154 l -21.09264,1.61145 c -3.04339,0.23043 -5.69738,-2.04991 -5.9278,-5.09331 -0.23044,-3.043404 2.0499,-5.697384 5.09331,-5.927814 l 21.09264,-1.61145 c 0.12433,-0.0138 0.24909,-0.0234 0.37408,-0.0288 z m -111.07447,5.35229 c 1.06415,-0.0243 2.14498,0.24441 3.10779,0.863284 l 17.8122,11.42398 c 0.10754,0.0639 0.21358,0.13037 0.31653,0.20143 2.51155,1.73753 3.11877,5.20035 1.38124,7.7119 -1.73753,2.51155 -5.17157,3.14754 -7.68313,1.41001 l -17.8122,-11.45275 c -2.56747,-1.65031 -3.29053,-5.05811 -1.64022,-7.62558 1.03144,-1.60467 2.74421,-2.491704 4.51779,-2.532274 z"
         style="fill:#d45500;fill-opacity:1;fill-rule:evenodd;stroke:none;stroke-width:72.95391083;stroke-linecap:round;stroke-linejoin:miter;stroke-miterlimit:4;stroke-dasharray:none;stroke-opacity:1" />
    </g>
  </g>
</svg>
