<?xml version="1.0" encoding="UTF-8" standalone="no"?>
<!-- Created with Inkscape (http://www.inkscape.org/) -->

<svg
   xmlns:dc="http://purl.org/dc/elements/1.1/"
   xmlns:cc="http://creativecommons.org/ns#"
   xmlns:rdf="http://www.w3.org/1999/02/22-rdf-syntax-ns#"
   xmlns:svg="http://www.w3.org/2000/svg"
   xmlns="http://www.w3.org/2000/svg"
   xmlns:sodipodi="http://sodipodi.sourceforge.net/DTD/sodipodi-0.dtd"
   xmlns:inkscape="http://www.inkscape.org/namespaces/inkscape"
   version="1.1"
   width="16"
   height="15"
   viewBox="0 0 16 15"
   id="svg2"
   inkscape:version="0.91 r13725"
   sodipodi:docname="cafe5.svg">
  <sodipodi:namedview
     pagecolor="#ffffff"
     bordercolor="#666666"
     borderopacity="1"
     objecttolerance="10"
     gridtolerance="10"
     guidetolerance="10"
     inkscape:pageopacity="0"
     inkscape:pageshadow="2"
     inkscape:window-width="1680"
     inkscape:window-height="988"
     id="namedview7"
     showgrid="true"
     inkscape:zoom="33.714286"
     inkscape:cx="1.4970704"
     inkscape:cy="7.5720653"
     inkscape:window-x="-8"
     inkscape:window-y="-8"
     inkscape:window-maximized="1"
     inkscape:current-layer="svg2">
    <inkscape:grid
       type="xygrid"
       id="grid4135" />
  </sodipodi:namedview>
  <metadata
     id="metadata8">
    <rdf:RDF>
      <cc:Work
         rdf:about="">
        <dc:format>image/svg+xml</dc:format>
        <dc:type
           rdf:resource="http://purl.org/dc/dcmitype/StillImage" />
        <dc:title></dc:title>
      </cc:Work>
    </rdf:RDF>
  </metadata>
  <defs
     id="defs6" />
  <rect
     style="color:#000000;clip-rule:nonzero;display:inline;overflow:visible;visibility:visible;opacity:1;isolation:auto;mix-blend-mode:normal;color-interpolation:sRGB;color-interpolation-filters:linearRGB;solid-color:#000000;solid-opacity:1;fill:#ffffff;fill-opacity:1;fill-rule:evenodd;stroke:none;stroke-width:1.20000005;stroke-linecap:butt;stroke-linejoin:miter;stroke-miterlimit:4;stroke-dasharray:none;stroke-dashoffset:0;stroke-opacity:1;color-rendering:auto;image-rendering:auto;shape-rendering:auto;text-rendering:auto;enable-background:accumulate"
     id="rect4137"
     width="16"
     height="14.999998"
     x="0"
     y="0"
     ry="3" />
  <rect
     width="14"
     height="14"
     x="0"
     y="1"
     id="canvas"
     style="visibility:hidden;fill:none;stroke:none" />
  <path
     d="m 2,2 0,6 c 0,2 2,3 4.5,3 C 9,11 11,10 11,8 l 2,0 c 1,0 2,-1 2,-2 L 15,5 C 15,4 14,3 13,3 l -2,0 0,-1 z m 9,2.25 1.75,0 c 0.667788,0 1,0.5628359 1,1.25 0,0.6871641 -0.388201,1.25 -1,1.25 L 11,6.75 Z M 1,12 c 0,1 1,2 2,2 l 7,0 c 1,0 2,-1 2,-2 z"
     id="cafe"
     style="fill:#734a08;fill-opacity:1;stroke:none"
     inkscape:connector-curvature="0" />
</svg>
