<?xml version="1.0" encoding="UTF-8" standalone="no"?>
<!-- Creator: CorelDRAW -->

<svg
   xmlns:dc="http://purl.org/dc/elements/1.1/"
   xmlns:cc="http://creativecommons.org/ns#"
   xmlns:rdf="http://www.w3.org/1999/02/22-rdf-syntax-ns#"
   xmlns:svg="http://www.w3.org/2000/svg"
   xmlns="http://www.w3.org/2000/svg"
   xmlns:sodipodi="http://sodipodi.sourceforge.net/DTD/sodipodi-0.dtd"
   xmlns:inkscape="http://www.inkscape.org/namespaces/inkscape"
   id="svg2"
   style="fill-rule:evenodd"
   sodipodi:docname="boundary6.svg"
   xml:space="preserve"
   sodipodi:version="0.32"
   version="1.0"
   inkscape:output_extension="org.inkscape.output.svg.inkscape"
   inkscape:version="0.91 r13725"
   viewBox="0 0 16 16"
   width="16"
   height="16"><defs
   id="defs35" /><sodipodi:namedview
   id="base"
   bordercolor="#666666"
   inkscape:pageshadow="2"
   guidetolerance="10.0"
   inkscape:current-layer="svg2"
   pagecolor="#ffffff"
   gridtolerance="10.0"
   inkscape:zoom="7.2407734"
   objecttolerance="10.0"
   borderopacity="1.0"
   width="744.09449px"
   inkscape:cx="16.297044"
   inkscape:cy="13.750517"
   inkscape:window-y="-8"
   inkscape:window-x="-8"
   inkscape:window-height="988"
   height="1052.3622px"
   inkscape:pageopacity="0.0"
   inkscape:window-width="1680"
   showgrid="false"
   inkscape:window-maximized="1" />
 
<metadata
   id="metadata33"><rdf:RDF><cc:Work><dc:format>image/svg+xml</dc:format><dc:type
         rdf:resource="http://purl.org/dc/dcmitype/StillImage" /><cc:license
         rdf:resource="http://creativecommons.org/publicdomain/zero/1.0/" /><dc:publisher><cc:Agent
           rdf:about="http://openclipart.org/"><dc:title>Openclipart</dc:title></cc:Agent></dc:publisher><dc:title></dc:title><dc:date>2008-05-18T09:25:46</dc:date><dc:description /><dc:source>https://openclipart.org/detail/16816/administrative-map-of-bulgaria-by-ivak</dc:source><dc:creator><cc:Agent><dc:title>ivak</dc:title></cc:Agent></dc:creator><dc:subject><rdf:Bag><rdf:li>bulgaria</rdf:li><rdf:li>map</rdf:li></rdf:Bag></dc:subject></cc:Work><cc:License
       rdf:about="http://creativecommons.org/publicdomain/zero/1.0/"><cc:permits
         rdf:resource="http://creativecommons.org/ns#Reproduction" /><cc:permits
         rdf:resource="http://creativecommons.org/ns#Distribution" /><cc:permits
         rdf:resource="http://creativecommons.org/ns#DerivativeWorks" /></cc:License></rdf:RDF></metadata><path
   style="fill:#00ffff;fill-rule:evenodd;stroke:#000000;stroke-width:0.463;stroke-linejoin:round;stroke-miterlimit:4;stroke-dasharray:none"
   d="M 8.657522,7.217 C 9.673076,6.8203071 8.9442553,5.8065688 8.9160049,5.1818168 7.7228348,5.2745283 9.5253808,4.3301105 9.049498,3.6221861 8.9178631,2.913632 9.1172786,1.3854531 10.072539,2.3134104 c 0.39382,0.3444207 1.450795,-0.1091505 0.885057,0.7386345 -0.123841,0.8068043 0.814136,1.4933219 0.56811,2.3173656 0.81684,0.443124 3.065334,-0.050231 4.118909,-0.084561 -0.107118,0.9385613 0.335874,1.261937 -0.26285,2.3643616 -0.804026,0.677605 -1.605499,2.2689139 0.361666,3.6195294 -0.548234,0.698132 0.695868,1.393737 -0.349386,2.013723 -0.717339,0.584365 -0.479307,1.92631 -1.806951,1.612272 -0.772428,-0.163455 -2.127056,0.794848 -1.907208,-0.646076 0.600008,-0.94219 -0.963521,-1.6247 -0.07677,-2.526784 C 11.448822,10.503218 9.3402002,11.29622 9.6075098,10.024 8.9760628,10.202605 7.5534422,9.3367536 8.3308804,8.3742781 8.4810043,8.0005243 8.4677862,7.5761069 8.657522,7.217 Z"
   id="path17-9"
   inkscape:connector-curvature="0"
   sodipodi:nodetypes="cccccccccccccccc" /><path
   style="fill:#ffff00;fill-rule:evenodd;stroke:#000000;stroke-width:0.463;stroke-linejoin:round;stroke-miterlimit:4;stroke-dasharray:none"
   d="m 8.0657641,8.842 c 0.05224,0.4705782 0.2764225,0.9745093 0.7196469,1.193702 0.2685625,-0.0092 0.8070986,-0.2502153 0.8563302,0.166495 -0.185841,0.354446 0.064417,0.680465 0.4518678,0.64297 0.276952,0.03469 0.542616,0.121731 0.806153,0.211116 0.293685,0.128375 0.609365,0.339585 0.705051,0.656961 -0.0115,0.407285 -0.449178,0.732213 -0.304462,1.154307 0.150331,0.224085 0.508673,0.317646 0.537482,0.651731 0.09068,0.295559 -0.03843,0.5876 -0.196533,0.830543 -0.131838,0.433946 0.381046,0.744915 0.309884,1.17616 -0.256054,0.249718 -0.571082,-0.486301 -0.775973,-0.0143 -0.280175,0.124777 -0.608415,-0.709114 -0.720127,-0.18373 0.04532,0.488008 -0.4808697,0.205199 -0.7116809,0.08192 C 9.3545543,15.385547 9.0464517,15.191017 8.7088058,15.011016 8.3801839,14.996816 8.281359,15.436241 7.9454601,15.441988 7.6550139,15.523705 7.323173,15.276131 7.3853555,14.963619 7.4303183,14.427351 7.0981726,13.968098 6.860919,13.516331 6.4779945,13.345916 6.4404788,12.879558 6.464066,12.514891 6.4859085,12.19761 6.3877779,11.858223 6.5677713,11.568278 6.6585768,11.319611 6.9447185,11.146538 6.966609,10.888942 6.9165976,10.451789 6.8020904,9.9493635 7.1003496,9.5707664 7.3101418,9.2885864 7.0710463,8.9017902 7.2317971,8.6094138 7.4846399,8.6266162 7.8262263,8.7214814 8.0657641,8.842 Z"
   id="path23-1"
   inkscape:connector-curvature="0" /><path
   style="fill:#008000;fill-rule:evenodd;stroke:#000000;stroke-width:0.463;stroke-linejoin:round;stroke-miterlimit:4;stroke-dasharray:none"
   d="M 0.6452814,9.668 C 0.65320472,9.1293243 0.52096221,8.5053828 0.77368804,8.0282053 1.083476,7.6854582 1.3859866,7.3851368 1.840823,7.7664801 2.4773764,8.0939887 3.0356316,6.6498709 3.4502815,7.6024608 3.7251174,8.0671466 4.9254203,8.5075222 5.0217236,7.7322555 5.0267725,7.1185861 5.2767192,7.9006424 5.4546021,7.3480223 5.7363632,6.6495748 6.521548,6.6878114 6.938517,7.2238298 7.4877883,6.9929122 7.5950199,6.4218744 7.765973,5.9896852 8.2956904,6.1723834 7.9195212,7.0429665 8.484539,7.358196 8.7034635,7.8484295 8.2666479,8.4467363 8.1539529,8.8640068 7.7375273,8.9634326 6.9626436,8.1814682 7.1826147,9.0501747 c 0.065491,0.6589714 -0.51352,1.1804073 -0.2131324,1.8885043 -0.094579,0.446407 -0.6032275,0.651459 -0.5003556,1.22605 -0.052507,0.629468 -0.021095,1.234103 0.5164196,1.61383 0.1814909,0.482437 0.8579492,1.475593 0.1234135,1.748011 C 6.7223337,16.316815 6.035199,15.511409 5.4351432,15.870655 5.0488844,15.578791 5.6370135,14.718435 4.8664615,14.756479 4.1460749,14.392078 4.2328288,15.533656 3.5095046,15.215069 2.9743621,14.921918 2.3548443,14.980034 1.83457,14.779302 1.8727559,14.413252 2.1834759,13.977416 1.9620721,13.552527 2.0945347,13.123931 1.6810623,13.010566 1.9583964,12.602728 1.7735107,12.319132 1.2061941,12.293153 1.3812854,11.747179 1.2444186,11.398744 0.83552779,10.743571 0.52292157,10.569967 -0.01178932,11.047932 -0.05454229,9.7482497 0.2300141,9.7421972 0.36024312,9.7847976 0.6651996,9.951971 0.6452814,9.668 Z"
   id="path31-6"
   inkscape:connector-curvature="0"
   sodipodi:nodetypes="ccccccccccccccccccccccccc" /><path
   style="fill:#ff0000;fill-rule:evenodd;stroke:#000000;stroke-width:0.463;stroke-linejoin:round;stroke-miterlimit:4;stroke-dasharray:none"
   d="M 0.457421,5.796 C 0.82479596,5.1242453 1.4844727,4.685857 1.0953078,4.0000759 1.1099541,3.2789632 1.1500657,2.0523187 2.2026978,2.5365681 2.4263078,2.1551852 2.5204533,1.6969307 2.9786789,1.933373 3.3003099,1.467788 3.4247279,0.92389496 4.0984132,0.72621666 4.562209,-0.09839821 5.5980034,0.52635353 5.833228,1.1997183 6.3168638,1.6836238 6.4982739,0.76966576 7.1364381,0.95530101 8.0471458,0.90840249 8.5134437,2.0081129 9.0894867,2.3537527 8.9497341,3.1778176 9.2577138,4.0870362 8.7004625,4.792771 7.9523535,5.1556573 8.8189041,5.1881848 9.1246844,5.2467963 8.710229,5.7252986 9.0896397,6.0180922 9.3150905,6.4540801 9.2501994,7.4018533 7.7749947,7.2862872 8.0910703,6.2990419 7.537536,5.1759085 7.6210867,7.6460659 6.6631496,6.9977278 6.0947515,6.1866366 5.3520061,7.460912 5.0328505,7.5798233 5.0429882,8.5666361 3.8161903,7.955952 3.4409919,7.5529504 3.0249715,6.6914344 2.1030284,8.207792 1.3977745,7.5627471 1.0733026,7.5102051 0.65917268,8.3116831 0.19252884,7.7543465 0.1592096,7.1459599 0.07224993,6.2695525 0.35831854,5.7538052 Z"
   id="path39-2"
   inkscape:connector-curvature="0"
   sodipodi:nodetypes="ccccccccccccccccccc" /></svg>