<?xml version="1.0" encoding="UTF-8" standalone="no"?>
<!-- Created with Inkscape (http://www.inkscape.org/) -->
<svg xmlns:inkscape="http://www.inkscape.org/namespaces/inkscape" xmlns:rdf="http://www.w3.org/1999/02/22-rdf-syntax-ns#" xmlns="http://www.w3.org/2000/svg" xmlns:cc="http://web.resource.org/cc/" xmlns:dc="http://purl.org/dc/elements/1.1/" xmlns:sodipodi="http://sodipodi.sourceforge.net/DTD/sodipodi-0.dtd" xmlns:svg="http://www.w3.org/2000/svg" xmlns:ns1="http://sozi.baierouge.fr" xmlns:xlink="http://www.w3.org/1999/xlink" id="svg2690" sodipodi:docname="lunanaut_Cartoon_Globe.svg" viewBox="0 0 370.3 370.29" sodipodi:version="0.32" version="1.0" inkscape:output_extension="org.inkscape.output.svg.inkscape" inkscape:version="0.44+devel" sodipodi:docbase="C:\Documents and Settings\Molumen\Desktop">
  <sodipodi:namedview id="base" bordercolor="#666666" inkscape:pageshadow="2" guidetolerance="10" pagecolor="#ffffff" gridtolerance="10000" inkscape:window-height="826" inkscape:zoom="1" objecttolerance="10" borderopacity="1.0" inkscape:current-layer="layer1" inkscape:cx="216.6042" inkscape:cy="198.42215" inkscape:window-y="116" inkscape:window-x="88" inkscape:window-width="1055" inkscape:pageopacity="0.0" inkscape:document-units="px"/>
  <g id="layer1" inkscape:label="Layer 1" inkscape:groupmode="layer" transform="translate(-189.14 -130.07)">
    <a id="a7312" transform="matrix(.23754 0 0 .23754 315.92 169.76)">
      <path id="path1961" sodipodi:rx="771.42859" sodipodi:ry="785.71429" style="stroke:#000000;stroke-width:16.147;fill:#323ad3" sodipodi:type="arc" d="m820 558.08a771.43 785.71 0 1 1 -1542.9 0 771.43 785.71 0 1 1 1542.9 0z" transform="matrix(1 0 0 .98182 197.14 64.429)" sodipodi:cy="558.07648" sodipodi:cx="48.57143"/>
    </a>
    <path id="path3740" style="fill-rule:evenodd;stroke:#000000;stroke-width:1.9003;fill:#faf0f0" d="m332.21 176.09c-1.39-4.7-0.77-9.31 5.43-10.86 4.98-1.25 8.8 0.51 13.57-0.68 5.37-1.34 9.88-2.81 14.93-4.07 5.17-1.29 7.56 5.43 12.9 5.43 5.57 0 8.5-2.81 13.57-4.07 4.61-1.16 9.18 4.12 10.18 8.14 1.62 6.49 3.44 8.19 8.14 12.89 4.07 4.07-2.99 8.57-4.07 12.9-1.27 5.08-3.03 12.31-8.82 10.86-5.88-1.47-6.61 5.61-13.57-1.36-2.23-2.22-7.85 3.4-12.22 3.4-4.65 0-9.03-4.55-12.9-0.68-3.54 3.54-6.13 4.74-11.53 2.03-3.11-1.55-10.23-3.91-13.58-4.75-5.39-1.35-9.48-2-12.21-7.46-2.4-4.79 3.24-9.35 6.1-12.22 2.91-2.9 2.52-5.61 4.08-9.5z"/>
    <path id="path3742" sodipodi:nodetypes="csssssssssssssssssssssssssssssssssssssssssssssscsccsssssssssssssssssssssssssssssssss" style="fill-rule:evenodd;stroke:#000000;stroke-width:1.9003;fill:#399a3d" d="m308.45 199.16c2.52 5.05-1.21 9.7 2.72 14.93 3.89 5.19 6.07 9.53 12.89 6.11 6.83-3.41 6.56 6.34 3.4 9.5-1.31 1.31-10.8 0-12.9 0-6.49 0-9.2-0.17-12.89 4.76-3.44 4.57-7.91 5.91-5.43 10.85 1.75 3.5-0.04 10.93-1.36 13.58-2.22 4.43-2.93 9.07-0.68 13.57 2.15 4.3 9.5 7.79 9.5 0.68 0-6.7 3.93-6.64 8.15-10.86 2.72-2.72-0.22-10.65 3.39-14.25 4.11-4.11 6.5 6.89 7.46 8.82 2.71 5.41 3.66 8.17 8.15 11.54 3.36 2.52 4.65 10.76 7.46 13.57 4.27 4.26-3.58 10.95-4.07 12.9-1.48 5.94-6.72 5.17-12.21 4.07-7.21-1.44-7.21-1.02-11.54 4.75-2.37 3.16 5.02 10.32-3.39 6.11-5.46-2.73-8.13 3.39-12.22 5.43-4.48 2.24-9.87-3.27-11.54 3.39-1.43 5.71-1.28 10.23-8.14 6.11-4.78-2.86-7.97 4.4-10.18 8.82-2.86 5.71 1.45 9.12-4.75 12.22-7.48 3.74-1.36-5.35-1.36-8.14 0-4.15-5.63-10.58-7.47-14.26-2.69-5.38-5.12-6.71-10.86-8.14-6.68-1.67-9.23 2.86-11.53 7.46-2.19 4.37 0.43 9.12-0.68 13.58-1.42 5.65 4.68 8.86 8.82 6.79 5.61-2.81 9.36 2.85 5.43 6.78-4.37 4.37-5.33 4.66-0.68 10.86 5.47 7.29 3.39 1.65 3.39 10.86v8.14c0 2.65-0.35 5.48 3.48 7.81 4.65 2.82 6.9 4.55 11.84 3.56 4.21-0.84 7.04 0.83 10.47 2.21 4.87 1.94 7.39 7.69 11.54 10.18 5.31 3.18 9.47 5.28 14.93 7.46 4.18 1.67 9.62 4 12.22 7.47 3.04 4.06 7.17 8.09 10.86 10.86 4.33 3.25 9.57 4.15 13.57 8.14 3.73 3.73 7.39 3.97 11.54 9.5 3.9 5.21 9.34 5.69 14.25 8.15 4.28 2.14 7.45-6.81 12.9-1.36 2.84 2.84 7.41 6.58 8.14 9.5 1.37 5.46-5.81 7.47-9.5 7.47-2.89 0-0.39 0.59-1.36 2.04-3.64 0-2.04 8.14-5.43 9.5-1.62 0.65-3.95 0.99-5.43 1.35h-3.39c-0.9-0.22-1.81-0.45-2.71-0.67-2.93-0.74-10.7 4.66-13.58 6.1-3.63 1.82-9.87 1.08-13.66 2.97-15.67-4.95-32.06-12.22-46.15-20.53-0.48-0.34 1.54-12.79 0.09-15.69-2.26-4.51-6.4-9.07-10.86-10.18-5.99-1.5-9.63-8.65-10.86-13.58-1.34-5.36-3.18-10.07-7.47-12.21-7.2-3.6-0.64-8.5 2.72-10.18 4.8-2.4 6.51-8.89 3.39-12.22-5.15-5.51-7.26-3.8-11.54-5.94-3.51-1.75-6.42-3.46-7.46-7.63-1.14-4.57-3.58-8.89-4.75-13.58s-2.27-9.05-3.4-13.57c-0.52-2.1-7.14-9.98-8.82-12.22-3.73-14.42-7.43-24.41-7.42-27.27 0.02-9.19 3.17-5.79 3.05-10.05-0.2-7.55 0.04-10.59 1.57-15.53 0.92-2.97 2.51-4.64 1.44-8.91-1.3-5.21-0.52-9.81 1.62-14.08 2.58-5.17 3.56-5.34 3.56-11.67 0-7.15 6.14-13.16 12.47-16.33 5.57-2.78 9.7-7.56 14.93-10.18 4.62-2.3 11.71-5.08 14.25-10.18 2.3-4.59 4.54-9.07 6.79-13.57 0.78-1.55-0.39-3.11 0.34-4.54 3.59-7 2.98-6.24 10.52-11.07 3.36-3.36 8.82-8.68 8.82-13.57 0-5.49-2.11-8.75 2.04-12.9 2.03-2.03 10.82-0.68 13.57-0.68 6.17 0 8.29 0.69 13.58 2.8 7.33 2.93 0.17 7.8-3.23 11.2-8.68 6.08-11.28 8.57-10.35 21.29z"/>
    <path id="path5518" sodipodi:nodetypes="cssssssssssssssssssssc" style="fill-rule:evenodd;stroke:#000000;stroke-width:1.9003;fill:#299d3d" d="m355.28 214.43c-0.79 1.25-1.58 2.49-2.37 3.74-1.75 2.74 1.4 0.63 3.05 4.75 1.15 2.86-0.25 4.5 0.34 7.46 0.64 3.19 2.92 5.7 3.39 9.17 0.17 1.21-2.89 5.12-3.73 6.1-3.06 3.61-1.31 9.13-2.04 13.58-0.73 2.93 3.4 5.97 3.4 8.82 0 2.27 2.89 3.05 4.75 3.05 3.59 0 3.83-0.42 4.75-2.71 0.71-1.77 0.99-5.75 2.71-6.79 1.21-0.72 5.43-3.46 5.43-4.75 0-2.56 3.95-4.97 5.77-6.78 2.05-2.05 4.84-3.61 7.13-4.76 3.35-1.67 4.41-2.71 4.41-6.44 0-2.45-3.57-5.91-3.05-8.49 0.55-2.75-0.63-7.3-2.04-9.16-2.33-3.07-2.51-4.26-3.05-7.8-0.44-2.85-1.71-3.73-4.42-2.38-3.11 1.56-5.03 2.38-8.48 2.38-2.05 0-4.23-0.34-6.45-0.34-3.55 1.71-5.61 1.22-9.5 1.35z"/>
    <path id="path5522" sodipodi:nodetypes="csssssssssssssssssssssssssccssssssssssssssssssssssssssssssscssssscscccssssssssssssssssssssssssssz" style="fill-rule:evenodd;stroke:#000000;stroke-width:1.9003;fill:#2d913e" d="m433.05 212.22c-4.07-0.98-4.31 0.31-7.3 6.28-2.63 9.71 1.29 8.51 2.38 13.07 0.96 4 3.39 9.23 3.39 13.23 0 5.59 0.98 10.85 6.45 12.22 6.55 1.63 6.4 2.03 12.73 2.03 7 0 3.61-8.37 2.03-11.53-2.49-4.98-4.79-8.69-9.5-12.22-2.92-2.19-0.93-9.33 3.39-0.68 3.05 6.09 6.25 7.54 11.54 10.18 5.94 2.97 3.83 9.74 0.68 12.9-3.75 3.75-6.43 5.75-10.18 9.5-2.31 2.31-1.9 10.33-2.71 13.57-1.3 5.18-7.37 7.57-3.4 11.54 3.77 3.76 8.76 1.18 5.43 9.5-2.35 5.89-5.62 5.23-9.5 8.14-4.82 3.62-3.24 7.1-0.68 12.22 2.73 5.46 1.45 7.47 8.82 7.47 7.03 0 7.16 1.66 12.22-3.4 2.3-2.3-0.74-10.44 0-13.4 2.02-8.08 5.22-3.08 2.04-11.03-1.52-3.79 3.89-9.67 7.97-9.67 4.1 0 11.63 6.85 16.63 5.6 7.3-1.83-1.95-8.15-5.6-8.15-4.75 0-12.47-3.33-4.07-5.43 5.51-1.37 3.1-1.94 10.01-0.17 2.92 0.75 3.11 2.2 5.22 4.79 1.6 1.96 3.04 1.33 6.49-0.03 1.11-4.82-3.48-3.86-3.66-6.61-0.21-3.16 2.79-4.38 3.66-6.12 2.05-4.12-4.19-8.44-5.09-12.05-1.14-4.53-2.38-17.3 2.88-17.3 5.35 0 13.58 1.55 15.1 7.63 1.33 5.31-6.11 9.17-8.14 14.25-1.92 4.79-4.11 9.47-0.68 12.9 3.46 3.46 5.43-6.88 5.43 1.36 0 5.47 7.14-7.53 7.46-8.83 1.88-7.5 5.43 3.03 5.43 6.79 0 5.39-1.51 9.94-4.75 14.25-3.53 4.71-7.51 4.85-10.18 10.18-3.24 6.49-0.67 7.46-7.46 10.86-4.37 2.19-11.04 0.5-13.58-2.03-5.16-5.16-5.87-4.2-10.86 2.03-3.68 4.61-7.09 7.1-10.86 10.86-3.91 3.92-9.77 4.62-12.21 9.5-2.16 4.32-5.15 9.94-4.07 14.26 1.4 5.6-3.33 9.43-6.79 12.89-3.41 3.41-5.06 10.06-6.11 14.25-1.67 6.69 0.02 6.82 2.71 12.22 1.19 2.37-2.94 10.86-3.39 13.57-0.39 2.33 8.73 8.64 10.18 11.54 1.92 3.84 9.18 1.04 12.22 4.07 2.6 2.61 10.24-0.82 12.89-1.35 5.42-1.09 8.38-4.39 13.58-5.43 3.07-0.62 6.6-6.7 10.86-8.83 4.81-2.4 8.67-2.64 12.89-4.75 3.44-1.72-3.44 9.82 0 11.54 4.79 2.39 7.76 2.9 6.11 9.5-1.05 4.21-2.99 7.46-4.41 11.37-3.19 8.75-0.81 5.89-1.02 12.05 14.76-17.83 16.71-19.4 28.5-39.03 11.54-21.01 18.31-39.62 21.04-65.15 0.48-4.41 0.68-8.96 0.68-13.58 0-4.38 0.54-11.92-3.39-13.57-8.46-3.56-7.96-5.62-16.29-8.14-3.96-1.98-10.55-8.43-9.5-12.9 4.01-0.64 8.41 3.99 12.26 6.47 4.04 2.59 4.8 7.97 11.15 9.82 2.8-2.37-4.03-30.78-2.03-34.78-1.53-10.95-13.97-34.46-11.37-40.22-12.73-21.52-15.75-27.35-31.9-45.47-14-15.7-31.11-27.14-50.05-36.65-22.82-10.22-43.82-15.99-69.23-15.61-5.92-0.58-5.43 5.09-12.21 5.09-5.2 0-8.19-2.7-13.58-1.35-1.39 0.34-2.71 0.9-4.07 1.35-5.07 1.69-7.44 9.09-12.22 2.72-0.71-0.96 16.54-3.95 6.79-8.82-5.11-2.56-11.48 5.95-8.82 9.5 1.52 2.03-2.91 6.11-8.83 6.11-5.12 0-10.16-0.62-8.82 4.75 1.35 5.4 5.71-0.89-2.71 5.43-5.09 3.81 7.94 1.61 9.5 0.67 4.67-2.8 8.03-3.39 13.57-3.39 4.11 0 8.66-3.22 12.9-4.07 5.94-1.19 10.4 1.13 14.93 3.39 2 1 11.01-1.77 12.89-2.71 7.52-3.76 3.72 1.32 5.43 4.75 1.13 2.25 8.41 1.88 10.86 6.78 3.04 6.07 0.62 8.12 7.47 11.54 0.41 0.21 6.9-2.29 13.57 2.72 4.43 3.32 8.31 1.58 12.22 6.78 0.87 1.16 2.23 2.03 2.71 3.4 1.76 4.99-1.04 1.98 2.38 6.62 0.68 0.92 2.43-0.29 3.39 4.75 1.9 9.93 9.36 12.94 6.62 16.96-2.41 3.54-2.7 0.72-11.37-3.9-0.45-0.11-1.2-0.68-1.36-0.68-1.1 0-1.91-0.68-2.88-0.68h-0.85z"/>
  </g>
  <metadata>
    <rdf:RDF>
      <cc:Work>
        <dc:format>image/svg+xml</dc:format>
        <dc:type rdf:resource="http://purl.org/dc/dcmitype/StillImage"/>
        <cc:license rdf:resource="http://creativecommons.org/licenses/publicdomain/"/>
        <dc:publisher>
          <cc:Agent rdf:about="http://openclipart.org/">
            <dc:title>Openclipart</dc:title>
          </cc:Agent>
        </dc:publisher>
        <dc:title>Cartoon Globe</dc:title>
        <dc:date>2006-12-26T00:00:00</dc:date>
        <dc:description>Colored globe.</dc:description>
        <dc:source>https://openclipart.org/detail/3437/-by--3437</dc:source>
        <dc:creator>
          <cc:Agent>
            <dc:title>lunanaut</dc:title>
          </cc:Agent>
        </dc:creator>
        <dc:subject>
          <rdf:Bag>
            <rdf:li>color</rdf:li>
            <rdf:li>earth</rdf:li>
            <rdf:li>globe</rdf:li>
            <rdf:li>planet</rdf:li>
          </rdf:Bag>
        </dc:subject>
      </cc:Work>
      <cc:License rdf:about="http://creativecommons.org/licenses/publicdomain/">
        <cc:permits rdf:resource="http://creativecommons.org/ns#Reproduction"/>
        <cc:permits rdf:resource="http://creativecommons.org/ns#Distribution"/>
        <cc:permits rdf:resource="http://creativecommons.org/ns#DerivativeWorks"/>
      </cc:License>
    </rdf:RDF>
  </metadata>
</svg>