<?xml version="1.0" encoding="UTF-8" standalone="no"?>
<!-- Created with Inkscape (http://www.inkscape.org/) -->

<svg
   xmlns:dc="http://purl.org/dc/elements/1.1/"
   xmlns:cc="http://creativecommons.org/ns#"
   xmlns:rdf="http://www.w3.org/1999/02/22-rdf-syntax-ns#"
   xmlns:svg="http://www.w3.org/2000/svg"
   xmlns="http://www.w3.org/2000/svg"
   xmlns:sodipodi="http://sodipodi.sourceforge.net/DTD/sodipodi-0.dtd"
   xmlns:inkscape="http://www.inkscape.org/namespaces/inkscape"
   id="svg2690"
   sodipodi:docname="06.svg"
   viewBox="0 0 160 160"
   sodipodi:version="0.32"
   version="1.0"
   inkscape:output_extension="org.inkscape.output.svg.inkscape"
   inkscape:version="0.92.2 (5c3e80d, 2017-08-06)"
   width="160"
   height="160">
  <defs
     id="defs13" />
  <sodipodi:namedview
     id="base"
     bordercolor="#666666"
     inkscape:pageshadow="2"
     guidetolerance="10"
     pagecolor="#ffffff"
     gridtolerance="10000"
     inkscape:window-height="987"
     inkscape:zoom="5.6568542"
     objecttolerance="10"
     borderopacity="1.0"
     inkscape:current-layer="layer1"
     inkscape:cx="84.52125"
     inkscape:cy="99.136709"
     inkscape:window-y="-8"
     inkscape:window-x="-8"
     inkscape:window-width="1680"
     inkscape:pageopacity="0.0"
     inkscape:document-units="px"
     showgrid="true"
     inkscape:window-maximized="1">
    <inkscape:grid
       type="xygrid"
       id="grid820" />
  </sodipodi:namedview>
  <g
     id="layer1"
     inkscape:label="Layer 1"
     inkscape:groupmode="layer"
     transform="translate(-189.14,-340.36001)">
    <a
       id="a7312"
       transform="matrix(0.10262952,0,0,0.10264886,243.92268,357.50191)">
      <ellipse
         id="path1961"
         style="fill:#323ad3;stroke:#000000;stroke-width:16.14699936"
         transform="matrix(1,0,0,0.98182,197.14,64.429)"
         cx="48.57143"
         cy="558.07648"
         rx="771.42859"
         ry="785.71429" />
    </a>
    <path
       id="path3740"
       style="fill:#faf0f0;fill-rule:evenodd;stroke:#000000;stroke-width:0.82110482"
       d="m 250.9608,360.23731 c -0.60055,-2.03102 -0.33268,-4.02315 2.34604,-4.69296 2.15161,-0.54016 3.80205,0.22039 5.86294,-0.29385 2.32011,-0.57906 4.26866,-1.21429 6.45052,-1.75878 2.23371,-0.55745 3.26631,2.34648 5.57347,2.34648 2.40653,0 3.67244,-1.21429 5.86294,-1.75878 1.99176,-0.50127 3.96623,1.78039 4.39828,3.51756 0.69993,2.80455 1.48626,3.53917 3.5169,5.5702 1.75845,1.75878 -1.29183,3.70338 -1.75845,5.57451 -0.5487,2.19524 -1.30911,5.31956 -3.81069,4.69296 -2.54046,-0.63523 -2.85586,2.42427 -5.86294,-0.5877 -0.96348,-0.95933 -3.39161,1.46926 -5.27967,1.46926 -2.00904,0 -3.90143,-1.96621 -5.57346,-0.29385 -1.52947,1.52975 -2.64848,2.04831 -4.98156,0.87723 -1.34368,-0.66981 -4.41989,-1.68964 -5.86726,-2.05264 -2.32876,-0.58338 -4.09585,-0.86426 -5.27535,-3.22371 -1.03692,-2.06991 1.39985,-4.04044 2.63552,-5.28066 1.25727,-1.25319 1.08877,-2.42427 1.76277,-4.10527 z"
       inkscape:connector-curvature="0" />
    <path
       id="path3742"
       sodipodi:nodetypes="csssssssssssssssssssssssssssssssssssssssssssssscsccsssssssssssssssssssssssssssssssss"
       style="fill:#399a3d;fill-rule:evenodd;stroke:#000000;stroke-width:0.82110482"
       d="m 240.69525,370.20662 c 1.08877,2.18227 -0.52278,4.19169 1.17518,6.45175 1.68068,2.24277 2.62256,4.11822 5.56915,2.64033 2.95091,-1.47357 2.83426,2.73972 1.46897,4.10526 -0.56599,0.5661 -4.66615,0 -5.57346,0 -2.80402,0 -3.97488,-0.0735 -5.56915,2.05695 -1.48625,1.97485 -3.41752,2.55391 -2.34604,4.68865 0.75609,1.51246 -0.0173,4.72321 -0.58759,5.86836 -0.95915,1.91435 -1.26591,3.91945 -0.29379,5.86405 0.92891,1.85817 4.10449,3.36631 4.10449,0.29385 0,-2.8953 1.69796,-2.86937 3.52122,-4.69297 1.17518,-1.1754 -0.0951,-4.60221 1.46465,-6.15789 1.77573,-1.77607 2.80834,2.97739 3.22311,3.81141 1.17086,2.33784 1.58131,3.53053 3.52122,4.98681 1.45169,1.08898 2.00904,4.64975 3.2231,5.86405 1.84486,1.84088 -1.54674,4.73185 -1.75845,5.57451 -0.63943,2.56687 -2.90338,2.23413 -5.27535,1.75878 -3.11509,-0.62227 -3.11509,-0.44077 -4.98587,2.05264 -1.02396,1.36554 2.1689,4.45961 -1.46466,2.64033 -2.359,-1.17973 -3.51258,1.46493 -5.27967,2.34648 -1.93559,0.96798 -4.26434,-1.41308 -4.98587,1.46493 -0.61783,2.46748 -0.55303,4.42072 -3.5169,2.64033 -2.06521,-1.2359 -3.44345,1.90139 -4.39828,3.81141 -1.23567,2.46748 0.62647,3.94106 -2.05225,5.28067 -3.23174,1.61618 -0.58759,-2.31191 -0.58759,-3.51756 0,-1.79335 -2.43245,-4.57197 -3.22742,-6.16222 -1.16222,-2.32487 -2.21211,-2.89961 -4.69208,-3.51756 -2.88611,-0.72166 -3.98784,1.2359 -4.98156,3.22371 -0.94619,1.88842 0.18579,3.94105 -0.29379,5.86837 -0.61351,2.44155 2.022,3.82869 3.81069,2.93418 2.42381,-1.21429 4.044,1.23158 2.34604,2.92986 -1.88806,1.88842 -2.30283,2.01374 -0.29379,4.69296 2.36332,3.15025 1.46465,0.71302 1.46465,4.69297 v 3.51756 c 0,1.14515 -0.15122,2.36809 1.50354,3.37496 2.00904,1.21861 2.98116,1.9662 5.11549,1.53839 1.81894,-0.36299 3.04164,0.35867 4.52358,0.95501 2.10409,0.83834 3.19286,3.32311 4.98587,4.39912 2.2942,1.37418 4.09153,2.28166 6.45053,3.22371 1.80598,0.72166 4.15634,1.72853 5.27967,3.22803 1.31344,1.75446 3.09781,3.49596 4.69208,4.69297 1.87079,1.40443 4.13474,1.79335 5.86294,3.51756 1.61155,1.61185 3.19286,1.71557 4.98588,4.10526 1.685,2.25141 4.03536,2.45884 6.15673,3.52188 1.84918,0.92477 3.21878,-2.94282 5.57346,-0.5877 1.22703,1.22726 3.20151,2.84344 3.5169,4.10527 0.59191,2.35944 -2.51022,3.22803 -4.10449,3.22803 -1.24862,0 -0.1685,0.25496 -0.58759,0.88155 -1.57266,0 -0.88138,3.51756 -2.34604,4.10526 -0.69992,0.28089 -1.7066,0.42781 -2.34603,0.58338 h -1.46466 c -0.38885,-0.0951 -0.78201,-0.19446 -1.17086,-0.28953 -1.26591,-0.31978 -4.62295,2.01374 -5.86726,2.63601 -1.56835,0.78649 -4.26435,0.46671 -5.90182,1.28344 -6.77025,-2.13906 -13.85157,-5.28067 -19.93918,-8.87169 -0.20738,-0.14693 0.66536,-5.52698 0.0389,-6.78017 -0.97644,-1.94892 -2.76513,-3.91944 -4.69208,-4.39911 -2.58799,-0.6482 -4.16066,-3.73795 -4.69208,-5.86836 -0.57895,-2.31624 -1.37393,-4.35158 -3.22743,-5.27635 -3.11077,-1.55568 -0.27651,-3.67313 1.17518,-4.39911 2.07385,-1.03712 2.81266,-3.84166 1.46466,-5.28066 -2.22507,-2.38106 -3.1367,-1.64211 -4.98588,-2.56687 -1.5165,-0.75624 -2.77377,-1.49518 -3.2231,-3.29718 -0.49254,-1.97485 -1.54675,-3.84166 -2.05225,-5.86836 -0.5055,-2.02671 -0.98075,-3.91081 -1.46897,-5.86405 -0.22467,-0.90748 -3.08485,-4.31268 -3.8107,-5.28066 -1.61155,-6.23136 -3.21014,-10.54837 -3.20582,-11.78427 0.009,-3.9713 1.3696,-2.50205 1.31776,-4.34293 -0.0864,-3.26261 0.0173,-4.57629 0.67832,-6.71103 0.39749,-1.28343 1.08445,-2.00509 0.62215,-3.8503 -0.56166,-2.25141 -0.22466,-4.23923 0.69993,-6.08443 1.11469,-2.23413 1.5381,-2.30759 1.5381,-5.04299 0,-3.08975 2.6528,-5.68687 5.38768,-7.05674 2.40653,-1.20132 4.1909,-3.26692 6.45053,-4.39911 1.99608,-0.9939 5.05932,-2.19523 6.15674,-4.39911 0.99371,-1.98349 1.96151,-3.91945 2.93363,-5.86405 0.337,-0.6698 -0.1685,-1.34393 0.14689,-1.96188 1.55107,-3.02493 1.28752,-2.69651 4.54518,-4.78371 1.4517,-1.45197 3.8107,-3.75091 3.8107,-5.86404 0,-2.37241 -0.91163,-3.78117 0.88138,-5.57452 0.87707,-0.87723 4.6748,-0.29385 5.86294,-0.29385 2.66576,0 3.58171,0.29817 5.86726,1.20997 3.16694,1.26615 0.0734,3.37064 -1.39552,4.83989 -3.75021,2.62737 -4.87354,3.70338 -4.47174,9.20011 z"
       inkscape:connector-curvature="0" />
    <path
       id="path5518"
       sodipodi:nodetypes="cssssssssssssssssssssc"
       style="fill:#299d3d;fill-rule:evenodd;stroke:#000000;stroke-width:0.82110482"
       d="m 260.92823,376.80529 c -0.34133,0.54017 -0.68265,1.07601 -1.02397,1.61618 -0.75609,1.18404 0.60488,0.27224 1.31776,2.05263 0.49686,1.2359 -0.10801,1.9446 0.1469,3.22371 0.27651,1.37851 1.26159,2.46316 1.46465,3.96266 0.0734,0.52288 -1.24863,2.21252 -1.61155,2.63601 -1.32208,1.56 -0.56599,3.94538 -0.88138,5.86837 -0.3154,1.26615 1.46897,2.57983 1.46897,3.81141 0,0.98094 1.24863,1.318 2.05225,1.318 1.55106,0 1.65475,-0.18149 2.05224,-1.17108 0.30676,-0.76487 0.42773,-2.48476 1.17086,-2.93418 0.52278,-0.31113 2.34604,-1.49518 2.34604,-2.05263 0,-1.10626 1.7066,-2.1477 2.49294,-2.92986 0.8857,-0.88587 2.09113,-1.56 3.08052,-2.05695 1.44738,-0.72167 1.90535,-1.17108 1.90535,-2.78294 0,-1.05873 -1.54242,-2.55391 -1.31776,-3.66881 0.23763,-1.18836 -0.27219,-3.15457 -0.88138,-3.95834 -1.00668,-1.32664 -1.08445,-1.84088 -1.31776,-3.37063 -0.1901,-1.23158 -0.73881,-1.61186 -1.90967,-1.02848 -1.34368,0.67413 -2.17322,1.02848 -3.66379,1.02848 -0.88571,0 -1.82758,-0.14693 -2.78674,-0.14693 -1.53378,0.73895 -2.4238,0.5272 -4.10448,0.58338 z"
       inkscape:connector-curvature="0" />
    <path
       id="path5522"
       sodipodi:nodetypes="csssssssssssssssssssssssssccssssssssssssssssssssssssssssssscssssscscccssssssssssssssssssssssssssz"
       style="fill:#2d913e;fill-rule:evenodd;stroke:#000000;stroke-width:0.82110482"
       d="m 294.52887,375.85028 c -1.75845,-0.42349 -1.86214,0.13396 -3.15397,2.71379 -1.1363,4.19601 0.55734,3.67745 1.02828,5.64798 0.41477,1.72853 1.46465,3.98859 1.46465,5.71712 0,2.41562 0.42341,4.68864 2.78673,5.28066 2.82994,0.70438 2.76513,0.87723 5.50002,0.87723 3.02436,0 1.55971,-3.61695 0.87707,-4.98249 -1.07581,-2.15202 -2.06953,-3.75524 -4.10449,-5.28066 -1.26159,-0.94638 -0.40181,-4.0318 1.46465,-0.29385 1.31776,2.63168 2.70032,3.25828 4.98587,4.39911 2.56639,1.28343 1.65476,4.20897 0.2938,5.57451 -1.62019,1.6205 -2.77809,2.48477 -4.39828,4.10527 -0.99804,0.99822 -0.8209,4.46393 -1.17086,5.86404 -0.56167,2.23845 -3.18422,3.27125 -1.46898,4.98681 1.62883,1.62482 3.78477,0.50992 2.34604,4.10527 -1.01532,2.54526 -2.42813,2.26005 -4.10449,3.51756 -2.08249,1.56432 -1.39985,3.06814 -0.29379,5.28066 1.1795,2.35945 0.62647,3.22804 3.81069,3.22804 3.03732,0 3.09349,0.71734 5.27967,-1.46926 0.99372,-0.9939 -0.31972,-4.51146 0,-5.79058 0.87274,-3.49163 2.25531,-1.33097 0.88138,-4.76642 -0.65671,-1.63779 1.68069,-4.17873 3.44346,-4.17873 1.77141,0 5.02475,2.96011 7.18501,2.41995 3.15398,-0.79081 -0.8425,-3.52189 -2.41949,-3.52189 -2.05224,0 -5.38768,-1.439 -1.75845,-2.34648 2.38061,-0.59202 1.33936,-0.83834 4.32484,-0.0735 1.26159,0.3241 1.34368,0.95069 2.25531,2.06991 0.69128,0.84699 1.31344,0.57474 2.80401,-0.013 0.47958,-2.08288 -1.50354,-1.66803 -1.58131,-2.8564 -0.0907,-1.36554 1.20543,-1.89274 1.58131,-2.64465 0.88571,-1.78039 -1.81029,-3.6472 -2.19914,-5.2072 -0.49254,-1.95757 -1.02828,-7.4759 1.24431,-7.4759 2.31147,0 5.86726,0.6698 6.52398,3.29717 0.57463,2.29463 -2.63984,3.96266 -3.5169,6.1579 -0.82954,2.06991 -1.77573,4.09229 -0.2938,5.57451 1.4949,1.49518 2.34604,-2.97307 2.34604,0.5877 0,2.36377 3.08485,-3.25396 3.22311,-3.81573 0.81225,-3.241 2.34604,1.30936 2.34604,2.93418 0,2.3292 -0.6524,4.2954 -2.05225,6.15789 -1.52514,2.03535 -3.24471,2.09585 -4.39828,4.39912 -1.39985,2.80454 -0.28948,3.22371 -3.22311,4.69296 -1.88806,0.94637 -4.76985,0.21607 -5.86726,-0.87723 -2.22938,-2.2298 -2.53614,-1.81496 -4.69208,0.87723 -1.58995,1.99213 -3.06324,3.06814 -4.69208,4.69296 -1.68932,1.69397 -4.22114,1.99646 -5.27534,4.10527 -0.93324,1.86681 -2.22507,4.2954 -1.75845,6.16221 0.60487,2.41995 -1.43874,4.07502 -2.93363,5.5702 -1.4733,1.47357 -2.18618,4.34725 -2.63984,6.15789 -0.72152,2.89097 0.009,2.94715 1.17086,5.28066 0.51414,1.02416 -1.27023,4.69297 -1.46465,5.86405 -0.1685,1.00687 3.77181,3.73363 4.39828,4.98681 0.82954,1.65939 3.96623,0.44942 5.27967,1.75878 1.12333,1.12787 4.42421,-0.35435 5.56914,-0.58338 2.34172,-0.47102 3.6206,-1.89706 5.86726,-2.34648 1.3264,-0.26792 2.85154,-2.89529 4.69208,-3.81573 2.07817,-1.03712 3.74589,-1.14083 5.56915,-2.05263 1.48625,-0.74327 -1.48626,4.24354 0,4.98681 2.06952,1.0328 3.35272,1.25319 2.63983,4.10526 -0.45365,1.81928 -1.29183,3.22372 -1.90535,4.91336 -1.37824,3.78116 -0.34996,2.54526 -0.44069,5.2072 6.37708,-7.70493 7.21958,-8.38338 12.31347,-16.86615 4.98587,-9.07911 7.91086,-17.12111 9.09036,-28.15346 0.20739,-1.90571 0.2938,-3.87191 0.2938,-5.86837 0,-1.89274 0.23331,-5.15102 -1.46466,-5.86404 -3.65515,-1.53839 -3.43913,-2.42859 -7.03811,-3.51756 -1.71093,-0.85563 -4.55815,-3.64288 -4.10449,-5.57452 1.73252,-0.27656 3.63355,1.72421 5.29695,2.7959 1.74549,1.11923 2.07384,3.4441 4.81737,4.24355 1.20975,-1.02416 -1.74117,-13.30105 -0.87706,-15.02958 -0.66104,-4.73186 -6.03576,-14.89131 -4.91243,-17.38039 -5.50001,-9.2995 -6.80481,-11.81884 -13.78244,-19.64909 -6.04872,-6.78448 -13.44112,-11.72808 -21.62418,-15.83767 -9.85942,-4.4164 -18.9325,-6.9098 -29.91093,-6.74559 -2.55774,-0.25064 -2.34604,2.19955 -5.27534,2.19955 -2.24667,0 -3.53851,-1.16675 -5.86726,-0.58338 -0.60056,0.14693 -1.17086,0.38892 -1.75845,0.58338 -2.19051,0.73031 -3.21447,3.92809 -5.27967,1.17541 -0.30676,-0.41485 7.14613,-1.70693 2.93363,-3.81142 -2.20779,-1.10626 -4.95995,2.57119 -3.8107,4.10527 0.65672,0.87723 -1.25727,2.64033 -3.81501,2.64033 -2.21211,0 -4.38965,-0.26792 -3.8107,2.05263 0.58327,2.33352 2.46702,-0.3846 -1.17086,2.34648 -2.19914,1.64643 3.43049,0.69574 4.10449,0.28953 2.01768,-1.20997 3.46938,-1.46493 5.86294,-1.46493 1.77573,0 3.74157,-1.39147 5.57347,-1.75878 2.56638,-0.51424 4.49333,0.48831 6.45053,1.46493 0.8641,0.43213 4.75688,-0.76488 5.56914,-1.17108 3.24903,-1.62482 1.60723,0.57042 2.34604,2.05263 0.48822,0.9723 3.63355,0.81241 4.69208,2.92986 1.31343,2.62305 0.26787,3.50892 3.22742,4.98682 0.17714,0.0907 2.98116,-0.98959 5.86294,1.1754 1.91399,1.43468 3.59035,0.68277 5.27967,2.92986 0.37589,0.50127 0.96348,0.87723 1.17086,1.46925 0.76041,2.15634 -0.44933,0.85562 1.02828,2.86072 0.2938,0.39756 1.04989,-0.12532 1.46466,2.05263 0.8209,4.29108 4.044,5.5918 2.86018,7.32898 -1.04124,1.52975 -1.16654,0.31113 -4.91243,-1.68532 -0.19442,-0.0475 -0.51846,-0.29385 -0.58759,-0.29385 -0.47525,0 -0.82521,-0.29385 -1.2443,-0.29385 z"
       inkscape:connector-curvature="0" />
  </g>
  <metadata
     id="metadata10">
    <rdf:RDF>
      <cc:Work>
        <dc:format>image/svg+xml</dc:format>
        <dc:type
           rdf:resource="http://purl.org/dc/dcmitype/StillImage" />
        <cc:license
           rdf:resource="http://creativecommons.org/publicdomain/zero/1.0/" />
        <dc:publisher>
          <cc:Agent
             rdf:about="http://openclipart.org/">
            <dc:title>Openclipart</dc:title>
          </cc:Agent>
        </dc:publisher>
        <dc:title>Cartoon Globe</dc:title>
        <dc:date>2006-12-26T00:00:00</dc:date>
        <dc:description>Colored globe.</dc:description>
        <dc:source>https://openclipart.org/detail/3437/-by--3437</dc:source>
        <dc:creator>
          <cc:Agent>
            <dc:title>lunanaut</dc:title>
          </cc:Agent>
        </dc:creator>
        <dc:subject>
          <rdf:Bag>
            <rdf:li>color</rdf:li>
            <rdf:li>earth</rdf:li>
            <rdf:li>globe</rdf:li>
            <rdf:li>planet</rdf:li>
          </rdf:Bag>
        </dc:subject>
      </cc:Work>
      <cc:License
         rdf:about="http://creativecommons.org/publicdomain/zero/1.0/">
        <cc:permits
           rdf:resource="http://creativecommons.org/ns#Reproduction" />
        <cc:permits
           rdf:resource="http://creativecommons.org/ns#Distribution" />
        <cc:permits
           rdf:resource="http://creativecommons.org/ns#DerivativeWorks" />
      </cc:License>
    </rdf:RDF>
  </metadata>
</svg>
