<?xml version="1.0" encoding="UTF-8" standalone="no"?>
<!-- Generator: Adobe Illustrator 18.1.0, SVG Export Plug-In . SVG Version: 6.00 Build 0)  -->

<svg
   xmlns:dc="http://purl.org/dc/elements/1.1/"
   xmlns:cc="http://creativecommons.org/ns#"
   xmlns:rdf="http://www.w3.org/1999/02/22-rdf-syntax-ns#"
   xmlns:svg="http://www.w3.org/2000/svg"
   xmlns="http://www.w3.org/2000/svg"
   xmlns:sodipodi="http://sodipodi.sourceforge.net/DTD/sodipodi-0.dtd"
   xmlns:inkscape="http://www.inkscape.org/namespaces/inkscape"
   version="1.1"
   id="svg4672"
   sodipodi:docname="PublicInformationSymbol_EmergencyExit2.svg"
   inkscape:version="0.91 r13725"
   inkscape:output_extension="org.inkscape.output.svg.inkscape"
   sodipodi:version="0.32"
   x="0px"
   y="0px"
   viewBox="229 -258 599.9 600"
   enable-background="new 229 -258 599.9 600"
   xml:space="preserve"><metadata
   id="metadata11"><rdf:RDF><cc:Work
       rdf:about=""><dc:format>image/svg+xml</dc:format><dc:type
         rdf:resource="http://purl.org/dc/dcmitype/StillImage" /><dc:title></dc:title></cc:Work></rdf:RDF></metadata><defs
   id="defs9" />
<sodipodi:namedview
   inkscape:pageopacity="0.0"
   inkscape:document-units="px"
   inkscape:window-y="-8"
   inkscape:current-layer="layer1"
   inkscape:window-height="988"
   inkscape:window-x="-8"
   inkscape:window-width="1680"
   inkscape:pageshadow="2"
   id="base"
   guidetolerance="10"
   objecttolerance="10"
   inkscape:zoom="0.70710678"
   inkscape:cx="309.39877"
   inkscape:cy="350.53203"
   bordercolor="#666666"
   pagecolor="#ffffff"
   gridtolerance="10000"
   borderopacity="1.0"
   showgrid="false"
   inkscape:window-maximized="1">
	</sodipodi:namedview>
<g
   id="layer1"
   transform="translate(-310.97085,3.6021267)"
   inkscape:groupmode="layer"
   inkscape:label="Layer 1">
	<rect
   style="color:#000000;clip-rule:nonzero;display:inline;overflow:visible;visibility:visible;opacity:1;isolation:auto;mix-blend-mode:normal;color-interpolation:sRGB;color-interpolation-filters:linearRGB;solid-color:#000000;solid-opacity:1;fill:#ffffff;fill-opacity:1;fill-rule:evenodd;stroke:#0089ec;stroke-width:3.00727344;stroke-linecap:butt;stroke-linejoin:miter;stroke-miterlimit:4;stroke-dasharray:none;stroke-dashoffset:0;stroke-opacity:1;color-rendering:auto;image-rendering:auto;shape-rendering:auto;text-rendering:auto;enable-background:accumulate"
   id="rect4153"
   width="491.65326"
   height="577.92029"
   x="621.53461"
   y="-241.02605"
   ry="2.3218827" /><g
   id="g5653"
   transform="matrix(4.6848915,0,0,4.6848915,-1145.8937,-2197.6612)"
   style="fill:#009900;fill-opacity:1">
		<path
   id="path3495"
   d="M471.9,510.8l-3.2-8.5c-1.4-3.5-4.6-5.9-8.6-5.9h-1.4v-73.2h-69.5v40.5h9.1l10.4-13    c2.1-2.4,5.3-4,8.8-4h22.2c3.5,0,6.6,1.9,8.2,5l6.6,12.5c0.3,0.5,0.5,1.1,0.5,1.9c0,2.2-1.9,4.2-4.2,4.2c-1.8,0-3-0.8-3.8-2.2    l-5.9-11.4h-9.6l7.4,18.4l2.2,23.5h19c3,0,5.4,1.9,6.6,4.5l2.1,5.4H436c-2.4,0-4.5-1.8-4.6-4.2l-2.2-20.6l-17.6,36.5    c-1,2.1-3.2,3.5-5.8,3.5h-8.5l21.6-44.7l-6.7-16.8l-6.4,7.8c-1.6,2.1-4.3,3.5-7.2,3.5h-9.4v52.8l15,14.9h-44.3V413.3h128.1v128.1    h-14.4l-14.9-14.9v-15.7H471.9"
   style="fill:#009900;fill-opacity:1"
   fill="#269463" />
		<path
   id="path3497"
   d="M412,428l0.5,0l0.5,0l0.5,0.1l0.4,0.1l0.4,0.1l0.4,0.1l0.4,0.2l0.4,0.2l0.4,0.2l0.4,0.2    l0.4,0.2l0.4,0.2l0.3,0.3l0.3,0.3l0.3,0.3l0.3,0.3l0.3,0.3l0.3,0.3l0.3,0.3l0.3,0.4l0.2,0.4l0.2,0.4l0.2,0.4l0.2,0.4l0.2,0.4    l0.1,0.4l0.1,0.4l0.1,0.4l0.1,0.4l0.1,0.5l0,0.5l0,0.5c0,5-4.2,9-9.1,9c-5,0-9-4-9-9S407.1,428,412,428z"
   style="fill:#009900;fill-opacity:1"
   fill="#269463" />
		<path
   id="path3499"
   d="M416,529.8l11.5,11.5h-13.9l-15-14.9h9C410.7,526.4,413.8,527.7,416,529.8z"
   style="fill:#009900;fill-opacity:1"
   fill="#269463" />
	</g>
</g>
</svg>