<?xml version="1.0" encoding="UTF-8" standalone="no"?>
<svg
   xmlns:dc="http://purl.org/dc/elements/1.1/"
   xmlns:cc="http://creativecommons.org/ns#"
   xmlns:rdf="http://www.w3.org/1999/02/22-rdf-syntax-ns#"
   xmlns:svg="http://www.w3.org/2000/svg"
   xmlns="http://www.w3.org/2000/svg"
   xmlns:sodipodi="http://sodipodi.sourceforge.net/DTD/sodipodi-0.dtd"
   xmlns:inkscape="http://www.inkscape.org/namespaces/inkscape"
   version="1.1"
   id="Layer_1"
   x="0px"
   y="0px"
   viewBox="341.925 -51.9618 6.9999997 16"
   enable-background="new 341.925 -51.9618 352.075 2105.4856"
   xml:space="preserve"
   inkscape:version="0.91 r13725"
   sodipodi:docname="lamp4.svg"
   width="7"
   height="16"><metadata
   id="metadata16"><rdf:RDF><cc:Work
       rdf:about=""><dc:format>image/svg+xml</dc:format><dc:type
         rdf:resource="http://purl.org/dc/dcmitype/StillImage" /><dc:title></dc:title><cc:license
         rdf:resource="http://creativecommons.org/publicdomain/zero/1.0/" /></cc:Work><cc:License
       rdf:about="http://creativecommons.org/publicdomain/zero/1.0/"><cc:permits
         rdf:resource="http://creativecommons.org/ns#Reproduction" /><cc:permits
         rdf:resource="http://creativecommons.org/ns#Distribution" /><cc:permits
         rdf:resource="http://creativecommons.org/ns#DerivativeWorks" /></cc:License></rdf:RDF></metadata><defs
   id="defs14">
	
</defs><sodipodi:namedview
   pagecolor="#ffffff"
   bordercolor="#666666"
   borderopacity="1"
   objecttolerance="10"
   gridtolerance="10"
   guidetolerance="10"
   inkscape:pageopacity="0"
   inkscape:pageshadow="2"
   inkscape:window-width="1680"
   inkscape:window-height="988"
   id="namedview12"
   showgrid="true"
   fit-margin-top="0"
   fit-margin-left="0"
   fit-margin-right="0"
   fit-margin-bottom="0"
   inkscape:zoom="40.580247"
   inkscape:cx="-3.1405685"
   inkscape:cy="9.1823845"
   inkscape:window-x="-8"
   inkscape:window-y="-8"
   inkscape:window-maximized="1"
   inkscape:current-layer="Layer_1"><inkscape:grid
     type="xygrid"
     id="grid4147"
     originx="-1.087841e-006"
     originy="2.45169e-006" /></sodipodi:namedview>
<g
   id="_x23_ffffffff"
   transform="matrix(0.01715972,0,0,0.01715972,335.88863,-68.324709)">
</g>
<path
   style="fill:#333333;stroke:#000000;stroke-width:0.00098624"
   inkscape:connector-curvature="0"
   id="path5"
   d="m 345.82775,-46.06622 c 0.009,0.0264 0.065,0.0354 0.10691,0.0485 0.0285,0.01 0.0417,0.0291 0.0216,0.0434 -0.0672,0.0617 -0.1637,0.11889 -0.18628,0.188841 -0.0119,0.0336 0.0119,0.0682 0.0591,0.0941 -0.027,0.024 -0.0648,0.048 -0.0614,0.0764 0.006,0.0258 0.0373,0.0481 0.0629,0.0706 -0.0229,0.0119 -0.046,0.0236 -0.0698,0.035 0.0478,0.359761 0.0775,0.719943 0.10057,1.080204 0.0182,0.301452 0.0408,0.603183 0.0581,0.904354 0.0231,0.0161 0.0832,0.0214 0.0749,0.0456 0.006,0.0279 -0.0756,0.0375 -0.0728,0.0647 0.0391,0.254581 0.0388,0.509942 0.0538,0.765023 0.0106,0.247581 0.0246,0.495162 0.0545,0.742383 0.0188,0.139761 0.0387,0.279871 0.0888,0.418132 0.021,0.0506 0.0402,0.10282 0.0962,0.148121 -0.0667,0.0804 -0.15441,0.16048 -0.15875,0.248361 -0.004,0.0823 0.10491,0.15441 0.11357,0.235861 0.005,0.0394 -0.0434,0.0747 -0.048,0.11361 -0.0149,0.0772 0.006,0.155121 0.0464,0.230141 0.0395,0.0779 0.11001,0.151341 0.16184,0.227431 0.0307,0.0498 0.15456,0.0686 0.19479,0.115751 0.035,0.0491 0.0161,0.10475 -0.0421,0.14848 -0.0553,0.0444 -0.1408,0.0787 -0.19789,0.122461 0.0346,0.0316 0.007,0.0665 0.017,0.0997 0.0291,0.0545 0.15937,0.075 0.21646,0.121181 0.062,0.0515 0.15162,0.0977 0.17437,0.15755 -0.0741,0.0502 -0.19077,0.0808 -0.28623,0.121041 -0.0559,0.0198 -0.0449,0.0562 -0.0562,0.085 -0.005,0.0615 -0.0164,0.131691 0.0711,0.183201 0.0105,0.03 -0.0864,0.0371 -0.0689,0.0675 0.12347,0.599983 0.21382,1.201315 0.33559,1.801428 0.006,0.0536 0.1032,0.0902 0.15332,0.135331 0.0404,0.0292 0.0417,0.0705 -0.008,0.0975 -0.0393,0.0209 -0.0864,0.0385 -0.12161,0.0612 0.054,0.059 0.2016,0.0799 0.27107,0.133401 0.0543,0.0406 0.0559,0.0902 0.0535,0.13647 -0.005,0.0667 -0.0214,0.134831 0.011,0.200781 0.002,0.0121 0.0242,0.0196 0.0436,0.0265 0.0883,0.0292 0.20129,0.0369 0.28794,0.0675 0.0897,0.0301 0.0945,0.10396 -0.002,0.13211 -0.0722,0.0251 -0.15906,0.0393 -0.23177,0.0642 -0.0799,0.0267 -0.16416,0.0522 -0.2279,0.0875 -0.0662,0.0365 -0.0676,0.0919 -0.15287,0.1219 -0.0685,0.0206 -0.15472,0.0169 -0.23254,0.0209 -0.13507,0.003 -0.26875,0.0192 -0.40444,0.0122 -0.22435,-0.0102 -0.44126,-0.0409 -0.66453,-0.0539 -0.0618,-0.005 -0.12331,0.003 -0.18411,0.007 -0.19665,0.0142 -0.38897,0.0405 -0.58779,0.048 -0.13522,0.006 -0.26798,-0.0111 -0.40258,-0.0131 -0.0845,-0.004 -0.18768,1.7e-4 -0.24863,-0.0329 -0.0628,-0.0362 -0.0706,-0.0874 -0.14451,-0.1204 -0.11001,-0.0493 -0.23874,-0.0894 -0.37504,-0.121611 -0.0455,-0.0126 -0.0959,-0.0258 -0.12038,-0.0484 -0.0292,-0.0354 -0.0144,-0.0807 0.0554,-0.10353 0.0996,-0.0338 0.23162,-0.041 0.32336,-0.0807 0.0424,-0.072 0.0227,-0.1469 0.0172,-0.220281 -0.003,-0.0477 0.004,-0.0997 0.0681,-0.13926 0.0707,-0.0462 0.20176,-0.0669 0.2525,-0.120181 -0.0317,-0.0398 -0.14776,-0.0581 -0.15457,-0.10496 -0.0119,-0.0759 0.175,-0.118681 0.18242,-0.192641 0.12192,-0.600043 0.21197,-1.201375 0.33575,-1.801358 0.0194,-0.0299 -0.0752,-0.0358 -0.0695,-0.0643 0.0908,-0.0603 0.0804,-0.137621 0.0674,-0.207211 -0.009,-0.0206 -0.005,-0.0456 -0.0423,-0.0603 -0.0972,-0.0421 -0.21769,-0.0729 -0.29552,-0.124111 0.0209,-0.061 0.11341,-0.10761 0.17577,-0.16005 0.0551,-0.0422 0.16694,-0.0625 0.2084,-0.109181 0.0249,-0.036 -0.017,-0.0757 0.0233,-0.11039 -0.0654,-0.0493 -0.16601,-0.0874 -0.21877,-0.140481 -0.0407,-0.0384 -0.05,-0.0837 -0.0253,-0.12482 0.0353,-0.051 0.16865,-0.07 0.20005,-0.122251 0.05,-0.074 0.11806,-0.145191 0.15767,-0.220641 0.0423,-0.0789 0.0665,-0.160981 0.0481,-0.242221 -0.008,-0.0365 -0.0523,-0.0699 -0.0467,-0.10725 0.008,-0.077 0.10599,-0.144971 0.1131,-0.222001 0.006,-0.0927 -0.0881,-0.177551 -0.15812,-0.261941 0.0689,-0.0577 0.0864,-0.124461 0.11,-0.188481 0.0583,-0.189131 0.0763,-0.380202 0.0953,-0.570833 0.0229,-0.264221 0.0334,-0.528662 0.0455,-0.793033 0.009,-0.173981 0.0136,-0.348181 0.0427,-0.521742 0.002,-0.0271 -0.0797,-0.0367 -0.0729,-0.0644 -0.0106,-0.0247 0.0531,-0.0292 0.0747,-0.0457 0.0141,-0.275231 0.0376,-0.550672 0.0523,-0.826053 0.0252,-0.387472 0.0551,-0.775033 0.1063,-1.162005 -0.0187,-4.3e-4 -0.0373,-8.6e-4 -0.0559,-10e-4 -0.006,-0.004 -0.0175,-0.0124 -0.0232,-0.0165 0.009,-0.0286 0.0489,-0.0552 0.0385,-0.0851 -0.01,-0.0237 -0.0395,-0.0441 -0.0633,-0.0651 0.0345,-0.0173 0.08,-0.0368 0.0663,-0.063 -0.0153,-0.0901 -0.14389,-0.161621 -0.22357,-0.240431 -0.005,-0.0401 0.0798,-0.0643 0.15379,-0.0736"
   sodipodi:nodetypes="cccccccccccccccccccccccccccccccccccccccccccccccccccccccccccccccccccccccccccccccccccccccccccc" />
<g
   id="_x23_fdee21ff"
   transform="matrix(0.01942266,0,0,0.01715941,335.2804,-53.944119)">
	<path
   d="m 411.84,271.94 c 37.19,-14.82 74.37,-29.66 111.54,-44.54 0.08,53.27 -0.1,106.55 -0.1,159.83 -23.4,8.55 -46.78,17.19 -70.31,25.35 -12.49,-42.89 -25.24,-85.71 -37.82,-128.57 -1.14,-4.01 -2.53,-7.96 -3.31,-12.07 z"
   id="path8"
   inkscape:connector-curvature="0"
   style="fill:#fdee21;stroke:#fdee21;stroke-width:0.0938" />
	<path
   d="m 536.31,228.72 c 30.81,16.87 61.58,33.81 92.41,50.64 -9.7,44.98 -19.75,89.89 -29.55,134.84 -21.01,-8.85 -41.92,-17.93 -62.89,-26.88 0,-52.87 -0.05,-105.74 0.03,-158.6 z"
   id="path10"
   inkscape:connector-curvature="0"
   style="fill:#fdee21;stroke:#fdee21;stroke-width:0.0938" />
</g>
<path
   d="m 344.74553,-51.867649 c 0.23269,-0.10073 0.5048,-0.11205 0.7571,-0.0736 0.13557,0.0252 0.28027,0.0702 0.36495,0.17296 0.0738,0.0901 0.0577,0.22273 -0.0299,0.30115 -0.0658,0.0635 -0.15557,0.13762 -0.1245,0.2332 0.0315,0.13985 0.19384,0.19527 0.30571,0.27644 0.0798,0.0544 0.10605,0.14705 0.095,0.23251 0.18762,0.16387 0.48362,0.17691 0.65843,0.3552 0.18665,0.19356 0.23152,0.46382 0.42691,0.6524 0.16062,0.1486 0.39389,0.20711 0.6155,0.24503 0.0113,0.0242 0.02,0.0499 0.0375,0.0719 0.0923,0.1057 0.28143,0.0927 0.36378,0.20729 -0.067,0.0827 -0.18102,0.11994 -0.28726,0.14757 -0.10138,0.0247 -0.20704,0.0364 -0.31212,0.0311 -0.17966,0.34387 -0.23424,0.7231 -0.32319,1.08996 -0.10391,0.42092 -0.21326,0.84116 -0.29911,1.26534 -0.0381,0.036 -0.0779,0.0705 -0.11401,0.10793 -0.014,0.0475 0.022,0.0928 0.0225,0.14036 -0.0229,0.0443 -0.0897,0.0309 -0.13091,0.0175 -0.007,-0.0554 0.027,-0.11188 -0.002,-0.16456 -0.10779,-8.6e-4 -0.22472,0.0199 -0.29911,0.0947 -0.14955,0.14808 -0.15111,0.36532 -0.2859,0.52147 -0.10532,0.4458 -1.28448,-0.19205 -1.67714,-0.5237 -0.0868,-0.0848 -0.2189,-0.1196 -0.34534,-0.11531 -0.009,0.0441 0.0161,0.0863 0.0109,0.13041 -0.027,0.03 -0.0796,0.0194 -0.11246,0.003 -0.0301,-0.0372 0.003,-0.0841 0.002,-0.1251 -0.0285,-0.0419 -0.0697,-0.0762 -0.0954,-0.11994 -0.10799,-0.16816 -0.13246,-0.36361 -0.19073,-0.54687 -0.10546,-0.3341 -0.23326,-0.6627 -0.32339,-1.00057 -0.0975,-0.34147 -0.18645,-0.69118 -0.38282,-1.00142 -0.18645,0.11394 -0.42632,0.0405 -0.60249,-0.0534 0.006,-0.0309 0.007,-0.0661 0.0352,-0.089 0.0829,-0.0698 0.21734,-0.0462 0.3026,-0.1124 0.0425,-0.0323 0.0383,-0.0856 0.0354,-0.13007 0.0711,-0.0329 0.0956,0.042 0.1278,0.0813 0.0915,-3.4e-4 0.15383,-0.0661 0.23016,-0.10038 0.047,-0.0256 0.10275,-0.0299 0.15674,-0.0312 0.20355,-0.26083 0.33446,-0.55889 0.53218,-0.82297 0.17422,-0.0535 0.33796,-0.1311 0.5149,-0.1788 0.0124,-0.0884 0.041,-0.1764 0.0969,-0.25139 0.0759,-0.10501 0.19014,-0.18137 0.30416,-0.25155 0.0144,-0.0643 0.009,-0.13676 -0.0449,-0.18635 -0.0748,-0.071 -0.19539,-0.11961 -0.21035,-0.22668 -0.0264,-0.12097 0.0806,-0.22496 0.19636,-0.27335 m -1.46446,2.58747 c 0.0151,0.0705 0.0421,0.1383 0.0643,0.20711 0.24434,0.73546 0.49198,1.47022 0.73457,2.20619 0.45701,-0.14002 0.91112,-0.28828 1.36561,-0.43499 0,-0.91426 0.003,-1.82851 0.002,-2.74259 -0.72194,0.25533 -1.44408,0.50998 -2.1664,0.76428 m 2.41753,-0.74163 c -0.002,0.90705 -5.8e-4,1.81426 -5.8e-4,2.72148 0.40729,0.15358 0.81342,0.30939 1.22149,0.46125 0.19034,-0.77132 0.38554,-1.54195 0.57394,-2.31378 -0.5988,-0.28879 -1.19644,-0.57947 -1.79485,-0.86895 m -0.0973,3.79154 c -5.8e-4,0.0661 -3.8e-4,0.13213 -1.9e-4,0.19837 0.0827,0.008 0.1515,0.0498 0.21948,0.0887 0.0592,0.0309 0.1445,0.0609 0.20258,0.0117 0.17383,-0.11874 0.18684,-0.32809 0.25793,-0.49745 -0.22919,0.0585 -0.46304,0.10862 -0.67979,0.1987 m -0.88218,-0.17382 c 0.02,0.0963 0.048,0.19304 0.10391,0.2785 0.0625,0.10175 0.16878,0.17708 0.28804,0.22255 0.0892,-0.0336 0.20801,-0.0729 0.2253,-0.16884 -0.005,-0.0692 -0.0748,-0.11497 -0.13363,-0.15169 -0.14839,-0.0836 -0.31562,-0.13728 -0.48362,-0.18052 z"
   id="path4145"
   inkscape:connector-curvature="0"
   style="fill:#333333;stroke:#000000;stroke-width:0.00171241"
   sodipodi:nodetypes="cccccccccccccccccccccccccccccccccccccccccccccccccccccccccccccccccccc" /></svg>