<?xml version="1.0" encoding="UTF-8" standalone="no"?>
<!-- Created with Inkscape (http://www.inkscape.org/) -->

<svg
   xmlns:dc="http://purl.org/dc/elements/1.1/"
   xmlns:cc="http://creativecommons.org/ns#"
   xmlns:rdf="http://www.w3.org/1999/02/22-rdf-syntax-ns#"
   xmlns:svg="http://www.w3.org/2000/svg"
   xmlns="http://www.w3.org/2000/svg"
   xmlns:sodipodi="http://sodipodi.sourceforge.net/DTD/sodipodi-0.dtd"
   xmlns:inkscape="http://www.inkscape.org/namespaces/inkscape"
   id="svg3140"
   sodipodi:docname="ancla3.svg"
   viewBox="0 0 14 16"
   version="1.1"
   inkscape:version="0.91 r13725"
   width="14"
   height="16">
  <defs
     id="defs10" />
  <sodipodi:namedview
     id="base"
     bordercolor="#666666"
     inkscape:pageshadow="2"
     pagecolor="#ffffff"
     inkscape:zoom="22.4"
     showgrid="false"
     borderopacity="1.0"
     inkscape:current-layer="layer1"
     inkscape:cx="2.7442557"
     inkscape:cy="7.7448563"
     inkscape:pageopacity="0.0"
     inkscape:document-units="px"
     inkscape:window-width="1680"
     inkscape:window-height="988"
     inkscape:window-x="-8"
     inkscape:window-y="-8"
     inkscape:window-maximized="1"
     fit-margin-top="0"
     fit-margin-left="0"
     fit-margin-right="0"
     fit-margin-bottom="0" />
  <g
     id="layer1"
     inkscape:label="Capa 1"
     inkscape:groupmode="layer"
     transform="translate(-72.089995,-959.94004)">
    <rect
       style="opacity:1;fill:#ffffff;fill-opacity:1;stroke:#ffff00;stroke-width:0.00749496;stroke-linecap:square;stroke-linejoin:miter;stroke-miterlimit:4;stroke-dasharray:none;stroke-dashoffset:0.60000002;stroke-opacity:1"
       id="rect4140"
       width="13.992505"
       height="15.992505"
       x="72.093742"
       y="959.94379"
       ry="0.015582588" />
    <path
       inkscape:connector-curvature="0"
       d="m 79.081953,960.99629 c -0.982567,0 -1.779784,0.75097 -1.779784,1.67654 0,0.7634 0.543103,1.40654 1.284409,1.60897 l 0,0.68624 -0.219674,0 c -0.165058,0 -0.302351,0.10777 -0.336239,0.25339 l -2.297605,0 c -0.114008,-0.39349 -0.396067,-0.67359 -0.726277,-0.67359 -0.430878,0 -0.782295,0.47514 -0.782295,1.06004 0,0.58485 0.351427,1.06002 0.782295,1.06002 0.334902,0 0.620017,-0.28811 0.730798,-0.69049 l 2.293158,0 c 0.0346,0.14469 0.171882,0.25339 0.336229,0.25339 l 0.08066,0 c -0.243331,2.63089 0.0021,6.33148 -0.851801,6.43392 -0.959472,0.0737 -2.873099,-1.83803 -2.743702,-1.9806 0.128272,-0.0604 0.521197,-0.0412 0.61419,-0.0359 l 0.582818,-0.44343 -2.898349,-1.39788 0.163625,3.47985 0.0605,-0.0465 c 0.288639,-0.37634 0.661282,-0.97767 0.71507,-1.06213 0.252436,0.69422 0.83121,1.43626 1.315823,2.06507 0.815153,1.00679 3.049705,2.16534 5.216183,1.38308 2.059539,-0.5594 2.529728,-2.3727 3.485687,-3.43125 0.04808,0.0756 0.350769,0.56559 0.62092,0.93752 l 0.217423,0.15838 0.08523,-3.48404 -2.867008,1.45694 0.52678,0.38431 c 0.08438,-0.005 0.488455,-0.0254 0.61868,0.0359 0.209103,0.3334 -1.44538,1.53268 -1.76415,1.72303 -1.268054,0.58017 -1.377296,0.13835 -1.504125,-0.39064 -0.111694,-0.46597 -0.31047,-4.72845 -0.358644,-5.78565 l 0.114316,0 c 0.164357,0 0.301629,-0.1087 0.336239,-0.25339 l 2.293158,0 c 0.110739,0.40235 0.395865,0.69049 0.730799,0.69049 0.430878,0 0.782294,-0.47514 0.782294,-1.06003 0,-0.58486 -0.351437,-1.06003 -0.782294,-1.06003 -0.330211,0 -0.612269,0.28009 -0.726277,0.67359 l -2.297605,0 c -0.03386,-0.14562 -0.171182,-0.25339 -0.33624,-0.25339 l -0.219673,0 0,-0.68624 c 0.741337,-0.20249 1.284408,-0.84564 1.284408,-1.60897 0,-0.92557 -0.797216,-1.67654 -1.779783,-1.67654 z m 0,0.74326 c 0.546859,0 0.990739,0.41818 0.990739,0.93328 0,0.51515 -0.443911,0.93327 -0.990739,0.93327 -0.546871,0 -0.99075,-0.41816 -0.99075,-0.93327 0,-0.51514 0.443911,-0.93328 0.99075,-0.93328 z"
       style="fill:#4261a0;fill-opacity:1;fill-rule:evenodd;stroke:#000000;stroke-width:0.11307544px"
       sodipodi:nodetypes="cscccccsssccccccccccccccccccccccsccccssscccccsccsssc"
       id="path3181-6" />
    <path
       inkscape:connector-curvature="0"
       style="fill:#ffffff;fill-rule:evenodd"
       d="m 79.09091,961.1865 c -0.212892,0.005 -0.453112,0.0386 -0.717298,0.11402 -0.02558,0.0241 0.02537,0.19125 0.486406,0.0465 0.461158,-0.1448 1.331532,0.19335 1.15221,0.0486 -0.123305,-0.0996 -0.452911,-0.22071 -0.921318,-0.20905 z m 0.302638,3.1251 -0.05381,0.006 c -0.0096,10e-4 -0.01613,0.0407 -0.01571,0.0866 l 0.01794,0.52786 c 4.25e-4,0.046 0.0085,0.0815 0.01794,0.0803 l 0.05158,-0.006 c 0.0096,-10e-4 0.01613,-0.0407 0.0156,-0.0866 l -0.0156,-0.52793 c -4.35e-4,-0.0459 -0.0085,-0.0814 -0.01794,-0.0802 z m -4.095399,0.46244 c -0.144097,0 -0.311447,0.0853 -0.33175,0.076 -0.125311,0.21561 0.178038,0.26182 0.28018,0.26182 0.102524,0 0.205293,-0.33785 0.05158,-0.33785 z m 7.914768,0 c -0.1535,0 -0.05307,0.33785 0.04946,0.33785 0.102524,0 0.410298,-0.0468 0.282621,-0.26398 0,0.0242 -0.1779,-0.0739 -0.332122,-0.0739 z m -3.43382,0.3463 -1.414453,0.0105 c -0.05179,4e-4 -0.09106,0.008 -0.08968,0.0169 l 0,0.004 -0.02017,0.004 c -0.0096,10e-4 -0.01613,0.0399 -0.01571,0.0887 l 0.0021,0.21109 c 4.25e-4,0.0488 0.0085,0.0879 0.01794,0.0866 l 0.06729,-0.0105 c 0.0096,-10e-4 0.01603,-0.0421 0.01571,-0.0908 l -0.0021,-0.20906 c -7.5e-5,-0.007 -0.0021,-0.0106 -0.0021,-0.0169 0.01305,10e-4 0.02484,0.002 0.04033,0.002 l 1.414389,-0.0105 c 0.01337,-1.4e-4 0.02218,-0.003 0.03364,-0.004 -0.001,0.0112 -0.0021,0.0208 -0.0021,0.0338 l 0.0064,0.73909 c -0.01645,-0.002 -0.03587,-0.004 -0.05827,-0.004 l -0.224163,0.002 c -0.05179,4.1e-4 -0.09106,0.008 -0.08968,0.0169 l 0.0085,0.0633 c 0.0011,0.009 0.04457,0.0152 0.09637,0.0148 l 0.22186,-0.002 c 0.0225,-2e-4 0.04256,-0.004 0.05837,-0.006 0.0011,0.002 0.0032,0.004 0.0042,0.004 l 0.06272,-0.008 c 0.0096,-10e-4 0.01613,-0.0386 0.01571,-0.0845 l -0.0064,-0.74752 c -4.35e-4,-0.0459 -0.0085,-0.0814 -0.01794,-0.0802 l -0.02462,0.004 -0.0021,-0.0127 c -0.0011,-0.009 -0.04458,-0.0151 -0.09637,-0.0147 z m 2.472628,0.21744 -1.918796,0.0148 c -0.04882,4.1e-4 -0.0866,0.008 -0.08533,0.0169 l 0.0064,0.0507 c 0.0011,0.009 0.04065,0.0152 0.08936,0.0148 l 1.918796,-0.0169 c 0.04882,-4.1e-4 0.08682,-0.008 0.08533,-0.0169 l -0.0064,-0.0486 c -0.0011,-0.009 -0.04086,-0.0152 -0.08968,-0.0148 z m -4.510283,0.0232 -1.916492,0.0169 c -0.04872,4e-4 -0.08873,0.008 -0.08745,0.0169 l 0.0085,0.0486 c 0.0011,0.009 0.04097,0.0152 0.08968,0.0148 l 1.918796,-0.0148 c 0.04872,-4.1e-4 0.08639,-0.008 0.08523,-0.0169 l -0.0064,-0.0507 c -0.0011,-0.009 -0.0432,-0.0152 -0.09202,-0.0148 z m 1.672261,0.84253 c -0.0053,-2.7e-4 -0.0096,10e-4 -0.01571,0.002 l -0.01114,0.002 c -0.04606,0.007 -0.08268,0.0491 -0.08066,0.095 l 0.244318,5.69925 c 0.0021,0.046 0.04139,0.077 0.08745,0.0696 l 0.01114,-0.002 c 0.04606,-0.007 0.08045,-0.0493 0.07843,-0.0953 l -0.244317,-5.69897 c -0.0021,-0.0401 -0.0312,-0.0702 -0.06952,-0.0718 z m -5.895401,3.08085 c -0.02324,0.005 -0.04405,0.0169 -0.05827,0.0358 -0.02855,0.0372 -0.01804,0.0858 0.02462,0.10744 l 1.622908,0.83651 c 0.04277,0.0216 0.101463,0.009 0.129981,-0.0277 0.02855,-0.0372 0.01581,-0.0858 -0.02696,-0.10743 l -1.622908,-0.83651 c -0.02133,-0.0108 -0.04617,-0.0128 -0.06952,-0.008 z m 11.030742,0 c -0.01221,10e-4 -0.02293,0.003 -0.03375,0.008 l -1.62327,0.83651 c -0.04235,0.0216 -0.05307,0.0703 -0.02441,0.10744 0.02866,0.0372 0.08533,0.0493 0.127688,0.0277 l 1.623259,-0.83651 c 0.04235,-0.0216 0.05307,-0.0703 0.02441,-0.10744 -0.02155,-0.0277 -0.0588,-0.0399 -0.09393,-0.0358 z"
       id="path3395" />
  </g>
  <metadata
     id="metadata8">
    <rdf:RDF>
      <cc:Work>
        <dc:format>image/svg+xml</dc:format>
        <dc:type
           rdf:resource="http://purl.org/dc/dcmitype/StillImage" />
        <cc:license
           rdf:resource="http://creativecommons.org/publicdomain/zero/1.0/" />
        <dc:publisher>
          <cc:Agent
             rdf:about="http://openclipart.org/">
            <dc:title>Openclipart</dc:title>
          </cc:Agent>
        </dc:publisher>
        <dc:title></dc:title>
        <dc:date>2010-08-29T18:52:55</dc:date>
        <dc:description>Ancla azul</dc:description>
        <dc:source>https://openclipart.org/detail/82687/ancla-by-rastrojo</dc:source>
        <dc:creator>
          <cc:Agent>
            <dc:title>rastrojo</dc:title>
          </cc:Agent>
        </dc:creator>
        <dc:subject>
          <rdf:Bag>
            <rdf:li>anchor</rdf:li>
            <rdf:li>ancla</rdf:li>
            <rdf:li>barco</rdf:li>
            <rdf:li>mar</rdf:li>
            <rdf:li>sail</rdf:li>
            <rdf:li>sea</rdf:li>
            <rdf:li>ship</rdf:li>
            <rdf:li>vela</rdf:li>
          </rdf:Bag>
        </dc:subject>
      </cc:Work>
      <cc:License
         rdf:about="http://creativecommons.org/publicdomain/zero/1.0/">
        <cc:permits
           rdf:resource="http://creativecommons.org/ns#Reproduction" />
        <cc:permits
           rdf:resource="http://creativecommons.org/ns#Distribution" />
        <cc:permits
           rdf:resource="http://creativecommons.org/ns#DerivativeWorks" />
      </cc:License>
    </rdf:RDF>
  </metadata>
</svg>
