<?xml version="1.0" encoding="UTF-8" standalone="no"?>
<!-- Created with Inkscape (http://www.inkscape.org/) -->
<svg
   xmlns:dc="http://purl.org/dc/elements/1.1/"
   xmlns:cc="http://creativecommons.org/ns#"
   xmlns:rdf="http://www.w3.org/1999/02/22-rdf-syntax-ns#"
   xmlns:svg="http://www.w3.org/2000/svg"
   xmlns="http://www.w3.org/2000/svg"
   xmlns:sodipodi="http://sodipodi.sourceforge.net/DTD/sodipodi-0.dtd"
   xmlns:inkscape="http://www.inkscape.org/namespaces/inkscape"
   width="417.09787"
   height="459.65884"
   id="svg2"
   sodipodi:version="0.32"
   inkscape:version="0.46"
   sodipodi:docname="10pin.svg"
   inkscape:output_extension="org.inkscape.output.svg.inkscape"
   inkscape:export-filename="C:\Dokumente und Einstellungen\ulfl\Eigene Dateien\osm\svn.map-icons\svg\sports\10pin.png"
   inkscape:export-xdpi="3.1295931"
   inkscape:export-ydpi="3.1295931"
   version="1.0">
  <defs
     id="defs4">
    <inkscape:perspective
       sodipodi:type="inkscape:persp3d"
       inkscape:vp_x="0 : 526.18109 : 1"
       inkscape:vp_y="0 : 1000 : 0"
       inkscape:vp_z="744.09448 : 526.18109 : 1"
       inkscape:persp3d-origin="372.04724 : 350.78739 : 1"
       id="perspective10" />
  </defs>
  <sodipodi:namedview
     id="base"
     pagecolor="#ffffff"
     bordercolor="#666666"
     borderopacity="1.0"
     inkscape:pageopacity="0.0"
     inkscape:pageshadow="2"
     inkscape:zoom="0.43901235"
     inkscape:cx="414.18729"
     inkscape:cy="526.18109"
     inkscape:document-units="px"
     inkscape:current-layer="layer1"
     showgrid="false"
     inkscape:window-width="1400"
     inkscape:window-height="964"
     inkscape:window-x="-4"
     inkscape:window-y="-4" />
  <metadata
     id="metadata7">
    <rdf:RDF>
      <cc:Work
         rdf:about="">
        <dc:format>image/svg+xml</dc:format>
        <dc:type
           rdf:resource="http://purl.org/dc/dcmitype/StillImage" />
        <cc:license
           rdf:resource="http://creativecommons.org/licenses/publicdomain/" />
      </cc:Work>
      <cc:License
         rdf:about="http://creativecommons.org/licenses/publicdomain/">
        <cc:permits
           rdf:resource="http://creativecommons.org/ns#Reproduction" />
        <cc:permits
           rdf:resource="http://creativecommons.org/ns#Distribution" />
        <cc:permits
           rdf:resource="http://creativecommons.org/ns#DerivativeWorks" />
      </cc:License>
    </rdf:RDF>
  </metadata>
  <g
     inkscape:label="Ebene 1"
     inkscape:groupmode="layer"
     id="layer1"
     transform="translate(-767.63214,154.11418)">
    <rect
       style="fill:#333333;fill-opacity:1;stroke:none;stroke-width:5;stroke-miterlimit:4;stroke-dasharray:none;stroke-opacity:1"
       id="rect3183"
       width="417.09787"
       height="459.65884"
       x="767.63214"
       y="-154.11418" />
    <g
       id="g3193"
       transform="translate(670.82396,-457.84588)">
      <path
         sodipodi:nodetypes="czzzzzzzcc"
         id="path2383"
         d="M 331.94786,761.34772 C 331.94786,761.34772 365.72933,682.89892 364.0866,643.46646 C 362.44387,604.03401 323.28255,544.14307 324.4488,511.20944 C 325.61505,478.27582 348.38424,455.79306 342.30367,436.45548 C 336.2231,417.1179 319.47696,400.16516 302.66586,400.16516 C 285.85477,400.16516 271.9654,417.11791 265.88483,436.45548 C 259.80426,455.79305 282.57345,478.27582 283.7397,511.20944 C 284.90595,544.14307 245.74463,604.03401 244.1019,643.46646 C 242.45917,682.89892 273.38388,761.34772 273.38388,761.34772 L 331.94786,761.34772 z"
         style="fill:#ffffff;fill-opacity:1;fill-rule:evenodd;stroke:#000000;stroke-width:5.01541185;stroke-linecap:butt;stroke-linejoin:miter;stroke-miterlimit:4;stroke-dasharray:none;stroke-opacity:1" />
      <rect
         y="500.23621"
         x="284.65128"
         height="38.222721"
         width="38.880768"
         id="rect3155"
         style="fill:#ff0000;fill-opacity:1;stroke:none;stroke-width:5;stroke-miterlimit:4;stroke-dasharray:none;stroke-opacity:1" />
    </g>
    <g
       id="g3197"
       transform="translate(804.07762,-457.84588)">
      <path
         style="fill:#ffffff;fill-opacity:1;fill-rule:evenodd;stroke:#000000;stroke-width:5.01541185;stroke-linecap:butt;stroke-linejoin:miter;stroke-miterlimit:4;stroke-dasharray:none;stroke-opacity:1"
         d="M 331.94786,761.34772 C 331.94786,761.34772 365.72933,682.89892 364.0866,643.46646 C 362.44387,604.03401 323.28255,544.14307 324.4488,511.20944 C 325.61505,478.27582 348.38424,455.79306 342.30367,436.45548 C 336.2231,417.1179 319.47696,400.16516 302.66586,400.16516 C 285.85477,400.16516 271.9654,417.11791 265.88483,436.45548 C 259.80426,455.79305 282.57345,478.27582 283.7397,511.20944 C 284.90595,544.14307 245.74463,604.03401 244.1019,643.46646 C 242.45917,682.89892 273.38388,761.34772 273.38388,761.34772 L 331.94786,761.34772 z"
         id="path3199"
         sodipodi:nodetypes="czzzzzzzcc" />
      <rect
         style="fill:#ff0000;fill-opacity:1;stroke:none;stroke-width:5;stroke-miterlimit:4;stroke-dasharray:none;stroke-opacity:1"
         id="rect3201"
         width="38.880768"
         height="38.222721"
         x="284.65128"
         y="500.23621" />
    </g>
    <g
       id="g3203"
       transform="translate(537.57029,-457.84588)">
      <path
         sodipodi:nodetypes="czzzzzzzcc"
         id="path3205"
         d="M 331.94786,761.34772 C 331.94786,761.34772 365.72933,682.89892 364.0866,643.46646 C 362.44387,604.03401 323.28255,544.14307 324.4488,511.20944 C 325.61505,478.27582 348.38424,455.79306 342.30367,436.45548 C 336.2231,417.1179 319.47696,400.16516 302.66586,400.16516 C 285.85477,400.16516 271.9654,417.11791 265.88483,436.45548 C 259.80426,455.79305 282.57345,478.27582 283.7397,511.20944 C 284.90595,544.14307 245.74463,604.03401 244.1019,643.46646 C 242.45917,682.89892 273.38388,761.34772 273.38388,761.34772 L 331.94786,761.34772 z"
         style="fill:#ffffff;fill-opacity:1;fill-rule:evenodd;stroke:#000000;stroke-width:5.01541185;stroke-linecap:butt;stroke-linejoin:miter;stroke-miterlimit:4;stroke-dasharray:none;stroke-opacity:1" />
      <rect
         y="500.23621"
         x="284.65128"
         height="38.222721"
         width="38.880768"
         id="rect3207"
         style="fill:#ff0000;fill-opacity:1;stroke:none;stroke-width:5;stroke-miterlimit:4;stroke-dasharray:none;stroke-opacity:1" />
    </g>
  </g>
</svg>
