<?xml version="1.0" encoding="UTF-8" standalone="no"?>
<!-- Created with Inkscape (http://www.inkscape.org/) -->

<svg
   xmlns:dc="http://purl.org/dc/elements/1.1/"
   xmlns:cc="http://creativecommons.org/ns#"
   xmlns:rdf="http://www.w3.org/1999/02/22-rdf-syntax-ns#"
   xmlns:svg="http://www.w3.org/2000/svg"
   xmlns="http://www.w3.org/2000/svg"
   xmlns:sodipodi="http://sodipodi.sourceforge.net/DTD/sodipodi-0.dtd"
   xmlns:inkscape="http://www.inkscape.org/namespaces/inkscape"
   width="16"
   height="16"
   id="svg2"
   sodipodi:version="0.32"
   inkscape:version="0.91 r13725"
   sodipodi:docname="9pin3.svg"
   inkscape:output_extension="org.inkscape.output.svg.inkscape"
   inkscape:export-filename="C:\Dokumente und Einstellungen\ulfl\Eigene Dateien\osm\svn.map-icons\svg\sports\10pin.png"
   inkscape:export-xdpi="3.1295931"
   inkscape:export-ydpi="3.1295931"
   version="1.0">
  <defs
     id="defs4">
    <inkscape:perspective
       sodipodi:type="inkscape:persp3d"
       inkscape:vp_x="0 : 526.18109 : 1"
       inkscape:vp_y="0 : 1000 : 0"
       inkscape:vp_z="744.09448 : 526.18109 : 1"
       inkscape:persp3d-origin="372.04724 : 350.78739 : 1"
       id="perspective10" />
  </defs>
  <sodipodi:namedview
     id="base"
     pagecolor="#ffffff"
     bordercolor="#666666"
     borderopacity="1.0"
     inkscape:pageopacity="0.0"
     inkscape:pageshadow="2"
     inkscape:zoom="28.09679"
     inkscape:cx="5.2878667"
     inkscape:cy="7.5259114"
     inkscape:document-units="px"
     inkscape:current-layer="layer1"
     showgrid="true"
     inkscape:window-width="1680"
     inkscape:window-height="988"
     inkscape:window-x="-8"
     inkscape:window-y="-8"
     fit-margin-top="0"
     fit-margin-left="0"
     fit-margin-right="0"
     fit-margin-bottom="0"
     inkscape:window-maximized="1">
    <inkscape:grid
       type="xygrid"
       id="grid4144"
       originx="-1.1132812e-006"
       originy="-6.6597403e-007" />
  </sodipodi:namedview>
  <metadata
     id="metadata7">
    <rdf:RDF>
      <cc:Work
         rdf:about="">
        <dc:format>image/svg+xml</dc:format>
        <dc:type
           rdf:resource="http://purl.org/dc/dcmitype/StillImage" />
        <cc:license
           rdf:resource="http://creativecommons.org/publicdomain/zero/1.0/" />
        <dc:title />
      </cc:Work>
      <cc:License
         rdf:about="http://creativecommons.org/publicdomain/zero/1.0/">
        <cc:permits
           rdf:resource="http://creativecommons.org/ns#Reproduction" />
        <cc:permits
           rdf:resource="http://creativecommons.org/ns#Distribution" />
        <cc:permits
           rdf:resource="http://creativecommons.org/ns#DerivativeWorks" />
      </cc:License>
    </rdf:RDF>
  </metadata>
  <g
     inkscape:label="Ebene 1"
     inkscape:groupmode="layer"
     id="layer1"
     transform="translate(-767.63214,-289.54467)">
    <rect
       style="fill:#333333;fill-opacity:1;stroke:none;stroke-width:5;stroke-miterlimit:4;stroke-dasharray:none;stroke-opacity:1"
       id="rect3183"
       width="16"
       height="16"
       x="767.63214"
       y="289.5285" />
    <g
       id="g3197"
       transform="matrix(0.04078562,0,0,0.04078562,767.78237,274.24304)">
      <path
         style="fill:#ffffff;fill-opacity:1;fill-rule:evenodd;stroke:#000000;stroke-width:5.01541185;stroke-linecap:butt;stroke-linejoin:miter;stroke-miterlimit:4;stroke-dasharray:none;stroke-opacity:1"
         d="m 331.94786,761.34772 c 0,0 33.78147,-78.4488 32.13874,-117.88126 -1.64273,-39.43245 -40.80405,-99.32339 -39.6378,-132.25702 1.16625,-32.93362 23.93544,-55.41638 17.85487,-74.75396 -6.08057,-19.33758 -22.82671,-36.29032 -39.63781,-36.29032 -16.81109,0 -30.70046,16.95275 -36.78103,36.29032 -6.08057,19.33757 16.68862,41.82034 17.85487,74.75396 1.16625,32.93363 -37.99507,92.82457 -39.6378,132.25702 -1.64273,39.43246 29.28198,117.88126 29.28198,117.88126 l 58.56398,0 z"
         id="path3199"
         sodipodi:nodetypes="czzzzzzzcc"
         inkscape:connector-curvature="0" />
      <rect
         style="fill:#ff0000;fill-opacity:1;stroke:none;stroke-width:5;stroke-miterlimit:4;stroke-dasharray:none;stroke-opacity:1"
         id="rect3201"
         width="38.880768"
         height="38.222721"
         x="284.65128"
         y="500.23621" />
    </g>
    <g
       style="fill:#ffffff;fill-opacity:1;stroke:none;stroke-width:1px;stroke-linecap:butt;stroke-linejoin:miter;stroke-opacity:1"
       id="text4146">
      <path
         d="m 769.68704,300.62961 1.13593,-0.11791 q 0.27198,1.70974 1.5999,1.70974 0.59196,0 1.07194,-0.36848 0.48797,-0.37585 0.82394,-1.32652 0.33599,-0.95068 0.33599,-2.21825 l 0,-0.2653 q -0.36799,0.65589 -0.99194,1.03911 -0.62397,0.38322 -1.27193,0.38322 -1.17592,0 -2.03187,-0.94331 -0.84795,-0.95067 -0.84795,-2.59409 0,-1.695 0.87994,-2.66779 0.88795,-0.98015 2.15188,-0.98015 0.89594,0 1.67189,0.54535 0.77596,0.54535 1.19993,1.60657 0.42397,1.06121 0.42397,3.05837 0,2.22561 -0.45597,3.45633 -0.45597,1.23072 -1.23993,1.79818 -0.77595,0.56746 -1.74389,0.56746 -1.09593,0 -1.83189,-0.68537 -0.73595,-0.69274 -0.87994,-1.99716 z m 4.8397,-4.76812 q 0,-1.15702 -0.55996,-1.82028 -0.55997,-0.66326 -1.28792,-0.66326 -0.75996,0 -1.35992,0.70747 -0.59197,0.70748 -0.59197,1.88662 0,1.06122 0.56797,1.695 0.56796,0.62641 1.35992,0.62641 0.78395,0 1.32792,-0.63378 0.54396,-0.63378 0.54396,-1.79818 z"
         id="path4193"
         inkscape:connector-curvature="0" />
    </g>
  </g>
</svg>
