<?xml version="1.0" encoding="UTF-8" standalone="no"?>
<!-- Created with Inkscape (http://www.inkscape.org/) -->

<svg
   xmlns:dc="http://purl.org/dc/elements/1.1/"
   xmlns:cc="http://creativecommons.org/ns#"
   xmlns:rdf="http://www.w3.org/1999/02/22-rdf-syntax-ns#"
   xmlns:svg="http://www.w3.org/2000/svg"
   xmlns="http://www.w3.org/2000/svg"
   xmlns:sodipodi="http://sodipodi.sourceforge.net/DTD/sodipodi-0.dtd"
   xmlns:inkscape="http://www.inkscape.org/namespaces/inkscape"
   width="140"
   height="140"
   id="svg2"
   sodipodi:version="0.32"
   inkscape:version="0.91 r13725"
   version="1.0"
   sodipodi:docname="boule.svg"
   inkscape:output_extension="org.inkscape.output.svg.inkscape"
   inkscape:export-filename="C:\Dokumente und Einstellungen\ulfl\boule.png"
   inkscape:export-xdpi="10.285714"
   inkscape:export-ydpi="10.285714">
  <defs
     id="defs4">
    <inkscape:perspective
       sodipodi:type="inkscape:persp3d"
       inkscape:vp_x="0 : 526.18109 : 1"
       inkscape:vp_y="0 : 1000 : 0"
       inkscape:vp_z="744.09448 : 526.18109 : 1"
       inkscape:persp3d-origin="372.04724 : 350.78739 : 1"
       id="perspective10" />
  </defs>
  <sodipodi:namedview
     id="base"
     pagecolor="#ffffff"
     bordercolor="#666666"
     borderopacity="1.0"
     inkscape:pageopacity="0.0"
     inkscape:pageshadow="2"
     inkscape:zoom="1.4"
     inkscape:cx="-51.172645"
     inkscape:cy="107.67556"
     inkscape:document-units="px"
     inkscape:current-layer="layer1"
     showgrid="false"
     inkscape:window-width="1680"
     inkscape:window-height="988"
     inkscape:window-x="-8"
     inkscape:window-y="-8"
     inkscape:window-maximized="1" />
  <metadata
     id="metadata7">
    <rdf:RDF>
      <cc:Work
         rdf:about="">
        <dc:format>image/svg+xml</dc:format>
        <dc:type
           rdf:resource="http://purl.org/dc/dcmitype/StillImage" />
        <cc:license
           rdf:resource="http://creativecommons.org/publicdomain/zero/1.0/" />
        <dc:title></dc:title>
      </cc:Work>
      <cc:License
         rdf:about="http://creativecommons.org/publicdomain/zero/1.0/">
        <cc:permits
           rdf:resource="http://creativecommons.org/ns#Reproduction" />
        <cc:permits
           rdf:resource="http://creativecommons.org/ns#Distribution" />
        <cc:permits
           rdf:resource="http://creativecommons.org/ns#DerivativeWorks" />
      </cc:License>
    </rdf:RDF>
  </metadata>
  <g
     inkscape:label="Ebene 1"
     inkscape:groupmode="layer"
     id="layer1"
     transform="translate(-257.14284,-335.21933)">
    <rect
       style="opacity:1;fill:#ffffff;fill-opacity:1;stroke:none;stroke-width:1;stroke-linecap:square;stroke-linejoin:miter;stroke-miterlimit:2;stroke-dasharray:none;stroke-dashoffset:0.60000002;stroke-opacity:1"
       id="rect4138"
       width="140"
       height="140"
       x="257.14285"
       y="335.21936" />
    <path
       sodipodi:type="arc"
       style="fill:#999999;fill-opacity:1;stroke-width:5;stroke-miterlimit:4;stroke-dasharray:none"
       id="path2385"
       sodipodi:cx="324.28571"
       sodipodi:cy="342.36218"
       sodipodi:rx="15.714286"
       sodipodi:ry="15.714286"
       d="m 339.99999,342.36218 a 15.714286,15.714286 0 0 1 -15.71428,15.71429 15.714286,15.714286 0 0 1 -15.71429,-15.71429 15.714286,15.714286 0 0 1 15.71429,-15.71428 15.714286,15.714286 0 0 1 15.71428,15.71428 z"
       transform="translate(48.571429,14.285715)" />
    <path
       d="m 339.99999,342.36218 a 15.714286,15.714286 0 0 1 -15.71428,15.71429 15.714286,15.714286 0 0 1 -15.71429,-15.71429 15.714286,15.714286 0 0 1 15.71429,-15.71428 15.714286,15.714286 0 0 1 15.71428,15.71428 z"
       sodipodi:ry="15.714286"
       sodipodi:rx="15.714286"
       sodipodi:cy="342.36218"
       sodipodi:cx="324.28571"
       id="path2387"
       style="fill:#999999;fill-opacity:1;stroke-width:5;stroke-miterlimit:4;stroke-dasharray:none"
       sodipodi:type="arc"
       transform="translate(-42.857147,34.285714)" />
    <path
       sodipodi:type="arc"
       style="fill:#999999;fill-opacity:1;stroke-width:5;stroke-miterlimit:4;stroke-dasharray:none"
       id="path2389"
       sodipodi:cx="324.28571"
       sodipodi:cy="342.36218"
       sodipodi:rx="15.714286"
       sodipodi:ry="15.714286"
       d="m 339.99999,342.36218 a 15.714286,15.714286 0 0 1 -15.71428,15.71429 15.714286,15.714286 0 0 1 -15.71429,-15.71429 15.714286,15.714286 0 0 1 15.71429,-15.71428 15.714286,15.714286 0 0 1 15.71428,15.71428 z"
       transform="translate(8.5714257,111.42858)" />
    <path
       transform="matrix(0.8181819,0,0,0.8181819,81.818184,110.8191)"
       d="m 339.99999,342.36218 a 15.714286,15.714286 0 0 1 -15.71428,15.71429 15.714286,15.714286 0 0 1 -15.71429,-15.71429 15.714286,15.714286 0 0 1 15.71429,-15.71428 15.714286,15.714286 0 0 1 15.71428,15.71428 z"
       sodipodi:ry="15.714286"
       sodipodi:rx="15.714286"
       sodipodi:cy="342.36218"
       sodipodi:cx="324.28571"
       id="path2391"
       style="fill:#000000;fill-opacity:1;stroke-width:5;stroke-miterlimit:4;stroke-dasharray:none"
       sodipodi:type="arc" />
  </g>
</svg>
