<?xml version="1.0" encoding="UTF-8" standalone="no"?>
<!-- Generator: Adobe Illustrator 13.0.0, SVG Export Plug-In . SVG Version: 6.00 Build 14948)  -->

<svg
   xmlns:dc="http://purl.org/dc/elements/1.1/"
   xmlns:cc="http://creativecommons.org/ns#"
   xmlns:rdf="http://www.w3.org/1999/02/22-rdf-syntax-ns#"
   xmlns:svg="http://www.w3.org/2000/svg"
   xmlns="http://www.w3.org/2000/svg"
   xmlns:xlink="http://www.w3.org/1999/xlink"
   xmlns:sodipodi="http://sodipodi.sourceforge.net/DTD/sodipodi-0.dtd"
   xmlns:inkscape="http://www.inkscape.org/namespaces/inkscape"
   version="1.1"
   id="Layer_1"
   x="0px"
   y="0px"
   width="300px"
   height="300px"
   viewBox="0 0 300 300"
   enable-background="new 0 0 300 300"
   xml:space="preserve"
   inkscape:version="0.91 r13725"
   sodipodi:docname="is2.svg"><metadata
   id="metadata76"><rdf:RDF><cc:Work
       rdf:about=""><dc:format>image/svg+xml</dc:format><dc:type
         rdf:resource="http://purl.org/dc/dcmitype/StillImage" /><dc:title></dc:title></cc:Work></rdf:RDF></metadata><defs
   id="defs74">
	<defs
   id="defs5">
		<rect
   height="300"
   width="300"
   id="SVGID_1_" />
	</defs>
	<clipPath
   id="SVGID_2_">
		<use
   id="use9"
   overflow="visible"
   xlink:href="#SVGID_1_" />
	</clipPath>
	

		
		
		
		
		
		
		
		
		
		
		
		
		
		
		
		
		
		
		
		
		
		
		
		
		
		
		
		
		
		
	</defs><sodipodi:namedview
   pagecolor="#ffffff"
   bordercolor="#666666"
   borderopacity="1"
   objecttolerance="10"
   gridtolerance="10"
   guidetolerance="10"
   inkscape:pageopacity="0"
   inkscape:pageshadow="2"
   inkscape:window-width="1680"
   inkscape:window-height="988"
   id="namedview72"
   showgrid="true"
   inkscape:zoom="1.5733333"
   inkscape:cx="84.642626"
   inkscape:cy="96.385487"
   inkscape:window-x="-8"
   inkscape:window-y="-8"
   inkscape:window-maximized="1"
   inkscape:current-layer="Layer_1"><inkscape:grid
     type="xygrid"
     id="grid4206" /></sodipodi:namedview>
<rect
   style="color:#000000;clip-rule:nonzero;display:inline;overflow:visible;visibility:visible;opacity:1;isolation:auto;mix-blend-mode:normal;color-interpolation:sRGB;color-interpolation-filters:linearRGB;solid-color:#000000;solid-opacity:1;fill:#ffffff;fill-opacity:1;fill-rule:evenodd;stroke:none;stroke-width:2;stroke-linecap:round;stroke-linejoin:miter;stroke-miterlimit:4;stroke-dasharray:none;stroke-dashoffset:0;stroke-opacity:1;color-rendering:auto;image-rendering:auto;shape-rendering:auto;text-rendering:auto;enable-background:accumulate"
   id="rect4204"
   width="300"
   height="300"
   x="0"
   y="-1.0685897e-015" /><path
   stroke-miterlimit="10"
   d="m 177.674,7.913 c 7.322,-0.845 15.018,2.038 19.925,7.555 3.139,3.83 5.17,8.563 5.552,13.52 -0.25,8.892 -6.073,17.573 -14.627,20.443 -7.661,2.973 -16.822,1.364 -23.079,-3.932 -7.173,-5.995 -10.104,-17.092 -5.304,-25.433 3.191,-6.815 10.226,-11.127 17.533,-12.153 z"
   id="path12"
   inkscape:connector-curvature="0"
   style="fill:none;stroke:#000000;stroke-width:0.1;stroke-miterlimit:10" /><path
   d="m 177.674,7.913 c 7.322,-0.845 15.018,2.038 19.925,7.555 3.139,3.83 5.17,8.563 5.552,13.52 -0.25,8.892 -6.073,17.573 -14.627,20.443 -7.661,2.973 -16.822,1.364 -23.079,-3.932 -7.173,-5.995 -10.104,-17.092 -5.304,-25.433 3.191,-6.815 10.226,-11.127 17.533,-12.153 z"
   id="path14"
   inkscape:connector-curvature="0" /><path
   stroke-miterlimit="10"
   d="m 43.813,25.835 c 29.426,2.921 58.877,6.049 88.004,11.274 6.189,0.81 12.321,2.167 18.328,3.837 5.32,1.519 8.843,8.105 6.037,13.135 -2.229,4.947 -8.131,6.951 -13.226,6.274 C 131.228,59.271 119.821,55.964 108.56,52.653 92.783,47.6 77.126,42.021 62.144,34.915 56.094,31.776 49.532,29.561 43.813,25.835 Z"
   id="path16"
   inkscape:connector-curvature="0"
   style="fill:none;stroke:#000000;stroke-width:0.1;stroke-miterlimit:10" /><path
   d="m 43.813,25.835 c 29.426,2.921 58.877,6.049 88.004,11.274 6.189,0.81 12.321,2.167 18.328,3.837 5.32,1.519 8.843,8.105 6.037,13.135 -2.229,4.947 -8.131,6.951 -13.226,6.274 C 131.228,59.271 119.821,55.964 108.56,52.653 92.783,47.6 77.126,42.021 62.144,34.915 56.094,31.776 49.532,29.561 43.813,25.835 Z"
   id="path18"
   inkscape:connector-curvature="0" /><path
   stroke-miterlimit="10"
   d="m 45.751,50.92 c 1.891,-2.616 5.073,-3.747 8.187,-3.945 7.739,-0.978 14.65,3.344 21.077,7.01 7.732,3.958 14.192,9.851 21.192,14.906 9.005,7.623 17.703,15.611 26.582,23.385 4.475,4.525 9.811,9.857 9.04,16.807 -1.772,9.09 -7.403,16.74 -12.907,23.949 -3.793,5.48 -7.801,10.809 -11.497,16.356 -3.578,5.332 -8.33,9.7 -12.639,14.415 -4.703,4.75 -9.04,9.905 -14.356,14.004 7.365,-16.395 14.759,-32.786 21.974,-49.253 2.519,-5.946 6.109,-11.405 8.159,-17.551 -9.063,-5.439 -19.116,-8.976 -28.156,-14.456 -5.871,-3.505 -12.06,-6.445 -17.875,-10.046 -1.371,7.148 -2.181,14.44 -4.345,21.412 -1.803,5.677 -5.904,11.276 -12.127,12.339 -15.801,3.577 -32.011,4.79 -48.058,6.789 l 0,-9.974 c 8.958,-3.386 17.901,-6.813 26.893,-10.109 4.842,-1.497 9.743,-2.81 14.499,-4.576 C 41.387,90.6 41.35,78.817 41.401,67.035 41.63,61.48 42.241,55.467 45.751,50.92 Z"
   id="path20"
   inkscape:connector-curvature="0"
   style="fill:none;stroke:#000000;stroke-width:0.1;stroke-miterlimit:10" /><path
   d="m 45.751,50.92 c 1.891,-2.616 5.073,-3.747 8.187,-3.945 7.739,-0.978 14.65,3.344 21.077,7.01 7.732,3.958 14.192,9.851 21.192,14.906 9.005,7.623 17.703,15.611 26.582,23.385 4.475,4.525 9.811,9.857 9.04,16.807 -1.772,9.09 -7.403,16.74 -12.907,23.949 -3.793,5.48 -7.801,10.809 -11.497,16.356 -3.578,5.332 -8.33,9.7 -12.639,14.415 -4.703,4.75 -9.04,9.905 -14.356,14.004 7.365,-16.395 14.759,-32.786 21.974,-49.253 2.519,-5.946 6.109,-11.405 8.159,-17.551 -9.063,-5.439 -19.116,-8.976 -28.156,-14.456 -5.871,-3.505 -12.06,-6.445 -17.875,-10.046 -1.371,7.148 -2.181,14.44 -4.345,21.412 -1.803,5.677 -5.904,11.276 -12.127,12.339 -15.801,3.577 -32.011,4.79 -48.058,6.789 l 0,-9.974 c 8.958,-3.386 17.901,-6.813 26.893,-10.109 4.842,-1.497 9.743,-2.81 14.499,-4.576 C 41.387,90.6 41.35,78.817 41.401,67.035 41.63,61.48 42.241,55.467 45.751,50.92 Z"
   id="path22"
   inkscape:connector-curvature="0" /><path
   stroke-miterlimit="10"
   d="m 267.691,109.908 c 7.31,-0.828 14.985,2.04 19.891,7.541 3.33,4.099 5.56,9.26 5.541,14.592 -0.654,6.746 -4.172,13.381 -9.959,17.073 -7.916,5.301 -19.038,4.983 -26.641,-0.758 -7.947,-5.78 -11.426,-17.553 -6.37,-26.316 3.201,-6.808 10.236,-11.107 17.538,-12.132 z"
   id="path24"
   inkscape:connector-curvature="0"
   style="fill:none;stroke:#000000;stroke-width:0.1;stroke-miterlimit:10" /><path
   d="m 267.691,109.908 c 7.31,-0.828 14.985,2.04 19.891,7.541 3.33,4.099 5.56,9.26 5.541,14.592 -0.654,6.746 -4.172,13.381 -9.959,17.073 -7.916,5.301 -19.038,4.983 -26.641,-0.758 -7.947,-5.78 -11.426,-17.553 -6.37,-26.316 3.201,-6.808 10.236,-11.107 17.538,-12.132 z"
   id="path26"
   inkscape:connector-curvature="0" /><path
   stroke-miterlimit="10"
   d="m 133.73,127.862 c 32.258,3.069 64.523,6.753 96.395,12.688 5.19,1.434 11.641,1.372 15.184,6.083 3.413,4.305 1.73,10.91 -2.811,13.695 -4.848,3.309 -10.977,1.904 -16.383,1.207 -13.436,-2.538 -26.635,-6.254 -39.509,-10.847 -13.579,-4.617 -26.915,-9.967 -39.795,-16.287 -4.326,-2.248 -9.03,-3.785 -13.081,-6.539 z"
   id="path28"
   inkscape:connector-curvature="0"
   style="fill:none;stroke:#000000;stroke-width:0.1;stroke-miterlimit:10" /><path
   d="m 133.73,127.862 c 32.258,3.069 64.523,6.753 96.395,12.688 5.19,1.434 11.641,1.372 15.184,6.083 3.413,4.305 1.73,10.91 -2.811,13.695 -4.848,3.309 -10.977,1.904 -16.383,1.207 -13.436,-2.538 -26.635,-6.254 -39.509,-10.847 -13.579,-4.617 -26.915,-9.967 -39.795,-16.287 -4.326,-2.248 -9.03,-3.785 -13.081,-6.539 z"
   id="path30"
   inkscape:connector-curvature="0" /><path
   stroke-miterlimit="10"
   d="m 138.528,150.43 c 5.431,-2.564 11.943,-1.797 17.285,0.666 21.877,10.123 38.971,27.549 56.946,43.139 4.476,4.554 9.804,9.845 9.106,16.814 -2.239,11.547 -10.627,20.245 -16.938,29.705 -4.852,6.223 -8.634,13.271 -14.277,18.861 -6.721,6.715 -12.721,14.215 -20.199,20.125 7.48,-16.607 14.957,-33.232 22.275,-49.92 2.419,-5.688 5.963,-10.889 7.781,-16.822 -9,-5.469 -19.046,-8.939 -28.041,-14.418 -5.865,-3.549 -12.131,-6.395 -17.895,-10.112 -2.287,9.644 -2.021,20.596 -8.326,28.772 -2.126,3.138 -5.813,4.535 -9.365,5.316 -15.181,3.323 -30.712,4.325 -46.065,6.556 -9.258,0.919 -18.547,3.031 -27.88,1.972 15.811,-8.385 32.8,-14.119 49.478,-20.479 6.173,-2.541 12.763,-3.814 18.982,-6.231 0.002,-12.104 -0.078,-24.211 0.035,-36.313 0.383,-6.323 1.36,-13.839 7.098,-17.631 z"
   id="path32"
   inkscape:connector-curvature="0"
   style="fill:none;stroke:#000000;stroke-width:0.1;stroke-miterlimit:10" /><path
   d="m 138.528,150.43 c 5.431,-2.564 11.943,-1.797 17.285,0.666 21.877,10.123 38.971,27.549 56.946,43.139 4.476,4.554 9.804,9.845 9.106,16.814 -2.239,11.547 -10.627,20.245 -16.938,29.705 -4.852,6.223 -8.634,13.271 -14.277,18.861 -6.721,6.715 -12.721,14.215 -20.199,20.125 7.48,-16.607 14.957,-33.232 22.275,-49.92 2.419,-5.688 5.963,-10.889 7.781,-16.822 -9,-5.469 -19.046,-8.939 -28.041,-14.418 -5.865,-3.549 -12.131,-6.395 -17.895,-10.112 -2.287,9.644 -2.021,20.596 -8.326,28.772 -2.126,3.138 -5.813,4.535 -9.365,5.316 -15.181,3.323 -30.712,4.325 -46.065,6.556 -9.258,0.919 -18.547,3.031 -27.88,1.972 15.811,-8.385 32.8,-14.119 49.478,-20.479 6.173,-2.541 12.763,-3.814 18.982,-6.231 0.002,-12.104 -0.078,-24.211 0.035,-36.313 0.383,-6.323 1.36,-13.839 7.098,-17.631 z"
   id="path34"
   inkscape:connector-curvature="0" /><path
   stroke-miterlimit="10"
   d="m 63.379,184.381 c 19.081,-0.001 38.161,-0.001 57.242,0 -0.003,1.998 -0.003,3.999 -0.006,6.001 -19.076,-0.003 -38.152,-0.003 -57.228,0.001 -0.006,-2.003 -0.007,-4.004 -0.008,-6.002 z"
   id="path36"
   inkscape:connector-curvature="0"
   style="fill:none;stroke:#000000;stroke-width:0.1;stroke-miterlimit:10" /><path
   d="m 63.379,184.38136 c 19.081,-0.001 38.161,-0.001 57.242,0 -0.003,2.97036 -0.003,5.94517 -0.006,8.92146 -19.076,-0.004 -38.152,-0.004 -57.228,0.001 -0.006,-2.97778 -0.007,-5.95259 -0.008,-8.92295 z"
   id="path38"
   inkscape:connector-curvature="0" /><path
   stroke-miterlimit="10"
   d="m 25.639,202.824 c 2.714,-0.006 5.428,-0.006 8.142,-0.012 0.032,2.332 0.042,4.667 0.043,7.004 -2.737,0.004 -5.473,0.003 -8.209,-0.003 0.003,-2.332 0.007,-4.661 0.024,-6.989 z"
   id="path40"
   inkscape:connector-curvature="0"
   style="fill:none;stroke:#000000;stroke-width:0.1;stroke-miterlimit:10" /><path
   d="m 25.639,202.824 c 2.714,-0.006 5.428,-0.006 8.142,-0.012 0.032,2.332 0.042,4.667 0.043,7.004 -2.737,0.004 -5.473,0.003 -8.209,-0.003 0.003,-2.332 0.007,-4.661 0.024,-6.989 z"
   id="path42"
   inkscape:connector-curvature="0" /><path
   stroke-miterlimit="10"
   d="m 61.64,202.822 c 2.709,-0.003 5.419,-0.004 8.13,-0.014 0.042,2.334 0.054,4.67 0.055,7.008 -2.738,0.004 -5.475,0.003 -8.211,-0.004 0.003,-2.332 0.008,-4.662 0.026,-6.99 z"
   id="path44"
   inkscape:connector-curvature="0"
   style="fill:none;stroke:#000000;stroke-width:0.1;stroke-miterlimit:10" /><path
   d="m 61.64,202.822 c 2.709,-0.003 5.419,-0.004 8.13,-0.014 0.042,2.334 0.054,4.67 0.055,7.008 -2.738,0.004 -5.475,0.003 -8.211,-0.004 0.003,-2.332 0.008,-4.662 0.026,-6.99 z"
   id="path46"
   inkscape:connector-curvature="0" /><path
   stroke-miterlimit="10"
   d="m 97.639,202.822 c 2.71,-0.003 5.42,-0.004 8.131,-0.014 0.042,2.334 0.054,4.67 0.055,7.008 -2.737,0.004 -5.474,0.003 -8.21,-0.004 0.002,-2.332 0.006,-4.662 0.024,-6.99 z"
   id="path48"
   inkscape:connector-curvature="0"
   style="fill:none;stroke:#000000;stroke-width:0.1;stroke-miterlimit:10" /><path
   d="m 97.639,202.822 c 2.71,-0.003 5.42,-0.004 8.131,-0.014 0.042,2.334 0.054,4.67 0.055,7.008 -2.737,0.004 -5.474,0.003 -8.21,-0.004 0.002,-2.332 0.006,-4.662 0.024,-6.99 z"
   id="path50"
   inkscape:connector-curvature="0" /><path
   stroke-miterlimit="10"
   d="m 241.64,202.821 c 2.708,-0.002 5.418,-0.003 8.13,-0.013 0.041,2.334 0.053,4.67 0.055,7.008 -2.738,0.004 -5.476,0.003 -8.211,-0.004 0.001,-2.333 0.006,-4.662 0.026,-6.991 z"
   id="path52"
   inkscape:connector-curvature="0"
   style="fill:none;stroke:#000000;stroke-width:0.1;stroke-miterlimit:10" /><path
   d="m 241.64,202.821 c 2.708,-0.002 5.418,-0.003 8.13,-0.013 0.041,2.334 0.053,4.67 0.055,7.008 -2.738,0.004 -5.476,0.003 -8.211,-0.004 0.001,-2.333 0.006,-4.662 0.026,-6.991 z"
   id="path54"
   inkscape:connector-curvature="0" /><path
   stroke-miterlimit="10"
   d="m 277.639,202.822 c 2.711,-0.003 5.422,-0.004 8.136,-0.012 0.036,2.333 0.046,4.668 0.05,7.006 -2.739,0.003 -5.475,0.003 -8.209,-0.004 -10e-4,-2.332 0.003,-4.662 0.023,-6.99 z"
   id="path56"
   inkscape:connector-curvature="0"
   style="fill:none;stroke:#000000;stroke-width:0.1;stroke-miterlimit:10" /><path
   d="m 277.639,202.822 c 2.711,-0.003 5.422,-0.004 8.136,-0.012 0.036,2.333 0.046,4.668 0.05,7.006 -2.739,0.003 -5.475,0.003 -8.209,-0.004 -10e-4,-2.332 0.003,-4.662 0.023,-6.99 z"
   id="path58"
   inkscape:connector-curvature="0" /><path
   stroke-miterlimit="10"
   d="m 169.641,202.819 c 2.711,0 5.422,-10e-4 8.137,-0.008 0.035,2.333 0.044,4.666 0.049,7.003 -2.74,0.005 -5.477,0.006 -8.212,-0.002 0,-2.333 0.006,-4.664 0.026,-6.993 z"
   id="path60"
   inkscape:connector-curvature="0"
   style="fill:none;stroke:#000000;stroke-width:0.1;stroke-miterlimit:10" /><path
   d="m 169.641,202.819 c 2.711,0 5.422,-10e-4 8.137,-0.008 0.035,2.333 0.044,4.666 0.049,7.003 -2.74,0.005 -5.477,0.006 -8.212,-0.002 0,-2.333 0.006,-4.664 0.026,-6.993 z"
   id="path62"
   inkscape:connector-curvature="0" /><path
   stroke-miterlimit="10"
   d="m 44.144,218.895 c 1.982,-0.753 3.959,-1.518 5.924,-2.312 6.609,17.909 13.199,35.825 19.844,53.722 -1.919,0.771 -3.893,1.411 -5.933,1.776 -6.481,-17.776 -13.318,-35.423 -19.835,-53.186 z"
   id="path64"
   inkscape:connector-curvature="0"
   style="fill:none;stroke:#000000;stroke-width:0.1;stroke-miterlimit:10" /><path
   d="m 44.144,218.895 c 1.982,-0.753 3.959,-1.518 5.924,-2.312 6.609,17.909 13.199,35.825 19.844,53.722 -1.919,0.771 -3.893,1.411 -5.933,1.776 -6.481,-17.776 -13.318,-35.423 -19.835,-53.186 z"
   id="path66"
   inkscape:connector-curvature="0" /><path
   stroke-miterlimit="10"
   d="m 153.379,286.381 c 19.08,-0.002 38.16,0 57.242,0 -0.004,1.997 -0.005,3.998 -0.006,6.001 -19.077,-0.003 -38.152,-0.003 -57.229,0 -0.005,-2.003 -0.007,-4.004 -0.007,-6.001 z"
   id="path68"
   inkscape:connector-curvature="0"
   style="fill:none;stroke:#000000;stroke-width:0.1;stroke-miterlimit:10" /><path
   d="m 153.379,286.38137 c 19.08,-0.003 38.16,0 57.242,0 -0.004,2.81946 -0.005,5.64457 -0.006,8.47251 -19.077,-0.004 -38.152,-0.004 -57.229,0 -0.005,-2.82794 -0.007,-5.65305 -0.007,-8.47251 z"
   id="path70"
   inkscape:connector-curvature="0" />
</svg>