<?xml version="1.0" encoding="UTF-8" standalone="no"?>
<!-- Created with Inkscape (http://www.inkscape.org/) -->

<svg
   xmlns:i="http://ns.adobe.com/AdobeIllustrator/10.0/"
   xmlns:dc="http://purl.org/dc/elements/1.1/"
   xmlns:cc="http://creativecommons.org/ns#"
   xmlns:rdf="http://www.w3.org/1999/02/22-rdf-syntax-ns#"
   xmlns:svg="http://www.w3.org/2000/svg"
   xmlns="http://www.w3.org/2000/svg"
   xmlns:sodipodi="http://sodipodi.sourceforge.net/DTD/sodipodi-0.dtd"
   xmlns:inkscape="http://www.inkscape.org/namespaces/inkscape"
   width="16"
   height="16"
   viewBox="0 0 16 16"
   id="svg2"
   version="1.1"
   inkscape:version="0.91 r13725"
   sodipodi:docname="pelota5.svg">
  <defs
     id="defs4" />
  <sodipodi:namedview
     id="base"
     pagecolor="#ffffff"
     bordercolor="#666666"
     borderopacity="1.0"
     inkscape:pageopacity="0.0"
     inkscape:pageshadow="2"
     inkscape:zoom="16"
     inkscape:cx="14.496427"
     inkscape:cy="11.827686"
     inkscape:document-units="px"
     inkscape:current-layer="layer1"
     showgrid="true"
     units="px"
     inkscape:window-width="1680"
     inkscape:window-height="988"
     inkscape:window-x="-8"
     inkscape:window-y="-8"
     inkscape:window-maximized="1">
    <inkscape:grid
       type="xygrid"
       id="grid4136" />
  </sodipodi:namedview>
  <metadata
     id="metadata7">
    <rdf:RDF>
      <cc:Work
         rdf:about="">
        <dc:format>image/svg+xml</dc:format>
        <dc:type
           rdf:resource="http://purl.org/dc/dcmitype/StillImage" />
        <dc:title></dc:title>
        <cc:license
           rdf:resource="http://creativecommons.org/publicdomain/zero/1.0/" />
      </cc:Work>
      <cc:License
         rdf:about="http://creativecommons.org/publicdomain/zero/1.0/">
        <cc:permits
           rdf:resource="http://creativecommons.org/ns#Reproduction" />
        <cc:permits
           rdf:resource="http://creativecommons.org/ns#Distribution" />
        <cc:permits
           rdf:resource="http://creativecommons.org/ns#DerivativeWorks" />
      </cc:License>
    </rdf:RDF>
  </metadata>
  <g
     inkscape:label="Layer 1"
     inkscape:groupmode="layer"
     id="layer1"
     transform="translate(0,-1036.3622)">
    <rect
       style="color:#000000;clip-rule:nonzero;display:inline;overflow:visible;visibility:visible;opacity:1;isolation:auto;mix-blend-mode:normal;color-interpolation:sRGB;color-interpolation-filters:linearRGB;solid-color:#000000;solid-opacity:1;fill:#ffffff;fill-opacity:1;fill-rule:evenodd;stroke:none;stroke-width:2;stroke-linecap:round;stroke-linejoin:miter;stroke-miterlimit:4;stroke-dasharray:none;stroke-dashoffset:0;stroke-opacity:1;color-rendering:auto;image-rendering:auto;shape-rendering:auto;text-rendering:auto;enable-background:accumulate"
       id="rect4184"
       width="16"
       height="16"
       x="0"
       y="1036.3622" />
    <path
       inkscape:connector-curvature="0"
       id="path12"
       d="m 13.02,1038.8442 c 0.1136,0.1466 0.03445,0.3313 0.01888,0.4953 -0.06949,0.352 -0.1392,0.7041 -0.212107,1.0554 -0.244266,0.9111 -0.858293,1.6577 -1.48272,2.3401 -0.253013,0.2253 -0.45552,0.5935 -0.835733,0.5964 -0.314453,0.043 -0.6135467,-0.2777 -0.51536,-0.5888 0.011627,-0.1353 0.1368,-0.204 0.234507,-0.2759 0.787093,-0.5619 1.53504,-1.2145 2.052106,-2.0414 0.268854,-0.5167 0.532907,-1.0364 0.740427,-1.5811 z" />
    <path
       inkscape:connector-curvature="0"
       id="path16"
       d="m 2.6573333,1039.0191 c 0.3812267,-0.3828 0.9315734,-0.5339 1.4577067,-0.5614 0.04912,0.1037 0.093227,0.2125 0.077173,0.3299 -0.2098133,0.072 -0.4434133,0.091 -0.6236266,0.232 -0.3531734,0.2471 -0.46096,0.7027 -0.50992,1.1062 -0.086773,1.1676 0.26672,2.3208 0.7606933,3.3661 0.39824,0.2096 0.8558933,0.2538 1.2984533,0.2682 0.2251733,0.015 0.45424,0 0.6711467,-0.068 0.4786133,-0.1536 0.84176,-0.5318 1.3112533,-0.7051 0.2141867,-0.065 0.5072,-6e-4 0.5948267,0.2285 0.07376,0.1449 0.00784,0.3115 -0.069333,0.4402 -0.1800534,0.2776 -0.4821867,0.4483 -0.7865067,0.5584 -0.4456,0.173 -0.93264,0.137 -1.4009067,0.1392 -0.4960533,-0.026 -1.0066667,-0.1008 -1.44688,-0.3452 -0.43488,-0.2189 -0.77792,-0.5918 -1.0141866,-1.0129 -0.4571734,-0.7247 -0.8021867,-1.546 -0.8526934,-2.4093 -0.036587,-0.5625 0.1108267,-1.1702 0.5328,-1.5671 z" />
    <path
       style="fill:#ffffff"
       inkscape:connector-curvature="0"
       id="path20"
       d="m 2.5871467,1039.6965 c 0.092693,-0.2519 0.2930666,-0.4346 0.4775466,-0.6196 -0.2677333,0.369 -0.3322133,0.8434 -0.3554133,1.2872 -0.018027,0.7173 0.1379733,1.4237 0.3288,2.1108 -0.2600533,-0.5521 -0.5044267,-1.1244 -0.5705067,-1.7371 -0.014187,-0.3499 -0.026933,-0.7141 0.1195734,-1.0413 z" />
    <path
       inkscape:connector-curvature="0"
       id="path24"
       d="m 8.3061867,1039.7723 c 0.46336,-0.057 0.9576,0.1943 1.1611733,0.6196 0.3202667,0.5586 0.028427,1.342 -0.56544,1.5757 -0.3585067,0.1641 -0.7944,0.1116 -1.1155733,-0.112 -0.3914134,-0.2792 -0.5994667,-0.8191 -0.43472,-1.2812 0.1288,-0.4243 0.5152533,-0.7456 0.95456,-0.8021 z" />
    <path
       inkscape:connector-curvature="0"
       id="path28"
       d="m 9.3057067,1046.4419 c 0.025013,-0.2115 0.20704,-0.3656 0.3981333,-0.4319 0.212,-0.014 0.422293,0.062 0.61424,0.1463 0.64912,0.3434 1.105867,1.0009 1.256427,1.7144 0.109066,0.4416 0.02315,0.9259 -0.24512,1.2951 -0.381014,0.4851 -0.875414,0.8893 -1.4507203,1.1202 -0.4252267,0.1909 -0.8802134,0.3027 -1.3335467,0.404 -0.2108267,0.053 -0.4222933,0.1388 -0.6439467,0.1122 0.4341334,-0.2874 0.9364267,-0.4432 1.4045334,-0.6634 0.5893333,-0.3008 1.1338663,-0.7903 1.3065603,-1.4505 0.107893,-0.3316 0.04635,-0.7268 -0.216907,-0.9694 -0.283253,-0.2534 -0.6516267,-0.4055 -0.89696,-0.7032 -0.1221333,-0.1625 -0.2328533,-0.3637 -0.1926933,-0.5738 z" />
    <path
       inkscape:connector-curvature="0"
       id="path32"
       d="m 7.84064,1046.7625 c 0.1577067,-0.3519 0.52992,-0.6799 0.9389333,-0.5674 0.097227,0.1271 0.2556267,0.2222 0.28128,0.3922 0.08112,0.2993 -5.866e-4,0.6085 -0.079413,0.8989 -0.10112,0.3382 -0.2344533,0.6676 -0.40432,0.9773 -0.3999467,0.8138 -0.91008,1.5835 -1.5705067,2.2098 -0.6192533,0.6097 -1.38256,1.0519 -2.18048,1.3844 -0.06448,0.021 -0.1309333,0.029 -0.1993066,0.023 0.28336,-0.2327 0.57248,-0.4588 0.8487466,-0.7001 0.5346667,-0.4874 0.93872,-1.0941 1.3317334,-1.6958 0.1644266,-0.3011 0.3799466,-0.5767 0.4896,-0.9052 0.2155733,-0.6626 0.2619733,-1.3752 0.5437333,-2.0169 z" />
    <path
       i:knockout="Off"
       d="m 13.5,1037.3622 c 0.276125,0 0.5,0.2238 0.5,0.4999 0,0.2763 -0.223875,0.5001 -0.5,0.5001 -0.276125,0 -0.5,-0.2238 -0.5,-0.5001 0,-0.2761 0.223875,-0.4999 0.5,-0.4999"
       id="path36"
       inkscape:connector-curvature="0"
       sodipodi:nodetypes="csssc" />
  </g>
</svg>
