<?xml version="1.0" encoding="UTF-8" standalone="no"?>
<!-- Created with Inkscape (http://www.inkscape.org/) -->

<svg
   xmlns:dc="http://purl.org/dc/elements/1.1/"
   xmlns:cc="http://creativecommons.org/ns#"
   xmlns:rdf="http://www.w3.org/1999/02/22-rdf-syntax-ns#"
   xmlns:svg="http://www.w3.org/2000/svg"
   xmlns="http://www.w3.org/2000/svg"
   xmlns:sodipodi="http://sodipodi.sourceforge.net/DTD/sodipodi-0.dtd"
   xmlns:inkscape="http://www.inkscape.org/namespaces/inkscape"
   height="449.90442"
   id="svg1"
   version="1.0"
   width="492.14069"
   x="0.00000000"
   y="0.00000000"
   sodipodi:version="0.32"
   inkscape:version="0.91 r13725"
   sodipodi:docname="table_tennis.svg"
   inkscape:output_extension="org.inkscape.output.svg.inkscape">
  <sodipodi:namedview
     inkscape:window-height="988"
     inkscape:window-width="1680"
     inkscape:pageshadow="2"
     inkscape:pageopacity="0.0"
     guidetolerance="10.0"
     gridtolerance="10.0"
     objecttolerance="10.0"
     borderopacity="1.0"
     bordercolor="#666666"
     pagecolor="#ffffff"
     id="base"
     showgrid="false"
     inkscape:zoom="0.52455586"
     inkscape:cx="246.07034"
     inkscape:cy="223.04583"
     inkscape:window-x="-8"
     inkscape:window-y="-8"
     inkscape:window-maximized="1"
     inkscape:current-layer="svg1" />
  <metadata
     id="metadata3">
    <rdf:RDF>
      <cc:Work
         rdf:about="">
        <dc:title>table tennis</dc:title>
        <dc:description />
        <dc:subject>
          <rdf:Bag>
            <rdf:li>sports</rdf:li>
            <rdf:li>table</rdf:li>
            <rdf:li>tennis</rdf:li>
            <rdf:li>ping pong</rdf:li>
          </rdf:Bag>
        </dc:subject>
        <dc:publisher>
          <cc:Agent
             rdf:about="http://www.openclipart.org/">
            <dc:title>Open Clip Art Library</dc:title>
          </cc:Agent>
        </dc:publisher>
        <dc:creator>
          <cc:Agent>
            <dc:title>Omar Abo-Namous</dc:title>
          </cc:Agent>
        </dc:creator>
        <dc:rights>
          <cc:Agent>
            <dc:title>Omar Abo-Namous</dc:title>
          </cc:Agent>
        </dc:rights>
        <dc:date />
        <dc:format>image/svg+xml</dc:format>
        <dc:type
           rdf:resource="http://purl.org/dc/dcmitype/StillImage" />
        <cc:license
           rdf:resource="http://web.resource.org/cc/PublicDomain" />
        <dc:language>en</dc:language>
      </cc:Work>
      <cc:License
         rdf:about="http://web.resource.org/cc/PublicDomain">
        <cc:permits
           rdf:resource="http://web.resource.org/cc/Reproduction" />
        <cc:permits
           rdf:resource="http://web.resource.org/cc/Distribution" />
        <cc:permits
           rdf:resource="http://web.resource.org/cc/DerivativeWorks" />
      </cc:License>
    </rdf:RDF>
  </metadata>
  <defs
     id="defs3" />
  <rect
     style="opacity:1;fill:#ffffff;fill-opacity:1;stroke:none;stroke-width:30;stroke-linecap:square;stroke-linejoin:miter;stroke-miterlimit:4;stroke-dasharray:none;stroke-dashoffset:0.60000002;stroke-opacity:1"
     id="rect4138"
     width="492.14099"
     height="449.90442"
     x="0"
     y="5.6843419e-014" />
  <g
     id="layer1"
     transform="translate(0.176986,-0.5918139)" />
  <g
     id="g1080"
     transform="translate(0.176986,-0.5918139)">
    <path
       d="m 94.375742,101.3253 c -2.150186,3.22528 -16.425023,37.3296 -15.768023,39.42006 0.657001,2.09046 -2.441533,5.8584 3.687525,10.50689 6.291799,4.77192 116.322286,41.72321 123.173396,41.81428 6.59662,0.0911 19.71003,-2.32937 31.17768,-7.16729 11.46765,-4.83791 25.44385,-11.10929 37.62823,-21.86021 12.18438,-10.75093 25.5036,-27.29541 35.47807,-42.64534 9.97448,-15.34993 20.18784,-35.896142 24.36876,-49.454254 4.18092,-13.558112 4.18092,-22.696399 0.71672,-31.894413 -3.4642,-9.198015 -12.9011,-17.559845 -21.50183,-23.293671 -8.60073,-5.733827 -15.40966,-9.855015 -30.1026,-11.10929 -14.69293,-1.2542744 -39.95761,0.059728 -58.055,3.583642 -18.09739,3.523914 -35.23915,9.01883 -50.52935,17.559843 -15.29021,8.541014 -27.7135,20.844852 -41.21188,33.686235 -13.49839,12.841384 -26.51895,28.908043 -39.778426,43.362068"
       id="path2311"
       style="fill:#ff0000;fill-opacity:1;fill-rule:evenodd;stroke:none;stroke-width:0.25pt;stroke-linecap:butt;stroke-linejoin:miter;stroke-opacity:1"
       inkscape:connector-curvature="0" />
    <path
       d="m 185.13907,212.03584 c 5.23697,10.47394 9.2914,22.13042 15.71091,31.42181 6.41951,9.2914 11.86765,16.04878 22.80616,24.32657 10.93851,8.27781 37.03424,28.02696 42.82489,25.3402 5.48062,-2.54289 158.51251,-62.33616 164.45773,-64.36407 5.77217,-1.96889 8.19333,-20.52553 9.12247,-29.9014 0.92914,-9.37587 -0.29564,-17.48472 -3.54762,-26.35378 -3.25198,-8.86907 -9.5448,-17.94929 -15.96432,-26.86059 -6.4195,-8.91129 -14.10603,-18.16046 -22.55276,-26.60718 -8.44673,-8.44673 -19.13181,-17.78036 -28.12757,-24.073168 -8.99577,-6.29281 -20.56777,-12.83902 -25.84699,-13.683693 -5.27921,-0.844673 -1.94274,1.351477 -5.82824,8.61566 -3.88548,7.264181 -11.10744,24.791131 -17.48472,34.969441 -6.37728,10.1783 -13.33849,17.77966 -20.77894,26.10038 -7.44042,8.32072 -14.63038,16.86691 -23.86368,23.82393 -9.2333,6.95703 -22.60682,13.46853 -31.53606,17.91821 -8.92924,4.44969 -13.02056,6.12206 -22.03939,8.77993 -9.01883,2.65786 -21.3824,4.77819 -32.0736,7.16728"
       id="path4175"
       style="fill:#007fff;fill-opacity:1;fill-rule:evenodd;stroke:none;stroke-width:0.25pt;stroke-linecap:butt;stroke-linejoin:miter;stroke-opacity:1"
       inkscape:connector-curvature="0" />
    <path
       d="m 146.58156,76.996765 c 0.005,6.433137 -5.6364,11.650581 -12.59685,11.650581 -6.96045,0 -12.60165,-5.217444 -12.59685,-11.650581 -0.005,-6.433137 5.6364,-11.650581 12.59685,-11.650581 6.96045,0 12.60165,5.217444 12.59685,11.650581 l 0,0 z"
       id="path4797"
       style="fill:#ffffff;fill-opacity:1;fill-rule:nonzero;stroke:none;stroke-width:0.3125;stroke-linecap:round;stroke-linejoin:round;stroke-miterlimit:4;stroke-dasharray:2.5, 2.5;stroke-dashoffset:0pt;stroke-opacity:1"
       transform="matrix(2.81642,0,0,2.81642,-41.8027,-40.0944)"
       inkscape:connector-curvature="0" />
    <path
       d="m 425.76474,447.30576 c -1.56427,-1.93629 -10.63709,-19.1181 -20.16178,-38.18184 -15.07116,-30.16487 -34.42245,-63.14089 -49.4982,-84.34852 -7.35641,-10.34852 -24.27102,-17.07487 -55.29909,-21.99054 -38.14062,-6.04249 -50.84196,-10.57194 -72.01726,-25.68233 -20.12116,-14.35816 -29.00831,-24.16926 -40.76823,-45.0067 -7.87529,-13.95424 -8.87458,-14.71426 -17.30541,-13.16184 -5.67612,1.04518 -14.86847,7.408 -25.14192,17.40289 -17.08447,16.62124 -20.32026,17.41747 -9.91428,2.4396 12.90455,-18.57418 19.60074,-24.1259 31.38316,-26.01936 6.39325,-1.0274 14.43112,-3.6473 17.86194,-5.82199 3.43082,-2.17469 10.8401,-3.95398 16.46506,-3.95398 26.1593,0 69.516,-22.51022 92.62593,-48.09014 12.84252,-14.21513 33.85232,-46.38349 41.32012,-63.265677 3.48434,-7.87687 7.373,-12.566754 10.41992,-12.566754 9.86443,0 41.11945,21.712431 60.25819,41.860581 25.35912,26.69656 37.4403,50.95581 37.36066,75.02093 -0.072,21.76485 -5.37548,34.75231 -15.08682,36.94575 -4.06376,0.91785 -23.97941,7.87238 -44.25705,15.4545 -37.34306,13.96314 -49.49704,17.07568 -39.09755,10.01256 3.05548,-2.07521 20.71679,-8.72077 39.24732,-14.76791 39.58045,-12.91643 47.63992,-18.66699 51.99724,-37.10084 2.69044,-11.38209 2.36706,-15.50418 -2.1838,-27.8373 C 422.22644,146.8133 392.28804,112.92594 359.18582,93.995138 L 343.4432,84.99211 332.29045,108.07725 c -14.35119,29.70559 -49.07815,69.65328 -70.13864,80.68301 -10.00023,5.2373 -53.20445,19.84763 -58.83702,19.89686 -12.65487,0.11061 -13.16214,4.3358 -2.74981,22.90395 5.51794,9.84007 13.62079,21.18978 18.00631,25.22157 21.37081,19.64702 56.53039,37.6457 79.02819,40.45567 47.55734,5.93987 54.63898,7.98791 62.35021,18.03212 14.45477,18.828 34.49683,52.95529 52.8601,90.00932 21.39748,43.17657 18.32215,41.75357 52.80495,24.43373 25.71481,-12.91588 17.17936,-2.97605 -9.46943,11.02751 -20.71126,10.88344 -25.9731,12.02043 -30.38057,6.56477 z m 11.35187,-16.83046 c -5.28564,-6.60691 -21.18552,-41.82671 -19.59886,-43.41337 0.86176,-0.8618 6.7084,8.92273 12.99252,21.74334 10.74304,21.91756 13.16801,29.87195 6.60634,21.67003 z m -25.5327,-53.43927 c -1.85884,-1.85884 -3.37971,-4.82969 -3.37971,-6.60187 0,-4.29586 -32.94977,-57.1345 -41.19563,-66.06182 -14.89696,-16.12807 -26.39849,-31.79662 -26.39849,-35.96269 0,-3.44242 1.65104,-2.90419 7.29692,2.3788 6.72311,6.29093 23.68372,29.41657 23.68372,32.2925 0,0.68346 4.54123,7.19196 10.0916,14.46337 8.66799,11.3557 36.65357,62.87141 34.1545,62.87141 -0.48026,0 -2.39407,-1.52086 -4.25291,-3.3797 z M 33.681803,347.29985 C 22.142196,341.6178 -0.1769855,320.94076 -0.1769855,315.93226 c 0,-1.91827 5.3864075,0.86667 11.9697935,6.18875 15.434547,12.47748 35.119845,24.70371 44.226903,27.46865 6.578995,1.9974 6.35674,2.19244 -2.684678,2.35565 -5.421613,0.0979 -14.265567,-1.99259 -19.65323,-4.64546 z m 8.469105,-11.83686 c -2.278685,-1.44108 -3.409834,-3.3534 -2.513657,-4.24956 0.896175,-0.89618 3.232588,0.30229 5.192029,2.66327 4.062951,4.89556 3.283912,5.35694 -2.678372,1.58629 z M -0.1769855,308.87656 c 0,-1.29829 10.5248375,-13.42034 23.3885255,-26.93787 12.863692,-13.51753 32.309963,-36.49603 43.213938,-51.06333 20.284983,-27.09997 29.155882,-36.59942 29.155882,-31.22171 0,1.64729 -1.184458,3.7271 -2.63213,4.62181 -1.447674,0.89471 -13.804726,16.36846 -27.460114,34.38612 -27.89639,36.80799 -24.739964,33.15712 -48.212734,55.76513 -9.599352,9.24569 -17.4533675,15.74813 -17.4533675,14.44985 z M 341.44253,292.39145 c -10.85396,-11.91732 -17.06186,-29.44183 -7.66766,-21.64533 4.93361,4.09451 16.31323,25.087 14.55324,26.84698 -0.61828,0.61832 -3.7168,-1.72244 -6.88558,-5.20165 z m -50.76945,-10.80658 c 8.80403,-5.12567 35.85489,-13.60076 35.85489,-11.2334 0,3.12199 -27.48034,14.32653 -34.87674,14.22027 -5.44423,-0.0782 -5.52909,-0.33733 -0.97815,-2.98687 z m 18.625,-78.27238 c -10.13796,-10.13796 -14.65615,-22.86272 -8.11791,-22.86272 1.54903,0 2.81642,1.17015 2.81642,2.60033 0,6.13781 15.37082,20.09105 25.46313,23.11477 12.5017,3.7456 12.17286,8.08197 -0.61288,8.08197 -6.25139,0 -11.6138,-2.99939 -19.54876,-10.93435 z m 44.62689,2.06326 c 0,-0.55674 6.72491,-10.36966 9.68823,-16.98847 5.97085,-13.33631 3.76046,-21.32523 -6.5704,-32.35474 -10.01694,-10.69438 -19.85853,-13.194 -31.99024,-8.12505 -25.45176,12.56101 -15.84187,4.48573 -6.62899,-3.78801 7.65095,-7.12796 24.30922,-7.87586 36.38085,-1.63337 16.1457,8.34927 23.33992,34.53767 14.18637,51.64125 -2.46389,4.60381 -15.06582,14.20748 -15.06582,11.24839 z M 84.940272,174.07008 C 66.75641,139.48641 74.999196,111.51376 115.94034,68.868517 139.70911,44.110404 169.04932,23.561606 194.36614,13.941971 229.10455,0.7424148 267.774,-3.0042528 294.85677,4.2054732 c 31.42848,8.3666068 43.32552,20.6640028 45.21115,46.7325738 1.15256,15.933826 0.316,18.872684 -13.13239,46.133963 -14.63371,29.66403 -30.83579,50.55317 -51.97473,67.01027 -11.76688,9.16076 -11.75544,9.13358 3.81054,-9.04935 23.24333,-27.15103 35.45066,-44.95471 45.39599,-66.207343 16.19718,-34.612615 10.58735,-55.605084 -18.79176,-70.320081 -15.39524,-7.710953 -19.2073,-8.423314 -43.62531,-8.152269 -49.78701,0.552647 -93.2492,20.699919 -135.52433,62.823467 -27.31092,27.213006 -41.910255,51.741216 -41.910255,70.413046 0,6.14889 1.148407,11.88954 2.552016,12.75702 1.403609,0.86748 1.890072,4.10851 1.08103,7.20229 -0.809043,3.09379 0.65579,8.87093 3.255178,12.8381 2.599392,3.96717 4.330861,9.01974 3.847711,11.22793 -0.483154,2.20819 -5.033253,-3.88707 -10.111338,-13.54501 z m 88.926018,13.32141 c -7.28683,-1.99368 -16.12371,-5.63855 -19.63752,-8.09972 -3.5138,-2.46116 -8.95836,-4.49425 -12.09901,-4.51797 -6.80566,-0.0514 -14.71068,-4.56918 -12.26839,-7.01147 2.14931,-2.14931 32.65273,6.52234 34.72233,9.87102 0.83178,1.34584 8.45954,4.4666 16.95059,6.93502 15.31596,4.45247 19.98005,7.46919 10.50953,6.79754 -2.71081,-0.19225 -10.89069,-1.98074 -18.17753,-3.97442 z m -69.83566,-23.84025 c -2.32355,-1.50159 -2.95724,-2.73017 -1.40821,-2.73017 1.54903,0 4.7175,1.22858 7.04105,2.73017 2.32355,1.50159 2.95725,2.73017 1.40821,2.73017 -1.54903,0 -4.7175,-1.22858 -7.04105,-2.73017 z m 320.04017,85.06174 c 0.4181,0.71672 -13.49841,14.93182 -16.12641,22.21856 -2.628,7.28673 -4.06145,10.27313 0.35836,21.50186 4.41981,11.22874 12.42329,26.45922 26.16059,45.87062 13.7373,19.4114 50.35016,62.41509 56.26318,70.59775 5.91303,8.18267 -10.7509,-9.25774 -20.78511,-21.50186 -10.0342,-12.24411 -29.8167,-35.3586 -40.68707,-51.96281 -12.14279,-16.60422 -20.6548,-36.41663 -25.54989,-47.66351 -10.74818,-11.24688 -24.27833,-26.88321 -23.86023,-27.06239 1.43603,-0.43366 20.71999,21.50371 22.45209,20.01052 1.7321,-1.49318 1.71911,-7.01412 4.5263,-13.34522 2.80718,-6.3311 16.83009,-19.38025 17.24819,-18.66352 z"
       id="path1062"
       inkscape:connector-curvature="0" />
  </g>
</svg>
