<?xml version="1.0" encoding="UTF-8" standalone="no"?>
<svg
   xmlns:dc="http://purl.org/dc/elements/1.1/"
   xmlns:cc="http://creativecommons.org/ns#"
   xmlns:rdf="http://www.w3.org/1999/02/22-rdf-syntax-ns#"
   xmlns:svg="http://www.w3.org/2000/svg"
   xmlns="http://www.w3.org/2000/svg"
   xmlns:sodipodi="http://sodipodi.sourceforge.net/DTD/sodipodi-0.dtd"
   xmlns:inkscape="http://www.inkscape.org/namespaces/inkscape"
   width="725"
   height="725"
   version="1.1"
   id="svg2"
   sodipodi:version="0.32"
   inkscape:version="0.46"
   sodipodi:docname="goods.svg"
   inkscape:output_extension="org.inkscape.output.svg.inkscape"
   inkscape:export-filename="C:\Dokumente und Einstellungen\ulfl\Eigene Dateien\osm\svn.openstreetmap.org\applications\share\map-icons\svg\vehicle\restrictions\goods.png"
   inkscape:export-xdpi="2"
   inkscape:export-ydpi="2">
  <metadata
     id="metadata20">
    <rdf:RDF>
      <cc:Work
         rdf:about="">
        <dc:format>image/svg+xml</dc:format>
        <dc:type
           rdf:resource="http://purl.org/dc/dcmitype/StillImage" />
        <cc:license
           rdf:resource="http://creativecommons.org/licenses/publicdomain/" />
      </cc:Work>
      <cc:License
         rdf:about="http://creativecommons.org/licenses/publicdomain/">
        <cc:permits
           rdf:resource="http://creativecommons.org/ns#Reproduction" />
        <cc:permits
           rdf:resource="http://creativecommons.org/ns#Distribution" />
        <cc:permits
           rdf:resource="http://creativecommons.org/ns#DerivativeWorks" />
      </cc:License>
    </rdf:RDF>
  </metadata>
  <defs
     id="defs18">
    <inkscape:perspective
       sodipodi:type="inkscape:persp3d"
       inkscape:vp_x="0 : 362.5 : 1"
       inkscape:vp_y="0 : 1000 : 0"
       inkscape:vp_z="725 : 362.5 : 1"
       inkscape:persp3d-origin="362.5 : 241.66667 : 1"
       id="perspective22" />
  </defs>
  <sodipodi:namedview
     inkscape:window-height="480"
     inkscape:window-width="640"
     inkscape:pageshadow="2"
     inkscape:pageopacity="0.0"
     guidetolerance="10.0"
     gridtolerance="10.0"
     objecttolerance="10.0"
     borderopacity="1.0"
     bordercolor="#666666"
     pagecolor="#ffffff"
     id="base"
     showgrid="false" />
  <circle
     style="fill: rgb(255, 255, 255); stroke: rgb(0, 0, 0); stroke-width: 2.5px;"
     r="350"
     cx="362.5"
     cy="362.5"
     id="circle4" />
  <circle
     cx="362.5"
     cy="362.5"
     r="290"
     style="stroke: rgb(204, 0, 0); stroke-width: 93.75; fill: none;"
     id="circle6" />
  <g
     id="TruckSymbol"
     transform="matrix(0.436865, 0, 0, 0.436865, 143.872, 253.031)">
    <path
       style="fill: black; stroke: none; fill-rule: evenodd;"
       d="M 295.78419,86.816926 L 295.78419,335.08252 L 687.71625,335.40310 C 664.71649,354.19396 650.35734,380.09418 650.54503,414.08813 L 261.47933,413.85667 C 257.75238,281.97351 70.642616,282.42223 66.576854,413.09434 C 38.473995,412.88466 34.575813,406.50199 34.304870,380.61469 L 34.304868,281.61469 C 33.952015,237.37253 28.426810,266.57731 61.177014,182.67997 C 94.875059,93.246445 85.585107,101.51291 116.06480,99.204795 L 295.78419,86.816926 z M 217.93865,233.19966 L 219.48981,127.72046 L 119.43969,133.92512 C 101.20003,135.14704 101.04823,135.26154 94.621050,156.41701 L 69.026832,224.66825 C 60.428592,245.60250 61.797130,251.77115 85.314062,248.71131 L 217.93865,233.19966 z M 966.63494,335.59074 L 966.82552,391.36792 L 902.21802,414.23783 L 845.49140,414.20156 C 845.72230,381.85903 832.28136,354.65711 808.44981,335.54893 L 966.63494,335.59074 z "
       id="path9" />
    <rect
       x="335.82718"
       y="12.158683"
       height="301.70154"
       width="631.32404"
       style="fill: black; stroke: none;"
       id="rect11" />
    <circle
       r="77"
       cx="164"
       cy="412"
       style="fill: black; stroke: none;"
       id="circle13" />
    <circle
       r="77"
       cx="748"
       cy="412"
       style="fill: black; stroke: none;"
       id="circle15" />
  </g>
</svg>
