<?xml version="1.0" encoding="UTF-8" standalone="no"?>
<!-- Created with Inkscape (http://www.inkscape.org/) -->
<svg
   xmlns:dc="http://purl.org/dc/elements/1.1/"
   xmlns:cc="http://creativecommons.org/ns#"
   xmlns:rdf="http://www.w3.org/1999/02/22-rdf-syntax-ns#"
   xmlns:svg="http://www.w3.org/2000/svg"
   xmlns="http://www.w3.org/2000/svg"
   xmlns:sodipodi="http://sodipodi.sourceforge.net/DTD/sodipodi-0.dtd"
   xmlns:inkscape="http://www.inkscape.org/namespaces/inkscape"
   version="1.0"
   width="725"
   height="725"
   id="svg2"
   sodipodi:version="0.32"
   inkscape:version="0.46"
   sodipodi:docname="horse.svg"
   inkscape:output_extension="org.inkscape.output.svg.inkscape"
   inkscape:export-filename="C:\Dokumente und Einstellungen\ulfl\Eigene Dateien\osm\svn.openstreetmap.org\applications\share\map-icons\svg\vehicle\restrictions\horse.png"
   inkscape:export-xdpi="2"
   inkscape:export-ydpi="2">
  <metadata
     id="metadata12">
    <rdf:RDF>
      <cc:Work
         rdf:about="">
        <dc:format>image/svg+xml</dc:format>
        <dc:type
           rdf:resource="http://purl.org/dc/dcmitype/StillImage" />
        <cc:license
           rdf:resource="http://creativecommons.org/licenses/publicdomain/" />
      </cc:Work>
      <cc:License
         rdf:about="http://creativecommons.org/licenses/publicdomain/">
        <cc:permits
           rdf:resource="http://creativecommons.org/ns#Reproduction" />
        <cc:permits
           rdf:resource="http://creativecommons.org/ns#Distribution" />
        <cc:permits
           rdf:resource="http://creativecommons.org/ns#DerivativeWorks" />
      </cc:License>
    </rdf:RDF>
  </metadata>
  <sodipodi:namedview
     inkscape:window-height="480"
     inkscape:window-width="640"
     inkscape:pageshadow="2"
     inkscape:pageopacity="0.0"
     guidetolerance="10.0"
     gridtolerance="10.0"
     objecttolerance="10.0"
     borderopacity="1.0"
     bordercolor="#666666"
     pagecolor="#ffffff"
     id="base"
     showgrid="false" />
  <defs
     id="defs9">
    <inkscape:perspective
       sodipodi:type="inkscape:persp3d"
       inkscape:vp_x="0 : 362.5 : 1"
       inkscape:vp_y="0 : 1000 : 0"
       inkscape:vp_z="725 : 362.5 : 1"
       inkscape:persp3d-origin="362.5 : 241.66667 : 1"
       id="perspective14" />
  </defs>
  <g
     id="g1875">
    <circle
       cx="362.5"
       cy="362.5"
       r="350"
       style="fill: white; stroke: black; stroke-width: 2.5px;"
       id="circle4" />
    <circle
       cx="362.5"
       cy="362.5"
       r="290"
       style="fill: none; stroke: rgb(204, 0, 0); stroke-width: 93.75;"
       id="circle6" />
  </g>
  <g
     transform="matrix(0.9761, 0, 0, 0.9761, 166.15, 173.684)"
     id="layer1">
    <g
       transform="translate(2.93016, -2.25117)"
       id="g1892">
      <path
         d="M 52.413594,38.866939 L 52.913594,62.616939 L 6.4448442,115.14819 L 18.069844,127.27319 L 71.101094,116.14819 L 94.319844,156.05444 C 84.123594,180.44952 92.866694,191.61419 98.382344,208.08569 L 40.788594,244.42944 L 40.788594,324.74194 L 61.507344,313.61694 L 61.007344,259.08569 L 108.97609,232.80444 L 153.91359,334.83569 L 149.97609,355.21072 L 170.60109,355.55442 L 173.63234,335.33569 L 137.75734,231.30444 C 171.91348,240.9542 206.38281,242.73849 241.31984,231.30444 L 275.13234,291.39819 L 240.72609,355.11692 L 264.53859,355.64822 L 300.41359,289.39819 L 292.81984,238.86694 L 345.35109,280.30444 L 333.72609,350.49192 L 356.97609,344.42944 L 368.06984,272.71069 L 338.28859,221.71069 C 342.53567,195.71256 337.04829,175.97794 325.97609,162.58569 L 336.56984,153.39819 C 354.39122,147.20989 365.19314,153.71935 371.41359,168.52319 L 377.41359,205.24194 L 407.69484,189.67944 L 399.60109,160.46069 C 389.57588,134.24426 359.48885,116.39751 325.78859,140.33569 C 325.78859,140.33569 315.08625,151.23801 313.81984,151.71069 C 295.95766,139.97227 271.36688,138.29839 248.22609,146.86694 L 244.16359,146.89819 C 251.46329,143.16506 251.87072,133.73733 249.38234,126.74194 L 213.53859,64.616939 C 199.79552,48.550019 166.87985,63.298099 173.13234,86.866939 L 177.81984,95.554439 L 146.19484,110.42944 C 130.20815,82.201549 113.44726,54.451059 68.569844,54.523189 L 52.413594,38.866939 z M 187.22609,113.58569 L 198.97609,133.30444 L 171.00734,147.21069 L 170.60109,147.21069 C 165.62405,141.82773 161.30591,135.77545 157.28859,129.39819 L 187.22609,113.58569 z "
         style="fill: black; fill-opacity: 1; fill-rule: evenodd; stroke: none; stroke-width: 1px; stroke-linecap: butt; stroke-linejoin: miter; stroke-opacity: 1;"
         id="path1882" />
      <path
         d="M 241.42858,621.29077 C 241.42858,634.21029 230.95524,644.68363 218.03572,644.68363 C 205.1162,644.68363 194.64286,634.21029 194.64286,621.29077 C 194.64286,608.37125 205.1162,597.89791 218.03572,597.89791 C 230.95524,597.89791 241.42858,608.37125 241.42858,621.29077 L 241.42858,621.29077 z "
         transform="translate(-40.4436, -589.044)"
         style="opacity: 1; fill: black; fill-opacity: 1; fill-rule: nonzero; stroke: none; stroke-width: 2; stroke-linecap: round; stroke-linejoin: round; stroke-miterlimit: 4; stroke-dasharray: none; stroke-dashoffset: 0pt; stroke-opacity: 1;"
         id="path1884" />
    </g>
  </g>
</svg>
