<?xml version="1.0" encoding="UTF-8" standalone="no"?>
<!-- Created with Inkscape (http://www.inkscape.org/) -->
<svg
   xmlns:dc="http://purl.org/dc/elements/1.1/"
   xmlns:cc="http://creativecommons.org/ns#"
   xmlns:rdf="http://www.w3.org/1999/02/22-rdf-syntax-ns#"
   xmlns:svg="http://www.w3.org/2000/svg"
   xmlns="http://www.w3.org/2000/svg"
   xmlns:sodipodi="http://sodipodi.sourceforge.net/DTD/sodipodi-0.dtd"
   xmlns:inkscape="http://www.inkscape.org/namespaces/inkscape"
   version="1.0"
   width="725"
   height="725"
   id="svg2"
   sodipodi:version="0.32"
   inkscape:version="0.46"
   sodipodi:docname="minspeed.svg"
   inkscape:output_extension="org.inkscape.output.svg.inkscape"
   inkscape:export-filename="C:\Dokumente und Einstellungen\ulfl\Eigene Dateien\osm\svn.openstreetmap.org\applications\share\map-icons\svg\vehicle\restrictions\minspeed.png"
   inkscape:export-xdpi="2"
   inkscape:export-ydpi="2">
  <metadata
     id="metadata9">
    <rdf:RDF>
      <cc:Work
         rdf:about="">
        <dc:format>image/svg+xml</dc:format>
        <dc:type
           rdf:resource="http://purl.org/dc/dcmitype/StillImage" />
        <cc:license
           rdf:resource="http://creativecommons.org/licenses/publicdomain/" />
      </cc:Work>
      <cc:License
         rdf:about="http://creativecommons.org/licenses/publicdomain/">
        <cc:permits
           rdf:resource="http://creativecommons.org/ns#Reproduction" />
        <cc:permits
           rdf:resource="http://creativecommons.org/ns#Distribution" />
        <cc:permits
           rdf:resource="http://creativecommons.org/ns#DerivativeWorks" />
      </cc:License>
    </rdf:RDF>
  </metadata>
  <sodipodi:namedview
     inkscape:window-height="480"
     inkscape:window-width="640"
     inkscape:pageshadow="2"
     inkscape:pageopacity="0.0"
     guidetolerance="10.0"
     gridtolerance="10.0"
     objecttolerance="10.0"
     borderopacity="1.0"
     bordercolor="#666666"
     pagecolor="#ffffff"
     id="base"
     showgrid="false" />
  <defs
     id="defs9">
    <inkscape:perspective
       sodipodi:type="inkscape:persp3d"
       inkscape:vp_x="0 : 362.5 : 1"
       inkscape:vp_y="0 : 1000 : 0"
       inkscape:vp_z="725 : 362.5 : 1"
       inkscape:persp3d-origin="362.5 : 241.66667 : 1"
       id="perspective11" />
  </defs>
  <circle
     cx="362.5"
     cy="362.5"
     r="350"
     style="fill: white; stroke: black; stroke-width: 2.5px;"
     id="circle4" />
  <circle
     cx="362.5"
     cy="362.5"
     r="290"
     transform="matrix(1.16273, 0, 0, 1.16273, -58.9887, -58.9887)"
     style="fill: rgb(0, 51, 153); fill-opacity: 1; stroke: none; stroke-width: 93.75;"
     id="circle6" />
  <path
     d="M 210.53494,379.03602 L 210.53494,333.96347 L 228.17202,333.96347 C 245.15575,333.96368 258.58769,329.18697 268.46785,319.63334 C 278.34773,310.08015 283.28774,297.95467 283.2879,283.25686 C 283.28774,268.72287 278.1436,256.4749 267.85546,246.51293 C 257.56702,236.55155 245.31906,231.57071 231.11153,231.5704 C 220.33322,231.57071 210.12658,235.16345 200.4916,242.34862 C 190.85645,249.53439 184.65082,260.3126 181.87468,274.68327 L 130.67814,274.68327 C 132.63781,249.53439 143.17106,227.52889 162.27792,208.66669 C 181.3847,189.80516 203.67599,180.37423 229.15186,180.37387 C 260.99645,180.37423 286.51304,190.86665 305.7017,211.85117 C 324.88999,232.83634 334.48422,256.3116 334.48444,282.27702 C 334.48422,295.99499 331.78967,309.34527 326.40077,322.3279 C 321.01147,335.31095 310.96814,346.53825 296.27076,356.00982 C 311.29475,365.64507 322.07296,377.48477 328.60541,391.52895 C 335.13745,405.57343 338.40357,419.78107 338.40379,434.1519 C 338.40357,467.46647 327.95198,494.00372 307.04897,513.76374 C 286.1456,533.52381 260.50653,543.40383 230.13169,543.40383 C 205.96227,543.40383 184.20173,535.60596 164.84999,520.0102 C 145.49817,504.41448 133.45434,481.6741 128.71847,451.78898 L 179.915,451.78898 C 184.65082,464.03704 191.01976,473.87623 199.02184,481.3066 C 207.02376,488.73709 218.37354,492.45231 233.07121,492.45226 C 247.27873,492.45231 259.85331,487.43064 270.79497,477.38725 C 281.73633,467.34399 287.20709,453.50379 287.20726,435.86662 C 287.20709,418.06635 281.77716,404.1445 270.91745,394.10103 C 260.05744,384.05784 247.11543,379.03618 232.09137,379.03602 L 210.53494,379.03602 z "
     style="font-size: 501.677px; font-style: normal; font-variant: normal; font-weight: normal; font-stretch: normal; text-align: center; line-height: 100%; text-anchor: middle; fill: white; fill-opacity: 1; stroke: none; stroke-width: 1px; stroke-linecap: butt; stroke-linejoin: miter; stroke-opacity: 1;"
     id="text3804" />
  <path
     d="M 538.95143,437.66956 L 538.95143,286.03963 C 538.95126,268.89274 534.33786,255.50163 525.11122,245.86628 C 515.88426,236.23151 503.75878,231.41398 488.73474,231.41367 C 473.54714,231.41398 461.38083,236.23151 452.23577,245.86628 C 443.09054,255.50163 438.51797,268.89274 438.51804,286.03963 L 438.51804,437.66956 C 438.51797,454.98011 443.09054,468.41204 452.23577,477.96539 C 461.38083,487.51886 473.54714,492.29557 488.73474,492.29552 C 503.75878,492.29557 515.88426,487.51886 525.11122,477.96539 C 534.33786,468.41204 538.95126,454.98011 538.95143,437.66956 L 538.95143,437.66956 z M 387.32151,440.60907 L 387.32151,283.10012 C 387.32149,250.27584 397.60978,224.92256 418.1864,207.0402 C 438.76293,189.15851 462.27902,180.21749 488.73474,180.21713 C 515.02691,180.21749 538.50217,189.15851 559.16059,207.0402 C 579.81863,224.92256 590.14774,250.27584 590.14796,283.10012 L 590.14796,440.60907 C 590.14774,473.43371 579.81863,498.74616 559.16059,516.54651 C 538.50217,534.34691 515.02691,543.24709 488.73474,543.2471 C 462.27902,543.24709 438.76293,534.34691 418.1864,516.54651 C 397.60978,498.74616 387.32149,473.43371 387.32151,440.60907 L 387.32151,440.60907 z "
     style="font-size: 501.677px; font-style: normal; font-variant: normal; font-weight: normal; font-stretch: normal; text-align: center; line-height: 100%; text-anchor: middle; fill: white; fill-opacity: 1; stroke: none; stroke-width: 1px; stroke-linecap: butt; stroke-linejoin: miter; stroke-opacity: 1;"
     id="text3808" />
</svg>
