<?xml version="1.0" encoding="UTF-8" standalone="no"?>
<!-- Created with Inkscape (http://www.inkscape.org/) -->

<svg
   xmlns:dc="http://purl.org/dc/elements/1.1/"
   xmlns:cc="http://creativecommons.org/ns#"
   xmlns:rdf="http://www.w3.org/1999/02/22-rdf-syntax-ns#"
   xmlns:svg="http://www.w3.org/2000/svg"
   xmlns="http://www.w3.org/2000/svg"
   xmlns:sodipodi="http://sodipodi.sourceforge.net/DTD/sodipodi-0.dtd"
   xmlns:inkscape="http://www.inkscape.org/namespaces/inkscape"
   version="1.0"
   width="475.56583"
   height="356.73929"
   id="svg2"
   sodipodi:version="0.32"
   inkscape:version="0.91 r13725"
   sodipodi:docname="bakery.svg"
   inkscape:output_extension="org.inkscape.output.svg.inkscape">
  <metadata
     id="metadata2975">
    <rdf:RDF>
      <cc:Work
         rdf:about="">
        <dc:format>image/svg+xml</dc:format>
        <dc:type
           rdf:resource="http://purl.org/dc/dcmitype/StillImage" />
        <cc:license
           rdf:resource="http://creativecommons.org/publicdomain/zero/1.0/" />
        <dc:language>en</dc:language>
        <dc:title></dc:title>
      </cc:Work>
      <cc:License
         rdf:about="http://creativecommons.org/publicdomain/zero/1.0/">
        <cc:permits
           rdf:resource="http://creativecommons.org/ns#Reproduction" />
        <cc:permits
           rdf:resource="http://creativecommons.org/ns#Distribution" />
        <cc:permits
           rdf:resource="http://creativecommons.org/ns#DerivativeWorks" />
      </cc:License>
    </rdf:RDF>
  </metadata>
  <sodipodi:namedview
     inkscape:window-height="988"
     inkscape:window-width="1680"
     inkscape:pageshadow="2"
     inkscape:pageopacity="0.0"
     guidetolerance="10.0"
     gridtolerance="10.0"
     objecttolerance="10.0"
     borderopacity="1.0"
     bordercolor="#666666"
     pagecolor="#ffffff"
     id="base"
     inkscape:zoom="1.3034483"
     inkscape:cx="131.79004"
     inkscape:cy="185.49309"
     inkscape:window-x="-8"
     inkscape:window-y="-8"
     inkscape:current-layer="svg2"
     showgrid="false"
     fit-margin-top="0"
     fit-margin-left="0"
     fit-margin-right="0"
     fit-margin-bottom="0"
     inkscape:window-maximized="1" />
  <defs
     id="defs4">
    <inkscape:perspective
       sodipodi:type="inkscape:persp3d"
       inkscape:vp_x="0 : 290 : 1"
       inkscape:vp_y="6.1230318e-014 : 1000 : 0"
       inkscape:vp_z="580 : 290 : 1"
       inkscape:persp3d-origin="290 : 193.33333 : 1"
       id="perspective2441" />
    <inkscape:perspective
       id="perspective3452"
       inkscape:persp3d-origin="30 : 20 : 1"
       inkscape:vp_z="60 : 30 : 1"
       inkscape:vp_y="0 : 1000 : 0"
       inkscape:vp_x="0 : 30 : 1"
       sodipodi:type="inkscape:persp3d" />
    <symbol
       viewBox="244.5 110 489 219.9"
       id="symbol-university">
      <path
         id="path4460"
         d="m 79,43 57,119 c 0,0 21,-96 104,-96 83,0 124,106 124,106 L 407,39 489,22 0,17 79,43 Z"
         inkscape:connector-curvature="0" />
      <path
         id="path4462"
         d="M 94,176 73,215"
         inkscape:connector-curvature="0"
         style="fill:none;stroke:#000000;stroke-width:20" />
      <path
         id="path4464"
         d="M 300,19 C 300,29.5 277.4,38 249.5,38 221.6,38 199,29.5 199,19 199,8.5 221.6,0 249.5,0 277.4,0 300,8.5 300,19 Z"
         inkscape:connector-curvature="0" />
      <path
         id="path4466"
         d="M 112,216 96,178 64,88 C 64,88 55,80 60,53 65,26 76,29 76,29"
         ill="none"
         inkscape:connector-curvature="0"
         style="stroke:#000000;stroke-width:20" />
    </symbol>
    <inkscape:perspective
       id="perspective4471"
       inkscape:persp3d-origin="372.04724 : 350.78739 : 1"
       inkscape:vp_z="744.09448 : 526.18109 : 1"
       inkscape:vp_y="0 : 1000 : 0"
       inkscape:vp_x="0 : 526.18109 : 1"
       sodipodi:type="inkscape:persp3d" />
    <inkscape:perspective
       id="perspective4668"
       inkscape:persp3d-origin="6 : 4 : 1"
       inkscape:vp_z="12 : 6 : 1"
       inkscape:vp_y="0 : 1000 : 0"
       inkscape:vp_x="0 : 6 : 1"
       sodipodi:type="inkscape:persp3d" />
    <inkscape:perspective
       id="perspective7157"
       inkscape:persp3d-origin="372.04724 : 350.78739 : 1"
       inkscape:vp_z="744.09448 : 526.18109 : 1"
       inkscape:vp_y="0 : 1000 : 0"
       inkscape:vp_x="0 : 526.18109 : 1"
       sodipodi:type="inkscape:persp3d" />
  </defs>
  <path
     style="opacity:1;fill:#ffffff;fill-opacity:1;fill-rule:evenodd;stroke:none;stroke-width:72.95391083;stroke-linecap:round;stroke-linejoin:miter;stroke-miterlimit:4;stroke-dasharray:none;stroke-opacity:1"
     d="m 146.74208,0.01051084 c -20.77687,0.25561 -41.59817,5.17325996 -60.831968,14.93463016 -0.21623,0.0997 -0.41765,0.21597 -0.63307,0.31653 -0.2841,0.14603 -0.57989,0.25469 -0.86327,0.40286 l 0,0.0288 C 3.1199118,54.297151 -20.156725,156.35335 17.625212,231.56914 70.098492,341.38312 204.34899,378.92718 311.94373,344.25505 c 98.6607,-27.23883 180.9134,-124.36181 160.4825,-234.0621 -0.1271,-0.6821 -0.2103,-1.36002 -0.3453,-2.04308 l -0.0576,0 C 460.52403,31.919551 382.30553,-13.835079 310.27473,4.0966908 284.38253,10.543751 261.31958,21.257501 240.72374,34.944321 214.43925,11.631591 180.70729,-0.40733916 146.74208,0.01051084 Z M 339.62603,67.547241 c 30.8758,-0.76525 62.1351,21.09489 66.2131,51.566179 l 0.1439,1.03593 0.2014,1.03592 c 13.6241,68.93394 -45.366,139.92654 -113.4629,158.72715 l -0.6906,0.20143 -0.6906,0.20143 C 213.7394,305.32196 113.04815,275.43074 77.967992,202.01641 l -0.14387,-0.28776 -0.14388,-0.31653 C 56.176902,158.60355 71.038342,95.765571 114.02403,75.949771 l 0.74817,-0.34531 0.74817,-0.40286 c 22.75529,-11.89809 52.58344,-9.5999 73.92495,4.71922 -33.37094,37.134789 -57.88742,81.806519 -76.45722,123.332949 -5.15425,10.99582 -3.97252,23.91741 3.09076,33.7959 7.06329,9.87849 18.90828,15.17566 30.98011,13.85455 12.07184,-1.32112 22.49077,-9.0548 27.2503,-20.22715 17.28827,-38.66061 39.11657,-76.51747 66.21304,-106.29768 24.9352,26.53609 46.97721,55.79906 58.58701,89.6465 3.761,11.52541 11.13891,22.04806 23.02561,24.43282 11.8867,2.38475 24.1361,-1.82045 32.0517,-11.00326 7.9155,-9.18281 10.269,-21.91834 6.158,-33.3236 -14.3671,-41.88613 -37.6876,-79.70859 -67.0188,-111.880189 10.4991,-5.56489 21.5096,-10.04359 33.1785,-12.9491 4.3147,-1.07412 8.7109,-1.646 13.1217,-1.75532 z"
     id="path7219"
     inkscape:connector-curvature="0"
     sodipodi:nodetypes="scccccccccccssccccccccccccccsscccsscccs" />
  <g
     id="layer3"
     inkscape:label="Layout"
     style="display:none;stroke:#757575;stroke-opacity:1"
     transform="matrix(48.14969,0,0,48.14969,-590.06266,-153.85606)">
    <rect
       style="display:inline;fill:none;stroke:#757575;stroke-width:0.1;stroke-miterlimit:4;stroke-dasharray:none;stroke-opacity:1"
       id="rect4134"
       width="10"
       height="10"
       x="1"
       y="1" />
    <rect
       style="display:inline;fill:none;stroke:#757575;stroke-width:0.1;stroke-miterlimit:4;stroke-dasharray:none;stroke-opacity:1"
       id="rect4136"
       width="8"
       height="8"
       x="2"
       y="2" />
  </g>
  <g
     id="g3338"
     transform="matrix(1.3973279,-0.2437849,0.2437849,1.3973279,-238.86341,-176.73262)" />
  <path
     style="fill:#d45500;fill-opacity:1;fill-rule:evenodd;stroke:none;stroke-width:72.95391083;stroke-linecap:round;stroke-linejoin:miter;stroke-miterlimit:4;stroke-dasharray:none;stroke-opacity:1"
     d="m 146.74209,0.01051785 c -20.77687,0.25561 -41.59817,5.17326005 -60.831973,14.93463015 -0.21623,0.0997 -0.41765,0.21597 -0.63307,0.31653 -0.2841,0.14604 -0.57989,0.25469 -0.86327,0.40286 l 0,0.0288 C 3.1199118,54.297138 -20.156729,156.35334 17.625217,231.56914 70.098497,341.38311 204.349,378.92717 311.94378,344.25505 410.60444,317.01622 492.8571,219.89323 472.42624,110.19294 c -0.12703,-0.6821 -0.2103,-1.36002 -0.34531,-2.04308 l -0.0575,0 C 460.52403,31.919538 382.3055,-13.835092 310.27479,4.0966779 284.38255,10.543738 261.31959,21.257488 240.72375,34.944308 214.43926,11.631598 180.7073,-0.40733215 146.74209,0.01051785 Z M 346.12939,19.376618 c 2.5641,-0.1804 4.97991,1.45624 5.69761,4.0286 l 5.6976,20.37325 c 0.0378,0.11924 0.0855,0.25254 0.1151,0.37408 0.72046,2.9678 -1.11836,5.95551 -4.08616,6.67598 -2.9678,0.72046 -5.95552,-1.11835 -6.67598,-4.08616 l -5.6976,-20.37324 c -0.82022,-2.93984 0.88735,-5.97086 3.82718,-6.79108 0.36748,-0.10253 0.75595,-0.17566 1.12225,-0.20143 z m -160.10837,12.86277 c 3.05134,-0.12714 5.62801,2.24338 5.75515,5.29474 0.12714,3.05134 -2.24339,5.628 -5.29474,5.75515 l -21.09264,1.61144 c -3.0434,0.23044 -5.69737,-2.04992 -5.92781,-5.09331 -0.23043,-3.0434 2.04991,-5.69738 5.09331,-5.92781 l 21.09264,-1.61144 c 0.12433,-0.0138 0.2491,-0.0234 0.37409,-0.0288 z m -102.470523,10.3305 c 0.36714,0.007 0.72135,0.0598 1.09348,0.14388 l 20.661013,4.63289 c 0.12291,0.0233 0.22425,0.0548 0.3453,0.0863 2.9544,0.7736 4.74466,3.80791 3.97106,6.76231 -0.77358,2.95439 -3.80791,4.71587 -6.7623,3.94228 l -20.632233,-4.66168 c -2.9771,-0.6725 -4.84499,-3.61255 -4.17249,-6.58965 0.58846,-2.60496 2.92626,-4.36859 5.49617,-4.31636 z m 195.329923,6.10046 c 1.7751,0.0107 3.51635,0.88669 4.57535,2.47472 1.6944,2.54084 1.01574,5.95995 -1.52512,7.65435 l -17.20791,12.3448 c -2.48037,1.77852 -5.90459,1.21426 -7.68313,-1.26613 -1.7785,-2.48038 -1.21423,-5.93338 1.26614,-7.71191 l 17.17913,-12.3448 c 0.099,-0.0764 0.18378,-0.13191 0.28776,-0.20143 0.95282,-0.6354 2.04272,-0.95601 3.10778,-0.9496 z m 152.10872,12.74766 c 3.05134,-0.12713 5.62801,2.2434 5.75515,5.29475 0.12714,3.05134 -2.2434,5.62801 -5.29474,5.75515 l -21.09264,1.61144 c -3.0434,0.23044 -5.69737,-2.04991 -5.92781,-5.09331 -0.23043,-3.0434 2.04991,-5.69737 5.09331,-5.92781 l 21.09264,-1.61144 c 0.12433,-0.0138 0.2491,-0.0234 0.37409,-0.0288 z m -282.83703,6.12924 c 14.60579,0.0603 29.28863,4.31908 41.29322,12.37358 -33.37094,37.134792 -61.88741,89.806522 -80.45721,131.332952 -5.15426,10.99582 -3.98428,23.90426 3.079,33.78275 7.06329,9.87849 18.91967,15.19103 30.99151,13.86992 12.07182,-1.32111 22.49112,-9.05702 27.25065,-20.22936 17.28827,-38.66062 43.11657,-84.51748 70.21304,-114.29769 24.93521,26.53609 52.67562,69.71705 64.28541,103.56449 3.76101,11.52541 13.43599,20.1179 25.32267,22.50265 11.8867,2.38476 24.14064,-1.80953 32.05621,-10.99234 7.91558,-9.18281 10.26904,-21.91708 6.15801,-33.32234 -14.36708,-41.88613 -45.68757,-91.70858 -75.01876,-123.880192 10.49903,-5.56489 21.50958,-10.04359 33.17846,-12.94909 4.31468,-1.07413 8.71093,-1.64601 13.12175,-1.75533 30.87576,-0.76525 62.13512,21.09489 66.21304,51.566182 l 0.14388,1.03593 0.20143,1.03593 c 13.62415,68.93393 -45.36597,139.92653 -113.46285,158.72714 l -0.69062,0.20143 -0.69062,0.20143 C 213.73941,305.32197 113.04816,275.43076 77.968007,202.01642 l -0.14388,-0.28776 -0.14388,-0.31653 C 56.176907,158.60356 71.038347,95.765578 114.02404,75.949778 l 0.74817,-0.34531 0.74817,-0.40286 c 9.95544,-5.20541 21.27166,-7.70129 32.63173,-7.65436 z M 49.278567,104.61044 c 1.7027,0.0729 3.35463,0.94623 4.37391,2.47472 1.6944,2.54084 1.01574,5.98873 -1.52511,7.68313 l -17.179137,12.3448 c -2.480374,1.77852 -5.933389,1.18547 -7.711906,-1.2949 -1.778513,-2.48038 -1.214242,-5.93339 1.266134,-7.71191 l 17.179134,-12.31603 c 0.09904,-0.0764 0.212533,-0.16068 0.316533,-0.23021 0.794012,-0.5295 1.673022,-0.84023 2.561042,-0.92082 0.24421,-0.0222 0.47615,-0.0392 0.7194,-0.0288 z m 254.061263,17.29424 c 2.35724,0.023 4.52338,1.56579 5.23719,3.94228 0.87855,2.92489 -0.78717,6.02765 -3.71208,6.90619 l -20.02793,6.7623 c -2.89164,0.97666 -6.04463,-0.56145 -7.02129,-3.45309 -0.97665,-2.89163 0.59024,-6.01585 3.48187,-6.99251 l 20.02793,-6.79108 c 0.11703,-0.0442 0.22556,-0.079 0.34531,-0.11511 0.54842,-0.16472 1.12502,-0.26428 1.669,-0.25898 z m -101.83745,3.25166 c 3.05135,-0.12714 5.62802,2.24339 5.75515,5.29474 0.12714,3.05135 -2.24339,5.62801 -5.29474,5.75516 l -21.09264,1.61144 c -3.04339,0.23044 -5.69737,-2.04992 -5.9278,-5.09331 -0.23044,-3.0434 2.04991,-5.69738 5.09331,-5.92781 l 21.09264,-1.61144 c 0.12433,-0.0138 0.2491,-0.0234 0.37408,-0.0288 z m 232.91107,2.18696 c 1.06415,-0.0243 2.14499,0.27318 3.10779,0.89205 l 17.8122,11.42398 c 0.10754,0.0639 0.21359,0.13036 0.31653,0.20143 2.51155,1.73753 3.14753,5.17158 1.41001,7.68313 -1.73753,2.51155 -5.20036,3.14754 -7.7119,1.41001 l -17.78343,-11.42398 c -2.56746,-1.65031 -3.31929,-5.08688 -1.66899,-7.65435 1.03144,-1.60467 2.74421,-2.4917 4.51779,-2.53227 z m -115.99512,56.86092 c 0.36713,0.007 0.72135,0.0598 1.09348,0.14388 l 20.63222,4.66167 c 0.12292,0.0233 0.25304,0.026 0.37409,0.0575 2.95439,0.7736 4.71587,3.80793 3.94228,6.76231 -0.77358,2.95439 -3.77913,4.71588 -6.73353,3.94228 l -20.63223,-4.6329 c -2.9771,-0.6725 -4.84498,-3.64133 -4.17248,-6.61842 0.58845,-2.60497 2.92627,-4.36859 5.49617,-4.31637 z m -175.81995,4.8631 c 1.06415,-0.0243 2.14499,0.24441 3.10779,0.86328 l 17.8122,11.42398 c 0.10754,0.0639 0.21357,0.13038 0.31653,0.20143 2.51155,1.73753 3.11877,5.20036 1.38124,7.7119 -1.73754,2.51155 -5.17158,3.14754 -7.68313,1.41002 l -17.8122,-11.45276 c -2.56747,-1.65031 -3.29053,-5.05811 -1.64022,-7.62558 1.03144,-1.60466 2.74421,-2.49169 4.51779,-2.53227 z m -92.830633,1.26614 c 3.05135,-0.12714 5.62802,2.24339 5.75516,5.29474 0.12714,3.05135 -2.2434,5.62802 -5.29474,5.75515 l -21.092642,1.61145 c -3.043398,0.23043 -5.697369,-2.04992 -5.927809,-5.09331 -0.23044,-3.0434 2.049913,-5.69738 5.093311,-5.92781 l 21.09264,-1.61145 c 0.12433,-0.0138 0.2491,-0.0234 0.37408,-0.0288 z m 382.976713,13.69726 c 1.7751,0.0107 3.51635,0.88669 4.57535,2.47472 1.6944,2.54084 0.98696,5.95996 -1.5539,7.65436 l -17.17913,12.3448 c -2.48038,1.77852 -5.93339,1.21425 -7.71191,-1.26613 -1.77851,-2.48038 -1.21425,-5.93339 1.26614,-7.71191 l 17.20791,-12.3448 c 0.099,-0.0764 0.18376,-0.13191 0.28776,-0.20144 0.95282,-0.63539 2.04272,-0.956 3.10778,-0.9496 z M 71.925087,241.15147 c 2.35488,0.0694 4.48444,1.66876 5.15087,4.05738 l 5.6976,20.37324 c 0.0378,0.11924 0.0855,0.22378 0.1151,0.34531 0.72046,2.9678 -1.11837,5.95551 -4.08616,6.67598 -2.9678,0.72046 -5.95552,-1.08959 -6.67598,-4.05738 l -5.6976,-20.37325 c -0.82022,-2.93983 0.91612,-5.99962 3.85596,-6.81985 0.55121,-0.15379 1.09678,-0.21745 1.64021,-0.20143 z m 305.713773,12.60378 c 3.04913,-0.13494 5.62021,2.24562 5.75515,5.29474 l 0.94961,21.12142 c 0.01,0.12471 0.0273,0.24899 0.0288,0.37408 0.0315,3.05384 -2.44234,5.55107 -5.49617,5.5825 -3.05383,0.0315 -5.55104,-2.41356 -5.5825,-5.46739 l -0.9496,-21.12142 c -0.13495,-3.04912 2.24561,-5.64898 5.29474,-5.78393 z m -250.63694,42.07018 c 0.36713,0.007 0.75012,0.0598 1.12225,0.14388 l 20.63223,4.66167 c 0.12291,0.0233 0.25303,0.0548 0.37408,0.0863 2.95439,0.77359 4.71588,3.77914 3.94228,6.73353 -0.77358,2.95439 -3.80791,4.71588 -6.7623,3.94228 l -20.63223,-4.6329 c -2.9771,-0.67251 -4.84499,-3.64134 -4.17249,-6.61843 0.58846,-2.60496 2.92626,-4.36858 5.49618,-4.31636 z m 192.9703,9.43845 c 3.05135,-0.12714 5.62801,2.24339 5.75515,5.29474 0.12714,3.05135 -2.2434,5.62802 -5.29474,5.75515 l -21.09264,1.61145 c -3.04339,0.23043 -5.69738,-2.04991 -5.9278,-5.09331 -0.23044,-3.0434 2.0499,-5.69738 5.09331,-5.92781 l 21.09264,-1.61145 c 0.12433,-0.0138 0.24909,-0.0234 0.37408,-0.0288 z m -111.07447,5.35229 c 1.06415,-0.0243 2.14498,0.24441 3.10779,0.86328 l 17.8122,11.42398 c 0.10754,0.0639 0.21358,0.13037 0.31653,0.20143 2.51155,1.73753 3.11877,5.20035 1.38124,7.7119 -1.73753,2.51155 -5.17157,3.14754 -7.68313,1.41001 l -17.8122,-11.45275 c -2.56747,-1.65031 -3.29053,-5.05811 -1.64022,-7.62558 1.03144,-1.60467 2.74421,-2.4917 4.51779,-2.53227 z"
     id="path7165"
     sodipodi:nodetypes="ccsccccsccccccccssccsccsccsccccccssccsccsccsccsccsccsccccccsscccssccssccccccccccccccsccsccssccsccsccsccsccsccccccssccsccccssccsccccssccsccsccsccccsccsccsccccssccsccccssccccccssccsccsccsccccccssccsc"
     inkscape:connector-curvature="0" />
</svg>
