<?xml version="1.0" encoding="UTF-8" standalone="no"?>
<!-- Created with Inkscape (http://www.inkscape.org/) -->

<svg
   xmlns:dc="http://purl.org/dc/elements/1.1/"
   xmlns:cc="http://creativecommons.org/ns#"
   xmlns:rdf="http://www.w3.org/1999/02/22-rdf-syntax-ns#"
   xmlns:svg="http://www.w3.org/2000/svg"
   xmlns="http://www.w3.org/2000/svg"
   xmlns:sodipodi="http://sodipodi.sourceforge.net/DTD/sodipodi-0.dtd"
   xmlns:inkscape="http://www.inkscape.org/namespaces/inkscape"
   width="160"
   height="110"
   viewBox="0 0 160 110"
   id="svg2"
   version="1.1"
   inkscape:version="0.92.2 (5c3e80d, 2017-08-06)"
   sodipodi:docname="02.svg">
  <defs
     id="defs4" />
  <sodipodi:namedview
     id="base"
     pagecolor="#ffffff"
     bordercolor="#666666"
     borderopacity="1.0"
     inkscape:pageopacity="0.0"
     inkscape:pageshadow="2"
     inkscape:zoom="4.2951213"
     inkscape:cx="29.418382"
     inkscape:cy="85.412106"
     inkscape:document-units="px"
     inkscape:current-layer="layer1"
     showgrid="true"
     units="px"
     inkscape:window-width="1680"
     inkscape:window-height="987"
     inkscape:window-x="-8"
     inkscape:window-y="-8"
     inkscape:window-maximized="1"
     viewbox-height="16">
    <inkscape:grid
       type="xygrid"
       id="grid4136"
       originx="0"
       originy="0"
       spacingx="1"
       spacingy="1" />
  </sodipodi:namedview>
  <metadata
     id="metadata7">
    <rdf:RDF>
      <cc:Work
         rdf:about="">
        <dc:format>image/svg+xml</dc:format>
        <dc:type
           rdf:resource="http://purl.org/dc/dcmitype/StillImage" />
        <dc:title></dc:title>
        <cc:license
           rdf:resource="http://creativecommons.org/publicdomain/zero/1.0/" />
      </cc:Work>
      <cc:License
         rdf:about="http://creativecommons.org/publicdomain/zero/1.0/">
        <cc:permits
           rdf:resource="http://creativecommons.org/ns#Reproduction" />
        <cc:permits
           rdf:resource="http://creativecommons.org/ns#Distribution" />
        <cc:permits
           rdf:resource="http://creativecommons.org/ns#DerivativeWorks" />
      </cc:License>
    </rdf:RDF>
  </metadata>
  <g
     inkscape:label="Layer 1"
     inkscape:groupmode="layer"
     id="layer1"
     transform="translate(0,-943.3622)">
    <path
       style="opacity:1;fill:#ffffff;fill-opacity:1;fill-rule:evenodd;stroke:none;stroke-width:23.49764824;stroke-linecap:round;stroke-linejoin:miter;stroke-miterlimit:4;stroke-dasharray:none;stroke-opacity:1"
       d="m 49.370163,943.3652 c -6.990207,0.0788 -13.995362,1.59516 -20.466415,4.60506 -0.07275,0.0307 -0.140514,0.0666 -0.212991,0.0976 -0.09558,0.045 -0.195099,0.0786 -0.29044,0.12423 v 0.009 c -27.3506486,11.90343 -35.1818796,43.3723 -22.4704606,66.56491 17.6542026,33.861 62.8216766,45.4376 99.0210436,34.7466 33.19357,-8.3992 60.86682,-38.3469 53.99301,-72.17269 -0.0428,-0.21032 -0.0708,-0.41938 -0.11618,-0.62999 h -0.0194 c -3.86885,-23.5055 -30.18482,-37.61387 -54.41898,-32.08463 -8.711223,1.98793 -16.470562,5.2915 -23.399863,9.51181 -8.8432,-7.18844 -20.192039,-10.90063 -31.619354,-10.77178 z m 64.894217,20.82483 c 10.3879,-0.23596 20.90484,6.50458 22.27685,15.90035 l 0.0484,0.31944 0.0678,0.31942 c 4.58372,21.25566 -15.26302,43.14616 -38.173655,48.94326 l -0.232346,0.062 -0.232347,0.062 c -26.108193,7.7108 -59.984934,-1.5061 -71.787364,-24.1434 l -0.0484,-0.089 -0.04841,-0.098 c -7.234652,-13.20019 -2.234643,-32.57619 12.227537,-38.68637 l 0.251716,-0.10646 0.251716,-0.12422 c 7.655829,-3.66877 17.691265,-2.96012 24.87144,1.45516 -11.227378,11.45045 -19.475746,25.22493 -25.723402,38.02949 -1.734105,3.3906 -1.336521,7.3749 1.039861,10.4209 2.376386,3.046 6.361535,4.6794 10.423003,4.2721 4.061471,-0.4074 7.566834,-2.7921 9.168138,-6.237 5.816496,-11.921 13.160448,-23.59409 22.276832,-32.77676 8.389242,8.18236 15.805095,17.20556 19.711121,27.64236 1.26535,3.5539 3.74759,6.7985 7.74677,7.5338 3.99918,0.7354 8.12039,-0.5613 10.78353,-3.3928 2.6631,-2.8315 3.45492,-6.7585 2.07181,-10.2753 -4.83369,-12.91553 -12.67968,-24.57802 -22.547922,-34.49808 3.532332,-1.71593 7.236732,-3.09693 11.162632,-3.99284 1.45165,-0.33119 2.93071,-0.50754 4.41469,-0.54125 z"
       id="path7219"
       inkscape:connector-curvature="0"
       sodipodi:nodetypes="scccccccccccssccccccccccccccsscccsscccs" />
    <g
       id="g3338"
       transform="matrix(0.47011945,-0.07517069,0.08201942,0.43086382,-80.363626,888.86674)" />
    <path
       style="fill:#d45500;fill-opacity:1;fill-rule:evenodd;stroke:none;stroke-width:23.49764824;stroke-linecap:round;stroke-linejoin:miter;stroke-miterlimit:4;stroke-dasharray:none;stroke-opacity:1"
       d="m 49.370166,943.3652 c -6.990207,0.0788 -13.995361,1.59516 -20.466416,4.60506 -0.07275,0.0307 -0.140515,0.0666 -0.212991,0.0976 -0.09558,0.045 -0.195099,0.0786 -0.29044,0.12423 v 0.009 c -27.3506506,11.90342 -35.1818846,43.3723 -22.4704596,66.56491 17.6542026,33.861 62.8216766,45.4376 99.0210506,34.7466 33.19357,-8.3992 60.8668,-38.3469 53.993,-72.17269 -0.0427,-0.21033 -0.0708,-0.41938 -0.11618,-0.62999 h -0.0193 c -3.86888,-23.50551 -30.18486,-37.61388 -54.41899,-32.08464 -8.711236,1.98794 -16.470579,5.2915 -23.399879,9.51181 -8.8432,-7.18842 -20.19204,-10.90062 -31.619355,-10.77177 z m 67.082214,5.9715 c 0.86267,-0.0556 1.67545,0.44903 1.91691,1.24221 l 1.91691,6.28206 c 0.0127,0.0368 0.0288,0.0779 0.0387,0.11535 0.24239,0.91511 -0.37627,1.83637 -1.37476,2.05853 -0.99849,0.22215 -2.00368,-0.34484 -2.24607,-1.25997 l -1.91691,-6.28204 c -0.27596,-0.9065 0.29854,-1.84111 1.28762,-2.09403 0.12363,-0.0316 0.25433,-0.0542 0.37757,-0.0621 z m -53.867142,3.96622 c 1.026598,-0.0392 1.893498,0.69174 1.936273,1.63262 0.04277,0.94087 -0.75477,1.73538 -1.781372,1.7746 l -7.096444,0.49687 c -1.023927,0.0711 -1.916834,-0.63208 -1.994363,-1.57051 -0.07753,-0.93843 0.689675,-1.75677 1.713602,-1.82782 l 7.096445,-0.4969 c 0.04183,-0.005 0.08381,-0.007 0.125859,-0.009 z m -34.475363,3.18538 c 0.123522,0.002 0.242693,0.0184 0.367893,0.0444 l 6.951227,1.42854 c 0.04135,0.007 0.07545,0.0169 0.116174,0.0266 0.993983,0.23854 1.596301,1.17417 1.33603,2.08514 -0.260265,0.911 -1.28114,1.45414 -2.27512,1.21561 l -6.941545,-1.43742 c -1.00162,-0.20737 -1.630056,-1.11392 -1.403799,-2.03192 0.197982,-0.80324 0.984515,-1.34704 1.84914,-1.33093 z m 65.717143,1.88107 c 0.597218,0.004 1.183047,0.27342 1.539339,0.76308 0.570067,0.78347 0.341737,1.83774 -0.513114,2.36021 l -5.78946,3.8065 c -0.8345,0.5484 -1.98655,0.37441 -2.584926,-0.39041 -0.598361,-0.76483 -0.408517,-1.82955 0.425983,-2.37796 l 5.779776,-3.8065 c 0.03331,-0.0236 0.06183,-0.0407 0.09682,-0.0621 0.320568,-0.19592 0.687256,-0.29479 1.045587,-0.29282 z m 51.175722,3.93073 c 1.0266,-0.0392 1.8935,0.69175 1.93627,1.63262 0.0428,0.94088 -0.75477,1.7354 -1.78137,1.7746 l -7.09644,0.49688 c -1.02393,0.071 -1.91684,-0.63208 -1.99437,-1.57052 -0.0775,-0.93843 0.68968,-1.75677 1.71361,-1.82782 l 7.09644,-0.49689 c 0.0418,-0.005 0.0838,-0.007 0.12586,-0.009 z m -95.158184,1.88993 c 4.913997,0.0186 9.853918,1.33179 13.892763,3.81538 -11.227378,11.45045 -20.821509,27.69171 -27.069165,40.49629 -1.734108,3.3905 -1.340478,7.3709 1.035904,10.4169 2.376386,3.046 6.365367,4.6841 10.426838,4.2768 4.061465,-0.4074 7.566952,-2.7928 9.168257,-6.2378 5.816496,-11.9209 14.506214,-26.06079 23.622598,-35.24346 8.389246,8.18236 17.722278,21.49716 21.628299,31.93396 1.26536,3.5538 4.52043,6.2033 8.5196,6.9387 3.99918,0.7353 8.12192,-0.558 10.78505,-3.3896 2.66313,-2.8315 3.45493,-6.758 2.07181,-10.2748 -4.83369,-12.91555 -15.37121,-28.27822 -25.239443,-38.19828 3.532313,-1.71593 7.236723,-3.09693 11.162623,-3.99283 1.45164,-0.3312 2.93072,-0.50755 4.4147,-0.54126 10.38789,-0.23596 20.90485,6.50458 22.27683,15.90035 l 0.0484,0.31944 0.0678,0.31942 c 4.58373,21.25566 -15.26301,43.14616 -38.173641,48.94326 l -0.232354,0.062 -0.232353,0.062 c -26.10819,7.7108 -59.984931,-1.5061 -71.787359,-24.1434 l -0.04841,-0.089 -0.04841,-0.098 c -7.234641,-13.20019 -2.234632,-32.57619 12.227549,-38.68636 l 0.251715,-0.10647 0.251716,-0.12422 c 3.349426,-1.60509 7.156675,-2.37469 10.978677,-2.36022 z m -33.265187,11.42838 c 0.572859,0.0225 1.128637,0.29177 1.471565,0.76309 0.570067,0.78345 0.341738,1.84661 -0.51311,2.36906 l -5.77978,3.80651 c -0.8345,0.54839 -1.9962404,0.36554 -2.5946087,-0.39929 -0.5983651,-0.76482 -0.4085211,-1.82954 0.4259823,-2.37794 l 5.7797764,-3.79763 c 0.03331,-0.0236 0.07151,-0.0496 0.106498,-0.071 0.267138,-0.16327 0.562873,-0.25908 0.86164,-0.28393 0.08216,-0.006 0.160197,-0.0121 0.242037,-0.009 z m 85.476821,5.33266 c 0.79307,0.007 1.52185,0.48281 1.762,1.2156 0.29559,0.90189 -0.26483,1.8586 -1.24889,2.12952 l -6.738237,2.08514 c -0.972868,0.30114 -2.033665,-0.17315 -2.362255,-1.06476 -0.328586,-0.89165 0.198582,-1.85499 1.171447,-2.15613 l 6.738235,-2.09402 c 0.0394,-0.0136 0.0759,-0.0244 0.11617,-0.0355 0.18452,-0.0508 0.37851,-0.0815 0.56153,-0.0798 z m -34.262376,1.00262 c 1.026602,-0.0392 1.893501,0.69176 1.936273,1.63265 0.04277,0.94086 -0.75477,1.73538 -1.781372,1.7746 l -7.096445,0.49688 c -1.023923,0.071 -1.916833,-0.63209 -1.994359,-1.57051 -0.07753,-0.93844 0.689675,-1.75679 1.713602,-1.82783 l 7.096445,-0.49691 c 0.04183,-0.005 0.08381,-0.007 0.125856,-0.009 z m 78.361006,0.67436 c 0.35803,-0.007 0.72167,0.0842 1.04559,0.27508 l 5.99277,3.52254 c 0.0362,0.0197 0.0719,0.0402 0.10649,0.0622 0.84499,0.53576 1.05896,1.59465 0.47439,2.36907 -0.58458,0.77445 -1.74962,0.97053 -2.59461,0.43478 l -5.98308,-3.52258 c -0.8638,-0.50887 -1.11675,-1.56851 -0.56152,-2.36019 0.34702,-0.49481 0.92327,-0.76831 1.51997,-0.78083 z m -39.0256,17.53295 c 0.12352,0 0.24269,0.019 0.36789,0.044 l 6.94154,1.4374 c 0.0414,0.01 0.0851,0.01 0.12586,0.018 0.99398,0.2386 1.58662,1.1742 1.32635,2.0852 -0.26026,0.911 -1.27146,1.4541 -2.26544,1.2156 l -6.94154,-1.4286 c -1.00162,-0.2073 -1.63006,-1.1228 -1.4038,-2.0408 0.19798,-0.8032 0.98452,-1.347 1.84914,-1.3309 z m -59.153171,1.4995 c 0.358024,-0.01 0.721664,0.075 1.04559,0.2662 l 5.992768,3.5226 c 0.03618,0.019 0.07185,0.04 0.106494,0.062 0.84499,0.5357 1.049284,1.6035 0.464707,2.3779 -0.584581,0.7745 -1.739936,0.9706 -2.584926,0.4348 l -5.992768,-3.5315 c -0.863804,-0.5088 -1.107071,-1.5596 -0.551838,-2.3513 0.347019,-0.4948 0.923267,-0.7683 1.519973,-0.7808 z m -31.2321,0.3905 c 1.026602,-0.039 1.893501,0.6917 1.936276,1.6326 0.04277,0.9409 -0.754773,1.7354 -1.781371,1.7746 l -7.0964452,0.4969 c -1.0239268,0.071 -1.9168332,-0.6321 -1.9943628,-1.5705 -0.07753,-0.9385 0.6896753,-1.7568 1.7136022,-1.8279 l 7.0964448,-0.4969 c 0.04183,0 0.08381,-0.01 0.125856,-0.01 z m 128.849351,4.2235 c 0.59722,0 1.18305,0.2734 1.53934,0.763 0.57007,0.7835 0.33206,1.8378 -0.52279,2.3603 l -5.77978,3.8064 c -0.8345,0.5485 -1.99624,0.3745 -2.59461,-0.3903 -0.59836,-0.7648 -0.40852,-1.8296 0.42598,-2.378 l 5.78946,-3.8065 c 0.0333,-0.024 0.0618,-0.04 0.0968,-0.062 0.32057,-0.196 0.68725,-0.2948 1.04558,-0.2929 z m -121.394697,11.4462 c 0.79228,0.021 1.508752,0.5145 1.732967,1.251 l 1.91691,6.2821 c 0.01272,0.037 0.02877,0.069 0.03873,0.1064 0.242393,0.9152 -0.376267,1.8364 -1.374755,2.0586 -0.998491,0.2221 -2.003684,-0.336 -2.246077,-1.2512 l -1.916916,-6.282 c -0.275956,-0.9065 0.308221,-1.85 1.297306,-2.1029 0.18545,-0.048 0.369003,-0.067 0.551835,-0.062 z m 102.854877,3.8863 c 1.02585,-0.041 1.89087,0.6924 1.93627,1.6326 l 0.31949,6.5128 c 0.003,0.038 0.009,0.077 0.01,0.1154 0.0106,0.9416 -0.82171,1.7117 -1.84914,1.7213 -1.02744,0.01 -1.8676,-0.7443 -1.87819,-1.6859 l -0.31948,-6.5127 c -0.0454,-0.9402 0.75551,-1.7419 1.78137,-1.7835 z m -84.324731,12.9723 c 0.123517,0 0.252371,0.018 0.377571,0.044 l 6.941544,1.4376 c 0.04135,0.01 0.08513,0.017 0.125856,0.026 0.99398,0.2386 1.586619,1.1653 1.326348,2.0762 -0.260265,0.9111 -1.28114,1.4542 -2.27512,1.2157 l -6.941544,-1.4286 c -1.001621,-0.2074 -1.630057,-1.1228 -1.4038,-2.0407 0.197983,-0.8033 0.984516,-1.3471 1.849145,-1.3309 z m 64.923271,2.9104 c 1.0266,-0.04 1.89349,0.6917 1.93627,1.6325 0.0428,0.941 -0.75477,1.7355 -1.78137,1.7746 l -7.09645,0.4969 c -1.023922,0.071 -1.916835,-0.6321 -1.994358,-1.5705 -0.07753,-0.9385 0.689672,-1.7568 1.713598,-1.8278 l 7.09645,-0.4968 c 0.0418,0 0.0838,-0.01 0.12586,-0.01 z m -37.370095,1.6502 c 0.358025,-0.01 0.721661,0.075 1.045591,0.2663 l 5.992768,3.5225 c 0.03618,0.02 0.07186,0.04 0.106494,0.062 0.84499,0.5358 1.049284,1.6036 0.464706,2.378 -0.584577,0.7744 -1.739932,0.9705 -2.584925,0.4347 l -5.992768,-3.5314 c -0.863804,-0.5089 -1.107072,-1.5596 -0.551839,-2.3513 0.34702,-0.4948 0.923267,-0.7683 1.519973,-0.7809 z"
       id="path7165"
       sodipodi:nodetypes="ccsccccsccccccccssccsccsccsccccccssccsccsccsccsccsccsccccccsscccssccssccccccccccccccsccsccssccsccsccsccsccsccccccssccsccccssccsccccssccsccsccsccccsccsccsccccssccsccccssccccccssccsccsccsccccccssccsc"
       inkscape:connector-curvature="0" />
  </g>
</svg>
