<?xml version="1.0" encoding="UTF-8" standalone="no"?>
<!-- Created with Inkscape (http://www.inkscape.org/) -->

<svg
   xmlns:dc="http://purl.org/dc/elements/1.1/"
   xmlns:cc="http://creativecommons.org/ns#"
   xmlns:rdf="http://www.w3.org/1999/02/22-rdf-syntax-ns#"
   xmlns:svg="http://www.w3.org/2000/svg"
   xmlns="http://www.w3.org/2000/svg"
   xmlns:sodipodi="http://sodipodi.sourceforge.net/DTD/sodipodi-0.dtd"
   xmlns:inkscape="http://www.inkscape.org/namespaces/inkscape"
   id="svg2"
   viewBox="0 0 16 16"
   sodipodi:docname="Fleischkeule4.svg"
   version="1.1"
   inkscape:version="0.91 r13725"
   width="16"
   height="16">
  <defs
     id="defs6">
    <linearGradient
       id="linearGradient4165"
       y2="266.73999"
       gradientUnits="userSpaceOnUse"
       x2="1007.2"
       y1="334.89001"
       x1="1081.6"
       inkscape:collect="always"
       gradientTransform="matrix(0.01481741,0.00414641,-0.00320023,0.01919839,-3.6022037,-4.9309007)">
      <stop
         id="stop3872"
         style="stop-color:#98726d"
         offset="0" />
      <stop
         id="stop3874"
         style="stop-color:#d5a28c"
         offset="1" />
    </linearGradient>
    <linearGradient
       id="linearGradient4167"
       y2="478.92001"
       gradientUnits="userSpaceOnUse"
       x2="291.82999"
       gradientTransform="matrix(0.01481741,0.00414641,-0.00320023,0.01919839,2.1498555,-3.0277592)"
       y1="604.5"
       x1="386.70999"
       inkscape:collect="always">
      <stop
         id="stop3811"
         style="stop-color:#cc4930"
         offset="0" />
      <stop
         id="stop3813"
         style="stop-color:#f5730b"
         offset="1" />
    </linearGradient>
  </defs>
  <sodipodi:namedview
     id="namedview4"
     bordercolor="#666666"
     inkscape:pageshadow="2"
     guidetolerance="10"
     pagecolor="#ffffff"
     gridtolerance="10"
     inkscape:window-maximized="1"
     inkscape:zoom="45.254834"
     objecttolerance="10"
     borderopacity="1"
     inkscape:current-layer="svg2"
     inkscape:cx="3.5342567"
     inkscape:cy="6.5615648"
     inkscape:window-y="-8"
     inkscape:window-x="-8"
     inkscape:window-width="1680"
     showgrid="false"
     inkscape:pageopacity="0"
     inkscape:window-height="988" />
  <path
     id="path2987"
     sodipodi:nodetypes="scccccccsssccccccccs"
     style="fill:#feebd7;fill-opacity:1;stroke:#5d2e31;stroke-width:0.17200001;stroke-miterlimit:4;stroke-dasharray:none"
     inkscape:connector-curvature="0"
     d="M 13.709371,0.09887655 C 13.343606,0.01251099 12.694884,0.46205327 12.545384,1.2726626 l 0.05656,0.3875643 c 0.07138,0.1699462 0.11874,0.332848 0.375229,0.5546031 l -0.684899,0.6692472 c -0.09925,0.1469063 -0.181079,0.4472552 -0.255969,0.8087261 0.0059,-0.3667357 -0.02717,-0.4998844 -0.09606,-0.4180904 -3.6103684,2.9825613 -7.4451851,6.9031891 -9.9339385,8.7942471 -0.077882,0.0149 -0.2097346,0.147814 -0.2677559,0.200681 -0.2847619,0.259439 -0.1781564,0.89456 0.2380091,1.418542 0.4161659,0.523982 0.9841931,0.738234 1.2689543,0.478798 0.01703,-0.01551 0.032896,-0.03213 0.047144,-0.05023 l 8.263e-4,8.59e-4 C 5.7020489,11.247846 6.900678,9.7882755 9.8309321,7.9578704 11.659216,5.6079097 13.293841,3.6986707 14.170178,2.9398061 14.675359,3.4185497 15.330849,3.3053915 15.50757,3.1579238 16.093541,2.5779612 16.118367,1.4940088 15.13858,0.84433637 14.662643,0.67860105 14.711308,2.0910979 14.126216,1.7540188 13.774171,1.1827752 14.203082,0.32531016 13.84708,0.16948619 13.80866,0.13478619 13.76182,0.11131759 13.709563,0.0989786 Z" />
  <path
     id="path3762"
     sodipodi:nodetypes="cccc"
     style="fill:none;stroke:#000000;stroke-width:0.07592262;stroke-linecap:round;stroke-linejoin:round"
     inkscape:connector-curvature="0"
     d="m 1.8468245,12.184594 c 0.2128261,0.149314 0.3824338,0.382988 0.5022346,0.610017 L 2.266311,12.204164 c 1.259207,0.531037 1.3431462,1.642417 1.0365582,1.933244" />
  <path
     id="path3764"
     sodipodi:nodetypes="ccc"
     style="fill:none;stroke:#000000;stroke-width:0.05521645;stroke-linecap:round;stroke-linejoin:round"
     inkscape:connector-curvature="0"
     d="m 2.2436467,12.158799 0.6419554,-0.681082 c 1.1225943,0.107333 1.4102653,1.397929 1.2956961,1.555857" />
  <path
     d="m 1.8089241,12.692015 c 0.026489,0.03532 0.053817,0.06937 0.082034,0.102379 0.00385,0.0037 0.00788,0.0071 0.011542,0.0111 0.014793,0.01614 0.00539,0.009 0.019801,0.02311 0.010926,0.01066 0.020886,0.01628 0.031119,0.02862 0.022064,0.02794 0.048569,0.04833 0.072596,0.07286 0.015592,0.02164 0.029746,0.04604 0.04828,0.06359 0.018547,0.01716 0.036581,0.03251 0.058171,0.04289 0.025192,0.0072 0.046826,0.02521 0.070623,0.03737 0.025108,0.0097 0.050702,0.024 0.077196,0.02313 0.012392,2.02e-4 0.023328,1.47e-4 0.035192,-0.0044 l -0.1975065,0.12386 c -0.012398,0 -0.024831,2.16e-4 -0.037167,-0.0017 -0.027247,-0.0073 -0.054181,-0.01706 -0.079883,-0.03099 -0.023302,-0.01346 -0.046234,-0.02751 -0.07065,-0.03742 -0.021981,-0.01345 -0.041431,-0.03148 -0.060789,-0.05043 -0.01669,-0.01975 -0.031166,-0.04234 -0.047506,-0.06256 -0.025247,-0.02329 -0.048945,-0.04858 -0.072899,-0.07403 -0.021956,-0.01996 -0.043122,-0.04058 -0.062582,-0.06467 -0.027686,-0.03446 -0.055095,-0.06927 -0.082972,-0.103455 l 0.2054008,-0.0992 z"
     inkscape:connector-curvature="0"
     style="opacity:0.61338004;fill:#918070;stroke:#563c15;stroke-width:0.03796131;stroke-linecap:round;stroke-linejoin:round"
     id="path3974" />
  <path
     d="m 2.8682087,13.922605 c 0.041158,10e-4 0.081525,-0.0073 0.1226938,-0.0063 0.028776,-0.0034 0.057065,-0.01159 0.08487,-0.02171 0.053984,-0.01227 -0.028085,0.0058 0.027303,-0.0045 0.00471,-8.81e-4 0.018519,-0.0056 0.013987,-0.0037 -0.064291,0.02678 -0.1288735,0.05237 -0.1933343,0.07846 -0.0043,0.0017 0.00856,-0.0037 0.012858,-0.0054 0.073036,-0.02993 0.1460962,-0.05976 0.2191441,-0.08964 0.027429,-0.01346 0.05735,-0.01492 0.085038,-0.02618 0.079175,-0.02285 0.024033,-0.0074 -0.1818628,0.07607 -0.00375,0.0015 0.00738,-0.0035 0.011073,-0.0053 0.010491,-0.0049 0.020137,-0.01129 0.030266,-0.01736 0.025249,-0.01214 0.050287,-0.02511 0.075483,-0.0375 0.024699,-0.01035 0.048076,-0.02464 0.071706,-0.03831 0.021385,-0.007 0.039074,-0.02074 0.056795,-0.03692 0.018166,-0.01324 0.036968,-0.02505 0.054547,-0.03958 0.017584,-0.01356 0.035446,-0.02687 0.052123,-0.04228 0.015106,-0.0194 0.032337,-0.03561 0.046666,-0.05599 0.016463,-0.01895 0.027665,-0.04383 0.039939,-0.0672 0.014064,-0.02329 0.02531,-0.049 0.03824,-0.07328 0.011659,-0.02578 0.024525,-0.05075 0.035673,-0.07693 0.00684,-0.01813 0.015788,-0.0345 0.0262,-0.04941 l 0.2148847,-0.05823 c -0.00968,0.01382 -0.020319,0.02542 -0.02775,0.04178 -0.00984,0.02864 -0.024534,0.05257 -0.034836,0.0808 -0.00411,0.0078 -0.00926,0.01469 -0.01312,0.02273 -0.00806,0.01677 -0.01269,0.03646 -0.025417,0.04912 -0.011149,0.02616 -0.025066,0.05041 -0.038573,0.07443 -0.0164,0.01728 -0.02859,0.04071 -0.046696,0.05581 -0.013983,0.02241 -0.033596,0.03275 -0.051004,0.04976 -0.019022,0.01119 -0.035783,0.02807 -0.054482,0.04012 -0.012364,0.0056 -0.016435,0.01225 -0.026219,0.02276 -0.010151,0.01089 -0.00821,0.0058 -0.01996,0.01196 -0.00355,0.0019 -0.00684,0.0045 -0.010261,0.0067 -0.025648,0.0074 -0.046559,0.02942 -0.072357,0.03679 -0.024907,0.01338 -0.050553,0.02359 -0.074721,0.0389 -0.012548,0.0035 -0.019261,0.0098 -0.030457,0.0169 -0.075374,0.04798 -0.1600299,0.07353 -0.2420377,0.0998 -0.028724,0.0067 -0.056886,0.01642 -0.08497,0.02667 0.064463,-0.02695 0.1289021,-0.05399 0.1933909,-0.08084 0.00432,-0.0018 -0.00856,0.0039 -0.012887,0.0057 -0.073239,0.02997 -0.1463208,0.0606 -0.2198101,0.08954 -0.01308,0.0052 -0.027994,0.0032 -0.040885,0.0099 -0.028492,0.0074 -0.05665,0.01697 -0.086074,0.01511 -0.041104,0.0013 -0.082053,0.0073 -0.1231747,0.0086 l 0.1979936,-0.121849 z"
     inkscape:connector-curvature="0"
     style="opacity:0.61338004;fill:#918070;stroke:#563c15;stroke-width:0.03796131;stroke-linecap:round;stroke-linejoin:round"
     id="path3972" />
  <path
     sodipodi:start="0"
     sodipodi:end="6.2632451"
     sodipodi:cx="8.7228003"
     sodipodi:cy="8.4703512"
     transform="matrix(0.74736022,0.66441907,-0.46800001,0.88372846,0,0)"
     sodipodi:open="true"
     d="M 9.333039,8.4703512 A 0.61023879,0.32280037 0 0 1 8.7258423,8.7931476 0.61023879,0.32280037 0 0 1 8.1125918,8.4735695 0.61023879,0.32280037 0 0 1 8.7136744,8.1475869 0.61023879,0.32280037 0 0 1 9.3329177,8.4639149"
     sodipodi:type="arc"
     style="fill:#b78d77"
     sodipodi:ry="0.32280037"
     sodipodi:rx="0.61023879"
     id="path3766-1" />
  <path
     sodipodi:start="0"
     sodipodi:end="6.2632451"
     sodipodi:cx="8.724968"
     sodipodi:cy="8.4709959"
     transform="matrix(0.74736022,0.66441907,-0.46799999,0.88372847,0,0)"
     sodipodi:open="true"
     d="M 9.1971479,8.4709959 A 0.47217995,0.24977079 0 0 1 8.7273218,8.7207636 0.47217995,0.24977079 0 0 1 8.2528115,8.4734861 0.47217995,0.24977079 0 0 1 8.7179067,8.221253 0.47217995,0.24977079 0 0 1 9.197054,8.4660158"
     sodipodi:type="arc"
     style="fill:#fef1e3;stroke:#000000;stroke-width:0.05602323;stroke-linecap:round;stroke-linejoin:round"
     sodipodi:ry="0.24977079"
     sodipodi:rx="0.47217995"
     id="path3766" />
  <path
     inkscape:connector-curvature="0"
     style="fill:#6d4d1a;stroke:#563c15;stroke-width:0.03667407"
     sodipodi:nodetypes="cccc"
     d="M 13.623927,3.1588342 9.6474048,7.1499269 13.761993,2.8329659 c 0.0055,0.073268 0.166515,0.05555 -0.138786,0.3255257 z"
     id="path3878" />
  <path
     inkscape:connector-curvature="0"
     style="opacity:0.84386998;fill:url(#linearGradient4165)"
     sodipodi:nodetypes="ccccccc"
     d="M 15.949514,2.0465907 C 15.498708,2.5889245 14.039049,2.0231074 13.734125,2.3851708 13.109916,2.6546321 8.7077109,9.0471263 7.5435849,8.184053 l 0.095336,1.2395074 2.211763,-1.4937497 C 11.455539,5.8940882 12.934861,4.1451422 14.214891,2.8522196 15.491135,3.850814 16.01217,2.644818 15.94952,2.0465523 Z"
     id="path3860" />
  <path
     inkscape:connector-curvature="0"
     style="fill:#6d4d1a;stroke:#563c15;stroke-width:0.03209801"
     sodipodi:nodetypes="cccc"
     d="M 11.529219,4.0768955 8.1147395,7.7180961 11.774662,3.9814115 c -0.06539,-0.1059274 -0.14353,-0.1044874 -0.245289,0.095489 z"
     id="path3878-2" />
  <path
     inkscape:connector-curvature="0"
     style="fill:#6d4d1a;stroke:#563c15;stroke-width:0.01832841"
     sodipodi:nodetypes="cccc"
     d="m 13.691853,2.0256562 -1.868124,2.2582355 2.002537,-2.3216945 c -0.036,-0.061154 -0.07886,-0.058145 -0.134425,0.063512 z"
     id="path3878-2-71" />
  <path
     d="m 3.227568,13.119542 c 0.046557,-0.006 0.093257,-0.0108 0.1396687,-0.0186 0.031949,-0.0054 0.065903,-0.0052 0.096624,-0.01861 0.023178,-0.0057 0.044259,-0.01592 0.06814,-0.01614 0.067089,-0.02626 0.1906902,-0.07469 -0.1866889,0.07627 -0.00333,0.0013 0.00642,-0.0035 0.00961,-0.0053 0.0098,-0.0056 0.019736,-0.01007 0.029467,-0.01583 0.4954555,-0.205444 0.096853,-0.04003 0.020521,-0.0089 -0.0037,0.0015 0.00733,-0.0033 0.010886,-0.0053 0.013409,-0.0076 0.025709,-0.01754 0.037979,-0.02772 0.020582,-0.02037 0.043537,-0.03715 0.061293,-0.0618 0.011732,-0.02576 0.025165,-0.04946 0.040017,-0.07227 0.00208,-0.0038 0.00416,-0.0077 0.00624,-0.01153 0,0 0.2138362,-0.06366 0.2138362,-0.06366 -0.00189,0.0048 -0.00379,0.0095 -0.00568,0.01426 -0.012746,0.02506 -0.031901,0.0435 -0.040169,0.07249 -0.014889,0.03109 -0.037092,0.05051 -0.060563,0.07004 -0.1117234,0.121004 -0.5090606,0.203888 -0.067606,0.04887 -0.013361,0.0059 -0.00691,0.0021 -0.019332,0.01144 -0.00327,0.0017 -0.00694,0.0017 -0.010264,0.0032 -0.078034,0.03539 -0.1542316,0.09042 -0.2374811,0.09833 -0.022433,0.0052 -0.044214,0.01431 -0.066666,0.01965 -0.032058,0.0057 -0.064011,0.01177 -0.096327,0.0147 -0.046837,0.0058 -0.093745,0.01184 -0.1402015,0.02146 L 3.2275651,13.11956 Z"
     inkscape:connector-curvature="0"
     style="opacity:0.61338004;fill:#918070;stroke:#563c15;stroke-width:0.03796131;stroke-linecap:round;stroke-linejoin:round"
     id="path3964" />
  <path
     d="m 3.833582,11.912289 c -0.023428,0.04759 -0.047952,0.09447 -0.073832,0.139904 -0.017907,0.03213 -0.038907,0.06075 -0.060166,0.0891 -0.01687,0.02433 -0.036911,0.04422 -0.055827,0.0657 -0.016635,0.02187 -0.03628,0.03921 -0.052689,0.06132 -0.018204,0.02065 -0.031198,0.04739 -0.047132,0.07073 -0.020384,0.02939 -0.043341,0.05626 -0.067961,0.07958 -0.020902,0.01459 -0.038499,0.03539 -0.057819,0.05297 -0.015734,0.01859 -0.031235,0.03744 -0.047252,0.05568 -0.017544,0.01507 -0.030955,0.03634 -0.047267,0.05339 -0.016343,0.01779 -0.033742,0.03427 -0.052076,0.04848 -0.020958,0.0078 -0.034655,0.02785 -0.049134,0.0476 -0.00569,0.0094 -0.031028,0.02573 -0.014693,0.0342 0.022792,0.01111 0.046704,0.01764 0.070424,0.02442 0.026328,0.0077 0.052878,0.01835 0.079128,0.0058 -0.065752,0.0267 -0.131375,0.05395 -0.1972541,0.08011 -0.003,0.0012 0.00595,-0.0029 0.00854,-0.0052 0.013709,-0.01218 0.022676,-0.03251 0.031493,-0.05011 0.013296,-0.02758 0.032266,-0.04904 0.048352,-0.07366 0.014086,-0.02417 0.032784,-0.04316 0.050634,-0.06251 0.016286,-0.01876 0.033747,-0.03605 0.052346,-0.05079 0.019682,-0.01732 0.040577,-0.03128 0.062425,-0.04341 0.018817,-0.01444 0.04025,-0.02085 0.059793,-0.03324 0.021868,-0.01285 0.04458,-0.02303 0.065847,-0.03754 0.019796,-0.01151 0.036792,-0.02937 0.057043,-0.03953 0.017415,-0.01406 0.036964,-0.02453 0.053269,-0.04083 0.018173,-0.01512 0.033238,-0.03481 0.049279,-0.05323 0.018931,-0.01858 0.035993,-0.03959 0.053286,-0.06055 0.010586,-0.01317 0.021717,-0.02512 0.031611,-0.03922 0,0 0.2152149,-0.05621 0.2152149,-0.05621 -0.011406,0.01204 -0.018259,0.02953 -0.031867,0.03835 -0.016323,0.02332 -0.034205,0.04393 -0.052817,0.06395 -0.017923,0.01643 -0.031076,0.03834 -0.048813,0.05488 -0.022493,0.01842 0.00559,-0.0058 -0.016586,0.01766 -0.011165,0.01181 -0.027544,0.01088 -0.036042,0.02806 -0.020924,0.01489 0.00217,-7.3e-5 -0.019787,0.0098 -0.01369,0.0061 -0.024749,0.02095 -0.037427,0.02962 -0.022118,0.01212 -0.042524,0.02889 -0.065583,0.03839 -0.020224,0.01005 -0.038798,0.02466 -0.060191,0.03096 -0.02002,0.01687 -0.044557,0.02178 -0.062599,0.04276 -0.018983,0.01292 -0.035894,0.02809 -0.053151,0.04433 -0.016095,0.02125 -0.034425,0.03855 -0.051832,0.05756 -0.013983,0.02726 -0.033264,0.04745 -0.048372,0.0732 -0.00867,0.01388 -0.013967,0.02938 -0.022105,0.04373 -0.05446,0.09596 -0.081098,0.06632 -0.2318922,0.117366 -0.028112,2.13e-4 -0.055109,-0.0077 -0.082327,-0.01641 -0.026256,-0.0082 -0.054163,-0.0152 -0.07568,-0.03764 -0.017407,-0.02821 -0.016682,-0.05575 0.00489,-0.08019 0.018107,-0.01644 0.027891,-0.04384 0.047858,-0.0569 0.020965,-0.006 0.035244,-0.02542 0.053385,-0.03895 0.015374,-0.01921 0.032975,-0.03494 0.0468,-0.05638 0.018385,-0.01308 0.034003,-0.03371 0.047554,-0.05415 0.018003,-0.02083 0.038829,-0.03767 0.057874,-0.05689 0.026786,-0.0162 0.047306,-0.04502 0.068979,-0.07056 0.01587,-0.02432 0.03162,-0.04838 0.046384,-0.0739 0.018348,-0.019 0.032924,-0.04383 0.053159,-0.06035 0.016941,-0.02427 0.037625,-0.04247 0.056248,-0.0643 0.019724,-0.02982 0.04326,-0.05485 0.061329,-0.0866 0.025721,-0.04406 0.050724,-0.08884 0.073646,-0.135471 l 0.2133827,-0.06494 z"
     inkscape:connector-curvature="0"
     style="opacity:0.61338004;fill:#918070;stroke:#563c15;stroke-width:0.03796131;stroke-linecap:round;stroke-linejoin:round"
     id="path3966" />
  <path
     inkscape:connector-curvature="0"
     style="fill:url(#linearGradient4167);stroke:#861c00;stroke-width:0.09662879;stroke-linecap:round;stroke-linejoin:round"
     sodipodi:nodetypes="cccccssscccsccccccccc"
     d="M 0.76097975,8.2032421 C 1.7889833,6.6810517 2.880242,5.3413337 4.2849505,4.9053424 6.2777288,4.3736173 8.2040069,5.245631 9.6604604,4.6294709 c 0.2716618,0.1542678 0.3633816,0.2581794 0.3665076,0.3372986 0.211447,0.018396 0.402988,0.068954 0.559458,0.1761163 0,0 0.177022,0.2060306 0.22849,0.2595579 0.05147,0.053528 0.244879,0.3423853 0.261267,0.4252167 0.01639,0.082838 0.09406,0.613186 0.05276,0.6798709 -0.04132,0.066683 -0.05723,0.4339076 -0.05723,0.4339076 -0.05407,0.2845325 -0.168535,0.7012772 -0.107079,0.7329421 l -0.181635,0.18391 c 0,0 -0.236378,0.1041756 -0.441628,0.3850148 -0.152772,0.2090467 -0.6354159,2.0909952 -1.2356427,3.1557932 -0.183,0.308391 -1.4065697,1.45391 -1.6865247,1.875426 -0.085973,0.412663 -0.4846131,0.9835 -0.8118095,1.337764 -0.1669787,0.08585 -0.3081022,0.198594 -0.4065466,0.355709 -0.1020591,0.112073 -0.2241131,0.240864 -0.4190084,0.430467 L 5.4567602,15.718299 C 5.0698411,15.99143 4.6578817,15.9682 4.2443835,15.926757 2.5714015,15.909511 -0.37364101,12.793471 0.09910696,9.7201788 0.25729831,9.3061039 0.12056884,9.3278624 0.75962898,8.2031401 Z"
     id="path3791" />
  <path
     inkscape:connector-curvature="0"
     style="opacity:0.57248996;fill:#4f1a00"
     sodipodi:nodetypes="cccccccccccccc"
     d="m 5.6798798,12.024857 -0.068383,3.580289 0.8937484,-0.923605 c 0.5004505,-0.5108 0.9794096,-0.991103 0.9583645,-1.492387 0.4592995,-0.600259 1.0105356,-1.171315 1.5926,-1.76487 0.5945905,-1.014332 0.9014372,-2.1767013 1.2894212,-3.2972758 0.219699,-0.1732583 0.554869,-0.3142036 0.602615,-0.5356 0.09941,-0.6934925 0.190755,-1.353577 0.162687,-1.51941 C 10.786812,6.4020449 10.630962,7.0702603 10.064736,6.9138205 9.8792798,7.0222331 9.4944338,7.93065 9.2011057,8.4718404 8.8796767,9.081966 8.5577761,9.0943666 8.1807667,10.064253 l -0.463645,1.513437 c -0.2055281,0.171518 -0.4020955,0.368268 -0.6868551,0.316393 -0.9215805,-0.332617 -0.9738812,0.0284 -1.3504083,0.130708 z"
     id="path4108" />
  <path
     inkscape:connector-curvature="0"
     style="fill:#fbf1b8;fill-opacity:1"
     sodipodi:nodetypes="ccccccc"
     d="M 0.69470716,8.4193044 C 2.1168595,7.0680339 3.5196786,8.5183544 4.2499149,9.8249717 4.9760579,11.091019 5.9475594,11.741086 5.9910442,12.151014 6.2127494,12.571389 5.965298,13.697954 5.7818871,15.398337 5.2970284,15.932269 5.1463638,16.060001 3.9032855,15.889857 1.9758193,15.098469 0.5839924,13.566668 0.06710569,10.82571 0.06636608,10.018751 0.07754688,9.3727261 0.69471356,8.419266 Z"
     id="path3976" />
  <path
     inkscape:connector-curvature="0"
     style="fill:#bb2a00"
     sodipodi:nodetypes="ccccccc"
     d="m 1.0428643,9.0413177 c 1.1967754,-1.1224535 2.3819291,0.090451 2.9998058,1.1816873 0.6143045,1.057402 1.4344073,1.601989 1.4717221,1.943798 0.1876065,0.351034 -0.019132,1.289459 -0.1709491,2.706439 C 4.9355436,15.316984 4.8087311,15.42304 3.7604425,15.277726 2.134039,14.612622 0.95814232,13.331717 0.51773682,11.045565 0.46806607,10.50621 0.39830686,9.9785128 1.0429036,9.0412687 Z"
     id="path3976-2" />
  <path
     inkscape:connector-curvature="0"
     style="fill:#8b2a00"
     sodipodi:nodetypes="cscccc"
     d="M 5.5533262,12.2798 C 4.8471602,13.064744 3.9310018,13.706912 2.5138502,13.310345 2.0952437,13.193205 1.290615,12.693298 0.93592116,12.484692 1.5237244,13.90734 2.5098235,14.785881 3.7633741,15.298563 4.8116656,15.443861 4.9384279,15.337546 5.3463275,14.893805 5.4864211,13.586253 5.6726743,12.686984 5.553305,12.279834 Z"
     id="path3976-2-6" />
  <path
     sodipodi:start="0"
     sodipodi:end="6.2632451"
     sodipodi:cx="10.469936"
     sodipodi:cy="6.2929349"
     transform="matrix(0.6566302,0.75421269,-0.45895038,0.8884619,0,0)"
     sodipodi:open="true"
     d="M 12.772916,6.2929349 A 2.3029799,1.2391648 0 0 1 10.481417,7.5320843 2.3029799,1.2391648 0 0 1 8.1670709,6.3052893 2.3029799,1.2391648 0 0 1 10.435496,5.0539086 2.3029799,1.2391648 0 0 1 12.772458,6.2682273"
     sodipodi:type="arc"
     style="opacity:0.64683999;fill:#4f1a00"
     sodipodi:ry="1.2391648"
     sodipodi:rx="2.3029799"
     id="path4106" />
  <path
     id="path4087"
     sodipodi:nodetypes="cccccccccccc"
     style="fill:#ffffff"
     inkscape:connector-curvature="0"
     d="m 3.0880572,11.475178 -0.6548289,0.667694 0.07612,0.539685 -0.520927,-0.497879 -0.1909834,0.239988 0.073003,0.558382 0.2998728,0.46538 0.408643,0.446905 0.5279044,0.274878 0.3824343,-0.02991 0.8369719,-1.262262 C 4.435534,12.495983 3.8595981,11.406658 3.0880648,11.475206 Z" />
  <g
     style="stroke:#5d2e31;stroke-width:4.4000001"
     id="g4033"
     transform="matrix(0.01481741,0.00414641,-0.00320023,0.01919839,2.4798473,-3.3077058)">
    <path
       d="m 196.88,726.94 -35.796,42.68 10.326,24.782 -35.796,-17.898 c -45.239,30.281 66.517,108.79 117.71,77.099 L 293.25,786.83 c 9.6031,-45.858 -78.644,-74.406 -96.373,-59.889 z"
       inkscape:connector-curvature="0"
       style="fill:none;stroke:#5d2e31;stroke-width:4.4000001"
       sodipodi:nodetypes="ccccccc"
       id="path4027" />
    <path
       d="m 136.3,776.51 48.875,-45.433 6.1954,2.0651"
       inkscape:connector-curvature="0"
       style="fill:none;stroke:#5d2e31;stroke-width:4.4000001"
       id="path4029" />
    <path
       d="m 255.76,848.53 c 10.88,-33.77 -47.1,-77.07 -93.99,-78.22"
       inkscape:connector-curvature="0"
       style="fill:none;stroke:#5d2e31;stroke-width:4.4000001"
       sodipodi:nodetypes="cc"
       id="path4031" />
  </g>
  <metadata
     id="metadata75">
    <rdf:RDF>
      <cc:Work>
        <dc:format>image/svg+xml</dc:format>
        <dc:type
           rdf:resource="http://purl.org/dc/dcmitype/StillImage" />
        <cc:license
           rdf:resource="http://creativecommons.org/publicdomain/zero/1.0/" />
        <dc:publisher>
          <cc:Agent
             rdf:about="http://openclipart.org/">
            <dc:title>Openclipart</dc:title>
          </cc:Agent>
        </dc:publisher>
        <dc:title></dc:title>
      </cc:Work>
      <cc:License
         rdf:about="http://creativecommons.org/publicdomain/zero/1.0/">
        <cc:permits
           rdf:resource="http://creativecommons.org/ns#Reproduction" />
        <cc:permits
           rdf:resource="http://creativecommons.org/ns#Distribution" />
        <cc:permits
           rdf:resource="http://creativecommons.org/ns#DerivativeWorks" />
      </cc:License>
    </rdf:RDF>
  </metadata>
</svg>
