<?xml version="1.0" encoding="UTF-8" standalone="no"?>
<!-- Created with Inkscape (http://www.inkscape.org/) -->

<svg
   xmlns:dc="http://purl.org/dc/elements/1.1/"
   xmlns:cc="http://creativecommons.org/ns#"
   xmlns:rdf="http://www.w3.org/1999/02/22-rdf-syntax-ns#"
   xmlns:svg="http://www.w3.org/2000/svg"
   xmlns="http://www.w3.org/2000/svg"
   xmlns:sodipodi="http://sodipodi.sourceforge.net/DTD/sodipodi-0.dtd"
   xmlns:inkscape="http://www.inkscape.org/namespaces/inkscape"
   id="svg2"
   viewBox="0 0 16 16"
   version="1.0"
   inkscape:version="0.91 r13725"
   sodipodi:docname="deli3.svg"
   width="16"
   height="16">
  <defs
     id="defs58" />
  <sodipodi:namedview
     pagecolor="#ffffff"
     bordercolor="#666666"
     borderopacity="1"
     objecttolerance="10"
     gridtolerance="10"
     guidetolerance="10"
     inkscape:pageopacity="0"
     inkscape:pageshadow="2"
     inkscape:window-width="1680"
     inkscape:window-height="988"
     id="namedview56"
     showgrid="true"
     fit-margin-top="0"
     fit-margin-left="0"
     fit-margin-right="0"
     fit-margin-bottom="0"
     inkscape:zoom="45.254834"
     inkscape:cx="5.6196101"
     inkscape:cy="9.5097198"
     inkscape:window-x="-8"
     inkscape:window-y="-8"
     inkscape:window-maximized="1"
     inkscape:current-layer="svg2">
    <inkscape:grid
       type="xygrid"
       id="grid4133" />
  </sodipodi:namedview>
  <metadata
     id="metadata54">
    <rdf:RDF>
      <cc:Work>
        <dc:format>image/svg+xml</dc:format>
        <dc:type
           rdf:resource="http://purl.org/dc/dcmitype/StillImage" />
        <cc:license
           rdf:resource="http://creativecommons.org/publicdomain/zero/1.0/" />
        <dc:publisher>
          <cc:Agent
             rdf:about="http://openclipart.org/">
            <dc:title>Openclipart</dc:title>
          </cc:Agent>
        </dc:publisher>
        <dc:title></dc:title>
        <dc:date>2010-04-15T15:08:15</dc:date>
        <dc:description />
        <dc:source>https://openclipart.org/detail/48169/lobster-by-hextrust</dc:source>
        <dc:creator>
          <cc:Agent>
            <dc:title>hextrust</dc:title>
          </cc:Agent>
        </dc:creator>
        <dc:subject>
          <rdf:Bag>
            <rdf:li>crustacean</rdf:li>
            <rdf:li>delicious</rdf:li>
            <rdf:li>fish</rdf:li>
            <rdf:li>healthy</rdf:li>
            <rdf:li>kitchen</rdf:li>
            <rdf:li>snack</rdf:li>
          </rdf:Bag>
        </dc:subject>
      </cc:Work>
      <cc:License
         rdf:about="http://creativecommons.org/publicdomain/zero/1.0/">
        <cc:permits
           rdf:resource="http://creativecommons.org/ns#Reproduction" />
        <cc:permits
           rdf:resource="http://creativecommons.org/ns#Distribution" />
        <cc:permits
           rdf:resource="http://creativecommons.org/ns#DerivativeWorks" />
      </cc:License>
    </rdf:RDF>
  </metadata>
  <path
     style="fill:#ac39ac;fill-opacity:1;stroke:none;stroke-width:21.26000023;stroke-linecap:round"
     d="M 11.198257,9.127432e-5 C 10.447709,0.00609127 9.7158365,0.27545127 8.996028,0.71528127 8.6227401,0.97456127 8.3530706,1.3318113 8.4872617,1.7408313 c 0.2130866,0.64981 1.0766814,1.31138 1.3699743,1.01646 l 0.025902,-0.0231 c 0.039283,0.0258 0.0863,0.0471 0.142021,0.0628 1.090453,0.31146 2.674088,0.26504 3.51506,-1.39471 -1.22924,0.97662 -2.067449,1.11641 -2.578397,0.55555 -0.03714,-0.0324 -0.07394,-0.0622 -0.110435,-0.0893 l 0.20744,-0.2791195 c 0.7389,-0.47939 1.540197,-0.5036305 2.950143,-0.2931905 C 13.037116,0.37040127 12.104093,-0.00685873 11.198257,1.3127432e-4 Z M 7.1746596,1.3543713 c -0.9535287,0.67117 -1.2418704,2.04009 -0.7960528,3.08998 0.1477841,0.34478 0.3643715,0.65371 0.5287945,0.99054 0.1086758,0.1901 0.2419665,0.39903 0.4141629,0.54895 -0.085931,0.086 -0.1696596,0.17316 -0.2513131,0.26142 -0.011978,-0.004 -0.023995,-0.007 -0.035973,-0.0106 -0.3642787,-0.0892 -0.7412904,-0.29123 -1.0178776,-0.56073 C 5.4416323,5.1173713 5.292807,4.3593263 5.007785,3.6384363 4.919487,3.5180363 4.8362983,3.1548513 4.6801096,3.2602513 c -0.222031,0.36107 -0.054037,0.80666 0.1098254,1.15605 0.1809154,0.32825 0.3090329,0.68322 0.5060204,1.00241 0.336549,0.54124 0.8863226,0.95184 1.4973095,1.13991 -0.2064696,0.24437 -0.3973274,0.496 -0.5722817,0.75321 C 5.7539399,6.9340613 5.4502878,6.3239188 4.9094493,6.0322288 4.7443863,5.9298188 4.5449342,5.9319788 4.3706911,5.8473788 3.798724,5.6461088 3.3811566,5.1477313 3.3812025,4.5392013 c -0.1956762,0.29432 -0.2211923,0.68969 -0.055008,1.00303 0.2437642,0.46958 0.7106788,0.78539 1.1965204,0.96496 0.1542869,0.0416 0.3049163,0.0959 0.4219829,0.21067 0.3631863,0.30019 0.650165,0.69236 1.0429019,0.95557 -0.075121,0.12288 -0.1466347,0.24686 -0.2147299,0.37168 -0.2675772,-0.21045 -0.5183814,-0.36379 -0.6570448,-0.33911 l -0.7957094,0.14161 c -0.2126066,0.0378 0.029025,0.62296 0.3337105,1.08515 -0.188824,-0.12419 -0.3580625,-0.19935 -0.4673777,-0.17265 l -0.8129899,0.19857 c -0.241609,0.059 0.036225,0.75923 0.3552252,1.2111097 -0.1179847,-0.0546 -0.2270887,-0.0776 -0.314446,-0.0525 l -0.7068266,0.20331 c -0.189515,0.0545 7e-6,0.55101 0.2396016,0.91521 -0.2217322,-0.17177 -0.4353559,-0.29646 -0.5521023,-0.25779 l -0.6267941,0.20754 c -0.1402617,0.0464 -0.037451,0.39282 0.135155,0.72118 -0.013983,-3.7e-4 -0.028115,-3.7e-4 -0.04242,1.3e-4 l -1.11568618,-0.69845 c -0.24237581,-0.15173 -0.61859347,-0.20806 -0.63724645,-0.0462 l -0.04337319,0.37623 c -0.01865159,0.16181 -0.02836998,0.38375 0.23777057,0.50153 l 0.26607564,0.11774 -0.12287163,0.0248 c -0.2685382,0.0541 -0.53754993,0.29147 -0.41507804,0.44415 l 0.28476773,0.35496 c 0.12018765,0.14983 0.29326974,0.34245 0.54027663,0.25397 l -0.13919857,0.10931 c -0.27365876,0.2149 -0.10272481,0.57129 0.20851174,0.91995 l 0.56438565,0.63222 c 0.3112379,0.34866 0.6375095,0.35949 0.8857745,0.11748 l 0.1467516,-0.14303 -0.035706,0.0835 c -0.1077798,0.25205 0.084615,0.43469 0.2338795,0.56125 l 0.3470619,0.29429 c 0.1492633,0.12656 0.3934117,-0.13631 0.4545222,-0.40356 l 0.073051,-0.31949 0.1644903,0.65612 c 0.064748,0.25831 0.2732637,0.26244 0.427247,0.25451 l 0.35801,-0.0184 c 0.1539827,-0.008 0.1651469,-0.36651 0.064735,-0.60442 l -0.4876339,-1.1554 c -0.019264,-0.0457 -0.041955,-0.0865 -0.066833,-0.12241 0.2803283,0.14801 0.5505811,0.21965 0.5823909,0.0743 l 0.1589209,-0.72648 c 0.025504,-0.11657 -0.026391,-0.27082 -0.1205069,-0.4338 0.3645478,0.2488 0.8812795,0.44724 0.937998,0.2555 l 0.201836,-0.68239 c 0.027143,-0.0918 -0.028436,-0.23392 -0.1242834,-0.39253 0.4363111,0.33863 1.1187241,0.65639 1.1889673,0.41612 l 0.242844,-0.83068 c 0.03029,-0.10361 0.00231,-0.23666 -0.063972,-0.38237 0.437427,0.30602 0.9620215,0.54741 1.0077302,0.34526 l 0.1839077,-0.81327 c 0.042689,-0.1888 -0.1226924,-0.49346 -0.3612525,-0.79747 0.1660413,-0.0857 0.3301967,-0.1774797 0.4924013,-0.2756897 0.1549919,0.2142097 0.2546659,0.4687597 0.2769097,0.7359497 0.037895,0.19011 -0.046734,0.38243 0.010643,0.56812 0.1738301,0.71313 0.8180895,1.19927 0.9828582,1.91572 0.040404,0.10453 -0.018072,0.34757 0.1435095,0.20243 0.1978704,-0.1076 0.3107068,-0.414588 0.2474758,-0.616588 -0.1399945,-0.49516 -0.480594,-0.881905 -0.6950399,-1.343385 -0.081474,-0.14234 -0.095924,-0.30193 -0.097275,-0.46186 -0.044083,-0.44513 -0.2524534,-0.8629967 -0.5438013,-1.2077467 0.1612498,-0.10792 0.320536,-0.22238 0.4777534,-0.34358 0.109186,0.2732 0.20165,0.55327 0.3377925,0.8145297 0.5304823,1.00969 1.7409283,1.636465 2.9494003,1.290565 -0.420379,-0.0863 -0.850764,-0.231865 -1.251307,-0.381745 -0.356856,-0.11542 -0.701638,-0.274288 -0.957971,-0.563148 -0.373669,-0.41846 -0.5993699,-0.8905017 -0.75294,-1.4229117 0.1360967,-0.11514 0.2706075,-0.23546 0.403481,-0.3613 0.466799,0.63782 1.220061,1.11961 2.010296,1.1533 0.374561,0.0147 0.793253,-0.056012 1.16779,-0.059812 0.384545,-0.029 0.831392,-0.1564575 1.036324,-0.5275075 0.01489,-0.18795 -0.359682,-0.0179 -0.507851,-0.0357 -0.767323,0.10611 -1.563827,0.33139 -2.330671,0.10419 -0.370476,-0.10851 -0.650112,-0.38383 -0.90687,-0.65742 -0.07446,-0.0725 -0.149487,-0.14462 -0.224114,-0.21721 0.167243,-0.17017 0.320636,-0.34 0.461656,-0.51 0.571242,0.22619 1.373209,0.1275 2.30267,0.0969 -0.211206,-0.0808 -1.003317,-0.57194 -0.660744,-0.94465 -0.50057,0.32546 -0.813735,0.418976 -1.277266,0.401496 0.856894,-1.16335 1.054928,-2.230056 1.18781,-3.616126 -1.415114,0.0984 -2.442058,0.2523275 -3.649577,1.1174275 -0.026914,-0.48908 0.01597,-0.7896675 0.3690834,-1.3035175 -0.3812935,0.33292 -0.8508735,-0.47257 -0.9260571,-0.68602 -0.056819,0.95779 -0.1823154,1.7782 0.056458,2.35929 -0.1394989,0.1118 -0.2791125,0.23171 -0.41916,0.36046 -0.4255523,-0.64742 -0.8613967,-1.30134 -0.9860939,-2.09159 -0.061405,-0.38143 -0.042642,-0.72125 0.093758,-1.07089 0.1373693,-0.40531 0.265065,-0.81677 0.4642117,-1.19721 z m 1.0845202,0.65196 -0.1535031,0.99913 0.6381995,0.5231 c 0.2064987,-0.14253 0.4014042,-0.19429 0.6335847,-0.54376 -0.4783886,-0.0347 -0.8784843,-0.60413 -1.1182811,-0.97847 z m 6.5186062,0.0176 c 0.172998,1.41622 -0.108205,2.36598 -0.6065,3.09261 l -0.04848,0.0516 c -0.02612,-0.0373 -0.05479,-0.0749 -0.08621,-0.1129 -0.546703,-0.526 -0.385045,-1.36097 0.622826,-2.56508 -1.679934,0.79762 -1.768036,2.38087 -1.485713,3.4801 0.01421,0.0562 0.03427,0.10376 0.05898,0.14374 l -0.0238,0.0253 c -0.302304,0.28566 0.335713,1.16716 0.97912,1.3975 0.404985,0.14505 0.768938,-0.11534 1.037752,-0.48198 1.011375,-1.56376 1.196047,-3.20819 -0.44796,-5.03086 z m -1.808781,4.58938 c -0.355164,0.22308 -0.412,0.41674 -0.559808,0.61959 l 0.505678,0.65234 1.001931,-0.12726 c -0.367566,-0.24979 -0.925736,-0.66512 -0.947801,-1.14467 z"
     id="path3301"
     inkscape:connector-curvature="0"
     sodipodi:nodetypes="cccccccccccccccccccccccccccccccccccccscccccccccsccccccccsccccscccccccsccccccccssccccccccccccccccccccccccccccccccccccccccccccccccccccccccccccccc" />
</svg>
