<?xml version="1.0" encoding="UTF-8" standalone="no"?>
<!-- Created with Inkscape (http://www.inkscape.org/) -->

<svg
   xmlns:dc="http://purl.org/dc/elements/1.1/"
   xmlns:cc="http://creativecommons.org/ns#"
   xmlns:rdf="http://www.w3.org/1999/02/22-rdf-syntax-ns#"
   xmlns:svg="http://www.w3.org/2000/svg"
   xmlns="http://www.w3.org/2000/svg"
   xmlns:sodipodi="http://sodipodi.sourceforge.net/DTD/sodipodi-0.dtd"
   xmlns:inkscape="http://www.inkscape.org/namespaces/inkscape"
   version="1.0"
   width="16"
   height="7.2469721"
   id="svg2"
   sodipodi:version="0.32"
   inkscape:version="0.91 r13725"
   sodipodi:docname="seafood.svg"
   inkscape:output_extension="org.inkscape.output.svg.inkscape">
  <metadata
     id="metadata2975">
    <rdf:RDF>
      <cc:Work
         rdf:about="">
        <dc:format>image/svg+xml</dc:format>
        <dc:type
           rdf:resource="http://purl.org/dc/dcmitype/StillImage" />
        <cc:license
           rdf:resource="http://creativecommons.org/publicdomain/zero/1.0/" />
        <dc:language>en</dc:language>
        <dc:title></dc:title>
      </cc:Work>
      <cc:License
         rdf:about="http://creativecommons.org/publicdomain/zero/1.0/">
        <cc:permits
           rdf:resource="http://creativecommons.org/ns#Reproduction" />
        <cc:permits
           rdf:resource="http://creativecommons.org/ns#Distribution" />
        <cc:permits
           rdf:resource="http://creativecommons.org/ns#DerivativeWorks" />
      </cc:License>
    </rdf:RDF>
  </metadata>
  <sodipodi:namedview
     inkscape:window-height="988"
     inkscape:window-width="1680"
     inkscape:pageshadow="2"
     inkscape:pageopacity="0.0"
     guidetolerance="10.0"
     gridtolerance="10.0"
     objecttolerance="10.0"
     borderopacity="1.0"
     bordercolor="#666666"
     pagecolor="#ffffff"
     id="base"
     inkscape:zoom="58.987335"
     inkscape:cx="4.8254106"
     inkscape:cy="4.032757"
     inkscape:window-x="-8"
     inkscape:window-y="-8"
     inkscape:current-layer="svg2"
     showgrid="true"
     inkscape:window-maximized="1"
     fit-margin-top="0"
     fit-margin-left="0"
     fit-margin-right="0"
     fit-margin-bottom="0">
    <inkscape:grid
       type="xygrid"
       id="grid4165" />
  </sodipodi:namedview>
  <defs
     id="defs4">
    <inkscape:perspective
       sodipodi:type="inkscape:persp3d"
       inkscape:vp_x="0 : 290 : 1"
       inkscape:vp_y="0 : 1000 : 0"
       inkscape:vp_z="580 : 290 : 1"
       inkscape:persp3d-origin="290 : 193.33333 : 1"
       id="perspective2441" />
    <inkscape:perspective
       id="perspective3452"
       inkscape:persp3d-origin="30 : 20 : 1"
       inkscape:vp_z="60 : 30 : 1"
       inkscape:vp_y="0 : 1000 : 0"
       inkscape:vp_x="0 : 30 : 1"
       sodipodi:type="inkscape:persp3d" />
    <symbol
       viewBox="244.5 110 489 219.9"
       id="symbol-university">
      <path
         id="path4460"
         d="m 79,43 57,119 c 0,0 21,-96 104,-96 83,0 124,106 124,106 L 407,39 489,22 0,17 79,43 Z"
         inkscape:connector-curvature="0" />
      <path
         id="path4462"
         d="M 94,176 73,215"
         inkscape:connector-curvature="0"
         style="fill:none;stroke:#000000;stroke-width:20" />
      <path
         id="path4464"
         d="M 300,19 C 300,29.5 277.4,38 249.5,38 221.6,38 199,29.5 199,19 199,8.5 221.6,0 249.5,0 277.4,0 300,8.5 300,19 Z"
         inkscape:connector-curvature="0" />
      <path
         id="path4466"
         d="M 112,216 96,178 64,88 C 64,88 55,80 60,53 65,26 76,29 76,29"
         ill="none"
         inkscape:connector-curvature="0"
         style="stroke:#000000;stroke-width:20" />
    </symbol>
    <inkscape:perspective
       id="perspective4471"
       inkscape:persp3d-origin="372.04724 : 350.78739 : 1"
       inkscape:vp_z="744.09448 : 526.18109 : 1"
       inkscape:vp_y="0 : 1000 : 0"
       inkscape:vp_x="0 : 526.18109 : 1"
       sodipodi:type="inkscape:persp3d" />
    <inkscape:perspective
       id="perspective4668"
       inkscape:persp3d-origin="6 : 4 : 1"
       inkscape:vp_z="12 : 6 : 1"
       inkscape:vp_y="0 : 1000 : 0"
       inkscape:vp_x="0 : 6 : 1"
       sodipodi:type="inkscape:persp3d" />
    <inkscape:perspective
       id="perspective2918"
       inkscape:persp3d-origin="0.5 : 0.33333333 : 1"
       inkscape:vp_z="1 : 0.5 : 1"
       inkscape:vp_y="0 : 1000 : 0"
       inkscape:vp_x="0 : 0.5 : 1"
       sodipodi:type="inkscape:persp3d" />
    <inkscape:perspective
       id="perspective5519"
       inkscape:persp3d-origin="0.5 : 0.33333333 : 1"
       inkscape:vp_z="1 : 0.5 : 1"
       inkscape:vp_y="0 : 1000 : 0"
       inkscape:vp_x="0 : 0.5 : 1"
       sodipodi:type="inkscape:persp3d" />
  </defs>
  <g
     id="layer3"
     inkscape:label="Layout"
     style="display:none;stroke:#757575;stroke-opacity:1"
     transform="matrix(48.14969,0,0,48.14969,-552.95702,-431.48182)">
    <rect
       style="display:inline;fill:none;stroke:#757575;stroke-width:0.1;stroke-miterlimit:4;stroke-dasharray:none;stroke-opacity:1"
       id="rect4134"
       width="10"
       height="10"
       x="1"
       y="1" />
    <rect
       style="display:inline;fill:none;stroke:#757575;stroke-width:0.1;stroke-miterlimit:4;stroke-dasharray:none;stroke-opacity:1"
       id="rect4136"
       width="8"
       height="8"
       x="2"
       y="2" />
  </g>
  <path
     inkscape:connector-curvature="0"
     sodipodi:nodetypes="cscccccsssscccccssccssscccssssssccssscs"
     id="path1932"
     d="m 7.3814438,0 c -0.005,1.4e-4 -0.008,0.001 -0.0118,0.003 -0.0536,0.0212 -0.33864,0.33604 -0.63334,0.70078 l -0.53675,0.6625 -0.3882,0.0292 c -1.77552,0.21512 -3.22299,0.94254 -4.5555,2.11235 -0.27624996,0.29195 -1.31719996,1.26139 -1.25300996,1.49632 0.0221,0.0235 0.26955,-0.006 0.54221,0.0292 0.51097996,0.0659 1.29400996,0.16586 1.28945996,0.27247 -0.002,0.0554 -0.44174,0.10848 -1.24480996,0.21051 -0.68848,0.0875 -0.68221,0.23236 0.0201,0.48024 0.84062996,0.29673 1.94556996,0.48177 3.73169996,0.35176 1.32714,0.0143 2.50988,-0.45776 3.76086,-0.75637 0.0878,-0.004 0.34602,-0.0778 0.57228,-0.16494 1.3632402,-0.38962 2.4843402,-0.77204 3.5995602,-0.65703 1.03048,0.0528 1.71671,0.75287 2.52972,1.25756 0.0336,7.9e-4 0.24093,0.13487 0.45929,0.29799 0.59418,0.44389 0.74519,0.38092 0.51214,-0.21141 -0.19143,-0.48655 -0.50603,-1.59498 -0.49938,-1.7606 0.17905,-0.54904 0.36255,-1.2195 0.60326,-1.74784 0.13755,-0.2423 0.16285,-0.48765 0.0519,-0.49027 -0.0183,-4.3e-4 -0.0957,0.0281 -0.17497,0.0647 -0.0792,0.0366 -0.28576,0.13143 -0.45473,0.20778 -0.16897,0.0763 -0.37468,0.19574 -0.45746,0.26791 -0.49322,0.32332 -1.02749,0.48014 -1.62755,0.45473 C 12.545754,2.97619 11.676704,2.87086 11.006564,2.41341 9.9765338,1.85956 9.8878638,1.81623 9.4601238,1.66525 c -0.23255,-0.0821 -0.43217,-0.15965 -0.44289,-0.17132 -0.0107,-0.0117 0.0474,-0.0813 0.12849,-0.15583 0.0811,-0.0745 0.14088,-0.17399 0.13214,-0.21962 -0.009,-0.0456 -0.25439,-0.17069 -0.54495,-0.28159 -0.33849,-0.12919 -0.66048,-0.323 -0.8967,-0.53765 -0.19009,-0.17273 -0.38672,-0.30112 -0.45473,-0.2989 z M 2.440382,3.4509502 c 0.2515446,0 0.4553107,0.2056473 0.4553107,0.4595354 0,0.2539051 -0.2037661,0.4595524 -0.4553107,0.4595524 -0.2515616,0 -0.4553107,-0.2056473 -0.4553107,-0.4595524 0,-0.2538881 0.2037491,-0.4595354 0.4553107,-0.4595354 z"
     style="fill:#ac39ac;fill-opacity:1" />
  <path
     inkscape:connector-curvature="0"
     sodipodi:nodetypes="ccccscsc"
     id="path5541"
     d="m 3.7608338,5.17347 c -0.9141,-1.28578 -0.73338,0.0215 -0.33145,-0.89494 l 2.15143,-1.65527 c 4.8494802,-1.30214 -1.76693,1.42552 1.4814,0.77527 -0.0268,0.0291 0.11774,0.20373 0.32037,0.38979 0.20264,0.18605 0.35288,0.43335 0.33106,0.5473 -2.24274,1.23943 0.27339,3.03816 -1.78956,2.90429 -1.00992,-0.0655 -2.64077,-1.9389 -2.16325,-2.06644 z"
     style="fill:#ac39ac;fill-opacity:1" />
</svg>
