<?xml version="1.0" encoding="UTF-8" standalone="no"?>
<!-- Created with Inkscape (http://www.inkscape.org/) -->

<svg
   xmlns:dc="http://purl.org/dc/elements/1.1/"
   xmlns:cc="http://creativecommons.org/ns#"
   xmlns:rdf="http://www.w3.org/1999/02/22-rdf-syntax-ns#"
   xmlns:svg="http://www.w3.org/2000/svg"
   xmlns="http://www.w3.org/2000/svg"
   xmlns:sodipodi="http://sodipodi.sourceforge.net/DTD/sodipodi-0.dtd"
   xmlns:inkscape="http://www.inkscape.org/namespaces/inkscape"
   width="16"
   height="7"
   viewBox="0 0 16 7"
   id="svg2"
   version="1.1"
   inkscape:version="0.92.2 (5c3e80d, 2017-08-06)"
   sodipodi:docname="05.svg">
  <defs
     id="defs4" />
  <sodipodi:namedview
     id="base"
     pagecolor="#ffffff"
     bordercolor="#666666"
     borderopacity="1.0"
     inkscape:pageopacity="0.0"
     inkscape:pageshadow="2"
     inkscape:zoom="34.36097"
     inkscape:cx="7.2284235"
     inkscape:cy="7.0361809"
     inkscape:document-units="px"
     inkscape:current-layer="layer1"
     showgrid="true"
     units="px"
     inkscape:window-width="1680"
     inkscape:window-height="987"
     inkscape:window-x="-8"
     inkscape:window-y="-8"
     inkscape:window-maximized="1"
     viewbox-height="16">
    <inkscape:grid
       type="xygrid"
       id="grid4136"
       originx="0"
       originy="0"
       spacingx="1"
       spacingy="1" />
  </sodipodi:namedview>
  <metadata
     id="metadata7">
    <rdf:RDF>
      <cc:Work
         rdf:about="">
        <dc:format>image/svg+xml</dc:format>
        <dc:type
           rdf:resource="http://purl.org/dc/dcmitype/StillImage" />
        <dc:title></dc:title>
        <cc:license
           rdf:resource="http://creativecommons.org/publicdomain/zero/1.0/" />
      </cc:Work>
      <cc:License
         rdf:about="http://creativecommons.org/publicdomain/zero/1.0/">
        <cc:permits
           rdf:resource="http://creativecommons.org/ns#Reproduction" />
        <cc:permits
           rdf:resource="http://creativecommons.org/ns#Distribution" />
        <cc:permits
           rdf:resource="http://creativecommons.org/ns#DerivativeWorks" />
      </cc:License>
    </rdf:RDF>
  </metadata>
  <g
     inkscape:label="Layer 1"
     inkscape:groupmode="layer"
     id="layer1"
     transform="translate(0,-1046.3622)">
    <path
       inkscape:connector-curvature="0"
       sodipodi:nodetypes="cscccccsssscccccssccssscccssssssccssscs"
       id="path1932"
       d="m 7.381163,1046.3648 c -0.005,2e-4 -0.008,10e-4 -0.011799,0 -0.053598,0.02 -0.3386271,0.3245 -0.6333159,0.6767 l -0.5367296,0.6396 -0.3881852,0.028 c -1.7754525,0.2077 -3.2228674,0.9101 -4.5553267,2.0397 -0.27623951,0.2818 -1.31715011,1.2178 -1.25296235,1.4448 0.02209916,0.023 0.26953975,-0.01 0.54218937,0.028 0.51096058,0.064 1.29396078,0.16 1.28941098,0.263 -0.002,0.053 -0.4417232,0.1047 -1.24476268,0.2033 -0.688454,0.085 -0.68218424,0.2243 0.0200992,0.4637 0.84059808,0.2865 1.94549608,0.4652 3.73155808,0.3397 1.3270895,0.014 2.5097845,-0.4421 3.7607169,-0.7304 0.087797,0 0.3460068,-0.075 0.5722582,-0.1593 1.3631877,-0.3762 2.4842447,-0.7454 3.5994227,-0.6344 1.030441,0.051 1.716645,0.727 2.529624,1.2143 0.0336,8e-4 0.240921,0.1302 0.459272,0.2878 0.594158,0.4286 0.745162,0.3677 0.512121,-0.2042 -0.191423,-0.4698 -0.506011,-1.54 -0.499361,-1.6999 0.179043,-0.5302 0.362536,-1.1775 0.603237,-1.6877 0.137545,-0.234 0.162844,-0.4708 0.0519,-0.4734 -0.0183,-4e-4 -0.0957,0.027 -0.174964,0.063 -0.0792,0.036 -0.285749,0.127 -0.454712,0.2007 -0.168964,0.073 -0.374666,0.189 -0.457443,0.2586 -0.493201,0.3123 -1.027451,0.4637 -1.627488,0.4392 -0.670644,-0.1298 -1.539661,-0.2315 -2.209776,-0.6732 -1.0299902,-0.5347 -1.1186568,-0.5765 -1.5463806,-0.7223 -0.2325411,-0.079 -0.4321535,-0.1542 -0.4428731,-0.1654 -0.0107,-0.012 0.047398,-0.078 0.1284851,-0.1506 0.081097,-0.071 0.1408747,-0.168 0.132135,-0.212 -0.009,-0.044 -0.2543803,-0.1648 -0.5449293,-0.2719 -0.3384771,-0.1248 -0.6604549,-0.3119 -0.8966659,-0.5191 -0.1900827,-0.1668 -0.3867052,-0.2908 -0.4547127,-0.2886 z m -4.940874,3.3321 c 0.2515355,0 0.4552937,0.1986 0.4552937,0.4437 0,0.2452 -0.2037582,0.4438 -0.4552937,0.4438 -0.2515524,0 -0.4552936,-0.1986 -0.4552936,-0.4438 0,-0.2451 0.2037412,-0.4437 0.4552936,-0.4437 z"
       style="fill:#ac39ac;fill-opacity:1;stroke-width:0.98260933" />
    <path
       inkscape:connector-curvature="0"
       sodipodi:nodetypes="ccccscsc"
       id="path5541"
       d="m 3.7606908,1051.3601 c -0.9140652,-1.2415 -0.7333521,0.02 -0.3314374,-0.8641 l 2.1513482,-1.5983 c 4.8492954,-1.2573 -1.7668628,1.3765 1.4813436,0.7486 -0.026799,0.028 0.1177355,0.1967 0.3203578,0.3763 0.2026323,0.1797 0.3528666,0.4185 0.3310474,0.5285 -2.2426547,1.1968 0.2733796,2.9335 -1.7894919,2.8042 -1.0098816,-0.063 -2.6406695,-1.8721 -2.1631677,-1.9952 z"
       style="fill:#ac39ac;fill-opacity:1;stroke-width:0.98260933" />
  </g>
</svg>
