<?xml version="1.0" encoding="UTF-8" standalone="no"?>
<!-- Created with Inkscape (http://www.inkscape.org/) -->

<svg
   xmlns:dc="http://purl.org/dc/elements/1.1/"
   xmlns:cc="http://creativecommons.org/ns#"
   xmlns:rdf="http://www.w3.org/1999/02/22-rdf-syntax-ns#"
   xmlns:svg="http://www.w3.org/2000/svg"
   xmlns="http://www.w3.org/2000/svg"
   xmlns:xlink="http://www.w3.org/1999/xlink"
   xmlns:sodipodi="http://sodipodi.sourceforge.net/DTD/sodipodi-0.dtd"
   xmlns:inkscape="http://www.inkscape.org/namespaces/inkscape"
   width="24"
   height="24"
   viewBox="0 0 24 24"
   id="svg2"
   version="1.1"
   inkscape:version="0.92.3 (2405546, 2018-03-11)"
   sodipodi:docname="Gnome-emblem-web24.svg">
  <defs
     id="defs4">
    <radialGradient
       r="10.625"
       fy="4.625"
       fx="62.625"
       cy="4.625"
       cx="62.625"
       gradientTransform="matrix(1.074936,0,0,0.43733038,-55.896672,2.6239411)"
       gradientUnits="userSpaceOnUse"
       id="radialGradient9169"
       xlink:href="#linearGradient8838"
       inkscape:collect="always" />
    <linearGradient
       id="linearGradient8838"
       inkscape:collect="always">
      <stop
         id="stop8840"
         offset="0"
         style="stop-color:#000000;stop-opacity:1;" />
      <stop
         id="stop8842"
         offset="1"
         style="stop-color:#000000;stop-opacity:0;" />
    </linearGradient>
    <radialGradient
       r="10.625"
       fy="4.625"
       fx="62.625"
       cy="4.625"
       cx="62.625"
       gradientTransform="matrix(1.074936,0,0,0.43733038,-55.696672,1046.0929)"
       gradientUnits="userSpaceOnUse"
       id="radialGradient9169-2"
       xlink:href="#linearGradient8838"
       inkscape:collect="always" />
    <radialGradient
       r="9.7552834"
       fy="-8.7256308"
       fx="62.200352"
       cy="-8.7256308"
       cx="62.200352"
       gradientTransform="matrix(1.2185233,0,0,1.2185505,-63.992769,1045.941)"
       gradientUnits="userSpaceOnUse"
       id="radialGradient9171"
       xlink:href="#linearGradient8647"
       inkscape:collect="always" />
    <linearGradient
       id="linearGradient8647">
      <stop
         id="stop8649"
         offset="0"
         style="stop-color:#8fb1dc;stop-opacity:1;" />
      <stop
         id="stop8651"
         offset="1"
         style="stop-color:#3465a4;stop-opacity:1;" />
    </linearGradient>
    <radialGradient
       r="2.9719501"
       fy="17.573889"
       fx="24.478539"
       cy="17.573915"
       cx="24.478569"
       gradientTransform="matrix(0.222034,8.004376,-0.597156,0.01656095,29.5454,-182.3268)"
       gradientUnits="userSpaceOnUse"
       id="radialGradient9197"
       xlink:href="#linearGradient8924"
       inkscape:collect="always" />
    <linearGradient
       id="linearGradient8924">
      <stop
         style="stop-color:#cee14b"
         offset="0"
         id="stop8926" />
      <stop
         style="stop-color:#9db029"
         offset="1"
         id="stop8928" />
    </linearGradient>
    <radialGradient
       r="2.9719501"
       fy="17.573889"
       fx="24.478539"
       cy="17.573915"
       cx="24.478569"
       gradientTransform="matrix(0.222034,8.004376,-0.597156,0.01656095,29.85665,-181.6002)"
       gradientUnits="userSpaceOnUse"
       id="radialGradient9199"
       xlink:href="#linearGradient8924"
       inkscape:collect="always" />
    <radialGradient
       r="10.081216"
       fy="-3.4420195"
       fx="62.225391"
       cy="-3.4420195"
       cx="62.225391"
       gradientTransform="matrix(1,0,0,0.930233,0,-0.240141)"
       gradientUnits="userSpaceOnUse"
       id="radialGradient8782"
       xlink:href="#linearGradient4873"
       inkscape:collect="always" />
    <linearGradient
       inkscape:collect="always"
       id="linearGradient4873">
      <stop
         style="stop-color:#ffffff;stop-opacity:1;"
         offset="0"
         id="stop4875" />
      <stop
         style="stop-color:#ffffff;stop-opacity:0;"
         offset="1"
         id="stop4877" />
    </linearGradient>
    <radialGradient
       r="10.081216"
       fy="-3.4420195"
       fx="62.225391"
       cy="-3.4420195"
       cx="62.225391"
       gradientTransform="matrix(1,0,0,0.930233,0,0.79739)"
       gradientUnits="userSpaceOnUse"
       id="radialGradient9181"
       xlink:href="#linearGradient4873"
       inkscape:collect="always" />
    <radialGradient
       r="10.081216"
       fy="-3.4420195"
       fx="62.225391"
       cy="-3.4420195"
       cx="62.225391"
       gradientTransform="matrix(1,0,0,0.930233,0,-0.240141)"
       gradientUnits="userSpaceOnUse"
       id="radialGradient8788"
       xlink:href="#linearGradient4873"
       inkscape:collect="always" />
    <radialGradient
       r="10.081216"
       fy="-3.4420195"
       fx="62.225391"
       cy="-3.4420195"
       cx="62.225391"
       gradientTransform="matrix(1,0,0,0.930233,0,-0.240141)"
       gradientUnits="userSpaceOnUse"
       id="radialGradient9183"
       xlink:href="#linearGradient4873"
       inkscape:collect="always" />
    <radialGradient
       r="10.081216"
       fy="-3.4420195"
       fx="62.225391"
       cy="-3.4420195"
       cx="62.225391"
       gradientTransform="matrix(1,0,0,0.930233,0,-0.240141)"
       gradientUnits="userSpaceOnUse"
       id="radialGradient8774"
       xlink:href="#linearGradient4873"
       inkscape:collect="always" />
    <radialGradient
       r="10.081216"
       fy="-3.4420195"
       fx="62.225391"
       cy="-3.4420195"
       cx="62.225391"
       gradientTransform="matrix(1,0,0,0.930233,0,-0.240141)"
       gradientUnits="userSpaceOnUse"
       id="radialGradient9179"
       xlink:href="#linearGradient4873"
       inkscape:collect="always" />
  </defs>
  <sodipodi:namedview
     id="base"
     pagecolor="#ffffff"
     bordercolor="#666666"
     borderopacity="1.0"
     inkscape:pageopacity="0.0"
     inkscape:pageshadow="2"
     inkscape:zoom="27.75051"
     inkscape:cx="7.5155608"
     inkscape:cy="11.880357"
     inkscape:document-units="px"
     inkscape:current-layer="layer1"
     showgrid="true"
     units="px"
     inkscape:window-width="1680"
     inkscape:window-height="987"
     inkscape:window-x="-8"
     inkscape:window-y="-8"
     inkscape:window-maximized="1"
     viewbox-height="16">
    <inkscape:grid
       type="xygrid"
       id="grid4136"
       originx="0"
       originy="0"
       spacingx="1"
       spacingy="1" />
  </sodipodi:namedview>
  <metadata
     id="metadata7">
    <rdf:RDF>
      <cc:Work
         rdf:about="">
        <dc:format>image/svg+xml</dc:format>
        <dc:type
           rdf:resource="http://purl.org/dc/dcmitype/StillImage" />
        <dc:title></dc:title>
        <cc:license
           rdf:resource="http://creativecommons.org/publicdomain/zero/1.0/" />
      </cc:Work>
      <cc:License
         rdf:about="http://creativecommons.org/publicdomain/zero/1.0/">
        <cc:permits
           rdf:resource="http://creativecommons.org/ns#Reproduction" />
        <cc:permits
           rdf:resource="http://creativecommons.org/ns#Distribution" />
        <cc:permits
           rdf:resource="http://creativecommons.org/ns#DerivativeWorks" />
      </cc:License>
    </rdf:RDF>
  </metadata>
  <g
     inkscape:label="Layer 1"
     inkscape:groupmode="layer"
     id="layer1"
     transform="translate(0,-1029.3622)">
    <ellipse
       style="color:#000000;display:inline;overflow:visible;visibility:visible;opacity:0.56043958;fill:url(#radialGradient9169);fill-opacity:1;fill-rule:evenodd;stroke:none;stroke-width:1.17383444;stroke-linecap:butt;stroke-linejoin:round;stroke-miterlimit:4;stroke-dasharray:none;stroke-dashoffset:0;stroke-opacity:1;marker:none;marker-start:none;marker-mid:none;marker-end:none"
       id="path8836"
       cx="11.421195"
       cy="4.6466417"
       rx="11.421195"
       ry="4.6466417" />
    <ellipse
       style="color:#000000;display:inline;overflow:visible;visibility:visible;opacity:0.56043958;fill:url(#radialGradient9169-2);fill-opacity:1;fill-rule:evenodd;stroke:none;stroke-width:1.17383444;stroke-linecap:butt;stroke-linejoin:round;stroke-miterlimit:4;stroke-dasharray:none;stroke-dashoffset:0;stroke-opacity:1;marker:none;marker-start:none;marker-mid:none;marker-end:none"
       id="path8836-3"
       cx="11.621195"
       cy="1048.1156"
       rx="11.421195"
       ry="4.6466417" />
    <path
       style="fill:url(#radialGradient9171);fill-opacity:1;fill-rule:nonzero;stroke:#204a87;stroke-width:0.80800003;stroke-miterlimit:4;stroke-dasharray:none"
       d="m 21.848148,1040.9698 c 0,5.5498 -4.49912,10.0489 -10.0482,10.0489 -5.5495865,0 -10.0484516,-4.4991 -10.0484516,-10.0489 0,-5.5495 4.4988651,-10.0482 10.0484516,-10.0482 5.54908,0 10.0482,4.4987 10.0482,10.0482 z"
       id="path6495"
       inkscape:connector-curvature="0" />
    <path
       id="path8655"
       d="m 21.200734,1040.9698 c 0,5.1923 -4.209215,9.4014 -9.400735,9.4014 -5.1919946,0 -9.4009721,-4.2092 -9.4009721,-9.4014 0,-5.192 4.2089775,-9.4007 9.4009721,-9.4007 5.19152,0 9.400735,4.2087 9.400735,9.4007 z"
       style="opacity:0.52747258;fill:none;fill-opacity:1;fill-rule:nonzero;stroke:#ffffff;stroke-width:0.5000003;stroke-miterlimit:4;stroke-dasharray:none;stroke-opacity:0.41806722"
       inkscape:connector-curvature="0" />
    <g
       transform="matrix(0.50403104,0,0,0.50403104,-1.180131,1029.1734)"
       style="opacity:1;vector-effect:none;fill:#a2b726;fill-opacity:1;fill-rule:nonzero;stroke:none;stroke-width:1;stroke-linecap:butt;stroke-linejoin:miter;stroke-miterlimit:4;stroke-dasharray:none;stroke-dashoffset:0;stroke-opacity:1"
       id="g6626">
      <path
         d="m 42.893123,20.729176 c 0,0.241194 0,0 0,0 l -0.500291,0.566672 c -0.306657,-0.361377 -0.650957,-0.66528 -1.000583,-0.982679 L 40.624781,20.4261 39.923602,19.633475 v 0.980934 l 0.600735,0.454568 0.399848,0.452824 0.534354,-0.604316 c 0.134506,0.251936 0.267177,0.503872 0.400765,0.755808 v 0.754982 l -0.601653,0.679602 -1.101026,0.755808 -0.83385,0.832105 -0.534354,-0.606152 0.267177,-0.679603 -0.533527,-0.604315 -0.901057,-1.92597 -0.767468,-0.867912 -0.200888,0.225953 0.30124,1.095701 0.566672,0.641959 c 0.323642,0.934293 0.643796,1.82727 1.0688,2.720339 0.659036,0 1.280338,-0.06996 1.934875,-0.15241 v 0.529029 l -0.800704,1.964072 -0.734324,0.830269 -0.600735,1.285754 c 0,0.70476 0,1.40952 0,2.114188 l 0.200888,0.832105 -0.333558,0.376618 -0.735242,0.45365 -0.767468,0.641959 0.634798,0.717338 -0.867912,0.756727 0.166733,0.489549 -1.301914,1.474064 h -0.866994 l -0.734324,0.45365 h -0.468064 v -0.604316 l -0.199052,-1.210468 c -0.258271,-0.758562 -0.527192,-1.511708 -0.800705,-2.264853 0,-0.55593 0.03314,-1.106443 0.06638,-1.662282 L 32.716525,30.965452 32.24846,30.05806 32.28252,28.811785 31.647722,28.094447 31.965121,27.056129 31.44867,26.470176 H 30.5467 l -0.300322,-0.339801 -0.901057,0.567131 -0.366702,-0.416466 -0.834768,0.717706 C 27.577179,26.356327 27.009588,25.714368 26.44209,25.072409 l -0.667116,-1.586995 0.600735,-0.905555 -0.333558,-0.377445 0.733405,-1.738579 c 0.602571,-0.749564 1.231952,-1.468647 1.868586,-2.190392 l 1.135089,-0.302158 1.267852,-0.150666 0.867912,0.226871 1.234615,1.245357 0.434001,-0.490467 0.599817,-0.07529 1.135089,0.377445 h 0.867913 l 0.600735,-0.529029 0.267177,-0.377445 -0.601654,-0.377445 -1.0015,-0.07529 c -0.277919,-0.385524 -0.53619,-0.790789 -0.866168,-1.133344 l -0.334476,0.150665 -0.133589,0.982679 -0.600735,-0.679603 -0.13267,-0.756726 -0.667116,-0.527192 h -0.268095 l 0.667942,0.754981 -0.267177,0.679603 -0.533527,0.150666 0.333558,-0.679603 -0.601654,-0.30124 -0.532609,-0.604315 -1.002419,0.225952 -0.13267,0.30124 -0.600735,0.378363 -0.333558,0.831187 -0.83385,0.415088 -0.36762,-0.415088 h -0.399848 v -1.360124 l 0.867912,-0.45365 H 29.3792 l -0.134506,-0.52811 -0.53261,-0.529029 0.900231,-0.189228 0.500291,-0.565754 0.399847,-0.680521 h 0.735242 l -0.200888,-0.52811 0.468065,-0.302158 v 0.604315 l 1.000582,0.225953 1.000583,-0.830268 0.06721,-0.378363 0.866994,-0.603857 c -0.313818,0.03902 -0.627636,0.06767 -0.934293,0.151125 v -0.680429 l 0.333558,-0.755441 h -0.333558 l -0.733038,0.679603 -0.200888,0.377904 0.200888,0.529488 -0.334476,0.905555 -0.533528,-0.302158 -0.466229,-0.52811 -0.735241,0.52811 -0.267177,-1.208172 1.267851,-0.830728 V 9.8128376 l 0.801531,-0.5285696 1.267851,-0.302617 0.867912,0.302617 1.601318,0.3021579 -0.399848,0.4528241 h -0.867912 l 0.867912,0.906474 0.667117,-0.754982 0.202632,-0.3321814 c 0,0 2.558931,2.2934994 4.021335,4.8023004 1.462404,2.509628 2.149168,5.46758 2.149168,6.068315 z"
         id="path6628"
         style="vector-effect:none;fill:#a2b726;fill-opacity:1;stroke:none;stroke-width:1;stroke-linecap:butt;stroke-linejoin:miter;stroke-miterlimit:4;stroke-dasharray:none;stroke-dashoffset:0;stroke-opacity:1"
         inkscape:connector-curvature="0" />
    </g>
    <g
       transform="matrix(0.50403104,0,0,0.50403104,-0.5150569,1029.0309)"
       style="fill:#a2b726;fill-opacity:1;fill-rule:nonzero;stroke:none;stroke-miterlimit:4"
       id="g6564">
      <path
         d="m 17.943241,27.768799 -0.518573,-1.02672 -0.971477,-0.219726 -0.518127,-1.392215 -1.295183,0.146216 -1.100764,-0.805748 -1.166432,1.025918 v 0.161809 C 12.019842,25.55649 11.586095,25.54259 11.271922,25.349417 l -0.259287,-0.732684 v -0.806638 l -0.777056,0.07306 c 0.06487,-0.513404 0.129197,-1.025918 0.194509,-1.539233 H 9.9762924 L 9.523388,22.930393 9.0695925,23.149672 8.4217333,22.784177 8.3568672,21.977538 8.4865103,21.097836 9.4584328,20.365152 H 10.23549 l 0.129197,-0.440252 0.971477,0.219279 0.712636,0.880593 0.129643,-1.467061 1.230764,-1.025918 0.45335,-1.099872 0.906699,-0.366298 0.518127,-0.732684 1.165541,-0.220973 0.583439,-0.878811 c -0.582993,0 -1.165987,0 -1.74898,0 l 1.10112,-0.513404 h 0.776612 l 1.101565,-0.367189 0.129643,-0.438559 -0.388929,-0.367188 -0.45335,-0.147018 0.129643,-0.43945 -0.323707,-0.659532 -0.777502,0.292343 0.129643,-0.586022 -0.9067,-0.513405 -0.71219,1.245554 0.06442,0.440252 -0.71219,0.294125 -0.453796,0.952766 -0.194064,-0.879702 -1.230763,-0.513405 -0.194509,-0.659531 1.619336,-0.953657 0.712636,-0.659532 0.06487,-0.8061926 -0.388483,-0.2201702 -0.518127,-0.073509 -0.323707,0.8066378 c 0,0 -0.54165,0.106121 -0.680916,0.140514 -1.778561,1.638938 -5.3722151,5.176904 -6.207099,11.856064 0.033057,0.154859 0.6051795,1.052827 0.6051795,1.052827 l 1.3600498,0.805747 1.3600499,0.367189 0.5834388,0.733486 0.906254,0.659531 0.518127,-0.07306 0.388484,0.174907 v 0.118327 l -0.517771,1.392661 -0.388929,0.586468 0.129643,0.294125 -0.323707,1.098091 1.165987,2.126592 1.16554,1.02672 0.518573,0.732684 -0.06522,1.540125 0.38893,0.878811 -0.38893,1.686341 c 0,0 -0.03047,-0.01043 0.01916,0.158334 0.05007,0.168847 2.07527,1.293045 2.204022,1.19735 0.128307,-0.09748 0.237991,-0.182748 0.237991,-0.182748 l -0.129198,-0.365496 0.517771,-0.513404 0.194509,-0.513405 0.84228,-0.294125 0.647413,-1.613188 -0.194063,-0.438559 0.452458,-0.659532 0.971923,-0.220972 0.518572,-1.172936 -0.129643,-1.465279 0.777057,-1.099873 0.129643,-1.099873 c -1.063341,-0.527304 -2.11795,-1.07029 -3.17336,-1.613188"
         id="path6566"
         style="fill:#a2b726;fill-opacity:1;stroke:none"
         inkscape:connector-curvature="0" />
    </g>
    <g
       transform="matrix(0.50403104,0,0,0.50403104,-0.7525855,1029.2209)"
       style="fill:#a2b726;fill-opacity:1;fill-rule:nonzero;stroke:none;stroke-miterlimit:4"
       id="g6540">
      <path
         d="m 26.8701,6.6933256 -1.8906,-0.7407 -2.1797,0.2466 -2.6904,0.7402 -0.5088,0.4941 1.6719,1.1514 v 0.6582 l -0.6543,0.6582 0.873,1.7289984 0.5801,-0.3301 0.7285,-1.151399 c 1.123,-0.3471994 2.1299,-0.7406994 3.1973,-1.2343994 l 0.873,-2.2212"
         id="path6542"
         style="fill:#a2b726;fill-opacity:1;stroke:none"
         inkscape:connector-curvature="0" />
    </g>
    <g
       transform="matrix(0.50403104,0,0,0.50403104,-0.42004326,1028.8883)"
       style="fill:url(#radialGradient9197);fill-opacity:1;fill-rule:nonzero;stroke:none;stroke-miterlimit:4"
       id="g6580">
      <path
         d="m 15.187259,9.6334723 -0.3638,0.9047987 h 0.7271 l 0.3638,-0.8227987 c 0.3135,-0.2217 0.6255,-0.4448 0.9448,-0.6582 l 0.7271,0.2471 c 0.4844,0.3291 0.9688,0.6582 1.4536,0.9867997 l 0.7275,-0.6576997 -0.8003,-0.3291 -0.3638,-0.7407 -1.3809,-0.1646 -0.0728,-0.4116 -0.6543,0.165 -0.2904,0.5758 -0.3638,-0.7407 -0.145,0.3291 0.0728,0.8228 -0.5816,0.494"
         id="path6582"
         style="fill:url(#radialGradient9199);fill-opacity:1;stroke:none"
         inkscape:connector-curvature="0" />
    </g>
    <g
       transform="matrix(0.50403104,0,0,0.50403104,-0.27752822,1029.1259)"
       style="fill:#9db029;fill-rule:nonzero;stroke:url(#radialGradient8782);stroke-miterlimit:4"
       id="g6608">
      <path
         d="m 17.4922,7.887132 0.3638,-0.3286 0.7271,-0.1646 c 0.498,-0.2422 0.998,-0.4053 1.5264,-0.5762 l -0.29,-0.4937 -0.9385,0.1348 -0.4434,0.4419 -0.731,0.106 -0.6499,0.3052 -0.3159,0.1528 -0.1929,0.2583 0.9443,0.1641"
         id="path6610"
         style="fill:#9db029;stroke:url(#radialGradient9181)"
         inkscape:connector-curvature="0" />
    </g>
    <g
       transform="matrix(0.50403104,0,0,0.50403104,-0.89510053,1029.0784)"
       style="fill:#9db029;fill-rule:nonzero;stroke:none;stroke-miterlimit:4"
       id="g6532">
      <path
         d="m 26.0703,9.2363 -0.0732,0.4932 0.5098,0.3291 0.8711,-0.5757 -0.4355,-0.4937 -0.582,0.3296 -0.29,-0.0825"
         id="path6534"
         style="fill:#9db029;stroke:none"
         inkscape:connector-curvature="0" />
    </g>
    <g
       transform="matrix(0.50403104,0,0,0.50403104,-1.3701577,1029.0784)"
       style="fill:#a2b726;fill-opacity:1;fill-rule:nonzero;stroke:none;stroke-miterlimit:4"
       id="g6556">
      <path
         d="m 29.123,12.6089 -0.1455,0.9883 0.7998,-0.165 0.5811,-0.5752 -0.5088,-0.4941 C 29.6787,11.9078 29.4824,11.483 29.2685,11.0465 H 28.833 v 0.4932 l 0.29,0.3291 v 0.7402"
         id="path6558"
         style="fill:#a2b726;fill-opacity:1;stroke:none"
         inkscape:connector-curvature="0" />
    </g>
    <g
       transform="matrix(0.50403104,0,0,0.50403104,-0.89510053,1029.0784)"
       style="fill:#9db029;fill-rule:nonzero;stroke:url(#radialGradient8774);stroke-miterlimit:4"
       id="g6572">
      <path
         d="m 16.7656,9.5649 0.7266,0.4937 h 0.582 V 9.4829 l -0.7266,-0.3291 -0.582,0.4111"
         id="path6574"
         style="fill:#9db029;stroke:url(#radialGradient9179)"
         inkscape:connector-curvature="0" />
    </g>
    <g
       transform="matrix(0.50403104,0,0,0.50403104,-0.70509483,1029.3634)"
       style="fill:#9db029;fill-rule:nonzero;stroke:url(#radialGradient8788);stroke-miterlimit:4"
       id="g6616">
      <path
         d="m 18.7285,14.6665 0.4365,-0.6582 -0.6548,-0.4932 0.2183,1.1514"
         id="path6618"
         style="fill:#9db029;stroke:url(#radialGradient9183)"
         inkscape:connector-curvature="0" />
    </g>
    <g
       transform="matrix(0.50403104,0,0,0.50403104,-1.5601849,1029.0784)"
       style="fill:#a2b726;fill-opacity:1;fill-rule:nonzero;stroke:none;stroke-miterlimit:4"
       id="g6548">
      <path
         d="m 28.833,12.7749 -0.291,-0.7412 -0.5098,0.165 0.1465,0.9043 0.6543,-0.3281"
         id="path6550"
         style="fill:#a2b726;fill-opacity:1;stroke:none"
         inkscape:connector-curvature="0" />
    </g>
  </g>
</svg>
