<?xml version="1.0" encoding="UTF-8" standalone="no"?>
<!-- Created with Inkscape (http://www.inkscape.org/) -->
<svg
   xmlns:dc="http://purl.org/dc/elements/1.1/"
   xmlns:cc="http://web.resource.org/cc/"
   xmlns:rdf="http://www.w3.org/1999/02/22-rdf-syntax-ns#"
   xmlns:svg="http://www.w3.org/2000/svg"
   xmlns="http://www.w3.org/2000/svg"
   xmlns:xlink="http://www.w3.org/1999/xlink"
   xmlns:sodipodi="http://sodipodi.sourceforge.net/DTD/sodipodi-0.dtd"
   xmlns:inkscape="http://www.inkscape.org/namespaces/inkscape"
   width="48.000000px"
   height="48.000000px"
   id="svg3304"
   sodipodi:version="0.32"
   inkscape:version="0.45"
   sodipodi:docbase="/home/dobey/Projects/gnome-icon-theme/scalable/apps"
   sodipodi:docname="preferences-desktop-wallpaper.svg"
   inkscape:output_extension="org.inkscape.output.svg.inkscape">
  <defs
     id="defs3306">
    <linearGradient
       id="linearGradient3186">
      <stop
         style="stop-color:#555753;stop-opacity:1"
         offset="0"
         id="stop3188" />
      <stop
         style="stop-color:#888a85;stop-opacity:1"
         offset="1"
         id="stop3190" />
    </linearGradient>
    <linearGradient
       id="linearGradient3178">
      <stop
         style="stop-color:#babdb6;stop-opacity:1"
         offset="0"
         id="stop3180" />
      <stop
         style="stop-color:#d3d7cf;stop-opacity:1"
         offset="1"
         id="stop3182" />
    </linearGradient>
    <linearGradient
       id="linearGradient3170"
       inkscape:collect="always">
      <stop
         id="stop3172"
         offset="0"
         style="stop-color:#2e3436;stop-opacity:1" />
      <stop
         id="stop3174"
         offset="1"
         style="stop-color:#888a85;stop-opacity:1" />
    </linearGradient>
    <linearGradient
       inkscape:collect="always"
       id="linearGradient3096">
      <stop
         style="stop-color:white;stop-opacity:1;"
         offset="0"
         id="stop3098" />
      <stop
         style="stop-color:white;stop-opacity:0;"
         offset="1"
         id="stop3100" />
    </linearGradient>
    <linearGradient
       id="linearGradient3080">
      <stop
         style="stop-color:#a40000;stop-opacity:1"
         offset="0"
         id="stop3082" />
      <stop
         style="stop-color:#ef2929;stop-opacity:1"
         offset="1"
         id="stop3084" />
    </linearGradient>
    <linearGradient
       inkscape:collect="always"
       id="linearGradient3014">
      <stop
         style="stop-color:white;stop-opacity:1;"
         offset="0"
         id="stop3016" />
      <stop
         style="stop-color:white;stop-opacity:0;"
         offset="1"
         id="stop3018" />
    </linearGradient>
    <linearGradient
       id="linearGradient2986">
      <stop
         style="stop-color:#babdb6;stop-opacity:1"
         offset="0"
         id="stop2988" />
      <stop
         id="stop2994"
         offset="0.3493976"
         style="stop-color:#eeeeec;stop-opacity:1;" />
      <stop
         style="stop-color:#888a85;stop-opacity:1"
         offset="1"
         id="stop2990" />
    </linearGradient>
    <linearGradient
       id="linearGradient2976">
      <stop
         style="stop-color:black;stop-opacity:1;"
         offset="0"
         id="stop2978" />
      <stop
         id="stop2984"
         offset="0.66265059"
         style="stop-color:#565855;stop-opacity:1;" />
      <stop
         style="stop-color:#2e3436;stop-opacity:1"
         offset="1"
         id="stop2980" />
    </linearGradient>
    <linearGradient
       inkscape:collect="always"
       id="linearGradient2951">
      <stop
         style="stop-color:white;stop-opacity:1;"
         offset="0"
         id="stop2953" />
      <stop
         style="stop-color:white;stop-opacity:0;"
         offset="1"
         id="stop2955" />
    </linearGradient>
    <linearGradient
       inkscape:collect="always"
       id="linearGradient2931">
      <stop
         style="stop-color:white;stop-opacity:1;"
         offset="0"
         id="stop2933" />
      <stop
         style="stop-color:white;stop-opacity:0;"
         offset="1"
         id="stop2935" />
    </linearGradient>
    <linearGradient
       id="linearGradient2915">
      <stop
         style="stop-color:#e9b96e;stop-opacity:1;"
         offset="0"
         id="stop2917" />
      <stop
         style="stop-color:#c17d11;stop-opacity:1"
         offset="1"
         id="stop2919" />
    </linearGradient>
    <linearGradient
       id="linearGradient2907">
      <stop
         style="stop-color:#c17d11;stop-opacity:1"
         offset="0"
         id="stop2909" />
      <stop
         style="stop-color:#e9b96e;stop-opacity:1;"
         offset="1"
         id="stop2911" />
    </linearGradient>
    <linearGradient
       id="linearGradient2899">
      <stop
         style="stop-color:#8f5902;stop-opacity:1;"
         offset="0"
         id="stop2901" />
      <stop
         style="stop-color:#633d00;stop-opacity:1;"
         offset="1"
         id="stop2903" />
    </linearGradient>
    <linearGradient
       id="linearGradient2875">
      <stop
         style="stop-color:#ef2929;stop-opacity:1;"
         offset="0"
         id="stop2877" />
      <stop
         style="stop-color:#c00;stop-opacity:1"
         offset="1"
         id="stop2879" />
    </linearGradient>
    <linearGradient
       id="linearGradient2872">
      <stop
         style="stop-color:black;stop-opacity:1;"
         offset="0"
         id="stop2874" />
      <stop
         style="stop-color:#d42828;stop-opacity:1;"
         offset="1"
         id="stop2876" />
    </linearGradient>
    <linearGradient
       inkscape:collect="always"
       id="linearGradient2848">
      <stop
         style="stop-color:black;stop-opacity:1;"
         offset="0"
         id="stop2850" />
      <stop
         style="stop-color:black;stop-opacity:0;"
         offset="1"
         id="stop2852" />
    </linearGradient>
    <linearGradient
       inkscape:collect="always"
       id="linearGradient7099">
      <stop
         style="stop-color:#495356;stop-opacity:1"
         offset="0"
         id="stop7101" />
      <stop
         style="stop-color:#1e2224;stop-opacity:1"
         offset="1"
         id="stop7103" />
    </linearGradient>
    <linearGradient
       id="linearGradient5233">
      <stop
         style="stop-color:#888a85;stop-opacity:1"
         offset="0"
         id="stop5235" />
      <stop
         style="stop-color:#888a85;stop-opacity:1"
         offset="1"
         id="stop5237" />
    </linearGradient>
    <linearGradient
       inkscape:collect="always"
       id="linearGradient5225">
      <stop
         style="stop-color:black;stop-opacity:1;"
         offset="0"
         id="stop5227" />
      <stop
         style="stop-color:black;stop-opacity:0;"
         offset="1"
         id="stop5229" />
    </linearGradient>
    <linearGradient
       id="linearGradient5137">
      <stop
         style="stop-color:#eeeeec;stop-opacity:1;"
         offset="0"
         id="stop5139" />
      <stop
         style="stop-color:#e6e6e3;stop-opacity:1;"
         offset="1"
         id="stop5141" />
    </linearGradient>
    <linearGradient
       inkscape:collect="always"
       id="linearGradient6240">
      <stop
         style="stop-color:#ffffff;stop-opacity:1;"
         offset="0"
         id="stop6242" />
      <stop
         style="stop-color:#ffffff;stop-opacity:0;"
         offset="1"
         id="stop6244" />
    </linearGradient>
    <linearGradient
       id="linearGradient11400">
      <stop
         style="stop-color:#000000;stop-opacity:1;"
         offset="0"
         id="stop11402" />
      <stop
         style="stop-color:#000000;stop-opacity:0;"
         offset="1"
         id="stop11404" />
    </linearGradient>
    <linearGradient
       inkscape:collect="always"
       xlink:href="#linearGradient11400"
       id="linearGradient11406"
       x1="23.154902"
       y1="34.572548"
       x2="23.529411"
       y2="40.219608"
       gradientUnits="userSpaceOnUse"
       gradientTransform="matrix(1,0,0,1.004717,1,-3.193457)" />
    <linearGradient
       inkscape:collect="always"
       xlink:href="#linearGradient6240"
       id="linearGradient6246"
       x1="20.156862"
       y1="5.0996137"
       x2="20.156862"
       y2="26.039215"
       gradientUnits="userSpaceOnUse"
       gradientTransform="translate(1,-3)" />
    <linearGradient
       inkscape:collect="always"
       xlink:href="#linearGradient5137"
       id="linearGradient5147"
       gradientUnits="userSpaceOnUse"
       x1="17.247635"
       y1="6.3760414"
       x2="39.904388"
       y2="38.876041"
       gradientTransform="translate(1,-3)" />
    <linearGradient
       inkscape:collect="always"
       xlink:href="#linearGradient5137"
       id="linearGradient5223"
       gradientUnits="userSpaceOnUse"
       x1="31.743324"
       y1="37.842293"
       x2="31.86105"
       y2="43.82579"
       gradientTransform="translate(1,-3)" />
    <radialGradient
       inkscape:collect="always"
       xlink:href="#linearGradient5225"
       id="radialGradient5231"
       cx="23.9375"
       cy="42.6875"
       fx="23.9375"
       fy="42.6875"
       r="23.75956"
       gradientTransform="matrix(1,0,0,0.24763,0,32.1168)"
       gradientUnits="userSpaceOnUse" />
    <radialGradient
       inkscape:collect="always"
       xlink:href="#linearGradient5233"
       id="radialGradient5239"
       cx="24.006104"
       cy="32.997028"
       fx="24.006104"
       fy="32.997028"
       r="19.00016"
       gradientTransform="matrix(1.232634,0,0,0.778392,-4.584638,-0.845623)"
       gradientUnits="userSpaceOnUse" />
    <linearGradient
       inkscape:collect="always"
       xlink:href="#linearGradient2875"
       id="linearGradient2881"
       x1="25.3125"
       y1="10.663662"
       x2="25.3125"
       y2="17.750229"
       gradientUnits="userSpaceOnUse" />
    <radialGradient
       inkscape:collect="always"
       xlink:href="#linearGradient5225"
       id="radialGradient3122"
       gradientUnits="userSpaceOnUse"
       gradientTransform="matrix(1,0,0,0.24763,0,32.1168)"
       cx="23.9375"
       cy="42.6875"
       fx="23.9375"
       fy="42.6875"
       r="23.75956" />
    <linearGradient
       inkscape:collect="always"
       xlink:href="#linearGradient2986"
       id="linearGradient3124"
       gradientUnits="userSpaceOnUse"
       gradientTransform="matrix(1.004118,0,0,1.023458,-47.19974,-10.87967)"
       x1="47.998986"
       y1="47.270311"
       x2="63.938482"
       y2="47.270311" />
    <linearGradient
       inkscape:collect="always"
       xlink:href="#linearGradient2976"
       id="linearGradient3126"
       gradientUnits="userSpaceOnUse"
       x1="62.960461"
       y1="31"
       x2="76.701622"
       y2="31" />
    <linearGradient
       inkscape:collect="always"
       xlink:href="#linearGradient3014"
       id="linearGradient3130"
       gradientUnits="userSpaceOnUse"
       gradientTransform="translate(-47,-10)"
       x1="47.520222"
       y1="53.989388"
       x2="51.531281"
       y2="40.391018" />
    <linearGradient
       inkscape:collect="always"
       xlink:href="#linearGradient3080"
       id="linearGradient3132"
       gradientUnits="userSpaceOnUse"
       gradientTransform="translate(-2,0)"
       x1="11.269515"
       y1="37.857437"
       x2="10.562407"
       y2="32.487843" />
    <linearGradient
       inkscape:collect="always"
       xlink:href="#linearGradient3096"
       id="linearGradient3134"
       gradientUnits="userSpaceOnUse"
       gradientTransform="translate(-2,0)"
       x1="11.296875"
       y1="37.5"
       x2="10.296875"
       y2="32.890625" />
    <radialGradient
       inkscape:collect="always"
       xlink:href="#linearGradient5225"
       id="radialGradient3146"
       gradientUnits="userSpaceOnUse"
       gradientTransform="matrix(1,0,0,0.24763,0,32.1168)"
       cx="23.9375"
       cy="42.6875"
       fx="23.9375"
       fy="42.6875"
       r="23.75956" />
    <linearGradient
       inkscape:collect="always"
       xlink:href="#linearGradient2915"
       id="linearGradient3148"
       gradientUnits="userSpaceOnUse"
       x1="27.65625"
       y1="40.4375"
       x2="32.469254"
       y2="40.4375"
       gradientTransform="translate(0,1)" />
    <linearGradient
       inkscape:collect="always"
       xlink:href="#linearGradient2899"
       id="linearGradient3150"
       gradientUnits="userSpaceOnUse"
       x1="32"
       y1="37.25"
       x2="32"
       y2="34.270741"
       gradientTransform="translate(0,1)" />
    <linearGradient
       inkscape:collect="always"
       xlink:href="#linearGradient7099"
       id="linearGradient3152"
       gradientUnits="userSpaceOnUse"
       x1="29.410439"
       y1="20.646769"
       x2="30.096174"
       y2="25.904074" />
    <linearGradient
       inkscape:collect="always"
       xlink:href="#linearGradient2872"
       id="linearGradient3154"
       gradientUnits="userSpaceOnUse"
       x1="27.510536"
       y1="25.361137"
       x2="28.028599"
       y2="20.057837" />
    <linearGradient
       inkscape:collect="always"
       xlink:href="#linearGradient2951"
       id="linearGradient3156"
       gradientUnits="userSpaceOnUse"
       x1="28.5"
       y1="44"
       x2="28"
       y2="30.375" />
    <linearGradient
       inkscape:collect="always"
       xlink:href="#linearGradient2907"
       id="linearGradient3158"
       gradientUnits="userSpaceOnUse"
       x1="28.747845"
       y1="28.779314"
       x2="28.747845"
       y2="32.069237"
       gradientTransform="translate(0,1)" />
    <linearGradient
       inkscape:collect="always"
       xlink:href="#linearGradient2848"
       id="linearGradient3160"
       gradientUnits="userSpaceOnUse"
       gradientTransform="matrix(-1,0,0,1,58.98437,1)"
       x1="29.258053"
       y1="33.980518"
       x2="29.150778"
       y2="35.607071" />
    <linearGradient
       inkscape:collect="always"
       xlink:href="#linearGradient2931"
       id="linearGradient3162"
       gradientUnits="userSpaceOnUse"
       x1="26.282013"
       y1="28"
       x2="26.229612"
       y2="34.544891" />
    <linearGradient
       inkscape:collect="always"
       xlink:href="#linearGradient3170"
       id="linearGradient3168"
       x1="5.3125"
       y1="26.99901"
       x2="5.625"
       y2="39"
       gradientUnits="userSpaceOnUse" />
    <linearGradient
       inkscape:collect="always"
       xlink:href="#linearGradient3178"
       id="linearGradient3184"
       x1="38.5"
       y1="26.71874"
       x2="26.499989"
       y2="23.999994"
       gradientUnits="userSpaceOnUse" />
    <linearGradient
       inkscape:collect="always"
       xlink:href="#linearGradient3186"
       id="linearGradient3192"
       x1="26.084017"
       y1="25.422512"
       x2="26.084017"
       y2="28.000019"
       gradientUnits="userSpaceOnUse" />
  </defs>
  <sodipodi:namedview
     id="base"
     pagecolor="#ffffff"
     bordercolor="#849193"
     borderopacity="1.0000000"
     inkscape:pageopacity="0.0"
     inkscape:pageshadow="2"
     inkscape:zoom="1"
     inkscape:cx="36.351043"
     inkscape:cy="29.458016"
     inkscape:current-layer="layer1"
     showgrid="false"
     inkscape:grid-bbox="true"
     inkscape:document-units="px"
     inkscape:showpageshadow="false"
     showborder="false"
     inkscape:window-width="866"
     inkscape:window-height="931"
     inkscape:window-x="392"
     inkscape:window-y="132"
     showguides="true"
     inkscape:guide-bbox="true"
     inkscape:grid-points="false"
     gridspacingx="0.5px"
     gridspacingy="0.5px"
     gridempspacing="2"
     inkscape:object-points="false"
     inkscape:object-paths="false" />
  <metadata
     id="metadata3309">
    <rdf:RDF>
      <cc:Work
         rdf:about="">
        <dc:format>image/svg+xml</dc:format>
        <dc:type
           rdf:resource="http://purl.org/dc/dcmitype/StillImage" />
        <dc:title>Desktop Wallpaper</dc:title>
        <dc:creator>
          <cc:Agent>
            <dc:title>Luca Ferretti &lt;elle.uca@libero.it&gt;</dc:title>
          </cc:Agent>
        </dc:creator>
        <cc:license
           rdf:resource="http://creativecommons.org/licenses/GPL/2.0/" />
        <dc:subject>
          <rdf:Bag>
            <rdf:li>monitor</rdf:li>
            <rdf:li>display</rdf:li>
            <rdf:li>video</rdf:li>
            <rdf:li>screen</rdf:li>
            <rdf:li>LCD</rdf:li>
            <rdf:li>CRT</rdf:li>
          </rdf:Bag>
        </dc:subject>
        <dc:contributor>
          <cc:Agent>
            <dc:title>Andreas Nilsson &lt;nisses.mail@home.se&gt;
Jakub Steiner &lt;jimmac@novell.cX</dc:title>
          </cc:Agent>
        </dc:contributor>
      </cc:Work>
      <cc:License
         rdf:about="http://creativecommons.org/licenses/GPL/2.0/">
        <cc:permits
           rdf:resource="http://web.resource.org/cc/Reproduction" />
        <cc:permits
           rdf:resource="http://web.resource.org/cc/Distribution" />
        <cc:requires
           rdf:resource="http://web.resource.org/cc/Notice" />
        <cc:permits
           rdf:resource="http://web.resource.org/cc/DerivativeWorks" />
        <cc:requires
           rdf:resource="http://web.resource.org/cc/ShareAlike" />
        <cc:requires
           rdf:resource="http://web.resource.org/cc/SourceCode" />
      </cc:License>
    </rdf:RDF>
  </metadata>
  <g
     id="layer1"
     inkscape:label="Layer 1"
     inkscape:groupmode="layer">
    <path
       style="fill:none;fill-opacity:0.75;fill-rule:evenodd;stroke:none;stroke-width:1px;stroke-linecap:butt;stroke-linejoin:miter;stroke-opacity:1"
       d="M 1,-1 L 49,-1 L 49,47 L 1,47 L 1,-1 z "
       id="rect4784" />
    <path
       transform="matrix(0.968245,0,0,1.006514,2.447631,-3.040111)"
       style="opacity:0.3;fill:url(#radialGradient5231);fill-opacity:1;fill-rule:evenodd;stroke:none;stroke-width:1px;stroke-linecap:butt;stroke-linejoin:miter;stroke-opacity:1"
       d="M 47.69706,42.6875 C 47.69706,45.935235 37.052777,48.571078 23.9375,48.571078 C 10.822223,48.571078 0.17794037,45.935235 0.17794037,42.6875 C 0.17794037,39.439765 10.822223,36.803922 23.9375,36.803922 C 37.052777,36.803922 47.69706,39.439765 47.69706,42.6875 z "
       id="path13582" />
    <path
       style="color:black;fill:url(#linearGradient5223);fill-opacity:1;fill-rule:evenodd;stroke:#888a85;stroke-width:1;stroke-linecap:butt;stroke-linejoin:miter;stroke-miterlimit:4;stroke-dashoffset:0;stroke-opacity:1;marker:none;marker-start:none;marker-mid:none;marker-end:none;visibility:visible;display:inline;overflow:visible"
       d="M 15.375479,32.533351 C 15.375479,32.533351 16.592355,37.467951 11.51915,37.514275 C 9.0888743,37.53618 9.5866723,41.549426 9.5866723,41.549426 L 40.433139,41.518053 C 40.433139,41.518053 40.851577,37.62269 38.410922,37.577021 C 33.423455,37.484882 34.600393,32.470606 34.600393,32.470606 L 15.375479,32.533351 z "
       id="path9222" />
    <path
       style="fill:url(#linearGradient5147);fill-opacity:1;fill-rule:evenodd;stroke:#888a85;stroke-width:1;stroke-linecap:butt;stroke-linejoin:miter;stroke-miterlimit:4;stroke-opacity:1"
       d="M 5.8886262,0.4784362 L 44.01746,0.4784362 C 46.042579,0.4784362 47.518438,1.9060907 47.518438,4.104577 L 47.529388,30.308416 C 47.529388,32.000483 47.001041,32.523645 45.494732,32.523645 L 4.5320635,32.50471 C 3.3527922,32.475917 2.513468,32.010049 2.4976345,30.485407 L 2.5128113,3.9168325 C 2.5128113,2.1430066 4.0522187,0.4784362 5.8886262,0.4784362 z "
       id="rect5040" />
    <path
       style="fill:url(#radialGradient5239);fill-opacity:1;fill-rule:evenodd;stroke:#555753;stroke-width:1px;stroke-linecap:butt;stroke-linejoin:miter;stroke-opacity:1"
       d="M 6.5059438,4.5018229 L 43.506264,4.5018229 L 43.506264,27.498514 L 6.5059438,27.498514 L 6.5059438,4.5018229 z "
       id="rect9208" />
    <path
       transform="matrix(0.993502,0,0,0.989691,0.140433,0.201029)"
       style="fill:none;fill-opacity:1;fill-rule:evenodd;stroke:white;stroke-width:1.00847661;stroke-linecap:butt;stroke-linejoin:miter;stroke-miterlimit:4;stroke-opacity:1"
       d="M 5.875,1.34375 C 4.5670572,1.34375 3.3750001,2.6383996 3.375,3.90625 L 3.375,30.5 C 3.3812651,31.103278 3.5206964,31.290591 3.65625,31.40625 C 3.7918036,31.521909 4.0781685,31.613174 4.5625,31.625 L 45.5,31.65625 C 46.151173,31.65625 46.356981,31.555231 46.4375,31.46875 C 46.518019,31.382269 46.65625,31.068048 46.65625,30.3125 L 46.65625,4.09375 C 46.65625,2.2865999 45.645463,1.34375 44.03125,1.34375 L 5.875,1.34375 z "
       id="path5145" />
    <path
       style="opacity:0.6;fill:url(#linearGradient11406);fill-opacity:1;fill-rule:evenodd;stroke:none;stroke-width:1px;stroke-linecap:butt;stroke-linejoin:miter;stroke-opacity:1"
       d="M 14.992156,33.01576 C 15.075817,35.198557 14.708803,35.940937 13.358532,36.708327 L 36.973934,38.011765 C 36.024915,36.837624 34.644523,35.064594 35.020993,33 L 14.992156,33.01576 z "
       id="path10672" />
    <path
       style="opacity:0.55;fill:url(#linearGradient6246);fill-opacity:1;fill-rule:evenodd;stroke:none;stroke-width:1px;stroke-linecap:butt;stroke-linejoin:miter;stroke-opacity:1"
       d="M 7.0235294,5.0313725 L 7.0235294,23.039216 C 23.467974,21.684967 29.622222,12.926797 42.992156,12.011764 L 42.992157,5 L 7.0235294,5.0313725 z "
       id="path4073" />
    <g
       id="g3051"
       transform="translate(3,-3)">
      <path
         sodipodi:nodetypes="ccccscccscccc"
         id="path5267"
         d="M 33,7.0625 L 13,7.0625 L 13.03125,19.094991 C 13.03125,20.089473 13.992033,20.080329 13.984375,19.023696 C 13.538907,11.780799 15.49838,12.749696 15.484375,9.1684603 C 15.482241,8.6870091 16,8.7150938 16,9.0514625 L 16,26.191639 C 16,27.18612 17,27.18612 17,26.191639 C 17.03125,20.261313 18.4375,23.624237 18.5,18.169978 C 18.506892,17.564924 18.875,17.742205 19,18.001794 L 23,23.968681 L 36,24.963162 C 36,16.012831 35,7.0625 33,7.0625 z "
         style="opacity:1;fill:url(#linearGradient2881);fill-opacity:1;fill-rule:evenodd;stroke:none;stroke-width:1px;stroke-linecap:butt;stroke-linejoin:miter;stroke-opacity:1" />
      <path
         id="path2865"
         d="M 13.5,7.5 L 33.5,7.5"
         style="fill:none;fill-rule:evenodd;stroke:#a40000;stroke-width:1px;stroke-linecap:round;stroke-linejoin:miter;stroke-opacity:1" />
      <rect
         ry="0.109375"
         rx="0.109375"
         y="8.4375"
         x="13.28125"
         height="9.875"
         width="0.21875"
         id="rect2867"
         style="opacity:0.3;fill:white;fill-opacity:1;stroke:none;stroke-width:1.00199997;stroke-linecap:round;stroke-linejoin:miter;stroke-miterlimit:4;stroke-dasharray:none;stroke-dashoffset:1.20000057;stroke-opacity:1" />
      <rect
         ry="0.109375"
         rx="0.109375"
         y="9"
         x="16.265625"
         height="16.5625"
         width="0.21875"
         id="rect2869"
         style="opacity:0.3;fill:white;fill-opacity:1;stroke:none;stroke-width:1.00199997;stroke-linecap:round;stroke-linejoin:miter;stroke-miterlimit:4;stroke-dasharray:none;stroke-dashoffset:1.20000057;stroke-opacity:1" />
      <path
         transform="translate(-0.125,-0.242188)"
         d="M 13.695312 19.007812 A 0.2265625 0.2421875 0 1 1  13.242188,19.007812 A 0.2265625 0.2421875 0 1 1  13.695312 19.007812 z"
         sodipodi:ry="0.2421875"
         sodipodi:rx="0.2265625"
         sodipodi:cy="19.007812"
         sodipodi:cx="13.46875"
         id="path2871"
         style="opacity:0.3;fill:white;fill-opacity:1;stroke:none;stroke-width:1.00199997;stroke-linecap:round;stroke-linejoin:miter;stroke-miterlimit:4;stroke-dasharray:none;stroke-dashoffset:1.20000057;stroke-opacity:1"
         sodipodi:type="arc" />
      <path
         transform="translate(2.859375,7.078124)"
         d="M 13.695312 19.007812 A 0.2265625 0.2421875 0 1 1  13.242188,19.007812 A 0.2265625 0.2421875 0 1 1  13.695312 19.007812 z"
         sodipodi:ry="0.2421875"
         sodipodi:rx="0.2265625"
         sodipodi:cy="19.007812"
         sodipodi:cx="13.46875"
         id="path2873"
         style="opacity:0.3;fill:white;fill-opacity:1;stroke:none;stroke-width:1.00199997;stroke-linecap:round;stroke-linejoin:miter;stroke-miterlimit:4;stroke-dasharray:none;stroke-dashoffset:1.20000057;stroke-opacity:1"
         sodipodi:type="arc" />
    </g>
    <path
       style="fill:none;fill-opacity:1;fill-rule:evenodd;stroke:#8d8d8f;stroke-width:1px;stroke-linecap:round;stroke-linejoin:miter;stroke-opacity:0.43902438"
       d="M 10.992126,38.496063 C 17.698819,38.498032 38.78891,38.496063 38.78891,38.496063"
       id="path6575" />
    <path
       style="fill:none;fill-opacity:1;fill-rule:evenodd;stroke:white;stroke-width:1px;stroke-linecap:round;stroke-linejoin:miter;stroke-opacity:1"
       d="M 10.647928,39.503937 C 17.354621,39.505906 39.367789,39.503937 39.367789,39.503937"
       id="path8029" />
    <g
       id="g3136"
       transform="translate(3,-3)">
      <path
         transform="matrix(0.230912,0,0,0.424911,23.95891,27.3616)"
         d="M 47.69706 42.6875 A 23.75956 5.8835783 0 1 1  0.17794037,42.6875 A 23.75956 5.8835783 0 1 1  47.69706 42.6875 z"
         sodipodi:ry="5.8835783"
         sodipodi:rx="23.75956"
         sodipodi:cy="42.6875"
         sodipodi:cx="23.9375"
         id="path11126"
         style="opacity:0.3;fill:url(#radialGradient3146);fill-opacity:1;fill-rule:evenodd;stroke:none;stroke-width:1px;stroke-linecap:butt;stroke-linejoin:miter;stroke-opacity:1"
         sodipodi:type="arc" />
      <path
         sodipodi:nodetypes="czzzcc"
         id="path5257"
         d="M 31.011062,32.499991 C 31.011062,32.499991 32.52857,40.253124 32.500001,42.424072 C 32.4719,44.559431 31.819658,46.437487 29.469382,46.437487 C 27.15003,46.437487 26.531536,44.704422 26.500612,42.424072 C 26.469691,40.144014 27.95765,32.562491 27.95765,32.562491 L 31.011062,32.499991 z "
         style="fill:url(#linearGradient3148);fill-opacity:1;fill-rule:evenodd;stroke:url(#linearGradient3150);stroke-width:0.99999982px;stroke-linecap:butt;stroke-linejoin:miter;stroke-opacity:1" />
      <path
         sodipodi:nodetypes="cccccccccc"
         id="path5265"
         d="M 22.5,27.5 C 22.458495,23.0625 20.416991,19.4375 20.5,19.5 C 21.994165,20.8125 23.986385,21 24.982495,23.4375 C 24.982495,23.5 26.974715,22 26.538916,20.4375 C 27.970825,21 28.157595,22.145833 28.966935,23 L 29.963045,20 L 32.450519,23 L 35.509438,20 C 35.509438,20 36.437744,24.9375 36.5,27.5 L 22.5,27.5 z "
         style="fill:url(#linearGradient3152);fill-opacity:1;fill-rule:evenodd;stroke:url(#linearGradient3154);stroke-width:1.00000012px;stroke-linecap:butt;stroke-linejoin:miter;stroke-opacity:1" />
      <path
         d="M 28.78125,32.53125 C 28.676459,33.071127 28.516065,34.062725 28.21875,35.8125 C 27.850299,37.980933 27.487719,40.531913 27.5,41.4375 C 27.514282,42.490626 27.68577,43.298803 27.96875,43.75 C 28.25173,44.201197 28.556434,44.437499 29.46875,44.4375 C 30.379201,44.4375 30.69847,44.198746 31,43.71875 C 31.30153,43.238754 31.487242,42.407035 31.5,41.4375 C 31.510987,40.602572 31.157352,38.011071 30.78125,35.8125 C 30.482124,34.063903 30.298448,33.104627 30.1875,32.53125 L 28.78125,32.53125 z "
         id="path2945"
         style="opacity:0.6;fill:none;fill-opacity:1;fill-rule:evenodd;stroke:url(#linearGradient3156);stroke-width:0.99999982px;stroke-linecap:butt;stroke-linejoin:miter;stroke-opacity:1"
         inkscape:original="M 31 31.5 L 27.96875 31.5625 C 27.96875 31.5625 26.469079 39.157442 26.5 41.4375 C 26.530924 43.71785 27.149399 45.437498 29.46875 45.4375 C 31.819026 45.4375 32.4719 43.572859 32.5 41.4375 C 32.528569 39.266552 30.999999 31.500001 31 31.5 z "
         inkscape:radius="-1.0008699"
         sodipodi:type="inkscape:offset"
         transform="translate(0,1)" />
      <path
         sodipodi:nodetypes="ccccccc"
         id="path5259"
         d="M 22.504711,32.995289 L 22.5,28.5 L 36.5,28.5 L 36.504711,32.995289 C 36.504711,33.995289 36,34.520833 35,34.5 L 24,34.5 C 23,34.5 22.5,34 22.504711,32.995289 z "
         style="fill:url(#linearGradient3158);fill-opacity:1;fill-rule:evenodd;stroke:#8f5902;stroke-width:1px;stroke-linecap:butt;stroke-linejoin:miter;stroke-opacity:1" />
      <path
         sodipodi:nodetypes="cccc"
         id="path2846"
         d="M 27.984375,35 L 30.96875,34.992187 C 31.21286,36.318049 31.160522,35.96877 31.363445,37.315226 C 30.723043,35.335164 28.484375,35 27.984375,35 z "
         style="opacity:0.3608247;color:black;fill:url(#linearGradient3160);fill-opacity:1;fill-rule:nonzero;stroke:none;stroke-width:1;stroke-linecap:butt;stroke-linejoin:miter;marker:none;marker-start:none;marker-mid:none;marker-end:none;stroke-miterlimit:10;stroke-dasharray:none;stroke-dashoffset:0;stroke-opacity:1;visibility:visible;display:inline;overflow:visible" />
      <path
         sodipodi:nodetypes="cccccccccccccccc"
         id="path2870"
         d="M 21.743534,20.953166 L 22.804194,25.107418 L 22.936776,22.698835 C 23.934673,22.956944 24.241107,24.509592 24.925514,25.39468 C 25.679363,24.879639 26.703509,24.284899 27.400388,23.428039 L 29.389125,24.886447 L 30.847533,22.986098 L 32.968854,25.01903 L 35.708893,23.162874 L 35.266951,21.041554 L 32.438524,23.781593 L 30.140427,20.99736 C 29.805307,22.035884 29.448576,23.117631 29.168155,24.046758 C 28.405318,23.250464 27.937128,22.159537 27.046835,21.328816 C 26.696201,22.181225 26.418604,23.131424 24.704543,24.046758 C 24.091263,22.707788 23.345703,21.477756 21.743534,20.953166 z "
         style="opacity:1;color:black;fill:#ef2929;fill-opacity:1;fill-rule:nonzero;stroke:none;stroke-width:1;stroke-linecap:butt;stroke-linejoin:miter;marker:none;marker-start:none;marker-mid:none;marker-end:none;stroke-miterlimit:10;stroke-dasharray:none;stroke-dashoffset:0;stroke-opacity:1;visibility:visible;display:inline;overflow:visible" />
      <path
         d="M 23.5,28.5 L 23.5,32 C 23.498427,32.335457 23.547425,32.422496 23.5625,32.4375 C 23.577575,32.452504 23.663807,32.5 24,32.5 L 35,32.5 C 35.010416,32.499836 35.020834,32.499836 35.03125,32.5 C 35.355665,32.506759 35.390083,32.453836 35.40625,32.4375 C 35.422417,32.421164 35.5,32.334635 35.5,32 L 35.5,28.5 L 23.5,28.5 z "
         id="path2929"
         style="opacity:0.6;fill:none;fill-opacity:1;fill-rule:evenodd;stroke:url(#linearGradient3162);stroke-width:1px;stroke-linecap:butt;stroke-linejoin:miter;stroke-opacity:1"
         inkscape:original="M 22.5 27.5 L 22.5 32 C 22.495289 33.004711 23 33.5 24 33.5 L 35 33.5 C 36 33.520833 36.5 33 36.5 32 L 36.5 27.5 L 22.5 27.5 z "
         inkscape:radius="-0.9921875"
         sodipodi:type="inkscape:offset"
         transform="translate(0,1)" />
    </g>
    <g
       id="g3108"
       transform="translate(4,-1)">
      <path
         transform="matrix(0.410361,0,0,0.679858,-7.302e-2,15.97855)"
         d="M 47.69706 42.6875 A 23.75956 5.8835783 0 1 1  0.17794037,42.6875 A 23.75956 5.8835783 0 1 1  47.69706 42.6875 z"
         sodipodi:ry="5.8835783"
         sodipodi:rx="23.75956"
         sodipodi:cy="42.6875"
         sodipodi:cx="23.9375"
         id="path3059"
         style="opacity:0.3;fill:url(#radialGradient3122);fill-opacity:1;fill-rule:evenodd;stroke:none;stroke-width:1px;stroke-linecap:butt;stroke-linejoin:miter;stroke-opacity:1"
         sodipodi:type="arc" />
      <path
         sodipodi:nodetypes="cc"
         id="path3022"
         d="M 17.5,34.5 L 14.5,31.5"
         style="fill:none;fill-opacity:0.75;fill-rule:evenodd;stroke:black;stroke-width:0.99999982px;stroke-linecap:round;stroke-linejoin:round;stroke-opacity:1" />
      <path
         sodipodi:nodetypes="cccsccc"
         id="path2960"
         d="M 8.999472,27.50001 C 4.859746,27.50001 1.499968,28.744393 1.499968,30.277649 L 1.499968,43.721374 C 1.499968,45.254631 4.859746,46.499014 8.999472,46.499014 C 13.139199,46.499014 16.49898,45.254631 16.49898,43.721374 L 16.49898,30.277649 C 16.49898,28.744393 13.139199,27.50001 8.999472,27.50001 z "
         style="opacity:1;fill:url(#linearGradient3124);fill-opacity:1;stroke:url(#linearGradient3168);stroke-width:1.00199974;stroke-linecap:round;stroke-linejoin:miter;stroke-miterlimit:4;stroke-dasharray:none;stroke-dashoffset:1.20000057;stroke-opacity:1" />
      <path
         sodipodi:nodetypes="cssccsssssccssc"
         id="path3012"
         d="M 9,28.5 C 7.031106,28.5 5.264027,28.804224 4.0625,29.25 C 3.461736,29.472888 2.993416,29.755525 2.75,29.96875 C 2.506584,30.181975 2.5,30.264948 2.5,30.28125 L 2.5,43.71875 C 2.5,43.735051 2.506584,43.818025 2.75,44.03125 C 2.993416,44.244475 3.461736,44.527112 4.0625,44.75 C 5.264028,45.195776 7.031107,45.5 9,45.5 C 10.968893,45.499999 12.735972,45.195775 13.9375,44.75 C 14.538264,44.527112 15.006584,44.244475 15.25,44.03125 C 15.493416,43.818025 15.5,43.735052 15.5,43.71875 L 15.5,30.28125 C 15.5,30.264948 15.493416,30.181975 15.25,29.96875 C 15.006584,29.755525 14.538264,29.472888 13.9375,29.25 C 12.735973,28.804224 10.968894,28.5 9,28.5 z "
         style="fill:none;fill-opacity:1;stroke:url(#linearGradient3130);stroke-width:1.00199974;stroke-linecap:round;stroke-linejoin:miter;stroke-miterlimit:4;stroke-dashoffset:1.20000057;stroke-opacity:1" />
      <path
         transform="matrix(0.92857,0,0,0.7996,-56.46419,5.7124)"
         d="M 77.5 31 A 7 2.5 0 1 1  63.5,31 A 7 2.5 0 1 1  77.5 31 z"
         sodipodi:ry="2.5"
         sodipodi:rx="7"
         sodipodi:cy="31"
         sodipodi:cx="70.5"
         id="path2966"
         style="opacity:1;fill:url(#linearGradient3126);fill-opacity:1;stroke:white;stroke-width:1.16285086;stroke-linecap:round;stroke-linejoin:miter;stroke-miterlimit:4;stroke-dasharray:none;stroke-dashoffset:1.20000057;stroke-opacity:1"
         sodipodi:type="arc" />
      <path
         sodipodi:nodetypes="ccccc"
         id="path3106"
         d="M 9.345005,42.713128 C 9.204923,33.22204 5.5778229,33.856805 7.3345971,32.244313 C 12.218053,32.564721 14.649587,31.727633 15.3125,30.84375 C 17.886277,34.05394 10.425369,32.933485 11.326364,42.68907 C 11.311035,44.320128 9.306448,44.764338 9.345005,42.713128 z "
         style="opacity:0.1;fill:black;fill-opacity:1;fill-rule:evenodd;stroke:none;stroke-width:1px;stroke-linecap:butt;stroke-linejoin:miter;stroke-opacity:1" />
      <path
         transform="matrix(0.75,0.125,0,0.858593,1.75,4.182838)"
         d="M 7 35.747044 A 2 1.7470434 0 1 1  3,35.747044 A 2 1.7470434 0 1 1  7 35.747044 z"
         sodipodi:ry="1.7470434"
         sodipodi:rx="2"
         sodipodi:cy="35.747044"
         sodipodi:cx="5"
         id="path3030"
         style="opacity:0.6;fill:#888a85;fill-opacity:1;stroke:none;stroke-width:1;stroke-linecap:round;stroke-linejoin:round;stroke-miterlimit:4;stroke-dasharray:none;stroke-opacity:1"
         sodipodi:type="arc" />
      <path
         sodipodi:nodetypes="ccccc"
         id="path3068"
         d="M 9.032505,42.369378 C 9.283048,30.94079 3.6246979,33.71618 5.7095971,31.728688 C 11.354185,32.403616 14.372165,31.395576 15,30.5 C 17.573777,33.71019 10.112869,32.589735 11.013864,42.34532 C 10.998535,43.976378 8.993948,44.420588 9.032505,42.369378 z "
         style="opacity:1;fill:url(#linearGradient3132);fill-opacity:1;fill-rule:evenodd;stroke:none;stroke-width:1px;stroke-linecap:butt;stroke-linejoin:miter;stroke-opacity:1" />
      <path
         sodipodi:nodetypes="cs"
         id="path3088"
         d="M 7.718751,33.531255 C 8.311668,34.522063 9.518863,36.400453 9.593751,41.734382"
         style="opacity:0.3;fill:none;fill-opacity:1;fill-rule:evenodd;stroke:url(#linearGradient3134);stroke-width:0.40000001;stroke-linecap:round;stroke-linejoin:miter;stroke-miterlimit:4;stroke-dasharray:none;stroke-opacity:1" />
      <path
         sodipodi:nodetypes="czzc"
         id="path3028"
         d="M 5.5,35.5 C 5.5,35.5 10.361634,41.443248 13.611814,41.498777 C 16.861994,41.554307 18.47873,39.728474 18.5,37.42227 C 18.52129,35.116178 17.5,34.500009 17.5,34.500009"
         style="fill:none;fill-opacity:0.75;fill-rule:evenodd;stroke:black;stroke-width:1.00000012px;stroke-linecap:round;stroke-linejoin:round;stroke-opacity:1" />
      <path
         sodipodi:nodetypes="cc"
         id="path3070"
         d="M 6.0386501,32.310689 C 10.705693,32.898531 14.322287,32.215648 14.955822,31.212724"
         style="opacity:0.6;fill:none;fill-opacity:1;fill-rule:evenodd;stroke:white;stroke-width:0.30000001;stroke-linecap:round;stroke-linejoin:miter;stroke-miterlimit:4;stroke-dasharray:none;stroke-opacity:1" />
      <path
         transform="matrix(0.773585,0,0,1.191489,0.561321,-8.249003)"
         d="M 12.140624 42.710938 A 0.4140625 0.3671875 0 1 1  11.312499,42.710938 A 0.4140625 0.3671875 0 1 1  12.140624 42.710938 z"
         sodipodi:ry="0.3671875"
         sodipodi:rx="0.4140625"
         sodipodi:cy="42.710938"
         sodipodi:cx="11.726562"
         id="path3104"
         style="opacity:0.3;fill:white;fill-opacity:1;stroke:none;stroke-width:0.40000001;stroke-linecap:round;stroke-linejoin:miter;stroke-miterlimit:4;stroke-dasharray:none;stroke-dashoffset:1.20000057;stroke-opacity:1"
         sodipodi:type="arc" />
    </g>
    <path
       style="fill:url(#linearGradient3184);fill-opacity:1;stroke:url(#linearGradient3192);stroke-width:0.9999997;stroke-linecap:round;stroke-linejoin:miter;stroke-miterlimit:4;stroke-dashoffset:1.20000057;stroke-opacity:1"
       d="M 39.5,25.525888 L 39.5,26.474112 C 39.5,27.042454 39.042454,27.5 38.474112,27.5 L 26.525888,27.5 C 25.957546,27.5 25.5,27.042454 25.5,26.474112 L 25.5,25.525888 L 39.5,25.525888 z "
       id="rect3176" />
  </g>
  <g
     inkscape:groupmode="layer"
     id="layer2"
     inkscape:label="new" />
</svg>
