<?xml version="1.0" encoding="UTF-8" standalone="no"?>
<!-- Created with Inkscape (http://www.inkscape.org/) -->

<svg
   xmlns:dc="http://purl.org/dc/elements/1.1/"
   xmlns:cc="http://creativecommons.org/ns#"
   xmlns:rdf="http://www.w3.org/1999/02/22-rdf-syntax-ns#"
   xmlns:svg="http://www.w3.org/2000/svg"
   xmlns="http://www.w3.org/2000/svg"
   xmlns:xlink="http://www.w3.org/1999/xlink"
   xmlns:sodipodi="http://sodipodi.sourceforge.net/DTD/sodipodi-0.dtd"
   xmlns:inkscape="http://www.inkscape.org/namespaces/inkscape"
   width="48"
   height="48"
   viewBox="0 0 48 48"
   id="svg2"
   version="1.1"
   inkscape:version="0.92.3 (2405546, 2018-03-11)"
   sodipodi:docname="plugin2.svg">
  <defs
     id="defs4">
    <linearGradient
       x1="11.614"
       y1="-19.040001"
       x2="29.129999"
       y2="32.200001"
       id="9"
       xlink:href="#3"
       gradientUnits="userSpaceOnUse"
       gradientTransform="matrix(-1,0,0,1,48.034143,1005.7735)" />
    <linearGradient
       id="3">
      <stop
         id="I"
         stop-color="#fff" />
      <stop
         id="J"
         offset="1"
         stop-color="#fff"
         stop-opacity="0" />
    </linearGradient>
    <linearGradient
       y1="2.961"
       x2="0"
       y2="42.380001"
       id="8"
       xlink:href="#4"
       gradientUnits="userSpaceOnUse"
       gradientTransform="matrix(-1,0,0,1,48.034143,1005.7735)" />
    <linearGradient
       id="4">
      <stop
         id="K"
         stop-color="#fff"
         stop-opacity="0.8" />
      <stop
         id="L"
         offset="1"
         stop-color="#fff"
         stop-opacity="0" />
    </linearGradient>
    <radialGradient
       cx="15.744"
       cy="15.63"
       r="19.724001"
       id="7"
       xlink:href="#5"
       gradientUnits="userSpaceOnUse"
       gradientTransform="matrix(0.08887371,1.4551706,2.1149236,-0.1291678,-1.6304327,992.32266)" />
    <linearGradient
       id="5">
      <stop
         id="M"
         stop-color="#bed855"
         style="stop-color:#5589d8;stop-opacity:1" />
      <stop
         id="N"
         offset="1"
         stop-color="#8bb300"
         style="stop-color:#0048b3;stop-opacity:1" />
    </linearGradient>
    <radialGradient
       cx="26.049999"
       cy="44.814999"
       r="18.211"
       id="6"
       xlink:href="#2"
       gradientUnits="userSpaceOnUse"
       gradientTransform="matrix(-0.5359471,0,0,0.12787529,44.683187,1042.8978)" />
    <linearGradient
       id="2">
      <stop
         id="G"
         stop-color="#2e3436" />
      <stop
         id="H"
         offset="1"
         stop-color="#2e3436"
         stop-opacity="0" />
    </linearGradient>
    <radialGradient
       inkscape:collect="always"
       xlink:href="#2"
       id="radialGradient842"
       gradientUnits="userSpaceOnUse"
       gradientTransform="matrix(-0.5359471,0,0,0.12787529,25.682891,1042.8978)"
       cx="26.049999"
       cy="44.814999"
       r="18.211" />
  </defs>
  <sodipodi:namedview
     id="base"
     pagecolor="#ffffff"
     bordercolor="#666666"
     borderopacity="1.0"
     inkscape:pageopacity="0.0"
     inkscape:pageshadow="2"
     inkscape:zoom="9.8112869"
     inkscape:cx="15.948022"
     inkscape:cy="31.069195"
     inkscape:document-units="px"
     inkscape:current-layer="layer1"
     showgrid="true"
     units="px"
     inkscape:window-width="1680"
     inkscape:window-height="987"
     inkscape:window-x="-8"
     inkscape:window-y="-8"
     inkscape:window-maximized="1"
     viewbox-height="16">
    <inkscape:grid
       type="xygrid"
       id="grid4136"
       originx="0"
       originy="0"
       spacingx="1"
       spacingy="1" />
  </sodipodi:namedview>
  <metadata
     id="metadata7">
    <rdf:RDF>
      <cc:Work
         rdf:about="">
        <dc:format>image/svg+xml</dc:format>
        <dc:type
           rdf:resource="http://purl.org/dc/dcmitype/StillImage" />
        <dc:title></dc:title>
        <cc:license
           rdf:resource="http://creativecommons.org/publicdomain/zero/1.0/" />
      </cc:Work>
      <cc:License
         rdf:about="http://creativecommons.org/publicdomain/zero/1.0/">
        <cc:permits
           rdf:resource="http://creativecommons.org/ns#Reproduction" />
        <cc:permits
           rdf:resource="http://creativecommons.org/ns#Distribution" />
        <cc:permits
           rdf:resource="http://creativecommons.org/ns#DerivativeWorks" />
      </cc:License>
    </rdf:RDF>
  </metadata>
  <g
     inkscape:label="Layer 1"
     inkscape:groupmode="layer"
     id="layer1"
     transform="translate(0,-1005.3622)">
    <path
       inkscape:connector-curvature="0"
       style="opacity:0.6;fill:url(#radialGradient842);stroke-width:0.75235862"
       id="A"
       d="m 1.9605243,1048.6286 a 9.7603097,2.3287798 0 1 0 19.5206187,0 9.7603097,2.3287798 0 1 0 -19.5206187,0 z" />
    <path
       inkscape:connector-curvature="0"
       style="opacity:0.6;fill:url(#6);stroke-width:0.75235862"
       id="B"
       d="m 20.960819,1048.6286 a 9.76031,2.3287798 0 1 0 19.52062,0 9.76031,2.3287798 0 1 0 -19.52062,0 z" />
    <path
       style="fill:#002358;fill-opacity:1;fill-rule:evenodd;stroke-width:3.58500004"
       inkscape:connector-curvature="0"
       id="C"
       d="m 21.815393,1007.7735 c 1.883533,0.069 4.040501,0.6243 5.34375,2.1875 0.05579,0.069 0.08996,0.1368 0.125,0.2187 0.421358,0.8978 0.594629,1.6867 0.3125,2.4063 -0.28489,0.7265 -0.918516,1.035 -1.375,1.2187 -0.441985,0.1779 -0.843705,0.3074 -1.0625,0.4375 -0.126669,0.075 -0.182316,0.1432 -0.21875,0.1875 -0.03643,0.044 -0.06474,0.1002 -0.09375,0.25 -0.07074,0.3652 -0.0095,0.4968 0.0625,0.625 0.05891,0.1049 0.157572,0.1842 0.34375,0.2813 0.17417,0.091 0.344364,0.1482 0.5,0.1875 0.07782,0.02 0.170727,0.054 0.21875,0.062 0.04802,0.01 0.09972,0 0.0625,0 h 10.9375 c 0.521258,0.011 0.957441,0.4475 0.96875,0.9687 v 11.0313 0.031 0.031 c 0.01729,0.124 0.09702,0.5053 0.25,0.75 0.102239,0.1635 0.192092,0.2368 0.28125,0.2812 0.08916,0.044 0.237342,0.069 0.59375,0 0.149386,-0.029 0.205213,-0.057 0.25,-0.094 0.04479,-0.037 0.0829,-0.094 0.15625,-0.2188 0.120784,-0.2058 0.26107,-0.6126 0.4375,-1.0625 0.180808,-0.461 0.494368,-1.0885 1.21875,-1.375 0.719923,-0.2847 1.509098,-0.1085 2.40625,0.3125 0.08192,0.035 0.149278,0.069 0.21875,0.125 1.310807,1.0928 1.944627,2.7991 2.15625,4.4375 8.29e-4,0.077 0,0.1642 0,0.2188 0.09702,0.5611 0.147587,1.1364 0.125,1.75 -0.06934,1.8835 -0.624306,4.0405 -2.1875,5.3437 -0.06947,0.056 -0.136825,0.09 -0.21875,0.125 -0.897152,0.4211 -1.686327,0.5972 -2.40625,0.3125 -0.724381,-0.2865 -1.037942,-0.914 -1.21875,-1.375 -0.17643,-0.4499 -0.316716,-0.8567 -0.4375,-1.0625 -0.07335,-0.125 -0.111463,-0.182 -0.15625,-0.2187 -0.04479,-0.037 -0.100614,-0.065 -0.25,-0.094 -0.36523,-0.071 -0.496776,-0.01 -0.625,0.062 -0.104906,0.059 -0.184184,0.1576 -0.28125,0.3438 -0.177654,0.3407 -0.245577,0.7495 -0.25,0.7812 v 0.031 l -0.0625,10.875 c -0.01131,0.5212 -0.447492,0.9574 -0.96875,0.9687 l -11,-0.062 c -0.01522,4e-4 -0.01603,4e-4 -0.03125,0 0,0 -0.838883,-0.011 -1.65625,-0.4375 -0.400327,-0.2087 -0.856199,-0.5282 -1.15625,-1.0625 -0.30262,-0.5389 -0.391735,-1.237 -0.25,-1.9687 0.161383,-0.8332 0.707744,-1.3963 1.25,-1.7188 0.516176,-0.3069 1.002999,-0.4692 1.3125,-0.5937 0.140509,-0.057 0.231505,-0.098 0.28125,-0.125 -0.0019,-0.035 0.01053,-0.095 0,-0.1563 -0.02247,-0.1305 -0.07156,-0.311 -0.15625,-0.5312 -0.753266,-0.8302 -2.378688,-1.4149 -3.84375,-1.4688 -0.559374,-0.021 -1.112453,0.037 -1.53125,0.125 -0.03701,0.013 -0.08929,0.027 -0.125,0.031 -1.256952,0.1623 -2.525807,0.6902 -3.15625,1.375 -0.09228,0.2323 -0.136188,0.4375 -0.15625,0.5625 -0.0091,0.056 -0.0302,0.094 -0.03125,0.125 -0.02225,-0.055 0.0097,0.039 0.3125,0.1562 0.30061,0.1167 0.814133,0.2229 1.34375,0.5313 0.549881,0.3201 1.088571,0.9165 1.25,1.75 0.141735,0.7317 0.05262,1.4298 -0.25,1.9687 -0.300051,0.5343 -0.755923,0.8538 -1.15625,1.0625 -0.817369,0.4262 -1.65625,0.4375 -1.65625,0.4375 -0.01522,4e-4 -0.01603,4e-4 -0.03125,0 H 5.6278934 c -0.521258,-0.011 -0.957441,-0.4475 -0.96875,-0.9687 l 0.09375,-11 c -3.55e-4,-0.015 -3.55e-4,-0.016 0,-0.031 0,0 -0.01172,-0.8022 0.40625,-1.625 0.206636,-0.4068 0.532203,-0.8869 1.0625,-1.1875 0.538769,-0.3053 1.237604,-0.3916 1.96875,-0.25 0.833201,0.1614 1.396291,0.7078 1.71875,1.25 0.3069506,0.5162 0.4692096,1.003 0.5937496,1.3125 0.05911,0.1469 0.129082,0.2334 0.15625,0.2813 0.03266,0 0.07608,0.01 0.125,0 0.130484,-0.023 0.310999,-0.072 0.53125,-0.1563 0.830124,-0.7533 1.414813,-2.3787 1.46875,-3.8437 0.02065,-0.5611 -0.03543,-1.0727 -0.125,-1.5 -0.0021,-0.021 -0.0021,-0.042 0,-0.062 -3.55e-4,-0.015 -3.55e-4,-0.016 0,-0.031 -0.0021,-0.017 -0.02887,-0.044 -0.03125,-0.062 -0.162722,-1.2598 -0.704315,-2.4901 -1.40625,-3.125 -0.168571,-0.068 -0.321558,-0.1238 -0.4375,-0.1562 -0.133288,-0.037 -0.236036,-0.03 -0.21875,-0.031 -0.0028,0 -0.0092,-0.033 -0.03125,0 -0.04233,0.064 -0.160262,0.348 -0.28125,0.6875 -0.122902,0.3449 -0.2703036,0.7949 -0.5937496,1.2188 -0.330667,0.4333 -0.850696,0.8369 -1.53125,0.9687 -1.365144,0.2644 -2.419893,-0.4084 -2.90625,-1.1875 -0.463779,-0.7429 -0.545387,-1.4706 -0.5625,-1.6875 -5.27e-4,-0.01 -5.27e-4,-0.021 0,-0.031 -0.0014,-0.03 -0.0014,-0.032 0,-0.062 v -11.0313 c 0.01131,-0.5212 0.447492,-0.9574 0.96875,-0.9687 H 16.877893 c 0.235746,-0.055 0.585603,-0.2101 0.71875,-0.3438 0.0888,-0.089 0.130833,-0.1266 0.15625,-0.2187 0.02542,-0.092 0.02182,-0.2573 -0.03125,-0.5313 -0.02893,-0.1494 -0.05702,-0.2052 -0.09375,-0.25 -0.03673,-0.045 -0.09375,-0.083 -0.21875,-0.1562 -0.205832,-0.1208 -0.61263,-0.2611 -1.0625,-0.4375 -0.461033,-0.1808 -1.088521,-0.4944 -1.375,-1.2188 -0.284716,-0.7199 -0.108557,-1.5091 0.3125,-2.4062 0.03504,-0.082 0.06921,-0.1493 0.125,-0.2188 1.034713,-1.2411 2.605683,-1.8087 4.128906,-2.0508 0.145707,-0.06 0.251018,-0.059 0.402344,-0.1054 0.595823,-0.1154 1.217839,-0.1492 1.875,-0.125 z"
       sodipodi:nodetypes="sccssscccccccccccccccccssccccscccsccccscccccccscccccccccccccscscccccccccscccccccccccccccssscccccccccccssccccs" />
    <path
       inkscape:connector-curvature="0"
       style="fill:url(#7);fill-rule:evenodd;stroke-width:3.58500004"
       id="D"
       d="m 21.783527,1008.7377 c 1.704368,0.063 3.616154,0.6339 4.636021,1.8572 1.483444,3.1608 -2.120188,1.7014 -2.54403,3.8896 -0.42384,2.1883 2.120026,2.3093 2.120026,2.3093 v 0 h 10.961052 v 11.1187 c 0.03052,0.3509 0.284244,2.3792 2.291729,1.9904 2.188239,-0.4239 0.728841,-4.024 3.889632,-2.5405 1.032408,0.8607 1.600688,2.3525 1.790632,3.823 0.003,0.023 0.0077,0.047 0.01051,0.07 0.1084,0.5172 0.16333,1.1089 0.140168,1.7381 -0.06274,1.7043 -0.633925,3.6161 -1.857212,4.636 -3.16079,1.4834 -1.701392,-2.1202 -3.889632,-2.544 -2.188239,-0.4239 -2.30925,2.12 -2.30925,2.12 l -0.06658,10.9575 c 0,0 -10.999599,-0.088 -10.999598,-0.088 0,0 -2.543865,-0.121 -2.120025,-2.3092 0.423841,-2.1883 4.023969,-0.7289 2.540525,-3.8897 -1.019869,-1.2232 -2.92815,-1.7944 -4.632517,-1.8572 -0.629175,-0.023 -1.220905,0.032 -1.738069,0.1402 -0.02295,0 -0.04712,0.01 -0.07008,0.011 -1.470565,0.1899 -2.965829,0.7582 -3.826557,1.7906 -1.483443,3.1608 2.120188,1.7014 2.54403,3.8897 0.42384,2.1882 -2.120024,2.3092 -2.120024,2.3092 H 5.6363022 c 0,0 0.07008,-11.0171 0.07008,-11.0171 0,0 0.121014,-2.5439 2.309251,-2.12 2.1882428,0.4238 0.728842,4.0274 3.8896298,2.544 1.223291,-1.0199 1.794469,-2.9317 1.857216,-4.636 0.02316,-0.6292 -0.03177,-1.2209 -0.140167,-1.7381 -0.0028,-0.023 -0.0075,-0.047 -0.01051,-0.07 -0.189945,-1.4705 -0.758222,-2.9623 -1.790633,-3.823 -0.592645,-0.2782 -1.023312,-0.3789 -1.345599,-0.3539 -1.3965947,0.1082 -0.7660837,2.55 -2.5440307,2.8944 -2.041719,0.3955 -2.27197,-1.7201 -2.295231,-2.0149 v -11.0346 H 17.091448 c 0.718273,-0.1662 1.902251,-0.6719 1.601398,-2.2252 -0.423839,-2.1882 -4.023968,-0.7288 -2.540525,-3.8896 0.860733,-1.0324 2.35249,-1.6007 3.823054,-1.7906 0.02297,0 0.04713,-0.01 0.07008,-0.01 0.517165,-0.1084 1.108894,-0.1634 1.738069,-0.1402 z" />
    <path
       inkscape:connector-curvature="0"
       style="opacity:0.8;fill:none;stroke:url(#8)"
       id="E"
       d="m 21.752893,1009.2422 c 1.593738,0.059 3.366637,0.5976 4.25,1.625 0.305113,0.6779 0.306363,1.0438 0.25,1.1875 -0.05864,0.1496 -0.248453,0.2673 -0.59375,0.4063 -0.345297,0.1389 -0.798863,0.2629 -1.25,0.5312 -0.451137,0.2683 -0.898624,0.7215 -1.03125,1.4063 -0.123687,0.6385 -0.02002,1.1998 0.21875,1.625 0.238774,0.4251 0.617509,0.6918 0.96875,0.875 0.702482,0.3662 1.40625,0.4062 1.40625,0.4062 0.01041,3e-4 0.02084,3e-4 0.03125,0 h 10.46875 v 10.5938 c -3.3e-4,0.01 -3.3e-4,0.021 0,0.031 0.01792,0.2061 0.07742,0.8741 0.46875,1.5 0.391326,0.6259 1.24082,1.1945 2.40625,0.9688 0.684946,-0.1327 1.140901,-0.5791 1.40625,-1.0313 0.26535,-0.4522 0.39582,-0.9359 0.53125,-1.2812 0.13543,-0.3454 0.261331,-0.5052 0.40625,-0.5625 0.139284,-0.055 0.478258,-0.055 1.15625,0.25 0.871676,0.7474 1.417152,2.1015 1.59375,3.4687 0.0078,0.051 0.03125,0.094 0.03125,0.094 0.09755,0.4654 0.115721,1.0281 0.09375,1.625 -0.05867,1.5937 -0.597571,3.3666 -1.625,4.25 -0.677991,0.3051 -1.016967,0.305 -1.15625,0.25 -0.144918,-0.057 -0.27082,-0.2172 -0.40625,-0.5625 -0.13543,-0.3454 -0.2659,-0.8291 -0.53125,-1.2813 -0.26535,-0.4522 -0.721303,-0.8986 -1.40625,-1.0312 -0.63858,-0.1237 -1.199815,-0.02 -1.625,0.2187 -0.425185,0.2388 -0.691877,0.6175 -0.875,0.9688 -0.366247,0.7024 -0.40625,1.4062 -0.40625,1.4062 -3.3e-4,0.01 -3.3e-4,0.021 0,0.031 l -0.0625,10.4375 -10.46875,-0.062 c 0,0 -0.03039,0 -0.03125,0 -0.02973,0 -0.547164,-0.045 -1,-0.2813 -0.232989,-0.1215 -0.411322,-0.2864 -0.53125,-0.5 -0.119928,-0.2135 -0.181983,-0.4819 -0.09375,-0.9375 0.07929,-0.4094 0.236254,-0.5746 0.53125,-0.75 0.294996,-0.1754 0.705035,-0.2997 1.125,-0.4687 0.419965,-0.169 0.914332,-0.4315 1.125,-0.9688 0.210668,-0.5373 0.08476,-1.1848 -0.3125,-2.0312 -0.01719,-0.034 -0.03816,-0.065 -0.0625,-0.094 -1.165763,-1.3983 -3.170412,-1.965 -4.96875,-2.0312 -0.650576,-0.024 -1.281978,0.042 -1.84375,0.1562 -0.0095,0 -0.02183,0 -0.03125,0 -0.01462,0 -0.01853,0 -0.03125,0 -1.549914,0.2002 -3.169524,0.7852 -4.15625,1.9688 -0.02434,0.029 -0.04531,0.06 -0.0625,0.094 -0.397413,0.8468 -0.529144,1.4951 -0.3125,2.0313 0.216644,0.5361 0.701547,0.7731 1.125,0.9375 0.423453,0.1644 0.859376,0.2959 1.15625,0.4687 0.296874,0.1729 0.452212,0.342 0.53125,0.75 0.08823,0.4556 0.02618,0.724 -0.09375,0.9375 -0.119928,0.2136 -0.298261,0.3785 -0.53125,0.5 -0.452836,0.2361 -0.970269,0.2791 -1,0.2813 H 16.502893 6.1278933 l 0.09375,-10.4688 v -0.031 c 0.0019,-0.03 0.02088,-0.549 0.25,-1 0.117934,-0.2322 0.290373,-0.4125 0.5,-0.5313 0.209627,-0.1188 0.481746,-0.182 0.9375,-0.094 0.409391,0.079 0.574577,0.2362 0.75,0.5312 0.175423,0.295 0.299761,0.705 0.46875,1.125 0.168989,0.42 0.431477,0.9143 0.9687497,1.125 0.537273,0.2107 1.184799,0.085 2.03125,-0.3125 0.03353,-0.017 0.06499,-0.038 0.09375,-0.062 1.398284,-1.1657 1.965044,-3.1704 2.03125,-4.9687 0.02392,-0.6498 -0.04237,-1.2555 -0.15625,-1.8125 -0.0032,-0.023 0.0033,-0.016 0,-0.031 -0.0065,-0.03 0.0056,-0.051 0,-0.062 -0.200311,-1.5508 -0.789723,-3.142 -1.96875,-4.125 -0.02876,-0.024 -0.06022,-0.045 -0.09375,-0.062 -0.638224,-0.2995 -1.146155,-0.4409 -1.59375,-0.4062 -0.4934577,0.038 -0.9060397,0.3565 -1.1249997,0.6875 -0.21896,0.3309 -0.322252,0.6766 -0.4375,1 -0.115248,0.3233 -0.221874,0.6118 -0.375,0.8125 -0.153126,0.2006 -0.323267,0.3105 -0.65625,0.375 -0.857033,0.166 -1.161139,-0.1074 -1.40625,-0.5 -0.238308,-0.3818 -0.301087,-0.8774 -0.3125,-1 v -0.031 -10.5 H 17.096643 c 0.04285,0 0.08488,-0.015 0.125,-0.031 0.413877,-0.096 0.959351,-0.2702 1.40625,-0.7188 0.446899,-0.4486 0.737757,-1.1889 0.5625,-2.0937 -0.132667,-0.685 -0.579058,-1.1409 -1.03125,-1.4063 -0.452192,-0.2653 -0.935925,-0.3958 -1.28125,-0.5312 -0.345325,-0.1355 -0.505187,-0.2614 -0.5625,-0.4063 -0.05508,-0.1393 -0.05516,-0.4782 0.25,-1.1562 0.744402,-0.8673 2.09489,-1.3851 3.46875,-1.5625 0.04982,-0.025 0.07704,-0.021 0.113281,-0.039 0.460334,-0.094 1.020083,-0.1387 1.605469,-0.1172 z"
       sodipodi:nodetypes="sccsssccccccccscsccccsccsscccccccccscsssccccccccsssccsccccccscssscccccccccssscscccccscssccccs" />
    <path
       inkscape:connector-curvature="0"
       style="opacity:0.6;fill:url(#9);fill-rule:evenodd;stroke-width:3.58500004"
       id="F"
       d="m 21.784143,1008.7422 c 1.704368,0.063 3.605133,0.6205 4.625,1.8438 1.483444,3.1608 -2.107408,1.718 -2.53125,3.9062 -0.42384,2.1883 2.125,2.3125 2.125,2.3125 h 10.96875 v 11.0938 c 0.03052,0.3509 0.273765,2.3888 2.28125,2 2.188239,-0.4239 0.71421,-4.0147 3.875,-2.5313 1.032408,0.8607 1.622556,2.3419 1.8125,3.8125 0.003,0.023 -0.0028,0.04 0,0.062 0.1084,0.5172 0.148162,1.1208 0.125,1.75 -0.06274,1.7044 -0.620462,3.6051 -1.84375,4.625 -3.16079,1.4835 -1.68676,-2.1074 -3.875,-2.5312 -1.724847,-0.3341 -2.172057,1.1268 -2.28125,1.7812 -10.021715,-4.2913 -21.052426,-8.7107 -31.4374997,-12.5625 v -7.5 H 17.096643 c 0.718279,-0.1662 1.894603,-0.6967 1.59375,-2.25 -0.423839,-2.1882 -4.014693,-0.7142 -2.53125,-3.875 0.860734,-1.0324 2.341936,-1.5913 3.8125,-1.7812 0.02297,0 0.03955,-0.029 0.0625,-0.031 0.517166,-0.1084 1.120825,-0.1481 1.75,-0.125 z" />
  </g>
</svg>
