<?xml version="1.0" encoding="UTF-8" standalone="no"?>
<!--part of the rodentia icon theme by sixsixfive released under CC0 (https://creativecommons.org/publicdomain/zero/1.0/) on openclipart-->

<svg
   xmlns:dc="http://purl.org/dc/elements/1.1/"
   xmlns:cc="http://creativecommons.org/ns#"
   xmlns:rdf="http://www.w3.org/1999/02/22-rdf-syntax-ns#"
   xmlns:svg="http://www.w3.org/2000/svg"
   xmlns="http://www.w3.org/2000/svg"
   xmlns:xlink="http://www.w3.org/1999/xlink"
   xmlns:sodipodi="http://sodipodi.sourceforge.net/DTD/sodipodi-0.dtd"
   xmlns:inkscape="http://www.inkscape.org/namespaces/inkscape"
   viewBox="0 0 48 48"
   version="1.1"
   id="svg26"
   sodipodi:docname="rodentia-icons_preferences-plugin.svg"
   inkscape:version="0.92.3 (2405546, 2018-03-11)">
  <metadata
     id="metadata30">
    <rdf:RDF>
      <cc:Work
         rdf:about="">
        <dc:format>image/svg+xml</dc:format>
        <dc:type
           rdf:resource="http://purl.org/dc/dcmitype/StillImage" />
        <dc:title></dc:title>
      </cc:Work>
    </rdf:RDF>
  </metadata>
  <sodipodi:namedview
     pagecolor="#ffffff"
     bordercolor="#666666"
     borderopacity="1"
     objecttolerance="10"
     gridtolerance="10"
     guidetolerance="10"
     inkscape:pageopacity="0"
     inkscape:pageshadow="2"
     inkscape:window-width="1680"
     inkscape:window-height="987"
     id="namedview28"
     showgrid="false"
     inkscape:zoom="11.313709"
     inkscape:cx="27.915809"
     inkscape:cy="27.972402"
     inkscape:window-x="-8"
     inkscape:window-y="-8"
     inkscape:window-maximized="1"
     inkscape:current-layer="svg26" />
  <defs
     id="0">
    <linearGradient
       id="2">
      <stop
         id="G"
         stop-color="#2e3436" />
      <stop
         id="H"
         offset="1"
         stop-color="#2e3436"
         stop-opacity="0" />
    </linearGradient>
    <linearGradient
       id="3">
      <stop
         id="I"
         stop-color="#fff" />
      <stop
         id="J"
         offset="1"
         stop-color="#fff"
         stop-opacity="0" />
    </linearGradient>
    <linearGradient
       id="4">
      <stop
         id="K"
         stop-color="#fff"
         stop-opacity="0.8" />
      <stop
         id="L"
         offset="1"
         stop-color="#fff"
         stop-opacity="0" />
    </linearGradient>
    <linearGradient
       id="5">
      <stop
         id="M"
         stop-color="#bed855"
         style="stop-color:#5589d8;stop-opacity:1" />
      <stop
         id="N"
         offset="1"
         stop-color="#8bb300"
         style="stop-color:#0048b3;stop-opacity:1" />
    </linearGradient>
    <radialGradient
       cx="26.05"
       cy="44.815"
       r="18.211"
       id="6"
       xlink:href="#2"
       gradientUnits="userSpaceOnUse"
       gradientTransform="matrix(-0.5359471,0,0,0.12787529,44.683187,37.536098)" />
    <radialGradient
       cx="15.744"
       cy="15.63"
       r="19.724"
       id="7"
       xlink:href="#5"
       gradientUnits="userSpaceOnUse"
       gradientTransform="matrix(0.08887371,1.4551706,2.1149236,-0.1291678,-1.6304327,-13.039009)" />
    <linearGradient
       y1="2.961"
       x2="0"
       y2="42.38"
       id="8"
       xlink:href="#4"
       gradientUnits="userSpaceOnUse"
       gradientTransform="matrix(-1,0,0,1,48.034143,0.4117447)" />
    <linearGradient
       x1="11.614"
       y1="-19.04"
       x2="29.13"
       y2="32.2"
       id="9"
       xlink:href="#3"
       gradientUnits="userSpaceOnUse"
       gradientTransform="matrix(-1,0,0,1,48.034143,0.4117447)" />
    <radialGradient
       inkscape:collect="always"
       xlink:href="#2"
       id="radialGradient842"
       gradientUnits="userSpaceOnUse"
       gradientTransform="matrix(-0.5359471,0,0,0.12787529,25.682891,37.536098)"
       cx="26.05"
       cy="44.815"
       r="18.211" />
  </defs>
  <path
     inkscape:connector-curvature="0"
     style="opacity:0.6;fill:url(#radialGradient842);stroke-width:0.75235862"
     id="A"
     d="m 1.9605243,43.266839 a 9.7603097,2.3287798 0 1 0 19.5206187,0 9.7603097,2.3287798 0 1 0 -19.5206187,0 z" />
  <path
     inkscape:connector-curvature="0"
     style="opacity:0.6;fill:url(#6);stroke-width:0.75235862"
     id="B"
     d="m 20.960819,43.266839 a 9.7603099,2.3287798 0 1 0 19.52062,0 9.7603099,2.3287798 0 1 0 -19.52062,0 z" />
  <path
     style="fill:#002358;fill-opacity:1;fill-rule:evenodd;stroke-width:3.58500004"
     inkscape:connector-curvature="0"
     id="C"
     d="m 21.815393,2.4117447 c 1.883533,0.069339 4.040501,0.6243091 5.34375,2.1875 0.05579,0.069473 0.08996,0.1368256 0.125,0.21875 0.421358,0.8977921 0.594629,1.686727 0.3125,2.40625 -0.28489,0.7265652 -0.918516,1.0350658 -1.375,1.21875 -0.441985,0.1778501 -0.843705,0.3073913 -1.0625,0.4375 -0.126669,0.075325 -0.182316,0.1431533 -0.21875,0.1875 -0.03643,0.044347 -0.06474,0.1002089 -0.09375,0.25 -0.07074,0.3652309 -0.0095,0.4967758 0.0625,0.625 0.05891,0.1049053 0.157572,0.1841843 0.34375,0.2812503 0.17417,0.09081 0.344364,0.148243 0.5,0.1875 0.07782,0.01963 0.170727,0.05387 0.21875,0.0625 0.04802,0.0086 0.09972,0.003 0.0625,0 h 10.9375 c 0.521258,0.01131 0.957441,0.447492 0.96875,0.96875 v 11.03125 0.03125 0.03125 c 0.01729,0.124048 0.09702,0.505314 0.25,0.75 0.102239,0.16353 0.192092,0.236826 0.28125,0.28125 0.08916,0.04442 0.237342,0.06903 0.59375,0 0.149386,-0.02894 0.205213,-0.05702 0.25,-0.09375 0.04479,-0.03673 0.0829,-0.09375 0.15625,-0.21875 0.120784,-0.205832 0.26107,-0.61263 0.4375,-1.0625 0.180808,-0.461032 0.494368,-1.088522 1.21875,-1.375 0.719923,-0.284714 1.509098,-0.108557 2.40625,0.3125 0.08192,0.03504 0.149278,0.06921 0.21875,0.125 1.310807,1.092835 1.944627,2.799086 2.15625,4.4375 8.29e-4,0.07703 0,0.164159 0,0.21875 0.09702,0.561171 0.147587,1.136461 0.125,1.75 -0.06934,1.883533 -0.624306,4.040502 -2.1875,5.34375 -0.06947,0.05579 -0.136825,0.08996 -0.21875,0.125 -0.897152,0.421059 -1.686327,0.597215 -2.40625,0.3125 -0.724381,-0.286479 -1.037942,-0.913966 -1.21875,-1.375 -0.17643,-0.449871 -0.316716,-0.856668 -0.4375,-1.0625 -0.07335,-0.125001 -0.111463,-0.182025 -0.15625,-0.21875 -0.04479,-0.03673 -0.100614,-0.06482 -0.25,-0.09375 -0.36523,-0.07074 -0.496776,-0.0095 -0.625,0.0625 -0.104906,0.05891 -0.184184,0.157572 -0.28125,0.34375 -0.177654,0.34075 -0.245577,0.749581 -0.25,0.78125 v 0.03125 l -0.0625,10.875 c -0.01131,0.521258 -0.447492,0.957441 -0.96875,0.96875 l -11,-0.0625 c -0.01522,3.55e-4 -0.01603,3.55e-4 -0.03125,0 0,0 -0.838883,-0.01136 -1.65625,-0.4375 -0.400327,-0.208716 -0.856199,-0.528199 -1.15625,-1.0625 -0.30262,-0.538876 -0.391735,-1.236985 -0.25,-1.96875 0.161383,-0.8332 0.707744,-1.396292 1.25,-1.71875 0.516176,-0.30695 1.002999,-0.46921 1.3125,-0.59375 0.140509,-0.05654 0.231505,-0.09752 0.28125,-0.125 -0.0019,-0.03491 0.01053,-0.0951 0,-0.15625 -0.02247,-0.130484 -0.07156,-0.310999 -0.15625,-0.53125 -0.753266,-0.830124 -2.378688,-1.414817 -3.84375,-1.46875 -0.559374,-0.02059 -1.112453,0.03722 -1.53125,0.125 -0.03701,0.01327 -0.08929,0.02664 -0.125,0.03125 -1.256952,0.162351 -2.525807,0.690205 -3.15625,1.375 -0.09228,0.232339 -0.136188,0.437563 -0.15625,0.5625 -0.0091,0.05641 -0.0302,0.09379 -0.03125,0.125 -0.02225,-0.05506 0.0097,0.0387 0.3125,0.15625 0.30061,0.116702 0.814133,0.222888 1.34375,0.53125 0.549881,0.320161 1.088571,0.916567 1.25,1.75 0.141735,0.731765 0.05262,1.429874 -0.25,1.96875 -0.300051,0.534301 -0.755923,0.853784 -1.15625,1.0625 -0.817369,0.426145 -1.65625,0.4375 -1.65625,0.4375 -0.01522,3.55e-4 -0.01603,3.55e-4 -0.03125,0 H 5.6278934 c -0.521258,-0.01131 -0.957441,-0.447492 -0.96875,-0.96875 l 0.09375,-11 c -3.55e-4,-0.01522 -3.55e-4,-0.01603 0,-0.03125 0,0 -0.01172,-0.802217 0.40625,-1.625 0.206636,-0.406771 0.532203,-0.88694 1.0625,-1.1875 0.538769,-0.305361 1.237604,-0.391616 1.96875,-0.25 0.833201,0.161383 1.396291,0.707745 1.71875,1.25 0.3069506,0.516177 0.4692096,1.002999 0.5937496,1.3125 0.05911,0.146895 0.129082,0.233427 0.15625,0.28125 0.03266,-0.0027 0.07608,0.0084 0.125,0 0.130484,-0.02247 0.310999,-0.07156 0.53125,-0.15625 0.830124,-0.753265 1.414813,-2.378684 1.46875,-3.84375 0.02065,-0.561102 -0.03543,-1.072685 -0.125,-1.5 -0.0021,-0.02078 -0.0021,-0.04172 0,-0.0625 -3.55e-4,-0.01522 -3.55e-4,-0.01603 0,-0.03125 -0.0021,-0.01703 -0.02887,-0.04407 -0.03125,-0.0625 -0.162722,-1.259781 -0.704315,-2.490113 -1.40625,-3.125 -0.168571,-0.06781 -0.321558,-0.123834 -0.4375,-0.15625 -0.133288,-0.03727 -0.236036,-0.02991 -0.21875,-0.03125 -0.0028,0.004 -0.0092,-0.03329 -0.03125,0 -0.04233,0.06398 -0.160262,0.348024 -0.28125,0.6875 -0.122902,0.344844 -0.2703036,0.794882 -0.5937496,1.21875 -0.330667,0.433331 -0.850696,0.836934 -1.53125,0.96875 -1.365144,0.264415 -2.419893,-0.408451 -2.90625,-1.1875 -0.463779,-0.742884 -0.545387,-1.470617 -0.5625,-1.6875 -5.27e-4,-0.01041 -5.27e-4,-0.02084 0,-0.03125 -0.0014,-0.03041 -0.0014,-0.03209 0,-0.0625 v -11.03125 c 0.01131,-0.521258 0.447492,-0.957441 0.96875,-0.96875 H 16.877893 c 0.235746,-0.05454 0.585603,-0.210099 0.71875,-0.34375 0.0888,-0.08914 0.130833,-0.126591 0.15625,-0.2187503 0.02542,-0.092159 0.02182,-0.2572786 -0.03125,-0.53125 -0.02893,-0.1493854 -0.05702,-0.2052131 -0.09375,-0.25 -0.03673,-0.044787 -0.09375,-0.082899 -0.21875,-0.15625 -0.205832,-0.1207835 -0.61263,-0.2610695 -1.0625,-0.4375 -0.461033,-0.1808081 -1.088521,-0.4943689 -1.375,-1.21875 -0.284716,-0.7199227 -0.108557,-1.5090979 0.3125,-2.40625 0.03504,-0.081924 0.06921,-0.1492774 0.125,-0.21875 1.034713,-1.2410854 2.605683,-1.8087504 4.128906,-2.0507813 0.145707,-0.059963 0.251018,-0.058907 0.402344,-0.1054687 0.595823,-0.115344 1.217839,-0.1491923 1.875,-0.125 z"
     sodipodi:nodetypes="sccssscccccccccccccccccssccccscccsccccscccccccscccccccccccccscscccccccccscccccccccccccccssscccccccccccssccccs" />
  <path
     inkscape:connector-curvature="0"
     style="fill:url(#7);fill-rule:evenodd;stroke-width:3.58500004"
     id="D"
     d="m 21.783527,3.3759659 c 1.704368,0.062743 3.616154,0.6339257 4.636021,1.8572119 1.483444,3.1607898 -2.120188,1.7013921 -2.54403,3.8896319 -0.42384,2.1882403 2.120026,2.3092503 2.120026,2.3092503 v 0 H 36.956596 V 22.5508 c 0.03052,0.350931 0.284244,2.379201 2.291729,1.99037 2.188239,-0.423841 0.728841,-4.02397 3.889632,-2.540525 1.032408,0.860731 1.600688,2.352487 1.790632,3.823053 0.003,0.02297 0.0077,0.04713 0.01051,0.07008 0.1084,0.517165 0.16333,1.108894 0.140168,1.73807 -0.06274,1.704368 -0.633925,3.616154 -1.857212,4.636019 -3.16079,1.483448 -1.701392,-2.120189 -3.889632,-2.544026 -2.188239,-0.423842 -2.30925,2.120025 -2.30925,2.120025 l -0.06658,10.957548 c 0,0 -10.999599,-0.08761 -10.999598,-0.08761 0,0 -2.543865,-0.121014 -2.120025,-2.309252 0.423841,-2.188237 4.023969,-0.728841 2.540525,-3.88963 -1.019869,-1.223286 -2.92815,-1.794469 -4.632517,-1.857211 -0.629175,-0.02316 -1.220905,0.03177 -1.738069,0.140168 -0.02295,0.0028 -0.04712,0.0075 -0.07008,0.01051 -1.470565,0.189942 -2.965829,0.758225 -3.826557,1.79063 -1.483443,3.160794 2.120188,1.701393 2.54403,3.889636 0.42384,2.188237 -2.120024,2.309246 -2.120024,2.309246 l -10.8979757,0.0035 c 0,0 0.07008,-11.01712 0.07008,-11.01712 0,0 0.121014,-2.543867 2.309251,-2.120025 2.1882427,0.423843 0.728842,4.027469 3.8896297,2.544031 1.223291,-1.019869 1.794469,-2.931656 1.857216,-4.636023 0.02316,-0.629176 -0.03177,-1.220904 -0.140167,-1.738069 -0.0028,-0.02295 -0.0075,-0.04712 -0.01051,-0.07008 C 13.421857,24.29355 12.85358,22.801791 11.821169,21.941061 11.228524,21.662916 10.797857,21.56215 10.47557,21.58714 9.0789753,21.695429 9.7094863,24.137217 7.9315393,24.481587 5.8898203,24.877048 5.6595693,22.761491 5.6363083,22.466688 V 11.432048 H 17.091448 c 0.718273,-0.166163 1.902251,-0.671879 1.601398,-2.2251381 -0.423839,-2.1882398 -4.023968,-0.7288409 -2.540525,-3.889632 0.860733,-1.0324064 2.35249,-1.6006871 3.823054,-1.7906322 0.02297,-0.00297 0.04713,-0.00773 0.07008,-0.010512 0.517165,-0.1083996 1.108894,-0.1633294 1.738069,-0.1401674 z" />
  <path
     inkscape:connector-curvature="0"
     style="opacity:0.8;fill:none;stroke:url(#8)"
     id="E"
     d="m 21.752893,3.8804947 c 1.593738,0.058671 3.366637,0.5975714 4.25,1.625 0.305113,0.6778812 0.306363,1.043756 0.25,1.1875 -0.05864,0.1495602 -0.248453,0.2673059 -0.59375,0.40625 -0.345297,0.1389441 -0.798863,0.2629764 -1.25,0.53125 -0.451137,0.2682736 -0.898624,0.7215195 -1.03125,1.40625 -0.123687,0.6385809 -0.02002,1.1998153 0.21875,1.6250003 0.238774,0.425185 0.617509,0.691877 0.96875,0.875 0.702482,0.366247 1.40625,0.40625 1.40625,0.40625 0.01041,3.3e-4 0.02084,3.3e-4 0.03125,0 h 10.46875 v 10.59375 c -3.3e-4,0.01041 -3.3e-4,0.02084 0,0.03125 0.01792,0.206055 0.07742,0.874077 0.46875,1.5 0.391326,0.625923 1.24082,1.194483 2.40625,0.96875 0.684946,-0.132667 1.140901,-0.579058 1.40625,-1.03125 0.26535,-0.452192 0.39582,-0.935925 0.53125,-1.28125 0.13543,-0.345325 0.261331,-0.505188 0.40625,-0.5625 0.139284,-0.05508 0.478258,-0.05516 1.15625,0.25 0.871676,0.747467 1.417152,2.101504 1.59375,3.46875 0.0078,0.05078 0.03125,0.09375 0.03125,0.09375 0.09755,0.465408 0.115721,1.028174 0.09375,1.625 -0.05867,1.593738 -0.597571,3.366639 -1.625,4.25 -0.677991,0.305166 -1.016967,0.305084 -1.15625,0.25 -0.144918,-0.05731 -0.27082,-0.217174 -0.40625,-0.5625 -0.13543,-0.345326 -0.2659,-0.829058 -0.53125,-1.28125 -0.26535,-0.452192 -0.721303,-0.898584 -1.40625,-1.03125 -0.63858,-0.123687 -1.199815,-0.02002 -1.625,0.21875 -0.425185,0.238774 -0.691877,0.617509 -0.875,0.96875 -0.366247,0.702482 -0.40625,1.40625 -0.40625,1.40625 -3.3e-4,0.01041 -3.3e-4,0.02084 0,0.03125 l -0.0625,10.4375 -10.46875,-0.0625 c 0,0 -0.03039,6.3e-5 -0.03125,0 -0.02973,-0.0022 -0.547164,-0.04516 -1,-0.28125 -0.232989,-0.121472 -0.411322,-0.286444 -0.53125,-0.5 -0.119928,-0.213556 -0.181983,-0.481961 -0.09375,-0.9375 0.07929,-0.409389 0.236254,-0.574578 0.53125,-0.75 0.294996,-0.175422 0.705035,-0.29976 1.125,-0.46875 0.419965,-0.16899 0.914332,-0.431477 1.125,-0.96875 0.210668,-0.537273 0.08476,-1.184799 -0.3125,-2.03125 -0.01719,-0.03353 -0.03816,-0.06499 -0.0625,-0.09375 -1.165763,-1.39828 -3.170412,-1.965049 -4.96875,-2.03125 -0.650576,-0.02395 -1.281978,0.04154 -1.84375,0.15625 -0.0095,0.0019 -0.02183,-0.002 -0.03125,0 -0.01462,0.0035 -0.01853,-0.0041 -0.03125,0 -1.549914,0.200191 -3.169524,0.785217 -4.15625,1.96875 -0.02434,0.02876 -0.04531,0.06022 -0.0625,0.09375 -0.397413,0.846772 -0.529144,1.495114 -0.3125,2.03125 0.216644,0.536136 0.701547,0.773109 1.125,0.9375 0.423453,0.164391 0.859376,0.2959 1.15625,0.46875 0.296874,0.17285 0.452212,0.341937 0.53125,0.75 0.08823,0.455538 0.02618,0.723944 -0.09375,0.9375 -0.119928,0.213556 -0.298261,0.378528 -0.53125,0.5 -0.452836,0.236092 -0.970269,0.27907 -1,0.28125 H 16.502893 6.1278933 l 0.09375,-10.46875 v -0.03125 c 0.0019,-0.03016 0.02088,-0.548974 0.25,-1 0.117934,-0.232158 0.290373,-0.412438 0.5,-0.53125 0.209627,-0.118812 0.481746,-0.182025 0.9375,-0.09375 0.409391,0.07929 0.574577,0.236255 0.75,0.53125 0.175423,0.294995 0.299761,0.705035 0.46875,1.125 0.168989,0.419965 0.431477,0.914332 0.9687497,1.125 0.537273,0.210668 1.184799,0.08476 2.03125,-0.3125 0.03353,-0.01719 0.06499,-0.03816 0.09375,-0.0625 1.398284,-1.165763 1.965044,-3.170415 2.03125,-4.96875 0.02392,-0.649799 -0.04237,-1.255428 -0.15625,-1.8125 -0.0032,-0.02245 0.0033,-0.01601 0,-0.03125 -0.0065,-0.03048 0.0056,-0.05095 0,-0.0625 -0.200311,-1.550793 -0.789723,-3.142035 -1.96875,-4.125 -0.02876,-0.02434 -0.06022,-0.04531 -0.09375,-0.0625 -0.638224,-0.299535 -1.146155,-0.440956 -1.59375,-0.40625 -0.4934577,0.03826 -0.9060397,0.356519 -1.1249997,0.6875 -0.21896,0.330981 -0.322252,0.676631 -0.4375,1 -0.115248,0.323369 -0.221874,0.611833 -0.375,0.8125 -0.153126,0.200667 -0.323267,0.310505 -0.65625,0.375 -0.857033,0.165999 -1.161139,-0.10738 -1.40625,-0.5 -0.238308,-0.381723 -0.301087,-0.877378 -0.3125,-1 v -0.03125 -10.5 H 17.096643 c 0.04285,-0.0049 0.08488,-0.01542 0.125,-0.03125 0.413877,-0.09575 0.959351,-0.270158 1.40625,-0.71875 0.446899,-0.448592 0.737757,-1.188924 0.5625,-2.0937503 -0.132667,-0.6849459 -0.579058,-1.1409002 -1.03125,-1.40625 -0.452192,-0.2653498 -0.935925,-0.3958202 -1.28125,-0.53125 -0.345325,-0.1354298 -0.505187,-0.2613309 -0.5625,-0.40625 -0.05508,-0.1392833 -0.05516,-0.478258 0.25,-1.15625 0.744402,-0.8672529 2.09489,-1.3850457 3.46875,-1.5625 0.04982,-0.024599 0.07704,-0.020942 0.113281,-0.039063 0.460334,-0.093489 1.020083,-0.1387375 1.605469,-0.117187 z"
     sodipodi:nodetypes="sccsssccccccccscsccccsccsscccccccccscsssccccccccsssccsccccccscssscccccccccssscscccccscssccccs" />
  <path
     inkscape:connector-curvature="0"
     style="opacity:0.6;fill:url(#9);fill-rule:evenodd;stroke-width:3.58500004"
     id="F"
     d="m 21.784143,3.3804947 c 1.704368,0.062743 3.605133,0.6204638 4.625,1.84375 1.483444,3.1607898 -2.107408,1.7180102 -2.53125,3.90625 -0.42384,2.1882403 2.125,2.3125003 2.125,2.3125003 h 10.96875 v 11.09375 c 0.03052,0.350931 0.273765,2.388831 2.28125,2 2.188239,-0.423841 0.71421,-4.014695 3.875,-2.53125 1.032408,0.860731 1.622556,2.341934 1.8125,3.8125 0.003,0.02297 -0.0028,0.03955 0,0.0625 0.1084,0.517164 0.148162,1.120824 0.125,1.75 -0.06274,1.704368 -0.620462,3.605135 -1.84375,4.625 -3.16079,1.483448 -1.68676,-2.107413 -3.875,-2.53125 -1.724847,-0.334088 -2.172057,1.126826 -2.28125,1.78125 C 27.043678,27.214206 16.012967,22.794827 5.6278933,18.942995 v -7.5 H 17.096643 c 0.718279,-0.166175 1.894603,-0.696741 1.59375,-2.2500003 -0.423839,-2.1882397 -4.014693,-0.7142089 -2.53125,-3.875 0.860734,-1.0324065 2.341936,-1.5913049 3.8125,-1.78125 0.02297,-0.00297 0.03955,-0.028468 0.0625,-0.03125 0.517166,-0.1083997 1.120825,-0.148162 1.75,-0.125 z" />
</svg>
