<?xml version="1.0" encoding="UTF-8" standalone="no"?>
<!-- Generator: Adobe Illustrator 21.0.2, SVG Export Plug-In . SVG Version: 6.00 Build 0)  -->

<svg
   xmlns:dc="http://purl.org/dc/elements/1.1/"
   xmlns:cc="http://creativecommons.org/ns#"
   xmlns:rdf="http://www.w3.org/1999/02/22-rdf-syntax-ns#"
   xmlns:svg="http://www.w3.org/2000/svg"
   xmlns="http://www.w3.org/2000/svg"
   xmlns:xlink="http://www.w3.org/1999/xlink"
   xmlns:sodipodi="http://sodipodi.sourceforge.net/DTD/sodipodi-0.dtd"
   xmlns:inkscape="http://www.inkscape.org/namespaces/inkscape"
   version="1.1"
   id="Ebene_1"
   x="0px"
   y="0px"
   viewBox="0 0 48 48"
   xml:space="preserve"
   sodipodi:docname="remotecontrol.svg"
   width="48"
   height="48"
   inkscape:version="0.92.3 (2405546, 2018-03-11)"><metadata
   id="metadata68"><rdf:RDF><cc:Work
       rdf:about=""><dc:format>image/svg+xml</dc:format><dc:type
         rdf:resource="http://purl.org/dc/dcmitype/StillImage" /><dc:title></dc:title></cc:Work></rdf:RDF></metadata><defs
   id="defs66">
	

		<defs
   id="defs5">
			<rect
   id="SVGID_1_"
   x="146"
   width="925"
   height="2208"
   y="0" />
		</defs>
		<clipPath
   id="SVGID_2_">
			<use
   xlink:href="#SVGID_1_"
   style="overflow:visible"
   id="use7"
   x="0"
   y="0"
   width="100%"
   height="100%" />
		</clipPath>
		
	
			<defs
   id="defs11">
				<rect
   y="0"
   height="2208"
   width="925"
   x="146"
   id="SVGID_3_" />
			</defs>
			<clipPath
   id="SVGID_4_">
				<use
   height="100%"
   width="100%"
   y="0"
   x="0"
   id="use13"
   style="overflow:visible"
   xlink:href="#SVGID_3_" />
			</clipPath>
		</defs><sodipodi:namedview
   pagecolor="#ffffff"
   bordercolor="#666666"
   borderopacity="1"
   objecttolerance="10"
   gridtolerance="10"
   guidetolerance="10"
   inkscape:pageopacity="0"
   inkscape:pageshadow="2"
   inkscape:window-width="1680"
   inkscape:window-height="987"
   id="namedview64"
   showgrid="true"
   inkscape:zoom="4.5685729"
   inkscape:cx="32.431715"
   inkscape:cy="34.988863"
   inkscape:window-x="-8"
   inkscape:window-y="-8"
   inkscape:window-maximized="1"
   inkscape:current-layer="Ebene_1"><inkscape:grid
     type="xygrid"
     id="grid857" /></sodipodi:namedview>
<rect
   style="opacity:1;fill:#727272;fill-opacity:1;fill-rule:nonzero;stroke:none;stroke-width:1.62044501;stroke-linecap:round;stroke-miterlimit:4;stroke-dasharray:none;stroke-dashoffset:0.83990926;stroke-opacity:1;paint-order:normal"
   id="rect1028"
   width="12"
   height="29"
   x="18.00906"
   y="16.00923"
   ry="0.99077034" /><path
   style="fill:#bc1e1e"
   inkscape:connector-curvature="0"
   id="path20"
   clip-path="url(#SVGID_4_)"
   d="m 726.3,141.5 c 0,62.6 -52.8,113.3 -117.8,113.3 -65,0 -117.8,-50.7 -117.8,-113.3 0,-62.6 52.8,-113.3 117.8,-113.3 65,0 117.8,50.7 117.8,113.3"
   class="st3"
   transform="matrix(0.01299256,0,0,0.01314239,16.094029,16.069275)" /><rect
   style="fill:#4bd113"
   id="rect22"
   clip-path="url(#SVGID_4_)"
   height="68"
   width="212.10001"
   class="st4"
   y="688.09998"
   x="833.90002"
   transform="matrix(0.01205092,0,0,0.01314239,16.481514,17.037708)" /><rect
   style="fill:#c2c61e"
   id="rect24"
   clip-path="url(#SVGID_4_)"
   height="68"
   width="212.10001"
   class="st5"
   y="688.09998"
   x="220.10001"
   transform="matrix(0.01205092,0,0,0.01314239,16.257089,17.037708)" /><rect
   style="fill:#1c50b7"
   id="rect26"
   clip-path="url(#SVGID_4_)"
   height="68"
   width="212.10001"
   class="st6"
   y="681.70001"
   x="515.59998"
   transform="matrix(0.01205092,0,0,0.01314239,16.513245,17.126096)" /><path
   style="fill:#4d4d4d"
   inkscape:connector-curvature="0"
   id="path28"
   clip-path="url(#SVGID_4_)"
   d="m 993.8,900.2 c 0,44.2 -37.2,80 -83.2,80 -45.9,0 -83.2,-35.8 -83.2,-80 0,-44.2 37.2,-80 83.2,-80 46,0.1 83.2,35.9 83.2,80"
   class="st7"
   transform="matrix(0.01299256,0,0,0.01314239,16.16032,17.148193)" /><path
   style="fill:#4d4d4d"
   inkscape:connector-curvature="0"
   id="path30"
   clip-path="url(#SVGID_4_)"
   d="m 409.3,900.2 c 0,44.2 -37.2,80 -83.2,80 -46,0 -83.2,-35.8 -83.2,-80 0,-44.2 37.2,-80 83.2,-80 46,0 83.2,35.9 83.2,80"
   class="st7"
   transform="matrix(0.01299256,0,0,0.01314239,15.828865,17.148193)" /><path
   style="fill:#4d4d4d"
   inkscape:connector-curvature="0"
   id="path32"
   clip-path="url(#SVGID_4_)"
   d="m 691.7,900.2 c 0,44.2 -37.2,80 -83.2,80 -46,0 -83.2,-35.8 -83.2,-80 0,-44.2 37.2,-80 83.2,-80 46,0 83.2,35.9 83.2,80"
   class="st7"
   transform="matrix(0.01299256,0,0,0.01314239,16.094029,17.148193)" /><path
   style="fill:#4d4d4d"
   inkscape:connector-curvature="0"
   id="path34"
   clip-path="url(#SVGID_4_)"
   d="M 946.6,2108.6 H 290.5 c -16.2,0 -29.4,-13 -29.4,-28.9 V 1053.6 c 0,-15.9 13.2,-28.9 29.4,-28.9 h 656.1 c 16.2,0 29.4,13 29.4,28.9 v 1026.1 c 0,15.9 -13.2,28.9 -29.4,28.9"
   class="st7"
   transform="matrix(0.0113512,0,0,0.01018744,17.045195,21.518772)" /><ellipse
   style="fill:none;stroke:#ffffff;stroke-width:2;stroke-miterlimit:10"
   id="ellipse36"
   clip-path="url(#SVGID_4_)"
   ry="63.599998"
   rx="66.199997"
   cy="139.60001"
   cx="608.5"
   class="st8"
   transform="matrix(0.01299256,0,0,0.01314239,16.094029,16.069275)" /><line
   style="fill:none;stroke:#ffffff;stroke-width:2;stroke-miterlimit:10"
   id="line38"
   clip-path="url(#SVGID_4_)"
   y2="38.799999"
   x2="608.5"
   y1="134.39999"
   x1="608.5"
   class="st8"
   transform="matrix(0.01299256,0,0,0.01314239,16.094029,16.069275)" /><rect
   style="fill:#4d4d4d"
   id="rect40"
   clip-path="url(#SVGID_4_)"
   height="45"
   width="153.5"
   class="st7"
   y="318.39999"
   x="220.10001"
   transform="matrix(0.01299256,0,0,0.01314239,16.094029,15.990833)" /><rect
   style="fill:#4d4d4d"
   id="rect42"
   clip-path="url(#SVGID_4_)"
   height="45"
   width="153.5"
   class="st7"
   y="318.39999"
   x="531.79999"
   transform="matrix(0.01299256,0,0,0.01314239,16.094029,15.990833)" /><rect
   style="fill:#4d4d4d"
   id="rect44"
   clip-path="url(#SVGID_4_)"
   height="45"
   width="153.5"
   class="st7"
   y="318.39999"
   x="833.90002"
   transform="matrix(0.01299256,0,0,0.01314239,16.094029,15.990833)" /><rect
   style="fill:#4d4d4d"
   id="rect46"
   clip-path="url(#SVGID_4_)"
   height="45"
   width="153.5"
   class="st7"
   y="420"
   x="220.10001"
   transform="matrix(0.01299256,0,0,0.01314239,16.094029,16.678333)" /><rect
   style="fill:#4d4d4d"
   id="rect48"
   clip-path="url(#SVGID_4_)"
   height="45"
   width="153.5"
   class="st7"
   y="420"
   x="531.79999"
   transform="matrix(0.01299256,0,0,0.01314239,16.094029,16.678333)" /><rect
   style="fill:#4d4d4d"
   id="rect50"
   clip-path="url(#SVGID_4_)"
   height="45"
   width="153.5"
   class="st7"
   y="420"
   x="833.90002"
   transform="matrix(0.01299256,0,0,0.01314239,16.094029,16.678333)" /><rect
   style="fill:#4d4d4d"
   id="rect52"
   clip-path="url(#SVGID_4_)"
   height="45"
   width="153.5"
   class="st7"
   y="523.79999"
   x="220.10001"
   transform="matrix(0.01299256,0,0,0.01314239,16.094029,17.287708)" /><rect
   style="fill:#4d4d4d"
   id="rect54"
   clip-path="url(#SVGID_4_)"
   height="45"
   width="153.5"
   class="st7"
   y="523.79999"
   x="531.79999"
   transform="matrix(0.01299256,0,0,0.01314239,16.094029,17.287708)" /><rect
   style="fill:#4d4d4d"
   id="rect56"
   clip-path="url(#SVGID_4_)"
   height="45"
   width="153.5"
   class="st7"
   y="523.79999"
   x="833.90002"
   transform="matrix(0.01299256,0,0,0.01314239,16.094029,17.287708)" />
<path
   style="opacity:1;fill:none;fill-opacity:1;fill-rule:nonzero;stroke:#bc1e1e;stroke-width:2.19968009;stroke-linecap:round;stroke-miterlimit:4;stroke-dasharray:none;stroke-dashoffset:0.83990926;stroke-opacity:1;paint-order:stroke fill markers"
   id="path876"
   sodipodi:type="arc"
   sodipodi:cx="-15.86346"
   sodipodi:cy="23.800125"
   sodipodi:rx="5.9980631"
   sodipodi:ry="7.0002241"
   sodipodi:start="5.4877716"
   sodipodi:end="0.8148993"
   d="m -11.664879,18.800892 a 5.9980631,7.0002241 0 0 1 1.7991978,5.067434 5.9980631,7.0002241 0 0 1 -1.8834568,5.025558"
   sodipodi:open="true"
   transform="rotate(-90)" /><path
   style="opacity:1;fill:none;fill-opacity:1;fill-rule:nonzero;stroke:#bc1e1e;stroke-width:2.19968009;stroke-linecap:round;stroke-miterlimit:4;stroke-dasharray:none;stroke-dashoffset:0.83990926;stroke-opacity:1;paint-order:stroke fill markers"
   id="path876-7"
   sodipodi:type="arc"
   sodipodi:cx="-13.858045"
   sodipodi:cy="23.917076"
   sodipodi:rx="9.9980001"
   sodipodi:ry="12.6"
   sodipodi:start="5.4877716"
   sodipodi:end="0.8148993"
   d="m -6.8595507,14.918745 a 9.9980001,12.6 0 0 1 2.9990317,9.121088 9.9980001,12.6 0 0 1 -3.1394807,9.045716"
   sodipodi:open="true"
   transform="rotate(-90)" /></svg>