<svg viewBox="0 0 16 16" xmlns="http://www.w3.org/2000/svg" xml:space="preserve" style="fill-rule:evenodd;clip-rule:evenodd;stroke-linecap:round;stroke-linejoin:round;stroke-miterlimit:1.5"><g transform="matrix(.16 0 0 .16 -340.479 0)"><path style="fill:none" d="M2128 0h100v100h-100z"/><clipPath id="a"><path d="M2128 0h100v100h-100z"/></clipPath><g clip-path="url(#a)"><g transform="matrix(6.25 0 0 6.25 -11434.5 -262.5)"><path d="M2170 58h16V48h-4v5h-5v4h-7v1Z" style="fill:silver"/><clipPath id="b"><path d="M2170 58h16V48h-4v5h-5v4h-7v1Z"/></clipPath><g clip-path="url(#b)"><path d="M2170 55h7v-4h5v-5h5" style="fill:none;stroke:#505050;stroke-width:.83px" transform="translate(0 2)"/></g></g><path d="M2196.4 48.779h-20.7a2.5 2.5 0 1 0 0 5 2.5 2.5 0 0 1 0-5h15.08" style="fill:none;stroke:#000;stroke-width:1.07px;stroke-linejoin:miter" transform="scale(4.84965) rotate(-30 1232.498 3261.066)"/><path d="M2178.54 44.932v8.179" style="fill:none;stroke:#000;stroke-width:.74px;stroke-linejoin:miter" transform="translate(-13130.4 -304.831) scale(7.03391)"/></g></g></svg>
