<?xml version="1.0" encoding="UTF-8" standalone="no"?>
<!-- Created with Sodipodi ("http://www.sodipodi.com/") -->

<svg
   xmlns:dc="http://purl.org/dc/elements/1.1/"
   xmlns:cc="http://creativecommons.org/ns#"
   xmlns:rdf="http://www.w3.org/1999/02/22-rdf-syntax-ns#"
   xmlns:svg="http://www.w3.org/2000/svg"
   xmlns="http://www.w3.org/2000/svg"
   xmlns:sodipodi="http://sodipodi.sourceforge.net/DTD/sodipodi-0.dtd"
   xmlns:inkscape="http://www.inkscape.org/namespaces/inkscape"
   id="svg637"
   sodipodi:version="0.32"
   width="102.60609"
   height="124.61005"
   sodipodi:docname="bank2.svg"
   inkscape:version="0.91 r13725"
   inkscape:output_extension="org.inkscape.output.svg.inkscape"
   version="1.1">
  <metadata
     id="metadata2259">
    <rdf:RDF>
      <cc:Work
         rdf:about="">
        <dc:format>image/svg+xml</dc:format>
        <dc:type
           rdf:resource="http://purl.org/dc/dcmitype/StillImage" />
        <cc:license
           rdf:resource="http://web.resource.org/cc/PublicDomain" />
        <dc:title></dc:title>
      </cc:Work>
      <cc:License
         rdf:about="http://web.resource.org/cc/PublicDomain">
        <cc:permits
           rdf:resource="http://web.resource.org/cc/Reproduction" />
        <cc:permits
           rdf:resource="http://web.resource.org/cc/Distribution" />
        <cc:permits
           rdf:resource="http://web.resource.org/cc/DerivativeWorks" />
      </cc:License>
    </rdf:RDF>
  </metadata>
  <defs
     id="defs639" />
  <sodipodi:namedview
     id="base"
     showgrid="true"
     snaptogrid="true"
     inkscape:zoom="2.1326341"
     inkscape:cx="88.526097"
     inkscape:cy="53.393095"
     inkscape:window-width="1680"
     inkscape:window-height="988"
     inkscape:window-x="-8"
     inkscape:window-y="-8"
     inkscape:current-layer="svg637"
     units="px"
     fit-margin-top="0"
     fit-margin-left="0"
     fit-margin-right="0"
     fit-margin-bottom="0"
     inkscape:window-maximized="1" />
  <path
     inkscape:connector-curvature="0"
     sodipodi:nodetypes="ccccccccc"
     id="path645-8"
     d="M 51.352947,0.20153197 0.32176197,54.109825 l 12.28579103,0 0,70.361755 77.490779,0 0,-70.361755 12.186428,0 L 51.352947,0.20153197 Z"
     style="font-size:12px;fill:#ffffff;fill-rule:evenodd;stroke:#ffffff;stroke-width:0.27694866" />
  <path
     sodipodi:nodetypes="cccccccccc"
     id="path645"
     d="m 51.353245,5.849877 -44.028782,45.18912 8.805697,0 0,67.783653 70.446164,0 0,-67.783653 8.805748,0 -44.028827,-45.18912 0,0 z"
     style="font-size:12px;fill-rule:evenodd;stroke:#000000;stroke-width:0.25177151"
     inkscape:connector-curvature="0" />
  <path
     style="font-weight:900;font-size:12px;font-family:'VAG Rounded Black SSi';fill:#ffffff;stroke-width:1pt"
     id="path828"
     d="m 49.138398,105.84399 0,-3.76215 c -2.671675,-0.19084 -5.397871,-0.55887 -8.178587,-1.10412 -2.780722,-0.54523 -5.275192,-1.526664 -7.483408,-2.944294 -2.180957,-1.44488 -3.271435,-3.36684 -3.271435,-5.7659 0,-1.79929 0.572499,-3.42137 1.717505,-4.86627 1.172266,-1.444875 2.603517,-2.167301 4.293756,-2.167301 0.736074,0 2.058277,0.408923 3.966618,1.226783 1.908333,0.817848 3.462263,1.431248 4.661789,1.840178 1.226792,0.40893 2.658044,0.61339 4.293762,0.61339 l 0,-13.126626 c -3.48953,-1.063219 -6.420191,-2.167328 -8.791983,-3.312327 -2.371792,-1.172265 -4.293755,-2.453579 -5.765904,-3.84394 -1.472143,-1.417622 -2.53536,-2.944291 -3.189646,-4.580007 -0.627028,-1.635718 -0.94054,-3.448635 -0.94054,-5.438762 0,-2.780716 0.490717,-5.316076 1.472148,-7.60608 0.981431,-2.317271 2.317264,-4.307393 4.00751,-5.97037 1.717498,-1.690244 3.721254,-3.039708 6.011259,-4.048399 2.290004,-1.00869 4.689056,-1.608456 7.197156,-1.799292 l 0,-3.966612 c 0,-1.662977 0.831486,-2.49447 2.49447,-2.49447 1.690237,0 2.53536,0.831493 2.53536,2.49447 l 0,3.966612 c 2.044647,0.05453 4.211975,0.36804 6.501978,0.94054 2.317265,0.545238 4.280126,1.472142 5.888582,2.780716 1.608451,1.308573 2.412683,3.053338 2.412683,5.234294 0,1.063218 -0.245364,2.099176 -0.736074,3.107868 -0.463452,0.981429 -1.131369,1.772024 -2.003751,2.37179 -0.845123,0.59976 -1.799293,0.899644 -2.862511,0.899644 -0.654287,0 -1.444882,-0.204466 -2.371785,-0.613396 -0.899649,-0.408925 -1.717505,-0.804227 -2.453579,-1.185897 -0.736075,-0.408924 -1.458512,-0.736067 -2.167326,-0.981431 -0.708808,-0.272615 -1.444882,-0.408923 -2.208217,-0.408923 l 0,11.981629 c 5.697746,1.55393 10.264125,3.748516 13.699134,6.58376 3.46226,2.835243 5.1934,6.910903 5.1934,12.226986 0,3.162385 -0.586127,5.983993 -1.758397,8.464833 -1.144999,2.45358 -2.658038,4.51186 -4.539118,6.17484 -1.853813,1.6357 -3.884824,2.88976 -6.093041,3.762154 -2.208223,0.87239 -4.375549,1.39036 -6.501978,1.55393 l 0,3.76215 c 0,1.66298 -0.845123,2.49446 -2.53536,2.49446 -1.662984,0 -2.49447,-0.83148 -2.49447,-2.49446 z m 0,-44.041692 0,-10.46859 c -1.363102,0.299876 -2.480839,0.940533 -3.353222,1.921962 -0.845122,0.954172 -1.267684,2.180958 -1.267684,3.680367 0,1.254053 0.422562,2.290003 1.267684,3.107866 0.872383,0.817855 1.99012,1.403984 3.353222,1.758395 z m 5.02983,15.293955 0,11.818053 c 1.335834,0 2.467209,-0.58613 3.394112,-1.7584 0.95417,-1.172254 1.431252,-2.508093 1.431252,-4.007501 0,-1.7175 -0.40893,-3.026073 -1.226786,-3.925724 -0.790595,-0.926903 -1.990122,-1.635716 -3.598578,-2.126428 z"
     inkscape:connector-curvature="0" />
</svg>
