<?xml version="1.0" encoding="UTF-8" standalone="no"?>
<svg
   xmlns:dc="http://purl.org/dc/elements/1.1/"
   xmlns:cc="http://creativecommons.org/ns#"
   xmlns:rdf="http://www.w3.org/1999/02/22-rdf-syntax-ns#"
   xmlns:svg="http://www.w3.org/2000/svg"
   xmlns="http://www.w3.org/2000/svg"
   xmlns:sodipodi="http://sodipodi.sourceforge.net/DTD/sodipodi-0.dtd"
   xmlns:inkscape="http://www.inkscape.org/namespaces/inkscape"
   height="473.94705"
   id="svg2818"
   inkscape:version="0.91 r13725"
   sodipodi:docname="exchange2.svg"
   sodipodi:version="0.32"
   width="509.77814"
   version="1.1">
  <metadata
     id="metadata3">
    <rdf:RDF>
      <cc:Work
         rdf:about="">
        <dc:title></dc:title>
        <dc:description>EPS converted from  http://aiga.org</dc:description>
        <dc:subject>
          <rdf:Bag>
            <rdf:li>symbol</rdf:li>
            <rdf:li>mapsym</rdf:li>
          </rdf:Bag>
        </dc:subject>
        <dc:publisher>
          <cc:Agent
             rdf:about="http://www.openclipart.org/">
            <dc:title>Open Clip Art Library</dc:title>
          </cc:Agent>
        </dc:publisher>
        <dc:creator>
          <cc:Agent>
            <dc:title>Jean-Victor Balin</dc:title>
          </cc:Agent>
        </dc:creator>
        <dc:rights>
          <cc:Agent>
            <dc:title>Jean-Victor Balin</dc:title>
          </cc:Agent>
        </dc:rights>
        <dc:date />
        <dc:format>image/svg+xml</dc:format>
        <dc:type
           rdf:resource="http://purl.org/dc/dcmitype/StillImage" />
        <cc:license
           rdf:resource="http://web.resource.org/cc/PublicDomain" />
        <dc:language>en</dc:language>
      </cc:Work>
      <cc:License
         rdf:about="http://web.resource.org/cc/PublicDomain">
        <cc:permits
           rdf:resource="http://web.resource.org/cc/Reproduction" />
        <cc:permits
           rdf:resource="http://web.resource.org/cc/Distribution" />
        <cc:permits
           rdf:resource="http://web.resource.org/cc/DerivativeWorks" />
      </cc:License>
    </rdf:RDF>
  </metadata>
  <sodipodi:namedview
     bordercolor="#666666"
     borderopacity="1.0"
     id="base"
     inkscape:current-layer="svg2818"
     inkscape:cx="198.53756"
     inkscape:cy="388.77381"
     inkscape:pageopacity="0.0"
     inkscape:pageshadow="2"
     inkscape:window-height="988"
     inkscape:window-width="1680"
     inkscape:window-x="-8"
     inkscape:window-y="-8"
     inkscape:zoom="0.61399264"
     pagecolor="#ffffff"
     showgrid="false"
     fit-margin-top="0"
     fit-margin-left="0"
     fit-margin-right="0"
     fit-margin-bottom="0"
     inkscape:window-maximized="1" />
  <defs
     id="defs2820">
    <marker
       id="ArrowEnd"
       markerHeight="3"
       markerUnits="strokeWidth"
       markerWidth="4"
       orient="auto"
       refX="0"
       refY="5"
       viewBox="0 0 10 10">
      <path
         d="M 0,0 10,5 0,10 Z"
         id="path2823"
         inkscape:connector-curvature="0" />
    </marker>
    <marker
       id="ArrowStart"
       markerHeight="3"
       markerUnits="strokeWidth"
       markerWidth="4"
       orient="auto"
       refX="10"
       refY="5"
       viewBox="0 0 10 10">
      <path
         d="M 10,0 0,5 10,10 Z"
         id="path2826"
         inkscape:connector-curvature="0" />
    </marker>
  </defs>
  <rect
     style="opacity:1;fill:#ffffff;fill-opacity:1;stroke:none;stroke-width:0.51300001;stroke-linecap:square;stroke-linejoin:miter;stroke-miterlimit:4;stroke-dasharray:none;stroke-dashoffset:0.60000002;stroke-opacity:1"
     id="rect4182"
     width="509.77814"
     height="473.94705"
     x="0"
     y="0" />
  <g
     id="g2828"
     transform="translate(-167.75446,-164.86211)">
    <g
       id="g2830">
      <path
         d="m 623.795,399.016 0,-178.901 -403.68,0 0,178.901 403.68,0 z"
         id="path2832"
         style="fill:none;stroke:#000000;stroke-width:42"
         inkscape:connector-curvature="0" />
      <path
         d="M 421.954,309.565"
         id="path2834"
         style="fill:none;stroke:#000000;stroke-width:42"
         inkscape:connector-curvature="0" />
    </g>
    <path
       d="M 478.562,557.236"
       id="path2836"
       style="fill:#000000;stroke:#000000;stroke-width:1.85899997"
       inkscape:connector-curvature="0" />
    <g
       id="g2838">
      <g
         id="g2840">
        <path
           d="m 423.484,367.158 c 31.436,0 56.922,-25.486 56.922,-56.922 0,-31.436 -25.486,-56.922 -56.922,-56.922 -31.436,0 -56.922,25.486 -56.922,56.922 0,31.436 25.486,56.922 56.922,56.922 z"
           id="path2842"
           style="fill:#000000;stroke:#000000;stroke-width:1.85899997"
           inkscape:connector-curvature="0" />
        <path
           d="M 423.484,310.236"
           id="path2844"
           style="fill:#000000;stroke:#000000;stroke-width:1.85899997"
           inkscape:connector-curvature="0" />
      </g>
      <g
         id="g2846">
        <path
           d="m 392.543,320.323 14.865,0 c 0.941,4.289 2.179,9.476 8.95,11.401 l -0.018,-16.849 c -9.273,-1.333 -22.65,-5.399 -22.65,-20.312 0,-16.764 18.547,-21.991 22.668,-21.991 l 0,-10.137 13.98,0 0,10.137 c 9.427,0.546 23.109,8.426 23.109,23.406 l -14.719,0 c -0.374,-4.447 -3.821,-8.816 -8.243,-9.128 l 0,15.448 c 11.238,1.153 24.434,5.442 24.434,20.542 0,13.185 -13.247,22.801 -24.434,23.393 l 0,10.162 -14.127,0 0,-10.31 c -8.095,-1.184 -22.896,-8.989 -23.815,-25.762 z"
           id="path2848"
           style="fill:#ffffff;stroke:none"
           inkscape:connector-curvature="0" />
        <g
           id="g2850">
          <path
             d="m 416.431,287.003 0,12.799 c -9.963,-0.156 -10.157,-11.023 0,-12.799 z"
             id="path2852"
             style="fill:#000000;stroke:none"
             inkscape:connector-curvature="0" />
          <g
             id="g2854">
            <path
               d="m 430.649,317.278 c 12.328,0.312 13.7,12.561 -0.014,14.52"
               id="path2856"
               style="fill:#000000;stroke:none"
               inkscape:connector-curvature="0" />
            <path
               d="m 430.635,331.798 0.014,-14.52"
               id="path2858"
               style="fill:#000000;stroke:none"
               inkscape:connector-curvature="0" />
          </g>
        </g>
      </g>
    </g>
    <g
       id="g2860">
      <g
         id="g2862">
        <path
           d="m 516.758,466.408 c 31.436,0 56.922,-25.486 56.922,-56.922 0,-31.437 -25.486,-56.923 -56.922,-56.923 -31.437,0 -56.923,25.486 -56.923,56.923 0,31.436 25.486,56.922 56.923,56.922 z"
           id="path2864"
           style="fill:#000000;stroke:#000000;stroke-width:1.85899997"
           inkscape:connector-curvature="0" />
        <path
           d="M 516.758,409.486"
           id="path2866"
           style="fill:#000000;stroke:#000000;stroke-width:1.85899997"
           inkscape:connector-curvature="0" />
      </g>
      <path
         d="m 543.053,432.234 0,12.271 -52.718,0 0,-12.271 c 5.99,-4.012 9.106,-14.159 7.189,-19.588 l -11.023,0 0,-12.506 8.865,0 c -2.396,-5.663 -2.396,-7.551 -2.396,-12.507 0,-4.955 4.075,-21.113 25.4,-21.001 19.638,0.104 25.338,16.284 25.338,27.845 l -14.95,0.009 c -1,-7 -3.75,-12.75 -10.25,-12.75 -9.944,0 -9.961,6.251 -9.961,8.376 0,2.123 0.358,7.314 2.396,10.147 l 12.94,0 0,12.27 -10.544,0 c 1.317,11.21 -5.152,15.929 -5.512,19.705 l 35.226,0 z"
         id="path2868"
         style="fill:#ffffff;stroke:none"
         inkscape:connector-curvature="0" />
    </g>
    <g
       id="g2870">
      <g
         id="g2872">
        <path
           d="m 478.758,614.408 c 31.436,0 56.922,-25.486 56.922,-56.922 0,-31.437 -25.486,-56.923 -56.922,-56.923 -31.437,0 -56.922,25.486 -56.922,56.923 0,31.436 25.485,56.922 56.922,56.922 z"
           id="path2874"
           style="fill:#000000;stroke:#000000;stroke-width:1.85899997"
           inkscape:connector-curvature="0" />
        <path
           d="M 478.758,557.486"
           id="path2876"
           style="fill:#000000;stroke:#000000;stroke-width:1.85899997"
           inkscape:connector-curvature="0" />
      </g>
      <path
         d="m 446.766,522.577 16.535,0 15.336,27.067 16.64,-27.067 15.229,0 -24.68,43.648 18.45,0 0,13.898 -17.732,0 0,19.508 -15.096,0 0,-19.508 -18.931,0 0,-13.655 19.17,0 -24.921,-43.891 z"
         id="path2878"
         style="fill:#ffffff;stroke:none"
         inkscape:connector-curvature="0" />
    </g>
    <g
       id="g2880">
      <g
         id="g2882">
        <path
           d="m 299.258,549.908 c 31.437,0 56.923,-25.486 56.923,-56.922 0,-31.437 -25.486,-56.923 -56.923,-56.923 -31.436,0 -56.922,25.486 -56.922,56.923 0,31.436 25.486,56.922 56.922,56.922 z"
           id="path2884"
           style="fill:#000000;stroke:#000000;stroke-width:1.85899997"
           inkscape:connector-curvature="0" />
        <path
           d="M 299.258,492.986"
           id="path2886"
           style="fill:#000000;stroke:#000000;stroke-width:1.85899997"
           inkscape:connector-curvature="0" />
      </g>
      <g
         id="g2888">
        <path
           d="m 304.973,482.13 14.378,0 0,7.189 c 3.116,-3.596 6.709,-7.43 14.377,-7.43 l 0,13.66 c -11.72,1.437 -14.377,7.687 -14.377,15.437 l 0,17.152 -14.378,0 0,-46.008 z"
           id="path2890"
           style="fill:#ffffff;stroke:none"
           inkscape:connector-curvature="0" />
        <path
           d="m 301.067,482.13 0,13.538 -10.221,0 0,32.47 -14.497,0 0,-32.35 -8.626,0 0,-13.539 8.626,0 0,-12.1 c 0,-4.673 4.552,-18.932 21.685,-18.932 17.492,0 21.224,13.769 21.224,25.281 l -14.25,0 c 0,-7.387 -1,-11.263 -6.855,-11.263 -6.27,0 -7.307,4.313 -7.307,11.144 l 0,5.751 10.221,0 z"
           id="path2892"
           style="fill:#ffffff;stroke:none"
           inkscape:connector-curvature="0" />
      </g>
    </g>
  </g>
</svg>
