<?xml version="1.0" encoding="UTF-8" standalone="no"?>
<!-- Created with Inkscape (http://www.inkscape.org/) -->

<svg
   xmlns:dc="http://purl.org/dc/elements/1.1/"
   xmlns:cc="http://creativecommons.org/ns#"
   xmlns:rdf="http://www.w3.org/1999/02/22-rdf-syntax-ns#"
   xmlns:svg="http://www.w3.org/2000/svg"
   xmlns="http://www.w3.org/2000/svg"
   xmlns:sodipodi="http://sodipodi.sourceforge.net/DTD/sodipodi-0.dtd"
   xmlns:inkscape="http://www.inkscape.org/namespaces/inkscape"
   version="1.0"
   width="344.12"
   height="344.51999"
   id="svg2"
   sodipodi:version="0.32"
   inkscape:version="0.91 r13725"
   sodipodi:docname="kindergarten.svg"
   inkscape:output_extension="org.inkscape.output.svg.inkscape">
  <metadata
     id="metadata12">
    <rdf:RDF>
      <cc:Work
         rdf:about="">
        <dc:format>image/svg+xml</dc:format>
        <dc:type
           rdf:resource="http://purl.org/dc/dcmitype/StillImage" />
        <cc:license
           rdf:resource="http://creativecommons.org/publicdomain/zero/1.0/" />
        <dc:title></dc:title>
      </cc:Work>
      <cc:License
         rdf:about="http://creativecommons.org/publicdomain/zero/1.0/">
        <cc:permits
           rdf:resource="http://creativecommons.org/ns#Reproduction" />
        <cc:permits
           rdf:resource="http://creativecommons.org/ns#Distribution" />
        <cc:permits
           rdf:resource="http://creativecommons.org/ns#DerivativeWorks" />
      </cc:License>
    </rdf:RDF>
  </metadata>
  <sodipodi:namedview
     inkscape:window-height="988"
     inkscape:window-width="1680"
     inkscape:pageshadow="2"
     inkscape:pageopacity="0.0"
     guidetolerance="10.0"
     gridtolerance="10.0"
     objecttolerance="10.0"
     borderopacity="1.0"
     bordercolor="#666666"
     pagecolor="#ffffff"
     id="base"
     showgrid="false"
     inkscape:zoom="0.6879914"
     inkscape:cx="198.30586"
     inkscape:cy="334.3065"
     inkscape:window-x="-8"
     inkscape:window-y="-8"
     inkscape:current-layer="svg2"
     inkscape:window-maximized="1" />
  <defs
     id="defs11">
    <inkscape:perspective
       sodipodi:type="inkscape:persp3d"
       inkscape:vp_x="0 : 335.76001 : 1"
       inkscape:vp_y="0 : 1000 : 0"
       inkscape:vp_z="753.12 : 335.76001 : 1"
       inkscape:persp3d-origin="376.56 : 223.84001 : 1"
       id="perspective14" />
  </defs>
  <rect
     style="opacity:1;fill:#ffffff;fill-opacity:1;stroke:none;stroke-width:1.10000002;stroke-linecap:round;stroke-linejoin:miter;stroke-miterlimit:4;stroke-dasharray:none;stroke-dashoffset:0.60000002;stroke-opacity:1"
     id="rect4137"
     width="344.12"
     height="344.51999"
     x="0"
     y="-9.8632813e-007" />
  <path
     d="m 245.65209,60.332072 c 0,14.79633 -11.9948,26.79113 -26.79112,26.79113 -14.79634,0 -26.79113,-11.9948 -26.79113,-26.79113 0,-14.79634 11.99479,-26.79112 26.79113,-26.79112 14.79632,0 26.79112,11.99478 26.79112,26.79112 z"
     style="opacity:1;fill:#000000;fill-opacity:1;fill-rule:nonzero;stroke:none;stroke-width:7;stroke-linecap:round;stroke-linejoin:round;stroke-miterlimit:4;stroke-dasharray:none;stroke-dashoffset:0;stroke-opacity:1"
     id="path5681"
     inkscape:connector-curvature="0" />
  <path
     d="m 68.975261,308.74492 -5.17213,-117.80968 -32.75684,26.43535 c -7.16156,-0.56763 -14.7311,-0.57428 -18.61329,-5.65104 l 51.17857,-49.99727 c 11.6192,3.25298 22.60625,2.2916 32.94839,-2.96919 l 36.779609,7.47086 17.81512,36.7796 c -5.51414,1.04564 -8.44572,6.19298 -20.68853,-3.44809 l -9.1949,-18.3898 -14.94171,-0.57468 13.21767,52.87068 34.48088,4.02277 c 9.1748,1.12084 9.74583,9.32715 12.06831,16.09108 l -55.74409,0.57468 -9.76959,-13.79235 -16.091079,4.59745 0.57469,52.87069 c -4.81424,7.48579 -10.44424,9.26135 -16.09108,10.91894 z"
     style="fill:#000000;fill-opacity:1;fill-rule:evenodd;stroke:none;stroke-width:1px;stroke-linecap:butt;stroke-linejoin:miter;stroke-opacity:1"
     id="path5675"
     inkscape:connector-curvature="0" />
  <path
     d="m 120.18778,142.59355 c 7.2242,-2.25756 80.36919,-47.408788 80.36919,-47.408788 17.07423,9.550968 31.45487,2.55559 45.60274,-5.86966 l 45.60275,14.448388 23.93015,46.95728 c -9.38939,4.96278 -18.57808,3.70403 -27.54225,-4.51512 l -12.19083,-24.38167 -25.28469,-8.57873 6.32117,58.6966 20.31805,49.21484 45.60275,19.86654 c 11.33556,12.73831 7.09452,19.08434 5.86966,27.54226 l -67.27534,-27.09074 c -3.52449,-0.65817 -4.8229,-4.65547 -6.77268,-7.67571 l -21.22108,-49.66636 -22.57562,110.16901 -25.28469,13.54537 21.67259,-125.52043 -5.86966,-59.59962 -56.43903,31.15435 c -14.57082,2.25688 -19.83399,-4.38922 -24.83318,-11.28781 z"
     style="fill:#000000;fill-opacity:1;fill-rule:evenodd;stroke:none;stroke-width:1px;stroke-linecap:butt;stroke-linejoin:miter;stroke-opacity:1"
     id="path5677"
     inkscape:connector-curvature="0" />
  <path
     d="m 100.85158,130.49687 c 0,13.03481 -10.566799,23.60161 -23.601599,23.60161 -13.03481,0 -23.60161,-10.5668 -23.60161,-23.60161 0,-13.03481 10.5668,-23.6016 23.60161,-23.6016 13.0348,0 23.601599,10.56679 23.601599,23.6016 z"
     style="opacity:1;fill:#000000;fill-opacity:1;fill-rule:nonzero;stroke:none;stroke-width:7;stroke-linecap:round;stroke-linejoin:round;stroke-miterlimit:4;stroke-dasharray:none;stroke-dashoffset:0;stroke-opacity:1"
     id="path5679"
     inkscape:connector-curvature="0" />
</svg>
