<svg enable-background="new 0 0 512 512" viewBox="0 0 512 512" xmlns="http://www.w3.org/2000/svg">
    <path d="m422.543 360.666-85.865-85.866c-5.077-5.077-13.308-5.077-18.385 0l-14.968 14.968-4.177-4.177 34.151-34.151c11.065-11.065 11.068-28.978 0-40.045l-12.971-12.971 2.872-2.872c27.439 18.749 65.054 15.817 89.197-8.325 5.077-5.077 5.077-13.308 0-18.385l-31.246-31.246 17.233-17.233c5.077-5.077 5.077-13.308 0-18.385s-13.309-5.077-18.385 0l-17.233 17.233-31.241-31.241c-5.073-5.073-13.309-5.076-18.385 0-24.75 24.75-26.679 62.469-8.337 89.209l-2.86 2.86-12.972-12.972c-11.041-11.041-29.004-11.04-40.045 0l-34.145 34.145-4.177-4.177 14.961-14.961c5.077-5.077 5.077-13.308 0-18.385l-42.93-42.93c-.001-.001-.002-.002-.002-.003s-.002-.002-.003-.002l-42.93-42.93c-5.074-5.073-13.309-5.076-18.385 0l-48.312 48.312c-5.077 5.077-5.077 13.308 0 18.385l85.865 85.865c5.074 5.074 13.309 5.076 18.385 0l14.966-14.966 4.177 4.177-34.15 34.15c-11.041 11.041-11.041 29.005 0 40.045l12.972 12.972-28.447 28.447c-11.153-4.153-24.211-1.763-33.162 7.188-12.227 12.228-12.227 32.124 0 44.352 12.226 12.227 32.124 12.229 44.353 0 8.949-8.949 11.34-22.002 7.191-33.153l28.45-28.45 12.971 12.971c11.066 11.066 28.978 11.067 40.045 0l34.144-34.144 4.177 4.177-14.96 14.96c-5.077 5.077-5.077 13.308 0 18.385l43.434 43.434.005.005s.003.003.005.005l42.422 42.422c5.077 5.077 13.308 5.077 18.385 0l48.312-48.312c5.077-5.077 5.077-13.309 0-18.385zm-98.842-243.753 59.74 59.74c-16.691 8.823-37.885 6.217-51.915-7.813-14.233-14.233-16.564-35.471-7.825-51.927zm-131.481 61.736-24.548-24.548 5.769-5.769 24.548 24.548zm-37.164-48.701-5.769 5.769-24.548-24.548 5.769-5.769zm-48.702-.394 24.548 24.548-5.774 5.774-24.548-24.548zm61.707 73.254-24.548-24.548 5.774-5.774 24.548 24.548zm-28.483 165.558c-2.092 2.092-5.487 2.096-7.583 0-2.091-2.091-2.091-5.493 0-7.583 2.092-2.092 5.487-2.096 7.583 0 2.092 2.092 2.096 5.487 0 7.583zm88.657-48.632c-.907.907-2.369.907-3.276 0l-22.161-22.161c-.001-.001-.002-.002-.002-.003s-.002-.002-.003-.002l-22.162-22.162c-.903-.903-.903-2.373 0-3.276l86.68-86.68c.907-.907 2.369-.907 3.276 0l44.328 44.329c.902.902.909 2.365 0 3.275l-43.341 43.341c-.001.001-.002.002-.003.002s-.002.002-.002.003zm160.956 55.899-24.042-24.042 5.775-5.775 24.042 24.042zm-61.705-73.256 25.054 25.054-5.775 5.775-25.054-25.054zm-24.16 24.16 25.054 25.054-5.767 5.767-25.054-25.054zm37.671 49.206 5.767-5.767 24.042 24.042-5.767 5.767z" fill="#727272"/>
</svg>