<svg enable-background="new 0 0 34 34" height="34" viewBox="0 0 34 34" width="34" xmlns="http://www.w3.org/2000/svg"><path d="m17.123 9.2c-1.44 0-2.642.503-3.604 1.32s-1.525 1.48-1.687 3.48h2.937c.064-1 .303-1.231.716-1.611s.926-.618 1.541-.618 1.116.174 1.504.571c.389.396.583.882.583 1.48s-.187 1.094-.558 1.499l-1.772 1.769c-.518.518-.626.934-.78 1.249s-.003.794-.003 1.441v1.22h2v-.832c0-.646.289-1.148.581-1.504.112-.129.333-.287.521-.473.186-.187.448-.405.715-.656.267-.25.5-.457.662-.619.161-.161.404-.437.712-.825.533-.647.805-1.456.805-2.427 0-1.408-.45-2.503-1.356-3.289-.908-.783-2.077-1.175-3.517-1.175z"/><path d="m16.94 22.145c-.51 0-.946.179-1.311.534-.364.356-.546.78-.546 1.274 0 .493.186.914.558 1.262s.813.521 1.322.521c.51 0 .947-.178 1.311-.533.363-.356.546-.781.546-1.274s-.187-.914-.559-1.263c-.37-.348-.811-.521-1.321-.521z"/></svg>