<?xml version="1.0" encoding="UTF-8" standalone="no"?>
<!-- Created with Inkscape (http://www.inkscape.org/) -->

<svg
   xmlns:dc="http://purl.org/dc/elements/1.1/"
   xmlns:cc="http://creativecommons.org/ns#"
   xmlns:rdf="http://www.w3.org/1999/02/22-rdf-syntax-ns#"
   xmlns:svg="http://www.w3.org/2000/svg"
   xmlns="http://www.w3.org/2000/svg"
   xmlns:sodipodi="http://sodipodi.sourceforge.net/DTD/sodipodi-0.dtd"
   xmlns:inkscape="http://www.inkscape.org/namespaces/inkscape"
   width="24"
   height="24"
   viewBox="0 0 24 24"
   id="svg2"
   version="1.1"
   inkscape:version="0.92.3 (2405546, 2018-03-11)"
   sodipodi:docname="validator.svg">
  <defs
     id="defs4">
    <linearGradient
       id="a"
       x1="24.200001"
       x2="24.200001"
       y1="1"
       y2="47.200001"
       gradientUnits="userSpaceOnUse"
       gradientTransform="matrix(0.5,0,0,0.5,0,1029.3622)">
      <stop
         offset="0"
         stop-color="#28627d"
         id="stop4" />
      <stop
         offset=".7"
         stop-color="#0c465f"
         id="stop6" />
      <stop
         offset="1"
         stop-color="#003952"
         id="stop8" />
    </linearGradient>
  </defs>
  <sodipodi:namedview
     id="base"
     pagecolor="#ffffff"
     bordercolor="#666666"
     borderopacity="1.0"
     inkscape:pageopacity="0.0"
     inkscape:pageshadow="2"
     inkscape:zoom="22.411789"
     inkscape:cx="11.292188"
     inkscape:cy="14.060409"
     inkscape:document-units="px"
     inkscape:current-layer="layer1"
     showgrid="true"
     units="px"
     inkscape:window-width="1680"
     inkscape:window-height="987"
     inkscape:window-x="-8"
     inkscape:window-y="-8"
     inkscape:window-maximized="1"
     viewbox-height="16">
    <inkscape:grid
       type="xygrid"
       id="grid4136"
       originx="0"
       originy="0"
       spacingx="1"
       spacingy="1" />
  </sodipodi:namedview>
  <metadata
     id="metadata7">
    <rdf:RDF>
      <cc:Work
         rdf:about="">
        <dc:format>image/svg+xml</dc:format>
        <dc:type
           rdf:resource="http://purl.org/dc/dcmitype/StillImage" />
        <dc:title></dc:title>
        <cc:license
           rdf:resource="http://creativecommons.org/publicdomain/zero/1.0/" />
      </cc:Work>
      <cc:License
         rdf:about="http://creativecommons.org/publicdomain/zero/1.0/">
        <cc:permits
           rdf:resource="http://creativecommons.org/ns#Reproduction" />
        <cc:permits
           rdf:resource="http://creativecommons.org/ns#Distribution" />
        <cc:permits
           rdf:resource="http://creativecommons.org/ns#DerivativeWorks" />
      </cc:License>
    </rdf:RDF>
  </metadata>
  <g
     inkscape:label="Layer 1"
     inkscape:groupmode="layer"
     id="layer1"
     transform="translate(0,-1029.3622)">
    <path
       inkscape:connector-curvature="0"
       style="fill:url(#a);stroke-width:0.5"
       d="m 10.05,1052.9622 a 45.1,45.1 0 0 0 -9.6,-8.6 l 4.5,-3.2 a 17.5,17.5 0 0 1 4.45,5.05 l 0.25,0.45 0.2,-0.45 c 1.45,-3.05 7.65,-12.5 13.2,-16.35 -0.2,2.15 0,4.3 0.65,6.75 -5.8,3.5 -12.45,14.35 -13.65,16.35 z"
       id="path11" />
    <path
       inkscape:connector-curvature="0"
       style="fill:#003952;stroke-width:0.5"
       d="m 22.75,1030.4122 c -0.15,1.95 0.1,3.95 0.65,6.1 -5.55,3.45 -11.85,13.45 -13.4,16 a 44.75,44.75 0 0 0 -9.1,-8.15 l 4.05,-2.85 a 17.5,17.5 0 0 1 4.25,4.85 l 0.45,0.85 0.4,-0.9 c 1.45,-2.95 7.3,-11.9 12.7,-15.9 m 0.6,-1.05 c -5.65,3.65 -12.2,13.5 -13.75,16.7 a 18.9,18.9 0 0 0 -4.65,-5.25 l -4.95,3.55 a 46.55,46.55 0 0 1 10.1,9 c 0,0 7.6,-13 13.9,-16.65 a 18,18 0 0 1 -0.65,-7.35 z"
       id="path13" />
    <path
       inkscape:connector-curvature="0"
       style="fill:#2286b3;stroke-width:0.5"
       d="m 9.7,1047.1622 a 49.25,49.25 0 0 1 13.05,-16.7 c -3.15,2.05 -10.5,12.4 -13.05,16.7 z m -4.7,-5.7 c -0.3,0.6 -3.15,2.7 -4.1,2.85 0.5,-0.45 3.5,-2.55 4.1,-2.85 z"
       id="path15" />
  </g>
</svg>
