<?xml version="1.0" encoding="UTF-8"?>
<svg xmlns="http://www.w3.org/2000/svg" version="1.1" viewBox="0 0 1800 600" width="402px" height="134px">
<defs>
  <mask maskUnits="objectBoundingBox" maskContentUnits="ObjectBoundingBox" id="hashCircle">
    <circle cx="300" cy="300" r="190" fill="#fff" stroke="none"/>
  </mask>
  <pattern patternUnits="userSpaceOnUse" x="0" y="0" width="50" height="50" id="hash">
    <path d="m0,0 50,50m-50,0 50,-50" stroke="#fff" stroke-width="4"/>
  </pattern>
</defs>
<g>
  <circle cx="300" cy="300" r="300" fill="#000"/>
  <circle cx="300" cy="300" r="282.5" stroke="#fff" stroke-width="10"/>
</g>
<circle fill="url(#hash)" cx="300" cy="300" r="190"/>
<path id="keyhole" stroke="#000" stroke-width="6" fill="#fff" d="M377.768,426.033C365.328,426.033 354.411,418.155 350.601,406.429L336.745,364.211L267.43,364.211L254.556,406.044C250.67,417.998 239.67,426 227.166,426C224.164,426 221.182,425.525 218.303,424.591C203.357,420.104 194.872,404.017 199.451,388.751L257.957,203.428C261.756,191.639 272.94,183.416 285.157,183.416L316.267,183.416C328.553,183.416 339.736,191.499 343.461,203.073L404.99,388.327C409.91,403.473 401.763,419.732 386.839,424.59C383.888,425.548 380.837,426.033 377.768,426.033L377.768,426.033z" />
<g id="OAUTH" fill="#fff">
  <path d="M148.001,124.354L147.928,124.255C140.632,114.256 142.773,100.268 153.518,92.426C164.263,84.585 178.066,86.786 185.362,96.784L185.435,96.883C192.731,106.882 190.59,120.871 179.845,128.712C169.1,136.553 155.297,134.353 148.001,124.354z M175.658,104.171L175.585,104.072C171.919,99.048 165.093,97.32 159.771,101.204C154.498,105.052 154.088,111.907 157.754,116.932L157.827,117.031C161.494,122.055 168.319,123.783 173.592,119.935C178.915,116.051 179.325,109.196 175.658,104.171z" />
  <path d="M218.344,58.817L229.309,55.299L260.048,91.033L247.851,94.946L242.509,88.576L226.676,93.656L226.096,101.927L214.134,105.765L218.344,58.817z M236.384,80.775L228.066,70.573L227.177,83.729L236.384,80.775z" />
  <path d="M279.795,69.567L279.891,45.364L292.023,45.412L291.928,69.369C291.903,75.589 295.032,78.557 299.836,78.577C304.64,78.596 307.792,75.776 307.815,69.741L307.912,45.477L320.044,45.525L319.949,69.42C319.894,83.338 311.926,89.404 299.67,89.355C287.415,89.305 279.742,83.054 279.795,69.567z" />
  <path d="M363.859,65.338L351.491,61.563L354.547,51.55L390.71,62.587L387.654,72.6L375.286,68.826L365.759,100.042L354.333,96.555L363.859,65.338z" />
  <path d="M423.012,76.559L432.958,83.178L424.02,96.61L436.786,105.106L445.725,91.673L455.671,98.292L431.788,134.181L421.841,127.562L430.917,113.924L418.15,105.428L409.075,119.066L399.129,112.447L423.012,76.559z"/>
  <path d="M458.146,468.883L458.222,468.98C465.896,478.693 464.29,492.755 453.852,501.001C443.414,509.247 429.536,507.575 421.862,497.862L421.786,497.765C414.112,488.051 415.719,473.99 426.156,465.744C436.594,457.499 450.472,459.17 458.146,468.883z M431.277,490.11L431.353,490.207C435.209,495.088 442.096,496.554 447.267,492.469C452.389,488.422 452.538,481.556 448.681,476.675L448.605,476.578C444.75,471.697 437.862,470.231 432.74,474.278C427.569,478.363 427.421,485.229 431.277,490.11z"/>
  <path d="M390.707,537.182L379.907,541.179L347.625,506.833L359.638,502.386L365.256,508.516L380.85,502.744L381.065,494.456L392.847,490.095L390.707,537.182z M371.718,516.04L380.477,525.865L380.786,512.683L371.718,516.04z"/>
  <path d="M328.888,528.985L329.955,553.164L317.835,553.699L316.778,529.766C316.504,523.552 313.236,520.738 308.437,520.95C303.638,521.162 300.625,524.131 300.891,530.16L301.961,554.4L289.841,554.935L288.787,531.064C288.173,517.16 295.841,510.718 308.084,510.178C320.328,509.637 328.293,515.511 328.888,528.985z"/>
  <path d="M244.671,536.891L257.158,540.262L254.429,550.37L217.918,540.515L220.647,530.406L233.134,533.777L241.641,502.261L253.177,505.375L244.671,536.891z"/>
  <path d="M185.65,528.108L175.401,521.966L183.696,508.125L170.543,500.241L162.248,514.082L152,507.94L174.164,470.961L184.412,477.104L175.99,491.156L189.144,499.04L197.566,484.988L207.814,491.131L185.65,528.108z"/>
</g>
<path id="O" d="m937.68,234.55c-12.66,-16.44 -29.75,-24.65 -51.28,-24.65 -21.53,0 -38.67,8.22 -51.42,24.65 -12.66,16.44 -18.98,38.85 -18.98,67.24 0,28.21 6.33,50.54 18.98,66.97 12.74,16.44 29.88,24.65 51.42,24.65 21.53,0 38.63,-8.22 51.28,-24.65 12.57,-16.44 18.85,-38.76 18.85,-66.97 0,-28.39 -6.28,-50.8 -18.85,-67.24M886.39,199.61c25.49,0 45.88,9.23 61.17,27.69 15.29,18.55 22.94,43.37 22.94,74.49 0,31.03 -7.65,55.77 -22.94,74.22 -15.29,18.54 -35.68,27.82 -61.17,27.82 -25.58,0 -46.05,-9.23 -61.44,-27.69 -15.29,-18.46 -22.94,-43.24 -22.94,-74.36 0,-31.11 7.65,-55.94 22.94,-74.49 15.38,-18.46 35.86,-27.69 61.44,-27.69"/>
<path id="A" d="m1079.4,216.48 -42.19,110.74 83.72,0 -41.53,-110.74m-8.44,-13.32 17.27,0 75.28,196.83 -15.03,0 -23.47,-61.83 -91.89,0L1009.79,400l-13.97,0 75.15,-196.83"/>
<path id="u" d="m1205,240h14v97a42,51.5 0 0 0 84,0v-97.4h14v100a56,60 0 0 1 -112,0z"/>
<path id="t" d="m1346,240h125v11.5h-55.5v148.5h-14v-148.5h-55.5z" />
<path id="h" d="m1502,240h14v69h84v-69h14v160h-14v-79.5h-84v79.5h-14z"/>
</svg>
