<?xml version="1.0" encoding="UTF-8" standalone="no"?>
<svg
   xmlns:dc="http://purl.org/dc/elements/1.1/"
   xmlns:cc="http://creativecommons.org/ns#"
   xmlns:rdf="http://www.w3.org/1999/02/22-rdf-syntax-ns#"
   xmlns:svg="http://www.w3.org/2000/svg"
   xmlns="http://www.w3.org/2000/svg"
   xmlns:sodipodi="http://sodipodi.sourceforge.net/DTD/sodipodi-0.dtd"
   xmlns:inkscape="http://www.inkscape.org/namespaces/inkscape"
   inkscape:version="1.0 (4035a4fb49, 2020-05-01)"
   sodipodi:docname="herbalist2.svg"
   id="svg8"
   version="1.1"
   viewBox="0 0 14 16"
   height="16"
   width="14">
  <defs
     id="defs2" />
  <sodipodi:namedview
     units="px"
     inkscape:document-rotation="0"
     fit-margin-bottom="0"
     fit-margin-right="0"
     fit-margin-left="0"
     fit-margin-top="0"
     inkscape:window-maximized="1"
     inkscape:window-y="-8"
     inkscape:window-x="-8"
     inkscape:window-height="987"
     inkscape:window-width="1680"
     showgrid="true"
     inkscape:current-layer="g826"
     inkscape:document-units="px"
     inkscape:cy="7.791453"
     inkscape:cx="5.6378308"
     inkscape:zoom="34.169476"
     inkscape:pageshadow="2"
     inkscape:pageopacity="0.0"
     borderopacity="1.0"
     bordercolor="#666666"
     pagecolor="#ffffff"
     id="base">
    <inkscape:grid
       id="grid834"
       type="xygrid" />
  </sodipodi:namedview>
  <metadata
     id="metadata5">
    <rdf:RDF>
      <cc:Work
         rdf:about="">
        <dc:format>image/svg+xml</dc:format>
        <dc:type
           rdf:resource="http://purl.org/dc/dcmitype/StillImage" />
        <dc:title></dc:title>
      </cc:Work>
    </rdf:RDF>
  </metadata>
  <g
     transform="translate(-11.098741,-19.661036)"
     id="layer1"
     inkscape:groupmode="layer"
     inkscape:label="Layer 1">
    <g
       transform="matrix(0.95018435,0,0,0.95018435,-0.25030164,-29.600929)"
       id="g826">
      <path
         d="M 19.735999,68.66742 C 19.065385,68.212881 19.356276,67.244253 19.15906,66.552008 18.976214,65.525617 19.11714,64.44652 18.777877,63.45146 c -0.620966,-0.713942 -1.110364,0.865046 -1.572698,0.731693 -0.141752,0.04781 -0.982032,0.741366 -0.905822,0.134824 0.119276,-0.458801 -0.925628,0.949252 -0.910062,0.168097 -0.148244,0.250103 -0.487874,0.344359 -0.448393,-0.02913 -0.589593,0.473822 -0.953237,-0.578418 -0.343239,-0.82221 0.151096,-0.146337 -0.310649,-0.505839 0.214148,-0.649913 0.416924,-0.189832 0.706592,-0.504394 0.157725,-0.395499 -0.405808,-0.13927 -1.625283,0.785585 -1.489135,-0.09596 0.35744,-0.460186 -0.916548,0.217964 -0.608114,-0.441402 -0.569222,-0.228936 0.064,-0.761818 0.1089,-0.957275 0.376142,0.0091 0.752738,-0.102316 0.128542,-0.114119 -0.433432,0.02699 -1.036096,-0.02056 -0.926484,-0.481621 -0.556688,-0.202916 0.03347,-0.8258 0.254472,-0.806804 -0.758108,-0.176177 -0.276879,-0.75923 -0.281014,-1.250493 0.339577,-0.163967 0.602845,-0.624573 0.966276,-0.298044 0.0052,-0.765801 0.7118,-0.117849 0.913526,-0.04702 0.01617,-0.871404 0.713507,0.01746 1.026383,-0.196641 0.14877,0.330735 0.400617,1.322092 0.569241,0.47443 0.161888,-0.61047 0.82356,0.02161 0.92044,0.07987 0.572611,-0.313901 0.251645,1.592225 0.749805,0.596797 0.414366,-0.03427 0.504023,0.644855 0.716387,0.892251 -0.01363,0.571997 0.129422,1.453896 0.594567,1.670684 0.01475,-0.847215 -0.201827,-1.708516 -0.826897,-2.314464 -0.443786,-0.605666 -0.944123,-1.344445 -1.805902,-1.244575 -0.49847,-0.08377 -0.318033,-0.523534 -0.886226,-0.493584 -0.557207,-0.404062 -0.413965,-1.174103 -0.697502,-1.745686 0.657672,-0.264114 -0.645157,-0.914121 0.287889,-1.001938 -0.352006,-0.641803 0.324868,-1.021638 0.827866,-0.715466 0.181214,-0.810982 0.849258,0.599792 0.934915,-0.205358 -0.307832,-0.323235 -0.06456,-0.624058 0.179845,-0.640248 -0.51239,-0.426933 0.224851,-1.122028 0.652222,-0.606892 0.303773,-0.28769 0.606828,0.49811 0.32137,-0.178911 -0.21773,-0.767991 0.679655,-0.05744 0.811934,-0.541952 0.364236,-0.02774 0.729061,-0.143504 0.966655,0.191089 0.654116,-0.554193 0.12843,0.881866 0.637522,0.262533 0.596524,-0.400384 0.466055,0.491322 0.397501,0.606584 0.304543,-0.509739 0.51755,0.22761 0.835976,-0.242515 0.533586,-0.03591 0.851887,0.750045 0.228885,1.002836 0.530638,-0.125912 0.643238,0.394046 0.167358,0.588555 0.08713,0.322253 0.10959,0.695011 0.308195,0.153719 0.377015,-0.660609 0.39689,0.457682 0.898545,0.05949 0.509124,0.192109 0.155091,0.759082 0.65462,0.89605 -0.08203,0.274376 -0.984456,0.458779 -0.226177,0.476438 0.606817,0.09916 0.129553,1.016956 -0.392007,0.772881 -0.468249,-0.02796 -0.502258,0.190375 -0.0091,0.127914 0.895548,0.114242 0.300005,1.094634 -0.300232,0.941765 0.474914,0.671896 -1.019247,0.178907 -1.331405,0.548078 -0.698385,0.431876 -1.18534,1.147028 -1.619825,1.828787 -0.243484,0.595024 -0.276149,1.399432 -0.0517,1.962082 0.568476,-0.524377 0.600847,-0.951723 0.715853,-1.692607 0.06113,-0.461098 0.232541,-1.227505 0.766943,-0.91008 -0.12706,-0.455246 0.20453,-0.762885 0.513895,-0.652413 0.125335,-0.376098 0.964606,-0.639871 1.126445,-0.104198 0.452529,0.01867 -0.302892,1.230664 0.171141,0.477382 0.08155,-0.527783 0.386266,-0.937629 0.803054,-0.853709 0.595134,-0.513552 0.784639,0.915711 1.126926,0.2256 0.274779,-0.07726 0.914974,0.114205 0.737457,0.543397 0.486986,-0.313106 1.221726,0.540265 0.793573,0.900155 0.402197,0.09157 0.413124,0.48535 3.07e-4,0.536574 0.420507,0.173754 0.364771,0.652657 -0.05455,0.701548 0.22301,0.346091 -0.798557,0.210936 -0.188938,0.568495 0.375894,0.423312 -0.418674,0.93455 -0.80664,0.590615 0.348381,0.827487 -0.894808,-0.0917 -1.271657,-0.09793 -0.30424,-0.160824 -1.190897,-0.05417 -0.376866,0.07745 0.616321,-0.03692 0.66503,0.349867 0.717964,0.711253 0.71271,0.394397 0.130285,0.874186 -0.311618,0.82643 -0.165583,0.331914 -0.717687,-0.49038 -0.5957,0.178292 -0.539934,0.06981 -1.227669,-1.087867 -1.152502,-0.153853 -0.730185,-0.145964 -1.271928,-0.454173 -1.991761,-0.723185 -0.929132,-0.0037 -0.878807,1.189128 -0.779894,1.855109 0.01955,1.127464 0.32085,2.229059 0.371483,3.354991 0.03565,0.05941 -0.08114,0.270886 -0.156615,0.20693 z M 20.29723,56.047643 c 0.266355,-0.328699 0.596539,-1.39454 0.02144,-0.627056 -0.190097,0.08623 -0.403806,1.120374 -0.02144,0.627056 z m -2.476504,-0.183664 c 0.05455,-0.30069 -0.502883,-1.464549 -0.415694,-0.577784 -0.04133,0.107832 0.360509,1.124669 0.415694,0.577784 z m 2.424522,-2.516 c 0.378882,-0.815769 -0.456608,0.679521 -0.0484,0.09221 z"
         style="fill:#8eb941;stroke-width:0.0315885"
         id="path832" />
      <path
         d="m 19.571333,68.473456 c -0.332965,-0.7944 -0.255064,-1.770851 -0.422687,-2.635352 -0.155845,-0.839301 0.05977,-1.763795 -0.360407,-2.536947 -0.796356,-0.512619 -1.142435,1.012364 -1.73848,0.866017 -0.320231,0.43879 -0.913567,0.440241 -0.662238,-0.183297 -0.261603,0.255941 -1.059046,1.15942 -0.875057,0.314141 -0.154683,0.147595 -0.559739,0.630913 -0.530401,0.100203 -0.776848,0.463649 -0.73926,-0.655704 -0.250128,-0.907399 -0.681927,-0.383015 1.561864,-0.997156 0.279476,-0.996688 -0.454008,-0.09969 -1.533286,0.776991 -1.491859,0.03019 0.559239,-0.667917 -0.91876,0.227362 -0.539315,-0.480703 -0.711587,-0.212694 0.06567,-0.602073 -0.01497,-0.886431 0.437879,0.05322 1.011061,-0.170562 0.224106,-0.216967 -0.365649,-0.03127 -1.123199,0.09015 -0.884967,-0.448024 -0.719739,-0.208451 0.03476,-0.769604 0.303295,-0.791147 -0.433353,-0.07333 -0.78488,-0.431897 -0.407285,-0.770256 -0.234235,-0.638144 0.759741,-1.067404 1.03458,-0.588361 -0.254077,-0.780334 0.505363,-0.490394 0.736484,-0.137296 0.179328,-0.217884 0.211963,-0.693021 0.658647,-0.350361 0.115968,0.467148 0.536318,-0.232325 0.557548,0.467986 -0.008,0.355625 0.529125,1.495895 0.275013,0.527373 0.290029,-0.128645 0.178415,-1.000923 0.702746,-0.547128 0.256397,-0.114285 0.23478,0.535901 0.531566,0.153268 0.302199,0.327079 0.196219,1.545888 0.647392,0.617524 0.514326,0.393078 0.669488,1.002161 0.687622,1.696375 0.10353,0.482597 0.532852,1.112357 0.865446,1.292816 0.109116,-0.635071 -0.4455,-0.961603 -0.175814,-1.590015 0.275606,-0.334799 0.204084,-0.636123 -0.182061,-0.7898 -0.148257,-0.553204 0.729501,0.470894 0.200849,-0.255606 -0.04876,-0.454889 -0.257791,-0.807079 -0.670722,-0.459917 -0.10357,0.615396 -0.435313,-0.252718 -0.596412,-0.201473 -0.306162,-0.809884 -1.364995,-0.583437 -1.836176,-0.963669 0.346302,-0.294154 -0.613448,-0.108102 -0.663921,-0.491054 -0.469484,-0.296396 0.04045,-0.721914 -0.357395,-1.051236 -0.571662,-0.481354 0.586463,-0.630203 -0.135289,-0.967303 -0.455463,-0.476064 0.684311,-0.273834 0.183886,-0.812695 -0.02369,-0.859761 0.959279,0.08207 1.097878,-0.610731 0.357297,0.183837 0.527335,0.674951 0.785039,0.09122 -0.2307,-0.31739 -0.316461,-0.704335 0.208994,-0.595033 -0.524833,-0.314507 -0.02856,-1.313355 0.468363,-0.642583 0.420945,-0.499331 0.902165,1.25879 0.660543,0.230417 -0.298875,-0.332195 -0.408394,-1.174257 0.267818,-0.737276 0.2213,-0.2163 0.502756,-0.275101 0.89354,-0.35621 0.06741,0.293799 0.403133,0.318345 0.659105,0.226282 0.02213,0.327106 -0.174182,0.859423 0.295328,0.36487 1.070951,-0.38561 -0.2272,1.139215 0.07849,1.312536 0.263857,-0.342947 0.45611,-1.215837 0.912746,-0.778128 0.393303,-0.46201 0.607087,-0.03168 0.722633,0.225511 0.283457,0.162006 -0.796856,0.757433 0.04024,0.602688 0.509307,0.191279 -0.520236,0.492169 -0.08546,0.897881 0.08242,0.743544 0.578164,-1.045658 0.715091,-0.05914 0.470881,-0.1392 0.84196,0.136243 0.709115,0.604244 0.859025,0.269985 -0.486991,0.442273 -0.34643,0.932388 -1.006746,0.15635 0.433925,0.180197 0.627131,-0.131369 0.323911,0.378088 -0.67151,0.609267 -0.998405,0.695355 -0.110995,0.290189 0.686818,-0.0046 0.345044,0.39704 0.31754,-0.125797 0.895606,0.07726 0.319462,0.252374 0.0789,0.438825 -1.018829,0.05182 -0.356642,0.597719 -0.779902,0.116828 -1.7224,0.108963 -2.196284,0.893934 -0.550616,0.64622 -1.209634,1.355886 -1.092621,2.277367 -0.08681,0.441571 0.0685,1.588486 0.466591,0.632692 0.428618,-0.315346 0.624068,-0.571103 0.420851,-0.993102 0.101918,-0.542977 0.176934,-1.648972 0.806186,-1.231969 -0.05975,-0.467431 0.149772,-0.837664 0.516517,-0.629953 0.02517,-0.470046 0.491465,-0.305418 0.809691,-0.464854 0.310174,0.326498 0.478262,0.538893 0.208609,1.023904 0.440932,0.154622 0.409327,-1.541461 1.016955,-0.949474 0.304179,-0.593214 1.225101,0.271888 0.591895,0.693237 0.369668,-0.136689 0.539135,-0.914747 1.047548,-0.522018 0.450609,0.01674 -0.08231,0.81822 0.534854,0.384727 0.422593,0.10344 0.57318,0.580195 0.408502,0.937368 0.872419,0.437527 -0.489047,0.36226 -0.447652,0.448501 0.664458,0.05008 0.970227,0.551469 0.41295,0.786591 -0.08081,0.659997 -1.139485,-0.342314 -1.230038,0.04908 0.451341,-0.04109 0.489588,0.281525 0.166395,0.504172 0.703301,0.234127 -0.270338,0.401233 0.118709,0.82767 -0.654683,-0.09977 -1.540485,-0.712417 -2.088236,-0.356048 0.37281,0.220616 1.385971,0.146273 0.978814,0.763353 0.383152,0.419883 -0.232206,1.03885 -0.640884,0.659572 -0.276375,-0.08221 0.06951,0.60186 -0.390334,0.203475 -0.339205,-0.114981 -1.159213,-0.934444 -0.797656,-0.07887 -0.434937,0.132838 -0.817058,-0.366591 -1.231292,-0.314427 -0.592604,-0.615313 -1.619684,-0.349003 -1.666866,0.547323 0.03782,1.35444 0.156317,2.708397 0.388824,4.044078 0.01376,0.175256 0.08785,0.620943 -0.224721,0.33685 z m 0.05829,-0.657359 c -0.112252,-0.471937 -0.06061,-1.162072 -0.27017,-1.503997 -8.88e-4,0.56329 0.119577,1.373676 0.307665,1.771559 l -0.0061,-0.103179 -0.03136,-0.164383 z m -0.225689,-1.673006 c 0.0204,-0.479977 -0.174028,-0.633448 -0.105525,-0.08197 -0.05234,0.06832 0.06798,0.163442 0.105525,0.08197 z m -0.350825,-2.451862 c -0.04064,-0.204274 -0.0818,0.134578 0,0 z m -0.109593,-0.614151 c -0.06071,-0.111875 -0.08503,0.05621 0,0 z m 4.324397,-0.117996 c 0.11349,-0.277255 -0.269854,0.252392 0,0 z m -4.421895,-0.127816 c 0.216451,-0.473885 -0.994788,-0.949482 -0.997431,-0.347719 -0.113026,0.166685 0.793577,0.08574 0.936726,0.416596 l 0.0607,-0.069 z M 17.8037,62.255175 c -0.376658,-0.577706 -0.141315,0.600684 0,0 z m 2.84031,-0.476495 c -0.139947,-0.01606 -0.08828,0.423907 0,0 z m 1.240713,-0.282411 c 0.379583,-0.224716 0.535716,-0.222899 0.355091,-0.544366 0.04397,-0.727916 -0.318948,0.57416 -0.498569,0.582183 0.04321,0.02859 0.11767,0.0073 0.143478,-0.03782 z m 0.609093,-0.356959 c -0.07307,-0.109267 -0.115455,0.121282 0,0 z m -1.282774,-0.159385 c 0.06336,-0.361426 -0.258292,0.379653 0,0 z m 1.572478,10e-4 c 0.240257,-0.241301 -0.394556,0.18071 0,0 z m -0.392066,-0.213733 c -0.01852,-0.13772 -0.139672,0.17914 0,0 z m 0.902764,-0.0216 c -0.138592,-0.136431 -0.193148,0.178193 0,0 z m 0.676853,-0.369538 c 0.88798,-0.49939 -1.039255,0.303421 -0.12448,0.05914 l 0.12448,-0.05913 z M 18.94352,60.224339 c -0.101397,-0.175438 -0.03204,0.19482 0,0 z m 7.362113,-0.019 c -0.226053,-0.03587 0.02226,0.05601 0,0 z m -1.656276,-0.136536 c -0.08102,-0.113042 -0.08102,0.113042 0,0 z m -5.753386,-1.096275 c 0.03565,-0.258783 -0.320512,-0.613442 0.01156,-0.454306 -0.04234,-0.328364 -0.08676,-0.622408 -0.01636,-0.906719 0.188688,-0.713615 0.04275,-1.355877 -0.308579,-1.913381 -0.159052,-0.31462 -0.717228,-0.08767 -0.304788,-0.406552 0.02334,-0.408113 -0.423313,-0.445493 -0.296077,0.112816 -0.09081,0.720597 -0.608625,-1.337097 -0.634201,-0.211879 -0.02767,0.629534 0.469934,1.207484 0.864368,0.678228 0.398108,0.15398 0.513742,0.613654 0.331726,0.941364 -0.10039,0.42869 0.283962,1.193219 0.07123,1.719024 -0.09939,0.177838 0.268524,1.168978 0.281122,0.441405 z m -0.198779,-2.592587 c 0.165447,-0.19165 0.06322,0.165446 0,0 z m -0.07859,-0.280921 c -0.188785,-0.225402 0.225339,-0.002 0,0 z m -0.39309,2.50504 c -0.145529,-0.161409 -0.01276,0.218789 0,0 z m -0.137869,-0.219343 c -0.0058,-0.192473 -0.218263,0.159724 0,0 z m -0.729079,-0.0768 c -0.06254,-0.168664 -0.08419,0.111378 0,0 z m -0.01642,-0.158325 c -0.04436,-0.570075 -0.642265,0.21441 0,0 z m 0.126018,-0.156145 c -0.0182,-0.165443 -0.08964,0.104596 0,0 z m 0.180995,-0.149046 c -0.01189,-0.795585 -0.391703,-0.06269 0,0 z m 0.818879,-0.244032 c -0.05166,-0.28557 -0.18811,0.06254 0,0 z m -1.202187,-0.467665 c -0.06947,-0.08795 -0.0766,0.126467 0,0 z m 1.07539,-0.0682 c -0.06072,-0.111875 -0.08503,0.05621 0,0 z m -1.157016,-0.0491 c 0.0013,-0.105975 -0.09728,0.104962 0,0 z m 3.844392,-0.363748 c -0.274013,0.0075 -0.365865,0.567985 -0.03601,0.06218 l 0.03601,-0.06215 z m 0.1154,-0.0331 c 0.199352,-0.25383 -0.237764,0.07841 0,0 z M 18.214444,56.44881 c -0.115443,-0.121278 -0.07306,0.109278 0,0 z m 4.841372,-0.0505 c -0.117481,-0.03496 -0.05721,0.05567 0,0 z m -1.425133,-0.344949 c -0.330564,0.114096 -0.371295,0.530245 -0.03486,0.06111 l 0.03486,-0.06104 z m -1.33934,0.115576 c 0.421301,-0.160151 0.37622,-0.838909 0.411077,-1.168133 -0.407347,0.204216 -0.899512,0.966478 -0.529215,1.276622 l 0.118134,-0.108489 z m 0.760268,-0.261782 c -0.290208,-0.577984 -0.032,0.567817 0,0 z m 0.36367,0.0861 c 0.488081,-0.185393 -0.433761,-0.07311 1.4e-5,-2.5e-5 z m 0.393148,-0.111097 c 0.277206,-0.403826 -0.465659,0.395165 0,0 z m -2.864147,-0.452535 c -0.222742,0.07508 0.06015,0.608947 0.01984,0.0708 l -0.01977,-0.07082 z m 2.566864,0.29329 c -0.08422,-0.111323 -0.06255,0.168759 0,0 z m 0.383425,-0.332299 c 0.07279,-0.172935 -0.233211,0.174996 0,0 z m 0.186673,-0.177365 c -0.119163,-0.08647 -0.03628,0.235788 0,0 z m -1.013885,-0.0551 c -0.02886,-0.108649 -0.08696,0.117668 0,0 z m 1.597956,-0.0913 c 0.08343,-0.261654 -0.280386,0.21014 0,0 z m -4.22355,4.274854 c -0.07715,-0.299346 0.211604,0.247942 0,0 z"
         style="fill:#5b9e0b;stroke-width:0.0315885"
         id="path830" />
      <path
         d="m 19.562755,68.456257 c -0.243664,-0.337242 0.388646,0.290238 0,0 z m -4.042733,-3.836028 c 0.02663,-0.362789 0.523596,0.01147 0.110878,-0.01799 -0.01498,-0.206286 -0.08212,0.255513 -0.110878,0.01799 z m -0.475485,-0.186164 c 0.116434,-0.557488 -0.559771,0.01925 -0.09211,-0.457788 0.620545,-0.554274 0.174586,0.334256 0.148688,0.582676 0.265017,-0.461056 0.501783,-1.297163 0.963109,-1.368342 0.399446,0.137366 -0.499779,1.39781 -0.269861,0.655778 -0.14301,0.0448 -0.809761,1.248905 -0.749823,0.587676 z m -0.380389,-0.0116 c -0.302701,0.03277 -0.233928,-0.158088 -0.221883,-0.343594 -0.219956,-0.304687 0.640346,-0.496055 0.131898,-0.767787 0.329329,-0.532111 1.140158,-0.523651 1.225866,-1.091982 0.774272,-0.01564 0.561103,0.848791 -0.04029,0.903337 -0.372233,0.143317 -0.522943,0.633793 -0.859808,0.688381 -0.175315,0.283215 -0.789217,0.676821 -0.151295,0.499141 0.112478,0.09297 -0.04072,0.330456 -0.08448,0.112504 z m 1.236263,-0.0377 c 0.06356,-0.385448 0.367156,-0.499 0.29581,-0.741233 0.125957,-0.387839 0.830132,0.321296 0.141775,0.294276 -0.141705,0.128813 -0.251051,0.411696 -0.437585,0.446957 z m -0.285291,-0.0486 c 0.08145,-0.159416 0.0486,0.120695 0,0 z m 1.046069,-0.0176 c 0.07307,-0.109267 0.115455,0.121282 0,0 z m 0.459637,-0.535123 c -0.0018,-0.111933 0.145248,0.118049 0,0 z m 2.320178,-0.0846 c 0.01661,-0.469008 0.546734,-1.547461 1.037987,-1.065615 0.197035,0.319577 0.04366,0.367292 0.248025,0.658336 -0.446015,-0.169593 -0.949222,-0.167975 -1.167521,0.320645 l -0.07628,0.07801 -0.04218,0.0087 z m -2.916369,-0.445216 c 0.07189,-0.668279 0.242293,0.202921 0,0 z m 2.757775,-0.167415 c 0.0131,-0.272319 0.02528,-0.992481 0.176987,-0.404557 0.393867,0.005 -0.240211,1.024578 -0.176987,0.404557 z m -5.672269,-0.240682 c -0.394165,-0.160792 0.450081,-0.872013 -0.290079,-0.55734 -0.599178,0.293838 -0.137376,-0.369961 -0.654904,-0.487277 0.0013,-0.267491 0.39166,-0.500951 0.385626,-0.654155 0.256844,0.03969 1.111688,-0.08141 0.389359,-0.201315 -0.388698,-0.107801 -1.379014,0.195173 -1.135654,-0.453989 -0.684877,-0.192737 -0.03827,-0.797551 0.349712,-0.761274 -0.411786,-0.117236 -0.862509,-0.424173 -0.453707,-0.800177 -0.23423,-0.638143 0.759747,-1.067403 1.034582,-0.588357 -0.254078,-0.780349 0.505356,-0.490394 0.736484,-0.1373 0.199196,-0.199143 0.166445,-0.673349 0.633001,-0.380058 0.152907,0.392531 0.185429,0.209798 0.418916,0.129787 0.228471,0.2715 0.331364,1.490908 0.568137,1.303116 -0.25075,-0.365858 -0.114834,-0.501401 0.07567,-0.599893 -0.114639,-0.763956 0.785115,-0.419773 0.825593,-0.02124 0.492279,-0.668742 0.30288,1.30583 0.686246,0.927206 0.102374,-1.022378 0.469628,0.01855 0.635889,0.192484 0.307281,-0.10626 0.0336,0.886538 0.05075,0.343343 -0.476261,0.100148 -0.475924,-1.193774 -0.571407,-0.297911 -0.07415,0.57384 0.07309,1.057672 0.267159,1.393142 0.327044,0.113646 0.627983,0.650127 0.852647,0.946776 -0.730246,0.111373 -0.93666,-0.858044 -1.277483,-1.106465 0.158709,0.361588 0.583744,0.996987 -0.135447,0.576316 -0.401873,-0.07614 -1.363542,-0.898355 -0.847229,-0.0097 -0.424698,-0.0816 -0.395571,0.173705 -0.126761,0.336762 -0.111522,0.03859 -0.441634,0.346294 -0.380653,0.0495 -0.09619,0.595253 -0.979846,0.452026 -1.508766,0.708556 -0.166094,0.07567 -0.340532,0.164333 -0.527678,0.149511 z m 1.976788,-1.100345 c -0.03257,-0.891304 -0.44632,0.368994 0,0 z m 0.154987,-0.763346 c -0.08696,-0.117667 -0.02886,0.108651 0,0 z m 1.339841,-0.118046 c -0.227699,-0.440473 -0.452816,-0.461848 -0.110967,0 -0.01837,0.07904 0.165513,0.07507 0.110967,0 z m -1.413284,-0.0453 c -0.05862,-0.06418 0.03172,0.184063 0,0 z m -0.05335,-0.245923 c -0.08696,-0.117667 -0.02886,0.108651 0,0 z m 1.521556,-0.249782 c -0.05491,-0.442374 -0.69209,-0.432495 -0.1912,-0.03704 0.01312,0.08947 0.210622,0.210572 0.1912,0.03704 z m -0.596299,-0.31809 c -0.04463,-0.242152 -0.637309,-1.33197 -0.348984,-0.536258 0.102719,0.0143 0.497603,1.123 0.348984,0.536258 z m 0.120812,-1.004187 c -0.06695,-0.720742 -0.05684,0.665395 0,0 z m 2.899027,3.580625 c -0.634767,-0.793419 0.711435,0.233021 0,0 z M 20.48874,62.44057 c 0.04727,-0.455215 0.730286,0.105227 0.05065,0.06035 l -0.05065,-0.06025 z m -0.625687,-0.120196 c -0.01409,-0.601568 0.655732,-0.07454 0.05164,0.109406 l -0.05164,-0.109406 z m 1.034536,-0.157675 c 0.372953,-0.413208 0.419962,0.176216 0,0 z m -1.633498,-0.116667 c -0.231473,-0.820653 -0.21613,-1.700356 -0.182056,-2.547067 0.252138,-0.589134 0.531875,-1.184635 1.044769,-1.541031 0.153133,-0.564248 0.351402,-0.33355 0.170801,0.07274 -0.254798,0.4445 0.576726,-0.506616 0.409934,-0.02667 -0.439147,0.05873 0.208587,0.633735 -0.127004,0.736073 -0.39953,0.354569 -0.777821,0.449849 -0.868275,1.094132 -0.47835,0.514377 -0.305387,1.371356 -0.364159,2.046351 -0.03881,-0.03389 0.04262,0.412494 -0.08401,0.165475 z m 0.725504,-3.006174 c -0.125718,-0.170809 -0.09879,0.362164 0,0 z m 0.0634,-0.285561 c 0.241431,-0.467554 -0.307516,0.181148 -0.04193,0.131002 l 0.04193,-0.130984 z m 0.23107,0.0555 c -0.14089,-0.213778 -0.01178,0.273713 0,0 z m -0.326172,-0.346139 c -0.105206,-0.302491 -0.105603,0.29734 0,0 z m 0.112471,-0.160315 c 0.121447,-0.470446 -0.213798,0.38053 0,0 z m -2.489901,2.225989 c 0.126067,-0.20213 0.134678,0.07167 0,0 z m 2.857921,-0.33438 c 0.02196,-0.185846 0.02196,0.18552 0,0 z m -3.030039,-0.0528 c 0.03481,-0.336205 0.189507,0.173507 0,0 z M 20.59288,59.59688 c 0.132554,-0.356123 0.449242,0.147599 0,0 z m -0.679366,-0.144806 c -0.0013,-0.273203 0.143113,0.112795 0,0 z m 1.2253,-0.260192 c 0.313824,-0.931779 0.141393,0.541568 -8e-6,0 z m 1.386703,0.077 c 0.167085,-0.544675 0.247749,0.07232 -5e-6,1.2e-5 z m -3.486896,-0.0183 c 0.08102,-0.113042 0.08102,0.113042 0,0 z m 4.12e-4,-0.32265 c 0.0087,-0.91759 -0.06812,-1.858728 0.10657,-2.760202 0.419347,-0.212399 0.474083,-0.93994 0.967748,-1.287636 0.296062,-0.253862 0.191633,-0.459799 0.524576,-0.391171 0.170965,-0.05408 1.164986,-0.641602 1.147529,-0.384039 -0.56792,0.565132 -1.455676,0.886112 -1.742198,1.689999 0.166929,0.603694 -0.878036,0.592744 -0.719647,0.834796 0.716005,-0.128767 -0.02033,0.960688 0.04362,1.440305 0.08409,0.143161 -0.272453,1.340828 -0.328201,0.857948 z m 0.53847,-2.702634 c -0.0783,-0.187683 -0.112294,0.261048 0,0 z m 2.078329,2.713774 c -0.03102,-0.474925 0.244143,-0.19492 0,0 z m 0.714125,-0.0293 c -0.09967,-0.562966 0.175054,0.08482 2.2e-5,5.4e-5 z m -1.565684,-0.510283 c 0.255545,-0.208012 -0.226175,-0.287551 0.205639,-0.333446 0.492945,0.197348 0.351258,0.136138 -0.205639,0.333446 z m 0.24537,-0.422777 c -0.124988,-0.175903 0.24882,0.119573 0,0 z m -1.526466,-0.166264 c -0.06894,-0.302263 0.470234,-1.375132 0.284972,-0.558406 0.07437,0.08914 -0.258542,1.061489 -0.284972,0.558406 z m -1.619748,-0.226923 c -0.0513,-0.341719 -0.08745,-0.604499 -0.351752,-0.446882 -0.314141,-0.219246 -0.421407,-0.897106 -0.692303,-0.703423 -0.41068,-0.263187 -0.720709,-1.171888 -1.167774,-1.095352 -0.382743,0.04483 -0.346183,-0.72119 -0.515534,-0.126352 -0.09073,-0.153507 -0.04818,-0.484752 -0.378637,-0.407385 -0.505484,-0.624759 0.359619,-0.94695 0.748562,-0.593457 0.09246,-0.758227 0.58657,0.05255 0.749871,0.113715 0.266714,-0.444892 0.172285,-0.730802 0.63475,-0.204305 0.275425,0.27825 0.909264,0.745765 0.416338,0.832876 -0.08138,0.457103 0.305809,1.413027 0.450754,1.415974 0.273768,0.318359 -0.381046,0.409422 -0.200963,0.454139 0.139123,0.171945 0.484925,0.437298 0.360898,0.818602 l -0.05429,-0.05831 z m -0.354666,-1.058436 c -0.0855,-0.131778 -0.09964,0.164292 0,0 z m -0.19812,-0.280631 c 0.138839,-0.536974 -0.483682,0.317144 -6e-6,-3e-6 z m -0.205315,-0.624961 c -0.295214,-0.277215 0.0096,0.616779 0,0 z m -1.683947,-0.571221 c -0.09094,-0.160227 -0.08837,0.159482 0,0 z m 1.691145,-0.466925 c -0.06965,-0.191189 -0.09524,0.216512 0,0 z m -2.193058,2.687924 c -0.589486,-0.242394 0.312185,-0.678817 -0.26362,-0.779859 0.388461,-0.203795 0.360901,0.374943 0.106442,0.522322 -0.04022,0.210386 0.608428,0.393942 0.157178,0.257537 z m -0.350251,-1.064176 c -0.580337,-0.457153 0.664384,-0.819504 0.174596,-0.126914 0.04026,0.08316 -0.122059,0.277601 -0.174596,0.126914 z m 4.43596,-0.739737 c -0.02653,-0.34299 -0.0014,-0.77578 0.258694,-0.681882 0.03996,-0.698153 0.303865,0.138237 0.337855,0.260726 -0.02799,-0.693277 0.353698,0.0072 -0.04561,0.07281 -0.227458,-0.151495 -0.288036,1.278871 -0.548262,0.672515 -0.0035,-0.108016 -0.0028,-0.216192 -0.0027,-0.324172 z m -3.917865,0.202404 c -0.50552,0.0088 -1.110347,-0.97103 -0.318642,-0.673572 -0.520273,0.486866 0.634459,0.226568 0.447281,0.62116 0.04802,0.0794 -0.09297,0.103634 -0.128639,0.05241 z m 4.783875,-0.862723 c -0.0559,-0.30923 0.01697,-0.430935 -0.105881,-0.513953 0.0867,-0.472351 0.355977,0.06326 0.430377,0.145381 -0.150504,0.04676 -0.208913,0.415664 -0.324496,0.368572 z M 19.688451,54.59184 c 0.09727,-0.104964 -0.0013,0.105974 0,0 z m -0.618132,-0.372898 c 0.29965,-0.518009 0.863483,-1.205403 1.291987,-1.376056 -0.311558,0.442151 -0.371093,1.141172 -0.791477,1.163418 -0.132728,0.137606 -0.299396,0.107 -0.50051,0.212638 z m -0.02416,-0.679188 c 0.131314,-0.462134 0.03263,0.320755 0,0 z m -2.680827,0.0553 c -0.09643,-0.272964 0.122437,0.05204 0,0 z m 1.690617,-0.388237 c -0.210066,-0.48346 0.272501,0.429848 0,0 z m -1.347386,0.0313 c -0.191644,-0.38805 0.346284,0.281294 0,0 z m 0.808502,-0.422907 c 0.08145,-0.159416 0.0486,0.120695 0,0 z m -0.846696,-0.156055 c 0.315905,-0.520592 0.03041,0.181951 0,0 z m 0.719899,0.0388 c 0.124388,-0.0963 0.124388,0.0963 0,0 z m 2.100104,-0.188304 c 0.01805,-0.557454 0.394558,0.113265 0,0 z m -1.133608,-0.31593 c 0.04854,-0.495269 0.195542,0.04135 0,0 z m 0.364865,-0.101767 c 0.0814,-0.380828 0.197837,0.155761 0,0 z"
         style="fill:#417819;stroke-width:0.0315885"
         id="path828" />
    </g>
  </g>
</svg>
