<?xml version="1.0" encoding="UTF-8" standalone="no"?>
<!-- Created with Inkscape (http://www.inkscape.org/) -->

<svg
   xmlns:dc="http://purl.org/dc/elements/1.1/"
   xmlns:cc="http://creativecommons.org/ns#"
   xmlns:rdf="http://www.w3.org/1999/02/22-rdf-syntax-ns#"
   xmlns:svg="http://www.w3.org/2000/svg"
   xmlns="http://www.w3.org/2000/svg"
   xmlns:sodipodi="http://sodipodi.sourceforge.net/DTD/sodipodi-0.dtd"
   xmlns:inkscape="http://www.inkscape.org/namespaces/inkscape"
   width="16"
   height="16"
   viewBox="0 0 16 16"
   id="svg4264"
   version="1.1"
   inkscape:version="0.91 r13725"
   sodipodi:docname="highway__crossing.svg">
  <defs
     id="defs4266">
    <marker
       inkscape:stockid="EmptyTriangleInL"
       orient="auto"
       refY="0"
       refX="0"
       id="EmptyTriangleInL"
       style="overflow:visible"
       inkscape:isstock="true">
      <path
         id="path4298"
         d="m 5.77,0 -8.65,5 0,-10 8.65,5 z"
         style="fill:#ffffff;fill-rule:evenodd;stroke:#000000;stroke-width:1pt;stroke-opacity:1"
         transform="matrix(-0.8,0,0,-0.8,4.8,0)"
         inkscape:connector-curvature="0" />
    </marker>
    <marker
       inkscape:stockid="Arrow1Lstart"
       orient="auto"
       refY="0"
       refX="0"
       id="marker4778"
       style="overflow:visible"
       inkscape:isstock="true">
      <path
         id="path4780"
         d="M 0,0 5,-5 -12.5,0 5,5 0,0 Z"
         style="fill:#000000;fill-opacity:1;fill-rule:evenodd;stroke:#000000;stroke-width:1pt;stroke-opacity:1"
         transform="matrix(0.8,0,0,0.8,10,0)"
         inkscape:connector-curvature="0" />
    </marker>
    <marker
       inkscape:stockid="Arrow1Lstart"
       orient="auto"
       refY="0"
       refX="0"
       id="marker4657"
       style="overflow:visible"
       inkscape:isstock="true">
      <path
         id="path4659"
         d="M 0,0 5,-5 -12.5,0 5,5 0,0 Z"
         style="fill:#000000;fill-opacity:1;fill-rule:evenodd;stroke:#000000;stroke-width:1pt;stroke-opacity:1"
         transform="matrix(0.8,0,0,0.8,10,0)"
         inkscape:connector-curvature="0" />
    </marker>
    <marker
       style="overflow:visible"
       inkscape:stockid="InfiniteLineStart"
       id="InfiniteLineStart"
       refX="0"
       refY="0"
       orient="auto"
       inkscape:isstock="true">
      <g
         id="g4391"
         style="fill:#000000;fill-opacity:1;stroke:#000000;stroke-opacity:1"
         transform="translate(-13,0)">
        <circle
           id="circle4393"
           r="0.8"
           cy="0"
           cx="3"
           style="fill:#000000;fill-opacity:1;stroke:#000000;stroke-opacity:1" />
        <circle
           id="circle4395"
           r="0.8"
           cy="0"
           cx="6.5"
           style="fill:#000000;fill-opacity:1;stroke:#000000;stroke-opacity:1" />
        <circle
           id="circle4397"
           r="0.8"
           cy="0"
           cx="10"
           style="fill:#000000;fill-opacity:1;stroke:#000000;stroke-opacity:1" />
      </g>
    </marker>
    <marker
       inkscape:stockid="Arrow2Lstart"
       orient="auto"
       refY="0"
       refX="0"
       id="Arrow2Lstart"
       style="overflow:visible"
       inkscape:isstock="true">
      <path
         id="path4165"
         style="fill:#000000;fill-opacity:1;fill-rule:evenodd;stroke:#000000;stroke-width:0.625;stroke-linejoin:round;stroke-opacity:1"
         d="M 8.7185878,4.0337352 -2.2072895,0.01601326 8.7185884,-4.0017078 c -1.7454984,2.3720609 -1.7354408,5.6174519 -6e-7,8.035443 z"
         transform="matrix(1.1,0,0,1.1,1.1,0)"
         inkscape:connector-curvature="0" />
    </marker>
    <marker
       inkscape:stockid="Arrow1Mstart"
       orient="auto"
       refY="0"
       refX="0"
       id="Arrow1Mstart"
       style="overflow:visible"
       inkscape:isstock="true">
      <path
         id="path4153"
         d="M 0,0 5,-5 -12.5,0 5,5 0,0 Z"
         style="fill:#000000;fill-opacity:1;fill-rule:evenodd;stroke:#000000;stroke-width:1pt;stroke-opacity:1"
         transform="matrix(0.4,0,0,0.4,4,0)"
         inkscape:connector-curvature="0" />
    </marker>
    <marker
       inkscape:stockid="Arrow1Lstart"
       orient="auto"
       refY="0"
       refX="0"
       id="Arrow1Lstart"
       style="overflow:visible"
       inkscape:isstock="true">
      <path
         id="path4147"
         d="M 0,0 5,-5 -12.5,0 5,5 0,0 Z"
         style="fill:#000000;fill-opacity:1;fill-rule:evenodd;stroke:#000000;stroke-width:1pt;stroke-opacity:1"
         transform="matrix(0.8,0,0,0.8,10,0)"
         inkscape:connector-curvature="0" />
    </marker>
  </defs>
  <sodipodi:namedview
     id="base"
     pagecolor="#ffffff"
     bordercolor="#666666"
     borderopacity="1.0"
     inkscape:pageopacity="0.0"
     inkscape:pageshadow="2"
     inkscape:zoom="22.627417"
     inkscape:cx="10.844551"
     inkscape:cy="7.1297948"
     inkscape:document-units="px"
     inkscape:current-layer="layer1"
     showgrid="true"
     units="px"
     inkscape:snap-bbox="true"
     inkscape:bbox-paths="true"
     inkscape:bbox-nodes="true"
     inkscape:snap-bbox-edge-midpoints="true"
     inkscape:snap-bbox-midpoints="true"
     inkscape:snap-global="false"
     inkscape:object-paths="true"
     inkscape:snap-intersection-paths="true"
     inkscape:object-nodes="true"
     inkscape:snap-smooth-nodes="true"
     inkscape:snap-midpoints="true"
     inkscape:snap-object-midpoints="false"
     inkscape:snap-center="false"
     inkscape:snap-nodes="false"
     inkscape:snap-others="true"
     inkscape:snap-page="true">
    <inkscape:grid
       type="xygrid"
       id="grid4137" />
  </sodipodi:namedview>
  <metadata
     id="metadata4269">
    <rdf:RDF>
      <cc:Work
         rdf:about="">
        <dc:format>image/svg+xml</dc:format>
        <dc:type
           rdf:resource="http://purl.org/dc/dcmitype/StillImage" />
        <dc:title></dc:title>
        <cc:license
           rdf:resource="http://creativecommons.org/publicdomain/zero/1.0/" />
      </cc:Work>
      <cc:License
         rdf:about="http://creativecommons.org/publicdomain/zero/1.0/">
        <cc:permits
           rdf:resource="http://creativecommons.org/ns#Reproduction" />
        <cc:permits
           rdf:resource="http://creativecommons.org/ns#Distribution" />
        <cc:permits
           rdf:resource="http://creativecommons.org/ns#DerivativeWorks" />
      </cc:License>
    </rdf:RDF>
  </metadata>
  <g
     inkscape:label="Camada 1"
     inkscape:groupmode="layer"
     id="layer1"
     transform="translate(0,-1036.3621)">
    <rect
       style="opacity:1;fill:#004aff;fill-opacity:1;stroke:none;stroke-width:1.3;stroke-linecap:round;stroke-linejoin:round;stroke-miterlimit:4;stroke-dasharray:none;stroke-opacity:1"
       id="rect4343"
       width="16"
       height="16"
       x="-4.7683722e-007"
       y="1036.3621"
       rx="2"
       ry="2" />
    <path
       sodipodi:nodetypes="cccccc"
       d="m 5.762084,1051.1878 -1.9620495,0.014 1.0978265,-3.1723 1.456386,0 -0.592163,3.1548 z"
       style="fill:#ffffff;fill-opacity:1;fill-rule:evenodd;stroke:none"
       id="path4212"
       inkscape:connector-curvature="0" />
    <path
       inkscape:connector-curvature="0"
       id="path5663-9"
       style="fill:#ffffff;fill-opacity:1;fill-rule:nonzero;stroke:none"
       d="m 8.603631,1037.6807 c 0,0.4867 -0.3945114,0.8812 -0.8811649,0.8812 -0.4866538,0 -0.8811649,-0.3945 -0.8811649,-0.8812 0,-0.4866 0.3945111,-0.8811 0.8811649,-0.8811 0.4866535,0 0.8811649,0.3945 0.8811649,0.8811 l 0,0 z" />
    <path
       inkscape:connector-curvature="0"
       id="path5645-0"
       style="fill:#ffffff;fill-opacity:1;fill-rule:evenodd;stroke:none"
       d="m 0.70781155,1051.182 1.94606705,0 1.3829417,-3.1296 -1.4642127,0 -1.86479605,3.1296 z" />
    <path
       inkscape:connector-curvature="0"
       id="path5649-7"
       style="fill:#ffffff;fill-opacity:1;fill-rule:evenodd;stroke:none"
       d="m 7.014089,1051.182 1.9789292,0 -0.2979935,-3.1367 -1.4086978,0 -0.2722379,3.1367 z" />
    <path
       inkscape:connector-curvature="0"
       id="path5651-1"
       style="fill:#ffffff;fill-opacity:1;fill-rule:evenodd;stroke:none"
       d="m 10.173449,1051.1878 1.962049,0.014 -1.097826,-3.1723 -1.4563865,0 0.5921635,3.1548 z"
       sodipodi:nodetypes="cccccc" />
    <path
       inkscape:connector-curvature="0"
       id="path5653-6"
       style="fill:#ffffff;fill-opacity:1;fill-rule:evenodd;stroke:none"
       d="m 13.363004,1051.202 1.929186,0 -1.916308,-3.1709 -1.430017,0.014 1.417139,3.1567 z" />
    <path
       style="fill:#ffffff;fill-opacity:1;fill-rule:evenodd;stroke:none"
       d="m 7.289062,1039.2508 -1.9335937,2.9023 c -0.3658869,0.5708 0.3030598,0.9797 0.6835937,0.3887 l 1.2285156,-1.7988 0.00195,2.3613 -2.0898437,3.7753 c -0.3108139,0.5384 0.4784904,1.0101 0.8203156,0.418 l 2.1699219,-3.8789 2.0475556,3.8424 c 0.33917,0.6008 1.154093,0.2207 0.835975,-0.4148 l -1.9811868,-3.742 -0.021484,-2.8516 0.6894532,0.6114 0,1.1386 c 0,0.573 0.8027356,0.6031 0.8027356,0.02 l 0,-1.3633 c 0,0 -0.0013,-0.1459 -0.183594,-0.3418 L 8.625,1038.8957 c -0.1769879,-0.1334 -0.9645841,-0.1612 -1.3359375,0.3555 z"
       id="path5659-8"
       inkscape:connector-curvature="0"
       sodipodi:nodetypes="cccccccccccccccccccc" />
  </g>
</svg>
