<?xml version="1.0" encoding="UTF-8" standalone="no"?>
<!-- Created with Sodipodi ("http://www.sodipodi.com/") -->

<svg
   xmlns:dc="http://purl.org/dc/elements/1.1/"
   xmlns:cc="http://creativecommons.org/ns#"
   xmlns:rdf="http://www.w3.org/1999/02/22-rdf-syntax-ns#"
   xmlns:svg="http://www.w3.org/2000/svg"
   xmlns="http://www.w3.org/2000/svg"
   xmlns:sodipodi="http://sodipodi.sourceforge.net/DTD/sodipodi-0.dtd"
   xmlns:inkscape="http://www.inkscape.org/namespaces/inkscape"
   id="svg831"
   sodipodi:version="0.32"
   width="112.85"
   height="123.6125"
   sodipodi:docname="trash-bin2.svg"
   inkscape:version="0.91 r13725"
   inkscape:output_extension="org.inkscape.output.svg.inkscape"
   version="1.1">
  <metadata
     id="metadata2212">
    <rdf:RDF>
      <cc:Work
         rdf:about="">
        <dc:format>image/svg+xml</dc:format>
        <dc:type
           rdf:resource="http://purl.org/dc/dcmitype/StillImage" />
        <cc:license
           rdf:resource="http://web.resource.org/cc/PublicDomain" />
        <dc:title></dc:title>
      </cc:Work>
      <cc:License
         rdf:about="http://web.resource.org/cc/PublicDomain">
        <cc:permits
           rdf:resource="http://web.resource.org/cc/Reproduction" />
        <cc:permits
           rdf:resource="http://web.resource.org/cc/Distribution" />
        <cc:permits
           rdf:resource="http://web.resource.org/cc/DerivativeWorks" />
      </cc:License>
    </rdf:RDF>
  </metadata>
  <defs
     id="defs833" />
  <sodipodi:namedview
     id="base"
     inkscape:zoom="3.0498533"
     inkscape:cx="0.52067075"
     inkscape:cy="61.478367"
     inkscape:window-width="1680"
     inkscape:window-height="988"
     inkscape:window-x="-8"
     inkscape:window-y="-8"
     inkscape:current-layer="svg831"
     showgrid="false"
     units="px"
     inkscape:window-maximized="1" />
  <rect
     style="opacity:1;fill:#ffffff;fill-opacity:1;stroke:none;stroke-width:1.10000002;stroke-linecap:round;stroke-linejoin:miter;stroke-miterlimit:4;stroke-dasharray:none;stroke-dashoffset:0.60000002;stroke-opacity:1"
     id="rect4136"
     width="112.85"
     height="123.6125"
     x="0"
     y="-8.3923342e-006" />
  <g
     id="g663"
     transform="matrix(0.453438,-0.0060926,0.00628608,0.467838,-68.49557,-243.2297)">
    <path
       style="fill:#000000;fill-opacity:1;fill-rule:evenodd;stroke:none;stroke-width:1.25;stroke-linecap:butt;stroke-linejoin:miter;stroke-dasharray:none;stroke-opacity:1"
       d="m 234.631,654.56 c 8.279,-4.073 11.199,-8.145 14.119,-15.079 -7.396,-4.554 -13.898,-8.156 -17.721,-18.434 -3.207,-2.543 -18.027,0.637 -19.448,8.586 5.896,10.217 10.901,17.572 23.05,24.927 z"
       id="path660"
       sodipodi:nodetypes="ccccc"
       inkscape:connector-curvature="0" />
    <path
       style="fill:#000000;fill-opacity:1;fill-rule:evenodd;stroke:none;stroke-width:1pt;stroke-linecap:butt;stroke-linejoin:miter;stroke-opacity:1"
       d="m 187.354,655.797 80.406,-10e-4 -10.149,110.072 -58.548,-0.782 -11.709,-109.289 z"
       id="path661"
       sodipodi:nodetypes="ccccc"
       inkscape:connector-curvature="0" />
    <path
       style="fill:#000000;fill-opacity:1;fill-rule:evenodd;stroke:none;stroke-width:1pt;stroke-linecap:butt;stroke-linejoin:miter;stroke-opacity:1"
       d="m 289.719,610.341 c 0.846,7.972 4.226,26.31 4.226,34.282 0,12.757 -5.917,46.243 -6.763,57.405 -0.844,11.162 1.692,47.837 -0.844,51.824 -2.536,3.986 -19.44,6.378 -19.44,6.378 l -1.69,5.58 34.653,0 3.381,-58.202 c 1.69,-4.783 6.761,-8.77 10.141,0 0.846,6.379 0,22.324 2.536,28.703 2.536,6.378 5.072,23.918 5.072,23.918 0,0 -13.523,1.595 -13.523,5.581 0,3.987 28.736,2.392 28.736,2.392 -5.071,-10.364 -5.072,-50.228 -8.452,-55.81 1.69,-5.58 0,-90.093 0,-90.093 0,0 6.761,2.392 9.297,5.581 2.535,3.189 -0.846,30.296 0.845,35.878 3.099,4.517 8.733,4.252 11.833,1.594 -1.691,-10.364 0,-39.066 -1.69,-44.647 -1.691,-5.581 -19.44,-38.27 -25.357,-40.662 -5.915,-2.392 -10.141,-0.798 -12.677,-2.392 -2.535,-4.784 2.535,-9.568 3.38,-15.946 0,-12.756 -4.225,-17.54 -16.058,-17.54 -11.833,0 -16.904,5.582 -16.904,8.77 0,3.19 2.537,17.54 3.381,19.932 3.381,2.392 5.916,1.596 9.297,1.596 5.072,3.986 0.846,7.972 0.846,7.972 0,0 -1.691,0.797 -3.381,4.784 -2.536,3.986 -8.453,12.756 -14.369,12.756 -11.832,3.986 -45.639,3.19 -47.33,6.378 -3.381,3.987 -1.69,8.771 2.535,11.162 l 58.319,-7.174 z"
       id="path662"
       sodipodi:nodetypes="cccccccccccccccccccccccccccccccc"
       inkscape:connector-curvature="0" />
  </g>
</svg>
