<?xml version="1.0" encoding="UTF-8" standalone="no"?>
<!-- Created with Inkscape (http://www.inkscape.org/) -->

<svg
   xmlns:dc="http://purl.org/dc/elements/1.1/"
   xmlns:cc="http://creativecommons.org/ns#"
   xmlns:rdf="http://www.w3.org/1999/02/22-rdf-syntax-ns#"
   xmlns:svg="http://www.w3.org/2000/svg"
   xmlns="http://www.w3.org/2000/svg"
   xmlns:sodipodi="http://sodipodi.sourceforge.net/DTD/sodipodi-0.dtd"
   xmlns:inkscape="http://www.inkscape.org/namespaces/inkscape"
   width="16"
   height="14"
   viewBox="0 0 16 14"
   id="svg2"
   version="1.1"
   inkscape:version="0.91 r13725"
   sodipodi:docname="dog_racing.svg">
  <defs
     id="defs4" />
  <sodipodi:namedview
     id="base"
     pagecolor="#ffffff"
     bordercolor="#666666"
     borderopacity="1.0"
     inkscape:pageopacity="0.0"
     inkscape:pageshadow="2"
     inkscape:zoom="31.678384"
     inkscape:cx="-1.7365394"
     inkscape:cy="6.983858"
     inkscape:document-units="px"
     inkscape:current-layer="layer1"
     showgrid="true"
     units="px"
     inkscape:window-width="1680"
     inkscape:window-height="988"
     inkscape:window-x="-8"
     inkscape:window-y="-8"
     inkscape:window-maximized="1">
    <inkscape:grid
       type="xygrid"
       id="grid4136" />
  </sodipodi:namedview>
  <metadata
     id="metadata7">
    <rdf:RDF>
      <cc:Work
         rdf:about="">
        <dc:format>image/svg+xml</dc:format>
        <dc:type
           rdf:resource="http://purl.org/dc/dcmitype/StillImage" />
        <dc:title></dc:title>
        <cc:license
           rdf:resource="http://creativecommons.org/publicdomain/zero/1.0/" />
      </cc:Work>
      <cc:License
         rdf:about="http://creativecommons.org/publicdomain/zero/1.0/">
        <cc:permits
           rdf:resource="http://creativecommons.org/ns#Reproduction" />
        <cc:permits
           rdf:resource="http://creativecommons.org/ns#Distribution" />
        <cc:permits
           rdf:resource="http://creativecommons.org/ns#DerivativeWorks" />
      </cc:License>
    </rdf:RDF>
  </metadata>
  <g
     inkscape:label="Layer 1"
     inkscape:groupmode="layer"
     id="layer1"
     transform="translate(0,-1038.3622)">
    <rect
       style="color:#000000;clip-rule:nonzero;display:inline;overflow:visible;visibility:visible;opacity:1;isolation:auto;mix-blend-mode:normal;color-interpolation:sRGB;color-interpolation-filters:linearRGB;solid-color:#000000;solid-opacity:1;fill:#ffffff;fill-opacity:1;fill-rule:evenodd;stroke:none;stroke-width:1;stroke-linecap:round;stroke-linejoin:miter;stroke-miterlimit:4;stroke-dasharray:none;stroke-dashoffset:0;stroke-opacity:1;color-rendering:auto;image-rendering:auto;shape-rendering:auto;text-rendering:auto;enable-background:accumulate"
       id="rect4142"
       width="16"
       height="14"
       x="0"
       y="1038.3622"
       ry="0" />
    <g
       id="layer1-35"
       inkscape:label="Layer 1"
       transform="matrix(0.08016301,0,0,0.08016301,-25.997934,999.69178)"
       style="fill:#000000">
      <path
         sodipodi:nodetypes="ccccccccscscccccccccssccccccccccccccccccccccccsccccsccccsccc"
         inkscape:connector-curvature="0"
         id="path7356"
         d="m 478.66596,493.02539 c -2.2115,5.15789 -4.448,11.38492 -5.88841,16.78946 -4.17194,0.46355 -6.25567,7.30997 -12.93377,13.88487 l -4.18357,4.87825 -6.97005,5.57679 c -3.486,4.87995 -27.18983,10.45646 -36.94967,11.15361 -8.36559,1.39427 -37.64271,3.48644 -42.5226,6.27535 -8.36564,0 -6.27365,-0.69763 -11.1536,-4.18357 -2.78853,0 -4.18355,5.5e-4 -4.18355,2.09177 0,1.39472 2.78924,2.79087 4.18355,4.88213 0,2.09128 0.69468,2.08989 0.69468,4.87825 0,0.69765 -2.08938,2.78792 -2.78645,3.48501 -1.39431,3.48545 -2.09178,2.7884 -2.09178,7.66858 -0.74803,12.18422 3.22026,10.23823 -0.15285,23.95543 -0.86761,4.03175 -5.10542,7.47547 -7.66858,9.06568 -2.09138,2.09126 -4.87863,4.17963 -6.97003,6.27147 -4.4508,2.74752 -1.15739,10.7462 -0.69855,15.33716 l 0.50508,15.21517 c 1.57908,4.7403 6.3953,4.30556 10.64851,4.30556 2.09144,0 2.0918,-1.39375 2.0918,-3.48501 2.02706,-1.99847 0,0 -4.39905,-6.05348 -2.70085,-3.71662 -0.75266,-10.2917 -0.26655,-14.1062 0.92337,-7.24561 13.12175,-12.11005 19.45703,-17.73967 8.25843,-3.44534 11.48333,-8.86159 16.73041,-16.73041 1.54632,-0.92243 3.18704,-1.52884 4.8821,-2.09177 5.5512,1.64468 5.54054,3.91712 7.66858,-1.39709 l 8.36329,0 c 10.70783,0.22488 15.68328,9.08303 29.22202,11.27558 6.33441,-0.11813 4.04837,-0.11813 6.33441,-0.11813 l 1.39322,0.69468 1.39324,8.36714 c 1.07574,7.51834 -2.51898,27.1388 1.70871,30.67433 l 0,2.78645 c 3.11971,8.84003 5.52951,7.10445 11.4271,7.10445 l 0.69854,-0.69855 2.09177,-0.69469 -2.79031,-5.5768 0,-0.69854 -4.18357,-2.79033 -0.6947,-1.39324 c -2.30356,-10.8698 2.47488,-21.59186 5.50534,-32.1981 l 0.69468,-1.39709 4.36462,-11.8483 c 4.76722,-4.49415 6.29203,-7.81853 6.9739,-13.94392 5.04179,-11.83031 1.76362,-21.48851 7.66858,-30.67433 l 3.48501,-4.87825 c 2.78836,-2.09142 4.18164,-4.18355 9.06182,-4.18355 3.48545,0 4.18314,2.78991 7.66859,0.69854 l 3.48501,0 c 4.60235,-0.8342 7.74445,-1.26117 10.45891,-4.88211 l 0,-0.69856 c 0.69765,-0.69709 1.39324,-1.39217 1.39324,-2.78645 0,-1.39425 -1.3947,-1.39324 -2.09179,-1.39324 l -11.86789,-5.255 -3.48501,-5.57679 c -0.83373,-1.79665 -2.46412,-2.79033 -4.39747,-2.79033 -2.09126,-0.69709 -4.16594,-1.71505 -6.9543,-1.71505 l -1.17931,0 c -0.41251,-1.37507 -0.71014,-2.52736 -0.99573,-3.65097 -0.26168,-4.16294 0.54057,-8.18019 -1.7946,-11.68619 z"
         style="fill:#000000;fill-opacity:1;fill-rule:evenodd;stroke:none" />
    </g>
  </g>
</svg>
