<?xml version="1.0" encoding="UTF-8" standalone="no"?>
<!-- Created with Inkscape (http://www.inkscape.org/) -->

<svg
   xmlns:dc="http://purl.org/dc/elements/1.1/"
   xmlns:cc="http://creativecommons.org/ns#"
   xmlns:rdf="http://www.w3.org/1999/02/22-rdf-syntax-ns#"
   xmlns:svg="http://www.w3.org/2000/svg"
   xmlns="http://www.w3.org/2000/svg"
   xmlns:sodipodi="http://sodipodi.sourceforge.net/DTD/sodipodi-0.dtd"
   xmlns:inkscape="http://www.inkscape.org/namespaces/inkscape"
   version="1.0"
   width="300"
   height="300"
   viewBox="0 0 240 240"
   id="svg3045"
   inkscape:version="0.91 r13725"
   sodipodi:docname="16.svg">
  <sodipodi:namedview
     pagecolor="#ffffff"
     bordercolor="#666666"
     borderopacity="1"
     objecttolerance="10"
     gridtolerance="10"
     guidetolerance="10"
     inkscape:pageopacity="0"
     inkscape:pageshadow="2"
     inkscape:window-width="1680"
     inkscape:window-height="988"
     id="namedview11"
     showgrid="true"
     inkscape:zoom="2.2250293"
     inkscape:cx="127.68355"
     inkscape:cy="171.64626"
     inkscape:window-x="-8"
     inkscape:window-y="-8"
     inkscape:window-maximized="1"
     inkscape:current-layer="svg3045">
    <inkscape:grid
       type="xygrid"
       id="grid4139" />
  </sodipodi:namedview>
  <defs
     id="defs3065" />
  <metadata
     id="metadata3047">
Created by potrace 1.11, written by Peter Selinger 2001-2013
<rdf:RDF>
  <cc:Work
     rdf:about="">
    <dc:format>image/svg+xml</dc:format>
    <dc:type
       rdf:resource="http://purl.org/dc/dcmitype/StillImage" />
    <dc:title></dc:title>
  </cc:Work>
</rdf:RDF>
</metadata>
  <rect
     style="opacity:1;fill:#ffffff;fill-opacity:1;stroke:#000000;stroke-width:0.87678516;stroke-linecap:round;stroke-linejoin:miter;stroke-miterlimit:4;stroke-dasharray:none;stroke-dashoffset:0.60000002;stroke-opacity:1"
     id="rect4141"
     width="239.12321"
     height="239.12321"
     x="0.43839258"
     y="0.43838584" />
  <g
     transform="matrix(-0.8,0,0,-0.8,278.4489,251.57613)"
     id="g3125"
     style="fill:#000000;fill-opacity:1;stroke:#000000;stroke-width:1px;stroke-linecap:butt;stroke-linejoin:miter;stroke-opacity:1">
    <circle
       cx="111.3"
       cy="86.800003"
       r="21.6"
       transform="translate(52.430169,145.41677)"
       id="circle3127" />
    <path
       d="M 184.21456,127.80624 C 174.50639,143.34846 146.99022,118.31729 118.28405,94.640199 91.49953,72.725832 59.288224,48.331528 60.490318,46.24946 c 1.079604,-2.152786 36.343473,16.247222 67.926162,32.113659 32.38822,16.16822 63.99545,36.376221 55.79808,49.443121 z"
       id="path3135" />
    <path
       d="m 193.13742,208.00589 c -9.46109,9.17823 10.81875,24.53657 31.2541,42.00211 18.9505,16.26347 39.10303,33.87042 40.44653,32.80978 1.41422,-0.98997 -14.07142,-22.83954 -29.27424,-43.27495 -15.55632,-20.93034 -31.32482,-42.49712 -42.42639,-31.53694 z"
       id="path3131-0"
       style="fill:#000000;fill-opacity:1;stroke:#000000;stroke-width:1px;stroke-linecap:butt;stroke-linejoin:miter;stroke-opacity:1" />
    <path
       d="m 190.49779,134.56311 c -4.12529,17.85472 33.03129,19.61188 70.07186,23.16798 34.43531,3.4437 74.46152,8.97117 75.08375,6.64891 0.75886,-2.28565 -37.18724,-14.21019 -70.73883,-25.32327 -34.3346,-11.46927 -70.9735,-19.52974 -74.41678,-4.49362 z"
       id="path3135-2"
       style="fill:#000000;fill-opacity:1;stroke:#000000;stroke-width:1px;stroke-linecap:butt;stroke-linejoin:miter;stroke-opacity:1" />
    <path
       d="m 154.39456,195.56197 c 9.46109,9.17823 -10.81875,24.53657 -31.2541,42.00211 -18.9505,16.26347 -39.103029,33.87042 -40.446529,32.80978 -1.41422,-0.98997 14.07142,-22.83954 29.274239,-43.27495 15.55632,-20.93034 31.32482,-42.49712 42.42639,-31.53694 z"
       id="path3131-0-9"
       style="fill:#000000;fill-opacity:1;stroke:#000000;stroke-width:1px;stroke-linecap:butt;stroke-linejoin:miter;stroke-opacity:1" />
  </g>
</svg>
