<?xml version="1.0" encoding="UTF-8" standalone="no"?>
<!-- Generator: Adobe Illustrator 15.0.0, SVG Export Plug-In . SVG Version: 6.00 Build 0)  -->

<svg
   xmlns:dc="http://purl.org/dc/elements/1.1/"
   xmlns:cc="http://creativecommons.org/ns#"
   xmlns:rdf="http://www.w3.org/1999/02/22-rdf-syntax-ns#"
   xmlns:svg="http://www.w3.org/2000/svg"
   xmlns="http://www.w3.org/2000/svg"
   xmlns:sodipodi="http://sodipodi.sourceforge.net/DTD/sodipodi-0.dtd"
   xmlns:inkscape="http://www.inkscape.org/namespaces/inkscape"
   version="1.1"
   x="0px"
   y="0px"
   width="160"
   height="160"
   viewBox="0 0 160 160"
   enable-background="new 0 0 580 580"
   xml:space="preserve"
   id="svg2"
   inkscape:version="0.92.2 (5c3e80d, 2017-08-06)"
   sodipodi:docname="24.svg"><metadata
     id="metadata26"><rdf:RDF><cc:Work
         rdf:about=""><dc:format>image/svg+xml</dc:format><dc:type
           rdf:resource="http://purl.org/dc/dcmitype/StillImage" /><dc:title></dc:title></cc:Work></rdf:RDF></metadata><defs
     id="defs24" /><sodipodi:namedview
     pagecolor="#ffffff"
     bordercolor="#666666"
     borderopacity="1"
     objecttolerance="10"
     gridtolerance="10"
     guidetolerance="10"
     inkscape:pageopacity="0"
     inkscape:pageshadow="2"
     inkscape:window-width="1680"
     inkscape:window-height="987"
     id="namedview22"
     showgrid="true"
     fit-margin-top="0"
     fit-margin-left="0"
     fit-margin-right="0"
     fit-margin-bottom="0"
     inkscape:zoom="0.57543862"
     inkscape:cx="284.53234"
     inkscape:cy="300.31804"
     inkscape:window-x="-8"
     inkscape:window-y="-8"
     inkscape:window-maximized="1"
     inkscape:current-layer="svg2"><inkscape:grid
       type="xygrid"
       id="grid4508" /></sodipodi:namedview><path
     style="opacity:1;fill:#c87137;fill-opacity:1;stroke-width:0.31101668"
     id="path12"
     d="m 17.837663,150.0613 11.06454,-73.837724 8.67461,-5.27511 8.48543,5.41553 c 0,0 9.620531,74.592154 8.717211,74.144884 -0.90333,-0.44727 -36.761251,0.22379 -36.941791,-0.44758 z"
     sodipodi:nodetypes="ccccsc"
     inkscape:connector-curvature="0" /><path
     style="fill:#502d16;stroke-width:0.31101668"
     inkscape:connector-curvature="0"
     id="path16"
     d="m 75.033694,110.98099 c -0.013,-0.58926 -0.27189,-1.14466 -0.71291,-1.52799 L 44.645693,83.648216 74.320784,57.843756 c 0.44071,-0.38333 0.69994,-0.93905 0.71291,-1.52799 0.013,-0.58894 -0.2219,-1.15595 -0.64563,-1.5584 l -10.06864,-9.56979 c -0.42589,-0.40496 -1.003,-0.60399 -1.5829,-0.55008 -0.58081,0.0549 -1.11071,0.35983 -1.45574,0.8375 l -23.763531,32.90501 -23.76352,-32.90501 c -0.34504,-0.47767 -0.87493,-0.78265 -1.45575,-0.8375 -0.57959,-0.0539 -1.15701,0.14544 -1.5829,0.55008 l -10.0689506,9.56979 c -0.42373001,0.40277 -0.65828002,0.96946 -0.64562001488,1.5584 C 0.01311239,56.904706 0.27240239,57.460426 0.7134124,57.843756 L 30.388503,83.648216 0.7134124,109.453 c -0.44070001,0.38333 -0.69994001,0.93873 -0.71290001488,1.52799 -0.0130000051,0.58895 0.22189000488,1.15595 0.64562001488,1.5584 l 10.0689506,9.56948 c 0.3796,0.36076 0.87863,0.55917 1.39372,0.55917 0.063,0 0.12622,-0.003 0.18918,-0.009 0.58082,-0.0549 1.11071,-0.35951 1.45575,-0.8375 l 23.76352,-32.904704 23.763531,32.904704 c 0.34503,0.47767 0.87493,0.78264 1.45574,0.8375 0.0633,0.006 0.12623,0.009 0.18919,0.009 0.51508,0 1.01411,-0.19841 1.39371,-0.55917 l 10.06864,-9.56948 c 0.42373,-0.40276 0.65859,-0.96945 0.64563,-1.5584 z m -38.809541,-27.332774 1.29279,-1.27003 1.29249,1.27003 -1.29249,1.27036 z" /><g
     id="g3020"
     style="fill:#550000"
     transform="matrix(0.30861723,0,0,0.31343479,-8.4793659,-10.895934)"><path
       d="m 545.682,194.647 c -1.16,-5.038 -4.064,-9.303 -8.713,-12.793 L 313.705,34.763 293.353,64.412 c -5.039,6.979 -3.873,12.988 3.496,18.027 6.967,4.259 12.971,3.094 18.01,-3.495 L 326.498,61.502 507.889,180.701 359.643,207.44 c -5.43,1.16 -9.791,3.969 -13.086,8.429 -3.295,4.459 -4.166,9.209 -2.617,14.247 l 31.975,125.002 -104.65,156.407 c -1.939,3.478 -2.91,7.156 -2.91,11.036 0,6.198 2.23,11.527 6.689,15.987 4.459,4.459 9.787,6.688 15.986,6.688 8.139,0 14.727,-3.874 19.766,-11.622 l 109.299,-164.551 5.82,22.676 -16.271,123.263 c -0.781,6.198 0.574,11.723 4.064,16.572 3.488,4.85 8.332,7.854 14.531,9.014 6.211,1.159 11.93,-0.101 17.158,-3.779 5.228,-3.678 8.232,-8.623 9.014,-14.833 l 16.855,-126.155 c 0.391,-4.271 0.004,-8.729 -1.152,-13.378 L 432.887,234.18 529.996,216.739 c 5.039,-0.769 9.107,-3.383 12.207,-7.843 3.1,-4.459 4.258,-9.208 3.479,-14.249 z"
       id="path18"
       inkscape:connector-curvature="0"
       style="fill:#550000" /><path
       d="m 379.693,184.472 c 7.559,-7.174 11.338,-15.989 11.338,-26.446 0,-10.468 -3.779,-19.289 -11.338,-26.464 -7.561,-7.174 -16.572,-10.761 -27.041,-10.761 -10.457,0 -19.371,3.587 -26.74,10.761 -7.369,7.175 -11.053,15.996 -11.053,26.464 0,10.457 3.684,19.272 11.053,26.446 7.369,7.175 16.283,10.762 26.74,10.762 10.469,-0.001 19.481,-3.588 27.041,-10.762 z"
       id="path20"
       inkscape:connector-curvature="0"
       style="fill:#550000" /></g></svg>