<?xml version="1.0" encoding="UTF-8" standalone="no"?>
<!-- Created with Inkscape (http://www.inkscape.org/) -->

<svg
   xmlns:dc="http://purl.org/dc/elements/1.1/"
   xmlns:cc="http://creativecommons.org/ns#"
   xmlns:rdf="http://www.w3.org/1999/02/22-rdf-syntax-ns#"
   xmlns:svg="http://www.w3.org/2000/svg"
   xmlns="http://www.w3.org/2000/svg"
   xmlns:sodipodi="http://sodipodi.sourceforge.net/DTD/sodipodi-0.dtd"
   xmlns:inkscape="http://www.inkscape.org/namespaces/inkscape"
   version="1.0"
   width="16"
   height="10.389996"
   id="svg2"
   sodipodi:version="0.32"
   inkscape:version="0.91 r13725"
   sodipodi:docname="stadium2.svg"
   inkscape:output_extension="org.inkscape.output.svg.inkscape">
  <metadata
     id="metadata2975">
    <rdf:RDF>
      <cc:Work
         rdf:about="">
        <dc:format>image/svg+xml</dc:format>
        <dc:type
           rdf:resource="http://purl.org/dc/dcmitype/StillImage" />
        <cc:license
           rdf:resource="http://creativecommons.org/publicdomain/zero/1.0/" />
        <dc:language>en</dc:language>
        <dc:title></dc:title>
      </cc:Work>
      <cc:License
         rdf:about="http://creativecommons.org/publicdomain/zero/1.0/">
        <cc:permits
           rdf:resource="http://creativecommons.org/ns#Reproduction" />
        <cc:permits
           rdf:resource="http://creativecommons.org/ns#Distribution" />
        <cc:permits
           rdf:resource="http://creativecommons.org/ns#DerivativeWorks" />
      </cc:License>
    </rdf:RDF>
  </metadata>
  <sodipodi:namedview
     inkscape:window-height="988"
     inkscape:window-width="1680"
     inkscape:pageshadow="2"
     inkscape:pageopacity="0.0"
     guidetolerance="10.0"
     gridtolerance="10.0"
     objecttolerance="10.0"
     borderopacity="1.0"
     bordercolor="#666666"
     pagecolor="#ffffff"
     id="base"
     inkscape:zoom="58.987336"
     inkscape:cx="3.824291"
     inkscape:cy="4.6134315"
     inkscape:window-x="-8"
     inkscape:window-y="-8"
     inkscape:current-layer="svg2"
     showgrid="true"
     inkscape:window-maximized="1"
     fit-margin-top="0"
     fit-margin-left="0"
     fit-margin-right="0"
     fit-margin-bottom="0">
    <inkscape:grid
       type="xygrid"
       id="grid4339"
       originx="0"
       originy="4.7215628e-006" />
  </sodipodi:namedview>
  <defs
     id="defs4" />
  <path
     style="fill:#ffffff;fill-rule:evenodd;stroke:none;stroke-width:1px;stroke-linecap:butt;stroke-linejoin:miter;stroke-opacity:1"
     d="M 0.48255,3.01814 1.45877,7.6027 5.26267,9.60068 10.91803,9.54188 14.31389,8.01476 15.61012,2.57649 13.29934,1.08804 7.77006,0.55841 1.53076,1.55443 Z"
     id="path4476"
     inkscape:connector-curvature="0"
     sodipodi:nodetypes="cccccccccc" />
  <g
     id="layer3"
     inkscape:label="Layout"
     style="display:none;stroke:#757575;stroke-opacity:1"
     transform="matrix(48.14969,0,0,48.14969,-571.71447,-509.00943)">
    <rect
       style="display:inline;fill:none;stroke:#757575;stroke-width:0.1;stroke-miterlimit:4;stroke-dasharray:none;stroke-opacity:1"
       id="rect4134"
       width="10"
       height="10"
       x="1"
       y="1" />
    <rect
       style="display:inline;fill:none;stroke:#757575;stroke-width:0.1;stroke-miterlimit:4;stroke-dasharray:none;stroke-opacity:1"
       id="rect4136"
       width="8"
       height="8"
       x="2"
       y="2" />
  </g>
  <path
     style="fill:#666666;fill-opacity:1;stroke:none;stroke-width:20;marker:none;enable-background:accumulate"
     d="m 14.88429,7.00623 c -0.64534,1.12728 -3.48207,1.97593 -6.88472,1.97593 -3.40139,0 -6.238,-0.84752 -6.88472,-1.97418 -0.0513,0.12566 -0.0805,0.26054 -0.0805,0.40604 0,0.48497 0.3048872,0.9609667 0.6995372,1.2323167 0.39464,0.27135 0.9076,0.5174356 1.52581,0.6972156 1.2364,0.35957 2.89294,0.5892628 4.72289,0.5892628 1.82996,0 3.5358088,-0.2805511 4.7722088,-0.6401211 0.6182,-0.17978 1.183568,-0.39196 1.578218,-0.66331 0.39465,-0.27135 0.633266,-0.730394 0.633266,-1.215364 0,-0.14626 -0.0302,-0.28157 -0.08199,-0.40779 z"
     id="path8348"
     inkscape:connector-curvature="0"
     sodipodi:nodetypes="cscsscssssc" />
  <path
     style="fill:none;fill-opacity:1;stroke:#666666;stroke-width:0.85306829;stroke-linecap:round;stroke-linejoin:round;stroke-miterlimit:4;stroke-dasharray:none;stroke-opacity:1"
     d="M 0.46687279,2.61817 1.4507923,7.6779"
     id="path8386"
     inkscape:connector-curvature="0"
     sodipodi:nodetypes="cc" />
  <path
     sodipodi:nodetypes="cc"
     inkscape:connector-curvature="0"
     id="path8390"
     d="M 15.54133,2.61817 14.61403,7.6779"
     style="fill:none;fill-opacity:1;stroke:#666666;stroke-width:0.85306829;stroke-linecap:round;stroke-linejoin:round;stroke-miterlimit:4;stroke-dasharray:none;stroke-opacity:1" />
  <path
     style="fill:#1a1a1a;fill-opacity:1;stroke:#ffffff;stroke-width:0.05687122;stroke-opacity:1"
     d="m 10.69543,7.77116 0,2.15731 c 0,0.23993 -0.30943,0.43309 -0.69379,0.43309 l -3.70298,0 c -0.38436,0 -0.69379,-0.19316 -0.69379,-0.43309 l 0,-2.15731 c 0.46851,-2.34615 5.10996,-2.01917 5.09056,0 z"
     id="rect8396"
     inkscape:connector-curvature="0"
     sodipodi:nodetypes="csssscc" />
  <path
     inkscape:connector-curvature="0"
     d="m 13.01518,0.93749 -0.50166,-0.0701 -0.99769,2.168 0.0185,0.0308 z M 9.95511,0.37049 9.55444,0.33409 9.40157,2.7714 9.45487,2.8023 Z m -6.75879,0.567 0.50166,-0.0701 0.99769,2.168 -0.0185,0.0308 z m 3.06007,-0.567 0.40067,-0.0364 0.15287,2.43731 -0.0533,0.0309 z"
     style="opacity:1;fill:#000000;fill-opacity:1;stroke:#000000;stroke-width:0.3102628;stroke-linecap:round;stroke-linejoin:round;stroke-miterlimit:4;stroke-dasharray:none;stroke-opacity:1"
     id="path4477"
     sodipodi:nodetypes="cccccccccccccccccccc" />
  <path
     id="path8448"
     style="opacity:1;fill:#008000;fill-opacity:1;stroke:#008000;stroke-width:0.3102628;stroke-linecap:round;stroke-linejoin:round;stroke-miterlimit:4;stroke-dasharray:none;stroke-opacity:1"
     d="M 8.09677,2.74104 C 6.29251,2.76394 4.47399,2.9329 2.73892,3.43428 4.78623,3.93754 6.91541,4.03738 9.01873,3.97734 10.55258,3.91654 12.09656,3.76488 13.57485,3.34992 11.79351,2.88041 9.9364,2.73442 8.09677,2.74104 Z"
     inkscape:connector-curvature="0"
     sodipodi:nodetypes="ccccc" />
  <path
     style="fill:#666666;fill-opacity:1;stroke:none;stroke-width:20;marker:none;enable-background:accumulate"
     d="M 7.99918,0 C 5.89754,0 3.99615,0.23721 2.57618,0.63815 1.8662,0.83862 1.27701,1.0751 0.82377,1.37767 0.37053,1.68024 0,2.09657 0,2.63734 0,3.17812 0.37053,3.59445 0.82377,3.89702 1.27701,4.19959 1.8662,4.43773 2.57618,4.6382 c 1.41997,0.40094 3.32136,0.63815 5.423,0.63815 2.10165,0 4.00304,-0.23721 5.42301,-0.63815 0.70998,-0.20047 1.30086,-0.43861 1.7541,-0.74118 0.45324,-0.30257 0.82377,-0.7189 0.82377,-1.25968 0,-0.54077 -0.37053,-0.9571 -0.82377,-1.25967 C 14.72305,1.0751 14.13217,0.83862 13.42219,0.63815 12.00222,0.23721 10.10083,0 7.99918,0 Z m 0,1.06358 c 2.01757,0 3.84583,0.23533 5.1253,0.5966 0.63974,0.18064 1.14127,0.39692 1.44287,0.59826 0.30159,0.20134 0.35014,0.33813 0.35014,0.3789 0,0.0408 -0.0485,0.17923 -0.35014,0.38056 -0.3016,0.20134 -0.80313,0.41763 -1.44287,0.59827 -1.27947,0.36127 -3.10773,0.5966 -5.1253,0.5966 -2.01757,0 -3.84413,-0.23533 -5.1236,-0.5966 C 2.23584,3.43553 1.73262,3.21924 1.43102,3.0179 1.12942,2.81657 1.08257,2.67812 1.08257,2.63734 c 0,-0.0408 0.0469,-0.17756 0.34845,-0.3789 C 1.73262,2.0571 2.23584,1.84082 2.87558,1.66018 4.15505,1.29891 5.98161,1.06358 7.99918,1.06358 Z"
     id="path8399"
     inkscape:connector-curvature="0" />
</svg>
