<svg xmlns="http://www.w3.org/2000/svg" xmlns:xlink="http://www.w3.org/1999/xlink" viewBox="0 0 1000 1000"><defs><filter id="A" color-interpolation-filters="sRGB"><feGaussianBlur stdDeviation=".5"/></filter><filter color-interpolation-filters="sRGB"><feGaussianBlur stdDeviation="1 1"/></filter><filter id="3"><feGaussianBlur stdDeviation="10"/></filter><filter id="5" x="-.033" width="1.066" y="-.309" height="1.618"><feGaussianBlur stdDeviation="11.58046"/></filter><filter color-interpolation-filters="sRGB"><feGaussianBlur stdDeviation="5"/></filter><linearGradient gradientUnits="userSpaceOnUse" y1="860" x2="0" y2="140"><stop stop-color="#fff6ca"/><stop offset="1" stop-color="#fff9db"/></linearGradient><linearGradient id="L" gradientUnits="userSpaceOnUse" x1="470" y1="540" x2="570" y2="600"><stop stop-color="#ddc2b6"/><stop offset="1" stop-color="#c19886"/></linearGradient><linearGradient gradientUnits="userSpaceOnUse" x1="49.19" y1="1066.23" x2="49.12" y2="1031.68"><stop/><stop offset="1" stop-opacity="0"/></linearGradient><linearGradient gradientUnits="userSpaceOnUse" x1="470" y1="540" x2="570" y2="600"><stop stop-color="#fff4ac"/><stop offset="1" stop-color="#ffe19c"/></linearGradient><linearGradient id="K" gradientUnits="userSpaceOnUse" y1="860" x2="0" y2="140"><stop stop-color="#ffe289"/><stop offset="1" stop-color="#fff4d1"/></linearGradient><linearGradient id="C" x1="215.46" y1="753.18" x2="280.41" y2="715.68" gradientUnits="userSpaceOnUse"><stop stop-color="#e6b636"/><stop offset=".5" stop-color="#f1cf09"/><stop offset=".563" stop-color="#f0d609"/><stop offset=".625" stop-color="#f0b10a"/><stop offset=".688" stop-color="#f0ce0b"/><stop offset=".75" stop-color="#f0aa0c"/><stop offset="1" stop-color="#ffd900"/></linearGradient><linearGradient id="0"><stop/><stop offset="1" stop-color="#3c3c3c" stop-opacity="0"/></linearGradient><linearGradient y2="600" x2="570" y1="540" x1="470" gradientUnits="userSpaceOnUse"><stop stop-color="#ffda66"/><stop offset="1" stop-color="#c38d24"/></linearGradient><linearGradient xlink:href="#0" id="4" x1="455" y1="690" x2="495" y2="670" gradientUnits="userSpaceOnUse"/><linearGradient id="6" y1="860" x2="0" y2="140" gradientUnits="userSpaceOnUse"><stop stop-color="#3172e1"/><stop offset="1" stop-color="#5191ff"/></linearGradient><linearGradient y1="860" x2="0" y2="140" gradientUnits="userSpaceOnUse"><stop stop-color="#d2d2d2"/><stop offset="1" stop-color="#e8e8e8"/></linearGradient><linearGradient id="7" y1="320" x2="0" y2="120" gradientUnits="userSpaceOnUse"><stop stop-color="#009600"/><stop offset="1" stop-color="#15bc15"/></linearGradient><linearGradient gradientTransform="matrix(.98704.23824-.9468 1.3017 203.99-122.85)" y2="306.71" x2="938.57" y1="454.99" x1="716.07" gradientUnits="userSpaceOnUse" id="2" xlink:href="#0"/><linearGradient id="1" x1="455" y1="655" x2="480" y2="670" gradientUnits="userSpaceOnUse"><stop stop-color="#969696"/><stop offset="1" stop-color="#3c3c3c"/></linearGradient><mask maskUnits="userSpaceOnUse" id="I"><path d="m80 60v800l280 80 280-80 280 80v-800l-280-80-280 80z" fill="#fff"/></mask><mask maskUnits="userSpaceOnUse" id="M"><path d="m800 210v90l85 25v-90z" fill="#fff"/></mask><mask maskUnits="userSpaceOnUse" id="H"><path d="m80 60v800l280 80 280-80 280 80v-800l-280-80-280 80z" fill="#fff"/></mask><mask maskUnits="userSpaceOnUse" id="J"><path d="m80 60v800l280 80 280-80 280 80v-800l-280-80-280 80z" fill="#fff"/></mask><mask maskUnits="userSpaceOnUse" id="F"><path d="m80 60v800l280 80 280-80 280 80v-800l-280-80-280 80z" fill="#fff"/></mask><mask maskUnits="userSpaceOnUse"><path d="m25.619-1.2c-15 10 5 15 0 25 15-10-5-15 0-25m-15 10c-15 10 5 15 0 25 15-10-5-15 0-25m35 0c-15 10 5 15 0 25 15-10-5-15 0-25m-60 30c-5 0-5 5 0 5h10v40c0 7-10 7-10 0v-5c0-5-5-5-5 0v5c0 13.313 20 13.313 20 0v-40h70c5 0 5-5 0-5zm25 10c-2 0-5 3-5 5v35c0 2 3 5 5 5h10c2 0 5-3 5-5v-35c0-2-3-5-5-5zm25 0c-2 0-5 3-5 5v20h15v15h-10v-5h-5v5c0 2 3 5 5 5h10c2 0 5-3 5-5v-20h-15v-15h10v5h5v-5c0-2-3-5-5-5zm20 0v45h5v-26l5 11 5-11v26h5v-45l-10 20zm-45 5h10v35h-10z" fill="#45a5ec"/></mask><mask maskUnits="userSpaceOnUse" id="8"><path d="m80 60v800l280 80 280-80 280 80v-800l-280-80-280 80z" fill="#fff"/></mask><mask maskUnits="userSpaceOnUse" id="G"><path d="m80 60v800l280 80 280-80 280 80v-800l-280-80-280 80z" fill="#fff"/></mask><mask maskUnits="userSpaceOnUse" id="B"><path d="m80 60v800l280 80 280-80 280 80v-800l-280-80-280 80z" fill="#fff"/></mask><mask maskUnits="userSpaceOnUse" id="E"><path d="m80 60v800l280 80 280-80 280 80v-800l-280-80-280 80z" fill="#fff"/></mask><mask maskUnits="userSpaceOnUse" id="9"><path d="m80 60v800l280 80 280-80 280 80v-800l-280-80-280 80z" fill="#fff"/></mask><mask maskUnits="userSpaceOnUse" id="D"><text x="249.11" y="748.04" transform="matrix(.5-.86603.86603.5 0 0)" fill="#fff" font-family="OpenGost Type B" text-anchor="middle" text-align="center" word-spacing="0" line-height="125%" letter-spacing="0" font-size="48"><tspan x="249.11" y="748.04" fill="#fff">JOSM</tspan></text></mask></defs><path d="m80 840l340 80 220-50 220 50-40-100h-700z" filter="url(#5)"/><path d="m80 60v800l280 80 280-80 280 80v-800l-280-80-280 80z" fill="url(#K)"/><path d="m605 60l-85 25c-38 35-60 65-60 125 0 65 26.398 78.74 35 110 16.336 59.37 22.63 101.19 42.16 150 26.875 67.19 4.215 173.2 32.844 240 16.332 38.11 25 45 70 65 10 10 25 30 30 40 13.945 27.889 5.352 50.35 25 70l235 65-10-60c-20-190-150.18-219.09-204.28-264.28-60.714-50.714-21.889-99.23-45.719-170.72-5.665-16.995-20-75-30-85-45-30-70-60-85-110-33.17-110.57 80-165 50-200zm-345 745c-41.743 7.657-40 55-80 45-24.21-6.05-59.07 5.48-75 30l255 70 160-45c-21.936-46.1-135-130-160-85-35 15-63.39-21.716-100-15z" mask="url(#9)" fill="url(#6)" stroke="#0044c1"/><path d="m315 115c-20.311 2.121-27.14 31.06-27.14 48.571 0 15 7.799 31.04 4.286 45.714-12.143 50.714-34.27 74.28-50 82.14-11.523 5.762-27.28 4.857-39.29 7.857-12.712 3.178-22.05 16.09-35.714 17.857-22.14 2.857-35.433-2.143-57.14-2.143-10 0-39.712 16.15-40 15v-280z" mask="url(#8)" fill="url(#7)" stroke="#005000"/><path d="m495 385l-10-40-55 45 10 40z" fill="#ceeba8" stroke="#aadd6b"/><path d="m220 730l140-10 65-40v-95l-65 40-140 15z" fill="#5c8b9f" stroke="#002f42"/><path d="m415 505l-15-74-40 29-60 15-25-125-105 25 40 212.5 150-37.5z" fill="#de8f8f" stroke="#420000"/><path d="m800 210v90l85 25v-90z" fill="#ff2828" stroke="#b50000" fill-opacity=".235"/><path d="m360 180l125-40v40l-30 10v13.283l-95 31.717-15-5v-55z" fill="#40bfc0" stroke="#002828"/><path d="m155 635l-5 110-60-15 5-110z" stroke-dasharray="2 2" fill="none" stroke="#000" stroke-width="2"/><g fill="#efca00" stroke="#282400"><path d="m735 515l85 55 30-40-85-55z"/><path d="m775 460l85 55 30-40-85-55z"/><path d="m815 405l85 55 30-40-85-55z" mask="url(#I)"/></g><g stroke="#000"><path d="m145 580l-25-150h-50v150z" mask="url(#J)" stroke-dasharray="2 2" fill="none" stroke-width="2"/><path d="m775 650l15-15-10-10-15 15z" fill="#c0aeaf"/></g><g fill="none"><path mask="url(#M)" d="m825 215l-30 30 30-30zm25 0l-55 55 55-55zm25 0l-80 80 80-80zm25 0l-105 105 105-105zm0 25l-90 90 90-90zm0 25l-65 65 65-65zm0 25l-40 40 40-40z" stroke="#f50000" stroke-linejoin="round" stroke-linecap="round"/><g mask="url(#H)" stroke="#820082"><path mask="none" d="m-185 275h80l160-40 25 130 40-10 130-105 10 40" transform="translate(240 80)"/><path mask="none" d="m646 48l-11 32 25 75v100l-70 20-45 65-60 25h-55" transform="translate(240 80)"/></g><path d="m180 620l180-45 45-35-13-16" mask="none" stroke-dasharray="8 8" stroke="#906b00"/><path d="m461 188c2-15 4-29 12-44" stroke-dasharray="4 1" stroke="#f00"/></g><path d="m460 163h3l2 2 2-2h3l-3 3 3 3h-3l-2-2-2 2h-3l3-3z" fill="#ff0101" stroke="#a00000" stroke-linecap="round"/><path d="m322 445c0 1.105-.895 2-2 2-1.105 0-2-.895-2-2 0-1.105.895-2 2-2 1.105 0 2 .895 2 2"/><path d="m297 315c0 1.105-.895 2-2 2-1.105 0-2-.895-2-2 0-1.105.895-2 2-2 1.105 0 2 .895 2 2"/><path d="m137 355c0 1.105-.895 2-2 2-1.105 0-2-.895-2-2 0-1.105.895-2 2-2 1.105 0 2 .895 2 2"/><path d="m492 330c0 1.105-.895 2-2 2-1.105 0-2-.895-2-2 0-1.105.895-2 2-2 1.105 0 2 .895 2 2"/><path d="m502 370c0 1.105-.895 2-2 2-1.105 0-2-.895-2-2 0-1.105.895-2 2-2 1.105 0 2 .895 2 2"/><path d="m672 445c0 1.105-.895 2-2 2-1.105 0-2-.895-2-2 0-1.105.895-2 2-2 1.105 0 2 .895 2 2"/><path d="m727 445c0 1.105-.895 2-2 2-1.105 0-2-.895-2-2 0-1.105.895-2 2-2 1.105 0 2 .895 2 2"/><path d="m787 420c0 1.105-.895 2-2 2-1.105 0-2-.895-2-2 0-1.105.895-2 2-2 1.105 0 2 .895 2 2"/><path d="m832 355c0 1.105-.895 2-2 2-1.105 0-2-.895-2-2 0-1.105.895-2 2-2 1.105 0 2 .895 2 2"/><path d="m902 335c0 1.105-.895 2-2 2-1.105 0-2-.895-2-2 0-1.105.895-2 2-2 1.105 0 2 .895 2 2"/><path d="m902 235c0 1.105-.895 2-2 2-1.105 0-2-.895-2-2 0-1.105.895-2 2-2 1.105 0 2 .895 2 2"/><path d="m877 160c0 1.105-.895 2-2 2-1.105 0-2-.895-2-2 0-1.105.895-2 2-2 1.105 0 2 .895 2 2"/><g stroke="#000" stroke-width="4"><path d="m402 431c0 1.105-.895 2-2 2-1.105 0-2-.895-2-2 0-1.105.895-2 2-2 1.105 0 2 .895 2 2z"/><path d="m302 475c0 1.105-.895 2-2 2-1.105 0-2-.895-2-2 0-1.105.895-2 2-2 1.105 0 2 .895 2 2z"/><path d="m277 350c0 1.105-.895 2-2 2-1.105 0-2-.895-2-2 0-1.105.895-2 2-2 1.105 0 2 .895 2 2z"/><path d="m172 375c0 1.105-.895 2-2 2-1.105 0-2-.895-2-2 0-1.105.895-2 2-2 1.105 0 2 .895 2 2z"/><path d="m212 585c0 1.105-.895 2-2 2-1.105 0-2-.895-2-2 0-1.105.895-2 2-2 1.105 0 2 .895 2 2z"/><path d="m417 505c0 1.105-.895 2-2 2-1.105 0-2-.895-2-2 0-1.105.895-2 2-2 1.105 0 2 .895 2 2z"/><path d="m222 640c0 1.105-.895 2-2 2-1.105 0-2-.895-2-2 0-1.105.895-2 2-2 1.105 0 2 .895 2 2z"/><path d="m427 585c0 1.105-.895 2-2 2-1.105 0-2-.895-2-2 0-1.105.895-2 2-2 1.105 0 2 .895 2 2z"/><path d="m427 680c0 1.105-.895 2-2 2-1.105 0-2-.895-2-2 0-1.105.895-2 2-2 1.105 0 2 .895 2 2z"/><path d="m222 730c0 1.105-.895 2-2 2-1.105 0-2-.895-2-2 0-1.105.895-2 2-2 1.105 0 2 .895 2 2z"/><path d="m347 175c0 1.105-.895 2-2 2-1.105 0-2-.895-2-2 0-1.105.895-2 2-2 1.105 0 2 .895 2 2z"/><path d="m487 140c0 1.105-.895 2-2 2-1.105 0-2-.895-2-2 0-1.105.895-2 2-2 1.105 0 2 .895 2 2z"/><path d="m487 180c0 1.105-.895 2-2 2-1.105 0-2-.895-2-2 0-1.105.895-2 2-2 1.105 0 2 .895 2 2z"/><path d="m457 190c0 1.105-.895 2-2 2-1.105 0-2-.895-2-2 0-1.105.895-2 2-2 1.105 0 2 .895 2 2z"/></g><path d="m457 203.28c0 1.105-.895 2-2 2-1.105 0-2-.895-2-2 0-1.105.895-2 2-2 1.105 0 2 .895 2 2"/><g stroke="#000"><g stroke-width="4"><path d="m457 203.28c0 1.105-.895 2-2 2-1.105 0-2-.895-2-2 0-1.105.895-2 2-2 1.105 0 2 .895 2 2z"/><path d="m347 229.97c0 1.105-.895 2-2 2-1.105 0-2-.895-2-2 0-1.105.895-2 2-2 1.105 0 2 .895 2 2z"/><path d="m887 325c0 1.105-.895 2-2 2-1.105 0-2-.895-2-2 0-1.105.895-2 2-2 1.105 0 2 .895 2 2z"/><path d="m887 235c0 1.105-.895 2-2 2-1.105 0-2-.895-2-2 0-1.105.895-2 2-2 1.105 0 2 .895 2 2z"/><path d="m802 300c0 1.105-.895 2-2 2-1.105 0-2-.895-2-2 0-1.105.895-2 2-2 1.105 0 2 .895 2 2z"/><path d="m802 210c0 1.105-.895 2-2 2-1.105 0-2-.895-2-2 0-1.105.895-2 2-2 1.105 0 2 .895 2 2z"/></g><g fill="#fff"><path d="m97 620c0 1.105-.895 2-2 2-1.105 0-2-.895-2-2 0-1.105.895-2 2-2 1.105 0 2 .895 2 2z"/><path d="m157 635c0 1.105-.895 2-2 2-1.105 0-2-.895-2-2 0-1.105.895-2 2-2 1.105 0 2 .895 2 2z"/><path d="m152 745c0 1.105-.895 2-2 2-1.105 0-2-.895-2-2 0-1.105.895-2 2-2 1.105 0 2 .895 2 2z"/><path d="m92 730c0 1.105-.895 2-2 2-1.105 0-2-.895-2-2 0-1.105.895-2 2-2 1.105 0 2 .895 2 2z"/></g></g><path d="m407 540c0 1.105-.895 2-2 2-1.105 0-2-.895-2-2 0-1.105.895-2 2-2 1.105 0 2 .895 2 2"/><g stroke="#000"><g stroke-width="4"><path d="m767 475c0 1.105-.895 2-2 2-1.105 0-2-.895-2-2 0-1.105.895-2 2-2 1.105 0 2 .895 2 2z"/><path d="m737 515c0 1.105-.895 2-2 2-1.105 0-2-.895-2-2 0-1.105.895-2 2-2 1.105 0 2 .895 2 2z"/><path d="m852 530c0 1.105-.895 2-2 2-1.105 0-2-.895-2-2 0-1.105.895-2 2-2 1.105 0 2 .895 2 2z"/><path d="m822 570c0 1.105-.895 2-2 2-1.105 0-2-.895-2-2 0-1.105.895-2 2-2 1.105 0 2 .895 2 2z"/><path d="m807 420c0 1.105-.895 2-2 2-1.105 0-2-.895-2-2 0-1.105.895-2 2-2 1.105 0 2 .895 2 2z"/><path d="m777 460c0 1.105-.895 2-2 2-1.105 0-2-.895-2-2 0-1.105.895-2 2-2 1.105 0 2 .895 2 2z"/><path d="m892 475c0 1.105-.895 2-2 2-1.105 0-2-.895-2-2 0-1.105.895-2 2-2 1.105 0 2 .895 2 2z"/><path d="m862 515c0 1.105-.895 2-2 2-1.105 0-2-.895-2-2 0-1.105.895-2 2-2 1.105 0 2 .895 2 2z"/><path d="m847 365c0 1.105-.895 2-2 2-1.105 0-2-.895-2-2 0-1.105.895-2 2-2 1.105 0 2 .895 2 2z"/><path d="m817 405c0 1.105-.895 2-2 2-1.105 0-2-.895-2-2 0-1.105.895-2 2-2 1.105 0 2 .895 2 2z"/><path d="m902 460c0 1.105-.895 2-2 2-1.105 0-2-.895-2-2 0-1.105.895-2 2-2 1.105 0 2 .895 2 2z"/></g><g fill="#fff"><path d="m147 580c0 1.105-.895 2-2 2-1.105 0-2-.895-2-2 0-1.105.895-2 2-2 1.105 0 2 .895 2 2z"/><path d="m122 430c0 1.105-.895 2-2 2-1.105 0-2-.895-2-2 0-1.105.895-2 2-2 1.105 0 2 .895 2 2z"/></g><g stroke-width="4"><path transform="translate(-37 55)" d="m819 570c0 1.105-.895 2-2 2-1.105 0-2-.895-2-2 0-1.105.895-2 2-2 1.105 0 2 .895 2 2z"/><path transform="translate(-27 60)" d="m819 575c0 1.105-.895 2-2 2-1.105 0-2-.895-2-2 0-1.105.895-2 2-2 1.105 0 2 .895 2 2z"/><path transform="translate(-52 82)" d="m829 568c0 1.105-.895 2-2 2-1.105 0-2-.895-2-2 0-1.105.895-2 2-2 1.105 0 2 .895 2 2z"/><path transform="translate(-58 70)" d="m825 570c0 1.105-.895 2-2 2-1.105 0-2-.895-2-2 0-1.105.895-2 2-2 1.105 0 2 .895 2 2z"/></g><g fill="#646464"><path d="m65 825l100-70 20-3 175-12 85-55 5 25-90 55-180 12-10 3-100 70z" mask="url(#G)"/><path d="m167 765l17-1 5-173-36-199-15 5 34 195z"/></g><g stroke-dasharray="2 4" fill="none" stroke-width="2"><path d="m455 685l100-15"/><path d="m460 705l100-15"/></g></g><g stroke="#fff" stroke-linejoin="round" stroke-linecap="round" stroke-width="8"><path d="m189 765.5c0 7.456-6.04 13.5-13.5 13.5-7.456 0-13.5-6.04-13.5-13.5 0-7.456 6.04-13.5 13.5-13.5 7.456 0 13.5 6.04 13.5 13.5z"/><path d="m463.5 695.5c0 7.456-6.04 13.5-13.5 13.5-7.456 0-13.5-6.04-13.5-13.5 0-7.456 6.04-13.5 13.5-13.5 7.456 0 13.5 6.04 13.5 13.5z"/><path d="m158.5 395.5c0 7.456-6.04 13.5-13.5 13.5-7.456 0-13.5-6.04-13.5-13.5 0-7.456 6.04-13.5 13.5-13.5 7.456 0 13.5 6.04 13.5 13.5z"/><path d="m193.5 591.5c0 7.456-6.04 13.5-13.5 13.5-7.456 0-13.5-6.04-13.5-13.5 0-7.456 6.04-13.5 13.5-13.5 7.456 0 13.5 6.04 13.5 13.5z"/></g><g mask="url(#B)"><g fill="none"><path d="m650 800l129.89-139.88" stroke="#fff" stroke-width="8"/><g stroke="#000"><path d="m653.1 802.89l129.9-139.89"/><path d="m776.78 657.23l-129.89 139.88"/></g><path d="m35 780l50 10h100 195l50 10 40 30 50 10h50l60-20 20-20 130-140 55-55 35-20 40-10h50" stroke="#565656" stroke-width="5"/><path d="m35 780l50 10h100 195l50 10 40 30 50 10h50l60-20 20-20 130-140 55-55 35-20 40-10h50" stroke-dasharray="12 12" stroke="#c8c8c8" stroke-width="3"/></g><path d="m124.71875 777.46875a2.50025 2.50025 0 0 0 -1.5 4.3125L131.44 790l-8.219 8.219a2.519068 2.519068 0 0 0 3.5625 3.5625L135 793.56l8.219 8.219a2.519068 2.519068 0 0 0 3.5625 -3.5625L138.56 790l8.219-8.219a2.50025 2.50025 0 0 0 -1.84375 -4.3125 2.50025 2.50025 0 0 0 -1.71875 .75L135 786.44l-8.219-8.219a2.50025 2.50025 0 0 0 -1.8125 -.75 2.50025 2.50025 0 0 0 -.25 0z" color="#000" stroke-width="2" stroke="#fff"/></g><g mask="url(#F)" fill="none" stroke="#000" stroke-linecap="round"><path mask="none" d="m90 835v34"/><path mask="none" d="m105 850v23"/><path mask="none" d="m120 854.24v23.542"/><path mask="none" d="m135 858.57v23.542"/><path mask="none" d="m150 863v23.542"/><path mask="none" d="m180 871.34v23.542"/><path mask="none" d="m195 875.62v23.542"/><path mask="none" d="m210 879.96v23.542"/><path mask="none" d="m225 884.2v23.542"/><path mask="none" d="m255 892.96v23.542"/><path mask="none" d="m270 896.96v23.542"/><path mask="none" d="m285 901.52v23.542"/><path mask="none" d="m300 905.66v23.542"/><path mask="none" d="m330 914.37v23.542"/><path mask="none" d="m345 918.54v23.542"/><path mask="none" d="m360 922.96v23.542"/><path mask="none" d="m375 918.57v23.542"/><path mask="none" d="m405 909.96v23.542"/><path mask="none" d="m420 905.66v23.542"/><path mask="none" d="m435 901.43v23.542"/><path mask="none" d="m450 897.01v23.542"/><path mask="none" d="m480 888.59v23.542"/><path mask="none" d="m495 884.3v23.542"/><path mask="none" d="m510 879.96v23.542"/><path mask="none" d="m525 875.64v23.542"/><path mask="none" d="m555 867.23v23.542"/><path mask="none" d="m570 862.96v23.542"/><path mask="none" d="m585 858.48v23.542"/><path mask="none" d="m600 854.2v23.542"/><path mask="none" d="m630 845.71v23.542"/><path mask="none" d="m645 844.37v23.542"/><path mask="none" d="m660 848.48v23.542"/><path mask="none" d="m675 852.96v23.542"/><path mask="none" d="m705 861.34v23.542"/><path mask="none" d="m720 865.71v23.542"/><path mask="none" d="m735 869.96v23.542"/><path mask="none" d="m750 874.29v23.542"/><path mask="none" d="m780 882.96v23.542"/><path mask="none" d="m795 887.15v23.542"/><path mask="none" d="m810 891.52v23.542"/><path mask="none" d="m825 895.69v23.542"/><path mask="none" d="m855 904.37v23.542"/><path mask="none" d="m870 908.48v23.542"/><path mask="none" d="m885 912.96v23.542"/><path mask="none" d="m900 917.14v23.542"/><path mask="none" d="m165 856.13v34.375"/><path mask="none" d="m240 877.68v34.375"/><path mask="none" d="m315 899.09v34.375"/><path mask="none" d="m390 903.48v34.375"/><path mask="none" d="m465 882.13v34.375"/><path mask="none" d="m540 860.71v34.375"/><path mask="none" d="m615 839.13v34.375"/><path mask="none" d="m690 846.34v34.375"/><path mask="none" d="m765 867.73v34.375"/><path mask="none" d="m840 889.13v34.375"/><path mask="none" d="m915 910.62v34.375"/></g><path mask="url(#E)" d="m60 40v920h300v-920h-300m580 0v920h300v-920h-300" fill="#fff" fill-opacity=".314"/><path d="m560 540l-110 155 150-75 40-50 250-60-40-130-210 60z" fill="url(#2)" filter="url(#3)"/><path d="m450 695l180-80 70-40-125-80z" fill="url(#4)"/><path d="m460 525l-10 170 140-100 290-510v-25l-20-30-50-20-45 5-30 20z" fill="url(#L)"/><path d="m450 695l3-52 2 10 5-4 1 2 2-1 2 8 3-2 1 1 5-3 2 9 4-2 1 2 1 1v3l3-1v2l6-2z" fill="url(#1)"/><path d="m460 525l275-490 30-20-285 505-5 6-2-5-6 9 1-8-3 4-1-5z" fill="#b25c28"/><path d="m765 15l45-5-303.68 525-4.325-7-8 7-1-11-4 3 1-12-10 5z" fill="#974613"/><path d="m810 10l50 20-306.56 530-3.438 3 2-20-10 7-1-3-5 5-1-12-4 5-1-10-8 4-1-10-15 10v-4z" fill="#853909"/><path d="m860 30l20 30-300.79 520-.212-6-5 4 1-11-8 7-1-5-5 3 1-9-4 2-1-8-4 3z" fill="#642b06"/><path d="m880 60v25l-290 510v-5l-4 1 2-7-6 3v-3l-4 3 1-7z" fill="#4d2105"/><text x="249.11" y="748.04" transform="matrix(.5-.86603.86603.5 0 0)" font-family="OpenGost Type B" letter-spacing="0" stroke-opacity=".134" word-spacing="0" text-anchor="middle" text-align="center" stroke-width=".5" fill="url(#C)" line-height="125%" stroke="#000" font-size="48"><tspan x="249.11" y="748.04" stroke-opacity=".134" stroke="#000" stroke-width=".5">JOSM</tspan></text><path d="m720.22 98.54v110h90v-110h-90m47.563 13.219c.375-.063.72-.017 1.031.156l.031.031 21.938 12.656c.346.211.591.515.688.875.096.36.038.707-.156 1.063-.211.346-.484.56-.844.656-.36.097-.739.038-1.094-.156l-17.563-10.125 5.469 9.844c.141.218.206.449.219.719.013.27-.055.511-.188.75-.157.254-.343.457-.594.563-.251.106-.513.16-.75.156l-11.219.188 17.563 10.156c.346.211.591.484.688.844.096.36.038.707-.156 1.063-.211.346-.515.591-.875.688-.36.096-.707.038-1.063-.156l-21.938-12.656c-.33-.195-.547-.49-.688-.844-.141-.354-.137-.716.063-1.094.172-.286.388-.46.625-.563.237-.102.481-.154.75-.156l13.969-.25-6.75-12.219c-.132-.234-.22-.494-.25-.75-.03-.256.025-.52.188-.813.223-.35.532-.562.906-.625m-10.812 22.19c.21.013.424.074.625.188.346.211.56.484.656.844.096.36.038.739-.156 1.094-.12.208-.265.373-.469.5-1.069.566-2.02 1.192-2.844 1.875-.823.684-1.538 1.539-2.156 2.594-.912 1.643-1.285 3.095-1.063 4.313.222 1.217.876 2.124 1.906 2.719.748.413 1.493.586 2.281.563.788-.024 1.528-.193 2.188-.531l9.125-4.531c.81-.411 1.871-.655 3.188-.75 1.316-.095 2.644.205 3.969.906 1.496.838 2.541 2.206 3.125 4.094.584 1.888.163 4.151-1.25 6.781-.829 1.4-1.809 2.584-2.906 3.531-1.097.947-2.17 1.608-3.25 2.031-.439.176-.88.164-1.281-.063-.346-.21-.56-.484-.656-.844-.096-.36-.038-.739.156-1.094.12-.208.265-.373.469-.5 1.069-.566 2.02-1.191 2.844-1.875.823-.683 1.538-1.539 2.156-2.594.912-1.642 1.285-3.064 1.063-4.281-.222-1.217-.876-2.124-1.906-2.719-.748-.413-1.493-.618-2.281-.594-.788.024-1.528.193-2.188.531l-9.125 4.531c-.81.411-1.871.655-3.188.75-1.316.095-2.644-.205-3.969-.906-1.496-.837-2.509-2.206-3.094-4.094-.584-1.888-.194-4.151 1.219-6.781.829-1.4 1.809-2.584 2.906-3.531 1.097-.947 2.17-1.608 3.25-2.031.219-.088.446-.138.656-.125m-10.09 20.281c1.344.042 2.68.438 4 1.156l11.25 6.469c2.052 1.254 3.355 2.982 3.938 5.156.583 2.174.306 4.326-.844 6.438-1.254 2.052-2.982 3.355-5.156 3.938-2.174.583-4.326.306-6.438-.844l-11.219-6.5c-2.052-1.254-3.386-2.951-3.969-5.125-.583-2.174-.306-4.326.844-6.438 1.254-2.052 2.982-3.386 5.156-3.969.815-.218 1.631-.306 2.438-.281m-.625 2.844c-.36.025-.73.09-1.094.188-1.454.39-2.574 1.265-3.406 2.625-.761 1.401-.952 2.827-.563 4.281.39 1.454 1.265 2.605 2.625 3.438l11.25 6.5c1.401.761 2.827.952 4.281.563 1.454-.39 2.605-1.265 3.438-2.625.761-1.401.921-2.858.531-4.313-.39-1.454-1.265-2.574-2.625-3.406l-11.25-6.5c-1.051-.571-2.107-.826-3.188-.75m-12.594 14.09c.269-.018.546.073.813.219l15.875 9.156c2.052 1.254 3.386 2.982 3.969 5.156.583 2.174.275 4.295-.875 6.406l-.688 1.25c-.211.346-.515.56-.875.656-.36.096-.707.038-1.063-.156-.346-.21-.56-.484-.656-.844-.096-.36-.038-.739.156-1.094l.688-1.219c.761-1.401.952-2.827.563-4.281-.39-1.454-1.265-2.605-2.625-3.438l-15.906-9.156c-.346-.21-.56-.515-.656-.875-.096-.36-.038-.707.156-1.063.211-.346.484-.56.844-.656.09-.024.192-.056.281-.063" mask="url(#D)" filter="url(#A)"/></svg>