<?xml version="1.0" encoding="UTF-8"?><svg xmlns="http://www.w3.org/2000/svg" xmlns:xlink="http://www.w3.org/1999/xlink" version="1.1" viewBox="0 0 1000 1000"><defs>  <filter color-interpolation-filters="sRGB" id="A">    <feGaussianBlur stdDeviation=".5"/>  </filter>  <filter color-interpolation-filters="sRGB" id="3">    <feGaussianBlur stdDeviation="10"/>  </filter>  <filter x="-.033" y="-.309" width="1.066" height="1.618" color-interpolation-filters="sRGB" id="5">    <feGaussianBlur stdDeviation="11.58046"/>  </filter>  <linearGradient x1="470" y1="540" x2="570" y2="600" id="L" gradientUnits="userSpaceOnUse">    <stop stop-color="#ddc2b6"/>    <stop offset="1" stop-color="#c19886"/>  </linearGradient>  <linearGradient y1="860" x2="0" y2="140" id="K" gradientUnits="userSpaceOnUse">    <stop stop-color="#ffe289"/>    <stop offset="1" stop-color="#fff4d1"/>  </linearGradient>  <linearGradient x1="215.46" y1="753.18" x2="280.41" y2="715.68" id="C" gradientUnits="userSpaceOnUse">    <stop stop-color="#e6b636"/>    <stop offset=".5" stop-color="#f1cf09"/>    <stop offset=".563" stop-color="#f0d609"/>    <stop offset=".625" stop-color="#f0b10a"/>    <stop offset=".688" stop-color="#f0ce0b"/>    <stop offset=".75" stop-color="#f0aa0c"/>    <stop offset="1" stop-color="#ffd900"/>  </linearGradient>  <linearGradient id="0">    <stop/>    <stop offset="1" stop-color="#3c3c3c" stop-opacity="0"/>  </linearGradient>  <linearGradient x1="455" y1="690" x2="495" y2="670" id="4" xlink:href="#0" gradientUnits="userSpaceOnUse"/>  <linearGradient y1="860" x2="0" y2="140" id="6" gradientUnits="userSpaceOnUse">    <stop stop-color="#3172e1"/>    <stop offset="1" stop-color="#5191ff"/>  </linearGradient>  <linearGradient y1="320" x2="0" y2="120" id="7" gradientUnits="userSpaceOnUse">    <stop stop-color="#009600"/>    <stop offset="1" stop-color="#15bc15"/>  </linearGradient>  <linearGradient x1="716.07" y1="454.99" x2="938.57" y2="306.71" id="2" xlink:href="#0" gradientUnits="userSpaceOnUse" gradientTransform="matrix(0.98704,0.23824,-0.9468,1.3017,203.99,-122.85)"/>  <linearGradient x1="455" y1="655" x2="480" y2="670" id="1" gradientUnits="userSpaceOnUse">    <stop stop-color="#969696"/>    <stop offset="1" stop-color="#3c3c3c"/>  </linearGradient>  <clipPath id="M">    <path d="m800,210v90l85,25v-90z" fill="#fff"/>  </clipPath>  <clipPath id="map">    <path d="m80,60v800l280,80 280,-80 280,80V140L640,60 360,140z" fill="#fff"/>  </clipPath>  <clipPath id="josm">      <g fill="#fff">        <path d="m218.311,719.807c-0.790,0-1.411,0.621-1.411,1.411l0,18.352c0,3.105-2.541,5.647-5.647,5.647l-1.411,0c-0.790,0-1.411,0.621-1.411,1.411 0,0.790 0.621,1.411 1.411,1.411l1.411,0c4.687,0 8.470,-3.783 8.470,-8.470l0,-18.352c0,-0.790-0.621,-1.411-1.411,-1.411z"/>        <path d="m233.310,718.960c-4.687,0-8.470,3.783-8.470,8.470l0,12.988c0,4.687 3.783,8.470 8.470,8.470 4.687,0 8.470,-3.783 8.470,-8.470l0,-12.988c0,-4.687-3.783,-8.470-8.470,-8.470z m0,2.823c3.105,0 5.647,2.541 5.647,5.647l0,12.988c0,3.105-2.541,5.647-5.647,5.647-3.105,0-5.647,-2.541-5.647,-5.647l0,-12.988c0,-3.105 2.541,-5.647 5.647,-5.647z"/>        <path d="m255.059,718.960c-6.014,0-8.470,3.811-8.470,7.058 0,2.964 2.032,5.308 3.444,6.268l8.470,5.647c1.214,0.790 2.202,2.202 2.202,3.896 0,2.315-1.891,4.235-5.647,4.235-2.484,0-4.291,-0.818-6.381,-2.089-0.197,-0.112-0.451,-0.169-0.677,-0.169-0.790,0-1.411,0.621-1.411,1.411 0,0.451 0.197,0.847 0.564,1.129 1.778,1.411 4.687,2.541 7.905,2.541 6.014,0 8.470,-3.811 8.470,-7.058 0,-2.964-2.032,-5.308-3.444,-6.268l-8.470,-5.647c-1.214,-0.790-2.202,-2.202-2.202,-3.896 0,-2.315 1.891,-4.235 5.647,-4.235 2.484,0 4.291,0.818 6.381,2.089 0.197,0.112 0.451,0.169 0.677,0.169 0.790,0 1.411,-0.621 1.411,-1.411 0,-0.451-0.197,-0.847-0.564,-1.129-1.778,-1.411-4.687,-2.541-7.905,-2.541z"/>        <path d="m288.386,721.304 0,-0.056c0,-0.677-0.536,-1.44-1.355,-1.44-0.677,0-1.044,0.367-1.327,0.818l-7.2,11.971-7.2,-11.971c-0.282,-0.451-0.649,-0.818-1.327,-0.818-0.847,0-1.355,0.762-1.355,1.496l0,25.327c0,0.790 0.621,1.411 1.411,1.411 0.790,0 1.411,-0.621 1.411,-1.411l0,-20.301 5.788,9.628c0.225,0.395 0.677,0.818 1.270,0.818 0.536,0 1.044,-0.338 1.270,-0.790l5.788,-9.656 0,20.301c0,0.790 0.621,1.411 1.411,1.411 0.790,0 1.411,-0.621 1.411,-1.411l0,-25.327z"/>      </g>  </clipPath>  <path id="node" d="m0,0a2,2 0 1 1 0,-.001z"/>  <path id="rails" d="m35,780 50,10h100 195l50,10 40,30 50,10h50l60,-20 20,-20 130,-140 55,-55 35,-20 40,-10h50"/></defs><path d="m80,840 340,80 220,-50 220,50-40,-100H120z" filter="url(#5)"/><path d="m80,60v800l280,80 280,-80 280,80V140L640,60 360,140z" fill="url(#K)"/><path d="m605,60-85,25c-38,35-60,65-60,125 0,65 26.398,78.74 35,110 16.336,59.37 22.63,101.19 42.16,150 26.875,67.19 4.215,173.2 32.844,240 16.332,38.11 25,45 70,65 10,10 25,30 30,40 13.945,27.889 5.352,50.35 25,70l235,65-10,-60C900.004,700 769.824,670.91 715.724,625.72 655.01,575.006 693.835,526.49 670.005,455c-5.665,-16.995-20,-75-30,-85-45,-30-70,-60-85,-110-33.17,-110.57 80,-165 50,-200z M260,805c-41.743,7.657-40,55-80,45-24.21,-6.05-59.07,5.48-75,30l255,70 160,-45C498.064,858.9 385,775 360,820 325,835 296.61,798.284 260,805z" clip-path="url(#map)" fill="url(#6)" stroke="#0044c1"/><path d="m315,115c-20.311,2.121-27.14,31.06-27.14,48.571 0,15 7.799,31.04 4.286,45.714-12.143,50.714-34.27,74.28-50,82.14-11.523,5.762-27.28,4.857-39.29,7.857-12.712,3.178-22.05,16.09-35.714,17.857-22.14,2.857-35.433,-2.143-57.14,-2.143-10,0-39.712,16.15-40,15v-280z" clip-path="url(#map)" fill="url(#7)" stroke="#005000"/><path d="m495,385-10,-40-55,45 10,40z" fill="#ceeba8" stroke="#aadd6b"/><path d="m220,730 140,-10 65,-40v-95l-65,40-140,15z" fill="#5c8b9f" stroke="#002f42"/><path d="M415,505 400,431 360,460 300,475 275,350 170,375 210,587.5 360,550z" fill="#de8f8f" stroke="#420000"/><path d="m800,210v90l85,25v-90z" fill="#ff2828" stroke="#b50000" fill-opacity=".235"/><path d="m360,180 125,-40v40l-30,10v13.283L360,235 345,230v-55z" fill="#40bfc0" stroke="#002828"/><path d="M155,635 150,745 90,730 95,620z" stroke-dasharray="2 2" fill="none" stroke="#000" stroke-width="2"/><g fill="#efca00" stroke="#282400">  <path d="m735,515 85,55 30,-40-85,-55z"/>  <path d="m775,460 85,55 30,-40-85,-55z"/>  <path d="m815,405 85,55 30,-40-85,-55z" clip-path="url(#map)"/></g><path d="m775,650 15,-15-10,-10-15,15z" fill="#c0aeaf" stroke="#000"/><g fill="none">  <path d="M145,580 120,430H70v150z" clip-path="url(#map)" stroke-dasharray="2 2" stroke-width="2" stroke="#000"/>  <path d="m825,215-30,30 30,-30z m25,0-55,55 55,-55z m25,0-80,80 80,-80z m25,0-105,105 105,-105z m0,25-90,90 90,-90z m0,25-65,65 65,-65z m0,25-40,40 40,-40z" clip-path="url(#M)" stroke="#f50000" stroke-linejoin="round" stroke-linecap="round"/>  <path d="m55,355h80l160,-40 25,130 40,-10 130,-105 10,40 M886,128l-11,32 25,75v100l-70,20-45,65-60,25h-55" clip-path="url(#map)" stroke="#820082"/>  <path d="m180,620 180,-45 45,-35-13,-16" stroke-dasharray="8 8" stroke="#906b00"/>  <path d="m461,188c2,-15 4,-29 12,-44" stroke-dasharray="4 1" stroke="#ff0000"/></g><path d="m460,163h3l2,2 2,-2h3l-3,3 3,3h-3l-2,-2-2,2h-3l3,-3z" fill="#ff0101" stroke="#a00000" stroke-linecap="round"/><use xlink:href="#node" x="322" y="445"/><use xlink:href="#node" x="297" y="315"/><use xlink:href="#node" x="137" y="355"/><use xlink:href="#node" x="492" y="330"/><use xlink:href="#node" x="502" y="370"/><use xlink:href="#node" x="672" y="445"/><use xlink:href="#node" x="727" y="445"/><use xlink:href="#node" x="787" y="420"/><use xlink:href="#node" x="832" y="355"/><use xlink:href="#node" x="902" y="335"/><use xlink:href="#node" x="902" y="235"/><use xlink:href="#node" x="877" y="160"/><use xlink:href="#node" x="407" y="540"/><g stroke="#000">  <g stroke-width="4">    <use xlink:href="#node" x="402" y="431"/>    <use xlink:href="#node" x="302" y="475"/>    <use xlink:href="#node" x="277" y="350"/>    <use xlink:href="#node" x="172" y="375"/>    <use xlink:href="#node" x="212" y="585"/>    <use xlink:href="#node" x="417" y="505"/>    <use xlink:href="#node" x="222" y="640"/>    <use xlink:href="#node" x="427" y="585"/>    <use xlink:href="#node" x="427" y="680"/>    <use xlink:href="#node" x="222" y="730"/>    <use xlink:href="#node" x="347" y="175"/>    <use xlink:href="#node" x="487" y="140"/>    <use xlink:href="#node" x="487" y="180"/>    <use xlink:href="#node" x="457" y="190"/>    <use xlink:href="#node" x="457" y="203.28"/>    <use xlink:href="#node" x="347" y="229.97"/>    <use xlink:href="#node" x="887" y="325"/>    <use xlink:href="#node" x="887" y="235"/>    <use xlink:href="#node" x="802" y="300"/>    <use xlink:href="#node" x="802" y="210"/>    <use xlink:href="#node" x="767" y="475"/>    <use xlink:href="#node" x="737" y="515"/>    <use xlink:href="#node" x="852" y="530"/>    <use xlink:href="#node" x="822" y="570"/>    <use xlink:href="#node" x="807" y="420"/>    <use xlink:href="#node" x="777" y="460"/>    <use xlink:href="#node" x="892" y="475"/>    <use xlink:href="#node" x="862" y="515"/>    <use xlink:href="#node" x="847" y="365"/>    <use xlink:href="#node" x="817" y="405"/>    <use xlink:href="#node" x="902" y="460"/>    <use xlink:href="#node" x="782" y="625"/>    <use xlink:href="#node" x="792" y="635"/>    <use xlink:href="#node" x="777" y="650"/>    <use xlink:href="#node" x="767" y="640"/>  </g>  <g fill="#fff">    <use xlink:href="#node" x="147" y="580"/>    <use xlink:href="#node" x="122" y="430"/>    <use xlink:href="#node" x="97" y="620"/>    <use xlink:href="#node" x="157" y="635"/>    <use xlink:href="#node" x="152" y="745"/>    <use xlink:href="#node" x="92" y="730"/>  </g>  <g fill="#646464">    <path d="m65,825 100,-70 20,-3 175,-12 85,-55 5,25-90,55-180,12-10,3-100,70zM167,765l17,-1 5,-173-36,-199-15,5 34,195z" clip-path="url(#map)"/>  </g>  <path d="M455,685 555,670M460,705 560,690" stroke-dasharray="2 4" fill="none" stroke-width="2"/></g><g stroke="#fff" stroke-linejoin="round" stroke-linecap="round" stroke-width="8">  <circle cx="175.5" cy="765.5" r="13.5"/>  <circle cx="450" cy="695.5" r="13.5"/>  <circle cx="145" cy="395.5" r="13.5"/>  <circle cx="180" cy="591.5" r="13.5"/></g><g clip-path="url(#map)">  <g fill="none">    <path d="M650,800 779.89,660.12" stroke="#000" stroke-width="10"/>    <path d="M650,800 779.89,660.12" stroke="#fff" stroke-width="7.5"/>    <use xlink:href="#rails" stroke="#565656" stroke-width="5"/>    <use xlink:href="#rails" stroke-dasharray="12 12" stroke="#c8c8c8" stroke-width="3"/>  </g>  <path d="m125,777.5a2.5,2.5 0 0 0 -1.5,4.31L131.44,790l-8.219,8.219a2.5,2.5 0 0 0 3.6,3.6L135,793.56l8.219,8.219a2.5,2.5 0 0 0 3.6,-3.6L138.56,790l8.219,-8.219a2.5,2.5 0 0 0 -1.84,-4.31 2.5,2.5 0 0 0 -1.72,0.75L135,786.44l-8.22,-8.22a2.5,2.5 0 0 0 -1.81,-0.75 2.5,2.5 0 0 0 -0.25,0z" stroke="#fff" color="#000" stroke-width="2"/></g><path clip-path="url(#map)" fill="none" stroke="#000" stroke-linecap="round" d="M90,835v34 M105,850v23 M120,854.24v23.542 M135,858.57v23.542 M150,863v23.542 M180,871.34v23.542 M195,875.62v23.542 M210,879.96v23.542 M225,884.2v23.542 M255,892.96v23.542 M270,896.96v23.542 M285,901.52v23.542 M300,905.66v23.542 M330,914.37v23.542 M345,918.54v23.542 M360,922.96v23.542 M375,918.57v23.542 M405,909.96v23.542 M420,905.66v23.542 M435,901.43v23.542 M450,897.01v23.542 M480,888.59v23.542 M495,884.3v23.542 M510,879.96v23.542 M525,875.64v23.542 M555,867.23v23.542 M570,862.96v23.542 M585,858.48v23.542 M600,854.2v23.542 M630,845.71v23.542 M645,844.37v23.542 M660,848.48v23.542 M675,852.96v23.542 M705,861.34v23.542 M720,865.71v23.542 M735,869.96v23.542 M750,874.29v23.542 M780,882.96v23.542 M795,887.15v23.542 M810,891.52v23.542 M825,895.69v23.542 M855,904.37v23.542 M870,908.48v23.542 M885,912.96v23.542 M900,917.14v23.542 M165,856.13v34.375 M240,877.68v34.375 M315,899.09v34.375 M390,903.48v34.375 M465,882.13v34.375 M540,860.71v34.375 M615,839.13v34.375 M690,846.34v34.375 M765,867.73v34.375 M840,889.13v34.375 M915,910.62v34.375"/><path d="M60,40V960H360V40H60m580,0V960H940V40H640" clip-path="url(#map)" fill="#fff" fill-opacity=".314"/><path d="M560,540 450,695 600,620 640,570 890,510 850,380 640,440z" fill="url(#2)" filter="url(#3)"/><path d="M450,695 630,615 700,575 575,495z" fill="url(#4)"/><path d="M460,525 450,695 590,595 880,85V60L860,30 810,10 765,15 735,35z" fill="url(#L)"/><path d="m450,695 3,-52 2,10 5,-4 1,2 2,-1 2,8 3,-2 1,1 5,-3 2,9 4,-2 1,2 1,1v3l3,-1v2l6,-2z" fill="url(#1)"/><path d="M460,525 735,35 765,15 480,520l-5,6-2,-5-6,9 1,-8-3,4-1,-5z" fill="#b25c28"/><path d="m765,15 45,-5-303.68,525-4.325,-7-8,7-1,-11-4,3 1,-12-10,5z" fill="#974613"/><path d="m810,10 50,20-306.56,530-3.438,3 2,-20-10,7-1,-3-5,5-1,-12-4,5-1,-10-8,4-1,-10-15,10v-4z" fill="#853909"/><path d="m860,30 20,30-300.79,520-0.212,-6-5,4 1,-11-8,7-1,-5-5,3 1,-9-4,2-1,-8-4,3z" fill="#642b06"/><path d="M880,60V85L590,595v-5l-4,1 2,-7-6,3v-3l-4,3 1,-7z" fill="#4d2105"/><rect x="200" y="710" width="90" height="40" transform="matrix(0.49999,-0.86603,0.86603,0.49999,0,0)" clip-path="url(#josm)" fill="url(#C)"/><path fill="#000" clip-path="url(#josm)" transform="matrix(0.49999,-0.86603,0.86603,0.49999,0,0)" filter="url(#A)" d="m0,500h500v500h-500z  M217.311,720.607c-0.790,0-1.411,0.621-1.411,1.411l0,18.352c0,3.105-2.541,5.647-5.647,5.647l-1.411,0c-0.790,0-1.411,0.621-1.411,1.411 0,0.790 0.621,1.411 1.411,1.411l1.411,0c4.687,0 8.470,-3.783 8.470,-8.470l0,-18.352c0,-0.790-0.621,-1.411-1.411,-1.411z  M232.310,719.760c-4.687,0-8.470,3.783-8.470,8.470l0,12.988c0,4.687 3.783,8.470 8.470,8.470 4.687,0 8.470,-3.783 8.470,-8.470l0,-12.988c0,-4.687-3.783,-8.470-8.470,-8.470z m0,2.823c3.105,0 5.647,2.541 5.647,5.647l0,12.988c0,3.105-2.541,5.647-5.647,5.647-3.105,0-5.647,-2.541-5.647,-5.647l0,-12.988c0,-3.105 2.541,-5.647 5.647,-5.647z  M254.059,719.760c-6.014,0-8.470,3.811-8.470,7.058 0,2.964 2.032,5.308 3.444,6.268l8.470,5.647c1.214,0.790 2.202,2.202 2.202,3.896 0,2.315-1.891,4.235-5.647,4.235-2.484,0-4.291,-0.818-6.381,-2.089-0.197,-0.112-0.451,-0.169-0.677,-0.169-0.790,0-1.411,0.621-1.411,1.411 0,0.451 0.197,0.847 0.564,1.129 1.778,1.411 4.687,2.541 7.905,2.541 6.014,0 8.470,-3.811 8.470,-7.058 0,-2.964-2.032,-5.308-3.444,-6.268l-8.470,-5.647c-1.214,-0.790-2.202,-2.202-2.202,-3.896 0,-2.315 1.891,-4.235 5.647,-4.235 2.484,0 4.291,0.818 6.381,2.089 0.197,0.112 0.451,0.169 0.677,0.169 0.790,0 1.411,-0.621 1.411,-1.411 0,-0.451-0.197,-0.847-0.564,-1.129-1.778,-1.411-4.687,-2.541-7.905,-2.541z  M287.386,722.104l0,-0.056c0,-0.677-0.536,-1.44-1.355,-1.44-0.677,0-1.044,0.367-1.327,0.818l-7.2,11.971-7.2,-11.971c-0.282,-0.451-0.649,-0.818-1.327,-0.818-0.847,0-1.355,0.762-1.355,1.496l0,25.327c0,0.790 0.621,1.411 1.411,1.411 0.790,0 1.411,-0.621 1.411,-1.411l0,-20.301 5.788,9.628c0.225,0.395 0.677,0.818 1.270,0.818 0.536,0 1.044,-0.338 1.270,-0.790l5.788,-9.656 0,20.301c0,0.790 0.621,1.411 1.411,1.411 0.790,0 1.411,-0.621 1.411,-1.411l0,-25.327z"/></svg>