<?xml version="1.0" encoding="UTF-8" standalone="no"?>
<svg
   xmlns:dc="http://purl.org/dc/elements/1.1/"
   xmlns:cc="http://creativecommons.org/ns#"
   xmlns:rdf="http://www.w3.org/1999/02/22-rdf-syntax-ns#"
   xmlns:svg="http://www.w3.org/2000/svg"
   xmlns="http://www.w3.org/2000/svg"
   xmlns:sodipodi="http://sodipodi.sourceforge.net/DTD/sodipodi-0.dtd"
   xmlns:inkscape="http://www.inkscape.org/namespaces/inkscape"
   version="1.1"
   height="10.584001"
   width="16"
   id="svg2249"
   sodipodi:version="0.32"
   inkscape:version="0.91 r13725"
   sodipodi:docname="bicycle.svg"
   inkscape:output_extension="org.inkscape.output.svg.inkscape">
  <metadata
     id="metadata2260">
    <rdf:RDF>
      <cc:Work
         rdf:about="">
        <dc:format>image/svg+xml</dc:format>
        <dc:type
           rdf:resource="http://purl.org/dc/dcmitype/StillImage" />
        <cc:license
           rdf:resource="http://web.resource.org/cc/PublicDomain" />
        <dc:title></dc:title>
      </cc:Work>
      <cc:License
         rdf:about="http://web.resource.org/cc/PublicDomain">
        <cc:permits
           rdf:resource="http://web.resource.org/cc/Reproduction" />
        <cc:permits
           rdf:resource="http://web.resource.org/cc/Distribution" />
        <cc:permits
           rdf:resource="http://web.resource.org/cc/DerivativeWorks" />
      </cc:License>
    </rdf:RDF>
  </metadata>
  <defs
     id="defs2258" />
  <sodipodi:namedview
     inkscape:window-height="988"
     inkscape:window-width="1680"
     inkscape:pageshadow="2"
     inkscape:pageopacity="0.0"
     guidetolerance="10.0"
     gridtolerance="10.0"
     objecttolerance="10.0"
     borderopacity="1.0"
     bordercolor="#666666"
     pagecolor="#ffffff"
     id="base"
     inkscape:zoom="20.106667"
     inkscape:cx="16.016676"
     inkscape:cy="10.325286"
     inkscape:window-x="-8"
     inkscape:window-y="-8"
     inkscape:current-layer="svg2249"
     showgrid="false"
     fit-margin-top="0"
     fit-margin-left="0"
     fit-margin-right="0"
     fit-margin-bottom="0"
     inkscape:window-maximized="1" />
  <rect
     style="opacity:1;fill:#ffffff;fill-opacity:1;stroke:#ffffff;stroke-width:1.16783786;stroke-linecap:square;stroke-linejoin:miter;stroke-miterlimit:4;stroke-dasharray:none;stroke-dashoffset:0.60000002;stroke-opacity:1"
     id="rect4135"
     width="14.832162"
     height="9.4161625"
     x="0.58391893"
     y="0.58391893" />
  <circle
     cx="-12.295294"
     cy="6.8796954"
     r="2.4054742"
     style="fill:none;stroke:#000000;stroke-width:0.5976333px"
     id="circle2251"
     transform="scale(-1,1)" />
  <circle
     cx="-3.7042909"
     cy="6.8348956"
     r="2.4054742"
     style="fill:none;stroke:#000000;stroke-width:0.5976333px"
     id="circle2253"
     transform="scale(-1,1)" />
  <path
     style="fill:#000000;fill-rule:evenodd;stroke:none"
     d="M 9.0907025,0.99998996 C 11.071363,1.01929 10.735463,0.79535996 11.801073,4.22 c 0.8681,2.73628 0.77355,2.43788 0.77809,2.62982 0.003,0.14911 -0.11719,0.26733 -0.26845,0.27745 -0.31455,-0.0318 -0.18224,0.034 -1.27281,-3.35256 -3.9849105,4.20368 -2.4898705,3.52202 -4.6344005,3.60739 -2.81847,-0.027 -3.04755,0.14671 -3.08101,-0.26641 0.004,-0.14028 0.0695,-0.22393 2.00381,-4.52886 l -0.18532,-0.50964 -0.63705,-0.0116 0.0232,-0.5328 2.37447,0 c 0.20978,0.28699 -0.0849,0.2857 -1.14669,0.52122 l 0.18532,0.52123 4.7373505,0.0116 C 10.358413,1.47232 10.538593,1.54182 9.1023325,1.54439 l -0.0116,-0.54439004 z M 10.814433,3.15809 6.1788425,3.15009 7.5185625,6.75007 10.814433,3.15831 Z m -5.1944905,0.2137 1.31506,3.45203 -2.8767,0.008 1.56164,-3.46025 z"
     id="path2255"
     inkscape:connector-curvature="0" />
</svg>
