<?xml version="1.0" encoding="UTF-8"?>
<!DOCTYPE svg PUBLIC "-//W3C//DTD SVG 1.1//EN" "http://www.w3.org/Graphics/SVG/1.1/DTD/svg11.dtd">
<svg version="1.1" id="Layer_1" xmlns="http://www.w3.org/2000/svg" xmlns:xlink="http://www.w3.org/1999/xlink" x="0px" y="0px" viewBox="167.3757 219.3921 1071.1848 789.925" enable-background="new 167.3757 219.3921 1071.1848 789.925" xml:space="preserve">
<g>
	<path d="M207.11,249c1.58-0.67,3.1-1.69,4.88-1.67c327.35,0,654.7-0.01,982.05,0c1.76-0.02,3.2799,1.02,4.86,1.69   c0.6799,1.58,1.7999,3.1,1.78,4.9c0,52.03-0.01,104.06,0,156.09c0.0399,1.82-1.0801,3.36-1.77,4.96   c-1.5701,0.66-3.0801,1.71-4.8201,1.7c-8.72,0.05-17.4299-0.04-26.14,0.02c0.15,60.78-0.01,121.57,0.0701,182.35   c0.22,2.18-0.86,4.11-1.8301,5.98c-1.5199,0.64-3.0499,1.3-4.5399,1.98c1.49,0.66,3.03,1.33,4.5599,1.98   c0.7001,1.6,1.78,3.15,1.8101,4.97c-0.0801,97.02,0.04,194.04-0.04,291.06c-0.14,4.7,1.04,9.85-1.77,14.03   c-1.7,0.7-3.35,1.72-5.24,1.64c-22.65-0.02-45.2999,0.01-67.95-0.02c-6.65-0.06-13.22,2.67-17.6801,7.6201   c-7.0499,7.47-12.1699,16.5-18.85,24.28c-10.6,13.79-27.55,24.41-45.47,22.26c-6.18,0.16-12.11-1.81-17.83-3.92   c-9.43-3.58-17.84-9.26-25.9-15.22c-8.5-6.76-16.41-14.26-25.35-20.46c-4.25-2.84-9.92-4.48-14.71-1.97   c-7.45,3.77-13.82,9.43-19.56,15.43c-12.25,11.17-24.15,23.06-38.57,31.49c-3.69,2.25-8.09,0.76-12.05,0.35   c-11.36-1.75-23.62-3.22-32.88-10.66c-4.82-3.7-7.33-9.47-8.58-15.26c-1.53-9.95,2.71-19.46,6.6299-28.34   c8.82-17.94,18.25-35.6,26.09-54.01c10.11-23.22,16.03-48.14,19.03-73.23c3.44-23.12,5.16-46.57,11.22-69.22   c5.26-23.16,13.68-45.79,26.39-65.92c6.54-10.17,14.76-19.58,25.3-25.71c11.78-7.29,25.75-10.5,36.82-19.01   c2.61-2.03,4.69-4.7,5.71-7.87c-4.25-8.4-11.82-14.3-17.39-21.72c-8.22-10.38-13.85-22.46-19.73-34.24   c-5.7599-10.1-11.18-20.41-15.89-31.05c-13.6-29.88-21.53-61.94-26.92-94.22c-0.49-4.44-1.63-8.79-1.69-13.26   c-126.34-0.33-252.69,0.03-379.04-0.18c-4.33,24.76-8.65,49.74-16.96,73.57c-5.63,17.68-13.17,34.71-21.89,51.08   c-8.49,14.32-14.39,30.17-24.62,43.45c-5.02,6.61-11.27,12.1801-16.09,18.94c-1.66,2.1801-4.44,2.8701-7,3.35   c1.91,0.73,4.28,0.95,5.65,2.66c5.72,8.14,15.42,11.8,24.09,15.9c9.97,4.1,19.99,8.76,28.03,16.11   c10.28,9.46,17.9,21.49,23.87,34.04c7.72,15.1201,13.15,31.33,17.02,47.83c8.47,31.32,9.35,63.99,15.61,95.73   c3.3,14.87,7.07,29.73,13.05,43.77c5.41,13.28,11.64,26.2,18.14,38.98c5.47,11.2599,11.77,22.2,15.57,34.1899   c1.64,6.67,2.42,14.0601-0.77,20.42c-2.31,6.9-8.7,11.41-15.07,14.28c-9.81,3.88-20.38,5.03-30.74,6.43   c-3.7,0.59-6.8-1.72-9.73-3.56c-8.53-5.66-16.3-12.37-23.95-19.14c-4.86-5.17-10.57-9.41-15.34-14.66   c-6-4.86-11.97-11.04-19.98-12.05c-8.56,0.38-14.57,7.34-21.04,12.08c-14.62,12.83-30.52,25.59-49.91,30.02   c-8.86,1.51-18.22,1.69-26.76-1.52c-11.15-3.9-20.31-11.96-27.45-21.18c-5.92-7.22-10.88-15.19-17.01-22.2401   c-4.47-5.11-10.95-8.3199-17.78-8.42c-20.69-0.02-41.38,0-62.08-0.01c-4.01-0.06-8.32,0.69-11.87-1.68   c-0.7-1.59-1.82-3.11-1.78-4.9c0-98.72,0-197.44-0.01-296.15c-0.03-1.81,1.08-3.34,1.76-4.93c1.76-0.74,3.52-1.47,5.33-2.09   c-1.81-0.51-3.57-1.18-5.31-1.88c-0.69-1.64-1.83-3.2-1.78-5.04c0.02-61.11-0.01-122.21,0.02-183.31   c-7.77-0.05-15.54,0.02-23.31-0.02c-1.78,0.02-3.31-0.99-4.9-1.65c-0.71-1.62-1.88-3.17-1.81-5.02c0.01-49.67,0-99.33,0.01-149   C205.39,256.93,204.59,252.55,207.11,249 M219.23,261.31c0.08,47.12,0.08,94.25-0.01,141.38c7.6,0.07,15.2,0.01,22.8,0.02   c2.03-0.18,3.85,0.79,5.61,1.67c0.85,1.76,1.87,3.56,1.68,5.61c-0.1,60.9,0.05,121.8-0.08,182.71   c57.48,0.12,114.96-0.11,172.44,0.11c2.79-3.59,5.98-6.81,8.88-10.28c11.73-11.83,18.79-27.16,26.14-41.8701   c10.27-17.46,18.36-36.15,24.56-55.42c7.28-20.89,11.43-42.68,15.35-64.4c1.02-5.53,0.67-11.54,3.8-16.45   c1.75-0.91,3.56-1.86,5.61-1.68c130.71,0.04,261.42-0.02,392.13,0.03c1.68-0.06,3.13,0.91,4.66,1.5c1.79,2.55,2.1,5.6,2.21,8.63   c2.2,16.11,5.22,32.12,9.02,47.92c2.66,12.95,7.0099,25.47,11.25,37.97c5.31,14.14,11.16,28.15,18.7599,41.23   c5,8.56,8.7,17.81,13.83,26.3c5.35,9.89,12.83,18.39,20.53,26.47c58.53-0.07,117.0699-0.05,175.6-0.01   c0-60.94,0.01-121.89,0-182.83c-0.3-3.48,2.27-7.03,5.92-7.14c8.95-0.17,17.8999,0.03,26.86-0.09   c-0.0901-47.13-0.0901-94.26-0.01-141.39C864.26,261.26,541.74,261.26,219.23,261.31 M249.23,621.3c0.08,93.8,0.08,187.6,0,281.39   c18.92,0.07,37.84,0.01,56.76,0.03c5.15,0.05,10.35-0.3199,15.44,0.66c3.59,1.3,7.22,2.59,10.41,4.74   c7.45,4.41,12.27,11.81,17.39,18.56c6.42,9.04,13.05,18.31,22.35,24.63c7.36,4.59,16.69,7.1,25.17,4.35   c6.14-1.69,12.33-3.6299,17.6-7.29c11.89-7.08,21.78-16.83,32.62-25.29c7.61-5.85,16.95-10.72,26.83-9.73   c10.16,1.63,18.68,7.95,26.3,14.5c12.86,12.39,25.78,24.89,40.6,35c5.03-1.28,10.28-1.46,15.3-2.83c5.56-1.35,11.7-2.88,15.31-7.73   c2.59-2.74,2.23-6.8,1.62-10.21c-3.51-11.91-9.72-22.74-15.14-33.83c-11.57-23-23.08-46.35-28.94-71.56   c-8.47-31.92-8.8199-65.31-15.99-97.49c-3.85-16.9-8.15-33.84-15.37-49.68c-5.18-12.32-12.29-23.9-21.32-33.77   c-6.59-6.77-14.72-12.01-23.55-15.34c-11.2-5.17-23.42-9.6299-31.75-19.16C363.66,621.34,306.44,621.22,249.23,621.3    M983.42,623.54c-5.43,8.15-14.6,12.44-23.12,16.58c-8.09,3.93-16.86,6.6-24.17,12.01c-10.38,7.06-17.57,17.66-23.92,28.27   c-12.36,22.5699-18.77,47.71-23.8,72.7599c-1.3799,6.09-1.55,12.36-2.95,18.44c-1.25,12.9901-3.43,25.85-4.92,38.81   c-3.37,22.32-8.69,44.51-17.75,65.2401c-7.95,19.16-17.87,37.41-26.93,56.06c-2.23,5.6-5.09,11.12-5.87,17.16   c-0.91,5.16,3,9.63,7.3,11.84c7.77,3.82,16.61,4.15,24.89,6.18c11.18-7.08,21.07-16.02,30.58-25.15c4.52-3.43,7.97-8,12.39-11.53   c7.17-6.02,15.35-11.52,24.8-12.93c8.44-0.67,16.51,2.93,23.37,7.55c9.62,6.92,18.06,15.33,27.69,22.24   c5.54,3.62,10.84,7.88,17.23,9.94c6.73,2.47,13.98,4.94,21.22,3.24c11.2399-2.07,20.1099-10.26,26.8-19.08   c7.47-8.83,13.01-19.37,22-26.85c5.96-4.5,13.2-7.83,20.8-7.62c21.6499,0.06,43.2899-0.03,64.9399,0.05c0-95.17,0-190.33,0-285.5   c-55.97,0.07-111.9399,0-167.91,0.03C984.61,620.97,984.16,622.69,983.42,623.54z"/>
	<path fill="#FF003C" d="M219.23,261.31c322.51-0.05,645.03-0.05,967.54-0.01c-0.0801,47.13-0.0801,94.26,0.01,141.39   c-8.9601,0.12-17.91-0.08-26.86,0.09c-3.65,0.11-6.2201,3.66-5.92,7.14c0.01,60.94,0,121.89,0,182.83   c-58.53-0.04-117.0699-0.06-175.6,0.01c-7.7-8.08-15.1801-16.58-20.53-26.47c-5.13-8.49-8.83-17.74-13.83-26.3   c-7.6-13.08-13.45-27.09-18.7599-41.23c-4.2401-12.5-8.59-25.02-11.25-37.97c-3.8-15.8-6.82-31.81-9.02-47.92   c-0.11-3.03-0.42-6.08-2.21-8.63c-1.53-0.59-2.98-1.56-4.66-1.5c-130.71-0.05-261.42,0.01-392.13-0.03   c-2.05-0.18-3.86,0.77-5.61,1.68c-3.13,4.91-2.78,10.92-3.8,16.45c-3.92,21.72-8.07,43.51-15.35,64.4   c-6.2,19.27-14.29,37.96-24.56,55.42c-7.35,14.71-14.41,30.04-26.14,41.8701c-2.9,3.47-6.09,6.6899-8.88,10.28   c-57.48-0.22-114.96,0.01-172.44-0.11c0.13-60.91-0.02-121.81,0.08-182.71c0.19-2.05-0.83-3.85-1.68-5.61   c-1.76-0.88-3.58-1.85-5.61-1.67c-7.6-0.01-15.2,0.05-22.8-0.02C219.31,355.56,219.31,308.43,219.23,261.31z"/>
	<path fill="#FF003C" d="M249.23,621.3c57.21-0.08,114.43,0.04,171.64-0.05c8.33,9.53,20.55,13.99,31.75,19.16   c8.83,3.33,16.96,8.57,23.55,15.34c9.03,9.87,16.14,21.45,21.32,33.77c7.22,15.84,11.52,32.78,15.37,49.68   c7.17,32.18,7.52,65.57,15.99,97.49c5.86,25.21,17.37,48.56,28.94,71.56c5.42,11.09,11.63,21.92,15.14,33.83   c0.61,3.41,0.97,7.47-1.62,10.21c-3.61,4.85-9.75,6.38-15.31,7.73c-5.02,1.37-10.27,1.55-15.3,2.83   c-14.82-10.11-27.74-22.61-40.6-35c-7.62-6.55-16.14-12.87-26.3-14.5c-9.88-0.99-19.22,3.88-26.83,9.73   c-10.84,8.46-20.73,18.21-32.62,25.29c-5.27,3.66-11.46,5.6-17.6,7.29c-8.48,2.75-17.81,0.2401-25.17-4.35   c-9.3-6.32-15.93-15.59-22.35-24.63c-5.12-6.75-9.94-14.15-17.39-18.56c-3.19-2.15-6.82-3.44-10.41-4.74   c-5.09-0.98-10.29-0.61-15.44-0.66c-18.92-0.02-37.84,0.04-56.76-0.03C249.31,808.9,249.31,715.1,249.23,621.3z"/>
	<path fill="#FF003C" d="M983.42,623.54c0.74-0.85,1.19-2.57,2.67-2.2599c55.97-0.03,111.94,0.04,167.91-0.03   c0,95.17,0,190.33,0,285.5c-21.65-0.08-43.29,0.01-64.9399-0.05c-7.6001-0.21-14.8401,3.12-20.8,7.62   c-8.99,7.48-14.53,18.02-22,26.85c-6.6901,8.82-15.5601,17.01-26.8,19.08c-7.2401,1.7-14.4901-0.77-21.22-3.24   c-6.39-2.06-11.69-6.32-17.23-9.94c-9.63-6.91-18.07-15.32-27.69-22.24c-6.86-4.62-14.93-8.22-23.37-7.55   c-9.45,1.41-17.63,6.91-24.8,12.93c-4.42,3.53-7.87,8.1-12.39,11.53c-9.51,9.13-19.4,18.07-30.58,25.15   c-8.28-2.03-17.12-2.36-24.89-6.18c-4.3-2.21-8.21-6.68-7.3-11.84c0.78-6.04,3.64-11.56,5.87-17.16   c9.06-18.65,18.98-36.9,26.93-56.06c9.06-20.73,14.38-42.92,17.75-65.2401c1.4901-12.96,3.67-25.8199,4.92-38.81   c1.4-6.08,1.57-12.35,2.95-18.44c5.03-25.05,11.44-50.19,23.8-72.7599c6.35-10.61,13.54-21.21,23.92-28.27   c7.31-5.41,16.08-8.08,24.17-12.01C968.82,635.98,977.99,631.69,983.42,623.54z"/>
</g>
</svg>