<?xml version="1.0" encoding="UTF-8" standalone="no"?>
<!-- Generator: Adobe Illustrator 12.0.0, SVG Export Plug-In . SVG Version: 6.00 Build 51448)  --><svg height="270.512" id="Layer_1" inkscape:version="0.40+cvs" sodipodi:docbase="F:\openclip\svg3" sodipodi:docname="Borsa estiva.svg" sodipodi:version="0.32" style="overflow:visible;enable-background:new 0 0 208.532 270.512;" version="1.0" viewBox="0 0 208.532 270.512" width="208.532" xml:space="preserve" xmlns="http://www.w3.org/2000/svg" xmlns:cc="http://web.resource.org/cc/" xmlns:dc="http://purl.org/dc/elements/1.1/" xmlns:inkscape="http://www.inkscape.org/namespaces/inkscape" xmlns:rdf="http://www.w3.org/1999/02/22-rdf-syntax-ns#" xmlns:sodipodi="http://inkscape.sourceforge.net/DTD/sodipodi-0.dtd" xmlns:svg="http://www.w3.org/2000/svg" xmlns:xml="http://www.w3.org/XML/1998/namespace"><metadata><rdf:RDF xmlns:cc="http://web.resource.org/cc/" xmlns:dc="http://purl.org/dc/elements/1.1/" xmlns:rdf="http://www.w3.org/1999/02/22-rdf-syntax-ns#"><cc:Work rdf:about=""><dc:title>Borsa estiva</dc:title><dc:description></dc:description><dc:subject><rdf:Bag><rdf:li>container</rdf:li></rdf:Bag></dc:subject><dc:publisher><cc:Agent rdf:about="http://www.openclipart.org"><dc:title>Architetto Francesco Rollandin</dc:title></cc:Agent></dc:publisher><dc:creator><cc:Agent><dc:title>Architetto Francesco Rollandin</dc:title></cc:Agent></dc:creator><dc:rights><cc:Agent><dc:title>Architetto Francesco Rollandin</dc:title></cc:Agent></dc:rights><dc:date></dc:date><dc:format>image/svg+xml</dc:format><dc:type rdf:resource="http://purl.org/dc/dcmitype/StillImage"/><cc:license rdf:resource="http://web.resource.org/cc/PublicDomain"/><dc:language>en</dc:language></cc:Work><cc:License rdf:about="http://web.resource.org/cc/PublicDomain"><cc:permits rdf:resource="http://web.resource.org/cc/Reproduction"/><cc:permits rdf:resource="http://web.resource.org/cc/Distribution"/><cc:permits rdf:resource="http://web.resource.org/cc/DerivativeWorks"/></cc:License></rdf:RDF></metadata>
<defs id="defs130"></defs>
<sodipodi:namedview bordercolor="#666666" borderopacity="1.0" id="base" inkscape:current-layer="Layer_1" inkscape:cx="104.26600" inkscape:cy="135.25600" inkscape:pageopacity="0.0" inkscape:pageshadow="2" inkscape:window-height="540" inkscape:window-width="640" inkscape:window-x="110" inkscape:window-y="110" inkscape:zoom="1.3973502" pagecolor="#ffffff"></sodipodi:namedview>

<path d="M114.521,42.042c0.249-0.073,0.461-0.202,0.656-0.358C114.915,41.768,114.703,41.893,114.521,42.042z  " id="path3" style="fill:#FFBF00;"></path>

<path d="M113.466,19.438c-0.004,0.007-0.007,0.015-0.011,0.022C113.508,19.429,113.5,19.427,113.466,19.438z" id="path5" style="fill:#FFBF00;"></path>

<path d="M199.475,166.021c-5.722-18.933-10.846-37.861-13.438-57.508c-1.247-9.456-1.855-19.073-1.545-28.611  c0.145-4.442,3.994-20.821,0.259-22.691c-2.031-1.016-4.56-0.582-4.56-3.564c0-3.859,1.221-4.893-2.102-7.188  c-3.339-2.306-9.449-2.406-13.384-3.156c-2.478-0.472-4.923-1.095-7.305-1.929c-2.027-0.709-1.731-4.457-2.455-6.486  c-3.005-8.422-10.572-14.248-18.641-17.356c-3.424-1.319-7.004-1.627-10.634-1.87c-2.357-0.157-7.195,2.005-9.058,0.76  c-1.979-1.323-1.529-5.976-3.283-7.937c-1.847-2.064-4.616-6.832-7.122-7.958c-1.992-0.896-6.092-0.35-8.297-0.468  c-6.607-0.353-23.8,4.355-28.04,7.412c0.585,0.99,0.884,1.675,1.402,2.732c2.27-1.242,21.728-8.816,28.624-7.923  c5.696,0.737,17.51,10.146,13.568,17.159c0.034-0.011,0.042-0.009-0.011,0.022c0.004-0.007,0.007-0.015,0.011-0.022  c-0.195,0.062-1.604,0.711-1.647,0.723c-1.255-3.387-3.133-6.401-5.2-9.35c-3.018-4.306-7.777-3.875-12.915-4.324  c-4.33-0.379-15.499,3.949-19.748,5.152c-0.644,0.182-1.204,0.359-1.696,0.54c0.625,1.359,0.947,2.021,1.878,3.187  c0.782-0.506,1.26-0.848,2.886-1.777c3.835-2.192,17.546-3.478,21.939-3.478c3.311,0,4.139-0.537,5.804,2.423  c2.29,4.07,5.021,6.647,3.43,10.199c-2.131,4.756-8.313,10.061-11.454,14.492c0.209,0.167,0.418,0.295,0.628,0.402  c0.5-0.108,1.057-0.025,1.677,0.276c3.367-0.533,6.645-7.004,8.896-9.396c2.756-2.928,7.521-9.493,11.623-10.134  c14.282-2.23,29.022,4.901,33.158,19.086c-7.176-6.2-15.905-12.858-25.57-14.146c-9.804-1.307-17.426,9.444-22.934,16.834  c0.418,0.291,0.804,0.496,1.176,0.662c0.563-0.021,1.16,0.095,1.792,0.375c2.375-0.159,3.805-3.084,5.796-5.36  c0.323,2.091,0.611,4.197,0.819,6.311c0.263,0.007,0.499-0.027,0.715-0.091c0.182-0.149,0.394-0.274,0.656-0.358  c2.245-1.802,1.168-8.684,2.953-11.472c1.477,3.323,1.862,7.041,1.987,10.636c0.419,0.042,0.769,0.032,1.084-0.003  c0.37-0.315,0.813-0.527,1.348-0.58c1.092-1.146,0.286-3.686,0.081-5.729c-0.363-3.619-2.004-5.801,0.994-7.479  c7.908-4.427,21.979,9.092,26.297,13.908c-8.697,1.847-17.475,1.016-25.712,4.909c-0.545-1.812-0.958-3.708-1.053-5.61  c-0.215-0.022-0.415-0.018-0.607,0.001c-0.294,0.308-0.729,0.512-1.348,0.58c-1.771,1.51-1.718,5.555-0.5,7.717  c1.71,3.035,2.802-0.317,6.728-0.874c4.199-0.595,22.553-6.031,25.647-2.867c2.414,2.469-2.114,7.399-3.741,9.467  c-3.911,4.974-7.348,10.336-9.956,16.11c-1.181,2.613-5.545,18.055-7.432,18.36c-15.277,2.477-30.652,4.098-45.842,7.137  c2.383-7.383,4.266-14.911,6.546-22.324c1.65-5.364,4.033-17.819,8.648-21.388c3.366-2.603,10.537,0.216,13.324-1.87  c2.074-1.553,1.842-6.54,1.753-8.766c-0.485-0.022-0.875,0.03-1.2,0.135c-0.195,0.156-0.407,0.285-0.656,0.358  c-1.498,1.229-0.667,4.401-3.521,5.351c-2.279,0.758-5.191,0.693-7.598,1.286c1.43-2.412,2.999-4.764,4.675-7.013  c-0.304-0.199-0.599-0.356-0.888-0.483c-0.542,0.036-1.135-0.082-1.792-0.375c-3.696,0.137-5.984,6.095-7.955,9.506  c-3.007,5.206-5.572,10.866-7.713,16.48c-2.102,5.51-3.646,11.205-5.101,16.911c-1.33,5.215-0.163,13.607-6.938,13.359  c4.447-21.004,10.506-40.436,22.324-58.555c-0.342-0.272-0.66-0.458-0.967-0.608c-0.558,0.088-1.119,0.007-1.677-0.276  c-2.177,0.474-3.337,4.278-4.603,6.494c-2.684,4.696-2.593,6.311-7.947,6.779c-11.396,0.996-22.205,4.617-33.543,5.727  c1.344-9.186,4.152-17.701,9.233-25.537c2.433-3.752,5.211-7.374,8.378-10.541c2.323-2.322,4.173-3.55,5.249-5.183  c-0.499-0.724-1.02-1.502-2.021-3.467C65.8,17.475,60.056,23.525,55.603,30.797c-2.91,4.753-11.171,21.439-7.13,26.999  c2.222,3.056,9.62,0.053,12.856-0.351c8.918-1.113,17.403-3.704,26.415-4.792c-4.671,8.202-7.717,17.311-10.001,26.443  c-1.163,4.649-2.295,9.324-3.235,14.024c-0.778,3.889-0.389,3.893-4.273,4.399c-2.519,0.329-5.009,0.811-7.502,1.298  c-9.168,1.794-19.167,4.511-28.517,2.337c-4.237-0.985-8.468-3.129-11.457-6.279c-3.679-3.877-5.026-2.9-9.815-3.421  c-6.042-0.657-8.804-4.068-9.409-10.051c-0.455-4.496,2.82-4.534,6.8-6.173c4.16-1.712,8.26-3.575,12.426-5.282  c3.988-1.634,8.007-3.155,12.039-4.675c6.463-2.436,8.01-2.024,8.388-9.207c0.516-9.804,5.143-19.56,10.662-27.492  c3.131-4.5,6.655-8.835,10.636-12.622c2.922-2.781,5.139-4.549,6.789-5.751c-0.454-0.925-0.908-1.841-1.402-2.732  c-9.067,6.82-25.646,22.166-29.065,41.65c-0.636,3.623,0.191,11.375-3.086,12.707c-4.279,1.739-8.615,3.286-12.955,4.864  c-5.573,2.026-19.953,4.574-23.51,9.569c-1.94,2.724-1.054,11.563-1.052,14.844c0.002,5.164,0.413,10.372,0.892,15.511  c0.691,7.415,1.111,15.805,0.861,22.239c-0.811,20.913,2.297,41.287,3.975,62.062c0.812,10.052,1.766,20.914,0.285,30.945  c-0.738,4.998-4.758,17.378-0.635,21.882c2.464,2.692,7.868,4.021,10.895,6.419c4.25,3.366,8.158,7.179,12.25,10.738  c1.723,1.499,3.53,2.801,5.463,4.009c1.984,1.241,2.187,4.303,4.584,5.247c4.316,1.7,8.363-3.166,11.623-5.187  c6.568-4.068,17.267-5.895,24.869-8.116c9.253-2.703,18.493-5.529,27.816-8.035c20.087-5.4,40.893-7.16,61.248-11.229  c10.53-2.105,20.77-4.532,31.003-7.794c4.584-1.461,13.07-1.195,13.187-7.4C208.874,203.342,203.049,184.59,199.475,166.021z" id="path7" style="fill:#FF7F00;"></path>

<path d="M121.202,40.845c0.618-0.068,1.054-0.272,1.348-0.58C122.015,40.318,121.572,40.53,121.202,40.845z" id="path9" style="fill:#FFBF00;"></path>

<path d="M99.049,37.903c-0.621-0.302-1.178-0.385-1.677-0.276C97.93,37.91,98.491,37.991,99.049,37.903z" id="path11" style="fill:#FFBF00;"></path>

<path d="M107.191,41.183c-0.633-0.28-1.229-0.395-1.792-0.375C106.056,41.102,106.649,41.219,107.191,41.183z  " id="path13" style="fill:#FFBF00;"></path>

<path d="M87.744,79.066c-0.156,0.701-0.312,1.402-0.468,2.104C87.432,80.469,87.587,79.768,87.744,79.066" id="path15" style="fill:#FFBF00;"></path>

<path d="M155.063,53.12c-4.282,7.09-7.288,15.138-9.662,23.05c-1.364,4.548-2.151,12.988-8.336,12.48  C140.966,75.108,143.075,62.106,155.063,53.12" id="path17" style="fill:#FFBF00;"></path>

<path d="M3.593,93.092c7.871,2.717,15.192,7.001,23.159,9.416c3.88,1.176,7.917,2.557,11.995,2.776  c3.671,0.197,6.778-1.225,10.544-1.673c15.371-1.831,31.249-4.714,47.012-6.839c18.939-2.554,42.853-0.819,60.194-9.719  c5.158-2.647,9.408-5.084,13.934-8.677c2.628-2.086,9.412-7.752,9.412-10.938c0-5.888,2.833-10.541-3.683-2.045  c-7.628,9.946-17.64,18.246-29.98,21.388c2.883-10.783,5.932-21.682,10.944-31.704c2.754-5.507-1.842-10.986,5.886-10.021  c4.398,0.549,8.57,2.553,12.857,3.623c-1.492,4-6.526,4.2-9.117,7.246c3.857,5.208,17.183-0.899,17.183,5.435  c0,4.544-2.724,8.252-3.622,12.563c-1.278,6.133-0.94,13.257-1.229,19.519c-0.203,4.427,0.75,5.869-2.738,8.698  c-3.197,2.594-6.396,5.188-9.594,7.782c3.942-10.458,12.73-19.615,10.755-31.556c-4.184,6.865-7.92,13.967-11.513,21.154  c-1.846,3.693-3.649,7.409-5.494,11.103c-2.387,4.779-4.93,5.612-9.9,7.36c-15.004,5.275-31.403,5.748-46.843,9.353  c-16.625,3.882-33.491,6.95-50.641,6.654c-4.353-0.075-8.713-0.123-13.056-0.459c-6.815-0.528-6.708-0.704-7.714-7.129  c-0.966-6.167,0.033-14.142-5.142-17.648c-3.52,2.915,1.428,18.422,2.104,22.908c-8.061-0.814-14.587-5.641-20.298-11.035  C2.5,114.48,4.13,101.955,3.593,93.092" id="path19" style="fill:#FFBF00;"></path>

<path d="M72.082,151.295c8.279-3.682,16.969-6.625,25.712-8.882c-5.153,1.597-10.086,3.128-14.735,6.064  c-4.362,2.755-11.072,12.669-16.12,11.233C68.879,157.072,72.062,154.829,72.082,151.295" id="path21" style="fill:#FFBF00;"></path>

<path d="M31.643,158.776c-2.751-1.009-5.897-0.369-7.947-2.805c-0.09,0.206-0.261,0.976-0.234,0.935  c-1.043-0.706-8.299-5.178-3.506-4.383c4.662,0.772,9.259,1.334,14.137,1.756c6.213,0.537,10.741-0.687,16.25-3.217  c4.072-1.87,10.193-2.95,12.154-7.479c0.1,3.374,4.292-0.125,3.974-1.169c-0.447-1.466-7.283,0.172-8.415,0.116  c0,0.351,0,0.702,0,1.053c-7.369-4.927-19.656,1.942-27.582-6.312c11.118,1.213,22.307,1.47,33.452,0.298  c5.905-0.621,11.716-1.522,17.562-2.566c5.052-0.902,12.563-4.646,17.475-2.641C75.781,140.615,56.834,156.839,31.643,158.776" id="path23" style="fill:#FFBF00;"></path>

<path d="M64.134,154.802c-2.272,2.342-4.223,8.216-8.415,5.61C58.524,158.542,61.329,156.672,64.134,154.802" id="path25" style="fill:#FFBF00;"></path>

<path d="M105.041,140.777c9.57-2.385,22.107-7.742,30.389,0.468c-11.152-6.321-24.814-0.646-36.467,0.701  C101.009,141.614,103.016,141.224,105.041,140.777" id="path27" style="fill:#FFBF00;"></path>

<path d="M130.987,134.465c3.21-0.487,6.245,1.13,8.882,2.806  C136.706,137.895,133.484,136.325,130.987,134.465" id="path29" style="fill:#FFBF00;"></path>

<path d="M119.767,128.388c12.425-3.601,24.764-5.454,36.933-10.051c-1.503,5.521-3.695,11.716-2.337,17.473  c1.742,7.386,7.78,2.853,11.804,0.175c4.779-3.181,9.529-7.731,12.098-13.148c1.424-3.003-0.628-9.839-0.292-10.343  c1.889-2.837,2.094,0.592,2.803,2.104c2.678,5.707-1.466,10.579-5.18,14.705c-2.769,3.077-12.839,12.803-17.376,11.184  c-5.516-1.968-8.592-7.033-14.375-8.824C136.122,129.27,127.808,128.664,119.767,128.388" id="path31" style="fill:#FFBF00;"></path>

<path d="M169.557,126.05c1.679-3.042,3.396-6.112,4.674-9.35C176.47,120,172.165,124.115,169.557,126.05" id="path33" style="fill:#FFBF00;"></path>

<path d="M15.28,154.101c-0.86-1.227-0.388-2.18-2.104-2.104c0-0.39,0-0.779,0-1.169  C15.367,151.137,16.33,152.27,15.28,154.101" id="path35" style="fill:#FFBF00;"></path>

<path d="M203.217,223.758c-38.622,13.543-80.004,14.012-118.955,26.633  c-9.088,2.945-18.521,5.184-27.316,8.955c-4.044,1.734-14.937,10.906-18.524,6.428c-4.777-5.964-11.117-10.472-16.562-15.918  c-5.393-5.395-14.062-9.492-11.313-17.74c3.351-10.058,0.125-24.584-0.53-35.074c-0.465-7.446-1-14.896-1.697-22.323  c-0.553-5.9-3.388-15.167-1.922-20.617c13.701,9.811,27.28,14.292,44.344,12.553c16.737-1.705,32.8-6.313,49.319-9.27  c29.556-5.29,61.704-4.017,83.521-27.828c0.891,3.313,6.882,23.086,5.367,24.825c-6.809,7.813-13.271,12.962-22.563,17.607  c-15.388,7.693-35.309,7.672-52.101,9.538c-16.451,1.828-32.566,6.676-48.981,9.039c-8.139,1.172-16.587,2.144-24.807,1.472  c-5.052-0.412-2.704-0.524-3.827-4.043c-0.524-1.642-0.739-3.446-1.053-5.142c-5.337,0.731-1.325,6.484-3.973,8.414  c-2.675,1.949-14.389-5.44-17.297-6.312c-0.157,10.658,2.847,22.602,14.551,23.668c3.492,0.318,7.396,7.4,3.974,8.122  c-7.721,1.626-10.929-5.313-17.356-6.313c-2.716-0.422-2.382-1.302-1.87,1.754c0.111,0.661,1.024,2.03,1.402,2.573  c3.519,5.045,9.625,7.069,15.194,8.882c3.952,1.286,4.409,0.216,5.03,5.03c0.461,3.58,0.823,7.173,1.286,10.751  c0.867,6.712,1.886,13.399,4.671,19.631c2.871-3.697-0.49-6.998-0.752-10.78c-0.399-5.768-0.799-11.535-1.199-17.303  c-0.453-6.542-0.469-5.57,6.245-6.057c17.203-1.245,34.004-5.167,50.758-9.081c34.938-8.163,73.5-9.212,103.196-31.346  C203.66,196.646,206.042,211.069,203.217,223.758" id="path37" style="fill:#FFBF00;"></path>

<path d="M180.311,168.827c-6.976,9.282-16.237,18.018-26.882,22.908c4.464-3.507,9.328-6.483,13.768-10.035  C172.12,177.762,175.248,172.555,180.311,168.827" id="path39" style="fill:#FFBF00;"></path>

<path d="M152.26,192.436c-0.779,0.545-1.559,1.09-2.338,1.635C150.701,193.526,151.48,192.981,152.26,192.436  " id="path41" style="fill:#FFBF00;"></path>

<path d="M137.766,181.684c-2.954,1.635-11.074,8.035-10.286,1.637  C130.921,182.863,134.338,182.229,137.766,181.684" id="path43" style="fill:#FFBF00;"></path>

<path d="M104.572,208.097c-2.946,1.82-6.095,4.775-9.582,4.909  C98.184,211.37,101.378,209.734,104.572,208.097" id="path45" style="fill:#FFBF00;"></path>

<path d="M83.769,198.046c4.644-5.981,10.943-9.696,18.466-10.753  C95.136,189.332,91.411,197.002,83.769,198.046" id="path47" style="fill:#FFBF00;"></path>

<path d="M37.721,216.511c-2.335-4.871,0.412-7.965,5.025-9.349c4.885-1.466,8.351-3.598,12.821-5.828  c7.596-3.79,14.889-8.229,23.292-10.067C66.337,201.835,52.999,210.488,37.721,216.511" id="path49" style="fill:#FFBF00;"></path>

<path d="M78.159,205.759c-1.056,1.31-1.64,2.286-3.272,2.338C75.952,207.336,77.006,206.375,78.159,205.759" id="path51" style="fill:#FFBF00;"></path>

<path d="M73.25,208.565c-3.302,3.37-7.851,5.616-12.388,6.777C64.584,212.335,69.076,210.795,73.25,208.565" id="path53" style="fill:#FFBF00;"></path>

<path d="M36.785,197.345c4.359-0.328,8.562,1.418,12.857,0C45.142,199.286,35.346,206.515,36.785,197.345" id="path55" style="fill:#FFBF00;"></path>

<path d="M80.497,55.925c3.906,4.449-4.436,5.011-6.883,5.792c-8.846,2.823-17.519,5.977-26.102,9.521  c-7.746,3.199-15.302,7.615-21.874,12.802c-3.157,2.492-7.758,5.676-11.995,3.908C33.973,72.703,55.891,62.275,80.497,55.925" id="path57" style="fill:#FFBF00;"></path>

<path d="M48.94,62.704c-0.688,2.951-11.031,6.138-14.202,7.787c-5.153,2.68-10.5,4.95-15.951,6.939  C24.451,72.915,41.512,59.986,48.94,62.704" id="path59" style="fill:#FFBF00;"></path>

<path d="M82.133,96.364c3.55-20.515,10.135-39.079,22.089-56.217  c-5.891-3.778-7.977,4.198-10.542,8.662c-2.875,5.003-5.097,10.429-7.143,15.812c-4.02,10.577-6.509,21.401-8.847,32.445  C79.114,96.841,80.772,96.823,82.133,96.364" id="path61" style="fill-rule:evenodd;clip-rule:evenodd;fill:#8B5C29;"></path>

<path d="M120.936,22.966c12.257-0.641,22.92,6.828,31.791,14.493c-3.56-12.209-17.174-21.697-30.389-19.519  c-9.047,1.491-17.463,13.142-22.322,20.57c4.98,3.627,7.137-2.238,10.285-5.61C113.645,29.32,117.298,26.229,120.936,22.966" id="path63" style="fill:#8B5C29;"></path>

<path d="M118.131,30.212c-2.144,3.349-1.753,7.53-1.753,11.337  C122.387,42.146,119.719,33.787,118.131,30.212" id="path65" style="fill-rule:evenodd;clip-rule:evenodd;fill:#FFBF00;"></path>

<path d="M101.301,52.185C94.03,66.018,90.874,81.129,86.106,95.897  c14.7-2.941,29.571-4.5,44.354-6.896c4.09-0.663,5.99-12.117,7.794-16.111c2.732-6.05,5.942-11.561,9.795-16.965  c1.305-1.831,6.603-7.267,5.845-9.876c-1.289-4.443-18.607,0.526-21.724,0.967c-1.597,0.227-11.376,2.311-11.294,2.889  c-0.429-3.021-0.62-6.018-0.759-9.058c-6.858-0.601-1.7,5.675-5.025,8.766C113.049,51.514,104.606,51.212,101.301,52.185" id="path67" style="fill-rule:evenodd;clip-rule:evenodd;fill:#8B5C29;"></path>

<path d="M166.75,55.925c2.591-3.046,7.625-3.247,9.117-7.246c-4.002-0.999-7.855-2.78-11.921-3.506  c-8.765-1.566-3.215,2.691-6.035,8.329c-5.301,10.599-8.68,21.865-11.731,33.279c8.728-2.222,16.698-7.105,23.053-13.466  c3.123-3.126,6.284-6.496,8.638-10.26c0.646-1.035,1.168-1.744,1.591-2.173c0.169-0.907,0.445-1.766,0.821-2.588  C176.218,57.771,169.839,60.096,166.75,55.925z" id="path69" style="fill:#8B5C29;"></path>

<path d="M180.282,58.293c-0.376,0.822-0.652,1.681-0.821,2.588c1.147-1.162,1.56-0.202,1.665,2.407  c0.297,7.34-9.904,14.458-14.887,18.415c-8.108,6.438-19.229,8.511-29.099,10.485c-18.736,3.748-39.284,5.062-58.163,6.981  c-3.721,0.378-7.23,1.709-10.869,2.455c-2.822,0.578-10.434-0.527-12.272,0.76c-3.73,2.611-15.671,3.223-19.811,2.513  c-11.508-1.974-21.519-8.037-32.433-11.804c0.537,8.863-1.093,21.388,5.415,27.535c5.711,5.394,12.237,10.22,20.298,11.035  c-1.091-7.247-2.181-14.493-3.272-21.74c0.39-0.39,0.779-0.779,1.168-1.168c5.037,3.413,4.021,10.548,4.967,16.538  c1.057,6.694,0.324,7.458,7.387,8.188c4.486,0.463,9.053,0.434,13.558,0.511c17.15,0.296,34.017-2.771,50.641-6.654  c15.439-3.605,31.839-4.078,46.843-9.353c4.729-1.663,7.14-2.426,9.608-6.775c2.03-3.576,3.671-7.418,5.494-11.103  c3.659-7.395,7.51-14.69,11.805-21.739c1.976,11.94-6.813,21.098-10.755,31.556c2.768-2.245,5.535-4.489,8.303-6.734  c3.997-3.243,3.913-3.378,3.971-8.459c0.073-6.523,0.923-13.009,1.227-19.519c0.206-4.407,4.027-8.507,3.683-12.973  C183.721,59.492,182.279,58.55,180.282,58.293z" id="path71" style="fill:#FFBF00;"></path>

<path d="M141.506,87.481c4.566-11.477,7.103-23.674,13.557-34.361  c-11.987,8.986-14.097,21.988-17.998,35.53C138.61,88.678,140.163,88.299,141.506,87.481" id="path73" style="fill-rule:evenodd;clip-rule:evenodd;fill:#8B5C29;"></path>

<path d="M22.76,86.313c10.153-8.014,21.031-13.722,33.054-18.427  c5.851-2.29,11.817-4.259,17.8-6.168c2.086-0.666,5.559-0.354,7.117-2.286c4.587-5.69-10.597-0.665-12.762,0.009  c-6.483,2.019-12.834,4.46-19.029,7.237c-12.71,5.697-24.172,12.928-35.296,21.271C17.055,89.372,19.649,87.471,22.76,86.313" id="path75" style="fill-rule:evenodd;clip-rule:evenodd;fill:#FFBF00;"></path>

<path d="M18.787,77.43c5.451-1.989,10.798-4.259,15.951-6.939  c3.171-1.649,13.515-4.836,14.202-7.787C41.512,59.986,24.451,72.915,18.787,77.43" id="path77" style="fill-rule:evenodd;clip-rule:evenodd;fill:#FFBF00;"></path>

<path d="M159.037,140.777c8.465-3.739,18.326-10.28,22.04-19.193  c0.783-1.88,0.66-7.69-1.003-9.441c-1.078-1.136-1.961-0.715-2.569,1.052c0.244-0.71,1.957,3.285,1.986,3.74  c0.103,1.587-0.203,3.29-0.701,4.792c-2.607,7.872-11.59,14.884-18.935,17.94c-9.619,4.003-4.114-17.811-3.156-21.33  c-12.169,4.597-24.508,6.451-36.933,10.051c8.041,0.276,16.355,0.882,24.077,3.273C149.82,133.512,153.171,139.047,159.037,140.777" id="path79" style="fill-rule:evenodd;clip-rule:evenodd;fill:#FFBF00;"></path>

<path d="M174.23,116.7c-1.277,3.238-2.995,6.308-4.674,9.35  C172.165,124.115,176.47,120,174.23,116.7" id="path81" style="fill-rule:evenodd;clip-rule:evenodd;fill:#FFBF00;"></path>

<path d="M130.987,208.565c-22.312,4.009-44.171,10.4-66.539,14.038c-5.766,0.938-11.542,1.777-17.374,2.199  c-0.854,0.063-8.199,0.378-8.171,0.782c0.247,3.562,0.494,7.122,0.74,10.684c0.361,5.217,0.23,10.427,1.875,15.365  c0.847,2.54,1.502,5.112-0.292,7.421c-2.534-5.669-3.655-11.768-4.446-17.887c-0.711-5.507,0.386-16.368-5.489-17.35  c-5.793-0.969-10.906-3.729-15.194-7.715c-1.032-0.96-4.506-8.117-1.519-6.254c4.991,3.115,9.984,7.13,16.129,7.13  c6.049,0,2.551-6.95-1.168-8.297c-5.494-1.989-7.103-0.132-11.177-6.086c-3.411-4.983-4.103-11.775-4.017-17.641  c2.909,0.871,14.623,8.261,17.297,6.312c2.648-1.93-1.364-7.683,3.973-8.414c0.563,3.048,0.355,8.815,3.185,9.047  c8.708,0.711,17.277-0.181,25.919-1.261c16.572-2.071,32.683-6.855,49.204-9.072c16.484-2.212,36.261-1.479,51.455-9.074  c9.31-4.654,16.073-9.51,22.914-17.359c2.377-2.728-3.54-21.215-4.712-25.577c-21.517,23.483-52.636,22.299-81.769,27.514  c-16.472,2.948-32.584,7.699-49.264,9.399c-17.828,1.816-31.711-2.029-46.15-12.369c-2.055,7.64,1.992,21.134,2.646,29.374  c0.793,9.993,1.299,19.988,1.796,29.999c0.361,7.271,1.317,13.809-0.993,20.745c-2.072,6.222,11.223,14.965,15.369,18.875  c3.446,3.25,7.649,6.031,10.869,9.467c1.265,1.35,1.941,3.278,3.507,4.323c3.291,2.197,17.527-7.757,21.563-9.174  c18.864-6.624,38.087-12.939,57.699-16.823c21.168-4.192,42.935-5.334,63.862-10.772c5.633-1.464,11.022-3.032,16.511-4.957  c5.879-2.062,5.182-7.071,5.16-12.971c-0.033-9.216-1.915-18.995-4.911-27.699C179.169,199.622,155.553,204.666,130.987,208.565" id="path83" style="fill:#FFBF00;"></path>

<path d="M181.943,214.175c-1.048-5.077-0.234-16.057,5.612-17.999  C187.359,201.169,185.156,210.315,181.943,214.175" id="path85" style="fill:#FFBF00;"></path>

<path d="M57.355,142.414C57.984,142.514,58.35,142.573,57.355,142.414" id="path87" style="fill-rule:evenodd;clip-rule:evenodd;fill:#FFBF00;"></path>

<path d="M95.691,131.661c-21.399,5.651-43.162,8.015-65.216,5.61  c7.926,8.254,20.213,1.385,27.582,6.312c-0.539-0.834-0.166-0.61-0.701-1.169c1.608,0.283,7.224-1.548,8.416-0.352  c1.372,1.377-3.176,4.828-3.273,1.521c-2.063,4.766-7.502,4.763-11.453,7.069c-5.432,3.173-10.646,4.172-16.952,3.627  c-2.687-0.232-5.378-0.351-8.064-0.585c-0.984-0.086-4.817-1.334-5.722-1.113c-4.582,1.118,0.879,2.784,3.156,4.325  c-0.027,0.041,0.144-0.729,0.234-0.935c6.18,7.343,24.568,0.597,31.266-2.395c14.979-6.689,28.472-15.687,44.001-21.215  C97.89,132.132,96.783,131.755,95.691,131.661" id="path89" style="fill-rule:evenodd;clip-rule:evenodd;fill:#FFBF00;"></path>

<path d="M139.869,137.271c-2.637-1.675-5.672-3.293-8.882-2.806  C133.484,136.325,136.706,137.895,139.869,137.271" id="path91" style="fill-rule:evenodd;clip-rule:evenodd;fill:#FFBF00;"></path>

<path d="M135.43,141.245c-8.282-8.21-20.819-2.853-30.389-0.468  C114.534,138.998,126.479,136.17,135.43,141.245" id="path93" style="fill-rule:evenodd;clip-rule:evenodd;fill:#FFBF00;"></path>

<path d="M98.963,141.946c2.043-0.236,4.095-0.63,6.078-1.169  C103.016,141.224,101.009,141.614,98.963,141.946" id="path95" style="fill-rule:evenodd;clip-rule:evenodd;fill:#FFBF00;"></path>

<path d="M91.834,144.167c2-0.537,3.986-1.142,5.96-1.753C95.791,142.931,93.766,143.408,91.834,144.167" id="path97" style="fill:#FFBF00;"></path>

<path d="M70.913,159.711c5.362-7.05,12.474-12.638,20.921-15.545  c-5.167,1.565-15.898,3.164-19.752,7.129c-1.461,1.503-3.557,6.258-5.142,8.416C68.202,159.711,69.675,159.942,70.913,159.711" id="path99" style="fill-rule:evenodd;clip-rule:evenodd;fill:#FFBF00;"></path>

<path d="M13.177,151.997c0.743,0.656,1.786,0.32,2.104,2.104C16.522,151.934,14.154,150.038,13.177,151.997" id="path101" style="fill:#FFBF00;"></path>

<path d="M64.134,154.802c-2.805,1.87-5.61,3.74-8.415,5.61C59.912,163.018,61.862,157.144,64.134,154.802" id="path103" style="fill:#FFBF00;"></path>

<path d="M153.429,191.735c10.605-5.563,19.679-13.323,26.882-22.908c-4.873,3.589-7.916,8.439-12.508,12.389  C163.296,185.092,158.093,188.071,153.429,191.735" id="path105" style="fill:#FFBF00;"></path>

<path d="M137.766,181.684c-3.428,0.545-6.845,1.179-10.286,1.637  C126.691,189.719,134.812,183.319,137.766,181.684" id="path107" style="fill-rule:evenodd;clip-rule:evenodd;fill:#FFBF00;"></path>

<path d="M83.769,198.046c7.642-1.044,11.367-8.715,18.466-10.753  C94.712,188.35,88.413,192.065,83.769,198.046" id="path109" style="fill-rule:evenodd;clip-rule:evenodd;fill:#FFBF00;"></path>

<path d="M52.447,202.956c-4.637,4.524-19.506,3.587-14.726,13.556  c15.278-6.023,28.617-14.676,41.139-25.244C69.451,193.326,60.853,198.457,52.447,202.956" id="path111" style="fill-rule:evenodd;clip-rule:evenodd;fill:#FFBF00;"></path>

<path d="M183.112,201.318c-0.089,4.346-2.071,8.486-1.169,12.857  c3.213-3.86,5.416-13.006,5.612-17.999C185.212,196.956,183.287,198.791,183.112,201.318" id="path113" style="fill-rule:evenodd;clip-rule:evenodd;fill:#FFBF00;"></path>

<path d="M36.785,197.345c-1.439,9.17,8.357,1.94,12.857,0C45.346,198.763,41.144,197.017,36.785,197.345" id="path115" style="fill:#FFBF00;"></path>

<path d="M78.159,205.759c-1.153,0.616-2.207,1.577-3.272,2.338  C76.52,208.045,77.103,207.069,78.159,205.759" id="path117" style="fill-rule:evenodd;clip-rule:evenodd;fill:#FFBF00;"></path>

<path d="M104.572,208.097c-3.194,1.637-6.388,3.272-9.582,4.909  C98.478,212.873,101.626,209.917,104.572,208.097" id="path119" style="fill:#FFBF00;"></path>

<path d="M73.25,208.565c-4.175,2.23-8.667,3.771-12.388,6.777C65.399,214.181,69.948,211.935,73.25,208.565" id="path121" style="fill:#FFBF00;"></path>

<path d="M62.265,57.328c-3.143,0.587-11.631,3.44-13.792,0.468c-4.061-5.587,4.302-22.858,7.47-27.497  c3.083-4.515,6.299-8.7,9.999-12.726c1.29-1.404,4.185-3.36,6.318-5.394c-0.315-0.611-0.687-1.366-0.986-1.976  C54.851,23.583,44.02,40.258,42.863,62.236c-6.943,2.561-13.881,5.15-20.723,7.969c-4.614,1.901-17.379,5.31-18.78,9.329  c-1.304,3.741,2.139,9.3,5.143,11.103c2.3,1.38,4.772,0.445,7.246,0.702c4.635,0.48,4.877,2.219,8.532,5.142  c13.155,10.522,31.314,2.95,45.954,1.039c5.102-0.666,4.257-4.408,5.307-9.074c0.937-4.16,1.896-8.305,3.027-12.418  c2.227-8.091,5.012-16.064,9.175-23.375C78.953,53.713,70.894,55.715,62.265,57.328z" id="path123" style="fill:#8B5C29;"></path>

<path d="M113.455,19.46c0.053-0.031,0.045-0.033,0.011-0.022  C113.462,19.445,113.459,19.453,113.455,19.46z" id="path125" style="fill-rule:evenodd;clip-rule:evenodd;fill:#FFBF00;"></path>

<path d="M99.049,2.249c-2.988-0.107-22.292,4.554-27.775,7.954  c0.371,0.72,0.642,1.23,0.986,1.976c6.869-1.598,20.442-5.918,27.664-5.016c6.464,0.808,9.65,6.942,11.895,12.999  c0.043-0.012,1.452-0.662,1.647-0.723C117.549,12.175,105.185,2.468,99.049,2.249z" id="path127" style="fill-rule:evenodd;clip-rule:evenodd;fill:#8B5C29;"></path>


  
</svg>
