<?xml version="1.0" encoding="UTF-8" standalone="no"?>
<!-- Generator: Adobe Illustrator 12.0.0, SVG Export Plug-In . SVG Version: 6.00 Build 51448)  -->
<svg
   xmlns:dc="http://purl.org/dc/elements/1.1/"
   xmlns:cc="http://web.resource.org/cc/"
   xmlns:rdf="http://www.w3.org/1999/02/22-rdf-syntax-ns#"
   xmlns:svg="http://www.w3.org/2000/svg"
   xmlns="http://www.w3.org/2000/svg"
   xmlns:sodipodi="http://sodipodi.sourceforge.net/DTD/sodipodi-0.dtd"
   xmlns:inkscape="http://www.inkscape.org/namespaces/inkscape"
   height="220"
   id="Layer_1"
   inkscape:version="0.45.1"
   sodipodi:docbase="C:\Dokumente und Einstellungen\ulfl\Eigene Dateien"
   sodipodi:docname="outdoor.svg"
   sodipodi:version="0.32"
   style="overflow:visible;enable-background:new 0 0 218.184 265.487;"
   version="1.0"
   viewBox="0 0 218.184 265.487"
   width="220"
   xml:space="preserve"
   inkscape:output_extension="org.inkscape.output.svg.inkscape"><metadata
   id="metadata3016"><rdf:RDF><cc:Work
       rdf:about=""><dc:title>Camicia in seta</dc:title><dc:description /><dc:subject><rdf:Bag><rdf:li>clothing</rdf:li></rdf:Bag></dc:subject><dc:publisher><cc:Agent
           rdf:about="http://www.openclipart.org"><dc:title>Architetto Francesco Rollandin</dc:title></cc:Agent></dc:publisher><dc:creator><cc:Agent><dc:title>Architetto Francesco Rollandin</dc:title></cc:Agent></dc:creator><dc:rights><cc:Agent><dc:title>Architetto Francesco Rollandin</dc:title></cc:Agent></dc:rights><dc:date /><dc:format>image/svg+xml</dc:format><dc:type
         rdf:resource="http://purl.org/dc/dcmitype/StillImage" /><cc:license
         rdf:resource="http://web.resource.org/cc/PublicDomain" /><dc:language>en</dc:language></cc:Work><cc:License
       rdf:about="http://web.resource.org/cc/PublicDomain"><cc:permits
         rdf:resource="http://web.resource.org/cc/Reproduction" /><cc:permits
         rdf:resource="http://web.resource.org/cc/Distribution" /><cc:permits
         rdf:resource="http://web.resource.org/cc/DerivativeWorks" /></cc:License></rdf:RDF></metadata>
<defs
   id="defs205" />
<sodipodi:namedview
   bordercolor="#666666"
   borderopacity="1.0"
   id="base"
   inkscape:current-layer="Layer_1"
   inkscape:cx="109.092"
   inkscape:cy="147.49754"
   inkscape:pageopacity="0.0"
   inkscape:pageshadow="2"
   inkscape:window-height="707"
   inkscape:window-width="964"
   inkscape:window-x="110"
   inkscape:window-y="110"
   inkscape:zoom="1.3635319"
   pagecolor="#ffffff"
   height="220px"
   width="220px" />

<g
   id="XMLID_1_"
   transform="translate(25.477769,-0.2488009)">
	<g
   id="g4">
		<path
   d="M 213.122,217.444 C 206.722,218.334 199.922,220.843 193.152,222.194 C 187.752,223.263 182.362,223.603 177.212,221.803 C 183.492,221.683 189.702,221.063 195.862,219.783 C 197.551,219.432 201.101,218.262 204.561,217.423 C 208.352,216.523 212.032,216.023 213.122,217.444 z "
   id="path6"
   style="fill:#047391" />

		<path
   d="M 195.342,209.983 C 195.562,212.444 194.552,212.093 192.932,212.624 C 193.602,211.673 194.552,210.853 195.342,209.983 z "
   id="path8" />

		<path
   d="M 191.432,147.793 C 193.073,152.493 195.252,157.673 196.372,162.263 C 187.222,163.743 178.271,166.253 169.302,168.563 C 169.113,168.614 168.922,168.664 168.732,168.713 C 163.762,170.063 161.703,171.433 159.543,166.393 C 158.183,163.213 156.613,159.873 155.933,156.463 C 155.093,152.253 162.103,151.963 165.853,151.013 C 169.143,150.183 172.483,149.433 175.813,148.713 C 177.244,148.403 178.664,148.103 180.084,147.803 C 183.392,147.114 190.172,144.213 191.432,147.793 z M 175.032,156.983 C 177.622,155.874 184.481,163.383 184.322,155.494 C 183.472,149.843 175.892,152.423 175.032,156.983 z "
   id="path10"
   style="fill:#023f4f" />

		<path
   d="M 182.032,143.603 C 184.521,143.034 186.992,142.574 189.372,142.303 C 184.712,143.404 180.082,145.513 175.332,146.503 C 173.412,146.893 171.481,147.113 169.521,147.003 C 173.622,145.824 177.862,144.563 182.032,143.603 z "
   id="path12"
   style="fill:#047391" />

		<path
   d="M 179.742,156.063 C 180.552,153.074 181.891,153.954 181.572,156.293 C 180.962,156.223 180.352,156.143 179.742,156.063 z "
   id="path14"
   style="fill:#8c8c8c" />

		<path
   d="M 181.572,156.293 C 181.891,153.953 180.551,153.073 179.742,156.063 C 180.352,156.143 180.962,156.223 181.572,156.293 z M 184.322,155.494 C 184.481,163.384 177.622,155.874 175.032,156.983 C 175.892,152.423 183.472,149.843 184.322,155.494 z "
   id="path16" />

		<path
   d="M 171.252,206.543 C 171.852,207.933 176.712,217.173 173.542,216.583 C 171.792,216.253 170.042,211.903 168.592,207.203 C 167.142,202.493 165.992,197.423 165.482,195.633 C 163.342,188.253 160.982,180.773 158.172,173.613 C 163.252,175.693 161.892,183.783 165.172,187.613 L 165.782,187.493 C 167.042,194.013 168.602,200.423 171.252,206.543 z "
   id="path18"
   style="fill:#047391" />

		<path
   d="M 165.172,187.614 C 168.452,178.853 157.062,173.853 169.262,170.704 C 169.722,170.584 170.222,170.464 170.762,170.353 C 179.403,168.503 187.812,166.624 196.602,165.473 C 202.323,180.483 208.722,195.404 212.033,211.183 C 212.823,214.983 208.803,214.654 205.432,215.494 C 205.012,215.594 204.592,215.704 204.172,215.804 C 201.312,216.504 198.432,217.184 195.572,217.905 C 193.242,218.484 190.822,216.634 187.771,217.724 C 184.872,218.764 181.761,219.674 179.391,217.094 C 180.331,216.564 181.702,216.234 180.652,215.034 C 180.341,214.674 178.931,215.233 178.931,215.364 C 178.532,214.733 176.101,212.513 175.301,211.044 C 171.221,203.504 170.921,194.273 165.741,187.273 C 165.751,187.343 165.77,187.423 165.781,187.494 L 165.172,187.614 z M 192.932,212.624 C 194.552,212.094 195.562,212.444 195.342,209.983 C 194.552,210.853 193.602,211.673 192.932,212.624 z "
   id="path20"
   style="fill:#047391" />

		<path
   d="M 165.402,85.053 C 166.082,85.933 165.561,86.393 165.511,87.463 C 165.472,86.664 165.432,85.854 165.402,85.053 z "
   id="path22"
   style="fill:#ffffff" />

		<path
   d="M 165.402,109.723 C 165.402,109.873 166.032,110.873 165.511,111.903 C 164.812,111.343 165.282,110.753 165.402,109.723 z "
   id="path24"
   style="fill:#ffffff" />

		<path
   d="M 153.922,149.983 C 157.752,149.183 161.572,148.383 165.402,147.574 C 162.012,149.973 157.962,150.393 153.922,149.983 z "
   id="path26"
   style="fill:#047391" />

		<path
   d="M 183.412,227.423 C 178.512,229.053 161.252,228.603 159.182,233.603 L 158.743,233.523 C 159.113,232.574 159.352,231.303 157.823,232.063 C 156.903,232.523 156.533,230.483 156.682,229.834 C 157.162,227.733 165.382,225.294 168.102,224.134 C 175.852,220.813 176.902,228.364 183.412,227.423 z "
   id="path28"
   style="fill:#047391" />

		<path
   d="M 159.092,233.843 C 164.852,233.433 170.653,232.963 176.352,231.973 C 180.382,231.284 189.732,230.753 192.123,227.763 C 190.083,227.293 187.933,227.483 185.812,227.303 C 187.333,225.824 190.243,224.763 193.533,223.953 C 198.343,222.753 203.972,222.093 207.272,221.453 C 209.672,220.993 213.903,219.312 212.772,223.232 C 212.302,224.882 211.243,226.462 210.022,227.193 C 205.123,226.823 199.732,225.272 194.993,227.302 C 192.043,228.573 193.113,229.432 188.913,230.632 C 179.232,233.403 166.123,232.342 157.713,238.662 C 157.273,236.891 158.333,234.942 158.283,234.432 C 158.323,234.432 158.543,234.012 158.743,233.522 L 159.182,233.602 C 159.142,233.683 159.112,233.763 159.092,233.843 z "
   id="path30"
   style="fill:#047391" />

		<path
   d="M 152.092,154.694 C 154.822,159.733 156.602,165.223 158.742,170.523 C 154.872,170.324 152.802,158.343 152.092,154.694 z "
   id="path32"
   style="fill:#047391" />

		<path
   d="M 153.922,149.983 C 157.962,150.393 162.012,149.973 165.402,147.574 C 161.572,148.383 157.752,149.183 153.922,149.983 z M 158.742,170.523 C 156.601,165.223 154.822,159.733 152.092,154.694 C 152.802,158.343 154.872,170.324 158.742,170.523 z M 166.842,207.763 C 161.742,191.654 155.232,175.853 150.022,159.743 C 149.073,156.793 145.642,149.753 147.732,147.343 C 148.323,146.663 156.382,146.194 157.672,145.864 C 165.542,143.904 173.582,142.914 181.462,141.124 L 182.032,143.603 C 177.862,144.563 173.622,145.824 169.521,147.003 C 171.481,147.113 173.412,146.893 175.332,146.503 L 175.811,148.713 C 172.481,149.433 169.141,150.183 165.851,151.013 C 162.101,151.963 155.091,152.253 155.931,156.463 C 156.612,159.873 158.181,163.213 159.541,166.393 C 161.701,171.433 163.761,170.063 168.73,168.713 L 169.26,170.703 C 157.06,173.852 168.45,178.852 165.17,187.613 C 161.89,183.783 163.25,175.693 158.17,173.613 C 160.98,180.772 163.34,188.253 165.48,195.633 C 165.991,197.423 167.14,202.493 168.59,207.203 L 166.842,207.763 z "
   id="path34" />

		<path
   d="M 136.942,42.033 C 140.202,42.703 156.511,41.453 156.332,44.213 C 154.742,44.333 153.142,44.433 151.542,44.493 C 146.552,44.693 141.542,44.573 136.602,43.873 C 136.712,43.253 136.832,42.644 136.942,42.033 z "
   id="path36"
   style="fill:#047391" />

		<path
   d="M 155.872,35.383 C 157.662,42.033 149.832,39.793 146.242,39.393 C 143.212,39.053 139.802,39.943 136.752,40.203 C 136.742,40.203 136.731,40.203 136.722,40.203 C 135.943,36.393 138.922,30.953 134.882,28.383 C 137.732,27.733 140.792,28.053 143.732,28.613 C 144.802,28.823 145.852,29.063 146.873,29.303 C 152.612,30.653 153.342,30.144 155.872,35.383 z "
   id="path38"
   style="fill:#047391" />

		<path
   d="M 153.122,236.023 C 153.452,238.643 152.561,241.843 152.092,243.944 C 151.802,241.244 152.472,238.633 153.122,236.023 z "
   id="path40"
   style="fill:#047391" />

		<path
   d="M 153.122,231.433 C 152.622,232.643 153.242,233.683 151.512,233.043 C 151.522,232.053 151.852,230.913 152.092,229.943 C 153.222,230.124 152.922,230.694 153.122,231.433 z "
   id="path42"
   style="fill:#047391" />

		<path
   d="M 150.481,232.813 C 149.591,234.523 148.011,235.263 146.122,234.654 C 146.782,232.454 148.562,231.194 150.481,232.813 z "
   id="path44"
   style="fill:#047391" />

		<path
   d="M 149.912,235.914 C 151.141,242.864 146.632,245.554 141.092,246.744 C 138.863,247.214 136.462,247.444 134.193,247.614 C 134.222,246.954 134.293,246.334 134.392,245.754 C 135.742,237.923 143.082,237.824 149.912,235.914 z "
   id="path46"
   style="fill:#047391" />

		<path
   d="M 165.512,111.903 C 166.033,110.873 165.403,109.873 165.403,109.723 C 165.282,110.753 164.812,111.343 165.512,111.903 z M 165.512,87.463 C 165.562,86.393 166.082,85.933 165.403,85.053 C 165.432,85.854 165.472,86.664 165.512,87.463 z M 156.332,44.213 C 156.512,41.453 140.202,42.703 136.942,42.033 L 136.752,40.203 C 139.802,39.943 143.212,39.053 146.242,39.393 C 149.832,39.793 157.662,42.033 155.872,35.383 C 153.342,30.143 152.612,30.653 146.872,29.303 C 145.851,29.063 144.802,28.823 143.731,28.613 L 144.301,25.823 C 145.771,26.123 147.251,26.423 148.721,26.723 C 154.652,27.923 156.341,27.093 158.631,32.053 C 162.161,39.723 163.721,49.443 165.761,57.623 C 170.471,76.423 177.902,94.983 183.811,113.483 C 190.072,133.113 196.952,152.503 203.841,171.923 C 207.581,182.444 211.381,192.944 214.942,203.533 C 218.032,212.693 219.962,217.673 214.381,226.043 C 213.271,227.703 212.331,228.643 211.291,229.243 L 210.02,227.193 C 211.241,226.463 212.3,224.882 212.77,223.232 C 213.901,219.312 209.67,220.993 207.27,221.453 C 203.97,222.093 198.34,222.753 193.531,223.953 L 193.151,222.193 C 199.921,220.842 206.72,218.333 213.121,217.443 C 212.031,216.022 208.35,216.522 204.56,217.422 L 204.17,215.802 C 204.59,215.702 205.01,215.592 205.43,215.492 C 208.8,214.652 212.821,214.981 212.031,211.181 C 208.72,195.402 202.321,180.481 196.6,165.471 C 187.81,166.621 179.401,168.501 170.76,170.351 C 170.22,170.461 169.72,170.581 169.26,170.702 L 168.73,168.712 C 168.92,168.662 169.111,168.612 169.3,168.562 C 178.27,166.252 187.22,163.743 196.37,162.262 C 195.25,157.672 193.07,152.492 191.43,147.792 C 190.17,144.212 183.39,147.112 180.08,147.802 C 178.66,148.102 177.24,148.403 175.809,148.712 L 175.33,146.502 C 180.08,145.512 184.71,143.402 189.37,142.302 C 186.99,142.573 184.519,143.032 182.03,143.602 L 181.46,141.123 L 181.46,141.113 C 183.62,140.633 185.76,140.083 187.88,139.432 C 181.74,121.382 173.941,103.912 168.49,85.622 C 167.889,93.212 166.59,101.182 167.429,108.802 C 168.15,115.172 169.229,122.622 166.429,128.642 C 164.969,127.252 164.7,125.202 164.82,123.252 C 164.309,126.292 166.45,129.132 165.049,132.092 C 159.629,107.292 161.32,81.902 158.279,56.832 C 157.968,54.242 157.569,48.652 155.069,47.422 C 154.319,47.062 152.989,47.022 151.619,47.082 L 151.539,44.492 C 153.142,44.434 154.742,44.333 156.332,44.213 z "
   id="path48" />

		<path
   d="M 147.842,73.693 C 148.242,76.813 148.653,79.923 148.653,83.073 C 148.653,85.523 149.392,87.853 149.453,89.183 C 149.562,91.733 149.713,94.133 147.503,95.843 C 143.213,82.223 146.563,67.723 142.913,54.083 L 144.583,53.303 C 146.992,58.473 147.552,71.414 147.842,73.693 z "
   id="path50" />

		<path
   d="M 137.172,235.454 C 138.082,234.983 137.932,234.174 139.242,234.764 C 138.712,234.973 137.662,235.204 137.172,235.454 z "
   id="path52"
   style="fill:#ffffff" />

		<path
   d="M 136.492,58.783 C 136.952,60.093 136.851,61.563 136.262,62.913 C 135.422,61.403 135.392,59.923 136.492,58.783 z "
   id="path54" />

		<path
   d="M 136.262,62.914 C 136.852,61.564 136.952,60.094 136.492,58.784 C 135.392,59.923 135.422,61.403 136.262,62.914 z M 137.632,52.593 C 138.642,51.123 138.992,49.333 139.122,47.543 C 138.932,49.873 138.742,52.203 138.552,54.543 C 138.382,54.153 138.242,53.563 138.092,53.163 C 136.322,55.183 138.842,57.773 138.613,60.333 C 138.243,64.403 136.333,69.273 140.392,72.203 C 142.372,69.163 141.413,65.403 141.422,61.993 C 141.762,63.813 141.862,65.633 142.682,67.273 C 143.653,62.923 143.653,58.463 142.912,54.083 C 146.561,67.723 143.212,82.223 147.502,95.843 C 149.712,94.133 149.562,91.733 149.452,89.183 C 149.391,87.853 148.652,85.523 148.652,83.073 C 148.652,79.923 148.242,76.813 147.841,73.693 C 147.551,71.413 146.991,58.473 144.581,53.303 C 143.671,51.353 142.491,50.513 140.961,51.783 C 140.311,46.713 144.041,47.313 147.791,47.313 C 148.681,47.313 150.171,47.143 151.621,47.083 C 152.991,47.023 154.321,47.063 155.071,47.423 C 157.571,48.653 157.97,54.243 158.281,56.833 C 161.321,81.903 159.631,107.293 165.051,132.093 C 166.451,129.133 164.311,126.293 164.822,123.253 C 164.702,125.203 164.971,127.253 166.431,128.643 C 169.231,122.623 168.152,115.173 167.431,108.803 C 166.591,101.183 167.891,93.213 168.492,85.623 C 173.942,103.913 181.742,121.383 187.882,139.433 C 185.762,140.083 183.622,140.633 181.462,141.114 L 181.462,141.124 C 173.582,142.914 165.542,143.904 157.672,145.864 C 156.382,146.194 148.322,146.664 147.732,147.343 C 145.642,149.753 149.073,156.793 150.022,159.743 C 155.232,175.852 161.743,191.653 166.842,207.763 C 167.212,208.923 167.572,210.083 167.922,211.243 C 168.902,214.482 170.042,218.173 168.152,220.312 C 166.881,221.743 162.212,223.033 160.351,223.403 C 155.702,224.333 155.581,224.802 153.921,219.503 C 152.801,215.893 151.551,212.333 150.311,208.773 C 149.862,207.483 149.412,206.183 148.971,204.893 C 142.271,185.253 135.881,165.343 129.961,145.444 C 126.501,133.823 123.301,122.133 119.971,110.473 C 118.402,104.963 116.891,99.443 115.251,93.953 C 113.921,89.483 110.121,83.373 111.821,78.863 C 117.081,81.053 121.6,83.813 126.501,86.663 C 133.461,90.703 134.251,88.333 133.561,80.503 C 132.601,69.663 135.261,58.483 135.801,47.653 C 137.662,49.023 136.092,50.783 137.632,52.593 z "
   id="path56"
   style="fill:#047391" />

		<path
   d="M 133.622,240.614 C 133.342,242.154 133.262,243.924 132.811,245.454 C 132.471,246.634 131.912,247.664 130.862,248.304 C 130.692,247.964 130.412,246.844 130.561,246.054 C 130.662,245.564 130.912,245.204 131.442,245.204 C 133.322,245.204 132.872,241.933 133.622,240.614 z "
   id="path58"
   style="fill:#047391" />

		<path
   d="M 129.432,173.733 C 129.443,173.664 129.432,173.574 129.392,173.483 L 132.163,172.584 C 137.193,188.194 142.093,203.834 146.703,219.504 C 148.653,226.144 150.043,228.204 143.312,226.274 C 139.882,225.295 137.542,234.344 136.232,229.195 C 134.422,222.104 132.182,215.155 129.852,208.224 C 126.443,198.054 122.863,187.945 120.203,177.524 C 125.062,179.463 128.302,180.543 129.432,173.733 z "
   id="path60"
   style="fill:#047391" />

		<path
   d="M 128.892,162.543 C 129.993,165.883 131.073,169.232 132.163,172.583 L 129.392,173.482 C 128.913,172.272 124.693,169.302 122.953,169.833 C 121.073,170.403 120.553,173.562 118.932,174.653 C 112.212,156.873 105.962,138.873 100.252,120.733 L 102.072,120.163 C 102.382,121.043 108.052,123.593 109.072,122.743 C 111.132,121.023 112.702,118.753 113.662,116.263 C 118.722,131.664 123.862,147.083 128.892,162.543 z "
   id="path62"
   style="fill:#047391" />

		<path
   d="M 129.262,244.404 C 129.172,244.853 129.082,245.303 128.982,245.763 C 128.663,247.114 128.222,248.444 127.422,249.563 C 127.182,248.353 127.282,247.143 127.772,246.124 C 128.102,245.454 128.592,244.864 129.262,244.404 z "
   id="path64"
   style="fill:#047391" />

		<path
   d="M 123.642,173.614 C 125.663,172.284 126.372,174.924 126.283,175.914 C 124.302,177.793 121.442,175.074 123.642,173.614 z "
   id="path66"
   style="fill:#8c8c8c" />

		<path
   d="M 127.312,76.684 C 127.732,74.764 127.892,72.804 127.892,70.824 L 129.142,70.824 C 129.142,74.424 129.142,78.014 129.142,81.614 C 120.982,71.894 110.653,62.844 100.122,55.804 C 105.152,51.113 123.062,73.184 127.312,76.684 z "
   id="path68" />

		<path
   d="M 115.082,3.684 C 115.712,3.804 116.352,3.944 116.981,4.064 C 116.692,4.043 115.662,3.813 115.082,3.684 z "
   id="path70"
   style="fill:#ffffff" />

		<path
   d="M 114.832,3.633 C 114.912,3.643 115.002,3.663 115.082,3.683 C 114.981,3.664 114.902,3.644 114.832,3.633 z "
   id="path72"
   style="fill:#ffffff" />

		<path
   d="M 110.332,92.164 C 117.872,116.394 125.242,140.674 133.162,164.784 C 137.132,176.874 141.262,188.904 145.432,200.924 C 146.323,203.474 147.453,206.364 148.512,209.394 C 150.382,214.705 152.042,220.415 151.863,225.354 C 149.213,223.174 148.392,215.995 147.272,212.734 C 145.073,206.304 142.422,200.014 140.272,193.575 C 136.793,183.125 133.132,172.745 129.732,162.274 C 128.592,158.785 127.493,155.285 126.432,151.764 C 122.432,138.514 119.703,124.694 115.033,111.674 C 110.613,99.304 105.642,87.324 103.563,74.274 C 106.882,79.644 108.562,86.704 110.332,92.164 z "
   id="path74"
   style="fill:#047391" />

		<path
   d="M 106.662,117.293 C 106.902,114.063 110.061,116.903 109.992,118.663 C 108.622,120.253 106.472,119.843 106.662,117.293 z "
   id="path76"
   style="fill:#8c8c8c" />

		<path
   d="M 104.942,237.173 C 105.471,235.413 106.011,233.653 106.542,231.893 C 106.192,233.803 106.092,236.124 104.942,237.173 z "
   id="path78"
   style="fill:#047391" />

		<path
   d="M 106.542,3.263 C 105.652,3.413 104.762,3.553 103.872,3.693 C 104.762,3.483 105.662,3.323 106.542,3.263 z "
   id="path80"
   style="fill:#ffffff" />

		<path
   d="M 100.252,120.733 C 98.762,115.993 97.302,111.253 95.892,106.493 C 94.132,100.583 92.372,94.663 90.712,88.723 C 89.682,85.023 86.982,80.143 88.762,76.333 C 90.422,72.793 96.972,71.433 100.582,73.123 C 103.442,87.383 109.282,100.843 112.622,114.993 C 110.692,113.693 107.762,111.553 105.632,113.333 C 103.872,114.793 101.252,117.813 102.072,120.163 L 100.252,120.733 z "
   id="path82"
   style="fill:#047391" />

		<path
   d="M 100.122,55.803 C 110.652,62.843 120.981,71.893 129.142,81.613 C 129.142,78.013 129.142,74.423 129.142,70.823 C 129.153,56.093 129.283,41.383 130.182,26.663 C 133.022,39.653 129.982,54.633 130.443,67.903 C 130.552,71.263 130.583,74.643 130.812,78.003 C 131.092,82.013 132.403,85.713 127.913,82.223 C 121.883,77.533 116.723,71.863 111.133,66.703 C 108.643,64.393 105.673,60.923 102.643,59.353 C 101.583,58.803 100.163,61.123 98.973,59.703 C 96.333,56.533 103.053,48.613 104.483,45.933 C 107.933,39.453 110.183,32.293 113.074,25.543 C 114.473,22.273 116.074,19.103 117.803,15.993 C 120.303,11.503 119.583,10.363 118.133,5.323 C 121.273,12.183 127.633,19.133 127.654,27.003 C 127.013,35.743 126.504,44.333 126.504,53.043 C 126.504,58.823 127.894,64.923 127.894,70.823 C 127.894,72.803 127.734,74.763 127.314,76.683 C 123.062,73.184 105.152,51.113 100.122,55.803 z "
   id="path84"
   style="fill:#047391" />

		<path
   d="M 52.742,13.813 C 69.572,9.283 86.652,6.523 103.832,3.703 C 101.152,4.353 98.492,5.543 96.332,6.583 C 98.662,6.663 105.372,9.443 104.932,12.173 C 103.502,20.953 98.062,23.743 90.322,24.953 C 89.522,25.073 88.692,25.183 87.842,25.283 C 84.192,25.703 80.532,25.843 76.892,26.433 C 75.032,26.733 73.452,27.233 71.672,27.843 C 70.242,28.333 70.962,26.473 69.952,26.203 C 63.672,24.513 58.282,18.513 52.742,13.813 z "
   id="path86"
   style="fill:#023f4f" />

		<path
   d="M 98.512,64.523 C 100.042,65.133 101.632,66.503 102.072,67.503 C 100.962,68.333 99.292,68.963 98.052,69.453 C 98.212,67.813 98.362,66.164 98.512,64.523 z "
   id="path88"
   style="fill:#047391" />

		<path
   d="M 96.562,240.733 C 97.482,239.694 99.092,239.103 100.692,239.124 C 99.342,239.694 97.942,240.244 96.562,240.733 z "
   id="path90"
   style="fill:#047391" />

		<path
   d="M 90.372,31.763 C 97.732,31.403 98.282,37.363 100.122,43.523 C 97.752,44.643 92.252,46.653 87.392,47.593 C 84.272,48.193 81.412,48.353 79.812,47.543 C 76.382,45.813 75.542,38.053 73.852,34.923 C 77.652,34.103 81.342,33.053 85.132,32.383 C 86.852,32.083 88.592,31.854 90.372,31.763 z "
   id="path92"
   style="fill:#022d38" />

		<path
   d="M 98.402,47.193 C 97.782,51.333 94.192,54.063 93.702,58.323 C 90.212,57.283 87.252,55.033 84.462,52.693 C 83.592,51.973 82.732,51.233 81.882,50.523 C 83.792,49.833 85.722,49.363 87.662,48.993 C 91.212,48.313 94.812,47.954 98.402,47.193 z "
   id="path94"
   style="fill:#023f4f" />

		<path
   d="M 94.612,63.833 C 94.812,64.073 95.982,65.883 95.992,65.893 C 94.282,68.963 90.302,66.283 94.612,63.833 z "
   id="path96"
   style="fill:#8c8c8c" />

		<path
   d="M 90.662,27.083 C 93.322,26.663 96.012,26.343 98.742,26.143 C 103.522,25.793 105.323,25.693 104.592,30.793 C 104.232,33.363 102.432,36.543 101.842,38.703 C 100.492,35.833 99.142,32.953 97.792,30.073 C 96.152,26.573 94.572,28.313 91.062,28.953 C 89.062,29.323 86.922,29.783 84.752,30.163 C 81.342,30.763 77.852,31.133 74.652,30.563 C 80.002,29.153 85.282,27.923 90.662,27.083 z "
   id="path98"
   style="fill:#023f4f" />

		<path
   d="M 82.452,244.513 C 85.472,241.673 90.082,242.483 93.812,241.534 C 90.082,242.833 86.432,244.233 82.452,244.513 z "
   id="path100"
   style="fill:#047391" />

		<path
   d="M 104.702,147.253 C 100.372,133.493 96.122,119.713 91.752,105.963 C 89.972,100.333 88.522,94.503 86.582,88.953 C 85.812,86.723 84.222,84.543 84.862,82.183 C 96.352,115.113 105.872,149.482 118.362,181.653 C 119.622,184.963 124.462,197.253 128.322,208.732 C 131.942,219.522 134.702,229.613 132.811,230.863 C 130.152,223.543 127.551,216.213 125.001,208.863 C 117.902,188.444 111.192,167.893 104.702,147.253 z "
   id="path102"
   style="fill:#047391" />

		<path
   d="M 107.002,229.253 C 103.902,219.153 99.632,209.343 96.232,199.303 C 94.442,194.043 92.892,188.713 91.862,183.253 C 96.852,198.624 103.162,213.914 107.002,229.253 z "
   id="path104"
   style="fill:#047391" />

		<path
   d="M 86.012,166.733 C 87.502,171.254 88.992,175.763 90.482,180.273 C 87.252,176.553 87.092,171.324 86.012,166.733 z "
   id="path106"
   style="fill:#047391" />

		<path
   d="M 51.712,172.704 C 58.742,170.654 65.722,170.103 72.932,168.804 C 75.152,168.405 81.252,166.115 83.262,167.534 C 84.702,168.563 87.582,179.773 87.502,181.654 C 79.772,184.053 71.602,184.183 63.842,186.444 C 59.422,187.733 55.472,188.593 52.852,183.834 C 51.802,184.954 52.992,192.264 49.762,186.354 C 45.272,195.945 41.692,180.224 40.812,175.684 C 44.462,175.003 48.152,173.733 51.712,172.704 z M 61.462,178.893 C 61.272,170.813 47.442,175.473 51.552,180.784 C 51.252,180.103 56.682,181.414 56.532,181.424 C 58.492,181.313 60.432,180.563 61.462,178.893 z "
   id="path108"
   style="fill:#023f4f" />

		<path
   d="M 72.592,31.593 C 70.322,31.273 67.942,31.883 65.932,32.973 C 66.622,34.183 67.522,35.603 68.462,36.643 C 69.702,35.843 68.892,36.103 70.522,35.723 C 70.962,34.613 70.692,33.853 70.182,32.973 C 71.012,32.583 71.792,32.053 72.592,31.593 z M 52.742,13.813 C 58.282,18.513 63.672,24.513 69.952,26.203 C 70.962,26.473 70.242,28.333 71.672,27.843 C 73.452,27.233 75.032,26.733 76.892,26.433 C 80.532,25.843 84.192,25.703 87.842,25.283 C 88.692,25.183 89.522,25.073 90.322,24.953 L 90.662,27.083 C 85.282,27.923 80.002,29.153 74.652,30.563 C 77.852,31.133 81.342,30.763 84.752,30.163 L 85.132,32.383 C 81.342,33.053 77.652,34.103 73.852,34.923 C 75.542,38.053 76.382,45.813 79.812,47.543 C 81.412,48.353 84.272,48.193 87.392,47.593 L 87.662,48.993 C 85.722,49.363 83.792,49.833 81.882,50.523 C 82.732,51.233 83.592,51.973 84.462,52.693 L 83.262,54.123 C 78.502,50.153 70.432,45.223 68.342,43.523 C 62.132,38.483 55.942,33.383 50.102,27.923 C 45.922,25.843 40.802,22.053 41.272,16.793 C 39.952,18.693 41.432,23.933 40.122,24.713 C 38.832,25.493 37.642,29.363 37.072,32.883 L 34.122,32.463 C 34.382,30.493 34.532,28.263 34.892,25.693 C 35.242,23.203 34.952,15.773 37.022,13.703 C 40.132,10.593 49.032,9.833 53.312,8.763 C 59.602,7.193 65.892,5.823 72.262,4.623 C 83.432,2.523 95.002,0.853 106.432,0.373 L 106.542,3.263 C 105.662,3.323 104.762,3.483 103.872,3.693 C 103.851,3.703 103.842,3.703 103.832,3.703 C 86.652,6.523 69.572,9.283 52.742,13.813 z M 46.912,18.033 C 46.742,18.473 46.622,19.083 46.542,19.893 C 46.712,19.263 46.862,18.624 46.912,18.033 z M 46.912,18.023 C 47.932,15.283 50.302,18.983 50.332,19.203 C 50.562,17.803 50.682,15.873 50.792,14.273 C 49.032,14.733 47.272,15.193 45.512,15.653 C 46.732,15.914 47.012,16.874 46.912,18.023 z M 59.052,24.023 C 61.132,26.593 64.442,32.363 67.192,28.723 C 64.542,27.863 61.752,25.553 59.052,24.023 z "
   id="path110" />

		<path
   d="M 75.112,246.353 C 76.872,245.063 78.952,243.423 80.392,244.864 C 79.082,246.263 77.172,246.293 75.112,246.353 z "
   id="path112"
   style="fill:#047391" />

		<path
   d="M 81.192,163.983 C 74.632,166.553 67.312,167.574 60.312,167.883 C 67.162,165.914 74.312,165.694 81.192,163.983 z "
   id="path114"
   style="fill:#047391" />

		<path
   d="M 74.422,229.713 C 72.982,229.843 72.722,228.113 72.472,226.163 C 72.752,227.704 73.482,228.523 74.422,229.713 z "
   id="path116" />

		<path
   d="M 106.662,117.293 C 106.472,119.843 108.622,120.253 109.992,118.663 C 110.062,116.903 106.902,114.063 106.662,117.293 z M 116.981,4.063 C 116.351,3.943 115.711,3.803 115.082,3.683 C 115.002,3.663 114.912,3.643 114.832,3.633 C 114.902,3.643 114.981,3.663 115.082,3.683 C 115.662,3.813 116.692,4.043 116.981,4.063 z M 127.652,27.003 C 127.631,19.133 121.271,12.183 118.131,5.323 C 119.581,10.363 120.301,11.503 117.801,15.993 C 116.072,19.103 114.471,22.273 113.072,25.543 C 110.181,32.293 107.931,39.453 104.481,45.933 C 103.051,48.613 96.332,56.533 98.971,59.703 C 100.161,61.123 101.581,58.803 102.641,59.353 C 105.671,60.923 108.641,64.393 111.131,66.703 C 116.721,71.863 121.881,77.533 127.911,82.223 C 132.401,85.713 131.091,82.013 130.81,78.003 C 130.581,74.643 130.55,71.263 130.441,67.903 C 129.98,54.633 133.02,39.653 130.18,26.663 C 129.281,41.383 129.151,56.093 129.14,70.823 L 127.89,70.823 C 127.89,64.923 126.5,58.823 126.5,53.043 C 126.502,44.333 127.012,35.743 127.652,27.003 z M 126.282,175.914 C 126.372,174.924 125.662,172.284 123.641,173.614 C 121.442,175.074 124.302,177.793 126.282,175.914 z M 95.992,65.894 C 95.982,65.884 94.812,64.074 94.612,63.834 C 90.302,66.283 94.282,68.963 95.992,65.894 z M 98.512,64.523 C 98.362,66.163 98.212,67.813 98.052,69.453 C 99.292,68.963 100.962,68.333 102.072,67.503 C 101.632,66.503 100.042,65.133 98.512,64.523 z M 86.812,58.323 C 86.692,57.303 85.272,55.803 83.262,54.123 L 84.462,52.693 C 87.252,55.033 90.212,57.283 93.702,58.323 C 94.192,54.063 97.782,51.333 98.402,47.193 C 94.812,47.953 91.212,48.313 87.662,48.993 L 87.392,47.593 C 92.252,46.653 97.752,44.643 100.122,43.523 C 98.282,37.363 97.732,31.403 90.372,31.763 C 88.592,31.853 86.852,32.083 85.132,32.383 L 84.752,30.163 C 86.922,29.783 89.062,29.323 91.062,28.953 C 94.572,28.313 96.152,26.573 97.792,30.073 C 99.142,32.953 100.492,35.833 101.842,38.703 C 102.432,36.543 104.232,33.363 104.592,30.793 C 105.322,25.693 103.522,25.793 98.742,26.143 C 96.012,26.343 93.322,26.663 90.662,27.083 L 90.322,24.953 C 98.062,23.743 103.502,20.953 104.932,12.173 C 105.372,9.443 98.662,6.663 96.332,6.583 C 98.492,5.543 101.152,4.353 103.832,3.703 C 103.842,3.703 103.852,3.703 103.872,3.693 C 104.762,3.553 105.652,3.413 106.542,3.263 L 106.432,0.373 C 107.882,0.313 109.323,0.273 110.772,0.253 C 118.193,0.143 120.972,2.173 124.312,8.843 C 126.812,13.853 128.863,19.173 132.592,23.453 C 136.492,24.243 140.392,25.033 144.302,25.823 L 143.732,28.613 C 140.793,28.053 137.732,27.733 134.882,28.383 C 138.922,30.953 135.943,36.393 136.722,40.203 C 136.732,40.203 136.743,40.203 136.752,40.203 L 136.942,42.033 C 136.832,42.643 136.712,43.253 136.601,43.873 C 141.541,44.573 146.551,44.693 151.541,44.493 L 151.621,47.083 C 150.171,47.143 148.681,47.313 147.791,47.313 C 144.041,47.313 140.311,46.713 140.961,51.783 C 142.491,50.513 143.671,51.353 144.581,53.303 L 142.911,54.083 C 143.651,58.463 143.651,62.923 142.681,67.273 C 141.862,65.633 141.761,63.813 141.421,61.993 C 141.411,65.403 142.371,69.163 140.391,72.203 C 136.331,69.273 138.242,64.403 138.612,60.333 C 138.841,57.773 136.322,55.183 138.091,53.163 C 138.241,53.563 138.381,54.153 138.551,54.543 C 138.741,52.203 138.931,49.873 139.121,47.543 C 138.991,49.333 138.641,51.123 137.631,52.593 C 136.091,50.783 137.661,49.023 135.801,47.653 C 135.261,58.483 132.601,69.663 133.561,80.503 C 134.251,88.333 133.461,90.703 126.501,86.663 C 121.601,83.813 117.081,81.053 111.821,78.863 C 110.121,83.373 113.921,89.483 115.251,93.953 C 116.891,99.443 118.401,104.963 119.971,110.473 C 123.301,122.133 126.501,133.823 129.961,145.444 C 135.881,165.343 142.271,185.254 148.971,204.893 C 149.411,206.183 149.862,207.483 150.311,208.773 L 148.511,209.393 C 147.451,206.364 146.322,203.473 145.431,200.923 C 141.261,188.903 137.131,176.873 133.161,164.783 C 125.241,140.673 117.871,116.393 110.331,92.163 C 108.56,86.703 106.881,79.643 103.561,74.273 C 105.641,87.323 110.611,99.303 115.031,111.673 C 119.701,124.693 122.43,138.513 126.43,151.763 C 127.491,155.284 128.59,158.784 129.73,162.273 L 128.89,162.544 C 123.861,147.084 118.72,131.664 113.661,116.264 C 112.701,118.754 111.131,121.024 109.071,122.744 C 108.05,123.594 102.381,121.044 102.071,120.164 C 101.251,117.814 103.871,114.794 105.631,113.334 C 107.761,111.554 110.692,113.694 112.621,114.994 C 109.281,100.844 103.441,87.384 100.581,73.124 C 96.971,71.434 90.421,72.794 88.761,76.334 C 86.981,80.144 89.681,85.024 90.711,88.724 C 92.371,94.664 94.131,100.584 95.891,106.494 C 97.301,111.254 98.761,115.994 100.251,120.734 C 105.961,138.874 112.211,156.874 118.931,174.654 C 120.551,173.563 121.072,170.404 122.952,169.834 C 124.692,169.304 128.912,172.273 129.391,173.483 C 129.431,173.574 129.442,173.664 129.431,173.733 C 128.301,180.544 125.061,179.463 120.202,177.523 C 122.862,187.944 126.442,198.053 129.851,208.223 L 128.322,208.733 C 124.462,197.254 119.622,184.963 118.362,181.654 C 105.872,149.483 96.352,115.113 84.862,82.184 C 84.222,84.544 85.812,86.724 86.582,88.954 C 88.522,94.504 89.972,100.334 91.752,105.964 C 96.122,119.714 100.372,133.494 104.702,147.254 C 111.192,167.894 117.902,188.444 125.002,208.864 L 122.812,209.624 C 119.712,200.804 115.863,192.124 112.512,183.714 C 105.842,166.964 99.912,150.084 94.532,132.884 C 89.772,117.654 86.792,101.984 81.532,86.894 C 77.562,92.134 73.582,97.364 69.602,102.604 C 68.012,100.414 66.822,97.974 65.432,95.654 L 68.072,94.914 C 68.912,96.564 69.542,96.594 71.782,93.774 C 73.822,91.224 75.322,87.874 76.722,84.944 C 80.742,76.474 84.382,67.454 90.712,60.394 C 86.972,58.964 78.252,76.584 72.682,86.574 L 72.462,86.454 C 73.912,83.804 75.422,79.964 75.812,79.094 C 77.422,75.464 78.862,71.764 80.572,68.194 C 81.422,66.443 86.992,59.743 86.812,58.323 z "
   id="path118" />

		<path
   d="M 62.612,224.893 C 63.392,226.103 64.372,227.284 65.022,228.574 C 64.102,223.634 60.572,218.803 59.392,213.654 C 58.992,214.744 58.812,216.164 58.712,217.324 C 59.392,217.324 60.332,224.114 60.882,226.733 C 61.322,225.763 61.982,225.704 62.612,224.893 z M 56.872,196.444 C 61.142,192.063 51.862,191.133 61.892,188.624 C 70.812,186.394 80.162,185.624 89.222,184.054 C 91.022,189.325 92.832,194.584 94.642,199.844 C 97.562,208.354 100.482,216.844 103.392,225.354 C 104.422,228.375 103.132,230.695 101.842,232.924 C 99.942,236.234 100.412,237.195 96.102,238.434 C 92.932,239.354 89.552,239.174 86.352,240.155 C 87.142,235.314 92.532,237.285 94.732,234.535 C 97.272,231.354 92.042,231.474 89.702,232.675 C 84.932,235.135 78.432,237.196 74.312,240.615 C 73.152,241.575 73.772,243.014 71.902,243.945 C 75.402,240.075 69.472,243.335 67.652,243.945 C 66.012,244.495 65.232,243.184 65.022,243.255 C 63.292,243.825 63.262,245.515 61.112,245.895 C 61.532,238.395 58.442,231.715 55.592,224.985 C 52.802,218.376 51.442,211.366 49.072,204.595 C 48.752,203.685 43.352,189.285 48.272,191.175 C 51.332,192.355 49.182,199.665 54.232,201.035 C 54.842,198.905 50.052,191.854 52.172,190.595 C 54.382,189.284 56.322,195.364 56.872,196.444 z M 58.022,197.483 C 58.812,199.483 58.822,201.754 60.772,202.983 C 59.852,201.154 58.942,199.313 58.022,197.483 z M 72.472,226.164 C 72.722,228.114 72.982,229.844 74.422,229.714 C 73.482,228.523 72.752,227.704 72.472,226.164 z M 66.622,215.494 C 66.542,214.893 65.942,212.704 65.592,211.594 C 64.712,213.543 65.462,214.263 66.622,215.494 z "
   id="path120"
   style="fill:#047391" />

		<path
   d="M 146.122,234.654 C 148.012,235.263 149.592,234.523 150.481,232.813 C 148.562,231.194 146.782,232.454 146.122,234.654 z M 151.512,233.043 C 153.242,233.683 152.622,232.643 153.122,231.433 C 152.922,230.694 153.222,230.123 152.092,229.944 C 151.852,230.914 151.521,232.053 151.512,233.043 z M 152.092,243.944 C 152.562,241.843 153.452,238.643 153.122,236.023 C 152.472,238.633 151.802,241.244 152.092,243.944 z M 106.542,231.893 C 106.012,233.654 105.472,235.414 104.942,237.173 C 106.092,236.124 106.192,233.803 106.542,231.893 z M 93.812,241.534 C 90.082,242.483 85.472,241.674 82.452,244.513 C 86.432,244.233 90.082,242.833 93.812,241.534 z M 100.692,239.124 C 99.092,239.103 97.482,239.694 96.562,240.733 C 97.942,240.244 99.342,239.694 100.692,239.124 z M 71.902,243.944 C 73.772,243.013 73.152,241.574 74.312,240.614 C 78.432,237.194 84.932,235.134 89.702,232.674 C 92.042,231.474 97.272,231.354 94.732,234.534 C 92.532,237.284 87.142,235.313 86.352,240.154 C 89.552,239.174 92.932,239.353 96.102,238.433 C 100.412,237.194 99.942,236.233 101.842,232.923 C 103.132,230.694 104.422,228.373 103.392,225.353 C 100.482,216.843 97.562,208.353 94.642,199.843 L 96.232,199.303 C 99.632,209.343 103.902,219.154 107.002,229.253 C 103.162,213.913 96.852,198.623 91.862,183.253 L 94.002,182.543 C 94.632,184.433 95.292,186.313 95.992,188.183 C 100.412,200.083 105.992,211.583 109.122,223.923 C 111.101,231.694 111.912,224.493 115.382,226.393 C 118.262,227.963 113.112,230.123 111.482,229.603 C 110.943,232.433 110.413,235.263 109.873,238.093 C 113.183,237.643 117.272,235.813 121.343,234.654 C 125.723,233.393 128.533,232.834 127.713,227.883 C 126.693,221.753 124.933,215.654 122.813,209.623 L 125.003,208.863 C 127.553,216.213 130.153,223.543 132.813,230.863 C 134.704,229.613 131.944,219.522 128.324,208.732 L 129.853,208.222 C 132.183,215.153 134.423,222.102 136.233,229.193 C 137.544,234.342 139.883,225.293 143.313,226.272 C 150.043,228.203 148.654,226.142 146.704,219.502 C 142.094,203.832 137.194,188.192 132.164,172.582 C 131.074,169.231 129.994,165.882 128.893,162.542 L 129.733,162.271 C 133.133,172.742 136.794,183.122 140.273,193.572 C 142.423,200.011 145.074,206.301 147.273,212.731 C 148.393,215.992 149.213,223.171 151.864,225.351 C 152.044,220.412 150.384,214.702 148.513,209.391 L 150.313,208.771 C 151.553,212.332 152.803,215.891 153.923,219.501 C 155.583,224.801 155.703,224.331 160.353,223.401 C 162.213,223.031 166.883,221.741 168.154,220.31 C 170.044,218.17 168.904,214.48 167.924,211.241 C 167.574,210.081 167.214,208.921 166.844,207.761 L 168.594,207.201 C 170.044,211.901 171.794,216.251 173.544,216.581 C 176.714,217.171 171.854,207.931 171.254,206.541 C 168.604,200.421 167.044,194.011 165.784,187.491 C 165.773,187.421 165.754,187.341 165.744,187.27 C 170.924,194.27 171.223,203.5 175.304,211.041 C 176.104,212.511 178.534,214.73 178.934,215.361 C 178.934,215.23 180.344,214.671 180.655,215.031 C 181.705,216.23 180.335,216.56 179.394,217.091 C 181.764,219.671 184.874,218.761 187.774,217.721 C 190.825,216.631 193.245,218.481 195.575,217.902 C 198.434,217.181 201.314,216.502 204.175,215.801 L 204.565,217.421 C 201.105,218.261 197.555,219.431 195.866,219.781 C 189.706,221.06 183.496,221.68 177.216,221.801 C 182.366,223.601 187.756,223.261 193.156,222.192 L 193.536,223.952 C 190.246,224.762 187.336,225.822 185.815,227.302 C 187.935,227.482 190.086,227.292 192.126,227.762 C 189.735,230.752 180.386,231.283 176.355,231.972 C 170.656,232.962 164.855,233.432 159.095,233.842 C 159.116,233.762 159.145,233.682 159.185,233.602 C 161.255,228.602 178.515,229.052 183.415,227.422 C 176.905,228.362 175.854,220.812 168.104,224.132 C 165.384,225.292 157.165,227.732 156.684,229.832 C 156.535,230.481 156.905,232.521 157.825,232.061 C 159.354,231.301 159.115,232.572 158.745,233.521 C 158.545,234.011 158.325,234.431 158.285,234.431 C 158.335,234.942 157.274,236.891 157.715,238.661 C 166.125,232.341 179.235,233.401 188.915,230.631 C 193.115,229.431 192.045,228.571 194.995,227.301 C 199.734,225.271 205.125,226.822 210.024,227.192 L 211.295,229.242 C 209.765,230.122 207.995,230.282 205.115,230.922 C 200.564,231.932 195.995,232.762 191.445,233.732 C 182.865,235.562 174.304,237.472 165.745,239.352 C 160.854,240.422 159.625,242.832 155.425,244.842 C 151.345,246.792 146.895,247.412 142.455,248.072 C 142.104,248.122 141.765,248.181 141.415,248.252 L 141.095,246.742 C 146.635,245.552 151.145,242.862 149.915,235.912 C 143.085,237.822 135.745,237.922 134.394,245.752 L 132.814,245.452 C 133.264,243.922 133.344,242.152 133.625,240.612 C 132.875,241.931 133.325,245.202 131.445,245.202 C 130.915,245.202 130.665,245.561 130.564,246.052 L 128.984,245.762 C 129.085,245.302 129.174,244.852 129.264,244.403 C 128.594,244.863 128.104,245.453 127.774,246.123 L 126.285,245.663 C 126.684,244.562 126.625,242.943 126.505,241.993 C 123.865,241.533 118.755,245.642 118.595,242.913 C 111.395,242.663 103.845,248.993 97.835,247.383 C 98.055,247.694 98.285,247.993 98.515,248.303 C 93.255,246.933 85.775,248.313 81.195,250.944 C 84.355,252.744 77.665,253.483 75.805,254.154 C 72.235,255.424 68.835,257.154 65.205,258.103 C 63.995,258.414 62.755,258.643 61.465,258.744 C 66.455,255.334 72.595,254.334 77.525,250.824 C 72.155,253.844 65.775,253.504 59.975,252.084 C 60.505,251.414 63.065,248.254 61.635,247.844 C 61.435,247.784 61.255,247.764 61.105,247.764 L 61.115,245.894 C 63.265,245.514 63.295,243.825 65.025,243.254 C 65.235,243.184 66.015,244.494 67.655,243.944 C 69.472,243.333 75.402,240.074 71.902,243.944 z M 72.702,245.433 C 70.202,245.983 67.692,246.543 65.192,247.093 C 67.952,246.603 71.282,248.833 72.702,245.433 z M 80.392,244.864 C 78.952,243.424 76.872,245.063 75.112,246.353 C 77.172,246.293 79.082,246.263 80.392,244.864 z M 139.242,234.763 C 137.931,234.173 138.082,234.983 137.172,235.453 C 137.662,235.204 138.712,234.973 139.242,234.763 z "
   id="path122" />

		<path
   d="M 65.192,247.093 C 67.692,246.543 70.202,245.983 72.702,245.433 C 71.282,248.833 67.952,246.603 65.192,247.093 z "
   id="path124"
   style="fill:#047391" />

		<path
   d="M 65.932,32.973 C 67.942,31.883 70.322,31.273 72.592,31.593 C 71.792,32.053 71.012,32.583 70.182,32.973 C 70.692,33.853 70.962,34.613 70.522,35.723 C 68.892,36.103 69.702,35.843 68.462,36.643 C 67.522,35.604 66.622,34.184 65.932,32.973 z "
   id="path126"
   style="fill:#023f4f" />

		<path
   d="M 78.092,255.994 C 73.792,257.034 69.662,258.183 65.532,259.313 L 65.202,258.103 C 68.832,257.154 72.232,255.423 75.802,254.154 C 77.662,253.483 84.352,252.744 81.192,250.944 C 85.772,248.313 93.252,246.933 98.512,248.303 C 98.282,247.993 98.052,247.694 97.832,247.383 C 103.842,248.993 111.392,242.663 118.592,242.913 C 118.752,245.642 123.863,241.533 126.502,241.993 C 126.622,242.943 126.682,244.562 126.282,245.663 C 121.721,246.352 117.181,247.043 112.622,247.723 C 113.311,247.203 114.052,246.654 114.802,246.233 C 114.573,245.933 114.342,245.624 114.122,245.324 C 102.652,251.324 90.522,252.983 78.092,255.994 z "
   id="path128"
   style="fill:#047391" />

		<path
   d="M 65.592,211.593 C 65.942,212.703 66.542,214.893 66.622,215.493 C 65.462,214.263 64.712,213.543 65.592,211.593 z "
   id="path130" />

		<path
   d="M 67.192,28.723 C 64.442,32.363 61.132,26.593 59.052,24.023 C 61.752,25.553 64.542,27.863 67.192,28.723 z "
   id="path132"
   style="fill:#023f4f" />

		<path
   d="M 63.412,70.023 C 64.202,71.383 64.702,72.893 64.672,74.273 C 64.312,72.843 63.832,71.443 63.412,70.023 z "
   id="path134" />

		<path
   d="M 65.022,228.574 C 64.372,227.284 63.392,226.103 62.612,224.893 C 61.982,225.704 61.322,225.763 60.882,226.733 C 60.332,224.114 59.392,217.324 58.712,217.324 C 58.812,216.164 58.992,214.744 59.392,213.654 C 60.572,218.803 64.102,223.633 65.022,228.574 z "
   id="path136" />

		<path
   d="M 57.672,113.164 C 59.052,115.534 60.432,117.904 61.802,120.274 C 61.092,117.903 60.312,114.523 57.672,113.164 z M 56.642,110.983 C 58.112,107.063 45.842,91.703 40.692,94.003 C 41.472,96.443 52.042,104.653 48.732,105.133 C 49.142,105.943 49.392,106.303 49.642,107.083 C 49.782,106.623 50.242,105.323 50.102,104.553 C 52.532,106.463 53.362,110.434 56.642,110.983 z M 45.092,73.104 C 48.152,79.514 52.312,85.414 56.412,91.194 C 58.562,94.224 65.292,106.974 68.342,106.854 C 65.092,101.304 61.842,95.764 58.592,90.214 C 59.932,92.204 61.272,94.194 62.612,96.184 C 63.512,94.764 63.272,93.374 62.612,91.714 C 63.702,92.924 64.602,94.264 65.432,95.654 C 66.822,97.974 68.012,100.414 69.602,102.604 C 73.582,97.364 77.562,92.134 81.532,86.894 C 86.792,101.984 89.772,117.654 94.532,132.884 C 99.912,150.084 105.842,166.964 112.512,183.714 C 115.863,192.124 119.712,200.804 122.812,209.624 C 124.932,215.654 126.693,221.754 127.712,227.884 C 128.532,232.834 125.722,233.394 121.342,234.655 C 117.272,235.814 113.182,237.644 109.872,238.094 C 110.412,235.264 110.942,232.434 111.481,229.604 C 113.112,230.125 118.261,227.964 115.381,226.394 C 111.911,224.495 111.101,231.695 109.121,223.924 C 105.991,211.584 100.411,200.084 95.991,188.184 C 95.291,186.314 94.631,184.434 94.001,182.544 C 92.641,178.474 91.431,174.344 90.351,170.184 C 89.831,168.144 90.121,162.955 88.881,161.684 C 87.611,160.394 81.301,160.575 79.611,160.705 C 73.911,161.175 68.371,162.215 62.761,163.305 C 57.861,164.255 48.721,163.055 44.821,165.585 C 44.041,158.005 38.891,151.405 39.781,143.564 C 38.761,143.705 37.681,144.264 36.911,144.934 C 38.221,147.205 40.161,152.445 39.551,155.205 C 38.921,158.045 41.961,163.085 41.961,166.394 C 41.271,166.695 39.511,167.155 38.511,167.535 C 34.741,150.305 29.981,133.385 24.951,116.474 C 22.311,107.594 19.691,98.714 17.161,89.794 C 15.831,85.104 16.091,81.054 13.741,76.914 C 19.171,75.044 26.771,69.564 33.041,67.574 C 38.881,65.734 43.551,66.894 44.251,76.794 C 42.831,78.784 43.851,83.484 46.541,82.304 C 47.601,84.084 51.981,90.214 55.111,95.484 C 57.361,99.264 58.971,102.594 58.261,103.544 C 55.671,106.994 66.421,118.364 68.981,121.954 C 73.841,128.744 78.761,135.454 83.991,141.964 C 86.681,145.314 95.111,157.594 99.201,157.214 C 85.191,136.064 69.061,116.524 56.241,94.824 C 52.122,87.854 48.342,80.653 45.092,73.104 z M 32.322,72.553 C 32.402,74.783 33.022,77.113 35.422,77.593 C 34.382,75.914 33.352,74.233 32.322,72.553 z M 34.962,80.233 C 36.602,82.643 38.252,85.053 39.892,87.463 C 39.002,85.283 37.092,82.204 34.962,80.233 z M 39.892,139.893 C 39.912,138.414 39.172,136.763 38.062,135.533 C 38.672,136.983 39.282,138.433 39.892,139.893 z "
   id="path138"
   style="fill:#047391" />

		<path
   d="M 59.972,252.083 C 65.772,253.503 72.152,253.843 77.522,250.823 C 72.592,254.333 66.452,255.333 61.462,258.743 C 62.752,258.642 63.992,258.413 65.202,258.102 L 65.532,259.312 C 61.582,260.403 57.632,261.472 53.542,262.413 C 53.342,259.473 55.492,258.633 57.502,257.073 C 60.232,254.953 58.152,253.213 59.342,251.222 C 60.002,250.122 59.632,247.762 61.102,247.762 C 61.252,247.762 61.432,247.783 61.632,247.842 C 63.062,248.253 60.502,251.414 59.972,252.083 z "
   id="path140"
   style="fill:#047391" />

		<path
   d="M 61.802,120.273 C 60.432,117.903 59.052,115.533 57.672,113.163 C 60.312,114.523 61.092,117.903 61.802,120.273 z "
   id="path142" />

		<path
   d="M 58.022,197.483 C 58.942,199.313 59.852,201.154 60.772,202.983 C 58.822,201.753 58.812,199.483 58.022,197.483 z "
   id="path144" />

		<path
   d="M 56.242,94.823 C 69.062,116.523 85.192,136.063 99.202,157.213 C 95.112,157.593 86.682,145.313 83.992,141.963 C 78.762,135.453 73.842,128.743 68.982,121.953 C 66.422,118.363 55.672,106.993 58.262,103.543 C 58.972,102.593 57.362,99.263 55.112,95.483 L 56.242,94.823 z "
   id="path146" />

		<path
   d="M 59.052,177.173 C 59.002,180.293 54.822,179.683 55.612,177.403 C 56.272,175.503 58.582,176.673 59.052,177.173 z "
   id="path148"
   style="fill:#8c8c8c" />

		<path
   d="M 55.612,177.404 C 54.822,179.683 59.002,180.294 59.052,177.174 C 58.582,176.673 56.272,175.503 55.612,177.404 z M 61.462,178.893 C 60.432,180.563 58.492,181.313 56.532,181.423 C 56.682,181.413 51.252,180.103 51.552,180.783 C 47.442,175.473 61.272,170.813 61.462,178.893 z "
   id="path150" />

		<path
   d="M 56.312,61.293 C 56.392,61.643 56.462,61.993 56.532,62.343 C 56.452,62.003 56.372,61.653 56.312,61.293 z "
   id="path152" />

		<path
   d="M 47.582,170.523 C 49.532,168.253 52.882,168.973 55.612,168.803 C 53.122,169.843 50.072,169.824 47.582,170.523 z "
   id="path154"
   style="fill:#047391" />

		<path
   d="M 53.542,262.414 C 57.632,261.474 61.582,260.404 65.532,259.313 C 69.662,258.183 73.792,257.034 78.092,255.994 C 90.522,252.983 102.652,251.324 114.122,245.324 C 114.342,245.624 114.572,245.933 114.802,246.233 C 114.052,246.654 113.312,247.204 112.622,247.723 C 117.182,247.043 121.722,246.353 126.282,245.663 L 127.771,246.123 C 127.282,247.143 127.181,248.352 127.421,249.562 C 128.221,248.443 128.661,247.113 128.981,245.762 L 130.561,246.052 C 130.412,246.842 130.692,247.962 130.862,248.302 C 131.912,247.662 132.471,246.632 132.811,245.452 L 134.391,245.752 C 134.291,246.332 134.221,246.952 134.192,247.612 C 136.462,247.442 138.862,247.212 141.091,246.742 L 141.411,248.252 C 136.211,249.282 131.091,252.132 125.701,251.452 C 123.341,251.162 123.531,248.582 121.461,248.931 C 118.101,249.481 114.961,250.511 111.671,251.421 C 102.261,254.011 92.811,256.481 83.311,258.692 C 73.721,260.931 64.141,263.152 54.461,264.992 C 54.241,265.032 54.031,265.072 53.831,265.101 L 53.542,262.414 z "
   id="path156" />

		<path
   d="M 48.952,73.233 C 51.512,76.923 54.722,81.453 56.872,84.713 C 52.722,82.013 51.652,77.093 48.952,73.233 z "
   id="path158"
   style="fill:#047391" />

		<path
   d="M 53.432,49.033 C 53.102,49.003 52.782,48.903 52.502,48.753 C 52.572,48.613 52.652,48.483 52.742,48.343 C 52.972,48.573 53.202,48.803 53.432,49.033 z "
   id="path160" />

		<path
   d="M 51.482,66.813 C 46.082,58.953 38.892,51.703 35.992,42.613 C 47.492,59.093 59.172,75.493 68.802,92.743 C 69.682,91.803 71.052,89.523 72.682,86.573 C 78.252,76.583 86.972,58.963 90.712,60.393 C 84.382,67.453 80.742,76.473 76.722,84.943 C 75.322,87.873 73.822,91.223 71.782,93.773 C 69.542,96.593 68.912,96.563 68.072,94.913 C 67.592,93.993 67.052,92.563 66.112,90.843 C 61.612,82.583 56.802,74.563 51.482,66.813 z "
   id="path162"
   style="fill:#047391" />

		<path
   d="M 52.112,51.533 C 52.422,52.363 52.742,53.203 53.082,54.083 C 52.622,53.263 52.252,52.403 52.112,51.533 z "
   id="path164" />

		<path
   d="M 45.512,15.653 C 47.272,15.193 49.032,14.733 50.792,14.273 C 50.682,15.873 50.562,17.803 50.332,19.203 C 50.302,18.983 47.932,15.283 46.912,18.023 C 47.012,16.874 46.732,15.914 45.512,15.653 z "
   id="path166"
   style="fill:#023f4f" />

		<path
   d="M 50.102,104.553 C 50.242,105.323 49.782,106.623 49.642,107.083 C 49.392,106.303 49.142,105.943 48.732,105.133 C 52.042,104.653 41.472,96.443 40.692,94.003 C 45.842,91.703 58.112,107.063 56.642,110.983 C 53.362,110.434 52.532,106.463 50.102,104.553 z "
   id="path168" />

		<path
   d="M 48.502,36.644 C 48.962,37.634 49.412,38.634 49.872,39.624 C 49.372,38.653 48.942,37.624 48.502,36.644 z "
   id="path170"
   style="fill:#ffffff" />

		<path
   d="M 46.912,18.033 C 46.862,18.623 46.712,19.263 46.542,19.893 C 46.622,19.083 46.742,18.473 46.912,18.033 z "
   id="path172"
   style="fill:#ffffff" />

		<path
   d="M 64.672,74.273 C 64.702,72.893 64.202,71.383 63.412,70.023 C 63.832,71.443 64.312,72.843 64.672,74.273 z M 52.112,51.533 C 51.942,50.583 52.022,49.643 52.502,48.753 C 52.782,48.903 53.102,49.003 53.432,49.033 C 53.202,48.803 52.972,48.573 52.742,48.343 C 52.652,48.483 52.572,48.613 52.502,48.753 C 51.052,48.033 50.272,46.063 51.712,44.213 C 51.822,44.483 51.942,44.753 52.052,45.013 C 52.132,44.013 52.592,43.033 52.632,42.033 C 54.112,44.983 55.272,48.573 54.002,51.783 C 53.892,51.513 53.772,51.253 53.662,50.983 C 54.522,54.423 55.582,57.823 56.312,61.293 C 56.372,61.653 56.452,62.003 56.532,62.343 C 56.462,61.993 56.392,61.643 56.312,61.293 C 56.032,59.723 55.992,58.093 57.102,56.943 C 59.182,60.893 58.192,65.583 60.312,69.453 C 59.922,68.183 59.982,62.623 60.882,60.733 C 61.422,63.213 62.172,65.733 63.182,68.073 C 62.772,64.213 53.862,38.163 52.172,38.703 C 51.132,37.023 50.102,35.343 49.072,33.663 C 48.872,34.673 48.192,35.623 48.042,36.643 C 47.922,36.153 47.582,35.753 47.462,35.153 C 47.672,36.523 46.722,36.813 46.432,37.673 C 45.132,34.233 43.832,30.793 42.532,27.353 C 43.492,31.023 43.042,33.953 43.792,37.563 C 44.392,40.433 46.092,43.053 46.772,45.933 C 46.402,43.223 44.452,40.633 46.432,38.133 C 48.872,42.923 50.352,46.903 52.112,51.533 C 52.252,52.403 52.622,53.263 53.082,54.083 C 52.742,53.204 52.422,52.363 52.112,51.533 z M 40.122,24.713 C 41.432,23.933 39.952,18.693 41.272,16.793 C 40.802,22.053 45.922,25.843 50.102,27.923 C 55.942,33.383 62.132,38.483 68.342,43.523 C 70.432,45.223 78.502,50.153 83.262,54.123 C 85.272,55.803 86.692,57.303 86.812,58.323 C 86.992,59.743 81.422,66.443 80.572,68.193 C 78.862,71.763 77.422,75.463 75.812,79.093 C 75.422,79.963 73.912,83.803 72.462,86.453 C 71.642,87.933 70.852,89.053 70.292,89.073 C 67.982,89.153 64.942,80.373 63.822,78.273 C 56.352,64.213 44.842,52.623 37.032,38.673 C 36.572,37.853 36.652,35.463 37.072,32.883 C 37.642,29.363 38.832,25.493 40.122,24.713 z "
   id="path174"
   style="fill:#047391" />

		<path
   d="M 49.872,39.624 C 49.412,38.634 48.962,37.634 48.502,36.644 C 48.942,37.624 49.372,38.653 49.872,39.624 z M 43.792,37.563 C 43.042,33.953 43.492,31.023 42.532,27.353 C 43.832,30.793 45.132,34.233 46.432,37.673 C 46.722,36.813 47.672,36.523 47.462,35.153 C 47.582,35.753 47.922,36.153 48.042,36.643 C 48.192,35.623 48.872,34.673 49.072,33.663 C 50.102,35.343 51.132,37.023 52.172,38.703 C 53.862,38.163 62.772,64.213 63.182,68.073 C 62.172,65.733 61.422,63.213 60.882,60.733 C 59.982,62.623 59.922,68.183 60.312,69.453 C 58.192,65.583 59.182,60.893 57.102,56.943 C 55.992,58.093 56.032,59.723 56.312,61.293 C 55.582,57.823 54.522,54.423 53.662,50.983 C 53.772,51.253 53.892,51.513 54.002,51.783 C 55.272,48.573 54.112,44.983 52.632,42.033 C 52.592,43.033 52.132,44.013 52.052,45.013 C 51.942,44.753 51.822,44.483 51.712,44.213 C 50.272,46.063 51.052,48.033 52.502,48.753 C 52.022,49.643 51.942,50.583 52.112,51.533 C 50.352,46.903 48.872,42.923 46.432,38.133 C 44.452,40.633 46.402,43.223 46.772,45.933 C 46.092,43.053 44.392,40.434 43.792,37.563 z "
   id="path176" />

		<path
   d="M 39.552,172.244 C 40.752,170.714 42.412,170.654 43.562,171.674 C 42.372,172.713 41.162,173.074 39.552,172.244 z "
   id="path178"
   style="fill:#047391" />

		<path
   d="M 86.012,166.733 C 87.092,171.324 87.252,176.553 90.482,180.273 C 88.992,175.763 87.502,171.253 86.012,166.733 z M 60.312,167.883 C 67.312,167.573 74.632,166.553 81.192,163.983 C 74.312,165.694 67.162,165.914 60.312,167.883 z M 39.552,172.244 C 41.162,173.074 42.372,172.714 43.562,171.674 C 42.412,170.654 40.752,170.713 39.552,172.244 z M 40.812,175.683 C 41.692,180.223 45.272,195.944 49.762,186.353 C 52.992,192.263 51.802,184.954 52.852,183.833 C 55.472,188.593 59.422,187.732 63.842,186.443 C 71.602,184.182 79.772,184.052 87.502,181.653 C 87.582,179.772 84.702,168.562 83.262,167.533 C 81.252,166.113 75.152,168.403 72.932,168.803 C 65.722,170.103 58.742,170.654 51.712,172.703 C 48.152,173.733 44.462,175.003 40.812,175.683 z M 47.582,170.523 C 50.072,169.824 53.122,169.843 55.612,168.803 C 52.882,168.973 49.532,168.253 47.582,170.523 z M 41.962,166.393 C 41.962,163.083 38.922,158.043 39.552,155.204 C 40.162,152.444 38.222,147.204 36.912,144.933 C 37.682,144.263 38.762,143.704 39.782,143.563 C 38.892,151.404 44.042,158.003 44.822,165.584 C 48.722,163.054 57.862,164.254 62.762,163.304 C 68.372,162.214 73.912,161.174 79.612,160.704 C 81.302,160.574 87.612,160.393 88.882,161.683 C 90.122,162.954 89.832,168.143 90.352,170.183 C 91.432,174.343 92.642,178.473 94.002,182.543 L 91.862,183.253 C 92.892,188.713 94.442,194.043 96.232,199.303 L 94.642,199.843 C 92.832,194.583 91.022,189.323 89.222,184.053 C 80.162,185.623 70.812,186.393 61.892,188.623 C 51.862,191.133 61.142,192.062 56.872,196.443 C 56.322,195.363 54.382,189.283 52.172,190.592 C 50.052,191.852 54.842,198.903 54.232,201.032 C 49.182,199.662 51.332,192.351 48.272,191.172 C 43.352,189.282 48.752,203.682 49.072,204.592 C 51.442,211.363 52.802,218.372 55.592,224.982 C 58.442,231.712 61.532,238.392 61.112,245.892 L 61.102,247.762 C 59.632,247.762 60.002,250.122 59.342,251.222 C 58.152,253.212 60.232,254.952 57.502,257.073 C 55.492,258.633 53.342,259.472 53.542,262.413 L 53.832,265.102 C 45.432,266.352 47.652,258.722 46.202,252.352 C 45.272,248.292 44.342,244.222 43.412,240.163 L 45.472,239.693 C 46.102,242.382 46.762,245.052 47.462,247.722 C 47.212,243.732 46.932,239.502 46.542,235.562 C 46.082,230.812 46.262,223.642 44.482,219.163 C 42.592,223.142 42.652,218.142 42.422,216.183 C 43.252,216.353 44.222,215.873 45.052,216.063 C 44.982,215.263 44.662,213.994 44.252,213.313 C 43.822,214.143 42.942,214.763 42.532,215.603 C 40.172,198.523 36.262,182.003 31.592,165.423 C 29.392,157.593 26.042,149.403 24.752,141.383 C 23.892,136.023 20.082,128.323 21.192,122.913 C 20.922,123.483 20.662,124.063 20.392,124.633 C 17.612,121.933 17.612,117.483 17.982,113.963 C 18.282,114.193 18.662,114.503 19.012,114.763 C 15.712,101.983 12.712,91.143 7.432,78.863 C 6.872,77.473 5.632,75.743 3.982,75.073 C 8.242,93.333 12.672,111.713 17.702,129.853 L 16.072,130.313 C 10.572,110.383 4.812,90.973 0.352,70.753 C -0.208,68.223 1.672,66.623 3.702,65.493 C 6.092,64.163 6.072,61.553 5.762,58.993 L 7.782,58.743 C 8.082,61.583 10.162,64.903 10.752,68.653 C 16.742,67.593 21.982,64.703 27.532,62.533 L 28.302,64.583 C 22.832,66.673 17.632,69.813 12.012,71.973 C 13.252,74.343 21.462,69.603 24.292,68.423 C 25.972,67.723 28.462,67.103 30.742,66.243 L 33.042,67.573 C 26.772,69.563 19.172,75.043 13.742,76.913 C 16.092,81.053 15.832,85.103 17.162,89.793 C 19.692,98.713 22.312,107.593 24.952,116.473 C 29.982,133.383 34.742,150.303 38.512,167.534 C 39.512,167.154 41.272,166.694 41.962,166.393 z M 7.202,70.604 C 7.502,69.564 7.792,68.914 7.202,67.964 C 5.152,69.523 5.182,70.243 7.202,70.604 z "
   id="path180" />

		<path
   d="M 38.062,135.533 C 39.172,136.763 39.912,138.413 39.892,139.893 C 39.282,138.433 38.672,136.983 38.062,135.533 z "
   id="path182" />

		<path
   d="M 39.892,87.463 C 38.252,85.053 36.602,82.643 34.962,80.233 C 37.092,82.204 39.002,85.283 39.892,87.463 z "
   id="path184" />

		<path
   d="M 32.322,72.553 C 33.352,74.233 34.382,75.913 35.422,77.593 C 33.022,77.113 32.402,74.783 32.322,72.553 z "
   id="path186" />

		<path
   d="M 35.992,62.573 C 35.112,64.273 33.022,65.383 30.742,66.243 C 28.462,67.103 25.972,67.723 24.292,68.423 C 21.462,69.603 13.252,74.343 12.012,71.973 C 17.632,69.813 22.832,66.673 28.302,64.583 C 30.782,63.633 33.322,62.903 35.992,62.573 z "
   id="path188"
   style="fill:#047391" />

		<path
   d="M 28.902,52.954 C 27.262,55.894 34.152,57.254 33.122,60.734 C 31.202,61.194 29.352,61.824 27.532,62.534 C 21.982,64.704 16.742,67.594 10.752,68.654 C 10.162,64.904 8.082,61.584 7.782,58.744 C 7.522,56.334 8.542,54.284 12.822,52.594 C 17.722,50.664 25.232,56.013 28.902,52.954 z "
   id="path190"
   style="fill:#047391" />

		<path
   d="M 29.802,51.903 C 29.542,52.333 29.232,52.673 28.902,52.953 C 29.092,52.624 29.382,52.273 29.802,51.903 z "
   id="path192"
   style="fill:#ffffff" />

		<path
   d="M 27.402,161.824 C 35.802,187.063 39.352,213.744 45.472,239.694 L 43.412,240.164 C 34.952,203.384 26.122,166.714 16.072,130.314 L 17.702,129.854 C 20.692,140.614 23.892,151.293 27.402,161.824 z "
   id="path194" />

		<path
   d="M 37.032,38.673 C 44.842,52.623 56.352,64.213 63.822,78.273 C 64.942,80.373 67.982,89.153 70.292,89.073 C 70.852,89.053 71.642,87.933 72.462,86.453 L 72.682,86.573 C 71.052,89.523 69.682,91.803 68.802,92.743 C 59.172,75.493 47.492,59.093 35.992,42.613 C 38.892,51.703 46.082,58.953 51.482,66.813 C 56.802,74.563 61.612,82.583 66.112,90.843 C 67.052,92.563 67.592,93.993 68.072,94.913 L 65.432,95.653 C 64.602,94.263 63.702,92.923 62.612,91.713 C 63.272,93.373 63.512,94.763 62.612,96.183 C 61.272,94.193 59.932,92.203 58.592,90.213 C 61.842,95.763 65.092,101.303 68.342,106.853 C 65.292,106.973 58.562,94.223 56.412,91.193 C 52.312,85.413 48.152,79.513 45.092,73.103 C 48.342,80.653 52.122,87.853 56.242,94.823 L 55.112,95.483 C 51.982,90.213 47.602,84.083 46.542,82.303 C 43.852,83.483 42.832,78.783 44.252,76.793 C 43.552,66.893 38.882,65.733 33.042,67.573 L 30.742,66.243 C 33.022,65.383 35.112,64.273 35.992,62.573 C 33.322,62.903 30.782,63.633 28.302,64.583 L 27.532,62.533 C 29.352,61.823 31.202,61.193 33.122,60.733 C 34.152,57.253 27.262,55.893 28.902,52.953 C 29.232,52.673 29.542,52.333 29.802,51.903 C 29.382,52.273 29.092,52.623 28.902,52.953 C 25.232,56.013 17.722,50.663 12.822,52.593 C 8.542,54.283 7.522,56.333 7.782,58.743 L 5.762,58.993 C 5.622,57.843 5.432,56.713 5.372,55.703 C 5.012,49.783 22.392,44.873 27.132,42.503 C 32.402,39.873 33.542,36.793 34.122,32.463 L 37.072,32.883 C 36.652,35.463 36.572,37.854 37.032,38.673 z M 56.872,84.713 C 54.722,81.453 51.512,76.923 48.952,73.233 C 51.652,77.093 52.722,82.013 56.872,84.713 z "
   id="path196" />

		<path
   d="M 45.472,239.694 C 39.352,213.744 35.802,187.063 27.402,161.824 C 23.892,151.294 20.692,140.614 17.702,129.854 C 12.672,111.714 8.242,93.334 3.982,75.074 C 5.632,75.744 6.872,77.474 7.432,78.864 C 12.712,91.144 15.712,101.984 19.012,114.764 C 18.662,114.504 18.282,114.194 17.982,113.964 C 17.612,117.484 17.612,121.934 20.392,124.634 C 20.662,124.064 20.922,123.484 21.192,122.914 C 20.082,128.324 23.892,136.024 24.752,141.384 C 26.042,149.405 29.392,157.594 31.592,165.424 C 36.262,182.004 40.172,198.524 42.532,215.604 C 42.942,214.764 43.822,214.144 44.252,213.314 C 44.662,213.995 44.982,215.264 45.052,216.064 C 44.222,215.875 43.252,216.354 42.422,216.184 C 42.652,218.144 42.592,223.144 44.482,219.164 C 46.262,223.643 46.082,230.813 46.542,235.563 C 46.932,239.503 47.212,243.733 47.462,247.723 C 46.762,245.053 46.102,242.383 45.472,239.694 z "
   id="path198"
   style="fill:#047391" />

		<path
   d="M 7.202,67.963 C 7.792,68.913 7.502,69.563 7.202,70.603 C 5.182,70.243 5.152,69.523 7.202,67.963 z "
   id="path200"
   style="fill:#047391" />

	</g>

	<g
   id="g202">
	</g>

</g>


  
<g
   id="layer1"
   style="display:inline"
   transform="matrix(0.5122066,0,0,0.5122066,-68.033864,-67.054583)"><g
     id="g19140"><path
       d="M 138,284.36218 C 126,298.36218 180,266.36218 180,266.36218 C 180,266.36218 192,258.36218 220,254.36218 C 248,250.36218 276,256.36218 276,256.36218 L 266,324.36218 L 182,390.36218 L 138,284.36218 z "
       id="path9973"
       style="fill:#573400;fill-opacity:1;fill-rule:evenodd;stroke:#000000;stroke-width:1px;stroke-linecap:butt;stroke-linejoin:miter;stroke-opacity:1" /><path
       d="M 380,510.36218 L 282,462.36218 C 282,462.36218 210,348.36218 210,326.36218 C 210,304.36218 208,288.36218 226,264.36218 C 244,240.36218 286,238.36218 286,238.36218 C 286,238.36218 306,244.36218 292,236.36218 C 278,228.36218 296,232.36218 296,232.36218 C 296,232.36218 294,226.36218 302,236.36218 C 310,246.36218 306,270.36218 310,300.36218 C 314,330.36218 320,370.36218 334,396.36218 C 348,422.36218 426,476.36218 426,476.36218 L 460,518.36218 L 380,510.36218 z "
       id="path9213"
       style="fill:#753f00;fill-opacity:1;fill-rule:evenodd;stroke:#000000;stroke-width:1px;stroke-linecap:butt;stroke-linejoin:miter;stroke-opacity:1" /><path
       d="M 93.851901,511.60588 L 96.840884,462.44622 C 96.840884,462.44622 105.80783,420.73499 110.2913,408.81749 C 110.70403,397.48154 112.94887,392.10432 112.94887,392.10432 C 112.94887,392.10432 114.85608,378.62545 117.76376,374.5547 L 118.26399,349.0468 C 119.42706,344.21129 116.26306,339.16069 119.83979,332.22211 C 119.83979,324.77367 114.77478,317.9466 114.77478,317.9466 C 114.77478,317.9466 107.30233,300.07036 111.7858,292.62192 C 116.26927,285.17349 131.21417,277.72506 143.17011,277.72506 C 155.12603,277.72506 189.49933,292.62192 216.40017,298.58067 C 243.301,304.53942 246.28999,311.98785 252.26795,323.90535 C 258.24591,335.82284 270.20184,389.45156 280.66328,399.87937 C 291.12472,410.30718 292.61921,417.75561 325.49801,450.52872 C 358.37681,483.30183 385.27765,487.77089 385.27765,487.77089 L 404.70604,496.70901 L 427.1234,484.79152 C 427.1234,484.79152 367.34376,468.40496 358.37681,450.52872 C 349.40986,432.65248 315.03657,368.59595 315.03657,368.59595 C 315.03657,368.59595 310.5531,341.78159 309.05861,322.41566 C 307.56411,303.04973 313.54208,292.62192 313.54208,292.62192 C 313.54208,292.62192 319.52005,323.90535 321.01454,338.80221 C 321.92749,364.16672 327.0676,379.3424 346.42088,407.32781 C 352.39885,410.30718 394.49472,440.81788 415.41759,461.09993 C 437.83496,473.01742 439.07933,481.81214 483.91405,502.66776 C 518.28735,511.60588 535.5584,517.81955 535.5584,517.81955 C 535.5584,517.81955 561.70889,526.20799 554.15514,559.27586 C 543.6937,580.13147 527.2543,583.11085 534.72676,583.11085 L 513.80388,593.53865 L 431.60688,618.86333 L 335.95944,615.88395 L 255.25694,578.64179 L 186.51034,559.27586 L 98.335375,545.86868 L 93.851901,511.60588 z "
       id="path6934"
       style="fill:#803a00;fill-opacity:1;fill-rule:evenodd;stroke:#000000;stroke-width:1.00000012px;stroke-linecap:butt;stroke-linejoin:miter;stroke-opacity:1" /><path
       d="M 99.442567,580.15537 L 88.974929,524.32796 L 94.208748,497.57733 C 94.208748,497.57733 125.03013,520.25722 130.84548,521.42029 C 136.66084,522.58336 173.87911,544.10017 173.87911,544.10017 C 173.87911,544.10017 208.1897,545.84478 216.3312,547.58938 C 224.4727,549.33399 247.73412,553.40474 257.62022,558.63856 C 267.50632,563.87238 303.56152,589.45994 309.95841,592.94915 C 316.3553,596.43836 355.89972,610.39522 371.01964,609.81368 C 386.13956,609.23214 447.20079,610.39522 452.43461,607.48754 C 457.66842,604.57986 457.08689,599.34604 474.53295,591.78608 C 491.97902,584.22612 515.24044,578.41076 527.45268,571.43234 C 539.66493,564.45391 553.62178,552.8232 555.94792,552.8232 C 558.27406,552.8232 560.01867,550.49706 561.18174,554.56781 C 562.34481,558.63856 562.34481,580.15537 557.69253,595.27529 C 553.04024,610.39522 516.40351,620.86285 502.44666,626.09667 C 488.48981,631.33049 411.72712,645.86888 409.98252,647.03195 C 409.87348,647.10464 407.94544,647.35906 407.13504,647.41358 C 406.32464,647.4681 406.89391,644.58035 405.7997,644.62578 C 404.70549,644.67122 396.05081,645.07205 394.52272,645.09931 C 392.99462,645.12657 393.16853,647.83156 391.49037,647.84973 C 389.81221,647.86791 371.54495,647.86791 369.71232,647.84973 C 367.87969,647.83156 369.90415,645.63748 368.14435,645.61022 C 366.38455,645.58296 360.96823,644.91252 359.32584,644.87618 C 357.68346,644.83983 358.92093,648.50303 357.44054,648.4576 C 355.96015,648.41217 344.99593,647.10464 344.26901,647.03195 C 343.54209,646.95926 340.10172,646.38795 339.12378,646.18009 C 338.14585,645.97224 338.90101,643.68951 337.82057,643.42174 C 336.74013,643.15397 329.51513,640.20324 328.27568,639.83098 C 327.03622,639.45872 326.53104,642.76698 325.23508,642.35014 C 323.93912,641.93329 310.37071,637.04703 309.00206,636.50298 C 307.63341,635.95892 310.23054,633.6159 308.88205,633.05282 C 307.53356,632.48974 300.70671,629.74707 299.39371,629.17008 C 298.08071,628.59308 298.32202,631.96995 297.05985,631.38416 C 295.79768,630.79836 287.71468,626.67821 286.69699,626.09667 C 283.20778,612.13983 282.62625,609.81368 282.62625,609.81368 C 282.62625,609.81368 243.66337,581.31844 239.59262,582.48151 C 235.52187,583.64458 222.14655,587.71533 222.14655,587.71533 L 212.26045,587.1338 L 212.26045,594.11222 L 200.62974,609.23214 C 200.62974,609.23214 200.40485,609.18898 199.98077,609.10748 C 199.55668,609.02599 198.93341,608.90616 198.13663,608.75283 C 197.33986,608.59949 196.3696,608.41265 195.25153,608.19713 C 194.13347,607.98161 192.8676,607.73741 191.47964,607.46936 C 190.09168,607.20131 188.58162,606.90941 186.97516,606.59848 C 185.36869,606.28755 183.66583,605.9576 181.89226,605.61345 C 180.11869,605.2693 178.27442,604.91095 176.38514,604.54323 C 174.49585,604.17551 176.03957,600.86386 174.08597,600.48223 C 172.13237,600.10059 164.61641,598.30148 162.6499,597.91559 C 160.68338,597.5297 163.17944,601.60028 161.2514,601.21978 C 159.32336,600.83928 155.03628,600.35521 153.19811,599.98976 C 151.35994,599.62431 149.57956,599.26881 147.88266,598.92806 C 146.18576,598.58732 144.57234,598.26134 143.0681,597.95496 C 141.56386,597.64857 143.42942,594.75328 142.16924,594.49091 C 140.90905,594.22854 135.43625,593.22977 134.47152,593.02107 C 133.50679,592.81236 133.78951,596.00221 133.17163,595.85683 C 130.7001,595.27529 127.35627,594.00319 123.73076,592.42214 C 120.10525,590.84109 121.86721,591.68793 118.26896,589.87063 C 117.3694,589.41631 118.49289,587.61033 118.00772,587.48261 C 117.52254,587.3549 114.96735,586.19441 114.63324,586.13257 C 114.29913,586.07074 113.49885,588.66431 112.90141,588.34174 C 110.51166,587.05146 99.442567,580.15537 99.442567,580.15537 z "
       id="path7694"
       style="fill:#000000;fill-opacity:1;fill-rule:evenodd;stroke:#000000;stroke-width:1px;stroke-linecap:butt;stroke-linejoin:miter;stroke-opacity:1" /><g
       id="g15332"><g
         id="g14566"
         transform="translate(-2,0)"><path
           d="M 391.95187,522.67769 C 390.48663,516.81673 425.65241,474.32475 423.45455,464.06806 C 421.25668,453.81138 339.93583,484.58143 332.60963,476.52261 C 325.28342,468.46379 334.80749,452.34614 340.66845,443.5547 C 346.52941,434.76325 361.91444,428.16967 360.4492,419.37823 C 358.98396,410.58678 353.12299,409.85416 347.99465,409.12154 C 342.86631,408.38892 277.6631,430.36753 277.6631,430.36753 C 277.6631,430.36753 242.49733,445.01994 239.56684,431.10015 C 236.63636,417.18036 251.28877,407.6563 251.28877,407.6563 C 251.28877,407.6563 313.5615,388.60817 318.68984,380.54935 C 323.81818,372.49052 326.01604,364.4317 326.01604,364.4317"
           id="path13804"
           style="fill:none;fill-opacity:0.75;fill-rule:evenodd;stroke:#000000;stroke-width:8.10000038;stroke-linecap:butt;stroke-linejoin:miter;stroke-miterlimit:4;stroke-opacity:1" /><path
           d="M 394.14973,521.94507 C 450.5615,488.24454 452.02674,486.77929 452.02674,486.77929 C 452.02674,486.77929 456.42246,475.78999 449.09626,475.78999 C 441.77005,475.78999 368.50802,502.89694 363.37968,502.16432 C 358.25134,501.4317 355.32086,502.16432 358.25134,496.30336 C 361.18182,490.4424 394.88235,441.35684 388.28877,437.69373 C 381.69519,434.03063 359.71658,430.36753 331.87701,440.62421 C 304.03743,450.8809 286.45455,471.39427 294.51337,454.544 C 302.57219,437.69373 333.34225,396.66699 333.34225,396.66699 C 333.34225,396.66699 238.83422,395.93438 235.90374,389.34079 C 232.97326,382.74721 308.43316,334.39427 307.70053,317.544"
           id="path13806"
           style="fill:none;fill-opacity:0.75;fill-rule:evenodd;stroke:#000000;stroke-width:8.69999981;stroke-linecap:butt;stroke-linejoin:miter;stroke-miterlimit:4;stroke-opacity:1" /></g><path
         d="M 321.62032,360.7686 C 320.15508,357.83812 232.97326,352.70978 232.97326,339.52261 C 232.97326,326.33544 302.57219,306.5547 302.57219,306.5547"
         id="path14570"
         style="fill:none;fill-opacity:0.75;fill-rule:evenodd;stroke:#000000;stroke-width:8.10000038;stroke-linecap:butt;stroke-linejoin:miter;stroke-miterlimit:4;stroke-opacity:1" /></g><g
       id="g13789"><path
         d="M 400.0107,521.94507 C 400.0107,527.20507 396.40264,531.46914 391.95188,531.46914 C 387.50111,531.46914 383.89305,527.20507 383.89305,521.94507 C 383.89305,516.68507 387.50111,512.421 391.95188,512.421 C 396.40264,512.421 400.0107,516.68507 400.0107,521.94507 z "
         id="path13009"
         style="fill:#b3b3b3;fill-opacity:1;fill-rule:evenodd;stroke:#505050;stroke-width:1.70000005;stroke-miterlimit:4;stroke-opacity:0.49729728" /><path
         d="M 369.97328,501.4317 C 369.97328,506.6917 366.52922,510.95577 362.28077,510.95577 C 358.03231,510.95577 354.58825,506.6917 354.58825,501.4317 C 354.58825,496.1717 358.03231,491.90763 362.28077,491.90763 C 366.52922,491.90763 369.97328,496.1717 369.97328,501.4317 z "
         id="path13011"
         style="fill:#b3b3b3;fill-opacity:1;fill-rule:evenodd;stroke:#505050;stroke-width:1.70000005;stroke-miterlimit:4;stroke-opacity:0.49729728" /><path
         d="M 336.27273,476.88892 C 336.27273,481.94661 332.50067,486.04668 327.8476,486.04668 C 323.19452,486.04668 319.42246,481.94661 319.42246,476.88892 C 319.42246,471.83123 323.19452,467.73116 327.8476,467.73116 C 332.50067,467.73116 336.27273,471.83123 336.27273,476.88892 z "
         id="path13013"
         style="fill:#b3b3b3;fill-opacity:1;fill-rule:evenodd;stroke:#505050;stroke-width:1.70000005;stroke-miterlimit:4;stroke-opacity:0.49729728" /><path
         d="M 301.83957,453.81137 C 301.83957,458.66675 298.55952,462.60282 294.51337,462.60282 C 290.46721,462.60282 287.18716,458.66675 287.18716,453.81137 C 287.18716,448.95599 290.46721,445.01992 294.51337,445.01992 C 298.55952,445.01992 301.83957,448.95599 301.83957,453.81137 z "
         id="path13015"
         style="fill:#b3b3b3;fill-opacity:1;fill-rule:evenodd;stroke:#505050;stroke-width:1.70000005;stroke-miterlimit:4;stroke-opacity:0.49729728" /><path
         d="M 249.82353,430.73383 C 249.82353,439.43305 246.05147,446.48517 241.3984,446.48517 C 236.74532,446.48517 232.97326,439.43305 232.97326,430.73383 C 232.97326,422.03461 236.74532,414.98249 241.3984,414.98249 C 246.05147,414.98249 249.82353,422.03461 249.82353,430.73383 z "
         id="path13017"
         style="fill:#b3b3b3;fill-opacity:1;fill-rule:evenodd;stroke:#505050;stroke-width:1.70000005;stroke-miterlimit:4;stroke-opacity:0.49729728" /><path
         d="M 246.16042,387.50925 C 246.16448,392.16546 242.71923,395.94242 238.46791,395.94242 C 234.21659,395.94242 230.77134,392.16546 230.7754,387.50925 C 230.77134,382.85304 234.21659,379.07608 238.46791,379.07608 C 242.71923,379.07608 246.16448,382.85304 246.16042,387.50925 z "
         id="path13019"
         style="fill:#b3b3b3;fill-opacity:1;fill-rule:evenodd;stroke:#505050;stroke-width:1.70000005;stroke-miterlimit:4;stroke-opacity:0.49729728" /><path
         d="M 241.76471,335.49319 C 241.76471,339.74165 238.48466,343.18571 234.43851,343.18571 C 230.39235,343.18571 227.1123,339.74165 227.1123,335.49319 C 227.1123,331.24473 230.39235,327.80067 234.43851,327.80067 C 238.48466,327.80067 241.76471,331.24473 241.76471,335.49319 z "
         id="path13021"
         style="fill:#b3b3b3;fill-opacity:1;fill-rule:evenodd;stroke:#505050;stroke-width:1.70000005;stroke-miterlimit:4;stroke-opacity:0.49729728" /><path
         d="M 452.75935,479.08679 C 452.76198,481.71851 450.46517,483.85323 447.63101,483.85323 C 444.79685,483.85323 442.50004,481.71851 442.50267,479.08679 C 442.50004,476.45507 444.79685,474.32035 447.63101,474.32035 C 450.46517,474.32035 452.76198,476.45507 452.75935,479.08679 z "
         id="path13023"
         style="fill:#b3b3b3;fill-opacity:1;fill-rule:evenodd;stroke:#505050;stroke-width:1.70000005;stroke-miterlimit:4;stroke-opacity:0.49729728" /><path
         d="M 419.79144,457.47449 C 419.79144,459.90218 417.98741,461.87022 415.76203,461.87022 C 413.53664,461.87022 411.73261,459.90218 411.73261,457.47449 C 411.73261,455.0468 413.53664,453.07876 415.76203,453.07876 C 417.98741,453.07876 419.79144,455.0468 419.79144,457.47449 L 419.79144,457.47449 z "
         id="path13025"
         style="fill:#b3b3b3;fill-opacity:1;fill-rule:evenodd;stroke:#505050;stroke-width:1.70000005;stroke-miterlimit:4;stroke-opacity:0.49729728" /><path
         d="M 389.754,436.59482 C 389.754,438.8202 387.78597,440.62423 385.35827,440.62423 C 382.93058,440.62423 380.96255,438.8202 380.96255,436.59482 C 380.96255,434.36944 382.93058,432.56541 385.35827,432.56541 C 387.78597,432.56541 389.754,434.36944 389.754,436.59482 z "
         id="path13027"
         style="fill:#b3b3b3;fill-opacity:1;fill-rule:evenodd;stroke:#505050;stroke-width:1.70000005;stroke-miterlimit:4;stroke-opacity:0.49729728" /><path
         d="M 360.4492,410.58679 C 360.45115,412.61124 358.81055,414.25342 356.7861,414.25342 C 354.76165,414.25342 353.12105,412.61124 353.123,410.58679 C 353.12105,408.56234 354.76165,406.92016 356.7861,406.92016 C 358.81055,406.92016 360.45115,408.56234 360.4492,410.58679 z "
         id="path13029"
         style="fill:#b3b3b3;fill-opacity:1;fill-rule:evenodd;stroke:#505050;stroke-width:1.70000005;stroke-miterlimit:4;stroke-opacity:0.49729728" /></g><path
       d="M 308.43316,305.82208 C 308.43316,305.82208 289.38503,303.62421 282.05882,305.08946 C 274.73262,306.5547 262.27807,318.27662 262.27807,324.13758 C 262.27807,329.99855 263.74332,338.05737 267.40642,340.25523 C 271.06952,342.45309 284.25668,341.72047 286.45455,335.85951 C 288.65241,329.99855 301.83957,321.93972 305.50267,315.34614 C 309.16578,308.75256 321.62032,296.29801 328.2139,291.16967 C 334.80749,286.04133 343.59893,282.37823 347.99465,288.23919 C 352.39037,294.10015 363.37968,294.83277 361.91444,305.08946 C 360.4492,315.34614 367.04278,321.2071 356.7861,320.47448 C 346.52941,319.74186 348.72727,315.34614 339.20321,311.68304 C 329.67914,308.01994 319.42246,308.01994 313.5615,306.5547 C 307.70053,305.08946 301.10695,309.48518 308.43316,305.82208 z "
       id="path15338"
       style="fill:none;fill-opacity:0.75;fill-rule:evenodd;stroke:#000000;stroke-width:8.10000038;stroke-linecap:butt;stroke-linejoin:miter;stroke-miterlimit:4;stroke-opacity:1" /><path
       d="M 318.68984,302.89159 C 317.95722,305.82208 311.36364,297.03063 311.36364,297.03063 L 320.15508,283.11085 L 334.07487,277.24988 L 339.20321,275.05202"
       id="path15340"
       style="fill:none;fill-opacity:0.75;fill-rule:evenodd;stroke:#000000;stroke-width:8.10000038;stroke-linecap:butt;stroke-linejoin:miter;stroke-miterlimit:4;stroke-opacity:1" /><path
       d="M 303.30481,307.28732 L 321.62032,323.40496 L 323.08556,341.72047"
       id="path17622"
       style="fill:none;fill-opacity:0.75;fill-rule:evenodd;stroke:#000000;stroke-width:8.10000038;stroke-linecap:butt;stroke-linejoin:miter;stroke-miterlimit:4;stroke-opacity:1" /></g></g></svg>