<?xml version="1.0" encoding="UTF-8" standalone="no"?>
<!-- Created with Inkscape (http://www.inkscape.org/) -->
<svg
   xmlns:dc="http://purl.org/dc/elements/1.1/"
   xmlns:cc="http://creativecommons.org/ns#"
   xmlns:rdf="http://www.w3.org/1999/02/22-rdf-syntax-ns#"
   xmlns:svg="http://www.w3.org/2000/svg"
   xmlns="http://www.w3.org/2000/svg"
   xmlns:sodipodi="http://sodipodi.sourceforge.net/DTD/sodipodi-0.dtd"
   xmlns:inkscape="http://www.inkscape.org/namespaces/inkscape"
   height="160.00000pt"
   id="svg1"
   inkscape:version="0.46"
   sodipodi:docbase="/home/nicu/Desktop/camel"
   sodipodi:docname="tailor.svg"
   sodipodi:version="0.32"
   width="160.00000pt"
   inkscape:output_extension="org.inkscape.output.svg.inkscape"
   inkscape:export-filename="C:\Dokumente und Einstellungen\ulfl\Eigene Dateien\osm\svn.map-icons\svg\shopping\tailor.png"
   inkscape:export-xdpi="7.471417"
   inkscape:export-ydpi="7.471417">
  <metadata
     id="metadata3">
    <rdf:RDF>
      <cc:Work
         rdf:about="">
        <dc:title>t-shirt</dc:title>
        <dc:description />
        <dc:subject>
          <rdf:Bag>
            <rdf:li />
            <rdf:li>people</rdf:li>
            <rdf:li>clothing</rdf:li>
          </rdf:Bag>
        </dc:subject>
        <dc:publisher>
          <cc:Agent
             rdf:about="http://www.openclipart.org">
            <dc:title>Nicu Buculei</dc:title>
          </cc:Agent>
        </dc:publisher>
        <dc:creator>
          <cc:Agent>
            <dc:title>Nicu Buculei</dc:title>
          </cc:Agent>
        </dc:creator>
        <dc:rights>
          <cc:Agent>
            <dc:title>Nicu Buculei</dc:title>
          </cc:Agent>
        </dc:rights>
        <dc:date />
        <dc:format>image/svg+xml</dc:format>
        <dc:type
           rdf:resource="http://purl.org/dc/dcmitype/StillImage" />
        <cc:license
           rdf:resource="http://web.resource.org/cc/PublicDomain" />
        <dc:language>en</dc:language>
      </cc:Work>
      <cc:License
         rdf:about="http://web.resource.org/cc/PublicDomain">
        <cc:permits
           rdf:resource="http://web.resource.org/cc/Reproduction" />
        <cc:permits
           rdf:resource="http://web.resource.org/cc/Distribution" />
        <cc:permits
           rdf:resource="http://web.resource.org/cc/DerivativeWorks" />
      </cc:License>
    </rdf:RDF>
  </metadata>
  <defs
     id="defs3">
    <inkscape:perspective
       sodipodi:type="inkscape:persp3d"
       inkscape:vp_x="0 : 100 : 1"
       inkscape:vp_y="0 : 1000 : 0"
       inkscape:vp_z="200 : 100 : 1"
       inkscape:persp3d-origin="100 : 66.666667 : 1"
       id="perspective27" />
    <sodipodi:namedview
       bordercolor="#666666"
       borderopacity="1.0"
       id="namedview4258"
       inkscape:cx="475.26707"
       inkscape:cy="250.37448"
       inkscape:pageopacity="0.0"
       inkscape:pageshadow="2"
       inkscape:window-height="739"
       inkscape:window-width="1012"
       inkscape:window-x="0"
       inkscape:window-y="26"
       inkscape:zoom="0.61399264"
       pagecolor="#ffffff" />
    <defs
       id="defs48974" />
    <inkscape:perspective
       id="perspective10"
       inkscape:persp3d-origin="372.04724 : 350.78739 : 1"
       inkscape:vp_z="744.09448 : 526.18109 : 1"
       inkscape:vp_y="0 : 1000 : 0"
       inkscape:vp_x="0 : 526.18109 : 1"
       sodipodi:type="inkscape:persp3d" />
  </defs>
  <sodipodi:namedview
     bordercolor="#666666"
     borderopacity="1.0"
     id="base"
     inkscape:cx="136.40832"
     inkscape:cy="105.59459"
     inkscape:pageopacity="0.0"
     inkscape:pageshadow="2"
     inkscape:window-height="964"
     inkscape:window-width="1400"
     inkscape:window-x="-4"
     inkscape:window-y="-4"
     inkscape:zoom="3.5"
     pagecolor="#ffffff"
     showgrid="false"
     inkscape:current-layer="svg1" />
  <g
     id="g2776">
    <path
       d="M 7.7954843,97.974423 C 10.290914,101.81355 36.652504,113.09481 44.368044,110.75406 C 47.284684,107.83740 47.015394,94.483303 48.743004,91.066763 C 52.966024,104.35035 43.905434,176.72080 43.638884,188.04489 C 54.889704,195.91369 138.80798,195.06855 158.53939,190.38567 C 161.57065,186.08665 151.24785,122.39154 152.28354,93.254223 C 154.27906,96.173613 155.41755,103.83339 155.92932,107.10824 C 164.06882,109.44904 193.65360,102.73332 195.84116,99.087513 C 195.91708,91.794533 175.61660,35.650683 170.51254,32.734053 C 164.77517,27.791123 130.05190,15.832923 125.11278,10.383413 C 123.97301,9.7463729 123.07258,8.1345329 122.43935,7.2134929 C 116.74041,9.8384729 88.647894,10.866243 83.420964,6.7752829 C 82.157664,8.2877229 82.291434,9.2537129 80.391344,10.126563 C 76.745544,10.126563 44.565484,25.402433 33.853244,34.039083 C 26.123564,43.208163 6.4531543,93.330193 7.7954843,97.974423 z "
       id="path2773"
       sodipodi:nodetypes="ccccccccccccccc"
       style="fill:#3c5889;fill-opacity:1.0000000;fill-rule:evenodd;stroke:none;stroke-width:3.7500000;stroke-linecap:butt;stroke-linejoin:round;stroke-miterlimit:4.0000000;stroke-opacity:1.0000000;" />
    <path
       d="M 83.031250,4.5937500 C 77.453404,12.463182 62.437934,15.158085 53.167383,21.490685 C 44.010674,27.093993 32.007139,30.442347 27.666035,41.250980 C 18.785770,59.284699 10.555505,76.491767 5.7812500,96.062500 C 8.8870275,105.39955 22.528072,106.92179 30.846025,110.68957 C 33.644061,111.42432 39.435242,113.05978 43.115415,112.20193 C 46.081301,109.55837 46.936179,104.42150 48.433036,95.540179 C 52.511675,112.83820 43.036832,161.40210 41.815119,188.58266 C 49.433004,194.91429 64.453874,192.83444 75.563400,194.10610 C 103.40547,195.01359 135.52510,193.60707 161.31250,192.62054 C 160.14849,183.30475 158.78480,171.34505 158.99167,161.52939 C 157.18945,143.68806 154.11626,126.56793 153.20982,108.65179 C 152.62917,107.44883 152.80090,100.60677 152.41175,97.205156 C 154.87974,102.37497 156.42972,108.48522 156.46272,109.61542 C 161.88585,108.66155 179.81248,106.35896 184.73660,105.34385 C 189.96351,105.04525 194.82047,104.39438 197.58117,102.27144 C 197.48472,99.791352 196.00629,95.124917 194.99096,87.509481 C 188.81038,68.759590 182.73650,49.678921 173.00000,32.437500 C 163.89311,24.664269 150.62612,23.017229 140.02736,17.587830 C 130.68899,14.948988 127.49717,10.077601 121.09821,6.2991071 C 109.31378,9.5723116 96.838625,10.888272 83.031250,4.5937500 z M 83.968750,8.4553571 C 96.028915,11.993357 109.25711,11.530142 121.46875,9.0625000 C 129.97127,18.101039 143.53859,19.761492 154.38778,25.262037 C 165.47617,28.482058 175.27096,36.554505 177.86454,48.348998 C 184.38622,64.574540 190.99574,82.742574 194.75893,99.848214 C 183.48630,104.81683 169.70940,105.64196 157.37500,105.12500 C 158.55225,98.899119 150.08766,83.656738 150.17520,97.258754 C 150.23453,127.78164 157.83218,159.72825 158.36607,190.19196 C 128.12167,192.40643 95.155068,193.39840 64.720718,191.46181 C 54.214323,190.89953 39.764047,189.41042 46.078415,174.97675 C 48.173794,148.06888 52.704211,120.73302 51.120531,93.704532 C 45.963351,80.593055 45.278069,104.08134 43.093750,108.68750 C 31.124419,108.42810 17.961136,104.33032 8.0401786,97.915179 C 12.933752,78.116692 21.953032,57.749529 31.184833,39.599591 C 37.178992,29.246689 50.018678,26.187495 59.754464,20.218750 C 67.000744,15.432631 77.575769,13.878980 83.968750,8.4553571 z "
       id="path909"
       sodipodi:nodetypes="ccccccccccccccccccccccccccccccccccccc"
       style="fill:#000000;fill-opacity:1.0000000;fill-rule:evenodd;stroke:none;stroke-width:3.7500000;stroke-linecap:butt;stroke-linejoin:round;stroke-miterlimit:4.0000000;stroke-opacity:1.0000000;" />
  </g>
  <g
     id="g3615"
     transform="matrix(0.445330,0.000000,0.000000,0.445330,77.48423,30.03762)">
    <g
       id="g1108"
       transform="matrix(0.192029,0.000000,0.000000,0.192029,10.17587,51.14223)">
      <path
         d="M 281.59307,73.122280 C 289.29251,73.122280 294.53956,67.133790 294.53956,52.590450 C 294.53956,45.290240 292.48635,33.769600 282.04933,33.769600 C 272.75298,33.769600 268.76066,43.807390 268.76066,53.331870 C 268.76066,62.856340 271.84044,73.122280 281.53605,73.122280 L 281.59307,73.122280 M 281.76417,65.479910 C 279.19769,65.479910 277.82889,60.917210 277.94297,53.217810 C 277.88593,46.430910 279.19769,41.411990 281.76417,41.411990 C 284.44471,41.411990 285.35725,46.430910 285.35725,53.046690 C 285.35725,60.917210 284.21658,65.479910 281.82120,65.479910 L 281.76417,65.479910 M 298.19499,83.616380 L 306.97807,83.616380 L 306.97807,70.612850 L 307.09214,70.612850 C 307.89060,71.810500 309.48753,73.122280 311.59776,73.122280 C 316.50258,73.122280 320.89412,68.445580 320.89412,58.635920 C 320.89412,51.506820 318.66983,44.149570 311.99697,44.149570 C 309.20236,44.149570 307.14917,45.746530 306.12258,47.742580 L 306.00852,47.742580 L 305.55225,44.605860 L 297.96687,44.605860 C 298.08093,47.571530 298.19499,50.594300 298.19499,53.559960 L 298.19499,83.616380 M 306.97807,54.757670 C 306.97807,54.073280 307.09214,53.331870 307.37731,52.818540 C 307.71950,52.020090 308.46094,51.563790 309.25939,51.563790 C 310.91335,51.563790 312.16808,53.559960 312.16808,58.692960 C 312.16808,62.571220 311.31258,65.936140 309.14533,65.936140 C 308.46094,65.936140 307.89060,65.593920 307.43434,64.852510 C 307.14917,64.339170 306.97807,63.426710 306.97807,62.457090 L 306.97807,54.757670 M 345.97435,62.286040 C 346.14545,61.430540 346.25952,60.175800 346.25952,57.780370 C 346.25952,48.370040 342.21018,44.149570 336.05062,44.149570 C 329.43482,44.149570 324.07371,49.738800 324.07371,59.320360 C 324.07371,68.160450 328.57932,73.008210 336.62094,73.008210 C 339.70074,73.008210 342.89459,72.494870 344.94776,71.753460 L 343.86413,65.479910 C 342.38128,65.936140 340.44215,66.392380 338.21787,66.392380 C 334.85293,66.392380 332.68568,64.852510 332.57161,62.286040 L 345.97435,62.286040 M 332.57161,56.183520 C 332.57161,53.788160 333.37009,50.480210 335.59436,50.480210 C 337.87569,50.480210 338.33194,53.445950 338.33194,56.183520 L 332.57161,56.183520 M 350.21529,72.666040 L 359.05540,72.666040 L 359.05540,55.841360 C 359.05540,54.700630 359.28353,53.731070 359.51167,53.217810 C 360.02497,52.134170 360.76640,51.563790 361.73594,51.563790 C 363.50398,51.563790 364.01726,53.388910 364.01726,55.328040 L 364.01726,72.666040 L 372.85737,72.666040 L 372.85737,55.042790 C 372.85737,48.997320 371.03231,44.149570 365.10089,44.149570 C 362.19221,44.149570 359.68277,45.575360 358.14288,47.799680 L 358.02881,47.799680 L 357.57255,44.605860 L 349.98715,44.605860 C 350.10123,47.457460 350.21529,50.594300 350.21529,53.559960 L 350.21529,72.666040 M 405.97214,64.738430 C 405.05960,64.966570 403.63378,65.194720 402.55015,65.194720 C 398.10159,65.194720 394.96477,61.715670 394.96477,53.674030 C 394.96477,45.119130 398.32973,41.583040 402.66422,41.583040 C 404.14707,41.583040 405.11663,41.925310 405.97214,42.324460 L 407.34092,34.910230 C 406.59949,34.453980 404.71740,33.883620 401.92278,33.883620 C 393.88115,33.883620 385.61137,39.872110 385.61137,54.073280 C 385.61137,64.054050 390.00291,73.008210 400.83916,73.008210 C 403.51972,73.008210 405.68696,72.609010 406.71357,72.152710 L 405.97214,64.738430 M 409.81027,72.666040 L 418.65037,72.666040 L 418.65037,33.199240 L 409.81027,33.199240 L 409.81027,72.666040 M 432.24025,72.666040 L 432.24025,44.605860 L 423.40015,44.605860 L 423.40015,72.666040 L 432.24025,72.666040 M 427.67761,41.697100 C 430.13004,41.697100 432.12618,39.815070 432.06917,37.134530 C 432.06917,34.282820 430.13004,32.514860 427.73466,32.514860 C 425.39630,32.514860 423.34312,34.282820 423.40015,37.134530 C 423.34312,39.815070 425.28225,41.697100 427.62059,41.697100 L 427.67761,41.697100 M 436.99003,83.616380 L 445.77311,83.616380 L 445.77311,70.612850 L 445.88716,70.612850 C 446.68563,71.810500 448.28256,73.122280 450.39276,73.122280 C 455.29760,73.122280 459.68914,68.445580 459.68914,58.635920 C 459.68914,51.506820 457.46486,44.149570 450.79201,44.149570 C 447.99739,44.149570 445.94420,45.746530 444.91761,47.742580 L 444.80355,47.742580 L 444.34729,44.605860 L 436.76190,44.605860 C 436.87596,47.571530 436.99003,50.594300 436.99003,53.559960 L 436.99003,83.616380 M 445.77311,54.757670 C 445.77311,54.073280 445.88716,53.331870 446.17233,52.818540 C 446.51455,52.020090 447.25596,51.563790 448.05442,51.563790 C 449.70839,51.563790 450.96311,53.559960 450.96311,58.692960 C 450.96311,62.571220 450.10761,65.936140 447.94036,65.936140 C 447.25596,65.936140 446.68563,65.593920 446.22936,64.852510 C 445.94420,64.339170 445.77311,63.426710 445.77311,62.457090 L 445.77311,54.757670 M 486.66038,65.080590 L 487.91511,72.666040 L 496.47006,72.666040 L 489.45500,34.225800 L 478.73280,34.225800 L 470.57709,72.666040 L 479.13203,72.666040 L 480.44380,65.080590 L 486.66038,65.080590 M 481.29929,58.293700 L 482.43995,50.993500 C 482.78215,48.940280 483.35248,44.662840 483.75169,42.267420 L 483.86577,42.267420 C 484.20797,44.662840 484.72126,48.826270 485.00643,50.993500 L 485.97600,58.293700 L 481.29929,58.293700 M 499.59261,72.666040 L 508.43271,72.666040 L 508.43271,58.978090 C 508.43271,57.723450 508.60381,56.639760 508.83195,56.069450 C 509.80150,53.331870 511.96876,52.875580 512.99535,52.875580 C 513.79381,52.875580 514.36415,52.875580 514.93447,52.989660 L 514.93447,44.320620 C 514.42117,44.206540 513.96491,44.149570 513.05239,44.149570 C 511.22733,44.149570 509.00303,45.461290 507.63426,48.598130 L 507.40613,48.598130 L 506.94985,44.605860 L 499.36447,44.605860 C 499.47855,47.457460 499.59261,50.594300 499.59261,53.559960 L 499.59261,72.666040 M 519.00965,39.586870 L 519.00965,44.605860 L 515.75877,44.605860 L 515.75877,50.765400 L 519.00965,50.765400 L 519.00965,62.742320 C 519.00965,67.361990 519.97921,69.643280 521.69021,71.183210 C 523.17305,72.494870 525.22624,73.008210 527.56459,73.008210 C 529.73184,73.008210 531.55690,72.780130 532.69755,72.494870 L 532.69755,65.593920 C 531.95613,65.708000 531.38581,65.765030 530.64437,65.765030 C 529.21855,65.765030 527.84976,65.023610 527.84976,61.943870 L 527.84976,50.765400 L 533.38196,50.765400 L 533.38196,44.605860 L 527.84976,44.605860 L 527.84976,37.020400 L 519.00965,39.586870 M 546.67598,72.666040 L 564.92651,72.666040 L 564.92651,65.194720 L 555.51609,65.194720 L 555.51609,34.225800 L 546.67598,34.225800 L 546.67598,72.666040 M 577.16186,72.666040 L 577.16186,44.605860 L 568.32178,44.605860 L 568.32178,72.666040 L 577.16186,72.666040 M 572.59924,41.697100 C 575.05165,41.697100 577.04782,39.815070 576.99078,37.134530 C 576.99078,34.282820 575.05165,32.514860 572.65627,32.514860 C 570.31791,32.514860 568.26473,34.282820 568.32178,37.134530 C 568.26473,39.815070 570.20386,41.697100 572.54220,41.697100 L 572.59924,41.697100 M 581.91165,63.711830 C 581.91165,66.677560 581.79758,69.814400 581.68352,72.666040 L 589.21186,72.666040 L 589.66813,69.529220 L 589.78221,69.529220 C 591.49319,72.494870 593.20417,73.122280 595.25736,73.122280 C 600.90361,73.122280 604.66778,67.361990 604.66778,57.666370 C 604.66778,50.822390 602.50054,44.149570 596.62616,44.149570 C 593.77451,44.149570 592.12055,45.575360 590.80879,47.286410 L 590.69471,47.286410 L 590.69471,33.199240 L 581.91165,33.199240 L 581.91165,63.711830 M 590.69471,54.757670 C 590.69471,54.301380 590.86582,53.502930 591.03693,53.103670 C 591.43616,52.191200 592.12055,51.563790 592.91902,51.563790 C 594.91517,51.563790 595.94175,53.902240 595.94175,58.407780 C 595.94175,63.540720 594.97218,65.936140 592.91902,65.936140 C 592.17758,65.936140 591.49319,65.479910 591.03693,64.396220 C 590.86582,63.997010 590.69471,63.312630 590.69471,62.571220 L 590.69471,54.757670 M 608.64585,72.666040 L 617.48594,72.666040 L 617.48594,58.978090 C 617.48594,57.723450 617.65705,56.639760 617.88519,56.069450 C 618.85475,53.331870 621.02199,52.875580 622.04858,52.875580 C 622.84705,52.875580 623.41738,52.875580 623.98772,52.989660 L 623.98772,44.320620 C 623.47441,44.206540 623.01814,44.149570 622.10562,44.149570 C 620.28057,44.149570 618.05628,45.461290 616.68748,48.598130 L 616.45936,48.598130 L 616.00309,44.605860 L 608.41771,44.605860 C 608.53178,47.457460 608.64585,50.594300 608.64585,53.559960 L 608.64585,72.666040 M 647.22596,56.525740 C 647.22596,51.107620 646.25639,44.149570 636.50377,44.149570 C 632.11223,44.149570 628.57619,45.518330 626.86520,46.430860 L 628.40509,52.305220 C 630.23014,51.221640 632.11223,50.594300 634.56465,50.594300 C 636.84598,50.594300 638.27179,51.792000 638.27179,53.331870 L 638.27179,53.845200 C 631.94114,53.902240 625.09717,56.867900 625.09717,64.396220 C 625.09717,69.415130 628.34807,73.122280 632.79662,73.122280 C 635.30607,73.122280 637.58740,72.152710 639.24135,69.985500 L 639.35542,69.985500 L 639.81168,72.666040 L 647.68224,72.666040 C 647.34003,70.726920 647.22596,68.502610 647.22596,66.221320 L 647.22596,56.525740 M 638.55695,63.940030 C 638.55695,64.396220 638.49993,64.795470 638.38585,65.080590 C 637.87255,66.335340 636.67485,66.734590 635.76235,66.734590 C 634.79278,66.734590 633.36695,65.822010 633.36695,63.426710 C 633.36695,60.461030 635.99047,59.434380 638.55695,59.377340 L 638.55695,63.940030 M 652.08892,72.666040 L 660.92901,72.666040 L 660.92901,58.978090 C 660.92901,57.723450 661.10011,56.639760 661.32824,56.069450 C 662.29781,53.331870 664.46506,52.875580 665.49164,52.875580 C 666.29011,52.875580 666.86044,52.875580 667.43078,52.989660 L 667.43078,44.320620 C 666.91747,44.206540 666.46121,44.149570 665.54869,44.149570 C 663.72363,44.149570 661.49935,45.461290 660.13055,48.598130 L 659.90242,48.598130 L 659.44616,44.605860 L 651.86078,44.605860 C 651.97484,47.457460 652.08892,50.594300 652.08892,53.559960 L 652.08892,72.666040 M 667.68474,44.605860 L 675.66936,70.612850 C 675.78344,70.955010 675.89749,71.297290 675.89749,71.639450 C 675.89749,72.038700 675.72638,72.380860 675.49826,72.780130 C 674.92794,73.920790 674.18650,74.776230 673.21695,75.517700 C 672.13332,76.316110 670.87860,77.000540 669.62386,77.342760 L 672.13332,84.985140 C 673.38805,84.700010 676.52486,83.388220 679.09134,80.479530 C 682.00003,77.171640 683.82508,72.323830 685.02276,67.818170 L 691.23934,44.605860 L 682.62739,44.605860 L 680.74530,58.692960 C 680.57419,60.061790 680.46013,61.430540 680.28903,62.799300 L 680.17496,62.799300 C 680.00387,61.373510 679.77573,60.004750 679.54760,58.578890 L 677.20926,44.605860 L 667.68474,44.605860"
         id="path5010"
         style="font-size:54.000000;font-style:normal;font-variant:normal;font-weight:800;font-stretch:condensed;fill:#000000;fill-opacity:0.20000000;stroke:none;stroke-width:1.0000000pt;stroke-linecap:butt;stroke-linejoin:miter;stroke-opacity:1.0000000;font-family:Myriad Pro Black Cond;text-anchor:start;writing-mode:lr;" />
      <path
         d="M 278.23347,69.704248 C 285.93291,69.704248 291.17996,63.715755 291.17996,49.172417 C 291.17996,41.872203 289.12675,30.351569 278.68973,30.351569 C 269.39338,30.351569 265.40106,40.389360 265.40106,49.913838 C 265.40106,59.438309 268.48084,69.704248 278.17645,69.704248 L 278.23347,69.704248 M 278.40457,62.061874 C 275.83809,62.061874 274.46929,57.499178 274.58337,49.799772 C 274.52633,43.012880 275.83809,37.993957 278.40457,37.993957 C 281.08511,37.993957 281.99765,43.012880 281.99765,49.628651 C 281.99765,57.499178 280.85698,62.061874 278.46160,62.061874 L 278.40457,62.061874 M 294.83539,80.198341 L 303.61847,80.198341 L 303.61847,67.194817 L 303.73254,67.194817 C 304.53100,68.392464 306.12793,69.704248 308.23816,69.704248 C 313.14298,69.704248 317.53452,65.027546 317.53452,55.217888 C 317.53452,48.088781 315.31023,40.731535 308.63737,40.731535 C 305.84276,40.731535 303.78957,42.328499 302.76298,44.324547 L 302.64892,44.324547 L 302.19265,41.187822 L 294.60727,41.187822 C 294.72133,44.153494 294.83539,47.176261 294.83539,50.141925 L 294.83539,80.198341 M 303.61847,51.339633 C 303.61847,50.655244 303.73254,49.913838 304.01771,49.400502 C 304.35990,48.602056 305.10134,48.145760 305.89979,48.145760 C 307.55375,48.145760 308.80848,50.141925 308.80848,55.274928 C 308.80848,59.153182 307.95298,62.518108 305.78573,62.518108 C 305.10134,62.518108 304.53100,62.175887 304.07474,61.434473 C 303.78957,60.921137 303.61847,60.008677 303.61847,59.039055 L 303.61847,51.339633 M 342.61475,58.868002 C 342.78585,58.012506 342.89992,56.757764 342.89992,54.362338 C 342.89992,44.952010 338.85058,40.731535 332.69102,40.731535 C 326.07522,40.731535 320.71411,46.320765 320.71411,55.902322 C 320.71411,64.742412 325.21972,69.590174 333.26134,69.590174 C 336.34114,69.590174 339.53499,69.076838 341.58816,68.335424 L 340.50453,62.061874 C 339.02168,62.518108 337.08255,62.974341 334.85827,62.974341 C 331.49333,62.974341 329.32608,61.434473 329.21201,58.868002 L 342.61475,58.868002 M 329.21201,52.765490 C 329.21201,50.370126 330.01049,47.062179 332.23476,47.062179 C 334.51609,47.062179 334.97234,50.027912 334.97234,52.765490 L 329.21201,52.765490 M 346.85569,69.248006 L 355.69580,69.248006 L 355.69580,52.423330 C 355.69580,51.282593 355.92393,50.313039 356.15207,49.799772 C 356.66537,48.716137 357.40680,48.145760 358.37634,48.145760 C 360.14438,48.145760 360.65766,49.970879 360.65766,51.910010 L 360.65766,69.248006 L 369.49777,69.248006 L 369.49777,51.624760 C 369.49777,45.579289 367.67271,40.731535 361.74129,40.731535 C 358.83261,40.731535 356.32317,42.157330 354.78328,44.381642 L 354.66921,44.381642 L 354.21295,41.187822 L 346.62755,41.187822 C 346.74163,44.039421 346.85569,47.176261 346.85569,50.141925 L 346.85569,69.248006 M 402.61254,61.320392 C 401.70000,61.548539 400.27418,61.776686 399.19055,61.776686 C 394.74199,61.776686 391.60517,58.297632 391.60517,50.255998 C 391.60517,41.701096 394.97013,38.165010 399.30462,38.165010 C 400.78747,38.165010 401.75703,38.507278 402.61254,38.906424 L 403.98132,31.492191 C 403.23989,31.035950 401.35780,30.465589 398.56318,30.465589 C 390.52155,30.465589 382.25177,36.454073 382.25177,50.655244 C 382.25177,60.636011 386.64331,69.590174 397.47956,69.590174 C 400.16012,69.590174 402.32736,69.190973 403.35397,68.734678 L 402.61254,61.320392 M 406.45067,69.248006 L 415.29077,69.248006 L 415.29077,29.781208 L 406.45067,29.781208 L 406.45067,69.248006 M 428.88065,69.248006 L 428.88065,41.187822 L 420.04055,41.187822 L 420.04055,69.248006 L 428.88065,69.248006 M 424.31801,38.279068 C 426.77044,38.279068 428.76658,36.397040 428.70957,33.716495 C 428.70957,30.864782 426.77044,29.096827 424.37506,29.096827 C 422.03670,29.096827 419.98352,30.864782 420.04055,33.716495 C 419.98352,36.397040 421.92265,38.279068 424.26099,38.279068 L 424.31801,38.279068 M 433.63043,80.198341 L 442.41351,80.198341 L 442.41351,67.194817 L 442.52756,67.194817 C 443.32603,68.392464 444.92296,69.704248 447.03316,69.704248 C 451.93800,69.704248 456.32954,65.027546 456.32954,55.217888 C 456.32954,48.088781 454.10526,40.731535 447.43241,40.731535 C 444.63779,40.731535 442.58460,42.328499 441.55801,44.324547 L 441.44395,44.324547 L 440.98769,41.187822 L 433.40230,41.187822 C 433.51636,44.153494 433.63043,47.176261 433.63043,50.141925 L 433.63043,80.198341 M 442.41351,51.339633 C 442.41351,50.655244 442.52756,49.913838 442.81273,49.400502 C 443.15495,48.602056 443.89636,48.145760 444.69482,48.145760 C 446.34879,48.145760 447.60351,50.141925 447.60351,55.274928 C 447.60351,59.153182 446.74801,62.518108 444.58076,62.518108 C 443.89636,62.518108 443.32603,62.175887 442.86976,61.434473 C 442.58460,60.921137 442.41351,60.008677 442.41351,59.039055 L 442.41351,51.339633 M 483.30078,61.662559 L 484.55551,69.248006 L 493.11046,69.248006 L 486.09540,30.807764 L 475.37320,30.807764 L 467.21749,69.248006 L 475.77243,69.248006 L 477.08420,61.662559 L 483.30078,61.662559 M 477.93969,54.875667 L 479.08035,47.575461 C 479.42255,45.522249 479.99288,41.244802 480.39209,38.849384 L 480.50617,38.849384 C 480.84837,41.244802 481.36166,45.408236 481.64683,47.575461 L 482.61640,54.875667 L 477.93969,54.875667 M 496.23301,69.248006 L 505.07311,69.248006 L 505.07311,55.560055 C 505.07311,54.305412 505.24421,53.221723 505.47235,52.651416 C 506.44190,49.913838 508.60916,49.457544 509.63575,49.457544 C 510.43421,49.457544 511.00455,49.457544 511.57487,49.571625 L 511.57487,40.902588 C 511.06157,40.788507 510.60531,40.731535 509.69279,40.731535 C 507.86773,40.731535 505.64343,42.043256 504.27466,45.180096 L 504.04653,45.180096 L 503.59025,41.187822 L 496.00487,41.187822 C 496.11895,44.039421 496.23301,47.176261 496.23301,50.141925 L 496.23301,69.248006 M 515.65005,36.168839 L 515.65005,41.187822 L 512.39917,41.187822 L 512.39917,47.347367 L 515.65005,47.347367 L 515.65005,59.324289 C 515.65005,63.943957 516.61961,66.225248 518.33061,67.765178 C 519.81345,69.076838 521.86664,69.590174 524.20499,69.590174 C 526.37224,69.590174 528.19730,69.362095 529.33795,69.076838 L 529.33795,62.175887 C 528.59653,62.289969 528.02621,62.346994 527.28477,62.346994 C 525.85895,62.346994 524.49016,61.605579 524.49016,58.525834 L 524.49016,47.347367 L 530.02236,47.347367 L 530.02236,41.187822 L 524.49016,41.187822 L 524.49016,33.602368 L 515.65005,36.168839 M 543.31638,69.248006 L 561.56691,69.248006 L 561.56691,61.776686 L 552.15649,61.776686 L 552.15649,30.807764 L 543.31638,30.807764 L 543.31638,69.248006 M 573.80226,69.248006 L 573.80226,41.187822 L 564.96218,41.187822 L 564.96218,69.248006 L 573.80226,69.248006 M 569.23964,38.279068 C 571.69205,38.279068 573.68822,36.397040 573.63118,33.716495 C 573.63118,30.864782 571.69205,29.096827 569.29667,29.096827 C 566.95831,29.096827 564.90513,30.864782 564.96218,33.716495 C 564.90513,36.397040 566.84426,38.279068 569.18260,38.279068 L 569.23964,38.279068 M 578.55205,60.293797 C 578.55205,63.259522 578.43798,66.396362 578.32392,69.248006 L 585.85226,69.248006 L 586.30853,66.111181 L 586.42261,66.111181 C 588.13359,69.076838 589.84457,69.704248 591.89776,69.704248 C 597.54401,69.704248 601.30818,63.943957 601.30818,54.248333 C 601.30818,47.404354 599.14094,40.731535 593.26656,40.731535 C 590.41491,40.731535 588.76095,42.157330 587.44919,43.868375 L 587.33511,43.868375 L 587.33511,29.781208 L 578.55205,29.781208 L 578.55205,60.293797 M 587.33511,51.339633 C 587.33511,50.883346 587.50622,50.084899 587.67733,49.685637 C 588.07656,48.773162 588.76095,48.145760 589.55942,48.145760 C 591.55557,48.145760 592.58215,50.484207 592.58215,54.989748 C 592.58215,60.122690 591.61258,62.518108 589.55942,62.518108 C 588.81798,62.518108 588.13359,62.061874 587.67733,60.978185 C 587.50622,60.578977 587.33511,59.894597 587.33511,59.153182 L 587.33511,51.339633 M 605.28625,69.248006 L 614.12634,69.248006 L 614.12634,55.560055 C 614.12634,54.305412 614.29745,53.221723 614.52559,52.651416 C 615.49515,49.913838 617.66239,49.457544 618.68898,49.457544 C 619.48745,49.457544 620.05778,49.457544 620.62812,49.571625 L 620.62812,40.902588 C 620.11481,40.788507 619.65854,40.731535 618.74602,40.731535 C 616.92097,40.731535 614.69668,42.043256 613.32788,45.180096 L 613.09976,45.180096 L 612.64349,41.187822 L 605.05811,41.187822 C 605.17218,44.039421 605.28625,47.176261 605.28625,50.141925 L 605.28625,69.248006 M 643.86636,53.107703 C 643.86636,47.689589 642.89679,40.731535 633.14417,40.731535 C 628.75263,40.731535 625.21659,42.100298 623.50560,43.012826 L 625.04549,48.887183 C 626.87054,47.803609 628.75263,47.176261 631.20505,47.176261 C 633.48638,47.176261 634.91219,48.373961 634.91219,49.913838 L 634.91219,50.427166 C 628.58154,50.484207 621.73757,53.449863 621.73757,60.978185 C 621.73757,65.997100 624.98847,69.704248 629.43702,69.704248 C 631.94647,69.704248 634.22780,68.734678 635.88175,66.567469 L 635.99582,66.567469 L 636.45208,69.248006 L 644.32264,69.248006 C 643.98043,67.308883 643.86636,65.084579 643.86636,62.803281 L 643.86636,53.107703 M 635.19735,60.521998 C 635.19735,60.978185 635.14033,61.377432 635.02625,61.662559 C 634.51295,62.917301 633.31525,63.316555 632.40275,63.316555 C 631.43318,63.316555 630.00735,62.403980 630.00735,60.008677 C 630.00735,57.042998 632.63087,56.016342 635.19735,55.959309 L 635.19735,60.521998 M 648.72932,69.248006 L 657.56941,69.248006 L 657.56941,55.560055 C 657.56941,54.305412 657.74051,53.221723 657.96864,52.651416 C 658.93821,49.913838 661.10546,49.457544 662.13204,49.457544 C 662.93051,49.457544 663.50084,49.457544 664.07118,49.571625 L 664.07118,40.902588 C 663.55787,40.788507 663.10161,40.731535 662.18909,40.731535 C 660.36403,40.731535 658.13975,42.043256 656.77095,45.180096 L 656.54282,45.180096 L 656.08656,41.187822 L 648.50118,41.187822 C 648.61524,44.039421 648.72932,47.176261 648.72932,50.141925 L 648.72932,69.248006 M 664.32514,41.187822 L 672.30976,67.194817 C 672.42384,67.536976 672.53789,67.879251 672.53789,68.221411 C 672.53789,68.620666 672.36678,68.962825 672.13866,69.362095 C 671.56834,70.502756 670.82690,71.358198 669.85735,72.099665 C 668.77372,72.898074 667.51900,73.582509 666.26426,73.924723 L 668.77372,81.567103 C 670.02845,81.281976 673.16526,79.970186 675.73174,77.061494 C 678.64043,73.753608 680.46548,68.905792 681.66316,64.400136 L 687.87974,41.187822 L 679.26779,41.187822 L 677.38570,55.274928 C 677.21459,56.643751 677.10053,58.012506 676.92943,59.381269 L 676.81536,59.381269 C 676.64427,57.955474 676.41613,56.586711 676.18800,55.160854 L 673.84966,41.187822 L 664.32514,41.187822"
         id="path48984"
         style="font-size:54.000000;font-style:normal;font-variant:normal;font-weight:800;font-stretch:condensed;fill:#ffffff;fill-opacity:1.0000000;stroke:none;stroke-width:1.0000000pt;stroke-linecap:butt;stroke-linejoin:miter;stroke-opacity:1.0000000;font-family:Myriad Pro Black Cond;text-anchor:start;writing-mode:lr;" />
    </g>
    <g
       id="g1092"
       transform="matrix(5.915837e-2,0.000000,0.000000,5.915837e-2,85.92543,66.21956)">
      <path
         d="M 296.77515,91.480067 C 292.39395,91.203657 288.27505,93.294297 285.80645,96.823867 L 176.33769,96.823867 C 169.39928,96.823867 163.80645,102.38537 163.80645,109.32387 L 163.80645,132.57387 L 48.712696,173.57387 C 42.176676,175.90237 38.790386,183.03777 41.118946,189.57387 L 116.77520,401.94887 C 119.10376,408.48477 126.23919,411.87117 132.77520,409.54257 L 297.46265,350.88627 L 451.58765,392.51127 C 458.28595,394.32087 465.12185,390.39707 466.93145,383.69887 L 525.74395,166.04257 C 527.55355,159.34427 523.59845,152.50837 516.90015,150.69887 L 414.30645,122.98007 L 414.30645,109.32387 C 414.30645,102.38537 408.71365,96.823767 401.77515,96.823867 L 317.43145,96.823867 L 299.27515,91.917567 C 298.43795,91.691367 297.60705,91.532547 296.77515,91.480067 z "
         id="path910"
         style="fill-opacity:0.20161290;fill-rule:evenodd;stroke-width:1.0000000pt;" />
      <path
         d="M 289.13776,11.141406 C 282.19933,11.141406 276.61353,16.727213 276.61353,23.665638 L 276.61353,249.10181 C 276.61353,256.04023 282.19933,261.62604 289.13776,261.62604 L 514.57393,261.62604 C 521.51235,261.62604 527.09816,256.04023 527.09816,249.10181 L 527.09816,23.665638 C 527.09816,16.727213 521.51235,11.141406 514.57393,11.141406 L 289.13776,11.141406 z "
         id="rect911"
         style="fill:#ffffff;fill-rule:evenodd;stroke:#000000;stroke-width:1.0000000pt;"
         transform="matrix(0.965391,0.260807,-0.260807,0.965391,0.000000,0.000000)" />
      <path
         d="M 310.90331,38.364491 C 305.39329,38.364491 300.95743,42.800352 300.95743,48.310369 L 300.95743,227.33617 C 300.95743,232.84619 305.39329,237.28205 310.90331,237.28205 L 489.92911,237.28205 C 495.43912,237.28205 499.87498,232.84619 499.87498,227.33617 L 499.87498,48.310369 C 499.87498,42.800352 495.43912,38.364491 489.92911,38.364491 L 310.90331,38.364491 z "
         id="rect912"
         style="fill:#f3e533;fill-opacity:1.0000000;fill-rule:evenodd;stroke-width:0.79413080pt;"
         transform="matrix(0.965391,0.260807,-0.260807,0.965391,0.000000,0.000000)" />
      <path
         d="M 153.28592,91.074089 C 146.34750,91.074089 140.76169,96.659896 140.76169,103.59832 L 140.76169,329.03449 C 140.76169,335.97292 146.34750,341.55872 153.28592,341.55872 L 378.72209,341.55872 C 385.66052,341.55872 391.24632,335.97292 391.24632,329.03449 L 391.24632,103.59832 C 391.24632,96.659896 385.66052,91.074089 378.72209,91.074089 L 153.28592,91.074089 z "
         id="rect913"
         style="fill:#ffffff;fill-rule:evenodd;stroke:#000000;stroke-width:1.0000000pt;" />
      <path
         d="M 175.05156,118.29723 C 169.54154,118.29723 165.10568,122.73310 165.10568,128.24311 L 165.10568,307.26891 C 165.10568,312.77893 169.54154,317.21479 175.05156,317.21479 L 354.07736,317.21479 C 359.58738,317.21479 364.02324,312.77893 364.02324,307.26891 L 364.02324,128.24311 C 364.02324,122.73310 359.58738,118.29723 354.07736,118.29723 L 175.05156,118.29723 z "
         id="rect914"
         style="fill:#ff7f00;fill-rule:evenodd;stroke-width:0.79413080pt;" />
      <path
         d="M -32.155801,166.71382 C -39.094218,166.71382 -44.680019,172.29962 -44.680019,179.23804 L -44.680019,404.67401 C -44.680019,411.61243 -39.094218,417.19823 -32.155801,417.19823 L 193.28017,417.19823 C 200.21858,417.19823 205.80439,411.61243 205.80439,404.67401 L 205.80439,179.23804 C 205.80439,172.29962 200.21858,166.71382 193.28017,166.71382 L -32.155801,166.71382 z "
         id="rect915"
         style="fill:#ffffff;fill-rule:evenodd;stroke:#000000;stroke-width:0.99999866pt;"
         transform="matrix(0.942003,-0.335604,0.335604,0.942003,0.000000,0.000000)" />
      <path
         d="M -10.390225,193.93687 C -15.900234,193.93687 -20.336090,198.37273 -20.336090,203.88274 L -20.336090,382.90835 C -20.336090,388.41836 -15.900234,392.85422 -10.390225,392.85422 L 168.63539,392.85422 C 174.14540,392.85422 178.58125,388.41836 178.58125,382.90835 L 178.58125,203.88274 C 178.58125,198.37273 174.14540,193.93687 168.63539,193.93687 L -10.390225,193.93687 z "
         id="rect916"
         style="fill:#bf0000;fill-rule:evenodd;stroke-width:0.79413080pt;"
         transform="matrix(0.942003,-0.335604,0.335604,0.942003,0.000000,0.000000)" />
    </g>
    <g
       id="g3612">
      <path
         d="M 137.86172,98.940798 C 137.86172,98.597796 137.81755,98.323413 137.72923,98.117602 C 137.64090,97.909520 137.52469,97.805486 137.38057,97.805486 C 137.23801,97.805486 137.12255,97.908384 137.03423,98.114179 C 136.94745,98.319974 136.90406,98.595508 136.90406,98.940798 C 136.90406,99.288375 136.94745,99.565045 137.03423,99.770840 C 137.12255,99.976651 137.23801,100.07955 137.38057,100.07955 C 137.52469,100.07955 137.64090,99.976651 137.72923,99.770840 C 137.81755,99.562758 137.86172,99.286072 137.86172,98.940798 M 138.54278,100.63519 C 138.54278,101.25030 138.44825,101.69390 138.25921,101.96601 C 138.07170,102.24041 137.76642,102.37762 137.34338,102.37762 C 137.20082,102.37762 137.05980,102.36161 136.92034,102.32960 C 136.78087,102.29987 136.63908,102.25300 136.49497,102.18897 L 136.49497,101.26630 C 136.62358,101.37150 136.75452,101.44924 136.88779,101.49954 C 137.02106,101.54985 137.15820,101.57499 137.29922,101.57499 C 137.49136,101.57499 137.63316,101.50754 137.72458,101.37264 C 137.81601,101.24000 137.86172,101.03192 137.86172,100.74839 L 137.86172,100.33336 C 137.79509,100.51628 137.70676,100.65234 137.59674,100.74153 C 137.48671,100.83070 137.35267,100.87530 137.19462,100.87530 C 136.89709,100.87530 136.66077,100.70379 136.48567,100.36079 C 136.31056,100.01781 136.22300,99.552473 136.22301,98.964807 C 136.22300,98.356555 136.31056,97.874074 136.48567,97.517364 C 136.66077,97.160653 136.89554,96.982290 137.18997,96.982290 C 137.33873,96.982290 137.47122,97.033747 137.58745,97.136629 C 137.70366,97.239542 137.79509,97.384747 137.86172,97.572244 L 137.86172,97.081749 L 138.54278,97.081749 L 138.54278,100.63519 M 135.80694,98.141611 C 135.73255,98.041001 135.64499,97.965551 135.54427,97.915230 C 135.44510,97.864940 135.33585,97.839780 135.21653,97.839780 C 135.07242,97.839780 134.94613,97.877513 134.83765,97.952963 C 134.73073,98.026141 134.64783,98.133613 134.58894,98.275379 C 134.55175,98.362281 134.52540,98.467466 134.50991,98.590934 C 134.49596,98.714417 134.48898,98.901929 134.48898,99.153455 L 134.48898,100.92331 L 133.80794,100.92331 L 133.80794,97.081749 L 134.48898,97.081749 L 134.48898,97.678564 C 134.55563,97.459061 134.65790,97.289847 134.79581,97.170938 C 134.93373,97.049743 135.09489,96.989152 135.27930,96.989152 C 135.37227,96.989152 135.46292,97.006299 135.55125,97.040593 C 135.64112,97.072616 135.72636,97.120633 135.80694,97.184662 L 135.80694,98.141611 M 131.69968,97.805486 C 131.53697,97.805486 131.40913,97.911807 131.31615,98.124464 C 131.22318,98.334834 131.17668,98.628682 131.17668,99.005963 C 131.17668,99.383259 131.22318,99.678243 131.31615,99.890900 C 131.40913,100.10127 131.53697,100.20646 131.69968,100.20646 C 131.86394,100.20646 131.99256,100.10127 132.08554,99.890900 C 132.17851,99.678243 132.22500,99.383259 132.22500,99.005963 C 132.22500,98.628682 132.17851,98.334834 132.08554,98.124464 C 131.99256,97.911807 131.86394,97.805486 131.69968,97.805486 M 130.49564,99.005963 C 130.49563,98.386290 130.60410,97.895796 130.82106,97.534511 C 131.03955,97.170938 131.33242,96.989152 131.69968,96.989152 C 132.06849,96.989152 132.36137,97.170938 132.57831,97.534511 C 132.79681,97.895796 132.90605,98.386290 132.90606,99.005963 C 132.90605,99.625651 132.79681,100.11727 132.57831,100.48084 C 132.36137,100.84214 132.06849,101.02277 131.69968,101.02279 C 131.33242,101.02277 131.03955,100.84214 130.82106,100.48084 C 130.60410,100.11727 130.49563,99.625651 130.49564,99.005963 M 128.44782,99.664519 L 129.22185,99.664519 L 129.22185,100.92331 L 128.44782,100.92331 L 128.44782,99.664519 M 126.14432,95.991032 L 126.14432,97.081749 L 127.03457,97.081749 L 127.03457,97.853504 L 126.14432,97.853504 L 126.14432,99.671381 C 126.14431,99.842882 126.17220,99.966350 126.22799,100.04182 C 126.28533,100.11499 126.37986,100.15158 126.51158,100.15158 L 127.03457,100.15158 L 127.03457,100.92331 L 126.46276,100.92331 C 126.07226,100.92331 125.80805,100.83184 125.67014,100.64892 C 125.53221,100.46371 125.46326,100.12184 125.46326,99.623363 L 125.46326,97.853504 L 124.79847,97.853504 L 124.79847,97.081749 L 125.46326,97.081749 L 125.46326,95.991032 L 126.14432,95.991032 M 124.35219,98.141611 C 124.27780,98.041001 124.19025,97.965551 124.08952,97.915230 C 123.99035,97.864940 123.88110,97.839780 123.76179,97.839780 C 123.61767,97.839780 123.49138,97.877513 123.38291,97.952963 C 123.27597,98.026141 123.19307,98.133613 123.13419,98.275379 C 123.09700,98.362281 123.07066,98.467466 123.05516,98.590934 C 123.04122,98.714417 123.03424,98.901929 123.03424,99.153455 L 123.03424,100.92331 L 122.35318,100.92331 L 122.35318,97.081749 L 123.03424,97.081749 L 123.03424,97.678564 C 123.10087,97.459061 123.20315,97.289847 123.34106,97.170938 C 123.47898,97.049743 123.64013,96.989152 123.82455,96.989152 C 123.91752,96.989152 124.00817,97.006299 124.09650,97.040593 C 124.18638,97.072616 124.27161,97.120633 124.35219,97.184662 L 124.35219,98.141611 M 120.44019,99.119145 C 120.18605,99.119161 120.00861,99.167179 119.90789,99.263214 C 119.80717,99.359250 119.75681,99.523889 119.75681,99.757132 C 119.75681,99.930905 119.79167,100.06925 119.86140,100.17215 C 119.93113,100.27504 120.02565,100.32650 120.14499,100.32650 C 120.32473,100.32650 120.46420,100.22703 120.56338,100.02809 C 120.66255,99.826871 120.71214,99.546762 120.71214,99.187749 L 120.71214,99.119145 L 120.44019,99.119145 M 121.38855,98.731564 L 121.38855,100.92331 L 120.71214,100.92331 L 120.71214,100.49456 C 120.63001,100.66378 120.52464,100.79412 120.39602,100.88558 C 120.26740,100.97704 120.12561,101.02277 119.97065,101.02279 C 119.67468,101.02277 119.44378,100.90730 119.27797,100.67636 C 119.11371,100.44541 119.03159,100.12299 119.03159,99.709099 C 119.03159,99.260927 119.12998,98.930513 119.32679,98.717856 C 119.52359,98.502911 119.82809,98.395439 120.24028,98.395424 L 120.71214,98.395424 L 120.71214,98.227362 C 120.71214,98.065025 120.67185,97.942678 120.59127,97.860351 C 120.51224,97.775767 120.39524,97.733459 120.24028,97.733444 C 120.07758,97.733459 119.91951,97.764315 119.76610,97.826056 C 119.61424,97.885511 119.45541,97.981562 119.28960,98.114179 L 119.28960,97.256689 C 119.43991,97.165228 119.59254,97.097760 119.74751,97.054317 C 119.90247,97.010874 120.06673,96.989152 120.24028,96.989152 C 120.66332,96.989152 120.96008,97.116059 121.13053,97.369872 C 121.30254,97.623700 121.38855,98.077597 121.38855,98.731564 M 116.97679,100.38138 L 116.97679,102.38448 L 116.29806,102.38448 L 116.29806,97.081749 L 116.97679,97.081749 L 116.97679,97.657994 C 117.04807,97.436188 117.14183,97.269261 117.25805,97.157215 C 117.37427,97.045183 117.51064,96.989152 117.66715,96.989152 C 117.96467,96.989152 118.19557,97.165228 118.35983,97.517364 C 118.52408,97.869515 118.60622,98.365704 118.60622,99.005963 C 118.60622,99.655370 118.52253,100.15386 118.35518,100.50142 C 118.18937,100.84900 117.95228,101.02277 117.64390,101.02279 C 117.50444,101.02277 117.37892,100.97018 117.26735,100.86499 C 117.15733,100.75752 117.06048,100.59632 116.97679,100.38138 M 117.92516,98.999101 C 117.92516,98.628682 117.88332,98.338272 117.79965,98.127887 C 117.71596,97.917533 117.60051,97.812348 117.45331,97.812333 C 117.30609,97.812348 117.18987,97.917533 117.10464,98.127887 C 117.01941,98.338272 116.97679,98.628682 116.97679,98.999101 C 116.97679,99.369535 117.01941,99.659945 117.10464,99.870314 C 117.18987,100.08068 117.30609,100.18587 117.45331,100.18587 C 117.60051,100.18587 117.71596,100.08068 117.79965,99.870314 C 117.88332,99.659945 117.92516,99.369535 117.92516,98.999101 M 113.59941,97.081749 L 114.94758,97.081749 L 114.94758,100.15158 L 115.79367,100.15158 L 115.79367,100.92331 L 113.41811,100.92331 L 113.41811,100.15158 L 114.26652,100.15158 L 114.26652,97.853504 L 113.59941,97.853504 L 113.59941,97.081749 M 114.26652,95.212431 L 114.94758,95.212431 L 114.94758,96.385475 L 114.26652,96.385475 L 114.26652,95.212431 M 111.12158,99.321517 L 111.12158,96.358043 L 110.43123,96.358043 L 110.43123,95.586304 L 111.80263,95.586304 L 111.80263,99.321517 C 111.80263,99.623363 111.83440,99.837156 111.89794,99.962927 C 111.96147,100.08868 112.06916,100.15158 112.22102,100.15158 L 112.76494,100.15158 L 112.76494,100.92331 L 112.03043,100.92331 C 111.70655,100.92331 111.47411,100.79983 111.33310,100.55288 C 111.19209,100.30593 111.12158,99.895475 111.12158,99.321517 M 109.82455,100.72780 C 109.70988,100.82613 109.58668,100.89930 109.45497,100.94732 C 109.32325,100.99763 109.18146,101.02277 109.02960,101.02279 C 108.62825,101.02277 108.31445,100.84442 108.08820,100.48770 C 107.86197,100.13099 107.74884,99.637072 107.74884,99.005963 C 107.74884,98.372566 107.86274,97.877513 108.09053,97.520787 C 108.31833,97.161789 108.63290,96.982290 109.03425,96.982290 C 109.17371,96.982290 109.30775,97.006299 109.43637,97.054317 C 109.56654,97.102350 109.69593,97.176664 109.82455,97.277275 L 109.82455,98.196491 C 109.72538,98.070736 109.61612,97.974700 109.49681,97.908384 C 109.37904,97.839780 109.25662,97.805486 109.12955,97.805486 C 108.90796,97.805486 108.73750,97.909520 108.61818,98.117602 C 108.49885,98.325700 108.43919,98.621820 108.43919,99.005963 C 108.43919,99.390121 108.49885,99.685090 108.61818,99.890900 C 108.73750,100.09670 108.90796,100.19959 109.12955,100.19959 C 109.26127,100.19959 109.38446,100.16759 109.49913,100.10356 C 109.61380,100.03724 109.72228,99.937767 109.82455,99.805150 L 109.82455,100.72780 M 106.98410,98.429733 L 106.98410,100.92331 L 106.30771,100.92331 L 106.30771,98.584087 C 106.30770,98.305114 106.28059,98.106181 106.22634,97.987272 C 106.17365,97.866076 106.08688,97.805486 105.96601,97.805486 C 105.84359,97.805486 105.74674,97.886662 105.67546,98.049014 C 105.60573,98.211366 105.57086,98.436595 105.57086,98.724702 L 105.57086,100.92331 L 104.89446,100.92331 L 104.89446,97.081749 L 105.57086,97.081749 L 105.57086,97.657994 C 105.61890,97.445337 105.70103,97.280698 105.81724,97.164077 C 105.93347,97.047471 106.07371,96.989152 106.23797,96.989152 C 106.48436,96.989152 106.67031,97.110348 106.79583,97.352725 C 106.92134,97.592829 106.98410,97.951827 106.98410,98.429733 M 104.19248,100.73467 C 104.03441,100.83070 103.87325,100.90273 103.70900,100.95075 C 103.54473,100.99876 103.37118,101.02277 103.18833,101.02279 C 102.75288,101.02277 102.41972,100.85129 102.18883,100.50829 C 101.95948,100.16301 101.84482,99.666807 101.84482,99.019687 C 101.84482,98.393152 101.95561,97.898099 102.17720,97.534511 C 102.39880,97.170938 102.70097,96.989152 103.08373,96.989152 C 103.46958,96.989152 103.76866,97.158366 103.98095,97.496778 C 104.19480,97.832918 104.30172,98.307401 104.30172,98.920212 L 104.30172,99.328379 L 102.53748,99.328379 C 102.53903,99.630225 102.59948,99.855455 102.71879,100.00408 C 102.83811,100.15271 103.01632,100.22703 103.25341,100.22703 C 103.40992,100.22703 103.56411,100.19387 103.71598,100.12757 C 103.86783,100.06125 104.02666,99.956065 104.19248,99.812011 L 104.19248,100.73467 M 103.61602,98.573787 C 103.61292,98.308537 103.56643,98.108453 103.47656,97.973549 C 103.38823,97.836357 103.25728,97.767753 103.08373,97.767753 C 102.92721,97.767753 102.80247,97.838644 102.70950,97.980410 C 102.61652,98.119905 102.56151,98.318838 102.54446,98.577225 L 103.61602,98.573787 M 99.794667,100.38138 L 99.794667,102.38448 L 99.115937,102.38448 L 99.115937,97.081749 L 99.794667,97.081749 L 99.794667,97.657994 C 99.865947,97.436188 99.959707,97.269261 100.07593,97.157215 C 100.19214,97.045183 100.32852,96.989152 100.48502,96.989152 C 100.78255,96.989152 101.01344,97.165228 101.17771,97.517364 C 101.34196,97.869515 101.42409,98.365704 101.42409,99.005963 C 101.42409,99.655370 101.34041,100.15386 101.17306,100.50142 C 101.00724,100.84900 100.77016,101.02277 100.46178,101.02279 C 100.32232,101.02277 100.19679,100.97018 100.08522,100.86499 C 99.975207,100.75752 99.878347,100.59632 99.794667,100.38138 M 100.74304,98.999101 C 100.74304,98.628682 100.70120,98.338272 100.61751,98.127887 C 100.53384,97.917533 100.41839,97.812348 100.27117,97.812333 C 100.12397,97.812348 100.00775,97.917533 99.922517,98.127887 C 99.837277,98.338272 99.794667,98.628682 99.794667,98.999101 C 99.794667,99.369535 99.837277,99.659945 99.922517,99.870314 C 100.00775,100.08068 100.12397,100.18587 100.27117,100.18587 C 100.41839,100.18587 100.53384,100.08068 100.61751,99.870314 C 100.70120,99.659945 100.74304,99.369535 100.74304,98.999101 M 97.335437,97.805486 C 97.172717,97.805486 97.044877,97.911807 96.951897,98.124464 C 96.858927,98.334834 96.812437,98.628682 96.812437,99.005963 C 96.812437,99.383259 96.858927,99.678243 96.951897,99.890900 C 97.044877,100.10127 97.172717,100.20646 97.335437,100.20646 C 97.499687,100.20646 97.628307,100.10127 97.721287,99.890900 C 97.814267,99.678243 97.860747,99.383259 97.860747,99.005963 C 97.860747,98.628682 97.814267,98.334834 97.721287,98.124464 C 97.628307,97.911807 97.499687,97.805486 97.335437,97.805486 M 96.131387,99.005963 C 96.131377,98.386290 96.239857,97.895796 96.456797,97.534511 C 96.675297,97.170938 96.968177,96.989152 97.335437,96.989152 C 97.704227,96.989152 97.997117,97.170938 98.214067,97.534511 C 98.432547,97.895796 98.541807,98.386290 98.541807,99.005963 C 98.541807,99.625651 98.432547,100.11727 98.214067,100.48084 C 97.997117,100.84214 97.704227,101.02277 97.335437,101.02279 C 96.968177,101.02277 96.675297,100.84214 96.456797,100.48084 C 96.239857,100.11727 96.131377,99.625651 96.131387,99.005963 M 94.083567,99.664519 L 94.857597,99.664519 L 94.857597,100.92331 L 94.083567,100.92331 L 94.083567,99.664519 M 90.176217,97.081749 L 90.743367,97.081749 L 91.052517,100.02467 L 91.333777,98.086731 L 91.884667,98.086731 L 92.161267,100.02467 L 92.475067,97.081749 L 93.042227,97.081749 L 92.570367,100.92331 L 91.924177,100.92331 L 91.608057,98.927074 L 91.294257,100.92331 L 90.648067,100.92331 L 90.176217,97.081749 M 87.312527,97.081749 L 87.879687,97.081749 L 88.188837,100.02467 L 88.470087,98.086731 L 89.020977,98.086731 L 89.297577,100.02467 L 89.611377,97.081749 L 90.178537,97.081749 L 89.706677,100.92331 L 89.060487,100.92331 L 88.744367,98.927074 L 88.430577,100.92331 L 87.784387,100.92331 L 87.312527,97.081749 M 84.448837,97.081749 L 85.015997,97.081749 L 85.325147,100.02467 L 85.606397,98.086731 L 86.157287,98.086731 L 86.433897,100.02467 L 86.747687,97.081749 L 87.314847,97.081749 L 86.842987,100.92331 L 86.196807,100.92331 L 85.880677,98.927074 L 85.566887,100.92331 L 84.920697,100.92331 L 84.448837,97.081749 M 83.674807,95.802384 L 84.188507,95.802384 L 82.361507,101.57499 L 81.847807,101.57499 L 83.674807,95.802384 M 80.811113,95.802384 L 81.324814,95.802384 L 79.497818,101.57499 L 78.984121,101.57499 L 80.811113,95.802384 M 76.901438,97.277275 L 77.675472,97.277275 L 77.675472,98.529208 L 76.901438,98.529208 L 76.901438,97.277275 M 76.901438,99.664519 L 77.675472,99.664519 L 77.675472,100.92331 L 76.901438,100.92331 L 76.901438,99.664519 M 74.021480,100.38138 L 74.021480,102.38448 L 73.342749,102.38448 L 73.342749,97.081749 L 74.021480,97.081749 L 74.021480,97.657994 C 74.092761,97.436188 74.186513,97.269261 74.302735,97.157215 C 74.418955,97.045183 74.555321,96.989152 74.711833,96.989152 C 75.009357,96.989152 75.240250,97.165228 75.404511,97.517364 C 75.568767,97.869515 75.650898,98.365704 75.650900,99.005963 C 75.650898,99.655370 75.567217,100.15386 75.399862,100.50142 C 75.234051,100.84900 74.996960,101.02277 74.688589,101.02279 C 74.549122,101.02277 74.423604,100.97018 74.312033,100.86499 C 74.202009,100.75752 74.105158,100.59632 74.021480,100.38138 M 74.969844,98.999101 C 74.969842,98.628682 74.928003,98.338272 74.844325,98.127887 C 74.760645,97.917533 74.645199,97.812348 74.497987,97.812333 C 74.350772,97.812348 74.234551,97.917533 74.149323,98.127887 C 74.064094,98.338272 74.021479,98.628682 74.021480,98.999101 C 74.021479,99.369535 74.064094,99.659945 74.149323,99.870314 C 74.234551,100.08068 74.350772,100.18587 74.497987,100.18587 C 74.645199,100.18587 74.760645,100.08068 74.844325,99.870314 C 74.928003,99.659945 74.969842,99.369535 74.969844,98.999101 M 71.734249,95.991032 L 71.734249,97.081749 L 72.624502,97.081749 L 72.624502,97.853504 L 71.734249,97.853504 L 71.734249,99.671381 C 71.734248,99.842882 71.762141,99.966350 71.817929,100.04182 C 71.875262,100.11499 71.969789,100.15158 72.101508,100.15158 L 72.624502,100.15158 L 72.624502,100.92331 L 72.052695,100.92331 C 71.662190,100.92331 71.397981,100.83184 71.260068,100.64892 C 71.122151,100.46371 71.053193,100.12184 71.053194,99.623363 L 71.053194,97.853504 L 70.388409,97.853504 L 70.388409,97.081749 L 71.053194,97.081749 L 71.053194,95.991032 L 71.734249,95.991032 M 68.870562,95.991032 L 68.870562,97.081749 L 69.760815,97.081749 L 69.760815,97.853504 L 68.870562,97.853504 L 68.870562,99.671381 C 68.870560,99.842882 68.898453,99.966350 68.954241,100.04182 C 69.011575,100.11499 69.106102,100.15158 69.237820,100.15158 L 69.760815,100.15158 L 69.760815,100.92331 L 69.189008,100.92331 C 68.798503,100.92331 68.534294,100.83184 68.396380,100.64892 C 68.258463,100.46371 68.189505,100.12184 68.189506,99.623363 L 68.189506,97.853504 L 67.524721,97.853504 L 67.524721,97.081749 L 68.189506,97.081749 L 68.189506,95.991032 L 68.870562,95.991032 M 66.892479,98.429733 L 66.892479,100.92331 L 66.216072,100.92331 L 66.216072,98.584087 C 66.216071,98.307401 66.188952,98.109604 66.134718,97.990696 C 66.082029,97.871802 65.995251,97.812348 65.874383,97.812333 C 65.750412,97.812348 65.653561,97.893524 65.583830,98.055876 C 65.514096,98.215940 65.479230,98.438883 65.479230,98.724702 L 65.479230,100.92331 L 64.802824,100.92331 L 64.802824,95.586304 L 65.479230,95.586304 L 65.479230,97.657994 C 65.527267,97.445337 65.609397,97.280698 65.725620,97.164077 C 65.841839,97.047471 65.982080,96.989152 66.146340,96.989152 C 66.392727,96.989152 66.578680,97.110348 66.704201,97.352725 C 66.829717,97.592829 66.892476,97.951827 66.892479,98.429733"
         id="path2369"
         style="font-size:12.000000;font-style:normal;font-variant:normal;font-weight:bold;font-stretch:normal;fill:#000000;fill-opacity:0.20000000;stroke:none;stroke-width:1.0000000pt;stroke-linecap:butt;stroke-linejoin:miter;stroke-opacity:1.0000000;font-family:Bitstream Vera Sans Mono;text-anchor:start;writing-mode:lr;" />
      <path
         d="M 137.28099,98.258217 C 137.28099,97.915215 137.23682,97.640832 137.14850,97.435021 C 137.06017,97.226939 136.94396,97.122905 136.79984,97.122905 C 136.65728,97.122905 136.54182,97.225803 136.45350,97.431598 C 136.36672,97.637393 136.32333,97.912927 136.32333,98.258217 C 136.32333,98.605794 136.36672,98.882464 136.45350,99.088259 C 136.54182,99.294070 136.65728,99.396967 136.79984,99.396967 C 136.94396,99.396967 137.06017,99.294070 137.14850,99.088259 C 137.23682,98.880177 137.28099,98.603491 137.28099,98.258217 M 137.96205,99.952611 C 137.96205,100.56772 137.86752,101.01132 137.67848,101.28343 C 137.49097,101.55783 137.18569,101.69504 136.76265,101.69504 C 136.62009,101.69504 136.47907,101.67903 136.33961,101.64702 C 136.20014,101.61729 136.05835,101.57042 135.91424,101.50639 L 135.91424,100.58372 C 136.04285,100.68892 136.17379,100.76666 136.30706,100.81696 C 136.44033,100.86727 136.57747,100.89241 136.71849,100.89241 C 136.91063,100.89241 137.05243,100.82496 137.14385,100.69006 C 137.23528,100.55742 137.28099,100.34934 137.28099,100.06581 L 137.28099,99.650780 C 137.21436,99.833702 137.12603,99.969758 137.01601,100.05895 C 136.90598,100.14812 136.77194,100.19272 136.61389,100.19272 C 136.31636,100.19272 136.08004,100.02121 135.90494,99.678212 C 135.72983,99.335226 135.64227,98.869892 135.64228,98.282226 C 135.64227,97.673974 135.72983,97.191493 135.90494,96.834783 C 136.08004,96.478072 136.31481,96.299709 136.60924,96.299709 C 136.75800,96.299709 136.89049,96.351166 137.00672,96.454048 C 137.12293,96.556961 137.21436,96.702166 137.28099,96.889663 L 137.28099,96.399168 L 137.96205,96.399168 L 137.96205,99.952611 M 135.22621,97.459030 C 135.15182,97.358420 135.06426,97.282970 134.96354,97.232649 C 134.86437,97.182359 134.75512,97.157199 134.63580,97.157199 C 134.49169,97.157199 134.36540,97.194932 134.25692,97.270382 C 134.15000,97.343560 134.06710,97.451032 134.00821,97.592798 C 133.97102,97.679700 133.94467,97.784885 133.92918,97.908353 C 133.91523,98.031836 133.90825,98.219348 133.90825,98.470874 L 133.90825,100.24073 L 133.22721,100.24073 L 133.22721,96.399168 L 133.90825,96.399168 L 133.90825,96.995983 C 133.97490,96.776480 134.07717,96.607266 134.21508,96.488357 C 134.35300,96.367162 134.51416,96.306571 134.69857,96.306571 C 134.79154,96.306571 134.88219,96.323718 134.97052,96.358012 C 135.06039,96.390035 135.14563,96.438052 135.22621,96.502081 L 135.22621,97.459030 M 131.11895,97.122905 C 130.95624,97.122905 130.82840,97.229226 130.73542,97.441883 C 130.64245,97.652253 130.59595,97.946101 130.59595,98.323382 C 130.59595,98.700678 130.64245,98.995662 130.73542,99.208319 C 130.82840,99.418689 130.95624,99.523874 131.11895,99.523874 C 131.28321,99.523874 131.41183,99.418689 131.50481,99.208319 C 131.59778,98.995662 131.64427,98.700678 131.64427,98.323382 C 131.64427,97.946101 131.59778,97.652253 131.50481,97.441883 C 131.41183,97.229226 131.28321,97.122905 131.11895,97.122905 M 129.91491,98.323382 C 129.91490,97.703709 130.02337,97.213215 130.24033,96.851930 C 130.45882,96.488357 130.75169,96.306571 131.11895,96.306571 C 131.48776,96.306571 131.78064,96.488357 131.99758,96.851930 C 132.21608,97.213215 132.32532,97.703709 132.32533,98.323382 C 132.32532,98.943070 132.21608,99.434685 131.99758,99.798257 C 131.78064,100.15956 131.48776,100.34019 131.11895,100.34021 C 130.75169,100.34019 130.45882,100.15956 130.24033,99.798257 C 130.02337,99.434685 129.91490,98.943070 129.91491,98.323382 M 127.86709,98.981938 L 128.64112,98.981938 L 128.64112,100.24073 L 127.86709,100.24073 L 127.86709,98.981938 M 125.56359,95.308451 L 125.56359,96.399168 L 126.45384,96.399168 L 126.45384,97.170923 L 125.56359,97.170923 L 125.56359,98.988800 C 125.56358,99.160301 125.59147,99.283769 125.64726,99.359235 C 125.70460,99.432413 125.79913,99.468994 125.93085,99.468994 L 126.45384,99.468994 L 126.45384,100.24073 L 125.88203,100.24073 C 125.49153,100.24073 125.22732,100.14926 125.08941,99.966335 C 124.95148,99.781125 124.88253,99.439259 124.88253,98.940782 L 124.88253,97.170923 L 124.21774,97.170923 L 124.21774,96.399168 L 124.88253,96.399168 L 124.88253,95.308451 L 125.56359,95.308451 M 123.77146,97.459030 C 123.69707,97.358420 123.60952,97.282970 123.50879,97.232649 C 123.40962,97.182359 123.30037,97.157199 123.18106,97.157199 C 123.03694,97.157199 122.91065,97.194932 122.80218,97.270382 C 122.69524,97.343560 122.61234,97.451032 122.55346,97.592798 C 122.51627,97.679700 122.48993,97.784885 122.47443,97.908353 C 122.46049,98.031836 122.45351,98.219348 122.45351,98.470874 L 122.45351,100.24073 L 121.77245,100.24073 L 121.77245,96.399168 L 122.45351,96.399168 L 122.45351,96.995983 C 122.52014,96.776480 122.62242,96.607266 122.76033,96.488357 C 122.89825,96.367162 123.05940,96.306571 123.24382,96.306571 C 123.33679,96.306571 123.42744,96.323718 123.51577,96.358012 C 123.60565,96.390035 123.69088,96.438052 123.77146,96.502081 L 123.77146,97.459030 M 119.85946,98.436564 C 119.60532,98.436580 119.42788,98.484598 119.32716,98.580633 C 119.22644,98.676669 119.17608,98.841308 119.17608,99.074551 C 119.17608,99.248324 119.21094,99.386667 119.28067,99.489564 C 119.35040,99.592462 119.44492,99.643918 119.56426,99.643918 C 119.74400,99.643918 119.88347,99.544444 119.98265,99.345511 C 120.08182,99.144290 120.13141,98.864181 120.13141,98.505168 L 120.13141,98.436564 L 119.85946,98.436564 M 120.80782,98.048983 L 120.80782,100.24073 L 120.13141,100.24073 L 120.13141,99.811981 C 120.04928,99.981194 119.94391,100.11154 119.81529,100.20300 C 119.68667,100.29446 119.54488,100.34019 119.38992,100.34021 C 119.09395,100.34019 118.86305,100.22472 118.69724,99.993782 C 118.53298,99.762827 118.45086,99.440410 118.45086,99.026518 C 118.45086,98.578346 118.54925,98.247932 118.74606,98.035275 C 118.94286,97.820330 119.24736,97.712858 119.65955,97.712843 L 120.13141,97.712843 L 120.13141,97.544781 C 120.13141,97.382444 120.09112,97.260097 120.01054,97.177770 C 119.93151,97.093186 119.81451,97.050878 119.65955,97.050863 C 119.49685,97.050878 119.33878,97.081734 119.18537,97.143475 C 119.03351,97.202930 118.87468,97.298981 118.70887,97.431598 L 118.70887,96.574108 C 118.85918,96.482647 119.01181,96.415179 119.16678,96.371736 C 119.32174,96.328293 119.48600,96.306571 119.65955,96.306571 C 120.08259,96.306571 120.37935,96.433478 120.54980,96.687291 C 120.72181,96.941119 120.80782,97.395016 120.80782,98.048983 M 116.39606,99.698798 L 116.39606,101.70190 L 115.71733,101.70190 L 115.71733,96.399168 L 116.39606,96.399168 L 116.39606,96.975413 C 116.46734,96.753607 116.56110,96.586680 116.67732,96.474634 C 116.79354,96.362602 116.92991,96.306571 117.08642,96.306571 C 117.38394,96.306571 117.61484,96.482647 117.77910,96.834783 C 117.94335,97.186934 118.02549,97.683123 118.02549,98.323382 C 118.02549,98.972789 117.94180,99.471281 117.77445,99.818843 C 117.60864,100.16642 117.37155,100.34019 117.06317,100.34021 C 116.92371,100.34019 116.79819,100.28760 116.68662,100.18241 C 116.57660,100.07494 116.47975,99.913742 116.39606,99.698798 M 117.34443,98.316520 C 117.34443,97.946101 117.30259,97.655691 117.21892,97.445306 C 117.13523,97.234952 117.01978,97.129767 116.87258,97.129752 C 116.72536,97.129767 116.60914,97.234952 116.52391,97.445306 C 116.43868,97.655691 116.39606,97.946101 116.39606,98.316520 C 116.39606,98.686954 116.43868,98.977364 116.52391,99.187733 C 116.60914,99.398103 116.72536,99.503288 116.87258,99.503288 C 117.01978,99.503288 117.13523,99.398103 117.21892,99.187733 C 117.30259,98.977364 117.34443,98.686954 117.34443,98.316520 M 113.01868,96.399168 L 114.36685,96.399168 L 114.36685,99.468994 L 115.21294,99.468994 L 115.21294,100.24073 L 112.83738,100.24073 L 112.83738,99.468994 L 113.68579,99.468994 L 113.68579,97.170923 L 113.01868,97.170923 L 113.01868,96.399168 M 113.68579,94.529850 L 114.36685,94.529850 L 114.36685,95.702894 L 113.68579,95.702894 L 113.68579,94.529850 M 110.54085,98.638936 L 110.54085,95.675462 L 109.85050,95.675462 L 109.85050,94.903723 L 111.22190,94.903723 L 111.22190,98.638936 C 111.22190,98.940782 111.25367,99.154575 111.31721,99.280346 C 111.38074,99.406101 111.48843,99.468994 111.64029,99.468994 L 112.18421,99.468994 L 112.18421,100.24073 L 111.44970,100.24073 C 111.12582,100.24073 110.89338,100.11725 110.75237,99.870299 C 110.61136,99.623348 110.54085,99.212894 110.54085,98.638936 M 109.24382,100.04522 C 109.12915,100.14355 109.00595,100.21672 108.87424,100.26474 C 108.74252,100.31505 108.60073,100.34019 108.44887,100.34021 C 108.04752,100.34019 107.73372,100.16184 107.50747,99.805119 C 107.28124,99.448408 107.16811,98.954491 107.16811,98.323382 C 107.16811,97.689985 107.28201,97.194932 107.50980,96.838206 C 107.73760,96.479208 108.05217,96.299709 108.45352,96.299709 C 108.59298,96.299709 108.72702,96.323718 108.85564,96.371736 C 108.98581,96.419769 109.11520,96.494083 109.24382,96.594694 L 109.24382,97.513910 C 109.14465,97.388155 109.03539,97.292119 108.91608,97.225803 C 108.79831,97.157199 108.67589,97.122905 108.54882,97.122905 C 108.32723,97.122905 108.15677,97.226939 108.03745,97.435021 C 107.91812,97.643119 107.85846,97.939239 107.85846,98.323382 C 107.85846,98.707540 107.91812,99.002509 108.03745,99.208319 C 108.15677,99.414114 108.32723,99.517012 108.54882,99.517012 C 108.68054,99.517012 108.80373,99.485005 108.91840,99.420976 C 109.03307,99.354660 109.14155,99.255186 109.24382,99.122569 L 109.24382,100.04522 M 106.40337,97.747152 L 106.40337,100.24073 L 105.72698,100.24073 L 105.72698,97.901506 C 105.72697,97.622533 105.69986,97.423600 105.64561,97.304691 C 105.59292,97.183495 105.50615,97.122905 105.38528,97.122905 C 105.26286,97.122905 105.16601,97.204081 105.09473,97.366433 C 105.02500,97.528785 104.99013,97.754014 104.99013,98.042121 L 104.99013,100.24073 L 104.31373,100.24073 L 104.31373,96.399168 L 104.99013,96.399168 L 104.99013,96.975413 C 105.03817,96.762756 105.12030,96.598117 105.23651,96.481496 C 105.35274,96.364890 105.49298,96.306571 105.65724,96.306571 C 105.90363,96.306571 106.08958,96.427767 106.21510,96.670144 C 106.34061,96.910248 106.40337,97.269246 106.40337,97.747152 M 103.61175,100.05209 C 103.45368,100.14812 103.29252,100.22015 103.12827,100.26817 C 102.96400,100.31618 102.79045,100.34019 102.60760,100.34021 C 102.17215,100.34019 101.83899,100.16871 101.60810,99.825704 C 101.37875,99.480430 101.26409,98.984226 101.26409,98.337106 C 101.26409,97.710571 101.37488,97.215518 101.59647,96.851930 C 101.81807,96.488357 102.12024,96.306571 102.50300,96.306571 C 102.88885,96.306571 103.18793,96.475785 103.40022,96.814197 C 103.61407,97.150337 103.72099,97.624820 103.72099,98.237631 L 103.72099,98.645798 L 101.95675,98.645798 C 101.95830,98.947644 102.01875,99.172874 102.13806,99.321502 C 102.25738,99.470130 102.43559,99.544444 102.67268,99.544444 C 102.82919,99.544444 102.98338,99.511286 103.13525,99.444985 C 103.28710,99.378669 103.44593,99.273484 103.61175,99.129430 L 103.61175,100.05209 M 103.03529,97.891206 C 103.03219,97.625956 102.98570,97.425872 102.89583,97.290968 C 102.80750,97.153776 102.67655,97.085172 102.50300,97.085172 C 102.34648,97.085172 102.22174,97.156063 102.12877,97.297829 C 102.03579,97.437324 101.98078,97.636257 101.96373,97.894644 L 103.03529,97.891206 M 99.213939,99.698798 L 99.213939,101.70190 L 98.535213,101.70190 L 98.535213,96.399168 L 99.213939,96.399168 L 99.213939,96.975413 C 99.285219,96.753607 99.378979,96.586680 99.495199,96.474634 C 99.611409,96.362602 99.747789,96.306571 99.904289,96.306571 C 100.20182,96.306571 100.43271,96.482647 100.59698,96.834783 C 100.76123,97.186934 100.84336,97.683123 100.84336,98.323382 C 100.84336,98.972789 100.75968,99.471281 100.59233,99.818843 C 100.42651,100.16642 100.18943,100.34019 99.881049,100.34021 C 99.741589,100.34019 99.616059,100.28760 99.504489,100.18241 C 99.394479,100.07494 99.297619,99.913742 99.213939,99.698798 M 100.16231,98.316520 C 100.16231,97.946101 100.12047,97.655691 100.03678,97.445306 C 99.953109,97.234952 99.837659,97.129767 99.690439,97.129752 C 99.543239,97.129767 99.427019,97.234952 99.341789,97.445306 C 99.256549,97.655691 99.213939,97.946101 99.213939,98.316520 C 99.213939,98.686954 99.256549,98.977364 99.341789,99.187733 C 99.427019,99.398103 99.543239,99.503288 99.690439,99.503288 C 99.837659,99.503288 99.953109,99.398103 100.03678,99.187733 C 100.12047,98.977364 100.16231,98.686954 100.16231,98.316520 M 96.754705,97.122905 C 96.591990,97.122905 96.464147,97.229226 96.371174,97.441883 C 96.278202,97.652253 96.231708,97.946101 96.231708,98.323382 C 96.231708,98.700678 96.278202,98.995662 96.371174,99.208319 C 96.464147,99.418689 96.591990,99.523874 96.754705,99.523874 C 96.918959,99.523874 97.047583,99.418689 97.140555,99.208319 C 97.233538,98.995662 97.280019,98.700678 97.280019,98.323382 C 97.280019,97.946101 97.233538,97.652253 97.140555,97.441883 C 97.047583,97.229226 96.918959,97.122905 96.754705,97.122905 M 95.550655,98.323382 C 95.550651,97.703709 95.659125,97.213215 95.876073,96.851930 C 96.094568,96.488357 96.387445,96.306571 96.754705,96.306571 C 97.123504,96.306571 97.416393,96.488357 97.633339,96.851930 C 97.851824,97.213215 97.961077,97.703709 97.961077,98.323382 C 97.961077,98.943070 97.851824,99.434685 97.633339,99.798257 C 97.416393,100.15956 97.123504,100.34019 96.754705,100.34021 C 96.387445,100.34019 96.094568,100.15956 95.876073,99.798257 C 95.659125,99.434685 95.550651,98.943070 95.550655,98.323382 M 93.502839,98.981938 L 94.276871,98.981938 L 94.276871,100.24073 L 93.502839,100.24073 L 93.502839,98.981938 M 89.595486,96.399168 L 90.162642,96.399168 L 90.471792,99.342087 L 90.753049,97.404150 L 91.303936,97.404150 L 91.580541,99.342087 L 91.894339,96.399168 L 92.461498,96.399168 L 91.989639,100.24073 L 91.343451,100.24073 L 91.027329,98.244493 L 90.713533,100.24073 L 90.067343,100.24073 L 89.595486,96.399168 M 86.731799,96.399168 L 87.298955,96.399168 L 87.608105,99.342087 L 87.889361,97.404150 L 88.440249,97.404150 L 88.716853,99.342087 L 89.030651,96.399168 L 89.597811,96.399168 L 89.125951,100.24073 L 88.479764,100.24073 L 88.163641,98.244493 L 87.849846,100.24073 L 87.203656,100.24073 L 86.731799,96.399168 M 83.868111,96.399168 L 84.435267,96.399168 L 84.744417,99.342087 L 85.025674,97.404150 L 85.576561,97.404150 L 85.853166,99.342087 L 86.166964,96.399168 L 86.734123,96.399168 L 86.262264,100.24073 L 85.616076,100.24073 L 85.299954,98.244493 L 84.986158,100.24073 L 84.339968,100.24073 L 83.868111,96.399168 M 83.094076,95.119803 L 83.607776,95.119803 L 81.780780,100.89241 L 81.267084,100.89241 L 83.094076,95.119803 M 80.230388,95.119803 L 80.744089,95.119803 L 78.917093,100.89241 L 78.403396,100.89241 L 80.230388,95.119803 M 76.320713,96.594694 L 77.094747,96.594694 L 77.094747,97.846627 L 76.320713,97.846627 L 76.320713,96.594694 M 76.320713,98.981938 L 77.094747,98.981938 L 77.094747,100.24073 L 76.320713,100.24073 L 76.320713,98.981938 M 73.440755,99.698798 L 73.440755,101.70190 L 72.762024,101.70190 L 72.762024,96.399168 L 73.440755,96.399168 L 73.440755,96.975413 C 73.512036,96.753607 73.605788,96.586680 73.722010,96.474634 C 73.838230,96.362602 73.974596,96.306571 74.131108,96.306571 C 74.428632,96.306571 74.659525,96.482647 74.823786,96.834783 C 74.988042,97.186934 75.070173,97.683123 75.070175,98.323382 C 75.070173,98.972789 74.986492,99.471281 74.819137,99.818843 C 74.653326,100.16642 74.416235,100.34019 74.107864,100.34021 C 73.968397,100.34019 73.842879,100.28760 73.731308,100.18241 C 73.621284,100.07494 73.524433,99.913742 73.440755,99.698798 M 74.389119,98.316520 C 74.389117,97.946101 74.347278,97.655691 74.263600,97.445306 C 74.179920,97.234952 74.064474,97.129767 73.917262,97.129752 C 73.770047,97.129767 73.653826,97.234952 73.568598,97.445306 C 73.483369,97.655691 73.440754,97.946101 73.440755,98.316520 C 73.440754,98.686954 73.483369,98.977364 73.568598,99.187733 C 73.653826,99.398103 73.770047,99.503288 73.917262,99.503288 C 74.064474,99.503288 74.179920,99.398103 74.263600,99.187733 C 74.347278,98.977364 74.389117,98.686954 74.389119,98.316520 M 71.153524,95.308451 L 71.153524,96.399168 L 72.043777,96.399168 L 72.043777,97.170923 L 71.153524,97.170923 L 71.153524,98.988800 C 71.153523,99.160301 71.181416,99.283769 71.237204,99.359235 C 71.294537,99.432413 71.389064,99.468994 71.520783,99.468994 L 72.043777,99.468994 L 72.043777,100.24073 L 71.471970,100.24073 C 71.081465,100.24073 70.817256,100.14926 70.679343,99.966335 C 70.541426,99.781125 70.472468,99.439259 70.472469,98.940782 L 70.472469,97.170923 L 69.807684,97.170923 L 69.807684,96.399168 L 70.472469,96.399168 L 70.472469,95.308451 L 71.153524,95.308451 M 68.289837,95.308451 L 68.289837,96.399168 L 69.180090,96.399168 L 69.180090,97.170923 L 68.289837,97.170923 L 68.289837,98.988800 C 68.289835,99.160301 68.317728,99.283769 68.373516,99.359235 C 68.430850,99.432413 68.525377,99.468994 68.657095,99.468994 L 69.180090,99.468994 L 69.180090,100.24073 L 68.608283,100.24073 C 68.217778,100.24073 67.953569,100.14926 67.815655,99.966335 C 67.677738,99.781125 67.608780,99.439259 67.608781,98.940782 L 67.608781,97.170923 L 66.943996,97.170923 L 66.943996,96.399168 L 67.608781,96.399168 L 67.608781,95.308451 L 68.289837,95.308451 M 66.311754,97.747152 L 66.311754,100.24073 L 65.635347,100.24073 L 65.635347,97.901506 C 65.635346,97.624820 65.608227,97.427023 65.553993,97.308115 C 65.501304,97.189221 65.414526,97.129767 65.293658,97.129752 C 65.169687,97.129767 65.072836,97.210943 65.003105,97.373295 C 64.933371,97.533359 64.898505,97.756302 64.898505,98.042121 L 64.898505,100.24073 L 64.222099,100.24073 L 64.222099,94.903723 L 64.898505,94.903723 L 64.898505,96.975413 C 64.946542,96.762756 65.028672,96.598117 65.144895,96.481496 C 65.261114,96.364890 65.401355,96.306571 65.565615,96.306571 C 65.812002,96.306571 65.997955,96.427767 66.123476,96.670144 C 66.248992,96.910248 66.311751,97.269246 66.311754,97.747152"
         id="text1744"
         style="font-size:12.000000;font-style:normal;font-variant:normal;font-weight:bold;font-stretch:normal;fill:#ffffff;fill-opacity:1.0000000;stroke:none;stroke-width:1.0000000pt;stroke-linecap:butt;stroke-linejoin:miter;stroke-opacity:1.0000000;font-family:Bitstream Vera Sans Mono;text-anchor:start;writing-mode:lr;" />
    </g>
  </g>
  <g
     id="g2546"
     transform="matrix(0.7515689,0.9386509,-0.9386509,0.7515689,-43.774405,79.124311)">
    <g
       id="g3167"
       transform="matrix(0.2747478,-4.8355285e-2,4.8355285e-2,0.2747478,-68.316528,-171.9058)">
      <path
         d="M 534.28571,642.36218 A 37.142857,64.285713 0 1 1 460,642.36218 A 37.142857,64.285713 0 1 1 534.28571,642.36218 z"
         sodipodi:ry="64.285713"
         sodipodi:rx="37.142857"
         sodipodi:cy="642.36218"
         sodipodi:cx="497.14285"
         id="path2383"
         style="fill:none;fill-opacity:1;stroke:#000000;stroke-width:10;stroke-miterlimit:4;stroke-dasharray:none;stroke-opacity:1"
         sodipodi:type="arc" />
      <path
         sodipodi:nodetypes="cccc"
         id="path3155"
         d="M 500,578.07647 L 465.71429,112.36218 L 460,600.93361 L 500,578.07647 z"
         style="opacity:0.98999999;fill:#000000;fill-opacity:1;fill-rule:evenodd;stroke:#000000;stroke-width:1px;stroke-linecap:butt;stroke-linejoin:miter;stroke-opacity:1" />
      <path
         d="M 534.28571,642.36218 A 37.142857,64.285713 0 1 1 460,642.36218 A 37.142857,64.285713 0 1 1 534.28571,642.36218 z"
         sodipodi:ry="64.285713"
         sodipodi:rx="37.142857"
         sodipodi:cy="642.36218"
         sodipodi:cx="497.14285"
         id="path3157"
         style="fill:none;fill-opacity:1;stroke:#000000;stroke-width:10;stroke-miterlimit:4;stroke-dasharray:none;stroke-opacity:1"
         sodipodi:type="arc" />
      <path
         sodipodi:nodetypes="cccc"
         id="path3159"
         d="M 500,578.07647 L 465.71429,112.36218 L 460,600.93361 L 500,578.07647 z"
         style="opacity:0.98999999;fill:#000000;fill-opacity:1;fill-rule:evenodd;stroke:#000000;stroke-width:1px;stroke-linecap:butt;stroke-linejoin:miter;stroke-opacity:1" />
    </g>
    <g
       transform="matrix(-0.2747478,-4.8355285e-2,-4.8355285e-2,0.2747478,236.6762,-171.9058)"
       id="g3183">
      <path
         sodipodi:type="arc"
         style="fill:none;fill-opacity:1;stroke:#000000;stroke-width:10;stroke-miterlimit:4;stroke-dasharray:none;stroke-opacity:1"
         id="path3185"
         sodipodi:cx="497.14285"
         sodipodi:cy="642.36218"
         sodipodi:rx="37.142857"
         sodipodi:ry="64.285713"
         d="M 534.28571,642.36218 A 37.142857,64.285713 0 1 1 460,642.36218 A 37.142857,64.285713 0 1 1 534.28571,642.36218 z" />
      <path
         style="opacity:0.98999999;fill:#000000;fill-opacity:1;fill-rule:evenodd;stroke:#000000;stroke-width:1px;stroke-linecap:butt;stroke-linejoin:miter;stroke-opacity:1"
         d="M 500,578.07647 L 465.71429,112.36218 L 460,600.93361 L 500,578.07647 z"
         id="path3187"
         sodipodi:nodetypes="cccc" />
      <path
         sodipodi:type="arc"
         style="fill:none;fill-opacity:1;stroke:#000000;stroke-width:10;stroke-miterlimit:4;stroke-dasharray:none;stroke-opacity:1"
         id="path3189"
         sodipodi:cx="497.14285"
         sodipodi:cy="642.36218"
         sodipodi:rx="37.142857"
         sodipodi:ry="64.285713"
         d="M 534.28571,642.36218 A 37.142857,64.285713 0 1 1 460,642.36218 A 37.142857,64.285713 0 1 1 534.28571,642.36218 z" />
      <path
         style="opacity:0.98999999;fill:#000000;fill-opacity:1;fill-rule:evenodd;stroke:#000000;stroke-width:1px;stroke-linecap:butt;stroke-linejoin:miter;stroke-opacity:1"
         d="M 500,578.07647 L 465.71429,112.36218 L 460,600.93361 L 500,578.07647 z"
         id="path3191"
         sodipodi:nodetypes="cccc" />
    </g>
  </g>
  <rect
     y="-143.82388"
     x="26.839664"
     height="0"
     width="5.579412"
     id="rect3197"
     style="opacity:0.98999999;fill:#000000;fill-opacity:1;stroke:#000000;stroke-width:5.57941198;stroke-miterlimit:4;stroke-dasharray:none;stroke-opacity:1" />
  <path
     style="fill:none;fill-rule:evenodd;stroke:#efeb00;stroke-width:5;stroke-linecap:butt;stroke-linejoin:miter;stroke-miterlimit:4;stroke-dasharray:none;stroke-dashoffset:0;stroke-opacity:1"
     d="M 191.14286,154.28572 C 191.14286,154.28572 158.94854,133.46013 154.28571,128.28572 C 149.62289,123.11131 127.03797,128.75119 119.42857,129.71429 C 111.81916,130.67738 100.93288,142.6351 98.285713,149.14286 C 95.638543,155.65063 96.409243,164.06359 100.57143,170.28572 C 104.73361,176.50785 114.44891,183.33626 121.14285,182.00001 C 127.8368,180.66375 135.43084,176.05619 136.28571,170.85715 C 137.14059,165.6581 133.57065,156.53689 130,153.71429 C 126.42935,150.8917 121.02564,150.43211 118,152.28572"
     id="path3330"
     sodipodi:nodetypes="czzzzzzzz" />
</svg>
