<?xml version="1.0" encoding="UTF-8" standalone="no"?>
<svg
   xmlns:dc="http://purl.org/dc/elements/1.1/"
   xmlns:cc="http://creativecommons.org/ns#"
   xmlns:rdf="http://www.w3.org/1999/02/22-rdf-syntax-ns#"
   xmlns:svg="http://www.w3.org/2000/svg"
   xmlns="http://www.w3.org/2000/svg"
   xmlns:sodipodi="http://sodipodi.sourceforge.net/DTD/sodipodi-0.dtd"
   xmlns:inkscape="http://www.inkscape.org/namespaces/inkscape"
   id="svg8806"
   viewBox="0 0 160 130"
   version="1.1"
   sodipodi:docname="17.svg"
   width="160"
   height="130"
   inkscape:version="0.92.2 (5c3e80d, 2017-08-06)">
  <sodipodi:namedview
     pagecolor="#ffffff"
     bordercolor="#666666"
     borderopacity="1"
     objecttolerance="10"
     gridtolerance="10"
     guidetolerance="10"
     inkscape:pageopacity="0"
     inkscape:pageshadow="2"
     inkscape:window-width="1680"
     inkscape:window-height="987"
     id="namedview39"
     showgrid="false"
     inkscape:zoom="1.1718556"
     inkscape:cx="293.78687"
     inkscape:cy="167.147"
     inkscape:window-x="-8"
     inkscape:window-y="-8"
     inkscape:window-maximized="1"
     inkscape:current-layer="svg8806" />
  <defs
     id="defs8808">
    <filter
       id="filter9479"
       height="2.8436999"
       width="1.0243"
       y="-0.92185003"
       x="-0.012158"
       style="color-interpolation-filters:sRGB">
      <feGaussianBlur
         id="feGaussianBlur9481"
         stdDeviation="2.2619444" />
    </filter>
    <filter
       id="filter9563"
       height="1.7799"
       width="1.5543"
       y="-0.38995999"
       x="-0.27713001"
       style="color-interpolation-filters:sRGB">
      <feGaussianBlur
         id="feGaussianBlur9565"
         stdDeviation="4.8408367" />
    </filter>
    <filter
       id="filter9651"
       height="1.8081"
       width="1.0907"
       y="-0.40404999"
       x="-0.045333002"
       style="color-interpolation-filters:sRGB">
      <feGaussianBlur
         id="feGaussianBlur9653"
         stdDeviation="8.3536643" />
    </filter>
    <linearGradient
       id="linearGradient9680"
       y2="506.98001"
       gradientUnits="userSpaceOnUse"
       x2="377.60001"
       y1="309.89999"
       x1="377.60001">
      <stop
         id="stop9676"
         stop-color="#08a"
         offset="0" />
      <stop
         id="stop9678"
         stop-color="#19c5f0"
         offset="1" />
    </linearGradient>
    <linearGradient
       id="linearGradient9692"
       y2="190.39999"
       gradientUnits="userSpaceOnUse"
       x2="381.13"
       y1="105.55"
       x1="381.13">
      <stop
         id="stop9688"
         stop-color="#56b8ff"
         offset="0" />
      <stop
         id="stop9690"
         stop-color="#4e6f86"
         stop-opacity=".95536"
         offset="1" />
    </linearGradient>
  </defs>
  <g
     id="layer1"
     transform="matrix(0.33169821,0,0,0.32275968,-47.512687,-39.219609)">
    <path
       id="path8825"
       d="m 566.7,186.66 c 0,0 -177.79,-19.193 -368.71,3.0305 -38.386,6.0609 -41.416,42.426 -41.416,42.426 -8.0812,125.26 -1.0102,239.41 -1.0102,239.41 4.2065,24.078 28.471,40.325 34.345,40.406 156.78,2.1752 391.94,1.0102 391.94,1.0102 33.335,-6.0609 36.365,-36.365 36.365,-36.365 3.0305,-140.92 -5.4426,-247.49 -6.0609,-252.54 -3.4271,-27.952 -45.457,-37.376 -45.457,-37.376 z"
       inkscape:connector-curvature="0"
       style="fill:none;stroke:#000000;stroke-width:1px" />
    <path
       id="path8827"
       d="m 197.48,196.76 c 189.4,-19.698 369.72,-1.5152 369.72,-1.5152 41.921,4.5457 42.426,35.355 42.426,35.355 9.5964,172.23 7.0771,235.72 6.0609,242.94 -3.3069,23.493 -33.678,39.457 -33.678,39.457"
       inkscape:connector-curvature="0"
       style="fill:none;stroke:#000000;stroke-width:1px" />
    <path
       id="path8829"
       d="m 163.93,490.93 c -9.2857,-16.071 -6.0714,-32.857 -6.0714,-32.857 -6.4286,-134.64 3.5714,-228.21 3.5714,-228.21 3.5714,-29.286 37.5,-33.214 37.5,-33.214"
       inkscape:connector-curvature="0"
       style="fill:none;stroke:#000000;stroke-width:1px" />
    <path
       id="path8831"
       d="m 431.79,179.51 c 6.8828,-9.4441 -1.1563,-20.082 -18.319,-9.8835 -17.1627,10.1985 -51.904,3.3804 -58.734,-1.5451 -10.374,-7.4818 -21.795,2.9171 -14.375,11.429"
       inkscape:connector-curvature="0"
       style="fill:none;stroke:#000000;stroke-width:1px" />
    <path
       id="path8833"
       d="m 338.21,170.58 8.2143,-29.286 79.643,-0.71428 6.4286,26.786"
       inkscape:connector-curvature="0"
       style="fill:none;stroke:#000000;stroke-width:1px" />
    <path
       id="path8835"
       d="m 333.57,179.15 c -7.8571,-2.5 -8.2143,-7.5 -8.2143,-7.5 l 10,-46.786 c 53.571,-5.7143 99.286,-1.0714 99.286,-1.0714 l 9.6428,47.5 c -3.5714,5.7143 -8.5714,7.5 -8.5714,7.5"
       inkscape:connector-curvature="0"
       style="fill:none;stroke:#000000;stroke-width:1px" />
    <path
       id="path8837"
       d="m 230.68,511.58 -43,-0.52503 -5,-2.9216 c -11.601,-6.7784 -21.462,-20.131 -23.474,-31.784 -1.0293,-5.9615 -3.0914,-83.023 -3.0257,-113.07 0.0876,-39.995 3.6316,-117.79 6.066,-133.15 2.333,-14.721 11.422,-24.546 27.806,-30.057 8.2075,-2.7606 34.703,-5.3302 88.628,-8.5953 35.939,-2.176 136.87,-3.0282 180.16,-1.5212 38.674,1.3464 74.205,3.413 98.838,5.7486 9.35,0.88654 18.195,1.6607 19.655,1.7203 1.46,0.0596 2.4756,0.39746 2.2569,0.75075 -0.58711,0.94849 4.4954,2.0291 5.7891,1.2308 0.72115,-0.44501 0.82248,-0.22195 0.28996,0.63836 -0.59931,0.9682 -0.35895,1.1463 0.89743,0.66493 1.1564,-0.44308 1.4825,-0.28028 1,0.49923 -0.4825,0.7795 -0.15641,0.94229 1,0.49922 1.1564,-0.44308 1.4825,-0.28027 1,0.49923 -0.4825,0.77951 -0.15641,0.9423 1,0.49922 0.94379,-0.3616 1.4853,-0.28476 1.2033,0.17078 -0.75333,1.217 5.2552,5.3523 6.5847,4.5318 0.66238,-0.40874 0.85841,-0.25546 0.47189,0.36898 -0.81138,1.3108 4.1818,7.451 5.4319,6.6796 0.49356,-0.30456 0.60107,0.21724 0.23891,1.1596 -0.44376,1.1546 -0.28072,1.4802 0.5,0.99845 0.78071,-0.48177 0.94376,-0.15618 0.5,0.99846 -0.44376,1.15464 -0.28072,1.4802 0.5,0.99846 0.78071,-0.48177 0.94376,-0.15619 0.5,0.99844 -0.48212,1.2544 -0.30375,1.4944 0.66596,0.89605 0.83508,-0.51532 1.0843,-0.42927 0.6744,0.23289 -0.85699,1.3845 0.35782,7.3535 1.3695,6.7292 0.43174,-0.26643 0.55987,0.37509 0.28474,1.4256 -0.27513,1.05051 0.21443,15.766 1.0879,32.701 4.1729,80.904 6.1538,153.53 5.1425,188.55 0.82893,37.738 -6.5933,41.588 -30.734,60.381 -3.2864,2.0006 -4.4133,2.0134 -157.31,1.7949 -84.7,-0.12104 -173.35,-0.45634 -197,-0.74511 z"
       style="fill:url(#linearGradient9680)"
       inkscape:connector-curvature="0" />
    <path
       id="path8839"
       d="m 193.17,206.43 c -0.16571,0.0818 -0.35594,0.0783 -0.53655,0.0928 -0.23745,0.0198 -0.47473,0.0415 -0.71208,0.0624 -0.30437,0.0269 -0.60897,0.0508 -0.91364,0.0738 -0.3676,0.0276 -0.73546,0.0514 -1.1034,0.0743 -0.40389,0.0633 -0.80911,0.0858 -1.2069,0.18379 -0.44486,0.0777 -0.87518,0.21669 -1.3017,0.36185 -0.5307,0.19276 -1.0641,0.37701 -1.5976,0.56184 -0.56576,0.18381 -1.1147,0.41368 -1.6751,0.61276 -6.5618,2.4542 16.228,-6.1771 11.191,-4.3046 -0.58762,0.2149 -1.161,0.46606 -1.7375,0.70874 -0.57652,0.25755 -1.1457,0.53262 -1.713,0.8102 -0.56321,0.29064 -1.112,0.6074 -1.6646,0.9173 -0.55135,0.31403 -1.0929,0.64376 -1.6327,0.97713 -0.53035,0.34299 -1.0554,0.69606 -1.5583,1.0784 -0.50945,0.37018 -0.9997,0.76483 -1.4751,1.1775 -0.47676,0.4187 -0.92475,0.86848 -1.3484,1.3404 -0.43899,0.47034 -0.8588,0.95752 -1.2637,1.4573 -0.41126,0.51026 -0.78908,1.0458 -1.155,1.5891 -0.37445,0.55902 -0.71716,1.1381 -1.049,1.7232 -0.34023,0.60292 -0.65118,1.2215 -0.95225,1.8447 -0.30765,0.65026 -0.59935,1.308 -0.88674,1.9674 -0.29459,0.67678 -0.56541,1.3634 -0.82768,2.0533 -0.26798,0.70782 -0.51354,1.4238 -0.75157,2.1421 -0.12089,0.3659 -0.23516,0.73391 -0.34923,1.102 0,0 -13.232,4.1029 -13.232,4.1029 0.10933,-0.3755 0.21885,-0.75096 0.33462,-1.1246 0.22835,-0.73479 0.46381,-1.4674 0.72043,-2.1929 0.25163,-0.70853 0.51118,-1.4143 0.79413,-2.111 0.27469,-0.67366 0.56329,-1.3414 0.85287,-2.0087 0.28887,-0.64848 0.58706,-1.293 0.91278,-1.9239 0.31887,-0.61476 0.64803,-1.2244 1.0072,-1.8167 0.3523,-0.57799 0.71589,-1.1494 1.1119,-1.6987 0.38858,-0.53598 0.78869,-1.0642 1.2271,-1.5609 0.43719,-0.48598 0.84658,-0.99743 1.3124,-1.4574 0.45885,-0.45948 0.93048,-0.90721 1.4408,-1.3098 0.50976,-0.393 1.0045,-0.80499 1.5361,-1.1693 0.52307,-0.3723 1.0628,-0.72252 1.6152,-1.0496 0.54219,-0.33582 1.0964,-0.65219 1.6505,-0.96777 0.55088,-0.32637 1.1238,-0.60541 1.6932,-0.89736 0.56057,-0.28073 1.1372,-0.52633 1.709,-0.78294 4.8174,-2.0082 9.7146,-3.822 14.622,-5.596 0.56176,-0.21126 1.1302,-0.40223 1.6987,-0.59455 0.55357,-0.18857 1.1094,-0.37528 1.6772,-0.51631 0.48374,-0.11139 0.97111,-0.20021 1.4648,-0.25469 0.42509,-0.0287 0.84714,-0.0846 1.2726,-0.1064 0.37763,-0.0382 0.75509,-0.0786 1.1313,-0.12944 0.31276,-0.0431 0.62533,-0.0888 0.93499,-0.15086 0.24027,-0.0497 0.4807,-0.10266 0.71218,-0.18542 0.16388,-0.062 0.31874,-0.1536 0.49081,-0.18778 l -12.471,7.0824 z"
       transform="matrix(1.3673,0,0,1,-60.131,0)"
       inkscape:connector-curvature="0"
       style="fill:#ffffff;filter:url(#filter9563)" />
    <path
       id="path9423"
       d="m 161.5,226.75 c 239,-13.25 446.5,0 446.5,0"
       inkscape:connector-curvature="0"
       style="fill:#ffffff;filter:url(#filter9479)" />
    <path
       id="path9425"
       d="m 314.36,232.35 c -61.303,-0.5789 -142.17,7.612 -147.16,-1.8849 l -3.9106,-7.4402 2.0918,-4.1751 c 4.7864,-9.5536 14.611,-16.801 27.479,-20.27 10.417,-2.8089 71.01,-7.3056 126.75,-9.4063 22.696,-0.85536 113.65,-0.86406 136,-0.013 43.748,1.6662 95.648,4.7699 111.25,6.653 17.489,2.1109 29.434,8.2426 36.428,18.7 2.3982,3.5856 2.5563,20.952 1.966,22.055 -2.3856,4.4564 -26.277,-2.0128 -62.644,-1.3217 -62.599,1.1896 -168.2,-2.3292 -228.25,-2.8963 z"
       transform="matrix(1,0,0,0.73963,0,49.25)"
       inkscape:connector-curvature="0"
       style="opacity:0.56195003;fill:#ffffff;filter:url(#filter9651)" />
    <path
       id="path9655"
       d="m 201.17,512.49 c 3.6579,11.536 28.109,17.884 35.781,-0.11335"
       inkscape:connector-curvature="0"
       style="fill:none;stroke:#000000;stroke-width:1px" />
    <path
       id="path9657"
       d="m 214.99,522.25 c -5.9308,-1.3056 -10.542,-4.3769 -12.585,-8.3829 l -0.74577,-1.4618 8.0486,0.23424 c 4.4267,0.12883 12.17,0.23424 17.206,0.23424 h 9.1579 l -0.79915,1.4219 c -1.2095,2.152 -4.3885,5.1087 -6.808,6.3318 -3.9299,1.9867 -9.0304,2.6009 -13.474,1.6225 z"
       inkscape:connector-curvature="0"
       style="opacity:0.56195003;fill:#ffffff" />
    <path
       id="path9659"
       d="m 216.95,522.62 c -2.5495,-0.32675 -4.8962,-1.0084 -7.1235,-2.0691 -3.5929,-1.7111 -6.1908,-4.0614 -7.6105,-6.8852 -0.65155,-1.296 -0.90959,-1.205 3.1403,-1.1076 5.6219,0.13513 20.328,0.31823 25.75,0.3206 2.7328,10e-4 4.9688,0.0352 4.9688,0.0756 0,0.18704 -0.98391,1.8017 -1.6211,2.6603 -2.9186,3.9329 -7.0178,6.2886 -12.104,6.9559 -1.5054,0.1975 -4.0622,0.22093 -5.3998,0.0495 z"
       inkscape:connector-curvature="0"
       style="fill:#035c72" />
    <path
       id="path9661"
       d="m 539.17,512.49 c 3.6579,11.536 27.953,18.165 35.625,0.1679"
       inkscape:connector-curvature="0"
       style="fill:none;stroke:#000000;stroke-width:1px" />
    <path
       id="path9665"
       d="m 555.63,523.12 c -7.0984,-0.74205 -12.989,-3.9196 -15.588,-9.7503 2.6924,-0.0476 4.2662,0.4155 6.2911,0.18511 9.2851,0.19952 18.137,-0.18316 27.422,-0.038 -3.448,8.0403 -10.59,10.455 -18.125,9.6032 z"
       inkscape:connector-curvature="0"
       style="fill:#035c72" />
    <path
       id="path9668"
       d="m 155.59,460.8 c -0.2773,-0.84873 -1.1296,-25.363 -1.8211,-52.375 -0.64041,-25.02 -0.32108,-96.395 0.53017,-118.5 1.3108,-34.038 2.7004,-58.401 3.5362,-62 1.5685,-6.7537 4.5646,-13.575 8.2363,-18.752 3.0503,-4.3009 9.0666,-9.8206 13.599,-12.477 8.2919,-4.8593 12.636,-5.8661 35.655,-8.2625 104.1,-10.838 222.93,-11.799 335,-2.7086 l 16.25,1.318 6.6544,2.199 c 21.821,7.2109 35.655,19.284 38.024,33.183 2.1176,12.428 5.3916,82.597 6.5788,141 0.69152,34.017 0.6567,46.138 -0.13179,45.875 -0.46232,-0.15375 -0.65383,-2.4747 -0.73576,-8.9167 -0.35509,-27.919 -3.0428,-97.985 -5.5989,-145.96 -1.3571,-25.471 -1.5332,-27.504 -2.6975,-31.139 -2.1158,-6.606 -8.3162,-15.724 -10.201,-15 -0.6084,0.23347 -0.73493,0.10328 -0.49849,-0.51287 0.23426,-0.61046 -0.49272,-1.3982 -2.7882,-3.0214 -4.218,-2.9826 -8.8049,-5.3143 -9.7448,-4.9536 -0.44937,0.17244 -0.64431,0.0868 -0.46457,-0.20398 0.58211,-0.94188 -9.2694,-3.64 -16.896,-4.6273 -9.5505,-1.2364 -54.604,-4.2913 -81.25,-5.5091 -65.358,-2.9872 -138.86,-2.9041 -201.5,0.22768 -25.233,1.2616 -65.425,4.2868 -85.75,6.4543 -4.519,0.48192 -12.546,2.9077 -16.894,5.1051 -11.907,6.0185 -19.012,14.82 -21.333,26.431 -1.3235,6.6189 -3.6251,41.249 -5.0678,76.25 -1.3863,33.633 -1.0861,105.71 0.59443,142.73 0.28666,6.3154 0.38254,12.222 0.21307,13.125 -0.30851,1.6445 -1.1147,2.1919 -1.4984,1.0174 z"
       inkscape:connector-curvature="0"
       style="fill:#136478" />
    <path
       id="path9670"
       d="m 590.58,509.15 c 0,-0.35957 2.3477,-2.5806 5.217,-4.9356 5.4778,-4.4959 12.362,-12.044 15.258,-16.729 0.94178,-1.5238 2.4076,-4.6909 3.2574,-7.0378 2.6093,-7.2062 4.2264,-5.812 2.0091,1.7321 -1.801,6.128 -5.8242,13.105 -10.108,17.528 -4.9482,5.1099 -15.634,11.563 -15.634,9.4421 z"
       inkscape:connector-curvature="0"
       style="fill:#136478" />
    <path
       id="path9672"
       d="m 615.87,475.7 c 0.90226,-4.9289 1.5204,-28.243 1.3647,-51.469 l -0.1016,-15.156 h 1.1449 l 0.003,15.906 c 0.003,14.889 -0.45732,51.037 -0.65302,51.254 -0.0486,0.054 -0.24491,-0.0318 -0.43624,-0.19059 -0.26779,-0.22224 -0.4201,-0.20167 -0.66165,0.0894 -0.52369,0.63101 -0.81994,0.43618 -0.66058,-0.43442 z"
       inkscape:connector-curvature="0"
       style="fill:#136478" />
    <path
       id="path9682"
       d="m 340.26,178.45 c -1.8932,-2.0955 -2.1884,-5.1757 -0.76358,-7.9686 1.4088,-2.7615 4.0503,-4.2454 7.5917,-4.2648 2.4357,-0.0134 3.5375,0.33297 7.514,2.3618 12.412,6.3329 35.9,8.7033 50.16,5.0622 1.65,-0.4213 5.8625,-2.1179 9.361,-3.7703 7.9028,-3.7325 11.654,-4.527 15.12,-3.203 2.8961,1.106 4.2643,3.1213 4.2658,6.2836 5e-4,1.2375 -0.39231,3.0187 -0.87313,3.9582 l -0.87423,1.7082 -31.5,-0.0555 c -17.325,-0.0305 -37.76,0.10079 -45.412,0.29179 -12.04,0.30056 -14.003,0.24626 -14.59,-0.40362 z"
       inkscape:connector-curvature="0"
       style="fill:#4d4d4d" />
    <path
       id="path9684"
       d="m 333.51,179.02 c 0,-0.23323 -0.90791,-0.83348 -2.0176,-1.3339 -2.2837,-1.0298 -5.4801,-4.3028 -5.487,-5.6185 -0.005,-0.87313 9.5347,-46.223 9.79,-46.542 0.4318,-0.53907 23.657,-2.1094 38.838,-2.626 13.822,-0.47035 21.398,-0.47181 34.192,-0.007 15.476,0.56276 25.03,1.1683 25.361,1.6076 0.24473,0.32473 9.3335,45.636 9.3289,46.508 -0.009,1.7733 -7.4091,7.9353 -9.5293,7.9353 -1.175,0 -1.1888,-0.13614 -0.20647,-2.0357 1.0271,-1.9861 1.0469,-5.5928 0.0434,-7.8659 -0.44885,-1.0166 -2.2712,-7.8983 -4.0497,-15.293 -1.7785,-7.3943 -3.3022,-13.513 -3.386,-13.596 -0.31628,-0.31628 -79.862,0.60952 -80.185,0.93325 -0.68444,0.68443 -8.1938,28.203 -8.4965,31.136 -0.25944,2.5136 -0.1307,3.3855 0.75674,5.125 l 1.0694,2.0961 h -3.0102 c -1.6556,0 -3.0102,-0.19083 -3.0102,-0.42406 z"
       style="fill:url(#linearGradient9692)"
       inkscape:connector-curvature="0" />
  </g>
  <metadata
     id="metadata36">
    <rdf:RDF>
      <cc:Work>
        <dc:format>image/svg+xml</dc:format>
        <dc:type
           rdf:resource="http://purl.org/dc/dcmitype/StillImage" />
        <cc:license
           rdf:resource="http://creativecommons.org/publicdomain/zero/1.0/" />
        <dc:publisher>
          <cc:Agent
             rdf:about="http://openclipart.org/">
            <dc:title>Openclipart</dc:title>
          </cc:Agent>
        </dc:publisher>
        <dc:title></dc:title>
        <dc:date>2013-07-28T07:52:50</dc:date>
        <dc:description>A blue suitcase, ready for traveling.</dc:description>
        <dc:source>https://openclipart.org/detail/181231/suitcase-by-cprostire-181231</dc:source>
        <dc:creator>
          <cc:Agent>
            <dc:title>cprostire</dc:title>
          </cc:Agent>
        </dc:creator>
        <dc:subject>
          <rdf:Bag>
            <rdf:li>bag</rdf:li>
            <rdf:li>baggage</rdf:li>
            <rdf:li>luggage</rdf:li>
            <rdf:li>travel</rdf:li>
          </rdf:Bag>
        </dc:subject>
      </cc:Work>
      <cc:License
         rdf:about="http://creativecommons.org/publicdomain/zero/1.0/">
        <cc:permits
           rdf:resource="http://creativecommons.org/ns#Reproduction" />
        <cc:permits
           rdf:resource="http://creativecommons.org/ns#Distribution" />
        <cc:permits
           rdf:resource="http://creativecommons.org/ns#DerivativeWorks" />
      </cc:License>
    </rdf:RDF>
  </metadata>
</svg>
