<?xml version="1.0" encoding="UTF-8" standalone="no"?>
<!-- Created with Inkscape (http://www.inkscape.org/) -->

<svg
   xmlns:dc="http://purl.org/dc/elements/1.1/"
   xmlns:cc="http://creativecommons.org/ns#"
   xmlns:rdf="http://www.w3.org/1999/02/22-rdf-syntax-ns#"
   xmlns:svg="http://www.w3.org/2000/svg"
   xmlns="http://www.w3.org/2000/svg"
   xmlns:sodipodi="http://sodipodi.sourceforge.net/DTD/sodipodi-0.dtd"
   xmlns:inkscape="http://www.inkscape.org/namespaces/inkscape"
   width="16"
   height="16.000002"
   id="svg2"
   version="1.1"
   inkscape:version="0.48.5 r10040"
   sodipodi:docname="bunker.svg">
  <defs
     id="defs4" />
  <sodipodi:namedview
     id="base"
     pagecolor="#ffffff"
     bordercolor="#666666"
     borderopacity="1.0"
     inkscape:pageopacity="0.0"
     inkscape:pageshadow="2"
     inkscape:zoom="11.313708"
     inkscape:cx="16.818484"
     inkscape:cy="4.5807355"
     inkscape:document-units="px"
     inkscape:current-layer="g3033"
     showgrid="false"
     fit-margin-top="0"
     fit-margin-left="0"
     fit-margin-right="0"
     fit-margin-bottom="0"
     inkscape:window-width="1680"
     inkscape:window-height="988"
     inkscape:window-x="-8"
     inkscape:window-y="-8"
     inkscape:window-maximized="1"
     inkscape:snap-global="true">
    <inkscape:grid
       type="xygrid"
       id="grid2991"
       empspacing="5"
       visible="true"
       enabled="true"
       snapvisiblegridlinesonly="true"
       originx="-0.015255946px"
       originy="-0.0083663458px" />
  </sodipodi:namedview>
  <metadata
     id="metadata7">
    <rdf:RDF>
      <cc:Work
         rdf:about="">
        <dc:format>image/svg+xml</dc:format>
        <dc:type
           rdf:resource="http://purl.org/dc/dcmitype/StillImage" />
        <dc:title></dc:title>
      </cc:Work>
    </rdf:RDF>
  </metadata>
  <g
     inkscape:label="Layer 1"
     inkscape:groupmode="layer"
     id="layer1"
     transform="translate(-354.57551,-255.08796)">
    <g
       id="g3033"
       transform="translate(353.12275,167.65883)">
      <path
         id="path3035"
         d="m 4.7439303,87.584796 9.4176517,0 c 1.734537,0 3.13551,1.400973 3.13551,3.135511 l 0,9.417653 c 0,1.73454 -1.400973,3.13551 -3.13551,3.13551 l -9.4176517,0 c -1.7345378,0 -3.1355107,-1.40097 -3.1355107,-3.13551 l 0,-9.417653 c 0,-1.734538 1.4009729,-3.135511 3.1355107,-3.135511 z"
         style="fill:#2c9e06;fill-opacity:1;fill-rule:evenodd;stroke:#000000;stroke-width:0.31132731px;stroke-linecap:round;stroke-linejoin:miter;stroke-miterlimit:4;stroke-opacity:1;stroke-dasharray:none"
         inkscape:connector-curvature="0" />
      <path
         style="fill:none;stroke:#000000;stroke-width:2.5;stroke-linecap:butt;stroke-linejoin:miter;stroke-miterlimit:4;stroke-opacity:1;stroke-dasharray:none"
         d="m 6.1875,101.40625 c -2.0310146,-3.586912 -2.9025066,-7.40966 0,-12"
         id="path2993"
         inkscape:connector-curvature="0"
         sodipodi:nodetypes="cc" />
      <path
         sodipodi:type="arc"
         style="fill:#ffffff;fill-opacity:1;stroke:none"
         id="path3867"
         sodipodi:cx="11"
         sodipodi:cy="89"
         sodipodi:rx="1"
         sodipodi:ry="1"
         d="m 12,89 c 0,0.552285 -0.447715,1 -1,1 -0.552285,0 -1,-0.447715 -1,-1 0,-0.552285 0.447715,-1 1,-1 0.552285,0 1,0.447715 1,1 z"
         transform="translate(1.4375,1.4375)" />
      <path
         transform="translate(-1.5625,3.4375)"
         sodipodi:type="arc"
         style="fill:#ffffff;fill-opacity:1;stroke:none"
         id="path3867-7"
         sodipodi:cx="11"
         sodipodi:cy="89"
         sodipodi:rx="1"
         sodipodi:ry="1"
         d="m 12,89 c 0,0.552285 -0.447715,1 -1,1 -0.552285,0 -1,-0.447715 -1,-1 0,-0.552285 0.447715,-1 1,-1 0.552285,0 1,0.447715 1,1 z" />
      <path
         transform="translate(2.4375,5.4375)"
         sodipodi:type="arc"
         style="fill:#ffffff;fill-opacity:1;stroke:none"
         id="path3867-7-6"
         sodipodi:cx="11"
         sodipodi:cy="89"
         sodipodi:rx="1"
         sodipodi:ry="1"
         d="m 12,89 c 0,0.552285 -0.447715,1 -1,1 -0.552285,0 -1,-0.447715 -1,-1 0,-0.552285 0.447715,-1 1,-1 0.552285,0 1,0.447715 1,1 z" />
      <path
         transform="translate(-1.5625,7.4375)"
         sodipodi:type="arc"
         style="fill:#ffffff;fill-opacity:1;stroke:none"
         id="path3867-7-1"
         sodipodi:cx="11"
         sodipodi:cy="89"
         sodipodi:rx="1"
         sodipodi:ry="1"
         d="m 12,89 c 0,0.552285 -0.447715,1 -1,1 -0.552285,0 -1,-0.447715 -1,-1 0,-0.552285 0.447715,-1 1,-1 0.552285,0 1,0.447715 1,1 z" />
      <path
         transform="translate(3.4375,11.4375)"
         sodipodi:type="arc"
         style="fill:#ffffff;fill-opacity:1;stroke:none"
         id="path3867-7-4"
         sodipodi:cx="11"
         sodipodi:cy="89"
         sodipodi:rx="1"
         sodipodi:ry="1"
         d="m 12,89 c 0,0.552285 -0.447715,1 -1,1 -0.552285,0 -1,-0.447715 -1,-1 0,-0.552285 0.447715,-1 1,-1 0.552285,0 1,0.447715 1,1 z" />
      <path
         transform="translate(4.4375,8.4375)"
         sodipodi:type="arc"
         style="fill:#ffffff;fill-opacity:1;stroke:none"
         id="path3867-7-2"
         sodipodi:cx="11"
         sodipodi:cy="89"
         sodipodi:rx="1"
         sodipodi:ry="1"
         d="m 12,89 c 0,0.552285 -0.447715,1 -1,1 -0.552285,0 -1,-0.447715 -1,-1 0,-0.552285 0.447715,-1 1,-1 0.552285,0 1,0.447715 1,1 z" />
      <path
         transform="translate(4.4375,2.4375)"
         sodipodi:type="arc"
         style="fill:#ffffff;fill-opacity:1;stroke:none"
         id="path3867-7-3"
         sodipodi:cx="11"
         sodipodi:cy="89"
         sodipodi:rx="1"
         sodipodi:ry="1"
         d="m 12,89 c 0,0.552285 -0.447715,1 -1,1 -0.552285,0 -1,-0.447715 -1,-1 0,-0.552285 0.447715,-1 1,-1 0.552285,0 1,0.447715 1,1 z" />
    </g>
  </g>
</svg>
