<?xml version="1.0" encoding="UTF-8" standalone="no"?>
<svg
   xmlns="http://www.w3.org/2000/svg"
   version="1.1"
   width="100%"
   height="100%"
   viewBox="0 0 16 16">
  <path
     d="m 5.8039383,9.6927765 -1.8884929,-3.3652691 -3.79805848,0 L 1.6612772,7.2415626 0.70680532,8.9238794 C 0.62540244,9.0764392 0.5847036,9.2357531 0.58470703,9.4018258 c -3.43e-6,0.1660797 0.040695,0.3253953 0.12209829,0.4779444 L 2.2091701,12.559182 C 2.2769334,12.365215 2.3446928,12.198926 2.4124615,12.06032 L 4.2811194,8.7787216 5.8039383,9.6927765 z M 2.9814254,12.393105 c -0.1086743,0.180023 -0.163009,0.373778 -0.1630043,0.581266 -4.7e-6,0.31863 0.1117699,0.588665 0.3353051,0.8101 0.2235314,0.221436 0.4908661,0.332152 0.8020048,0.332152 l 3.7373194,0 0,-3.094599 -3.9399889,0 c -0.027282,0.05537 -0.1289213,0.235383 -0.3049365,0.540063 l -0.4666996,0.831018 z m 5.0568471,-7.6648751 3.7776055,0 1.908946,-3.3646344 -1.543271,0.9140538 -0.955092,-1.68295137 c -0.176033,-0.3181934 -0.446676,-0.4772963 -0.811924,-0.477311 l -3.0059698,0 c 0.1218843,0.1382007 0.223528,0.2765969 0.3049363,0.4151914 L 9.5610903,3.8141746 9.2567744,4.0011689 8.0382725,4.7282299 z M 6.1900666,0.28346423 c -0.4334462,1.34e-5 -0.758422,0.1937693 -0.974926,0.5812673 L 3.3266474,4.1881632 C 4.043942,4.6175196 4.9172219,5.1299056 5.9464895,5.7253218 6.5555251,4.6591455 7.2120857,3.4959775 7.9161744,2.2358131 L 7.1649925,0.86473153 C 6.9484705,0.47723353 6.6234959,0.28347763 6.1900666,0.28346423 l 0,0 z m 4.8541764,10.69672377 0,-0.373991 0,-1.4325691 -1.8891123,3.3646361 1.8891123,3.344349 0,-1.807191 1.888493,0 c 0.365658,0 0.643117,-0.159314 0.832373,-0.477947 l 1.502986,-2.679408 c -0.202891,0.05537 -0.372095,0.08304 -0.507606,0.08304 l -3.716246,-0.02093 z m 2.802679,-5.6909754 c -0.06778,0.041425 -0.941266,0.5538077 -2.620461,1.5371574 0.83959,1.4815957 1.503175,2.6517361 1.990757,3.51043 l 1.522819,0 c 0.447057,2e-6 0.778848,-0.193963 0.995379,-0.5819044 0.202859,-0.3739848 0.196043,-0.7547351 -0.02046,-1.1422517 L 13.846927,5.2892126 z"
     id="path4"
     style="fill:#00AA00;stroke:#000000;stroke-width:0.3" />
</svg>
