<?xml version="1.0" encoding="UTF-8" standalone="no"?>
<!-- Created with Inkscape (http://www.inkscape.org/) -->

<svg
   xmlns:dc="http://purl.org/dc/elements/1.1/"
   xmlns:cc="http://creativecommons.org/ns#"
   xmlns:rdf="http://www.w3.org/1999/02/22-rdf-syntax-ns#"
   xmlns:svg="http://www.w3.org/2000/svg"
   xmlns="http://www.w3.org/2000/svg"
   xmlns:sodipodi="http://sodipodi.sourceforge.net/DTD/sodipodi-0.dtd"
   xmlns:inkscape="http://www.inkscape.org/namespaces/inkscape"
   id="svg2"
   viewBox="0 0 16 14"
   version="1.1"
   inkscape:version="0.92.2 (5c3e80d, 2017-08-06)"
   sodipodi:docname="11.svg"
   width="16"
   height="14">
  <defs
     id="defs9" />
  <sodipodi:namedview
     pagecolor="#ffffff"
     bordercolor="#666666"
     borderopacity="1"
     objecttolerance="10"
     gridtolerance="10"
     guidetolerance="10"
     inkscape:pageopacity="0"
     inkscape:pageshadow="2"
     inkscape:window-width="1680"
     inkscape:window-height="987"
     id="namedview7"
     showgrid="true"
     inkscape:zoom="16"
     inkscape:cx="12.907421"
     inkscape:cy="10.659988"
     inkscape:window-x="-8"
     inkscape:window-y="-8"
     inkscape:window-maximized="1"
     inkscape:current-layer="svg2">
    <inkscape:grid
       type="xygrid"
       id="grid816" />
  </sodipodi:namedview>
  <path
     style="fill:#eddbd0;fill-opacity:1;fill-rule:evenodd;stroke:none;stroke-width:0.16482463px;stroke-linecap:butt;stroke-linejoin:miter;stroke-opacity:1"
     d="m 1.5037065,13.115611 4.2010768,-0.964702 0.7733325,-0.365571 0.2299104,-0.213251 0.3971167,-0.01015 0.031353,-1.015475 -0.804684,-0.87331 -4.8594546,3.330761 0.052247,0.142166"
     id="path4147"
     inkscape:connector-curvature="0" />
  <path
     inkscape:connector-curvature="0"
     d="M 9.8548624,7.4168412 10.550661,7.1948011 M 9.6807831,7.1032753 10.136155,6.2278535 M 9.270524,6.9496543 c 0,0 0.057331,-0.7803079 -0.06925,-0.9294287 M 9.0291013,7.0796835 c 0,0 -0.4390189,-0.4632359 -0.718439,-0.6439093 m 0.5391259,0.989415 c 0,0 -0.7425503,-0.1791459 -0.935273,-0.2692719 M 8.92167,7.6921049 c 0,0 -0.5289257,0.3213456 -0.8484755,0.5240178 M 9.190021,7.9559988 c 0,0 -0.2139579,0.7356755 -0.3631073,0.9678863 M 9.9460731,7.9440888 c 0,0 0.4929599,0.9271376 0.4480979,1.1441902 m 0.05992,-1.594021 c 0,0 0.979565,0.4371094 1.155669,0.6151668 M 1.4324542,13.118597 c 0,0 -0.089665,-0.984898 1.0971454,-1.61823 1.186802,-0.633332 2.9538795,-1.948739 3.8554601,-1.792112 m -4.9304656,3.433121 c 0,0 0.2581828,-0.09187 0.4916538,0.163353 0.233471,0.25522 0.671219,0.67114 0.972794,0.604963 0.301558,-0.06616 0.27238,-0.330849 0.4669419,-0.378114 0.194562,-0.04726 0.457211,0.113431 0.466943,-0.160695 0.0097,-0.274126 -0.1751,-0.529347 0.321021,-0.519891 0.49612,0.0095 0.710128,0.425363 0.885244,0.198513 0.1750989,-0.226865 0.282112,-0.595523 0.564223,-0.869653 0.2821119,-0.27413 0.4474799,-0.217409 0.787964,-0.39701 0.3404829,-0.179602 0.1698151,-0.278729 0.6831745,-0.191365 M 11.80628,6.5069703 c 0,0 -0.932297,0.4037041 -1.261777,0.5049427 m 0.05262,-2.2810507 c 0,0 -0.524261,1.4390997 -0.6240666,1.3976359 M 9.4381786,4.3885573 c 0,0 0.075815,1.2258177 -0.021136,1.6207646 M 8.0550254,4.5409272 c 0,0 0.6940924,1.1160326 0.7315144,1.5653116 M 6.7396569,5.3335997 c 0,0 1.2773621,0.7250664 1.500868,1.1909016 M 5.9691835,6.824809 c 0,0 1.4636141,0.00428 1.9840797,0.3543277 m -1.9864203,1.587652 c 0,0 1.3701278,-0.737853 2.0551417,-0.661635 M 7.1122,10.593069 c 0,0 0.9469603,-1.559495 1.5286899,-1.768228 m 0.9198899,3.752354 c 0,0 -0.1338573,-1.068524 -0.1144013,-1.768066 0.019454,-0.699491 0.094247,-1.496616 0.1444019,-1.688776 m 3.3155816,2.845736 c 0,0 -0.502824,-0.287192 -0.814114,-0.759835 -0.31129,-0.472626 -1.340215,-2.2429833 -1.301272,-2.2636173 m 4.183253,1.0325363 c 0,0 -0.975353,-0.05452 -1.179645,-0.186864 -0.204295,-0.13234 -1.712035,-1.2572084 -1.712035,-1.2572084 0,0 -0.30766,-0.2225595 -0.469984,-0.4279456 m 4.017734,-2.9703224 c 0,0 -1.14475,0.6380277 -1.679762,0.7987167 -0.535029,0.1606951 -1.874725,0.2978841 -2.240909,0.234014 M 14.392832,2.700971 c 0,0 -1.171953,1.1036521 -1.522151,1.3399734 -0.350199,0.2363214 -1.259605,1.0063936 -1.768048,1.0467365 m 0.563421,-4.4725622 c 0,0 0.154044,0.552289 -0.04052,0.9587394 -0.194562,0.4064662 -1.337873,2.7954021 -1.61741,2.9242456 M 8.2394411,0.0887446 c 0,0 0.5844885,0.057618 0.7012325,0.7949308 0.116734,0.7373174 0.3345988,3.476665 0.1167961,3.4841387 M 4.8875102,0.8698979 c 0,0 0.8234946,-0.1563349 1.1542296,0.5242617 0.3307529,0.6805958 1.7618607,3.2157271 1.492791,3.3717044 M 2.1586407,2.7999189 c 0,0 0.9452712,-0.3660262 1.7819252,0.295658 0.836604,0.6616842 2.9567225,1.9770097 2.6723038,2.3690644 M 0.19429231,7.2994355 c 0,0 0.73086188,-1.0087332 1.52855689,-0.9330999 0.7976939,0.07562 4.1927167,0.4219993 4.1709791,0.94951 M 0.28657371,10.600333 c 0,0 0.19120157,-1.436078 1.35854049,-1.6250859 1.167339,-0.1890572 4.1462334,-0.9277873 4.2866875,-0.4006656 m -4.482043,4.5649415 c 0,0 -2.33415254,-2.590905 -0.90341208,-7.4034485 C 1.9771041,0.9235314 6.6545877,0.1750035 8.1127999,0.0947407 c 1.4582803,-0.08021 4.2923721,0.1871556 5.9156181,2.1388353 1.623364,1.9516631 2.228703,4.2510256 1.705847,6.1225885 -0.569808,2.0398885 -2.503759,3.7965805 -4.07216,4.1173085 -1.568336,0.320841 -3.3292607,0.133679 -4.5674286,-0.882295 l 0.02751,-0.989235 c 0,0 -1.0180404,-0.935766 -1.1831233,-1.9784729 C 5.773974,7.5807634 5.9115431,6.5647349 6.3517799,5.8162079 6.7920196,5.0675986 7.8925925,4.425932 8.8831272,4.3724611 9.873662,4.3189875 11.108151,4.715204 11.524497,5.6825381 11.95029,6.6717747 11.99863,7.3620544 11.634556,8.0620016 11.293772,8.7172193 10.699049,9.21165 9.7084981,9.131452 8.7179634,9.051241 8.1951912,8.6234701 7.9750629,7.9818035 7.7549515,7.3401361 8.1126368,6.3242212 8.772991,6.1102406 9.4333421,5.896357 10.166395,6.006935 10.409598,6.5740937 10.629809,7.0876485 10.643069,7.4531867 10.117755,7.8407579 9.7738762,8.0944643 9.2033326,8.1621517 8.9212206,7.6895151 8.6391086,7.2168882 9.2617047,6.7915096 9.5340846,6.9805668 c 0.27238,0.1890573 0.291843,0.3497462 0.321021,0.4348187"
     style="fill:#eddbd0;fill-opacity:1;stroke:#000000;stroke-width:0.16482463px"
     id="path3133"
     sodipodi:nodetypes="cccccccccccccccccccsccscssscssccccccccccccccccccscccccscccsccsccscccccccccccccccccsccccccscscccccssssc" />
  <metadata
     id="metadata5">
    <rdf:RDF>
      <cc:Work>
        <dc:format>image/svg+xml</dc:format>
        <dc:type
           rdf:resource="http://purl.org/dc/dcmitype/StillImage" />
        <cc:license
           rdf:resource="http://creativecommons.org/publicdomain/zero/1.0/" />
        <dc:publisher>
          <cc:Agent
             rdf:about="http://openclipart.org/">
            <dc:title>Openclipart</dc:title>
          </cc:Agent>
        </dc:publisher>
        <dc:title></dc:title>
        <dc:date>2013-01-27T07:14:26</dc:date>
        <dc:description />
        <dc:source>https://openclipart.org/detail/174552/ammonite-by-gosc-174552</dc:source>
        <dc:creator>
          <cc:Agent>
            <dc:title>Gosc</dc:title>
          </cc:Agent>
        </dc:creator>
        <dc:subject>
          <rdf:Bag>
            <rdf:li>Ammonit</rdf:li>
            <rdf:li>Ammonshorn</rdf:li>
            <rdf:li>Fossil</rdf:li>
            <rdf:li>Paläontologie</rdf:li>
            <rdf:li>ammonite</rdf:li>
            <rdf:li>animal</rdf:li>
            <rdf:li>biology</rdf:li>
            <rdf:li>black and white</rdf:li>
            <rdf:li>cephalopoda</rdf:li>
            <rdf:li>ceratite</rdf:li>
            <rdf:li>contour</rdf:li>
            <rdf:li>evolution</rdf:li>
            <rdf:li>extinct</rdf:li>
            <rdf:li>fossil</rdf:li>
            <rdf:li>geology</rdf:li>
            <rdf:li>line art</rdf:li>
            <rdf:li>outline</rdf:li>
            <rdf:li>palaeontology</rdf:li>
            <rdf:li>paleontology</rdf:li>
            <rdf:li>shell</rdf:li>
          </rdf:Bag>
        </dc:subject>
      </cc:Work>
      <cc:License
         rdf:about="http://creativecommons.org/publicdomain/zero/1.0/">
        <cc:permits
           rdf:resource="http://creativecommons.org/ns#Reproduction" />
        <cc:permits
           rdf:resource="http://creativecommons.org/ns#Distribution" />
        <cc:permits
           rdf:resource="http://creativecommons.org/ns#DerivativeWorks" />
      </cc:License>
    </rdf:RDF>
  </metadata>
</svg>
