<?xml version="1.0" encoding="UTF-8" standalone="no"?>
<!-- Created with Inkscape (http://www.inkscape.org/) -->

<svg
   width="160"
   height="120"
   viewBox="0 0 160 120"
   id="svg2"
   version="1.1"
   inkscape:version="1.1 (c68e22c387, 2021-05-23)"
   sodipodi:docname="billboard2.svg"
   xmlns:inkscape="http://www.inkscape.org/namespaces/inkscape"
   xmlns:sodipodi="http://sodipodi.sourceforge.net/DTD/sodipodi-0.dtd"
   xmlns:xlink="http://www.w3.org/1999/xlink"
   xmlns="http://www.w3.org/2000/svg"
   xmlns:svg="http://www.w3.org/2000/svg"
   xmlns:rdf="http://www.w3.org/1999/02/22-rdf-syntax-ns#"
   xmlns:cc="http://creativecommons.org/ns#"
   xmlns:dc="http://purl.org/dc/elements/1.1/">
  <defs
     id="defs4">
    <linearGradient
       inkscape:collect="always"
       xlink:href="#linearGradient4347"
       id="linearGradient3096"
       gradientUnits="userSpaceOnUse"
       gradientTransform="matrix(0.17197244,0,0,0.13798973,9.3315376,948.21259)"
       x1="357.79999"
       y1="556.90997"
       x2="456.60001"
       y2="556.90997" />
    <linearGradient
       id="linearGradient4347"
       y2="556.90997"
       gradientUnits="userSpaceOnUse"
       x2="456.60001"
       gradientTransform="matrix(1.0492,0,0,0.83928,66.33,399.54)"
       y1="556.90997"
       x1="357.79999">
      <stop
         id="stop3825"
         style="stop-color:#8a8a8a"
         offset="0" />
      <stop
         id="stop3827"
         style="stop-color:#676767"
         offset=".071429" />
      <stop
         id="stop3829"
         style="stop-color:#878787"
         offset=".14286" />
      <stop
         id="stop3831"
         style="stop-color:#b5b5b5"
         offset=".21429" />
      <stop
         id="stop3833"
         style="stop-color:#d7d7d7"
         offset=".28571" />
      <stop
         id="stop3835"
         style="stop-color:#d5d5d5"
         offset=".35714" />
      <stop
         id="stop3837"
         style="stop-color:#c3c3c3"
         offset=".42857" />
      <stop
         id="stop3839"
         style="stop-color:#b3b3b3"
         offset=".5" />
      <stop
         id="stop3841"
         style="stop-color:#a3a3a3"
         offset=".57143" />
      <stop
         id="stop3843"
         style="stop-color:#929292"
         offset=".64286" />
      <stop
         id="stop3845"
         style="stop-color:#7a7a7a"
         offset=".71429" />
      <stop
         id="stop3847"
         style="stop-color:#696969"
         offset=".78571" />
      <stop
         id="stop3849"
         style="stop-color:#686868"
         offset=".85714" />
      <stop
         id="stop3851"
         style="stop-color:#656565"
         offset=".92857" />
      <stop
         id="stop3853"
         style="stop-color:#797979"
         offset="1" />
    </linearGradient>
    <linearGradient
       inkscape:collect="always"
       xlink:href="#linearGradient4353"
       id="linearGradient3098"
       gradientUnits="userSpaceOnUse"
       gradientTransform="translate(3.2022,122.35)"
       x1="446.25"
       y1="689.37"
       x2="446.25"
       y2="715.01001" />
    <linearGradient
       id="linearGradient4353"
       y2="715.01001"
       gradientUnits="userSpaceOnUse"
       x2="446.25"
       gradientTransform="translate(3.2022,122.35)"
       y1="689.37"
       x1="446.25">
      <stop
         id="stop4109"
         style="stop-color:#717171"
         offset="0" />
      <stop
         id="stop4111"
         style="stop-color:#e3e3e3"
         offset="1" />
    </linearGradient>
  </defs>
  <sodipodi:namedview
     id="base"
     pagecolor="#ffffff"
     bordercolor="#666666"
     borderopacity="1.0"
     inkscape:pageopacity="0.0"
     inkscape:pageshadow="2"
     inkscape:zoom="4.2951213"
     inkscape:cx="47.612159"
     inkscape:cy="17.810906"
     inkscape:document-units="px"
     inkscape:current-layer="layer1"
     showgrid="true"
     units="px"
     inkscape:window-width="1680"
     inkscape:window-height="987"
     inkscape:window-x="-8"
     inkscape:window-y="-8"
     inkscape:window-maximized="1"
     viewbox-height="16"
     inkscape:pagecheckerboard="0">
    <inkscape:grid
       type="xygrid"
       id="grid4136"
       originx="0"
       originy="0"
       spacingx="1"
       spacingy="1" />
  </sodipodi:namedview>
  <metadata
     id="metadata7">
    <rdf:RDF>
      <cc:Work
         rdf:about="">
        <dc:format>image/svg+xml</dc:format>
        <dc:type
           rdf:resource="http://purl.org/dc/dcmitype/StillImage" />
        <cc:license
           rdf:resource="http://creativecommons.org/publicdomain/zero/1.0/" />
      </cc:Work>
      <cc:License
         rdf:about="http://creativecommons.org/publicdomain/zero/1.0/">
        <cc:permits
           rdf:resource="http://creativecommons.org/ns#Reproduction" />
        <cc:permits
           rdf:resource="http://creativecommons.org/ns#Distribution" />
        <cc:permits
           rdf:resource="http://creativecommons.org/ns#DerivativeWorks" />
      </cc:License>
    </rdf:RDF>
  </metadata>
  <g
     inkscape:label="Layer 1"
     inkscape:groupmode="layer"
     id="layer1"
     transform="translate(0,-933.3622)">
    <rect
       id="rect2985"
       style="fill:url(#linearGradient3096);fill-rule:evenodd;stroke-width:0.16416109"
       rx="2.1065476"
       ry="1.9469956"
       height="56.602951"
       width="15.704368"
       y="996.75928"
       x="72.149345" />
    <g
       transform="matrix(0.16390816,0,0,0.17679483,-1.1905774,859.07004)"
       id="g4132">
      <g
         transform="matrix(1,0,0,0.83333,21.422,173.53)"
         id="g4125">
        <rect
           x="33.09"
           y="740.15002"
           width="16.011"
           height="25.618"
           style="fill:#000000;fill-rule:evenodd"
           id="rect4115" />
        <rect
           x="898.76001"
           y="740.15002"
           width="16.011"
           height="25.618"
           style="fill:#000000;fill-rule:evenodd"
           id="rect4117" />
        <rect
           x="682.34003"
           y="740.15002"
           width="16.011"
           height="25.618"
           style="fill:#000000;fill-rule:evenodd"
           id="rect4119" />
        <rect
           x="249.50999"
           y="740.15002"
           width="16.011"
           height="25.618"
           style="fill:#000000;fill-rule:evenodd"
           id="rect4121" />
        <rect
           x="465.92001"
           y="740.15002"
           width="16.011"
           height="25.618"
           style="fill:#000000;fill-rule:evenodd"
           id="rect4123" />
      </g>
      <path
         inkscape:connector-curvature="0"
         d="m 966.48,812.6 9.1053,-0.0628 6.5646,23.891 -13.718,-0.2011 -473.09,0.061 -473.09,0.0242 -13.718,0.20109 6.5646,-23.891 9.1053,0.0628 471.13,-0.0833 z"
         style="fill:url(#linearGradient3098);stroke:#000000;stroke-width:1.92869997"
         id="path4083-2" />
    </g>
    <g
       transform="matrix(0.16390816,0,0,0.17679483,-0.80065643,878.69604)"
       id="g4071"
       style="fill:#803300">
      <rect
         x="14.971"
         y="312.10001"
         width="956"
         height="366"
         style="fill:#803300;stroke:#000000;stroke-width:5.78609991"
         id="rect4043" />
      <rect
         x="20.938"
         y="317.76999"
         width="944.06"
         height="354.66"
         style="fill:#803300;fill-rule:evenodd;stroke:#828282;stroke-width:5.78609991"
         id="rect4043-1" />
    </g>
    <g
       aria-label="JOSM"
       transform="scale(1.0158361,0.98441078)"
       id="text3111"
       style="fill:#ffcc00;stroke-width:0.164161">
      <path
         d="m 19.214839,990.08353 q 0,2.07223 -0.376769,3.7946 -0.376769,1.72238 -1.291781,2.93342 -0.915011,1.21105 -2.422089,1.88385 -1.480165,0.64589 -3.686957,0.64589 -0.753539,0 -1.5070778,-0.13456 -0.7266266,-0.10765 -1.3456049,-0.32295 -0.6189783,-0.18838 -1.076484,-0.40368 -0.4575056,-0.24221 -0.6189782,-0.40368 -0.1345605,-0.16147 -0.2422089,-0.32294 -0.080736,-0.16148 -0.1614726,-0.37677 -0.053824,-0.24221 -0.080736,-0.56516 -0.026912,-0.34985 -0.026912,-0.83427 0,-0.59207 0.026912,-0.96884 0.053824,-0.40368 0.1614726,-0.61898 0.1076484,-0.2422 0.2422089,-0.32294 0.1614726,-0.10765 0.3767694,-0.10765 0.2152968,0 0.5382419,0.2153 0.3498573,0.18838 0.807363,0.43059 0.4844178,0.24221 1.103396,0.45751 0.6189779,0.18838 1.4532529,0.18838 0.915012,0 1.560902,-0.2153 0.645891,-0.2422 1.076484,-0.86118 0.430594,-0.61898 0.645891,-1.69546 0.215296,-1.1034 0.215296,-2.85269 v -24.9206 q 0,-0.18839 0.107649,-0.34986 0.107648,-0.16147 0.376769,-0.26912 0.269121,-0.10765 0.699715,-0.16147 0.457505,-0.0538 1.130308,-0.0538 0.64589,0 1.103396,0.0538 0.457506,0.0538 0.699714,0.16147 0.269121,0.10765 0.37677,0.26912 0.13456,0.16147 0.13456,0.34986 z"
         id="path5642" />
      <path
         d="m 64.265346,981.04106 q 0,4.2252 -0.995748,7.61613 -0.995747,3.39092 -2.987243,5.7861 -1.964583,2.36826 -4.951826,3.66004 -2.987243,1.26487 -6.970233,1.26487 -3.929167,0 -6.808761,-1.15722 -2.852683,-1.18413 -4.73653,-3.41783 -1.856935,-2.23371 -2.771946,-5.5439 -0.915011,-3.31018 -0.915011,-7.61612 0,-4.11755 0.995747,-7.48156 0.995748,-3.36402 2.987243,-5.70537 1.991496,-2.36826 4.978739,-3.63313 2.987243,-1.29178 6.970233,-1.29178 3.84843,0 6.701113,1.15722 2.852682,1.15722 4.736529,3.39092 1.910759,2.20679 2.82577,5.49007 0.941924,3.25636 0.941924,7.48156 z m -4.87109,0.32295 q 0,-2.96033 -0.538242,-5.49007 -0.51133,-2.55665 -1.749286,-4.41358 -1.211045,-1.88385 -3.256364,-2.93342 -2.04532,-1.04957 -5.059475,-1.04957 -3.014155,0 -5.059474,1.1303 -2.04532,1.13031 -3.337101,3.01416 -1.264868,1.88385 -1.830022,4.41358 -0.538242,2.50283 -0.538242,5.27477 0,3.06798 0.51133,5.65154 0.511329,2.58357 1.722374,4.46741 1.211044,1.85694 3.229452,2.90651 2.045319,1.02266 5.113298,1.02266 3.041068,0 5.113299,-1.13031 2.072232,-1.13031 3.3371,-3.04107 1.264869,-1.93767 1.803111,-4.4674 0.538242,-2.52974 0.538242,-5.35551 z"
         id="path5644" />
      <path
         d="m 96.990114,989.08778 q 0,2.449 -0.915011,4.35976 -0.888099,1.91076 -2.502825,3.25636 -1.587814,1.3187 -3.767694,1.9915 -2.152968,0.6728 -4.655793,0.6728 -1.749286,0 -3.256364,-0.29603 -1.480165,-0.29603 -2.664298,-0.72663 -1.15722,-0.43059 -1.964583,-0.8881 -0.780451,-0.4575 -1.103396,-0.78045 -0.296033,-0.32294 -0.457506,-0.80736 -0.13456,-0.51133 -0.13456,-1.34561 0,-0.59206 0.05382,-0.96883 0.05382,-0.40368 0.161473,-0.64589 0.107648,-0.24221 0.269121,-0.32295 0.161472,-0.10764 0.376769,-0.10764 0.376769,0 1.049572,0.4575 0.699714,0.45751 1.776198,0.99575 1.076484,0.53824 2.583562,1.02266 1.533989,0.4575 3.525485,0.4575 1.507077,0 2.745034,-0.40368 1.264868,-0.40368 2.152968,-1.13031 0.915011,-0.75353 1.399429,-1.83002 0.484418,-1.07648 0.484418,-2.449 0,-1.48016 -0.672803,-2.52974 -0.672802,-1.04957 -1.776198,-1.83002 -1.103396,-0.80736 -2.529738,-1.45325 -1.399429,-0.67281 -2.879594,-1.34561 -1.480166,-0.69971 -2.879595,-1.53399 -1.399429,-0.83427 -2.502825,-1.96458 -1.103396,-1.13031 -1.803111,-2.63739 -0.672802,-1.53399 -0.672802,-3.66004 0,-2.17988 0.780451,-3.87534 0.807363,-1.72238 2.206792,-2.8796 1.426341,-1.15722 3.364012,-1.74928 1.964583,-0.61898 4.2252,-0.61898 1.15722,0 2.31444,0.21529 1.184133,0.18839 2.206792,0.53825 1.049572,0.32294 1.856935,0.75353 0.807363,0.40369 1.049572,0.67281 0.269121,0.24221 0.349857,0.40368 0.08074,0.13456 0.134561,0.37677 0.05382,0.21529 0.08074,0.53824 0.02691,0.32294 0.02691,0.83427 0,0.48442 -0.05382,0.86119 -0.02691,0.37677 -0.107648,0.64589 -0.08074,0.24221 -0.242209,0.37677 -0.134561,0.10765 -0.322945,0.10765 -0.296034,0 -0.941924,-0.37677 -0.618978,-0.37677 -1.53399,-0.83427 -0.915011,-0.48442 -2.17988,-0.86119 -1.237956,-0.40368 -2.798858,-0.40368 -1.453253,0 -2.529737,0.40368 -1.076484,0.37677 -1.776199,1.02266 -0.699714,0.64589 -1.049571,1.53399 -0.349858,0.8881 -0.349858,1.88384 0,1.45326 0.672803,2.50283 0.672802,1.04957 1.776198,1.85693 1.130308,0.80737 2.55665,1.48017 1.426341,0.6728 2.906506,1.37252 1.480166,0.6728 2.906507,1.50707 1.426341,0.80737 2.529737,1.93768 1.130308,1.10339 1.803111,2.63738 0.699714,1.50708 0.699714,3.57931 z"
         id="path5646" />
      <path
         d="m 147.50875,998.15716 c 0,0.14353 -0.0368,0.26912 -0.11035,0.37677 -0.0736,0.10765 -0.2023,0.19735 -0.38623,0.26912 -0.18391,0.0538 -0.42301,0.0987 -0.71728,0.13456 -0.27588,0.0538 -0.6437,0.0807 -1.1035,0.0807 -0.42301,0 -0.79085,-0.0269 -1.1035,-0.0807 -0.29427,-0.0359 -0.53336,-0.0807 -0.71728,-0.13456 -0.16553,-0.0718 -0.28507,-0.16147 -0.35865,-0.26912 -0.0736,-0.10765 -0.11034,-0.23324 -0.11034,-0.37677 v -30.32994 h -0.0551 l -12.71789,30.4645 c -0.0551,0.12559 -0.1379,0.23323 -0.24829,0.32294 -0.0919,0.0897 -0.23908,0.17044 -0.44139,0.24221 -0.18392,0.0538 -0.41382,0.0897 -0.68969,0.10765 -0.25749,0.0359 -0.57014,0.0538 -0.93798,0.0538 -0.38622,0 -0.71728,-0.0179 -0.99316,-0.0538 -0.27587,-0.0359 -0.50576,-0.0807 -0.68968,-0.13456 -0.18392,-0.0718 -0.33105,-0.1525 -0.4414,-0.24221 -0.0919,-0.0897 -0.15633,-0.18838 -0.19312,-0.29603 l -12.16613,-30.4645 h -0.0276 v 30.32994 c 0,0.14353 -0.0368,0.26912 -0.11034,0.37677 -0.0736,0.10765 -0.20231,0.19735 -0.38623,0.26912 -0.18392,0.0538 -0.42302,0.0987 -0.71728,0.13456 -0.29427,0.0538 -0.67129,0.0807 -1.13109,0.0807 -0.44141,0 -0.80924,-0.0269 -1.10351,-0.0807 -0.29427,-0.0359 -0.53335,-0.0807 -0.71727,-0.13456 -0.16553,-0.0718 -0.28507,-0.16147 -0.35864,-0.26912 -0.0551,-0.10765 -0.0827,-0.23324 -0.0827,-0.37677 v -32.0254 c 0,-0.75354 0.20231,-1.29178 0.60693,-1.61473 0.40463,-0.32294 0.85522,-0.48441 1.35179,-0.48441 h 2.86911 c 0.58854,0 1.10351,0.0538 1.54491,0.16147 0.44141,0.10765 0.82764,0.27809 1.15868,0.51133 0.33105,0.23324 0.60692,0.52927 0.82763,0.8881 0.2207,0.35883 0.41381,0.78045 0.57933,1.26487 l 10.34536,25.21663 h 0.13793 l 10.75917,-25.1359 c 0.20231,-0.53824 0.42301,-0.99574 0.6621,-1.37251 0.2391,-0.37677 0.49658,-0.67281 0.77246,-0.8881 0.29426,-0.23324 0.61612,-0.39471 0.96556,-0.48442 0.34945,-0.10765 0.75406,-0.16147 1.21385,-0.16147 h 3.00705 c 0.27588,0 0.53336,0.0448 0.77246,0.13456 0.25748,0.0718 0.46899,0.19736 0.63451,0.37677 0.18393,0.16147 0.33106,0.37677 0.4414,0.64589 0.11036,0.25118 0.16553,0.56515 0.16553,0.94192 z"
         id="path5648"
         sodipodi:nodetypes="csccsccssccccccsscccccssccscccssssssssccccsccssccccc"
         style="stroke-width:0.166208" />
    </g>
  </g>
</svg>
