<?xml version="1.0" encoding="UTF-8" standalone="no"?>
<!-- Created with Inkscape (http://www.inkscape.org/) -->

<svg
   xmlns:i="http://ns.adobe.com/AdobeIllustrator/10.0/"
   xmlns:dc="http://purl.org/dc/elements/1.1/"
   xmlns:cc="http://creativecommons.org/ns#"
   xmlns:rdf="http://www.w3.org/1999/02/22-rdf-syntax-ns#"
   xmlns:svg="http://www.w3.org/2000/svg"
   xmlns="http://www.w3.org/2000/svg"
   xmlns:sodipodi="http://sodipodi.sourceforge.net/DTD/sodipodi-0.dtd"
   xmlns:inkscape="http://www.inkscape.org/namespaces/inkscape"
   width="16"
   height="16"
   viewBox="0 0 16 16"
   id="svg2"
   version="1.1"
   inkscape:version="0.92.2 (5c3e80d, 2017-08-06)"
   sodipodi:docname="resort2.svg">
  <defs
     id="defs4" />
  <sodipodi:namedview
     id="base"
     pagecolor="#ffffff"
     bordercolor="#666666"
     borderopacity="1.0"
     inkscape:pageopacity="0.0"
     inkscape:pageshadow="2"
     inkscape:zoom="34.36097"
     inkscape:cx="10.70257"
     inkscape:cy="8.5478123"
     inkscape:document-units="px"
     inkscape:current-layer="layer1"
     showgrid="true"
     units="px"
     inkscape:window-width="1680"
     inkscape:window-height="987"
     inkscape:window-x="-8"
     inkscape:window-y="-8"
     inkscape:window-maximized="1"
     viewbox-height="16">
    <inkscape:grid
       type="xygrid"
       id="grid4136"
       originx="0"
       originy="0"
       spacingx="1"
       spacingy="1" />
  </sodipodi:namedview>
  <metadata
     id="metadata7">
    <rdf:RDF>
      <cc:Work
         rdf:about="">
        <dc:format>image/svg+xml</dc:format>
        <dc:type
           rdf:resource="http://purl.org/dc/dcmitype/StillImage" />
        <dc:title></dc:title>
        <cc:license
           rdf:resource="http://creativecommons.org/publicdomain/zero/1.0/" />
      </cc:Work>
      <cc:License
         rdf:about="http://creativecommons.org/publicdomain/zero/1.0/">
        <cc:permits
           rdf:resource="http://creativecommons.org/ns#Reproduction" />
        <cc:permits
           rdf:resource="http://creativecommons.org/ns#Distribution" />
        <cc:permits
           rdf:resource="http://creativecommons.org/ns#DerivativeWorks" />
      </cc:License>
    </rdf:RDF>
  </metadata>
  <g
     inkscape:label="Layer 1"
     inkscape:groupmode="layer"
     id="layer1"
     transform="translate(0,-1037.3622)">
    <g
       id="g844"
       transform="matrix(0.69841644,-0.22734186,0.22440253,0.70756459,-231.3654,304.96041)">
      <g
         style="fill:#ff0000"
         id="g4138"
         transform="matrix(0.07241444,0.04389037,-0.04761145,0.08104442,2.1306223,998.39328)">
        <path
           id="path4140"
           sodipodi:nodetypes="cssssccssccccc"
           style="fill:#ff0000"
           d="m 381.8346,391.5447 c 2.4325,-4.1228 9.1607,-9.6569 15.741,-12.947 5.4113,-2.7058 18.38,-5.7362 24.548,-5.7362 2.1087,0 4.0946,-0.42155 4.413,-0.93678 1.978,-3.2004 -7.978,-18.9 -17.189,-27.106 -10.016,-8.9227 -32.972,-17.444 -50.772,-18.846 -10.97032,-0.41058 -34.00566,-5.55473 -20.0232,7.7787 5.8647,5.5466 12.07,13.783 17.049,22.628 1.6641,2.9566 3.9407,6.412 5.0592,7.6788 1.1184,1.2668 2.5913,3.61 3.273,5.2071 0.68172,1.5971 2.71,5.1971 4.5072,8 7.2938,11.375 8.3793,13.215 9.0598,15.359 0.97561,3.0739 2.0403,2.8086 4.3346,-1.08 z"
           inkscape:connector-curvature="0" />
      </g>
      <g
         style="fill:#ffff00"
         id="g4157"
         transform="matrix(0.07241444,0.04389037,-0.04761145,0.08104442,6.7344716,1011.9346)">
        <path
           id="path4159"
           sodipodi:nodetypes="ssssssssssccs"
           style="fill:#ffff00"
           d="m 178.89758,304.18379 c 15.289,-9.4066 43.924,-13.906 60.469,-9.5019 2.9128,0.77536 5.9073,1.4151 6.6544,1.4216 2.4294,0.0212 0.34225,-4.7685 -7.4101,-17.005 -4.0966,-6.4662 -7.4483,-12.069 -7.4483,-12.45 0,-0.38144 -1.6397,-3.2448 -3.6438,-6.363 -2.0041,-3.1182 -5.1509,-8.0202 -6.9929,-10.893 -6.5564,-10.227 -19.363,-21.805 -19.363,-17.506 0,0.42333 -2.0044,3.4495 -4.4543,6.7249 -5.8713,7.8497 -13.574,23.366 -18.37,37.005 -4.9976,14.213 -7.5892,31.5 -4.7224,31.5 0.284,0 2.6606,-1.3192 5.2814,-2.9316 z"
           inkscape:connector-curvature="0" />
      </g>
      <g
         style="fill:#ff0000"
         id="g4161"
         transform="matrix(0.07169747,0.04345581,-0.04714005,0.080242,21.469125,1024.7112)">
        <path
           id="path4163"
           sodipodi:nodetypes="ssssssssssccss"
           style="fill:#ff0000"
           d="m -56.626918,263.82726 c 1.628019,-11.45138 7.598129,-28.84055 14.544,-42.36344 1.594285,-3.10363 4.046767,-7.91548 5.449859,-10.69287 1.403092,-2.7775 3.848302,-6.38613 5.4338,-8.0192 5.353,-5.51379 4.507226,-5.76165 -12.30988,-3.60641 -11.16858,1.43127 -15.61561,2.52924 -24.239998,5.98566 -12.40987,4.97345 -25.62471,14.42078 -34.816713,24.88943 -7.22393,8.22817 -13.07142,21.05951 -14.13899,31.02417 -0.81102,7.57319 -0.64482,7.73509 5.34795,5.20807 4.75609,-2.00556 17.804273,-2.40128 31.025173,-0.94089 10.37876,1.14635 13.02092,2.06252 18.07294,6.26625 1.607415,1.33754 3.258561,2.06534 3.669126,1.61741 0.410555,-0.44791 1.293709,-4.66368 1.962531,-9.36836 z"
           inkscape:connector-curvature="0" />
      </g>
      <g
         style="fill:#4d4d4d"
         transform="matrix(0.07169747,0.04345581,-0.04714005,0.080242,2.2707564,998.84718)"
         id="g4">
        <path
           inkscape:connector-curvature="0"
           d="m 335.05307,467.84424 c -1.2707,-54.675 -0.4699,-68.38848 -1.36247,-70.06048 -0.8216,-1.539 -0.52368,-1.01446 -4.13678,-0.47256 -5.2256,0.78363 -20.121,6.6669 -25.539,10.087 -5.0991,3.2189 -7.9468,3.107 -11.351,-0.44606 -1.5322,-1.5992 -5.4939,-4.1231 -8.8039,-5.6085 -5.367,-2.4085 -7.5473,-2.7534 -20.151,-3.1878 -14.043,-0.48388 -14.181,-0.46714 -21.521,2.6085 -7.4181,3.1083 -10.13,3.7386 -10.092,2.3455 0.0114,-0.4125 0.88492,-5.989 1.9412,-12.392 3.0216,-18.318 5.4827,-22.768 21.06,-38.084 7.1189,-6.9996 14.829,-13.917 17.134,-15.372 4.5676,-2.8834 18.68,-8.0123 25.844,-9.3927 2.475,-0.4769 6.3,-1.3186 8.5,-1.8704 2.2,-0.55184 7.5291,-1.2103 11.842,-1.4633 8.4823,-0.49752 9.3159,-0.89336 9.8228,-4.6648 0.4098,-3.0486 3.8347,-4.1257 3.8347,-1.206 0,3.7239 2.0278,4.2259 13.465,3.3333 8.7138,-0.68007 12.633,-0.50409 20.41,0.91647 12.504,2.284 24.881,6.2471 33.625,10.767 11.962,6.1828 28.881,25.097 31.624,35.353 1.7558,6.5649 0.92455,7.9317 -4.3817,7.2044 -11.712,-1.6053 -34.13,6.964 -39.808,15.217 -1.5934,2.3159 -4.0718,5.0665 -5.5076,6.1124 -2.5866,1.8842 -2.7083,1.876 -13.269,-0.89529 -11.531,-3.0259 -15.80647,-3.90855 -17.69147,-2.02355 -0.89903,0.89903 -0.55654,13.56859 -0.55654,48.50859 0,0 -0.0195,31.89332 -0.0305,46.27432 -0.54473,5.051 -3.53518,6.95449 -7.16516,8.97117 -3.38248,-1.15519 -7.26946,-10.16657 -7.73556,-30.55921 z M 305.81,401.93 c 15.289,-9.4066 43.924,-13.906 60.469,-9.5019 2.9128,0.77536 5.9073,1.4151 6.6544,1.4216 2.4294,0.0212 0.34225,-4.7685 -7.4101,-17.005 -4.0966,-6.4662 -7.4483,-12.069 -7.4483,-12.45 0,-0.38144 -1.6397,-3.2448 -3.6438,-6.363 -2.0041,-3.1182 -5.1509,-8.0202 -6.9929,-10.893 -6.5564,-10.227 -19.363,-21.805 -19.363,-17.506 0,0.42333 -2.0044,3.4495 -4.4543,6.7249 -5.8713,7.8497 -13.574,23.366 -18.37,37.005 -4.9976,14.213 -7.5892,31.5 -4.7224,31.5 0.284,0 2.6606,-1.3192 5.2814,-2.9316 z m -8.7654,-8.0377 c 1.6119,-11.338 7.5229,-28.555 14.4,-41.944 1.5785,-3.0729 4.0067,-7.8371 5.3959,-10.587 1.3892,-2.75 3.8102,-6.3229 5.38,-7.9398 5.3,-5.4592 4.4626,-5.7046 -12.188,-3.5707 -11.058,1.4171 -15.461,2.5042 -24,5.9264 -12.287,4.9242 -25.371,14.278 -34.472,24.643 -7.1524,8.1467 -12.942,20.851 -13.999,30.717 -0.80299,7.4982 -0.63843,7.6585 5.295,5.1565 4.709,-1.9857 17.628,-2.3775 30.718,-0.93157 10.276,1.135 12.892,2.0421 17.894,6.2042 1.5915,1.3243 3.2263,2.0449 3.6328,1.6014 0.40649,-0.44348 1.2809,-4.6175 1.9431,-9.2756 z m 84.79,-2.3476 c 2.4325,-4.1228 9.1607,-9.6569 15.741,-12.947 5.4113,-2.7058 18.38,-5.7362 24.548,-5.7362 2.1087,0 4.0946,-0.42155 4.413,-0.93678 1.978,-3.2004 -7.978,-18.9 -17.189,-27.106 -10.016,-8.9227 -32.972,-17.444 -50.772,-18.846 -11.423,-0.89988 -24.673,-0.12741 -25.198,1.469 -0.19533,0.59388 2.1333,3.4333 5.1748,6.3097 5.8647,5.5466 12.07,13.783 17.049,22.628 1.6641,2.9566 3.9407,6.412 5.0592,7.6788 1.1184,1.2668 2.5913,3.61 3.273,5.2071 0.68172,1.5971 2.71,5.1971 4.5072,8 7.2938,11.375 8.3793,13.215 9.0598,15.359 0.97561,3.0739 2.0403,2.8086 4.3346,-1.08 z"
           style="fill:#4d4d4d"
           sodipodi:nodetypes="csssssssssssssssssssssssssccccssssssssssccsssssssssssccsscsssssssssccccc"
           id="path2954" />
      </g>
    </g>
    <g
       transform="matrix(0.05735138,0,0,0.05735138,9.0240139,1044.1088)"
       style="overflow:visible"
       id="g1155">
      <path
         inkscape:connector-curvature="0"
         style="fill:#ffbf00;stroke-width:0.58340621"
         id="path3"
         d="m 65.899527,24.866561 c 0.14328,-0.0432 0.265274,-0.11948 0.377492,-0.21175 -0.150766,0.0497 -0.27276,0.12362 -0.377492,0.21175 z" />
      <path
         inkscape:connector-curvature="0"
         style="fill:#ffbf00;stroke-width:0.58340621"
         id="path5"
         d="m 65.292438,11.496761 c -0.0018,0.004 -0.0037,0.009 -0.0065,0.013 0.03046,-0.0183 0.02594,-0.0195 0.0065,-0.013 z" />
      <path
         inkscape:connector-curvature="0"
         style="fill:#ff7f00;stroke-width:0.58340621"
         id="path7"
         d="m 114.78572,98.197605 c -3.29268,-11.198487 -6.24126,-22.394005 -7.73281,-34.014813 -0.71758,-5.593028 -1.06744,-11.281287 -0.88906,-16.922816 0.0834,-2.627344 2.29833,-12.315189 0.14904,-13.421261 -1.16872,-0.600941 -2.62402,-0.34424 -2.62402,-2.108033 0,-2.282513 0.70262,-2.894104 -1.20958,-4.251556 -1.9214,-1.363953 -5.437371,-1.423093 -7.70173,-1.866703 C 93.351609,25.333242 91.944659,24.964752 90.573954,24.471451 89.407526,24.0521 89.577862,21.835227 89.16124,20.635115 87.432031,15.653677 83.077656,12.207722 78.434404,10.369399 76.464087,9.5892374 74.404001,9.4070671 72.315142,9.2633369 70.958819,9.1704367 68.174828,10.449249 67.102776,9.7128575 65.963976,8.9303263 66.222927,6.1781721 65.213598,5.0182803 64.150758,3.7974684 62.557351,0.97729399 61.115293,0.31129295 59.969007,-0.21867787 57.609696,0.10427263 56.340843,0.03447252 52.538887,-0.1743178 42.645294,2.6103665 40.205415,4.4185193 c 0.336634,0.5855709 0.508692,0.9907316 0.806771,1.6159225 1.306257,-0.7346111 12.503228,-5.21447806 16.471482,-4.6862872 3.277726,0.4359206 10.076013,6.0011493 7.807616,10.1491964 0.01957,-0.007 0.02418,-0.005 -0.0065,0.013 0.0018,-0.004 0.0037,-0.009 0.0065,-0.013 -0.11221,0.0367 -0.923013,0.42054 -0.94776,0.42764 C 63.621345,9.9216479 62.540662,8.1389251 61.351222,6.3946524 59.614536,3.8477485 56.875997,4.1026688 53.919375,3.8370984 51.427706,3.6129281 45.000583,6.1728521 42.555525,6.8844032 42.18494,6.9920533 41.862692,7.0967435 41.579574,7.2038037 c 0.359652,0.8038212 0.544944,1.1953818 1.080682,1.8850429 0.449996,-0.2992905 0.725059,-0.5015708 1.660729,-1.0510616 2.206823,-1.2965221 10.096724,-2.0571632 12.624649,-2.0571632 1.905286,0 2.381751,-0.3176205 3.339868,1.4331522 1.317766,2.4073237 2.889305,3.931566 1.973769,6.0325 -1.22627,2.813084 -4.783661,5.950879 -6.591124,8.571723 0.120267,0.0988 0.240535,0.17449 0.361378,0.23778 0.287725,-0.0639 0.608245,-0.0148 0.965014,0.163241 1.93752,-0.315251 3.823828,-4.142717 5.119145,-5.557539 1.58592,-1.731853 4.32791,-5.614919 6.688375,-5.994049 8.218477,-1.3190027 16.700511,2.898834 19.080544,11.288977 -4.129383,-3.667175 -9.152427,-7.605252 -14.714076,-8.367073 -5.641652,-0.773061 -10.02768,5.585929 -13.197213,9.956966 0.240536,0.17212 0.462656,0.29338 0.676717,0.39156 0.323973,-0.0124 0.667514,0.0562 1.031197,0.221811 1.366671,-0.094 2.189557,-1.824123 3.335262,-3.170335 0.185871,1.236782 0.3516,2.482444 0.471295,3.732826 0.151339,0.004 0.287142,-0.016 0.411443,-0.0538 0.104723,-0.0881 0.226717,-0.16206 0.377483,-0.21175 1.291874,-1.065842 0.67212,-5.136408 1.699284,-6.78545 0.849932,1.965483 1.07148,4.164606 1.143406,6.290979 0.241117,0.0248 0.442523,0.0189 0.623787,-0.002 0.212908,-0.18632 0.467834,-0.31171 0.77569,-0.34306 0.628384,-0.677841 0.164584,-2.180194 0.04661,-3.388585 -0.208883,-2.140564 -1.153191,-3.431176 0.571994,-4.423677 4.550603,-2.618484 12.647659,5.377728 15.132425,8.226292 -5.004628,1.092462 -10.055871,0.600951 -14.795797,2.903575 -0.313616,-1.071762 -0.551271,-2.193203 -0.605936,-3.318195 -0.12372,-0.013 -0.238809,-0.0106 -0.349301,5.9e-4 -0.169173,0.18217 -0.419493,0.30284 -0.77569,0.34306 -1.019113,0.893132 -0.988615,3.285665 -0.287723,4.564447 0.98401,1.795133 1.612385,-0.1875 3.871579,-0.51696 2.416283,-0.351931 12.977973,-3.567206 14.758384,-1.695763 1.38912,1.460362 -1.216486,4.376357 -2.152725,5.599529 -2.250563,2.942024 -4.228357,6.113539 -5.729114,9.528734 -0.679597,1.545543 -3.190828,10.679167 -4.27669,10.859567 -8.791052,1.465093 -17.638486,2.423884 -26.379467,4.221387 1.371281,-4.366887 2.454841,-8.819554 3.76685,-13.204181 0.949482,-3.172705 2.320763,-10.539576 4.976429,-12.650569 1.936948,-1.539623 6.063443,0.12776 7.667207,-1.106062 1.193473,-0.918571 1.059969,-3.868276 1.008757,-5.184918 -0.279093,-0.013 -0.503521,0.0177 -0.690536,0.0798 -0.112209,0.0923 -0.234203,0.16858 -0.377492,0.21175 -0.862016,0.726932 -0.383816,2.603104 -2.026136,3.165015 -1.311434,0.448341 -2.987123,0.409891 -4.372218,0.760642 0.822886,-1.426653 1.725757,-2.817815 2.690197,-4.148047 -0.174933,-0.11771 -0.344686,-0.21057 -0.510988,-0.28569 -0.311889,0.0213 -0.653132,-0.0485 -1.031197,-0.221801 -2.126834,0.081 -3.443455,3.605066 -4.577649,5.622609 -1.730359,3.079235 -3.20637,6.42701 -4.438394,9.747575 -1.209581,3.259055 -2.098065,6.62753 -2.935335,10.002506 -0.76534,3.084574 -0.0938,8.048262 -3.992423,7.901582 2.558994,-12.423439 6.045604,-23.917067 12.846195,-34.634084 -0.196809,-0.16088 -0.3798,-0.2709 -0.556459,-0.35962 -0.321092,0.0521 -0.64392,0.004 -0.965017,-0.163251 -1.25274,0.280361 -1.920253,2.530354 -2.648764,3.841076 -1.54449,2.777585 -1.492125,3.732826 -4.573047,4.009637 -6.557749,0.589111 -12.777714,2.730864 -19.302088,3.387405 0.773396,-5.433339 2.38924,-10.469786 5.313066,-15.104614 1.400053,-2.219233 2.998634,-4.361576 4.821063,-6.234789 1.336754,-1.373412 2.401324,-2.099754 3.020501,-3.0656354 C 42.370803,8.6591869 42.070997,8.1990162 41.494978,7.0367544 37.863357,10.33544 34.558012,13.913885 31.995564,18.215132 c -1.67454,2.811295 -6.428276,12.68073 -4.10291,15.969355 1.278634,1.807563 5.535762,0.0314 7.397897,-0.20761 5.131802,-0.658321 10.014436,-2.190844 15.200329,-2.834375 -2.687895,4.851318 -4.440693,10.239106 -5.755005,15.640494 -0.669241,2.749785 -1.320643,5.514949 -1.86156,8.294903 -0.447694,2.300264 -0.223847,2.302634 -2.458868,2.601924 -1.449541,0.194601 -2.882394,0.479691 -4.316974,0.767742 C 30.82281,59.508676 25.068954,61.115729 19.688561,59.829847 17.250413,59.247245 14.815714,57.979113 13.095714,56.11595 10.978659,53.822786 10.203537,54.400657 7.4477405,54.092497 3.9709139,53.703896 2.3815397,51.686363 2.0333967,48.147538 1.7715696,45.488243 3.6561466,45.465763 5.9464095,44.496342 8.3402534,43.48372 10.699569,42.381799 13.096865,41.372147 c 2.294867,-0.966481 4.607573,-1.866123 6.92776,-2.765174 3.719089,-1.440842 4.609299,-1.197152 4.826817,-5.445749 0.296928,-5.798869 2.959504,-11.569338 6.135374,-16.260955 1.801713,-2.661664 3.829574,-5.225728 6.120413,-7.4656619 C 38.788675,7.7897046 40.064432,6.7439729 41.013913,6.0330118 40.752662,5.485891 40.49141,4.9441002 40.207142,4.4170893 34.989599,8.4509856 25.449328,17.52783 23.481887,29.052218 c -0.365982,2.142923 0.10991,6.72808 -1.775817,7.515932 -2.462321,1.028581 -4.957443,1.943593 -7.454866,2.876954 -3.206944,1.198332 -11.4818159,2.705424 -13.52866706,5.659859 -1.11635907,1.611192 -0.60651689,6.83928 -0.60536589,8.779923 0.00111,3.054405 0.2376582,6.13483 0.51329539,9.174445 0.39763116,4.385817 0.63931666,9.348334 0.49545606,13.15391 -0.46668376,12.369609 1.3217926,24.420419 2.2873865,36.708409 0.4672597,5.94555 1.0162329,12.3702 0.1640012,18.30333 -0.4246772,2.95622 -2.73795786,10.27874 -0.3654064,12.94276 1.4178922,1.59226 4.5275867,2.37834 6.2694526,3.79671 2.4456326,1.99092 4.6944646,4.24623 7.0491776,6.35131 0.991489,0.88663 2.031314,1.65673 3.143646,2.37124 1.141679,0.73402 1.258494,2.54513 2.637832,3.10349 2.483612,1.00552 4.81243,-1.87263 6.688375,-3.068 3.77951,-2.40614 9.936177,-3.48678 14.310695,-4.80045 5.324574,-1.59877 10.641669,-3.27029 16.006528,-4.75255 11.558926,-3.19398 23.531594,-4.23498 35.244734,-6.64172 6.059416,-1.24506 11.951956,-2.68058 17.840466,-4.60998 2.63783,-0.86415 7.52104,-0.70682 7.58837,-4.37696 0.20313,-11.26887 -3.14883,-22.36028 -5.20546,-33.343475 z" />
      <path
         inkscape:connector-curvature="0"
         style="fill:#ffbf00;stroke-width:0.58340621"
         id="path9"
         d="m 69.744059,24.15856 c 0.355625,-0.0402 0.606517,-0.16088 0.775699,-0.34306 -0.307865,0.0313 -0.562782,0.15675 -0.775699,0.34306 z" />
      <path
         inkscape:connector-curvature="0"
         style="fill:#ffbf00;stroke-width:0.58340621"
         id="path11"
         d="m 56.996265,22.418428 c -0.357342,-0.178621 -0.677871,-0.227721 -0.965013,-0.163251 0.321093,0.167391 0.643921,0.215301 0.965013,0.163251 z" />
      <path
         inkscape:connector-curvature="0"
         style="fill:#ffbf00;stroke-width:0.58340621"
         id="path13"
         d="M 61.681527,24.358481 C 61.317271,24.19287 60.974311,24.12485 60.65033,24.13668 c 0.378074,0.173891 0.719307,0.243101 1.031197,0.221801 z" />
      <path
         inkscape:connector-curvature="0"
         style="fill:#ffbf00;stroke-width:0.58340621"
         id="path15"
         d="m 50.490885,46.765495 c -0.08977,0.414631 -0.179539,0.829262 -0.269308,1.244472 0.08977,-0.41462 0.178964,-0.829251 0.269308,-1.244472" />
      <path
         inkscape:connector-curvature="0"
         style="fill:#ffbf00;stroke-width:0.58340621"
         id="path17"
         d="m 89.229142,31.418972 c -2.464053,4.193596 -4.193833,8.953824 -5.559932,13.633601 -0.784901,2.690054 -1.237781,7.682142 -4.796898,7.381661 2.244803,-8.009802 3.458418,-15.700224 10.35683,-21.015262" />
      <path
         inkscape:connector-curvature="0"
         style="fill:#ffbf00;stroke-width:0.58340621"
         id="path19"
         d="m 2.0667724,55.061588 c 4.5293121,1.607053 8.7421316,4.140947 13.3266856,5.569379 2.23272,0.695571 4.555784,1.512412 6.902441,1.641942 2.112452,0.116521 3.900354,-0.724561 6.067473,-0.989541 8.845135,-1.083002 17.98202,-2.788234 27.05273,-4.045136 10.89832,-1.510633 24.659468,-0.484421 34.638224,-5.748589 2.968132,-1.565643 5.413763,-3.007075 8.018223,-5.132268 1.51226,-1.233822 5.416071,-4.585137 5.416071,-6.4696 0,-3.482626 1.63023,-6.23478 -2.11936,-1.209572 -4.389481,5.882859 -10.150814,10.792137 -17.251785,12.65056 1.659009,-6.37792 3.413528,-12.82445 6.297654,-18.75226 1.584767,-3.257285 -1.059969,-6.498 3.387052,-5.927219 2.530798,0.324721 4.931548,1.510043 7.398469,2.142934 -0.85855,2.365913 -3.755331,2.484213 -5.246301,4.285856 2.21948,3.080425 9.887831,-0.531741 9.887831,3.214695 0,2.687684 -1.56751,4.880888 -2.08425,7.430752 -0.73542,3.627545 -0.54093,7.841242 -0.70723,11.545088 -0.11681,2.618484 0.43159,3.471395 -1.57556,5.144688 -1.839691,1.534302 -3.680531,3.068594 -5.520791,4.602897 2.26838,-6.1857 7.325391,-11.601878 6.188881,-18.664729 -2.407661,4.060506 -4.557511,8.261193 -6.625081,12.512159 -1.062263,2.184334 -2.099783,4.382267 -3.161479,6.56719 -1.37358,2.826685 -2.836934,3.319386 -5.696885,4.353297 -8.633944,3.120055 -18.070643,3.399825 -26.95548,5.532109 -9.566743,2.296123 -19.272165,4.110776 -29.141015,3.935706 -2.504904,-0.0444 -5.013835,-0.0728 -7.512985,-0.271491 -3.921645,-0.3123 -3.860072,-0.4164 -4.438968,-4.216656 -0.555879,-3.647656 0.01899,-8.364703 -2.958929,-10.438436 -2.02556,1.724162 0.821733,10.896237 1.210732,13.549611 C 12.224494,77.393493 8.4691524,74.538419 5.1827965,71.347984 1.4378126,67.712158 2.3757853,60.303876 2.0667724,55.061588" />
      <path
         inkscape:connector-curvature="0"
         style="fill:#ffbf00;stroke-width:0.58340621"
         id="path21"
         d="m 41.478296,89.487472 c 4.764093,-2.177824 9.764693,-3.918546 14.795791,-5.253518 -2.965257,0.944591 -5.803918,1.850152 -8.479154,3.586735 -2.510081,1.629523 -6.371305,7.493452 -9.276141,6.64409 1.116359,-1.560322 2.947995,-2.887014 2.959504,-4.977307" />
      <path
         inkscape:connector-curvature="0"
         style="fill:#ffbf00;stroke-width:0.58340621"
         id="path23"
         d="m 18.207951,93.912339 c -1.583044,-0.596811 -3.393388,-0.218261 -4.573046,-1.659103 -0.05179,0.12184 -0.150191,0.577281 -0.134654,0.553031 -0.600188,-0.417581 -4.7756016,-3.062685 -2.017504,-2.592454 2.682716,0.456621 5.328028,0.789031 8.135039,1.038641 3.575229,0.317621 6.180835,-0.40635 9.350952,-1.902792 2.343204,-1.106072 5.865491,-1.744863 6.993935,-4.423677 0.05754,1.995653 2.469802,-0.0739 2.286811,-0.691441 -0.257222,-0.867112 -4.190952,0.10174 -4.842353,0.0686 0,0.20761 0,0.41522 0,0.622831 -4.240441,-2.914215 -11.310911,1.148651 -15.871873,-3.733416 6.397776,0.717461 12.83641,0.869471 19.249723,0.17626 3.397992,-0.36731 6.741892,-0.900231 10.105931,-1.517742 2.907139,-0.533511 7.229293,-2.748014 10.055867,-1.562093 -13.339919,4.881478 -24.24284,14.477643 -38.738828,15.623345" />
      <path
         inkscape:connector-curvature="0"
         style="fill:#ffbf00;stroke-width:0.58340621"
         id="path25"
         d="m 36.904674,91.561795 c -1.307408,1.385242 -2.430096,4.859597 -4.842354,3.318205 1.614117,-1.106072 3.228236,-2.212143 4.842354,-3.318205" />
      <path
         inkscape:connector-curvature="0"
         style="fill:#ffbf00;stroke-width:0.58340621"
         id="path27"
         d="m 60.444327,83.266292 c 5.506984,-1.410672 12.72132,-4.579237 17.487139,0.27681 -6.417342,-3.738735 -14.27905,-0.38209 -20.984687,0.414631 1.177357,-0.19637 2.332274,-0.427051 3.497548,-0.691441" />
      <path
         inkscape:connector-curvature="0"
         style="fill:#ffbf00;stroke-width:0.58340621"
         id="path29"
         d="m 75.374773,79.532876 c 1.847169,-0.28805 3.59364,0.668371 5.111086,1.659693 -1.820132,0.36908 -3.674206,-0.559541 -5.111086,-1.659693" />
      <path
         inkscape:connector-curvature="0"
         style="fill:#ffbf00;stroke-width:0.58340621"
         id="path31"
         d="m 68.918302,75.938451 c 7.149877,-2.129914 14.250268,-3.225925 21.25284,-5.94496 -0.864896,3.265556 -2.126262,6.929771 -1.344813,10.334927 1.002425,4.368666 4.476948,1.687492 6.79252,0.10351 2.75005,-1.881503 5.483401,-4.572737 6.961721,-7.776772 0.81943,-1.776223 -0.36138,-5.819569 -0.16803,-6.11768 1.08701,-1.678022 1.20498,0.350161 1.61297,1.244472 1.54103,3.375575 -0.8436,6.25727 -2.9808,8.697714 -1.593401,1.819982 -7.388116,7.572711 -9.998897,6.6151 C 87.871665,81.93073 86.10161,78.934885 82.773816,77.875554 78.329672,76.460142 73.545438,76.101701 68.918302,75.938451" />
      <path
         inkscape:connector-curvature="0"
         style="fill:#ffbf00;stroke-width:0.58340621"
         id="path33"
         d="m 97.569609,74.555579 c 0.96617,-1.799283 1.9542,-3.615126 2.689621,-5.530339 1.28842,1.951883 -1.188861,4.385817 -2.689621,5.530339" />
      <path
         inkscape:connector-curvature="0"
         style="fill:#ffbf00;stroke-width:0.58340621"
         id="path35"
         d="m 8.7919754,91.147164 c -0.494881,-0.725741 -0.223272,-1.289422 -1.2107309,-1.244472 0,-0.23067 0,-0.46076 0,-0.691441 1.2607949,0.182771 1.8149469,0.852922 1.2107309,1.935913" />
      <path
         inkscape:connector-curvature="0"
         style="fill:#ffbf00;stroke-width:0.58340621"
         id="path37"
         d="m 116.93902,132.34786 c -22.224756,8.01041 -46.037745,8.28781 -68.451828,15.75288 -5.229627,1.74191 -10.657782,3.06623 -15.718804,5.29669 -2.327092,1.02564 -8.595393,6.45068 -10.659508,3.80204 -2.748892,-3.52759 -6.397201,-6.19398 -9.53049,-9.41517 -3.1033636,-3.19104 -8.0918795,-5.61432 -6.5099855,-10.49285 1.928309,-5.9491 0.07193,-14.54093 -0.304986,-20.74555 -0.267581,-4.40416 -0.575442,-8.81069 -0.9765268,-13.2036 C 4.468672,99.852568 2.8372905,94.371319 3.6808906,91.147754 11.565036,96.950763 19.378978,99.601187 29.198339,98.572606 38.829531,97.564134 48.072873,94.83859 57.578616,93.089587 74.586419,89.960662 93.085754,90.713614 105.6402,76.629892 c 0.51271,1.959573 3.96019,13.654901 3.0884,14.683483 -3.91819,4.621227 -7.6367,7.666761 -12.983721,10.414175 -8.854916,4.55026 -20.318321,4.53784 -29.981155,5.64154 -9.466616,1.08122 -18.739884,3.94872 -28.185782,5.34638 -4.683532,0.69322 -9.544875,1.26813 -14.275017,0.87066 -2.907139,-0.24369 -1.555999,-0.30994 -2.202221,-2.39135 -0.301532,-0.97121 -0.425252,-2.03823 -0.605942,-3.04139 -3.07114,0.43237 -0.762462,3.83515 -2.286235,4.97671 -1.539311,1.15279 -8.2800506,-3.21765 -9.9534395,-3.73341 -0.09034,6.30398 1.6382859,13.36862 8.3732725,13.99913 2.009447,0.18809 4.255977,4.37694 2.286811,4.80399 -4.442997,0.96176 -6.289019,-3.14252 -9.9873906,-3.734 -1.5629039,-0.24961 -1.3707049,-0.77011 -1.0760789,1.03745 0.06388,0.39097 0.5892539,1.2007 0.8067719,1.52187 2.0249836,2.98402 5.5386386,4.18118 8.7432816,5.25353 2.274151,0.76064 2.537129,0.12776 2.894479,2.97515 0.265279,2.11749 0.47359,4.24267 0.74002,6.35899 0.498909,3.97001 1.085285,7.92524 2.687895,11.61133 1.652097,-2.1867 -0.281967,-4.13917 -0.432733,-6.37615 -0.229602,-3.41165 -0.459779,-6.82272 -0.689957,-10.23436 -0.260675,-3.86947 -0.269883,-3.29455 3.593643,-3.5826 9.899347,-0.73639 19.567367,-3.05617 29.208341,-5.37123 20.104835,-4.82824 42.295066,-5.4487 59.383427,-18.54051 2.40708,7.19239 3.77778,15.7233 2.15215,23.22858" />
      <path
         inkscape:connector-curvature="0"
         style="fill:#ffbf00;stroke-width:0.58340621"
         id="path39"
         d="m 103.75793,99.857298 c -4.014301,5.490112 -9.343472,10.657282 -15.469062,13.549612 2.568775,-2.07431 5.367726,-3.83456 7.922691,-5.9355 2.83291,-2.32924 4.632901,-5.40908 7.546371,-7.614112" />
      <path
         inkscape:connector-curvature="0"
         style="fill:#ffbf00;stroke-width:0.58340621"
         id="path41"
         d="m 87.616176,113.82154 c -0.448274,0.32235 -0.89712,0.64471 -1.345384,0.96706 0.448264,-0.32235 0.896537,-0.64471 1.345384,-0.96706" />
      <path
         inkscape:connector-curvature="0"
         style="fill:#ffbf00;stroke-width:0.58340621"
         id="path43"
         d="m 79.275706,107.46195 c -1.699865,0.96707 -6.372462,4.75254 -5.91901,0.96825 1.980093,-0.2709 3.946385,-0.6459 5.91901,-0.96825" />
      <path
         inkscape:connector-curvature="0"
         style="fill:#ffbf00;stroke-width:0.58340621"
         id="path45"
         d="m 60.174437,123.0847 c -1.695249,1.0765 -3.507323,2.82431 -5.513891,2.90357 1.837968,-0.96766 3.675934,-1.93532 5.513891,-2.90357" />
      <path
         inkscape:connector-curvature="0"
         style="fill:#ffbf00;stroke-width:0.58340621"
         id="path47"
         d="m 48.203498,117.13974 c 2.672358,-3.53764 6.297074,-5.73498 10.626136,-6.36018 -4.085074,1.20603 -6.228599,5.74268 -10.626136,6.36018" />
      <path
         inkscape:connector-curvature="0"
         style="fill:#ffbf00;stroke-width:0.58340621"
         id="path49"
         d="m 21.705495,128.06141 c -1.343661,-2.8811 0.237082,-4.71113 2.891601,-5.52974 2.81104,-0.86712 4.805526,-2.12815 7.377756,-3.44715 4.371067,-2.2417 8.567773,-4.86728 13.403221,-5.95442 -7.205698,6.25075 -14.880959,11.36883 -23.672578,14.93131" />
      <path
         inkscape:connector-curvature="0"
         style="fill:#ffbf00;stroke-width:0.58340621"
         id="path51"
         d="m 44.975264,121.70182 c -0.607668,0.77484 -0.943727,1.35213 -1.88285,1.38288 0.612846,-0.45011 1.219363,-1.01852 1.88285,-1.38288" />
      <path
         inkscape:connector-curvature="0"
         style="fill:#ffbf00;stroke-width:0.58340621"
         id="path53"
         d="m 42.150413,123.36152 c -1.900113,1.99328 -4.517803,3.32174 -7.128589,4.00845 2.141799,-1.77858 4.726689,-2.68946 7.128589,-4.00845" />
      <path
         inkscape:connector-curvature="0"
         style="fill:#ffbf00;stroke-width:0.58340621"
         id="path55"
         d="m 21.166879,116.72512 c 2.508358,-0.19401 4.926945,0.83871 7.398473,0 -2.589494,1.14806 -8.226536,5.42387 -7.398473,0" />
      <path
         inkscape:connector-curvature="0"
         style="fill:#ffbf00;stroke-width:0.58340621"
         id="path57"
         d="m 46.320649,33.078074 c 2.247681,2.631494 -2.552665,2.963905 -3.960774,3.425846 -5.090371,1.669752 -10.081188,3.535275 -15.020217,5.631478 -4.457382,1.892143 -8.805431,4.504117 -12.587243,7.572122 -1.816674,1.473962 -4.464287,3.357235 -6.9024395,2.311504 C 19.548734,43.00192 32.161296,36.83397 46.320649,33.078074" />
      <path
         inkscape:connector-curvature="0"
         style="fill:#ffbf00;stroke-width:0.58340621"
         id="path59"
         d="m 28.161391,37.08771 c -0.395905,1.745463 -6.347714,3.630506 -8.172444,4.605858 -2.965258,1.585162 -6.042152,2.927824 -9.178893,4.104266 C 14.069364,43.12731 23.887,35.480078 28.161391,37.08771" />
      <path
         inkscape:connector-curvature="0"
         style="clip-rule:evenodd;fill:#8b5c29;fill-rule:evenodd;stroke-width:0.58340621"
         id="path61"
         d="M 47.262073,56.996911 C 49.304896,44.862712 53.09419,33.882485 59.97304,23.74571 c -3.389935,-2.234614 -4.590313,2.483034 -6.066325,5.123398 -1.654399,2.959174 -2.933033,6.168539 -4.11039,9.352474 -2.313282,6.25608 -3.745558,12.65825 -5.090944,19.19055 0.81943,-0.13308 1.773514,-0.14373 2.556692,-0.415221" />
      <path
         inkscape:connector-curvature="0"
         style="fill:#8b5c29;stroke-width:0.58340621"
         id="path63"
         d="m 69.590995,13.583504 c 7.053203,-0.379141 13.189154,4.038616 18.293907,8.572313 -2.048575,-7.221381 -9.882655,-12.8333401 -17.487138,-11.545098 -5.206034,0.881902 -10.048967,7.773232 -12.84504,12.166739 2.865701,2.145294 4.106935,-1.323732 5.918427,-3.318205 1.924283,-2.117493 4.026379,-3.945756 6.119844,-5.875749" />
      <path
         inkscape:connector-curvature="0"
         style="clip-rule:evenodd;fill:#ffbf00;fill-rule:evenodd;stroke-width:0.58340621"
         id="path65"
         d="m 67.976875,17.869361 c -1.233748,1.980863 -1.008748,4.453837 -1.008748,6.7056 3.457837,0.353121 1.922548,-4.591057 1.008748,-6.7056" />
      <path
         inkscape:connector-curvature="0"
         style="clip-rule:evenodd;fill:#8b5c29;fill-rule:evenodd;stroke-width:0.58340621"
         id="path67"
         d="m 58.292164,30.865941 c -4.184043,8.181932 -6.000142,17.119776 -8.743855,25.85475 8.459011,-1.739543 17.016433,-2.661654 25.523206,-4.078846 2.35356,-0.392151 3.446898,-7.166952 4.485,-9.529315 1.572111,-3.578456 3.419289,-6.838101 5.636465,-10.034456 0.75096,-1.083001 3.799651,-4.298276 3.363469,-5.841449 -0.741747,-2.627944 -10.707276,0.311121 -12.500925,0.571961 -0.918988,0.13426 -6.54624,1.366902 -6.499062,1.708783 -0.246858,-1.786863 -0.356769,-3.559526 -0.436754,-5.357619 -3.946394,-0.35548 -0.978258,3.356646 -2.891603,5.184908 -1.175631,1.124402 -6.034098,0.945772 -7.935941,1.521283" />
      <path
         inkscape:connector-curvature="0"
         style="fill:#8b5c29;stroke-width:0.58340621"
         id="path69"
         d="m 95.954349,33.078074 c 1.49097,-1.801643 4.387751,-1.920533 5.246301,-4.285856 -2.302921,-0.590891 -4.520101,-1.644313 -6.859853,-2.073734 -5.043754,-0.926251 -1.85005,1.591673 -3.472797,4.926438 -3.050418,6.26909 -4.994842,12.9327 -6.750525,19.683841 5.02247,-1.314263 9.608746,-4.202457 13.265694,-7.964863 1.79711,-1.848963 3.616081,-3.842246 4.970671,-6.068579 0.37174,-0.612181 0.67212,-1.031542 0.91553,-1.285282 0.0973,-0.536471 0.25608,-1.044552 0.47244,-1.530753 -2.33917,-0.30934 -6.009921,1.065852 -7.787461,-1.401212 z" />
      <path
         inkscape:connector-curvature="0"
         style="fill:#ffbf00;stroke-width:0.58340621"
         id="path71"
         d="m 103.74124,34.478696 c -0.21637,0.486201 -0.3752,0.994282 -0.47244,1.530753 0.66003,-0.687301 0.89769,-0.11948 0.95811,1.423692 0.1709,4.341457 -5.699181,8.551603 -8.566621,10.892087 -4.665689,3.807946 -11.065196,5.034088 -16.744814,6.201669 -10.781502,2.216864 -22.605712,2.994065 -33.469499,4.129117 -2.141224,0.22358 -4.160454,1.010841 -6.254492,1.452082 -1.6239,0.341871 -6.004173,-0.31171 -7.061837,0.449521 -2.146404,1.544352 -9.01777,1.906343 -11.400104,1.486392 -6.622199,-1.167582 -12.3829606,-4.753727 -18.6633466,-6.981831 0.3090138,5.242288 -0.6289588,12.65057 3.1160251,16.286396 3.2863549,3.190435 7.0416965,6.044919 11.6803435,6.52698 -0.627809,-4.286457 -1.255041,-8.572314 -1.88285,-12.85877 0.224423,-0.230681 0.44827,-0.460761 0.672117,-0.690851 2.898507,2.018723 2.313857,6.238929 2.858227,9.781895 0.608243,3.959356 0.186443,4.411247 4.250798,4.843027 2.581438,0.273861 5.209487,0.256711 7.801858,0.302251 9.868849,0.17508 19.574847,-1.638993 29.141018,-3.935706 8.884265,-2.132284 18.321526,-2.412054 26.955479,-5.532109 2.721268,-0.983631 4.108662,-1.434932 5.528853,-4.007276 1.16815,-2.115123 2.112449,-4.387597 3.161484,-6.56719 2.10554,-4.373997 4.32157,-8.688844 6.793101,-12.85818 1.13709,7.062271 -3.920491,12.479039 -6.188891,18.664729 1.59283,-1.327872 3.18508,-2.655154 4.777911,-3.983026 2.30004,-1.918163 2.25171,-1.998014 2.28508,-5.003318 0.042,-3.858226 0.53114,-7.694562 0.70607,-11.545088 0.11854,-2.606654 2.31731,-5.031718 2.11936,-7.673262 -0.12199,-1.624803 -0.95179,-2.181973 -2.10094,-2.333984 z" />
      <path
         inkscape:connector-curvature="0"
         style="clip-rule:evenodd;fill:#8b5c29;fill-rule:evenodd;stroke-width:0.58340621"
         id="path73"
         d="m 81.427859,51.742803 c 2.627474,-6.78841 4.087376,-14.002682 7.801283,-20.323831 -6.897839,5.315038 -8.112027,13.00546 -10.35683,21.015262 0.889061,0.0166 1.782729,-0.2076 2.555547,-0.691431" />
      <path
         inkscape:connector-curvature="0"
         style="clip-rule:evenodd;fill:#ffbf00;fill-rule:evenodd;stroke-width:0.58340621"
         id="path75"
         d="m 13.09629,51.051952 c 5.842474,-4.740117 12.102144,-8.116283 19.020697,-10.899187 3.366917,-1.354492 6.800011,-2.519114 10.242888,-3.648245 1.200374,-0.393931 3.198888,-0.209391 4.095427,-1.352123 2.639558,-3.365525 -6.09797,-0.39334 -7.343804,0.005 -3.730598,1.194192 -7.385237,2.637995 -10.950107,4.280537 -7.313883,3.369655 -13.909612,7.646642 -20.3108405,12.58136 1.9628359,0.841671 3.4555355,-0.282731 5.2457395,-0.967662" />
      <path
         inkscape:connector-curvature="0"
         style="clip-rule:evenodd;fill:#ffbf00;fill-rule:evenodd;stroke-width:0.58340621"
         id="path77"
         d="m 10.810054,45.797834 c 3.136741,-1.176442 6.213635,-2.519104 9.178893,-4.104266 1.82473,-0.975352 7.777115,-2.860395 8.172444,-4.605858 -4.274391,-1.607632 -14.092027,6.0396 -17.351337,8.710124" />
      <path
         inkscape:connector-curvature="0"
         style="clip-rule:evenodd;fill:#ffbf00;fill-rule:evenodd;stroke-width:0.58340621"
         id="path79"
         d="m 91.515954,83.266292 c 4.871115,-2.211543 10.545556,-6.080409 12.682756,-11.352268 0.45058,-1.111981 0.3798,-4.548477 -0.57717,-5.584158 -0.62032,-0.671921 -1.12844,-0.422901 -1.47831,0.622241 0.14041,-0.419951 1.12614,1.943013 1.14283,2.212133 0.0593,0.938672 -0.11682,1.945963 -0.40339,2.834365 -1.50017,4.656127 -6.669381,8.803583 -10.896011,10.611146 -5.535185,2.367694 -2.36737,-10.534846 -1.816099,-12.61626 -7.002562,2.719035 -14.102953,3.815636 -21.252839,5.94496 4.627144,0.16325 9.411378,0.521691 13.854951,1.935913 3.439421,1.094831 5.367728,4.368666 8.743282,5.391928" />
      <path
         inkscape:connector-curvature="0"
         style="clip-rule:evenodd;fill:#ffbf00;fill-rule:evenodd;stroke-width:0.58340621"
         id="path81"
         d="m 100.25865,69.02524 c -0.734841,1.915213 -1.723451,3.731056 -2.689611,5.530339 1.50133,-1.144522 3.978611,-3.578456 2.689611,-5.530339" />
      <path
         inkscape:connector-curvature="0"
         style="fill:#ffbf00;stroke-width:0.58340621"
         id="path83"
         d="m 75.374773,123.36152 c -12.839289,2.37123 -25.417899,6.15138 -38.289411,8.30318 -3.318004,0.55481 -6.641763,1.05106 -9.997748,1.30066 -0.491429,0.0373 -4.718059,0.22358 -4.701945,0.46254 0.142134,2.10686 0.284268,4.21252 0.425827,6.31937 0.207735,3.08575 0.132352,6.16736 1.078956,9.08809 0.4874,1.50235 0.864316,3.02364 -0.16803,4.38936 -1.458172,-3.35309 -2.103244,-6.96053 -2.55842,-10.57979 -0.40914,-3.25728 0.222121,-9.68134 -3.158607,-10.26217 -3.333542,-0.57314 -6.275783,-2.20563 -8.7432826,-4.56327 -0.593857,-0.56782 -2.5929459,-4.80103 -0.874097,-3.69911 2.8720356,1.84246 5.7452226,4.21725 9.2813206,4.21725 3.480856,0 1.467956,-4.11078 -0.672117,-4.9075 -3.161485,-1.17645 -4.087373,-0.0781 -6.431728,-3.59975 -1.9628356,-2.94734 -2.3610425,-6.96467 -2.3115545,-10.43429 1.6739639,0.51518 8.4147035,4.88621 9.9534385,3.73342 1.523774,-1.14156 -0.784904,-4.54434 2.286236,-4.97671 0.323975,1.80283 0.204282,5.21389 1.832787,5.35111 5.010958,0.42054 9.941931,-0.10705 14.91491,-0.74585 9.536242,-1.22495 18.807206,-4.0546 28.314105,-5.36591 9.485603,-1.30835 20.866144,-0.87479 29.609416,-5.36708 5.357381,-2.752743 9.249101,-5.624968 13.185711,-10.267495 1.36782,-1.613552 -2.03707,-12.548239 -2.71149,-15.128273 -12.381816,13.889711 -30.289025,13.1894 -47.053403,16.273965 -9.478703,1.743683 -18.750242,4.553807 -28.348633,5.559319 -10.259,1.074131 -18.247877,-1.200112 -26.5566994,-7.316012 -1.1825355,4.518907 1.1462823,12.500336 1.5226229,17.374126 0.456327,5.91065 0.7475,11.82249 1.033495,17.74379 0.207736,4.30065 0.757859,8.16774 -0.571415,12.27025 -1.1923181,3.68019 6.4581985,8.85149 8.8439845,11.16418 1.982977,1.9223 4.401565,3.5672 6.254492,5.59954 0.727935,0.79849 1.116935,1.93886 2.018079,2.55696 1.893783,1.29948 10.085792,-4.58811 12.40828,-5.42624 10.855159,-3.91795 21.916904,-7.65315 33.202489,-9.95045 12.180979,-2.47949 24.706648,-3.15496 36.748948,-6.37142 3.24147,-0.86593 6.34253,-1.79337 9.50115,-2.93197 3.38303,-1.21963 2.98194,-4.18235 2.96928,-7.67208 -0.019,-5.45108 -1.10197,-11.23516 -2.826,-16.38339 -11.68495,8.95204 -25.274615,11.93546 -39.410947,14.24165" />
      <path
         inkscape:connector-curvature="0"
         style="fill:#ffbf00;stroke-width:0.58340621"
         id="path85"
         d="m 104.69705,126.67971 c -0.60307,-3.00294 -0.13465,-9.49738 3.22938,-10.64603 -0.11278,2.95325 -1.38049,8.36292 -3.22938,10.64603" />
      <path
         inkscape:connector-curvature="0"
         style="clip-rule:evenodd;fill:#ffbf00;fill-rule:evenodd;stroke-width:0.58340621"
         id="path87"
         d="m 33.003745,84.234544 c 0.361953,0.0592 0.572565,0.0941 0,0" />
      <path
         inkscape:connector-curvature="0"
         style="clip-rule:evenodd;fill:#ffbf00;fill-rule:evenodd;stroke-width:0.58340621"
         id="path89"
         d="m 55.063932,77.874364 c -12.313907,3.342455 -24.837276,4.740707 -37.528099,3.318205 4.560962,4.882067 11.631433,0.819201 15.871873,3.733416 -0.310164,-0.493291 -0.09552,-0.360801 -0.403386,-0.691441 0.925313,0.16739 4.157002,-0.915612 4.84293,-0.208201 0.789508,0.814472 -1.827608,2.855665 -1.883426,0.899642 -1.187139,2.818994 -4.316974,2.817214 -6.59055,4.181166 -3.125807,1.876773 -6.126168,2.467654 -9.754912,2.145303 -1.546215,-0.13723 -3.094733,-0.20761 -4.640373,-0.34602 -0.566237,-0.0509 -2.77191,-0.789031 -3.292686,-0.658311 -2.6366796,0.661271 0.505815,1.646672 1.816099,2.558144 -0.01554,0.0242 0.08286,-0.431191 0.134654,-0.553031 3.556238,4.343237 14.137486,0.353111 17.991804,-1.416592 8.619563,-3.956406 16.384016,-9.278545 25.320073,-12.54824 -0.6186,-0.13545 -1.255618,-0.35844 -1.884001,-0.41404" />
      <path
         inkscape:connector-curvature="0"
         style="clip-rule:evenodd;fill:#ffbf00;fill-rule:evenodd;stroke-width:0.58340621"
         id="path91"
         d="m 80.485859,81.192569 c -1.517446,-0.990732 -3.263917,-1.947743 -5.111086,-1.659693 1.43688,1.100152 3.290954,2.028773 5.111086,1.659693" />
      <path
         inkscape:connector-curvature="0"
         style="clip-rule:evenodd;fill:#ffbf00;fill-rule:evenodd;stroke-width:0.58340621"
         id="path93"
         d="M 77.931466,83.543102 C 73.165647,78.687055 65.951311,81.85562 60.444327,83.266292 65.907004,82.21405 72.780678,80.541348 77.931466,83.543102" />
      <path
         inkscape:connector-curvature="0"
         style="clip-rule:evenodd;fill:#ffbf00;fill-rule:evenodd;stroke-width:0.58340621"
         id="path95"
         d="m 56.946779,83.957733 c 1.175631,-0.13959 2.35644,-0.37263 3.497548,-0.691441 -1.165274,0.26439 -2.320191,0.495071 -3.497548,0.691441" />
      <path
         inkscape:connector-curvature="0"
         style="fill:#ffbf00;stroke-width:0.58340621"
         id="path97"
         d="m 52.844448,85.271405 c 1.150886,-0.31762 2.293716,-0.675461 3.429639,-1.036861 -1.152612,0.3058 -2.317884,0.58793 -3.429639,1.036861" />
      <path
         inkscape:connector-curvature="0"
         style="clip-rule:evenodd;fill:#ffbf00;fill-rule:evenodd;stroke-width:0.58340621"
         id="path99"
         d="m 40.805603,94.465369 c 3.085525,-4.169936 7.178077,-7.475121 12.038845,-9.194554 -2.973315,0.925672 -9.148394,1.871443 -11.366152,4.216657 -0.840723,0.889001 -2.046851,3.701485 -2.958929,4.977897 0.72621,0 1.573837,0.136631 2.286236,0" />
      <path
         inkscape:connector-curvature="0"
         style="fill:#ffbf00;stroke-width:0.58340621"
         id="path101"
         d="m 7.5818195,89.902692 c 0.427554,0.388011 1.0277409,0.189281 1.2107319,1.244472 0.714125,-1.281732 -0.6485249,-2.403173 -1.2107319,-1.244472" />
      <path
         inkscape:connector-curvature="0"
         style="fill:#ffbf00;stroke-width:0.58340621"
         id="path103"
         d="m 36.904674,91.561795 c -1.614118,1.106062 -3.228237,2.212133 -4.842354,3.318205 2.412833,1.541392 3.534946,-1.932963 4.842354,-3.318205" />
      <path
         inkscape:connector-curvature="0"
         style="fill:#ffbf00;stroke-width:0.58340621"
         id="path105"
         d="m 88.288868,113.40691 c 6.102569,-3.2904 11.324141,-7.88028 15.469062,-13.549612 -2.80414,2.122812 -4.555211,4.991502 -7.197651,7.327842 -2.593522,2.29258 -5.587546,4.05459 -8.271411,6.22177" />
      <path
         inkscape:connector-curvature="0"
         style="clip-rule:evenodd;fill:#ffbf00;fill-rule:evenodd;stroke-width:0.58340621"
         id="path107"
         d="m 79.275706,107.46195 c -1.972625,0.32235 -3.938917,0.69735 -5.91901,0.96825 -0.454024,3.78429 4.219145,-0.001 5.91901,-0.96825" />
      <path
         inkscape:connector-curvature="0"
         style="clip-rule:evenodd;fill:#ffbf00;fill-rule:evenodd;stroke-width:0.58340621"
         id="path109"
         d="m 48.203498,117.13974 c 4.397537,-0.6175 6.541062,-5.15474 10.626136,-6.36018 -4.329062,0.6252 -7.953778,2.82254 -10.626136,6.36018" />
      <path
         inkscape:connector-curvature="0"
         style="clip-rule:evenodd;fill:#ffbf00;fill-rule:evenodd;stroke-width:0.58340621"
         id="path111"
         d="m 30.17947,120.0439 c -2.66833,2.67586 -11.224594,2.12165 -8.473975,8.0181 8.791619,-3.56248 16.467455,-8.68055 23.673154,-14.93131 -5.414344,1.21726 -10.362004,4.25215 -15.199179,6.91321" />
      <path
         inkscape:connector-curvature="0"
         style="clip-rule:evenodd;fill:#ffbf00;fill-rule:evenodd;stroke-width:0.58340621"
         id="path113"
         d="m 105.36974,119.07506 c -0.0512,2.57057 -1.19174,5.0193 -0.67269,7.60465 1.84889,-2.28311 3.1166,-7.69278 3.22938,-10.64603 -1.34825,0.46135 -2.45598,1.54671 -2.55669,3.04138" />
      <path
         inkscape:connector-curvature="0"
         style="fill:#ffbf00;stroke-width:0.58340621"
         id="path115"
         d="m 21.166879,116.72512 c -0.828063,5.42387 4.808979,1.14746 7.398473,0 -2.472103,0.83871 -4.890115,-0.19401 -7.398473,0" />
      <path
         inkscape:connector-curvature="0"
         style="clip-rule:evenodd;fill:#ffbf00;fill-rule:evenodd;stroke-width:0.58340621"
         id="path117"
         d="m 44.975264,121.70182 c -0.663487,0.36436 -1.270004,0.93277 -1.88285,1.38288 0.939698,-0.0308 1.275182,-0.60804 1.88285,-1.38288" />
      <path
         inkscape:connector-curvature="0"
         style="fill:#ffbf00;stroke-width:0.58340621"
         id="path119"
         d="m 60.174437,123.0847 c -1.837957,0.96825 -3.675923,1.93532 -5.513891,2.90357 2.00715,-0.0787 3.818642,-1.82707 5.513891,-2.90357" />
      <path
         inkscape:connector-curvature="0"
         style="fill:#ffbf00;stroke-width:0.58340621"
         id="path121"
         d="m 42.150413,123.36152 c -2.402475,1.31899 -4.987365,2.23046 -7.128589,4.00845 2.610786,-0.68671 5.228476,-2.01517 7.128589,-4.00845" />
      <path
         inkscape:connector-curvature="0"
         style="fill:#8b5c29;stroke-width:0.58340621"
         id="path123"
         d="m 35.82917,33.907925 c -1.808617,0.347191 -6.692979,2.034684 -7.936511,0.276811 -2.336875,-3.304595 2.475556,-13.520041 4.29856,-16.263915 1.774091,-2.670534 3.624716,-5.145878 5.753856,-7.527172 C 38.687397,9.5632173 40.353304,8.4062755 41.580724,7.2032137 41.399459,6.8418131 41.185395,6.3952524 41.013337,6.0344418 31.562835,13.948445 25.33021,23.81136 24.664422,36.8109 c -3.995301,1.514782 -7.987725,3.046125 -11.924907,4.713507 -2.655095,1.124402 -10.0006254,3.140755 -10.8068214,5.517909 -0.7503776,2.212723 1.2308732,5.500758 2.9595046,6.56719 1.3235183,0.816241 2.7460143,0.26321 4.1696602,0.415221 2.6671786,0.28391 2.8064356,1.312492 4.9096806,3.041384 7.569954,6.22355 18.019425,1.744873 26.443913,0.614551 2.935911,-0.39392 2.449662,-2.607244 3.053876,-5.367088 0.539191,-2.460554 1.091041,-4.912238 1.741867,-7.344991 1.281511,-4.785658 2.884121,-9.501525 5.27969,-13.825832 -5.058719,0.626971 -9.696215,1.811113 -14.661715,2.765174 z" />
      <path
         inkscape:connector-curvature="0"
         style="clip-rule:evenodd;fill:#ffbf00;fill-rule:evenodd;stroke-width:0.58340621"
         id="path125"
         d="m 65.286105,11.509771 c 0.03046,-0.0183 0.02594,-0.0195 0.0065,-0.013 -0.0018,0.004 -0.0037,0.009 -0.0065,0.013 z" />
      <path
         inkscape:connector-curvature="0"
         style="clip-rule:evenodd;fill:#8b5c29;fill-rule:evenodd;stroke-width:0.58340621"
         id="path127"
         d="m 56.996265,1.3298145 c -1.71942,-0.0633 -12.827773,2.6936042 -15.982928,4.7046273 0.21349,0.4258707 0.369435,0.7275212 0.567387,1.1687719 3.952719,-0.9451915 11.763208,-3.5003755 15.919061,-2.9668646 3.719659,0.4779107 5.553028,4.1060463 6.844893,7.6886419 0.02474,-0.007 0.835541,-0.39156 0.94776,-0.42764 C 67.641964,7.2008437 60.527191,1.4593547 56.996265,1.3298145 Z" />
    </g>
    <g
       style="overflow:visible"
       i:dimmedPercent="50"
       i:layer="yes"
       i:rgbTrio="#4F008000FFFF"
       id="Layer_1"
       transform="matrix(0.07667056,0,0,0.08051327,0.06238801,1045.0539)">
      <g
         id="g24">
        <path
           d="m 52.83,0.018 c 29.152,0 52.813,22.531 52.813,50.292 0,27.76 -23.66,50.292 -52.813,50.292 C 23.677,100.602 0.018,78.07 0.018,50.31 0.018,22.549 23.678,0.018 52.83,0.018"
           i:knockout="Off"
           stroke-miterlimit="10"
           id="path4"
           inkscape:connector-curvature="0"
           style="clip-rule:evenodd;fill-rule:evenodd;stroke:#000000;stroke-width:0.036;stroke-miterlimit:10" />
        <path
           d="m 25.254,11.218 c -1.548,0.648 -2.664,1.332 -3.78,2.196 -1.116,0.756 -1.908,1.692 -2.664,2.664 -0.864,0.9 -1.584,1.872 -2.16,2.916 l 7.128,-1.836 v 0 c 0.468,-1.98 0.972,-3.96 1.476,-5.94 z"
           i:knockout="Off"
           stroke-miterlimit="10"
           id="path6"
           inkscape:connector-curvature="0"
           style="clip-rule:evenodd;fill:#ffffff;fill-rule:evenodd;stroke:#000000;stroke-width:0.036;stroke-miterlimit:10" />
        <path
           d="M 32.886,8.086 48.87,4.198 59.886,13.306 56.97,24.934 44.73,30.622 29.25,26.518 26.946,17.05 Z"
           i:knockout="Off"
           stroke-miterlimit="10"
           id="path8"
           inkscape:connector-curvature="0"
           style="clip-rule:evenodd;fill:#ffffff;fill-rule:evenodd;stroke:#000000;stroke-width:0.036;stroke-miterlimit:10" />
        <path
           d="M 63.342,14.026 61.399,25.042 73.53,37.174 86.49,35.23 90.486,20.686 76.302,9.058 Z"
           i:knockout="Off"
           stroke-miterlimit="10"
           id="path10"
           inkscape:connector-curvature="0"
           style="clip-rule:evenodd;fill:#ffffff;fill-rule:evenodd;stroke:#000000;stroke-width:0.036;stroke-miterlimit:10" />
        <path
           d="M 76.05,41.278 88.29,39.082 95.562,51.322 85.518,67.918 72.918,66.73 68.311,56.181 Z"
           i:knockout="Off"
           stroke-miterlimit="10"
           id="path12"
           inkscape:connector-curvature="0"
           style="clip-rule:evenodd;fill:#ffffff;fill-rule:evenodd;stroke:#000000;stroke-width:0.036;stroke-miterlimit:10" />
        <path
           d="M 94.482,75.91 88.65,69.142 98.838,51.933 102.366,49.99 c 0.036,4.176 -0.288,7.703 -0.972,11.268 -0.828,3.527 -2.053,6.732 -3.276,9.324 -1.223,2.447 -2.34,4.176 -3.636,5.328 z"
           i:knockout="Off"
           stroke-miterlimit="10"
           id="path14"
           inkscape:connector-curvature="0"
           style="clip-rule:evenodd;fill:#ffffff;fill-rule:evenodd;stroke:#000000;stroke-width:0.036;stroke-miterlimit:10" />
        <path
           d="M 33.894,63.418 48.33,52.762 64.566,57.01 69.75,69.215 60.786,80.986 40.554,76.738 Z"
           i:knockout="Off"
           stroke-miterlimit="10"
           id="path16"
           inkscape:connector-curvature="0"
           style="clip-rule:evenodd;fill:#ffffff;fill-rule:evenodd;stroke:#000000;stroke-width:0.036;stroke-miterlimit:10" />
        <path
           d="m 64.962,97.113 c -2.988,0.434 -6.012,0.756 -9.216,0.828 -3.312,0.072 -6.84,0 -10.044,-0.359 -3.42,-0.504 -6.588,-1.404 -9.36,-2.305 -2.772,-0.971 -4.896,-2.051 -6.768,-3.383 l -0.252,-4.861 9.576,-7.271 21.457,3.781 6.155,9.432 z"
           i:knockout="Off"
           stroke-miterlimit="10"
           id="path18"
           inkscape:connector-curvature="0"
           style="clip-rule:evenodd;fill:#ffffff;fill-rule:evenodd;stroke:#000000;stroke-width:0.036;stroke-miterlimit:10" />
        <path
           d="M 14.31,43.726 27.522,30.298 41.814,34.294 45.45,49.774 30.546,61.295 17.586,60.934 Z"
           i:knockout="Off"
           stroke-miterlimit="10"
           id="path20"
           inkscape:connector-curvature="0"
           style="clip-rule:evenodd;fill:#ffffff;fill-rule:evenodd;stroke:#000000;stroke-width:0.036;stroke-miterlimit:10" />
        <path
           d="M 9.45,71.123 C 8.298,71.59 7.218,70.365 6.066,67.846 4.806,65.11 3.114,59.602 2.538,55.498 1.998,51.357 2.034,47.326 2.79,43.258 l 7.524,2.412 3.996,16.705 z"
           i:knockout="Off"
           stroke-miterlimit="10"
           id="path22"
           inkscape:connector-curvature="0"
           style="clip-rule:evenodd;fill:#ffffff;fill-rule:evenodd;stroke:#000000;stroke-width:0.036;stroke-miterlimit:10" />
      </g>
    </g>
  </g>
</svg>
