/* XPM */
static char *josm___[] = {
/* columns rows colors chars-per-pixel */
"16 16 198 2",
"   c #513F11",
".  c #513E12",
"X  c #433426",
"o  c #493A2A",
"O  c #534113",
"+  c #534014",
"@  c #5C4711",
"#  c #5C4713",
"$  c #684D10",
"%  c #694E11",
"&  c #604C19",
"*  c #644F19",
"=  c #5E4921",
"-  c #564F36",
";  c #5D4933",
":  c #604426",
">  c #6D4B28",
",  c #724D26",
"<  c #605021",
"1  c #655121",
"2  c #655324",
"3  c #685923",
"4  c #785E27",
"5  c #776731",
"6  c #716136",
"7  c #7A6636",
"8  c #7C713D",
"9  c #7F743D",
"0  c #474647",
"q  c #484946",
"w  c #4F4A44",
"e  c #4A494A",
"r  c #4B4E4A",
"t  c #4C4C4C",
"y  c #515051",
"u  c #575956",
"i  c #595A5A",
"p  c #5E5E5F",
"a  c #5D605A",
"s  c #5E635A",
"d  c #636F5B",
"f  c #646C5C",
"g  c #69775D",
"h  c #68785E",
"j  c #616161",
"k  c #6A6E65",
"l  c #6A6D66",
"z  c #6B6A6B",
"x  c #6B6F68",
"c  c #6B6F69",
"v  c #6D6C6D",
"b  c #6A7361",
"n  c #6A7362",
"m  c #6E7965",
"M  c #787162",
"N  c #747569",
"B  c #71786C",
"V  c #717372",
"C  c #757A72",
"Z  c #797F76",
"A  c #7F7D7C",
"S  c #80733F",
"D  c #806E44",
"F  c #827D7A",
"G  c #699746",
"H  c #678055",
"J  c #6C9B56",
"K  c #7A866D",
"L  c #7C8675",
"P  c #7C827B",
"I  c #7AAE68",
"U  c #75AA7B",
"Y  c #8A8F68",
"T  c #818F73",
"R  c #82877B",
"E  c #8F897A",
"W  c #908172",
"Q  c #8B9372",
"!  c #88967B",
"~  c #899B79",
"^  c #8A9A78",
"/  c #8E997B",
"(  c #8F9D7F",
")  c #8F9F7F",
"_  c #9A9871",
"`  c #86AA68",
"'  c #8CBD60",
"]  c #8FBD6C",
"[  c #96B17E",
"{  c #93C175",
"}  c #9DC07D",
"|  c #769683",
" . c #6395B2",
".. c #868D81",
"X. c #8F9D83",
"o. c #8F9D85",
"O. c #919D88",
"+. c #929291",
"@. c #979A92",
"#. c #AC9F84",
"$. c #9CA282",
"%. c #96A882",
"&. c #9EAD8A",
"*. c #9DAF8B",
"=. c #9AA491",
"-. c #9EA29C",
";. c #AAAB87",
":. c #ABAB89",
">. c #BBAF85",
",. c #A1BC85",
"<. c #A1BD8D",
"1. c #ADA49B",
"2. c #ADA89A",
"3. c #B5A697",
"4. c #B6AA9F",
"5. c #A9B593",
"6. c #A5BD90",
"7. c #A6BC93",
"8. c #A9B892",
"9. c #ACBD96",
"0. c #87B0AB",
"q. c #88AFB1",
"w. c #A6A6A6",
"e. c #A7A8A6",
"r. c #AEAEAE",
"t. c #B0BDA7",
"y. c #B3B3B3",
"u. c #B5B5B5",
"i. c #BCB7B1",
"p. c #BBBBBB",
"a. c #BEBEBF",
"s. c #C2BFAD",
"d. c #A2C184",
"f. c #ACCB8F",
"g. c #A8C292",
"h. c #ABC893",
"j. c #AAC098",
"k. c #ADC19A",
"l. c #AEC699",
"z. c #AFC19E",
"x. c #ADC99A",
"c. c #B0C798",
"v. c #B1C59F",
"b. c #B4CF9A",
"n. c #B3CA9C",
"m. c #BBDF98",
"M. c #B5E78A",
"N. c #ADC4A0",
"B. c #B0C2A0",
"V. c #B4C8A3",
"C. c #B7CEA2",
"Z. c #B6CBA4",
"A. c #BED4A5",
"S. c #B9D1AA",
"D. c #CFC296",
"F. c #C5D5A2",
"G. c #C8D7AC",
"H. c #C3D9A9",
"J. c #DED8A7",
"K. c #DFDFAC",
"L. c #C3D3BA",
"P. c #D5D9B0",
"I. c #E2DCAA",
"U. c #D1E0A6",
"Y. c #DEE0AE",
"T. c #D4E9B7",
"R. c #DCE9B4",
"E. c #DEE9B7",
"W. c #DFEDB9",
"Q. c #DFEEB9",
"!. c #DCF0B6",
"~. c #D8F4BA",
"^. c #DCF7BF",
"/. c #DEF9BF",
"(. c #E5E2AF",
"). c #E5E3B2",
"_. c #E3E6B3",
"`. c #E3EFB9",
"'. c #E0F5BD",
"]. c #C1C1C1",
"[. c #CFCDC2",
"{. c #C8C8C8",
"}. c #CFD1C8",
"|. c #D1D4CA",
" X c #D1D0CF",
".X c #D1D1D1",
"XX c #D3D3D3",
"oX c #D9D9D9",
"OX c #D1E3C4",
"+X c #DAF4C3",
"@X c #E2F8C1",
"#X c #E0FBC2",
"$X c #E3FAC2",
"%X c #E2E2E2",
"&X c #E6E5E4",
"*X c #EAEAEA",
"=X c #FBFBFC",
"-X c None",
/* pixels */
"-X-X-X-X-X-X-X-X-X-X0 e -X-X-X-X",
"-X&.:./ ~ [ } T u n f b a t -X-X",
"-X9.).E.^.M.` c %.L.h.,.*.B i -X",
"-X) Q._.+Xm.h H h.OXS.j.C.7.c -X",
"-X) (.Q.^.l.n G I { ] <.N.l.s p ",
"-X5.I.'.+X<.m J  .U ' g.Z.%.q z ",
"-XA.'.I.!.b.P | q.0.d.B.Z.h t v ",
"-XH.'.I.E.T.E L n.x.B.t.z.d j -X",
"-Xk.$XK.D.#.C V K Q / X.=.l y -X",
"-Xo.+XU.S = M Z N F @.@.e.E -X-X",
"-X! F.8   @ 2 5.L.1.3.3.i.XXR -X",
"-XY 9   @ % 5 G.1.> , : X A s.-X",
"-X< + # % 4 >.P.[.W ; o t +..XXX",
"7 + # % 3 _ ;.$.}.=X&X.X{.u.p.{.",
"D & % * - -X-X-X-X%X*XoX].r.-X-X",
"-X6 1 -X-X-X-X-X-X-Xy.w.-X-X-X-X"
};
