/* XPM */
static char * josm32DG2_xpm[] = {
"32 32 679 2",
"  	c None",
". 	c #9F4D1B",
"+ 	c #904211",
"@ 	c #873C0B",
"# 	c #A95522",
"$ 	c #964614",
"% 	c #883B0C",
"& 	c #853909",
"* 	c #6A2F08",
"= 	c #5FD15F",
"- 	c #659BF8",
"; 	c #DADFD9",
"> 	c #FFF8DC",
", 	c #FFFBE4",
"' 	c #CB9168",
") 	c #9D4916",
"! 	c #8D3E0E",
"~ 	c #873A0A",
"{ 	c #76340A",
"] 	c #5D2604",
"^ 	c #5ED15E",
"/ 	c #5FD15E",
"( 	c #5FD25F",
"_ 	c #5DD15E",
": 	c #FFF2D6",
"< 	c #6FA1F6",
"[ 	c #5291FF",
"} 	c #5191FF",
"| 	c #8FB4EC",
"1 	c #FAF1D1",
"2 	c #FFF8DE",
"3 	c #F8E8CE",
"4 	c #AD5F2E",
"5 	c #934310",
"6 	c #8D450A",
"7 	c #823C09",
"8 	c #652B05",
"9 	c #70472A",
"0 	c #5DCF5D",
"a 	c #58CE59",
"b 	c #A3DE95",
"c 	c #FBF5DC",
"d 	c #FFF9E0",
"e 	c #FFF7D1",
"f 	c #FFF5D1",
"g 	c #DBE8C9",
"h 	c #89BFB7",
"i 	c #5494F7",
"j 	c #629AFA",
"k 	c #E6E5D5",
"l 	c #FFF6CF",
"m 	c #FFFFE8",
"n 	c #CB8E64",
"o 	c #974411",
"p 	c #90460F",
"q 	c #8E4C09",
"r 	c #733508",
"s 	c #592404",
"t 	c #E6D9C1",
"u 	c #FCF2DF",
"v 	c #5BCB5B",
"w 	c #55CA56",
"x 	c #A9DF99",
"y 	c #D4DFCE",
"z 	c #9DD3C1",
"A 	c #5AC2BE",
"B 	c #45BCBC",
"C 	c #459EA5",
"D 	c #4F90F4",
"E 	c #5190FE",
"F 	c #94B5E9",
"G 	c #FFF8CC",
"H 	c #FFF7D2",
"I 	c #EED2AF",
"J 	c #A45422",
"K 	c #944412",
"L 	c #8A450C",
"M 	c #81410C",
"N 	c #5F2300",
"O 	c #A4876B",
"P 	c #FFF8E0",
"Q 	c #FCF1DB",
"R 	c #5AC75A",
"S 	c #54C556",
"T 	c #9CD88E",
"U 	c #FFF7D8",
"V 	c #A5DAD1",
"W 	c #3BBEBF",
"X 	c #49C2C0",
"Y 	c #64B7AF",
"Z 	c #5B95E6",
"` 	c #4F8FFE",
" .	c #5090FC",
"..	c #C0CEDA",
"+.	c #FFF7CB",
"@.	c #FFF5CE",
"#.	c #C07D4D",
"$.	c #974613",
"%.	c #8A3D0D",
"&.	c #833809",
"*.	c #6E2F06",
"=.	c #673719",
"-.	c #F3E5CA",
";.	c #FFF5DA",
">.	c #FCF0D9",
",.	c #FFF7DC",
"'.	c #57C357",
").	c #55C255",
"!.	c #B8DFA2",
"~.	c #C1DBCB",
"{.	c #9DD4BE",
"].	c #E0E6C2",
"^.	c #FFF4C8",
"/.	c #80A9EE",
"(.	c #4C8DFC",
"_.	c #4F8EFB",
":.	c #C3CFD7",
"<.	c #FFF9CB",
"[.	c #E3BC8F",
"}.	c #A35522",
"|.	c #914311",
"1.	c #843808",
"2.	c #7B3508",
"3.	c #5C2704",
"4.	c #B88970",
"5.	c #FBCCB8",
"6.	c #FDD9C2",
"7.	c #F4E1CA",
"8.	c #FBF0D8",
"9.	c #55BF55",
"0.	c #51BE52",
"a.	c #4EBD4F",
"b.	c #75C86E",
"c.	c #E7EDC6",
"d.	c #FFF6DA",
"e.	c #FFF4C6",
"f.	c #FFF3C6",
"g.	c #FFF6C3",
"h.	c #98B6E1",
"i.	c #4E8DFA",
"j.	c #4D8DFA",
"k.	c #9AB8E2",
"l.	c #FFEDB7",
"m.	c #BD7B4A",
"n.	c #974412",
"o.	c #873B0A",
"p.	c #833909",
"q.	c #672A03",
"r.	c #7F5837",
"s.	c #EDC8B0",
"t.	c #FFCFB9",
"u.	c #FFCDB7",
"v.	c #FDDBC3",
"w.	c #FCF2D9",
"x.	c #48B74B",
"y.	c #47B74A",
"z.	c #7EC973",
"A.	c #A4D690",
"B.	c #DBE9BA",
"C.	c #FFF6D7",
"D.	c #FFF5D6",
"E.	c #FFF5D4",
"F.	c #FFF0C2",
"G.	c #FFF0C3",
"H.	c #FFF2C2",
"I.	c #E4E1C8",
"J.	c #5892F4",
"K.	c #4A8BF9",
"L.	c #669AF0",
"M.	c #CEAC89",
"N.	c #A24F1A",
"O.	c #8D3F0E",
"P.	c #863909",
"Q.	c #773309",
"R.	c #64310F",
"S.	c #BCA787",
"T.	c #F8E0C5",
"U.	c #FCCCB5",
"V.	c #FFCAB4",
"W.	c #FEDCC2",
"X.	c #FCF2D6",
"Y.	c #CDE1AD",
"Z.	c #D0E3B0",
"`.	c #D5E5B4",
" +	c #F1EEC9",
".+	c #F8EDCF",
"++	c #FEF1D4",
"@+	c #FBEED1",
"#+	c #FEF3D3",
"$+	c #FFF4D2",
"%+	c #FFF0BF",
"&+	c #FFF0C0",
"*+	c #FFF1C0",
"=+	c #FFF2BC",
"-+	c #7FA4E0",
";+	c #4989F9",
">+	c #5487E7",
",+	c #A06242",
"'+	c #95430E",
")+	c #84390A",
"!+	c #642B06",
"~+	c #7F5839",
"{+	c #FAF0CF",
"]+	c #FEF3D2",
"^+	c #FFF0D0",
"/+	c #FDE7C8",
"(+	c #F1DAC0",
"_+	c #FAEED2",
":+	c #FCEED0",
"<+	c #FAECCE",
"[+	c #FEF2D1",
"}+	c #F8E8CA",
"|+	c #EED4BF",
"1+	c #F2E0C7",
"2+	c #FFF3D2",
"3+	c #FFF4D1",
"4+	c #FFEFBC",
"5+	c #FFEFBD",
"6+	c #FFEBBC",
"7+	c #EFEAAF",
"8+	c #B0BCCB",
"9+	c #4787F7",
"0+	c #75749C",
"a+	c #A24A0F",
"b+	c #8C3E0D",
"c+	c #873A09",
"d+	c #6F3108",
"e+	c #65320F",
"f+	c #CAB695",
"g+	c #FFFAD8",
"h+	c #FFF5D2",
"i+	c #F8EBCE",
"j+	c #F8EACE",
"k+	c #FEF1D1",
"l+	c #F4EED6",
"m+	c #E7D1BD",
"n+	c #E6B3B0",
"o+	c #E7AFB1",
"p+	c #E7B1B1",
"q+	c #F4D7C2",
"r+	c #FFF3D0",
"s+	c #FFF3CE",
"t+	c #FFEEB9",
"u+	c #FDEAB9",
"v+	c #E7E5AF",
"w+	c #D0ECA7",
"x+	c #D7DBB4",
"y+	c #4E83E7",
"z+	c #A65729",
"A+	c #92410E",
"B+	c #7D3609",
"C+	c #632A05",
"D+	c #825E3F",
"E+	c #FFFEDA",
"F+	c #FCF1CC",
"G+	c #EEDE9E",
"H+	c #ECD76B",
"I+	c #FBEDBE",
"J+	c #FEF2CD",
"K+	c #FFF5D0",
"L+	c #C4C2B6",
"M+	c #EAD6BF",
"N+	c #E8B1B2",
"O+	c #E8B2B2",
"P+	c #F2D1BE",
"Q+	c #FDEFCC",
"R+	c #FEF1CC",
"S+	c #FDEAB5",
"T+	c #F4DFAF",
"U+	c #E6EDAE",
"V+	c #E6ECAD",
"W+	c #FFF5BA",
"X+	c #917172",
"Y+	c #9C460E",
"Z+	c #843909",
"`+	c #6C2F07",
" @	c #5C2B0B",
".@	c #CFC1A1",
"+@	c #E1D8B7",
"@@	c #DBD1B4",
"#@	c #D3C8A9",
"$@	c #E0CE74",
"%@	c #F1DA57",
"&@	c #F2DA53",
"*@	c #F3E185",
"=@	c #FCF0C9",
"-@	c #CFC8B1",
";@	c #E5D9BB",
">@	c #E7B0B1",
",@	c #EFC9BA",
"'@	c #FBEDC9",
")@	c #FBECC7",
"!@	c #EDC3A1",
"~@	c #E9C69F",
"{@	c #FEF0B4",
"]@	c #FFF0B7",
"^@	c #F0D098",
"/@	c #A8531C",
"(@	c #90410F",
"_@	c #783409",
":@	c #5F2501",
"<@	c #735942",
"[@	c #AFA992",
"}@	c #B5AB93",
"|@	c #C3B899",
"1@	c #CDBC64",
"2@	c #E6D47A",
"3@	c #F1DF87",
"4@	c #F4DF75",
"5@	c #ECD66A",
"6@	c #FEF1C8",
"7@	c #E2D8B9",
"8@	c #D7D1B5",
"9@	c #E7B6B1",
"0@	c #E4B6B1",
"a@	c #EAC4B6",
"b@	c #EDC1B6",
"c@	c #DD928E",
"d@	c #E6AD98",
"e@	c #FFF3B4",
"f@	c #FFEFB4",
"g@	c #BF7A45",
"h@	c #873B0B",
"i@	c #813709",
"j@	c #6C2D05",
"k@	c #512B19",
"l@	c #777773",
"m@	c #A49B83",
"n@	c #B6AD91",
"o@	c #C2B78E",
"p@	c #D6C676",
"q@	c #E9D14A",
"r@	c #F4DD61",
"s@	c #EADA91",
"t@	c #FAEDC2",
"u@	c #FDEFC6",
"v@	c #F3E6C0",
"w@	c #C6C1AB",
"x@	c #EBC3B5",
"y@	c #E7B2B1",
"z@	c #E7B2B2",
"A@	c #E8B1B1",
"B@	c #DD8C8D",
"C@	c #DDA090",
"D@	c #FAEDAE",
"E@	c #E2B378",
"F@	c #A04F1B",
"G@	c #8D3E0D",
"H@	c #783308",
"I@	c #5D2601",
"J@	c #484757",
"K@	c #707880",
"L@	c #AAA086",
"M@	c #B4A97B",
"N@	c #C8B54D",
"O@	c #DBC86C",
"P@	c #EEDD9B",
"Q@	c #E9D464",
"R@	c #FAEDBD",
"S@	c #FFF2CA",
"T@	c #FFF1C5",
"U@	c #FFF2C4",
"V@	c #B6B2A2",
"W@	c #F0D1B9",
"X@	c #E7B0B2",
"Y@	c #E09E8F",
"Z@	c #F6DFA2",
"`@	c #FFEDAD",
" #	c #E2C2A4",
".#	c #B57D5D",
"+#	c #955128",
"@#	c #803607",
"##	c #672B05",
"$#	c #482D23",
"%#	c #425374",
"&#	c #717A85",
"*#	c #B0A689",
"=#	c #C2B790",
"-#	c #D3C165",
";#	c #E7CF4D",
">#	c #EFD755",
",#	c #EDE0B7",
"'#	c #FFF2C6",
")#	c #FEF0C3",
"!#	c #FFF1C2",
"~#	c #B7B3A3",
"{#	c #F4DDBC",
"]#	c #E9B7B3",
"^#	c #EAB9B2",
"/#	c #ECC5B5",
"(#	c #F3D5B8",
"_#	c #FDE8A3",
":#	c #FFEAA6",
"<#	c #FBE6A7",
"[#	c #E3C9B0",
"}#	c #D7BAAE",
"|#	c #CFAD9D",
"1#	c #996647",
"2#	c #5B2909",
"3#	c #32374F",
"4#	c #496798",
"5#	c #8897AA",
"6#	c #E3D6AB",
"7#	c #F4E6BC",
"8#	c #FBEDC2",
"9#	c #F4E189",
"0#	c #F2DF89",
"a#	c #FFF1C6",
"b#	c #FCEEC3",
"c#	c #FBECBE",
"d#	c #FDEEBF",
"e#	c #D0CABA",
"f#	c #EBE0C2",
"g#	c #EFD0B5",
"h#	c #F9E2BB",
"i#	c #FFF5C1",
"j#	c #FFF3BF",
"k#	c #F9E5A2",
"l#	c #D3CD9F",
"m#	c #E0D29F",
"n#	c #E1C4AB",
"o#	c #D1B1A3",
"p#	c #CDA999",
"q#	c #C29C8B",
"r#	c #635253",
"s#	c #294D8C",
"t#	c #6995E2",
"u#	c #8EB1EA",
"v#	c #FFF2C1",
"w#	c #FFF2C3",
"x#	c #F4E6C0",
"y#	c #F4E7BE",
"z#	c #F0E4BC",
"A#	c #F1E4BC",
"B#	c #FAEBBC",
"C#	c #FFEFBE",
"D#	c #CDC5B0",
"E#	c #EFE2BC",
"F#	c #F7EABA",
"G#	c #F1E7BD",
"H#	c #E8E2BD",
"I#	c #DFDDBD",
"J#	c #D7D7BC",
"K#	c #97AC9D",
"L#	c #72979D",
"M#	c #D1CBA1",
"N#	c #E1C1A6",
"O#	c #D1AE9F",
"P#	c #BE9A8B",
"Q#	c #766A6E",
"R#	c #385892",
"S#	c #336ED2",
"T#	c #6F9FF1",
"U#	c #77A4F3",
"V#	c #B2C5DB",
"W#	c #F8EBC0",
"X#	c #F3E2B5",
"Y#	c #EDE0B8",
"Z#	c #F3E5BB",
"`#	c #FAEBBD",
" $	c #FFF1BF",
".$	c #FAEABA",
"+$	c #FDEEBB",
"@$	c #C3BBA5",
"#$	c #EFE1B5",
"$$	c #BCC7B9",
"%$	c #A0B8BD",
"&$	c #9DB7BC",
"*$	c #99B5BC",
"=$	c #93B1BB",
"-$	c #56879E",
";$	c #6D959E",
">$	c #CAC59C",
",$	c #C6AB96",
"'$	c #AB8E7F",
")$	c #968464",
"!$	c #758697",
"~$	c #3071DE",
"{$	c #387AE9",
"]$	c #6D9DF0",
"^$	c #78A4F1",
"/$	c #79A5F1",
"($	c #9AB7E4",
"_$	c #C4C5BD",
":$	c #EFDFB2",
"<$	c #FEEEBD",
"[$	c #FBEBB9",
"}$	c #FFEFBA",
"|$	c #C0B9A3",
"1$	c #F3E4B5",
"2$	c #AEC0BB",
"3$	c #8BADBD",
"4$	c #8FAFBD",
"5$	c #8CAEBC",
"6$	c #57889E",
"7$	c #75989C",
"8$	c #B6B090",
"9$	c #827A67",
"0$	c #BDAA76",
"a$	c #E6D18C",
"b$	c #B3BAAF",
"c$	c #2D74EF",
"d$	c #3779E9",
"e$	c #6C9CEF",
"f$	c #77A4F0",
"g$	c #77A4F1",
"h$	c #7CA4E9",
"i$	c #87A6D8",
"j$	c #B6C5D3",
"k$	c #FFEFBB",
"l$	c #FCEBB7",
"m$	c #FFEEB8",
"n$	c #BCB6A0",
"o$	c #F7E6B4",
"p$	c #AFC0BA",
"q$	c #8EAEBD",
"r$	c #91B0BD",
"s$	c #8DADBC",
"t$	c #8FA495",
"u$	c #B4A980",
"v$	c #948F83",
"w$	c #E3D098",
"x$	c #F9E195",
"y$	c #FAE196",
"z$	c #E4D8A3",
"A$	c #3E7CE4",
"B$	c #3377E8",
"C$	c #6B9BEE",
"D$	c #76A3EF",
"E$	c #78A3EC",
"F$	c #87A5D7",
"G$	c #79A3EC",
"H$	c #71A0F1",
"I$	c #9DB8DF",
"J$	c #FDEDBA",
"K$	c #F8E8B3",
"L$	c #FBE9B3",
"M$	c #B8B3A1",
"N$	c #EFE1B3",
"O$	c #CDC8AB",
"P$	c #D0CEB1",
"Q$	c #D5CFAE",
"R$	c #D7CEAA",
"S$	c #D9CCA6",
"T$	c #9F9270",
"U$	c #9D9373",
"V$	c #F7DE91",
"W$	c #FFE997",
"X$	c #FFE697",
"Y$	c #F8E299",
"Z$	c #92A9C0",
"`$	c #3375E6",
" %	c #6999EE",
".%	c #78A2EC",
"+%	c #87A4D7",
"@%	c #79A2E9",
"#%	c #75A2F0",
"$%	c #76A2EF",
"%%	c #719FF1",
"&%	c #A1B9DB",
"*%	c #FFEEB7",
"=%	c #F9E8B5",
"-%	c #DBCFAB",
";%	c #C0BDB4",
">%	c #C2BDAE",
",%	c #B0AA9A",
"'%	c #B1AA99",
")%	c #B0A999",
"!%	c #B2AD9C",
"~%	c #B4AE9C",
"{%	c #CDB97E",
"]%	c #FFEB94",
"^%	c #FFE794",
"/%	c #FFE593",
"(%	c #FFE693",
"_%	c #F3DE97",
":%	c #9EAEB8",
"<%	c #84A3D7",
"[%	c #7AA2E6",
"}%	c #74A2EF",
"|%	c #75A2EE",
"1%	c #72A0EF",
"2%	c #C7CECA",
"3%	c #FFF2B1",
"4%	c #C1BAA4",
"5%	c #E9DCB6",
"6%	c #F0E0B1",
"7%	c #F1E1AE",
"8%	c #CCCEC1",
"9%	c #D4D3C1",
"0%	c #F9E8B4",
"a%	c #FFEEAD",
"b%	c #C5C1A0",
"c%	c #CDC49A",
"d%	c #F3D889",
"e%	c #FEE38F",
"f%	c #FFE691",
"g%	c #FFE591",
"h%	c #FFE790",
"i%	c #FFE38A",
"j%	c #D2CDB2",
"k%	c #7CA2E4",
"l%	c #73A0EE",
"m%	c #74A0EC",
"n%	c #8EAEE1",
"o%	c #F6E7B5",
"p%	c #D3C7A3",
"q%	c #FFECAE",
"r%	c #FFF2AE",
"s%	c #FFF1AE",
"t%	c #B1C1D1",
"u%	c #7CA5E9",
"v%	c #80A7E7",
"w%	c #8FAFDF",
"x%	c #96B2DA",
"y%	c #477ED9",
"z%	c #4A7FD7",
"A%	c #819BBC",
"B%	c #E1CE8F",
"C%	c #EBD389",
"D%	c #E8D289",
"E%	c #E9D28A",
"F%	c #E7CF89",
"G%	c #EED68A",
"H%	c #FFEDAA",
"I%	c #9FB8D9",
"J%	c #719FED",
"K%	c #73A0EC",
"L%	c #7FA7E7",
"M%	c #BBC7CC",
"N%	c #E4D9B0",
"O%	c #A9BACD",
"P%	c #88A8DC",
"Q%	c #8CACDF",
"R%	c #73A0EB",
"S%	c #729FEB",
"T%	c #6F9CEA",
"U%	c #2F71E2",
"V%	c #3173E2",
"W%	c #3173E3",
"X%	c #5C89CE",
"Y%	c #EED890",
"Z%	c #FEE28A",
"`%	c #FADE88",
" &	c #F4D984",
".&	c #D0B970",
"+&	c #C3B27D",
"@&	c #BBBFBA",
"#&	c #709EED",
"$&	c #739FEB",
"%&	c #77A1E9",
"&&	c #8EADDD",
"*&	c #7097DB",
"=&	c #719BE2",
"-&	c #719CE5",
";&	c #719CE6",
">&	c #729EEA",
",&	c #2E70E1",
"'&	c #3172E0",
")&	c #2B6BDC",
"!&	c #5983C1",
"~&	c #DCC375",
"{&	c #978651",
"]&	c #3C5072",
"^&	c #5979AE",
"/&	c #6D95D9",
"(&	c #729EE9",
"_&	c #759FE7",
":&	c #729BE3",
"<&	c #729BE2",
"[&	c #6F9AE7",
"}&	c #2E70DE",
"|&	c #2E6BD1",
"1&	c #2D64C2",
"2&	c #265097",
"3&	c #5F80B7",
"4&	c #7099E0",
"5&	c #719CE4",
"6&	c #729CE4",
"                                                . + @           ",
"                                              # $ % & *         ",
"    = =                             - ; > , ' ) ! ~ { ]         ",
"    ^ ^ ^ / ( _             : < [ } | 1 2 3 4 5 6 7 8 9         ",
"    0 0 0 0 0 a b c d e f g h i } j k l m n o p q r s t u       ",
"    v v v v v w x 2 y z A B C D E F G H I J K L M N O P Q 2     ",
"    R R R R R S T U V W X Y Z `  ...+.@.#.$.%.&.*.=.-.;.>.,.    ",
"    '.'.'.'.'.).!.> ~.{.].^./.(._.:.<.[.}.|.1.2.3.4.5.6.7.8.    ",
"    9.9.9.0.a.b.c.d.U e.f.g.h.i.j.k.l.m.n.o.p.q.r.s.t.u.v.w.    ",
"    x.y.y.z.A.B.C.D.E.F.G.H.I.J.K.L.M.N.O.P.Q.R.S.T.U.V.W.X.    ",
"    Y.Z.`. +.+++@+#+$+%+&+*+=+-+;+>+,+'+o.)+!+~+{+]+^+/+(+_+    ",
"    :+<+:+[+}+|+1+2+3+4+5+6+7+8+9+0+a+b+c+d+e+f+g+h+i+j+k+$+    ",
"    f l+m+n+o+p+q+r+s+t+u+v+w+x+y+z+A+~ B+C+D+E+F+i+G+H+I+J+    ",
"    K+L+M+N+O+o+P+Q+R+S+T+U+V+W+X+Y+%.Z+`+ @.@+@@@#@$@%@&@*@    ",
"    =@-@;@p+O+>@,@'@)@!@~@{@]@^@/@(@P._@:@<@[@}@|@1@2@3@4@5@    ",
"    6@7@8@9@O+O+0@a@b@c@d@e@f@g@$.h@i@j@k@l@m@n@o@p@q@r@s@t@    ",
"    u@v@w@x@N+O+y@z@A@B@C@D@E@F@G@Z+H@I@J@K@L@M@N@O@P@Q@R@S@    ",
"    T@U@V@W@X@O+O+O+A@Y@Z@`@ #.#+#@###$#%#&#*#=#-#;#>#,#'#T@    ",
"    )#!#~#{#p+]#^#/#(#_#:#<#[#}#|#1#2#3#4#5#6#7#8#9#0#a#b#b#    ",
"    c#d#e#f#g#h#%+i#j#k#l#m#n#o#p#q#r#s#t#u#!#v#w#'#x#y#z#A#    ",
"    B#C#D#E#F#G#H#I#J#K#L#M#N#O#P#Q#R#S#T#U#V#W#X#Y#Z#`# $%+    ",
"    .$+$@$#$$$%$&$*$=$-$;$>$,$'$)$!$~${$]$^$/$($_$:$<$5+5+5+    ",
"    [$}$|$1$2$3$4$4$5$6$7$8$9$0$a$b$c$d$e$f$g$h$i$j$k$k$k$k$    ",
"    l$m$n$o$p$q$r$r$s$t$u$v$w$x$y$z$A$B$C$D$E$F$G$H$I$J$t+t+    ",
"    K$L$M$N$O$P$Q$R$S$T$U$V$W$X$X$Y$Z$`$ %.%+%@%#%$%%%&%*%*%    ",
"    =%-%;%>%,%'%)%!%~%{%]%^%/%/%/%(%_%:%-+<%[%}%|%|%|%1%2%3%    ",
"    |$4%5%6%7%8%9%0%a%b%c%d%e%f%g%g%h%i%j%k%l%m%m%m%m%m%n%o%    ",
"    p%q%r%s%t%u%v%w%x%y%z%A%B%C%D%E%F%G%H%I%J%K%K%K%K%K%L%M%    ",
"    N%O%P%Q%R%S%S%S%T%U%V%W%X%Y%Z%`% &.&+&@&#&$&S%S%S%S%%&&&    ",
"        *&=&-&;&>&>&T%,&'&'&)&!&~&{&        ]&^&/&;&;&>&(&_&    ",
"                :&<&[&}&|&1&2&                      3&4&5&6&    ",
"                                                                "};
