/* XPM */
static char *josm___[] = {
/* columns rows colors chars-per-pixel */
"32 32 256 2",
"   c #0F0F0F",
".  c #14100D",
"X  c #190D01",
"o  c #2C1A08",
"O  c #3E2205",
"+  c #21251E",
"@  c #362412",
"#  c #222322",
"$  c #262A25",
"%  c #333433",
"&  c #363932",
"*  c #393A37",
"=  c #3D3D3E",
"-  c #383638",
";  c #333A2E",
":  c #44280B",
">  c #50300E",
",  c #4E3B12",
"<  c #4B3B1B",
"1  c #503E15",
"2  c #5D3710",
"3  c #532E08",
"4  c #613A12",
"5  c #4B3F38",
"6  c #30422C",
"7  c #3E413B",
"8  c #554412",
"9  c #5D4813",
"0  c #5E4B18",
"q  c #5C4613",
"w  c #6D550F",
"e  c #70540F",
"r  c #634B13",
"t  c #6B4F12",
"y  c #614A18",
"u  c #6D5A1D",
"i  c #6B5010",
"p  c #715311",
"a  c #5C4B29",
"s  c #5C522F",
"d  c #41433C",
"f  c #444A3C",
"g  c #4B453B",
"h  c #574A3A",
"j  c #465D38",
"k  c #625120",
"l  c #6D5823",
"z  c #715D22",
"x  c #634F3B",
"c  c #635338",
"v  c #795A3A",
"b  c #6F603A",
"n  c #736029",
"m  c #454546",
"M  c #464A42",
"N  c #4A4A4A",
"B  c #504E4F",
"V  c #5A4642",
"C  c #4D514E",
"Z  c #525A4C",
"A  c #53584D",
"S  c #4F4D50",
"D  c #535253",
"F  c #555D52",
"G  c #595D55",
"H  c #5C5C5A",
"J  c #5C5653",
"K  c #635940",
"L  c #645D55",
"P  c #53614D",
"I  c #5A6453",
"U  c #5D625D",
"Y  c #5B6A50",
"T  c #587840",
"R  c #776B44",
"E  c #626B5B",
"W  c #646559",
"Q  c #796C59",
"!  c #6D7B5F",
"~  c #5C5D60",
"^  c #5F6560",
"/  c #616261",
"(  c #69696A",
")  c #686A65",
"_  c #6E7962",
"`  c #6C7266",
"'  c #737C66",
"]  c #73766D",
"[  c #6F6E70",
"{  c #60767F",
"}  c #727473",
"|  c #7B7B7B",
" . c #777878",
".. c #736D69",
"X. c #84592C",
"o. c #8D6339",
"O. c #876A48",
"+. c #877A5B",
"@. c #806867",
"#. c #689844",
"$. c #6B8555",
"%. c #75A74A",
"&. c #7AAB53",
"*. c #7EB551",
"=. c #6FA358",
"-. c #7A856D",
";. c #78876A",
":. c #7B9566",
">. c #7C8B75",
",. c #709279",
"<. c #6B8F73",
"1. c #77AE7F",
"2. c #71A971",
"3. c #848357",
"4. c #928054",
"5. c #84B55B",
"6. c #808163",
"7. c #988666",
"8. c #82877D",
"9. c #998876",
"0. c #8B9B7B",
"q. c #869578",
"w. c #8B9872",
"e. c #AE977E",
"r. c #A7856A",
"t. c #86B764",
"y. c #92B96D",
"u. c #8DA07E",
"i. c #90A17F",
"p. c #94B977",
"a. c #87A76D",
"s. c #B1AA76",
"d. c #B8BA7D",
"f. c #8AC657",
"g. c #91C467",
"h. c #99C276",
"j. c #96D663",
"k. c #A1DC6C",
"l. c #A0CD73",
"z. c #BFC27E",
"x. c #A6DD7A",
"c. c #7E7E81",
"v. c #6091BB",
"b. c #709BB9",
"n. c #669AA1",
"m. c #70A0B6",
"M. c #6BA0B7",
"N. c #5B8ACE",
"B. c #6091CB",
"V. c #848384",
"C. c #8B8B8B",
"Z. c #898685",
"A. c #99978C",
"S. c #929294",
"D. c #9B9B9B",
"F. c #969398",
"G. c #A79A8E",
"H. c #91A281",
"J. c #95AC82",
"K. c #98AA86",
"L. c #9BAB8A",
"P. c #97A389",
"I. c #9CB28C",
"U. c #98B382",
"Y. c #A4A68C",
"T. c #A5BA8D",
"R. c #A2AF9B",
"E. c #A3B396",
"W. c #A6BA98",
"Q. c #BCBE96",
"!. c #8FAFA3",
"~. c #96B8A3",
"^. c #ABABAB",
"/. c #A5A5A5",
"(. c #B1BEA6",
"). c #B8B6A7",
"_. c #B2B2B2",
"`. c #BCBCBC",
"'. c #BFBAB5",
"]. c #B0B4A4",
"[. c #D6B994",
"{. c #E0BB91",
"}. c #A7C78B",
"|. c #ACC395",
" X c #AEC29A",
".X c #B1C59C",
"XX c #B4C99D",
"oX c #B5C899",
"OX c #B2D192",
"+X c #B1E286",
"@X c #9FC0AB",
"#X c #A7C6A8",
"$X c #B2C5A3",
"%X c #B5CBA3",
"&X c #B9CDA2",
"*X c #B7C8AA",
"=X c #BDD4A4",
"-X c #B8D5AA",
";X c #BDCBB5",
":X c #DBCD9D",
">X c #D6C497",
",X c #CAC69A",
"<X c #E3CC9D",
"1X c #D9C6A0",
"2X c #C2DBAB",
"3X c #C4D7AB",
"4X c #DDD2A3",
"5X c #DFDCA8",
"6X c #C9C5BA",
"7X c #C3D3B6",
"8X c #C9DBB8",
"9X c #C8CBA8",
"0X c #E3CEA2",
"qX c #E1D3A3",
"wX c #E3DAAA",
"eX c #E8D6A5",
"rX c #C2E7A4",
"tX c #D9E0AE",
"yX c #CEF1AB",
"uX c #D1F3AE",
"iX c #CDE4B6",
"pX c #D3EBBB",
"aX c #DBECBB",
"sX c #D5E8B6",
"dX c #D3F3B2",
"fX c #DBF5BD",
"gX c #DCF8BC",
"hX c #D9F3B8",
"jX c #E0E4AF",
"kX c #E4EAB7",
"lX c #E5F5BE",
"zX c #E2FABE",
"xX c #C3C3C3",
"cX c #CCCCCC",
"vX c #C9C9C5",
"bX c #CDD7C6",
"nX c #D1DEC3",
"mX c #D3D3D3",
"MX c #DCDCDC",
"NX c #DAD8D6",
"BX c #D5EAC7",
"VX c #DCF5C2",
"CX c #DFFAC2",
"ZX c #D3E0D2",
"AX c #CDE1C5",
"SX c #E3FBC4",
"DX c #E4FFC9",
"FX c #E7FBC8",
"GX c #E0EADB",
"HX c #E4E5E4",
"JX c #ECECEC",
"KX c #E8E8E7",
"LX c #F4F5F5",
"PX c #FEFEFE",
"IX c #E7F2E1",
"UX c None",
/* pixels */
"UXUXUXUXUXUXUXUXUXUXUXUXUXUXUXUXUXUXUXUXUXUXUXUXUXUXUXUXUXUXUXUX",
"UX& ; UXUXUXUXUXUXUXUXUXUX6 f M UXUX* m N C N m % UX& UXUXUXUXUX",
"UX* 0.A._ g d UXUX7 Z ;.:.t.oX6.% H ( / D B H ^ ( B f & UXUXUXUX",
"UXUXK.FXlX[..XH.u. XrXrX+XyXL.U } G E -.I ;.;.;.A / ( = UXUXUXUX",
"UXUX' SXwX0XFXDXCXgX+Xj.k.U.U ] D q.;X8X|.h.y.}.W.;.F  .N UXUXUX",
"UXUXZ sXSX0X0XSXgXCXdXk.*.P  .Z T.;XZXBX-X}.T.}.&X%X0.I  .= UXUX",
"UXUXM XXDXlX<XSXgXCXhXx.T  .P :.=XiXGXIXAX;XXXoX|.2XXXu.( ( UXUX",
"UXUXUXH.DXlX<XFXCXgXgXOXI  .7 %.t.}.8XAX&X|.#XI.$X8X-X-XI c.5 UX",
"UXUXUXH.zX4XqXCXVXhXgXa.` W #.#.%.5.h.}.p.t.U.$XI.#XT.2XZ ` H UX",
"UXUXd &XkX<XSXgXhXpXVX:.8.Z %.%.*.n.f.g.t.f.p.XXW.&X=X2X; D } UX",
"UXUXI pXeXkXDXDXVXVXdX;.C.Z %.#.M.B.2.*.5.h.U.&XW.iX.XL.# S c.UX",
"UXUX' CXeXwXSXzXgXVXyX$.C.Y =.=.v.N.n.5.*.g.|.(. X%X=X! # D V.UX",
"UXUXi.SXlX:X<XjXVXhXyX:.C.` ,.2.M.B.B.#Xy.5.}.(.$X.XXXf # [  .UX",
"UX7 oXFXSXSXkX{.tXuXyXXXV.c.{ !.-X~.m.@X|.XX*X*XW.2XJ.+   S./ UX",
"UXM 3XgXgXzXwX<XaXzXSXpX] F.P  X=X-X}.OX$X$X6X(.$X Xu.$ m D.m UX",
"UX7 W.SXfXaX>XsXpXtXhXFXL.} ( _ =X}.&X&X|.-XR.(.R.$X0.& | / UXUX",
"UXUXw.DXSXzX4X:X1X[.1X9XP.C C.C w.T.U.I.w.I.0.E.(.$X] / ( - UXUX",
"UXUXE pXSXFXSX:X1X[.r...C } V.| G E 6.+.;.u.;.L.A.8. .~ - UXUXUX",
"UXUXC *XVXSXzXSXQ.z y k  .S.C.G U ( J V ` 8.) } V.S.] h 5 UXUXUX",
"UXUX7 E.BXVXFXz.u , 1 9 b Z.^ >.0.L F.^._.`.xXxXcX_.Y.,XW UXUXUX",
"UXUXUX0.VXiXT.u , , 8 8 r a >.8X4X).xX`.`.xXcXcXNXKXHXnX_ UXUXUX",
"UXUXUXL.gXd.u , 8 8 9 r i 0 Y.VX6XxXD.r.r.e.G.+.9.].KXKX| UXUXUX",
"UXUXd &Xz.u , , 8 0 r i p y |.aXvXS.v X.o.O.o.v x 5 ) mX`.UXUXUX",
"UXUXI s.l , 8 8 q r i w r 3.aXsXvXO.3 2 4 2 > : @ o . C.`.UXUXUX",
"UXUXs u 1 1 8 q r t p r O.9XpXAXcX'.c : : O o o X   N _.mXmXcXUX",
"UX4.0 , 1 1 q r i e r O.>X:X>X>X6XLXNXA.L h 5 g H C.^.`.cXMXKXxX",
"s.z , 1 8 q r t w 9 3.<X5XiXoXtX8XLXPXPXJXMXmXmXmXvX`.^.`.`.mXUX",
"7.r 1 8 q r p p r R W.0.Q Z M F 8.HXPXPXPXLXHXMXmXxX`.^._.xX`.UX",
"UXl 8 9 r t i r < M f UXUXUXUXUXUXvXJXPXPXLXJXHXNXcX_./._.UXUXUX",
"UX7.y r p p 0 s UXUXUXUXUXUXUXUXUXUX`.NXHXHXMXmX`./.^.UXUXUXUXUX",
"UXUX+.y t y a UXUXUXUXUXUXUXUXUXUXUXUX_._.^.D.D.D.UXUXUXUXUXUXUX",
"UXUXUXUXc K UXUXUXUXUXUXUXUXUXUXUXUXUXUXUXUXUXUXUXUXUXUXUXUXUXUX"
};
