<?xml version="1.0" encoding="UTF-8" standalone="no"?>
<!-- Created with Inkscape (http://www.inkscape.org/) -->

<svg
   xmlns:dc="http://purl.org/dc/elements/1.1/"
   xmlns:cc="http://creativecommons.org/ns#"
   xmlns:rdf="http://www.w3.org/1999/02/22-rdf-syntax-ns#"
   xmlns:svg="http://www.w3.org/2000/svg"
   xmlns="http://www.w3.org/2000/svg"
   xmlns:sodipodi="http://sodipodi.sourceforge.net/DTD/sodipodi-0.dtd"
   xmlns:inkscape="http://www.inkscape.org/namespaces/inkscape"
   width="16"
   height="16"
   viewBox="0 0 16 16"
   id="svg4264"
   version="1.1"
   inkscape:version="0.91 r13725"
   sodipodi:docname="way_escape.svg">
  <defs
     id="defs4266" />
  <sodipodi:namedview
     id="base"
     pagecolor="#ffffff"
     bordercolor="#666666"
     borderopacity="1.0"
     inkscape:pageopacity="0.0"
     inkscape:pageshadow="2"
     inkscape:zoom="32"
     inkscape:cx="2.7365774"
     inkscape:cy="7.827016"
     inkscape:document-units="px"
     inkscape:current-layer="layer1"
     showgrid="true"
     units="px"
     inkscape:snap-bbox="true"
     inkscape:bbox-paths="true"
     inkscape:bbox-nodes="true"
     inkscape:snap-bbox-edge-midpoints="false"
     inkscape:snap-bbox-midpoints="false">
    <inkscape:grid
       type="xygrid"
       id="grid4137" />
  </sodipodi:namedview>
  <metadata
     id="metadata4269">
    <rdf:RDF>
      <cc:Work
         rdf:about="">
        <dc:format>image/svg+xml</dc:format>
        <dc:type
           rdf:resource="http://purl.org/dc/dcmitype/StillImage" />
        <dc:title></dc:title>
        <cc:license
           rdf:resource="http://creativecommons.org/publicdomain/zero/1.0/" />
      </cc:Work>
      <cc:License
         rdf:about="http://creativecommons.org/publicdomain/zero/1.0/">
        <cc:permits
           rdf:resource="http://creativecommons.org/ns#Reproduction" />
        <cc:permits
           rdf:resource="http://creativecommons.org/ns#Distribution" />
        <cc:permits
           rdf:resource="http://creativecommons.org/ns#DerivativeWorks" />
      </cc:License>
    </rdf:RDF>
  </metadata>
  <g
     inkscape:label="Camada 1"
     inkscape:groupmode="layer"
     id="layer1"
     transform="translate(0,-1036.3621)">
    <g
       id="g3382"
       transform="matrix(1.3846064,0,0,1.1346381,-204.78322,616.43092)"
       style="fill:#ffffff;fill-opacity:1">
      <rect
         id="XMLID_61_"
         x="147.89999"
         y="370.10001"
         class="st4"
         width="6.5"
         height="14.1"
         style="fill:#ffffff;fill-opacity:1" />
    </g>
    <path
       sodipodi:nodetypes="ccccc"
       style="fill:#808080;fill-opacity:1"
       inkscape:connector-curvature="0"
       id="path4158"
       d="m 9.0000011,1052.3621 -1.0000029,0 0,-16 1.0000029,0 z"
       class="st5" />
    <path
       sodipodi:nodetypes="ccccc"
       style="fill:#808080;fill-opacity:1"
       inkscape:connector-curvature="0"
       id="path3387-0"
       d="m 5.0000006,1039.3621 -1.000003,0 0,-2 1.000003,0 z"
       class="st5" />
    <path
       sodipodi:nodetypes="ccccc"
       style="fill:#808080;fill-opacity:1"
       inkscape:connector-curvature="0"
       id="path3387-0-9"
       d="m 5.0000036,1043.3621 -1.0000031,0 0,-2 1.0000031,0 z"
       class="st5" />
    <path
       sodipodi:nodetypes="ccccc"
       style="fill:#808080;fill-opacity:1"
       inkscape:connector-curvature="0"
       id="path3387-0-9-7"
       d="m 5.0000037,1047.3621 -1.0000032,0 0,-2 1.0000032,0 z"
       class="st5" />
    <path
       sodipodi:nodetypes="ccccc"
       style="fill:#808080;fill-opacity:1"
       inkscape:connector-curvature="0"
       id="path3387-0-9-4"
       d="m 5.0000006,1051.3621 -1.0000032,0 0,-2 1.0000032,0 z"
       class="st5" />
    <rect
       style="fill:#ffff00"
       height="1.9550747"
       width="1.9550747"
       class="st11"
       transform="matrix(0.9348333,0.35508688,-0.35508688,0.9348333,0,0)"
       y="964.44409"
       x="379.53418"
       id="XMLID_308_-8" />
    <rect
       height="1.9550747"
       width="1.9550747"
       transform="matrix(0.9348333,0.35508688,-0.35508688,0.9348333,0,0)"
       y="964.43304"
       x="381.49033"
       id="XMLID_307_-3"
       style="fill:#000000;fill-opacity:1" />
    <rect
       height="1.9550747"
       width="1.9550747"
       transform="matrix(0.9348333,0.35508688,-0.35508688,0.9348333,0,0)"
       y="966.39923"
       x="379.53415"
       id="XMLID_306_-4" />
    <rect
       style="fill:#ffff00"
       height="1.9550747"
       width="1.9550747"
       class="st11"
       transform="matrix(0.9348333,0.35508688,-0.35508688,0.9348333,0,0)"
       y="966.38818"
       x="381.49026"
       id="XMLID_305_-0" />
    <rect
       style="fill:#ffff00"
       height="1.9550747"
       width="1.9550747"
       class="st11"
       transform="matrix(0.9348333,0.35508688,-0.35508688,0.9348333,0,0)"
       y="968.35437"
       x="379.53409"
       id="XMLID_304_-9" />
    <rect
       height="1.9550747"
       width="1.9550747"
       transform="matrix(0.9348333,0.35508688,-0.35508688,0.9348333,0,0)"
       y="968.34326"
       x="381.49023"
       id="XMLID_303_-4" />
    <rect
       height="1.9550747"
       width="1.9550747"
       transform="matrix(0.9348333,0.35508688,-0.35508688,0.9348333,0,0)"
       y="970.30945"
       x="379.53406"
       id="XMLID_302_-4" />
    <rect
       style="fill:#ffff00"
       height="1.9550747"
       width="1.9550747"
       class="st11"
       transform="matrix(0.9348333,0.35508688,-0.35508688,0.9348333,0,0)"
       y="970.2984"
       x="381.4902"
       id="XMLID_301_-4" />
    <rect
       style="fill:#ffff00"
       height="1.9550747"
       width="1.9550747"
       class="st11"
       transform="matrix(0.9348333,0.35508688,-0.35508688,0.9348333,0,0)"
       y="972.26459"
       x="379.53403"
       id="XMLID_300_-8" />
    <rect
       height="1.9550747"
       width="1.9550747"
       transform="matrix(0.9348333,0.35508688,-0.35508688,0.9348333,0,0)"
       y="972.25354"
       x="381.49014"
       id="XMLID_299_-9" />
    <rect
       height="1.9550747"
       width="1.9550747"
       transform="matrix(0.9348333,0.35508688,-0.35508688,0.9348333,0,0)"
       y="974.21973"
       x="379.53397"
       id="XMLID_298_-0" />
    <rect
       style="fill:#ffff00"
       height="1.9550747"
       width="1.9550747"
       class="st11"
       transform="matrix(0.9348333,0.35508688,-0.35508688,0.9348333,0,0)"
       y="974.20862"
       x="381.49011"
       id="XMLID_297_-5" />
    <rect
       style="fill:#ffff00"
       height="1.9550747"
       width="1.9550747"
       class="st11"
       transform="matrix(0.9348333,0.35508688,-0.35508688,0.9348333,0,0)"
       y="976.17487"
       x="379.53394"
       id="XMLID_296_-7" />
    <rect
       height="1.9550747"
       width="1.9550747"
       transform="matrix(0.9348333,0.35508688,-0.35508688,0.9348333,0,0)"
       y="976.16376"
       x="381.49008"
       id="XMLID_295_-6" />
    <rect
       height="1.9550747"
       width="1.9550747"
       transform="matrix(0.9348333,0.35508688,-0.35508688,0.9348333,0,0)"
       y="978.12994"
       x="379.53387"
       id="XMLID_294_-7" />
    <rect
       style="fill:#ffff00"
       height="1.9550747"
       width="1.9550747"
       class="st11"
       transform="matrix(0.9348333,0.35508688,-0.35508688,0.9348333,0,0)"
       y="978.1189"
       x="381.49002"
       id="XMLID_293_-0" />
    <path
       class="st5"
       d="m 1.0000025,1052.3621 -1.00000297683724,0 0,-16 1.00000297683724,0 z"
       id="path4156"
       inkscape:connector-curvature="0"
       style="fill:#808080;fill-opacity:1"
       sodipodi:nodetypes="ccccc" />
  </g>
</svg>
