<?xml version="1.0" encoding="UTF-8" standalone="no"?>
<svg xmlns="http://www.w3.org/2000/svg" version="1.1" height="800" width="400">

<circle r="56" cx="188" cy="105" style="fill:black; stroke:none"/>

<path style="fill:black; stroke:none" d="M 22.000000,427.00000 C 173.66667,190.33333 159.33333,183.66667 216.00000,182.00000 C 249.00000,183.00000 250.00000,192.00000 306.00000,236.00000 C 375.00000,286.66667 370.00000,287.33333 369.00000,343.00000 C 368.66667,410.00000 373.33333,405.00000 320.00000,430.00000 L 320.00000,317.00000 L 273.00000,275.00000 L 273.00000,434.00000 L 161.00000,433.00000 L 160.00000,307.00000 C 68.000000,449.00000 74.000000,441.00000 22.000000,427.00000 z "/>

<path style="fill:black; stroke:none" d="M 163.00000,450.00000 L 272.00000,450.00000 C 272.00000,475.00000 280.00000,473.00000 338.00000,582.00000 C 399.00000,694.33333 400.00000,686.66667 365.00000,751.00000 L 214.00000,480.00000 C 71.000000,756.66667 89.000000,748.33333 10.000000,743.00000 L 89.000000,595.00000 C 156.66667,472.66667 160.33333,472.33333 163.00000,450.00000 z "/>

</svg>