<?xml version="1.0" encoding="UTF-8" standalone="no"?>
<svg
   xmlns:ooo="http://xml.openoffice.org/svg/export"
   xmlns:dc="http://purl.org/dc/elements/1.1/"
   xmlns:cc="http://creativecommons.org/ns#"
   xmlns:rdf="http://www.w3.org/1999/02/22-rdf-syntax-ns#"
   xmlns:svg="http://www.w3.org/2000/svg"
   xmlns="http://www.w3.org/2000/svg"
   xmlns:sodipodi="http://sodipodi.sourceforge.net/DTD/sodipodi-0.dtd"
   xmlns:inkscape="http://www.inkscape.org/namespaces/inkscape"
   width="1192.9474"
   height="681.87598"
   version="1.1"
   id="svg2"
   inkscape:version="0.48.1 r9760"
   sodipodi:docname="Sinnbild Kleinkraftrad.svg">
  <metadata
     id="metadata20">
    <rdf:RDF>
      <cc:Work
         rdf:about="">
        <dc:format>image/svg+xml</dc:format>
        <dc:type
           rdf:resource="http://purl.org/dc/dcmitype/StillImage" />
        <dc:title></dc:title>
      </cc:Work>
    </rdf:RDF>
  </metadata>
  <defs
     id="defs18">
    <g
       transform="scale(4.8828125e-4,-4.8828125e-4)"
       id="bullet-char-template(8211)">
      <path
         id="path40"
         d="m -4,459 1139,0 0,147 -1139,0 0,-147 z"
         inkscape:connector-curvature="0" />
    </g>
    <g
       transform="scale(4.8828125e-4,-4.8828125e-4)"
       id="bullet-char-template(8226)">
      <path
         id="path37"
         d="m 346,457 c -73,0 -137,26 -191,78 -54,51 -81,114 -81,188 0,73 27,136 81,188 54,52 118,78 191,78 73,0 134,-26 185,-79 51,-51 77,-114 77,-187 0,-75 -25,-137 -76,-188 -50,-52 -112,-78 -186,-78 z"
         inkscape:connector-curvature="0" />
    </g>
    <g
       transform="scale(4.8828125e-4,-4.8828125e-4)"
       id="bullet-char-template(9679)">
      <path
         id="path34"
         d="M 813,0 C 632,0 489,54 383,161 276,268 223,411 223,592 c 0,181 53,324 160,431 106,107 249,161 430,161 179,0 323,-54 432,-161 108,-107 162,-251 162,-431 0,-180 -54,-324 -162,-431 C 1136,54 992,0 813,0 z"
         inkscape:connector-curvature="0" />
    </g>
    <g
       transform="scale(4.8828125e-4,-4.8828125e-4)"
       id="bullet-char-template(10004)">
      <path
         id="path31"
         d="M 285,-33 C 182,-33 111,30 74,156 52,228 41,333 41,471 c 0,78 14,145 41,201 34,71 87,106 158,106 53,0 88,-31 106,-94 l 23,-176 c 8,-64 28,-97 59,-98 l 735,706 c 11,11 33,17 66,17 42,0 63,-15 63,-46 l 0,-122 c 0,-36 -10,-64 -30,-84 L 442,47 C 390,-6 338,-33 285,-33 z"
         inkscape:connector-curvature="0" />
    </g>
    <g
       transform="scale(4.8828125e-4,-4.8828125e-4)"
       id="bullet-char-template(10007)">
      <path
         id="path28"
         d="m 0,-2 c -7,16 -16,29 -25,39 l 381,530 c -94,256 -141,385 -141,387 0,25 13,38 40,38 9,0 21,-2 34,-5 21,4 42,12 65,25 l 27,-13 111,-251 280,301 64,-25 24,25 c 21,-10 41,-24 62,-43 C 886,937 835,863 770,784 769,783 710,716 594,584 L 774,223 c 0,-27 -21,-55 -63,-84 l 16,-20 C 717,90 699,76 672,76 641,76 570,178 457,381 L 164,-76 c -22,-34 -53,-51 -92,-51 -42,0 -63,17 -64,51 -7,9 -10,24 -10,44 0,9 1,19 2,30 z"
         inkscape:connector-curvature="0" />
    </g>
    <g
       transform="scale(4.8828125e-4,-4.8828125e-4)"
       id="bullet-char-template(10132)">
      <path
         id="path25"
         d="M 2015,739 1276,0 717,0 l 543,543 -1086,0 0,393 1086,0 -543,545 557,0 741,-742 z"
         inkscape:connector-curvature="0" />
    </g>
    <g
       transform="scale(4.8828125e-4,-4.8828125e-4)"
       id="bullet-char-template(10146)">
      <path
         id="path22"
         d="M 174,0 602,739 174,1481 1456,739 174,0 z m 1184,739 -1049,607 350,-607 699,0 z"
         inkscape:connector-curvature="0" />
    </g>
    <g
       transform="scale(4.8828125e-4,-4.8828125e-4)"
       id="bullet-char-template(57354)">
      <path
         id="path19"
         d="m 8,1128 1129,0 L 1137,0 8,0 8,1128 z"
         inkscape:connector-curvature="0" />
    </g>
    <g
       transform="scale(4.8828125e-4,-4.8828125e-4)"
       id="bullet-char-template(57356)">
      <path
         id="path16"
         d="M 580,1141 1163,571 580,0 -4,571 580,1141 z"
         inkscape:connector-curvature="0" />
    </g>
    <g
       id="g11"
       ooo:id-list="id3 id4 id5 id6 id7 id8 id9 id10 id11 id12 id13 id14 id15"
       ooo:slide="id1" />
    <clipPath
       clipPathUnits="userSpaceOnUse"
       id="presentation_clip_path">
      <rect
         id="rect7"
         height="23690"
         width="26568"
         y="0"
         x="0" />
    </clipPath>
  </defs>
  <sodipodi:namedview
     pagecolor="#ffffff"
     bordercolor="#666666"
     borderopacity="1"
     objecttolerance="10"
     gridtolerance="10"
     guidetolerance="10"
     inkscape:pageopacity="0"
     inkscape:pageshadow="2"
     inkscape:window-width="1091"
     inkscape:window-height="939"
     id="namedview16"
     showgrid="false"
     showguides="true"
     inkscape:guide-bbox="true"
     inkscape:zoom="0.3713418"
     inkscape:cx="363.63247"
     inkscape:cy="302.77832"
     inkscape:window-x="56"
     inkscape:window-y="0"
     inkscape:window-maximized="0"
     inkscape:current-layer="svg2"
     fit-margin-top="0"
     fit-margin-left="0"
     fit-margin-right="0"
     fit-margin-bottom="0" />
  <path
     style="fill:#000000;fill-opacity:1;stroke:#000000;stroke-width:2.7155664;stroke-linecap:butt;stroke-linejoin:miter;stroke-miterlimit:4;stroke-opacity:1;stroke-dasharray:none"
     d="m 463.09269,1.3762983 c -4.91273,0.0903 -17.9952,1.01241 -21.31241,1.73355 -13.26888,2.88454 -74.88635,16.5630197 -114.77091,37.4751697 -24.73113,12.96697 -29.45421,27.15788 -30.03111,36.9653 -0.57692,9.80744 9.81677,14.9532 16.16276,23.606822 6.34598,8.65361 5.39399,10.57588 3.08635,24.42166 -2.30762,13.84578 -3.85467,16.86323 -10.20066,18.59395 -6.86239,1.78109 -10.94013,1.54717 -15.72771,-1.86941 0.96502,-6.78518 1.59829,-12.94401 0.4079,-14.53119 -2.30919,-3.07892 -15.03621,-14.6381 -27.73672,-13.86836 -12.70052,0.76973 -19.98676,7.13813 -19.98676,7.13813 0,0 1.32712,35.79599 -0.21236,78.13106 -0.1818,4.99993 22.87479,7.85268 25.6037,4.41629 4.12603,-5.19575 8.66803,-8.73877 11.78982,-15.40132 l 16.7117,13.10692 -29.98014,74.54245 c -22.28412,-8.01887 -47.47245,-12.79764 -75.81711,-12.79764 -98.435011,0 -159.537156,78.41743 -159.537156,78.41743 0,0 2.752883,13.65138 10.044368,19.11999 1.072771,0.80457 2.043292,1.47255 3.05919,2.19243 -27.031593,33.18806 -43.2876488,75.69588 -43.2876488,122.06198 0,106.07204 84.9781478,192.01564 189.7722368,192.01564 75.97096,0 141.47386,-45.17614 171.77394,-110.43703 2.50437,1.30499 5.39787,2.65348 8.61675,3.82398 31.70149,11.41216 27.90853,8.66224 27.94067,8.20885 23.45982,-52.62572 20.52284,-136.69719 -13.3585,-197.82811 -18.77835,-33.88113 -49.4078,-70.63185 -94.22328,-93.86638 l 23.65778,-53.79089 223.62735,218.0698 c -9.47727,11.53437 -15.245,26.61707 -15.245,43.13469 0,29.76697 18.6479,54.88513 44.20541,62.9175 l -7.49504,36.14952 -31.61171,0 0,29.62323 69.34182,0 0,-29.62323 -20.24169,0 6.67924,-33.49822 c 0.29152,0.005 0.5743,0.051 0.86678,0.051 54.48119,-1.27719 111.63644,-2.19311 158.72137,-3.05919 0,0 3.48907,-3.41852 7.69898,-7.49504 l 36.35346,2.44736 c 25.81967,75.01265 96.30458,128.84321 179.21798,128.84321 94.52557,0 172.87677,-69.97384 187.32487,-161.52563 0.1599,0.0259 0.2931,0.0783 0.4589,0.10202 8.3824,1.19746 8.365,0.97533 18.4062,0.30591 10.0412,-0.66941 17.7434,-7.03615 17.7434,-7.03615 -4.0165,-4.01648 -6.4206,-8.83605 -8.3618,-11.67594 -2.4153,-3.5333 -3.5992,-10.21945 -4.079,-13.76639 10e-4,-0.0489 -9e-4,-0.10394 0,-0.15288 0.5757,-30.56826 -7.4455,-94.69929 -55.8814,-149.49279 -40.1121,-45.37726 -101.4534,-69.25371 -161.1687,-68.52603 -26.03508,0.31727 -51.75568,5.35156 -75.25625,15.29599 l -62.35665,-122.97974 2.39638,-5.14965 c 11.51486,1.97526 77.63251,10.60547 95.49795,-48.28433 8.58714,-28.305772 -10.86016,-32.580462 -10.86016,-32.580462 0,0 -13.98712,8.46797 -34.05906,15.90782 -21.74739,8.06085 -40.71122,9.574972 -65.26288,7.29109 -62.34251,-5.79929 -94.98809,-30.49 -94.98809,-30.49 l -13.00159,24.67753 c 0,0 32.68256,45.633472 87.69699,56.544172 16.35765,3.24415 12.09631,2.39215 16.16276,3.21215 L 684.52761,376.23 580.51489,374.75138 381.83955,172.54178 c -10.79383,-0.71842 -19.57725,-1.49682 -31.78421,-2.1448 -4.61527,-3.46145 -5.14965,-9.22946 -5.14965,-20.19071 0,-10.96124 11.18938,-16.63389 17.84532,-25.9522 2.88453,-4.03835 7.69365,-4.91789 5.20063,-16.16276 -1.1631,-5.24619 -10.50405,-6.7387 -16.72361,-11.522972 -7.49981,-5.76907 -12.00789,-10.1852 -9.22858,-20.1907 2.88453,-10.38434 15.00982,-17.31182 27.12489,-23.6578 12.11505,-6.34598 12.06654,-5.15335 63.98821,-17.84532 13.55445,-3.31331 22.25652,-3.50178 24.83049,-0.61183 9.86454,11.07547 34.06277,18.4732 46.75474,17.8963 12.69196,-0.57691 16.16275,-8.66861 16.16275,-19.62986 0,-10.96124 -12.11963,-23.6284997 -23.65779,-26.5130397 -8.65361,-2.1634 -19.37186,-4.91021 -34.11005,-4.63979 z M 808.57808,195.73733 860.83937,297.45565 C 788.12446,341.23389 765.88544,405.28225 759.325,445.92871 l -62.9175,-2.03947 -2.03947,0 z m -617.44806,129.608 c 18.3067,0 35.86611,3.16226 52.21031,8.97365 l -48.94717,121.75607 c -1.03307,-0.11281 -2.09811,-0.20394 -3.16117,-0.20394 -15.83986,0 -28.65448,12.81462 -28.65448,28.65448 0,15.83985 12.81462,28.70547 28.65448,28.70547 15.83985,0 28.70547,-12.86562 28.70547,-28.70547 0,-7.15146 -2.65602,-13.63806 -6.98516,-18.6611 l 53.38299,-121.19522 c 49.05694,27.02475 82.3434,79.65008 82.3434,140.16224 0,88.07787 -70.53198,159.43518 -157.54867,159.43518 -87.01671,0 -157.54869,-71.35731 -157.54869,-159.43518 0,-88.07788 70.53198,-159.48618 157.54869,-159.48618 z m 776.52631,3.67104 c 87.01677,0 157.54877,71.4083 157.54877,159.48617 0,88.07788 -70.532,159.43519 -157.54877,159.43519 -63.90286,0 -118.91265,-38.48752 -143.6293,-93.8154 l 122.41888,8.25984 11.77792,-18.61012 -142.04875,-11.31904 c -0.73296,-2.59206 -1.43467,-5.2076 -2.03946,-7.85194 L 971.93924,513.0781 c 0.81606,0.0698 1.61318,0.15288 2.44735,0.15288 15.83987,0 28.70551,-12.86561 28.70551,-28.70548 0,-15.83986 -12.86564,-28.65448 -28.70551,-28.65448 -0.13847,0 -0.26975,-10e-4 -0.40785,0 L 914.37533,338.39783 c 16.64905,-6.05902 34.57027,-9.38154 53.281,-9.38154 z m -79.43714,21.72031 51.90438,101.10648 -124.81526,-4.07893 c 10.7361,-41.25645 37.38719,-75.98754 72.91088,-97.02755 z"
     id="path3301"
     inkscape:connector-curvature="0"
     sodipodi:nodetypes="csssssccsscsscccscscsscccscccsccccccccccccsccscsccsscccscssccscccccssssssssssscccccccsccssssccsssscssccccccsssccsccccc" />
</svg>
