<?xml version="1.0" encoding="UTF-8"?>
<svg xmlns="http://www.w3.org/2000/svg" width="690" height="270" viewBox="0 0 690 270">
  <path d="M169.792,212.579a52.981,52.981,0,0,1-105.963.04v-.04a52.981,52.981,0,1,1,105.963-.04Z"/>
  <path d="M632.43,212.557a52.981,52.981,0,0,1-105.963.04v-.04a52.981,52.981,0,0,1,105.963-.04Z"/>
  <path d="M683.969,112.851a29.131,29.131,0,0,0-2.474-7.169L554.112,4.539H297.8c-5.934-.365-9.149,2.442-11.971,5.708l-85.67,85.83L12.815,127.2a21.568,21.568,0,0,0-7.323,10.374l.394,64.452c4.063,10.33,6.83,8.992,9.905,10.431H51.857c0-87.622,130.531-87.287,130.531,0H515.222c0-87.806,129.545-87.627,129.545,0h29.565c4.968-.457,7.753-4.843,10.121-9.98ZM408.852,108.7H231.274c-6.76-2.666-7.675-6.708-4.862-11.627l63.843-63c1.439-1.223,2.572-2.908,5.074-2.537H408.852Zm183.864.011H429.946V31.55h95.506c2.5-.371,3.634,1.314,5.074,2.537l54.712,55.1C590.282,96.784,600.418,107.175,592.715,108.711Z"/>
</svg>
