<?xml version="1.0" encoding="UTF-8" standalone="no"?>
<svg
   xmlns:dc="http://purl.org/dc/elements/1.1/"
   xmlns:cc="http://creativecommons.org/ns#"
   xmlns:rdf="http://www.w3.org/1999/02/22-rdf-syntax-ns#"
   xmlns:svg="http://www.w3.org/2000/svg"
   xmlns="http://www.w3.org/2000/svg"
   xmlns:sodipodi="http://sodipodi.sourceforge.net/DTD/sodipodi-0.dtd"
   xmlns:inkscape="http://www.inkscape.org/namespaces/inkscape"
   inkscape:version="1.0 (4035a4fb49, 2020-05-01)"
   sodipodi:docname="map5.svg"
   id="svg12"
   version="1.1"
   width="24"
   viewBox="0 0 24 24"
   height="24"
   enable-background="new 0 0 96 96">
  <metadata
     id="metadata18">
    <rdf:RDF>
      <cc:Work
         rdf:about="">
        <dc:format>image/svg+xml</dc:format>
        <dc:type
           rdf:resource="http://purl.org/dc/dcmitype/StillImage" />
        <dc:title></dc:title>
      </cc:Work>
    </rdf:RDF>
  </metadata>
  <defs
     id="defs16" />
  <sodipodi:namedview
     inkscape:current-layer="svg12"
     inkscape:window-maximized="1"
     inkscape:window-y="-8"
     inkscape:window-x="-8"
     inkscape:cy="11.93003"
     inkscape:cx="10.782711"
     inkscape:zoom="23.658614"
     showgrid="true"
     id="namedview14"
     inkscape:window-height="987"
     inkscape:window-width="1680"
     inkscape:pageshadow="2"
     inkscape:pageopacity="0"
     guidetolerance="10"
     gridtolerance="10"
     objecttolerance="10"
     borderopacity="1"
     bordercolor="#666666"
     pagecolor="#ffffff">
    <inkscape:grid
       id="grid843"
       type="xygrid" />
  </sodipodi:namedview>
  <path
     id="path2"
     stroke-width="0.201171"
     fill="#333333"
     d="M 15.320751,6.5232492 8.6937107,2.6249442 2.0326167,6.5292922 V 21.336809 l 6.644068,-3.898305 6.6440663,3.898305 6.644068,-3.898305 V 2.6249442 Z M 3.6936337,18.523402 V 7.3941312 l 4.152543,-2.434102 V 16.086571 l -0.04983,0.02924 z M 9.507193,16.086571 V 4.9436562 l 4.931558,2.900924 0.05149,0.03041 V 19.010693 L 9.557021,16.116202 Z M 20.303802,16.574249 16.15126,19.01069 V 7.8749872 l 0.04983,-0.02924 4.102712,-2.407398 z" />
  <g
     transform="matrix(0.25,0,0,0.25,-0.0012813,-0.0191228)"
     id="g10"
     stroke-width="0.508475"
     fill="#ffeeaa">
    <path
       id="path4"
       d="m 22.903443,25.055879 c -2.713405,1.627273 -5.528267,3.154307 -8.180085,4.842426 0.120414,14.586821 -0.302893,29.227456 0.321769,43.782045 5.424179,-2.768913 10.684053,-6.150049 15.929555,-9.274894 0.06977,-14.672672 0.139945,-29.345342 0.210541,-44.018009 -2.751168,1.200937 -5.53294,3.176647 -8.28178,4.668432 z" />
    <path
       id="path6"
       d="m 38.292744,20.349311 c 0.10346,14.722002 0.07605,29.47912 0.259798,44.17929 6.401782,3.74256 12.764331,7.554077 19.209216,11.221399 0.488378,-5.260296 0.118182,-10.934612 0.257428,-16.344278 -0.02063,-9.218112 0.06965,-18.470984 -0.04292,-27.667374 C 51.4108,28.007467 44.840078,23.82189 38.292744,20.349311 Z" />
    <path
       id="path8"
       d="m 80.848888,22.304555 c -5.343597,3.029667 -10.67486,6.149057 -15.904926,9.332892 -0.06977,14.707099 -0.139945,29.414197 -0.21054,44.121291 5.417126,-2.969097 11.055905,-6.409367 16.478548,-9.613347 -0.05812,-14.599532 0.139131,-29.207994 -0.17161,-43.801906 l -0.133474,-0.06277 z" />
  </g>
</svg>
