<?xml version="1.0" encoding="utf-8"?>
<svg version="1.1"
	 id="svg2287" xmlns:inkscape="http://www.inkscape.org/namespaces/inkscape" xmlns:sodipodi="http://sodipodi.sourceforge.net/DTD/sodipodi-0.dtd" xmlns:svg="http://www.w3.org/2000/svg" xmlns:rdf="http://www.w3.org/1999/02/22-rdf-syntax-ns#" xmlns:dc="http://purl.org/dc/elements/1.1/" xmlns:cc="http://creativecommons.org/ns#" inkscape:version="0.91 r13725"
	 xmlns="http://www.w3.org/2000/svg" xmlns:xlink="http://www.w3.org/1999/xlink" x="0px" y="0px" viewBox="0 0 411.9 394.9"
	 style="enable-background:new 0 0 411.9 394.9;" xml:space="preserve">
<style type="text/css">
	.st0{fill-rule:evenodd;clip-rule:evenodd;}
</style>
<sodipodi:namedview  bordercolor="#666666" borderopacity="1.0" id="base" inkscape:current-layer="g2297" inkscape:cx="-87.454318" inkscape:cy="415.54616" inkscape:pageopacity="0.0" inkscape:pageshadow="2" inkscape:window-height="988" inkscape:window-maximized="1" inkscape:window-width="1680" inkscape:window-x="-8" inkscape:window-y="-8" inkscape:zoom="0.43415836" pagecolor="#ffffff" showgrid="false">
	</sodipodi:namedview>
<path id="path4290-2" class="st0" d="M149.6,56.4L93.1,141H64.9l56.4-84.6H149.6z M262.4,56.4l56.4,84.6H347l-56.4-84.6H262.4z
	 M191.9,56.4h28.2V141h-28.2V56.4z M177.8,0l-56.4,28.2h169.2L234.2,0H177.8z M234.2,152.3v28.2l28.2,16.9v28.2H155.2h-5.6v-28.2
	h14.1c28.2,0,28.2-28.2,0-28.2h-56.4c-28.2,0-28.2,28.2,0,28.2h14.1v28.2l-16.9,39.5h-2.8c-36.7,0-64.9,28.2-64.9,64.9
	s28.2,64.9,64.9,64.9s64.9-28.2,64.9-64.9c0-5.6-2.8-14.1-2.8-19.7h14.1H206l62.1-56.4l0,0l8.5,19.7c-16.9,11.3-31,33.8-31,56.4
	c0,36.7,28.2,64.9,64.9,64.9s64.9-28.2,64.9-64.9s-31-64.9-64.9-64.9h-2.8l-16.9-39.5v-39.5L234.2,152.3z M143.9,253.9h87.4
	l-36.7,33.8h-42.3c-5.6-5.6-8.5-11.3-14.1-14.1L143.9,253.9z M101.6,296.2c19.7,0,33.8,14.1,33.8,33.8s-14.1,33.8-33.8,33.8
	S67.8,349.7,67.8,330S81.9,296.2,101.6,296.2z M310.3,296.2c19.7,0,33.8,14.1,33.8,33.8s-14.1,33.8-33.8,33.8s-33.8-14.1-33.8-33.8
	S290.6,296.2,310.3,296.2z"/>
</svg>
