<?xml version="1.0" encoding="UTF-8" standalone="no"?>
<!-- Created with Inkscape (http://www.inkscape.org/) -->

<svg
   xmlns:dc="http://purl.org/dc/elements/1.1/"
   xmlns:cc="http://creativecommons.org/ns#"
   xmlns:rdf="http://www.w3.org/1999/02/22-rdf-syntax-ns#"
   xmlns:svg="http://www.w3.org/2000/svg"
   xmlns="http://www.w3.org/2000/svg"
   xmlns:sodipodi="http://sodipodi.sourceforge.net/DTD/sodipodi-0.dtd"
   xmlns:inkscape="http://www.inkscape.org/namespaces/inkscape"
   width="149.28694"
   height="139.99617"
   id="svg3009"
   version="1.1"
   inkscape:version="0.48.4 r9939"
   sodipodi:docname="Neues Dokument 2">
  <defs
     id="defs3011" />
  <sodipodi:namedview
     id="base"
     pagecolor="#ffffff"
     bordercolor="#666666"
     borderopacity="1.0"
     inkscape:pageopacity="0.0"
     inkscape:pageshadow="2"
     inkscape:zoom="2.8"
     inkscape:cx="107.5065"
     inkscape:cy="66.142335"
     inkscape:document-units="px"
     inkscape:current-layer="layer1"
     showgrid="false"
     fit-margin-top="0"
     fit-margin-left="0"
     fit-margin-right="0"
     fit-margin-bottom="0"
     inkscape:window-width="1680"
     inkscape:window-height="988"
     inkscape:window-x="-8"
     inkscape:window-y="-8"
     inkscape:window-maximized="1" />
  <metadata
     id="metadata3014">
    <rdf:RDF>
      <cc:Work
         rdf:about="">
        <dc:format>image/svg+xml</dc:format>
        <dc:type
           rdf:resource="http://purl.org/dc/dcmitype/StillImage" />
        <dc:title></dc:title>
      </cc:Work>
    </rdf:RDF>
  </metadata>
  <g
     inkscape:label="Ebene 1"
     inkscape:groupmode="layer"
     id="layer1"
     transform="translate(-305.35701,-413.79721)">
    <path
       sodipodi:type="arc"
       style="fill:#ffffff;fill-opacity:1;stroke:#000000;stroke-width:12.4419775;stroke-miterlimit:4;stroke-opacity:1;stroke-dasharray:none;display:inline"
       id="path2985"
       sodipodi:cx="268.57144"
       sodipodi:cy="469.50504"
       sodipodi:rx="157.14285"
       sodipodi:ry="157.14285"
       d="m 425.71429,469.50504 c 0,86.7876 -70.35525,157.14285 -157.14285,157.14285 -86.7876,0 -157.14285,-70.35525 -157.14285,-157.14285 0,-86.78761 70.35525,-157.14286 157.14285,-157.14286 86.7876,0 157.14285,70.35525 157.14285,157.14286 z"
       transform="matrix(0.42849139,0,0,0.42849139,269.56245,282.61189)"
       inkscape:export-xdpi="9.645854"
       inkscape:export-ydpi="9.645854" />
    <path
       style="fill:#ff0000;stroke:none;display:inline"
       d="m 343.92899,423.79074 0,120.00003 -15.00015,0 c -31.81806,-40.28928 -31.03773,-80.28218 0,-120.00003 z"
       id="path4019"
       inkscape:connector-curvature="0"
       sodipodi:nodetypes="ccccc"
       inkscape:export-xdpi="9.645854"
       inkscape:export-ydpi="9.645854" />
    <path
       sodipodi:type="arc"
       style="fill:#000000;fill-opacity:1;stroke:#ffffff;stroke-width:14.46901035;stroke-miterlimit:4;stroke-opacity:1;stroke-dasharray:none;display:inline"
       id="path2991"
       sodipodi:cx="-100"
       sodipodi:cy="432.36218"
       sodipodi:rx="140"
       sodipodi:ry="140"
       d="m 40,432.36218 c 0,77.31987 -62.680135,140 -140,140 -77.31986,0 -140,-62.68013 -140,-140 0,-77.31986 62.68014,-140 140,-140 77.319865,0 140,62.68014 140,140 z"
       transform="matrix(0.3395943,0,0,0.33959431,418.60243,336.96302)"
       inkscape:export-xdpi="9.645854"
       inkscape:export-ydpi="9.645854" />
    <path
       sodipodi:type="arc"
       style="fill:#ffffff;fill-opacity:1;stroke:none;display:inline"
       id="path3944"
       sodipodi:cx="60"
       sodipodi:cy="472.36218"
       sodipodi:rx="20"
       sodipodi:ry="20"
       d="m 80,472.36218 c 0,11.0457 -8.954305,20 -20,20 -11.045695,0 -20,-8.9543 -20,-20 0,-11.04569 8.954305,-20 20,-20 11.045695,0 20,8.95431 20,20 z"
       transform="matrix(0.75,0,0,0.75,339.643,129.51912)"
       inkscape:export-xdpi="9.645854"
       inkscape:export-ydpi="9.645854" />
    <path
       sodipodi:type="arc"
       style="fill:#ffffff;fill-opacity:1;stroke:none;display:inline"
       id="path4021-4"
       sodipodi:cx="130"
       sodipodi:cy="642.36218"
       sodipodi:rx="30"
       sodipodi:ry="30"
       d="m 160,642.36218 c 0,16.56855 -13.43146,30 -30,30 -16.56854,0 -30,-13.43145 -30,-30 0,-16.56854 13.43146,-30 30,-30 16.56854,0 30,13.43146 30,30 z"
       transform="matrix(0.16666667,0,0,0.16666667,362.97633,346.73039)"
       inkscape:export-xdpi="9.645854"
       inkscape:export-ydpi="9.645854" />
    <path
       sodipodi:type="arc"
       style="fill:#ffffff;fill-opacity:1;stroke:none;display:inline"
       id="path4021-4-9"
       sodipodi:cx="130"
       sodipodi:cy="642.36218"
       sodipodi:rx="30"
       sodipodi:ry="30"
       d="m 160,642.36218 c 0,16.56855 -13.43146,30 -30,30 -16.56854,0 -30,-13.43145 -30,-30 0,-16.56854 13.43146,-30 30,-30 16.56854,0 30,13.43146 30,30 z"
       transform="matrix(0.16666667,0,0,0.16666667,392.97633,376.73039)"
       inkscape:export-xdpi="9.645854"
       inkscape:export-ydpi="9.645854" />
    <path
       sodipodi:type="arc"
       style="fill:#ffffff;fill-opacity:1;stroke:none;display:inline"
       id="path4021-4-4"
       sodipodi:cx="130"
       sodipodi:cy="642.36218"
       sodipodi:rx="30"
       sodipodi:ry="30"
       d="m 160,642.36218 c 0,16.56855 -13.43146,30 -30,30 -16.56854,0 -30,-13.43145 -30,-30 0,-16.56854 13.43146,-30 30,-30 16.56854,0 30,13.43146 30,30 z"
       transform="matrix(0.16666667,0,0,0.16666667,332.97633,376.73039)"
       inkscape:export-xdpi="9.645854"
       inkscape:export-ydpi="9.645854" />
    <path
       sodipodi:type="arc"
       style="fill:#ffffff;fill-opacity:1;stroke:none;display:inline"
       id="path4021-4-7"
       sodipodi:cx="130"
       sodipodi:cy="642.36218"
       sodipodi:rx="30"
       sodipodi:ry="30"
       d="m 160,642.36218 c 0,16.56855 -13.43146,30 -30,30 -16.56854,0 -30,-13.43145 -30,-30 0,-16.56854 13.43146,-30 30,-30 16.56854,0 30,13.43146 30,30 z"
       transform="matrix(0.16666667,0,0,0.16666667,362.97633,406.73039)"
       inkscape:export-xdpi="9.645854"
       inkscape:export-ydpi="9.645854" />
  </g>
</svg>
