<?xml version="1.0" encoding="UTF-8" standalone="no"?>
<svg
   xmlns:dc="http://purl.org/dc/elements/1.1/"
   xmlns:cc="http://creativecommons.org/ns#"
   xmlns:rdf="http://www.w3.org/1999/02/22-rdf-syntax-ns#"
   xmlns:svg="http://www.w3.org/2000/svg"
   xmlns="http://www.w3.org/2000/svg"
   width="16.0px"
   height="16.0px"
   viewBox="0 0 16.0 16.0"
   version="1.1"
   id="SVGRoot">
  <defs
     id="defs709" />
  <metadata
     id="metadata712">
    <rdf:RDF>
      <cc:Work
         rdf:about="">
        <dc:format>image/svg+xml</dc:format>
        <dc:type
           rdf:resource="http://purl.org/dc/dcmitype/StillImage" />
        <dc:title></dc:title>
        <cc:license
           rdf:resource="http://creativecommons.org/publicdomain/zero/1.0/" />
      </cc:Work>
      <cc:License
         rdf:about="http://creativecommons.org/publicdomain/zero/1.0/">
        <cc:permits
           rdf:resource="http://creativecommons.org/ns#Reproduction" />
        <cc:permits
           rdf:resource="http://creativecommons.org/ns#Distribution" />
        <cc:permits
           rdf:resource="http://creativecommons.org/ns#DerivativeWorks" />
      </cc:License>
    </rdf:RDF>
  </metadata>
  <g
     id="layer1">
    <circle
       style="fill:#ffff00;fill-opacity:1;stroke:#000000;stroke-width:0.8;stroke-opacity:1"
       id="background"
       cx="8"
       cy="8"
       r="7.6" />
    <g
       id="g2397"
       style="fill:#000000"
       transform="scale(0.8)">
      <path
         id="path4369"
         d="m 14,3.074 -2.5,4.33 C 12.396,7.922 13.001,8.889 13.001,10 H 18 C 18,7.041 16.39,4.457 14,3.074 Z"
         style="fill:#000000" />
      <path
         id="path4371"
         d="M 2.006,10 H 7.005 C 7.005,8.964 7.54,7.957 8.501,7.402 L 6.002,3.072 C 3.441,4.552 2.008,7.238 2.006,10 Z"
         style="fill:#000000" />
      <path
         id="path4373"
         d="m 14,16.925 -2.5,-4.329 c -0.897,0.516 -2.037,0.556 -2.998,10e-4 l -2.499,4.328 c 2.562,1.481 5.604,1.377 7.997,0 z"
         style="fill:#000000" />
      <circle
         id="path4395"
         style="fill:#000000;fill-opacity:1;stroke:none;stroke-opacity:1"
         cx="10"
         cy="10"
         r="2" />
    </g>
  </g>
</svg>
