<?xml version="1.0" encoding="UTF-8" standalone="no"?>
<!-- Created with Inkscape (http://www.inkscape.org/) -->
<svg
   xmlns:dc="http://purl.org/dc/elements/1.1/"
   xmlns:cc="http://creativecommons.org/ns#"
   xmlns:rdf="http://www.w3.org/1999/02/22-rdf-syntax-ns#"
   xmlns:svg="http://www.w3.org/2000/svg"
   xmlns="http://www.w3.org/2000/svg"
   xmlns:sodipodi="http://sodipodi.sourceforge.net/DTD/sodipodi-0.dtd"
   xmlns:inkscape="http://www.inkscape.org/namespaces/inkscape"
   version="1.0"
   width="725"
   height="725"
   id="svg2"
   sodipodi:version="0.32"
   inkscape:version="0.46"
   sodipodi:docname="no_right_turn.svg"
   inkscape:output_extension="org.inkscape.output.svg.inkscape"
   inkscape:export-filename="C:\Dokumente und Einstellungen\ulfl\Eigene Dateien\osm\turn-restrictions\no_right_turn.png"
   inkscape:export-xdpi="4.0996442"
   inkscape:export-ydpi="4.0996442">
  <metadata
     id="metadata8">
    <rdf:RDF>
      <cc:Work
         rdf:about="">
        <dc:format>image/svg+xml</dc:format>
        <dc:type
           rdf:resource="http://purl.org/dc/dcmitype/StillImage" />
      </cc:Work>
    </rdf:RDF>
  </metadata>
  <sodipodi:namedview
     inkscape:window-height="667"
     inkscape:window-width="640"
     inkscape:pageshadow="2"
     inkscape:pageopacity="0.0"
     guidetolerance="10.0"
     gridtolerance="10.0"
     objecttolerance="10.0"
     borderopacity="1.0"
     bordercolor="#666666"
     pagecolor="#ffffff"
     id="base"
     showgrid="false"
     inkscape:zoom="0.63724138"
     inkscape:cx="362.5"
     inkscape:cy="362.5"
     inkscape:window-x="176"
     inkscape:window-y="232"
     inkscape:current-layer="svg2" />
  <defs
     id="defs9">
    <inkscape:perspective
       sodipodi:type="inkscape:persp3d"
       inkscape:vp_x="0 : 362.5 : 1"
       inkscape:vp_y="0 : 1000 : 0"
       inkscape:vp_z="725 : 362.5 : 1"
       inkscape:persp3d-origin="362.5 : 241.66667 : 1"
       id="perspective10" />
  </defs>
  <circle
     cx="362.5"
     cy="362.5"
     r="350"
     style="fill:#ffffff;stroke:#000000;stroke-width:2.5px"
     id="circle4"
     sodipodi:cx="362.5"
     sodipodi:cy="362.5"
     sodipodi:rx="350"
     sodipodi:ry="350"
     transform="matrix(-1,0,0,1,725,0)" />
  <path
     d="M 34.355927,362.50146 C 34.355927,543.7316 181.27198,690.64765 362.50212,690.64765 C 543.73226,690.64765 690.64832,543.7316 690.64832,362.50146 C 690.64832,181.27132 543.73226,34.355265 362.50212,34.355265 C 181.27198,34.355265 34.355927,181.27132 34.355927,362.50146 z"
     style="opacity:1;fill:#003399;fill-opacity:1;fill-rule:nonzero;stroke:none;stroke-width:2;stroke-linecap:round;stroke-linejoin:round;stroke-miterlimit:4;stroke-dasharray:none;stroke-dashoffset:0;stroke-opacity:1"
     id="path1883" />
  <path
     d="M 416.53125,87.53125 L 416.375,97.5 L 416.6875,87.75 L 520.96875,191.9375 L 520.84375,267.71875 L 445.59375,193.875 L 445.8125,628.59375 L 385.6875,628.53125 L 385.78125,527.53125 C 379.86041,485.77121 356.78875,456.96293 306.34375,446.5 C 306.34376,446.49999 196.5,446.375 196.5,446.375 L 269.78125,520.65625 L 193.03125,520.875 L 89.53125,415.9375 L 99.5,416.09375 L 89.75,415.8125 L 193.9375,311.53125 L 269.6875,311.625 L 196.65625,384.875 L 302.21875,384.15625 C 335.15558,386.73156 362.45901,396.06844 385.90625,410.03125 L 386.09375,194.5 L 311.8125,267.78125 L 311.59375,191.03125 L 416.53125,87.53125 z"
     style="fill:#ffffff;fill-opacity:1;fill-rule:evenodd;stroke:none;stroke-width:1px;stroke-linecap:butt;stroke-linejoin:miter;stroke-opacity:1"
     id="path2806" />
</svg>
