<?xml version="1.0" encoding="UTF-8" standalone="no"?>
<!-- Created with Inkscape (http://www.inkscape.org/) -->
<svg
   xmlns:dc="http://purl.org/dc/elements/1.1/"
   xmlns:cc="http://creativecommons.org/ns#"
   xmlns:rdf="http://www.w3.org/1999/02/22-rdf-syntax-ns#"
   xmlns:svg="http://www.w3.org/2000/svg"
   xmlns="http://www.w3.org/2000/svg"
   xmlns:sodipodi="http://sodipodi.sourceforge.net/DTD/sodipodi-0.dtd"
   xmlns:inkscape="http://www.inkscape.org/namespaces/inkscape"
   version="1.0"
   width="725"
   height="725"
   id="svg2"
   sodipodi:version="0.32"
   inkscape:version="0.46"
   sodipodi:docname="no_straight_on.svg"
   inkscape:output_extension="org.inkscape.output.svg.inkscape"
   inkscape:export-filename="C:\Dokumente und Einstellungen\ulfl\Eigene Dateien\osm\turn-restrictions\no_straight_on.png"
   inkscape:export-xdpi="4.0996442"
   inkscape:export-ydpi="4.0996442">
  <metadata
     id="metadata8">
    <rdf:RDF>
      <cc:Work
         rdf:about="">
        <dc:format>image/svg+xml</dc:format>
        <dc:type
           rdf:resource="http://purl.org/dc/dcmitype/StillImage" />
      </cc:Work>
    </rdf:RDF>
  </metadata>
  <sodipodi:namedview
     inkscape:window-height="667"
     inkscape:window-width="640"
     inkscape:pageshadow="2"
     inkscape:pageopacity="0.0"
     guidetolerance="10.0"
     gridtolerance="10.0"
     objecttolerance="10.0"
     borderopacity="1.0"
     bordercolor="#666666"
     pagecolor="#ffffff"
     id="base"
     showgrid="false"
     inkscape:zoom="0.63724138"
     inkscape:cx="387.12284"
     inkscape:cy="362.5"
     inkscape:window-x="341"
     inkscape:window-y="114"
     inkscape:current-layer="svg2" />
  <defs
     id="defs9">
    <inkscape:perspective
       sodipodi:type="inkscape:persp3d"
       inkscape:vp_x="0 : 362.5 : 1"
       inkscape:vp_y="0 : 1000 : 0"
       inkscape:vp_z="725 : 362.5 : 1"
       inkscape:persp3d-origin="362.5 : 241.66667 : 1"
       id="perspective10" />
  </defs>
  <circle
     cx="362.5"
     cy="362.5"
     r="350"
     style="fill:#ffffff;stroke:#000000;stroke-width:2.5px"
     id="circle4"
     sodipodi:cx="362.5"
     sodipodi:cy="362.5"
     sodipodi:rx="350"
     sodipodi:ry="350"
     transform="matrix(-1,0,0,1,725,0)" />
  <path
     d="M 34.355927,362.50146 C 34.355927,543.7316 181.27198,690.64765 362.50212,690.64765 C 543.73226,690.64765 690.64832,543.7316 690.64832,362.50146 C 690.64832,181.27132 543.73226,34.355265 362.50212,34.355265 C 181.27198,34.355265 34.355927,181.27132 34.355927,362.50146 z"
     style="opacity:1;fill:#003399;fill-opacity:1;fill-rule:nonzero;stroke:none;stroke-width:2;stroke-linecap:round;stroke-linejoin:round;stroke-miterlimit:4;stroke-dasharray:none;stroke-dashoffset:0;stroke-opacity:1"
     id="path1883" />
  <path
     d="M 252.18597,190.12946 L 168.7173,279.78571 L 255.15348,280.25446 C 361.85463,285.1643 388.33535,385.16627 392.41565,414.28571 L 392.41565,647.06696 L 333.47263,647.06696 L 333.47263,423.87946 C 333.47264,413.08317 324.56058,354.14011 258.26646,341.87946 L 167.20445,342.12946 L 252.24415,433.47321 L 179.01633,433.47321 L 65.872507,311.91071 L 65.581574,311.91071 L 65.72704,311.75446 L 65.639761,311.66071 L 65.81432,311.66071 L 178.98724,190.12946 L 252.18597,190.12946 z"
     style="fill:#ffffff;fill-opacity:1;fill-rule:evenodd;stroke:none;stroke-width:1px;stroke-linecap:butt;stroke-linejoin:miter;stroke-opacity:1"
     id="path1885" />
  <path
     id="path2381"
     style="fill:#ffffff;fill-opacity:1;fill-rule:evenodd;stroke:none;stroke-width:1px;stroke-linecap:butt;stroke-linejoin:miter;stroke-opacity:1"
     d="M 471.70634,190.12946 L 555.175,279.78571 L 468.73882,280.25446 C 362.03768,285.1643 335.55696,385.16627 331.47666,414.28571 L 331.47666,647.06696 L 390.41967,647.06696 L 390.41967,423.87946 C 390.41966,413.08317 399.33173,354.14011 465.62584,341.87946 L 556.68786,342.12946 L 471.64815,433.47321 L 544.87598,433.47321 L 658.0198,311.91071 L 658.31074,311.91071 L 658.16527,311.75446 L 658.25255,311.66071 L 658.07799,311.66071 L 544.90507,190.12946 L 471.70634,190.12946 z" />
</svg>
