<?xml version="1.0" encoding="UTF-8" standalone="no"?>
<!-- Created with Inkscape (http://www.inkscape.org/) -->
<svg
   xmlns:dc="http://purl.org/dc/elements/1.1/"
   xmlns:cc="http://web.resource.org/cc/"
   xmlns:rdf="http://www.w3.org/1999/02/22-rdf-syntax-ns#"
   xmlns:svg="http://www.w3.org/2000/svg"
   xmlns="http://www.w3.org/2000/svg"
   xmlns:sodipodi="http://sodipodi.sourceforge.net/DTD/sodipodi-0.dtd"
   xmlns:inkscape="http://www.inkscape.org/namespaces/inkscape"
   width="600"
   height="600"
   id="svg1980"
   sodipodi:version="0.32"
   inkscape:version="0.44"
   version="1.0"
   sodipodi:docbase="/home/d0ktorz"
   sodipodi:docname="Zeichen 278.svg">
  <defs
     id="defs1982" />
  <sodipodi:namedview
     id="base"
     pagecolor="#ffffff"
     bordercolor="#666666"
     borderopacity="1.0"
     inkscape:pageopacity="0.0"
     inkscape:pageshadow="2"
     inkscape:zoom="0.98994949"
     inkscape:cx="390.27652"
     inkscape:cy="148.50728"
     inkscape:document-units="px"
     inkscape:current-layer="layer1"
     width="600px"
     height="600px"
     inkscape:window-width="990"
     inkscape:window-height="584"
     inkscape:window-x="2"
     inkscape:window-y="74" />
  <metadata
     id="metadata1985">
    <rdf:RDF>
      <cc:Work
         rdf:about="">
        <dc:format>image/svg+xml</dc:format>
        <dc:type
           rdf:resource="http://purl.org/dc/dcmitype/StillImage" />
      </cc:Work>
    </rdf:RDF>
  </metadata>
  <g
     inkscape:label="Ebene 1"
     inkscape:groupmode="layer"
     id="layer1">
    <g
       id="g3771"
       transform="translate(1.374794,11.86118)">
      <path
         style="fill:#fffefe;fill-rule:evenodd;stroke:black;stroke-opacity:1"
         id="path10"
         d="M 590.68796,288.07677 C 589.79109,140.65833 481.40336,16.725056 334.97912,-1.4206743 C 168.02447,-22.771464 18.137934,102.18382 7.1044943,269.72247 C -3.0251357,438.0815 130.10614,579.29842 298.68765,580.07708 C 460.66439,579.04118 589.56862,450.10913 590.68796,288.07677" />
      <path
         id="path14"
         d="M 590.68796,288.07677 L 589.85367,269.72247 M 589.85367,269.72247 L 585.26509,233.431 M 585.26509,233.431 L 576.08794,197.97383 M 576.08794,197.97383 L 562.73935,163.76808 M 562.73935,163.76808 L 545.21934,131.64804 M 545.21934,131.64804 L 523.52789,102.03086 M 523.52789,102.03086 L 498.49929,75.333696 M 498.49929,75.333696 L 470.13355,51.973666 M 470.13355,51.973666 L 439.26494,32.367936 M 439.26494,32.367936 L 406.31062,16.516486 M 406.31062,16.516486 L 371.27059,5.2536157 M 371.27059,5.2536157 L 334.97912,-1.4206743 M 334.97912,-1.4206743 L 298.68765,-3.9235343 M 298.68765,-3.9235343 L 261.97904,-1.4206743 M 261.97904,-1.4206743 L 226.10472,5.2536157 M 226.10472,5.2536157 L 191.06468,16.516486 M 191.06468,16.516486 L 158.11036,32.367936 M 158.11036,32.367936 L 127.24176,51.973666 M 127.24176,51.973666 L 98.876024,75.333696 M 98.876024,75.333696 L 73.847424,102.03086 M 73.847424,102.03086 L 52.155974,131.64804 M 52.155974,131.64804 L 34.635944,163.76808 M 34.635944,163.76808 L 20.870224,197.97383 M 20.870224,197.97383 L 11.693064,233.431 M 11.693064,233.431 L 7.1044943,269.72247 M 7.1044943,269.72247 L 7.1044943,306.43108 M 7.1044943,306.43108 L 11.693064,342.72254 M 11.693064,342.72254 L 20.870224,378.17972 M 20.870224,378.17972 L 34.635944,412.38548 M 34.635944,412.38548 L 52.155974,444.50551 M 52.155974,444.50551 L 73.847424,474.12268 M 73.847424,474.12268 L 98.876024,500.81985 M 98.876024,500.81985 L 127.24176,524.17988 M 127.24176,524.17988 L 158.11036,543.78561 M 158.11036,543.78561 L 191.06468,559.21992 M 191.06468,559.21992 L 226.10472,570.89993 M 226.10472,570.89993 L 261.97904,577.57422 M 261.97904,577.57422 L 298.68765,580.07708 M 298.68765,580.07708 L 334.97912,577.57422 M 334.97912,577.57422 L 371.27059,570.89993 M 371.27059,570.89993 L 406.31062,559.21992 M 406.31062,559.21992 L 439.26494,543.78561 M 439.26494,543.78561 L 470.13355,524.17988 M 470.13355,524.17988 L 498.49929,500.81985 M 498.49929,500.81985 L 523.52789,474.12268 M 523.52789,474.12268 L 545.21934,444.50551 M 545.21934,444.50551 L 562.73935,412.38548 M 562.73935,412.38548 L 576.08794,378.17972 M 576.08794,378.17972 L 585.26509,342.72254 M 585.26509,342.72254 L 589.85367,306.43108 M 589.85367,306.43108 L 590.68796,288.07677" />
      <path
         style="fill:black;fill-rule:evenodd;stroke:none"
         id="path16"
         d="M 580.67652,288.07677 C 581.13537,146.35929 474.68736,25.756216 334.14483,8.1736257 C 172.97457,-12.600114 26.890994,108.39925 17.115934,270.55676 C 6.7082043,432.19283 136.41891,570.80259 298.68765,570.06564 C 454.10134,570.66354 581.00328,443.31666 580.67652,288.07677" />
      <path
         style="fill:#fffefe;fill-rule:evenodd;stroke:none"
         id="path18"
         d="M 445.52209,64.487966 C 197.85021,-89.451814 -78.840936,187.23933 75.098854,434.91121 L 445.52209,64.487966" />
      <path
         style="fill:#fffefe;fill-rule:evenodd;stroke:none"
         id="path20"
         d="M 456.78496,71.996546 L 460.9564,75.333696 L 464.71068,78.253696 L 88.864574,454.0998 L 85.944574,450.34552 L 82.607424,446.17408 L 456.78496,71.996546" />
      <path
         style="fill:#fffefe;fill-rule:evenodd;stroke:none"
         id="path22"
         d="M 475.5564,87.013706 L 479.3107,90.767986 L 483.06499,94.105136 L 104.71602,472.45412 L 101.37887,468.69982 L 97.624594,464.94553 L 475.5564,87.013706" />
      <path
         style="fill:#fffefe;fill-rule:evenodd;stroke:none"
         id="path24"
         d="M 499.33357,111.20802 L 492.65928,103.69944 L 114.31031,482.04841 L 121.81889,488.7227 L 499.33357,111.20802" />
      <path
         style="fill:#fffefe;fill-rule:evenodd;stroke:none"
         id="path26"
         d="M 514.76788,129.97947 L 511.43073,125.80803 L 508.51072,121.63661 L 132.24747,497.89985 L 136.41891,500.81985 L 140.59034,504.157 L 514.76788,129.97947" />
      <path
         style="fill:#fffefe;fill-rule:evenodd;stroke:none"
         id="path28"
         d="M 522.27646,141.24234 C 676.18843,388.64307 399.2609,665.57755 151.85321,511.66558 L 522.27646,141.24234" />
      <path
         style="fill:#999;fill-opacity:1;fill-rule:evenodd;stroke:none"
         id="path30"
         d="M 203.99612,144.99662 L 250.29903,144.99662 L 188.97896,267.63675 C 205.78289,261.15018 225.09662,260.58008 241.53902,268.47104 L 209.83612,299.75678 C 176.67323,291.7824 153.77207,318.66033 158.11036,351.48256 L 124.32175,385.27117 C 117.98813,370.75458 116.36127,354.65285 117.23032,338.96826 L 117.23032,335.21397 L 118.06461,327.70539 L 119.31604,320.61395 L 121.40175,313.10537 L 124.32175,306.01394 L 125.99033,302.67679 L 203.99612,144.99662 z M 137.67034,405.71119 L 136.00176,403.62547 L 132.66461,399.87118 L 131.41319,397.36831 L 161.44751,367.75114 L 162.2818,369.00257 L 163.53323,372.33972 L 165.61893,375.25972 L 166.45322,376.51115 L 137.67034,405.71119 z M 156.02464,421.14548 L 153.52179,419.89405 L 149.35035,416.97406 L 147.26463,415.30548 L 176.46466,386.10544 L 184.80753,390.27688 L 186.47611,390.69403 L 156.02464,421.14548 z M 179.38467,431.15692 L 176.8818,430.32263 L 171.45895,428.65407 L 168.53894,427.81978 L 203.99612,392.3626 L 206.08184,391.94546 L 210.67041,391.11117 L 219.01329,387.77402 L 222.76757,385.27117 L 226.52186,382.35116 L 232.36186,375.67686 L 234.86472,371.50544 L 236.95044,367.75114 L 238.20187,363.16257 L 239.45331,358.99114 L 239.87045,356.48827 L 279.9162,316.44252 L 280.33335,319.77967 L 280.75049,325.61967 L 280.75049,329.79111 L 179.38467,431.15692 z M 211.92184,432.40835 L 204.41327,433.65978 L 196.48755,433.65978 L 280.75049,349.39684 L 280.75049,355.23684 L 280.33335,361.494 L 279.9162,364.83114 L 211.92184,432.40835 z M 242.79044,420.72834 L 268.23619,395.69975 C 261.81914,405.84328 253.02437,414.45034 242.79044,420.72834 z M 239.87045,337.29968 L 239.87045,335.21397 L 239.03616,331.04253 L 238.20187,327.28825 L 237.36759,325.20253 L 269.90476,292.66535 L 271.57334,294.75107 L 274.0762,299.75678 L 275.32762,301.8425 L 239.87045,337.29968 z M 230.27615,313.10537 L 229.44187,311.4368 L 226.939,308.93395 L 224.43614,306.84823 L 223.18471,306.01394 L 253.63617,275.56248 L 255.72189,276.8139 L 259.47618,280.15105 L 261.5619,281.81963 L 230.27615,313.10537 z M 329.13911,180.4538 C 336.61293,168.77379 343.71132,163.00331 354.58485,155.00807 L 329.13911,180.4538 z M 316.62481,226.75671 L 316.62481,220.91671 L 317.04196,214.65955 L 317.4591,211.32241 L 385.45345,143.32806 L 387.95631,142.91091 L 392.96204,142.49377 L 400.88776,142.49377 L 316.62481,226.75671 z M 316.62481,260.54532 L 316.62481,246.36244 L 417.57348,144.99662 L 420.49349,145.83091 L 425.91636,147.49948 L 428.83635,148.33377 L 393.37918,183.79095 L 391.29346,183.79095 L 386.70488,185.04238 L 378.36202,188.37952 L 374.60773,190.88239 L 370.85344,193.80239 L 365.01343,200.47668 L 362.51057,204.23097 L 360.42486,208.40241 L 359.17343,212.99098 L 357.922,217.16242 L 357.50485,219.24814 L 316.62481,260.54532 z M 316.62481,294.33393 L 316.62481,279.73391 L 357.50485,238.85387 L 357.50485,253.45389 L 316.62481,294.33393 z M 316.62481,327.70539 L 316.62481,313.52252 L 357.50485,272.64248 L 357.50485,287.24248 L 316.62481,327.70539 z M 316.62481,347.31112 L 357.50485,306.43108 C 355.02981,343.17445 350.2257,389.10193 398.38489,392.77974 C 410.41948,392.75193 422.21769,387.25259 429.67064,377.76258 L 432.59065,373.59115 L 435.09351,369.41972 L 437.17923,364.41399 L 438.43066,359.40828 L 438.8478,354.40256 L 439.26494,351.8997 L 439.26494,224.67099 L 473.05354,190.88239 L 474.72212,194.63668 L 477.22498,202.97954 L 478.89355,211.32241 L 479.72784,220.08242 L 480.14498,224.25385 L 480.14498,351.8997 L 479.72784,356.90542 L 478.47641,367.334 C 473.16478,394.86546 454.54629,417.51634 428.41921,427.81978 C 372.66801,449.61552 313.37109,406.97652 316.62481,347.31112 z M 435.9278,208.40241 L 435.09351,206.73384 L 433.84208,203.81383 L 431.75636,200.89382 L 430.92207,199.22525 L 459.70496,170.44237 L 461.37353,172.11094 L 464.29354,176.28238 L 465.96211,178.36809 L 435.9278,208.40241 z M 420.49349,190.0481 L 419.24206,189.21381 L 412.56777,185.87667 L 410.89919,185.45953 L 441.35065,155.00807 L 443.43637,156.25949 L 448.02495,159.1795 L 450.11067,160.84807 L 420.49349,190.0481" />
    </g>
  </g>
</svg>
