<?xml version="1.0" encoding="UTF-8" standalone="no"?>
<svg
   xmlns:dc="http://purl.org/dc/elements/1.1/"
   xmlns:cc="http://creativecommons.org/ns#"
   xmlns:rdf="http://www.w3.org/1999/02/22-rdf-syntax-ns#"
   xmlns:svg="http://www.w3.org/2000/svg"
   xmlns="http://www.w3.org/2000/svg"
   height="264"
   width="264"
   enable-background="new 0 0 322.647 281.489"
   y="0px"
   x="0px"
   version="1.1"
   viewBox="0 0 264 264"
   xml:space="preserve"
   id="mare_and_foal_xA0_Image_1_"><defs
   id="defs9" />
	<rect
   y="0"
   x="0"
   height="264"
   width="264"
   id="sky"
   style="fill:#c8e1ff;fill-opacity:1;stroke:none;stroke-width:4.64230776;stroke-miterlimit:4;stroke-dasharray:none;stroke-opacity:1" /><path
   id="grass"
   d="M 264 221.48633 C 241.29754 222.4076 177.66303 221.2284 123.45312 221.87305 C 93.102944 222.23396 78.800534 224.69485 50.583984 225.4082 C 32.212304 225.87266 15.182163 226.75733 0 227.13281 L 0 264 L 264 264 L 264 221.48633 z "
   style="fill:#00aa32;fill-opacity:1;stroke:none;stroke-width:1.86263001;stroke-miterlimit:4;stroke-dasharray:none;stroke-opacity:1" /><path
   style="fill:#6e0000;fill-opacity:1;stroke:#000000;stroke-width:2;stroke-miterlimit:4;stroke-dasharray:none;stroke-opacity:1"
   id="horses"
   d="m 141.59295,4.5473564 c -7.53903,0.603299 -6.68061,9.5931916 -7.32032,17.0917966 -2.463,2.828 -4.09714,6.48686 -5.49414,10.38086 -2.305,-0.27 -2.86739,1.205031 -4.27539,1.832031 0.24,3.831 1.18836,6.954531 2.44336,9.769531 -1.146,2.401006 -1.567,4.495796 0,6.716796 -3.262,6.712 -3.25969,16.687241 -3.05469,26.865241 3.24,3.42 11.47833,4.51403 16.48633,1.83203 0.114,-8.637 4.32586,-13.178 10.38086,-15.875 -0.752,18.929 1.17724,29.38448 -4.88477,43.353508 4.492,6.738 2.28977,15.67712 4.88477,23.20312 1.16,3.365 4.43509,5.76516 5.49609,9.16016 0.385,1.234 -0.266,2.83344 0,4.27344 1.458,7.929 6.87885,16.83283 6.71485,24.42383 -0.026,1.264 -0.71938,3.02943 -0.60938,4.27343 0.418,4.704 3.53544,8.9156 4.27344,13.4336 1.5,9.184 -3.16576,17.73418 -4.88477,26.86719 -4.79968,3.26134 -6.46399,7.57984 -6.34885,9.03836 12.02524,-0.0173 5.5801,-0.16314 13.63051,-0.13034 2.10609,0.11383 2.25674,-3.01305 0.60386,-5.50372 2.107,-2.498 4.67396,-5.91776 4.92896,-9.51176 0.136,-1.915 -0.9857,-3.61009 -1.2207,-5.49609 -0.57801,-4.633 -1.35338,-11.31033 -0.60938,-16.48633 0.277,-1.933 1.64308,-3.60009 1.83008,-5.49609 1.06276,-10.80953 -6.54449,-23.06936 -1.22461,-34.79492 2.33625,0.37625 3.21883,-0.70315 5.19141,-0.69727 0.28179,8.4e-4 0.58617,0.0237 0.91992,0.0762 1.614,2.542 1.7374,5.12046 2.4414,7.93946 0.6,2.40398 2.20336,5.29948 2.44336,7.9375 0.364,3.99398 -2.09836,7.39256 -2.44336,11.60156 -0.715,8.729 3.16236,18.65326 2.44336,28.69726 -0.245,3.417 -1.48703,6.55849 -1.83203,9.77149 -1.31939,15.05898 -12.31849,12.39188 9.0645,12.19417 0.0887,-0.11859 1.45031,-0.2514 1.74897,-1.90936 0.75708,-2.9293 0.64076,-4.27265 0.7881,-7.23039 0.552,-7.921 -3.5514,-17.5819 -2.4414,-28.0879 0.764,-7.234 2.59508,-12.65373 1.83008,-18.92773 -0.774,-6.359 -1.451,-15.93013 0,-23.20313 l 0.008,-0.0117 c 1.605,-0.2325 3.0357,-0.62914 4.80664,-0.68164 0.59031,-0.0175 1.21734,0.003 1.90234,0.0801 2.074,3.615 3.40147,7.04624 6.10547,10.99024 2.029,2.96 7.90783,6.88686 8.54883,10.38086 0.452,2.461 0.50966,6.34348 1.22266,9.77148 0.674,3.245 2.3224,6.38488 2.4414,8.54688 0.361,6.564 -3.6274,12.50501 -2.4414,19.54101 -1.69,5.027 -2.60977,7.32367 -4.50977,14.13867 -1.51,0.728 -3.42094,4.52857 -4.08594,6.10157 -0.54692,0.81326 -0.25217,0.95336 1.76563,0.84008 l 10.36649,-0.0276 0.4479,-0.56019 c -0.3739,-3.20323 -1.38401,-0.98162 -0.32225,-3.40074 0.18201,-2.059 2.70769,-1.77006 3.05469,-3.66406 1.473,-4.838 -0.182,-9.51793 0,-14.04493 0.323,-8.08299 3.17947,-15.21046 6.10547,-21.98046 1.22,-2.819 -0.23026,-8.19524 3.05274,-10.99024 0.437,7.357 -0.65333,13.18544 -0.61133,20.14844 2.708,-1.212 2.27836,-5.81583 2.44336,-8.54883 l -0.01,0.0137 c 0.52,-8.67 0.88047,-17.74015 1.23047,-25.66015 9.117,13.36 10.527,41.5757 0,54.3457 0.428,2.667 -1.03838,3.43847 -0.60937,6.10547 -3.97015,0.81951 -4.35225,5.22713 -6.58594,7.78125 -0.18931,0.51437 -1.14303,0.43906 1.14453,0.68359 4.38835,-0.20893 11.86178,0.1929 13.99219,-1.13672 1.913,-3.078 0.92265,-3.54818 -0.91135,-5.57318 0.012,-1.82 2.56975,-1.31336 3.35275,-2.36236 2.15,-4.005 1.09766,-8.52189 1.22266,-12.21289 0.054,-1.594 1.52103,-3.6521 1.83203,-5.4961 1.197,-7.117 2.36348,-10.318 4.27148,-15.875 1.429,-4.16 2.5534,-8.42689 4.27539,-12.21289 -4.45798,-8.567 -5.99609,-20.05603 -5.49609,-33.58203 1.89,-5.416 5.78213,-11.42436 7.32813,-18.31836 0.698,-3.116 0.0764,-6.92819 0.60937,-10.99219 0.36,-2.742 1.47303,-5.829818 1.83203,-8.548818 1.261,-9.557 1.35135,-13.12306 -1.22265,-19.53906 -1.974,-4.922 -3.91785,-9.75094 -6.71485,-12.21094 -0.685,-0.603 -2.26806,-0.3897 -3.66406,-1.220701 -1.586,-0.945 -2.94939,-3.44839 -4.27539,-4.27539 -1.069,-0.667 -2.92444,-1.08703 -4.27344,-1.83203 -7.924,-4.378 -17.92223,-5.10374 -26.86523,-3.05274 -7.974,1.828 -13.69172,5.74413 -20.76172,7.32813 -3.842,-3.689 -7.30056,-7.76219 -11.60156,-10.99219 -2.789,-9.239003 -5.48489,-17.5008 -12.21289,-22.5918 -1.416,-1.071 -3.73614,-1.208406 -5.49415,-2.441406 -1.656,-1.162 -2.61843,-3.364438 -4.27343,-4.273438 -3.04,-1.67 -7.44549,-0.91939 -9.77149,-4.275391 0.8,-4.917983 1.66524,-11.7942336 -4.88476,-10.9902336 -1.355,3.326 0.26293,9.6239056 -3.66406,10.3789056 -0.89236,-5.14528 0.69718,-7.2404926 0,-10.9824216 z M 95.803877,86.973142 c -2.054,2.02 2.50271,4.94747 1.22071,6.10547 -4.544,0.951 -9.82693,1.16536 -14.04493,2.44336 -1.518,4.977998 3.08939,3.83147 4.27539,6.105458 -3.078,2.417 -7.44145,3.55083 -7.93945,8.54883 -2.161,-1.404 -5.85914,-0.006 -5.49414,3.05273 1.918,1.016 2.49475,-2.27131 3.05273,-0.61133 -0.443,1.868 1.05433,1.79607 0.61133,3.66407 -1.081,0.75 -2.47373,1.19036 -3.05273,2.44336 1.399,4.848 -3.07003,4.2909 -1.83203,10.3789 -5.537,3.826 -13.70446,5.02339 -23.81446,4.27539 -7.72692,-6.066 -22.049261,-2.916 -28.697261,0 -1.897,2.377 -4.205094,4.34318 -5.496094,7.32618 -7.0250007,1.506 -12.1282037,8.72732 -9.1582037,16.48632 -0.157,1.269 -2.681735,0.16571 -3.052734,1.22071 -2.031003,5.152 0.674093,9.02615 5.496093,9.16015 0.439,-5.26 4.6924697,-6.70423 6.1054697,-10.99023 4.07,3.336 1.426328,8.16531 0.611328,12.82031 1.856,2.451 2.550063,-3.0837 3.664063,-1.2207 1.449,2.187 -1.161032,3.75347 -1.832032,6.10547 -1.657,5.807 -1.105468,13.354 -6.105469,15.875 -0.227,5.092 1.067406,10.20359 2.441407,15.26757 -1.390001,-0.083 -2.366064,-3.67603 -3.6640637,-1.83203 2.1689997,4.336 2.9867037,8.61497 1.2207037,14.04297 0.175999,2.266 3.229735,1.65539 3.052735,4.27539 -2.119001,-0.287 -0.02921,2.67046 -1.832032,3.66211 -0.01883,-0.001 -0.0378,-0.004 -0.05664,-0.006 l 0.205208,0.62693 c 0.299986,0.34366 7.613088,0.63167 11.265605,0.43808 0.675098,-0.14315 0.107463,-0.79367 0.0517,-0.92418 -4.884,-6.85 -8.101656,-20.58426 -4.141656,-30.66426 6.162,7.678 7.31886,20.36262 10.38086,31.14062 1.647028,-0.0708 8.10265,-0.12873 9.333852,-0.44971 -0.560176,-3.18108 -1.58468,-4.82512 -2.00768,-8.09912 -1.771,-6.5 -7.310453,-11.21136 -7.939453,-18.31836 -0.152001,-1.711 1.097703,-2.81976 1.220703,-4.88476 0.134,-2.227 -1.384375,-6.74391 -0.609375,-10.37891 1.56127,-7.31958 8.484899,-11.86157 9.767578,-18.91992 10.271998,4.11 21.522578,2.58953 31.142578,-1.23047 3.215,1.994 0.69538,5.8522 0.60938,9.1582 -0.106,4.094 1.29634,8.65427 0.61132,12.82227 -0.37899,2.306 -2.06573,3.9758 -3.05273,6.7168 -2.877,7.993 -1.67883,14.63965 -8.54883,17.09765 -0.781,1.087 -1.176,5.6968 0,6.7168 -0.975,2.468 -0.794247,4.99305 -0.820924,8.10705 1.51975,0.53677 6.737264,0.22719 8.867774,-0.76718 l 0.0195,-0.0273 c -0.0415,0.008 -0.0814,0.009 -0.12305,0.0176 h -0.002 c -0.12,-10.61 2.74078,-22.68055 8.55078,-29.31055 4.69124,13.12022 -5.2186,21.27146 -0.18775,29.6239 l 9.421629,-0.67455 c -0.75501,-2.36606 -2.402359,-3.50943 -3.739749,-5.74622 2.147,-4.135 0.33333,-8.7086 0.61133,-13.4336 0.247,-4.2 2.51273,-7.93289 3.05273,-12.21289 0.743,-5.893 -1.96564,-12.03 2.44336,-15.875 -1.085,-10.087 7.12316,-16.7572 9.16016,-25.0332 0.38,-1.542 -0.209,-3.23172 0,-4.88672 0.992,-7.84 5.100843,-12.48976 6.714843,-18.92773 1.161,-4.62701 0.99741,-9.07293 2.44141,-14.04493 5.984,-0.734 10.25289,-3.1805 12.21289,-7.9375 5.793,-3.1629 14.37462,-3.53656 15.26562,-11.601548 -1.768,-1.075 -2.62376,-3.60744 -4.88476,-4.27344 -4.904,-1.444 -13.59033,1.43808 -16.48633,1.83008 -4.894,0.663 -7.96491,0.41503 -10.37891,1.83203 0.703,-0.722 0.68938,-2.15711 0.60938,-3.66211 -2.482,-0.571 -3.815803,-2.29136 -6.716803,-2.44336 z M 220.97576,137.65477 c 5.737,2.2 4.74747,11.12899 6.10547,17.70899 0.958,-0.263 0.5204,-1.92166 2.4414,-1.22266 0.513,2.336 0.79833,4.9015 0.61133,7.9375 l 0.002,0.008 c -5.97,-5.23 -8.99015,-13.41165 -9.16015,-24.43165 z" />
<metadata
   id="metadata4"><rdf:RDF><cc:Work><dc:format>image/svg+xml</dc:format><dc:type
         rdf:resource="http://purl.org/dc/dcmitype/StillImage" /><cc:license
         rdf:resource="http://creativecommons.org/publicdomain/zero/1.0/" /><dc:publisher><cc:Agent
           rdf:about="http://openclipart.org/"><dc:title></dc:title></cc:Agent></dc:publisher><dc:title></dc:title><dc:date></dc:date><dc:description></dc:description><dc:source></dc:source><dc:creator><cc:Agent><dc:title></dc:title></cc:Agent></dc:creator><dc:subject><rdf:Bag /></dc:subject></cc:Work><cc:License
       rdf:about="http://creativecommons.org/publicdomain/zero/1.0/"><cc:permits
         rdf:resource="http://creativecommons.org/ns#Reproduction" /><cc:permits
         rdf:resource="http://creativecommons.org/ns#Distribution" /><cc:permits
         rdf:resource="http://creativecommons.org/ns#DerivativeWorks" /></cc:License></rdf:RDF></metadata><rect
   y="37.800438"
   x="18.437738"
   id="rect1934"
   style="fill:#00f7ff;fill-opacity:1;stroke:none;stroke-width:2;stroke-miterlimit:4;stroke-dasharray:none;stroke-opacity:1" /></svg>