<?xml version="1.0" encoding="UTF-8" standalone="no"?>
<!-- Generator: Adobe Illustrator 14.0.0, SVG Export Plug-In . SVG Version: 6.00 Build 43363)  -->

<svg
   xmlns:dc="http://purl.org/dc/elements/1.1/"
   xmlns:cc="http://creativecommons.org/ns#"
   xmlns:rdf="http://www.w3.org/1999/02/22-rdf-syntax-ns#"
   xmlns:svg="http://www.w3.org/2000/svg"
   xmlns="http://www.w3.org/2000/svg"
   xmlns:sodipodi="http://sodipodi.sourceforge.net/DTD/sodipodi-0.dtd"
   xmlns:inkscape="http://www.inkscape.org/namespaces/inkscape"
   version="1.1"
   id="Ebene_1"
   x="0px"
   y="0px"
   width="16"
   height="13"
   viewBox="0 0 16 13"
   enable-background="new 0 0 16 16"
   xml:space="preserve"
   inkscape:version="0.91 r13725"
   sodipodi:docname="rock2.svg"><metadata
   id="metadata9"><rdf:RDF><cc:Work
       rdf:about=""><dc:format>image/svg+xml</dc:format><dc:type
         rdf:resource="http://purl.org/dc/dcmitype/StillImage" /><dc:title /></cc:Work></rdf:RDF></metadata><defs
   id="defs7" /><sodipodi:namedview
   pagecolor="#ffffff"
   bordercolor="#666666"
   borderopacity="1"
   objecttolerance="10"
   gridtolerance="10"
   guidetolerance="10"
   inkscape:pageopacity="0"
   inkscape:pageshadow="2"
   inkscape:window-width="1680"
   inkscape:window-height="988"
   id="namedview5"
   showgrid="false"
   fit-margin-top="0"
   fit-margin-left="0"
   fit-margin-right="0"
   fit-margin-bottom="0"
   inkscape:zoom="64"
   inkscape:cx="8.3718219"
   inkscape:cy="1.8195663"
   inkscape:window-x="-8"
   inkscape:window-y="-8"
   inkscape:window-maximized="1"
   inkscape:current-layer="Ebene_1"><inkscape:grid
     type="xygrid"
     id="grid2986"
     empspacing="5"
     visible="true"
     enabled="true"
     snapvisiblegridlinesonly="true"
     originx="0.22577686px"
     originy="2.4504823px" /></sodipodi:namedview>

<path
   style="fill:#636363;fill-opacity:1;stroke:#000000;stroke-width:0.89999998;stroke-linecap:butt;stroke-linejoin:miter;stroke-miterlimit:4;stroke-opacity:1;stroke-dasharray:none"
   d="m 0.45,8.872259 c 1.6140233,1.408284 4.8950869,-0.8866663 6.4705465,4.391e-4 0.3838252,-0.6940654 1.029243,-1.56139 0,-2.2653676 -1.4392696,-0.6147503 -2.8785401,-4.886e-4 -4.3178094,0 -0.7074582,-1.1326923 -0.2086311,-2.2653766 0,-3.3980642 0.4562285,-0.8209334 0.724337,-1.6888664 2.1589047,-2.26537404 2.5810987,-0.4254466 5.1652443,-0.871682 7.5561662,0 1.474375,1.07176704 1.942152,2.22478294 2.158907,3.39806164 -0.475694,1.369464 -1.195326,2.1245872 -2.158907,2.2653766 -0.766809,0.8892275 -0.374262,1.5756988 0,2.2653676 1.300072,-0.512887 1.81114,-0.3943491 3.232192,-6.25e-5 l 0,3.3592464 -15.1,-0.0056 z"
   id="path2988"
   inkscape:connector-curvature="0"
   sodipodi:nodetypes="cccccccccccccc" /><path
   style="fill:none;stroke:#636363;stroke-width:1;stroke-linecap:butt;stroke-linejoin:miter;stroke-miterlimit:4;stroke-opacity:1;stroke-dasharray:none"
   d="m 0.45,9.629259 0,2.597 15.1,0.006 0,-3.006"
   id="path3758"
   inkscape:connector-curvature="0"
   sodipodi:nodetypes="cccc" /></svg>