<?xml version="1.0" encoding="UTF-8" standalone="no"?>
<svg
   xmlns:dc="http://purl.org/dc/elements/1.1/"
   xmlns:cc="http://creativecommons.org/ns#"
   xmlns:rdf="http://www.w3.org/1999/02/22-rdf-syntax-ns#"
   xmlns:svg="http://www.w3.org/2000/svg"
   xmlns="http://www.w3.org/2000/svg"
   xmlns:sodipodi="http://sodipodi.sourceforge.net/DTD/sodipodi-0.dtd"
   xmlns:inkscape="http://www.inkscape.org/namespaces/inkscape"
   viewBox="0 0 16 10"
   height="10"
   width="16"
   xml:space="preserve"
   id="svg2"
   version="1.1"
   sodipodi:docname="chocolate-publicdomainvectors6.svg"
   inkscape:version="1.0 (4035a4fb49, 2020-05-01)"><sodipodi:namedview
     inkscape:document-rotation="0"
     pagecolor="#ffffff"
     bordercolor="#666666"
     borderopacity="1"
     objecttolerance="10"
     gridtolerance="10"
     guidetolerance="10"
     inkscape:pageopacity="0"
     inkscape:pageshadow="2"
     inkscape:window-width="1680"
     inkscape:window-height="987"
     id="namedview437"
     showgrid="true"
     inkscape:zoom="48.813537"
     inkscape:cx="8.1342887"
     inkscape:cy="4.4136448"
     inkscape:window-x="-8"
     inkscape:window-y="-8"
     inkscape:window-maximized="1"
     inkscape:current-layer="svg2"><inkscape:grid
       type="xygrid"
       id="grid1971" /></sodipodi:namedview><metadata
     id="metadata8"><rdf:RDF><cc:Work
         rdf:about=""><dc:format>image/svg+xml</dc:format><dc:type
           rdf:resource="http://purl.org/dc/dcmitype/StillImage" /><dc:title></dc:title></cc:Work></rdf:RDF></metadata><defs
     id="defs6"><clipPath
       id="clipPath396"
       clipPathUnits="userSpaceOnUse"><path
         id="path394"
         d="m 4206.51,4345.79 c -31.14,0 -56.61,-25.47 -56.61,-56.7 v -406.62 c 0,-31.14 25.47,-56.7 56.61,-56.7 h 866.7 c 31.14,0 56.61,25.56 56.61,56.7 v 406.62 c 0,31.23 -25.47,56.7 -56.61,56.7 h -866.7 m -1109.97,0 c -31.14,0 -56.7,-25.47 -56.7,-56.7 v -406.62 c 0,-31.14 25.56,-56.7 56.7,-56.7 h 866.61 c 31.23,0 56.7,25.56 56.7,56.7 v 406.62 c 0,31.23 -25.47,56.7 -56.7,56.7 h -866.61 m -1099.98,0 c -31.14,0 -56.7,-25.47 -56.7,-56.7 v -406.62 c 0,-31.14 25.56,-56.7 56.7,-56.7 h 866.61 c 31.23,0 56.7,25.56 56.7,56.7 v 406.62 c 0,31.23 -25.47,56.7 -56.7,56.7 h -866.61 m -1089.99,0 c -31.23,0 -56.699,-25.47 -56.699,-56.7 v -406.62 c 0,-31.14 25.469,-56.7 56.699,-56.7 h 866.61 c 31.14,0 56.7,25.56 56.7,56.7 v 406.62 c 0,31.23 -25.56,56.7 -56.7,56.7 H 906.57 m 3299.94,-620.01 c -31.14,0 -56.61,-25.47 -56.61,-56.7 v -406.53 c 0,-31.23 25.47,-56.7 56.61,-56.7 h 866.7 c 31.14,0 56.61,25.47 56.61,56.7 v 406.53 c 0,31.23 -25.47,56.7 -56.61,56.7 h -866.7 m -1109.97,0 c -31.14,0 -56.7,-25.47 -56.7,-56.7 v -406.53 c 0,-31.23 25.56,-56.7 56.7,-56.7 h 866.61 c 31.23,0 56.7,25.47 56.7,56.7 v 406.53 c 0,31.23 -25.47,56.7 -56.7,56.7 h -866.61 m -1099.98,0 c -31.14,0 -56.7,-25.47 -56.7,-56.7 v -406.53 c 0,-31.23 25.56,-56.7 56.7,-56.7 h 866.61 c 31.23,0 56.7,25.47 56.7,56.7 v 406.53 c 0,31.23 -25.47,56.7 -56.7,56.7 h -866.61 m -1089.99,0 c -31.23,0 -56.699,-25.47 -56.699,-56.7 v -406.53 c 0,-31.23 25.469,-56.7 56.699,-56.7 h 866.61 c 31.14,0 56.7,25.47 56.7,56.7 v 406.53 c 0,31.23 -25.56,56.7 -56.7,56.7 H 906.57 m 3299.94,-626.67 c -31.14,0 -56.61,-25.47 -56.61,-56.7 v -406.62 c 0,-31.14 25.47,-56.61 56.61,-56.61 h 866.7 c 31.14,0 56.61,25.47 56.61,56.61 v 406.62 c 0,31.23 -25.47,56.7 -56.61,56.7 h -866.7 m -1109.97,0 c -31.14,0 -56.7,-25.47 -56.7,-56.7 v -406.62 c 0,-31.14 25.56,-56.61 56.7,-56.61 h 866.61 c 31.23,0 56.7,25.47 56.7,56.61 v 406.62 c 0,31.23 -25.47,56.7 -56.7,56.7 h -866.61 m -1099.98,0 c -31.14,0 -56.7,-25.47 -56.7,-56.7 v -406.62 c 0,-31.14 25.56,-56.61 56.7,-56.61 h 866.61 c 31.23,0 56.7,25.47 56.7,56.61 v 406.62 c 0,31.23 -25.47,56.7 -56.7,56.7 h -866.61 m -1089.99,0 c -31.23,0 -56.699,-25.47 -56.699,-56.7 v -406.62 c 0,-31.14 25.469,-56.61 56.699,-56.61 h 866.61 c 31.14,0 56.7,25.47 56.7,56.61 v 406.62 c 0,31.23 -25.56,56.7 -56.7,56.7 H 906.57 m 3299.94,-599.94 c -31.14,0 -56.61,-25.56 -56.61,-56.7 v -406.62 c 0,-31.23 25.47,-56.7 56.61,-56.7 h 866.7 c 31.14,0 56.61,25.47 56.61,56.7 v 406.62 c 0,31.14 -25.47,56.7 -56.61,56.7 h -866.7 m -1109.97,0 c -31.14,0 -57.15,-25.56 -57.6,-56.7 l -8.1,-472.68 c -0.54,-31.14 24.48,-54.99 55.62,-52.92 l 876.87,58.5 c 31.05,2.07 56.52,29.25 56.52,60.48 v 406.62 c 0,31.14 -25.47,56.7 -56.7,56.7 h -866.61 m -1099.98,0 c -31.14,0 -56.7,-25.56 -56.7,-56.7 v -406.62 c 0,-31.23 25.56,-56.7 56.7,-56.7 h 866.61 c 31.23,0 56.7,25.47 56.7,56.7 v 406.62 c 0,31.14 -25.47,56.7 -56.7,56.7 h -866.61 m -1089.99,0 c -31.23,0 -56.699,-25.56 -56.699,-56.7 v -406.62 c 0,-31.23 25.469,-56.7 56.699,-56.7 h 866.61 c 31.14,0 56.7,25.47 56.7,56.7 v 406.62 c 0,31.14 -25.56,56.7 -56.7,56.7 H 906.57" /></clipPath><clipPath
       id="clipPath402"
       clipPathUnits="userSpaceOnUse"><path
         id="path400"
         d="m 850.352,1915.76 h 4279.99 V 4346.74 H 850.352 Z" /></clipPath><linearGradient
       id="linearGradient408"
       spreadMethod="pad"
       gradientTransform="matrix(20.494693,0,0,21.993368,0.38535964,6.6840909)"
       gradientUnits="userSpaceOnUse"
       y2="0"
       x2="1"
       y1="0"
       x1="0"><stop
         id="stop404"
         offset="0"
         style="stop-opacity:1;stop-color:#8e4a33" /><stop
         id="stop406"
         offset="1"
         style="stop-opacity:1;stop-color:#422a1c" /></linearGradient><clipPath
       id="clipPath418"
       clipPathUnits="userSpaceOnUse"><path
         id="path416"
         d="m 963.27,4289.09 c -31.231,0 -56.7,-25.47 -56.7,-56.7 v -293.22 c 0,-31.14 25.469,-56.7 56.7,-56.7 h 753.21 c 31.14,0 56.7,25.56 56.7,56.7 v 293.22 c 0,31.23 -25.56,56.7 -56.7,56.7 H 963.27" /></clipPath><clipPath
       id="clipPath424"
       clipPathUnits="userSpaceOnUse"><path
         id="path422"
         d="m 906.625,3882.92 h 866.613 v 406.609 H 906.625 Z" /></clipPath><linearGradient
       id="linearGradient430"
       spreadMethod="pad"
       gradientTransform="matrix(4.1497491,0,0,4.4531993,0.65485317,1.7817711)"
       gradientUnits="userSpaceOnUse"
       y2="0"
       x2="1"
       y1="0"
       x1="0"><stop
         id="stop426"
         offset="0"
         style="stop-opacity:1;stop-color:#8e4a33" /><stop
         id="stop428"
         offset="1"
         style="stop-opacity:1;stop-color:#422a1c" /></linearGradient><clipPath
       id="clipPath440"
       clipPathUnits="userSpaceOnUse"><path
         id="path438"
         d="m 963.27,3669.08 c -31.231,0 -56.7,-25.47 -56.7,-56.7 v -293.22 c 0,-31.14 25.469,-56.61 56.7,-56.61 h 753.21 c 31.14,0 56.7,25.47 56.7,56.61 v 293.22 c 0,31.23 -25.56,56.7 -56.7,56.7 H 963.27" /></clipPath><clipPath
       id="clipPath446"
       clipPathUnits="userSpaceOnUse"><path
         id="path444"
         d="m 906.625,3262.92 h 866.613 v 406.609 H 906.625 Z" /></clipPath><linearGradient
       id="linearGradient452"
       spreadMethod="pad"
       gradientTransform="matrix(4.1497491,0,0,4.4531993,0.65485317,4.9677347)"
       gradientUnits="userSpaceOnUse"
       y2="0"
       x2="1"
       y1="0"
       x1="0"><stop
         id="stop448"
         offset="0"
         style="stop-opacity:1;stop-color:#8e4a33" /><stop
         id="stop450"
         offset="1"
         style="stop-opacity:1;stop-color:#422a1c" /></linearGradient><clipPath
       id="clipPath462"
       clipPathUnits="userSpaceOnUse"><path
         id="path460"
         d="m 963.27,3042.41 c -31.231,0 -56.7,-25.47 -56.7,-56.61 v -293.31 c 0,-31.14 25.469,-56.7 56.7,-56.7 h 753.21 c 31.14,0 56.7,25.56 56.7,56.7 v 293.31 c 0,31.14 -25.56,56.61 -56.7,56.61 H 963.27" /></clipPath><clipPath
       id="clipPath468"
       clipPathUnits="userSpaceOnUse"><path
         id="path466"
         d="m 906.625,2636.04 h 866.613 v 406.621 H 906.625 Z" /></clipPath><linearGradient
       id="linearGradient474"
       spreadMethod="pad"
       gradientTransform="matrix(4.1497491,0,0,4.4531993,0.65485317,8.1889854)"
       gradientUnits="userSpaceOnUse"
       y2="0"
       x2="1"
       y1="0"
       x1="0"><stop
         id="stop470"
         offset="0"
         style="stop-opacity:1;stop-color:#8e4a33" /><stop
         id="stop472"
         offset="1"
         style="stop-opacity:1;stop-color:#422a1c" /></linearGradient><clipPath
       id="clipPath484"
       clipPathUnits="userSpaceOnUse"><path
         id="path482"
         d="m 963.27,2442.47 c -31.231,0 -56.7,-25.56 -56.7,-56.7 v -293.22 c 0,-31.23 25.469,-56.7 56.7,-56.7 h 753.21 c 31.14,0 56.7,25.47 56.7,56.7 v 293.22 c 0,31.14 -25.56,56.7 -56.7,56.7 H 963.27" /></clipPath><clipPath
       id="clipPath490"
       clipPathUnits="userSpaceOnUse"><path
         id="path488"
         d="m 906.625,2036.04 h 866.613 v 406.621 H 906.625 Z" /></clipPath><linearGradient
       id="linearGradient496"
       spreadMethod="pad"
       gradientTransform="matrix(3.0290279,0,0,2.947585,0.47799721,7.4610775)"
       gradientUnits="userSpaceOnUse"
       y2="0"
       x2="1"
       y1="0"
       x1="0"><stop
         id="stop492"
         offset="0"
         style="stop-opacity:1;stop-color:#8e4a33" /><stop
         id="stop494"
         offset="1"
         style="stop-opacity:1;stop-color:#422a1c" /></linearGradient><clipPath
       id="clipPath506"
       clipPathUnits="userSpaceOnUse"><path
         id="path504"
         d="m 2053.26,4289.09 c -31.14,0 -56.7,-25.47 -56.7,-56.7 v -293.22 c 0,-31.14 25.56,-56.7 56.7,-56.7 h 753.21 c 31.23,0 56.7,25.56 56.7,56.7 v 293.22 c 0,31.23 -25.47,56.7 -56.7,56.7 h -753.21" /></clipPath><clipPath
       id="clipPath512"
       clipPathUnits="userSpaceOnUse"><path
         id="path510"
         d="m 1996.63,3882.92 h 866.609 v 406.609 H 1996.63 Z" /></clipPath><linearGradient
       id="linearGradient518"
       spreadMethod="pad"
       gradientTransform="matrix(4.1497491,0,0,4.4531993,5.8742915,1.7817711)"
       gradientUnits="userSpaceOnUse"
       y2="0"
       x2="1"
       y1="0"
       x1="0"><stop
         id="stop514"
         offset="0"
         style="stop-opacity:1;stop-color:#8e4a33" /><stop
         id="stop516"
         offset="1"
         style="stop-opacity:1;stop-color:#422a1c" /></linearGradient><clipPath
       id="clipPath528"
       clipPathUnits="userSpaceOnUse"><path
         id="path526"
         d="m 2053.26,3669.08 c -31.14,0 -56.7,-25.47 -56.7,-56.7 v -293.22 c 0,-31.14 25.56,-56.61 56.7,-56.61 h 753.21 c 31.23,0 56.7,25.47 56.7,56.61 v 293.22 c 0,31.23 -25.47,56.7 -56.7,56.7 h -753.21" /></clipPath><clipPath
       id="clipPath534"
       clipPathUnits="userSpaceOnUse"><path
         id="path532"
         d="m 1996.63,3262.92 h 866.609 v 406.609 H 1996.63 Z" /></clipPath><linearGradient
       id="linearGradient540"
       spreadMethod="pad"
       gradientTransform="matrix(4.1497491,0,0,4.4531993,5.8742915,4.9677347)"
       gradientUnits="userSpaceOnUse"
       y2="0"
       x2="1"
       y1="0"
       x1="0"><stop
         id="stop536"
         offset="0"
         style="stop-opacity:1;stop-color:#8e4a33" /><stop
         id="stop538"
         offset="1"
         style="stop-opacity:1;stop-color:#422a1c" /></linearGradient><clipPath
       id="clipPath550"
       clipPathUnits="userSpaceOnUse"><path
         id="path548"
         d="m 2053.26,3042.41 c -31.14,0 -56.7,-25.47 -56.7,-56.61 v -293.31 c 0,-31.14 25.56,-56.7 56.7,-56.7 h 753.21 c 31.23,0 56.7,25.56 56.7,56.7 v 293.31 c 0,31.14 -25.47,56.61 -56.7,56.61 h -753.21" /></clipPath><clipPath
       id="clipPath556"
       clipPathUnits="userSpaceOnUse"><path
         id="path554"
         d="m 1996.63,2636.04 h 866.609 v 406.621 H 1996.63 Z" /></clipPath><linearGradient
       id="linearGradient562"
       spreadMethod="pad"
       gradientTransform="matrix(4.1497491,0,0,4.4531993,5.8742915,8.1889854)"
       gradientUnits="userSpaceOnUse"
       y2="0"
       x2="1"
       y1="0"
       x1="0"><stop
         id="stop558"
         offset="0"
         style="stop-opacity:1;stop-color:#8e4a33" /><stop
         id="stop560"
         offset="1"
         style="stop-opacity:1;stop-color:#422a1c" /></linearGradient><clipPath
       id="clipPath572"
       clipPathUnits="userSpaceOnUse"><path
         id="path570"
         d="m 2053.26,2442.47 c -31.14,0 -56.7,-25.56 -56.7,-56.7 v -293.22 c 0,-31.23 25.56,-56.7 56.7,-56.7 h 753.21 c 31.23,0 56.7,25.47 56.7,56.7 v 293.22 c 0,31.14 -25.47,56.7 -56.7,56.7 h -753.21" /></clipPath><clipPath
       id="clipPath578"
       clipPathUnits="userSpaceOnUse"><path
         id="path576"
         d="m 1996.63,2036.04 h 866.609 v 406.621 H 1996.63 Z" /></clipPath><linearGradient
       id="linearGradient584"
       spreadMethod="pad"
       gradientTransform="matrix(3.0290279,0,0,2.947585,4.2878237,7.4610775)"
       gradientUnits="userSpaceOnUse"
       y2="0"
       x2="1"
       y1="0"
       x1="0"><stop
         id="stop580"
         offset="0"
         style="stop-opacity:1;stop-color:#8e4a33" /><stop
         id="stop582"
         offset="1"
         style="stop-opacity:1;stop-color:#422a1c" /></linearGradient><clipPath
       id="clipPath594"
       clipPathUnits="userSpaceOnUse"><path
         id="path592"
         d="m 3153.24,4289.09 c -31.14,0 -56.7,-25.47 -56.7,-56.7 v -293.22 c 0,-31.14 25.56,-56.7 56.7,-56.7 h 753.21 c 31.23,0 56.7,25.56 56.7,56.7 v 293.22 c 0,31.23 -25.47,56.7 -56.7,56.7 h -753.21" /></clipPath><clipPath
       id="clipPath600"
       clipPathUnits="userSpaceOnUse"><path
         id="path598"
         d="m 3096.62,3882.92 h 866.609 v 406.609 H 3096.62 Z" /></clipPath><linearGradient
       id="linearGradient606"
       spreadMethod="pad"
       gradientTransform="matrix(4.1497491,0,0,4.4531993,11.14162,1.7817711)"
       gradientUnits="userSpaceOnUse"
       y2="0"
       x2="1"
       y1="0"
       x1="0"><stop
         id="stop602"
         offset="0"
         style="stop-opacity:1;stop-color:#8e4a33" /><stop
         id="stop604"
         offset="1"
         style="stop-opacity:1;stop-color:#422a1c" /></linearGradient><clipPath
       id="clipPath616"
       clipPathUnits="userSpaceOnUse"><path
         id="path614"
         d="m 3153.24,3669.08 c -31.14,0 -56.7,-25.47 -56.7,-56.7 v -293.22 c 0,-31.14 25.56,-56.61 56.7,-56.61 h 753.21 c 31.23,0 56.7,25.47 56.7,56.61 v 293.22 c 0,31.23 -25.47,56.7 -56.7,56.7 h -753.21" /></clipPath><clipPath
       id="clipPath622"
       clipPathUnits="userSpaceOnUse"><path
         id="path620"
         d="m 3096.62,3262.92 h 866.609 v 406.609 H 3096.62 Z" /></clipPath><linearGradient
       id="linearGradient628"
       spreadMethod="pad"
       gradientTransform="matrix(4.1497491,0,0,4.4531993,11.14162,4.9677347)"
       gradientUnits="userSpaceOnUse"
       y2="0"
       x2="1"
       y1="0"
       x1="0"><stop
         id="stop624"
         offset="0"
         style="stop-opacity:1;stop-color:#8e4a33" /><stop
         id="stop626"
         offset="1"
         style="stop-opacity:1;stop-color:#422a1c" /></linearGradient><clipPath
       id="clipPath638"
       clipPathUnits="userSpaceOnUse"><path
         id="path636"
         d="m 3153.24,3042.41 c -31.14,0 -56.7,-25.47 -56.7,-56.61 v -293.31 c 0,-31.14 25.56,-56.7 56.7,-56.7 h 753.21 c 31.23,0 56.7,25.56 56.7,56.7 v 293.31 c 0,31.14 -25.47,56.61 -56.7,56.61 h -753.21" /></clipPath><clipPath
       id="clipPath644"
       clipPathUnits="userSpaceOnUse"><path
         id="path642"
         d="m 3096.62,2636.04 h 866.609 v 406.621 H 3096.62 Z" /></clipPath><linearGradient
       id="linearGradient650"
       spreadMethod="pad"
       gradientTransform="matrix(4.1497491,0,0,4.4531993,11.14162,8.1889854)"
       gradientUnits="userSpaceOnUse"
       y2="0"
       x2="1"
       y1="0"
       x1="0"><stop
         id="stop646"
         offset="0"
         style="stop-opacity:1;stop-color:#8e4a33" /><stop
         id="stop648"
         offset="1"
         style="stop-opacity:1;stop-color:#422a1c" /></linearGradient><clipPath
       id="clipPath660"
       clipPathUnits="userSpaceOnUse"><path
         id="path658"
         d="m 3153.24,2442.47 c -31.14,0 -56.7,-25.56 -56.7,-56.7 v -293.22 c 0,-31.23 25.56,-56.7 56.7,-56.7 h 753.21 c 31.23,0 56.7,25.47 56.7,56.7 v 293.22 c 0,31.14 -25.47,56.7 -56.7,56.7 h -753.21" /></clipPath><clipPath
       id="clipPath666"
       clipPathUnits="userSpaceOnUse"><path
         id="path664"
         d="m 3096.62,2036.04 h 866.609 v 406.621 H 3096.62 Z" /></clipPath><linearGradient
       id="linearGradient672"
       spreadMethod="pad"
       gradientTransform="matrix(3.0290279,0,0,2.947585,8.1326065,7.4610775)"
       gradientUnits="userSpaceOnUse"
       y2="0"
       x2="1"
       y1="0"
       x1="0"><stop
         id="stop668"
         offset="0"
         style="stop-opacity:1;stop-color:#8e4a33" /><stop
         id="stop670"
         offset="1"
         style="stop-opacity:1;stop-color:#422a1c" /></linearGradient><clipPath
       id="clipPath682"
       clipPathUnits="userSpaceOnUse"><path
         id="path680"
         d="m 4263.21,4289.09 c -31.14,0 -56.61,-25.47 -56.61,-56.7 v -293.22 c 0,-31.14 25.47,-56.7 56.61,-56.7 h 753.3 c 31.14,0 56.7,25.56 56.7,56.7 v 293.22 c 0,31.23 -25.56,56.7 -56.7,56.7 h -753.3" /></clipPath><clipPath
       id="clipPath688"
       clipPathUnits="userSpaceOnUse"><path
         id="path686"
         d="m 4206.18,3882.43 h 866.621 v 406.609 H 4206.18 Z" /></clipPath><linearGradient
       id="linearGradient694"
       spreadMethod="pad"
       gradientTransform="matrix(3.0290627,0,0,2.9476189,12.010762,1.1810311)"
       gradientUnits="userSpaceOnUse"
       y2="0"
       x2="1"
       y1="0"
       x1="0"><stop
         id="stop690"
         offset="0"
         style="stop-opacity:1;stop-color:#8e4a33" /><stop
         id="stop692"
         offset="1"
         style="stop-opacity:1;stop-color:#422a1c" /></linearGradient><clipPath
       id="clipPath704"
       clipPathUnits="userSpaceOnUse"><path
         id="path702"
         d="m 4263.21,3669.08 c -31.14,0 -56.61,-25.47 -56.61,-56.7 v -293.22 c 0,-31.14 25.47,-56.61 56.61,-56.61 h 753.3 c 31.14,0 56.7,25.47 56.7,56.61 v 293.22 c 0,31.23 -25.56,56.7 -56.7,56.7 h -753.3" /></clipPath><clipPath
       id="clipPath710"
       clipPathUnits="userSpaceOnUse"><path
         id="path708"
         d="m 4206.18,3262.43 h 866.621 v 406.609 H 4206.18 Z" /></clipPath><linearGradient
       id="linearGradient716"
       spreadMethod="pad"
       gradientTransform="matrix(3.0290627,0,0,2.9476189,12.010762,3.2898193)"
       gradientUnits="userSpaceOnUse"
       y2="0"
       x2="1"
       y1="0"
       x1="0"><stop
         id="stop712"
         offset="0"
         style="stop-opacity:1;stop-color:#8e4a33" /><stop
         id="stop714"
         offset="1"
         style="stop-opacity:1;stop-color:#422a1c" /></linearGradient><clipPath
       id="clipPath726"
       clipPathUnits="userSpaceOnUse"><path
         id="path724"
         d="m 4263.21,2442.47 c -31.14,0 -56.61,-25.56 -56.61,-56.7 v -293.22 c 0,-31.23 25.47,-56.7 56.61,-56.7 h 753.3 c 31.14,0 56.7,25.47 56.7,56.7 v 293.22 c 0,31.14 -25.56,56.7 -56.7,56.7 h -753.3" /></clipPath><clipPath
       id="clipPath732"
       clipPathUnits="userSpaceOnUse"><path
         id="path730"
         d="m 4206.18,2036.18 h 866.621 v 406.621 H 4206.18 Z" /></clipPath><linearGradient
       id="linearGradient738"
       spreadMethod="pad"
       gradientTransform="matrix(3.0290627,0,0,2.9476189,12.010762,7.4606418)"
       gradientUnits="userSpaceOnUse"
       y2="0"
       x2="1"
       y1="0"
       x1="0"><stop
         id="stop734"
         offset="0"
         style="stop-opacity:1;stop-color:#8e4a33" /><stop
         id="stop736"
         offset="1"
         style="stop-opacity:1;stop-color:#422a1c" /></linearGradient><clipPath
       id="clipPath748"
       clipPathUnits="userSpaceOnUse"><path
         id="path746"
         d="m 4263.21,3042.41 c -31.14,0 -56.61,-25.47 -56.61,-56.61 v -293.31 c 0,-31.14 25.47,-56.7 56.61,-56.7 h 753.3 c 31.14,0 56.7,25.56 56.7,56.7 v 293.31 c 0,31.14 -25.56,56.61 -56.7,56.61 h -753.3" /></clipPath><clipPath
       id="clipPath754"
       clipPathUnits="userSpaceOnUse"><path
         id="path752"
         d="m 4206.18,2636.17 h 866.621 v 406.629 H 4206.18 Z" /></clipPath><linearGradient
       id="linearGradient760"
       spreadMethod="pad"
       gradientTransform="matrix(3.0290627,0,0,2.9476189,12.010762,5.4198765)"
       gradientUnits="userSpaceOnUse"
       y2="0"
       x2="1"
       y1="0"
       x1="0"><stop
         id="stop756"
         offset="0"
         style="stop-opacity:1;stop-color:#8e4a33" /><stop
         id="stop758"
         offset="1"
         style="stop-opacity:1;stop-color:#422a1c" /></linearGradient><clipPath
       id="clipPath774"
       clipPathUnits="userSpaceOnUse"><path
         id="path772"
         d="m 4213.17,2869.16 81.72,-325.44 c -25.02,-165.33 -263.43,-84.42 -223.47,-135.63 93.42,-119.79 -42.21,-370.44 70.65,-247.32 102.96,112.32 185.67,205.02 395.91,107.55 33.3,173.34 237.15,248.85 301.86,278.82 -46.62,218.7 30.15,240.66 19.98,415.26 l -646.65,-93.24" /></clipPath><clipPath
       id="clipPath780"
       clipPathUnits="userSpaceOnUse"><path
         id="path778"
         d="m 4028.74,2037.93 h 840.813 V 2962.7 H 4028.74 Z" /></clipPath><linearGradient
       id="linearGradient786"
       spreadMethod="pad"
       gradientTransform="matrix(2.7746326,0,0,2.7000298,11.35201,6.3015879)"
       gradientUnits="userSpaceOnUse"
       y2="0"
       x2="1"
       y1="0"
       x1="0"><stop
         id="stop782"
         offset="0"
         style="stop-opacity:1;stop-color:#8e4a33" /><stop
         id="stop784"
         offset="1"
         style="stop-opacity:1;stop-color:#422a1c" /></linearGradient><clipPath
       id="clipPath796"
       clipPathUnits="userSpaceOnUse"><path
         id="path794"
         d="m 3069.45,1990.49 c 0,0 503.73,-245.61 542.07,-184.68 121.77,193.32 293.31,160.02 293.31,160.02 l -29.97,357.48 -649.98,16.83 -155.43,-349.65" /></clipPath><clipPath
       id="clipPath802"
       clipPathUnits="userSpaceOnUse"><path
         id="path800"
         d="m 3069.19,1745.09 h 835.398 v 595.18 H 3069.19 Z" /></clipPath><linearGradient
       id="linearGradient808"
       spreadMethod="pad"
       gradientTransform="matrix(2.9199372,0,0,2.8414276,8.0367655,8.0430054)"
       gradientUnits="userSpaceOnUse"
       y2="0"
       x2="1"
       y1="0"
       x1="0"><stop
         id="stop804"
         offset="0"
         style="stop-opacity:1;stop-color:#8e4a33" /><stop
         id="stop806"
         offset="1"
         style="stop-opacity:1;stop-color:#422a1c" /></linearGradient></defs><path
     id="path388"
     style="fill:#9c785a;fill-opacity:1;fill-rule:nonzero;stroke:none;stroke-width:0.00496048"
     d="M 15.715215,3.4322226 C 15.811831,3.0817904 16.060026,2.7238114 15.978588,2.3028278 15.96445,1.6989111 16.007767,1.0893236 15.955257,0.48919428 15.773157,0.08359733 15.345704,-0.0289708 14.945063,0.02071033 13.77562,0.01380689 12.606177,0.00690344 11.436734,0 10.961787,0.12053403 10.555567,0.51668992 10.147353,0.0484399 9.4565113,-0.05079744 8.7487858,0.02255839 8.0505353,0 7.3464775,0.01277589 6.6390945,-0.02686848 5.9373258,0.02230601 5.5507968,0.23943428 5.2334394,0.43627553 4.8680328,0.0484399 4.177199,-0.05079869 3.4694809,0.02255923 2.7712382,0 1.9923364,0.00782757 1.211729,-0.01572628 0.43390289,0.01189142 -0.10697456,0.14864599 0.01059227,0.76442362 0,1.1864007 0.02670677,1.7801149 -0.06677556,2.3885946 0.07737543,2.9688454 0.52668901,3.3471008 0.042702,3.7060992 0.00537728,4.131118 c 0.00792219,0.6337225 -0.04791837,1.2754734 0.03976859,1.9034092 0.33980119,0.3778613 0.21011473,0.7659849 3.77e-6,1.1776615 -0.09029513,0.6312582 0.0089718,1.2842987 -0.02388018,1.9239975 -0.13299456,0.5366108 0.33657579,0.9500408 0.84499135,0.840189 1.26777499,-0.00377 2.53594159,0.0076 3.80346849,-0.00577 0.4475406,-0.1223443 0.774992,-0.5059113 1.1779442,-0.043004 0.6907699,0.099997 1.3985247,0.029179 2.0967498,0.05329 0.7019209,0.00179 1.4038418,0.00358 2.1057627,0.00536 0.319172,-0.1663004 0.633315,-0.5625459 0.934163,-0.1046021 0.385544,0.1889119 0.837058,0.06617 1.254262,0.1040894 1.108985,-0.00301 2.21957,0.02573 3.327547,0.00274 0.542145,-0.1361599 0.422863,-0.7528696 0.431555,-1.1749263 -0.02304,-0.6086915 0.04326,-1.2264806 -0.05494,-1.827812 -0.520075,-0.3661917 -0.0044,-0.6748661 0.04371,-1.1313262 -0.02263,-0.6341112 0.03812,-1.2757171 -0.05375,-1.903772 C 15.93235,3.7260359 15.661041,3.6513655 15.715218,3.4322216 Z" /><path
     id="path410"
     style="fill:url(#linearGradient408);fill-opacity:1;fill-rule:nonzero;stroke:none;stroke-width:0.00496048"
     d="M 0.60878919,9.5268756 C 0.38046455,9.4964165 0.37214989,9.2459474 0.3933703,8.9659432 0.4056077,8.3319762 0.3694219,7.649586 0.4104903,7.0444499 0.4787473,6.7539152 0.99275608,6.9091323 1.3124304,6.8700149 c 1.1846033,0.00623 2.3940525,-0.012387 3.5633178,0.00918 0.2966712,0.056578 0.1633067,0.5431926 0.191593,0.8681558 -0.012711,0.5276587 0.024587,1.1053256 -0.01708,1.6040284 -0.059746,0.2917721 -0.564981,0.137995 -0.8785258,0.175911 C 2.9840867,9.5271519 1.7964379,9.5270138 0.60878919,9.5268756 Z m 5.21943821,0 C 5.4974292,9.4848502 5.6366906,8.9727651 5.608609,8.628023 5.6240192,8.1084588 5.5785069,7.5279721 5.629959,7.0444499 5.6988336,6.7545744 6.2114297,6.9084204 6.5317148,6.8699554 c 1.1846034,0.00623 2.3940527,-0.012387 3.5633182,0.00918 0.297245,0.056284 0.164511,0.5425461 0.19243,0.8681558 -0.0128,0.5276088 0.02476,1.1055756 -0.0172,1.6040251 C 10.210019,9.6428319 9.7048343,9.4893567 9.3909862,9.5272205 8.2033999,9.5271056 7.0158137,9.5269906 5.8282274,9.5268756 Z m 5.2673286,0 c -0.321189,-0.039251 -0.198302,-0.5225779 -0.22026,-0.8610599 0.01204,-0.5341528 -0.02373,-1.1161077 0.0172,-1.6213658 0.0756,-0.2847974 0.580995,-0.1398067 0.906707,-0.174496 1.184654,0.00623 2.394154,-0.012387 3.56347,0.00918 0.304787,0.060553 0.155542,0.5751388 0.19013,0.9058908 -0.0092,0.51714 0.01784,1.0704378 -0.0126,1.5662956 -0.05748,0.2698922 -0.502447,0.1522613 -0.806125,0.175911 -1.212841,-1.186e-4 -2.425681,-2.371e-4 -3.638522,-3.557e-4 z M 0.63272705,6.3100948 C 0.3954976,6.2914737 0.36658894,6.0645317 0.39291575,5.7823543 0.40190375,5.13397 0.37521255,4.4499063 0.40575575,3.8230771 0.45599665,3.6233951 0.72455217,3.6420277 0.98569347,3.6532461 2.2821714,3.6594361 3.6033531,3.6409161 4.884508,3.6624261 5.178922,3.7297241 5.0328425,4.2375148 5.067124,4.5649449 5.057824,5.0820663 5.08524,5.635894 5.054314,6.1313848 4.9879104,6.4141049 4.5056329,6.2809045 4.1861402,6.3104802 3.0016691,6.3103517 1.8171981,6.3102233 0.63272705,6.3100948 Z m 5.21943825,0 C 5.5745666,6.2933221 5.5951824,5.9783348 5.6082393,5.6709065 5.620581,5.0684284 5.5841595,4.417187 5.6253193,3.843527 5.669253,3.5427134 6.1563921,3.6851052 6.4692061,3.653172 c 1.2068041,0.00934 2.4508718,-0.018579 3.6346699,0.01377 0.300388,0.060061 0.145261,0.5756367 0.18342,0.8979268 -0.0094,0.5170877 0.01824,1.0711381 -0.0129,1.5664433 C 10.207576,6.4138833 9.7252701,6.2809274 9.4054352,6.3104347 8.2210119,6.3103214 7.0365886,6.3102081 5.8521653,6.3100948 Z m 5.2673277,0 c -0.277654,-0.016969 -0.258349,-0.3308982 -0.24466,-0.6392103 0.0089,-0.6044881 -0.01763,-1.2444256 0.0129,-1.8272965 0.03836,-0.2200081 0.313209,-0.2035196 0.584739,-0.190354 1.296477,0.00619 2.617658,-0.01233 3.898812,0.00918 0.293648,0.067592 0.146137,0.576342 0.1812,0.9025188 -0.01244,0.5204606 0.02411,1.0899137 -0.0168,1.5819005 -0.07836,0.2637985 -0.550943,0.1333264 -0.862761,0.1636168 -1.184477,-1.184e-4 -2.368953,-2.369e-4 -3.55343,-3.553e-4 z M 0.63272705,3.1241466 C 0.39551002,3.105506 0.36638838,2.8787701 0.39291575,2.5963851 0.40190375,1.9480121 0.37521215,1.2639586 0.40575575,0.63714069 0.45597865,0.43741244 0.72449408,0.45597681 0.98569407,0.46722569 2.2821704,0.47341569 3.6033614,0.45489039 4.884508,0.47640969 5.1788962,0.54375399 5.0328573,1.0515255 5.067124,1.3789913 5.057834,1.8961216 5.08524,2.4499573 5.054314,2.9454571 4.9886272,3.2289179 4.5052086,3.0945965 4.1860882,3.1245638 3.0016345,3.1244247 1.8171808,3.1242857 0.63272705,3.1241466 Z m 5.21943825,0 C 5.5745228,3.1073633 5.5949404,2.79252 5.608182,2.4848527 5.6205254,1.8824112 5.5840999,1.2312008 5.625262,0.65757804 5.668819,0.35636344 6.1565409,0.49931376 6.4691488,0.46715014 c 1.2068022,0.009347 2.4508841,-0.0185866 3.6346702,0.013776 0.301266,0.0593105 0.145203,0.57594996 0.18374,0.89798956 -0.0094,0.5170959 0.01824,1.0711535 -0.0129,1.566467 C 10.208245,3.2283295 9.7254617,3.0948644 9.4057882,3.1245008 8.2212472,3.1243827 7.0367063,3.1242647 5.8521653,3.1241466 Z m 5.2625487,0 C 10.842229,3.103545 10.860992,2.791695 10.874664,2.4849363 c 0.0089,-0.6044883 -0.01763,-1.244426 0.0129,-1.82729715 0.03834,-0.22003615 0.31314,-0.20361928 0.584719,-0.1904196 1.296479,0.00619 2.617672,-0.0123353 3.898821,0.009184 0.293622,0.0676385 0.146152,0.57636915 0.1812,0.90258155 -0.01244,0.5204673 0.02411,1.089926 -0.0168,1.5819197 -0.07755,0.2646193 -0.551381,0.1329118 -0.862761,0.1636478 -1.18601,-1.353e-4 -2.372019,-2.707e-4 -3.558029,-4.06e-4 z" /><path
     id="path432"
     style="fill:url(#linearGradient430);fill-opacity:1;fill-rule:nonzero;stroke:none;stroke-width:0.00496048"
     d="M 0.89130731,2.8312414 C 0.62879795,2.8071641 0.64766589,2.5017095 0.66105411,2.2017347 0.67671593,1.7844583 0.63056128,1.3053655 0.68245411,0.9243202 0.75684924,0.64095167 1.2662096,0.79254837 1.5858202,0.7543953 2.5868141,0.7638013 3.6252885,0.7357273 4.6032447,0.7681713 4.9215773,0.8242849 4.7592625,1.3610458 4.7991887,1.6955658 4.7755842,2.017238 4.846195,2.4331256 4.7650287,2.697236 4.728407,2.770686 4.6615003,2.8128768 4.569112,2.830353" /><path
     id="path454"
     style="fill:url(#linearGradient452);fill-opacity:1;fill-rule:nonzero;stroke:none;stroke-width:0.00496048"
     d="M 0.89610059,6.0171898 C 0.62850781,5.9965487 0.64736614,5.6894564 0.660993,5.3875957 0.6766574,4.9703523 0.6304966,4.4912837 0.682393,4.1102723 0.7568265,3.8269753 1.2662223,3.9786407 1.5857594,3.9404473 c 1.0009973,0.0094 2.0394589,-0.01866 3.0174286,0.01377 0.3184366,0.055966 0.155873,0.5929315 0.195883,0.9273238 -0.023554,0.3216828 0.046897,0.7373703 -0.03407,1.0016395 -0.037027,0.074485 -0.105647,0.1167749 -0.200606,0.133117" /><path
     id="path476"
     style="fill:url(#linearGradient474);fill-opacity:1;fill-rule:nonzero;stroke:none;stroke-width:0.00496048"
     d="M 0.86736945,9.2339859 C 0.64245139,9.194537 0.6448161,8.9278054 0.661364,8.6468906 0.67668595,8.2131013 0.63133349,7.7186376 0.682764,7.3209568 0.7663185,7.053854 1.261007,7.1978852 1.5755738,7.1617948 c 1.0057742,0.00942 2.0490666,-0.018681 3.0318079,0.01377 0.3127769,0.060298 0.1514813,0.5946685 0.191593,0.9276318 -0.024082,0.3179813 0.047523,0.7316504 -0.03399,0.9922014 -0.026185,0.076963 -0.093882,0.1121388 -0.1715087,0.137709" /><path
     id="path520"
     style="fill:url(#linearGradient518);fill-opacity:1;fill-rule:nonzero;stroke:none;stroke-width:0.00496048"
     d="M 6.1107454,2.8312414 C 5.8482505,2.807136 5.8672554,2.5015307 5.880579,2.2016068 5.8962093,1.7843582 5.8501504,1.3054204 5.901929,0.9243202 5.9761184,0.64081666 6.4856468,0.79265219 6.8050928,0.7544052 7.8061349,0.7638112 8.8446575,0.7357372 9.8226619,0.7681812 10.141403,0.8239163 9.9785288,1.3612673 10.018707,1.6955658 9.995067,2.017243 10.065807,2.4333036 9.984427,2.697236 9.948721,2.771035 9.8802993,2.8126629 9.7887991,2.830353" /><path
     id="path542"
     style="fill:url(#linearGradient540);fill-opacity:1;fill-rule:nonzero;stroke:none;stroke-width:0.00496048"
     d="M 6.1155388,6.0171898 C 5.8479472,5.9965636 5.8669708,5.6893224 5.88051,5.3875654 5.89614,4.9703133 5.8500817,4.4913729 5.90186,4.1102691 5.976138,3.8268565 6.4857199,3.9787478 6.8051238,3.9404611 c 1.0010443,0.0094 2.0395527,-0.01866 3.0175694,0.01377 0.3187648,0.055691 0.1558526,0.5930586 0.1960438,0.9273228 C 9.995095,5.203215 10.065847,5.6192678 9.984457,5.883183 9.9474349,5.9576429 9.8788096,5.9999489 9.783892,6.0163" /><path
     id="path564"
     style="fill:url(#linearGradient562);fill-opacity:1;fill-rule:nonzero;stroke:none;stroke-width:0.00496048"
     d="M 6.0868077,9.2339859 C 5.862637,9.1939025 5.8641732,8.9281122 5.881035,8.6469963 5.896323,8.2131899 5.851072,7.7188453 5.902385,7.3210636 5.986106,7.0541456 6.4802209,7.1976223 6.7949788,7.1617416 c 1.0057736,0.00942 2.0490655,-0.018681 3.0318062,0.01377 0.313201,0.059936 0.1514653,0.5948072 0.191773,0.9276358 -0.02421,0.3179369 0.04782,0.7321138 -0.03428,0.9921596 C 9.958177,9.172309 9.890465,9.2074907 9.81284,9.233016" /><path
     id="path608"
     style="fill:url(#linearGradient606);fill-opacity:1;fill-rule:nonzero;stroke:none;stroke-width:0.00496048"
     d="m 11.378074,2.8312414 c -0.388077,-0.1055337 -0.180436,-0.6141894 -0.2308,-0.9127135 0.0284,-0.3533809 -0.06226,-0.7296473 0.0559,-1.0660891 0.288141,-0.18675854 0.670052,-0.0613762 1.001134,-0.0979694 0.944355,0 1.88871,0 2.833065,0 0.380302,0.0724879 0.208101,0.5422974 0.24709,0.8172897 -0.01502,0.3657105 0.0312,0.7388014 -0.0252,1.0995237 -0.03086,0.095878 -0.109345,0.1410637 -0.20327,0.159131" /><path
     id="path630"
     style="fill:url(#linearGradient628);fill-opacity:1;fill-rule:nonzero;stroke:none;stroke-width:0.00496048"
     d="m 11.382867,6.0171898 c -0.26581,-0.02086 -0.250496,-0.3228436 -0.23565,-0.6243593 0.01559,-0.4190754 -0.03043,-0.8997628 0.0215,-1.2824987 0.07484,-0.2830488 0.583937,-0.1318324 0.903807,-0.169847 1.001039,0.0094 2.039543,-0.01866 3.017555,0.01377 0.317503,0.056377 0.153425,0.5943366 0.19432,0.927322 -0.02328,0.3218029 0.04633,0.7365021 -0.0336,1.0016605 -0.03635,0.074863 -0.104919,0.1167975 -0.1996,0.133117" /><path
     id="path652"
     style="fill:url(#linearGradient650);fill-opacity:1;fill-rule:nonzero;stroke:none;stroke-width:0.00496048"
     d="m 11.354136,9.2339859 c -0.224997,-0.039519 -0.22362,-0.3054124 -0.20654,-0.5870093 0.01542,-0.4337465 -0.0302,-0.9285276 0.0215,-1.3259944 0.08395,-0.2668307 0.578453,-0.1231061 0.893257,-0.1590822 1.00577,0.00942 2.049058,-0.018681 3.031795,0.01377 0.311971,0.060618 0.149223,0.5959533 0.19013,0.9276348 -0.02384,0.3180679 0.04702,0.7308328 -0.0336,0.9921152 -0.02568,0.077226 -0.09281,0.1123309 -0.1704,0.137709" /><path
     id="path830"
     style="fill:#c39f77;fill-opacity:1;fill-rule:nonzero;stroke:none;stroke-width:0.00496048"
     d="M 0.65458212,2.4005105 C 0.62732437,1.8345953 0.63292107,1.2675828 0.65030052,0.70145347 1.6566304,0.65685824 2.6672485,0.65007105 3.6713499,0.73943342 2.6981674,0.86074352 1.7157233,0.8870655 0.73582402,0.88300122 0.93961338,0.80166364 0.68826408,1.7231226 0.70871912,1.9997394 c -0.015989,0.1337545 -0.0334196,0.2673523 -0.0539245,0.400496" /><path
     id="path832"
     style="fill:#c39f77;fill-opacity:1;fill-rule:nonzero;stroke:none;stroke-width:0.00496048"
     d="M 0.65458212,5.5864744 C 0.60269559,5.0217142 0.58307225,4.4544171 0.57583396,3.8874939 1.5835035,3.8431482 2.595433,3.8358336 3.6008634,3.9254454 2.6276748,4.0464518 1.6452747,4.0729923 0.66539456,4.0688643 c 0.20860433,-0.095433 -0.007351,0.8388229 0.0269631,1.1148937 -0.01,0.1342959 -0.0215568,0.2684915 -0.036235,0.4023635" /><path
     id="path834"
     style="fill:#c39f77;fill-opacity:1;fill-rule:nonzero;stroke:none;stroke-width:0.00496048"
     d="M 5.8740061,5.5066691 C 5.822131,4.9419239 5.8024865,4.3746428 5.795266,3.8077347 6.8029407,3.7633932 7.8148754,3.7560447 8.8203103,3.8456783 7.8471076,3.96673 6.8647122,3.9932663 5.8848267,3.9890444 c 0.208624,-0.095439 -0.00738,0.8388359 0.026951,1.1149 -0.00999,0.1342967 -0.021562,0.2684911 -0.036235,0.4023637" /><path
     id="path838"
     style="fill:#c39f77;fill-opacity:1;fill-rule:nonzero;stroke:none;stroke-width:0.00496048"
     d="m 11.141334,8.8066992 c -0.05189,-0.5647594 -0.07149,-1.1320567 -0.07876,-1.6989791 1.007662,-0.044346 2.019584,-0.051665 3.025007,0.037953 -0.973214,0.1208714 -1.955604,0.1474355 -2.935485,0.1431987 0.208586,-0.095427 -0.0073,0.8388968 0.02695,1.1149623 -0.01001,0.1342744 -0.02156,0.2684497 -0.03623,0.4023022" /><path
     id="path840"
     style="fill:#c39f77;fill-opacity:1;fill-rule:nonzero;stroke:none;stroke-width:0.00496048"
     d="M 0.65458212,8.8066992 C 0.60270179,8.241939 0.58307273,7.6746428 0.57583396,7.1077201 1.583503,7.0633543 2.5954218,7.0561405 3.6008639,7.1455216 2.6276637,7.2663111 1.6452595,7.2928912 0.66539456,7.2887207 c 0.20861725,-0.09542 -0.007364,0.8388846 0.0269631,1.1149614 -0.009999,0.134291 -0.0215618,0.2684809 -0.036235,0.4023483" /><path
     id="path850"
     style="fill:#a98662;fill-opacity:1;fill-rule:nonzero;stroke:none;stroke-width:0.00496048"
     d="m 7.3466554,7.7447064 c -0.446079,0.7418471 -0.4447703,-0.7258473 0,0 z" /><path
     id="path852"
     style="fill:#a98662;fill-opacity:1;fill-rule:nonzero;stroke:none;stroke-width:0.00496048"
     d="m 6.7947293,4.9698322 c -0.4461467,0.7418481 -0.4448184,-0.7258361 0,0 z" /><path
     id="path854"
     style="fill:#a98662;fill-opacity:1;fill-rule:nonzero;stroke:none;stroke-width:0.00496048"
     d="m 3.5999091,8.5669315 c -0.4367217,0.7261097 -0.4353174,-0.7106355 0,0 z" /><path
     id="path856"
     style="fill:#a98662;fill-opacity:1;fill-rule:nonzero;stroke:none;stroke-width:0.00496048"
     d="M 6.9260309,1.4070708 C 6.8049591,2.2450971 5.8148346,1.2169665 6.6147816,1.0730613 c 0.1758542,-0.00315 0.31616,0.1643827 0.3112493,0.3340095 z" /><path
     id="path860"
     style="fill:#a98662;fill-opacity:1;fill-rule:nonzero;stroke:none;stroke-width:0.00496048"
     d="m 12.149834,4.5313089 c -0.159297,0.6939843 -0.818113,-0.324191 -0.139722,-0.2262302 0.08652,0.038692 0.140966,0.1326673 0.139722,0.2262302 z" /><path
     id="path866"
     style="fill:#a98662;fill-opacity:1;fill-rule:nonzero;stroke:none;stroke-width:0.00496048"
     d="m 3.3399879,4.9698322 c -0.2255585,0.3536876 -0.2016142,-0.339879 0,0 z" /><path
     id="path870"
     style="fill:#a98662;fill-opacity:1;fill-rule:nonzero;stroke:none;stroke-width:0.00496048"
     d="m 12.096595,1.5954925 c -0.435602,0.7238277 -0.433909,-0.70847416 0,0 z" /></svg>
