<?xml version="1.0" encoding="UTF-8" standalone="no"?>
<!-- Created with Inkscape (http://www.inkscape.org/) -->

<svg
   xmlns:dc="http://purl.org/dc/elements/1.1/"
   xmlns:cc="http://creativecommons.org/ns#"
   xmlns:rdf="http://www.w3.org/1999/02/22-rdf-syntax-ns#"
   xmlns:svg="http://www.w3.org/2000/svg"
   xmlns="http://www.w3.org/2000/svg"
   xmlns:sodipodi="http://sodipodi.sourceforge.net/DTD/sodipodi-0.dtd"
   xmlns:inkscape="http://www.inkscape.org/namespaces/inkscape"
   width="266.52423"
   height="205.57681"
   id="svg2"
   version="1.1"
   inkscape:version="0.48.4 r9939"
   sodipodi:docname="coffee2.svg">
  <defs
     id="defs4" />
  <sodipodi:namedview
     id="base"
     pagecolor="#ffffff"
     bordercolor="#666666"
     borderopacity="1.0"
     inkscape:pageopacity="0.0"
     inkscape:pageshadow="2"
     inkscape:zoom="0.98994948"
     inkscape:cx="305.99405"
     inkscape:cy="-18.294276"
     inkscape:document-units="px"
     inkscape:current-layer="layer1"
     showgrid="false"
     inkscape:window-width="1680"
     inkscape:window-height="988"
     inkscape:window-x="-8"
     inkscape:window-y="-8"
     inkscape:window-maximized="1"
     fit-margin-top="0"
     fit-margin-left="0"
     fit-margin-right="0"
     fit-margin-bottom="0" />
  <metadata
     id="metadata7">
    <rdf:RDF>
      <cc:Work
         rdf:about="">
        <dc:format>image/svg+xml</dc:format>
        <dc:type
           rdf:resource="http://purl.org/dc/dcmitype/StillImage" />
        <dc:title></dc:title>
      </cc:Work>
    </rdf:RDF>
  </metadata>
  <g
     inkscape:label="Ebene 1"
     inkscape:groupmode="layer"
     id="layer1"
     transform="translate(-160.43655,-316.06227)">
    <path
       d="m 420.05104,354.5316 c 0.7668,1.88867 1.41254,3.81917 1.93829,5.82231 11.21672,42.73418 -37.88157,95.04943 -109.66306,116.83446 -69.96881,21.23479 -135.65534,5.62648 -149.31657,-34.7531 0.0102,0.89792 0.0204,1.77564 0.0631,2.67329 14.1037,52.83142 65.60441,87.41561 140.65699,73.40214 75.05191,-14.00912 118.60766,-61.92749 122.72028,-116.85622 1.32812,-17.74991 0.35555,-33.8411 -6.39736,-47.12163 z"
       style="color:#000000;fill:#330000"
       id="path20021"
       inkscape:connector-curvature="0"
       inkscape:export-xdpi="5.4028859"
       inkscape:export-ydpi="5.4028859" />
    <path
       d="m 423.70128,363.48491 c 11.29074,42.73349 -38.13076,95.03528 -110.38553,116.82024 -72.25477,21.78494 -139.98196,4.80294 -151.27252,-37.92986 -11.29074,-42.73349 38.13076,-95.03528 110.38553,-116.82023 72.25477,-21.78494 139.98196,-4.80294 151.27252,37.92985 z"
       style="color:#000000;fill:#5c2610"
       id="path20019"
       inkscape:connector-curvature="0"
       inkscape:export-xdpi="5.4028859"
       inkscape:export-ydpi="5.4028859" />
    <path
       d="m 377.63541,328.25908 c -7.44343,19.80662 -12.73283,35.52156 -30.16735,44.15221 -18.9608,9.38604 -40.077,11.70809 -60.57358,14.17658 -29.53757,3.55738 -61.1518,4.18621 -87.09795,21.09704 -16.44504,10.71781 -22.2285,39.50377 -18.14438,53.52666 2.91718,-10.28354 17.15559,-26.98878 28.60713,-34.94377 12.49463,-8.67994 27.98889,-10.45827 42.56289,-11.84728 30.89012,-2.94465 63.23797,-1.42666 92.0453,-15.74976 14.11932,-7.02035 25.41816,-17.94927 32.11847,-32.11787 5.06348,-10.70765 6.65186,-27.15264 0.65137,-38.29309 z"
       id="path20038"
       inkscape:connector-curvature="0"
       style="fill:#330000;fill-rule:evenodd"
       inkscape:export-xdpi="5.4028859"
       inkscape:export-ydpi="5.4028859" />
    <path
       d="m 377.63541,327.80961 c -7.44343,19.80661 -12.74437,35.52445 -30.17889,44.15437 -18.9608,9.38606 -40.07292,11.71317 -60.56951,14.18238 -29.53756,3.55738 -61.15315,4.18114 -87.09794,21.09199 -16.44505,10.71779 -22.21697,39.51028 -18.13285,53.5339 0.0143,-0.0507 0.0278,-0.10765 0.0421,-0.15854 -0.87363,-15.50037 5.48043,-38.14955 19.53222,-47.48486 26.21354,-17.41497 58.15013,-18.06309 87.99376,-21.72631 20.70629,-2.54221 42.02947,-4.92379 61.18437,-14.58981 16.9011,-8.52842 22.51489,-23.82651 29.58507,-43.06694 -0.5964,-2.08795 -1.35941,-4.08892 -2.3541,-5.93568 z"
       id="path20042"
       inkscape:connector-curvature="0"
       style="fill:#973f1a;fill-opacity:1;fill-rule:evenodd"
       inkscape:export-xdpi="5.4028859"
       inkscape:export-ydpi="5.4028859" />
    <path
       d="m 424.39439,366.40644 c -2.46363,40.83191 -50.80441,85.53797 -117.80685,105.54687 -49.12679,14.67317 -96.25971,12.49322 -126.69717,-2.89985 27.08357,22.06776 78.98808,27.66083 133.46331,11.23687 C 383.974,458.99827 432.76215,408.57299 424.3944,366.40644 z"
       style="color:#000000;fill:#973f1b;fill-opacity:1"
       id="path20047"
       inkscape:connector-curvature="0"
       inkscape:export-xdpi="5.4028859"
       inkscape:export-ydpi="5.4028859" />
    <path
       d="m 210.8911,467.46579 c -6.22525,-7.41561 -4.92421,-21.93582 1.8268,-29.0136 17.31914,-18.15806 49.9975,-5.41246 74.88902,-8.99456 19.50237,-2.80705 53.30185,-14.5311 58.30147,-9.78913 8.28971,7.86219 -30.16803,36.64887 -50.89332,46.86066 -11.42033,5.62719 -24.90849,6.19731 -37.61757,6.53151 -15.63203,0.41104 -36.56363,6.24727 -46.50382,-5.59415 z"
       id="path20052"
       inkscape:connector-curvature="0"
       style="fill:#773215;fill-opacity:1"
       inkscape:export-xdpi="5.4028859"
       inkscape:export-ydpi="5.4028859" />
    <path
       d="m 348.86065,333.45704 c 6.354,6.99434 5.30107,20.78241 -1.33076,27.54555 -17.01308,17.35046 -49.91946,5.48164 -74.7533,9.05331 -19.45961,2.79848 -53.06907,14.15772 -58.15081,9.6927 -8.42679,-7.40329 29.5491,-34.98654 50.10609,-44.82062 11.32735,-5.41886 24.81009,-6.05312 37.51713,-6.45801 15.62931,-0.49804 36.46726,-6.181 46.61308,4.98743 z"
       id="path20054"
       inkscape:connector-curvature="0"
       style="fill:#773215;fill-opacity:1"
       inkscape:export-xdpi="5.4028859"
       inkscape:export-ydpi="5.4028859" />
  </g>
</svg>
