<?xml version="1.0" encoding="UTF-8" standalone="no"?>
<svg
   xmlns:dc="http://purl.org/dc/elements/1.1/"
   xmlns:cc="http://creativecommons.org/ns#"
   xmlns:rdf="http://www.w3.org/1999/02/22-rdf-syntax-ns#"
   xmlns:svg="http://www.w3.org/2000/svg"
   xmlns="http://www.w3.org/2000/svg"
   xmlns:sodipodi="http://sodipodi.sourceforge.net/DTD/sodipodi-0.dtd"
   xmlns:inkscape="http://www.inkscape.org/namespaces/inkscape"
   sodipodi:docname="FrozenFood_symbol2.svg"
   inkscape:version="1.0 (4035a4fb49, 2020-05-01)"
   version="1.1"
   id="svg4823"
   viewBox="0 0 16 16"
   height="16"
   width="16">
  <defs
     id="defs4825" />
  <sodipodi:namedview
     inkscape:document-rotation="0"
     inkscape:window-maximized="1"
     inkscape:window-y="-8"
     inkscape:window-x="-8"
     inkscape:window-height="987"
     inkscape:window-width="1680"
     units="px"
     showgrid="true"
     inkscape:current-layer="layer1"
     inkscape:document-units="px"
     inkscape:cy="9.1152654"
     inkscape:cx="4.0900388"
     inkscape:zoom="34.169476"
     inkscape:pageshadow="2"
     inkscape:pageopacity="0.0"
     borderopacity="1.0"
     bordercolor="#666666"
     pagecolor="#ffffff"
     id="base">
    <inkscape:grid
       id="grid831"
       type="xygrid" />
  </sodipodi:namedview>
  <metadata
     id="metadata4828">
    <rdf:RDF>
      <cc:Work
         rdf:about="">
        <dc:format>image/svg+xml</dc:format>
        <dc:type
           rdf:resource="http://purl.org/dc/dcmitype/StillImage" />
        <dc:title></dc:title>
      </cc:Work>
    </rdf:RDF>
  </metadata>
  <g
     transform="translate(0,-1036.3622)"
     id="layer1"
     inkscape:groupmode="layer"
     inkscape:label="Ebene 1">
    <path
       sodipodi:nodetypes="ccccccsccccccccscccccccccccccccccscscccccccscsccccccscscccscccscsccccccscccccccccscccccccccscccccccccccsccccccscccccccsssss"
       id="path6621"
       d="m 8.0000169,1036.3624 c -0.5023539,0 -0.9097028,0.3582 -0.9097119,0.7999 v 1.2687 l -0.2665165,-0.2344 c -0.1654948,-0.1439 -0.3921168,-0.2343 -0.6431954,-0.2343 -0.2511861,10e-5 -0.4784412,0.09 -0.6431955,0.2343 -0.1660588,0.1456 -0.2665195,0.3447 -0.2665159,0.5656 1.8e-6,0.221 0.1019059,0.421 0.2665159,0.5656 l 1.5529074,1.3655 v 1.4094 c -0.3144165,0.098 -0.6058827,0.2446 -0.8599616,0.4343 l -1.3894425,-0.7031 -0.5685699,-1.8655 c -0.060478,-0.199 -0.2052729,-0.3738 -0.4228742,-0.4843 -0.2176012,-0.1104 -0.4646753,-0.1344 -0.6893906,-0.082 -0.2250718,0.053 -0.4288143,0.1806 -0.5543564,0.3718 -0.1256494,0.1914 -0.1490981,0.4115 -0.088839,0.6094 l 0.095946,0.3187 -1.2473004,-0.6343 c -0.43503156,-0.2208 -0.99247154,-0.088 -1.2437467,0.2937 -0.25118238,0.3827 -0.10109265,0.8727 0.33403475,1.0937 l 1.24730035,0.6344 -0.3624632,0.085 c -0.2250755,0.053 -0.42881568,0.1806 -0.55435592,0.3718 -0.12564941,0.1912 -0.14909814,0.4084 -0.0888388,0.6062 0.0604777,0.199 0.20527085,0.3769 0.42287392,0.4875 0.2176031,0.1104 0.4644192,0.1312 0.689391,0.078 l 2.1214775,-0.5 1.3858873,0.703 c -0.030803,0.1456 -0.046261,0.2928 -0.046195,0.4406 1.583e-4,0.1472 0.015629,0.2931 0.046195,0.4374 l -1.3858873,0.7032 -2.1214774,-0.5 c -0.2261689,-0.053 -0.4717915,-0.029 -0.6893909,0.082 -0.21759945,0.1104 -0.36267102,0.2867 -0.42287394,0.4843 -0.0590221,0.1981 -0.0331481,0.4182 0.0923922,0.6094 0.12554025,0.1912 0.32578474,0.3185 0.55080224,0.3718 l 0.3624656,0.085 -1.2473004,0.6344 c -0.43504279,0.2208 -0.58529754,0.711 -0.33403511,1.0937 0.25117145,0.3825 0.80870422,0.5146 1.24374671,0.2937 l 1.2473004,-0.6344 -0.095946,0.3187 c -0.059022,0.1983 -0.033148,0.4151 0.092392,0.6062 0.1255402,0.1912 0.325875,0.3221 0.5508012,0.3751 0.226169,0.053 0.471793,0.029 0.6893925,-0.082 0.2175994,-0.1104 0.3626057,-0.2866 0.4228741,-0.4843 l 0.5685699,-1.8655 1.3894425,-0.7032 c 0.2540789,0.1898 0.5455451,0.337 0.8599616,0.4344 v 1.4094 l -1.5529074,1.3655 c -0.1660588,0.1456 -0.2665177,0.3446 -0.2665159,0.5655 3.7e-6,0.221 0.101815,0.421 0.2665159,0.5656 0.1654948,0.144 0.392115,0.2344 0.6431955,0.2344 0.2511823,0 0.4783392,-0.09 0.6431954,-0.2344 l 0.2665165,-0.2344 v 1.2687 c -9.1e-6,0.4418 0.4072653,0.8 0.9097119,0.8 0.5024466,0 0.9096136,-0.3584 0.9097119,-0.8 v -1.2687 l 0.2665165,0.2344 c 0.1654948,0.144 0.3921149,0.2344 0.6431954,0.2344 0.2511848,0 0.4784418,-0.09 0.6431958,-0.2344 0.166059,-0.1456 0.266518,-0.3446 0.266516,-0.5656 -10e-7,-0.2209 -0.101906,-0.4207 -0.266516,-0.5655 l -1.5529077,-1.3655 v -1.4094 c 0.3156718,-0.098 0.6083716,-0.2443 0.8635149,-0.4344 l 1.3858898,0.7032 0.56857,1.8655 c 0.06048,0.1992 0.205273,0.3739 0.422874,0.4843 0.217602,0.1104 0.464588,0.1344 0.689391,0.082 0.224166,-0.054 0.428816,-0.1839 0.554356,-0.3751 0.12565,-0.1911 0.149011,-0.4083 0.08884,-0.6062 l -0.09594,-0.3187 1.247298,0.6344 c 0.435023,0.2208 0.992554,0.088 1.243737,-0.2937 0.251182,-0.3827 0.100996,-0.8729 -0.334036,-1.0937 l -1.247298,-0.6344 0.362462,-0.085 c 0.224164,-0.054 0.428816,-0.1806 0.554356,-0.3718 0.12565,-0.1914 0.149102,-0.4085 0.08884,-0.6062 -0.06048,-0.1992 -0.205273,-0.3769 -0.422874,-0.4875 -0.217602,-0.1104 -0.46451,-0.1344 -0.689391,-0.082 l -2.121477,0.5 -1.38589,-0.7032 c 0.03057,-0.144 0.04603,-0.2907 0.04619,-0.4374 -1.58e-4,-0.1472 -0.01565,-0.2931 -0.04619,-0.4374 l 1.38589,-0.7032 2.121477,0.5 c 0.226169,0.053 0.471791,0.029 0.689391,-0.082 0.217599,-0.1104 0.362762,-0.2865 0.422874,-0.4843 0.05902,-0.1981 0.0367,-0.4182 -0.08884,-0.6094 -0.125631,-0.1913 -0.329339,-0.3187 -0.554356,-0.3718 l -0.362459,-0.088 1.247299,-0.6344 c 0.435042,-0.2208 0.585207,-0.7079 0.334035,-1.0905 -0.251262,-0.3827 -0.808704,-0.5145 -1.243747,-0.2937 l -1.247299,0.6344 0.09594,-0.3187 c 0.05902,-0.1981 0.0367,-0.4151 -0.08884,-0.6062 -0.125631,-0.1914 -0.32943,-0.3219 -0.554356,-0.3751 -0.226171,-0.053 -0.471792,-0.029 -0.689391,0.082 -0.217599,0.1104 -0.362515,0.2867 -0.422874,0.4843 l -0.56857,1.8655 -1.3894434,0.7032 c -0.2540771,-0.1898 -0.5455379,-0.337 -0.8599507,-0.4344 v -1.4094 l 1.5529081,-1.3655 c 0.166058,-0.1456 0.26652,-0.3446 0.266516,-0.5655 -2e-6,-0.221 -0.101924,-0.421 -0.266516,-0.5656 -0.165495,-0.144 -0.392114,-0.2344 -0.6431962,-0.2344 -0.2511805,2e-4 -0.4783374,0.09 -0.6431954,0.2344 l -0.2665165,0.2344 v -1.2687 c 9.1e-6,-0.4418 -0.4072707,-0.7998 -0.9097119,-0.8 z m 0,6.7996 c 0.7536308,0 1.3645678,0.5372 1.3645678,1.1999 0,0.6627 -0.610937,1.1999 -1.3645678,1.1999 -0.7536309,0 -1.3645679,-0.5372 -1.3645679,-1.1999 0,-0.6627 0.610937,-1.1999 1.3645679,-1.1999 z"
       style="fill:#ac39ac;fill-opacity:1;fill-rule:nonzero;stroke:none;stroke-width:0.170614;stroke-linejoin:round;stroke-miterlimit:4;stroke-dasharray:none;stroke-opacity:1"
       inkscape:connector-curvature="0" />
  </g>
</svg>
