<?xml version="1.0" encoding="UTF-8" standalone="no"?>
<!-- Created with Inkscape (http://www.inkscape.org/) -->

<svg
   xmlns:dc="http://purl.org/dc/elements/1.1/"
   xmlns:cc="http://creativecommons.org/ns#"
   xmlns:rdf="http://www.w3.org/1999/02/22-rdf-syntax-ns#"
   xmlns:svg="http://www.w3.org/2000/svg"
   xmlns="http://www.w3.org/2000/svg"
   xmlns:xlink="http://www.w3.org/1999/xlink"
   xmlns:sodipodi="http://sodipodi.sourceforge.net/DTD/sodipodi-0.dtd"
   xmlns:inkscape="http://www.inkscape.org/namespaces/inkscape"
   height="86.519859"
   id="svg2"
   inkscape:export-filename="/home/nicu/Desktop/rpg_color.png"
   inkscape:export-xdpi="90.000000"
   inkscape:export-ydpi="90.000000"
   inkscape:version="0.91 r13725"
   sodipodi:docname="trees_broad_leaved.svg"
   sodipodi:version="0.32"
   width="65.564247"
   inkscape:output_extension="org.inkscape.output.svg.inkscape"
   version="1.0">
  <metadata
     id="metadata2239">
    <rdf:RDF>
      <cc:Work
         rdf:about="">
        <dc:title></dc:title>
        <dc:description />
        <dc:subject>
          <rdf:Bag>
            <rdf:li>mapsym</rdf:li>
          </rdf:Bag>
        </dc:subject>
        <dc:publisher>
          <cc:Agent
             rdf:about="http://www.openclipart.org/">
            <dc:title>Open Clip Art Library</dc:title>
          </cc:Agent>
        </dc:publisher>
        <dc:creator>
          <cc:Agent>
            <dc:title>Nicu Buculei</dc:title>
          </cc:Agent>
        </dc:creator>
        <dc:rights>
          <cc:Agent>
            <dc:title>Nicu Buculei</dc:title>
          </cc:Agent>
        </dc:rights>
        <dc:date />
        <dc:format>image/svg+xml</dc:format>
        <dc:type
           rdf:resource="http://purl.org/dc/dcmitype/StillImage" />
        <cc:license
           rdf:resource="http://web.resource.org/cc/PublicDomain" />
        <dc:language>en</dc:language>
      </cc:Work>
      <cc:License
         rdf:about="http://web.resource.org/cc/PublicDomain">
        <cc:permits
           rdf:resource="http://web.resource.org/cc/Reproduction" />
        <cc:permits
           rdf:resource="http://web.resource.org/cc/Distribution" />
        <cc:permits
           rdf:resource="http://web.resource.org/cc/DerivativeWorks" />
      </cc:License>
    </rdf:RDF>
  </metadata>
  <defs
     id="defs3">
    <linearGradient
       id="linearGradient2057"
       inkscape:collect="always">
      <stop
         id="stop2059"
         offset="0"
         style="stop-color:#000000;stop-opacity:1;" />
      <stop
         id="stop2061"
         offset="1"
         style="stop-color:#000000;stop-opacity:0;" />
    </linearGradient>
    <radialGradient
       cx="14.207293"
       cy="222.04396"
       fx="14.207293"
       fy="222.04396"
       gradientTransform="scale(1.39523,0.716728)"
       gradientUnits="userSpaceOnUse"
       id="radialGradient1535"
       inkscape:collect="always"
       r="8.2519293"
       xlink:href="#linearGradient2057" />
  </defs>
  <sodipodi:namedview
     bordercolor="#666666"
     borderopacity="1.0"
     id="base"
     inkscape:current-layer="layer1"
     inkscape:cx="-196.0621"
     inkscape:cy="-49.982635"
     inkscape:document-units="px"
     inkscape:pageopacity="0.0"
     inkscape:pageshadow="2"
     inkscape:window-height="791"
     inkscape:window-width="1151"
     inkscape:window-x="1"
     inkscape:window-y="24"
     inkscape:zoom="1"
     pagecolor="#ffffff"
     showgrid="false"
     fit-margin-top="0"
     fit-margin-left="0"
     fit-margin-right="0"
     fit-margin-bottom="0"
     inkscape:window-maximized="0" />
  <g
     id="layer1"
     inkscape:groupmode="layer"
     inkscape:label="Layer 1"
     transform="translate(-49.71036,-24.881498)">
    <g
       id="g1881"
       transform="matrix(2.469674,0,0,2.469674,-95.4758,-295.6608)">
      <path
         d="m 70.859749,130.14501 c -0.140926,0.0237 -1.135693,0.18947 -1.799913,0.18947 -0.727282,0 -1.430758,0.31032 -2.08411,0.47366 -0.533866,0.13346 -1.33487,0.95881 -1.610449,1.32625 -0.398716,0.53162 -0.842053,0.93679 -1.326252,1.42098 -0.445993,0.446 -0.982108,0.88738 -1.326252,1.23152 -0.28029,0.28029 -0.274404,1.19235 -0.378929,1.61045 -0.150408,0.60163 -0.74928,1.31768 -1.136788,1.70518 -0.616995,0.617 -0.922425,1.02718 -1.231519,1.79992 -0.273882,0.6847 -0.378929,1.20757 -0.378929,1.98938 0,0.73848 -0.03663,1.33258 0.09473,1.98937 0.149363,0.74682 0.262937,1.32949 0.757858,1.98938 0.397749,0.53033 1.03885,0.94412 1.515717,1.42099 0.414665,0.41466 0.83805,0.51375 1.326252,0.75785 0.526769,0.26339 0.603508,0.54389 0.85259,1.04206 0.28671,0.57342 0.270028,1.20318 0.568394,1.79991 0.24242,0.48484 0.947993,1.01854 1.420984,1.13679 0.61736,0.15434 1.224724,0.49565 1.894646,0.66313 0.950993,0.23774 2.135277,0.0947 3.126165,0.0947 1.293384,0 2.537359,-0.44488 3.789292,-0.75786 0.540104,-0.13503 0.981856,-0.44356 1.420984,-0.66313 0.590582,-0.29529 0.708554,-0.65925 0.947323,-1.13678 0.268596,-0.53719 0.313177,-0.71378 0.708565,-1.10917 0.429334,-0.42934 1.192526,-0.93834 1.849207,-1.06968 0.728522,-0.1457 0.836538,-0.57907 1.438807,-0.8802 0.663311,-0.33166 1.565744,-1.23111 2.161019,-1.67757 0.559847,-0.41988 0.828741,-1.11293 1.326252,-1.61045 0.496156,-0.49615 0.37893,-1.21066 0.37893,-1.89464 0,-0.59636 -0.663149,-1.25747 -0.807152,-1.83348 -0.139163,-0.55665 -0.07367,-1.10929 -0.424368,-1.57688 -0.52948,-0.70598 -1.185026,-1.27976 -1.799914,-1.89465 -0.598728,-0.59873 -1.345288,-0.68216 -1.989378,-1.32625 -0.562112,-0.56211 -0.926519,-1.30545 -1.515716,-1.89465 -1.156939,-1.15694 -2.495268,-1.73537 -3.889964,-2.60706 -0.597155,-0.37322 -1.476203,0.0661 -2.07817,-0.23491 -0.590359,-0.29518 -1.196068,-0.11135 -1.799914,-0.47366 z"
         id="path2825"
         sodipodi:nodetypes="cccccccccccccccccccccccccccccccccccc"
         style="fill:#00b300;fill-opacity:1;fill-rule:evenodd;stroke:none;stroke-width:1px;stroke-linecap:butt;stroke-linejoin:miter;stroke-opacity:1"
         inkscape:connector-curvature="0" />
      <ellipse
         id="path1317"
         style="fill:url(#radialGradient1535);fill-opacity:1;fill-rule:evenodd;stroke:none;stroke-width:2;stroke-miterlimit:4;stroke-opacity:1"
         transform="translate(50.02288,2.044779)"
         cx="20.457939"
         cy="158.69876"
         rx="7.9437737"
         ry="4.0807056" />
      <path
         d="m 70.871227,129.79134 c -1.32004,0 -5.6875,1.16013 -5.6875,1.90625 0,0.29418 -1.11894,1.42897 -2.28125,2.3125 -0.82994,0.63089 -1.0391,0.93724 -0.9375,1.46875 0.08804,0.46046 -0.07721,0.92412 -0.5625,1.46875 -1.03036,1.15643 -2.27259,3.46204 -2.53125,4.71875 -0.1959,0.95183 -0.09059,1.37977 0.78125,3.21875 0.95187,2.00773 1.06537,2.13406 2.34375,2.59375 1.398,0.50271 2.26758,1.39643 2,2.09375 -0.08671,0.22595 0.22394,0.94266 0.71875,1.59375 0.69615,0.91602 1.25379,1.282 2.53125,1.71875 1.5855,0.54207 1.60465,0.57914 1.5625,1.5 -0.11996,2.6201 -0.42867,3.54731 -1.5,4.5625 -1.06591,1.01005 -1.38576,1.96875 -0.65625,1.96875 0.21786,0 0.50486,-0.12471 0.625,-0.3125 0.12013,-0.18777 0.61923,-0.63641 1.09375,-0.96875 0.9224,-0.64608 1.29637,-0.50333 1.5,0.59375 0.05545,0.29872 0.31337,0.60225 0.59375,0.65625 0.42866,0.0825 0.47943,-0.0385 0.375,-0.75 -0.09646,-0.65725 -0.0098,-0.84376 0.34375,-0.84375 0.25031,0 0.59029,0.27449 0.75,0.625 0.23933,0.52526 0.49008,0.65588 1.46875,0.65625 0.65306,2.5e-4 1.54935,0.19866 2,0.4375 1.59894,0.8474 1.24126,-0.0509 -0.90625,-2.21875 -1.19723,-1.20855 -2.27068,-2.45257 -2.375,-2.78125 -0.10432,-0.32869 -0.09502,-1.1163 0,-1.75 0.15577,-1.03871 0.30749,-1.20156 1.46875,-1.78125 0.70847,-0.35366 1.5465,-0.629 1.875,-0.59375 0.66284,0.0712 1.71875,-0.83151 1.71875,-1.46875 0,-0.22533 0.13102,-0.40625 0.28125,-0.40625 0.15022,0 0.28125,-0.13103 0.28125,-0.28125 0,-0.5771 -0.83839,-0.23765 -1,0.40625 -0.15865,0.63212 -1.36457,1.21367 -2.5,1.21875 -0.18778,8.4e-4 -0.34375,0.1173 -0.34375,0.25 0,0.33678 -1.0365,0.57615 -1.21875,0.28125 -0.25969,-0.42018 0.95141,-1.75848 2.8125,-3.125 2.7656,-2.03063 3.49275,-2.97093 4.3125,-5.53125 0.5772,-1.80273 0.63881,-2.33839 0.375,-2.65625 -0.182,-0.2193 -0.43332,-0.32983 -0.5625,-0.25 -0.36355,0.22469 -0.99649,1.77463 -1.1875,2.90625 -0.10564,0.6258 -0.37677,1.16074 -0.71875,1.34375 -0.30685,0.16422 -0.51313,0.36186 -0.4375,0.4375 0.32169,0.32168 -3.573,4.1875 -4.21875,4.1875 -0.10071,0 -0.19755,-1.32832 -0.21875,-2.9375 -0.04151,-3.15134 -0.22672,-3.59721 -1.28125,-2.90625 -0.52665,0.34507 -0.59255,0.50386 -0.34375,0.96875 0.18661,0.34868 0.21438,1.13602 0.09375,2.09375 -0.10607,0.84223 -0.17343,2.17638 -0.15625,2.96875 0.02735,1.26154 -0.0508,1.4824 -0.59375,1.6875 -0.52586,0.19866 -0.67367,0.10059 -1.0625,-0.625 -0.48686,-0.9085 -1.73965,-2.04936 -3.125,-2.875 -0.69127,-0.41199 -1.88265,-2.22607 -1.8125,-2.75 0.0545,-0.40709 -0.60444,-1.17268 -1.21875,-1.40625 -0.96682,-0.36758 -1.0226,-0.20863 -0.34375,1 0.32227,0.57378 0.63489,1.28928 0.6875,1.5625 0.16616,0.86279 1.17891,2.05548 2.8125,3.3125 1.53772,1.18325 2.5,2.29755 2.5,2.90625 0,0.20103 -0.44163,0.24861 -1.3125,0.125 -1.01242,-0.1437 -1.46354,-0.39562 -2.15625,-1.15625 -0.48821,-0.5361 -0.90626,-1.18742 -0.90625,-1.4375 0,-0.90805 -0.85899,-2.19414 -1.59375,-2.375 -1.25002,-0.30768 -1.86271,-0.86911 -2.65625,-2.4375 -0.98961,-1.95595 -0.94868,-3.31134 0.1875,-5.53125 0.47212,-0.92243 0.96081,-1.65625 1.09375,-1.65625 0.13296,0 0.25001,-0.15154 0.25,-0.3125 1e-5,-0.16095 0.18092,-0.46216 0.40625,-0.6875 0.22535,-0.22533 0.40617,-0.67274 0.40625,-1 9e-5,-0.37662 0.52433,-1.053 1.40625,-1.8125 0.76635,-0.65996 1.48381,-1.5325 1.625,-1.9375 0.31539,-0.90473 3.46762,-1.43239 4.75,-1.46875 1.00777,-0.0286 1.36829,-0.71875 0.375,-0.71875 z m 1.9375,0.40625 c -2.11232,-0.19241 -1.77761,0.26534 0.40625,0.5625 0.75828,0.10319 1.729,0.4474 2.15625,0.75 0.42727,0.3026 1.41299,0.8572 2.1875,1.25 1.12953,0.57286 1.40625,0.85854 1.40625,1.40625 0,0.88661 0.47082,1.35155 1.6875,1.6875 1.18379,0.32686 2.10735,1.2809 2.8125,2.875 0.28688,0.64854 0.65384,1.15625 0.8125,1.15625 0.35536,0 0.37507,-0.44376 0.03125,-0.65625 -0.13867,-0.0857 -0.31359,-0.51556 -0.40625,-0.9375 -0.09268,-0.42195 -0.61935,-1.19725 -1.15625,-1.75 -0.90278,-0.92946 -1.25108,-1.12378 -1.8125,-1.03125 -0.39597,0.0653 -1.22179,-0.91949 -1.40625,-1.6875 -0.10076,-0.41954 -0.36659,-0.84051 -0.625,-0.9375 -0.25841,-0.097 -1.35471,-0.72884 -2.40625,-1.375 -1.56477,-0.96155 -2.2345,-1.18015 -3.6875,-1.3125 z m 11.59375,10.0625 c -0.09498,0.095 -0.04259,0.55049 0.125,1.03125 0.16759,0.48075 0.31251,1.14965 0.3125,1.5 0,0.83441 -1.55334,2.90225 -2.59375,3.4375 -0.45066,0.23184 -0.85704,0.62228 -0.90625,0.875 -0.07226,0.37099 0.09613,0.32098 0.9375,-0.25 1.16705,-0.79197 1.62417,-1.24442 2.53125,-2.53125 0.52739,-0.74817 0.60236,-1.08133 0.46875,-2.28125 -0.15454,-1.38788 -0.52671,-2.12955 -0.875,-1.78125 z m -4.0625,7.125 c -0.35308,-0.0913 -0.77562,-0.10743 -1,0.0312 -0.24495,0.15139 -0.19434,0.28798 0.1875,0.4375 0.74698,0.29252 1.15438,0.27515 1.34375,-0.0312 0.10483,-0.16961 -0.17817,-0.34616 -0.53125,-0.4375 z m -1.15625,0.78125 c -0.61398,-0.12075 -1.57018,0.52358 -1.25,0.84375 0.249,0.24901 0.62499,0.2153 0.625,-0.0625 0,-0.1327 0.287,-0.32579 0.625,-0.4375 l 0.59375,-0.21875 -0.59375,-0.125 z"
         id="path1689"
         style="fill:#5c2700;fill-opacity:1"
         inkscape:connector-curvature="0" />
    </g>
  </g>
</svg>
