<?xml version="1.0" encoding="UTF-8" standalone="no"?>
<svg
   xmlns:dc="http://purl.org/dc/elements/1.1/"
   xmlns:cc="http://creativecommons.org/ns#"
   xmlns:rdf="http://www.w3.org/1999/02/22-rdf-syntax-ns#"
   xmlns:svg="http://www.w3.org/2000/svg"
   xmlns="http://www.w3.org/2000/svg"
   xmlns:sodipodi="http://sodipodi.sourceforge.net/DTD/sodipodi-0.dtd"
   xmlns:inkscape="http://www.inkscape.org/namespaces/inkscape"
   id="Layer_1"
   xml:space="preserve"
   enable-background="new 0 0 100 100"
   viewBox="0 0 100 100"
   height="100px"
   width="100px"
   y="0px"
   x="0px"
   version="1.1"
   inkscape:version="0.48.4 r9939"
   sodipodi:docname="shower12.svg"><metadata
     id="metadata49"><rdf:RDF><cc:Work
         rdf:about=""><dc:format>image/svg+xml</dc:format><dc:type
           rdf:resource="http://purl.org/dc/dcmitype/StillImage" /><dc:title></dc:title></cc:Work></rdf:RDF></metadata><defs
     id="defs47" /><sodipodi:namedview
     pagecolor="#ffffff"
     bordercolor="#666666"
     borderopacity="1"
     objecttolerance="10"
     gridtolerance="10"
     guidetolerance="10"
     inkscape:pageopacity="0"
     inkscape:pageshadow="2"
     inkscape:window-width="1680"
     inkscape:window-height="988"
     id="namedview45"
     showgrid="true"
     inkscape:zoom="4.72"
     inkscape:cx="21.580445"
     inkscape:cy="47.596424"
     inkscape:window-x="-8"
     inkscape:window-y="-8"
     inkscape:window-maximized="1"
     inkscape:current-layer="Layer_1"><inkscape:grid
       type="xygrid"
       id="grid3026" /></sodipodi:namedview><rect
     style="fill:#ffffff;fill-opacity:1;stroke:none"
     id="rect3028"
     width="100"
     height="100"
     x="0"
     y="0" /><path
     d="M83.397,45.72H16.614c0-11.309,9.167-20.469,20.469-20.469h5.729V-0.211H57.2v25.462h5.729  C74.231,25.251,83.397,34.412,83.397,45.72z"
     id="path3" /><path
     d="m 85.357,94.836 c 1.751,-0.696 2.598,-2.683 1.901,-4.427 l -0.026,-0.072 c -0.703,-1.751 -2.683,-2.591 -4.421,-1.861 -1.751,0.696 -2.584,2.715 -1.881,4.459 0.527,1.335 1.81,2.148 3.164,2.148 0.417,0 0.853,-0.078 1.263,-0.247 z"
     id="path15"
     inkscape:connector-curvature="0" /><path
     d="m 80.364,76.062 c 1.803,-0.54 2.825,-2.441 2.285,-4.245 l -0.02,-0.064 C 82.088,69.949 80.207,68.96 78.391,69.5 c -1.797,0.54 -2.819,2.468 -2.272,4.277 0.437,1.478 1.797,2.429 3.262,2.429 0.325,0 0.651,-0.046 0.983,-0.144 z"
     id="path17"
     inkscape:connector-curvature="0" /><path
     d="M75.943,57.081c1.751-0.697,2.598-2.683,1.901-4.428l-0.026-0.064c-0.696-1.745-2.676-2.585-4.421-1.869  c-1.751,0.703-2.584,2.721-1.881,4.466c0.533,1.328,1.81,2.142,3.164,2.142C75.097,57.328,75.533,57.25,75.943,57.081z"
     id="path19" /><path
     d="m 61.532,95.139816 c 1.875,-0.188 3.242,-1.861 3.053,-3.736 l -0.006,-0.065 c -0.183,-1.868 -1.85,-3.235 -3.725,-3.015 -1.881,0.183 -3.248,1.889 -3.053,3.764 0.176,1.758 1.66,3.072 3.385,3.072 0.112,0 0.235,-0.006 0.346,-0.02 z"
     id="path23"
     inkscape:connector-curvature="0" /><path
     d="m 59.755,76.812 c 1.849,-0.365 3.047,-2.162 2.676,-4.011 l -0.014,-0.065 c -0.364,-1.849 -2.168,-3.014 -4.004,-2.643 -1.849,0.364 -3.04,2.193 -2.669,4.043 0.325,1.627 1.745,2.74 3.333,2.74 0.229,0 0.456,-0.02 0.678,-0.064 z"
     id="path25"
     inkscape:connector-curvature="0" /><path
     d="m 57.646,57.263 c 1.855,-0.364 3.053,-2.161 2.682,-4.01 l -0.013,-0.065 c -0.371,-1.849 -2.2,-3.027 -4.004,-2.643 -1.855,0.364 -3.047,2.194 -2.669,4.042 0.325,1.621 1.744,2.741 3.333,2.741 0.227,0 0.456,-0.019 0.671,-0.065 z"
     id="path27"
     inkscape:connector-curvature="0" /><path
     d="m 19.082,92.935 0.026,-0.064 c 0.703,-1.745 -0.156,-3.698 -1.908,-4.395 -1.731,-0.703 -3.743,0.176 -4.446,1.934 -0.697,1.744 0.149,3.73 1.901,4.427 0.41,0.169 0.846,0.247 1.263,0.247 1.353,-0.001 2.636,-0.814 3.164,-2.149 z"
     id="path31"
     inkscape:connector-curvature="0" /><path
     d="m 23.893,73.777 0.02,-0.071 C 24.46,71.902 23.418,70.04 21.621,69.5 c -1.836,-0.573 -3.724,0.508 -4.258,2.317 -0.541,1.804 0.481,3.705 2.285,4.245 0.332,0.098 0.657,0.144 0.983,0.144 1.465,0 2.826,-0.951 3.262,-2.429 z"
     id="path33"
     inkscape:connector-curvature="0" /><path
     d="M28.496,55.187l0.026-0.065c0.703-1.751-0.156-3.698-1.908-4.401c-1.719-0.703-3.743,0.182-4.446,1.933  c-0.697,1.745,0.149,3.73,1.901,4.428c0.41,0.169,0.846,0.247,1.263,0.247C26.686,57.328,27.961,56.515,28.496,55.187z"
     id="path35" /><path
     d="m 42.21,92.086816 0.006,-0.065 c 0.195,-1.875 -1.178,-3.516 -3.06,-3.698 -1.868,-0.221 -3.542,1.211 -3.73,3.08 -0.188,1.875 1.179,3.548 3.054,3.736 0.11,0.014 0.234,0.02 0.345,0.02 1.725,0 3.21,-1.315 3.385,-3.073 z"
     id="path39"
     inkscape:connector-curvature="0" /><path
     d="m 44.268,74.136 0.013,-0.065 c 0.371,-1.849 -0.833,-3.613 -2.683,-3.978 -1.81,-0.404 -3.646,0.859 -4.017,2.708 -0.371,1.849 0.827,3.646 2.676,4.011 0.221,0.045 0.449,0.064 0.677,0.064 1.589,0 3.008,-1.113 3.334,-2.74 z"
     id="path41"
     inkscape:connector-curvature="0" /><path
     d="m 46.371,54.587 0.02,-0.071 c 0.371,-1.843 -0.833,-3.607 -2.689,-3.971 -1.816,-0.384 -3.646,0.866 -4.017,2.708 -0.371,1.849 0.827,3.646 2.683,4.01 0.215,0.046 0.442,0.065 0.67,0.065 1.587,0 3.007,-1.12 3.333,-2.741 z"
     id="path43"
     inkscape:connector-curvature="0" /></svg>