<?xml version="1.0" encoding="UTF-8" standalone="no"?>
<!-- Created with Inkscape (http://www.inkscape.org/) -->

<svg
   xmlns:dc="http://purl.org/dc/elements/1.1/"
   xmlns:cc="http://creativecommons.org/ns#"
   xmlns:rdf="http://www.w3.org/1999/02/22-rdf-syntax-ns#"
   xmlns:svg="http://www.w3.org/2000/svg"
   xmlns="http://www.w3.org/2000/svg"
   xmlns:xlink="http://www.w3.org/1999/xlink"
   xmlns:sodipodi="http://sodipodi.sourceforge.net/DTD/sodipodi-0.dtd"
   xmlns:inkscape="http://www.inkscape.org/namespaces/inkscape"
   width="41.000004"
   height="33.499992"
   id="svg2"
   sodipodi:version="0.32"
   inkscape:version="0.47 r22583"
   version="1.0"
   sodipodi:docname="window-new.svg"
   inkscape:export-filename="C:\Users\karl\Desktop\test.png"
   inkscape:export-xdpi="90"
   inkscape:export-ydpi="90"
   inkscape:output_extension="org.inkscape.output.svg.inkscape">
  <sodipodi:namedview
     inkscape:window-height="663"
     inkscape:window-width="840"
     inkscape:pageshadow="2"
     inkscape:pageopacity="0.0"
     guidetolerance="10.0"
     gridtolerance="10.0"
     objecttolerance="10.0"
     borderopacity="1.0"
     bordercolor="#666666"
     pagecolor="#ffffff"
     id="base"
     showgrid="false"
     inkscape:showpageshadow="false"
     showborder="false"
     inkscape:zoom="2.8284271"
     inkscape:cx="46.851197"
     inkscape:cy="3.7258463"
     inkscape:window-x="493"
     inkscape:window-y="135"
     inkscape:current-layer="layer1"
     inkscape:window-maximized="0">
    <inkscape:grid
       id="GridFromPre046Settings"
       type="xygrid"
       originx="0px"
       originy="0px"
       spacingx="0.5px"
       spacingy="0.5px"
       color="#0000ff"
       empcolor="#0000ff"
       opacity="0.2"
       empopacity="0.4"
       empspacing="2"
       visible="true"
       enabled="true"
       snapvisiblegridlinesonly="true" />
  </sodipodi:namedview>
  <defs
     id="defs4">
    <inkscape:perspective
       sodipodi:type="inkscape:persp3d"
       inkscape:vp_x="0 : 24 : 1"
       inkscape:vp_y="0 : 1000 : 0"
       inkscape:vp_z="48 : 24 : 1"
       inkscape:persp3d-origin="24 : 16 : 1"
       id="perspective2912" />
    <linearGradient
       id="linearGradient3690">
      <stop
         style="stop-color:white;stop-opacity:1;"
         offset="0"
         id="stop3692" />
      <stop
         style="stop-color:white;stop-opacity:0.46875"
         offset="1"
         id="stop3694" />
    </linearGradient>
    <linearGradient
       id="linearGradient3674">
      <stop
         style="stop-color:#3465a4;stop-opacity:1"
         offset="0"
         id="stop3676" />
      <stop
         style="stop-color:#729fcf;stop-opacity:1;"
         offset="1"
         id="stop3678" />
    </linearGradient>
    <linearGradient
       id="linearGradient2781">
      <stop
         style="stop-color:#d3d7cf;stop-opacity:1"
         offset="0"
         id="stop2783" />
      <stop
         style="stop-color:#eeeeec;stop-opacity:1"
         offset="1"
         id="stop2785" />
    </linearGradient>
    <linearGradient
       inkscape:collect="always"
       xlink:href="#linearGradient2781"
       id="linearGradient2787"
       x1="24.925514"
       y1="40.000107"
       x2="24.925514"
       y2="19.53867"
       gradientUnits="userSpaceOnUse"
       gradientTransform="translate(71.417785,2.1213203)" />
    <linearGradient
       inkscape:collect="always"
       xlink:href="#linearGradient3674"
       id="linearGradient3680"
       x1="23.069359"
       y1="6.7993021"
       x2="23.069359"
       y2="12.403291"
       gradientUnits="userSpaceOnUse"
       gradientTransform="translate(71.417785,2.1213203)" />
    <linearGradient
       inkscape:collect="always"
       xlink:href="#linearGradient3690"
       id="linearGradient3696"
       x1="9.5"
       y1="16.26436"
       x2="9.5"
       y2="13.408723"
       gradientUnits="userSpaceOnUse"
       gradientTransform="translate(71.417785,2.1213203)" />
    <linearGradient
       id="linearGradient5048">
      <stop
         id="stop5050"
         offset="0"
         style="stop-color:black;stop-opacity:0;" />
      <stop
         style="stop-color:black;stop-opacity:1;"
         offset="0.5"
         id="stop5056" />
      <stop
         id="stop5052"
         offset="1"
         style="stop-color:black;stop-opacity:0;" />
    </linearGradient>
    <linearGradient
       id="linearGradient5060"
       inkscape:collect="always">
      <stop
         id="stop5062"
         offset="0"
         style="stop-color:black;stop-opacity:1;" />
      <stop
         id="stop5064"
         offset="1"
         style="stop-color:black;stop-opacity:0;" />
    </linearGradient>
    <linearGradient
       inkscape:collect="always"
       xlink:href="#linearGradient5048"
       id="linearGradient3843"
       gradientUnits="userSpaceOnUse"
       gradientTransform="matrix(2.774389,0,0,1.969706,-1892.179,-872.8854)"
       x1="302.85715"
       y1="366.64789"
       x2="302.85715"
       y2="609.50507" />
    <radialGradient
       inkscape:collect="always"
       xlink:href="#linearGradient5060"
       id="radialGradient3845"
       gradientUnits="userSpaceOnUse"
       gradientTransform="matrix(2.774389,0,0,1.969706,-1891.633,-872.8854)"
       cx="605.71429"
       cy="486.64789"
       fx="605.71429"
       fy="486.64789"
       r="117.14286" />
    <radialGradient
       inkscape:collect="always"
       xlink:href="#linearGradient5060"
       id="radialGradient3847"
       gradientUnits="userSpaceOnUse"
       gradientTransform="matrix(-2.774389,0,0,1.969706,112.7623,-872.8854)"
       cx="605.71429"
       cy="486.64789"
       fx="605.71429"
       fy="486.64789"
       r="117.14286" />
    <linearGradient
       id="linearGradient2378">
      <stop
         id="stop2380"
         offset="0"
         style="stop-color:#ffffff;stop-opacity:1;" />
      <stop
         style="stop-color:#fefede;stop-opacity:0.91836733;"
         offset="0.25"
         id="stop4146" />
      <stop
         style="stop-color:#f5f328;stop-opacity:1;"
         offset="0.5"
         id="stop2386" />
      <stop
         id="stop2382"
         offset="1"
         style="stop-color:#f5f32d;stop-opacity:0.12234043;" />
    </linearGradient>
    <radialGradient
       inkscape:collect="always"
       xlink:href="#linearGradient2378"
       id="radialGradient4835"
       gradientUnits="userSpaceOnUse"
       cx="38.658855"
       cy="9.3411446"
       fx="38.658855"
       fy="9.3411446"
       r="8.341651" />
    <inkscape:perspective
       id="perspective3046"
       inkscape:persp3d-origin="0.5 : 0.33333333 : 1"
       inkscape:vp_z="1 : 0.5 : 1"
       inkscape:vp_y="0 : 1000 : 0"
       inkscape:vp_x="0 : 0.5 : 1"
       sodipodi:type="inkscape:persp3d" />
  </defs>
  <sodipodi:namedview
     id="namedview2896"
     pagecolor="#ffffff"
     bordercolor="#666666"
     borderopacity="1.0"
     inkscape:pageopacity="0.0"
     inkscape:pageshadow="2"
     inkscape:zoom="1"
     inkscape:cx="10.097903"
     inkscape:cy="38.917761"
     inkscape:document-units="px"
     inkscape:current-layer="layer1"
     showgrid="false"
     inkscape:window-width="965"
     inkscape:window-height="763"
     inkscape:window-x="176"
     inkscape:window-y="103"
     fill="#729fcf"
     stroke="#3465a4"
     inkscape:showpageshadow="false"
     showguides="false"
     inkscape:guide-bbox="true"
     inkscape:grid-points="true"
     inkscape:grid-bbox="false"
     showborder="true">
    <sodipodi:guide
       orientation="vertical"
       position="24.041631"
       id="guide2191" />
    <sodipodi:guide
       orientation="horizontal"
       position="25.986174"
       id="guide2203" />
    <inkscape:grid
       id="GridFromPre046Settings"
       type="xygrid"
       originx="0px"
       originy="0px"
       spacingx="0.5px"
       spacingy="0.5px"
       color="#0000ff"
       empcolor="#0000ff"
       opacity="0.2"
       empopacity="0.4"
       empspacing="2" />
  </sodipodi:namedview>
  <metadata
     id="metadata7">
    <rdf:RDF>
      <cc:Work
         rdf:about="">
        <dc:format>image/svg+xml</dc:format>
        <dc:type
           rdf:resource="http://purl.org/dc/dcmitype/StillImage" />
        <dc:creator>
          <cc:Agent>
            <dc:title>Lapo Calamandrei</dc:title>
          </cc:Agent>
        </dc:creator>
        <dc:title></dc:title>
        <dc:subject>
          <rdf:Bag>
            <rdf:li>window</rdf:li>
            <rdf:li>create</rdf:li>
            <rdf:li>new</rdf:li>
          </rdf:Bag>
        </dc:subject>
        <cc:license
           rdf:resource="http://creativecommons.org/licenses/GPL/2.0/" />
      </cc:Work>
      <cc:License
         rdf:about="http://creativecommons.org/licenses/GPL/2.0/">
        <cc:permits
           rdf:resource="http://web.resource.org/cc/Reproduction" />
        <cc:permits
           rdf:resource="http://web.resource.org/cc/Distribution" />
        <cc:requires
           rdf:resource="http://web.resource.org/cc/Notice" />
        <cc:permits
           rdf:resource="http://web.resource.org/cc/DerivativeWorks" />
        <cc:requires
           rdf:resource="http://web.resource.org/cc/ShareAlike" />
        <cc:requires
           rdf:resource="http://web.resource.org/cc/SourceCode" />
      </cc:License>
    </rdf:RDF>
  </metadata>
  <g
     inkscape:label="Livello 1"
     inkscape:groupmode="layer"
     id="layer1"
     transform="translate(-75.917776,-10.121325)">
    <g
       style="opacity:0.58730164;display:inline"
       id="g5022"
       transform="matrix(0.02019273,0,0,0.01254292,114.37791,39.5115)">
      <rect
         y="-150.69685"
         x="-1559.2523"
         height="478.35718"
         width="1339.6335"
         id="rect4173"
         style="opacity:0.40206185;color:#000000;fill:url(#linearGradient3843);fill-opacity:1;fill-rule:nonzero;stroke:none;stroke-width:1;marker:none;visibility:visible;display:inline;overflow:visible" />
      <path
         sodipodi:nodetypes="cccc"
         id="path5058"
         d="m -219.61876,-150.68038 c 0,0 0,478.33079 0,478.33079 142.874166,0.90045 345.40022,-107.16966 345.40014,-239.196175 0,-132.026537 -159.436816,-239.134595 -345.40014,-239.134615 z"
         style="opacity:0.40206185;color:#000000;fill:url(#radialGradient3845);fill-opacity:1;fill-rule:nonzero;stroke:none;stroke-width:1;marker:none;visibility:visible;display:inline;overflow:visible" />
      <path
         style="opacity:0.40206185;color:#000000;fill:url(#radialGradient3847);fill-opacity:1;fill-rule:nonzero;stroke:none;stroke-width:1;marker:none;visibility:visible;display:inline;overflow:visible"
         d="m -1559.2523,-150.68038 c 0,0 0,478.33079 0,478.33079 -142.8742,0.90045 -345.4002,-107.16966 -345.4002,-239.196175 0,-132.026537 159.4368,-239.134595 345.4002,-239.134615 z"
         id="path5018"
         sodipodi:nodetypes="cccc" />
    </g>
    <rect
       style="fill:url(#linearGradient2787);fill-opacity:1;stroke:#888a85;stroke-width:1.00000024;stroke-miterlimit:4;stroke-opacity:1;stroke-dasharray:none"
       id="rect1887"
       width="33.000038"
       height="30.499985"
       x="79.917786"
       y="11.121321"
       rx="2"
       ry="2" />
    <path
       style="fill:url(#linearGradient3680);fill-opacity:1;stroke:#204a87;stroke-width:1.00000048;stroke-miterlimit:4;stroke-opacity:1"
       d="m 79.917784,16.151654 0,-3.530329 c 0,-1.108 0.892,-2 2,-2 l 28.999996,0 c 1.108,0 2,0.892 2,2 l 0,3.530329"
       id="rect2776"
       sodipodi:nodetypes="cccccc" />
    <rect
       style="opacity:0.8;fill:none;stroke:url(#linearGradient3696);stroke-width:1.00000083;stroke-miterlimit:4;stroke-opacity:1;stroke-dasharray:none"
       id="rect2779"
       width="31.000004"
       height="29.000008"
       x="80.917786"
       y="11.621328"
       rx="0.99539089"
       ry="0.99539089" />
    <path
       sodipodi:type="inkscape:offset"
       inkscape:radius="4.5834389"
       inkscape:original="M 547.25 494.90625 C 547.15581 494.91224 547.06196 494.92267 546.96875 494.9375 C 546.73282 494.97719 546.68628 494.99521 546.84375 494.96875 C 524.84282 498.66333 486.64226 504.70723 464.125 512.78125 C 463.15567 513.13537 462.43455 513.95957 462.21875 514.96875 C 462.15787 515.25343 462.16594 515.52974 462.1875 515.8125 C 462.05699 516.6851 462.30033 517.57519 462.90625 518.25 C 470.3466 526.58465 475.04831 536.96666 477.65625 546.5625 C 480.26419 556.15834 480.71815 565.04611 480 569.8125 C 479.30782 574.40653 476.22839 582.0513 474.59375 588.9375 C 473.77643 592.3806 473.25435 595.69511 473.90625 598.84375 C 474.55815 601.99239 477.07104 604.95638 480.71875 605.78125 C 480.7809 605.79364 480.84344 605.80407 480.90625 605.8125 C 502.83748 609.49724 508.3071 611.152 530.28125 619.03125 C 531.00412 619.2851 531.77801 619.24067 532.46875 618.9375 C 532.87181 618.81636 533.26667 618.66906 533.71875 618.53125 C 555.08828 610.94998 576.58139 605.04634 597.875 601.46875 C 597.95919 601.45151 598.0426 601.43065 598.125 601.40625 C 601.50992 600.51027 603.68441 597.45149 604.21875 594.40625 C 604.75309 591.36101 604.30268 588.11024 603.59375 584.6875 C 602.17588 577.84201 599.46382 570.20636 598.75 565.46875 C 598.03185 560.70236 598.51706 551.81459 601.125 542.21875 C 603.73294 532.62291 608.43467 522.24088 615.875 513.90625 C 616.46759 513.24343 616.73797 512.38142 616.625 511.53125 C 616.62371 511.52157 616.62638 511.50967 616.625 511.5 C 616.65564 511.14932 616.62753 510.78679 616.53125 510.4375 C 616.25916 509.45037 615.50959 508.67713 614.53125 508.375 C 592.67011 501.65325 570.38545 497.83074 547.875 494.9375 C 547.66833 494.90533 547.45885 494.89485 547.25 494.90625 z "
       style="fill:#000000;fill-opacity:1;stroke:none;display:inline"
       id="path2509-6"
       d="m 546.96875,490.34375 c -0.23806,0.0151 -0.48339,0.0251 -0.71875,0.0625 a 4.5838972,4.5838972 0 0 0 -0.0312,0 c -0.0317,0.005 -0.11088,0.0312 -0.125,0.0312 -0.0108,3e-5 -0.0855,0.0319 -0.0937,0.0312 -21.96366,3.68725 -60.08126,9.62515 -83.4375,18 -2.43418,0.88927 -4.2668,2.9793 -4.8125,5.53125 -0.10696,0.50016 -0.0565,0.7502 -0.0625,1.125 l -0.0312,0 c -0.0108,0.072 0.009,0.14644 0,0.21875 0.003,0.24894 -0.0434,0.65366 -0.0312,0.8125 l 0.0937,0 c -0.0183,1.83625 0.48802,3.71599 1.78125,5.15625 6.81992,7.63965 11.25702,17.37965 13.71875,26.4375 2.45539,9.03454 2.80069,17.72005 2.25,21.375 -0.5054,3.35438 -3.58641,11.3469 -5.34375,18.75 -0.86868,3.65948 -1.59862,7.65653 -0.71875,11.90625 1.01022,4.87929 4.80257,9.22277 10.3125,10.46875 a 4.5838972,4.5838972 0 0 0 0.0937,0.0312 c 0.11424,0.0228 0.22811,0.0137 0.34375,0.0312 l 0,0.0312 c 21.83291,3.66822 26.6239,5.1335 48.5625,13 a 4.5838972,4.5838972 0 0 0 0.0312,0 c 1.65543,0.58134 3.42716,0.45744 5,-0.0937 l 0.0312,0.0625 c 0.2487,-0.0747 0.34809,-0.12637 0.53125,-0.1875 0.25406,-0.0848 0.57988,-0.16689 0.75,-0.21875 a 4.5838972,4.5838972 0 0 0 0.1875,-0.0625 C 556.41348,615.33558 577.64691,609.52458 598.625,606 a 4.5838972,4.5838972 0 0 0 0.15625,-0.0312 c 0.17246,-0.0353 0.36217,-0.0779 0.53125,-0.125 0.0399,-0.0111 0.0853,-0.0195 0.125,-0.0312 l 0,-0.0312 c 5.32424,-1.47423 8.47849,-6.01878 9.28125,-10.59375 0.70608,-4.02399 0.12263,-7.82792 -0.625,-11.4375 -1.51601,-7.31931 -4.24541,-15.20497 -4.8125,-18.96875 -0.54777,-3.63558 -0.17657,-12.33151 2.28125,-21.375 2.46172,-9.05784 6.89885,-18.79788 13.71875,-26.4375 1.22901,-1.37466 1.77551,-3.20261 1.78125,-5.0625 l 0.125,0 c 0.0185,-0.21144 -0.0635,-0.44091 -0.0625,-0.65625 -0.009,-0.10683 0.0454,-0.20569 0.0312,-0.3125 0.17307,1.29873 0.1925,1.25512 0,-0.0937 l -0.0625,0 c -0.0259,-0.53834 -0.004,-1.07327 -0.15625,-1.625 -0.68218,-2.47491 -2.6082,-4.46081 -5.0625,-5.21875 -22.18929,-6.82265 -44.6866,-10.65484 -67.28125,-13.5625 -0.001,-1.8e-4 0.001,-0.0311 0,-0.0312 -0.0409,-0.006 -0.084,0.006 -0.125,0 -0.48237,-0.067 -0.98206,-0.0891 -1.46875,-0.0625 a 4.5838972,4.5838972 0 0 0 -0.0312,0 z"
       transform="matrix(0.13963204,0,0,0.14485797,21.467136,-51.818791)" />
    <path
       style="fill:#a55959;fill-opacity:1;stroke:none;display:inline"
       d="m 98.026529,19.723296 c -0.01339,8.98e-4 -0.02658,0.0023 -0.03974,0.0045 -0.03333,0.0057 -0.0399,0.0084 -0.01766,0.0045 -0.112424,0.01978 -0.212337,0.08519 -0.277139,0.181463 -0.06479,0.09626 -0.08903,0.215254 -0.0672,0.330065 0.572751,3.002591 -0.05961,5.920225 -0.22956,7.568828 -0.05202,0.504714 -0.211132,1.170913 -0.34874,1.851467 -0.137614,0.680554 -0.256535,1.37446 -0.189829,2.005378 0.01707,0.150173 0.10901,0.280471 0.242798,0.344039 l 0,0.05431 c 0.04678,-0.0016 0.10506,-0.0027 0.176587,-0.0091 l 0,-0.0045 c 0.01473,7.89e-4 0.02944,7.89e-4 0.04415,0 1.301291,-0.136798 2.537187,-1.03991 4.127604,-2.634602 1.5904,-1.594695 3.55297,-3.916502 6.27307,-7.039194 0.0968,-0.110192 0.13216,-0.263416 0.0937,-0.406404 -0.0384,-0.142994 -0.14533,-0.256014 -0.28354,-0.299776 -3.08823,-0.973699 -6.23628,-1.527421 -9.416233,-1.94653 -0.02919,-0.0047 -0.05879,-0.0063 -0.08829,-0.0045 z"
       id="path2444-0" />
    <path
       style="fill:#aa6262;fill-opacity:1;stroke:none;display:inline"
       d="m 97.991208,19.727823 c -0.0073,0.0013 -0.01473,0.0029 -0.02208,0.0045 -3.10797,0.535188 -8.504395,1.410698 -11.685307,2.580281 -0.136927,0.0513 -0.238548,0.171154 -0.269033,0.317346 -0.03048,0.146191 0.01439,0.29818 0.118934,0.402416 3.003285,3.000873 5.080773,5.28705 6.754258,6.817377 1.673486,1.53033 2.997193,2.355421 4.432207,2.204557 0.112641,-0.01143 0.216153,-0.06855 0.287472,-0.15869 0.07132,-0.09014 0.10449,-0.205776 0.09217,-0.321157 -0.04625,-0.43731 0.04358,-1.076037 0.176575,-1.733767 0.13301,-0.657722 0.299741,-1.333452 0.361998,-1.937471 0.156878,-1.521801 0.835634,-4.603317 0.220737,-7.826847 -0.04243,-0.224225 -0.246877,-0.376511 -0.467943,-0.348563 z"
       id="path2453-4" />
    <path
       style="fill:#c08a8a;fill-opacity:1;stroke:none;display:inline"
       d="m 86.403022,22.380531 c -0.162685,0.0095 -0.305672,0.113728 -0.36781,0.26819 -0.06213,0.154458 -0.03242,0.331779 0.07645,0.456099 1.051064,1.207342 1.71525,2.711257 2.083667,4.101294 0.368407,1.390035 0.432537,2.677499 0.331085,3.367949 -0.09778,0.665483 -0.532793,1.772885 -0.763716,2.770407 -0.115453,0.498759 -0.189216,0.978894 -0.09712,1.434998 0.09209,0.456107 0.447074,0.885466 0.962373,1.00495 0.0089,0.0018 0.01763,0.0032 0.02648,0.0045 3.098128,0.533765 3.870795,0.773468 6.974987,1.914844 0.123772,0.04457 0.26071,0.02785 0.37082,-0.04527 2.001213,-1.327277 3.332262,-2.117204 4.229132,-2.820204 0.89688,-0.702996 1.38648,-1.401254 1.48329,-2.340359 0.0603,-0.585229 -0.19908,-1.164596 -0.57389,-1.810723 -0.3748,-0.646048 -0.89483,-1.351857 -1.478869,-2.077725 -1.168089,-1.451735 -2.592236,-2.982106 -3.566954,-4.142032 -0.07065,-0.08446 -0.170179,-0.137942 -0.278116,-0.149388 -3.330277,-0.332489 -6.180991,-0.784057 -9.244061,-1.910315 -0.05356,-0.02057 -0.110632,-0.0298 -0.167758,-0.02716 z"
       id="path2442-9" />
    <path
       style="fill:#c08a8a;fill-opacity:1;stroke:none;display:inline"
       d="m 107.40302,21.751305 c -0.0577,2.29e-4 -0.11481,0.01268 -0.16775,0.03621 -2.89507,1.296301 -8.254691,2.326832 -11.499892,2.525957 -0.192857,0.01303 -0.352652,0.158333 -0.38848,0.353092 -0.617361,3.226356 0.05935,6.308671 0.216316,7.831385 0.09276,0.899851 0.354535,1.993169 0.516499,2.869997 0.108038,0.584944 0.332405,2.345342 -0.450286,2.335836 0.190435,0.05182 0.315298,-0.0192 0.485602,-0.07244 3.018779,-1.098208 6.055011,-1.953396 9.063061,-2.471641 0.0119,-0.0025 0.0237,-0.0056 0.0353,-0.0091 0.47817,-0.12978 0.78535,-0.572879 0.86084,-1.014007 0.0755,-0.441128 0.0119,-0.912027 -0.0883,-1.407838 -0.2003,-0.991625 -0.58342,-2.097707 -0.68426,-2.783989 -0.10144,-0.69045 -0.0329,-1.977915 0.33551,-3.367951 0.36841,-1.39003 1.03261,-2.89395 2.08367,-4.101288 0.11162,-0.128012 0.13935,-0.309663 0.0706,-0.466265 -0.0687,-0.156602 -0.22102,-0.258785 -0.38848,-0.258026 z"
       id="path2440-4"
       sodipodi:nodetypes="csccsscccsssssssc" />
    <path
       style="fill:#000000;fill-opacity:1;stroke:none;display:inline"
       d="m 95.117497,24.621989 c -0.1107,2.903045 0.152626,5.424114 0.207477,6.891913 0.04638,1.240501 0.25408,2.748729 0.37082,3.957492 0.05694,0.5896 0.141981,2.046731 -0.122181,2.782424 l 0.568048,-0.06242 c -0.170304,0.07203 -0.295167,0.168136 -0.485602,0.09801 0.782691,0.01286 0.558332,-2.369485 0.450286,-3.161088 -0.161965,-1.186602 -0.423738,-2.666196 -0.516499,-3.883964 -0.107921,-1.416728 -0.462523,-3.83295 -0.472356,-6.622362 z"
       id="path2495-6"
       sodipodi:nodetypes="csssccssc" />
    <path
       style="fill:none;stroke:#ffffff;stroke-width:0.49999997;stroke-linecap:round;stroke-linejoin:miter;stroke-miterlimit:4;stroke-opacity:1;stroke-dasharray:none"
       d="m 86.261461,22.742368 2.827123,0.725058 2.497751,0.52204 3.458425,0.464038 1.619419,-0.058 3.019262,-0.435035 4.144619,-0.957075 1.56453,-0.435033 1.01556,-0.290025 1.15281,-0.290021"
       id="path3664"
       sodipodi:nodetypes="cccccccccc" />
  </g>
</svg>
