<?xml version="1.0" encoding="UTF-8" standalone="no"?>
<!-- Created with Inkscape (http://www.inkscape.org/) -->

<svg
   xmlns:dc="http://purl.org/dc/elements/1.1/"
   xmlns:cc="http://creativecommons.org/ns#"
   xmlns:rdf="http://www.w3.org/1999/02/22-rdf-syntax-ns#"
   xmlns:svg="http://www.w3.org/2000/svg"
   xmlns="http://www.w3.org/2000/svg"
   xmlns:sodipodi="http://sodipodi.sourceforge.net/DTD/sodipodi-0.dtd"
   xmlns:inkscape="http://www.inkscape.org/namespaces/inkscape"
   width="16"
   height="16"
   viewBox="0 0 16 16"
   id="svg4264"
   version="1.1"
   inkscape:version="0.91 r13725"
   sodipodi:docname="foot_cycleway_combined.svg">
  <defs
     id="defs4266" />
  <sodipodi:namedview
     id="base"
     pagecolor="#ffffff"
     bordercolor="#666666"
     borderopacity="1.0"
     inkscape:pageopacity="0.0"
     inkscape:pageshadow="2"
     inkscape:zoom="32"
     inkscape:cx="8.2172205"
     inkscape:cy="7.1801297"
     inkscape:document-units="px"
     inkscape:current-layer="layer1"
     showgrid="true"
     units="px"
     inkscape:snap-bbox="true"
     inkscape:bbox-paths="true"
     inkscape:bbox-nodes="true"
     inkscape:snap-bbox-edge-midpoints="true"
     inkscape:snap-bbox-midpoints="true"
     inkscape:snap-nodes="true"
     inkscape:object-paths="true"
     inkscape:snap-intersection-paths="true"
     inkscape:object-nodes="false"
     inkscape:snap-smooth-nodes="true"
     inkscape:snap-midpoints="true"
     inkscape:snap-object-midpoints="true"
     inkscape:snap-others="true"
     inkscape:snap-global="false"
     inkscape:snap-center="true"
     inkscape:snap-grids="true"
     inkscape:snap-to-guides="true"
     inkscape:snap-page="true"
     showguides="true"
     inkscape:guide-bbox="true">
    <inkscape:grid
       type="xygrid"
       id="grid4137" />
  </sodipodi:namedview>
  <metadata
     id="metadata4269">
    <rdf:RDF>
      <cc:Work
         rdf:about="">
        <dc:format>image/svg+xml</dc:format>
        <dc:type
           rdf:resource="http://purl.org/dc/dcmitype/StillImage" />
        <dc:title />
        <cc:license
           rdf:resource="http://creativecommons.org/publicdomain/zero/1.0/" />
      </cc:Work>
      <cc:License
         rdf:about="http://creativecommons.org/publicdomain/zero/1.0/">
        <cc:permits
           rdf:resource="http://creativecommons.org/ns#Reproduction" />
        <cc:permits
           rdf:resource="http://creativecommons.org/ns#Distribution" />
        <cc:permits
           rdf:resource="http://creativecommons.org/ns#DerivativeWorks" />
      </cc:License>
    </rdf:RDF>
  </metadata>
  <g
     inkscape:label="Camada 1"
     inkscape:groupmode="layer"
     id="layer1"
     transform="translate(0,-1036.3621)">
    <circle
       style="color:#000000;clip-rule:nonzero;display:inline;overflow:visible;visibility:visible;opacity:1;isolation:auto;mix-blend-mode:normal;color-interpolation:sRGB;color-interpolation-filters:linearRGB;solid-color:#000000;solid-opacity:1;fill:#ffffff;fill-opacity:1;fill-rule:nonzero;stroke:none;stroke-width:1;stroke-linecap:butt;stroke-linejoin:miter;stroke-miterlimit:10.43299961;stroke-dasharray:none;stroke-dashoffset:0;stroke-opacity:1;color-rendering:auto;image-rendering:auto;shape-rendering:auto;text-rendering:auto;enable-background:accumulate"
       id="path4183"
       cx="7.9999995"
       cy="1044.3621"
       r="7.75" />
    <path
       inkscape:connector-curvature="0"
       d="m 16.000002,1044.3622 c 0,4.4183 -3.581722,8 -8.0000007,8 -4.4182788,0 -8.00000180882801,-3.5817 -8.00000180882801,-8 0,-4.4183 3.58172300882801,-8.0001 8.00000180882801,-8.0001 4.4182787,0 8.0000007,3.5818 8.0000007,8.0001 z"
       style="opacity:1;fill:#0000ff;fill-opacity:1;fill-rule:nonzero;stroke:none;stroke-width:2;stroke-linecap:round;stroke-linejoin:round;stroke-miterlimit:4;stroke-dasharray:none;stroke-dashoffset:0;stroke-opacity:1"
       id="path1883" />
    <g
       id="g4206"
       transform="matrix(1.1965954,0,0,1.1965954,-1.5540266,-206.53432)">
      <ellipse
         ry="1.4791328"
         rx="1.4791296"
         cx="5.3428707"
         cy="1049.2119"
         style="fill:none;stroke:#ffffff;stroke-width:0.50000012;stroke-miterlimit:4;stroke-dasharray:none"
         id="FrontWheel" />
      <ellipse
         ry="1.4791328"
         rx="1.4791296"
         cx="10.625476"
         cy="1049.1843"
         style="fill:none;stroke:#ffffff;stroke-width:0.50000012;stroke-miterlimit:4;stroke-dasharray:none"
         id="RearWheel" />
      <path
         sodipodi:nodetypes="ccc"
         inkscape:connector-curvature="0"
         id="path4174"
         d="m 10.640625,1049.1434 -1.2173079,-1.5887 -3.3920677,0"
         style="fill:none;fill-rule:evenodd;stroke:#ffffff;stroke-width:0.50000012;stroke-linecap:round;stroke-linejoin:round;stroke-miterlimit:4;stroke-dasharray:none;stroke-opacity:1" />
      <path
         sodipodi:nodetypes="cc"
         inkscape:connector-curvature="0"
         id="path4176"
         d="m 5.3437495,1049.1434 1.2343749,-3.0157 0.7500014,0"
         style="fill:none;fill-rule:evenodd;stroke:#ffffff;stroke-width:0.50000012;stroke-linecap:round;stroke-linejoin:round;stroke-miterlimit:4;stroke-dasharray:none;stroke-opacity:1" />
      <path
         inkscape:connector-curvature="0"
         id="path4178"
         d="m 6.8721935,1047.567 0.9305068,1.6117 2.8039017,0"
         style="fill:none;fill-rule:evenodd;stroke:#ffffff;stroke-width:0.50000012;stroke-linecap:round;stroke-linejoin:round;stroke-miterlimit:4;stroke-dasharray:none;stroke-opacity:1" />
      <path
         sodipodi:nodetypes="ccc"
         inkscape:connector-curvature="0"
         id="path4180"
         d="m 9.324589,1047.5652 0,-0.8906 0.671875,0"
         style="fill:none;fill-rule:evenodd;stroke:#ffffff;stroke-width:0.50000012;stroke-linecap:round;stroke-linejoin:round;stroke-miterlimit:4;stroke-dasharray:none;stroke-opacity:1" />
    </g>
    <g
       id="g4199"
       transform="matrix(1.1301004,0,0,1.1301004,-0.85300497,-135.47293)">
      <path
         style="fill:#ffffff;fill-opacity:1;fill-rule:evenodd;stroke:none;stroke-width:1px;stroke-linecap:butt;stroke-linejoin:miter;stroke-opacity:1"
         d="M 6.7578125 1.7851562 C 6.4310617 1.78267 5.8754088 1.9308083 5.8730469 3.1171875 C 5.8722798 3.5019866 5.9284594 3.8359523 6.1777344 4.1269531 C 6.2421651 4.0556438 6.373659 3.9174154 6.4414062 3.8496094 C 6.2079247 3.3768885 6.3356982 2.9943604 6.3730469 2.5585938 L 6.5195312 2.5976562 L 6.5195312 3.7753906 C 5.6938842 4.5534646 5.6083536 5.0746022 5.4863281 5.6640625 L 5.4863281 5.6679688 L 6.4277344 5.6738281 L 6.4414062 7.8710938 C 6.4414063 8.111014 6.8554688 8.1192638 6.8554688 7.8710938 L 6.8554688 5.6757812 L 7.046875 5.6757812 L 7.0605469 7.8710938 C 7.0605469 8.111014 7.4726562 8.1192638 7.4726562 7.8710938 L 7.4726562 5.6796875 L 8.4492188 5.6835938 C 8.3325851 5.0815894 8.301258 4.5503471 7.4160156 3.7851562 L 7.4121094 2.5625 L 7.4863281 2.5625 C 7.6957627 2.9986057 7.9602806 3.4078657 8.1152344 3.8710938 C 8.0806533 3.9819566 7.9568286 4.0898601 8.1152344 4.2773438 L 9.2167969 5.2929688 L 9.1015625 7.8242188 C 9.0662468 8.1109252 9.4353875 8.1334905 9.4707031 7.8496094 L 9.5332031 6.7070312 L 9.8007812 6.7070312 L 10.003906 7.8339844 C 10.048051 8.1205778 10.446059 8.0857481 10.388672 7.7773438 L 10.179688 6.59375 L 10.175781 5.3242188 L 10.835938 6.078125 C 11.023647 6.2878716 11.276062 6.0208585 11.089844 5.8105469 L 10.130859 4.7070312 L 9.2753906 4.71875 C 9.2753906 4.71875 8.8904963 4.4085195 8.5214844 4.0683594 C 8.7483493 3.9426922 8.4144167 3.379324 8.1210938 2.8242188 C 7.8782392 2.36472 7.7177453 1.7851562 7.0976562 1.7851562 L 6.7578125 1.7851562 z "
         transform="matrix(0.88487729,0,0,0.88487729,0.75480417,1036.93)"
         id="path1916" />
      <path
         inkscape:connector-curvature="0"
         d="m 7.4395552,1037.8394 c 1.087e-4,0.2804 -0.2271666,0.5078 -0.507558,0.5078 -0.2803918,0 -0.5076642,-0.2274 -0.5075584,-0.5078 -1.087e-4,-0.2804 0.2271666,-0.5078 0.5075584,-0.5078 0.2803914,0 0.5076638,0.2274 0.507558,0.5078 l 0,0 z"
         style="fill:#ffffff;fill-opacity:1;fill-rule:nonzero;stroke:none;stroke-width:5;stroke-linecap:round;stroke-linejoin:round;stroke-miterlimit:4;stroke-dasharray:none;stroke-dashoffset:0;stroke-opacity:1"
         id="path1922" />
      <path
         inkscape:connector-curvature="0"
         d="m 9.7691448,1040.4593 c 9.42e-5,0.2505 -0.2029354,0.4536 -0.4534184,0.4536 -0.2504832,0 -0.4535132,-0.2031 -0.4534187,-0.4536 -9.42e-5,-0.2504 0.2029355,-0.4535 0.4534187,-0.4535 0.250483,0 0.4535129,0.2031 0.4534184,0.4535 l 0,0 z"
         style="fill:#ffffff;fill-opacity:1;fill-rule:nonzero;stroke:none;stroke-width:5;stroke-linecap:round;stroke-linejoin:round;stroke-miterlimit:4;stroke-dasharray:none;stroke-dashoffset:0;stroke-opacity:1"
         id="path1924" />
    </g>
  </g>
</svg>
