<?xml version="1.0" encoding="UTF-8" standalone="no"?>
<!-- Created with Inkscape (http://www.inkscape.org/) -->

<svg
   xmlns:dc="http://purl.org/dc/elements/1.1/"
   xmlns:cc="http://creativecommons.org/ns#"
   xmlns:rdf="http://www.w3.org/1999/02/22-rdf-syntax-ns#"
   xmlns:svg="http://www.w3.org/2000/svg"
   xmlns="http://www.w3.org/2000/svg"
   xmlns:sodipodi="http://sodipodi.sourceforge.net/DTD/sodipodi-0.dtd"
   xmlns:inkscape="http://www.inkscape.org/namespaces/inkscape"
   width="16"
   height="16"
   viewBox="0 0 16 16"
   id="svg4264"
   version="1.1"
   inkscape:version="0.91 r13725"
   sodipodi:docname="way_steps.svg">
  <defs
     id="defs4266" />
  <sodipodi:namedview
     id="base"
     pagecolor="#ffffff"
     bordercolor="#666666"
     borderopacity="1.0"
     inkscape:pageopacity="0.0"
     inkscape:pageshadow="2"
     inkscape:zoom="32"
     inkscape:cx="-0.096159945"
     inkscape:cy="4.7918823"
     inkscape:document-units="px"
     inkscape:current-layer="layer1"
     showgrid="true"
     units="px"
     inkscape:snap-bbox="true"
     inkscape:bbox-paths="true"
     inkscape:bbox-nodes="true"
     inkscape:snap-bbox-edge-midpoints="true"
     inkscape:snap-bbox-midpoints="false"
     inkscape:snap-nodes="true"
     inkscape:object-paths="true"
     inkscape:snap-intersection-paths="true"
     inkscape:object-nodes="true"
     inkscape:snap-smooth-nodes="true"
     inkscape:snap-midpoints="true"
     inkscape:snap-object-midpoints="false"
     inkscape:snap-others="true"
     inkscape:snap-global="false"
     inkscape:snap-center="false"
     inkscape:snap-grids="true"
     inkscape:snap-to-guides="true"
     inkscape:snap-page="true"
     showguides="true"
     inkscape:guide-bbox="true"
     inkscape:snap-text-baseline="true">
    <inkscape:grid
       type="xygrid"
       id="grid4137" />
  </sodipodi:namedview>
  <metadata
     id="metadata4269">
    <rdf:RDF>
      <cc:Work
         rdf:about="">
        <dc:format>image/svg+xml</dc:format>
        <dc:type
           rdf:resource="http://purl.org/dc/dcmitype/StillImage" />
        <dc:title></dc:title>
        <cc:license
           rdf:resource="http://creativecommons.org/publicdomain/zero/1.0/" />
      </cc:Work>
      <cc:License
         rdf:about="http://creativecommons.org/publicdomain/zero/1.0/">
        <cc:permits
           rdf:resource="http://creativecommons.org/ns#Reproduction" />
        <cc:permits
           rdf:resource="http://creativecommons.org/ns#Distribution" />
        <cc:permits
           rdf:resource="http://creativecommons.org/ns#DerivativeWorks" />
      </cc:License>
    </rdf:RDF>
  </metadata>
  <g
     inkscape:label="Camada 1"
     inkscape:groupmode="layer"
     id="layer1"
     transform="translate(0,-1036.3621)">
    <path
       style="fill:none;fill-opacity:1;fill-rule:evenodd;stroke:#ffffff;stroke-width:1.50000024;stroke-miterlimit:4;stroke-dasharray:none"
       d="m 10.134575,1039.558 2.104004,2.0626 c 0.45853,0.4108 -0.149351,0.9707 -0.520359,0.5993 l -1.583645,-1.5852 c 0,0 -0.0048,4.9292 -0.0094,6.8612 -0.0014,0.5918 -0.8840495,0.631 -0.8840495,-0.019 0,-0.5897 0.00187,-3.9202 0.00187,-3.9202 l -0.3133288,1.3193 -1.0985332,1.0692 c -0.4826779,0.4809 -1.1167814,-0.1368 -0.5744453,-0.6295 l 0.9008346,-0.8906 0.2704369,-1.6971 -0.00746,-1.4734 -0.8057155,1.3436 c -0.3019068,0.504 -0.9434561,0.047 -0.6248024,-0.4678 l 1.6897644,-2.7324 c 0.1234001,-0.1934 0.1749921,-0.2151 0.6646964,-0.2219 0.4897044,-0.01 0.5142236,0.1051 0.7901324,0.3819 z"
       id="path4173"
       inkscape:connector-curvature="0"
       sodipodi:nodetypes="ccsccscccccccccccc" />
    <path
       style="fill:none;fill-rule:evenodd;stroke:#ffffff;stroke-width:1.00000024;stroke-linecap:butt;stroke-linejoin:miter;stroke-miterlimit:4;stroke-dasharray:none;stroke-opacity:1"
       d="m -4.7683724e-7,1044.8646 3.50088317683724,0 0,2 4,0 0,2 3.9999993,0 0,2 3.99912,0 0,1.4975"
       id="path4179"
       inkscape:connector-curvature="0"
       sodipodi:nodetypes="ccccccccc" />
    <ellipse
       style="opacity:1;fill:#0031ff;fill-opacity:1;stroke:#ffffff;stroke-width:0.75000012;stroke-linecap:round;stroke-linejoin:round;stroke-miterlimit:4;stroke-dasharray:none;stroke-opacity:0.98823529"
       id="path4137"
       cx="9.3905363"
       cy="1037.8567"
       rx="1.1111565"
       ry="1.1195636" />
    <path
       sodipodi:nodetypes="cccccscccccccccccc"
       inkscape:connector-curvature="0"
       id="path4140"
       d="m 10.134575,1039.558 2.104004,2.0626 c 0.45853,0.4108 -0.132466,0.953 -0.520359,0.5993 l -1.583645,-1.5852 c 0,0 -0.0048,4.9292 -0.0094,6.8612 -0.0014,0.5918 -0.8840495,0.631 -0.8840495,-0.019 0,-0.5897 0.00187,-3.9202 0.00187,-3.9202 l -0.3133288,1.3193 -1.0985332,1.0692 c -0.4826779,0.4809 -1.1167814,-0.1368 -0.5744453,-0.6295 l 0.9008346,-0.8906 0.2704369,-1.6971 -0.00746,-1.4734 -0.8057155,1.3436 c -0.3019068,0.504 -0.9434561,0.047 -0.6248024,-0.4678 l 1.6897644,-2.7324 c 0.1234001,-0.1934 0.1515267,-0.2152 0.6529638,-0.222 0.501437,-0.01 0.5259562,0.1052 0.801865,0.382 z"
       style="fill:#0031ff;fill-opacity:1;fill-rule:evenodd;stroke:none" />
    <path
       sodipodi:nodetypes="cccccccc"
       inkscape:connector-curvature="0"
       id="path4145"
       d="m -4.7683724e-7,1045.8621 2.50147647683724,0 0,2 4.0000001,0 0,2 4.0000009,0 0,2 4.498525,0"
       style="fill:none;fill-rule:evenodd;stroke:#333333;stroke-width:1.00000024;stroke-linecap:butt;stroke-linejoin:miter;stroke-miterlimit:4;stroke-dasharray:none;stroke-opacity:1" />
  </g>
</svg>
