<?xml version="1.0" encoding="UTF-8" standalone="no"?>
<!-- Created with Inkscape (http://www.inkscape.org/) -->

<svg
   xmlns:dc="http://purl.org/dc/elements/1.1/"
   xmlns:cc="http://creativecommons.org/ns#"
   xmlns:rdf="http://www.w3.org/1999/02/22-rdf-syntax-ns#"
   xmlns:svg="http://www.w3.org/2000/svg"
   xmlns="http://www.w3.org/2000/svg"
   xmlns:sodipodi="http://sodipodi.sourceforge.net/DTD/sodipodi-0.dtd"
   xmlns:inkscape="http://www.inkscape.org/namespaces/inkscape"
   width="16"
   height="16"
   viewBox="0 0 16 16"
   id="svg4264"
   version="1.1"
   inkscape:version="0.91 r13725"
   sodipodi:docname="way_bicycle_road.svg">
  <defs
     id="defs4266">
    <pattern
       y="0"
       x="0"
       height="6"
       width="6"
       patternUnits="userSpaceOnUse"
       id="EMFhbasepattern" />
  </defs>
  <sodipodi:namedview
     id="base"
     pagecolor="#ffffff"
     bordercolor="#666666"
     borderopacity="1.0"
     inkscape:pageopacity="0.0"
     inkscape:pageshadow="2"
     inkscape:zoom="64"
     inkscape:cx="10.606902"
     inkscape:cy="2.6828405"
     inkscape:document-units="px"
     inkscape:current-layer="layer1"
     showgrid="true"
     units="px"
     inkscape:snap-bbox="true"
     inkscape:bbox-paths="true"
     inkscape:bbox-nodes="true"
     inkscape:snap-bbox-edge-midpoints="false"
     inkscape:snap-bbox-midpoints="false"
     inkscape:snap-global="true">
    <inkscape:grid
       type="xygrid"
       id="grid4137" />
  </sodipodi:namedview>
  <metadata
     id="metadata4269">
    <rdf:RDF>
      <cc:Work
         rdf:about="">
        <dc:format>image/svg+xml</dc:format>
        <dc:type
           rdf:resource="http://purl.org/dc/dcmitype/StillImage" />
        <dc:title />
        <cc:license
           rdf:resource="http://creativecommons.org/publicdomain/zero/1.0/" />
      </cc:Work>
      <cc:License
         rdf:about="http://creativecommons.org/publicdomain/zero/1.0/">
        <cc:permits
           rdf:resource="http://creativecommons.org/ns#Reproduction" />
        <cc:permits
           rdf:resource="http://creativecommons.org/ns#Distribution" />
        <cc:permits
           rdf:resource="http://creativecommons.org/ns#DerivativeWorks" />
      </cc:License>
    </rdf:RDF>
  </metadata>
  <g
     inkscape:label="Camada 1"
     inkscape:groupmode="layer"
     id="layer1"
     transform="translate(0,-1036.3621)">
    <g
       id="g3382"
       transform="matrix(1.3846064,0,0,1.1346381,-204.78322,616.43253)"
       style="fill:#ffffff;fill-opacity:1">
      <rect
         id="XMLID_61_"
         x="147.89999"
         y="370.10001"
         class="st4"
         width="6.5"
         height="14.1"
         style="fill:#ffffff;fill-opacity:1" />
    </g>
    <path
       sodipodi:nodetypes="ccccc"
       style="fill:#808080;fill-opacity:1"
       inkscape:connector-curvature="0"
       id="path4150"
       d="m 9.0000011,1052.3621 -1.0000035,0 0,-16 1.0000035,0 z"
       class="st5" />
    <path
       sodipodi:nodetypes="ccccc"
       style="fill:#808080;fill-opacity:1"
       inkscape:connector-curvature="0"
       id="path3387-0"
       d="m 5.0000014,1039.3637 -1.0000035,0 0,-2 1.0000035,0 z"
       class="st5" />
    <path
       sodipodi:nodetypes="ccccc"
       style="fill:#808080;fill-opacity:1"
       inkscape:connector-curvature="0"
       id="path3387-0-9"
       d="m 5.0000044,1043.3637 -1.0000036,0 0,-2 1.0000036,0 z"
       class="st5" />
    <path
       class="st5"
       d="m 0.9999997,1052.3621 -1.0000034980233,0 0,-16 1.0000034980233,0 z"
       id="path4148"
       inkscape:connector-curvature="0"
       style="fill:#808080;fill-opacity:1"
       sodipodi:nodetypes="ccccc" />
    <circle
       style="opacity:1;fill:#ffffff;fill-opacity:1;stroke:none;stroke-width:1;stroke-linecap:round;stroke-linejoin:round;stroke-miterlimit:4;stroke-dasharray:none;stroke-opacity:1"
       id="path4144"
       cx="12.500001"
       cy="1048.8621"
       r="2.5000017" />
    <g
       id="g4216"
       transform="translate(-0.49999974,-0.49999774)">
      <path
         style="color:#000000;font-style:normal;font-variant:normal;font-weight:normal;font-stretch:normal;font-size:medium;line-height:normal;font-family:sans-serif;text-indent:0;text-align:start;text-decoration:none;text-decoration-line:none;text-decoration-style:solid;text-decoration-color:#000000;letter-spacing:normal;word-spacing:normal;text-transform:none;direction:ltr;block-progression:tb;writing-mode:lr-tb;baseline-shift:baseline;text-anchor:start;white-space:normal;clip-rule:nonzero;display:inline;overflow:visible;visibility:visible;opacity:1;isolation:auto;mix-blend-mode:normal;color-interpolation:sRGB;color-interpolation-filters:linearRGB;solid-color:#000000;solid-opacity:1;fill:#ffffff;fill-opacity:1;fill-rule:nonzero;stroke:#ffffff;stroke-width:1.00000024;stroke-linecap:round;stroke-linejoin:round;stroke-miterlimit:4;stroke-dasharray:none;stroke-dashoffset:0;stroke-opacity:1;color-rendering:auto;image-rendering:auto;shape-rendering:auto;text-rendering:auto;enable-background:accumulate"
         d="m 6.9355488,1043.6628 c -0.1797699,0 -0.2077347,0.1051 -0.28125,0.2325 l -1.4140625,2.7109 c -0.3603853,-0.1453 -0.7545796,-0.2266 -1.1699219,-0.2266 -1.6356291,0 -3.0703125,1.3415 -3.0703124,2.9903 -1e-7,1.7176 1.4480151,2.9922 3.0703124,2.9922 1.6922901,0 3.0722657,-1.2871 3.0722657,-2.9922 0,-1.0437 -0.5602465,-1.97 -1.40625,-2.5059 l 0.4121093,-0.789 2.3985754,3.4113 c 0.041154,0.058 0.1426096,0.159 0.2713465,0.159 l 1.1445309,0 c 0.1440218,1.5615 1.4483258,2.7129 3.0449218,2.7129 1.62233,0 2.992188,-1.2871 2.992188,-2.9922 0,-1.6356 -1.356525,-2.9902 -2.992188,-2.9902 -1.605647,0 -2.896292,1.2048 -3.0429688,2.7109 l -0.8144526,0 0.9570314,-3.2754 0.582031,0.01 c 0.519111,0 0.51987,-0.7168 0.0078,-0.7168 l -1.7675773,-0.016 c -0.4595687,0 -0.4826045,0.7141 0.029297,0.7168 l 0.5664055,0.01 -0.839843,2.875 -2.2480467,-3.166 0.6757927,-1.2951 1.0273438,0 c 0.3707027,0 0.3707027,-0.5569 0,-0.5585 z m -2.8652344,3.4336 c 0.2975593,0 0.5767812,0.058 0.8359376,0.1524 l -1.0820313,2.0723 c -0.2068299,0.3397 0.3337774,0.6218 0.4941406,0.2578 l 1.0878907,-2.084 c 0.6200081,0.4131 1.0175781,1.1055 1.0175781,1.875 0,1.3272 -1.0138888,2.2754 -2.3535157,2.2754 -1.2500412,0 -2.3535156,-0.9608 -2.3535156,-2.2754 0,-1.2233 1.1168062,-2.2735 2.3535156,-2.2735 z m 8.9374996,0 c 1.236699,0 2.273438,1.0369 2.273438,2.2735 0,1.3272 -1.023405,2.2754 -2.273438,2.2754 -1.241846,0 -2.192412,-0.8198 -2.326172,-1.9961 l 2.404297,0 c 0.370762,0 0.370762,-0.557 0,-0.5586 l -2.402344,0 c 0.142041,-1.1083 1.099524,-1.9942 2.324219,-1.9942 z"
         id="path4214"
         inkscape:connector-curvature="0"
         sodipodi:nodetypes="cccsssscccccsssccccccccccccccsccccsssssssccccs" />
      <path
         sodipodi:nodetypes="cccsssscccccsssccccccccccccccsccccsssssssccccs"
         inkscape:connector-curvature="0"
         id="path4166"
         d="m 6.9355488,1043.6628 c -0.1797699,0 -0.2077347,0.1051 -0.28125,0.2325 l -1.4140625,2.7109 c -0.3603853,-0.1453 -0.7545796,-0.2266 -1.1699219,-0.2266 -1.6356291,0 -3.0703125,1.3415 -3.0703124,2.9903 -1e-7,1.7176 1.4480151,2.9922 3.0703124,2.9922 1.6922901,0 3.0722657,-1.2871 3.0722657,-2.9922 0,-1.0437 -0.5602465,-1.97 -1.40625,-2.5059 l 0.4121093,-0.789 2.3985754,3.4113 c 0.041154,0.058 0.1426096,0.159 0.2713465,0.159 l 1.1445309,0 c 0.1440218,1.5615 1.4483258,2.7129 3.0449218,2.7129 1.62233,0 2.992188,-1.2871 2.992188,-2.9922 0,-1.6356 -1.356525,-2.9902 -2.992188,-2.9902 -1.605647,0 -2.896292,1.2048 -3.0429688,2.7109 l -0.8144526,0 0.9570314,-3.2754 0.582031,0.01 c 0.519111,0 0.51987,-0.7168 0.0078,-0.7168 l -1.7675773,-0.016 c -0.4595687,0 -0.4826045,0.7141 0.029297,0.7168 l 0.5664055,0.01 -0.839843,2.875 -2.2480467,-3.166 0.6757927,-1.2951 1.0273438,0 c 0.3707027,0 0.3707027,-0.5569 0,-0.5585 z m -2.8652344,3.4336 c 0.2975593,0 0.5767812,0.058 0.8359376,0.1524 l -1.0820313,2.0723 c -0.2068299,0.3397 0.3337774,0.6218 0.4941406,0.2578 l 1.0878907,-2.084 c 0.6200081,0.4131 1.0175781,1.1055 1.0175781,1.875 0,1.3272 -1.0138888,2.2754 -2.3535157,2.2754 -1.2500412,0 -2.3535156,-0.9608 -2.3535156,-2.2754 0,-1.2233 1.1168062,-2.2735 2.3535156,-2.2735 z m 8.9374996,0 c 1.236699,0 2.273438,1.0369 2.273438,2.2735 0,1.3272 -1.023405,2.2754 -2.273438,2.2754 -1.241846,0 -2.192412,-0.8198 -2.326172,-1.9961 l 2.404297,0 c 0.370762,0 0.370762,-0.557 0,-0.5586 l -2.402344,0 c 0.142041,-1.1083 1.099524,-1.9942 2.324219,-1.9942 z"
         style="color:#000000;font-style:normal;font-variant:normal;font-weight:normal;font-stretch:normal;font-size:medium;line-height:normal;font-family:sans-serif;text-indent:0;text-align:start;text-decoration:none;text-decoration-line:none;text-decoration-style:solid;text-decoration-color:#000000;letter-spacing:normal;word-spacing:normal;text-transform:none;direction:ltr;block-progression:tb;writing-mode:lr-tb;baseline-shift:baseline;text-anchor:start;white-space:normal;clip-rule:nonzero;display:inline;overflow:visible;visibility:visible;opacity:1;isolation:auto;mix-blend-mode:normal;color-interpolation:sRGB;color-interpolation-filters:linearRGB;solid-color:#000000;solid-opacity:1;fill:#0000ff;fill-opacity:1;fill-rule:nonzero;stroke:none;stroke-width:0.71800011;stroke-linecap:round;stroke-linejoin:round;stroke-miterlimit:4;stroke-dasharray:none;stroke-dashoffset:0;stroke-opacity:1;color-rendering:auto;image-rendering:auto;shape-rendering:auto;text-rendering:auto;enable-background:accumulate" />
    </g>
  </g>
</svg>
