<?xml version="1.0" encoding="UTF-8" standalone="no"?>
<!-- Created with Inkscape (http://www.inkscape.org/) -->

<svg
   xmlns:dc="http://purl.org/dc/elements/1.1/"
   xmlns:cc="http://creativecommons.org/ns#"
   xmlns:rdf="http://www.w3.org/1999/02/22-rdf-syntax-ns#"
   xmlns:svg="http://www.w3.org/2000/svg"
   xmlns="http://www.w3.org/2000/svg"
   xmlns:sodipodi="http://sodipodi.sourceforge.net/DTD/sodipodi-0.dtd"
   xmlns:inkscape="http://www.inkscape.org/namespaces/inkscape"
   width="16"
   height="16"
   viewBox="0 0 16 16"
   id="svg4264"
   version="1.1"
   inkscape:version="0.91 r13725"
   sodipodi:docname="way_construction2.svg">
  <defs
     id="defs4266" />
  <sodipodi:namedview
     id="base"
     pagecolor="#ffffff"
     bordercolor="#666666"
     borderopacity="1.0"
     inkscape:pageopacity="0.0"
     inkscape:pageshadow="2"
     inkscape:zoom="45.254834"
     inkscape:cx="13.7459"
     inkscape:cy="4.3758199"
     inkscape:document-units="px"
     inkscape:current-layer="layer1"
     showgrid="true"
     units="px"
     inkscape:snap-bbox="true"
     inkscape:bbox-paths="true"
     inkscape:bbox-nodes="true"
     inkscape:snap-bbox-edge-midpoints="false"
     inkscape:snap-bbox-midpoints="false"
     inkscape:object-paths="true"
     inkscape:snap-intersection-paths="true"
     inkscape:object-nodes="false"
     inkscape:snap-smooth-nodes="true"
     inkscape:snap-midpoints="true"
     inkscape:snap-object-midpoints="true"
     inkscape:snap-center="true"
     inkscape:snap-global="false">
    <inkscape:grid
       type="xygrid"
       id="grid4137" />
  </sodipodi:namedview>
  <metadata
     id="metadata4269">
    <rdf:RDF>
      <cc:Work
         rdf:about="">
        <dc:format>image/svg+xml</dc:format>
        <dc:type
           rdf:resource="http://purl.org/dc/dcmitype/StillImage" />
        <dc:title />
        <cc:license
           rdf:resource="http://creativecommons.org/publicdomain/zero/1.0/" />
      </cc:Work>
      <cc:License
         rdf:about="http://creativecommons.org/publicdomain/zero/1.0/">
        <cc:permits
           rdf:resource="http://creativecommons.org/ns#Reproduction" />
        <cc:permits
           rdf:resource="http://creativecommons.org/ns#Distribution" />
        <cc:permits
           rdf:resource="http://creativecommons.org/ns#DerivativeWorks" />
      </cc:License>
    </rdf:RDF>
  </metadata>
  <g
     inkscape:label="Camada 1"
     inkscape:groupmode="layer"
     id="layer1"
     transform="translate(0,-1036.3621)">
    <g
       id="g3382"
       transform="matrix(1.3846064,0,0,1.1346381,-204.78322,616.43092)"
       style="fill:#ffffff;fill-opacity:1">
      <rect
         id="XMLID_61_"
         x="147.89999"
         y="370.10001"
         class="st4"
         width="6.5"
         height="14.1"
         style="fill:#ffffff;fill-opacity:1" />
    </g>
    <path
       sodipodi:nodetypes="ccccc"
       style="fill:#808080;fill-opacity:1"
       inkscape:connector-curvature="0"
       id="path3387-0"
       d="m 5.0000006,1039.3621 -1.000003,0 0,-2 1.000003,0 z"
       class="st5" />
    <path
       sodipodi:nodetypes="ccccc"
       style="fill:#808080;fill-opacity:1"
       inkscape:connector-curvature="0"
       id="path3387-0-9"
       d="m 5.0000036,1043.3621 -1.0000031,0 0,-2 1.0000031,0 z"
       class="st5" />
    <path
       sodipodi:nodetypes="ccccc"
       style="fill:#808080;fill-opacity:1"
       inkscape:connector-curvature="0"
       id="path3387-0-9-7"
       d="m 5.0000037,1047.3621 -1.0000032,0 0,-2 1.0000032,0 z"
       class="st5" />
    <path
       sodipodi:nodetypes="ccccc"
       style="fill:#808080;fill-opacity:1"
       inkscape:connector-curvature="0"
       id="path3387-0-9-4"
       d="m 5.0000006,1051.3621 -1.0000032,0 0,-2 1.0000032,0 z"
       class="st5" />
    <path
       style="fill:#000000;fill-rule:evenodd;stroke:none;stroke-width:0.0616979px"
       d="m 11.617188,5.140625 c -0.165896,0.01 -0.304686,0.1699719 -0.376954,0.2636719 L 9.6621094,7.3652344 C 9.5072637,7.5056343 9.4814127,7.7330202 9.5859375,7.9140625 10.103822,8.811064 11.126952,10.449215 11.126952,10.449215 l -3.1191405,3.05664 C 7.7503333,13.112959 7.4553155,12.7416 6.8808594,12.75 c -0.462131,0.01 -0.7366883,0.163906 -1.2636719,0.722656 0,0 -1.3733516,0.07879 -1.3965222,1.37255 C 4.204442,15.751056 3.4820086,14.7905 3.0546875,16 l 8.0976565,0 C 9.8709799,15.4584 10.09227,14.374156 9.0839844,14.410156 8.673114,14.426156 8.4368704,14.148559 8.2167969,13.818359 9.4952026,12.539953 12.351562,9.7675781 12.351562,9.7675781 l -1.433593,2.4511719 1.529297,3.369141 c 0.371179,0.830899 1.616701,0.266153 1.236328,-0.560547 l -1.238282,-2.730469 1.482422,-2.4588598 0.06641,2.5018288 0.679687,3.113281 c 0.18125,0.9018 1.536659,0.606337 1.326172,-0.289063 l -0.652344,-2.990234 -0.07617,-2.5410155 c -0.0024,-0.1721 -0.07014,-0.3368375 -0.189453,-0.4609375 L 14.091797,8.0625 14.302734,7.8554688 c 0.288052,0.3532751 0.929142,0.029979 0.716797,-0.453125 l -0.07617,-0.1738282 0.253907,-0.25 c 0.18391,-0.1839102 -0.0622,-0.4549463 -0.257817,-0.2636745 L 14.783203,6.8671875 14.03125,5.1660156 c 0,0 -1.61437,-0.017391 -2.414062,-0.025391 z m 0.640624,0.8691406 1.207032,0.013672 0.658203,1.4902344 -0.277344,0.2734375 z m -1.5,2.171875 1.611329,1.0527344 -0.613282,0.5996094 z"
       id="path2224"
       inkscape:connector-curvature="0"
       sodipodi:nodetypes="cccsccccscccccccccccccccccccccccccccccccccc"
       transform="translate(-4.7683724e-7,1036.3621)" />
    <ellipse
       id="path3082"
       style="fill:#000000;stroke:#000000;stroke-width:0.3701874;stroke-linecap:round;stroke-linejoin:round"
       transform="scale(-1,1)"
       cx="-9.3238993"
       cy="1041.6497"
       rx="1.0250198"
       ry="1.083238" />
  </g>
</svg>
