<?xml version="1.0" encoding="UTF-8" standalone="no"?>
<svg
   xmlns:dc="http://purl.org/dc/elements/1.1/"
   xmlns:cc="http://creativecommons.org/ns#"
   xmlns:rdf="http://www.w3.org/1999/02/22-rdf-syntax-ns#"
   xmlns:svg="http://www.w3.org/2000/svg"
   xmlns="http://www.w3.org/2000/svg"
   xmlns:sodipodi="http://sodipodi.sourceforge.net/DTD/sodipodi-0.dtd"
   xmlns:inkscape="http://www.inkscape.org/namespaces/inkscape"
   height="512.48578"
   id="svg2217"
   inkscape:version="0.91 r13725"
   sodipodi:docname="railway_station2.svg"
   sodipodi:version="0.32"
   width="390.41052"
   version="1.1">
  <metadata
     id="metadata3">
    <rdf:RDF>
      <cc:Work
         rdf:about="">
        <dc:title></dc:title>
        <dc:description>EPS converted from  http://aiga.org</dc:description>
        <dc:subject>
          <rdf:Bag>
            <rdf:li>symbol</rdf:li>
            <rdf:li>mapsym</rdf:li>
          </rdf:Bag>
        </dc:subject>
        <dc:publisher>
          <cc:Agent
             rdf:about="http://www.openclipart.org/">
            <dc:title>Open Clip Art Library</dc:title>
          </cc:Agent>
        </dc:publisher>
        <dc:creator>
          <cc:Agent>
            <dc:title>Jean-Victor Balin</dc:title>
          </cc:Agent>
        </dc:creator>
        <dc:rights>
          <cc:Agent>
            <dc:title>Jean-Victor Balin</dc:title>
          </cc:Agent>
        </dc:rights>
        <dc:date />
        <dc:format>image/svg+xml</dc:format>
        <dc:type
           rdf:resource="http://purl.org/dc/dcmitype/StillImage" />
        <cc:license
           rdf:resource="http://web.resource.org/cc/PublicDomain" />
        <dc:language>en</dc:language>
      </cc:Work>
      <cc:License
         rdf:about="http://web.resource.org/cc/PublicDomain">
        <cc:permits
           rdf:resource="http://web.resource.org/cc/Reproduction" />
        <cc:permits
           rdf:resource="http://web.resource.org/cc/Distribution" />
        <cc:permits
           rdf:resource="http://web.resource.org/cc/DerivativeWorks" />
      </cc:License>
    </rdf:RDF>
  </metadata>
  <sodipodi:namedview
     bordercolor="#666666"
     borderopacity="1.0"
     id="base"
     inkscape:current-layer="svg2217"
     inkscape:cx="220.66739"
     inkscape:cy="309.31856"
     inkscape:pageopacity="0.0"
     inkscape:pageshadow="2"
     inkscape:window-height="988"
     inkscape:window-width="1680"
     inkscape:window-x="-8"
     inkscape:window-y="-8"
     inkscape:zoom="0.86831672"
     pagecolor="#ffffff"
     showgrid="false"
     fit-margin-top="0"
     fit-margin-left="0"
     fit-margin-right="0"
     fit-margin-bottom="0"
     inkscape:window-maximized="1">
    <inkscape:grid
       type="xygrid"
       id="grid4158"
       originx="18.426456"
       originy="21.881382" />
  </sodipodi:namedview>
  <defs
     id="defs2219">
    <marker
       id="ArrowEnd"
       markerHeight="3"
       markerUnits="strokeWidth"
       markerWidth="4"
       orient="auto"
       refX="0"
       refY="5"
       viewBox="0 0 10 10">
      <path
         d="M 0,0 10,5 0,10 Z"
         id="path2222"
         inkscape:connector-curvature="0" />
    </marker>
    <marker
       id="ArrowStart"
       markerHeight="3"
       markerUnits="strokeWidth"
       markerWidth="4"
       orient="auto"
       refX="10"
       refY="5"
       viewBox="0 0 10 10">
      <path
         d="M 10,0 0,5 10,10 Z"
         id="path2225"
         inkscape:connector-curvature="0" />
    </marker>
  </defs>
  <rect
     style="opacity:1;fill:#ffffff;fill-opacity:1;stroke:none;stroke-width:30;stroke-linecap:square;stroke-linejoin:miter;stroke-miterlimit:4;stroke-dasharray:none;stroke-dashoffset:0.60000002;stroke-opacity:1"
     id="rect4160"
     width="390.41052"
     height="512.48578"
     x="0"
     y="0" />
  <g
     id="g2227"
     transform="matrix(1.1188119,0,0,1,20.615738,18.940395)">
    <path
       d="m 156.811,399.297 0.06,0 67.572,0 49.363,72.367 39.816,0 -69.012,-103.518 c 23.012,-3.708 45.919,-27.708 45.919,-56.958 l 0,-213.858 c 0,-30.192 -25.4,-57.906 -59.907,-57.906 l -73.53,-0.048 0.003,0 L 83,39.424 c -34.507,0 -59.907,27.714 -59.907,57.906 l 0,213.858 c 0,29.25 22.907,53.25 45.919,56.958 L 0,471.664 l 39.816,0 49.363,-72.367 67.572,0 0.06,0 z"
       id="path2229"
       style="fill:#000000;stroke:none"
       inkscape:connector-curvature="0" />
    <g
       id="g2231">
      <path
         d="m 134.768,33.184 c -9.165,0 -16.591,-7.428 -16.591,-16.593 0,-9.163 7.426,-16.591 16.591,-16.591 9.163,0 16.591,7.428 16.591,16.591 0,9.165 -7.428,16.593 -16.591,16.593 z"
         id="path2233"
         style="fill:#000000;stroke:none"
         inkscape:connector-curvature="0" />
      <path
         d="m 178.854,33.184 c 9.165,0 16.591,-7.428 16.591,-16.593 C 195.445,7.428 188.019,0 178.854,0 c -9.163,0 -16.591,7.428 -16.591,16.591 0,9.165 7.428,16.593 16.591,16.593 z"
         id="path2235"
         style="fill:#000000;stroke:none"
         inkscape:connector-curvature="0" />
      <path
         d="m 231.263,336.951 c 14.505,0 26.263,-11.759 26.263,-26.263 0,-14.505 -11.758,-26.263 -26.263,-26.263 -14.505,0 -26.263,11.758 -26.263,26.263 0,14.504 11.758,26.263 26.263,26.263 z"
         id="path2237"
         style="fill:#ffffff;stroke:none"
         inkscape:connector-curvature="0" />
      <path
         d="m 156.811,198.014 0.06,0 71.751,0 c 16.5,0 30,-11.326 29.848,-29.826 l 0,-38.5 c 0,-16 -10.348,-29.962 -29.848,-29.962 l -71.751,0 -0.12,0 -71.751,0 c -19.5,0 -29.848,13.962 -29.848,29.962 l 0,38.5 C 55,186.688 68.5,198.014 85,198.014 l 71.751,0 0.06,0 z"
         id="path2239"
         style="fill:#ffffff;stroke:none"
         inkscape:connector-curvature="0" />
      <path
         d="m 156.811,88.201 0.06,0 29.001,0 c 5.5,0 9.816,-4.513 9.816,-9.763 l 0,-17 c 0,-5.25 -4.566,-9.66 -9.816,-9.66 l -29.001,0 -0.06,0 -0.06,0 -29.001,0 c -5.25,0 -9.816,4.41 -9.816,9.66 l 0,17 c 0,5.25 4.316,9.763 9.816,9.763 l 29.001,0 0.06,0 z"
         id="path2241"
         style="fill:#ffffff;stroke:none"
         inkscape:connector-curvature="0" />
      <path
         d="m 81.75,336.951 c -14.505,0 -26.263,-11.759 -26.263,-26.263 0,-14.505 11.758,-26.263 26.263,-26.263 14.505,0 26.263,11.758 26.263,26.263 0,14.504 -11.758,26.263 -26.263,26.263 z"
         id="path2243"
         style="fill:#ffffff;stroke:none"
         inkscape:connector-curvature="0" />
    </g>
  </g>
</svg>
