/* XPM */
static char * josm16DG2_xpm[] = {
"16 16 194 2",
"  	c None",
". 	c #9B4B19",
"+ 	c #873B0C",
"@ 	c #5FD15E",
"# 	c #5FD15F",
"$ 	c #5492FE",
"% 	c #92B6ED",
"& 	c #F8F5E1",
"* 	c #C89066",
"= 	c #924510",
"- 	c #753207",
"; 	c #7A5033",
"> 	c #5DCD5D",
", 	c #5DCE5D",
"' 	c #55CB57",
") 	c #BCE5A6",
"! 	c #CCE5D1",
"~ 	c #9ED8C7",
"{ 	c #83B8C7",
"] 	c #5A95FF",
"^ 	c #CAD8E2",
"/ 	c #F4D5AB",
"( 	c #A45C2D",
"_ 	c #864107",
": 	c #794B2A",
"< 	c #F9F0D9",
"[ 	c #59C559",
"} 	c #57C558",
"| 	c #4DC150",
"1 	c #CCE7B0",
"2 	c #BADDCB",
"3 	c #A5D9C2",
"4 	c #75A8DA",
"5 	c #669CF9",
"6 	c #EEE4C7",
"7 	c #C58C5C",
"8 	c #8C3D0B",
"9 	c #672A02",
"0 	c #D3AB93",
"a 	c #FFE9D1",
"b 	c #48BA4B",
"c 	c #55BD55",
"d 	c #97D387",
"e 	c #EEF0CA",
"f 	c #F8F1CF",
"g 	c #FFF1C4",
"h 	c #C7D1D5",
"i 	c #5292FB",
"j 	c #B3A6A2",
"k 	c #A0501A",
"l 	c #742C00",
"m 	c #987554",
"n 	c #F9CDB6",
"o 	c #FED2BB",
"p 	c #EBEAC3",
"q 	c #F2EDC9",
"r 	c #F7E8CB",
"s 	c #FAECCF",
"t 	c #FFF2C9",
"u 	c #FFF0BF",
"v 	c #EDE4BD",
"w 	c #628CDE",
"x 	c #865E5B",
"y 	c #8A3904",
"z 	c #6C340F",
"A 	c #E9D9B8",
"B 	c #FDF2D2",
"C 	c #F8E7CB",
"D 	c #FAEFCE",
"E 	c #DFC2B9",
"F 	c #E6ABAE",
"G 	c #F6DCC6",
"H 	c #FFF0C5",
"I 	c #F9E6B4",
"J 	c #D5E8AB",
"K 	c #A49698",
"L 	c #933E09",
"M 	c #6E2A00",
"N 	c #AB8C6A",
"O 	c #EBE0C0",
"P 	c #E7D79A",
"Q 	c #F3DF74",
"R 	c #F4E9C4",
"S 	c #D9C1B1",
"T 	c #E8AFB1",
"U 	c #F0CDBC",
"V 	c #F0C9B1",
"W 	c #EDC9A3",
"X 	c #F8DFA5",
"Y 	c #AF632C",
"Z 	c #7F3304",
"` 	c #66381D",
" .	c #988C78",
"..	c #BEB28A",
"+.	c #DECC6C",
"@.	c #F2DF7C",
"#.	c #F7EBC2",
"$.	c #DAC5B1",
"%.	c #EAB5B3",
"&.	c #E5AEB0",
"*.	c #E5A6A3",
"=.	c #F3CD9F",
"-.	c #E7C695",
";.	c #995027",
">.	c #6C2E07",
",.	c #53494B",
"'.	c #9D9B8F",
").	c #CFC079",
"!.	c #EAD56C",
"~.	c #F5E59F",
"{.	c #F8EBC0",
"].	c #E1D2B8",
"^.	c #F5D4BA",
"/.	c #FCDDBC",
"(.	c #FFE2B0",
"_.	c #DDD4A1",
":.	c #E6CAAA",
"<.	c #C19884",
"[.	c #6F5654",
"}.	c #4D6CA3",
"|.	c #D0CFBE",
"1.	c #FCEBB3",
"2.	c #F5E4A0",
"3.	c #F7EAC3",
"4.	c #F5E5B9",
"5.	c #DED3B2",
"6.	c #D2D2BA",
"7.	c #BBC9BE",
"8.	c #95B0B0",
"9.	c #8AA59F",
"0.	c #D5B89B",
"a.	c #9D8980",
"b.	c #476EB0",
"c.	c #598FEB",
"d.	c #95B6EB",
"e.	c #D0CEC0",
"f.	c #FBEBBB",
"g.	c #FEEEBE",
"h.	c #F6E6B6",
"i.	c #D9D0AE",
"j.	c #B2C2BB",
"k.	c #8DAFBF",
"l.	c #7FA4B1",
"m.	c #97A08C",
"n.	c #B5A883",
"o.	c #E0D097",
"p.	c #6B95D2",
"q.	c #568FF0",
"r.	c #7CA5EC",
"s.	c #7DA3E4",
"t.	c #B9C8D5",
"u.	c #FFF0B8",
"v.	c #F0E1B1",
"w.	c #D1C7AA",
"x.	c #C6C0A8",
"y.	c #C1BCA6",
"z.	c #BCB08F",
"A.	c #D5C186",
"B.	c #FFEB97",
"C.	c #FFE796",
"D.	c #BEC1AD",
"E.	c #6C97E0",
"F.	c #7EA4E4",
"G.	c #76A2EE",
"H.	c #72A0F0",
"I.	c #B8C7D2",
"J.	c #CDC5A9",
"K.	c #D8D2B8",
"L.	c #C4CAC5",
"M.	c #C1CACC",
"N.	c #BBC3BD",
"O.	c #A7B1AF",
"P.	c #DFD099",
"Q.	c #FFE38E",
"R.	c #FFE288",
"S.	c #D5CDA7",
"T.	c #81A7E6",
"U.	c #73A1EE",
"V.	c #74A1ED",
"W.	c #77A2EB",
"X.	c #D9D3B5",
"Y.	c #A3B8D4",
"Z.	c #7AA2E6",
"`.	c #6D9CEC",
" +	c #4F88EA",
".+	c #286DE4",
"++	c #5D84BE",
"@+	c #CFBD7F",
"#+	c #CAB36D",
"$+	c #BBAC7D",
"%+	c #7692BF",
"&+	c #6991D5",
"*+	c #6E98E0",
"=+	c #739FEA",
"                        . +     ",
"  @ #           $ % & * = - ;   ",
"  > , ' ) ! ~ { ] ^ / ( _ : <   ",
"  [ } | 1 2 3 4 5 6 7 8 9 0 a   ",
"  b c d e f g h i j k l m n o   ",
"  p q r s t u v w x y z A B C   ",
"  D E F G H I J K L M N O P Q   ",
"  R S T U V W X Y Z `  ...+.@.  ",
"  #.$.%.&.*.=.-.;.>.,.'.).!.~.  ",
"  {.].^./.(._.:.<.[.}.|.1.2.3.  ",
"  4.5.6.7.8.9.0.a.b.c.d.e.f.g.  ",
"  h.i.j.k.l.m.n.o.p.q.r.s.t.u.  ",
"  v.w.x.y.z.A.B.C.D.E.F.G.H.I.  ",
"  J.K.L.M.N.O.P.Q.R.S.T.U.V.W.  ",
"  X.Y.Z.`. +.+++@+#+$+%+&+*+=+  ",
"                                "};
