<?xml version="1.0" encoding="UTF-8" standalone="no"?>
<!-- Created with Inkscape (http://www.inkscape.org/) -->

<svg
   xmlns:dc="http://purl.org/dc/elements/1.1/"
   xmlns:cc="http://creativecommons.org/ns#"
   xmlns:rdf="http://www.w3.org/1999/02/22-rdf-syntax-ns#"
   xmlns:svg="http://www.w3.org/2000/svg"
   xmlns="http://www.w3.org/2000/svg"
   xmlns:xlink="http://www.w3.org/1999/xlink"
   xmlns:sodipodi="http://sodipodi.sourceforge.net/DTD/sodipodi-0.dtd"
   xmlns:inkscape="http://www.inkscape.org/namespaces/inkscape"
   inkscape:export-ydpi="90.000000"
   inkscape:export-xdpi="90.000000"
   inkscape:export-filename="/home/jimmac/Desktop/wi-fi.png"
   width="48px"
   height="48px"
   id="svg11300"
   sodipodi:version="0.32"
   inkscape:version="0.92.3 (2405546, 2018-03-11)"
   sodipodi:docname="emblem-system3.svg"
   inkscape:output_extension="org.inkscape.output.svg.inkscape"
   version="1.1">
  <defs
     id="defs3">
    <inkscape:perspective
       sodipodi:type="inkscape:persp3d"
       inkscape:vp_x="0 : 24 : 1"
       inkscape:vp_y="0 : 1000 : 0"
       inkscape:vp_z="48 : 24 : 1"
       inkscape:persp3d-origin="24 : 16 : 1"
       id="perspective22" />
    <linearGradient
       id="linearGradient3264">
      <stop
         style="stop-color:#c9c9c9;stop-opacity:1;"
         offset="0"
         id="stop3266" />
      <stop
         id="stop3276"
         offset="0.25"
         style="stop-color:#f8f8f8;stop-opacity:1;" />
      <stop
         id="stop3272"
         offset="0.5"
         style="stop-color:#e2e2e2;stop-opacity:1;" />
      <stop
         style="stop-color:#b0b0b0;stop-opacity:1;"
         offset="0.75"
         id="stop3274" />
      <stop
         style="stop-color:#c9c9c9;stop-opacity:1;"
         offset="1"
         id="stop3268" />
    </linearGradient>
    <linearGradient
       inkscape:collect="always"
       id="linearGradient3256">
      <stop
         style="stop-color:#000000;stop-opacity:1;"
         offset="0"
         id="stop3258" />
      <stop
         style="stop-color:#000000;stop-opacity:0;"
         offset="1"
         id="stop3260" />
    </linearGradient>
    <radialGradient
       inkscape:collect="always"
       xlink:href="#linearGradient3256"
       id="radialGradient3262"
       cx="25.455845"
       cy="39.161163"
       fx="25.455845"
       fy="39.161163"
       r="19.622213"
       gradientTransform="matrix(1.0043673,0,0,0.31729672,-1.1562752,29.543117)"
       gradientUnits="userSpaceOnUse" />
    <linearGradient
       inkscape:collect="always"
       xlink:href="#linearGradient3264"
       id="linearGradient3281"
       gradientUnits="userSpaceOnUse"
       x1="14.462892"
       y1="12.284524"
       x2="34.534348"
       y2="39.684914"
       gradientTransform="matrix(1.2364351,0,0,1.2386922,-5.260006,-6.7154919)" />
  </defs>
  <sodipodi:namedview
     stroke="#ef2929"
     fill="#eeeeec"
     id="base"
     pagecolor="#ffffff"
     bordercolor="#666666"
     borderopacity="0.25490196"
     inkscape:pageopacity="0.0"
     inkscape:pageshadow="2"
     inkscape:zoom="10.762051"
     inkscape:cx="19.628633"
     inkscape:cy="23.853753"
     inkscape:current-layer="svg11300"
     showgrid="false"
     inkscape:grid-bbox="true"
     inkscape:document-units="px"
     inkscape:showpageshadow="false"
     inkscape:window-width="1680"
     inkscape:window-height="987"
     inkscape:window-x="-8"
     inkscape:window-y="-8"
     inkscape:window-maximized="1">
    <inkscape:grid
       type="xygrid"
       id="grid829" />
  </sodipodi:namedview>
  <metadata
     id="metadata4">
    <rdf:RDF>
      <cc:Work
         rdf:about="">
        <dc:format>image/svg+xml</dc:format>
        <dc:type
           rdf:resource="http://purl.org/dc/dcmitype/StillImage" />
        <dc:creator>
          <cc:Agent>
            <dc:title>Jakub Steiner</dc:title>
          </cc:Agent>
        </dc:creator>
        <dc:source>http://jimmac.musichall.cz</dc:source>
        <cc:license
           rdf:resource="http://creativecommons.org/publicdomain/zero/1.0/" />
        <dc:title></dc:title>
        <dc:subject>
          <rdf:Bag>
            <rdf:li>emblem</rdf:li>
            <rdf:li>system</rdf:li>
            <rdf:li>library</rdf:li>
            <rdf:li>crucial</rdf:li>
            <rdf:li>base</rdf:li>
          </rdf:Bag>
        </dc:subject>
      </cc:Work>
      <cc:License
         rdf:about="http://creativecommons.org/publicdomain/zero/1.0/">
        <cc:permits
           rdf:resource="http://creativecommons.org/ns#Reproduction" />
        <cc:permits
           rdf:resource="http://creativecommons.org/ns#Distribution" />
        <cc:permits
           rdf:resource="http://creativecommons.org/ns#DerivativeWorks" />
      </cc:License>
    </rdf:RDF>
  </metadata>
  <g
     id="layer1"
     inkscape:label="Layer 1"
     inkscape:groupmode="layer">
    <ellipse
       style="color:#000000;display:inline;overflow:visible;visibility:visible;opacity:0.40909089;fill:url(#radialGradient3262);fill-opacity:1;fill-rule:nonzero;stroke:none;stroke-width:1.00532568;stroke-linecap:butt;stroke-linejoin:miter;stroke-miterlimit:4;stroke-dasharray:none;stroke-dashoffset:0;stroke-opacity:1;marker:none;marker-start:none;marker-mid:none;marker-end:none"
       id="path3254"
       cx="24.410738"
       cy="41.968815"
       rx="19.707909"
       ry="6.226069" />
    <path
       style="color:#000000;display:inline;overflow:visible;visibility:visible;opacity:1;fill:url(#linearGradient3281);fill-opacity:1;fill-rule:nonzero;stroke:#606060;stroke-width:1.69540226;stroke-linecap:butt;stroke-linejoin:miter;stroke-miterlimit:4;stroke-dasharray:none;stroke-dashoffset:0;stroke-opacity:1;marker:none;marker-start:none;marker-mid:none;marker-end:none"
       d="M 22.892274,0.94219957 C 22.428893,0.9739632 21.978502,1.0458629 21.523359,1.0980415 h -0.03112 L 20.403343,7.0512073 C 18.628514,7.4561374 16.958754,8.14334 15.456596,9.0771538 l -4.88452,-3.52203 C 9.251662,6.582126 8.0500964,7.7798952 6.9942418,9.0771538 l 3.3911642,4.9557822 c -1.0296519,1.576386 -1.8039429,3.376384 -2.2400347,5.267461 -7.48e-5,0.0089 -6.08e-5,0.02962 0,0.03117 l -5.9112055,0.935056 c -0.1080725,0.884318 -0.155558,1.798231 -0.155558,2.711652 1e-7,0.747343 0.020597,1.484703 0.093334,2.212957 l 5.9112053,1.059726 c 0.4204089,2.056507 1.2190363,3.977101 2.3333709,5.672651 l -3.5156116,4.831099 c 1.0068471,1.252239 2.1692423,2.392351 3.4222776,3.397356 l 4.977857,-3.42852 c 1.739694,1.111804 3.681705,1.891423 5.786759,2.275292 l 0.933347,5.890832 c 0.66323,0.06049 1.343373,0.06235 2.022253,0.06235 0.958423,-1e-6 1.873902,-0.0364 2.800046,-0.155843 l 1.120016,-6.015503 c 1.998673,-0.498299 3.876229,-1.362724 5.506757,-2.524642 l 4.791188,3.49086 c 1.242499,-1.059025 2.378693,-2.2763 3.360052,-3.584369 L 38.136958,31.11324 c 0.943658,-1.632715 1.597524,-3.434153 1.928921,-5.360967 l 5.880096,-0.935053 c 0.05159,-0.614736 0.06224,-1.210916 0.06224,-1.838934 0,-1.091358 -0.12662,-2.161425 -0.280005,-3.210346 l -5.973442,-1.09091 c -0.468116,-1.731688 -1.23618,-3.347337 -2.208927,-4.799932 L 41.061452,9.0459845 C 39.971724,7.7108734 38.728652,6.4775279 37.359169,5.4304502 L 32.287977,8.9213119 C 30.830463,8.0577352 29.261976,7.395125 27.559014,7.020039 L 26.625664,1.0980415 C 25.776143,0.99792847 24.919632,0.94219957 24.043401,0.94219957 c -0.23682,0 -0.480546,-0.007486 -0.715567,0 -0.114572,0.003648 -0.22795,-0.006664 -0.342227,0 -0.03096,0.001794 -0.06245,-0.002104 -0.09336,0 z M 23.701173,16.090049 c 0.113661,-0.0057 0.227143,0 0.342228,0 3.682744,0 6.688996,3.01174 6.688996,6.701207 1e-6,3.689467 -3.006253,6.670042 -6.688996,6.670042 -3.682742,1e-6 -6.657884,-2.980575 -6.657884,-6.670042 1e-6,-3.574169 2.79218,-6.522086 6.315656,-6.701207 z"
       id="path3243"
       inkscape:connector-curvature="0" />
    <ellipse
       style="color:#000000;display:inline;overflow:visible;visibility:visible;opacity:0.64772728;fill:none;fill-opacity:1;fill-rule:nonzero;stroke:#ffffff;stroke-width:1.03578794;stroke-linecap:butt;stroke-linejoin:miter;stroke-miterlimit:4;stroke-dasharray:none;stroke-dashoffset:0;stroke-opacity:1;marker:none;marker-start:none;marker-mid:none;marker-end:none"
       id="path3283"
       cx="24.116323"
       cy="22.770802"
       rx="7.9883637"
       ry="8.0036144" />
  </g>
</svg>
