<svg xmlns="http://www.w3.org/2000/svg" viewBox="0 0 101 101"><defs/><path fill="none" stroke="#045966" stroke-miterlimit="10" d="m 0.5,0.5 h 100 v 100 H 0.5 Z"/><g fill="#045966"><path d="M 45.3,25.4 A 27.5,27.5 0 0 0 29.9,21.5 66,66 0 0 0 15,23 L 14.5,23.1 3.8,79.7 H 17 l 4,-20.2 h 0.6 A 30.3,30.3 0 0 0 43.9,54.3 20.5,20.5 0 0 0 51.6,38 c 0,-5.5 -2.2,-9.8 -6.4,-12.6 z M 26.9,48.5 A 23,23 0 0 1 23.1,48.2 L 26,33 a 34,34 0 0 1 4.3,-0.2 c 5.1,0 7.7,2 7.7,6.3 0,5.5 -4.7,9.5 -11.1,9.5 z m 49.5,18.3 3.8,-3.2 c 7.9,-7 15.2,-14.8 15.2,-24.8 0,-11.2 -8,-18.5 -20.5,-18.5 -7,0 -14,2.2 -18.9,6 l -0.4,0.4 4.3,10.8 0.8,-0.6 c 4,-3 7.9,-4.4 11.6,-4.4 7.3,0 8.4,4.6 8.4,7.4 0,6.2 -5.7,12.2 -18.2,23.5 L 55,70 v 9 H 96.5 V 66.9 Z"/></g></svg>
